<?xml version="1.0" encoding="utf-8"?>
<!-- Generator: Adobe Illustrator 18.1.1, SVG Export Plug-In . SVG Version: 6.00 Build 0)  -->
<!DOCTYPE svg PUBLIC "-//W3C//DTD SVG 1.1//EN" "http://www.w3.org/Graphics/SVG/1.1/DTD/svg11.dtd">
<svg version="1.1" xmlns="http://www.w3.org/2000/svg" xmlns:xlink="http://www.w3.org/1999/xlink" x="0px" y="0px"
	 viewBox="0 0 206.7 149.2" enable-background="new 0 0 206.7 149.2" xml:space="preserve">
<g id="sbubble_x5F_left" display="none">
	
		<path display="inline" fill="#FFFFFF" stroke="#000000" stroke-width="4" stroke-linecap="round" stroke-linejoin="round" stroke-miterlimit="10" d="
		M23.2,6.1h158.2c11.2,0,20.3,9.1,20.3,20.3v39.4c0,11.2-9.1,20.3-20.3,20.3H44.4l-14.3,59.3l0.2-59.3h-7.1C12,86.2,4.8,77,4.8,65.9
		V26.4C4.8,15.2,12,6.1,23.2,6.1z"/>
</g>
<g id="sbubble_x5F_lright">
	
		<path fill="#FFFFFF" stroke="#000000" stroke-width="4" stroke-linecap="round" stroke-linejoin="round" stroke-miterlimit="10" d="
		M183.3,6.1H25.1c-11.2,0-20.3,9.1-20.3,20.3v39.4c0,11.2,9.1,20.3,20.3,20.3H162l14.3,59.3l-0.2-59.3h7.1
		c11.2,0,18.4-9.1,18.4-20.3V26.4C201.6,15.2,194.4,6.1,183.3,6.1z"/>
</g>
<g id="Layer_3" display="none">
	
		<path display="inline" fill="#FFFFFF" stroke="#000000" stroke-width="4" stroke-linecap="round" stroke-linejoin="round" stroke-miterlimit="10" d="
		M23.2,6.1h158.2c11.2,0,20.3,9.1,20.3,20.3v39.4c0,11.2-9.1,20.3-20.3,20.3h-66.9l-11.3,59.3L90.3,86.2H23.2
		C12,86.2,4.8,77,4.8,65.9V26.4C4.8,15.2,12,6.1,23.2,6.1z"/>
</g>
</svg>
