<?xml version="1.0" encoding="utf-8"?>
<!-- Generator: Adobe Illustrator 18.1.1, SVG Export Plug-In . SVG Version: 6.00 Build 0)  -->
<!DOCTYPE svg PUBLIC "-//W3C//DTD SVG 1.1//EN" "http://www.w3.org/Graphics/SVG/1.1/DTD/svg11.dtd">
<svg version="1.1" xmlns="http://www.w3.org/2000/svg" xmlns:xlink="http://www.w3.org/1999/xlink" x="0px" y="0px"
	 viewBox="0 0 206.7 139.9" enable-background="new 0 0 206.7 139.9" xml:space="preserve">
<g id="sbubble_x5F_left" display="none">
	
		<path display="inline" fill="#FFFFFF" stroke="#000000" stroke-width="4" stroke-linecap="round" stroke-linejoin="round" stroke-miterlimit="10" d="
		M23.2,4.7l159.5,0c11.3,0,20.5,9.2,20.5,20.5v39.8c0,11.3-9.2,20.5-20.5,20.5H45.2H32.3h-9.1c-11.3,0-18.5-9.2-18.5-20.5V25.2
		C4.7,13.9,11.9,4.7,23.2,4.7z"/>
	<g display="inline">
		<path fill="#FFFFFF" d="M27.9,104.3c-2.5-1.3-2.7-5.8-1.1-8.1c3.3-4.9,12.7-4.2,16.9-2.1c3.6,1.8,6,6,2.8,9.9
			c-2.9,4-7.9,3.8-12,3.3c-2.1-0.5-4.3-1-6.3-1.8l0,0c-0.5-0.5-0.3-0.9-0.5-1.3"/>
		<g>
			<path d="M28.8,102.7c-4.3-3.1,1.2-7.5,4.2-8.1c3-0.6,6.4-0.3,9.2,0.9c5.9,2.5,3.4,9.1-2.1,10c-1.8,0.3-10.2,0.3-10.7-1.8
				c-0.5-2.4-4.1-1.4-3.6,1c0.8,3.4,5.1,3.9,8.1,4.4c3.2,0.5,6.8,0.6,9.8-0.7c6.4-2.8,8.2-10.8,2.3-15c-4.5-3.3-12.4-3.8-17.3-1.2
				c-5.1,2.7-6.7,10.1-1.7,13.8C28.9,107.4,30.7,104.1,28.8,102.7L28.8,102.7z"/>
		</g>
	</g>
	<g display="inline">
		<path fill="#FFFFFF" d="M34,117.9c1.7-3.6,11-1.8,13.2,0.5c1.9,2.2-0.3,5-2.7,5.5c-2.4,0.2-5.3-0.4-7.3-1.4
			c-1.9-0.6-3.8-2.4-3.1-4.7"/>
		<g>
			<path d="M35.6,118.9c1.4-2.4,6.8-0.9,8.7-0.1c0.6,0.3,1.3,0.5,1.6,1.2c0.6,1.6-1.8,2.1-3,2c-1.8,0-7.5-1-7-3.7
				c0.4-2.4-3.2-3.4-3.6-1c-1.6,9.8,19.1,11.8,17.4,2.1c-0.6-3.6-5.2-4.7-8.2-5.2c-3.2-0.5-7.3-0.4-9.1,2.8
				C31.2,119.1,34.5,121,35.6,118.9L35.6,118.9z"/>
		</g>
	</g>
	<g display="inline">
		<path fill="#FFFFFF" d="M41.5,131.5c0.8-1.8,5.4-0.9,6.5,0.2c0.9,1.1-0.2,2.5-1.3,2.7c-1.2,0.1-2.6-0.2-3.6-0.7
			C42.1,133.4,41.2,132.5,41.5,131.5"/>
		<g>
			<path d="M42.5,132.1c0.5-1,3.1-0.2,3.8,0.1c0.1,0.1,0.6,0.2,0.6,0.4c0.1,0.5-0.9,0.6-1.2,0.6c-0.6,0-3.3-0.4-3.1-1.4
				c0.3-1.6-2.1-2.3-2.4-0.7c-0.9,5.3,10.1,6.3,9.2,1.1c-0.3-1.9-2.6-2.6-4.3-2.8c-1.7-0.3-3.9-0.2-4.8,1.5
				C39.6,132.2,41.7,133.5,42.5,132.1L42.5,132.1z"/>
		</g>
	</g>
</g>
<g id="sbubble_x5F_lright">
	
		<path fill="#FFFFFF" stroke="#000000" stroke-width="4" stroke-linecap="round" stroke-linejoin="round" stroke-miterlimit="10" d="
		M184.6,4.7H25.1c-11.3,0-20.5,9.2-20.5,20.5v39.8c0,11.3,9.2,20.5,20.5,20.5h137.5h12.8h9.1c11.3,0,18.5-9.2,18.5-20.5V25.2
		C203.1,13.9,195.9,4.7,184.6,4.7z"/>
	<g>
		<path fill="#FFFFFF" d="M180,104.3c2.5-1.3,2.7-5.8,1.1-8.1c-3.3-4.9-12.7-4.2-16.9-2.1c-3.6,1.8-6,6-2.8,9.9
			c2.9,4,7.9,3.8,12,3.3c2.1-0.5,4.3-1,6.3-1.8l0,0c0.5-0.5,0.3-0.9,0.5-1.3"/>
		<g>
			<path d="M180.9,105.9c4.8-3.5,3.5-10.8-1.3-13.6c-4.9-2.8-13.1-2.3-17.7,1c-5.8,4.2-4.2,12.1,2,15c3,1.4,6.6,1.4,9.8,0.8
				c3-0.5,7.6-0.9,8.4-4.4c0.5-2.4-3.1-3.4-3.6-1c-0.4,1.9-8.3,2.1-10,1.9c-2.4-0.2-5.1-1.3-6.1-3.7c-1.3-2.8,0.7-5.4,3.3-6.4
				c2.6-1.1,5.7-1.4,8.5-1c1.6,0.2,3.3,0.6,4.5,1.7c1.6,1.5,2.5,4.9,0.4,6.4C177.1,104.1,178.9,107.4,180.9,105.9L180.9,105.9z"/>
		</g>
	</g>
	<g>
		<path fill="#FFFFFF" d="M173.8,117.9c-1.7-3.6-11-1.8-13.2,0.5c-1.9,2.2,0.3,5,2.7,5.5c2.4,0.2,5.3-0.4,7.3-1.4
			c1.9-0.6,3.8-2.4,3.1-4.7"/>
		<g>
			<path d="M175.4,117c-1.7-3.1-5.7-3.2-8.8-2.8c-3.1,0.4-7.9,1.5-8.5,5.2c-1.8,9.7,19.1,7.7,17.4-2.1c-0.4-2.4-4-1.4-3.6,1
				c0.4,2.6-4.7,3.5-6.4,3.7c-1,0.1-3.7,0.2-3.7-1.5c0-0.9,1-1.3,1.7-1.6c1.9-0.8,7.4-2.3,8.7,0.1C173.4,121,176.6,119.1,175.4,117
				L175.4,117z"/>
		</g>
	</g>
	<g>
		<path fill="#FFFFFF" d="M166.4,131.5c-0.8-1.8-5.4-0.9-6.5,0.2c-0.9,1.1,0.2,2.5,1.3,2.7c1.2,0.1,2.6-0.2,3.6-0.7
			C165.7,133.4,166.6,132.5,166.4,131.5"/>
		<g>
			<path d="M167.4,130.8c-0.9-1.6-3-1.8-4.7-1.5c-1.7,0.2-4.1,0.9-4.4,2.8c-0.9,5.2,10.1,4.3,9.2-1.1c-0.3-1.6-2.7-0.9-2.4,0.7
				c0.2,0.9-2.3,1.3-2.9,1.4c-0.9,0.1-2.1-0.4-0.8-0.9c0.7-0.3,3.3-1.1,3.8-0.1C166.1,133.5,168.2,132.2,167.4,130.8L167.4,130.8z"
				/>
		</g>
	</g>
</g>
<g id="sbubble_x5F_center" display="none">
	
		<path display="inline" fill="#FFFFFF" stroke="#000000" stroke-width="4" stroke-linecap="round" stroke-linejoin="round" stroke-miterlimit="10" d="
		M23.2,4.7l159.5,0c11.3,0,20.5,9.2,20.5,20.5v39.8c0,11.3-9.2,20.5-20.5,20.5H45.2H32.3h-9.1c-11.3,0-18.5-9.2-18.5-20.5V25.2
		C4.7,13.9,11.9,4.7,23.2,4.7z"/>
	<g display="inline">
		<path fill="#FFFFFF" d="M91.5,104.7c-2.5-1.4-2.8-6-1.1-8.3c3.4-5,13-4.2,17.3-2.2c3.7,1.8,6.1,6.2,2.8,10.1
			c-3,4.1-8.1,3.9-12.3,3.4c-2.2-0.5-4.4-1-6.5-1.8l0,0c-0.5-0.6-0.3-0.9-0.5-1.3"/>
		<g>
			<path d="M92.4,103.1c-4.4-3.2,1.2-7.8,4.3-8.4c3-0.6,6.6-0.3,9.4,0.9c6.1,2.6,3.5,9.4-2.2,10.3c-1.8,0.3-10.5,0.3-11-1.9
				c-0.5-2.4-4.1-1.4-3.6,1c0.8,3.5,5.2,3.9,8.3,4.4c3.2,0.6,6.9,0.6,10-0.7c6.5-2.9,8.3-10.9,2.3-15.3c-4.6-3.3-12.6-3.8-17.7-1.2
				c-5.2,2.7-6.9,10.3-1.8,14C92.5,107.7,94.4,104.5,92.4,103.1L92.4,103.1z"/>
		</g>
	</g>
	<g display="inline">
		<path fill="#FFFFFF" d="M93.8,118.6c1.7-3.7,11.2-1.8,13.5,0.5c1.9,2.3-0.3,5.2-2.7,5.6c-2.4,0.2-5.4-0.4-7.5-1.4
			c-1.9-0.6-3.9-2.5-3.2-4.8"/>
		<g>
			<path d="M95.4,119.5c1.4-2.5,7-0.9,9-0.1c0.7,0.3,1.4,0.5,1.6,1.2c0.6,1.7-1.8,2.2-3.1,2.1c-1.9-0.1-7.7-1.1-7.2-3.9
				c0.4-2.4-3.2-3.4-3.6-1c-1.7,10,19.5,12,17.7,2.2c-0.6-3.6-5.3-4.8-8.4-5.3c-3.2-0.5-7.5-0.4-9.3,2.8
				C91,119.8,94.2,121.6,95.4,119.5L95.4,119.5z"/>
		</g>
	</g>
	<g display="inline">
		<path fill="#FFFFFF" d="M98.4,132.5c0.9-1.8,5.5-0.9,6.6,0.2c0.9,1.1-0.2,2.5-1.3,2.7c-1.2,0.1-2.6-0.2-3.7-0.7
			C99.1,134.4,98.1,133.5,98.4,132.5"/>
		<g>
			<path d="M99.5,133.1c0.6-1,3.2-0.2,4,0.1c0.2,0.1,0.6,0.2,0.7,0.4c0.2,0.6-0.9,0.6-1.3,0.6c-0.7,0-3.4-0.4-3.2-1.5
				c0.3-1.6-2.1-2.3-2.4-0.7c-0.9,5.4,10.2,6.4,9.3,1.1c-0.3-1.9-2.7-2.6-4.3-2.8c-1.7-0.3-3.9-0.2-4.9,1.5
				C96.5,133.2,98.7,134.5,99.5,133.1L99.5,133.1z"/>
		</g>
	</g>
</g>
</svg>
