<?xml version="1.0" encoding="utf-8"?>
<!-- Generator: Adobe Illustrator 18.1.0, SVG Export Plug-In . SVG Version: 6.00 Build 0)  -->
<svg version="1.1" id="Layer_1" xmlns="http://www.w3.org/2000/svg" xmlns:xlink="http://www.w3.org/1999/xlink" x="0px" y="0px"
	 viewBox="0 0 25.7 34.7" enable-background="new 0 0 25.7 34.7" xml:space="preserve">
<g>
	<path fill="#1AB6BF" d="M16.7,29.7H9c-0.5,0-0.9,0.4-0.9,0.9c0,0.5,0.4,0.9,0.9,0.9h7.7c0.5,0,0.9-0.4,0.9-0.9
		C17.6,30.1,17.2,29.7,16.7,29.7z"/>
	<path fill="#1AB6BF" d="M14.8,33H11c-0.5,0-0.9,0.4-0.9,0.9c0,0.5,0.4,0.9,0.9,0.9h3.8c0.5,0,0.9-0.4,0.9-0.9
		C15.6,33.4,15.2,33,14.8,33z"/>
	<path fill="#1AB6BF" d="M12.9,5.7c-5.7,0-10.2,4.5-10.2,10.1c0,2.6,0.8,4.5,1.9,5.8c1.9,2,3.8,2.9,4.1,6.4h4.2h4.2
		c0.3-3.5,2.2-4.4,4.1-6.4c1.3-1.5,1.9-3.2,1.9-5.8C23.1,10.2,18.5,5.7,12.9,5.7z M19.9,20.4c-0.4,0.4-0.8,0.8-1.1,1.1
		c-1.3,1.2-2.6,2.4-3.2,4.7h-1.9v-6.9l2.7-2.7c0.3-0.3,0.3-0.9,0-1.2c-0.3-0.3-0.9-0.3-1.2,0l-2.4,2.4l-2.4-2.4
		c-0.3-0.3-0.9-0.3-1.2,0c-0.3,0.3-0.3,0.9,0,1.2l2.8,2.8v6.8h-2c-0.6-2.3-1.9-3.5-3.1-4.7c-0.4-0.4-0.8-0.7-1.1-1.1
		c-1-1.3-1.5-2.8-1.5-4.7c0-4.6,3.8-8.4,8.5-8.4c4.7,0,8.5,3.7,8.5,8.4C21.4,17.8,21,19.2,19.9,20.4z"/>
	<path fill="#1AB6BF" d="M12.8,3.9c0.5,0,0.9-0.4,0.9-0.9V0.9c0-0.5-0.4-0.9-0.9-0.9C12.3,0,12,0.4,12,0.9V3
		C12,3.5,12.3,3.9,12.8,3.9z"/>
	<path fill="#1AB6BF" d="M25.5,5.4c-0.3-0.3-0.9-0.3-1.2,0l-1.8,1.8c-0.3,0.3-0.3,0.9,0,1.2c0.2,0.2,0.4,0.2,0.6,0.2
		c0.2,0,0.4-0.1,0.6-0.3l1.8-1.8C25.8,6.3,25.8,5.7,25.5,5.4z"/>
	<path fill="#1AB6BF" d="M3.2,8.4c0.3-0.3,0.3-0.9,0-1.2L1.5,5.4c-0.3-0.3-0.9-0.3-1.2,0c-0.3,0.3-0.3,0.9,0,1.2L2,8.4
		c0.2,0.2,0.4,0.3,0.6,0.3C2.8,8.6,3.1,8.5,3.2,8.4z"/>
</g>
</svg>
