<?xml version="1.0" encoding="utf-8"?>
<!-- Generator: Adobe Illustrator 18.1.0, SVG Export Plug-In . SVG Version: 6.00 Build 0)  -->
<svg version="1.1" id="Layer_1" xmlns="http://www.w3.org/2000/svg" xmlns:xlink="http://www.w3.org/1999/xlink" x="0px" y="0px"
	 viewBox="0 0 66.7 66.7" enable-background="new 0 0 66.7 66.7" xml:space="preserve">
<path fill="#3767A3" d="M33.4,0C14.9,0,0,14.9,0,33.4c0,18.4,14.9,33.4,33.4,33.4c18.4,0,33.4-14.9,33.4-33.4
	C66.7,14.9,51.8,0,33.4,0z M40.5,33.4h-4.7c0,7.5,0,16.7,0,16.7h-6.9c0,0,0-9.1,0-16.7h-3.3v-5.9h3.3v-3.8c0-2.7,1.3-7,7-7l5.1,0
	v5.7c0,0-3.1,0-3.7,0c-0.6,0-1.5,0.3-1.5,1.6v3.5h5.3L40.5,33.4z"/>
</svg>
