<?xml version="1.0" encoding="utf-8"?>
<!-- Generator: Adobe Illustrator 18.1.0, SVG Export Plug-In . SVG Version: 6.00 Build 0)  -->
<svg version="1.1" id="Layer_1" xmlns="http://www.w3.org/2000/svg" xmlns:xlink="http://www.w3.org/1999/xlink" x="0px" y="0px"
	 viewBox="0 0 66.7 66.7" enable-background="new 0 0 66.7 66.7" xml:space="preserve">
<g>
	<path fill="#DC5E4B" d="M26.6,18.3c-2.6-0.1-4.4,2.6-4,6.1c0.5,3.5,3,5.9,5.6,6c2.6,0.1,4.2-2.2,3.7-5.6
		C31.5,21.2,29.2,18.4,26.6,18.3z"/>
	<path fill="#DC5E4B" d="M27.7,37.5c-3.9,0-7.3,2.5-7.3,5.4c0,3,2.9,5.5,6.8,5.5c5.6,0,7.5-2.3,7.5-5.4c0-0.4,0-0.7-0.1-1.1
		c-0.4-1.7-2.2-2.6-4.3-4.1C29.5,37.6,28.6,37.5,27.7,37.5z"/>
	<path fill="#DC5E4B" d="M33.4,0C14.9,0,0,14.9,0,33.4c0,18.4,14.9,33.4,33.4,33.4c18.4,0,33.4-14.9,33.4-33.4
		C66.7,14.9,51.8,0,33.4,0z M35.9,24.5c0,2.2-1.2,3.9-2.9,5.3c-1.7,1.3-2,1.8-2,2.9c0,0.9,2,2.3,2.9,3c3.2,2.4,3.8,3.9,3.8,6.9
		c0,3.7-4,7.4-10.5,7.4c-5.7,0-10.5-2.3-10.5-6c0-3.8,4-7.7,9.7-7.7c0.6,0,1.2,0,1.8,0c-0.8-0.8-1.4-1.4-1.4-2.6
		c0-0.7,0.2-1.3,0.5-1.9c-0.3,0-0.6,0-1,0c-4.7,0-7.4-3.3-7.4-7.4c0-4,4.2-7.7,9.1-7.7c2.6,0,9.8,0,9.8,0L35.7,19h-2.6
		C34.9,20,35.9,22.2,35.9,24.5z M50,23.9h-4.5v4.5h-2.3v-4.5h-4.5v-2.3h4.5v-4.5h2.3v4.5H50V23.9z"/>
</g>
</svg>
