<?xml version="1.0" encoding="utf-8"?>
<!-- Generator: Adobe Illustrator 18.1.0, SVG Export Plug-In . SVG Version: 6.00 Build 0)  -->
<svg version="1.1" id="Layer_1" xmlns="http://www.w3.org/2000/svg" xmlns:xlink="http://www.w3.org/1999/xlink" x="0px" y="0px"
	 viewBox="0 0 36.8 29" enable-background="new 0 0 36.8 29" xml:space="preserve">
<g>
	<path fill="#1AB6BF" d="M31.9,0H4.9C2.2,0,0,2.2,0,4.9v19.2C0,26.8,2.2,29,4.9,29h27.1c2.7,0,4.9-2.2,4.9-4.9V4.9
		C36.8,2.2,34.6,0,31.9,0z M34.7,24.1c0,1.6-1.3,2.8-2.8,2.8H4.9c-1.6,0-2.8-1.3-2.8-2.8V4.9C2,3.3,3.3,2,4.9,2h27.1
		c1.6,0,2.8,1.3,2.8,2.8V24.1z"/>
	<path fill="#1AB6BF" d="M24.8,14.5c-0.2-0.2-0.4-0.4-0.7-0.4c-0.3,0-0.6,0.1-0.8,0.3l-4,3.8l-4.5-5.8c-0.2-0.2-0.5-0.4-0.8-0.4
		c-0.3,0-0.6,0.1-0.8,0.4l-7,8.8c-0.4,0.4-0.3,1.1,0.2,1.4c0.4,0.4,1.1,0.3,1.4-0.2l6.2-7.8l4.4,5.7c0.2,0.2,0.4,0.4,0.7,0.4
		c0.3,0,0.6-0.1,0.8-0.3l4-3.8l4.5,5.8c0.2,0.3,0.5,0.4,0.8,0.4c0.2,0,0.4-0.1,0.6-0.2c0.4-0.3,0.5-1,0.2-1.4L24.8,14.5z"/>
	<path fill="#1AB6BF" d="M26.8,4.5c-2.2,0-4,1.8-4,4c0,2.2,1.8,4,4,4c2.2,0,4-1.8,4-4C30.8,6.3,29,4.5,26.8,4.5z M26.8,10.7
		c-1.2,0-2.2-1-2.2-2.2c0-1.2,1-2.2,2.2-2.2c1.2,0,2.2,1,2.2,2.2C29,9.7,28,10.7,26.8,10.7z"/>
</g>
</svg>
