<?xml version="1.0" encoding="utf-8"?>
<!-- Generator: Adobe Illustrator 18.1.0, SVG Export Plug-In . SVG Version: 6.00 Build 0)  -->
<svg version="1.1" id="Layer_1" xmlns="http://www.w3.org/2000/svg" xmlns:xlink="http://www.w3.org/1999/xlink" x="0px" y="0px"
	 viewBox="0 0 66 64.4" enable-background="new 0 0 66 64.4" xml:space="preserve">
<path fill-rule="evenodd" clip-rule="evenodd" fill="#191717" d="M33,0C14.8,0,0,14.8,0,33c0,14.6,9.5,27,22.6,31.3
	c1.7,0.3,2.3-0.7,2.3-1.6c0-0.8,0-2.9,0-5.6c-9.2,2-11.1-4.4-11.1-4.4c-1.5-3.8-3.7-4.8-3.7-4.8c-3-2,0.2-2,0.2-2
	c3.3,0.2,5.1,3.4,5.1,3.4c2.9,5,7.7,3.6,9.6,2.7c0.3-2.1,1.2-3.6,2.1-4.4c-7.3-0.8-15-3.7-15-16.3c0-3.6,1.3-6.5,3.4-8.9
	c-0.3-0.8-1.5-4.2,0.3-8.7c0,0,2.8-0.9,9.1,3.4c2.6-0.7,5.5-1.1,8.3-1.1c2.8,0,5.6,0.4,8.3,1.1c6.3-4.3,9.1-3.4,9.1-3.4
	c1.8,4.5,0.7,7.9,0.3,8.7c2.1,2.3,3.4,5.3,3.4,8.9c0,12.7-7.7,15.5-15.1,16.3c1.2,1,2.2,3,2.2,6.1c0,4.4,0,8,0,9.1
	c0,0.9,0.6,1.9,2.3,1.6C56.6,59.9,66,47.6,66,33C66,14.8,51.2,0,33,0z"/>
</svg>
