<?xml version="1.0" encoding="utf-8"?>
<!-- Generator: Adobe Illustrator 18.1.0, SVG Export Plug-In . SVG Version: 6.00 Build 0)  -->
<svg version="1.1" id="Layer_1" xmlns="http://www.w3.org/2000/svg" xmlns:xlink="http://www.w3.org/1999/xlink" x="0px" y="0px"
	 viewBox="0 0 29 28.8" enable-background="new 0 0 29 28.8" xml:space="preserve">
<g>
	<path fill="#1AB6BF" d="M22.8,11L11.1,22.8l-1.7-1.7L21.2,9.2l-1.3-1.3L8.1,19.8l-1.9-1.9L18,6l-1.3-1.3L3.9,17.6
		c-0.1,0.1-0.2,0.2-0.2,0.3l-3.6,9.6c-0.1,0.3,0,0.7,0.2,0.9c0.2,0.2,0.4,0.3,0.6,0.3c0.1,0,0.2,0,0.3,0l9.5-3.2
		c0.1,0,0.3-0.1,0.3-0.2l13.1-13.1L22.8,11z M5.1,19.3L9.7,24l-5.2,1.7l-1.4-1.4L5.1,19.3z"/>
	<path fill="#1AB6BF" d="M28.4,5.2l-4.6-4.6C23.4,0.2,22.9,0,22.4,0c-0.5,0-1,0.2-1.4,0.6L19.5,2l0,0l-1.3,1.3l7.5,7.5l1.3-1.3l0,0
		l1.4-1.4C29.2,7.3,29.2,6,28.4,5.2z M27.1,6.8l-1.4,1.4l-4.9-4.9l1.4-1.4c0.1-0.1,0.1-0.1,0.2-0.1c0,0,0.1,0,0.2,0.1l4.6,4.6
		c0.1,0.1,0.1,0.1,0.1,0.2C27.2,6.7,27.2,6.7,27.1,6.8z"/>
</g>
</svg>
