<?xml version="1.0" encoding="utf-8"?>
<!-- Generator: Adobe Illustrator 18.1.0, SVG Export Plug-In . SVG Version: 6.00 Build 0)  -->
<svg version="1.1" id="Layer_1" xmlns="http://www.w3.org/2000/svg" xmlns:xlink="http://www.w3.org/1999/xlink" x="0px" y="0px"
	 viewBox="0 0 29.4 30.3" enable-background="new 0 0 29.4 30.3" xml:space="preserve">
<path fill="#1AB6BF" d="M29.4,15.6c0,8.1-6.6,14.7-14.7,14.7S0,23.7,0,15.6S6.6,0.9,14.7,0.9S29.4,7.5,29.4,15.6z M14.7,3.9
	C8.1,3.9,2.9,9.2,2.9,15.7s5.3,11.8,11.8,11.8s11.8-5.3,11.8-11.8S21.2,3.9,14.7,3.9z"/>
<path fill="#1AB6BF" d="M14.7,14.8l-0.1,0c-1.1,0-2.1-0.9-2.1-2.1l0-10.6c0-1.1,0.9-2.1,2.1-2.1l0.1,0c1.1,0,2.1,0.9,2.1,2.1l0,10.6
	C16.8,13.9,15.9,14.8,14.7,14.8z"/>
</svg>
