<?xml version="1.0" encoding="utf-8"?>
<!-- Generator: Adobe Illustrator 18.1.0, SVG Export Plug-In . SVG Version: 6.00 Build 0)  -->
<svg version="1.1" id="Layer_1" xmlns="http://www.w3.org/2000/svg" xmlns:xlink="http://www.w3.org/1999/xlink" x="0px" y="0px"
	 viewBox="0 0 66.7 66.7" enable-background="new 0 0 66.7 66.7" xml:space="preserve">
<path fill="#1DAAE1" d="M33.4,0C14.9,0,0,14.9,0,33.4c0,18.4,14.9,33.4,33.4,33.4c18.4,0,33.4-14.9,33.4-33.4
	C66.7,14.9,51.8,0,33.4,0z M46.6,26.6c0,0.3,0,0.6,0,0.9c0,9-6.9,19.5-19.5,19.5c-3.9,0-7.5-1.1-10.5-3.1c0.5,0.1,1.1,0.1,1.6,0.1
	c3.2,0,6.2-1.1,8.5-2.9c-3-0.1-5.5-2-6.4-4.8c0.4,0.1,0.8,0.1,1.3,0.1c0.6,0,1.2-0.1,1.8-0.2c-3.1-0.6-5.5-3.4-5.5-6.7
	c0,0,0-0.1,0-0.1c0.9,0.5,2,0.8,3.1,0.9c-1.8-1.2-3-3.3-3-5.7c0-1.3,0.3-2.4,0.9-3.4c3.4,4.1,8.4,6.9,14.1,7.2
	c-0.1-0.5-0.2-1-0.2-1.6c0-3.8,3.1-6.8,6.8-6.8c2,0,3.7,0.8,5,2.2c1.6-0.3,3-0.9,4.3-1.7c-0.5,1.6-1.6,2.9-3,3.8
	c1.4-0.2,2.7-0.5,3.9-1.1C49.1,24.4,48,25.6,46.6,26.6z"/>
</svg>
