<?xml version="1.0" encoding="utf-8"?>
<!-- Generator: Adobe Illustrator 17.1.0, SVG Export Plug-In . SVG Version: 6.00 Build 0)  -->
<!DOCTYPE svg PUBLIC "-//W3C//DTD SVG 1.0//EN" "http://www.w3.org/TR/2001/REC-SVG-20010904/DTD/svg10.dtd">
<svg version="1.0" id="Layer_1" xmlns="http://www.w3.org/2000/svg" xmlns:xlink="http://www.w3.org/1999/xlink" x="0px" y="0px"
	 viewBox="0 0 200 200" enable-background="new 0 0 200 200" xml:space="preserve">
<g>
	<ellipse fill="#D2D2D0" cx="99.442" cy="175.135" rx="73.166" ry="6.538"/>
	<path fill="#5F3A18" stroke="#010101" stroke-miterlimit="10" d="M135.792,142.44c24.493-29.017,32.172,1.636,24.162,6.586
		c-0.891-5.445,0.053-7.833-5.589-10.883C148.724,135.093,136.219,152.653,135.792,142.44z"/>
	<path fill="#5F3A18" d="M68.74,119.564c-2.757,8.503-17.785-3.597-12.313-13.991c5.471-10.393,22.768-35.524,36.657-30.569
		C105.395,81.305,71.496,111.062,68.74,119.564z"/>
	<path fill="#ED7C23" stroke="#010101" stroke-miterlimit="10" d="M79.848,129.742c0,0,4.945,34.944,0,38.735
		c-4.945,3.791,11.868,0.989,11.868,0.989l-2.308-29.01L79.848,129.742z"/>
	<path fill="#ED7C23" stroke="#010101" stroke-miterlimit="10" d="M107.444,132.142c0,0,4.945,34.944,0,38.734
		c-4.945,3.791,11.868,0.99,11.868,0.99l-2.308-29.01L107.444,132.142z"/>
	<path fill="#F49A37" stroke="#1D1D1B" stroke-miterlimit="10" d="M90.645,74.03c-7.582-2.721-14.918,8.49-42.856-8.489
		c-11.043,32.965,24.064,31.07,24.064,31.07s-1.895,28.845,16.401,46.729c1.154,13.104,5.934,25.466-0.825,29.421
		c-6.758,3.956,11.538,4.615,12.775,1.813c1.236-2.802,0.494-20.851,0.494-20.851s9.148,8.653,15.988,5.933
		c-3.379,4.698,0.743,11.291,0.743,11.291s0.328,1.154-2.144,3.049c-2.473,1.896,20.851,1.402,27.031-0.081
		c6.181-1.484,8.737-22.581-3.543-34.614C126.494,127.27,105.726,120.676,90.645,74.03z"/>
	<g>
		
			<ellipse transform="matrix(0.4014 -0.9159 0.9159 0.4014 -25.5631 114.3064)" fill="#2B1711" cx="74.662" cy="76.709" rx="4.584" ry="4.213"/>
		<path fill="#FFFFFF" stroke="#010101" stroke-miterlimit="10" d="M75.929,72.513c-0.333-0.155-0.678-0.264-1.058-0.323
			c-0.221-0.024-0.442-0.048-0.68-0.047c-1.174-0.02-2.183,0.385-3.026,1.214c-0.843,0.829-1.286,1.822-1.282,3.014
			c-0.015,0.501,0.075,0.984,0.223,1.433c0.193,0.571,0.533,1.115,0.991,1.593c0.025,0.017,0.025,0.017,0.029,0.038
			c0.235,0.216,0.467,0.412,0.716,0.582c0.269,0.167,0.531,0.291,0.834,0.408c0.021-0.004,0.046,0.013,0.046,0.013
			c0.441,0.156,0.909,0.221,1.389,0.24c1.192-0.005,2.2-0.41,3.043-1.239c0.478-0.458,0.812-0.997,1.028-1.579
			c0.157-0.441,0.242-0.912,0.236-1.41c0.016-1.195-0.389-2.204-1.217-3.047C76.804,73.022,76.378,72.711,75.929,72.513z"/>
		<path d="M74.927,78.902c-0.232,0.152-0.508,0.181-0.808,0.085c-0.395-0.143-0.61-0.363-0.655-0.723
			c-0.031-0.168-0.024-0.364,0.032-0.526c0.23-0.628,0.646-0.836,1.249-0.623c0.233,0.087,0.407,0.206,0.518,0.337
			c-0.025-0.017-0.07-0.03-0.095-0.047c-0.279-0.1-0.46-0.023-0.542,0.231c-0.03,0.071-0.036,0.158-0.024,0.221
			c0.027,0.147,0.114,0.261,0.276,0.317c0.254,0.083,0.435,0.006,0.517-0.248c0.009-0.067,0.022-0.112,0.015-0.154
			c0.035,0.188,0.028,0.385-0.033,0.635C75.303,78.594,75.162,78.771,74.927,78.902z"/>
	</g>
	
		<ellipse transform="matrix(0.9822 0.1877 -0.1877 0.9822 13.1825 -7.5218)" fill="#2B1711" cx="46.299" cy="65.83" rx="5.646" ry="3.42"/>
	<path fill="#010101" d="M66.494,96.489l-1.336-0.449c2.787-0.371,8.304-1.845,8.982-3.286c0.084-0.177,0.149-0.432-0.096-0.826
		l0.838-0.523c0.465,0.744,0.34,1.373,0.153,1.77C73.905,95.573,67.285,96.383,66.494,96.489z"/>
	<path fill="#419F91" d="M94.411,101.983c1.355-0.869,4.79-3.749,6.769-5.53c1.975-1.782-2.433-6.349-3.544-5.094
		c0.17,0.668,0.883,1.966,0.883,1.966c-11.081,9.901-24.355,7.292-25.762,6.786c-1.407-0.511-2.397,3.645-0.314,4.433
		C74.527,105.335,82.776,109.45,94.411,101.983z"/>
	<path fill="#5F3A18" stroke="#1D1D1B" stroke-miterlimit="10" d="M100.616,123.479c3.461,8.241-15.823,8.882-18.46-2.564
		c-2.637-11.447-5.934-41.775,7.823-47.086C103.419,70.569,97.154,115.237,100.616,123.479z"/>
</g>
</svg>
