<?xml version="1.0" encoding="utf-8"?>
<!-- Generator: Adobe Illustrator 17.1.0, SVG Export Plug-In . SVG Version: 6.00 Build 0)  -->
<!DOCTYPE svg PUBLIC "-//W3C//DTD SVG 1.0//EN" "http://www.w3.org/TR/2001/REC-SVG-20010904/DTD/svg10.dtd">
<svg version="1.0" id="Layer_1" xmlns="http://www.w3.org/2000/svg" xmlns:xlink="http://www.w3.org/1999/xlink" x="0px" y="0px"
	 viewBox="0 0 200 200" enable-background="new 0 0 200 200" xml:space="preserve">
<g>
	<path fill="none" d="M40.424,128.738c-0.001-0.015,0.013-0.032,0.013-0.032c0.03-0.018,0.058-0.051,0.087-0.068
		c0.014-0.017,0.03-0.018,0.029-0.033c0.001,0.015,0.001,0.015,0.002,0.031c-0.026,0.064-0.052,0.128-0.077,0.207l-0.081-0.04
		C40.397,128.787,40.411,128.77,40.424,128.738z"/>
	<path fill="none" d="M94.164,101.694l0.096,0.039c-0.031,0.002-0.077,0.006-0.123,0.009
		C94.151,101.726,94.15,101.71,94.164,101.694z"/>
	<path fill="none" d="M44.48,126.265c-0.015,0.001-0.017-0.014-0.032-0.013l0.014-0.017C44.478,126.249,44.48,126.265,44.48,126.265
		z"/>
	<path fill="none" d="M49.363,133.746c0.001,0.015,0.017,0.014,0.033,0.028l-0.028,0.033
		C49.367,133.792,49.366,133.777,49.363,133.746z"/>
	<path fill="none" d="M119.411,109.233c-0.059,0.035-0.121,0.04-0.197,0.061l0.084-0.115
		C119.346,109.191,119.379,109.22,119.411,109.233z"/>
	<path fill="none" d="M38.009,94.056c0.313-0.163,0.657-0.313,1.003-0.463c-0.235,0.374-0.454,0.762-0.673,1.135
		c-0.864,1.474-1.664,2.974-2.398,4.531c-0.175,0.354-0.334,0.707-0.493,1.059c-0.21-0.727-0.311-1.246-0.334-1.554
		c-0.075-0.583-0.122-0.997-0.126-1.26c-0.034-0.447,0.016-0.806,0.133-1.109C35.417,95.614,36.381,94.844,38.009,94.056z"/>
	<path fill="none" d="M96.924,142.373c-0.014,0.017-0.029,0.033-0.027,0.049l-0.017-0.03
		C96.893,142.375,96.908,142.374,96.924,142.373z"/>
	<path fill="none" d="M45.618,126.581c0.065,0.042,0.131,0.099,0.197,0.155l-0.071,0.083
		C45.707,126.73,45.67,126.655,45.618,126.581z"/>
	<path fill="none" d="M138.675,83.442l0.01-0.078C138.687,83.395,138.689,83.426,138.675,83.442z"/>
	<path fill="none" d="M98.972,53.988c-0.001-0.015-0.017-0.014-0.017-0.014l0.015-0.001L98.972,53.988z"/>
	<path fill="none" d="M45.533,127.099c0.046-0.003,0.092-0.007,0.139-0.01l-0.056,0.081
		C45.583,127.141,45.55,127.113,45.533,127.099z"/>
	<path fill="none" d="M110.752,86.601c0.001,0.015,0.002,0.031,0.002,0.031l-0.11-0.023
		C110.691,86.606,110.721,86.604,110.752,86.601z"/>
	<path d="M120.18,32.014c-0.779-0.684-1.141-1.571-1.131-2.67c0.067,0.273,0.119,0.548,0.186,0.822
		c0.194,0.728,0.534,1.337,1.036,1.826c0.217,0.216,0.481,0.428,0.773,0.607c-0.065-0.041-0.13-0.083-0.211-0.123
		C120.592,32.339,120.364,32.186,120.18,32.014z"/>
	<path d="M28.016,102.783l-0.164-0.529c1.22,2.834,2.501,5.648,3.811,8.444c-0.033,0.173-0.083,0.331-0.132,0.505
		c-0.374,1.607-0.733,3.214-1.03,4.815c-0.028,0.033-0.058,0.051-0.088,0.068c0.018,0.03,0.034,0.044,0.052,0.074
		c-0.375,2.01-0.689,4-0.938,6.031c-0.227,1.921-0.362,3.821-0.371,5.756c-0.02,1.998,0.078,3.911,0.291,5.706
		c0.23,1.809,0.633,3.265,1.246,4.411c0.611,1.13,1.632,2.137,3.062,3.035c1.429,0.883,2.85,1.86,4.277,2.929
		c1.379,1.042,2.599,2.235,3.662,3.594c1.321,1.712,2.613,3.441,3.845,5.206c1.161,1.631,2.334,3.23,3.553,4.825
		c0.893,1.171,1.756,2.344,2.604,3.534c1.042,1.501,1.813,3.099,2.331,4.84c0.208,0.712,0.17,1.427-0.12,2.099
		c-0.67,1.583-1.725,3.195-3.164,4.852c-1.44,1.641-2.97,3.32-4.577,5.005c-0.731,0.767-1.366,1.388-1.915,1.909
		c0.212,0.139,0.412,0.325,0.583,0.545c0.001,0.015,0.018,0.03,0.035,0.059c-0.001-0.015-0.001-0.015,0.014-0.017
		c0.155,0.205,0.325,0.409,0.511,0.612c-0.858,0.73-1.55,1.418-2.062,2.013c-0.754,0.877-1.208,1.639-1.359,2.301
		c-0.097,0.363-0.09,1.06-0.013,2.091c0.006,0.077,0.014,0.185,0.02,0.262c0.131,0.099,0.249,0.214,0.365,0.328
		c0.102,0.116,0.189,0.249,0.276,0.366c0.081,0.056,0.163,0.112,0.247,0.198c0.021,0.076,0.044,0.167,0.067,0.274
		c1.314,1.201,2.881,2.275,4.718,3.236c2.176,1.136,4.533,2.011,7.04,2.612c2.175,0.517,3.971,0.722,5.357,0.617
		c0.693-0.052,1.302-0.191,1.826-0.416c0.032,0.013,0.064,0.026,0.097,0.055c0.179-0.091,0.376-0.152,0.589-0.199
		c0.395-0.711,0.677-1.491,0.863-2.31c0.139-0.615,0.199-1.052,0.177-1.345c-0.123-1.631-0.844-2.769-2.177-3.412
		c-0.837-0.417-2.267-0.712-4.261-0.871c-2.134-0.164-3.543-0.383-4.259-0.639c-1.005-0.389-1.656-1.021-1.957-1.927
		c0.267,0.042,0.533,0.084,0.813,0.109c0.024-0.296,0.112-0.566,0.231-0.838c-0.046,0.003-0.094-0.008-0.14-0.005
		c0.027-0.049,0.055-0.097,0.067-0.144c1.113-2.283,2.31-4.262,3.625-5.924c0.593-0.757,1.773-2.146,3.539-4.184
		c1.396-1.607,2.386-2.843,2.943-3.674c0.807-1.206,1.181-2.194,1.123-2.964c-0.101-1.339-1.918-5.104-5.437-11.325
		c-0.82-1.424-1.673-2.893-2.544-4.375c2.67,0.913,5.653,1.462,8.951,1.678c1.123,0.937,2.297,1.917,3.506,2.971
		c5.478,4.696,8.261,7.505,8.329,8.413c0.021,0.277-0.224,0.93-0.735,1.96c-0.549,1.141-1.207,2.258-1.961,3.353
		c-0.976,1.42-1.901,2.512-2.8,3.308c0.204,0.248,0.363,0.499,0.459,0.755c0.03-0.018,0.044-0.034,0.059-0.035
		c0.07,0.103,0.155,0.205,0.241,0.322c0.154,0.189,0.308,0.395,0.476,0.568c-1.189,0.663-2.103,1.676-2.76,3.026
		c-0.176,0.338-0.32,0.69-0.448,1.04c0.136,0.16,0.226,0.324,0.3,0.488c0.033,0.028,0.051,0.058,0.084,0.087
		c0.518,1.323,1.182,2.543,2.008,3.626c3.255,4.368,8.369,6.273,15.342,5.747c1.431-0.108,2.533-0.284,3.304-0.528
		c0.302-0.1,0.571-0.229,0.825-0.356c0.037-0.127,0.075-0.238,0.129-0.35c0.031-0.002,0.076-0.021,0.121-0.04
		c0.06-0.237,0.135-0.475,0.193-0.727c0.026-0.064,0.067-0.144,0.108-0.21c0.017-0.187,0.063-0.392,0.141-0.599
		c-0.022-0.091-0.046-0.198-0.07-0.305c0.008-0.093,0.003-0.17-0.001-0.217c-0.131-1.74-0.869-2.907-2.217-3.533
		c-0.883-0.413-2.324-0.645-4.357-0.709c-2.172-0.068-3.624-0.222-4.34-0.478c-1.334-0.441-2.056-1.393-2.164-2.825
		c-0.008-0.108-0.002-0.232,0.003-0.372c0.046-0.003,0.077-0.006,0.109,0.007c0,0,0.001,0.015,0.002,0.031
		c0.324-0.009,0.623,0.046,0.88,0.166c0.026-0.064,0.038-0.111,0.049-0.174c0.031-0.002,0.061-0.005,0.092-0.007
		c0.006-0.124,0.012-0.249,0.034-0.374c0.365-1.112,1.201-3.171,2.492-6.164c1.845-4.273,2.715-6.893,2.611-7.86
		c-0.087-0.953-1.056-2.506-2.919-4.626c-1.238-1.424-2.89-3.42-4.958-6.004c1.975-0.288,3.835-0.676,5.61-1.151
		c1.017-0.263,2.663-0.82,4.94-1.627c1.417-0.509,2.686-1.333,3.809-2.455c0.031-0.002,0.046-0.003,0.062-0.005
		c-0.002-0.031-0.003-0.046,0.011-0.063c0.029-0.033,0.057-0.066,0.101-0.101c0.473-0.5,0.902-0.966,1.302-1.414
		c0.629-0.078,1.254-0.203,1.862-0.357c0.791-0.184,1.545-0.457,2.26-0.821c0.85-0.436,1.31-1.105,1.365-2.023
		c0.028-0.235-0.004-0.465-0.066-0.676c2.57-3.074,4.781-6.399,6.633-9.96c1.719-3.272,3.151-6.662,4.327-10.157
		c0.984-2.969,1.778-5.986,2.368-9.034c1.776,1.584,3.064,2.648,3.847,3.178c1.42,0.961,2.706,1.39,3.845,1.305
		c3.156-0.238,5.752-2.152,7.821-5.715c0.67-1.181,1.307-2.576,1.912-4.2c0.547-1.574,0.891-2.56,1.061-2.975
		c0.731-1.805,1.669-4.352,2.831-7.614c0.025-0.079,0.051-0.143,0.077-0.207c1.464-0.498,2.459-1.672,2.987-3.507
		c0.222-0.744,0.347-1.559,0.372-2.459c0.015-0.419,0.015-0.822-0.015-1.222c-0.093-1.231-0.489-2.378-1.189-3.44
		c-0.455-0.693-0.975-1.227-1.592-1.614c0.037-0.127,0.057-0.268,0.094-0.394c1.636,0.341,3.332,0.662,5.072,0.949
		c0.423,0.061,0.846,0.137,1.253,0.184c0.289,0.551,0.596,1.132,0.936,1.741c1.805,3.193,3.215,5.269,4.263,6.227
		c0.131,0.098,0.75,0.919,1.885,2.412c1.24,1.656,2.397,3.039,3.456,4.152c2.272,2.414,4.482,3.997,6.614,4.765
		c0.067-0.144,0.15-0.275,0.249-0.39c0.015-0.001,0.047,0.012,0.064,0.026c0.055-0.097,0.111-0.179,0.166-0.26
		c0.043-0.05,0.087-0.084,0.146-0.119c-0.032-0.013-0.047-0.012-0.063-0.026c2.907-4.972,5.011-9.714,6.283-14.191
		c1.729-6.013,2.947-12.035,3.666-18.096c0.214-1.673,0.366-3.356,0.469-5.067c0.058-0.051,0.13-0.118,0.203-0.186l-0.359-0.251
		c0.037-0.127,0.058-0.252,0.11-0.38c-0.653-0.044-1.379-0.02-2.134,0.037c-3.864,0.292-6.842,0.826-8.983,1.591
		c-2.124,0.779-4.32,1.626-6.57,2.586c-2.236,0.943-4.247,1.776-6.02,2.498c-0.451,0.174-0.947,0.381-1.455,0.621
		c-0.001-0.015-0.001-0.015,0.013-0.032c-0.001-0.015,0.013-0.032,0.027-0.049c-1.372-0.33-2.365-0.565-2.996-0.718
		c-0.836-0.2-2.587-0.44-5.285-0.7c-1.513-0.149-3.898-0.372-7.125-0.655c-0.005-0.062-0.329-0.053-1.006-0.002
		c-1.663,0.125-2.961,1.385-3.895,3.777c-0.324,0.83-0.565,1.746-0.74,2.703c-0.126,0.799-0.19,1.377-0.16,1.777
		c0.045,0.6,0.239,1.112,0.578,1.505c0.322,0.363,0.812,0.697,1.484,0.987c0.558,0.221,1.383,0.484,2.506,0.786
		c0.568,0.143,1.089,0.274,1.578,0.392c-0.067,0.346-0.149,0.693-0.214,1.069c-0.328-0.037-0.652-0.028-1.006-0.002
		c-1.247,0.094-2.224,0.895-2.914,2.418c-0.224,0.512-0.401,1.052-0.528,1.619c-0.106,0.441-0.146,0.739-0.135,0.877
		c0.139,1.847,0.856,2.722,2.133,2.626c0.246-0.019,0.505-0.085,0.759-0.197c0.084,0.087,0.151,0.159,0.251,0.244
		c-0.032,0.188-0.064,0.376-0.112,0.566c-0.173,0.168-0.311,0.395-0.397,0.696c-0.07,0.299-0.092,0.626-0.064,0.996
		c0.008,0.108,0.033,0.23,0.104,0.348c-0.175,0.958-0.336,1.914-0.511,2.872c0.056,0.739,0.235,1.267,0.538,1.585
		c0.05,0.043,0.084,0.086,0.117,0.115l-0.133,0.289c-0.344,0.986-0.655,1.985-0.936,2.981c-0.577,1.994-1.382,3.851-2.441,5.603
		c-0.385,0.648-0.802,1.268-1.252,1.875c-0.07,0.098-0.155,0.197-0.242,0.282c-0.513-0.225-0.999-0.513-1.474-0.864
		c-1.298-1.001-2.498-2.118-3.582-3.368c-1.036-1.207-2.028-2.463-2.96-3.74c0.073-2.111,0.086-4.202,0.003-6.317
		c-0.035-0.88-0.102-1.757-0.214-2.631c0.247-0.421,0.435-0.791,0.566-1.111c0.259-0.67,0.388-1.02,0.385-1.051
		c-0.029-0.385-0.249-0.833-0.69-1.341c-0.239-0.292-0.487-0.505-0.777-0.654c0.103-0.488,0.196-0.897,0.263-1.227
		c0.932-0.163,1.547-0.426,1.829-0.788c0.128-0.149,0.178-0.308,0.166-0.477l-0.063-0.212c-0.046-0.616-0.233-1.035-0.574-1.242
		c-0.178-0.11-0.48-0.212-0.903-0.272c0.035-0.142,0.071-0.284,0.091-0.425c0.102-0.503,0.121-1.062,0.076-1.662
		c-0.069-0.506-0.104-0.766-0.105-0.782c-0.013-0.169-0.024-0.323-0.035-0.462c-0.015,0.001-0.031,0.002-0.045,0.019
		c-0.006-0.077-0.012-0.154-0.017-0.231c-0.014-0.185,0.004-0.356,0.023-0.513c-1.253,0.218-2.834,0.4-4.774,0.546
		c-4.018,0.303-7.691,0.255-11.032-0.128c-0.647-0.369-1.362-0.811-2.174-1.322c-2.278-1.469-3.95-3.108-4.997-4.871
		c-0.869-1.467-1.37-3.179-1.516-5.118c-0.013-0.169-0.027-0.354-0.024-0.525c1.182-0.135,2.363-0.07,3.529,0.198
		c3.07,0.682,5.986,1.778,8.778,3.286c1.565,0.842,3.146,1.682,4.725,2.508c0.821,0.418,1.658,0.835,2.51,1.25
		c0.594,0.28,1.202,0.544,1.84,0.79c0.942,0.378,1.922,0.645,2.909,0.802c1.127,0.163,2.129-0.099,3.009-0.753
		c0.441-0.312,0.719-0.735,0.881-1.243c0.318-1.123,0.236-2.201-0.246-3.264c-0.664-1.421-1.693-2.535-3.069-3.329
		c-2.914-1.684-5.884-2.884-8.88-3.603c-3.012-0.733-5.477-1.181-7.423-1.329c-1.947-0.163-3.918-0.215-5.895-0.159
		c-0.712,0.007-1.328,0.038-1.898,0.081c0.302-0.921,0.668-1.815,1.117-2.639c1.701-3.101,4.255-5.167,7.69-6.216
		c0.22,0.045,0.441,0.106,0.661,0.151c1.404,0.343,2.879,0.805,4.409,1.386c1.947,0.766,3.574,1.402,4.896,1.906
		c3.155,1.186,5.64,2.315,7.486,3.383c0.826,0.48,1.574,0.965,2.232,1.473c0.038-0.312,0.11-0.597,0.214-0.868l-0.001-0.015
		c0.071-0.083,0.125-0.18,0.18-0.277c0.287-0.502,0.558-1.017,0.78-1.561c0.489,0.118,0.941,0.161,1.356,0.13
		c0.647-0.049,1.089-0.345,1.328-0.874c0.08-0.161,0.128-0.35,0.159-0.554c0.006-0.124,0.016-0.202,0.01-0.279
		c-0.015-0.2-0.15-0.546-0.435-1.051c-0.164-0.328-0.438-0.679-0.825-1.083c0.635-2.045,1.143-4.142,1.541-6.247
		c-0.001-0.015-0.001-0.015,0.013-0.032c0.144-0.754,0.272-1.522,0.384-2.289c0.124,0.006,0.249,0.012,0.372,0.003
		c1.032-0.078,1.667-0.482,1.92-1.228c0.127-0.366,0.145-0.754,0.067-1.166c-0.671-2.117-1.26-3.977-1.767-5.564
		c0.024-2.355-0.309-7.377-0.313-7.438c0.638,0.246,1.291,0.29,1.976,0.13c0.943-0.226,1.645-0.774,2.139-1.617
		c0.054-0.097,0.095-0.178,0.135-0.258c0.374-0.787,0.465-1.63,0.244-2.511c-0.23-0.989-0.767-1.754-1.596-2.279
		c-0.83-0.541-1.709-0.692-2.636-0.467c-0.624,0.14-1.143,0.442-1.576,0.862c-0.021-0.076-0.958-2.436-1.412-3.33
		c-0.689-1.326-1.463-2.568-2.371-3.723c1.99,0.933,3.619,2.003,4.903,3.222c0.256-0.097,0.365-0.291,0.344-0.568
		c-0.008-0.108-0.351-0.964-1.029-2.554c-0.675-1.559-1.2-2.774-1.605-3.626l-0.009-0.123c2.257,0.573,4.542,1.515,6.888,2.855
		c2.2,1.243,4.247,2.729,6.14,4.429c0.899,0.83,1.719,1.651,2.463,2.477c0.362,0.484,0.715,1.061,1.06,1.747
		c-0.19-0.868-0.44-1.732-0.753-2.591c-0.481-1.249-1.037-2.461-1.682-3.62c-0.594-1.101-1.334-2.082-2.236-2.959
		c-0.603-0.605-1.251-1.191-1.943-1.742c-0.247-0.198-0.494-0.396-0.74-0.579c-0.231-0.184-0.476-0.351-0.705-0.52
		c-0.391-0.265-0.768-0.53-1.158-0.78c-0.812-0.496-1.652-0.974-2.492-1.437c-0.921-0.503-1.868-0.958-2.83-1.397
		c-2.021-0.931-4.118-1.64-6.292-2.142c-2.63-0.591-5.271-1.12-7.921-1.57c-0.675-0.119-1.362-0.192-2.058-0.185
		c-3.044-0.126-6.086-0.021-9.126,0.317c-2.176,0.304-4.34,0.761-6.443,1.4c-2.242,0.664-4.387,1.569-6.438,2.699
		c-2.645,1.469-5.064,3.262-7.228,5.36c-1.847,1.78-3.479,3.746-4.882,5.88c-1.374,2.101-2.475,4.336-3.287,6.704
		c-1.647,4.846-3.137,9.727-4.422,14.654c-0.388,1.422-0.744,2.858-1.117,4.28c-0.486,1.972-1.051,3.919-1.712,5.826
		c-1.137,3.399-2.529,6.709-4.159,9.928c-0.837,1.627-1.706,3.241-2.593,4.825c-0.464,0.825-0.929,1.634-1.395,2.443
		c-0.342,0.599-0.685,1.182-1.028,1.765c-0.356,0.615-0.728,1.232-1.084,1.847c-0.743,1.233-1.486,2.465-2.215,3.681
		c-0.69,1.12-1.378,2.256-2.066,3.392c-0.274,0.47-0.564,0.94-0.854,1.411c-3.619,1.481-7.255,2.947-10.909,4.384
		c-1.909,0.763-3.71,1.72-5.417,2.886c-0.957,0.66-1.698,1.506-2.21,2.52c-0.325,0.613-0.477,1.274-0.47,1.986
		c0.011,0.556,0.085,1.124,0.22,1.686C26.737,99.179,27.323,100.993,28.016,102.783z M115.601,18.101
		c-0.049-0.027-0.082-0.056-0.116-0.1c-0.142-0.036-0.301-0.086-0.443-0.121c-0.207-0.077-0.399-0.156-0.606-0.233
		c-3.557-1.388-6.175-2.027-7.822-1.902c-0.616,0.046-0.832,0.264-0.648,0.653c0.036,0.477,0.185,1.008,0.429,1.578
		c0.446,0.988,0.691,1.573,0.751,1.755l-0.065,0.16c-0.049-0.027-0.353-0.159-0.866-0.399c-0.639-0.261-1.306-0.49-2.017-0.684
		c-2.23-0.621-4.584-0.831-7.077-0.643c-2.463,0.186-4.066,0.694-4.793,1.523c-0.243,0.266-0.39,0.571-0.428,0.884
		c0.006,0.077,0.003,0.248,0.025,0.54c0.033,0.431,0.257,0.941,0.672,1.528c0.514,0.658,0.876,1.142,1.103,1.48l0.054,0.104
		c-0.015,0.001-0.031,0.002-0.046,0.003c-0.385,0.029-0.945-0.006-1.711-0.103c-1.185,0.089-1.957,0.736-2.302,1.907
		c-0.11,0.38-0.173,0.787-0.185,1.237c-0.003,0.372,0.012,0.572,0.013,0.587c0.021,0.478,0.044,0.786,0.053,0.909
		c0.015,0.2,0.059,0.367,0.131,0.501c0.375,0.452,0.888,1.094,1.504,1.884l0.133,0.114c-0.047-0.012-0.094-0.008-0.124-0.006
		c-1.873,0.002-3.274,1.129-4.204,3.367c-0.316,0.736-0.574,1.623-0.791,2.645c-0.088,0.471-0.167,0.864-0.222,1.162
		c-0.771-0.159-1.695-0.306-2.776-0.472c0.007-0.728-0.017-1.454-0.071-2.177c-0.006-0.077-0.002-0.433-0.003-1.068
		c-0.005-0.681-0.082-1.294-0.214-1.811c-0.404-1.657-1.344-2.422-2.806-2.312c-1.694,0.128-3.01,1.558-3.981,4.279
		c-0.304,0.89-0.557,1.853-0.757,2.89c-0.142,0.785-0.197,1.284-0.182,1.484c0.066,0.877,0.178,1.535,0.334,1.957
		c0.151,0.36,0.328,0.656,0.547,0.888c-0.129,0.35-0.246,0.638-0.336,0.877c-1.241,2.849-3.2,4.375-5.878,4.577
		c-2.509,0.189-4.626-0.162-6.333-1.039c0.349-1.327,0.714-2.639,1.08-3.952c0.553-1.915,1.121-3.816,1.722-5.703
		c0.589-1.84,1.162-3.68,1.752-5.504c0.611-1.951,1.416-3.807,2.411-5.6c1.416-2.569,3.129-4.896,5.138-6.998
		c3.343-3.504,7.264-6.122,11.774-7.902c2.437-0.942,4.955-1.628,7.556-2.041c2.248-0.371,4.525-0.558,6.8-0.575
		c0.977,0.019,1.939,0.055,2.887,0.107c0.964,0.051,1.914,0.134,2.866,0.233c1.873,0.199,3.725,0.54,5.54,0.991
		c1.61,0.405,3.193,0.874,4.752,1.422c1.779,0.594,3.504,1.299,5.19,2.101c1.302,0.63,2.548,1.356,3.741,2.179
		c1.308,0.923,2.532,1.961,3.64,3.1c0.824,0.867,1.574,1.785,2.252,2.772c0.416,0.588,0.756,1.197,1.036,1.826
		c0.018,0.03,0.02,0.06,0.037,0.075c-0.017-0.014-0.033-0.028-0.051-0.058c-0.437-0.462-0.89-0.924-1.356-1.353
		c-1.268-1.205-3.005-2.483-5.23-3.863c-2.225-1.38-4.923-2.462-8.095-3.26l-0.533,0.118c-0.047-0.012-0.07,0.098-0.05,0.36
		c0.027,0.354,0.345,1.29,0.955,2.808c0.622,1.47,0.96,2.265,0.985,2.387l0.008,0.108c-0.015,0.001-0.032-0.013-0.049-0.027
		C118.993,19.563,117.422,18.846,115.601,18.101z M123.924,25.817c-1.099,0.625-1.754,0.968-1.948,1.061
		c-0.271,0.098-0.631,0.249-1.065,0.452c-0.255,0.112-0.539,0.242-0.853,0.389c-0.014,0.017-0.03,0.018-0.03,0.018
		c-0.001-0.015,0.012-0.047,0.011-0.063c0.077-0.207,0.171-0.4,0.281-0.579c0.109-0.194,0.221-0.357,0.364-0.507
		c0.4-0.448,0.92-0.735,1.529-0.874C122.823,25.591,123.383,25.626,123.924,25.817z M121.502,31.682
		c-0.032-0.013-0.064-0.026-0.097-0.055c-0.197-0.14-0.394-0.295-0.562-0.468c-0.42-0.433-0.708-0.968-0.866-1.622
		c-0.112-0.456-0.13-0.904-0.069-1.326c0.075-0.037,0.164-0.074,0.253-0.128c0.269-0.129,0.554-0.259,0.851-0.42
		c0.149-0.073,0.313-0.163,0.491-0.254c1.058-0.544,1.966-1.031,2.739-1.461c0.097,0.054,0.194,0.109,0.291,0.164
		c0.73,0.44,1.198,1.102,1.405,2c0.221,0.881,0.115,1.725-0.307,2.5c-0.028,0.033-0.041,0.065-0.07,0.098
		c-0.426,0.713-1.026,1.177-1.817,1.36c-0.67,0.159-1.309,0.099-1.936-0.21C121.713,31.805,121.6,31.752,121.502,31.682z
		 M114.402,60.286c0.055-0.097,0.109-0.194,0.147-0.305c0.215-0.434,0.415-0.867,0.597-1.314c0.324,0.192,0.615,0.356,0.858,0.493
		c0.403,0.217,0.789,0.405,1.156,0.548c-0.15,0.476-0.306,0.874-0.436,1.194c-0.078,0.192-0.173,0.369-0.253,0.545
		c-0.486-0.288-1.021-0.604-1.602-0.916C114.725,60.463,114.564,60.382,114.402,60.286z M110.04,58.277
		c0.093-0.208,0.184-0.432,0.277-0.64c0.224-0.528,0.416-1.053,0.59-1.624c0.405,0.233,0.826,0.48,1.248,0.742
		c0.88,0.584,1.645,1.083,2.279,1.469c-0.127,0.366-0.216,0.635-0.266,0.779c-0.144,0.351-0.275,0.671-0.407,0.975
		C112.795,59.509,111.56,58.937,110.04,58.277z M104.666,56.004c0.361-0.755,0.665-1.444,0.944-2.053
		c0.596,0.11,1.213,0.28,1.801,0.483c0.889,0.289,1.85,0.712,2.849,1.24c-0.181,0.679-0.383,1.283-0.577,1.793
		c-0.079,0.192-0.158,0.368-0.222,0.543c-0.656-0.276-1.36-0.579-2.128-0.908C106.423,56.723,105.529,56.357,104.666,56.004z
		 M98.955,53.974l0.015-0.001c0.748-0.134,1.515-0.238,2.331-0.3c1.247-0.094,2.473-0.047,3.665,0.157
		c-0.248,0.607-0.524,1.263-0.826,1.982c-1.851-0.727-3.569-1.341-5.169-1.824C98.971,53.973,98.955,53.974,98.955,53.974z
		 M87.644,67.181c0.023-0.513,0.09-1.06,0.2-1.656c0.792-0.168,1.651-0.279,2.575-0.349c4.264-0.322,8.045,0.136,11.359,1.372
		c1.657,0.618,3.385,1.572,5.171,2.877c0.255-0.112,0.364-0.306,0.344-0.568c-0.029-0.385-0.606-0.852-1.748-1.416
		c-1.079-0.553-2.465-1.068-4.129-1.577c-3.978-1.217-7.268-1.727-9.87-1.547c-0.005-0.062-0.375-0.049-1.13,0.008
		c-0.847,0.064-1.644,0.17-2.391,0.32c0.02-0.141,0.056-0.283,0.093-0.41c0.352-0.058,0.703-0.115,1.056-0.157
		c2.023-0.276,4.048-0.321,6.09-0.134c1.995,0.175,3.968,0.475,5.937,0.915c1.951,0.41,3.881,0.961,5.775,1.639
		c1.909,0.676,3.711,1.578,5.405,2.689c0.783,0.529,1.45,1.16,2.016,1.891c0.343,0.439,0.564,0.902,0.697,1.434
		c0.114,0.487,0.135,0.965,0.078,1.449c-0.152,1.064-0.739,1.697-1.774,1.93c-0.776,0.182-1.567,0.164-2.342-0.056
		c-0.805-0.203-1.568-0.47-2.321-0.8c-0.863-0.353-1.698-0.754-2.52-1.188c-3.307-1.763-6.667-3.414-10.095-4.936
		c-1.844-0.852-3.791-1.417-5.81-1.698C89.417,67.094,88.534,67.083,87.644,67.181z M101.105,81.028
		c0.068,0.289,0.12,0.564,0.189,0.868c-1.011-0.264-1.98-0.594-2.923-0.987C99.273,80.965,100.175,81.021,101.105,81.028z
		 M104.755,82.626c-0.878-0.15-1.791-0.345-2.72-0.553c-0.074-0.366-0.131-0.718-0.185-1.023c0.882-0.005,1.81-0.013,2.736-0.052
		C104.645,81.582,104.703,82.135,104.755,82.626z M108.515,80.748c0.08,1.062,0.117,1.756,0.109,2.051
		c-0.007,0.109-0.013,0.233-0.02,0.358c-0.499-0.04-0.826-0.077-1.014-0.094c-0.657-0.09-1.329-0.178-2.02-0.297
		c-0.037-0.291-0.051-0.476-0.055-0.522c-0.018-0.448-0.05-0.863-0.081-1.279c0.633-0.032,1.265-0.065,1.911-0.113
		C107.746,80.821,108.131,80.792,108.515,80.748z M111.538,81.418c0.045,0.802-0.03,1.457-0.237,1.984
		c-0.032-0.013-0.063-0.011-0.094-0.008c-0.717-0.07-1.34-0.116-1.854-0.154c-0.043-1.189-0.076-2.038-0.099-2.547
		c0.799-0.076,1.521-0.161,2.165-0.241C111.455,80.727,111.496,81.065,111.538,81.418z M110.611,85.761
		c-1.509,0.114-2.39,0.134-2.627,0.059c-0.242,0.08-0.578,0.137-1.025,0.17c-0.03,0.002-0.077,0.006-0.123,0.009
		c0.149,0.128,0.407,0.263,0.773,0.391c0.761,0.237,1.773,0.315,3.035,0.22c0.046-0.003,0.077-0.006,0.108-0.008
		c0.001,0.015,0.002,0.031,0.002,0.031c-0.013,0.032-0.011,0.063-0.025,0.079c-0.11,0.597-0.321,1.696-0.618,3.298
		c-1.113,0.223-2.255,0.278-3.468,0.2c-2.241-0.156-4.442-0.594-6.586-1.314c-5-1.635-9.907-3.479-14.751-5.498
		c-1.136-0.487-2.259-1.006-3.368-1.542c-0.051-0.058-0.101-0.116-0.168-0.173c-0.175-0.064-0.35-0.128-0.524-0.177
		c-2.53-1.311-4.963-2.784-7.301-4.434c-3.009-2.126-5.818-4.469-8.413-7.06c-2.576-2.546-4.889-5.297-6.925-8.271
		c0.373-0.802,0.729-1.619,1.054-2.448c0.641-1.566,1.202-3.156,1.684-4.772c0.065-0.16,0.114-0.334,0.163-0.508
		c0.553-1.899,1.075-3.812,1.565-5.722c0.097-0.348,0.18-0.695,0.277-1.043c1.822,0.962,4.017,1.338,6.589,1.144
		c2.432-0.183,4.28-1.345,5.559-3.469c0.343-0.583,0.733-1.371,1.165-2.41c0.322,0.162,0.697,0.211,1.128,0.178
		c0.601-0.045,1.214-0.324,1.841-0.836c0.517-0.535,0.791-0.803,0.82-0.836L80.4,40.325l-0.083-0.071
		c-0.065-0.042-0.16-0.065-0.314-0.054c-0.077,0.006-0.32,0.272-0.745,0.799c-0.503,0.518-1.008,0.804-1.516,0.842
		c-0.708,0.053-1.206-0.389-1.508-1.311c-0.16-0.483-0.259-0.971-0.268-1.497c1.097-4.959,2.315-7.482,3.639-7.582
		c1.355-0.102,2.212,0.592,2.604,2.095c0.112,0.456,0.183,0.992,0.196,1.564c-0.024,0.497-0.021,0.745-0.021,0.745
		c-0.038,0.932-0.093,1.849-0.162,2.783c0.014-0.017,0.03-0.018,0.028-0.033l0.001,0.015c1.851,0.325,3.342,0.584,4.488,0.792
		c0.072-0.268,0.145-0.537,0.205-0.774c-0.032-0.013-0.064-0.026-0.095-0.024c0.399-1.687,0.754-2.936,1.062-3.78
		c0.36-0.971,0.981-1.777,1.863-2.385c0.882-0.624,2.035-0.726,3.446-0.291c0.059-0.035,0.104-0.054,0.119-0.071
		c0.028-0.033,0.021-0.126,0.01-0.279c-0.007-0.092-0.16-0.267-0.473-0.522c-0.56-0.453-0.892-0.738-1.009-0.853
		c-0.997-0.9-1.513-1.79-1.578-2.652c-0.038-0.508,0.004-0.976,0.142-1.404c0.259-0.871,0.842-1.349,1.735-1.416
		c0.292-0.022,1.168,0.098,2.627,0.344c0.244-0.25,0.355-0.429,0.349-0.506c-0.003-0.046-0.403-0.62-1.216-1.751
		c-0.797-1.132-1.222-1.828-1.24-2.074c-0.035-0.462,0.154-0.832,0.538-1.078c0.664-0.437,1.988-0.738,3.958-0.887
		c2.817-0.213,5.424,0.071,7.805,0.851c0.762,0.252,1.465,0.54,2.11,0.878c0.532,0.285,0.808,0.45,0.857,0.477
		c0.18-0.075,0.296-0.177,0.333-0.304c-0.076-0.195-0.29-0.768-0.644-1.763c-0.47-1.311-0.733-2.128-0.804-2.447l-0.04-0.121
		c3.26,0.327,6.112,0.979,8.538,1.941c1.365,1.677,2.48,3.529,3.376,5.551c0.333,0.718,0.621,1.455,0.878,2.194
		c-0.546,0.769-0.745,1.62-0.611,2.57c0.005,0.061,0.009,0.123,0.03,0.199c-0.121-0.982,0.093-1.849,0.623-2.617
		c0.038,0.09,0.076,0.18,0.099,0.287c-0.111,0.179-0.203,0.387-0.296,0.595c-0.038,0.111-0.077,0.207-0.115,0.318
		c0.131-0.32,0.265-0.593,0.431-0.853c0.04,0.121,0.08,0.242,0.12,0.362c-0.405,0.789-0.495,1.648-0.27,2.575
		c0.206,0.882,0.661,1.576,1.35,2.096c0.006,0.077,0.01,0.139,0.015,0.2c-0.05-0.043-0.115-0.084-0.181-0.141
		c-0.314-0.27-0.602-0.589-0.862-0.957c-0.037-0.075-0.089-0.148-0.125-0.223l-0.076,0.021c0.251,0.461,0.544,0.857,0.896,1.202
		c0.117,0.115,0.248,0.214,0.381,0.327c0.025,0.122,0.034,0.245,0.043,0.368c0.076,0.598,0.121,1.198,0.167,1.799
		c0.054,0.925,0.077,1.837,0.099,2.748c-0.982-2.96-1.527-4.437-1.65-4.427c-0.169,0.013-0.272,0.083-0.327,0.18
		c-0.025,0.079-0.03,0.219-0.013,0.45c0,0,0.64,1.918,1.904,5.74c1.28,3.836,1.918,5.924,1.945,6.278
		c0.071,0.939-0.341,1.434-1.249,1.503c-0.785,0.059-1.676-0.462-2.705-1.592c-0.186-0.203-0.576-0.653-1.123-1.34
		c-0.409-0.495-0.712-0.813-0.909-0.969c-0.059,0.035-0.149,0.073-0.254,0.128c-0.073,0.052-0.111,0.163-0.099,0.333
		c0.01,0.138,0.189,0.45,0.549,0.918c0.38,0.513,0.804,1.008,1.29,1.497c0.785,0.761,1.476,1.298,2.103,1.606
		c-0.119,0.876-0.239,1.752-0.391,2.615c-0.318,1.944-0.716,3.847-1.207,5.757c-0.101-0.101-0.216-0.2-0.332-0.3
		c-0.798-0.729-1.727-1.341-2.783-1.803l-0.533,0.118c-0.051-0.058-0.075,0.037-0.055,0.298c0.756,0.377,1.518,0.83,2.272,1.377
		c1.538,1.092,2.325,2.085,2.393,2.993c0.012,0.154-0.067,0.346-0.269,0.531c-0.158,0.167-0.26,0.252-0.321,0.257
		c-0.908,0.069-1.985-0.253-3.278-0.976c-0.761-0.438-2.044-1.239-3.82-2.406c-1.722-1.078-3.344-1.853-4.837-2.344
		c-2.032-0.667-4.14-0.911-6.326-0.746c-6.142,0.463-10.376,3.043-12.713,7.771c-0.766,1.544-1.287,3.255-1.549,5.118
		c-0.16,1.158-0.209,2.152-0.148,2.968c0.146,1.94,0.634,3.683,1.459,5.185c1.038,1.857,2.634,3.517,4.802,4.963
		c1.697,1.157,4.078,2.34,7.127,3.565c1.006,0.404,2.298,0.709,3.893,0.914c0.735,0.099,2.091,0.214,4.069,0.374
		c1.556,0.099,2.634,0.235,3.249,0.39c0.884,0.228,1.343,0.564,1.378,1.026c0.015,0.2-0.082,0.347-0.308,0.426
		C112.272,85.604,111.627,85.684,110.611,85.761z M90.601,86.481c3.777,1.434,7.633,2.675,11.522,3.744
		c0.821,0.217,1.639,0.387,2.453,0.496c-3.235,2.474-4.876,3.712-4.906,3.714c-0.816,0.062-2.998-1.152-6.559-3.623
		c-2.713-1.901-5.107-3.671-7.2-5.355c-0.709-0.566-1.454-1.206-2.22-1.923C85.94,84.618,88.244,85.606,90.601,86.481z
		 M112.081,89.443c-0.361,0.136-0.739,0.257-1.118,0.363c0.097-0.363,0.176-0.741,0.27-1.135c0.012-0.047,0.023-0.11,0.033-0.173
		C111.712,88.65,111.984,88.97,112.081,89.443z M110.913,92.426c-0.447,0.638-0.995,1.391-1.673,2.247
		c-0.566-1.149-1.249-2.398-2.002-3.766c1.177,0.004,2.361-0.101,3.538-0.298c0.443-0.08,0.869-0.174,1.262-0.297
		C111.895,90.866,111.515,91.575,110.913,92.426z M126.902,95.044c0.782,0.514,1.536,0.859,2.293,1.05
		c-0.333,0.923-0.608,1.377-0.855,1.396c-1.431,0.108-2.358-0.07-2.779-0.518c-0.151-0.159-0.228-0.354-0.261-0.584
		c-0.002-0.232-0.012-0.371-0.018-0.448c-0.012-0.154,0.095-0.797,0.317-1.959C125.952,94.357,126.381,94.711,126.902,95.044z
		 M126.77,83.86c-0.047,0.205-0.091,0.44-0.136,0.661c-0.139-0.005-0.355,0.011-0.632,0.032c-0.739,0.056-1.24,0.388-1.519,0.997
		c-0.147,0.305-0.201,0.619-0.192,0.944c0.035,0.462,0.298,0.875,0.821,1.238c-0.221,0.357-0.314,0.968-0.277,1.863
		c0,0,0.001,0.015,0.002,0.031c-0.136,0.041-0.258,0.066-0.381,0.075c-0.447,0.034-0.793-0.25-1.055-0.849
		c-0.185-0.605-0.27-0.908-0.27-0.908c0.135-0.676,0.347-1.358,0.622-2.013c0.564-1.343,1.193-2.041,1.901-2.094
		C126.039,83.807,126.41,83.81,126.77,83.86z M156.023,102.631c0.103-3.352,0.38-6.655,0.829-9.94
		c0.354-2.689,0.836-5.342,1.427-7.972c0.743-3.276,1.71-6.477,2.93-9.588c1.256-3.253,3.051-6.144,5.399-8.674
		c-0.478,5.981-1.487,11.894-3.01,17.768c-1.234,4.784-2.865,9.428-4.879,13.93c-0.701,1.586-1.482,3.131-2.329,4.634
		C156.263,102.737,156.135,102.685,156.023,102.631z M139.493,82.993c0.153-1.049,0.323-2.084,0.527-3.074
		c0.563-2.798,1.244-5.063,2.057-6.797c1.82-0.71,3.935-1.613,6.363-2.663c6.489-2.843,11.467-4.38,14.947-4.627
		c1.048-0.063,2.021-0.09,2.905-0.064c-2.483,2.587-4.379,5.563-5.721,8.916c-1.456,3.686-2.595,7.472-3.433,11.344
		c-0.845,3.981-1.363,7.998-1.567,12.07c-0.062,1.429-0.077,2.87-0.016,4.305c-1.756-0.905-3.633-2.389-5.662-4.465
		c-1.93-1.976-3.77-4.205-5.49-6.692c-1.696-2.163-3.237-4.741-4.623-7.717C139.659,83.352,139.553,83.175,139.493,82.993z
		 M132.498,82.422c-7.027-1.204-10.598-2.575-10.713-4.099c0.811-4.845,2.22-7.305,4.228-7.363
		c2.009-0.043,6.001,0.337,11.979,1.171c1.302,0.227,2.416,0.421,3.343,0.599c-0.394,0.727-0.699,1.4-0.885,2.018
		c-0.25,0.793-0.495,1.849-0.767,3.17c-0.326,1.619-0.556,2.689-0.686,3.21c-0.084,0.331-0.184,1.051-0.3,2.175
		c-0.015,0.001-0.031,0.002-0.046,0.003c0.018,0.029,0.019,0.045,0.035,0.059c0.002,0.031,0.005,0.062-0.01,0.078
		c-0.015,0.001-0.031,0.002-0.046,0.003C136.858,83.161,134.804,82.821,132.498,82.422z M131.625,85.414
		c-0.269-0.073-0.567-0.128-0.897-0.195c-0.723-0.147-1.773-0.315-3.2-0.548c0.195-0.897,0.365-1.73,0.523-2.501
		c0.411,0.108,0.774,0.205,1.09,0.289c0.962,0.237,1.925,0.474,2.917,0.693C131.981,83.576,131.837,84.33,131.625,85.414z
		 M130.939,95.405c-0.893,0.067-2.018-0.281-3.344-1.033c-1.245-0.696-1.872-1.206-1.897-1.545
		c-0.017-0.231,0.056-0.484,0.254-0.747c0.181-0.261,0.331-0.536,0.434-0.807c1.011,0.682,1.949,0.999,2.826,0.932l0.456-0.112
		c0.059-0.036,0.088-0.069,0.117-0.086c0.014-0.017,0.023-0.11,0.01-0.279c-0.007-0.092-0.232-0.199-0.66-0.337
		c-0.253-0.074-0.728-0.208-1.408-0.405c-0.919-0.271-1.531-0.597-1.852-0.944c-0.001-0.015-0.001-0.015-0.001-0.015
		c-0.127-0.254-0.21-0.526-0.246-0.802c0,0,0,0-0.015,0.001c0.049-0.174,0.109-0.411,0.224-0.729c0.038-0.111,0.076-0.223,0.1-0.317
		c0.096,0.039,0.192,0.079,0.287,0.118c0.382,0.141,1.79,0.531,4.254,1.181c0.165-0.074,0.255-0.112,0.27-0.113
		c0.057-0.066,0.095-0.177,0.082-0.347c-0.012-0.154-0.318-0.317-0.906-0.52c-0.079-0.025-0.728-0.208-1.946-0.55
		c-1.883-0.539-2.851-1.055-2.888-1.547c-0.015-0.2,0.047-0.406,0.188-0.587c0.166-0.26,0.435-0.389,0.805-0.417
		c0.677-0.051,1.502,0.01,2.445,0.187c0.753,0.129,1.274,0.275,1.562,0.393c0.176,0.08,0.571,0.189,1.172,0.345
		c0.661,0.151,1.07,0.229,1.239,0.216l0.302-0.1c0.059-0.036,0.088-0.069,0.117-0.086c0.014-0.017,0.023-0.11,0.01-0.28
		c-0.01-0.139-0.175-0.265-0.495-0.412c0.088-0.471,0.194-0.913,0.272-1.321c0.355,0.19,0.603,0.403,0.73,0.642
		c0.32,0.549,0.629,1.16,0.895,1.806c0.282,0.66,0.466,1.451,0.539,2.421c0.072,0.955-0.068,1.971-0.388,3.064
		C133.884,94.223,132.694,95.272,130.939,95.405z M111.049,111.257c0.272-1.522,0.497-3.057,0.659-4.601
		c0.169-1.452,0.291-2.917,0.366-4.378c1.091,1.528,2.242,2.834,3.455,3.935c1.479,1.344,2.746,2.332,3.769,2.967
		c0.047,0.012,0.081,0.04,0.112,0.054c-0.059,0.035-0.121,0.04-0.197,0.061c-0.411,0.093-0.79,0.199-1.109,0.285
		c-0.006,0.124,0.034,0.245,0.149,0.329c0.596,0.512,1.215,0.512,1.841-0.015c0.8-0.68,1.436-1.486,1.924-2.405
		c1.534-2.856,2.811-5.832,3.831-8.928c0.037-0.127,0.089-0.255,0.142-0.382c0.505,0.132,1.141,0.146,1.923,0.041
		c0.872-0.128,1.582-0.785,2.127-1.972c0.281,0.025,0.575,0.034,0.868,0.012c0.107-0.008,0.215-0.016,0.322-0.04
		c-0.317,0.922-0.662,1.892-1.018,2.925c-1.359,3.942-2.363,6.65-2.979,8.12c-1.146,2.657-2.327,4.65-3.543,5.98
		c-1.46,1.581-3.159,2.452-5.084,2.597c-0.97,0.073-2.148-0.364-3.552-1.326c-0.832-0.557-2.135-1.619-3.925-3.187
		C111.1,111.315,111.066,111.287,111.049,111.257z M96.348,141.518c-0.456,0.112-0.929,0.21-1.417,0.308
		c-1.022,0.201-2.047,0.355-3.077,0.464c2.761-3.212,5.129-6.719,7.089-10.49c1.719-3.272,3.151-6.662,4.327-10.157
		c1.577-4.748,2.65-9.613,3.203-14.593c0.455-4.029,0.598-8.08,0.446-12.14c-0.049-1.065-0.129-2.127-0.287-3.183
		c1.629,2.71,2.515,3.99,2.675,3.855c0.231-0.219,0.752-0.908,1.578-2.07c0.14-0.196,0.279-0.408,0.405-0.588
		c0.099,1.107,0.173,2.294,0.222,3.56c0.192,4.398-0.055,8.705-0.741,12.952c-0.074,0.455-0.147,0.925-0.235,1.396
		c-0.001-0.015-0.018-0.03-0.034-0.044c0.003,0.046,0.021,0.076,0.025,0.122c-0.664,3.719-1.643,7.354-2.924,10.903
		c-1.446,4.026-3.382,8.12-5.806,12.312C100.032,137.199,98.221,139.658,96.348,141.518z M69.597,177.643
		c0.514,1.277,1.159,2.436,1.95,3.476c3.255,4.368,8.369,6.273,15.342,5.747c1.185-0.089,2.15-0.224,2.865-0.402
		c-0.872,0.546-2.07,0.884-3.579,0.998c-6.65,0.502-11.543-1.358-14.681-5.596c-0.861-1.158-1.547-2.438-2.071-3.854
		C69.475,177.884,69.544,177.77,69.597,177.643z M72.283,174.886c1.279,1.157,2.896,1.856,4.834,2.097
		c-0.001,0.186-0.003,0.372,0.01,0.541c0.013,0.169,0.024,0.323,0.053,0.492c-0.062-0.011-0.109-0.007-0.17-0.003
		c-1.401,0.106-2.262,0.387-2.57,0.813c0.091,0.179,0.16,0.282,0.21,0.325c0.069,0.088,0.24,0.106,0.517,0.085
		c0.878-0.066,1.52-0.161,1.914-0.284c0.106-0.039,0.211-0.078,0.3-0.131c0.139,0.407,0.32,0.75,0.561,1.072
		c-0.166,0.059-0.42,0.186-0.732,0.349c-0.672,0.329-1.084,0.608-1.21,0.788c0.091,0.179,0.161,0.282,0.21,0.325
		c0.068,0.088,0.24,0.106,0.517,0.085c0.308-0.023,0.757-0.228,1.333-0.596c0.206-0.139,0.383-0.261,0.499-0.363
		c0.245,0.168,0.504,0.318,0.776,0.437c0.081,0.04,0.145,0.067,0.224,0.091c-0.089,0.053-0.178,0.106-0.267,0.16
		c-0.695,0.439-1.189,0.864-1.483,1.273c0.208,0.294,0.373,0.436,0.496,0.427c0.293-0.022,0.859-0.312,1.683-0.886
		c0.366-0.276,0.66-0.483,0.879-0.655c0.752,0.114,1.701,0.182,2.818,0.205c2.141,0.055,3.592,0.209,4.339,0.462
		c1.336,0.472,2.059,1.439,2.171,2.917c0.006,0.077,0.012,0.154,0.002,0.232c-0.862,0.483-1.986,0.769-3.356,0.872
		c-6.65,0.502-11.543-1.358-14.681-5.596c-0.827-1.114-1.492-2.333-1.996-3.673C70.739,175.962,71.435,175.337,72.283,174.886z
		 M65.784,152.757c1.8,0.05,3.685,0.001,5.67-0.149c1.232-0.093,2.43-0.214,3.595-0.364c0.305,0.349,0.574,0.638,0.777,0.855
		c5.008,5.645,7.572,9.043,7.66,10.213c0.016,0.216-0.225,0.915-0.707,2.128c-0.498,1.199-1.443,3.437-2.85,6.748
		c-0.75,1.76-1.299,3.101-1.619,3.993c-3.19-0.208-5.411-1.341-6.681-3.397c0.765-0.739,1.515-1.662,2.282-2.788
		c0.839-1.193,1.507-2.389,2.052-3.576c0.53-1.186,0.791-2.041,0.75-2.58c-0.041-0.539-0.597-1.348-1.667-2.398
		c-1.071-1.065-2.359-2.33-3.864-3.811c-1.52-1.48-2.638-2.541-3.366-3.167C67.403,154.105,66.725,153.537,65.784,152.757z
		 M42.698,186.794c1.388,1.366,3.106,2.583,5.137,3.653c2.176,1.136,4.533,2.011,7.04,2.612c2.175,0.517,3.971,0.722,5.357,0.618
		c0.816-0.062,1.53-0.239,2.126-0.547c-0.133,0.289-0.281,0.594-0.43,0.869c-0.503,0.317-1.124,0.487-1.848,0.542
		c-3.063,0.231-6.399-0.477-10.039-2.138c-1.362-0.609-2.622-1.304-3.794-2.067c-1.009-0.651-1.733-1.216-2.186-1.677
		c-0.503-0.504-0.941-0.982-1.347-1.431C42.705,187.087,42.693,186.933,42.698,186.794z M45.985,181.715
		c1.221,1.208,2.582,2.004,4.116,2.43c0.054,0.306,0.153,0.592,0.282,0.861c-0.38,0.091-0.755,0.258-1.153,0.521
		c-0.501,0.332-0.788,0.632-0.844,0.915c0.003,0.046,0.041,0.136,0.08,0.242c0.053,0.089,0.165,0.127,0.334,0.114
		c0.293-0.022,0.743-0.211,1.381-0.584c0.265-0.175,0.502-0.317,0.679-0.438c0.187,0.218,0.404,0.434,0.666,0.615
		c-0.129,0.134-0.27,0.314-0.44,0.529c-0.568,0.677-0.858,1.148-0.851,1.442c0.009,0.123,0.137,0.176,0.399,0.156
		c0.339-0.026,0.73-0.38,1.19-1.05l0.382-0.679c0.304,0.132,0.654,0.26,1.081,0.383c-0.128,0.149-0.268,0.345-0.421,0.573
		c-0.401,0.634-0.644,1.102-0.715,1.401c0.007,0.093,0.044,0.167,0.078,0.211c0.052,0.074,0.163,0.112,0.333,0.099
		c0.354-0.027,0.732-0.349,1.148-1c0.249-0.39,0.423-0.759,0.522-1.077c0.629,0.123,1.379,0.221,2.222,0.312
		c2.107,0.228,3.521,0.493,4.254,0.778c1.325,0.535,2.03,1.457,2.131,2.796c0.008,0.108-0.011,0.264-0.045,0.437
		c-0.569,0.662-1.424,1.036-2.532,1.12c-3.063,0.231-6.399-0.477-10.039-2.138c-1.362-0.609-2.622-1.304-3.794-2.067
		c-1.009-0.651-1.733-1.216-2.186-1.677c-0.504-0.52-0.958-0.996-1.363-1.445c0.193-0.727,0.561-1.389,1.088-2.002
		C44.435,182.931,45.104,182.355,45.985,181.715z M31.873,113.282c0.049-0.174,0.097-0.348,0.131-0.521
		c0.567,0.747,1.132,1.463,1.714,2.193c0.439,0.896,0.894,1.79,1.333,2.686c0.418,0.82,0.805,1.642,1.163,2.482
		c0.412,0.944,3.681,6.965,3.455,11.939c0.052,0.275,0.119,0.548,0.232,0.819c-1.423,0.216-2.374,0.752-2.882,1.611
		c-0.259,0.468-0.372,1.019-0.324,1.65c0.086,1.139,0.466,2.07,1.126,2.826c1.082,1.203,2.793,1.724,5.164,1.546
		c2.571-0.194,4.387-0.95,5.435-2.252c2.374-2.738,0.62-6.766,0.463-7.203c-0.234-0.648-0.692-1.372-1.353-2.127
		c-0.39-0.45-1.903-1.838-1.857-1.841c-0.07-0.103-0.124-0.207-0.177-0.296c0.093-0.007,0.96,0.408,1.272,0.647
		c3.313,2.459,6.789,4.628,10.448,6.535c3.626,1.894,7.363,3.609,11.181,5.179c3.786,1.541,7.684,2.733,11.664,3.563
		c4.025,0.811,8.05,1.018,12.105,0.588c1.628-0.169,3.2-0.473,4.715-0.913c0.014-0.017,0.029-0.018,0.045-0.019
		c-0.014,0.017-0.029,0.033-0.027,0.049c-0.165,0.276-0.603,0.618-1.318,0.997c-0.713,0.395-1.745,0.674-3.076,0.883
		c-1.348,0.195-2.407,0.321-3.16,0.393c-0.677,0.051-1.357,0.071-2.021,0.091l-1.814,0.167c-0.044,0.236,0.061,0.398,0.283,0.459
		c0.571,0.189,1.165,0.253,1.765,0.207c1.159-0.026,2.329-0.114,3.481-0.232c-0.144,0.135-0.289,0.27-0.45,0.405
		c-5.193,4.39-15.501,5.69-19.18,5.968c-6.188,0.467-11.879-0.265-17.085-2.163c-0.073-0.149-0.161-0.282-0.249-0.43
		c-1.08-1.807-1.644-2.709-1.659-2.708c-0.185,0.014-0.29,0.053-0.329,0.149c-0.026,0.064-0.031,0.203-0.015,0.419
		c0.014,0.185,0.54,1.213,1.611,3.083c0.626,1.114,1.801,3.146,3.493,6.084c3.392,5.968,5.13,9.521,5.216,10.66
		c0.073,0.97-0.646,2.309-2.144,4.001c-0.414,0.465-1.015,1.114-1.836,1.935c-0.733,0.752-1.206,1.252-1.418,1.516
		c-1.913,2.343-3.704,4.878-5.375,7.558c-0.347,0.537-0.648,1.055-0.935,1.557c-2.061-0.433-3.79-1.603-5.187-3.495
		c1.244-1.162,2.449-2.429,3.631-3.788c1.325-1.524,2.544-3.01,3.657-4.471c1.114-1.447,1.8-2.814,2.03-4.086
		c0.067-0.346,0.011-1.084-0.186-2.262c-0.182-1.178-0.842-2.537-1.995-4.076c-1.154-1.539-2.293-3.094-3.419-4.681
		c-1.125-1.572-2.283-3.172-3.486-4.753c-0.344-0.454-0.658-0.926-0.942-1.4c-0.92-1.525-1.973-2.963-3.171-4.266
		c-1.285-1.436-2.769-2.64-4.407-3.631c-1.669-0.989-3.24-2.109-4.712-3.36c-0.282-0.257-0.538-0.563-0.749-0.903
		c-0.778-1.288-1.271-2.691-1.479-4.208c-0.25-1.87-0.39-3.733-0.424-5.619c-0.029-1.825,0.098-3.63,0.364-5.431
		C30.215,122.898,31.694,113.993,31.873,113.282z M39.381,125.581c0.283-0.346,0.542-0.614,0.774-0.817
		c0.726-0.643,1.596-1.003,2.597-1.079c0.154-0.012,0.292-0.022,0.432-0.017c0.388,0.838,0.825,1.703,1.277,2.566
		c0.017,0.014,0.018,0.03,0.018,0.03c-0.015,0.001-0.017-0.014-0.032-0.013c-0.014,0.017-0.043,0.05-0.072,0.067
		c-1.538,0.132-2.893,0.636-4.053,1.482c-0.076-0.18-0.151-0.36-0.227-0.54C39.868,126.706,39.624,126.136,39.381,125.581z
		 M45.631,128.392c1.82,1.55,2.807,3.349,2.965,5.443c0.1,1.324-0.038,2.371-0.4,3.111c-0.776,1.607-2.535,2.513-5.26,2.719
		c-2.109,0.159-3.646-0.313-4.58-1.404c-0.541-0.609-0.828-1.331-0.888-2.131c-0.106-1.401,0.824-2.214,2.818-2.457
		c0.108,0.193,0.231,0.385,0.367,0.56c0.416,0.588,0.641,0.896,0.656,0.895c0.195,0.326,0.31,0.627,0.33,0.888
		c0.023,0.308-0.109,0.612-0.396,0.912c-0.287,0.3-0.427,0.497-0.421,0.574c0.01,0.138,0.016,0.215,0.032,0.214
		c0.03-0.018,0.045-0.019,0.063,0.011c0.019,0.045,0.052,0.074,0.085,0.102c0.033,0.029,0.142,0.036,0.311,0.023
		c0.508-0.038,0.841-0.342,1.016-0.897c0.051-0.561,0.09-0.858,0.089-0.874c-0.041-0.539-0.391-1.286-1.02-2.23
		c-0.645-0.958-0.984-1.752-1.031-2.384c-0.036-0.477-0.005-0.882,0.126-1.202c0.051-0.143,0.189-0.37,0.426-0.713
		c0.266-0.376,0.444-0.885,0.49-1.508c0.789-0.416,1.696-0.716,2.708-0.839C44.74,127.67,45.235,128.066,45.631,128.392z
		 M27.392,99.021c-0.437-1.268-0.612-2.57-0.511-3.894c0.031-0.405,0.143-0.769,0.35-1.11c0.779-1.375,1.893-2.403,3.312-3.099
		c2.645-1.268,5.359-2.432,8.112-3.492c1.76-0.69,3.501-1.41,5.226-2.144c2.401-1.017,4.806-1.973,7.214-2.882
		c1.414-0.54,2.816-1.048,4.234-1.542c0.392-0.138,0.784-0.276,1.178-0.399c0.41-0.108,0.82-0.217,1.23-0.325
		c0.611-0.108,1.236-0.233,1.846-0.356c1.333-0.178,2.664-0.186,3.977-0.022c1.015,0.109,1.841,0.589,2.474,1.393l0.327-0.179
		c-0.038-0.709-0.448-1.22-1.216-1.549c-1.629-0.667-3.316-0.864-5.06-0.578c-3.318,0.545-6.514,1.482-9.621,2.785
		c-1.381,0.584-2.746,1.152-4.128,1.72c0.222-0.342,0.428-0.682,0.635-1.023c0.814-1.315,1.612-2.645,2.409-3.975
		c0.85-1.458,1.7-2.915,2.549-4.372c1.001-1.717,1.987-3.417,2.958-5.115c0.837-1.426,1.625-2.878,2.367-4.328
		c0.338-0.645,0.661-1.288,0.968-1.946c0.818,1.192,1.711,2.363,2.648,3.5c2.609,3.178,5.487,6.042,8.635,8.576
		c3.149,2.549,6.477,4.791,9.998,6.723c0.532,0.285,1.081,0.584,1.613,0.854c1.262,1.143,2.359,2.129,3.304,2.956
		c1.773,1.554,4.592,3.617,8.457,6.205c4.025,2.669,6.301,3.906,6.843,3.695c0.555-0.228,1.603-0.911,3.173-2.066
		c1.335-0.983,2.319-1.692,2.907-2.093c0.224,1.733,0.389,3.717,0.479,5.94c0.193,4.398-0.055,8.705-0.741,12.952
		c-0.671,4.246-1.722,8.366-3.169,12.377c-1.446,4.026-3.381,8.12-5.805,12.312c-1.929,3.366-3.914,5.993-5.97,7.882
		c-2.756,0.208-5.505,0.09-8.277-0.335c-0.579-0.08-1.16-0.191-1.726-0.304c0.491-0.47,0.989-1.05,1.48-1.722
		c0.547-0.753,1.015-1.532,1.403-2.335c0.334-0.706,0.5-1.168,0.485-1.368c-0.014-0.185-0.083-0.273-0.221-0.262
		c-0.092,0.007-0.282,0.362-0.557,1.033c-0.378,0.942-0.739,1.697-1.083,2.265c-0.563,0.956-1.248,1.719-2.026,2.289
		c-2.358-0.472-4.695-1.086-6.982-1.842c-3.51-1.175-6.926-2.543-10.278-4.086c-1.556-0.719-3.083-1.47-4.598-2.254
		c0.513-0.581,1.057-1.38,1.616-2.382c0.411-0.712,0.813-1.532,1.225-2.43c0.328-0.783,0.512-1.215,0.554-1.28l-0.027-0.354
		c-0.046,0.003-0.109-0.007-0.204-0.031c-0.031,0.002-0.219,0.373-0.582,1.112c-0.497,1.013-0.914,1.834-1.254,2.463
		c-0.655,1.164-1.238,2.06-1.78,2.673c-2.097-1.111-4.167-2.287-6.197-3.542c-0.795-0.482-1.577-0.996-2.359-1.51
		c0.241-0.297,0.495-0.625,0.758-1.032c0.852-1.225,1.26-1.969,1.24-2.23c-0.007-0.092-0.027-0.153-0.058-0.15
		c-0.017-0.014-0.079-0.025-0.187-0.017c-0.015,0.001-0.419,0.604-1.228,1.78c-0.378,0.524-0.701,0.966-0.999,1.329
		c-1.372-0.949-2.701-1.948-3.988-2.997c-0.511-1.03-0.975-2.047-1.391-3.053c-0.999-2.371-2.479-6.176-4.44-11.447
		c-1.459-3.946-2.504-6.917-3.134-8.913c0.787-1.886,1.669-3.733,2.664-5.527c0.517-0.952,1.065-1.892,1.615-2.816
		c0.991-0.4,2.06-0.805,3.207-1.202c3.71-1.302,7.106-2.053,10.154-2.283c2.648-0.2,4.467-0.089,5.474,0.33
		c0.319,0.115,0.563,0.283,0.749,0.485c0.17,0.204,0.286,0.304,0.333,0.316c0.134-0.072,0.224-0.11,0.268-0.144
		c0.056-0.081,0.094-0.193,0.08-0.378c-0.033-0.431-0.525-0.796-1.444-1.083c-0.968-0.314-2.14-0.458-3.548-0.444
		c-0.005-0.062-0.621-0.031-1.853,0.062c-3.11,0.235-6.415,0.949-9.899,2.171c-0.875,0.298-1.823,0.664-2.844,1.082
		c0.07-0.098,0.124-0.195,0.194-0.293c-0.361,0.136-0.721,0.287-1.067,0.421c-0.069,0.114-0.139,0.212-0.192,0.324
		c-0.764,0.336-1.558,0.69-2.396,1.079c-1.616,0.741-2.587,1.62-2.914,2.62c-0.126,0.381-0.17,0.818-0.147,1.327
		c0.021,0.277,0.053,0.708,0.126,1.26c0.108,1.432,1.237,5.109,3.385,11.015c1.721,4.762,3.296,8.808,4.712,12.185
		c0.116,0.301,0.263,0.615,0.395,0.93c-1.437,0.248-2.689,0.884-3.773,1.91c-0.998-2.355-1.995-4.695-3.022-7.018
		c-0.32-0.75-0.639-1.485-0.987-2.201c-0.15-0.345-0.315-0.688-0.48-1.032c-0.02-0.06-0.041-0.136-0.062-0.212
		c-0.034-0.044-0.07-0.103-0.104-0.147c-0.108-0.208-0.2-0.403-0.309-0.611c-0.164-0.328-0.329-0.672-0.493-1
		c-0.602-1.208-1.204-2.417-1.777-3.643c-0.628-1.346-1.272-2.706-1.947-4.049C28.929,102.993,28.1,101.027,27.392,99.021z
		 M34.987,97.504c-0.034-0.447,0.016-0.806,0.133-1.109c0.297-0.781,1.261-1.55,2.889-2.339c0.313-0.163,0.657-0.313,1.003-0.463
		c-0.235,0.374-0.454,0.762-0.673,1.135c-0.864,1.474-1.664,2.974-2.398,4.531c-0.175,0.354-0.334,0.707-0.493,1.059
		c-0.21-0.727-0.311-1.246-0.334-1.554C35.038,98.181,34.991,97.767,34.987,97.504z"/>
	<path fill="#010101" d="M115.485,18.001c-0.142-0.036-0.301-0.086-0.443-0.121c-0.207-0.077-0.399-0.156-0.606-0.233
		c-3.557-1.388-6.175-2.027-7.822-1.902c-0.616,0.046-0.832,0.264-0.648,0.653c0.036,0.477,0.185,1.008,0.429,1.578
		c0.446,0.988,0.691,1.573,0.751,1.755l-0.065,0.16c-0.049-0.027-0.353-0.159-0.866-0.399c-0.639-0.261-1.306-0.49-2.017-0.684
		c-2.23-0.621-4.584-0.831-7.077-0.643c-2.463,0.186-4.066,0.694-4.793,1.523c-0.243,0.266-0.39,0.571-0.428,0.884
		c0.006,0.077,0.003,0.248,0.025,0.54c0.033,0.431,0.257,0.941,0.672,1.528c0.514,0.658,0.876,1.142,1.103,1.48l0.008,0.108
		c-0.385,0.029-0.945-0.006-1.711-0.103c-1.185,0.089-1.957,0.736-2.302,1.907c-0.11,0.38-0.173,0.787-0.185,1.237
		c-0.003,0.372,0.012,0.572,0.013,0.587c0.021,0.478,0.044,0.786,0.053,0.909c0.015,0.2,0.059,0.367,0.131,0.501
		c0.375,0.452,0.888,1.094,1.504,1.884l0.008,0.108c-1.873,0.002-3.274,1.129-4.204,3.367c-0.316,0.736-0.574,1.623-0.791,2.645
		c-0.088,0.471-0.167,0.864-0.222,1.162c-0.771-0.159-1.695-0.306-2.776-0.472c0.007-0.728-0.017-1.454-0.071-2.177
		c-0.006-0.077-0.002-0.433-0.003-1.068c-0.005-0.681-0.082-1.294-0.214-1.811c-0.404-1.657-1.344-2.422-2.806-2.312
		c-1.694,0.128-3.01,1.558-3.981,4.279c-0.304,0.89-0.557,1.853-0.757,2.89c-0.142,0.785-0.197,1.284-0.182,1.484
		c0.066,0.877,0.178,1.535,0.334,1.957c0.151,0.36,0.328,0.656,0.547,0.888c-0.129,0.35-0.246,0.638-0.336,0.877
		c-1.241,2.849-3.2,4.375-5.878,4.577c-2.509,0.189-4.626-0.162-6.333-1.039c0.349-1.327,0.714-2.639,1.08-3.952
		c0.553-1.915,1.121-3.816,1.722-5.703c0.589-1.84,1.162-3.68,1.752-5.504c0.611-1.951,1.416-3.807,2.411-5.6
		c1.416-2.569,3.129-4.896,5.138-6.998c3.343-3.504,7.264-6.122,11.774-7.902c2.437-0.942,4.955-1.628,7.556-2.041
		c2.248-0.371,4.525-0.558,6.8-0.575c0.977,0.019,1.939,0.055,2.887,0.107c0.964,0.051,1.914,0.134,2.866,0.233
		c1.873,0.199,3.725,0.54,5.54,0.991c1.61,0.405,3.193,0.874,4.752,1.422c1.779,0.594,3.504,1.299,5.19,2.101
		c1.302,0.63,2.548,1.356,3.741,2.179c1.308,0.923,2.532,1.961,3.64,3.1c0.824,0.867,1.574,1.785,2.252,2.772
		c0.416,0.588,0.756,1.197,1.036,1.826l-0.014,0.017c-0.437-0.462-0.89-0.924-1.356-1.353c-1.268-1.205-3.005-2.483-5.23-3.863
		c-2.225-1.38-4.923-2.462-8.095-3.26l-0.533,0.118c-0.047-0.012-0.07,0.098-0.05,0.36c0.027,0.354,0.345,1.29,0.955,2.808
		c0.622,1.47,0.96,2.265,0.985,2.387l-0.04,0.08c-1.306-0.691-2.878-1.408-4.699-2.154
		C115.552,18.074,115.519,18.045,115.485,18.001z"/>
	<path fill="#FBD4A4" d="M133.715,23.035c-0.017-0.014-0.033-0.028-0.051-0.058l0.014-0.017
		C133.696,22.99,133.699,23.021,133.715,23.035z"/>
	<path fill="#FBD4A4" d="M93.754,24.223c-0.015,0.001-0.031,0.002-0.046,0.003l-0.008-0.108L93.754,24.223z"/>
	<path fill="#FBD4A4" d="M91.343,31.263c-0.047-0.012-0.094-0.008-0.124-0.006l-0.008-0.108L91.343,31.263z"/>
	<path fill="#FBD4A4" d="M120.348,20.282c-0.015,0.001-0.032-0.013-0.049-0.027l0.04-0.08L120.348,20.282z"/>
	<path fill="#FBD4A4" d="M110.611,85.761c1.016-0.077,1.66-0.156,1.933-0.239c0.226-0.079,0.323-0.226,0.308-0.426
		c-0.035-0.462-0.494-0.799-1.378-1.026c-0.615-0.155-1.694-0.29-3.249-0.39c-1.978-0.16-3.334-0.275-4.069-0.374
		c-1.595-0.205-2.887-0.51-3.893-0.914c-3.049-1.225-5.43-2.408-7.127-3.565c-2.168-1.446-3.764-3.106-4.802-4.963
		c-0.825-1.501-1.313-3.245-1.459-5.185c-0.062-0.816-0.013-1.81,0.148-2.968c0.262-1.862,0.783-3.574,1.549-5.118
		c2.337-4.728,6.57-7.307,12.713-7.771c2.186-0.165,4.294,0.079,6.326,0.746c1.493,0.491,3.115,1.267,4.837,2.344
		c1.776,1.167,3.059,1.968,3.82,2.406c1.293,0.723,2.37,1.044,3.278,0.976c0.062-0.005,0.163-0.09,0.321-0.257
		c0.203-0.186,0.281-0.377,0.269-0.531c-0.069-0.908-0.856-1.902-2.393-2.993c-0.753-0.547-1.515-1-2.272-1.377
		c-0.02-0.262,0.004-0.356,0.055-0.298l0.533-0.118c1.057,0.462,1.985,1.073,2.783,1.803c0.116,0.1,0.232,0.199,0.332,0.3
		c0.491-1.91,0.889-3.814,1.207-5.757c0.151-0.863,0.271-1.739,0.391-2.615c-0.627-0.309-1.317-0.845-2.103-1.606
		c-0.486-0.49-0.91-0.984-1.29-1.497c-0.36-0.468-0.538-0.78-0.549-0.918c-0.013-0.169,0.025-0.281,0.099-0.333
		c0.104-0.054,0.194-0.092,0.254-0.128c0.197,0.155,0.5,0.473,0.909,0.969c0.547,0.686,0.937,1.137,1.123,1.34
		c1.029,1.13,1.92,1.651,2.705,1.592c0.908-0.069,1.32-0.564,1.249-1.503c-0.027-0.354-0.664-2.443-1.945-6.278
		c-1.263-3.822-1.904-5.74-1.904-5.74c-0.017-0.231-0.012-0.371,0.013-0.45c0.055-0.097,0.158-0.167,0.327-0.18
		c0.123-0.009,0.668,1.467,1.65,4.427c-0.022-0.912-0.045-1.824-0.099-2.748c-0.045-0.6-0.091-1.201-0.167-1.799
		c-0.065-0.041-1.275-1.096-0.773-0.607c0.217,0.216,0.481,0.428,0.773,0.607c-0.009-0.123-0.085-0.721-0.091-0.798
		c-0.69-0.521-1.145-1.214-1.35-2.096c-0.225-0.927-0.135-1.786,0.27-2.575c-0.04-0.121-0.467-1.764-1.16-3.055
		c-1.045-1.95-0.888-2.659-3.376-5.551c-2.426-0.963-5.277-1.614-8.538-1.941l0.04,0.121c0.071,0.32,0.334,1.136,0.804,2.447
		c0.354,0.995,0.567,1.567,0.644,1.763c-0.037,0.127-0.153,0.228-0.333,0.304c-0.049-0.027-0.324-0.192-0.857-0.477
		c-0.645-0.338-1.347-0.626-2.11-0.878c-2.381-0.78-4.988-1.063-7.805-0.851c-1.97,0.149-3.295,0.45-3.958,0.887
		c-0.384,0.246-0.573,0.616-0.538,1.078c0.019,0.246,0.443,0.942,1.24,2.074c0.813,1.131,1.212,1.705,1.216,1.751
		c0.006,0.077-0.105,0.256-0.349,0.506c-1.458-0.246-2.334-0.366-2.627-0.344c-0.893,0.067-1.476,0.545-1.735,1.416
		c-0.138,0.428-0.18,0.896-0.142,1.404c0.065,0.862,0.581,1.752,1.578,2.652c0.117,0.115,0.448,0.4,1.009,0.853
		c0.313,0.255,0.466,0.429,0.473,0.522c0.012,0.154,0.019,0.246-0.01,0.279c-0.014,0.017-0.059,0.036-0.119,0.071
		c-1.411-0.436-2.564-0.333-3.446,0.291c-0.883,0.608-1.503,1.414-1.863,2.385c-0.308,0.844-0.663,2.094-1.062,3.78
		c0.031-0.002,0.063,0.011,0.095,0.024c-0.06,0.237-0.132,0.505-0.205,0.774c-1.146-0.208-2.636-0.467-4.488-0.792l-0.001-0.015
		c0.001,0.015-0.014,0.017-0.028,0.033c0.069-0.934,0.123-1.852,0.162-2.783c0,0-0.003-0.248,0.021-0.745
		c-0.012-0.572-0.084-1.108-0.196-1.564c-0.392-1.503-1.249-2.197-2.604-2.095c-1.324,0.1-2.542,2.623-3.639,7.582
		c0.009,0.526,0.107,1.014,0.268,1.497c0.302,0.922,0.8,1.364,1.508,1.311c0.508-0.038,1.013-0.324,1.516-0.842
		c0.425-0.527,0.668-0.794,0.745-0.799c0.154-0.012,0.249,0.012,0.314,0.054l0.083,0.071l0.052,0.693
		c-0.029,0.033-0.302,0.301-0.82,0.836c-0.627,0.512-1.241,0.79-1.841,0.836c-0.431,0.032-0.806-0.016-1.128-0.178
		c-0.432,1.039-0.822,1.827-1.165,2.41c-1.28,2.125-3.127,3.286-5.559,3.469c-2.571,0.194-4.767-0.182-6.589-1.144
		c-0.098,0.348-0.18,0.695-0.277,1.043c-0.491,1.91-1.012,3.823-1.565,5.722c-0.049,0.174-0.098,0.348-0.163,0.508
		c-0.482,1.615-1.043,3.206-1.684,4.772c-0.324,0.83-0.68,1.646-1.054,2.448c2.036,2.974,4.349,5.725,6.925,8.271
		c2.595,2.591,5.404,4.933,8.413,7.06c2.338,1.651,4.772,3.123,7.301,4.434c0.174,0.049,0.349,0.113,0.524,0.177
		c0.066,0.057,0.117,0.115,0.168,0.173c1.109,0.536,2.232,1.055,3.368,1.542c4.843,2.019,9.75,3.862,14.751,5.498
		c2.144,0.721,4.345,1.158,6.586,1.314c1.214,0.079,2.355,0.024,3.468-0.2c0.297-1.602,0.508-2.701,0.618-3.298
		c0.014-0.017,0.012-0.047,0.025-0.079l-0.11-0.023c-1.262,0.095-2.274,0.017-3.035-0.22c-0.366-0.127-0.624-0.263-0.773-0.391
		c0.046-0.003,0.092-0.007,0.123-0.009c0.447-0.034,0.783-0.09,1.025-0.17C108.222,85.894,109.103,85.874,110.611,85.761z
		 M112.004,32.399c-1.399,0.338-2.715,0.127-3.949-0.631c-0.762-0.454-1.347-1.028-1.772-1.74c-0.266-0.444-0.458-0.941-0.592-1.488
		c-0.339-1.414-0.129-2.73,0.614-3.963c0.758-1.234,1.844-2.028,3.243-2.366c1.414-0.339,2.731-0.129,3.964,0.63
		c1.233,0.743,2.011,1.83,2.35,3.244c0.133,0.532,0.189,1.069,0.152,1.599c-0.047,0.809-0.313,1.603-0.767,2.349
		C114.489,31.267,113.418,32.06,112.004,32.399z M80.324,37.467c-0.058,0.67-0.402,1.037-0.987,1.081
		c-0.831,0.063-1.27-0.415-1.347-1.431c-0.009-0.123,0.016-0.202,0.058-0.252c0.073-0.052,0.547-0.335,1.408-0.834
		c0.018-0.172-0.082-0.474-0.333-0.919c-0.282-0.459-0.413-0.758-0.423-0.882c-0.013-0.169,0.01-0.279,0.099-0.333
		c0.104-0.054,0.179-0.091,0.254-0.127c0.549,0.5,0.891,0.939,1.031,1.346c0.06,0.181,0.124,0.61,0.177,1.318
		C80.334,36.785,80.36,37.124,80.324,37.467z M86.496,40.887c-1.161-0.207-2.652-0.466-4.441-0.795
		c-0.002-0.031,0.011-0.063,0.008-0.094c0.043-0.251,0.073-0.47,0.103-0.689c1.879,0.276,3.369,0.535,4.455,0.763
		C86.577,40.324,86.536,40.605,86.496,40.887z M86.361,42.384c-1.209-0.218-2.714-0.476-4.519-0.805
		c0.029-0.234,0.07-0.501,0.112-0.767c1.862,0.262,3.351,0.506,4.468,0.731C86.396,41.824,86.371,42.104,86.361,42.384z
		 M81.644,43.065c0.03-0.219,0.057-0.469,0.097-0.766c1.894,0.275,3.429,0.515,4.593,0.753c-0.011,0.264-0.019,0.559-0.029,0.838
		C85.065,43.673,83.511,43.388,81.644,43.065z M87.823,74.893c0.157,0.236,0.33,0.47,0.487,0.706l-0.038,0.312l-0.294,0.208
		c-3.079-3.669-3.969-7.875-2.7-12.599l0.789-0.214C84.954,67.446,85.54,71.303,87.823,74.893z"/>
	<path d="M81.954,40.812c1.862,0.262,3.351,0.506,4.468,0.731c-0.025,0.28-0.051,0.561-0.061,0.84
		c-1.209-0.218-2.714-0.476-4.519-0.805C81.871,41.344,81.912,41.078,81.954,40.812z"/>
	<path d="M81.741,42.299c1.894,0.275,3.429,0.515,4.593,0.753c-0.011,0.264-0.019,0.559-0.029,0.838
		c-1.239-0.216-2.794-0.502-4.66-0.825C81.674,42.846,81.702,42.596,81.741,42.299z"/>
	<path d="M82.063,39.999c0.043-0.251,0.073-0.47,0.103-0.689c1.879,0.276,3.369,0.535,4.455,0.763
		c-0.043,0.251-0.084,0.533-0.124,0.814c-1.161-0.207-2.652-0.466-4.441-0.795C82.052,40.061,82.065,40.029,82.063,39.999z"/>
	<path d="M80.324,37.467c0.036-0.343,0.011-0.682-0.062-1.033c-0.053-0.708-0.117-1.137-0.177-1.318
		c-0.139-0.407-0.482-0.846-1.031-1.346c-0.074,0.036-0.149,0.073-0.254,0.127c-0.089,0.053-0.112,0.163-0.099,0.333
		c0.009,0.123,0.14,0.423,0.423,0.882c0.251,0.445,0.351,0.748,0.333,0.919c-0.86,0.498-1.335,0.782-1.408,0.834
		c-0.043,0.05-0.068,0.129-0.058,0.252c0.077,1.016,0.515,1.494,1.347,1.431C79.922,38.504,80.266,38.137,80.324,37.467z
		 M79.542,37.154c0.013,0.169-0.025,0.281-0.08,0.378c-0.044,0.034-0.087,0.084-0.16,0.136c-0.262-0.181-0.408-0.279-0.442-0.323
		c-0.052-0.073-0.092-0.194-0.106-0.379l-0.002-0.031c0.26-0.035,0.445-0.049,0.539-0.041C79.445,36.898,79.53,37,79.542,37.154z"/>
	<path fill="#FBD4A4" d="M79.302,37.668c-0.262-0.181-0.408-0.279-0.442-0.323c-0.052-0.073-0.092-0.194-0.106-0.379l-0.002-0.031
		c0.26-0.035,0.445-0.049,0.539-0.041c0.155,0.004,0.24,0.106,0.252,0.26c0.013,0.169-0.025,0.281-0.08,0.378
		C79.418,37.566,79.375,37.616,79.302,37.668z"/>
	<path d="M112.004,32.399c1.414-0.339,2.484-1.132,3.243-2.366c0.455-0.746,0.72-1.54,0.767-2.349
		c0.038-0.529-0.018-1.067-0.152-1.599c-0.339-1.414-1.118-2.501-2.35-3.244c-1.234-0.758-2.55-0.969-3.964-0.63
		c-1.399,0.338-2.484,1.132-3.243,2.366c-0.743,1.233-0.953,2.549-0.614,3.963c0.134,0.547,0.326,1.044,0.592,1.488
		c0.425,0.711,1.011,1.286,1.772,1.74C109.289,32.526,110.605,32.736,112.004,32.399z M115.566,27.485
		c-0.66-0.539-1.418-1.147-2.306-1.839c-1.086-0.847-2.351-1.82-3.797-2.934c0.077-0.006,0.137-0.026,0.198-0.046
		c1.277-0.313,2.483-0.125,3.619,0.563c1.12,0.69,1.844,1.672,2.142,2.95C115.532,26.621,115.58,27.051,115.566,27.485z
		 M111.892,31.942c-0.547,0.134-1.101,0.176-1.632,0.123c-0.686-0.072-1.338-0.302-1.971-0.687c-0.648-0.385-1.15-0.873-1.535-1.463
		c-0.281-0.443-0.489-0.938-0.623-1.486c-0.299-1.294-0.11-2.484,0.564-3.603c0.578-0.957,1.365-1.605,2.375-1.975
		c1.006,0.822,2.142,1.712,3.393,2.701c1.17,0.934,2.19,1.739,3.063,2.432c-0.092,0.626-0.31,1.231-0.668,1.815
		C114.168,30.919,113.185,31.628,111.892,31.942z"/>
	<path fill="#FDD17A" d="M109.462,22.713c0.077-0.006,0.137-0.026,0.198-0.046c1.277-0.313,2.483-0.125,3.619,0.563
		c1.12,0.69,1.844,1.672,2.142,2.95c0.111,0.441,0.159,0.87,0.145,1.305c-0.66-0.539-1.418-1.147-2.306-1.839
		C112.174,24.8,110.908,23.827,109.462,22.713z"/>
	<path fill="#FFFFFF" d="M111.892,31.942c1.292-0.314,2.276-1.023,2.966-2.143c0.358-0.584,0.576-1.189,0.668-1.815
		c-0.873-0.693-1.893-1.498-3.063-2.432c-1.251-0.989-2.387-1.879-3.393-2.701c-1.01,0.37-1.796,1.018-2.375,1.975
		c-0.674,1.119-0.863,2.31-0.564,3.603c0.134,0.547,0.342,1.042,0.623,1.486c0.385,0.59,0.887,1.079,1.535,1.463
		c0.633,0.386,1.285,0.615,1.971,0.687C110.791,32.118,111.345,32.077,111.892,31.942z M113.073,28.912
		c0.002,0.031-0.01,0.078-0.006,0.124c0.044,0.167,0.157,0.236,0.324,0.192c0.107-0.024,0.179-0.091,0.203-0.185
		c0.027-0.049,0.024-0.095,0.004-0.155c-0.044-0.167-0.157-0.236-0.34-0.191c0,0,0,0-0.015,0.001
		c0.075-0.037,0.165-0.074,0.256-0.097c0.441-0.111,0.701,0.055,0.81,0.481c0.025,0.122,0.017,0.231-0.004,0.356
		c-0.06,0.221-0.219,0.373-0.493,0.44c-0.198,0.046-0.386,0.014-0.534-0.099c-0.131-0.099-0.219-0.231-0.26-0.367
		C112.986,29.197,113.005,29.041,113.073,28.912z"/>
	<path d="M113.067,29.036c0.044,0.167,0.157,0.236,0.324,0.192c0.107-0.024,0.179-0.091,0.203-0.185
		c0.027-0.049,0.024-0.095,0.004-0.155c-0.044-0.167-0.157-0.236-0.34-0.191c0,0,0,0-0.015,0.001
		c0.075-0.037,0.165-0.074,0.256-0.097c0.441-0.111,0.701,0.055,0.81,0.481c0.025,0.122,0.017,0.231-0.004,0.356
		c-0.06,0.221-0.219,0.373-0.493,0.44c-0.198,0.046-0.386,0.014-0.534-0.099c-0.131-0.099-0.219-0.231-0.26-0.367
		c-0.032-0.214-0.012-0.371,0.055-0.5C113.075,28.943,113.063,28.99,113.067,29.036z"/>
	<path d="M88.271,75.912l-0.294,0.208c-3.079-3.669-3.969-7.875-2.7-12.599l0.789-0.214c-1.112,4.14-0.527,7.997,1.757,11.587
		c0.157,0.236,0.33,0.47,0.487,0.706L88.271,75.912z"/>
	<path fill="#1DB1BF" d="M27.392,99.021c0.708,2.006,1.538,3.971,2.487,5.881c0.674,1.342,1.319,2.703,1.947,4.049
		c0.573,1.226,1.175,2.435,1.777,3.643c0.164,0.328,0.329,0.672,0.493,1c0.109,0.209,0.201,0.403,0.309,0.611
		c0.034,0.044,0.07,0.103,0.104,0.147c0.021,0.076,0.042,0.152,0.062,0.212c0.165,0.344,0.33,0.687,0.48,1.032
		c0.348,0.717,0.667,1.451,0.987,2.201c1.027,2.322,2.024,4.662,3.022,7.018c1.084-1.026,2.336-1.662,3.773-1.91
		c-0.132-0.315-0.28-0.629-0.395-0.93c-1.416-3.377-2.991-7.422-4.712-12.185c-2.149-5.907-3.277-9.584-3.385-11.015
		c-0.073-0.552-0.105-0.983-0.126-1.26c-0.023-0.509,0.021-0.946,0.147-1.327c0.327-1,1.298-1.878,2.914-2.62
		c0.838-0.388,1.632-0.742,2.396-1.079c0.053-0.113,0.123-0.211,0.192-0.324c0.346-0.134,0.706-0.285,1.067-0.421
		c-0.07,0.098-0.124,0.195-0.194,0.293c1.021-0.418,1.969-0.783,2.844-1.082c3.484-1.223,6.79-1.937,9.899-2.171
		c1.232-0.093,1.848-0.124,1.853-0.062c1.408-0.013,2.58,0.13,3.548,0.444c0.92,0.287,1.412,0.652,1.444,1.083
		c0.014,0.185-0.024,0.296-0.08,0.378c-0.044,0.034-0.134,0.072-0.268,0.144c-0.047-0.012-0.163-0.112-0.333-0.316
		c-0.186-0.203-0.431-0.37-0.749-0.485c-1.007-0.419-2.826-0.53-5.474-0.33c-3.048,0.23-6.444,0.981-10.154,2.283
		c-1.147,0.396-2.215,0.802-3.207,1.202c-0.55,0.924-1.098,1.863-1.615,2.816c-0.995,1.794-1.877,3.64-2.664,5.527
		c0.631,1.996,1.675,4.967,3.134,8.913c1.961,5.271,3.441,9.076,4.44,11.447c0.416,1.006,0.88,2.024,1.391,3.053
		c1.287,1.049,2.616,2.048,3.988,2.997c0.298-0.363,0.62-0.805,0.999-1.329c0.809-1.176,1.213-1.779,1.228-1.78
		c0.107-0.008,0.17,0.002,0.187,0.017c0.031-0.002,0.051,0.058,0.058,0.15c0.02,0.262-0.389,1.005-1.24,2.23
		c-0.263,0.407-0.518,0.736-0.758,1.032c0.782,0.514,1.564,1.028,2.359,1.51c2.03,1.256,4.1,2.431,6.197,3.542
		c0.542-0.614,1.125-1.509,1.78-2.673c0.34-0.629,0.757-1.451,1.254-2.463c0.362-0.739,0.551-1.11,0.582-1.112
		c0.095,0.024,0.158,0.035,0.204,0.031l0.027,0.354c-0.042,0.065-0.226,0.497-0.554,1.28c-0.412,0.898-0.815,1.718-1.225,2.43
		c-0.559,1.002-1.103,1.802-1.616,2.382c1.514,0.784,3.042,1.535,4.598,2.254c3.352,1.543,6.768,2.911,10.278,4.086
		c2.287,0.756,4.624,1.37,6.982,1.842c0.778-0.57,1.463-1.334,2.026-2.289c0.344-0.568,0.705-1.323,1.083-2.265
		c0.274-0.671,0.464-1.026,0.557-1.033c0.139-0.01,0.207,0.077,0.221,0.262c0.015,0.2-0.152,0.662-0.485,1.368
		c-0.388,0.803-0.856,1.582-1.403,2.335c-0.491,0.672-0.989,1.252-1.48,1.722c0.566,0.112,1.147,0.223,1.726,0.304
		c2.772,0.425,5.522,0.543,8.277,0.335c2.056-1.889,4.04-4.516,5.97-7.882c2.424-4.193,4.36-8.287,5.805-12.312
		c1.447-4.011,2.498-8.131,3.169-12.377c0.686-4.247,0.934-8.554,0.741-12.952c-0.09-2.222-0.255-4.207-0.479-5.94
		c-0.589,0.401-1.573,1.109-2.907,2.093c-1.569,1.156-2.617,1.839-3.173,2.066c-0.542,0.211-2.818-1.026-6.843-3.695
		c-3.865-2.588-6.683-4.651-8.457-6.205c-0.945-0.827-2.041-1.812-3.304-2.956c-0.531-0.269-1.08-0.569-1.613-0.854
		c-3.521-1.933-6.849-4.174-9.998-6.723c-3.148-2.534-6.027-5.397-8.635-8.576c-0.937-1.137-1.831-2.308-2.648-3.5
		c-0.306,0.658-0.629,1.301-0.968,1.946c-0.742,1.449-1.531,2.902-2.367,4.328c-0.971,1.699-1.958,3.399-2.958,5.115
		c-0.85,1.457-1.7,2.915-2.549,4.372c-0.798,1.33-1.595,2.659-2.409,3.975c-0.207,0.341-0.413,0.681-0.635,1.023
		c1.381-0.569,2.747-1.136,4.128-1.72c3.106-1.303,6.302-2.24,9.621-2.785c1.743-0.286,3.43-0.088,5.06,0.578
		c0.768,0.329,1.178,0.84,1.216,1.549l-0.327,0.179c-0.633-0.804-1.459-1.283-2.474-1.393c-1.313-0.164-2.644-0.157-3.977,0.022
		c-0.61,0.123-1.235,0.248-1.846,0.356c-0.41,0.108-0.82,0.217-1.23,0.325c-0.393,0.123-0.785,0.261-1.178,0.399
		c-1.418,0.494-2.82,1.002-4.234,1.542c-2.408,0.909-4.813,1.865-7.214,2.882c-1.725,0.734-3.466,1.454-5.226,2.144
		c-2.753,1.059-5.467,2.224-8.112,3.492c-1.418,0.695-2.533,1.724-3.312,3.099c-0.206,0.341-0.318,0.705-0.35,1.11
		C26.78,96.451,26.955,97.754,27.392,99.021z M104.161,98.153c-0.431,0.033-0.782-0.111-1.068-0.415
		c-0.237-0.261-0.348-0.515-0.369-0.793c-0.017-0.231,0.042-0.468,0.132-0.707c0.211-0.48,0.579-0.74,1.102-0.78
		c0.431-0.033,0.798,0.11,1.07,0.43c0.235,0.245,0.365,0.53,0.389,0.838c0.006,0.077-0.004,0.155,0.002,0.232
		c-0.018,0.172-0.053,0.329-0.119,0.474C105.115,97.864,104.747,98.108,104.161,98.153z M101.579,112.56
		c-0.219-0.231-0.332-0.501-0.354-0.794c-0.019-0.246,0.024-0.497,0.116-0.721c0.197-0.464,0.565-0.724,1.103-0.765
		c0.447-0.034,0.799,0.125,1.085,0.429c0.22,0.246,0.35,0.531,0.373,0.839c0.006,0.077-0.004,0.155,0.002,0.232
		c-0.018,0.172-0.052,0.329-0.103,0.472c-0.183,0.447-0.568,0.677-1.153,0.722C102.217,113.007,101.851,112.88,101.579,112.56z
		 M96.598,126.358c-0.002-0.232,0.042-0.468,0.133-0.707c0.211-0.48,0.579-0.74,1.118-0.781c0.431-0.032,0.784,0.127,1.07,0.43
		c0.22,0.247,0.35,0.531,0.373,0.839c0.006,0.077,0.012,0.154,0.002,0.232c-0.003,0.171-0.037,0.328-0.103,0.472
		c-0.184,0.432-0.568,0.678-1.138,0.721c-0.446,0.034-0.797-0.095-1.084-0.414C96.748,126.904,96.62,126.651,96.598,126.358z
		 M89.772,138.484c-0.002-0.232,0.042-0.467,0.133-0.707c0.211-0.48,0.579-0.74,1.118-0.781c0.431-0.032,0.782,0.111,1.07,0.43
		c0.22,0.247,0.35,0.531,0.373,0.839c0.006,0.077,0.012,0.154,0.002,0.232c-0.003,0.17-0.053,0.329-0.104,0.472
		c-0.2,0.433-0.568,0.678-1.138,0.721c-0.446,0.034-0.797-0.095-1.084-0.414C89.922,139.03,89.794,138.777,89.772,138.484z
		 M71.627,115.083c-1.053-1.856-1.693-4.176-1.901-6.932c-0.115-1.524,0.119-3.353,0.684-5.501c0.387-1.438,1.023-3.266,1.892-5.499
		c0.468-1.181,0.87-2.218,1.236-3.112c-0.017-0.014-0.033-0.028-0.034-0.044c0.061-0.221,0.106-0.442,0.121-0.659
		c0.037-0.127,0.058-0.252,0.081-0.362c0.024-0.095,0.049-0.174,0.074-0.253c1.271,1.452,2.482,2.522,3.616,3.195
		c2.042,1.208,4.261,2.311,6.688,3.289c4.088,1.658,7.472,2.393,10.184,2.219c0,0,0.001,0.015-0.014,0.017
		c-0.025,0.079-0.065,0.16-0.089,0.254l0.096,0.039c-0.315,0.953-0.737,2.13-1.267,3.517c-1.006,2.677-1.82,4.813-2.41,6.421
		c-0.606,1.609-1.148,2.842-1.61,3.698c-1.608,2.908-3.874,4.472-6.814,4.694C77.248,120.433,73.748,118.778,71.627,115.083z
		 M70.079,138.685c0.129-0.133,0.242-0.281,0.353-0.445c0.238-0.327,0.527-0.814,0.896-1.461c0.336-0.676,0.62-1.223,0.836-1.642
		c0.405-0.789,0.67-1.181,0.808-1.191c0.092-0.007,0.155,0.004,0.171,0.018c0.018,0.03,0.037,0.075,0.045,0.182
		c0.006,0.077-0.14,0.398-0.423,0.961c-0.324,0.628-0.679,1.259-1.083,1.846c-0.513,0.797-0.993,1.407-1.439,1.858
		C70.193,138.754,70.143,138.711,70.079,138.685z"/>
	<path d="M71.627,115.083c2.121,3.695,5.621,5.351,10.532,4.98c2.94-0.222,5.206-1.786,6.814-4.694
		c0.462-0.855,1.004-2.088,1.61-3.698c0.591-1.608,1.405-3.744,2.41-6.421c0.53-1.387,0.952-2.564,1.267-3.517
		c-0.031,0.002-0.077,0.006-0.123,0.009c0.014-0.017,0.013-0.032,0.027-0.049c0.024-0.095,0.064-0.175,0.089-0.254
		c0.015-0.001,0.014-0.017,0.014-0.017c-2.712,0.174-6.096-0.562-10.184-2.219c-2.427-0.978-4.646-2.08-6.688-3.289
		c-1.134-0.673-2.345-1.743-3.616-3.195c-0.025,0.079-0.05,0.159-0.074,0.253c-0.023,0.11-0.044,0.236-0.081,0.362
		c-0.015,0.218-0.06,0.438-0.121,0.659c0.001,0.015,0.018,0.03,0.034,0.044c-0.366,0.895-0.767,1.931-1.236,3.112
		c-0.869,2.233-1.505,4.061-1.892,5.499c-0.566,2.148-0.799,3.977-0.684,5.501C69.934,110.907,70.573,113.227,71.627,115.083z
		 M91.91,106.09c-2.727,0.175-5.532-0.279-8.42-1.408c-1.675-0.648-3.986-1.743-6.967-3.283c-1.251-0.571-2.547-1.542-3.885-2.865
		c0.166-0.462,0.334-0.908,0.519-1.324c0.246-0.638,0.617-1.471,1.095-2.513c0.974,0.809,2.134,1.619,3.494,2.399
		c2.201,1.258,4.37,2.318,6.509,3.163c3.336,1.328,6.266,2.004,8.809,2.045c-0.148,0.507-0.295,1.013-0.458,1.521
		C92.348,104.71,92.126,105.455,91.91,106.09z M72.215,114.465c-0.966-1.723-1.529-3.848-1.719-6.373
		c-0.089-1.185,0.203-3.05,0.895-5.579c0.305-1.091,0.614-2.121,0.943-3.09c1.219,0.976,2.621,1.908,4.178,2.843
		c2.591,1.508,5.173,2.691,7.759,3.517c2.712,0.864,5.172,1.251,7.364,1.163c-0.178,0.509-0.306,0.874-0.426,1.131
		c-1.468,3.316-2.262,5.109-2.383,5.351c-0.691,1.508-1.304,2.622-1.838,3.343c-0.588,0.818-1.256,1.411-2.002,1.777
		c-0.732,0.349-1.691,0.577-2.876,0.666C77.461,119.566,74.167,117.972,72.215,114.465z"/>
	<path fill="#0B6B73" d="M76.524,101.399c-1.251-0.571-2.547-1.542-3.885-2.865c0.166-0.462,0.334-0.908,0.519-1.324
		c0.246-0.638,0.617-1.471,1.095-2.513c0.974,0.809,2.134,1.619,3.494,2.399c2.201,1.258,4.37,2.318,6.509,3.163
		c3.336,1.328,6.266,2.004,8.809,2.045c-0.148,0.507-0.295,1.013-0.458,1.521c-0.258,0.887-0.481,1.631-0.696,2.266
		c-2.727,0.175-5.532-0.279-8.42-1.408C81.816,104.034,79.504,102.939,76.524,101.399z"/>
	<path fill="#1DB1BF" d="M71.391,102.514c0.305-1.091,0.614-2.121,0.943-3.09c1.219,0.976,2.621,1.908,4.178,2.843
		c2.591,1.508,5.173,2.691,7.759,3.517c2.712,0.864,5.172,1.251,7.364,1.163c-0.178,0.509-0.306,0.874-0.426,1.131
		c-1.468,3.316-2.262,5.109-2.383,5.351c-0.691,1.508-1.304,2.622-1.838,3.343c-0.588,0.818-1.256,1.411-2.002,1.777
		c-0.732,0.349-1.691,0.577-2.876,0.666c-4.649,0.351-7.943-1.243-9.895-4.75c-0.966-1.723-1.529-3.848-1.719-6.373
		C70.406,106.907,70.699,105.043,71.391,102.514z"/>
	<path d="M104.161,98.153c0.585-0.044,0.954-0.289,1.138-0.72c0.067-0.145,0.101-0.302,0.119-0.474
		c-0.006-0.077,0.004-0.155-0.002-0.232c-0.023-0.308-0.153-0.592-0.389-0.838c-0.272-0.32-0.639-0.463-1.07-0.43
		c-0.524,0.04-0.891,0.3-1.102,0.78c-0.09,0.239-0.15,0.476-0.132,0.707c0.021,0.277,0.133,0.532,0.369,0.793
		C103.379,98.041,103.73,98.185,104.161,98.153z M104.44,97.745c-0.277,0.021-0.515-0.054-0.716-0.256
		c-0.198-0.171-0.292-0.381-0.309-0.611c-0.004-0.665,0.295-1.013,0.88-1.057c0.277-0.021,0.516,0.07,0.716,0.256
		c0.2,0.186,0.308,0.379,0.325,0.61c0.015,0.2-0.017,0.388-0.084,0.533C105.137,97.537,104.856,97.713,104.44,97.745z"/>
	<path fill="#1DB1BF" d="M103.724,97.489c-0.198-0.171-0.292-0.381-0.309-0.611c-0.004-0.665,0.295-1.013,0.88-1.057
		c0.277-0.021,0.516,0.07,0.716,0.256c0.2,0.186,0.308,0.379,0.325,0.61c0.015,0.2-0.017,0.388-0.084,0.533
		c-0.115,0.318-0.396,0.494-0.812,0.526C104.163,97.765,103.926,97.691,103.724,97.489z"/>
	<path d="M101.579,112.56c0.272,0.32,0.637,0.447,1.068,0.415c0.585-0.044,0.97-0.274,1.153-0.722
		c0.051-0.143,0.085-0.301,0.103-0.472c-0.006-0.077,0.004-0.155-0.002-0.232c-0.023-0.308-0.153-0.592-0.373-0.839
		c-0.286-0.304-0.639-0.463-1.085-0.429c-0.539,0.041-0.906,0.301-1.103,0.765c-0.092,0.224-0.135,0.475-0.116,0.721
		C101.247,112.058,101.361,112.329,101.579,112.56z M101.747,111.711c-0.003-0.65,0.295-1.013,0.88-1.057
		c0.277-0.021,0.516,0.07,0.716,0.256c0.2,0.186,0.308,0.395,0.326,0.626c0.049,0.647-0.25,0.994-0.897,1.043
		c-0.277,0.021-0.515-0.054-0.716-0.256C101.858,112.152,101.765,111.942,101.747,111.711z"/>
	<path fill="#1DB1BF" d="M102.627,110.654c0.277-0.021,0.516,0.07,0.716,0.256c0.2,0.186,0.308,0.395,0.326,0.626
		c0.049,0.647-0.25,0.994-0.897,1.043c-0.277,0.021-0.515-0.054-0.716-0.256c-0.198-0.171-0.292-0.381-0.309-0.612
		C101.745,111.061,102.043,110.698,102.627,110.654z"/>
	<path d="M96.73,125.651c-0.09,0.239-0.135,0.475-0.133,0.707c0.022,0.292,0.15,0.546,0.369,0.793
		c0.287,0.319,0.638,0.447,1.084,0.414c0.569-0.043,0.953-0.289,1.138-0.721c0.066-0.144,0.101-0.302,0.103-0.472
		c0.01-0.078,0.004-0.155-0.002-0.232c-0.023-0.308-0.153-0.592-0.373-0.839c-0.286-0.303-0.639-0.463-1.07-0.43
		C97.309,124.911,96.942,125.171,96.73,125.651z M97.301,126.444c0.013-0.651,0.311-1.014,0.896-1.058
		c0.262-0.02,0.501,0.071,0.7,0.257c0.2,0.186,0.308,0.395,0.326,0.626c0.049,0.647-0.25,0.994-0.881,1.042
		c-0.277,0.021-0.515-0.054-0.716-0.256C97.427,126.884,97.318,126.675,97.301,126.444z"/>
	<path fill="#1DB1BF" d="M98.197,125.386c0.262-0.02,0.501,0.071,0.7,0.257c0.2,0.186,0.308,0.395,0.326,0.626
		c0.049,0.647-0.25,0.994-0.881,1.042c-0.277,0.021-0.515-0.054-0.716-0.256c-0.199-0.171-0.308-0.379-0.325-0.61
		C97.314,125.793,97.611,125.43,98.197,125.386z"/>
	<path d="M89.904,137.778c-0.09,0.239-0.135,0.475-0.133,0.707c0.022,0.292,0.15,0.546,0.369,0.793
		c0.287,0.319,0.638,0.447,1.084,0.414c0.569-0.043,0.938-0.288,1.138-0.721c0.051-0.143,0.101-0.302,0.104-0.472
		c0.01-0.078,0.004-0.155-0.002-0.232c-0.023-0.308-0.153-0.592-0.373-0.839c-0.287-0.319-0.639-0.463-1.07-0.43
		C90.483,137.037,90.116,137.297,89.904,137.778z M90.475,138.571c0.012-0.666,0.295-1.013,0.896-1.058
		c0.262-0.02,0.501,0.07,0.7,0.256c0.2,0.186,0.308,0.395,0.325,0.61c0.05,0.662-0.249,1.01-0.88,1.057
		c-0.277,0.021-0.515-0.054-0.731-0.255C90.601,139.01,90.492,138.802,90.475,138.571z"/>
	<path fill="#1DB1BF" d="M91.371,137.513c0.262-0.02,0.501,0.07,0.7,0.256c0.2,0.186,0.308,0.395,0.325,0.61
		c0.05,0.662-0.249,1.01-0.88,1.057c-0.277,0.021-0.515-0.054-0.731-0.255c-0.183-0.172-0.292-0.38-0.31-0.611
		C90.487,137.904,90.77,137.558,91.371,137.513z"/>
	<path d="M70.432,138.24c0.238-0.327,0.527-0.814,0.896-1.461c0.336-0.676,0.62-1.223,0.836-1.642
		c0.405-0.789,0.67-1.181,0.808-1.191c0.092-0.007,0.155,0.004,0.171,0.018c0.018,0.03,0.037,0.075,0.045,0.182
		c0.006,0.077-0.14,0.398-0.423,0.961c-0.324,0.628-0.679,1.259-1.083,1.846c-0.513,0.797-0.993,1.407-1.439,1.858
		c-0.051-0.058-0.101-0.101-0.165-0.127C70.208,138.552,70.321,138.404,70.432,138.24z"/>
	<path fill="#FFFFFF" d="M121.502,31.682c0.098,0.07,0.211,0.123,0.308,0.178c0.627,0.309,1.266,0.369,1.936,0.21
		c0.791-0.184,1.391-0.647,1.817-1.36c0.029-0.033,0.042-0.065,0.07-0.098c0.422-0.775,0.528-1.619,0.307-2.5
		c-0.207-0.898-0.675-1.559-1.405-2c-0.097-0.054-0.194-0.109-0.291-0.164c-0.773,0.43-1.68,0.916-2.739,1.461
		c-0.179,0.091-0.342,0.181-0.491,0.254c-0.297,0.162-0.582,0.292-0.851,0.42c-0.089,0.053-0.179,0.091-0.253,0.128
		c-0.061,0.422-0.043,0.87,0.069,1.326c0.158,0.654,0.446,1.189,0.866,1.622c0.168,0.173,0.365,0.329,0.562,0.468
		C121.438,31.656,121.47,31.669,121.502,31.682z M123.735,30.089c0.001,0.015,0.003,0.046,0.006,0.077
		c0.027,0.153,0.124,0.207,0.277,0.18c0.106-0.024,0.164-0.074,0.188-0.169c0.012-0.047,0.008-0.094,0.005-0.14
		c-0.042-0.152-0.14-0.206-0.306-0.163c-0.031,0.002-0.045,0.019-0.06,0.02c0.072-0.067,0.176-0.122,0.313-0.163
		c0.38-0.091,0.623,0.046,0.698,0.427c0.039,0.105,0.032,0.214-0.006,0.326c-0.046,0.205-0.192,0.324-0.419,0.388
		c-0.183,0.045-0.34,0.01-0.488-0.103c-0.115-0.084-0.186-0.203-0.21-0.325C123.705,30.308,123.696,30.185,123.735,30.089z"/>
	<path d="M123.741,30.166c0.027,0.153,0.124,0.207,0.277,0.18c0.106-0.024,0.164-0.074,0.188-0.169
		c0.012-0.047,0.008-0.094,0.005-0.14c-0.042-0.152-0.14-0.206-0.306-0.163c-0.031,0.002-0.045,0.019-0.06,0.02
		c0.072-0.067,0.176-0.122,0.313-0.163c0.38-0.091,0.623,0.046,0.698,0.427c0.039,0.105,0.032,0.214-0.006,0.326
		c-0.046,0.205-0.192,0.324-0.419,0.388c-0.183,0.045-0.34,0.01-0.488-0.103c-0.115-0.084-0.186-0.203-0.21-0.325
		c-0.026-0.137-0.035-0.26,0.004-0.356C123.736,30.104,123.739,30.135,123.741,30.166z"/>
	<path fill="#FDD17A" d="M120.911,27.33c-0.255,0.112-0.539,0.242-0.853,0.389c-0.014,0.017-0.03,0.018-0.03,0.018
		c-0.001-0.015,0.012-0.047,0.011-0.063c0.077-0.207,0.171-0.4,0.281-0.579c0.109-0.194,0.221-0.357,0.364-0.507
		c0.4-0.448,0.92-0.735,1.529-0.874c0.61-0.124,1.17-0.088,1.711,0.103c-1.099,0.625-1.754,0.968-1.948,1.061
		C121.705,26.976,121.344,27.127,120.911,27.33z"/>
	<path fill="#FFFFFF" d="M107.412,54.435c0.889,0.289,1.85,0.712,2.849,1.24c-0.181,0.679-0.383,1.283-0.577,1.793
		c-0.079,0.192-0.158,0.368-0.222,0.543c-0.656-0.276-1.36-0.579-2.128-0.908c-0.911-0.38-1.806-0.746-2.668-1.099
		c0.361-0.755,0.665-1.444,0.944-2.053C106.207,54.061,106.824,54.231,107.412,54.435z"/>
	<path fill="#FFFFFF" d="M101.301,53.673c1.247-0.094,2.473-0.047,3.665,0.157c-0.248,0.607-0.524,1.263-0.826,1.982
		c-1.851-0.727-3.569-1.341-5.169-1.824l-0.001-0.015C99.719,53.839,100.485,53.734,101.301,53.673z"/>
	<path fill="#FFFFFF" d="M110.906,56.013c0.405,0.233,0.826,0.48,1.248,0.742c0.88,0.584,1.645,1.083,2.279,1.469
		c-0.127,0.366-0.216,0.635-0.266,0.779c-0.144,0.351-0.275,0.671-0.407,0.975c-0.964-0.469-2.2-1.042-3.72-1.701
		c0.093-0.208,0.184-0.432,0.277-0.64C110.54,57.109,110.732,56.584,110.906,56.013z"/>
	<path fill="#FFFFFF" d="M115.147,58.666c0.324,0.192,0.615,0.356,0.858,0.493c0.403,0.217,0.789,0.405,1.156,0.548
		c-0.15,0.476-0.306,0.874-0.436,1.194c-0.078,0.192-0.173,0.369-0.253,0.545c-0.486-0.288-1.021-0.604-1.602-0.916
		c-0.145-0.066-0.305-0.147-0.467-0.243c0.055-0.097,0.109-0.194,0.147-0.305C114.764,59.547,114.964,59.113,115.147,58.666z"/>
	<path fill="#E01E26" d="M90.418,65.176c4.264-0.322,8.045,0.136,11.359,1.372c1.657,0.618,3.385,1.572,5.171,2.877
		c0.255-0.112,0.364-0.306,0.344-0.568c-0.029-0.385-0.606-0.852-1.748-1.416c-1.079-0.553-2.465-1.068-4.129-1.577
		c-3.978-1.217-7.268-1.727-9.87-1.547c-0.005-0.062-0.375-0.049-1.13,0.008c-0.847,0.064-1.644,0.17-2.391,0.32
		c0.02-0.141,0.056-0.283,0.093-0.41c0.352-0.058,0.703-0.115,1.056-0.157c2.023-0.276,4.048-0.321,6.09-0.134
		c1.995,0.175,3.968,0.475,5.937,0.915c1.951,0.41,3.881,0.961,5.775,1.639c1.909,0.676,3.711,1.578,5.405,2.689
		c0.783,0.529,1.45,1.16,2.016,1.891c0.343,0.439,0.564,0.902,0.697,1.434c0.114,0.487,0.135,0.965,0.078,1.449
		c-0.152,1.064-0.739,1.697-1.774,1.93c-0.776,0.182-1.567,0.164-2.342-0.056c-0.805-0.203-1.568-0.47-2.321-0.8
		c-0.863-0.353-1.698-0.754-2.52-1.188c-3.307-1.763-6.667-3.414-10.095-4.936c-1.844-0.852-3.791-1.417-5.81-1.698
		c-0.891-0.119-1.775-0.129-2.665-0.031c0.023-0.513,0.09-1.06,0.2-1.656C88.636,65.357,89.495,65.246,90.418,65.176z"/>
	<path fill="#1DB1BF" d="M102.124,90.225c0.821,0.217,1.639,0.387,2.453,0.496c-3.235,2.474-4.876,3.712-4.906,3.714
		c-0.816,0.062-2.998-1.152-6.559-3.623c-2.713-1.901-5.107-3.671-7.2-5.355c-0.709-0.566-1.454-1.206-2.22-1.923
		c2.249,1.084,4.553,2.072,6.91,2.947C94.379,87.914,98.235,89.156,102.124,90.225z"/>
	<path fill="#FFFFFF" d="M108.604,83.156c-0.499-0.04-0.826-0.077-1.014-0.094c-0.657-0.09-1.329-0.178-2.02-0.297
		c-0.037-0.291-0.051-0.476-0.055-0.522c-0.018-0.448-0.05-0.863-0.081-1.279c0.633-0.032,1.265-0.065,1.911-0.113
		c0.4-0.03,0.785-0.059,1.169-0.104c0.08,1.062,0.117,1.756,0.109,2.051C108.616,82.908,108.61,83.032,108.604,83.156z"/>
	<path fill="#FFFFFF" d="M111.207,83.393c-0.717-0.07-1.34-0.116-1.854-0.154c-0.043-1.189-0.076-2.038-0.099-2.547
		c0.799-0.076,1.521-0.161,2.165-0.241c0.036,0.276,0.077,0.614,0.119,0.966c0.045,0.802-0.03,1.457-0.237,1.984
		C111.268,83.389,111.238,83.391,111.207,83.393z"/>
	<path fill="#FFFFFF" d="M101.849,81.05c0.882-0.005,1.81-0.013,2.736-0.052c0.06,0.584,0.117,1.137,0.169,1.628
		c-0.878-0.15-1.791-0.345-2.72-0.553C101.961,81.707,101.903,81.355,101.849,81.05z"/>
	<path fill="#FFFFFF" d="M98.371,80.91c0.902,0.056,1.804,0.111,2.734,0.119c0.068,0.289,0.12,0.564,0.189,0.868
		C100.283,81.632,99.314,81.303,98.371,80.91z"/>
	<path fill="#FBD4A4" d="M127.594,94.372c-1.245-0.696-1.872-1.206-1.897-1.545c-0.017-0.231,0.056-0.484,0.254-0.747
		c0.181-0.261,0.331-0.536,0.434-0.807c1.011,0.682,1.949,0.999,2.826,0.932l0.456-0.112c0.059-0.036,0.088-0.069,0.117-0.086
		c0.014-0.017,0.023-0.11,0.01-0.279c-0.007-0.092-0.232-0.199-0.66-0.337c-0.253-0.074-0.728-0.208-1.408-0.405
		c-0.919-0.271-1.531-0.597-1.852-0.944c-0.001-0.015-0.001-0.015-0.001-0.015c-0.127-0.254-0.21-0.526-0.246-0.802
		c0,0,0,0-0.015,0.001c0.049-0.174,0.109-0.411,0.224-0.729c0.038-0.111,0.076-0.223,0.1-0.317c0.096,0.039,0.192,0.079,0.287,0.118
		c0.382,0.141,1.79,0.531,4.254,1.181c0.165-0.074,0.255-0.112,0.27-0.113c0.057-0.066,0.095-0.177,0.082-0.347
		c-0.012-0.154-0.318-0.317-0.906-0.52c-0.079-0.025-0.728-0.208-1.946-0.55c-1.883-0.539-2.851-1.055-2.888-1.547
		c-0.015-0.2,0.047-0.406,0.188-0.587c0.166-0.26,0.435-0.389,0.805-0.417c0.677-0.051,1.502,0.01,2.445,0.187
		c0.753,0.129,1.274,0.275,1.562,0.393c0.176,0.08,0.571,0.189,1.172,0.345c0.661,0.151,1.07,0.229,1.239,0.216l0.302-0.1
		c0.059-0.036,0.088-0.069,0.117-0.086c0.014-0.017,0.023-0.11,0.01-0.28c-0.01-0.139-0.175-0.265-0.495-0.412
		c0.088-0.471,0.194-0.913,0.272-1.321c0.355,0.19,0.603,0.403,0.73,0.642c0.32,0.549,0.629,1.16,0.895,1.806
		c0.282,0.66,0.466,1.451,0.539,2.421c0.072,0.955-0.068,1.971-0.388,3.064c-0.596,1.949-1.786,2.999-3.542,3.131
		C130.046,95.472,128.921,95.124,127.594,94.372z"/>
	<path fill="#FBD4A4" d="M126.002,84.553c-0.739,0.056-1.24,0.388-1.519,0.997c-0.147,0.305-0.201,0.619-0.192,0.944
		c0.035,0.462,0.298,0.875,0.821,1.238c-0.221,0.357-0.314,0.968-0.277,1.863c0,0,0.001,0.015,0.002,0.031
		c-0.136,0.041-0.258,0.066-0.381,0.075c-0.447,0.034-0.793-0.25-1.055-0.849c-0.185-0.605-0.27-0.908-0.27-0.908
		c0.135-0.676,0.347-1.358,0.622-2.013c0.564-1.343,1.193-2.041,1.901-2.094c0.385-0.029,0.757-0.026,1.116,0.024
		c-0.047,0.205-0.091,0.44-0.136,0.661C126.495,84.516,126.279,84.532,126.002,84.553z"/>
	<path fill="#1DB1BF" d="M112.074,102.278c1.091,1.528,2.242,2.834,3.455,3.935c1.479,1.344,2.746,2.332,3.769,2.967l-0.084,0.115
		c-0.411,0.093-0.79,0.199-1.109,0.285c-0.006,0.124,0.034,0.245,0.149,0.329c0.596,0.512,1.215,0.512,1.841-0.015
		c0.8-0.68,1.436-1.486,1.924-2.405c1.534-2.856,2.811-5.832,3.831-8.928c0.037-0.127,0.089-0.255,0.142-0.382
		c0.505,0.132,1.141,0.146,1.923,0.041c0.872-0.128,1.582-0.785,2.127-1.972c0.281,0.025,0.575,0.034,0.868,0.012
		c0.107-0.008,0.215-0.016,0.322-0.04c-0.317,0.922-0.662,1.892-1.018,2.925c-1.359,3.942-2.363,6.65-2.979,8.12
		c-1.146,2.657-2.327,4.65-3.543,5.98c-1.46,1.581-3.159,2.452-5.084,2.597c-0.97,0.073-2.148-0.364-3.552-1.326
		c-0.832-0.557-2.135-1.619-3.925-3.187c-0.032-0.013-0.065-0.042-0.083-0.071c0.272-1.522,0.497-3.057,0.659-4.601
		C111.877,105.203,111.999,103.739,112.074,102.278z"/>
	<path fill="#1DB1BF" d="M94.932,141.826c-1.022,0.201-2.047,0.355-3.077,0.464c2.761-3.212,5.129-6.719,7.089-10.49
		c1.719-3.272,3.151-6.662,4.327-10.157c1.577-4.748,2.65-9.613,3.203-14.593c0.455-4.029,0.598-8.08,0.446-12.14
		c-0.049-1.065-0.129-2.127-0.287-3.183c1.629,2.71,2.515,3.99,2.675,3.855c0.231-0.219,0.752-0.908,1.578-2.07
		c0.14-0.196,0.279-0.408,0.405-0.588c0.099,1.107,0.173,2.294,0.222,3.56c0.192,4.398-0.055,8.705-0.741,12.952
		c-0.074,0.455-0.147,0.925-0.235,1.396c-0.001-0.015-0.018-0.03-0.034-0.044c0.003,0.046,0.021,0.076,0.025,0.122
		c-0.664,3.719-1.643,7.354-2.924,10.903c-1.446,4.026-3.382,8.12-5.806,12.312c-1.765,3.075-3.577,5.533-5.449,7.393
		C95.892,141.63,95.42,141.728,94.932,141.826z"/>
	<path fill="#1DB1BF" d="M111.233,88.671c0.012-0.047,0.023-0.11,0.033-0.173c0.445,0.152,0.717,0.472,0.814,0.945
		c-0.361,0.136-0.739,0.257-1.118,0.363C111.06,89.443,111.139,89.065,111.233,88.671z"/>
	<path fill="#1DB1BF" d="M109.24,94.673c-0.566-1.149-1.249-2.398-2.002-3.766c1.177,0.004,2.361-0.101,3.538-0.298
		c0.443-0.08,0.869-0.174,1.262-0.297c-0.144,0.553-0.524,1.262-1.125,2.113C110.466,93.064,109.919,93.817,109.24,94.673z"/>
	<path fill="#EF8B21" d="M71.454,152.608c-1.986,0.15-3.871,0.199-5.67,0.149c0.941,0.781,1.619,1.349,2.033,1.704
		c0.728,0.626,1.846,1.688,3.366,3.167c1.505,1.481,2.793,2.747,3.864,3.811c1.07,1.049,1.626,1.859,1.667,2.398
		c0.041,0.539-0.22,1.395-0.75,2.58c-0.545,1.187-1.213,2.383-2.052,3.576c-0.767,1.126-1.517,2.05-2.282,2.788
		c1.27,2.056,3.492,3.189,6.681,3.397c0.32-0.891,0.869-2.233,1.619-3.993c1.407-3.311,2.353-5.55,2.85-6.748
		c0.482-1.213,0.723-1.912,0.707-2.128c-0.088-1.17-2.651-4.568-7.66-10.213c-0.202-0.217-0.472-0.506-0.777-0.855
		C73.884,152.393,72.686,152.515,71.454,152.608z M75.737,171.204c-0.017-0.014-0.018-0.03-0.018-0.03
		c-0.001-0.015-0.001-0.015-0.001-0.015C75.719,171.174,75.72,171.189,75.737,171.204z"/>
	<path d="M75.718,171.158c0.001,0.015,0.002,0.031,0.019,0.045c-0.017-0.014-0.018-0.03-0.018-0.03
		C75.718,171.158,75.718,171.158,75.718,171.158z"/>
	<path fill="#716429" d="M77.117,176.982c-0.001,0.186-0.003,0.372,0.01,0.541c0.013,0.169,0.024,0.323,0.053,0.492
		c-0.062-0.011-0.109-0.007-0.17-0.003c-1.401,0.106-2.262,0.387-2.57,0.813c0.091,0.179,0.16,0.282,0.21,0.325
		c0.069,0.088,0.24,0.106,0.517,0.085c0.878-0.066,1.52-0.161,1.914-0.284c0.106-0.039,0.211-0.078,0.3-0.131
		c0.139,0.407,0.32,0.75,0.561,1.072c-0.166,0.059-0.42,0.186-0.732,0.349c-0.672,0.329-1.084,0.608-1.21,0.788
		c0.091,0.179,0.161,0.282,0.21,0.325c0.068,0.088,0.24,0.106,0.517,0.085c0.308-0.023,0.757-0.228,1.333-0.596
		c0.206-0.139,0.383-0.261,0.499-0.363c0.245,0.168,0.504,0.318,0.776,0.437c0.081,0.04,0.145,0.067,0.224,0.091
		c-0.089,0.053-0.178,0.106-0.267,0.16c-0.695,0.439-1.189,0.864-1.483,1.273c0.208,0.294,0.373,0.436,0.496,0.427
		c0.293-0.022,0.859-0.312,1.683-0.886c0.366-0.276,0.66-0.483,0.879-0.655c0.752,0.114,1.701,0.182,2.818,0.205
		c2.141,0.055,3.592,0.209,4.339,0.462c1.336,0.472,2.059,1.439,2.171,2.917c0.006,0.077,0.012,0.154,0.002,0.232
		c-0.862,0.483-1.986,0.769-3.356,0.872c-6.65,0.502-11.543-1.358-14.681-5.596c-0.827-1.114-1.492-2.333-1.996-3.673
		c0.576-0.787,1.272-1.412,2.12-1.863C73.563,176.043,75.179,176.741,77.117,176.982z"/>
	<path fill="#975A25" d="M86.889,186.866c1.185-0.089,2.15-0.224,2.865-0.402c-0.872,0.546-2.07,0.884-3.579,0.998
		c-6.65,0.502-11.543-1.358-14.681-5.596c-0.861-1.158-1.547-2.438-2.071-3.854c0.052-0.128,0.121-0.241,0.174-0.369
		c0.514,1.277,1.159,2.436,1.95,3.476C74.802,185.486,79.915,187.392,86.889,186.866z"/>
	<path fill="#0B6B73" d="M40.155,124.764c0.726-0.643,1.596-1.003,2.597-1.079c0.154-0.012,0.292-0.022,0.432-0.017
		c0.388,0.838,0.825,1.703,1.277,2.566l-0.014,0.017c-0.014,0.017-0.043,0.05-0.072,0.067c-1.538,0.132-2.893,0.636-4.053,1.482
		c-0.076-0.18-0.151-0.36-0.227-0.54c-0.227-0.556-0.472-1.126-0.715-1.68C39.664,125.235,39.923,124.968,40.155,124.764z"/>
	<path fill="#FBD4A4" d="M48.596,133.835c0.1,1.324-0.038,2.371-0.4,3.111c-0.776,1.607-2.535,2.513-5.26,2.719
		c-2.109,0.159-3.646-0.313-4.58-1.404c-0.541-0.609-0.828-1.331-0.888-2.131c-0.106-1.401,0.824-2.214,2.818-2.457
		c0.108,0.193,0.231,0.385,0.367,0.56c0.416,0.588,0.641,0.896,0.656,0.895c0.195,0.326,0.31,0.627,0.33,0.888
		c0.023,0.308-0.109,0.612-0.396,0.912c-0.287,0.3-0.427,0.497-0.421,0.574c0.01,0.138,0.016,0.215,0.032,0.214
		c0.03-0.018,0.045-0.019,0.063,0.011c0.019,0.045,0.052,0.074,0.085,0.102c0.033,0.029,0.142,0.036,0.311,0.023
		c0.508-0.038,0.841-0.342,1.016-0.897c0.051-0.561,0.09-0.858,0.089-0.874c-0.041-0.539-0.391-1.286-1.02-2.23
		c-0.645-0.958-0.984-1.752-1.031-2.384c-0.036-0.477-0.005-0.882,0.126-1.202c0.051-0.143,0.189-0.37,0.426-0.713
		c0.266-0.376,0.444-0.885,0.49-1.508c0.789-0.416,1.696-0.716,2.708-0.839c0.623,0.464,1.118,0.86,1.514,1.186
		C47.451,129.942,48.438,131.741,48.596,133.835z"/>
	<path fill="#716429" d="M50.1,184.145c0.054,0.306,0.153,0.592,0.282,0.861c-0.38,0.091-0.755,0.258-1.153,0.521
		c-0.501,0.332-0.788,0.632-0.844,0.915c0.003,0.046,0.041,0.136,0.08,0.242c0.053,0.089,0.165,0.127,0.334,0.114
		c0.293-0.022,0.743-0.211,1.381-0.584c0.265-0.175,0.502-0.317,0.679-0.438c0.187,0.218,0.404,0.434,0.666,0.615
		c-0.129,0.134-0.27,0.314-0.44,0.529c-0.568,0.677-0.858,1.148-0.851,1.442c0.009,0.123,0.137,0.176,0.399,0.156
		c0.339-0.026,0.73-0.38,1.19-1.05l0.382-0.679c0.304,0.132,0.654,0.26,1.081,0.383c-0.128,0.149-0.268,0.345-0.421,0.573
		c-0.401,0.634-0.644,1.102-0.715,1.401c0.007,0.093,0.044,0.167,0.078,0.211c0.052,0.074,0.163,0.112,0.333,0.099
		c0.354-0.027,0.732-0.349,1.148-1c0.249-0.39,0.423-0.759,0.522-1.077c0.629,0.123,1.379,0.221,2.222,0.312
		c2.107,0.228,3.521,0.493,4.254,0.778c1.325,0.535,2.03,1.457,2.131,2.796c0.008,0.108-0.011,0.264-0.045,0.437
		c-0.569,0.662-1.424,1.036-2.532,1.12c-3.063,0.231-6.399-0.477-10.039-2.138c-1.362-0.609-2.622-1.304-3.794-2.067
		c-1.009-0.651-1.733-1.216-2.186-1.677c-0.504-0.52-0.958-0.996-1.363-1.445c0.193-0.727,0.561-1.389,1.088-2.002
		c0.469-0.562,1.137-1.138,2.018-1.778C47.206,182.924,48.566,183.719,50.1,184.145z"/>
	<path fill="#975A25" d="M47.836,190.447c2.176,1.136,4.533,2.011,7.04,2.612c2.175,0.517,3.971,0.722,5.357,0.618
		c0.816-0.062,1.53-0.239,2.126-0.547c-0.133,0.289-0.281,0.594-0.43,0.869c-0.503,0.317-1.124,0.487-1.848,0.542
		c-3.063,0.231-6.399-0.477-10.039-2.138c-1.362-0.609-2.622-1.304-3.794-2.067c-1.009-0.651-1.733-1.216-2.186-1.677
		c-0.503-0.504-0.941-0.982-1.347-1.431c-0.01-0.139-0.022-0.293-0.017-0.432C44.087,188.16,45.804,189.377,47.836,190.447z"/>
	<path fill="#904520" d="M158.278,84.719c0.743-3.276,1.71-6.477,2.93-9.588c1.256-3.253,3.051-6.144,5.399-8.674
		c-0.478,5.981-1.487,11.894-3.01,17.768c-1.234,4.784-2.865,9.428-4.879,13.93c-0.701,1.586-1.482,3.131-2.329,4.634
		c-0.128-0.052-0.255-0.104-0.368-0.158c0.103-3.352,0.38-6.655,0.829-9.94C157.206,90.002,157.687,87.349,158.278,84.719z"/>
	<path fill="#D76127" d="M126.902,95.044c0.782,0.514,1.536,0.859,2.293,1.05c-0.333,0.923-0.608,1.377-0.855,1.396
		c-1.431,0.108-2.358-0.07-2.779-0.518c-0.151-0.159-0.228-0.354-0.261-0.584c-0.002-0.232-0.012-0.371-0.018-0.448
		c-0.012-0.154,0.095-0.797,0.317-1.959C125.952,94.357,126.381,94.711,126.902,95.044z"/>
	<path fill="#D76127" d="M127.528,84.67c0.195-0.897,0.365-1.73,0.523-2.501c0.411,0.108,0.774,0.205,1.09,0.289
		c0.962,0.237,1.925,0.474,2.917,0.693c-0.076,0.424-0.221,1.178-0.433,2.262c-0.269-0.073-0.567-0.128-0.897-0.195
		C130.005,85.072,128.954,84.903,127.528,84.67z"/>
	<path fill="#D76127" d="M132.498,82.422c2.306,0.399,4.36,0.739,6.13,1.024l0.02-0.141c0.015-0.001,0.031-0.002,0.046-0.003
		c0.116-1.124,0.217-1.843,0.3-2.175c0.131-0.521,0.36-1.591,0.686-3.21c0.272-1.321,0.518-2.377,0.767-3.17
		c0.185-0.618,0.491-1.291,0.885-2.018c-0.927-0.178-2.041-0.372-3.343-0.599c-5.977-0.834-9.969-1.214-11.979-1.171
		c-2.008,0.059-3.417,2.518-4.228,7.363C121.9,79.846,125.472,81.218,132.498,82.422z M132.596,73.048
		c-3.29-0.309-5.407-0.459-6.322-0.483c-0.017-0.014-0.051-0.058-0.101-0.101c-0.018-0.029-0.039-0.105-0.051-0.259
		c-0.017-0.231,0.281-0.377,0.897-0.424c1.308-0.099,3.456,0.049,6.458,0.442c2.877,0.371,4.305,0.635,4.317,0.789
		c0.02,0.262,0.01,0.34-0.013,0.233c-0.128,0.149-0.277,0.222-0.493,0.238C137.274,73.485,135.715,73.339,132.596,73.048z"/>
	<path fill="#F29820" d="M126.174,72.464c-0.018-0.029-0.039-0.105-0.051-0.259c-0.017-0.231,0.281-0.377,0.897-0.424
		c1.308-0.099,3.456,0.049,6.458,0.442c2.877,0.371,4.305,0.635,4.317,0.789c0.02,0.262,0.01,0.34-0.013,0.233
		c-0.128,0.149-0.277,0.222-0.493,0.238c-0.015,0.001-1.575-0.144-4.693-0.436c-3.29-0.309-5.407-0.459-6.322-0.483
		C126.258,72.551,126.223,72.507,126.174,72.464z"/>
	<path fill="#E96C24" d="M138.685,83.364l-0.01,0.078c-0.015,0.001-0.031,0.002-0.046,0.003l0.02-0.141
		C138.667,83.334,138.668,83.35,138.685,83.364z"/>
	<path fill="#D76127" d="M140.019,79.919c-0.204,0.991-0.374,2.025-0.527,3.074c0.06,0.181,0.166,0.359,0.288,0.536
		c1.386,2.976,2.927,5.554,4.623,7.717c1.72,2.487,3.56,4.717,5.49,6.692c2.03,2.076,3.907,3.56,5.662,4.465
		c-0.062-1.435-0.047-2.876,0.016-4.305c0.204-4.072,0.721-8.089,1.567-12.07c0.838-3.872,1.977-7.658,3.433-11.344
		c1.342-3.353,3.238-6.329,5.721-8.916c-0.884-0.026-1.858,0.001-2.905,0.064c-3.48,0.247-8.458,1.784-14.947,4.627
		c-2.429,1.05-4.544,1.953-6.363,2.663C141.263,74.856,140.582,77.121,140.019,79.919z M144.13,74.903
		c-0.021-0.277,0.699-0.796,2.143-1.555c1.34-0.705,3.031-1.483,5.074-2.318c4.894-2.026,8.266-3.101,10.144-3.242
		c0.231-0.017,0.354-0.027,0.403,0.001c0.095,0.024,0.149,0.128,0.162,0.297c0.02,0.262-0.005,0.341-0.029,0.234
		c-0.626,0.326-2.194,0.878-4.691,1.639c-2.906,0.885-4.929,1.564-6.072,2.006c-0.361,0.136-1.57,0.738-3.595,1.804
		c-1.877,0.978-2.892,1.472-3.046,1.484s-0.263,0.004-0.311-0.023c-0.018-0.03-0.051-0.058-0.085-0.102
		c-0.002-0.031-0.018-0.03-0.047-0.012C144.162,75.117,144.141,75.041,144.13,74.903z"/>
	<path fill="#F29820" d="M146.273,73.348c1.34-0.705,3.031-1.483,5.074-2.318c4.894-2.026,8.266-3.101,10.144-3.242
		c0.231-0.017,0.354-0.027,0.403,0.001c0.095,0.024,0.149,0.128,0.162,0.297c0.02,0.262-0.005,0.341-0.029,0.234
		c-0.626,0.326-2.194,0.878-4.691,1.639c-2.906,0.885-4.929,1.564-6.072,2.006c-0.361,0.136-1.57,0.738-3.595,1.804
		c-1.877,0.978-2.892,1.472-3.046,1.484s-0.263,0.004-0.311-0.023c-0.018-0.03-0.051-0.058-0.085-0.102
		c-0.002-0.031-0.018-0.03-0.047-0.012c-0.015,0.001-0.037-0.075-0.047-0.213C144.11,74.626,144.829,74.107,146.273,73.348z"/>
	<path fill="#EF8B21" d="M31.873,113.282c-2.277,10.233-2.061,13.315-2.032,15.14c0.034,1.886,0.174,3.749,0.424,5.619
		c0.207,1.517,0.7,2.92,1.479,4.208c0.212,0.34,0.467,0.646,0.749,0.903c1.473,1.251,3.043,2.371,4.712,3.36
		c1.638,0.991,3.122,2.195,4.407,3.631c1.197,1.303,2.25,2.741,3.171,4.266c0.283,0.474,0.598,0.946,0.942,1.4
		c1.203,1.581,2.361,3.182,3.486,4.753c1.126,1.587,2.265,3.142,3.419,4.681c1.153,1.539,1.813,2.898,1.995,4.076
		c0.197,1.177,0.253,1.916,0.186,2.262c-0.229,1.271-0.916,2.639-2.03,4.086c-1.113,1.462-2.332,2.947-3.657,4.471
		c-1.182,1.359-2.387,2.626-3.631,3.788c1.396,1.892,3.126,3.062,5.187,3.495c0.287-0.502,0.589-1.02,0.935-1.557
		c1.671-2.681,3.461-5.216,5.375-7.558c0.212-0.264,0.685-0.764,1.418-1.516c0.821-0.821,1.422-1.47,1.836-1.935
		c1.498-1.692,2.217-3.031,2.144-4.001c-0.086-1.139-1.825-4.692-5.216-10.66c-1.692-2.938-2.868-4.97-3.493-6.084
		c-1.07-1.87-1.597-2.898-1.611-3.083c-0.016-0.216-0.011-0.355,0.015-0.419c0.039-0.096,0.145-0.135,0.329-0.149
		c0.015-0.001,0.579,0.901,1.659,2.708c0.089,0.148,0.176,0.281,0.249,0.43c5.206,1.898,10.896,2.63,17.085,2.163
		c3.679-0.278,15.584-1.868,19.18-5.968c0.16-0.136,0.305-0.271,0.45-0.405c-1.152,0.118-2.322,0.206-3.481,0.232
		c-0.6,0.045-1.193-0.018-1.765-0.207c-0.222-0.061-0.326-0.223-0.283-0.459l1.814-0.167c0.664-0.02,1.344-0.04,2.021-0.091
		c0.753-0.072,1.812-0.198,3.16-0.393c1.331-0.209,2.363-0.488,3.076-0.883c0.715-0.379,1.153-0.722,1.318-0.997l-0.017-0.03
		c-1.515,0.439-3.087,0.744-4.715,0.913c-4.055,0.43-8.08,0.223-12.105-0.588c-3.979-0.83-7.878-2.022-11.664-3.563
		c-3.818-1.57-7.555-3.285-11.181-5.179c-3.658-1.907-7.135-4.075-10.448-6.535c-0.312-0.239-0.64-0.478-0.951-0.702
		c0,0-0.228,0.048-0.321,0.055c0.053,0.089,0.122,0.378,0.122,0.378c0.891,0.722,1.523,1.309,1.913,1.76
		c0.661,0.755,1.113,1.481,1.353,2.127c2.974,8.009-3.326,9.261-5.897,9.455c-2.37,0.179-4.082-0.343-5.164-1.546
		c-0.661-0.755-1.04-1.686-1.126-2.826c-0.048-0.631,0.065-1.182,0.324-1.65c0.508-0.859,1.458-1.395,2.882-1.611
		c-0.113-0.27-0.181-0.544-0.232-0.819c0.808-4.458-3.043-10.995-3.455-11.939c-0.357-0.84-0.745-1.662-1.163-2.482
		c-0.439-0.896-0.894-1.79-1.333-2.686c-0.581-0.73-1.146-1.446-1.714-2.193C31.971,112.935,31.913,113.106,31.873,113.282z"/>
	<g>
		<path d="M174.027,74.579c-2.843,0.662-4.34,0.994-4.489,0.987c-0.11-0.005-0.142-0.03-0.088-0.066l0.015-0.054
			c0.112-0.026,2.247-0.548,6.425-1.557c2.917-0.714,4.428-1.068,4.538-1.063c0.104,0.005,0.136,0.014,0.077,0.027l-0.004,0.093
			C179.23,73.327,177.068,73.871,174.027,74.579z"/>
		<path d="M170.035,78.45c0.02-0.022,1.26,0.017,3.726,0.102c1.233,0.047,2.504,0.103,3.809,0.152
			c0.097,0.004,0.155,0.015,0.162,0.015c0.032,0.017,0.042,0.072,0.039,0.158c-0.006,0.132-0.014,0.163-0.037,0.092
			c-0.084-0.019-2.645-0.148-7.671-0.4L170.035,78.45z"/>
		<path d="M168.743,82.994c0.983,0.55,3.087,1.485,6.317,2.813c-0.028,0.053-0.12,0.073-0.276,0.066
			c-3.792-1.399-5.857-2.332-6.187-2.807L168.743,82.994z"/>
		<path d="M170.358,90.59c-0.144-0.123-0.759-0.611-1.846-1.462c-0.829-0.653-1.242-1.014-1.24-1.068
			c0.004-0.086,0.012-0.124,0.025-0.131l0.032,0.017c2.21,1.766,3.353,2.682,3.435,2.74c1.536,1.269,2.304,1.981,2.297,2.152
			c-0.005,0.125-0.014,0.163-0.038,0.115c-0.332-0.272-0.789-0.674-1.377-1.207C170.927,91.099,170.502,90.714,170.358,90.59z"/>
		<path d="M166.47,91.939c0.116,0.169,1.313,1.766,3.584,4.79c1.504,2,2.257,3.055,2.252,3.172c-0.005,0.125-0.02,0.163-0.038,0.115
			c-2.313-2.956-4.295-5.632-5.952-8.006L166.47,91.939z"/>
		<path d="M162.895,96.383c0.668,0.918,1.738,2.595,3.191,5.022c1.441,2.395,2.158,3.682,2.151,3.853
			c-0.005,0.125-0.02,0.163-0.038,0.115c-1.148-1.969-2.018-3.458-2.611-4.466c-1.059-1.786-2.001-3.27-2.846-4.453L162.895,96.383z
			"/>
	</g>
</g>
</svg>
