<?xml version="1.0" encoding="utf-8"?>
<!-- Generator: Adobe Illustrator 17.1.0, SVG Export Plug-In . SVG Version: 6.00 Build 0)  -->
<!DOCTYPE svg PUBLIC "-//W3C//DTD SVG 1.0//EN" "http://www.w3.org/TR/2001/REC-SVG-20010904/DTD/svg10.dtd">
<svg version="1.0" id="Layer_1" xmlns="http://www.w3.org/2000/svg" xmlns:xlink="http://www.w3.org/1999/xlink" x="0px" y="0px"
	 viewBox="0 0 200 200" enable-background="new 0 0 200 200" xml:space="preserve">
<g>
	<path fill="none" d="M58.987,130.878c-0.003-0.015,0.009-0.033,0.009-0.033c0.027-0.021,0.052-0.056,0.078-0.076
		c0.012-0.018,0.027-0.021,0.024-0.035c0.003,0.015,0.003,0.015,0.006,0.03c-0.019,0.065-0.037,0.131-0.053,0.211l-0.083-0.031
		C58.966,130.928,58.978,130.91,58.987,130.878z"/>
	<path fill="none" d="M108.747,98.625l0.098,0.028c-0.03,0.006-0.075,0.014-0.119,0.022
		C108.737,98.658,108.735,98.643,108.747,98.625z"/>
	<path fill="none" d="M62.696,128.02c-0.015,0.003-0.018-0.012-0.033-0.009l0.012-0.018C62.693,128.005,62.696,128.02,62.696,128.02
		z"/>
	<path fill="none" d="M68.282,134.827c0.003,0.015,0.018,0.012,0.035,0.024l-0.024,0.035
		C68.291,134.872,68.288,134.857,68.282,134.827z"/>
	<path fill="none" d="M134.291,103.309c-0.054,0.041-0.114,0.052-0.186,0.081l0.07-0.122
		C134.222,103.275,134.258,103.299,134.291,103.309z"/>
	<path fill="none" d="M52.907,97.154c0.289-0.193,0.611-0.377,0.933-0.561c-0.19,0.391-0.363,0.795-0.538,1.184
		c-0.689,1.537-1.312,3.092-1.864,4.696c-0.133,0.365-0.251,0.728-0.37,1.09c-0.283-0.69-0.438-1.188-0.493-1.487
		c-0.136-0.563-0.226-0.964-0.258-1.221c-0.081-0.434-0.07-0.792,0.011-1.101C50.535,98.958,51.397,98.101,52.907,97.154z"/>
	<path fill="none" d="M115.806,138.187c-0.012,0.018-0.024,0.036-0.022,0.05l-0.02-0.027
		C115.776,138.193,115.791,138.19,115.806,138.187z"/>
	<path fill="none" d="M63.845,128.208c0.068,0.034,0.139,0.083,0.21,0.131l-0.061,0.089
		C63.948,128.344,63.904,128.275,63.845,128.208z"/>
	<path fill="none" d="M150.404,75.976l0.001-0.078C150.411,75.929,150.417,75.959,150.404,75.976z"/>
	<path fill="none" d="M108.349,51.368c-0.003-0.015-0.018-0.012-0.018-0.012l0.015-0.003L108.349,51.368z"/>
	<path fill="none" d="M63.818,128.724c0.045-0.008,0.09-0.017,0.135-0.025l-0.046,0.086
		C63.871,128.761,63.835,128.736,63.818,128.724z"/>
	<path fill="none" d="M123.384,82.062c0.003,0.015,0.006,0.03,0.006,0.03l-0.11-0.01C123.324,82.073,123.354,82.067,123.384,82.062z
		"/>
	<path d="M126.278,95.855c-0.155-2.076-0.366-4.126-0.673-6.19c-0.129-0.858-0.288-1.711-0.491-2.555
		c0.197-0.439,0.342-0.822,0.436-1.149c0.182-0.684,0.271-1.041,0.265-1.071c-0.07-0.374-0.333-0.789-0.819-1.24
		c-0.265-0.26-0.531-0.443-0.831-0.557c0.048-0.489,0.096-0.9,0.127-1.231c0.896-0.26,1.47-0.584,1.708-0.968
		c0.11-0.16,0.142-0.321,0.111-0.485l-0.084-0.201c-0.111-0.598-0.339-0.989-0.695-1.155c-0.187-0.089-0.493-0.156-0.914-0.17
		c0.019-0.143,0.039-0.286,0.044-0.426c0.046-0.504,0.005-1.054-0.103-1.637c-0.122-0.488-0.184-0.74-0.187-0.755
		c-0.031-0.165-0.059-0.314-0.084-0.449c-0.015,0.003-0.03,0.006-0.042,0.023c-0.014-0.075-0.028-0.15-0.042-0.224
		c-0.033-0.179-0.034-0.35-0.032-0.505c-1.204,0.348-2.734,0.695-4.619,1.046c-3.904,0.727-7.508,1.073-10.823,1.056
		c-0.674-0.292-1.421-0.649-2.272-1.063c-2.389-1.196-4.203-2.622-5.417-4.238c-1.009-1.345-1.683-2.968-2.034-4.853
		c-0.031-0.165-0.064-0.344-0.08-0.512c1.144-0.259,2.308-0.322,3.479-0.184c3.081,0.339,6.056,1.101,8.953,2.279
		c1.624,0.657,3.262,1.312,4.898,1.951c0.849,0.322,1.714,0.64,2.593,0.956c0.612,0.211,1.236,0.404,1.887,0.577
		c0.964,0.269,1.952,0.426,2.936,0.475c1.122,0.039,2.075-0.325,2.867-1.06c0.399-0.353,0.625-0.798,0.73-1.312
		c0.191-1.134-0.004-2.182-0.591-3.171c-0.803-1.321-1.93-2.303-3.363-2.934c-3.035-1.338-6.074-2.196-9.086-2.58
		c-3.03-0.395-5.493-0.571-7.415-0.507c-1.926,0.049-3.862,0.209-5.793,0.475c-0.696,0.083-1.297,0.18-1.851,0.283
		c0.197-0.935,0.46-1.85,0.812-2.705c1.335-3.22,3.616-5.518,6.869-6.913c0.22,0.021,0.444,0.057,0.664,0.077
		c1.412,0.186,2.907,0.48,4.468,0.886c1.989,0.543,3.652,0.991,5.002,1.344c3.219,0.825,5.774,1.664,7.697,2.513
		c0.86,0.381,1.646,0.777,2.344,1.204c0.004-0.31,0.044-0.596,0.116-0.873l-0.003-0.015c0.061-0.089,0.104-0.19,0.147-0.291
		c0.228-0.522,0.438-1.057,0.598-1.613c0.492,0.063,0.939,0.057,1.343-0.018c0.629-0.117,1.03-0.455,1.207-0.999
		c0.062-0.166,0.088-0.357,0.097-0.56c-0.007-0.123-0.006-0.2-0.02-0.275c-0.036-0.194-0.205-0.519-0.539-0.983
		c-0.196-0.304-0.502-0.619-0.924-0.973c0.403-2.072,0.676-4.181,0.841-6.286c-0.003-0.015-0.003-0.015,0.009-0.033
		c0.061-0.754,0.104-1.521,0.132-2.284c0.123-0.007,0.245-0.015,0.365-0.037c1.003-0.187,1.582-0.651,1.75-1.409
		c0.086-0.372,0.061-0.754-0.059-1.15c-0.884-2.002-1.66-3.762-2.327-5.263c-0.229-2.31-1.092-7.195-1.103-7.255
		c0.651,0.173,1.296,0.146,1.95-0.085c0.9-0.322,1.529-0.935,1.922-1.813c0.043-0.101,0.074-0.184,0.105-0.267
		c0.282-0.811,0.282-1.647-0.03-2.486c-0.331-0.944-0.939-1.636-1.808-2.062c-0.872-0.441-1.748-0.495-2.633-0.175
		c-0.596,0.204-1.072,0.556-1.452,1.013c-0.029-0.072-1.199-2.284-1.74-3.112c-0.817-1.225-1.709-2.36-2.722-3.393
		c2.05,0.702,3.76,1.575,5.149,2.632c0.24-0.122,0.327-0.324,0.276-0.593c-0.02-0.105-0.447-0.907-1.281-2.392
		c-0.828-1.456-1.473-2.589-1.961-3.381l-0.022-0.12c2.273,0.32,4.612,0.998,7.054,2.06c2.288,0.982,4.453,2.22,6.49,3.682
		c0.969,0.717,1.861,1.433,2.679,2.163c0.406,0.435,0.814,0.963,1.226,1.598c-0.279-0.83-0.617-1.65-1.015-2.458
		c-0.605-1.172-1.28-2.3-2.036-3.366c-0.7-1.015-1.53-1.898-2.508-2.66c-0.655-0.528-1.353-1.033-2.09-1.499
		c-0.263-0.167-0.527-0.335-0.787-0.488c-0.246-0.155-0.504-0.293-0.746-0.434c-0.412-0.217-0.809-0.438-1.218-0.64
		c-0.848-0.399-1.723-0.778-2.596-1.142c-0.956-0.395-1.933-0.739-2.923-1.065c-2.08-0.696-4.211-1.166-6.394-1.425
		c-2.64-0.298-5.284-0.533-7.929-0.69c-0.674-0.045-1.355-0.042-2.036,0.039c-2.996,0.202-5.965,0.631-8.907,1.288
		c-2.099,0.53-4.17,1.21-6.163,2.061c-2.125,0.891-4.13,2.007-6.019,3.334c-2.434,1.723-4.613,3.738-6.508,6.026
		c-1.619,1.942-3.008,4.043-4.154,6.284c-1.122,2.205-1.961,4.513-2.503,6.921c-1.095,4.925-2.032,9.866-2.763,14.832
		c-0.228,1.435-0.423,2.88-0.636,4.313c-0.265,1.984-0.611,3.952-1.054,5.892c-0.75,3.452-1.759,6.844-3.012,10.173
		c-0.646,1.684-1.325,3.358-2.024,5.005c-0.367,0.858-0.736,1.7-1.105,2.543c-0.271,0.623-0.545,1.231-0.818,1.839
		c-0.283,0.641-0.581,1.285-0.864,1.925c-0.596,1.287-1.192,2.575-1.776,3.844c-0.556,1.171-1.109,2.358-1.662,3.544
		c-0.219,0.49-0.452,0.982-0.685,1.474c-3.388,1.838-6.793,3.664-10.219,5.463c-1.788,0.952-3.451,2.082-4.999,3.407
		c-0.867,0.75-1.503,1.657-1.895,2.706c-0.253,0.635-0.331,1.3-0.248,1.996c0.07,0.544,0.203,1.092,0.396,1.629
		c0.651,1.751,1.419,3.466,2.29,5.146l-0.217-0.501c1.499,2.646,3.055,5.266,4.638,7.866c-0.014,0.173-0.046,0.334-0.076,0.509
		c-0.194,1.615-0.374,3.227-0.494,4.828c-0.024,0.035-0.052,0.056-0.079,0.076c0.021,0.027,0.038,0.039,0.059,0.066
		c-0.152,2.01-0.247,3.993-0.273,6.01c-0.016,1.907,0.054,3.782,0.253,5.68c0.195,1.96,0.495,3.824,0.896,5.56
		c0.419,1.748,0.97,3.132,1.694,4.189c0.72,1.042,1.828,1.919,3.325,2.646c1.495,0.712,2.991,1.517,4.505,2.412
		c1.463,0.873,2.786,1.911,3.972,3.13c1.478,1.535,2.929,3.092,4.325,4.689c1.312,1.473,2.633,2.915,3.998,4.348
		c1.001,1.052,1.972,2.109,2.93,3.184c1.182,1.359,2.108,2.842,2.803,4.493c0.28,0.675,0.319,1.38,0.107,2.07
		c-0.487,1.623-1.348,3.316-2.58,5.093c-1.235,1.762-2.554,3.571-3.949,5.394c-0.634,0.83-1.19,1.506-1.672,2.076
		c0.222,0.114,0.438,0.274,0.629,0.471c0.003,0.015,0.021,0.027,0.041,0.054c-0.003-0.015-0.003-0.015,0.012-0.018
		c0.174,0.184,0.362,0.366,0.566,0.545c-0.763,0.807-1.367,1.555-1.805,2.193c-0.645,0.941-1.008,1.736-1.085,2.4
		c-0.056,0.366,0.025,1.048,0.211,2.05c0.014,0.075,0.033,0.18,0.047,0.254c0.139,0.082,0.266,0.183,0.393,0.283
		c0.112,0.103,0.212,0.224,0.309,0.329c0.086,0.046,0.172,0.092,0.263,0.168c0.029,0.072,0.061,0.159,0.095,0.261
		c1.416,1.036,3.066,1.921,4.969,2.665c2.254,0.88,4.657,1.485,7.178,1.805c2.187,0.274,3.969,0.282,5.315,0.031
		c0.673-0.125,1.255-0.327,1.745-0.604c0.033,0.009,0.065,0.019,0.101,0.043c0.165-0.108,0.352-0.189,0.555-0.258
		c0.311-0.739,0.504-1.533,0.598-2.356c0.071-0.617,0.083-1.052,0.03-1.337c-0.295-1.585-1.123-2.623-2.498-3.11
		c-0.864-0.319-2.298-0.454-4.268-0.397c-2.108,0.067-3.513,0.004-4.242-0.17c-1.026-0.273-1.732-0.823-2.124-1.679
		c0.266,0.012,0.531,0.025,0.809,0.02c-0.008-0.293,0.049-0.567,0.137-0.846c-0.045,0.008-0.093,0.002-0.138,0.01
		c0.022-0.05,0.043-0.101,0.05-0.148c0.846-2.356,1.807-4.423,2.917-6.193c0.5-0.805,1.508-2.293,3.02-4.478
		c1.196-1.724,2.034-3.041,2.49-3.915c0.662-1.269,0.922-2.277,0.783-3.024c-0.242-1.302-2.425-4.795-6.54-10.514
		c-0.956-1.308-1.949-2.655-2.961-4.014c2.714,0.609,5.695,0.827,8.95,0.686c1.201,0.798,2.456,1.632,3.754,2.535
		c5.871,4.014,8.897,6.469,9.062,7.351c0.05,0.269-0.12,0.936-0.51,1.999c-0.415,1.176-0.941,2.342-1.562,3.495
		c-0.805,1.496-1.593,2.665-2.39,3.541c0.227,0.221,0.409,0.45,0.531,0.69c0.027-0.021,0.039-0.038,0.054-0.041
		c0.079,0.093,0.174,0.184,0.271,0.29c0.171,0.169,0.344,0.354,0.528,0.505c-1.094,0.777-1.881,1.867-2.38,3.26
		c-0.136,0.35-0.24,0.71-0.328,1.067c0.15,0.142,0.256,0.293,0.346,0.446c0.035,0.024,0.056,0.051,0.092,0.076
		c0.649,1.241,1.431,2.365,2.355,3.338c3.657,3.931,8.871,5.251,15.648,3.989c1.391-0.259,2.451-0.549,3.181-0.871
		c0.286-0.131,0.535-0.286,0.77-0.437c0.023-0.128,0.048-0.241,0.088-0.357c0.03-0.006,0.072-0.029,0.114-0.052
		c0.033-0.239,0.081-0.48,0.111-0.733c0.019-0.065,0.05-0.149,0.083-0.217c-0.003-0.185,0.02-0.391,0.074-0.602
		c-0.032-0.087-0.066-0.189-0.101-0.291c-0.002-0.092-0.016-0.167-0.024-0.212c-0.315-1.691-1.163-2.755-2.551-3.224
		c-0.909-0.311-2.347-0.383-4.345-0.228c-2.136,0.166-3.574,0.17-4.303-0.003c-1.354-0.289-2.163-1.145-2.423-2.536
		c-0.02-0.105-0.027-0.227-0.037-0.365c0.045-0.008,0.075-0.014,0.108-0.004c0,0,0.003,0.015,0.006,0.03
		c0.317-0.044,0.615-0.022,0.88,0.068c0.019-0.065,0.025-0.113,0.029-0.175c0.03-0.006,0.06-0.011,0.09-0.017
		c-0.007-0.123-0.015-0.245-0.007-0.37c0.239-1.128,0.837-3.236,1.782-6.306c1.35-4.384,1.922-7.045,1.717-7.981
		c-0.188-0.925-1.303-2.342-3.355-4.22c-1.365-1.263-3.198-3.041-5.501-5.352c1.904-0.494,3.685-1.073,5.374-1.728
		c0.969-0.366,2.521-1.089,4.666-2.123c1.334-0.651,7.996-5.684,8.658-6.116c0.786-0.518,1.165-1.223,1.121-2.128
		c0.003-0.233-0.054-0.455-0.138-0.655c2.189-3.287,3.999-6.781,5.433-10.469c1.334-3.39,2.374-6.865,3.152-10.415
		c0.646-3.015,1.101-6.056,1.353-9.105 M120.8,14.425c-0.05-0.021-0.086-0.046-0.124-0.085c-0.143-0.02-0.304-0.052-0.447-0.072
		c-0.211-0.054-0.407-0.11-0.618-0.163c-3.634-0.979-6.268-1.325-7.868-1.026c-0.599,0.111-0.787,0.348-0.565,0.709
		c0.086,0.464,0.289,0.968,0.589,1.5c0.543,0.92,0.846,1.467,0.924,1.639l-0.047,0.164c-0.05-0.022-0.362-0.118-0.891-0.298
		c-0.654-0.188-1.332-0.34-2.05-0.454c-2.252-0.37-4.58-0.323-7.003,0.128c-2.394,0.446-3.91,1.115-4.533,2.005
		c-0.21,0.287-0.321,0.602-0.325,0.912c0.014,0.075,0.03,0.242,0.083,0.526c0.078,0.419,0.352,0.894,0.823,1.426
		c0.574,0.589,0.98,1.025,1.239,1.332l0.064,0.096c-0.015,0.003-0.03,0.006-0.045,0.008c-0.374,0.07-0.927,0.095-1.687,0.082
		c-1.152,0.215-1.839,0.931-2.052,2.115c-0.067,0.384-0.085,0.79-0.049,1.232c0.037,0.365,0.073,0.559,0.076,0.574
		c0.071,0.467,0.127,0.766,0.149,0.885c0.036,0.194,0.097,0.353,0.182,0.477c0.415,0.402,0.987,0.977,1.676,1.685l0.142,0.097
		c-0.048-0.007-0.093,0.002-0.123,0.007c-1.835,0.203-3.087,1.457-3.759,3.749c-0.231,0.755-0.389,1.651-0.492,2.676
		c-0.036,0.471-0.071,0.864-0.093,1.163c-0.772-0.073-1.693-0.118-2.77-0.165c-0.071-0.714-0.172-1.423-0.303-2.126
		c-0.014-0.075-0.048-0.424-0.117-1.046c-0.078-0.666-0.219-1.259-0.404-1.751c-0.573-1.581-1.576-2.229-2.997-1.965
		c-1.646,0.307-2.782,1.849-3.443,4.619c-0.203,0.905-0.347,1.876-0.432,2.913c-0.055,0.784-0.056,1.28-0.02,1.474
		c0.159,0.853,0.338,1.485,0.536,1.881c0.187,0.337,0.392,0.608,0.631,0.811c-0.088,0.357-0.173,0.651-0.236,0.895
		c-0.91,2.925-2.667,4.629-5.27,5.114c-2.439,0.454-4.55,0.337-6.316-0.34c0.2-1.337,0.417-2.663,0.635-3.988
		c0.336-1.935,0.69-3.859,1.076-5.773c0.38-1.866,0.745-3.73,1.127-5.581c0.39-1.977,0.98-3.882,1.762-5.746
		c1.113-2.668,2.542-5.132,4.285-7.407c2.9-3.791,6.461-6.776,10.69-9.003c2.287-1.184,4.681-2.126,7.185-2.809
		c2.163-0.604,4.374-1.031,6.601-1.291c0.959-0.086,1.906-0.154,2.841-0.204c0.95-0.053,1.89-0.073,2.833-0.079
		c1.856-0.005,3.708,0.13,5.534,0.378c1.621,0.225,3.222,0.514,4.808,0.884c1.806,0.391,3.572,0.898,5.31,1.503
		c1.343,0.477,2.642,1.056,3.899,1.735c1.38,0.764,2.691,1.65,3.898,2.648c0.9,0.761,1.734,1.581,2.504,2.474
		c0.471,0.531,0.869,1.092,1.21,1.678c0.021,0.027,0.026,0.057,0.044,0.069c-0.018-0.012-0.035-0.024-0.056-0.052
		c-0.478-0.406-0.971-0.81-1.474-1.18c-1.371-1.045-3.21-2.111-5.538-3.225c-2.328-1.114-5.087-1.885-8.281-2.327l-0.509,0.172
		c-0.048-0.007-0.058,0.104-0.011,0.358c0.064,0.344,0.476,1.227,1.236,2.649c0.767,1.374,1.184,2.117,1.221,2.234l0.019,0.105
		c-0.015,0.003-0.033-0.009-0.05-0.022C124.28,15.495,122.664,14.96,120.8,14.425z M129.781,21.095
		c-1.009,0.73-1.615,1.137-1.795,1.248c-0.255,0.125-0.592,0.311-0.995,0.557c-0.238,0.137-0.503,0.295-0.794,0.473
		c-0.012,0.018-0.027,0.021-0.027,0.021c-0.003-0.015,0.007-0.048,0.004-0.063c0.054-0.211,0.125-0.41,0.214-0.597
		c0.086-0.202,0.178-0.374,0.303-0.536c0.344-0.482,0.823-0.819,1.404-1.02C128.679,20.991,129.231,20.965,129.781,21.095z
		 M128.036,27.1c-0.033-0.009-0.065-0.019-0.101-0.043c-0.208-0.116-0.418-0.247-0.601-0.399c-0.458-0.379-0.797-0.873-1.022-1.497
		c-0.158-0.435-0.224-0.872-0.21-1.292c0.069-0.044,0.153-0.091,0.235-0.152c0.25-0.155,0.515-0.313,0.789-0.503
		c0.138-0.088,0.289-0.193,0.454-0.301c0.979-0.647,1.816-1.22,2.527-1.724c0.101,0.043,0.202,0.086,0.303,0.129
		c0.763,0.353,1.292,0.951,1.591,1.809c0.311,0.84,0.297,1.678-0.033,2.483c-0.024,0.035-0.033,0.068-0.058,0.104
		c-0.341,0.745-0.879,1.263-1.635,1.527c-0.639,0.227-1.272,0.237-1.919,0.001C128.256,27.198,128.14,27.158,128.036,27.1z
		 M124.142,55.887c0.043-0.101,0.086-0.202,0.112-0.315c0.164-0.448,0.313-0.894,0.445-1.352c0.338,0.154,0.641,0.283,0.893,0.391
		c0.419,0.17,0.817,0.312,1.191,0.413c-0.096,0.482-0.206,0.89-0.3,1.217c-0.056,0.196-0.13,0.38-0.189,0.561
		c-0.507-0.23-1.065-0.483-1.668-0.726C124.478,56.025,124.311,55.963,124.142,55.887z M119.653,54.386
		c0.069-0.214,0.134-0.443,0.203-0.657c0.163-0.541,0.295-1.076,0.404-1.654c0.421,0.185,0.861,0.382,1.302,0.593
		c0.925,0.478,1.728,0.885,2.39,1.196c-0.086,0.372-0.143,0.646-0.178,0.791c-0.103,0.36-0.198,0.687-0.294,0.999
		C122.485,55.298,121.213,54.869,119.653,54.386z M114.145,52.734c0.273-0.778,0.497-1.486,0.705-2.113
		c0.596,0.044,1.219,0.144,1.817,0.281c0.902,0.188,1.889,0.499,2.925,0.91c-0.104,0.685-0.238,1.298-0.373,1.819
		c-0.056,0.196-0.116,0.378-0.159,0.556c-0.672-0.2-1.394-0.421-2.182-0.662C115.943,53.25,115.028,52.988,114.145,52.734z
		 M108.331,51.356l0.015-0.003c0.719-0.211,1.459-0.396,2.252-0.543c1.212-0.226,2.418-0.311,3.608-0.239
		c-0.178,0.621-0.378,1.293-0.597,2.03c-1.891-0.514-3.641-0.932-5.26-1.234C108.346,51.353,108.331,51.356,108.331,51.356z
		 M98.663,65.508c-0.032-0.505-0.025-1.048,0.019-1.644c0.758-0.25,1.588-0.45,2.485-0.618c4.144-0.772,7.897-0.728,11.276,0.128
		c1.69,0.428,3.485,1.177,5.375,2.265c0.238-0.137,0.324-0.339,0.276-0.593c-0.07-0.374-0.685-0.77-1.864-1.201
		c-1.117-0.426-2.529-0.783-4.214-1.103c-4.028-0.767-7.306-0.914-9.837-0.459c-0.011-0.06-0.373-0.008-1.106,0.129
		c-0.823,0.153-1.592,0.343-2.309,0.569c0.005-0.14,0.025-0.283,0.047-0.411c0.338-0.094,0.677-0.188,1.018-0.267
		c1.952-0.487,3.932-0.748,5.952-0.784c1.973-0.042,3.939,0.04,5.915,0.26c1.955,0.193,3.906,0.526,5.834,0.988
		c1.943,0.458,3.805,1.149,5.583,2.056c0.824,0.435,1.545,0.981,2.178,1.637c0.383,0.393,0.649,0.823,0.836,1.33
		c0.164,0.465,0.235,0.931,0.232,1.412c-0.035,1.059-0.542,1.742-1.532,2.081c-0.741,0.262-1.517,0.329-2.301,0.196
		c-0.81-0.112-1.587-0.293-2.359-0.536c-0.883-0.253-1.745-0.557-2.597-0.894c-3.429-1.374-6.898-2.631-10.419-3.755
		c-1.898-0.637-3.867-0.982-5.874-1.042C100.391,65.232,99.524,65.316,98.663,65.508z M113.334,77.634
		c0.098,0.276,0.178,0.54,0.278,0.83c-1.019-0.151-2.004-0.37-2.97-0.654C111.533,77.768,112.423,77.726,113.334,77.634z
		 M117.082,78.809c-0.877-0.053-1.792-0.146-2.725-0.251c-0.111-0.351-0.205-0.689-0.291-0.983c0.863-0.099,1.772-0.206,2.676-0.344
		C116.863,77.797,116.978,78.333,117.082,78.809z M120.564,76.566c0.192,1.032,0.303,1.708,0.326,1.998
		c0.005,0.107,0.012,0.23,0.019,0.352c-0.493,0.014-0.818,0.013-1.003,0.017c-0.653-0.018-1.321-0.033-2.011-0.074
		c-0.068-0.281-0.101-0.461-0.11-0.506c-0.066-0.437-0.141-0.841-0.216-1.244c0.616-0.099,1.232-0.199,1.86-0.316
		C119.819,76.72,120.193,76.65,120.564,76.566z M123.598,76.899c0.13,0.781,0.127,1.431-0.02,1.97
		c-0.033-0.009-0.063-0.004-0.093,0.002c-0.71,0.008-1.326,0.03-1.833,0.047c-0.17-1.16-0.293-1.988-0.37-2.485
		c0.775-0.16,1.473-0.321,2.095-0.468C123.443,76.231,123.519,76.557,123.598,76.899z M123.156,81.253
		c-1.466,0.273-2.327,0.387-2.568,0.339c-0.229,0.104-0.552,0.196-0.986,0.277c-0.03,0.006-0.074,0.014-0.119,0.022
		c0.159,0.11,0.427,0.214,0.799,0.3c0.771,0.15,1.771,0.119,2.998-0.11c0.045-0.008,0.075-0.014,0.105-0.02
		c0.003,0.015,0.006,0.03,0.006,0.03c-0.009,0.033-0.004,0.063-0.016,0.08c-0.044,0.596-0.133,1.696-0.253,3.297
		c-1.067,0.338-2.179,0.514-3.377,0.567c-2.213,0.087-4.416-0.106-6.594-0.583c-5.074-1.067-10.08-2.348-15.042-3.808
		c-1.165-0.356-2.321-0.744-3.465-1.15c-0.056-0.051-0.112-0.103-0.183-0.152c-0.179-0.044-0.357-0.088-0.533-0.118
		c-2.619-1.013-5.161-2.196-7.629-3.563c-3.176-1.761-6.179-3.756-8.999-6.016c-2.797-2.219-5.358-4.667-7.671-7.363
		c0.28-0.826,0.541-1.664,0.77-2.512c0.46-1.603,0.84-3.221,1.139-4.855c0.047-0.164,0.076-0.339,0.105-0.515
		c0.339-1.92,0.645-3.85,0.921-5.775c0.058-0.351,0.102-0.7,0.16-1.051c1.888,0.747,4.08,0.881,6.578,0.416
		c2.363-0.44,4.049-1.776,5.076-3.995c0.274-0.608,0.571-1.422,0.883-2.486c0.333,0.124,0.706,0.132,1.124,0.054
		c0.584-0.109,1.155-0.447,1.715-1.016c0.449-0.579,0.689-0.871,0.713-0.907L88.69,39.97l-0.089-0.061
		c-0.068-0.034-0.163-0.047-0.313-0.019c-0.075,0.014-0.285,0.301-0.644,0.863c-0.437,0.561-0.901,0.895-1.395,0.987
		c-0.688,0.128-1.223-0.252-1.617-1.123c-0.209-0.456-0.358-0.924-0.423-1.438c0.544-4.977,1.467-7.579,2.754-7.819
		c1.316-0.245,2.231,0.343,2.776,1.774c0.158,0.435,0.286,0.953,0.359,1.512c0.029,0.49,0.059,0.732,0.059,0.732
		c0.062,0.917,0.107,1.822,0.14,2.744c0.012-0.018,0.027-0.021,0.024-0.035l0.003,0.015c1.849,0.12,3.337,0.214,4.482,0.295
		c0.042-0.271,0.085-0.542,0.118-0.78c-0.033-0.009-0.065-0.019-0.095-0.013c0.211-1.695,0.424-2.958,0.636-3.818
		c0.249-0.99,0.77-1.846,1.57-2.537c0.797-0.706,1.917-0.93,3.345-0.654c0.054-0.041,0.096-0.064,0.109-0.082
		c0.024-0.035,0.008-0.125-0.02-0.275c-0.017-0.09-0.185-0.244-0.519-0.461c-0.598-0.384-0.953-0.627-1.079-0.728
		c-1.073-0.775-1.674-1.592-1.83-2.43c-0.092-0.494-0.101-0.956-0.011-1.391c0.161-0.881,0.681-1.412,1.549-1.573
		c0.284-0.053,1.155-0.029,2.61,0.056c0.212-0.272,0.302-0.459,0.288-0.533c-0.008-0.045-0.461-0.564-1.379-1.585
		c-0.903-1.024-1.393-1.66-1.437-1.899c-0.084-0.449,0.062-0.832,0.412-1.114c0.603-0.499,1.869-0.936,3.784-1.293
		c2.737-0.51,5.322-0.512,7.739-0.002c0.774,0.166,1.493,0.372,2.161,0.635c0.552,0.222,0.84,0.354,0.89,0.376
		c0.169-0.093,0.271-0.205,0.294-0.333c-0.096-0.183-0.366-0.721-0.819-1.658c-0.601-1.234-0.946-2.006-1.05-2.312l-0.052-0.114
		c3.23-0.029,6.093,0.304,8.573,0.988c1.517,1.497,2.808,3.192,3.902,5.077c0.403,0.668,1.411,2.755,1.463,2.869
		c-0.312,0.817-0.309,1.667,0.011,2.552c0.296,0.843,0.816,1.473,1.548,1.909c0.014,0.075,0.153,0.653,0.175,0.772
		c0.139,0.578,0.247,1.161,0.356,1.745c0.152,0.9,0.272,1.791,0.391,2.682c-1.279-2.795-1.971-4.183-2.091-4.161
		c-0.164,0.031-0.258,0.11-0.301,0.211c-0.016,0.08-0.006,0.218,0.036,0.442c0,0,0.833,1.811,2.48,5.42
		c1.665,3.621,2.514,5.599,2.578,5.943c0.17,0.912-0.18,1.442-1.063,1.606c-0.763,0.142-1.692-0.273-2.821-1.27
		c-0.204-0.179-0.634-0.579-1.243-1.192c-0.454-0.442-0.785-0.721-0.995-0.852c-0.054,0.041-0.139,0.088-0.235,0.152
		c-0.066,0.059-0.092,0.172-0.061,0.336c0.025,0.135,0.233,0.421,0.636,0.841c0.427,0.462,0.896,0.901,1.424,1.329
		c0.851,0.662,1.585,1.113,2.232,1.349c-0.023,0.871-0.047,1.742-0.103,2.604c-0.103,1.938-0.29,3.846-0.566,5.77
		c-0.109-0.088-0.233-0.173-0.358-0.258c-0.86-0.629-1.835-1.129-2.92-1.468l-0.51,0.172c-0.056-0.052-0.069,0.044-0.022,0.298
		c0.781,0.288,1.576,0.651,2.373,1.106c1.623,0.905,2.501,1.794,2.665,2.677c0.028,0.15-0.029,0.346-0.207,0.549
		c-0.137,0.18-0.227,0.275-0.287,0.286c-0.883,0.164-1.972-0.035-3.317-0.605c-0.792-0.348-2.136-0.995-4-1.948
		c-1.803-0.871-3.475-1.458-4.99-1.779c-2.062-0.436-4.154-0.449-6.278-0.053c-5.969,1.112-9.84,4.092-11.624,8.975
		c-0.585,1.595-0.912,3.328-0.97,5.18c-0.033,1.152,0.026,2.131,0.173,2.924c0.351,1.885,1.015,3.541,1.985,4.924
		c1.216,1.708,2.957,3.164,5.237,4.349c1.787,0.952,4.246,1.856,7.365,2.73c1.029,0.288,2.328,0.449,3.912,0.479
		c0.731,0.019,2.071-0.014,4.027-0.069c1.535-0.069,2.606-0.052,3.225,0.034c0.891,0.128,1.377,0.409,1.46,0.858
		c0.036,0.194-0.043,0.349-0.257,0.45C124.766,80.922,124.143,81.069,123.156,81.253z M103.627,84.101
		c3.854,1,7.765,1.804,11.69,2.435c0.828,0.124,1.648,0.204,2.456,0.223c-2.905,2.77-4.38,4.159-4.41,4.165
		c-0.793,0.148-3.06-0.807-6.815-2.848c-2.862-1.572-5.397-3.05-7.628-4.476c-0.755-0.479-1.553-1.026-2.381-1.646
		C98.861,82.775,101.224,83.496,103.627,84.101z M124.99,84.703c-0.339,0.172-0.697,0.331-1.057,0.476
		c0.056-0.366,0.093-0.745,0.143-1.141c0.007-0.048,0.01-0.11,0.014-0.173C124.543,83.966,124.844,84.251,124.99,84.703z
		 M124.165,87.751c-0.37,0.673-0.826,1.469-1.399,2.381c-0.678-1.066-1.481-2.216-2.365-3.475c1.154-0.122,2.303-0.351,3.435-0.671
		c0.425-0.126,0.833-0.264,1.205-0.426C124.959,86.117,124.663,86.854,124.165,87.751z M115.151,137.411
		c-0.435,0.158-0.888,0.305-1.355,0.454c-0.98,0.306-1.968,0.568-2.965,0.784c2.362-3.443,4.306-7.132,5.823-11.037
		c1.334-3.39,2.374-6.865,3.152-10.416c1.037-4.821,1.567-9.702,1.576-14.641c0.014-3.996-0.279-7.981-0.863-11.943
		c-0.162-1.038-0.355-2.07-0.622-3.088c1.886,2.481,2.892,3.64,3.034,3.49c0.203-0.239,0.64-0.97,1.325-2.197
		c0.116-0.207,0.229-0.43,0.333-0.619c0.216,1.074,0.415,2.229,0.599,3.464c0.659,4.288,0.878,8.535,0.66,12.77
		c-0.024,0.453-0.045,0.922-0.081,1.393c-0.003-0.015-0.021-0.027-0.038-0.039c0.008,0.045,0.029,0.072,0.037,0.117
		c-0.252,3.715-0.823,7.381-1.697,10.996c-0.986,4.099-2.444,8.318-4.37,12.685C118.297,132.785,116.786,135.389,115.151,137.411z
		 M92.807,175.671c0.641,1.196,1.396,2.263,2.283,3.197c3.657,3.931,8.871,5.251,15.648,3.989c1.152-0.215,2.083-0.45,2.764-0.701
		c-0.796,0.628-1.934,1.088-3.399,1.361c-6.462,1.204-11.456-0.095-14.983-3.911c-0.968-1.043-1.776-2.223-2.442-3.554
		C92.714,175.92,92.769,175.802,92.807,175.671z M95.144,172.682c1.377,0.997,3.036,1.508,4.961,1.537
		c0.019,0.182,0.037,0.365,0.068,0.529c0.031,0.164,0.058,0.314,0.104,0.476c-0.062-0.004-0.107,0.005-0.167,0.016
		c-1.362,0.254-2.175,0.622-2.432,1.072c0.108,0.166,0.187,0.259,0.241,0.296c0.077,0.079,0.247,0.078,0.516,0.028
		c0.853-0.159,1.472-0.321,1.845-0.483c0.099-0.049,0.198-0.099,0.28-0.16c0.18,0.384,0.393,0.701,0.664,0.991
		c-0.156,0.076-0.391,0.227-0.68,0.421c-0.623,0.394-0.997,0.712-1.101,0.902c0.108,0.166,0.188,0.259,0.241,0.296
		c0.076,0.079,0.247,0.078,0.516,0.028c0.299-0.056,0.717-0.304,1.242-0.727c0.187-0.159,0.347-0.297,0.45-0.409
		c0.258,0.138,0.528,0.258,0.807,0.345c0.083,0.031,0.149,0.05,0.229,0.065c-0.082,0.062-0.163,0.123-0.244,0.185
		c-0.634,0.505-1.072,0.974-1.317,1.406c0.235,0.266,0.413,0.388,0.532,0.365c0.284-0.053,0.808-0.398,1.554-1.048
		c0.329-0.309,0.595-0.544,0.791-0.736c0.749,0.031,1.686-0.004,2.783-0.1c2.104-0.175,3.542-0.18,4.301-0.012
		c1.36,0.32,2.172,1.19,2.439,2.626c0.014,0.075,0.028,0.15,0.027,0.227c-0.793,0.566-1.863,0.966-3.194,1.214
		c-6.462,1.204-11.456-0.095-14.983-3.911c-0.93-1.003-1.712-2.126-2.349-3.385C93.747,173.901,94.361,173.214,95.144,172.682z
		 M86.407,151.696c1.769-0.144,3.61-0.394,5.54-0.753c1.197-0.223,2.358-0.47,3.484-0.741c0.336,0.309,0.631,0.563,0.852,0.754
		c5.512,4.995,8.387,8.05,8.599,9.186c0.039,0.21-0.123,0.921-0.464,2.161c-0.359,1.228-1.046,3.522-2.07,6.917
		c-0.546,1.804-0.94,3.178-1.158,4.085c-3.147,0.137-5.446-0.734-6.91-2.613c0.67-0.806,1.307-1.791,1.937-2.977
		c0.694-1.259,1.221-2.503,1.628-3.724c0.392-1.218,0.556-2.085,0.459-2.609c-0.097-0.523-0.73-1.257-1.89-2.171
		c-1.164-0.929-2.561-2.031-4.194-3.321c-1.648-1.287-2.857-2.207-3.637-2.743C88.137,152.844,87.413,152.36,86.407,151.696z
		 M67.432,187.517c1.506,1.19,3.319,2.198,5.424,3.029c2.253,0.881,4.657,1.485,7.177,1.805c2.187,0.274,3.969,0.282,5.315,0.031
		c0.793-0.148,1.474-0.398,2.025-0.764c-0.1,0.297-0.211,0.612-0.328,0.897c-0.459,0.364-1.049,0.598-1.752,0.729
		c-2.977,0.554-6.321,0.218-10.065-1.02c-1.399-0.451-2.708-0.997-3.939-1.619c-1.059-0.53-1.828-1.006-2.321-1.409
		c-0.546-0.44-1.027-0.861-1.473-1.258C67.47,187.804,67.442,187.654,67.432,187.517z M70.108,182.189
		c1.326,1.053,2.744,1.687,4.293,1.94c0.085,0.294,0.213,0.564,0.368,0.814c-0.363,0.13-0.712,0.334-1.074,0.633
		c-0.456,0.379-0.705,0.704-0.729,0.987c0.008,0.045,0.055,0.129,0.104,0.228c0.062,0.081,0.175,0.107,0.339,0.076
		c0.284-0.053,0.705-0.286,1.29-0.72c0.241-0.2,0.458-0.364,0.618-0.502c0.206,0.194,0.443,0.382,0.718,0.532
		c-0.112,0.145-0.231,0.337-0.374,0.565c-0.484,0.725-0.718,1.217-0.68,1.504c0.022,0.12,0.153,0.157,0.407,0.11
		c0.329-0.061,0.674-0.451,1.054-1.156l0.302-0.706c0.312,0.096,0.669,0.185,1.101,0.259c-0.11,0.16-0.226,0.367-0.351,0.607
		c-0.325,0.664-0.513,1.148-0.55,1.449c0.017,0.09,0.061,0.159,0.099,0.198c0.059,0.066,0.172,0.092,0.336,0.061
		c0.344-0.064,0.68-0.421,1.017-1.103c0.202-0.409,0.333-0.789,0.397-1.111c0.629,0.053,1.375,0.069,2.211,0.068
		c2.089-0.002,3.502,0.106,4.252,0.307c1.356,0.382,2.145,1.21,2.387,2.512c0.02,0.105,0.017,0.26,0.003,0.433
		c-0.487,0.71-1.284,1.168-2.361,1.369c-2.977,0.554-6.321,0.217-10.065-1.02c-1.399-0.451-2.708-0.997-3.939-1.619
		c-1.059-0.53-1.828-1.006-2.321-1.409c-0.549-0.455-1.045-0.873-1.49-1.27c0.111-0.733,0.401-1.421,0.851-2.078
		C68.72,183.547,69.313,182.91,70.108,182.189z M48.954,116.649c0.029-0.176,0.058-0.351,0.072-0.524
		c0.636,0.671,1.266,1.312,1.914,1.965c0.526,0.831,1.067,1.658,1.593,2.489c0.498,0.759,0.965,1.523,1.405,2.308
		c0.505,0.881,0.994,1.765,1.499,2.646c5.026,7.73,1.823,5.2,3.165,8.682c0.08,0.264,0.175,0.525,0.315,0.777
		c-1.372,0.364-2.246,0.991-2.651,1.887c-0.204,0.487-0.255,1.038-0.141,1.651c0.206,1.107,0.678,1.979,1.406,2.648
		c1.189,1.063,2.922,1.391,5.225,0.962c2.498-0.465,7.756-2.304,5.286-8.352c-0.147-0.623-0.319-1.132-0.52-1.544
		c-0.299-0.61-0.825-1.27-1.553-1.94c-0.43-0.4-1.113-0.907-2.063-1.52c-0.036-0.024-0.071-0.049-0.089-0.061
		c0.045-0.008,0.09-0.017,0.135-0.025c-0.079-0.094-0.144-0.19-0.205-0.271c0.09-0.017,0.168-0.016,0.248,0
		c-0.047-0.084-0.091-0.153-0.149-0.22c0.068,0.034,0.139,0.083,0.21,0.131c0.329,0.186,0.676,0.385,1.007,0.586
		c3.509,2.055,7.148,3.807,10.936,5.284c3.756,1.467,7.601,2.748,11.51,3.877c3.874,1.105,7.821,1.855,11.809,2.242
		c4.03,0.364,7.996,0.136,11.923-0.72c1.577-0.34,3.085-0.807,4.522-1.399c0.012-0.018,0.027-0.02,0.042-0.023
		c-0.012,0.018-0.024,0.036-0.022,0.05c-0.132,0.288-0.525,0.67-1.185,1.118c-0.657,0.463-19.216,10.096-22.791,10.761
		c-6.014,1.12-11.667,1.012-16.971-0.29c-0.088-0.139-0.188-0.259-0.29-0.395c-1.252-1.655-1.901-2.479-1.916-2.476
		c-0.179,0.033-0.279,0.083-0.307,0.181c-0.019,0.065-0.009,0.203,0.03,0.412c0.033,0.179,0.659,1.131,1.908,2.848
		c0.732,1.024,2.102,2.89,4.074,5.587c3.962,5.484,6.046,8.78,6.252,9.886c0.176,0.943-0.386,2.332-1.672,4.15
		c-0.356,0.5-0.875,1.2-1.592,2.092c-0.638,0.815-1.048,1.356-1.227,1.637c-1.624,2.5-3.107,5.176-4.457,7.981
		c-0.282,0.563-0.522,1.103-0.75,1.625c-2.066-0.204-3.885-1.165-5.456-2.869c1.094-1.272,2.139-2.643,3.152-4.101
		c1.135-1.635,2.171-3.221,3.104-4.773c0.937-1.537,1.463-2.95,1.551-4.22c0.029-0.346-0.105-1.064-0.425-2.196
		c-0.304-1.135-1.096-2.396-2.391-3.78c-1.295-1.384-2.578-2.786-3.851-4.22c-1.27-1.42-2.576-2.864-3.924-4.284
		c-0.386-0.408-0.744-0.836-1.073-1.271c-1.065-1.396-2.251-2.692-3.563-3.84c-1.413-1.27-2.996-2.29-4.707-3.086
		c-1.741-0.79-3.4-1.719-4.977-2.788c-0.304-0.222-0.587-0.494-0.831-0.805c-0.901-1.179-1.534-2.5-1.899-3.964
		c-0.445-1.806-0.782-3.616-1.017-5.46c-0.224-1.785-0.293-3.567-0.224-5.36C48.358,126.248,48.855,117.364,48.954,116.649z
		 M57.627,127.896c0.241-0.37,0.465-0.659,0.671-0.883c0.642-0.708,1.456-1.154,2.429-1.335c0.149-0.028,0.284-0.053,0.422-0.063
		c0.47,0.779,0.991,1.58,1.526,2.378c0.018,0.012,0.021,0.027,0.021,0.027c-0.015,0.003-0.018-0.012-0.033-0.009
		c-0.012,0.018-0.037,0.053-0.064,0.074c-1.493,0.294-2.767,0.933-3.812,1.886c-0.093-0.168-0.187-0.337-0.28-0.505
		C58.225,128.946,57.924,128.413,57.627,127.896z M64.052,129.981c1.949,1.324,3.109,2.981,3.488,5.015
		c0.24,1.286,0.217,2.328-0.059,3.091c-0.589,1.657-2.215,2.734-4.863,3.227c-2.049,0.382-3.606,0.084-4.638-0.885
		c-0.596-0.539-0.954-1.215-1.099-1.993c-0.254-1.361,0.57-2.258,2.498-2.709c0.126,0.177,0.267,0.353,0.42,0.51
		c0.47,0.532,0.724,0.81,0.739,0.807c0.226,0.298,0.371,0.581,0.419,0.835c0.056,0.299-0.041,0.611-0.29,0.936
		c-0.249,0.325-0.365,0.532-0.351,0.607c0.025,0.135,0.039,0.209,0.054,0.206c0.027-0.021,0.042-0.023,0.063,0.004
		c0.023,0.042,0.059,0.067,0.094,0.091c0.036,0.024,0.143,0.02,0.307-0.011c0.494-0.092,0.788-0.425,0.899-0.988
		c-0.01-0.555-0.004-0.851-0.006-0.866c-0.098-0.524-0.521-1.219-1.238-2.076c-0.734-0.869-1.152-1.612-1.266-2.225
		c-0.086-0.464-0.099-0.864-0.005-1.191c0.035-0.146,0.145-0.383,0.341-0.744c0.22-0.397,0.34-0.915,0.318-1.53
		c0.729-0.492,1.585-0.883,2.564-1.112C63.102,129.368,63.629,129.704,64.052,129.981z M43.036,103.156
		c-0.564-1.195-0.875-2.453-0.917-3.761c-0.013-0.4,0.058-0.769,0.224-1.125c0.616-1.43,1.598-2.558,2.913-3.391
		c2.456-1.525,4.99-2.957,7.574-4.29c1.65-0.864,3.279-1.756,4.891-2.66c2.243-1.253,4.497-2.447,6.76-3.596
		c1.328-0.681,2.647-1.329,3.983-1.965c0.369-0.177,0.739-0.354,1.111-0.517c0.39-0.15,0.78-0.3,1.17-0.45
		c0.587-0.171,1.186-0.36,1.771-0.546c1.287-0.317,2.591-0.467,3.894-0.447c1.006-0.002,1.866,0.38,2.573,1.1l0.301-0.211
		c-0.113-0.691-0.57-1.148-1.357-1.388c-1.668-0.479-3.342-0.492-5.019-0.025c-3.193,0.889-6.224,2.15-9.128,3.759
		c-1.29,0.72-2.568,1.422-3.86,2.127c0.181-0.359,0.346-0.714,0.513-1.071c0.657-1.376,1.296-2.764,1.935-4.152
		c0.676-1.519,1.353-3.038,2.03-4.557c0.797-1.789,1.581-3.561,2.351-5.329c0.667-1.486,1.284-2.994,1.856-4.494
		c0.263-0.668,0.51-1.333,0.74-2.011c0.929,1.081,1.93,2.133,2.97,3.146c2.896,2.835,6.023,5.332,9.379,7.478
		c3.359,2.161,6.859,4.001,10.516,5.517c0.552,0.222,1.122,0.457,1.671,0.664c1.359,0.985,2.539,1.833,3.554,2.542
		c1.904,1.332,4.886,3.052,8.95,5.174c4.23,2.184,6.592,3.152,7.1,2.887c0.52-0.283,1.474-1.064,2.887-2.364
		c1.203-1.106,2.091-1.906,2.625-2.362c0.405,1.674,0.779,3.601,1.105,5.769c0.66,4.288,0.878,8.535,0.661,12.77
		c-0.203,4.232-0.792,8.382-1.78,12.466c-0.985,4.099-2.444,8.318-4.37,12.685c-1.53,3.505-3.193,6.291-5.005,8.362
		c-2.678,0.499-5.384,0.677-8.146,0.558c-0.576-0.017-1.157-0.063-1.724-0.113c0.431-0.513,0.857-1.135,1.266-1.846
		c0.455-0.797,0.83-1.609,1.125-2.438c0.251-0.728,0.365-1.198,0.329-1.392c-0.033-0.18-0.11-0.258-0.245-0.233
		c-0.09,0.017-0.238,0.385-0.435,1.072c-0.27,0.963-0.542,1.742-0.819,2.335c-0.449,0.996-1.039,1.818-1.74,2.46
		c-2.361-0.21-4.717-0.561-7.038-1.057c-3.565-0.775-7.059-1.75-10.508-2.903c-1.601-0.538-3.178-1.11-4.746-1.716
		c0.441-0.624,0.888-1.466,1.328-2.507c0.326-0.742,0.633-1.588,0.94-2.512c0.237-0.803,0.372-1.245,0.406-1.314l-0.064-0.344
		c-0.045,0.008-0.108,0.005-0.203-0.009c-0.03,0.006-0.175,0.389-0.451,1.152c-0.378,1.046-0.7,1.895-0.965,2.548
		c-0.517,1.211-0.993,2.151-1.458,2.81c-2.173-0.864-4.328-1.794-6.451-2.807c-0.831-0.387-1.652-0.807-2.473-1.227
		c0.204-0.317,0.418-0.666,0.632-1.093c0.703-1.292,1.024-2.064,0.977-2.318c-0.017-0.09-0.043-0.147-0.073-0.141
		c-0.018-0.012-0.08-0.016-0.185,0.004c-0.015,0.003-0.346,0.637-1.013,1.876c-0.315,0.554-0.584,1.022-0.836,1.409
		c-1.446-0.783-2.855-1.62-4.228-2.509c-0.611-0.954-1.175-1.902-1.69-2.842c-1.233-2.216-3.09-5.786-5.576-10.74
		c-1.852-3.71-3.194-6.509-4.025-8.398c0.569-1.932,1.236-3.837,2.018-5.7c0.404-0.988,0.841-1.967,1.281-2.932
		c0.929-0.498,1.932-1.01,3.013-1.521c3.496-1.673,6.743-2.773,9.705-3.324c2.573-0.479,4.368-0.566,5.399-0.263
		c0.325,0.079,0.582,0.217,0.786,0.395c0.188,0.182,0.313,0.267,0.36,0.274c0.123-0.085,0.208-0.132,0.247-0.17
		c0.046-0.086,0.071-0.199,0.038-0.379c-0.078-0.419-0.599-0.724-1.531-0.907c-0.982-0.204-2.146-0.219-3.524-0.056
		c-0.011-0.06-0.612,0.037-1.809,0.259c-3.022,0.563-6.184,1.616-9.467,3.187c-0.826,0.386-1.715,0.846-2.671,1.364
		c0.058-0.104,0.101-0.205,0.159-0.308c-0.34,0.172-0.676,0.358-1.001,0.527c-0.055,0.119-0.114,0.222-0.153,0.338
		c-0.713,0.411-1.453,0.843-2.232,1.313c-1.504,0.899-2.361,1.864-2.575,2.879c-0.083,0.387-0.079,0.819-0.002,1.316
		c0.05,0.269,0.128,0.688,0.258,1.221c0.259,1.391,1.759,4.873,4.496,10.43c2.197,4.482,4.173,8.277,5.922,11.434
		c0.146,0.283,0.324,0.574,0.487,0.869c-1.381,0.397-2.54,1.154-3.492,2.276c-1.23-2.201-2.457-4.387-3.712-6.552
		c-0.393-0.701-0.785-1.386-1.202-2.051c-0.184-0.322-0.382-0.641-0.581-0.96c-0.026-0.057-0.055-0.129-0.084-0.201
		c-0.038-0.039-0.079-0.094-0.118-0.133c-0.128-0.193-0.24-0.373-0.368-0.566c-0.196-0.304-0.395-0.623-0.591-0.927
		c-0.719-1.12-1.439-2.239-2.131-3.38c-0.76-1.252-1.536-2.515-2.341-3.759C44.968,106.882,43.945,105.045,43.036,103.156z
		 M50.316,100.856c-0.081-0.434-0.07-0.792,0.011-1.101c0.208-0.797,1.07-1.654,2.58-2.601c0.289-0.193,0.611-0.377,0.933-0.561
		c-0.19,0.391-0.363,0.795-0.538,1.184c-0.689,1.537-1.312,3.092-1.864,4.696c-0.133,0.365-0.251,0.728-0.37,1.09
		c-0.283-0.69-0.438-1.188-0.493-1.487C50.438,101.514,50.348,101.113,50.316,100.856z"/>
	<path fill="#010101" d="M120.676,14.34c-0.143-0.02-0.304-0.052-0.447-0.072c-0.211-0.054-0.407-0.11-0.618-0.163
		c-3.634-0.979-6.268-1.325-7.868-1.026c-0.599,0.111-0.787,0.348-0.565,0.709c0.086,0.464,0.289,0.968,0.589,1.5
		c0.543,0.92,0.846,1.467,0.924,1.639l-0.047,0.164c-0.05-0.022-0.362-0.118-0.891-0.298c-0.654-0.188-1.332-0.34-2.05-0.454
		c-2.252-0.37-4.58-0.323-7.003,0.128c-2.394,0.446-3.91,1.115-4.533,2.005c-0.21,0.287-0.321,0.602-0.325,0.912
		c0.014,0.075,0.03,0.242,0.083,0.526c0.078,0.419,0.352,0.894,0.823,1.426c0.574,0.589,0.98,1.025,1.239,1.332l0.019,0.105
		c-0.374,0.07-0.927,0.095-1.687,0.082c-1.152,0.215-1.839,0.931-2.052,2.115c-0.067,0.384-0.085,0.79-0.049,1.232
		c0.037,0.365,0.073,0.559,0.076,0.574c0.071,0.467,0.127,0.766,0.149,0.885c0.036,0.194,0.097,0.353,0.182,0.477
		c0.415,0.402,0.987,0.977,1.676,1.685l0.019,0.105c-1.835,0.203-3.087,1.457-3.759,3.749c-0.231,0.755-0.389,1.651-0.492,2.676
		c-0.036,0.471-0.071,0.864-0.093,1.163c-0.772-0.073-1.693-0.118-2.77-0.165c-0.071-0.714-0.172-1.423-0.303-2.126
		c-0.014-0.075-0.048-0.424-0.117-1.046c-0.078-0.666-0.219-1.259-0.404-1.751c-0.573-1.581-1.576-2.229-2.997-1.965
		c-1.646,0.307-2.782,1.849-3.443,4.619c-0.203,0.905-0.347,1.876-0.432,2.913c-0.055,0.784-0.056,1.28-0.02,1.474
		c0.159,0.853,0.338,1.485,0.536,1.881c0.187,0.337,0.392,0.608,0.631,0.811c-0.088,0.357-0.173,0.651-0.236,0.895
		c-0.91,2.925-2.667,4.629-5.27,5.114c-2.439,0.454-4.55,0.337-6.316-0.34c0.2-1.337,0.417-2.663,0.635-3.988
		c0.336-1.935,0.69-3.859,1.076-5.773c0.38-1.866,0.745-3.73,1.127-5.581c0.39-1.977,0.98-3.882,1.762-5.746
		c1.113-2.668,2.542-5.132,4.285-7.407c2.9-3.791,6.461-6.776,10.69-9.003c2.287-1.184,4.681-2.126,7.185-2.809
		c2.163-0.604,4.374-1.031,6.601-1.291c0.959-0.086,1.906-0.154,2.841-0.204c0.95-0.053,1.89-0.073,2.833-0.079
		c1.856-0.005,3.708,0.13,5.534,0.378c1.621,0.225,3.222,0.514,4.808,0.884c1.806,0.391,3.572,0.898,5.31,1.503
		c1.343,0.477,2.642,1.056,3.899,1.735c1.38,0.764,2.691,1.65,3.898,2.648c0.9,0.761,1.734,1.581,2.504,2.474
		c0.471,0.531,0.869,1.092,1.21,1.678l-0.012,0.018c-0.478-0.406-0.971-0.81-1.474-1.18c-1.371-1.045-3.21-2.111-5.538-3.225
		c-2.328-1.114-5.087-1.885-8.281-2.327l-0.509,0.172c-0.048-0.007-0.058,0.104-0.011,0.358c0.064,0.344,0.476,1.227,1.236,2.649
		c0.767,1.374,1.184,2.117,1.221,2.234l-0.031,0.083c-1.354-0.537-2.97-1.072-4.834-1.607
		C120.75,14.404,120.714,14.379,120.676,14.34z"/>
	<path fill="#FBD4A4" d="M139.077,17.32c-0.018-0.012-0.035-0.024-0.056-0.052l0.012-0.018
		C139.054,17.278,139.059,17.308,139.077,17.32z"/>
	<path fill="#FBD4A4" d="M100.05,22.763c-0.015,0.003-0.03,0.006-0.045,0.008l-0.019-0.105L100.05,22.763z"/>
	<path fill="#FBD4A4" d="M98.442,29.919c-0.048-0.007-0.093,0.002-0.123,0.007l-0.019-0.105L98.442,29.919z"/>
	<path fill="#FBD4A4" d="M125.685,16.053c-0.015,0.003-0.033-0.009-0.05-0.022l0.031-0.083L125.685,16.053z"/>
	<path fill="#FBD4A4" d="M123.156,81.253c0.987-0.184,1.61-0.331,1.868-0.441c0.213-0.101,0.293-0.256,0.257-0.45
		c-0.084-0.449-0.569-0.73-1.46-0.858c-0.619-0.086-1.69-0.103-3.225-0.034c-1.956,0.055-3.296,0.088-4.027,0.069
		c-1.584-0.03-2.883-0.19-3.912-0.479c-3.119-0.874-5.578-1.778-7.365-2.73c-2.279-1.185-4.021-2.641-5.237-4.349
		c-0.969-1.383-1.634-3.039-1.985-4.924c-0.148-0.793-0.206-1.772-0.173-2.924c0.057-1.853,0.385-3.585,0.97-5.18
		c1.784-4.883,5.655-7.863,11.624-8.975c2.124-0.396,4.216-0.383,6.278,0.053c1.515,0.321,3.188,0.908,4.99,1.779
		c1.865,0.953,3.208,1.6,4,1.948c1.344,0.57,2.434,0.769,3.317,0.605c0.06-0.011,0.15-0.105,0.287-0.286
		c0.179-0.204,0.235-0.4,0.207-0.549c-0.164-0.882-1.042-1.772-2.665-2.677c-0.797-0.455-1.592-0.818-2.373-1.106
		c-0.047-0.254-0.034-0.35,0.022-0.298l0.51-0.172c1.085,0.34,2.06,0.839,2.92,1.468c0.124,0.085,0.248,0.171,0.358,0.258
		c0.276-1.924,0.463-3.832,0.566-5.77c0.056-0.862,0.08-1.733,0.103-2.604c-0.647-0.235-1.381-0.687-2.232-1.349
		c-0.528-0.428-0.997-0.867-1.424-1.329c-0.403-0.42-0.611-0.707-0.636-0.841c-0.031-0.165-0.005-0.278,0.061-0.336
		c0.096-0.064,0.181-0.111,0.235-0.152c0.21,0.131,0.54,0.41,0.995,0.852c0.609,0.614,1.04,1.014,1.243,1.192
		c1.13,0.997,2.058,1.412,2.821,1.27c0.883-0.164,1.233-0.694,1.063-1.606c-0.064-0.344-0.912-2.322-2.578-5.943
		c-1.647-3.609-2.48-5.42-2.48-5.42c-0.042-0.224-0.052-0.362-0.036-0.442c0.043-0.101,0.137-0.18,0.301-0.211
		c0.12-0.022,0.812,1.366,2.091,4.161c-0.119-0.891-0.239-1.782-0.391-2.682c-0.109-0.583-0.217-1.167-0.356-1.745
		c-0.068-0.034-0.306-0.144,0,0c-0.022-0.12-0.161-0.697-0.175-0.772c-0.732-0.436-1.252-1.067-1.548-1.909
		c-0.32-0.885-0.323-1.735-0.011-2.552c-0.052-0.114-0.647-1.678-1.463-2.869c-1.232-1.798-2.385-3.58-3.902-5.077
		c-2.48-0.683-5.344-1.017-8.573-0.988l0.052,0.114c0.103,0.306,0.449,1.077,1.05,2.312c0.453,0.937,0.724,1.475,0.819,1.658
		c-0.023,0.128-0.125,0.24-0.294,0.333c-0.05-0.022-0.338-0.154-0.89-0.376c-0.668-0.263-1.387-0.469-2.161-0.635
		c-2.417-0.51-5.001-0.508-7.739,0.002c-1.915,0.357-3.18,0.794-3.784,1.293c-0.35,0.282-0.495,0.665-0.412,1.114
		c0.045,0.239,0.535,0.875,1.437,1.899c0.918,1.021,1.37,1.54,1.379,1.585c0.014,0.075-0.075,0.262-0.288,0.533
		c-1.455-0.085-2.326-0.108-2.61-0.056c-0.868,0.162-1.388,0.692-1.549,1.573c-0.089,0.435-0.081,0.897,0.011,1.391
		c0.156,0.838,0.757,1.655,1.83,2.43c0.127,0.1,0.482,0.344,1.079,0.728c0.334,0.216,0.502,0.371,0.519,0.461
		c0.028,0.15,0.045,0.239,0.02,0.275c-0.012,0.018-0.054,0.041-0.109,0.082c-1.429-0.276-2.548-0.052-3.345,0.654
		c-0.8,0.691-1.321,1.546-1.57,2.537c-0.211,0.86-0.425,2.122-0.636,3.818c0.03-0.006,0.063,0.004,0.095,0.013
		c-0.033,0.238-0.076,0.509-0.118,0.78c-1.145-0.081-2.633-0.175-4.482-0.295l-0.003-0.015c0.003,0.015-0.012,0.018-0.024,0.035
		c-0.032-0.923-0.077-1.827-0.14-2.744c0,0-0.03-0.242-0.059-0.732c-0.073-0.559-0.201-1.077-0.359-1.512
		c-0.545-1.431-1.459-2.019-2.776-1.774c-1.287,0.24-2.21,2.842-2.754,7.819c0.065,0.514,0.214,0.982,0.423,1.438
		c0.394,0.871,0.929,1.251,1.617,1.123c0.494-0.092,0.958-0.426,1.395-0.987c0.36-0.562,0.569-0.849,0.644-0.863
		c0.15-0.028,0.245-0.015,0.313,0.019l0.089,0.061l0.125,0.673c-0.024,0.035-0.264,0.328-0.713,0.907
		c-0.56,0.568-1.131,0.907-1.715,1.016c-0.419,0.078-0.792,0.07-1.124-0.054c-0.312,1.064-0.61,1.878-0.883,2.486
		c-1.026,2.219-2.712,3.554-5.076,3.995c-2.498,0.465-4.69,0.332-6.578-0.416c-0.059,0.351-0.102,0.7-0.16,1.051
		c-0.276,1.924-0.582,3.854-0.921,5.775c-0.029,0.176-0.058,0.351-0.105,0.515c-0.299,1.634-0.679,3.253-1.139,4.855
		c-0.229,0.848-0.491,1.686-0.77,2.512c2.313,2.696,4.874,5.144,7.671,7.363c2.82,2.261,5.823,4.255,8.999,6.016
		c2.468,1.367,5.01,2.549,7.629,3.563c0.176,0.029,0.354,0.073,0.533,0.118c0.071,0.049,0.127,0.1,0.183,0.152
		c1.144,0.406,2.3,0.795,3.465,1.15c4.962,1.46,9.967,2.74,15.042,3.808c2.178,0.476,4.381,0.67,6.594,0.583
		c1.198-0.053,2.31-0.229,3.377-0.567c0.12-1.601,0.209-2.701,0.253-3.297c0.012-0.018,0.007-0.048,0.016-0.08l-0.11-0.01
		c-1.227,0.228-2.227,0.26-2.998,0.11c-0.372-0.086-0.639-0.191-0.799-0.3c0.045-0.008,0.09-0.017,0.119-0.022
		c0.434-0.081,0.757-0.172,0.986-0.277C120.829,81.64,121.69,81.526,123.156,81.253z M118.807,28.819
		c-1.334,0.481-2.647,0.416-3.937-0.195c-0.795-0.363-1.43-0.863-1.923-1.515c-0.308-0.407-0.549-0.873-0.739-1.395
		c-0.484-1.349-0.419-2.661,0.177-3.949c0.611-1.29,1.59-2.185,2.924-2.665c1.35-0.483,2.662-0.418,3.952,0.193
		c1.287,0.596,2.167,1.578,2.65,2.927c0.187,0.507,0.3,1.028,0.32,1.55c0.04,0.797-0.135,1.604-0.5,2.384
		C121.12,27.444,120.156,28.336,118.807,28.819z M88.309,37.177c0.015,0.663-0.283,1.059-0.851,1.165
		c-0.808,0.15-1.289-0.271-1.473-1.258c-0.022-0.12-0.006-0.2,0.03-0.253c0.066-0.059,0.5-0.387,1.29-0.968
		c-0.001-0.17-0.131-0.455-0.425-0.865c-0.326-0.419-0.486-0.699-0.508-0.819c-0.031-0.165-0.02-0.275,0.061-0.336
		c0.096-0.064,0.166-0.108,0.235-0.152c0.591,0.432,0.974,0.825,1.154,1.209c0.078,0.171,0.186,0.584,0.314,1.273
		C88.246,36.508,88.308,36.837,88.309,37.177z M94.723,39.868c-1.16-0.078-2.648-0.172-4.437-0.303
		c-0.006-0.03,0.004-0.063-0.002-0.093c0.015-0.25,0.021-0.468,0.027-0.686c1.871,0.069,3.358,0.164,4.446,0.271
		C94.742,39.307,94.732,39.587,94.723,39.868z M94.751,41.348c-1.208-0.085-2.71-0.176-4.514-0.305
		c0.003-0.233,0.015-0.498,0.028-0.764c1.853,0.057,3.338,0.137,4.456,0.238C94.725,40.796,94.73,41.073,94.751,41.348z
		 M90.202,42.521c0.006-0.218,0.006-0.466,0.013-0.761c1.885,0.067,3.415,0.138,4.581,0.246c0.017,0.26,0.041,0.55,0.061,0.825
		C93.619,42.751,92.066,42.638,90.202,42.521z M99.664,73.045c0.179,0.214,0.373,0.426,0.553,0.64l-0.004,0.31l-0.266,0.235
		c-3.41-3.265-4.732-7.291-3.995-12.056l0.75-0.295C96.056,66.055,97.042,69.772,99.664,73.045z"/>
	<path d="M90.264,40.28c1.853,0.057,3.338,0.137,4.456,0.238c0.005,0.277,0.01,0.555,0.031,0.83
		c-1.208-0.085-2.71-0.176-4.514-0.305C90.24,40.811,90.252,40.546,90.264,40.28z"/>
	<path d="M90.215,41.76c1.885,0.067,3.415,0.138,4.581,0.246c0.017,0.26,0.041,0.55,0.061,0.825
		c-1.238-0.079-2.791-0.192-4.654-0.309C90.208,42.303,90.208,42.055,90.215,41.76z"/>
	<path d="M90.284,39.471c0.015-0.25,0.021-0.468,0.027-0.686c1.871,0.069,3.358,0.164,4.446,0.271
		c-0.015,0.251-0.025,0.531-0.034,0.811c-1.16-0.078-2.648-0.172-4.437-0.303C90.28,39.534,90.29,39.501,90.284,39.471z"/>
	<path d="M88.309,37.177c-0.001-0.34-0.063-0.669-0.172-1.005c-0.128-0.688-0.236-1.101-0.314-1.273
		c-0.18-0.384-0.563-0.777-1.154-1.209c-0.069,0.044-0.138,0.088-0.235,0.152c-0.081,0.062-0.092,0.172-0.061,0.336
		c0.022,0.12,0.183,0.399,0.508,0.819c0.293,0.41,0.424,0.695,0.425,0.865c-0.79,0.581-1.224,0.909-1.29,0.968
		c-0.037,0.053-0.053,0.134-0.03,0.253c0.184,0.987,0.665,1.408,1.473,1.258C88.026,38.236,88.324,37.84,88.309,37.177z
		 M87.509,36.955c0.031,0.164,0.005,0.278-0.038,0.378c-0.039,0.038-0.076,0.092-0.142,0.15c-0.276-0.15-0.43-0.229-0.468-0.269
		c-0.059-0.066-0.111-0.181-0.145-0.36l-0.006-0.03c0.251-0.062,0.431-0.096,0.523-0.097C87.387,36.714,87.481,36.805,87.509,36.955
		z"/>
	<path fill="#FBD4A4" d="M87.329,37.483c-0.276-0.15-0.43-0.229-0.468-0.269c-0.059-0.066-0.111-0.181-0.145-0.36l-0.006-0.03
		c0.251-0.062,0.431-0.096,0.523-0.097c0.153-0.013,0.247,0.078,0.275,0.228c0.031,0.164,0.005,0.278-0.038,0.378
		C87.432,37.372,87.395,37.425,87.329,37.483z"/>
	<path d="M118.807,28.819c1.349-0.484,2.313-1.375,2.924-2.665c0.366-0.78,0.54-1.586,0.5-2.384c-0.02-0.523-0.132-1.043-0.32-1.55
		c-0.484-1.349-1.363-2.331-2.65-2.927c-1.29-0.611-2.602-0.676-3.952-0.193c-1.334,0.481-2.313,1.375-2.924,2.665
		c-0.596,1.287-0.661,2.6-0.177,3.949c0.19,0.522,0.431,0.988,0.739,1.395c0.493,0.651,1.128,1.152,1.923,1.515
		C116.16,29.235,117.472,29.3,118.807,28.819z M121.77,23.624c-0.704-0.457-1.512-0.972-2.457-1.555
		c-1.154-0.714-2.498-1.531-4.035-2.468c0.074-0.014,0.132-0.04,0.189-0.066c1.218-0.443,2.42-0.389,3.606,0.164
		c1.171,0.556,1.986,1.441,2.415,2.661C121.644,22.78,121.737,23.197,121.77,23.624z M118.648,28.384
		c-0.522,0.19-1.06,0.29-1.586,0.295c-0.68,0.003-1.344-0.152-2.005-0.462c-0.676-0.308-1.22-0.732-1.66-1.27
		c-0.323-0.404-0.579-0.867-0.77-1.389c-0.431-1.235-0.374-2.422,0.167-3.591c0.464-1,1.166-1.718,2.115-2.189
		c1.074,0.698,2.282,1.448,3.613,2.283c1.246,0.789,2.332,1.469,3.262,2.055c-0.023,0.623-0.172,1.239-0.46,1.85
		C120.769,27.138,119.881,27.938,118.648,28.384z"/>
	<path fill="#FDD17A" d="M115.279,19.601c0.074-0.014,0.132-0.04,0.189-0.066c1.218-0.443,2.42-0.389,3.606,0.164
		c1.171,0.556,1.986,1.441,2.415,2.661c0.156,0.42,0.249,0.836,0.282,1.263c-0.704-0.457-1.512-0.972-2.457-1.555
		C118.16,21.356,116.815,20.538,115.279,19.601z"/>
	<path fill="#FFFFFF" d="M118.648,28.384c1.233-0.446,2.121-1.246,2.676-2.418c0.289-0.611,0.437-1.227,0.46-1.85
		c-0.929-0.585-2.015-1.265-3.262-2.055c-1.332-0.835-2.54-1.585-3.613-2.283c-0.95,0.471-1.651,1.19-2.115,2.189
		c-0.541,1.169-0.598,2.356-0.167,3.591c0.19,0.522,0.447,0.985,0.77,1.389c0.441,0.537,0.984,0.962,1.66,1.27
		c0.662,0.31,1.325,0.465,2.005,0.462C117.588,28.675,118.127,28.574,118.648,28.384z"/>
	<path d="M115.327,24.75c0.061,0.159,0.179,0.214,0.338,0.154c0.102-0.034,0.165-0.108,0.179-0.203
		c0.022-0.051,0.013-0.095-0.013-0.153c-0.061-0.159-0.179-0.214-0.353-0.151c0,0,0,0-0.015,0.003
		c0.069-0.044,0.154-0.091,0.24-0.122c0.42-0.156,0.693-0.021,0.845,0.384c0.037,0.117,0.042,0.224,0.034,0.35
		c-0.035,0.223-0.175,0.389-0.436,0.484c-0.189,0.066-0.377,0.055-0.534-0.04c-0.139-0.083-0.239-0.203-0.294-0.332
		c-0.054-0.207-0.052-0.362,0.001-0.496C115.325,24.657,115.318,24.705,115.327,24.75z"/>
	<path d="M100.212,73.995l-0.266,0.235c-3.41-3.265-4.732-7.291-3.995-12.056l0.75-0.295c-0.646,4.176,0.34,7.892,2.962,11.165
		c0.179,0.214,0.373,0.426,0.553,0.64L100.212,73.995z"/>
	<path fill="#1DB1BF" d="M43.036,103.156c0.909,1.889,1.932,3.726,3.066,5.496c0.804,1.243,1.581,2.507,2.341,3.759
		c0.692,1.14,1.412,2.26,2.131,3.38c0.196,0.304,0.395,0.623,0.591,0.927c0.129,0.193,0.24,0.373,0.368,0.566
		c0.038,0.039,0.079,0.094,0.118,0.133c0.029,0.072,0.058,0.144,0.084,0.201c0.199,0.319,0.397,0.638,0.581,0.96
		c0.418,0.665,0.809,1.351,1.202,2.051c1.255,2.165,2.482,4.351,3.712,6.552c0.952-1.121,2.111-1.879,3.492-2.276
		c-0.163-0.295-0.341-0.586-0.487-0.869c-1.749-3.157-3.725-6.952-5.922-11.434c-2.738-5.557-4.237-9.039-4.496-10.43
		c-0.13-0.533-0.208-0.952-0.258-1.221c-0.077-0.497-0.08-0.929,0.002-1.316c0.213-1.015,1.071-1.979,2.575-2.879
		c0.779-0.47,1.519-0.902,2.232-1.313c0.04-0.116,0.098-0.219,0.153-0.338c0.325-0.169,0.661-0.355,1.001-0.527
		c-0.058,0.104-0.101,0.205-0.159,0.308c0.956-0.519,1.845-0.978,2.671-1.364c3.283-1.571,6.445-2.624,9.467-3.187
		c1.197-0.223,1.798-0.319,1.809-0.259c1.378-0.164,2.542-0.148,3.524,0.056c0.932,0.182,1.453,0.488,1.531,0.907
		c0.033,0.18,0.008,0.293-0.038,0.379c-0.039,0.038-0.124,0.085-0.247,0.17c-0.048-0.007-0.172-0.092-0.36-0.274
		c-0.204-0.179-0.461-0.316-0.786-0.395c-1.031-0.303-2.826-0.216-5.399,0.263c-2.962,0.552-6.209,1.652-9.705,3.324
		c-1.081,0.511-2.085,1.023-3.013,1.521c-0.44,0.964-0.876,1.943-1.281,2.932c-0.783,1.864-1.449,3.768-2.018,5.7
		c0.832,1.888,2.173,4.687,4.025,8.398c2.486,4.954,4.343,8.524,5.576,10.74c0.516,0.941,1.079,1.888,1.69,2.842
		c1.373,0.89,2.782,1.726,4.228,2.509c0.253-0.388,0.522-0.856,0.836-1.409c0.667-1.239,0.998-1.873,1.013-1.876
		c0.104-0.019,0.167-0.016,0.185-0.004c0.03-0.006,0.056,0.052,0.073,0.141c0.047,0.254-0.273,1.026-0.977,2.318
		c-0.215,0.427-0.428,0.776-0.632,1.093c0.821,0.42,1.642,0.839,2.473,1.227c2.123,1.013,4.278,1.943,6.451,2.807
		c0.465-0.659,0.94-1.599,1.458-2.81c0.265-0.653,0.587-1.502,0.965-2.548c0.276-0.763,0.421-1.146,0.451-1.152
		c0.095,0.013,0.158,0.017,0.203,0.009l0.064,0.344c-0.034,0.068-0.168,0.511-0.406,1.314c-0.307,0.924-0.614,1.771-0.94,2.512
		c-0.44,1.042-0.888,1.883-1.328,2.507c1.568,0.606,3.145,1.179,4.746,1.716c3.45,1.153,6.943,2.128,10.508,2.903
		c2.322,0.496,4.678,0.847,7.038,1.057c0.701-0.641,1.291-1.463,1.74-2.46c0.276-0.593,0.549-1.372,0.819-2.335
		c0.197-0.687,0.345-1.055,0.435-1.072c0.135-0.025,0.211,0.054,0.245,0.233c0.036,0.194-0.078,0.664-0.329,1.392
		c-0.295,0.829-0.669,1.641-1.125,2.438c-0.409,0.711-0.835,1.332-1.266,1.846c0.567,0.049,1.148,0.096,1.724,0.113
		c2.762,0.12,5.468-0.059,8.146-0.558c1.812-2.071,3.475-4.857,5.005-8.362c1.926-4.367,3.385-8.586,4.37-12.685
		c0.988-4.085,1.577-8.234,1.78-12.466c0.217-4.235-0.001-8.482-0.661-12.77c-0.326-2.168-0.701-4.095-1.105-5.769
		c-0.534,0.455-1.422,1.255-2.625,2.362c-1.414,1.3-2.367,2.082-2.887,2.364c-0.508,0.265-2.871-0.704-7.1-2.887
		c-4.064-2.122-7.046-3.842-8.95-5.174c-1.014-0.709-2.194-1.557-3.554-2.542c-0.549-0.207-1.119-0.441-1.671-0.664
		c-3.657-1.517-7.157-3.357-10.516-5.517c-3.356-2.146-6.483-4.643-9.379-7.478c-1.04-1.014-2.041-2.065-2.97-3.146
		c-0.23,0.677-0.477,1.343-0.74,2.011c-0.572,1.5-1.189,3.008-1.856,4.494c-0.769,1.768-1.554,3.54-2.351,5.329
		c-0.676,1.519-1.353,3.038-2.03,4.557c-0.639,1.388-1.279,2.776-1.935,4.152c-0.166,0.356-0.332,0.712-0.513,1.071
		c1.293-0.705,2.57-1.407,3.86-2.127c2.904-1.609,5.935-2.87,9.128-3.759c1.678-0.467,3.351-0.454,5.019,0.025
		c0.788,0.24,1.244,0.697,1.357,1.388l-0.301,0.211c-0.707-0.72-1.567-1.101-2.573-1.1c-1.304-0.02-2.607,0.13-3.894,0.447
		c-0.585,0.186-1.184,0.375-1.771,0.546c-0.39,0.15-0.78,0.3-1.17,0.45c-0.372,0.162-0.742,0.339-1.111,0.517
		c-1.336,0.636-2.655,1.284-3.983,1.965c-2.262,1.149-4.516,2.343-6.76,3.596c-1.611,0.904-3.241,1.795-4.891,2.66
		c-2.584,1.333-5.119,2.764-7.574,4.29c-1.315,0.833-2.297,1.96-2.913,3.391c-0.166,0.356-0.236,0.725-0.224,1.125
		C42.161,100.703,42.473,101.961,43.036,103.156z M118.163,94.085c-0.419,0.078-0.779-0.025-1.091-0.292
		c-0.26-0.23-0.397-0.468-0.447-0.737c-0.042-0.224-0.009-0.463,0.054-0.706c0.156-0.493,0.488-0.788,0.997-0.882
		c0.419-0.078,0.794,0.022,1.094,0.307c0.257,0.215,0.415,0.48,0.47,0.779c0.014,0.075,0.013,0.152,0.027,0.227
		c0.001,0.17-0.016,0.328-0.066,0.477C119.066,93.7,118.731,93.979,118.163,94.085z M117.175,108.478
		c-0.239-0.203-0.379-0.456-0.432-0.74c-0.045-0.239-0.029-0.49,0.037-0.719c0.143-0.476,0.476-0.77,0.999-0.867
		c0.434-0.081,0.796,0.037,1.109,0.304c0.242,0.218,0.399,0.483,0.455,0.782c0.014,0.075,0.013,0.152,0.027,0.227
		c0.001,0.17-0.016,0.328-0.051,0.474c-0.132,0.458-0.484,0.725-1.053,0.83C117.848,108.848,117.476,108.762,117.175,108.478z
		 M113.772,122.531c-0.027-0.227-0.009-0.463,0.054-0.707c0.156-0.493,0.488-0.787,1.012-0.885c0.418-0.078,0.781,0.04,1.094,0.307
		c0.242,0.218,0.399,0.483,0.455,0.782c0.014,0.075,0.028,0.15,0.027,0.227c0.016,0.167-0.001,0.325-0.051,0.474
		c-0.134,0.443-0.484,0.725-1.038,0.828c-0.434,0.081-0.791-0.007-1.107-0.289C113.977,123.05,113.825,122.815,113.772,122.531z
		 M108.382,135.143c-0.027-0.227-0.009-0.462,0.054-0.707c0.156-0.493,0.488-0.787,1.012-0.885c0.418-0.078,0.779,0.025,1.094,0.307
		c0.242,0.218,0.399,0.483,0.455,0.782c0.014,0.074,0.028,0.149,0.027,0.227c0.016,0.167-0.016,0.328-0.051,0.473
		c-0.149,0.446-0.484,0.725-1.038,0.828c-0.434,0.081-0.791-0.008-1.107-0.289C108.587,135.662,108.435,135.427,108.382,135.143z
		 M88.098,114.157c-1.231-1.706-2.106-3.911-2.604-6.588c-0.276-1.481-0.243-3.298,0.081-5.463c0.225-1.45,0.653-3.31,1.265-5.591
		c0.332-1.207,0.615-2.266,0.878-3.182c-0.018-0.012-0.036-0.024-0.038-0.039c0.036-0.223,0.057-0.444,0.048-0.659
		c0.023-0.128,0.03-0.253,0.041-0.364c0.013-0.095,0.029-0.176,0.045-0.256c1.401,1.287,2.701,2.205,3.885,2.743
		c2.13,0.965,4.423,1.808,6.905,2.506c4.183,1.186,7.578,1.545,10.216,1.084c0,0,0.003,0.015-0.012,0.018
		c-0.016,0.08-0.047,0.163-0.06,0.259l0.098,0.028c-0.207,0.967-0.494,2.166-0.865,3.582c-0.699,2.73-1.268,4.91-1.674,6.549
		c-0.422,1.642-0.821,2.908-1.181,3.795c-1.264,3.021-3.316,4.797-6.174,5.329C94.178,118.798,90.572,117.55,88.098,114.157z
		 M89.108,137.448c0.113-0.145,0.207-0.302,0.299-0.474c0.199-0.346,0.429-0.854,0.721-1.527c0.257-0.698,0.477-1.265,0.643-1.699
		c0.312-0.817,0.53-1.229,0.664-1.254c0.09-0.017,0.152-0.013,0.17-0.001c0.021,0.027,0.044,0.069,0.063,0.174
		c0.014,0.075-0.095,0.405-0.312,0.987c-0.25,0.65-0.531,1.306-0.864,1.925c-0.417,0.836-0.823,1.485-1.211,1.975
		C89.227,137.504,89.174,137.467,89.108,137.448z"/>
	<path d="M88.098,114.157c2.474,3.393,6.081,4.641,10.852,3.752c2.857-0.532,4.91-2.308,6.174-5.329
		c0.361-0.887,0.76-2.153,1.181-3.795c0.407-1.639,0.975-3.819,1.674-6.549c0.371-1.416,0.658-2.615,0.865-3.582
		c-0.03,0.006-0.075,0.014-0.119,0.022c0.012-0.018,0.009-0.033,0.022-0.051c0.013-0.095,0.044-0.178,0.06-0.259
		c0.015-0.003,0.012-0.018,0.012-0.018c-2.638,0.46-6.033,0.102-10.216-1.084c-2.483-0.698-4.775-1.541-6.905-2.506
		c-1.184-0.538-2.485-1.456-3.885-2.743c-0.016,0.08-0.032,0.161-0.045,0.256c-0.01,0.11-0.018,0.236-0.041,0.364
		c0.009,0.215-0.012,0.436-0.048,0.659c0.003,0.015,0.021,0.027,0.038,0.039c-0.263,0.916-0.545,1.974-0.878,3.182
		c-0.612,2.281-1.04,4.14-1.265,5.591c-0.324,2.165-0.357,3.982-0.081,5.463C85.992,110.246,86.867,112.451,88.098,114.157z
		 M107.009,103.174c-2.653,0.463-5.45,0.319-8.4-0.478c-1.71-0.455-4.093-1.281-7.178-2.471c-1.287-0.426-2.661-1.238-4.113-2.391
		c0.113-0.47,0.23-0.925,0.367-1.353c0.173-0.651,0.447-1.507,0.804-2.58c1.041,0.688,2.265,1.358,3.68,1.977
		c2.291,0.997,4.53,1.803,6.716,2.402c3.411,0.944,6.354,1.293,8.85,1.06c-0.091,0.512-0.181,1.024-0.286,1.539
		C107.29,101.775,107.152,102.528,107.009,103.174z M88.608,113.489c-1.131-1.585-1.91-3.606-2.367-6.06
		c-0.215-1.152-0.127-3.01,0.28-5.562c0.182-1.102,0.375-2.144,0.594-3.129c1.299,0.826,2.772,1.589,4.398,2.338
		c2.7,1.2,5.356,2.082,7.979,2.616c2.75,0.556,5.202,0.672,7.34,0.351c-0.12,0.518-0.206,0.889-0.296,1.154
		c-1.083,3.406-1.669,5.248-1.762,5.498c-0.516,1.551-0.997,2.709-1.443,3.473c-0.489,0.865-1.079,1.517-1.772,1.955
		c-0.68,0.421-1.595,0.746-2.747,0.961C94.294,117.925,90.896,116.716,88.608,113.489z"/>
	<path fill="#0B6B73" d="M91.431,100.225c-1.287-0.426-2.661-1.238-4.113-2.391c0.113-0.47,0.23-0.925,0.367-1.353
		c0.173-0.651,0.447-1.507,0.804-2.58c1.041,0.688,2.265,1.358,3.68,1.977c2.291,0.997,4.53,1.803,6.716,2.402
		c3.411,0.944,6.354,1.293,8.85,1.06c-0.091,0.512-0.181,1.024-0.286,1.539c-0.158,0.896-0.296,1.649-0.439,2.295
		c-2.653,0.463-5.45,0.319-8.4-0.478C96.898,102.24,94.516,101.415,91.431,100.225z"/>
	<path fill="#1DB1BF" d="M86.521,101.867c0.182-1.102,0.375-2.144,0.594-3.129c1.299,0.826,2.772,1.589,4.398,2.338
		c2.7,1.2,5.356,2.082,7.979,2.616c2.75,0.556,5.202,0.672,7.34,0.351c-0.12,0.518-0.206,0.889-0.296,1.154
		c-1.083,3.406-1.669,5.248-1.762,5.498c-0.516,1.551-0.997,2.709-1.443,3.473c-0.489,0.865-1.079,1.517-1.772,1.955
		c-0.68,0.421-1.595,0.746-2.747,0.961c-4.518,0.841-7.916-0.367-10.204-3.594c-1.131-1.585-1.91-3.606-2.367-6.06
		C86.026,106.277,86.114,104.419,86.521,101.867z"/>
	<path d="M118.163,94.085c0.569-0.106,0.904-0.385,1.038-0.828c0.05-0.149,0.067-0.307,0.066-0.477
		c-0.014-0.075-0.013-0.152-0.027-0.227c-0.056-0.299-0.214-0.564-0.47-0.779c-0.301-0.285-0.675-0.385-1.094-0.307
		c-0.509,0.095-0.841,0.389-0.997,0.882c-0.063,0.244-0.096,0.482-0.054,0.706c0.05,0.269,0.187,0.507,0.447,0.737
		C117.384,94.06,117.744,94.163,118.163,94.085z M118.392,93.655c-0.269,0.05-0.51,0.002-0.729-0.174
		c-0.213-0.146-0.327-0.342-0.368-0.566c-0.075-0.651,0.181-1.024,0.749-1.13c0.27-0.05,0.513,0.013,0.729,0.174
		c0.216,0.161,0.342,0.339,0.384,0.563c0.036,0.194,0.025,0.382-0.025,0.531C119.052,93.378,118.796,93.58,118.392,93.655z"/>
	<path fill="#1DB1BF" d="M117.663,93.482c-0.213-0.146-0.327-0.342-0.368-0.566c-0.075-0.651,0.181-1.024,0.749-1.13
		c0.27-0.05,0.513,0.013,0.729,0.174c0.216,0.161,0.342,0.339,0.384,0.563c0.036,0.194,0.025,0.382-0.025,0.531
		c-0.079,0.324-0.335,0.527-0.739,0.602C118.123,93.706,117.882,93.658,117.663,93.482z"/>
	<path d="M117.175,108.478c0.3,0.285,0.672,0.37,1.091,0.292c0.568-0.106,0.921-0.373,1.053-0.83
		c0.035-0.146,0.051-0.304,0.051-0.474c-0.014-0.075-0.013-0.152-0.027-0.227c-0.056-0.299-0.213-0.564-0.455-0.782
		c-0.313-0.267-0.675-0.385-1.109-0.304c-0.524,0.098-0.856,0.392-0.999,0.867c-0.066,0.229-0.081,0.479-0.037,0.719
		C116.796,108.022,116.936,108.275,117.175,108.478z M117.249,107.628c-0.072-0.637,0.181-1.024,0.749-1.13
		c0.27-0.05,0.513,0.013,0.729,0.174c0.216,0.161,0.344,0.354,0.386,0.578c0.117,0.628-0.139,1.001-0.767,1.118
		c-0.269,0.05-0.51,0.002-0.729-0.174C117.405,108.048,117.291,107.853,117.249,107.628z"/>
	<path fill="#1DB1BF" d="M117.998,106.498c0.27-0.05,0.513,0.013,0.729,0.174c0.216,0.161,0.344,0.354,0.386,0.578
		c0.117,0.628-0.139,1.001-0.767,1.118c-0.269,0.05-0.51,0.002-0.729-0.174c-0.213-0.146-0.327-0.342-0.368-0.566
		C117.177,106.992,117.43,106.604,117.998,106.498z"/>
	<path d="M113.826,121.824c-0.063,0.244-0.081,0.48-0.054,0.707c0.053,0.284,0.205,0.519,0.447,0.737
		c0.316,0.282,0.673,0.37,1.107,0.289c0.553-0.103,0.903-0.385,1.038-0.828c0.049-0.148,0.067-0.306,0.051-0.474
		c0.001-0.078-0.013-0.152-0.027-0.227c-0.056-0.299-0.213-0.564-0.455-0.782c-0.313-0.267-0.676-0.385-1.094-0.307
		C114.314,121.037,113.982,121.331,113.826,121.824z M114.47,122.54c-0.057-0.639,0.196-1.027,0.764-1.133
		c0.254-0.047,0.498,0.015,0.714,0.177c0.216,0.161,0.344,0.354,0.386,0.578c0.117,0.628-0.139,1.001-0.752,1.115
		c-0.269,0.05-0.511,0.002-0.729-0.174C114.641,122.957,114.512,122.765,114.47,122.54z"/>
	<path fill="#1DB1BF" d="M115.234,121.407c0.254-0.047,0.498,0.015,0.714,0.177c0.216,0.161,0.344,0.354,0.386,0.578
		c0.117,0.628-0.139,1.001-0.752,1.115c-0.269,0.05-0.511,0.002-0.729-0.174c-0.213-0.146-0.342-0.339-0.384-0.563
		C114.413,121.901,114.666,121.513,115.234,121.407z"/>
	<path d="M108.436,134.437c-0.063,0.244-0.081,0.48-0.054,0.707c0.053,0.284,0.205,0.519,0.447,0.737
		c0.316,0.282,0.673,0.37,1.107,0.289c0.553-0.103,0.888-0.382,1.038-0.828c0.035-0.145,0.067-0.306,0.051-0.473
		c0.001-0.078-0.013-0.153-0.027-0.227c-0.056-0.299-0.213-0.564-0.455-0.782c-0.316-0.282-0.676-0.385-1.094-0.307
		C108.924,133.649,108.592,133.943,108.436,134.437z M109.08,135.153c-0.06-0.654,0.181-1.024,0.764-1.133
		c0.254-0.047,0.498,0.015,0.714,0.176c0.216,0.161,0.344,0.354,0.383,0.563c0.12,0.643-0.136,1.016-0.749,1.13
		c-0.269,0.05-0.511,0.002-0.744-0.171C109.251,135.569,109.122,135.377,109.08,135.153z"/>
	<path fill="#1DB1BF" d="M109.845,134.02c0.254-0.047,0.498,0.015,0.714,0.176c0.216,0.161,0.344,0.354,0.383,0.563
		c0.12,0.643-0.136,1.016-0.749,1.13c-0.269,0.05-0.511,0.002-0.744-0.171c-0.198-0.149-0.327-0.341-0.369-0.566
		C109.02,134.498,109.261,134.128,109.845,134.02z"/>
	<path d="M89.407,136.975c0.199-0.346,0.429-0.854,0.721-1.527c0.257-0.698,0.477-1.265,0.643-1.699
		c0.312-0.817,0.53-1.229,0.664-1.254c0.09-0.017,0.152-0.013,0.17-0.001c0.021,0.027,0.044,0.069,0.063,0.174
		c0.014,0.075-0.095,0.405-0.312,0.987c-0.25,0.65-0.531,1.306-0.864,1.925c-0.417,0.836-0.823,1.485-1.211,1.975
		c-0.056-0.051-0.109-0.088-0.175-0.107C89.221,137.304,89.315,137.147,89.407,136.975z"/>
	<path fill="#FFFFFF" d="M128.036,27.1c0.104,0.058,0.22,0.098,0.321,0.141c0.647,0.235,1.28,0.226,1.919-0.001
		c0.756-0.265,1.294-0.783,1.635-1.527c0.024-0.036,0.034-0.068,0.058-0.104c0.33-0.804,0.344-1.643,0.033-2.483
		c-0.299-0.858-0.828-1.456-1.591-1.809c-0.101-0.043-0.202-0.086-0.303-0.129c-0.711,0.504-1.548,1.078-2.527,1.724
		c-0.165,0.108-0.316,0.214-0.454,0.301c-0.274,0.19-0.539,0.348-0.789,0.503c-0.081,0.062-0.165,0.108-0.235,0.152
		c-0.015,0.42,0.051,0.857,0.21,1.292c0.225,0.624,0.564,1.118,1.022,1.497c0.183,0.152,0.393,0.283,0.601,0.399
		C127.971,27.081,128.004,27.091,128.036,27.1z"/>
	<path d="M127.133,24.809c0.043,0.147,0.144,0.19,0.291,0.147c0.102-0.034,0.153-0.091,0.166-0.186
		c0.007-0.048-0.002-0.093-0.01-0.138c-0.058-0.144-0.159-0.187-0.318-0.127c-0.03,0.006-0.042,0.023-0.057,0.026
		c0.064-0.074,0.16-0.138,0.289-0.193c0.363-0.13,0.615-0.022,0.73,0.344c0.049,0.099,0.054,0.206,0.029,0.32
		c-0.023,0.206-0.153,0.338-0.369,0.425c-0.174,0.063-0.332,0.046-0.489-0.048c-0.122-0.07-0.204-0.179-0.241-0.296
		c-0.04-0.132-0.062-0.251-0.034-0.35C127.121,24.749,127.127,24.779,127.133,24.809z"/>
	<path fill="#FDD17A" d="M126.991,22.899c-0.238,0.137-0.503,0.295-0.794,0.473c-0.012,0.018-0.027,0.021-0.027,0.021
		c-0.003-0.015,0.007-0.048,0.004-0.063c0.054-0.211,0.125-0.41,0.214-0.597c0.086-0.202,0.178-0.374,0.303-0.536
		c0.344-0.482,0.823-0.819,1.404-1.02c0.585-0.186,1.137-0.212,1.687-0.082c-1.009,0.73-1.615,1.137-1.795,1.248
		C127.731,22.467,127.394,22.654,126.991,22.899z"/>
	<path fill="#FFFFFF" d="M116.667,50.902c0.902,0.188,1.889,0.499,2.925,0.91c-0.104,0.685-0.238,1.298-0.373,1.819
		c-0.056,0.196-0.116,0.378-0.159,0.556c-0.672-0.2-1.394-0.421-2.182-0.662c-0.934-0.275-1.849-0.538-2.732-0.791
		c0.273-0.778,0.497-1.486,0.705-2.113C115.446,50.665,116.069,50.766,116.667,50.902z"/>
	<path fill="#FFFFFF" d="M110.598,50.81c1.212-0.226,2.418-0.311,3.608-0.239c-0.178,0.621-0.378,1.293-0.597,2.03
		c-1.891-0.514-3.641-0.932-5.26-1.234l-0.003-0.015C109.065,51.142,109.805,50.957,110.598,50.81z"/>
	<path fill="#FFFFFF" d="M120.259,52.075c0.421,0.185,0.861,0.382,1.302,0.593c0.925,0.478,1.728,0.885,2.39,1.196
		c-0.086,0.372-0.143,0.646-0.178,0.791c-0.103,0.36-0.198,0.687-0.294,0.999c-0.995-0.356-2.267-0.785-3.827-1.268
		c0.069-0.214,0.134-0.443,0.203-0.657C120.018,53.188,120.15,52.652,120.259,52.075z"/>
	<path fill="#FFFFFF" d="M124.699,54.22c0.338,0.154,0.641,0.283,0.893,0.391c0.419,0.17,0.817,0.312,1.191,0.413
		c-0.096,0.482-0.206,0.89-0.3,1.217c-0.056,0.196-0.13,0.38-0.189,0.561c-0.507-0.23-1.065-0.483-1.668-0.726
		c-0.149-0.05-0.315-0.112-0.484-0.188c0.043-0.101,0.086-0.202,0.112-0.315C124.418,55.123,124.567,54.678,124.699,54.22z"/>
	<path fill="#E01E26" d="M101.166,63.246c4.144-0.772,7.897-0.728,11.276,0.128c1.69,0.428,3.485,1.177,5.375,2.265
		c0.238-0.137,0.324-0.339,0.276-0.593c-0.07-0.374-0.685-0.77-1.864-1.201c-1.117-0.426-2.529-0.783-4.214-1.103
		c-4.028-0.767-7.306-0.914-9.837-0.459c-0.011-0.06-0.373-0.008-1.106,0.129c-0.823,0.153-1.592,0.343-2.309,0.569
		c0.005-0.14,0.025-0.283,0.047-0.411c0.338-0.094,0.677-0.188,1.018-0.267c1.952-0.487,3.932-0.748,5.952-0.784
		c1.973-0.042,3.939,0.04,5.915,0.26c1.955,0.193,3.906,0.526,5.834,0.988c1.943,0.458,3.805,1.149,5.583,2.056
		c0.824,0.435,1.545,0.981,2.178,1.637c0.383,0.393,0.649,0.823,0.836,1.33c0.164,0.465,0.235,0.931,0.232,1.412
		c-0.035,1.059-0.542,1.742-1.532,2.081c-0.741,0.262-1.517,0.329-2.301,0.196c-0.81-0.112-1.587-0.293-2.359-0.536
		c-0.883-0.253-1.745-0.557-2.597-0.894c-3.429-1.374-6.898-2.631-10.419-3.755c-1.898-0.637-3.867-0.982-5.874-1.042
		c-0.886-0.021-1.753,0.063-2.615,0.255c-0.032-0.505-0.025-1.048,0.019-1.644C99.44,63.614,100.269,63.413,101.166,63.246z"/>
	<path fill="#1DB1BF" d="M115.317,86.536c0.828,0.124,1.648,0.204,2.456,0.223c-2.905,2.77-4.38,4.159-4.41,4.165
		c-0.793,0.148-3.06-0.807-6.815-2.848c-2.862-1.572-5.397-3.05-7.628-4.476c-0.755-0.479-1.553-1.026-2.381-1.646
		c2.32,0.821,4.683,1.542,7.086,2.147C107.481,85.101,111.392,85.905,115.317,86.536z"/>
	<path fill="#FFFFFF" d="M120.91,78.916c-0.493,0.014-0.818,0.013-1.003,0.017c-0.653-0.018-1.321-0.033-2.011-0.074
		c-0.068-0.281-0.101-0.461-0.11-0.506c-0.066-0.437-0.141-0.841-0.216-1.244c0.616-0.099,1.232-0.199,1.86-0.316
		c0.389-0.072,0.763-0.142,1.134-0.227c0.192,1.032,0.303,1.708,0.326,1.998C120.895,78.671,120.902,78.794,120.91,78.916z"/>
	<path fill="#FFFFFF" d="M123.486,78.87c-0.71,0.008-1.326,0.03-1.833,0.047c-0.17-1.16-0.293-1.988-0.37-2.485
		c0.775-0.16,1.473-0.321,2.095-0.468c0.065,0.266,0.141,0.593,0.22,0.934c0.13,0.781,0.127,1.431-0.02,1.97
		C123.545,78.859,123.516,78.864,123.486,78.87z"/>
	<path fill="#FFFFFF" d="M114.066,77.575c0.863-0.099,1.772-0.206,2.676-0.344c0.121,0.566,0.236,1.101,0.34,1.577
		c-0.877-0.053-1.792-0.146-2.725-0.251C114.246,78.207,114.152,77.869,114.066,77.575z"/>
	<path fill="#FFFFFF" d="M110.643,77.81c0.89-0.042,1.78-0.084,2.691-0.176c0.098,0.276,0.178,0.54,0.278,0.83
		C112.594,78.313,111.609,78.095,110.643,77.81z"/>
	<path fill="#1DB1BF" d="M113.795,137.865c-0.98,0.306-1.968,0.568-2.965,0.784c2.362-3.443,4.306-7.132,5.823-11.037
		c1.334-3.39,2.374-6.865,3.152-10.416c1.037-4.821,1.567-9.702,1.576-14.641c0.014-3.996-0.279-7.981-0.863-11.943
		c-0.162-1.038-0.355-2.07-0.622-3.088c1.886,2.481,2.892,3.64,3.034,3.49c0.203-0.239,0.64-0.97,1.325-2.197
		c0.116-0.207,0.229-0.43,0.333-0.619c0.216,1.074,0.415,2.229,0.599,3.464c0.659,4.288,0.878,8.535,0.66,12.77
		c-0.024,0.453-0.045,0.922-0.081,1.393c-0.003-0.015-0.021-0.027-0.038-0.039c0.008,0.045,0.029,0.072,0.037,0.117
		c-0.252,3.715-0.823,7.381-1.697,10.996c-0.986,4.099-2.444,8.318-4.37,12.685c-1.4,3.201-2.912,5.805-4.547,7.827
		C114.716,137.57,114.263,137.716,113.795,137.865z"/>
	<path fill="#1DB1BF" d="M124.077,84.037c0.007-0.048,0.01-0.11,0.014-0.173c0.452,0.101,0.753,0.386,0.899,0.839
		c-0.339,0.172-0.697,0.331-1.057,0.476C123.989,84.812,124.027,84.434,124.077,84.037z"/>
	<path fill="#1DB1BF" d="M122.766,90.132c-0.678-1.066-1.481-2.216-2.365-3.475c1.154-0.122,2.303-0.351,3.435-0.671
		c0.425-0.126,0.833-0.264,1.205-0.426c-0.082,0.557-0.378,1.293-0.876,2.191C123.795,88.424,123.339,89.221,122.766,90.132z"/>
	<path fill="#EF8B21" d="M91.947,150.943c-1.93,0.359-3.771,0.61-5.54,0.753c1.006,0.664,1.731,1.148,2.174,1.452
		c0.781,0.536,1.989,1.456,3.637,2.743c1.633,1.29,3.03,2.392,4.194,3.321c1.161,0.914,1.793,1.647,1.89,2.171
		c0.098,0.524-0.066,1.39-0.459,2.609c-0.407,1.221-0.934,2.465-1.628,3.724c-0.631,1.185-1.267,2.171-1.937,2.977
		c1.464,1.879,3.762,2.751,6.91,2.613c0.218-0.907,0.612-2.281,1.158-4.085c1.024-3.395,1.711-5.689,2.07-6.917
		c0.342-1.24,0.504-1.951,0.464-2.161c-0.212-1.137-3.087-4.192-8.599-9.186c-0.221-0.191-0.516-0.445-0.852-0.754
		C94.305,150.472,93.143,150.72,91.947,150.943z M98.134,168.704c-0.018-0.012-0.021-0.027-0.021-0.027
		c-0.003-0.015-0.003-0.015-0.003-0.015C98.113,168.677,98.116,168.692,98.134,168.704z"/>
	<path d="M98.11,168.662c0.003,0.015,0.006,0.03,0.023,0.042c-0.018-0.012-0.021-0.027-0.021-0.027
		C98.11,168.662,98.11,168.662,98.11,168.662z"/>
	<path fill="#716429" d="M100.105,174.219c0.019,0.182,0.037,0.365,0.068,0.529c0.031,0.164,0.058,0.314,0.104,0.476
		c-0.062-0.004-0.107,0.005-0.167,0.016c-1.362,0.254-2.175,0.622-2.432,1.072c0.108,0.166,0.187,0.259,0.241,0.296
		c0.077,0.079,0.247,0.078,0.516,0.028c0.853-0.159,1.472-0.321,1.845-0.483c0.099-0.049,0.198-0.099,0.28-0.16
		c0.18,0.384,0.393,0.701,0.664,0.991c-0.156,0.076-0.391,0.227-0.68,0.421c-0.623,0.394-0.997,0.712-1.101,0.902
		c0.108,0.166,0.188,0.259,0.241,0.296c0.076,0.079,0.247,0.078,0.516,0.028c0.299-0.056,0.717-0.304,1.242-0.727
		c0.187-0.159,0.347-0.297,0.45-0.409c0.258,0.138,0.528,0.258,0.807,0.345c0.083,0.031,0.149,0.05,0.229,0.065
		c-0.082,0.062-0.163,0.123-0.244,0.185c-0.634,0.505-1.072,0.974-1.317,1.406c0.235,0.266,0.413,0.388,0.532,0.365
		c0.284-0.053,0.808-0.398,1.554-1.048c0.329-0.309,0.595-0.544,0.791-0.736c0.749,0.031,1.686-0.004,2.783-0.1
		c2.104-0.175,3.542-0.18,4.301-0.012c1.36,0.32,2.172,1.19,2.439,2.626c0.014,0.075,0.028,0.15,0.027,0.227
		c-0.793,0.566-1.863,0.966-3.194,1.214c-6.462,1.204-11.456-0.095-14.983-3.911c-0.93-1.003-1.712-2.126-2.349-3.385
		c0.48-0.832,1.095-1.519,1.878-2.052C96.522,173.679,98.18,174.19,100.105,174.219z"/>
	<path fill="#975A25" d="M110.737,182.856c1.152-0.215,2.083-0.45,2.764-0.701c-0.796,0.628-1.934,1.088-3.399,1.361
		c-6.462,1.204-11.456-0.095-14.983-3.911c-0.968-1.043-1.776-2.223-2.442-3.554c0.038-0.131,0.093-0.249,0.131-0.38
		c0.641,1.196,1.396,2.263,2.283,3.197C98.747,182.799,103.961,184.118,110.737,182.856z"/>
	<path fill="#0B6B73" d="M58.298,127.013c0.642-0.708,1.456-1.154,2.429-1.335c0.149-0.028,0.284-0.053,0.422-0.063
		c0.47,0.779,0.991,1.58,1.526,2.378l-0.012,0.018c-0.012,0.018-0.037,0.053-0.064,0.074c-1.493,0.294-2.767,0.933-3.812,1.886
		c-0.093-0.168-0.187-0.337-0.28-0.505c-0.282-0.52-0.583-1.052-0.88-1.57C57.868,127.526,58.092,127.237,58.298,127.013z"/>
	<path fill="#FBD4A4" d="M67.54,134.996c0.24,1.286,0.217,2.328-0.059,3.091c-0.589,1.657-2.215,2.734-4.863,3.227
		c-2.049,0.382-3.606,0.084-4.638-0.885c-0.596-0.539-0.954-1.215-1.099-1.993c-0.254-1.361,0.57-2.258,2.498-2.709
		c0.126,0.177,0.267,0.353,0.42,0.51c0.47,0.532,0.724,0.81,0.739,0.807c0.226,0.298,0.371,0.581,0.419,0.835
		c0.056,0.299-0.041,0.611-0.29,0.936c-0.249,0.325-0.365,0.532-0.351,0.607c0.025,0.135,0.039,0.209,0.054,0.206
		c0.027-0.021,0.042-0.023,0.063,0.004c0.023,0.042,0.059,0.067,0.094,0.091c0.036,0.024,0.143,0.02,0.307-0.011
		c0.494-0.092,0.788-0.425,0.899-0.988c-0.01-0.555-0.004-0.851-0.006-0.866c-0.098-0.524-0.521-1.219-1.238-2.076
		c-0.734-0.869-1.152-1.612-1.266-2.225c-0.086-0.464-0.099-0.864-0.005-1.191c0.035-0.146,0.145-0.383,0.341-0.744
		c0.22-0.397,0.34-0.915,0.318-1.53c0.729-0.492,1.585-0.883,2.564-1.112c0.66,0.388,1.187,0.723,1.61,1
		C66.001,131.305,67.161,132.961,67.54,134.996z"/>
	<path fill="#716429" d="M74.4,184.129c0.085,0.294,0.213,0.564,0.368,0.814c-0.363,0.13-0.712,0.334-1.074,0.633
		c-0.456,0.379-0.705,0.704-0.729,0.987c0.008,0.045,0.055,0.129,0.104,0.228c0.062,0.081,0.175,0.107,0.339,0.076
		c0.284-0.053,0.705-0.286,1.29-0.72c0.241-0.2,0.458-0.364,0.618-0.502c0.206,0.194,0.443,0.382,0.718,0.532
		c-0.112,0.145-0.231,0.337-0.374,0.565c-0.484,0.725-0.718,1.217-0.68,1.504c0.022,0.12,0.153,0.157,0.407,0.11
		c0.329-0.061,0.674-0.451,1.054-1.156l0.302-0.706c0.312,0.096,0.669,0.185,1.101,0.259c-0.11,0.16-0.226,0.367-0.351,0.607
		c-0.325,0.664-0.513,1.148-0.55,1.449c0.017,0.09,0.061,0.159,0.099,0.198c0.059,0.066,0.172,0.092,0.336,0.061
		c0.344-0.064,0.68-0.421,1.017-1.103c0.202-0.409,0.333-0.789,0.397-1.111c0.629,0.053,1.375,0.069,2.211,0.068
		c2.089-0.002,3.502,0.106,4.252,0.307c1.356,0.382,2.145,1.21,2.387,2.512c0.02,0.105,0.017,0.26,0.003,0.433
		c-0.487,0.71-1.284,1.168-2.361,1.369c-2.977,0.554-6.321,0.217-10.065-1.02c-1.399-0.451-2.708-0.997-3.939-1.619
		c-1.059-0.53-1.828-1.006-2.321-1.409c-0.549-0.455-1.045-0.873-1.49-1.27c0.111-0.733,0.401-1.421,0.851-2.078
		c0.399-0.601,0.992-1.237,1.787-1.958C71.434,183.243,72.852,183.876,74.4,184.129z"/>
	<path fill="#975A25" d="M72.856,190.546c2.253,0.881,4.657,1.485,7.177,1.805c2.187,0.274,3.969,0.282,5.315,0.031
		c0.793-0.148,1.474-0.398,2.025-0.764c-0.1,0.297-0.211,0.612-0.328,0.897c-0.459,0.364-1.049,0.598-1.752,0.729
		c-2.977,0.554-6.321,0.218-10.065-1.02c-1.399-0.451-2.708-0.997-3.939-1.619c-1.059-0.53-1.828-1.006-2.321-1.409
		c-0.546-0.44-1.027-0.861-1.473-1.258c-0.025-0.135-0.053-0.284-0.063-0.422C68.938,188.707,70.751,189.715,72.856,190.546z"/>
	<path fill="#E96C24" d="M150.405,75.899l-0.001,0.078c-0.015,0.003-0.03,0.006-0.045,0.008l0.005-0.14
		C150.385,75.872,150.388,75.887,150.405,75.899z"/>
	<path fill="#EF8B21" d="M48.929,116.611c-0.099,0.715-0.596,9.599-0.594,9.691c-0.069,1.793,0,3.575,0.224,5.36
		c0.235,1.845,0.572,3.654,1.017,5.46c0.366,1.464,0.999,2.786,1.899,3.964c0.244,0.311,0.526,0.583,0.831,0.805
		c1.577,1.068,3.236,1.998,4.977,2.788c1.711,0.796,3.294,1.816,4.707,3.086c1.313,1.148,2.498,2.444,3.563,3.84
		c0.328,0.434,0.687,0.863,1.073,1.271c1.348,1.421,2.654,2.865,3.924,4.284c1.273,1.434,2.556,2.836,3.851,4.22
		c1.295,1.384,2.087,2.645,2.391,3.78c0.319,1.132,0.453,1.85,0.425,2.196c-0.088,1.27-0.614,2.684-1.551,4.22
		c-0.934,1.551-1.969,3.137-3.104,4.773c-1.013,1.458-2.058,2.829-3.152,4.101c1.571,1.704,3.391,2.665,5.456,2.869
		c0.228-0.522,0.468-1.062,0.75-1.625c1.35-2.806,2.833-5.481,4.457-7.981c0.18-0.281,0.59-0.822,1.227-1.637
		c0.716-0.892,1.236-1.592,1.592-2.092c1.287-1.818,1.848-3.207,1.672-4.15c-0.206-1.107-2.29-4.402-6.252-9.886
		c-1.973-2.697-3.342-4.563-4.074-5.587c-1.249-1.718-1.875-2.669-1.908-2.848c-0.039-0.21-0.049-0.347-0.03-0.412
		c0.028-0.098,0.127-0.148,0.307-0.181c0.015-0.003,0.664,0.821,1.916,2.476c0.103,0.135,0.203,0.256,0.29,0.395
		c5.304,1.303,10.958,1.411,16.971,0.29c3.575-0.666,12.158-3.143,17.288-6.578c6.406-4.29,6.555-5.014,6.687-5.301l-0.02-0.027
		c-1.437,0.593-2.945,1.059-4.522,1.399c-3.927,0.855-7.893,1.083-11.923,0.72c-3.988-0.387-7.935-1.138-11.809-2.242
		c-3.909-1.129-7.754-2.41-11.51-3.877c-3.789-1.477-7.427-3.229-10.936-5.284c-0.331-0.201-0.678-0.4-1.007-0.586l-0.061,0.089
		c-0.08-0.016-0.158-0.017-0.248,0c0.062,0.082,0.126,0.178,0.205,0.271l-0.046,0.086c0.95,0.613,1.632,1.12,2.063,1.52
		c0.728,0.669,1.254,1.33,1.553,1.94c0.201,0.412,0.373,0.921,0.52,1.544c2.298,6.368-2.787,7.887-5.286,8.352
		c-2.303,0.429-4.036,0.101-5.225-0.962c-0.728-0.669-1.2-1.541-1.406-2.648c-0.114-0.613-0.062-1.165,0.141-1.651
		c0.406-0.896,1.28-1.523,2.651-1.887c-0.14-0.253-0.235-0.513-0.315-0.777c-0.125-1.459,0.266-2.332,0.217-3.039
		c-0.089-1.281-1.492-2.811-3.116-5.381c-0.542-0.858-1.26-2.026-1.765-2.907c-0.44-0.785-0.907-1.549-1.405-2.308
		c-0.526-0.831-1.067-1.658-1.593-2.489c-0.648-0.653-1.278-1.294-1.914-1.965C48.987,116.26,48.958,116.436,48.929,116.611z"/>
</g>
</svg>
