<?xml version="1.0" encoding="utf-8"?>
<!-- Generator: Adobe Illustrator 17.1.0, SVG Export Plug-In . SVG Version: 6.00 Build 0)  -->
<!DOCTYPE svg PUBLIC "-//W3C//DTD SVG 1.0//EN" "http://www.w3.org/TR/2001/REC-SVG-20010904/DTD/svg10.dtd">
<svg version="1.0" id="Layer_1" xmlns="http://www.w3.org/2000/svg" xmlns:xlink="http://www.w3.org/1999/xlink" x="0px" y="0px"
	 viewBox="0 0 200 200" enable-background="new 0 0 200 200" xml:space="preserve">
<g>
	<g>
		<path fill="none" d="M70.698,83.037c-1.157,2.653-1.731,4.162-1.734,4.516c-0.002,0.22,0.347,0.931,1.069,2.121
			c0.277,0.478,0.663,1.092,1.145,1.829c-0.136-1.345-0.248-2.567-0.324-3.642C70.743,86.506,70.683,84.893,70.698,83.037z"/>
		<path d="M150.624,71.589c-1.372-0.939-2.807-1.672-4.33-2.185c0.001-0.11,0.002-0.269,0.004-0.476
			c-0.046-0.403-0.165-0.746-0.382-1.053c-0.676-0.946-2.138-1.422-4.36-1.44c-0.244-0.002-0.831,0.054-1.772,0.169
			c-0.207-0.051-0.414-0.101-0.609-0.152c-0.561-0.139-1.121-0.278-1.694-0.405c-0.487-0.114-0.963-0.215-1.438-0.341
			c-0.354-0.076-0.695-0.152-1.036-0.241c-0.536-0.114-1.072-0.253-1.609-0.379c-5.301-1.35-10.653-2.469-16.056-3.38
			c-0.634-0.091-1.256-0.181-1.879-0.272c-0.866-0.117-1.732-0.246-2.598-0.351c-2.428-0.325-4.855-0.626-7.283-0.902
			c-1.525-1.661-3.161-3.213-4.908-4.657c-1.771-1.455-3.679-2.668-5.71-3.662c0.074-0.121,0.148-0.243,0.21-0.365
			c1.548-2.662,2.186-5.978,1.913-9.962s-1.979-8.87-5.119-14.672c-3.152-5.802-7.461-10.552-12.938-14.248
			C73.54,8.931,67.81,7.81,61.838,9.251c-1.896,0.461-3.575,1.155-5.036,2.072c-0.208,0.071-0.417,0.155-0.613,0.239
			c-1.556,0.659-2.968,1.563-4.223,2.713c-0.837,0.763-1.588,1.587-2.255,2.485c-0.605,0.789-1.137,1.639-1.608,2.539
			c-1.228,2.359-2.018,4.844-2.381,7.467c-0.169,1.232-0.154,2.441,0.043,3.64c0.163,0.954,0.674,1.658,1.609,1.833
			c2.119,0.396,4.278,8.486,4.769,9.699c0.096,0.233,0.192,0.478,0.287,0.723c0.599,1.409,1.198,2.819,1.822,4.216
			c0.635,1.459,1.283,2.917,1.93,4.388c0.587,1.348,1.187,2.696,1.811,4.033c0.228,0.515,0.48,1.03,0.744,1.533
			c0.04,1.075,0.152,2.346,0.335,3.801c0.069,0.575,0.098,1.503,0.087,2.773c0.059,1.686-0.112,3.284-0.528,4.807
			c-0.013,0.049-0.025,0.097-0.038,0.146c-0.05,0.11-0.124,0.207-0.21,0.304c-0.037,0.061-0.086,0.109-0.124,0.158
			c0.6-0.154,1.31-0.429,2.12-0.862c1.091-0.565,2.233-1.325,3.425-2.256c0.32-0.254,0.615-0.496,0.91-0.737
			c0.546,0.456,1.129,0.876,1.749,1.248c1.166,0.718,2.383,1.314,3.637,1.813c0.085,0.025,0.17,0.062,0.268,0.1
			c-0.013,0.122-0.014,0.256-0.015,0.379c-0.003,0.391,0.043,0.733,0.138,1.015c-0.272,0.462-0.52,0.912-0.756,1.374
			c-0.77,1.52-1.786,3.368-3.049,5.519c-1.276,2.163-2.232,4.073-2.905,5.74c-0.661,1.668-1.05,2.886-1.166,3.666
			c-0.104,0.769-0.098,1.514,0.018,2.247c0.116,0.722,0.56,1.739,1.318,3.039c0.771,1.289,1.676,2.688,2.738,4.175
			c0.845,1.204,1.666,2.407,2.462,3.635c0.663,1.007,1.229,2.086,1.708,3.214c0.108,0.282,0.179,0.563,0.213,0.844
			c-0.233,0.034-0.465,0.045-0.721,0.043c-0.598-0.005-0.988-0.094-1.158-0.278c-0.182-0.185-0.486-0.285-0.901-0.288
			c-0.574-0.005-0.929,0.151-1.079,0.455c-0.062,0.122-0.089,0.402-0.093,0.867c0,0.012-0.002,0.207,0.008,0.562
			c0.046,0.416,0.165,0.795,0.345,1.138c0.577,1.079,1.733,1.626,3.467,1.641c0.586,0.005,1.198-0.125,1.811-0.388
			c0.176,2.309,0.317,4.533,0.409,6.696c0.102,2.431,0.255,4.679,0.446,6.745c-0.037,0-0.061-0.013-0.085-0.025
			c0.012,0.049,0.012,0.085,0.011,0.122c-0.001,0.159-0.015,0.305-0.065,0.451c0.828,0.312,1.693,0.588,2.595,0.815
			c0.04,1.075,0.093,2.04,0.184,2.884c0.125,1.149,0.147,2.895,0.08,5.215c-0.039,4.787-0.469,9.485-1.3,14.119
			c-0.615,3.512-2.09,9.081-4.399,16.683c-0.59,1.974-1.08,3.643-1.457,4.995c0.293,0.015,0.549,0.102,0.768,0.226
			c0-0.012,0-0.024,0.013-0.037c2.334,1.338,5.267,2.486,8.765,3.443c1.438,0.402,2.864,0.744,4.266,1.048
			c0.022,0.293,0.044,0.611,0.077,0.953c-0.006,0.782-0.063,1.782-0.171,2.978c-0.725,0.495-1.436,0.855-2.121,1.07
			c-1.996,0.643-3.392,1.083-4.163,1.333c-1.298,0.417-2.253,0.776-2.879,1.088c-0.773,0.372-1.338,0.783-1.671,1.232
			c-0.37,0.485-0.546,1.083-0.552,1.803c-0.001,0.073-0.015,0.305-0.03,0.684c0.033,0.403,0.177,0.759,0.407,1.053
			c0.725,0.922,2.358,1.399,4.91,1.42c1.624,0.013,3.863-0.433,6.716-1.35c1.457-0.464,2.878-0.965,4.299-1.491
			c1.909-0.46,3.086-1.025,3.507-1.705c0.161-0.255,0.249-0.584,0.265-0.987c-0.008-0.476-0.017-0.855-0.015-1.124
			c0.009-1.148-0.106-1.979-0.346-2.482c-0.144-0.319-0.386-0.638-0.75-0.935c-0.23-0.185-0.534-0.346-0.949-0.496
			c-0.117-0.624-0.209-1.284-0.264-1.993c1.33,0.157,2.648,0.278,3.942,0.35c5.066,0.225,10.11,0.266,15.167,0.1
			c0.06,0.135,0.096,0.245,0.095,0.343c-0.003,0.305,0.019,0.672,0.04,1.112c0.031,0.696,0.085,1.564,0.174,2.603
			c-0.006,0.781-0.063,1.782-0.171,2.978c-0.725,0.495-1.436,0.855-2.121,1.069c-1.996,0.643-3.392,1.083-4.163,1.333
			c-1.298,0.417-2.253,0.776-2.879,1.088c-0.773,0.372-1.338,0.783-1.671,1.232c-0.37,0.485-0.546,1.083-0.552,1.803
			c-0.001,0.073-0.015,0.305-0.03,0.684c0.033,0.403,0.177,0.759,0.407,1.053c0.725,0.922,2.358,1.399,4.91,1.42
			c1.624,0.013,3.863-0.432,6.716-1.349c1.457-0.464,2.878-0.966,4.299-1.491c1.909-0.461,3.086-1.025,3.506-1.693
			c0.161-0.267,0.249-0.596,0.265-0.999c-0.008-0.476-0.017-0.855-0.015-1.124c0.009-1.148-0.106-1.979-0.346-2.482
			c-0.144-0.319-0.386-0.638-0.75-0.934c-0.23-0.185-0.534-0.346-0.949-0.496c-0.235-1.174-0.346-2.519-0.333-4.021
			c0.002-0.208,0.003-0.415,0.017-0.623c0.017-0.61,0.059-1.221,0.125-1.843c1.747-0.108,3.434-0.338,5.049-0.655
			c1.749-0.352,3.855-0.958,6.328-1.804c0.808-0.287,1.641-0.597,2.474-0.92c0.122-0.012,0.257-0.035,0.403-0.034
			c0.049,0,0.11,0.001,0.159,0.014c-0.33-1.456-0.777-3.475-1.331-6.032c-1.023-4.759-1.761-8.636-2.213-11.644
			c-0.452-2.996-0.923-6.566-1.439-10.698c-0.503-4.144-0.785-7.016-0.833-8.629c-0.036-1.612-0.119-3.335-0.214-5.143
			c-0.117-2.077-0.157-4.654-0.132-7.743l0.023-2.845c0.896-0.505,1.841-1.096,2.836-1.772c-0.036-0.086-0.072-0.171-0.095-0.245
			c-0.215-3.629-0.648-7.369-1.3-11.246c-1.165-6.873-3.005-13.372-5.543-19.475c-1.892-4.558-4.14-8.937-6.744-13.122
			c-0.012-0.012-0.88-1.387-1.17-1.817c0.805,0.068,1.623,0.148,2.465,0.24c2.208,0.25,3.977,0.472,5.307,0.691
			c1.501,0.196,3.001,0.415,4.501,0.672c0.683,0.115,1.366,0.219,2.049,0.31c3.05,0.404,6.049,0.99,8.999,1.735
			c0.707,0.189,1.414,0.366,2.133,0.53c0.414,0.101,0.829,0.202,1.255,0.303c0.132,0.27,0.264,0.552,0.408,0.822
			c0.433,0.883,1.074,1.535,1.913,1.994c0.377,0.199,0.779,0.336,1.218,0.401c0.732,0.104,1.416,0.024,2.066-0.227
			c0.1-0.243,0.102-0.5,0.031-0.757c0.954-0.163,1.666-0.633,2.124-1.399c0.671,0.079,1.342,0.194,2.012,0.358
			c1.061,0.253,2.099,0.225,3.115-0.06c0.11-0.036,0.197-0.12,0.246-0.254C151.216,72.327,151.085,71.923,150.624,71.589z
			 M70.033,89.675c-0.723-1.19-1.071-1.902-1.069-2.121c0.003-0.354,0.577-1.864,1.734-4.516c-0.015,1.856,0.045,3.469,0.156,4.825
			c0.076,1.075,0.189,2.297,0.324,3.642C70.696,90.767,70.31,90.153,70.033,89.675z"/>
		<path fill="none" d="M82.045,175.332c0,0-0.012,0-0.025,0.012c0.025-0.012,0.049-0.012,0.085-0.012l-0.012-0.024
			C82.081,175.321,82.069,175.321,82.045,175.332z"/>
		<path fill="none" d="M107.653,179.939c0,0-0.012,0-0.025,0.012c0.025-0.012,0.049-0.012,0.085-0.012l-0.012-0.025
			C107.689,179.927,107.677,179.927,107.653,179.939z"/>
		<path fill="none" d="M85.844,170.65c-0.183-0.026-0.366-0.064-0.537-0.09l-0.025,0.097
			C85.478,170.659,85.661,170.66,85.844,170.65z"/>
		<path fill="none" d="M70.698,83.037c-1.157,2.653-1.731,4.162-1.734,4.516c-0.002,0.22,0.347,0.931,1.069,2.121
			c0.277,0.478,0.663,1.092,1.145,1.829c-0.136-1.345-0.248-2.567-0.324-3.642C70.743,86.506,70.683,84.893,70.698,83.037z"/>
		<path fill="none" d="M72.041,99.535c-0.012,0-0.024,0.012-0.037,0.024l0.036,0.049C72.04,99.583,72.041,99.559,72.041,99.535z"/>
		<path fill="none" d="M75.586,29.086c0-0.012,0-0.024-0.012-0.025l0,0.012C75.586,29.074,75.586,29.074,75.586,29.086z"/>
		<path fill="none" d="M70.727,100.403l-0.024-0.037C70.703,100.378,70.715,100.391,70.727,100.403z"/>
		<path fill="none" d="M104.715,60.076c-0.024-0.025-0.049-0.049-0.073-0.074l-0.062,0.061
			C104.617,60.063,104.666,60.075,104.715,60.076z"/>
		<path fill="none" d="M99.163,166.802c-0.366-0.064-0.744-0.116-1.122-0.144C99.212,166.815,99.589,166.867,99.163,166.802z"/>
		<path fill="none" d="M138.73,66.998c-0.037-0.013-0.073-0.025-0.11-0.025l0.073,0.062C138.706,67.022,138.718,67.01,138.73,66.998
			z"/>
		<path d="M111.188,67.456c0.805,0.068,1.623,0.148,2.465,0.24c2.208,0.25,3.977,0.472,5.307,0.691
			c1.501,0.196,3.001,0.415,4.501,0.672c0.683,0.115,1.366,0.219,2.049,0.31c3.05,0.404,6.049,0.99,8.999,1.735
			c0.707,0.189,1.414,0.366,2.133,0.53c0.414,0.101,0.829,0.202,1.255,0.303c0.132,0.27,0.264,0.552,0.408,0.822
			c0.433,0.883,1.074,1.535,1.913,1.994c0.377,0.199,0.779,0.336,1.218,0.401c0.732,0.104,1.416,0.024,2.066-0.227
			c0.1-0.243,0.102-0.5,0.031-0.757c0.954-0.163,1.666-0.633,2.124-1.399c0.671,0.079,1.342,0.194,2.012,0.358
			c1.061,0.253,2.099,0.225,3.115-0.06c0.11-0.036,0.197-0.12,0.246-0.254c0.187-0.487,0.056-0.891-0.405-1.225
			c-1.372-0.939-2.807-1.672-4.33-2.185c0.001-0.11,0.002-0.269,0.004-0.476c-0.046-0.403-0.165-0.746-0.382-1.053
			c-0.676-0.946-2.138-1.422-4.36-1.44c-0.244-0.002-0.831,0.054-1.772,0.169c-0.207-0.051-0.414-0.101-0.609-0.152
			c-0.561-0.139-1.121-0.278-1.694-0.405c-0.487-0.114-0.963-0.215-1.438-0.341c-0.354-0.076-0.695-0.152-1.036-0.241
			c-0.536-0.114-1.072-0.253-1.609-0.379c-5.301-1.35-10.653-2.469-16.056-3.38c-0.634-0.091-1.256-0.181-1.879-0.272
			c-0.866-0.117-1.732-0.246-2.598-0.351c-2.428-0.325-4.855-0.626-7.283-0.902c-1.525-1.661-3.161-3.213-4.908-4.657
			c-1.771-1.455-3.679-2.668-5.71-3.662c0.074-0.121,0.148-0.243,0.21-0.365c1.548-2.662,2.186-5.978,1.913-9.962
			s-1.979-8.87-5.119-14.672c-3.152-5.802-7.461-10.552-12.938-14.248C73.54,8.931,67.81,7.81,61.838,9.251
			c-1.896,0.461-3.575,1.155-5.036,2.072c-0.208,0.071-0.417,0.155-0.613,0.239c-1.556,0.659-2.968,1.563-4.223,2.713
			c-0.837,0.763-1.588,1.587-2.255,2.485c-0.605,0.789-1.137,1.639-1.608,2.539c-1.228,2.359-2.018,4.844-2.381,7.467
			c-0.169,1.232-0.154,2.441,0.043,3.64c0.163,0.954,0.66,1.776,1.609,1.833c2.021,0.12,4.278,8.486,4.769,9.699
			c0.096,0.233,0.192,0.478,0.287,0.723c0.599,1.409,1.198,2.819,1.822,4.216c0.635,1.459,1.283,2.917,1.93,4.388
			c0.587,1.348,1.187,2.696,1.811,4.033c0.228,0.515,0.48,1.03,0.744,1.533c0.04,1.075,0.152,2.346,0.335,3.801
			c0.069,0.575,0.098,1.503,0.087,2.773c0.059,1.686-0.112,3.284-0.528,4.807c-0.013,0.049-0.025,0.097-0.038,0.146
			c-0.05,0.11-0.124,0.207-0.21,0.304c-0.037,0.061-0.086,0.109-0.124,0.158c0.6-0.154,1.31-0.429,2.12-0.862
			c1.091-0.565,2.233-1.325,3.425-2.256c0.32-0.254,0.615-0.496,0.91-0.737c0.546,0.456,1.129,0.876,1.749,1.248
			c1.166,0.718,2.383,1.314,3.637,1.813c0.085,0.025,0.17,0.062,0.268,0.1c-0.013,0.122-0.014,0.256-0.015,0.379
			c-0.003,0.391,0.043,0.733,0.138,1.015c-0.272,0.462-0.52,0.912-0.756,1.374c-0.77,1.52-1.786,3.368-3.049,5.519
			c-1.276,2.163-2.232,4.073-2.905,5.74c-0.661,1.668-1.05,2.886-1.166,3.666c-0.104,0.769-0.098,1.514,0.018,2.247
			c0.116,0.722,0.56,1.739,1.318,3.039c0.771,1.289,1.676,2.688,2.738,4.175c0.845,1.204,1.666,2.407,2.462,3.635
			c0.663,1.007,1.229,2.086,1.708,3.214c0.108,0.282,0.179,0.563,0.213,0.844c-0.233,0.034-0.465,0.045-0.721,0.043
			c-0.598-0.005-0.988-0.094-1.158-0.278c-0.182-0.185-0.486-0.285-0.901-0.288c-0.574-0.005-0.929,0.151-1.079,0.455
			c-0.062,0.122-0.089,0.402-0.093,0.867c0,0.012-0.002,0.207,0.008,0.562c0.046,0.416,0.165,0.795,0.345,1.138
			c0.577,1.079,1.733,1.626,3.467,1.641c0.586,0.005,1.198-0.125,1.811-0.388c0.176,2.309,0.317,4.533,0.409,6.696
			c0.102,2.431,0.255,4.679,0.446,6.745c-0.037,0-0.061-0.013-0.085-0.025c0.012,0.049,0.012,0.085,0.011,0.122
			c-0.001,0.159-0.015,0.305-0.065,0.451c0.828,0.312,1.693,0.588,2.595,0.815c0.04,1.075,0.093,2.04,0.184,2.884
			c0.125,1.149,0.147,2.895,0.08,5.215c-0.039,4.787-0.469,9.485-1.3,14.119c-0.615,3.512-2.09,9.081-4.399,16.683
			c-0.59,1.974-1.08,3.643-1.457,4.995c0.293,0.015,0.549,0.102,0.768,0.226c0-0.012,0-0.024,0.013-0.037
			c2.334,1.338,5.267,2.486,8.765,3.443c1.438,0.402,2.864,0.744,4.266,1.048c0.022,0.293,0.044,0.611,0.077,0.953
			c-0.006,0.782-0.063,1.782-0.171,2.978c-0.725,0.495-1.436,0.855-2.121,1.07c-1.996,0.643-3.392,1.083-4.163,1.333
			c-1.298,0.417-2.253,0.776-2.879,1.088c-0.773,0.372-1.338,0.783-1.671,1.232c-0.37,0.485-0.546,1.083-0.552,1.803
			c-0.001,0.073-0.015,0.305-0.03,0.684c0.033,0.403,0.177,0.759,0.407,1.053c0.725,0.922,2.358,1.399,4.91,1.42
			c1.624,0.013,3.863-0.433,6.716-1.35c1.457-0.464,2.878-0.965,4.299-1.491c1.909-0.46,3.086-1.025,3.507-1.705
			c0.161-0.255,0.249-0.584,0.265-0.987c-0.008-0.476-0.017-0.855-0.015-1.124c0.009-1.148-0.106-1.979-0.346-2.482
			c-0.144-0.319-0.386-0.638-0.75-0.935c-0.23-0.185-0.534-0.346-0.949-0.496c-0.117-0.624-0.209-1.284-0.264-1.993
			c1.33,0.157,2.648,0.278,3.942,0.35c5.066,0.225,10.11,0.266,15.167,0.1c0.06,0.135,0.096,0.245,0.095,0.343
			c-0.003,0.305,0.019,0.672,0.04,1.112c0.031,0.696,0.085,1.564,0.174,2.603c-0.006,0.781-0.063,1.782-0.171,2.978
			c-0.725,0.495-1.436,0.855-2.121,1.069c-1.996,0.643-3.392,1.083-4.163,1.333c-1.298,0.417-2.253,0.776-2.879,1.088
			c-0.773,0.372-1.338,0.783-1.671,1.232c-0.37,0.485-0.546,1.083-0.552,1.803c-0.001,0.073-0.015,0.305-0.03,0.684
			c0.033,0.403,0.177,0.759,0.407,1.053c0.725,0.922,2.358,1.399,4.91,1.42c1.624,0.013,3.863-0.432,6.716-1.349
			c1.457-0.464,2.878-0.966,4.299-1.491c1.909-0.461,3.086-1.025,3.506-1.693c0.161-0.267,0.249-0.596,0.265-0.999
			c-0.008-0.476-0.017-0.855-0.015-1.124c0.009-1.148-0.106-1.979-0.346-2.482c-0.144-0.319-0.386-0.638-0.75-0.934
			c-0.23-0.185-0.534-0.346-0.949-0.496c-0.235-1.174-0.346-2.519-0.333-4.021c0.002-0.208,0.003-0.415,0.017-0.623
			c0.017-0.61,0.059-1.221,0.125-1.843c1.747-0.108,3.434-0.338,5.049-0.655c1.749-0.352,3.855-0.958,6.328-1.804
			c0.808-0.287,1.641-0.597,2.474-0.92c0.122-0.012,0.257-0.035,0.403-0.034c0.049,0,0.11,0.001,0.159,0.014
			c-0.33-1.456-0.777-3.475-1.331-6.032c-1.023-4.759-1.761-8.636-2.213-11.644c-0.452-2.996-0.923-6.566-1.439-10.698
			c-0.503-4.144-0.785-7.016-0.833-8.629c-0.036-1.612-0.119-3.335-0.214-5.143c-0.117-2.077-0.157-4.654-0.132-7.743l0.023-2.845
			c0.896-0.505,1.841-1.096,2.836-1.772c-0.036-0.086-0.072-0.171-0.095-0.245c-0.215-3.629-0.648-7.369-1.3-11.246
			c-1.165-6.873-3.005-13.372-5.543-19.475 M66.004,9.187c4.092-0.137,4.397-0.123,0.928,0.032
			c6.132-0.121,11.933,2.76,17.417,8.618c5.484,5.87,9.112,11.689,10.897,17.467c1.784,5.791,1.943,10.323,0.487,13.621
			c-1.468,3.285-3.458,6.163-5.969,8.634c-1.871,1.841-3.975,3.704-6.299,5.578c0.26-1.94,0.374-3.905,0.354-5.896
			c-0.045-3.408-0.372-6.793-0.979-10.156c-1.145-6.397-3.342-12.411-6.593-18.055c-0.11,0.023-0.245,0.047-0.379,0.046
			c-0.086-0.001-0.159-0.014-0.244-0.026c-0.012,0.012-0.025,0.012-0.049,0.012c0.012,0,0.012,0.012,0.012,0.025
			c0-0.012,0-0.012-0.012-0.012c-0.756-0.104-1.475-0.293-2.145-0.567c-1.838-0.723-3.366-2.006-4.597-3.86
			c-0.458-0.7-0.855-1.448-1.19-2.257c0.514-0.191,1.017-0.431,1.508-0.696c0.638-0.361,1.154-0.735,1.548-1.135
			c0.357-0.376,0.543-0.667,0.545-0.899c0.001-0.122-0.023-0.208-0.095-0.257c-0.036-0.025-0.097-0.05-0.207-0.075
			c-0.148,0.17-0.308,0.364-0.493,0.558c-0.357,0.4-0.763,0.751-1.193,1.053c-1.437,0.977-3.285,1.463-5.556,1.445
			c-1.405-0.012-2.6-0.119-3.6-0.311c-1-0.191-1.83-0.284-2.489-0.289c-3.126-0.026-5.673,0.76-7.652,2.38
			c0.463-2.903,1.29-5.363,2.491-7.38c0.805-1.373,1.779-2.55,2.923-3.518C58.371,10.688,61.923,9.337,66.004,9.187z M82.99,64.44
			c0.012-0.024,0.037-0.049,0.062-0.085c0.086-0.109,0.173-0.206,0.283-0.279c0-0.012,0-0.012,0-0.012
			c0.332-0.278,0.676-0.569,1.033-0.871c-0.605,0.777-1.221,1.517-1.874,2.207c-1.787,1.927-3.507,3.305-5.163,4.134
			c-0.887-0.508-1.617-0.917-2.2-1.252c1.285-0.344,2.45-0.969,3.496-1.852c0.689-0.605,1.39-1.185,2.09-1.766
			c0.811-0.665,1.562-1.391,2.253-2.18c-0.067,0.671-0.158,1.342-0.249,2.001C82.806,64.463,82.892,64.452,82.99,64.44z
			 M47.697,31.581c-0.561-0.066-0.925-0.374-1.116-0.901c-0.322-0.919-0.437-1.86-0.355-2.848c0.08-0.805,0.184-1.598,0.349-2.391
			c0.115-0.561,0.266-1.134,0.453-1.681c0.427-1.474,0.964-2.899,1.61-4.261c0.472-0.973,1.029-1.885,1.671-2.734
			c0.321-0.425,0.654-0.825,1.011-1.201c0.961-1.03,2.055-1.876,3.294-2.55c-1.12,1.066-2.046,2.316-2.803,3.763
			c-0.571,1.082-1.032,2.287-1.385,3.591c-0.441,1.621-0.77,3.035-0.987,4.242c-0.16,0.145-0.308,0.303-0.456,0.46
			c-0.739,0.776-1.32,1.65-1.743,2.599c-0.324,0.755-0.5,1.364-0.504,1.84c-0.001,0.183,0.107,0.392,0.3,0.613
			c0.086-0.024,0.172-0.048,0.282-0.096c0.037-0.073,0.163-0.536,0.378-1.377c0.05-0.158,0.1-0.317,0.163-0.475
			c0.047,0.245,0.106,0.501,0.177,0.783c0.237,0.918,0.449,1.787,0.663,2.594C48.381,31.611,48.038,31.633,47.697,31.581z
			 M64.194,64.543c-1.662,1.708-3.259,2.819-4.778,3.344c0.153-0.78,0.27-1.646,0.326-2.574c0.014-0.232,0.019-0.879,0.028-1.929
			c0.013-1.624-0.071-3.322-0.263-5.107c0.241,0.417,0.481,0.847,0.734,1.264c0.784,1.264,1.641,2.468,2.609,3.587
			c0.423,0.492,0.884,0.96,1.356,1.403L64.194,64.543z M67.441,66.206c-1.142-0.681-2.174-1.496-3.094-2.456
			c-1.889-1.982-3.446-4.193-4.696-6.633c-2.163-4.255-4.155-8.607-5.975-13.031c-0.287-0.723-0.587-1.434-0.874-2.144
			c-0.455-1.078-0.898-2.157-1.353-3.235c-0.156-0.392-2.743-9.585-3.047-11.15c-0.035-0.159-0.059-0.294-0.082-0.428
			c0.187-0.389,0.409-0.754,0.656-1.082c1.766-2.428,4.634-3.626,8.615-3.593c0.611,0.005,1.379,0.097,2.318,0.288
			c0.927,0.191,2.171,0.299,3.734,0.311c1.209,0.01,2.334-0.152,3.399-0.461c0.012,0.025,0.024,0.049,0.036,0.074
			c0.418,1.09,0.984,2.096,1.685,3.018c1.281,1.696,2.834,2.881,4.661,3.543c0.816,0.3,1.681,0.49,2.609,0.583
			c1.409,2.43,2.573,4.918,3.493,7.466c1.564,4.36,2.593,8.436,3.075,12.237c0.471,3.606,0.637,7.223,0.497,10.861
			c-0.003,0.354-0.03,0.708-0.045,1.062c-0.518,0.582-1.035,1.152-1.577,1.721c-1.429,1.491-3.027,2.76-4.782,3.808
			c-1.178,0.687-2.438,0.981-3.793,0.86C70.946,67.737,69.119,67.197,67.441,66.206z M73.418,68.563
			c-0.408,0.607-0.791,1.166-1.137,1.676c-0.353-0.137-0.644-0.323-0.862-0.569c-0.303-0.32-0.458-0.675-0.455-1.054
			c0.001-0.11,0.002-0.208,0.015-0.305C71.77,68.525,72.588,68.605,73.418,68.563z M68.377,96.622
			c-0.797-1.167-1.605-2.321-2.439-3.464c-0.942-1.302-1.725-2.689-2.347-4.172c-0.287-0.699-0.428-1.432-0.385-2.189
			c0.074-1.612,0.453-3.147,1.149-4.607c0.621-1.302,1.304-2.652,2.024-4.038c0.732-1.398,1.551-2.93,2.456-4.596
			c0.756-1.398,1.413-2.541,1.982-3.452c0.109,0.135,0.23,0.258,0.376,0.37c-0.074,1.538-0.161,3.235-0.262,5.102
			c-0.114,1.99-0.178,3.797-0.216,5.457c-0.1,0.256-0.2,0.523-0.312,0.803c-1.36,3.604-2.048,5.503-2.049,5.699
			c-0.002,0.244,0.346,0.98,1.057,2.195c0.434,0.736,1.06,1.792,1.904,3.166c0.068,0.648,0.136,1.332,0.215,2.029
			c-0.899,0.933-1.809,1.683-2.754,2.285C68.642,97.015,68.509,96.819,68.377,96.622z M71.179,91.504
			c-0.483-0.737-0.868-1.351-1.145-1.829c-0.723-1.19-1.071-1.902-1.069-2.121c0.003-0.354,0.577-1.864,1.734-4.516
			c-0.015,1.856,0.045,3.469,0.156,4.825C70.931,88.937,71.043,90.159,71.179,91.504z M69.137,97.764
			c0.786-0.519,1.61-1.184,2.483-1.995c0.102,0.953,0.216,1.968,0.329,3.031c-0.516,0.374-1.044,0.7-1.571,0.989
			C69.98,99.102,69.571,98.428,69.137,97.764z M70.995,106.438c-2.198-0.018-3.278-0.869-3.265-2.543
			c-0.023-0.147-0.022-0.281,0.003-0.403c0.063-0.256,0.223-0.377,0.492-0.374c0.098,0.001,0.195,0.038,0.292,0.088
			c0.049,0.037,0.133,0.099,0.267,0.197c0.304,0.186,0.804,0.275,1.512,0.281c0.256,0.002,0.501-0.008,0.733-0.043
			c-0.101,0.402-0.384,0.681-0.825,0.824c-0.282,0.096-0.417,0.253-0.406,0.448c0.743,0.214,1.27,0.023,1.592-0.573
			c0.199-0.377,0.275-0.779,0.23-1.207c-0.102-0.941-0.388-1.835-0.857-2.67c-0.012,0-0.012-0.012-0.012-0.024l-0.024-0.025l0-0.012
			c-0.012-0.012-0.024-0.025-0.024-0.037c0.417-0.228,0.859-0.494,1.301-0.808c0.012-0.012,0.025-0.024,0.037-0.024
			c0,0.024,0,0.049-0.001,0.073c0.263,2.225,0.477,4.4,0.655,6.503C72.168,106.338,71.606,106.443,70.995,106.438z M73.345,108.741
			c-0.382-5.548-0.843-10.387-1.383-14.52c-0.034-0.281-0.069-0.55-0.091-0.819l0.001-0.171c-0.022-0.245-0.033-0.477-0.019-0.672
			c-0.036-0.049-0.072-0.098-0.096-0.147c-0.386-3.557-0.516-7.148-0.412-10.787c0.102-3.504,0.205-7.13,0.309-10.866
			c0.243,0.112,0.523,0.2,0.84,0.263c0.013-0.098,0.038-0.207,0.076-0.305c0.012,0,0.024,0,0.036,0.013
			c0.445-0.656,0.927-1.385,1.459-2.174c0.012-0.012,0.025-0.024,0.037-0.049c-0.09,2.087-0.221,4.578-0.366,7.459
			c-0.288,5.261-0.321,9.352-0.077,12.285c0.221,2.92,0.628,6.844,1.186,11.746c0.57,4.901,0.948,9.497,1.12,13.809
			c0.062,1.393,0.137,2.724,0.224,4.007c-0.792-0.177-1.536-0.367-2.242-0.58C73.793,115.23,73.596,112.394,73.345,108.741z
			 M74.191,120.35c-0.023-0.22-0.045-0.44-0.056-0.66c-0.045-0.464-0.089-1.075-0.144-1.821c0.718,0.238,1.474,0.452,2.242,0.641
			c0.067,0.831,0.133,1.65,0.212,2.432C75.653,120.765,74.897,120.575,74.191,120.35z M90.637,178.871
			c-0.369,0.388-1.607,0.878-3.688,1.508c-1.446,0.562-2.793,1.064-4.079,1.481c-2.461,0.798-4.492,1.196-6.091,1.183
			c-2.161-0.018-3.563-0.346-4.217-0.975c-0.23-0.234-0.375-0.504-0.433-0.809c-0.011-0.098-0.022-0.342-0.019-0.708
			c0.001-0.061,0.001-0.122,0.002-0.183c0,0,0,0,0-0.012c0.014-0.159,0.052-0.317,0.102-0.463c0.023,0.171,0.071,0.33,0.142,0.49
			c0.515,1.299,1.962,1.97,4.319,1.989c1.734,0.014,3.948-0.444,6.642-1.362c1.886-0.631,3.712-1.398,5.502-2.263
			c0.588-0.288,1.3-0.636,2.121-1.02c-0.001,0.122-0.002,0.257,0.009,0.403C90.922,178.434,90.822,178.69,90.637,178.871z
			 M89.632,174.931c-0.012-0.012-0.012-0.025-0.024-0.037c0.111-0.061,0.221-0.12,0.331-0.168c-0.071-0.233-0.155-0.478-0.226-0.735
			c-0.012-0.074-0.035-0.147-0.059-0.22c0.316,0.186,0.582,0.456,0.811,0.825c0.289,0.454,0.457,0.895,0.49,1.311
			c0.022,0.257,0.019,0.623-0.009,1.111c0,0.036-0.001,0.073-0.001,0.11c-0.907,0.456-1.716,0.841-2.415,1.165
			c-4.965,2.291-8.955,3.431-11.972,3.406c-1.954-0.016-3.146-0.526-3.59-1.556c-0.144-0.331-0.202-0.722-0.186-1.174
			c0-0.024,0-0.036,0.013-0.049c0.259-0.279,0.59-0.52,0.995-0.749c0.687-0.386,1.985-0.839,3.87-1.373
			c0.306-0.083,0.6-0.166,0.894-0.249c0.025-0.012,0.049-0.024,0.074-0.024c-0.013,0.049-0.013,0.122-0.014,0.232
			c-0.001,0.086,0.278,0.381,0.848,0.886c0.655,0.567,1.202,0.852,1.642,0.856c0.122,0.001,0.208-0.035,0.257-0.096
			c0.062-0.109,0.111-0.194,0.173-0.267c-1.31-1.073-2.148-1.642-2.538-1.718c0.477-0.155,0.918-0.286,1.31-0.417
			c0.502-0.179,0.931-0.334,1.298-0.478c0.123-0.048,0.233-0.096,0.331-0.144c-0.086,0.061-0.172,0.158-0.259,0.316
			c0.097,0.147,0.449,0.394,1.056,0.729c0.608,0.335,1.034,0.509,1.254,0.511c0.196,0.002,0.318-0.046,0.368-0.156
			c-0.096-0.269-0.411-0.59-0.982-0.936c-0.534-0.346-0.961-0.509-1.266-0.511c-0.036,0-0.061-0.001-0.085,0.012
			c0.012-0.012,0.025-0.012,0.025-0.012c0.025-0.012,0.037-0.012,0.049-0.024c0.318-0.144,0.613-0.3,0.883-0.457
			c0.864,0.325,2.145,0.506,3.83,0.52C87.93,175.381,88.872,175.23,89.632,174.931z M83.665,171.291
			c0.464,0.016,0.977,0.032,1.526,0.037c1.209,0.01,2.345-0.054,3.384-0.18c0.064,1.1,0.203,2.102,0.439,3.02
			c0.024,0.074,0.048,0.147,0.059,0.22c-0.649,0.215-1.432,0.318-2.335,0.311c-1.282-0.01-2.368-0.154-3.257-0.43
			C83.59,173.086,83.647,172.097,83.665,171.291z M83.613,170.228c0.561,0.115,1.134,0.229,1.695,0.332
			c0.171,0.026,0.354,0.064,0.537,0.09c-0.183,0.011-0.366,0.009-0.562,0.008c-0.586-0.005-1.135-0.033-1.648-0.062
			C83.623,170.473,83.612,170.351,83.613,170.228z M116.245,183.478c-0.369,0.388-1.607,0.878-3.688,1.509
			c-1.446,0.562-2.793,1.052-4.079,1.469c-2.461,0.811-4.492,1.209-6.091,1.196c-2.161-0.018-3.563-0.347-4.217-0.975
			c-0.23-0.234-0.375-0.504-0.433-0.81c-0.011-0.11-0.022-0.342-0.019-0.708c0.001-0.061,0.001-0.122,0.002-0.183c0,0,0,0,0-0.012
			c0.014-0.159,0.052-0.317,0.102-0.463c0.023,0.171,0.071,0.33,0.142,0.49c0.515,1.299,1.962,1.97,4.319,1.989
			c1.734,0.014,3.948-0.444,6.642-1.362c1.886-0.632,3.712-1.398,5.502-2.263c0.588-0.288,1.3-0.636,2.121-1.021
			c-0.001,0.122-0.002,0.257,0.009,0.403C116.53,183.053,116.43,183.296,116.245,183.478z M115.24,179.537
			c-0.012-0.012-0.012-0.025-0.024-0.037c0.111-0.06,0.221-0.12,0.331-0.168c-0.071-0.232-0.155-0.478-0.226-0.735
			c-0.012-0.073-0.035-0.147-0.059-0.221c0.316,0.186,0.582,0.457,0.811,0.825c0.289,0.454,0.457,0.895,0.49,1.311
			c0.022,0.257,0.019,0.623-0.009,1.111c0,0.037-0.001,0.086-0.001,0.11c-0.907,0.456-1.716,0.841-2.415,1.177
			c-4.964,2.28-8.955,3.419-11.971,3.394c-1.954-0.016-3.146-0.539-3.59-1.556c-0.144-0.331-0.202-0.722-0.186-1.174
			c0-0.024,0-0.036,0.013-0.049c0.259-0.279,0.59-0.52,0.995-0.737c0.687-0.397,1.985-0.851,3.87-1.373
			c0.306-0.095,0.6-0.178,0.894-0.262c0.025-0.012,0.049-0.024,0.074-0.024c-0.013,0.049-0.013,0.122-0.014,0.232
			c-0.001,0.086,0.278,0.381,0.848,0.887c0.655,0.567,1.202,0.852,1.642,0.856c0.122,0.001,0.208-0.035,0.257-0.096
			c0.062-0.097,0.111-0.194,0.173-0.267c-1.31-1.061-2.148-1.642-2.538-1.718c0.477-0.155,0.918-0.286,1.31-0.417
			c0.502-0.179,0.931-0.334,1.298-0.478c0.11-0.048,0.233-0.096,0.331-0.144c-0.086,0.06-0.172,0.157-0.259,0.315
			c0.097,0.147,0.449,0.395,1.056,0.729c0.608,0.335,1.034,0.509,1.254,0.511c0.196,0.002,0.318-0.046,0.368-0.156
			c-0.096-0.269-0.411-0.59-0.982-0.936c-0.534-0.346-0.961-0.509-1.266-0.511c-0.036,0-0.061,0-0.085,0.012
			c0.012-0.012,0.025-0.012,0.025-0.012c0.025-0.012,0.037-0.012,0.049-0.024c0.318-0.144,0.613-0.3,0.883-0.457
			c0.864,0.325,2.145,0.506,3.83,0.52C113.538,179.987,114.48,179.836,115.24,179.537z M109.273,175.898
			c0.464,0.016,0.977,0.032,1.526,0.037c1.209,0.01,2.345-0.054,3.384-0.18c0.064,1.1,0.203,2.102,0.439,3.02
			c0.024,0.074,0.048,0.147,0.059,0.22c-0.649,0.214-1.432,0.318-2.335,0.311c-1.282-0.011-2.368-0.154-3.257-0.43
			C109.198,177.692,109.255,176.704,109.273,175.898z M109.188,174.431c0.501,0.017,1.038,0.033,1.624,0.038
			c1.197,0.01,2.321-0.054,3.36-0.168c-0.002,0.208-0.004,0.464-0.006,0.77c-1.015,0.138-2.102,0.202-3.274,0.193
			c-0.586-0.005-1.135-0.033-1.648-0.062C109.22,174.933,109.21,174.676,109.188,174.431z M114.181,173.105
			c-0.001,0.159-0.003,0.318-0.004,0.501c-1.027,0.138-2.114,0.203-3.274,0.193c-0.635-0.005-1.221-0.034-1.758-0.076
			c-0.01-0.232-0.021-0.452-0.031-0.659c-0.033-0.452-0.042-0.831-0.052-1.149c-0.011-0.11-0.023-0.22-0.034-0.342
			c1.723-0.059,3.457-0.143,5.192-0.251C114.204,171.762,114.187,172.36,114.181,173.105z M128.187,165.855
			c0.118,0.514,0.248,1.016,0.366,1.505c-0.392,0.143-0.784,0.299-1.189,0.442c-4.091,1.48-8.165,2.4-12.259,2.77
			c-3.446,0.277-6.891,0.419-10.36,0.44c-10.161,0.125-17.96-0.477-23.372-1.791c-4.644-1.137-8.393-2.572-11.237-4.305
			c0.24-0.938,0.504-1.925,0.794-2.973c0-0.013,0-0.024,0.013-0.049c0.061,0.037,0.122,0.074,0.195,0.111
			c0.875,0.471,1.937,0.529,3.161,0.173c1.236-0.344,2.261-0.25,3.1,0.282c0.838,0.544,1.493,1.148,1.951,1.811
			c0.459,0.663,1.506,1.014,3.167,1.039c1.014,0.021,2.028-0.032,3.042-0.158c0.305-0.022,0.623-0.007,0.94,0.069
			c0.902,0.191,1.73,0.515,2.508,0.998c1.009,0.619,2.092,1.043,3.25,1.26c0.756,0.153,1.526,0.123,2.297-0.066
			c0.44-0.106,0.869-0.261,1.286-0.453c0.576-0.264,1.188-0.369,1.847-0.339c0.11,0.013,0.232,0.026,0.354,0.039
			c0.378,0.028,0.756,0.08,1.122,0.144c0.427,0.065,0.049,0.013-1.122-0.144c3.239,1.187,5.423,1.363,6.541,0.506
			c1.106-0.846,1.794-1.292,2.05-1.302c0.745-0.018,1.464,0.159,2.145,0.518c0.256,0.124,0.511,0.212,0.792,0.263
			c1.585,0.318,3.065,0.062,4.427-0.794c0.393-0.253,0.822-0.421,1.274-0.527c1.358-0.257,2.688-0.149,3.991,0.338
			c0.292,0.088,0.597,0.164,0.902,0.191c1.122,0.193,2.026,0.139,2.688-0.161c0.674-0.324,1.276-0.734,1.83-1.267
			c0.542-0.521,1.179-0.845,1.876-0.962c0.355-0.046,0.697-0.08,1.039-0.113C127.797,164.216,127.986,165.06,128.187,165.855z
			 M123.83,140.125c0.413,3.228,0.689,5.318,0.804,6.259c0.102,0.953,0.532,3.619,1.253,7.997c0.512,3.069,1.039,5.858,1.592,8.391
			c-0.379,0.021-0.709,0.055-1.014,0.089c-0.636,0.093-1.249,0.344-1.814,0.73c-0.577,0.398-1.056,0.749-1.449,1.039
			c-0.8,0.812-1.95,0.997-3.424,0.558c-1.486-0.439-2.51-0.656-3.084-0.648c-1.466,0.025-2.8,0.429-4.04,1.2
			c-0.184,0.12-0.38,0.205-0.6,0.252c-1.407,0.318-2.749,0.136-4.001-0.57c-0.255-0.149-0.535-0.224-0.841-0.227
			c-0.953-0.008-1.601,0.182-1.947,0.595c-0.358,0.425-0.922,0.786-1.719,1.097c-0.796,0.311-1.785,0.242-2.966-0.208
			c-1.169-0.449-1.912-0.675-2.193-0.702c-1.33-0.133-2.59,0.076-3.779,0.641c-0.466,0.228-0.968,0.334-1.48,0.342
			c-0.916,0.004-1.757-0.246-2.522-0.741c-1.142-0.742-2.346-1.277-3.626-1.617c-0.865-0.227-1.744-0.258-2.637-0.082
			c-1.566,0.329-3.029,0.109-4.391-0.647c-0.17-0.099-0.316-0.223-0.449-0.358c-0.266-0.32-0.532-0.664-0.786-0.984
			c-0.085-0.123-0.193-0.221-0.327-0.308c-1.3-0.865-2.69-1.072-4.184-0.632c-1.151,0.345-2.188,0.239-3.099-0.331
			c0.264-0.963,0.541-1.962,0.831-3.022c1.208-4.326,2.04-7.457,2.507-9.383c0.796-3.266,1.395-6.302,1.772-9.096
			c0.454-3.281,0.69-6.65,0.718-10.143c0.006-0.708-0.033-1.942-0.129-3.701c-0.095-1.808-0.159-2.908-0.18-3.311
			c0.015-0.318,0.017-0.635,0.02-0.928c0.536,0.127,1.097,0.241,1.67,0.343c2.561,0.449,5.82,0.695,9.788,0.728
			c4.53,0.037,9.016-0.329,13.479-1.074c5.711-0.979,11.831-2.651,18.372-5.015c0.808-0.299,1.667-0.682,2.586-1.163
			c-0.006,0.77,0.011,1.588,0.028,2.467c-0.025,3.041,0.015,5.618,0.132,7.731c0.107,1.87,0.212,3.946,0.316,6.207
			C123.134,134.16,123.405,136.91,123.83,140.125z M125.296,113.234c-1.743,1.109-3.522,2.022-5.335,2.704
			c-4.668,1.794-9.54,3.231-14.617,4.289c-6.043,1.281-11.776,1.894-17.186,1.85c-4.323-0.035-8.045-0.371-11.141-1.007
			c-0.034-0.33-0.056-0.647-0.077-0.99c-0.034-0.391-0.078-0.868-0.11-1.442c0.329,0.076,0.683,0.14,1.024,0.203
			c2.561,0.449,5.82,0.695,9.788,0.728c4.53,0.037,9.015-0.329,13.479-1.074c5.711-0.979,11.831-2.651,18.372-5.015
			c1.641-0.597,3.493-1.571,5.556-2.934C125.151,111.535,125.23,112.427,125.296,113.234z M134.781,70.58
			c-3.742-0.849-7.498-1.588-11.266-2.229c-0.634-0.091-1.256-0.181-1.879-0.272c-0.866-0.117-1.732-0.246-2.598-0.351
			c-2.757-0.364-5.514-0.705-8.284-1.02c-1.708-0.222-3.404-0.345-5.114-0.372c-0.098-0.001-0.195-0.002-0.293-0.002
			c-0.146,0.011-0.293,0.022-0.44,0.021c-0.098,0.011-0.184,0.023-0.281,0.034l0.069,0.514c0.597,0.139,1.207,0.23,1.83,0.235
			c0.232,0.014,0.464,0.016,0.696,0.006c1.062,0.07,2.136,0.14,3.234,0.246c0.29,0.43,0.579,0.872,0.868,1.326
			c-1.513-0.134-2.856-0.206-4.041-0.216c-0.122-0.025-0.183-0.038-0.183-0.05c0.012,0.025,0.024,0.086,0.023,0.183
			c-0.001,0.134,0.011,0.183,0.035,0.183c0.012-0.012,0.025-0.024,0.025-0.061c0.477-0.057,1.953,0.065,4.406,0.366
			c0.784,1.228,1.555,2.504,2.301,3.841c2.01,3.558,3.703,7.113,5.078,10.654c1.388,3.541,2.566,7.251,3.572,11.143
			c0.994,3.879,1.751,8.355,2.271,13.44c0.068,0.611,0.125,1.198,0.181,1.748c-1.793,1.17-3.632,2.107-5.494,2.813
			c-4.668,1.794-9.54,3.231-14.617,4.289c-6.043,1.282-11.776,1.894-17.185,1.85c-4.225-0.035-7.862-0.358-10.922-0.969
			c-0.154-2.029-0.362-4.961-0.624-8.798c-0.382-5.548-0.843-10.387-1.383-14.519c-0.528-4.144-0.738-8.335-0.617-12.596
			c0.12-4.249,0.242-8.669,0.365-13.26c0.001-0.098,0.002-0.183,0.015-0.281c0.656,0.384,1.446,0.83,2.37,1.363
			c0.024,0.025,0.049,0.049,0.073,0.086c0.171,0.075,0.328,0.198,0.461,0.334c1.238-0.564,2.49-1.421,3.77-2.558
			c1.784-1.61,3.535-3.708,5.266-6.32c0.788-0.702,1.624-1.464,2.485-2.263c2.338-2.179,4.25-4.447,5.747-6.816
			c0.596,0.274,1.131,0.571,1.617,0.905c1.47,0.977,3.169,2.236,5.074,3.754c1.044,0.827,2.122,1.837,3.248,3.043
			c0.024,0.025,0.048,0.049,0.073,0.074c-0.049,0-0.098-0.013-0.134-0.013c-1.708-0.222-3.404-0.345-5.114-0.372
			c-0.098-0.001-0.196-0.002-0.293-0.002c-0.147,0.011-0.293,0.022-0.44,0.021c-0.098,0.011-0.183,0.023-0.281,0.034l0.069,0.513
			c0.597,0.139,1.207,0.23,1.83,0.235c0.232,0.014,0.464,0.016,0.696,0.006c2.075,0.127,4.211,0.315,6.431,0.553
			c2.208,0.25,3.977,0.472,5.307,0.691c1.501,0.195,3.001,0.415,4.501,0.672c0.683,0.115,1.366,0.219,2.049,0.31
			c3.05,0.404,6.049,0.99,8.998,1.735c0.707,0.189,1.414,0.366,2.133,0.53c1.962,0.468,3.925,0.936,5.899,1.428
			c-0.702,0.69-1.161,1.529-1.389,2.516C134.839,69.482,134.773,70.031,134.781,70.58z M136.975,71.087
			c-0.524-0.126-1.048-0.241-1.56-0.367c0.049-1.551,0.573-2.914,1.572-4.078c0.012-0.024,0.037-0.049,0.061-0.061
			c0.524,0.126,1.048,0.253,1.572,0.391c0.037,0,0.073,0.013,0.11,0.025c-0.012,0.012-0.025,0.024-0.037,0.036
			c-0.775,0.726-1.283,1.601-1.524,2.65C137.056,70.159,136.991,70.623,136.975,71.087z M144.336,72.954
			c-0.233,0.169-0.613,0.325-1.103,0.479c-0.048-0.159-0.083-0.306-0.118-0.465c-0.023-0.122,0.014-0.232,0.113-0.317
			c0.476-0.02,0.965-0.004,1.453,0.024C144.569,72.785,144.446,72.882,144.336,72.954z M150.531,72.468
			c-0.564,0.24-1.163,0.308-1.821,0.168c-0.585-0.115-1.158-0.242-1.731-0.356c-1.134-0.217-2.281-0.312-3.442-0.297
			c-0.586,0.044-0.919,0.347-0.996,0.883c-0.051,0.293,0.008,0.562,0.177,0.808c0.181,0.258,0.252,0.527,0.225,0.832
			c-0.513,0.069-0.905,0.139-1.198,0.173c-0.281,0.047-0.841-0.227-1.679-0.82c-0.838-0.593-1.478-1.502-1.919-2.727
			c-0.143-0.392-0.263-0.735-0.358-1.029c0.228-0.987,0.687-1.9,1.39-2.712c0.025-0.036,0.062-0.073,0.099-0.097
			c0.11-0.036,0.245-0.059,0.367-0.082c0.501-0.081,1.124-0.113,1.894-0.107c1.807,0.015,3.026,0.306,3.632,0.872
			c0.303,0.283,0.458,0.688,0.503,1.238c-0.524-0.151-1.048-0.277-1.585-0.379l-0.101,0.414c1.523,0.403,3.009,0.941,4.493,1.624
			c0.669,0.311,1.301,0.707,1.896,1.164C150.509,72.15,150.569,72.297,150.531,72.468z"/>
		<path fill="#C372AD" d="M130.468,64.817c-0.719-0.165-1.426-0.341-2.133-0.53c-2.949-0.745-5.949-1.331-8.998-1.735
			c-0.683-0.091-1.366-0.194-2.049-0.31c-1.5-0.256-3-0.476-4.501-0.672c-1.329-0.218-3.098-0.441-5.307-0.691
			c-2.22-0.238-4.356-0.426-6.431-0.553c-0.232,0.01-0.464,0.008-0.696-0.006c-0.623-0.005-1.233-0.096-1.83-0.235l-0.069-0.513
			c0.098-0.011,0.183-0.023,0.281-0.034c0.147,0.001,0.293-0.01,0.44-0.021c0.098,0.001,0.195,0.002,0.293,0.002
			c1.709,0.026,3.406,0.15,5.114,0.372l0.062-0.061c-1.126-1.206-2.205-2.216-3.248-3.043c-1.905-1.518-3.604-2.777-5.074-3.754
			c-0.486-0.334-1.02-0.631-1.617-0.905c-1.497,2.369-3.409,4.637-5.747,6.816c-0.861,0.799-1.698,1.562-2.485,2.263
			c-1.731,2.611-3.482,4.71-5.266,6.32c-1.279,1.137-2.532,1.994-3.77,2.558c-0.133-0.135-0.291-0.259-0.461-0.334
			c-0.024-0.037-0.048-0.062-0.073-0.086c-0.924-0.533-1.714-0.979-2.37-1.363c-0.013,0.098-0.014,0.183-0.015,0.281
			c-0.123,4.591-0.245,9.011-0.365,13.26c-0.12,4.261,0.09,8.452,0.617,12.596c0.54,4.132,1.001,8.972,1.383,14.519
			c0.262,3.837,0.47,6.77,0.624,8.798c3.06,0.611,6.697,0.934,10.922,0.969c5.41,0.044,11.142-0.568,17.185-1.85
			c5.077-1.057,9.949-2.495,14.617-4.289c1.862-0.705,3.702-1.643,5.494-2.813c-0.057-0.55-0.113-1.137-0.181-1.748
			c-0.52-5.085-1.277-9.561-2.271-13.44c-1.006-3.892-2.185-7.602-3.572-11.143c-1.375-3.541-3.068-7.096-5.078-10.654
			c-0.746-1.337-1.517-2.614-2.301-3.841c-2.452-0.301-3.929-0.423-4.406-0.366c0,0.037-0.013,0.049-0.025,0.061
			c-0.024,0-0.036-0.049-0.035-0.183c0.001-0.098-0.011-0.159-0.023-0.183c0,0.012,0.061,0.025,0.183,0.05
			c1.184,0.01,2.527,0.082,4.041,0.216c-0.289-0.454-0.579-0.896-0.868-1.326c-1.098-0.107-2.172-0.177-3.234-0.246
			c-0.232,0.01-0.464,0.008-0.696-0.006c-0.623-0.005-1.233-0.096-1.83-0.235l-0.069-0.514c0.098-0.011,0.183-0.023,0.281-0.034
			c0.146,0.001,0.293-0.01,0.44-0.021c0.098,0.001,0.196,0.002,0.293,0.002c1.71,0.026,3.406,0.15,5.114,0.372
			c2.769,0.316,5.526,0.656,8.284,1.02c0.866,0.105,1.732,0.234,2.598,0.351c0.622,0.091,1.244,0.181,1.879,0.272
			c3.768,0.641,7.524,1.381,11.266,2.229c-0.008-0.55,0.058-1.099,0.197-1.647c0.228-0.987,0.687-1.826,1.389-2.516
			C134.393,65.753,132.431,65.285,130.468,64.817z M75.517,71.804c0.173-0.243,0.418-0.363,0.723-0.36
			c0.379,0.003,0.646,0.164,0.79,0.471c0.084,0.147,0.119,0.306,0.118,0.453c-0.002,0.195-0.064,0.378-0.188,0.548
			c-0.173,0.243-0.418,0.363-0.736,0.36c-0.366-0.003-0.621-0.152-0.778-0.458l-0.118-0.465
			C75.33,72.169,75.393,71.986,75.517,71.804z M75.02,81.729l-0.13-0.465c0.002-0.183,0.064-0.366,0.2-0.548
			c0.173-0.243,0.418-0.363,0.724-0.361c0.378,0.003,0.634,0.164,0.778,0.47c0.084,0.147,0.12,0.306,0.119,0.453
			c-0.002,0.195-0.064,0.378-0.188,0.548c-0.173,0.243-0.406,0.363-0.723,0.36C75.432,82.184,75.164,82.035,75.02,81.729z
			 M75.547,90.404c-0.071-0.306-0.118-0.453-0.118-0.465c0.002-0.183,0.064-0.366,0.187-0.536c0.173-0.255,0.406-0.375,0.724-0.373
			c0.378,0.003,0.646,0.152,0.79,0.446c0.084,0.16,0.12,0.319,0.118,0.477c-0.002,0.207-0.064,0.39-0.188,0.56
			c-0.161,0.231-0.406,0.351-0.735,0.348C75.959,90.859,75.704,90.71,75.547,90.404z M76.19,99.935
			c-0.083-0.306-0.119-0.453-0.118-0.465c0.002-0.183,0.064-0.366,0.188-0.536c0.185-0.255,0.418-0.375,0.736-0.373
			c0.379,0.003,0.646,0.152,0.79,0.446c0.084,0.16,0.119,0.318,0.118,0.477c-0.002,0.208-0.064,0.391-0.188,0.56
			c-0.161,0.231-0.406,0.351-0.736,0.348C76.601,100.39,76.346,100.241,76.19,99.935z M78.61,110.054
			c-0.173,0.243-0.418,0.363-0.736,0.36c-0.379-0.003-0.634-0.152-0.79-0.459l-0.118-0.465c0.002-0.183,0.064-0.366,0.188-0.548
			c0.173-0.242,0.418-0.363,0.736-0.36c0.379,0.003,0.646,0.164,0.79,0.47c0.084,0.147,0.12,0.306,0.119,0.453
			C78.796,109.701,78.734,109.884,78.61,110.054z"/>
		<path d="M76.224,73.447c0.317,0.003,0.563-0.118,0.736-0.36c0.124-0.17,0.186-0.353,0.188-0.548
			c0.001-0.147-0.034-0.306-0.118-0.453c-0.144-0.306-0.412-0.467-0.79-0.471c-0.305-0.003-0.55,0.118-0.723,0.36
			c-0.124,0.182-0.186,0.365-0.188,0.548l0.118,0.465C75.602,73.295,75.857,73.444,76.224,73.447z M75.636,72.159
			c0.124-0.158,0.283-0.242,0.491-0.24c0.379,0.003,0.584,0.212,0.606,0.616c-0.001,0.134-0.039,0.256-0.125,0.365
			c-0.111,0.17-0.271,0.242-0.49,0.24c-0.232-0.002-0.414-0.101-0.51-0.285c-0.06-0.111-0.096-0.221-0.095-0.331
			C75.512,72.403,75.562,72.281,75.636,72.159z"/>
		<path fill="#F287B7" d="M76.116,73.14c0.22,0.002,0.379-0.07,0.49-0.24c0.087-0.109,0.124-0.231,0.125-0.365
			c-0.021-0.403-0.227-0.612-0.606-0.616c-0.207-0.002-0.367,0.082-0.491,0.24c-0.074,0.122-0.124,0.243-0.125,0.365
			c-0.001,0.11,0.035,0.22,0.095,0.331C75.702,73.039,75.884,73.139,76.116,73.14z"/>
		<path d="M76.52,81.998c0.124-0.17,0.186-0.353,0.188-0.548c0.001-0.147-0.034-0.306-0.119-0.453
			c-0.144-0.306-0.399-0.467-0.778-0.47c-0.305-0.003-0.551,0.118-0.724,0.361c-0.136,0.182-0.198,0.365-0.2,0.548l0.13,0.465
			c0.144,0.306,0.412,0.455,0.778,0.458C76.114,82.361,76.347,82.24,76.52,81.998z M75.166,81.754
			c-0.059-0.208-0.095-0.306-0.095-0.318c0.001-0.122,0.051-0.244,0.125-0.365c0.123-0.158,0.283-0.242,0.49-0.24
			c0.379,0.003,0.584,0.212,0.606,0.603c-0.001,0.134-0.039,0.268-0.125,0.378c-0.111,0.17-0.271,0.242-0.49,0.24
			C75.445,82.05,75.262,81.951,75.166,81.754z"/>
		<path fill="#F287B7" d="M76.167,81.812c0.087-0.109,0.124-0.243,0.125-0.378c-0.021-0.391-0.227-0.6-0.606-0.603
			c-0.207-0.002-0.367,0.083-0.49,0.24c-0.074,0.122-0.124,0.243-0.125,0.365c0,0.012,0.036,0.11,0.095,0.318
			c0.096,0.196,0.278,0.295,0.51,0.297C75.897,82.054,76.056,81.982,76.167,81.812z"/>
		<path d="M77.059,90.685c0.124-0.17,0.186-0.353,0.188-0.56c0.001-0.159-0.034-0.318-0.118-0.477
			c-0.144-0.294-0.412-0.443-0.79-0.446c-0.317-0.003-0.551,0.118-0.724,0.373c-0.124,0.17-0.186,0.353-0.187,0.536
			c0,0.012,0.047,0.159,0.118,0.465c0.156,0.307,0.412,0.455,0.778,0.458C76.654,91.036,76.899,90.916,77.059,90.685z
			 M75.706,90.491c-0.059-0.208-0.095-0.306-0.095-0.319c0.001-0.122,0.051-0.243,0.125-0.365c0.123-0.158,0.283-0.242,0.49-0.24
			c0.379,0.003,0.584,0.213,0.606,0.604c-0.001,0.134-0.039,0.268-0.125,0.378c-0.111,0.17-0.271,0.242-0.49,0.24
			C75.984,90.786,75.814,90.687,75.706,90.491z"/>
		<path fill="#F287B7" d="M76.706,90.548c0.087-0.11,0.124-0.243,0.125-0.378c-0.021-0.391-0.227-0.601-0.606-0.604
			c-0.207-0.002-0.367,0.083-0.49,0.24c-0.074,0.122-0.124,0.243-0.125,0.365c0,0.013,0.036,0.11,0.095,0.319
			c0.108,0.196,0.278,0.295,0.51,0.297C76.436,90.79,76.595,90.718,76.706,90.548z"/>
		<path d="M77.714,100.216c0.123-0.17,0.186-0.352,0.188-0.56c0.001-0.159-0.034-0.318-0.118-0.477
			c-0.144-0.294-0.412-0.443-0.79-0.446c-0.318-0.003-0.55,0.118-0.736,0.373c-0.124,0.17-0.186,0.353-0.188,0.536
			c0,0.013,0.035,0.159,0.118,0.465c0.156,0.307,0.412,0.455,0.79,0.458C77.308,100.567,77.553,100.447,77.714,100.216z
			 M77.361,100.079c-0.111,0.17-0.271,0.242-0.49,0.24c-0.232-0.002-0.402-0.101-0.511-0.298c-0.059-0.208-0.095-0.306-0.095-0.318
			c0.001-0.122,0.051-0.244,0.125-0.366c0.124-0.158,0.283-0.242,0.491-0.24c0.378,0.003,0.584,0.212,0.606,0.603
			C77.485,99.836,77.447,99.97,77.361,100.079z"/>
		<path fill="#F287B7" d="M76.881,99.098c-0.208-0.002-0.367,0.082-0.491,0.24c-0.074,0.122-0.124,0.243-0.125,0.366
			c0,0.012,0.036,0.11,0.095,0.318c0.108,0.196,0.278,0.296,0.511,0.298c0.22,0.002,0.379-0.07,0.49-0.24
			c0.087-0.109,0.124-0.243,0.125-0.378C77.465,99.31,77.259,99.101,76.881,99.098z"/>
		<path d="M77.888,108.754c-0.317-0.003-0.563,0.118-0.736,0.36c-0.123,0.182-0.186,0.365-0.188,0.548l0.118,0.465
			c0.156,0.307,0.411,0.455,0.79,0.459c0.318,0.003,0.563-0.118,0.736-0.36c0.123-0.17,0.186-0.353,0.188-0.548
			c0.001-0.147-0.034-0.306-0.119-0.453C78.534,108.918,78.267,108.757,77.888,108.754z M78.256,110.039
			c-0.111,0.17-0.271,0.242-0.491,0.24c-0.232-0.002-0.402-0.101-0.51-0.298c-0.059-0.208-0.095-0.306-0.095-0.318
			c0.001-0.122,0.051-0.244,0.125-0.365c0.124-0.158,0.283-0.242,0.49-0.24c0.391,0.003,0.597,0.212,0.606,0.603
			C78.38,109.796,78.343,109.93,78.256,110.039z"/>
		<path fill="#F287B7" d="M77.776,109.058c-0.207-0.002-0.367,0.082-0.49,0.24c-0.074,0.121-0.124,0.243-0.125,0.365
			c0,0.012,0.036,0.11,0.095,0.318c0.108,0.196,0.278,0.296,0.51,0.298c0.22,0.002,0.379-0.07,0.491-0.24
			c0.087-0.109,0.124-0.243,0.125-0.377C78.372,109.271,78.167,109.061,77.776,109.058z"/>
		<path fill="#FEFAD6" d="M138.62,66.972c-0.524-0.139-1.048-0.265-1.572-0.391c-0.024,0.012-0.049,0.036-0.061,0.061
			c-0.999,1.164-1.523,2.528-1.572,4.078c0.512,0.126,1.036,0.24,1.56,0.367c0.016-0.464,0.081-0.927,0.195-1.403
			c0.241-1.048,0.749-1.923,1.524-2.65L138.62,66.972z"/>
		<path fill="#FED09E" d="M150.376,72.039c-0.595-0.457-1.226-0.853-1.896-1.164c-1.484-0.684-2.97-1.221-4.493-1.624l0.101-0.414
			c0.537,0.102,1.061,0.228,1.585,0.379c-0.044-0.55-0.2-0.954-0.503-1.238c-0.606-0.567-1.825-0.858-3.632-0.872
			c-0.77-0.006-1.393,0.025-1.894,0.107c-0.122,0.023-0.257,0.047-0.367,0.082c-0.037,0.024-0.074,0.061-0.099,0.097
			c-0.703,0.812-1.162,1.725-1.39,2.712c0.095,0.294,0.215,0.637,0.358,1.029c0.442,1.225,1.081,2.134,1.919,2.727
			c0.838,0.593,1.398,0.866,1.679,0.82c0.293-0.034,0.685-0.104,1.198-0.173c0.027-0.305-0.044-0.574-0.225-0.832
			c-0.169-0.246-0.228-0.515-0.177-0.808c0.078-0.537,0.41-0.839,0.996-0.883c1.16-0.015,2.307,0.08,3.442,0.297
			c0.573,0.115,1.146,0.241,1.731,0.356c0.658,0.14,1.257,0.071,1.821-0.168C150.569,72.297,150.509,72.15,150.376,72.039z"/>
		<path fill="#FED09E" d="M143.227,72.652c-0.098,0.085-0.136,0.194-0.113,0.317c0.035,0.159,0.071,0.306,0.118,0.465
			c0.49-0.155,0.87-0.31,1.103-0.479c0.111-0.072,0.234-0.169,0.344-0.278C144.192,72.648,143.703,72.632,143.227,72.652z"/>
		<path fill="#FCDA00" d="M52.447,16.782c-1.201,2.017-2.027,4.477-2.491,7.38c1.979-1.62,4.526-2.405,7.652-2.38
			c0.659,0.005,1.489,0.098,2.489,0.289c1,0.191,2.196,0.299,3.6,0.311c2.271,0.019,4.119-0.467,5.556-1.445
			c0.43-0.302,0.836-0.653,1.193-1.053c0.185-0.194,0.345-0.388,0.493-0.558c0.11,0.025,0.171,0.05,0.207,0.075
			c0.073,0.049,0.096,0.135,0.095,0.257c-0.002,0.232-0.187,0.524-0.545,0.899c-0.394,0.4-0.91,0.774-1.548,1.135
			c-0.491,0.265-0.993,0.505-1.508,0.696c0.335,0.809,0.732,1.557,1.19,2.257c1.231,1.854,2.759,3.137,4.597,3.86
			c0.669,0.274,1.388,0.463,2.145,0.567l0-0.012c0.024,0,0.037,0,0.049-0.012c0.085,0.013,0.158,0.026,0.244,0.026
			c0.134,0.001,0.269-0.022,0.379-0.046c3.251,5.644,5.449,11.658,6.593,18.055c0.607,3.363,0.934,6.749,0.979,10.156
			c0.02,1.991-0.094,3.956-0.354,5.896c2.323-1.874,4.427-3.737,6.299-5.578c2.511-2.471,4.501-5.349,5.969-8.634
			c1.456-3.298,1.298-7.83-0.487-13.621c-1.784-5.779-5.413-11.597-10.897-17.467c-5.484-5.858-11.286-8.739-17.417-8.618
			c3.469-0.155,3.164-0.17-0.928-0.032c-4.08,0.15-7.633,1.501-10.634,4.077C54.226,14.232,53.252,15.409,52.447,16.782z"/>
		<path fill="#FCDA00" d="M47.859,28.175c-0.062,0.158-0.113,0.317-0.163,0.475c-0.214,0.841-0.34,1.304-0.378,1.377
			c-0.11,0.048-0.196,0.072-0.282,0.096c-0.193-0.221-0.302-0.43-0.3-0.613c0.004-0.476,0.18-1.085,0.504-1.84
			c0.423-0.949,1.004-1.824,1.743-2.599c0.148-0.158,0.296-0.315,0.456-0.46c0.217-1.207,0.546-2.621,0.987-4.242
			c0.353-1.304,0.814-2.509,1.385-3.591c0.757-1.447,1.683-2.697,2.803-3.763c-1.239,0.674-2.333,1.52-3.294,2.55
			c-0.357,0.376-0.69,0.776-1.011,1.201c-0.642,0.85-1.199,1.761-1.671,2.734c-0.646,1.362-1.183,2.787-1.61,4.261
			c-0.188,0.548-0.339,1.121-0.453,1.681c-0.165,0.792-0.269,1.585-0.349,2.391c-0.081,0.988,0.033,1.93,0.355,2.848
			c0.191,0.527,0.555,0.835,1.116,0.901c0.342,0.052,0.684,0.03,1.002-0.028c-0.213-0.808-0.426-1.677-0.663-2.594
			C47.965,28.677,47.906,28.42,47.859,28.175z"/>
		<path fill="#FED09E" d="M76.692,66.966c1.755-1.048,3.353-2.317,4.782-3.808c0.542-0.57,1.059-1.139,1.577-1.721
			c0.015-0.354,0.043-0.708,0.045-1.062c0.14-3.638-0.026-7.254-0.497-10.861c-0.482-3.802-1.511-7.877-3.075-12.237
			c-0.919-2.548-2.084-5.036-3.493-7.466c-0.927-0.093-1.793-0.283-2.609-0.583c-1.826-0.662-3.38-1.847-4.661-3.543
			c-0.701-0.922-1.267-1.928-1.685-3.018c-0.012-0.025-0.024-0.049-0.036-0.074c-1.065,0.309-2.19,0.471-3.399,0.461
			c-1.563-0.013-2.808-0.121-3.734-0.311c-0.939-0.191-1.707-0.283-2.318-0.288c-3.981-0.033-6.849,1.165-8.615,3.593
			c-0.247,0.328-0.47,0.692-0.656,1.082c0.023,0.135,0.047,0.269,0.082,0.428c0.305,1.566,2.892,10.758,3.047,11.15
			c0.455,1.078,0.898,2.157,1.353,3.235c0.287,0.711,0.587,1.421,0.874,2.144c1.82,4.424,3.812,8.775,5.975,13.031
			c1.25,2.44,2.807,4.651,4.696,6.633c0.92,0.96,1.952,1.775,3.094,2.456c1.677,0.991,3.505,1.531,5.458,1.62
			C74.254,67.947,75.514,67.652,76.692,66.966z M78.561,57.968c-0.094-0.367-0.142-0.563-0.142-0.575
			c0.001-0.085,0.05-0.183,0.148-0.255c0.264,0.601,0.408,0.944,0.419,1.029c0.024,0.073,0.034,0.354,0.03,0.831
			c-0.004,0.525-0.031,0.843-0.057,0.952c-0.075,0.244-0.286,0.608-0.668,1.094c-0.097-0.037-0.145-0.111-0.145-0.221
			c0,0,0.087-0.219,0.274-0.645c0.187-0.438,0.288-0.828,0.291-1.195C78.714,58.666,78.668,58.336,78.561,57.968z M57.453,46.694
			c-0.293-0.002-0.708-1.581-1.256-4.724c0-0.061-0.011-0.122-0.023-0.183c-0.292-1.627-0.523-3.277-0.705-4.927
			c0.002-0.183,0.015-0.293,0.039-0.342c0.037-0.061,0.135-0.097,0.269-0.095c0.11,0.001,0.229,0.368,0.345,1.09
			c0.047,0.281,0.174,1.162,0.382,2.629c0.08,0.66,0.173,1.271,0.266,1.834c0.163,0.966,0.315,1.798,0.48,2.483
			c0.036,0.061,0.072,0.135,0.133,0.221c-0.012,0.012-0.025,0.024-0.025,0.049l-0.037,0.024c0.13,0.514,0.261,0.942,0.393,1.273
			c0.232-0.059,0.539-0.264,0.897-0.64c0.382-0.375,0.64-0.593,0.762-0.629c0.061,0.013,0.122,0.05,0.207,0.075
			c0.073,0.05,0.06,0.159-0.027,0.354c-0.099,0.182-0.395,0.485-0.899,0.896C58.138,46.492,57.734,46.697,57.453,46.694z
			 M66.828,65.016c-1.337-0.731-2.502-1.669-3.518-2.813c-1.04-1.181-1.909-2.495-2.593-3.941c-0.36-0.748-0.721-1.508-1.093-2.268
			c-0.492-1.018-0.643-2.045-0.426-3.105c0.423-0.986,1.004-1.848,1.731-2.587c1.109-1.151,2.362-2.093,3.76-2.815
			c1.398-0.721,2.853-0.929,4.401-0.599c1.646,0.355,3.007,1.185,4.095,2.476c0.859,1.033,1.631,2.126,2.318,3.292
			c0.012,0,0.024,0.012,0.037,0.013c0.012,0.037,0.024,0.073,0.036,0.11c0,0,0,0,0,0.012c0.048,0.074,0.096,0.16,0.145,0.245
			c0.77,1.374,1.418,2.796,1.943,4.278c0.132,0.343,0.202,0.698,0.235,1.064c0.099,1.295-0.313,2.44-1.237,3.397
			c-0.48,0.497-0.96,0.957-1.452,1.393c-1.168,1.016-2.469,1.775-3.914,2.252C69.764,65.932,68.275,65.798,66.828,65.016z"/>
		<path d="M59.553,45.185c0.087-0.195,0.1-0.304,0.027-0.354c-0.085-0.025-0.146-0.062-0.207-0.075
			c-0.122,0.036-0.38,0.253-0.762,0.629c-0.357,0.376-0.664,0.581-0.897,0.64c-0.132-0.331-0.262-0.759-0.393-1.273
			c-0.012-0.061-0.023-0.122-0.047-0.184c0.024,0.049,0.048,0.098,0.084,0.159c0-0.024,0.013-0.037,0.025-0.049
			c-0.06-0.086-0.097-0.16-0.133-0.221c-0.165-0.685-0.317-1.517-0.48-2.483c-0.093-0.563-0.186-1.174-0.266-1.834
			c-0.208-1.467-0.335-2.348-0.382-2.629c-0.116-0.721-0.235-1.089-0.345-1.09c-0.134-0.001-0.232,0.035-0.269,0.095
			c-0.025,0.049-0.038,0.158-0.039,0.342c0.182,1.65,0.413,3.301,0.705,4.927c0.012,0.061,0.023,0.122,0.023,0.183
			c0.548,3.143,0.963,4.722,1.256,4.724c0.281,0.002,0.685-0.202,1.202-0.613C59.159,45.67,59.454,45.368,59.553,45.185z"/>
		<path d="M76.661,61.775c0.924-0.957,1.336-2.102,1.237-3.397c-0.033-0.367-0.104-0.721-0.235-1.064
			c-0.525-1.482-1.173-2.904-1.943-4.278c-0.048-0.086-0.096-0.172-0.145-0.245c0-0.012,0-0.012,0-0.012
			c-0.012-0.037-0.024-0.073-0.036-0.11c-0.012,0-0.024-0.012-0.037-0.013c-0.686-1.166-1.459-2.259-2.318-3.292
			c-1.088-1.291-2.45-2.121-4.095-2.476c-1.548-0.33-3.003-0.122-4.401,0.599c-1.398,0.721-2.651,1.664-3.76,2.815
			c-0.726,0.739-1.308,1.601-1.731,2.587c-0.216,1.061-0.066,2.088,0.426,3.105c0.372,0.76,0.733,1.52,1.093,2.268
			c0.684,1.447,1.553,2.76,2.593,3.941c1.017,1.144,2.181,2.082,3.518,2.813c1.447,0.781,2.936,0.916,4.467,0.403
			c1.445-0.477,2.746-1.235,3.914-2.252C75.701,62.732,76.181,62.272,76.661,61.775z M76.397,61.248
			c-0.173,0.206-0.345,0.4-0.53,0.582c-0.18-0.319-0.373-0.663-0.578-1.031c0.343-0.18,0.675-0.361,1.006-0.541
			c0.307-0.168,0.613-0.337,0.908-0.493C77.064,60.289,76.791,60.787,76.397,61.248z M67.668,47.486
			c0.537,0.004,1.087,0.058,1.623,0.184c0.28,0.076,0.548,0.151,0.816,0.251c-0.871,0.457-1.815,0.962-2.821,1.503
			c-0.289-0.54-0.614-1.141-0.986-1.803C66.739,47.54,67.192,47.495,67.668,47.486z M63.309,48.904
			c0.799-0.58,1.645-0.976,2.562-1.188c0.337,0.613,0.698,1.251,1.059,1.902c-0.81,0.433-1.656,0.89-2.552,1.371
			c-0.325-0.589-0.698-1.264-1.119-2.048C63.272,48.928,63.284,48.916,63.309,48.904z M62.916,49.194
			c0.361,0.65,0.722,1.313,1.107,1.987c-0.773,0.421-1.57,0.854-2.404,1.299c-0.108-0.208-0.228-0.429-0.337-0.662
			c-0.108-0.184-0.216-0.405-0.349-0.662C61.513,50.428,62.178,49.774,62.916,49.194z M60.093,52.334
			c0.186-0.304,0.383-0.583,0.593-0.862c0.204,0.38,0.433,0.773,0.65,1.165c-0.515,0.277-1.043,0.565-1.595,0.854
			C59.757,53.076,59.871,52.686,60.093,52.334z M63.708,58.286c-0.25,0.657-0.379,1.572-0.389,2.745
			c-0.001,0.086-0.001,0.171-0.002,0.244c-0.314-0.406-0.616-0.836-0.881-1.277c-0.795-1.301-1.505-2.638-2.129-3.999
			c-0.288-0.637-0.466-1.298-0.533-1.971c2.478-1.323,4.956-2.646,7.397-3.982c0,0,0,0,0.012,0.012
			c0.012-0.012,0.025-0.024,0.037-0.036c0.209-0.121,0.417-0.229,0.613-0.337c1.03-0.566,1.963-1.071,2.833-1.528
			c0.925,0.435,1.726,1.064,2.402,1.9c0.629,0.762,1.208,1.561,1.739,2.396c-0.378-0.089-0.768-0.128-1.159-0.132
			c-2.43-0.02-4.097,0.736-5.038,2.279c-0.272,0.45-0.472,0.973-0.599,1.546c-0.219-0.063-0.537-0.09-0.927-0.093
			C65.4,56.041,64.282,56.777,63.708,58.286z M65.036,63.121c-0.388-0.357-0.763-0.715-1.102-1.108
			c-0.01-0.22-0.008-0.55-0.004-0.977c0-0.049-0.01-0.318-0.006-0.806c0.029-0.549,0.131-1.049,0.305-1.487
			c0.536-1.376,1.702-2.062,3.485-2.047c0.024,0,0.073,0.025,0.17,0.087c0.012,0,0.024,0,0.024,0
			c-0.027,0.256-0.041,0.513-0.043,0.781c-0.027,0.293-0.029,0.586-0.019,0.855c0.044,0.55,0.189,0.82,0.433,0.822
			c0.122,0.001,0.208-0.035,0.245-0.083c0.013-0.037,0.037-0.085,0.062-0.158c-0.14-2.297,0.252-3.882,1.15-4.766
			c0.874-0.86,2.477-1.286,4.822-1.267c0.073,0.001,0.244,0.075,0.523,0.236c0.097,0.05,0.182,0.099,0.267,0.149
			c0.048,0.074,0.097,0.16,0.132,0.233c0.494,0.883,0.926,1.778,1.285,2.697c0.263,0.649,0.441,1.335,0.521,2.032
			c0.034,0.293,0.044,0.574,0.017,0.855c-2.735,1.468-6.072,3.26-10.009,5.389C66.481,64.208,65.727,63.725,65.036,63.121z
			 M69.221,65.109c-0.464-0.077-0.902-0.178-1.329-0.328c0.601-0.313,1.202-0.637,1.791-0.95c0.241,0.405,0.47,0.834,0.723,1.264
			C70.014,65.165,69.624,65.161,69.221,65.109z M72.697,64.161c-0.527,0.277-1.079,0.516-1.655,0.744
			c-0.086,0.036-0.184,0.072-0.282,0.095c-0.193-0.368-0.433-0.822-0.722-1.361c0.724-0.385,1.447-0.77,2.171-1.167
			c0.277,0.491,0.554,0.994,0.843,1.497C72.93,64.041,72.808,64.101,72.697,64.161z M72.578,62.279
			c0.785-0.433,1.57-0.854,2.343-1.275c0.205,0.368,0.421,0.748,0.626,1.141c-0.652,0.617-1.377,1.161-2.151,1.631
			C73.156,63.334,72.891,62.831,72.578,62.279z"/>
		<path fill="#FFFFFF" d="M70.107,47.922c-0.268-0.1-0.536-0.175-0.816-0.251c-0.536-0.126-1.086-0.18-1.623-0.184
			c-0.476,0.008-0.929,0.054-1.369,0.135c0.373,0.663,0.698,1.264,0.986,1.803C68.292,48.884,69.236,48.379,70.107,47.922z"/>
		<path fill="#7D2818" d="M67.085,56.055c0.391,0.003,0.708,0.03,0.927,0.093c0.127-0.573,0.327-1.096,0.599-1.546
			c0.941-1.543,2.608-2.299,5.038-2.279c0.391,0.003,0.781,0.043,1.159,0.132c-0.531-0.835-1.11-1.633-1.739-2.396
			c-0.677-0.836-1.478-1.465-2.402-1.9c-0.871,0.457-1.803,0.962-2.833,1.528c-0.196,0.108-0.405,0.216-0.613,0.337
			c-0.012,0.012-0.025,0.024-0.037,0.036c-0.012-0.012-0.012-0.012-0.012-0.012c-2.441,1.336-4.919,2.659-7.397,3.982
			c0.068,0.672,0.245,1.333,0.533,1.971c0.624,1.361,1.334,2.698,2.129,3.999c0.265,0.442,0.567,0.872,0.881,1.277
			c0.001-0.073,0.001-0.159,0.002-0.244c0.01-1.172,0.139-2.087,0.389-2.745C64.282,56.777,65.4,56.041,67.085,56.055z"/>
		<path fill="#EA2427" d="M77.288,58.312c-0.08-0.697-0.257-1.382-0.521-2.032c-0.359-0.919-0.791-1.814-1.285-2.697
			c-0.036-0.074-0.084-0.159-0.132-0.233c-0.085-0.049-0.17-0.099-0.267-0.149c-0.28-0.161-0.45-0.236-0.523-0.236
			c-2.344-0.019-3.948,0.407-4.822,1.267c-0.899,0.884-1.29,2.469-1.15,4.766c-0.025,0.073-0.05,0.122-0.062,0.158
			c-0.037,0.048-0.123,0.084-0.245,0.083c-0.244-0.002-0.389-0.272-0.433-0.822c-0.01-0.269-0.008-0.562,0.019-0.855
			c0.002-0.269,0.017-0.525,0.043-0.781c0,0-0.012,0-0.024,0c-0.097-0.062-0.146-0.087-0.17-0.087
			c-1.783-0.015-2.949,0.672-3.485,2.047c-0.174,0.438-0.276,0.938-0.305,1.487c-0.004,0.488,0.006,0.757,0.006,0.806
			c-0.004,0.428-0.006,0.757,0.004,0.977c0.339,0.394,0.715,0.751,1.102,1.108c0.691,0.604,1.445,1.087,2.26,1.435
			c3.938-2.129,7.274-3.921,10.009-5.389C77.332,58.886,77.322,58.605,77.288,58.312z"/>
		<path fill="#FFFFFF" d="M75.289,60.799c0.205,0.368,0.397,0.712,0.578,1.031c0.185-0.182,0.357-0.376,0.53-0.582
			c0.395-0.461,0.667-0.959,0.806-1.483c-0.294,0.156-0.601,0.325-0.908,0.493C75.964,60.438,75.633,60.619,75.289,60.799z"/>
		<path fill="#FFFFFF" d="M74.921,61.004c-0.773,0.421-1.558,0.842-2.343,1.275c0.313,0.552,0.577,1.055,0.818,1.497
			c0.773-0.47,1.498-1.014,2.151-1.631C75.343,61.752,75.126,61.372,74.921,61.004z"/>
		<path fill="#FFFFFF" d="M67.893,64.781c0.426,0.15,0.865,0.251,1.329,0.328c0.402,0.052,0.793,0.055,1.185-0.015
			c-0.253-0.429-0.482-0.859-0.723-1.264C69.095,64.143,68.494,64.468,67.893,64.781z"/>
		<path fill="#FFFFFF" d="M70.039,63.638c0.289,0.54,0.529,0.993,0.722,1.361c0.098-0.024,0.196-0.06,0.282-0.095
			c0.576-0.227,1.127-0.467,1.655-0.744c0.111-0.06,0.233-0.12,0.356-0.192c-0.289-0.503-0.566-1.006-0.843-1.497
			C71.486,62.869,70.763,63.253,70.039,63.638z"/>
		<path d="M78.147,60.823c-0.001,0.11,0.047,0.184,0.145,0.221c0.383-0.485,0.593-0.85,0.668-1.094
			c0.025-0.11,0.052-0.427,0.057-0.952c0.004-0.476-0.006-0.757-0.03-0.831c-0.012-0.086-0.155-0.429-0.419-1.029
			c-0.098,0.072-0.148,0.17-0.148,0.255c0,0.012,0.047,0.208,0.142,0.575c0.107,0.367,0.153,0.697,0.151,1.015
			c-0.003,0.366-0.104,0.756-0.291,1.195C78.234,60.604,78.147,60.823,78.147,60.823z"/>
		<path fill="#FCDA00" d="M62.85,63.127c-0.968-1.119-1.825-2.323-2.609-3.587c-0.253-0.417-0.494-0.847-0.734-1.264
			c0.193,1.785,0.277,3.483,0.263,5.107c-0.009,1.05-0.014,1.697-0.028,1.929c-0.057,0.928-0.174,1.794-0.326,2.574
			c1.519-0.525,3.115-1.635,4.778-3.344l0.012-0.012C63.734,64.087,63.274,63.619,62.85,63.127z"/>
		<path fill="#FEFAD6" d="M70.978,68.311c-0.013,0.098-0.014,0.195-0.015,0.305c-0.003,0.379,0.153,0.734,0.455,1.054
			c0.218,0.246,0.51,0.432,0.862,0.569c0.346-0.51,0.729-1.069,1.137-1.676C72.588,68.605,71.77,68.525,70.978,68.311z"/>
		<path fill="#C372AD" d="M75.966,113.806c-0.172-4.312-0.55-8.907-1.12-13.809c-0.558-4.902-0.966-8.825-1.186-11.746
			c-0.245-2.933-0.211-7.024,0.077-12.285c0.146-2.881,0.276-5.371,0.366-7.459c-0.012,0.024-0.025,0.036-0.037,0.049
			c-0.532,0.789-1.014,1.518-1.459,2.174c-0.012-0.012-0.024-0.012-0.036-0.013c-0.037,0.097-0.063,0.207-0.076,0.305
			c-0.317-0.064-0.597-0.151-0.84-0.263c-0.104,3.736-0.207,7.362-0.309,10.866c-0.103,3.638,0.026,7.23,0.412,10.787
			c0.024,0.049,0.06,0.098,0.096,0.147c-0.014,0.196-0.004,0.428,0.019,0.672l-0.001,0.171c0.022,0.269,0.057,0.538,0.091,0.819
			c0.54,4.132,1.001,8.972,1.383,14.52c0.251,3.653,0.447,6.488,0.602,8.492c0.706,0.213,1.45,0.403,2.242,0.58
			C76.103,116.53,76.028,115.199,75.966,113.806z"/>
		<path fill="#C372AD" d="M71.529,94.926c-0.08-0.697-0.147-1.381-0.215-2.029c-0.844-1.375-1.47-2.43-1.904-3.166
			c-0.71-1.215-1.059-1.951-1.057-2.195c0.002-0.196,0.689-2.095,2.049-5.699c0.112-0.28,0.212-0.548,0.312-0.803
			c0.038-1.66,0.102-3.468,0.216-5.457c0.101-1.868,0.188-3.564,0.262-5.102c-0.145-0.111-0.267-0.234-0.376-0.37
			c-0.569,0.911-1.226,2.054-1.982,3.452c-0.905,1.666-1.724,3.198-2.456,4.596c-0.72,1.386-1.403,2.736-2.024,4.038
			c-0.696,1.46-1.075,2.995-1.149,4.607c-0.043,0.757,0.098,1.49,0.385,2.189c0.623,1.483,1.406,2.869,2.347,4.172
			c0.833,1.143,1.642,2.297,2.439,3.464c0.133,0.197,0.265,0.393,0.398,0.589C69.72,96.609,70.63,95.859,71.529,94.926z"/>
		<path fill="#FEFAD6" d="M80.716,64.666c-0.701,0.581-1.402,1.161-2.09,1.766c-1.045,0.883-2.211,1.508-3.496,1.852
			c0.583,0.335,1.313,0.744,2.2,1.252c1.656-0.829,3.376-2.207,5.163-4.134c0.653-0.691,1.27-1.431,1.874-2.207
			c-0.357,0.302-0.701,0.593-1.033,0.871c0,0,0,0,0,0.012c-0.11,0.072-0.197,0.169-0.283,0.279
			c-0.025,0.036-0.049,0.061-0.062,0.085c-0.098,0.011-0.184,0.023-0.269,0.047c0.091-0.659,0.182-1.33,0.249-2.001
			C82.279,63.275,81.528,64.001,80.716,64.666z"/>
		<path fill="#FED09E" d="M72.004,99.558c-0.442,0.314-0.884,0.579-1.301,0.808l0.024,0.037l0,0.012l0.024,0.025
			c0,0.012,0,0.024,0.012,0.024c0.469,0.835,0.755,1.728,0.857,2.67c0.045,0.428-0.031,0.83-0.23,1.207
			c-0.322,0.596-0.849,0.787-1.592,0.573c-0.011-0.195,0.125-0.353,0.406-0.448c0.441-0.143,0.724-0.422,0.825-0.824
			c-0.233,0.035-0.477,0.045-0.733,0.043c-0.708-0.006-1.208-0.095-1.512-0.281c-0.134-0.099-0.218-0.161-0.267-0.197
			c-0.097-0.05-0.195-0.087-0.292-0.088c-0.269-0.002-0.429,0.118-0.492,0.374c-0.025,0.122-0.026,0.256-0.003,0.403
			c-0.014,1.673,1.066,2.525,3.265,2.543c0.611,0.005,1.173-0.1,1.7-0.328c-0.178-2.102-0.392-4.278-0.655-6.503L72.004,99.558z"/>
		<path fill="#FEFAD6" d="M71.62,95.77c-0.874,0.811-1.698,1.476-2.483,1.995c0.434,0.663,0.844,1.338,1.241,2.025
			c0.527-0.289,1.055-0.614,1.571-0.989C71.836,97.738,71.722,96.723,71.62,95.77z"/>
		<path fill="#FFFFFF" d="M76.233,118.51c-0.768-0.189-1.523-0.403-2.242-0.641c0.055,0.746,0.099,1.356,0.144,1.821
			c0.01,0.22,0.033,0.44,0.056,0.66c0.707,0.226,1.462,0.415,2.254,0.592C76.366,120.16,76.299,119.341,76.233,118.51z"/>
		<path fill="#FFFFFF" d="M101.122,118.494c-4.464,0.745-8.949,1.112-13.479,1.074c-3.969-0.033-7.227-0.279-9.788-0.728
			c-0.341-0.064-0.695-0.128-1.024-0.203c0.032,0.574,0.077,1.051,0.11,1.442c0.022,0.342,0.044,0.66,0.077,0.99
			c3.096,0.636,6.819,0.972,11.141,1.007c5.41,0.044,11.142-0.568,17.186-1.85c5.077-1.057,9.949-2.495,14.617-4.289
			c1.813-0.682,3.591-1.595,5.335-2.704c-0.067-0.807-0.145-1.699-0.247-2.689c-2.063,1.363-3.915,2.337-5.556,2.934
			C112.953,115.843,106.833,117.515,101.122,118.494z"/>
		<path fill="#F287B7" d="M122.703,125.693c-0.117-2.114-0.157-4.691-0.132-7.731c-0.017-0.879-0.035-1.698-0.028-2.467
			c-0.92,0.481-1.778,0.865-2.586,1.163c-6.541,2.364-12.661,4.036-18.372,5.015c-4.463,0.745-8.949,1.111-13.479,1.074
			c-3.969-0.033-7.227-0.279-9.788-0.728c-0.573-0.103-1.134-0.217-1.67-0.343c-0.002,0.293-0.005,0.611-0.02,0.928
			c0.021,0.403,0.086,1.503,0.18,3.311c0.096,1.759,0.134,2.993,0.129,3.701c-0.029,3.493-0.264,6.861-0.718,10.143
			c-0.377,2.794-0.976,5.829-1.772,9.096c-0.467,1.926-1.299,5.057-2.507,9.383c-0.29,1.06-0.566,2.059-0.831,3.022
			c0.911,0.569,1.948,0.675,3.099,0.331c1.493-0.44,2.884-0.233,4.184,0.632c0.134,0.087,0.243,0.185,0.327,0.308
			c0.254,0.32,0.52,0.664,0.786,0.984c0.133,0.135,0.279,0.259,0.449,0.358c1.361,0.756,2.825,0.975,4.391,0.647
			c0.893-0.176,1.772-0.145,2.637,0.082c1.28,0.34,2.484,0.875,3.626,1.617c0.765,0.495,1.606,0.746,2.522,0.741
			c0.513-0.008,1.014-0.114,1.48-0.342c1.189-0.564,2.449-0.774,3.779-0.641c0.281,0.026,1.024,0.253,2.193,0.702
			c1.181,0.449,2.17,0.519,2.966,0.208c0.797-0.311,1.361-0.672,1.719-1.097c0.345-0.413,0.994-0.602,1.947-0.595
			c0.305,0.003,0.585,0.078,0.841,0.227c1.252,0.706,2.594,0.888,4.001,0.57c0.22-0.047,0.416-0.131,0.6-0.252
			c1.24-0.771,2.574-1.176,4.04-1.2c0.574-0.008,1.598,0.209,3.084,0.648c1.474,0.439,2.624,0.254,3.424-0.558
			c0.393-0.29,0.872-0.64,1.449-1.039c0.565-0.386,1.178-0.637,1.814-0.73c0.306-0.034,0.635-0.068,1.014-0.089
			c-0.553-2.532-1.08-5.321-1.592-8.391c-0.721-4.378-1.151-7.044-1.253-7.997c-0.115-0.941-0.39-3.032-0.804-6.259
			c-0.426-3.215-0.696-5.965-0.812-8.225C122.915,129.639,122.81,127.563,122.703,125.693z"/>
		<path fill="#FEFAD6" d="M70.944,161.894c-0.012,0.024-0.013,0.036-0.013,0.049l0.207,0.063
			C71.065,161.968,71.004,161.931,70.944,161.894z"/>
		<path fill="#FFFFFF" d="M124.681,164.422c-0.554,0.533-1.156,0.943-1.83,1.267c-0.662,0.3-1.566,0.354-2.688,0.161
			c-0.305-0.027-0.61-0.103-0.902-0.191c-1.303-0.487-2.633-0.595-3.991-0.338c-0.453,0.106-0.882,0.274-1.274,0.527
			c-1.362,0.856-2.842,1.113-4.427,0.794c-0.28-0.051-0.536-0.139-0.792-0.263c-0.681-0.36-1.4-0.537-2.145-0.518
			c-0.257,0.01-0.944,0.457-2.05,1.302c-1.118,0.858-3.303,0.681-6.541-0.506c-0.122-0.013-0.244-0.026-0.354-0.039
			c-0.659-0.03-1.271,0.075-1.847,0.339c-0.417,0.192-0.846,0.347-1.286,0.453c-0.771,0.189-1.541,0.219-2.297,0.066
			c-1.158-0.217-2.242-0.641-3.25-1.26c-0.778-0.483-1.605-0.807-2.508-0.998c-0.317-0.076-0.634-0.091-0.94-0.069
			c-1.014,0.126-2.029,0.179-3.042,0.158c-1.661-0.026-2.708-0.376-3.167-1.039c-0.459-0.663-1.113-1.267-1.951-1.811
			c-0.838-0.532-1.863-0.626-3.1-0.282c-1.224,0.356-2.286,0.298-3.161-0.173l-0.207-0.063c-0.289,1.048-0.554,2.035-0.794,2.973
			c2.844,1.733,6.593,3.168,11.237,4.305c5.411,1.314,13.21,1.916,23.372,1.791c3.469-0.02,6.914-0.163,10.36-0.44
			c4.094-0.37,8.168-1.289,12.259-2.77c0.404-0.143,0.796-0.299,1.189-0.442c-0.118-0.489-0.249-0.991-0.366-1.505
			c-0.201-0.795-0.39-1.639-0.59-2.508c-0.342,0.034-0.685,0.067-1.039,0.113C125.861,163.577,125.223,163.901,124.681,164.422z"/>
		<path d="M107.605,181.221c-0.62-0.372-1.058-0.558-1.302-0.56c-0.195-0.002-0.317-0.003-0.367,0.021
			c-0.085,0.024-0.123,0.109-0.124,0.243c-0.002,0.208,0.01,0.269,0.023,0.184c1.361,0.768,2.14,1.153,2.347,1.155
			c0.195,0.002,0.293-0.046,0.27-0.12c0.025-0.122,0.038-0.219,0.039-0.281C108.492,181.79,108.201,181.58,107.605,181.221z"/>
		<path fill="#A56829" d="M116.563,180.513c-0.033-0.416-0.2-0.857-0.49-1.311c-0.229-0.368-0.495-0.639-0.811-0.825
			c0.024,0.074,0.048,0.147,0.059,0.221c0.071,0.257,0.155,0.502,0.226,0.735c-0.11,0.048-0.221,0.108-0.331,0.168
			c0.012,0.012,0.012,0.025,0.024,0.037c-0.76,0.299-1.701,0.45-2.825,0.441c-1.685-0.014-2.966-0.195-3.83-0.52
			c-0.27,0.156-0.565,0.313-0.883,0.457l0.012,0.025c0.305,0.003,0.732,0.165,1.266,0.511c0.571,0.346,0.886,0.667,0.982,0.936
			c-0.05,0.11-0.172,0.158-0.368,0.156c-0.22-0.002-0.646-0.176-1.254-0.511c-0.608-0.335-0.96-0.582-1.056-0.729
			c0.087-0.158,0.173-0.255,0.259-0.315c-0.098,0.048-0.22,0.096-0.331,0.144c-0.368,0.144-0.796,0.299-1.298,0.478
			c-0.392,0.131-0.833,0.262-1.31,0.417c0.39,0.077,1.228,0.657,2.538,1.718c-0.062,0.073-0.111,0.17-0.173,0.267
			c-0.049,0.061-0.135,0.097-0.257,0.096c-0.44-0.004-0.987-0.289-1.642-0.856c-0.57-0.506-0.848-0.801-0.848-0.887
			c0.001-0.11,0.002-0.183,0.014-0.232c-0.024,0-0.049,0.012-0.074,0.024c-0.294,0.083-0.588,0.166-0.894,0.262
			c-1.885,0.522-3.183,0.975-3.87,1.373c-0.405,0.216-0.737,0.458-0.995,0.737c-0.012,0.012-0.012,0.024-0.013,0.049
			c-0.016,0.452,0.042,0.843,0.186,1.174c0.444,1.017,1.636,1.54,3.59,1.556c3.016,0.025,7.007-1.115,11.971-3.394
			c0.699-0.336,1.508-0.721,2.415-1.177c0-0.024,0.001-0.073,0.001-0.11C116.582,181.135,116.585,180.769,116.563,180.513z
			 M108.183,182.263c-0.207-0.002-0.986-0.386-2.347-1.155c-0.013,0.085-0.025,0.024-0.023-0.184
			c0.001-0.134,0.038-0.219,0.124-0.243c0.049-0.024,0.171-0.023,0.367-0.021c0.244,0.002,0.682,0.189,1.302,0.56
			c0.595,0.359,0.887,0.569,0.886,0.642c0,0.061-0.014,0.159-0.039,0.281C108.477,182.217,108.378,182.265,108.183,182.263z"/>
		<path fill="#FED09E" d="M109.062,171.915c0.01,0.318,0.019,0.697,0.052,1.149c0.011,0.208,0.021,0.427,0.031,0.659
			c0.537,0.041,1.123,0.071,1.758,0.076c1.16,0.01,2.248-0.055,3.274-0.193c0.002-0.183,0.003-0.342,0.004-0.501
			c0.006-0.745,0.023-1.343,0.039-1.783c-1.735,0.108-3.47,0.192-5.192,0.251C109.039,171.695,109.05,171.805,109.062,171.915z"/>
		<path fill="#EA2427" d="M114.165,175.071c0.003-0.305,0.005-0.562,0.006-0.77c-1.039,0.113-2.163,0.178-3.36,0.168
			c-0.586-0.005-1.123-0.021-1.624-0.038c0.022,0.245,0.033,0.501,0.055,0.77c0.513,0.029,1.062,0.057,1.648,0.062
			C112.063,175.273,113.15,175.209,114.165,175.071z"/>
		<path fill="#FEFAD6" d="M112.347,179.306c0.904,0.007,1.686-0.096,2.335-0.311c-0.012-0.073-0.035-0.147-0.059-0.22
			c-0.237-0.918-0.375-1.92-0.439-3.02c-1.039,0.126-2.175,0.19-3.384,0.18c-0.549-0.005-1.062-0.021-1.526-0.037
			c-0.019,0.806-0.076,1.794-0.183,2.978C109.979,179.152,111.065,179.295,112.347,179.306z"/>
		<path fill="#7D2818" d="M116.548,182.332c-0.821,0.384-1.533,0.733-2.121,1.021c-1.79,0.865-3.616,1.631-5.502,2.263
			c-2.694,0.918-4.908,1.376-6.642,1.362c-2.357-0.019-3.804-0.69-4.319-1.989c-0.072-0.159-0.119-0.319-0.142-0.49
			c-0.05,0.146-0.088,0.305-0.102,0.463c0,0.012,0,0.012,0,0.012c-0.001,0.061-0.001,0.122-0.002,0.183
			c-0.003,0.366,0.007,0.598,0.019,0.708c0.059,0.306,0.203,0.576,0.433,0.81c0.654,0.628,2.056,0.957,4.217,0.975
			c1.599,0.013,3.63-0.385,6.091-1.196c1.286-0.417,2.633-0.907,4.079-1.469c2.081-0.63,3.319-1.121,3.688-1.509
			c0.185-0.182,0.285-0.425,0.311-0.743C116.546,182.589,116.547,182.454,116.548,182.332z"/>
		<path fill="#FEFAD6" d="M86.739,174.699c0.904,0.007,1.686-0.096,2.335-0.311c-0.012-0.073-0.035-0.147-0.059-0.22
			c-0.237-0.918-0.375-1.92-0.439-3.02c-1.039,0.126-2.175,0.19-3.384,0.18c-0.549-0.005-1.062-0.021-1.526-0.037
			c-0.019,0.806-0.076,1.795-0.183,2.978C84.371,174.546,85.457,174.689,86.739,174.699z"/>
		<path d="M81.997,176.615c-0.62-0.372-1.058-0.558-1.302-0.56c-0.195-0.002-0.317-0.003-0.367,0.021
			c-0.085,0.024-0.123,0.109-0.124,0.243c-0.002,0.207,0.01,0.268,0.023,0.183c1.361,0.768,2.14,1.153,2.347,1.155
			c0.195,0.002,0.293-0.046,0.27-0.12c0.025-0.122,0.038-0.22,0.039-0.281C82.884,177.184,82.593,176.961,81.997,176.615z"/>
		<path fill="#A56829" d="M90.955,175.906c-0.033-0.415-0.2-0.856-0.49-1.311c-0.229-0.369-0.495-0.639-0.811-0.825
			c0.024,0.074,0.048,0.147,0.059,0.22c0.071,0.257,0.155,0.502,0.226,0.735c-0.11,0.048-0.221,0.108-0.331,0.168
			c0.012,0.012,0.012,0.025,0.024,0.037c-0.76,0.299-1.701,0.45-2.825,0.441c-1.685-0.014-2.966-0.195-3.83-0.52
			c-0.27,0.157-0.565,0.313-0.883,0.457l0.012,0.024c0.305,0.003,0.732,0.165,1.266,0.511c0.571,0.347,0.886,0.667,0.982,0.936
			c-0.05,0.11-0.172,0.157-0.368,0.156c-0.22-0.002-0.646-0.176-1.254-0.511c-0.608-0.335-0.96-0.582-1.056-0.729
			c0.087-0.158,0.173-0.255,0.259-0.316c-0.098,0.048-0.208,0.096-0.331,0.144c-0.368,0.144-0.796,0.299-1.298,0.478
			c-0.392,0.131-0.833,0.262-1.31,0.417c0.39,0.077,1.228,0.645,2.538,1.718c-0.062,0.073-0.111,0.158-0.173,0.267
			c-0.049,0.061-0.135,0.097-0.257,0.096c-0.44-0.004-0.987-0.289-1.642-0.856c-0.57-0.506-0.848-0.801-0.848-0.886
			c0.001-0.11,0.001-0.183,0.014-0.232c-0.024,0-0.049,0.012-0.074,0.024c-0.294,0.083-0.588,0.166-0.894,0.249
			c-1.885,0.534-3.183,0.987-3.87,1.373c-0.405,0.229-0.737,0.47-0.995,0.749c-0.012,0.012-0.012,0.024-0.013,0.049
			c-0.016,0.452,0.042,0.843,0.186,1.174c0.444,1.03,1.636,1.54,3.59,1.556c3.016,0.025,7.007-1.115,11.972-3.406
			c0.699-0.324,1.508-0.709,2.415-1.165c0-0.036,0.001-0.073,0.001-0.11C90.974,176.529,90.977,176.163,90.955,175.906z
			 M82.575,177.657c-0.207-0.002-0.986-0.386-2.347-1.155c-0.013,0.085-0.025,0.024-0.023-0.183c0.001-0.134,0.038-0.22,0.124-0.243
			c0.049-0.024,0.171-0.023,0.367-0.021c0.244,0.002,0.682,0.189,1.302,0.56c0.596,0.347,0.887,0.569,0.886,0.642
			c-0.001,0.061-0.014,0.159-0.039,0.281C82.868,177.611,82.77,177.659,82.575,177.657z"/>
		<path fill="#7D2818" d="M90.94,177.726c-0.821,0.384-1.533,0.733-2.121,1.02c-1.79,0.865-3.616,1.632-5.502,2.263
			c-2.694,0.918-4.908,1.377-6.642,1.362c-2.357-0.019-3.804-0.691-4.319-1.989c-0.072-0.159-0.119-0.319-0.142-0.49
			c-0.05,0.146-0.088,0.305-0.102,0.463c0,0.012,0,0.012,0,0.012c0,0.061-0.001,0.122-0.002,0.183
			c-0.003,0.366,0.007,0.611,0.019,0.708c0.059,0.306,0.203,0.576,0.433,0.809c0.654,0.628,2.056,0.957,4.217,0.975
			c1.599,0.013,3.63-0.385,6.091-1.183c1.286-0.417,2.633-0.919,4.079-1.481c2.081-0.63,3.319-1.121,3.688-1.508
			c0.185-0.182,0.285-0.437,0.311-0.743C90.938,177.982,90.939,177.848,90.94,177.726z"/>
		<path fill="#EA2427" d="M85.308,170.56c-0.561-0.102-1.134-0.217-1.695-0.332c-0.001,0.122,0.01,0.245,0.021,0.367
			c0.513,0.029,1.062,0.057,1.648,0.062L85.308,170.56z"/>
	</g>
	<g>
		<circle cx="50.439" cy="35.395" r="2.778"/>
		<path d="M56.075,32.749c0.064,0.412,0.193,0.798,0.36,1.158c0.141,0.27,0.309,0.527,0.514,0.759
			c0.206,0.244,0.437,0.45,0.72,0.656c0.064,0.051,0.142,0.103,0.219,0.142c0.167,0.103,0.322,0.193,0.489,0.27
			c0.695,0.309,1.44,0.399,2.238,0.27c0.257-0.039,0.514-0.103,0.759-0.193c0.733-0.27,1.324-0.733,1.8-1.402
			c0.206-0.27,0.36-0.54,0.476-0.836c0.077-0.167,0.129-0.334,0.167-0.515c0.039-0.116,0.064-0.244,0.077-0.373
			c0-0.013,0-0.013,0-0.026c0.052-0.386,0.052-0.784-0.026-1.196c-0.077-0.54-0.257-1.016-0.528-1.44
			c-0.064-0.116-0.141-0.219-0.206-0.309c-0.244-0.309-0.527-0.579-0.862-0.823c-0.553-0.399-1.145-0.63-1.762-0.707
			c-0.283-0.039-0.553-0.052-0.836-0.026c-0.116,0.013-0.231,0.026-0.334,0.052c-0.103,0.013-0.193,0.026-0.283,0.051
			c-0.039,0.013-0.077,0.013-0.116,0.026c-0.887,0.232-1.621,0.733-2.174,1.518c-0.052,0.064-0.103,0.141-0.154,0.219
			c-0.231,0.373-0.398,0.772-0.501,1.183C55.998,31.694,55.985,32.208,56.075,32.749z M60.231,28.635
			c0.647,0.024,1.246,0.244,1.795,0.635c0.769,0.549,1.221,1.294,1.38,2.235c0.061,0.403,0.061,0.782,0,1.16
			c-0.086,0.489-0.281,0.953-0.598,1.392c-0.549,0.757-1.295,1.221-2.235,1.368c-0.403,0.073-0.806,0.073-1.172,0
			c-0.488-0.085-0.94-0.281-1.38-0.598c-0.439-0.305-0.769-0.684-1.013-1.123c-0.024-0.049-0.049-0.11-0.086-0.171
			c0.708-0.989,1.563-2.223,2.54-3.725C59.742,29.38,59.999,28.977,60.231,28.635z M57.239,30.052
			c0.562-0.757,1.295-1.221,2.235-1.368c0.11-0.024,0.232-0.037,0.354-0.049c-0.757,1.124-1.759,2.65-3.041,4.555
			c-0.061-0.183-0.11-0.378-0.146-0.586C56.494,31.676,56.689,30.821,57.239,30.052z"/>
		<path fill="#FFCD7C" d="M56.787,33.19c1.282-1.905,2.284-3.431,3.041-4.555c-0.122,0.012-0.244,0.024-0.354,0.049
			c-0.94,0.147-1.673,0.611-2.235,1.368c-0.549,0.769-0.745,1.624-0.598,2.552C56.677,32.812,56.726,33.007,56.787,33.19z"/>
		<path fill="#FFFFFF" d="M56.921,33.532c0.037,0.061,0.061,0.122,0.086,0.171c0.244,0.44,0.574,0.818,1.013,1.123
			c0.44,0.318,0.892,0.513,1.38,0.598c0.366,0.073,0.769,0.073,1.172,0c0.94-0.146,1.685-0.611,2.235-1.368
			c0.318-0.44,0.513-0.904,0.598-1.392c0.061-0.378,0.061-0.757,0-1.16c-0.159-0.94-0.611-1.685-1.38-2.235
			c-0.549-0.391-1.148-0.611-1.795-0.635c-0.232,0.342-0.488,0.745-0.769,1.172C58.484,31.31,57.63,32.543,56.921,33.532z
			 M59.449,34.387c0.012,0.061,0.073,0.098,0.146,0.11c0.122,0.024,0.183-0.037,0.208-0.147c0-0.024,0-0.049,0-0.073
			c0.024,0.085,0.036,0.171,0.024,0.281c-0.012,0.098-0.073,0.183-0.147,0.256c-0.11,0.098-0.22,0.122-0.366,0.098
			c-0.183-0.024-0.305-0.11-0.342-0.269c-0.037-0.073-0.037-0.159-0.024-0.232c0.049-0.293,0.22-0.415,0.513-0.366
			c0.098,0.012,0.183,0.049,0.244,0.11c-0.012-0.012-0.024-0.012-0.049-0.024c-0.122-0.012-0.195,0.037-0.22,0.147
			C59.437,34.314,59.437,34.35,59.449,34.387z"/>
		<path d="M59.657,34.131c0.024,0.012,0.037,0.012,0.049,0.024c-0.061-0.061-0.147-0.098-0.244-0.11
			c-0.293-0.049-0.464,0.073-0.513,0.366c-0.012,0.073-0.012,0.159,0.024,0.232c0.037,0.159,0.159,0.244,0.342,0.269
			c0.147,0.024,0.256,0,0.366-0.098c0.073-0.073,0.135-0.159,0.147-0.256c0.012-0.11,0-0.195-0.024-0.281c0,0.024,0,0.049,0,0.073
			c-0.024,0.11-0.086,0.171-0.208,0.147c-0.073-0.012-0.134-0.049-0.146-0.11c-0.012-0.037-0.012-0.073-0.012-0.11
			C59.461,34.167,59.534,34.119,59.657,34.131z"/>
		<path d="M62.099,35.938"/>
		<path d="M53.05,36.659c0,0,0,0,0,0.012c0.001-0.007,0.002-0.013,0.002-0.02C53.052,36.653,53.051,36.656,53.05,36.659z"/>
		<path fill="#FFCD7C" d="M51.829,33.288c-0.525-0.378-1.099-0.525-1.734-0.44c-0.598,0.086-1.075,0.366-1.441,0.83
			c-0.024,0.037-0.049,0.061-0.061,0.098c0.024,0,0.061,0.012,0.086,0.012c1.697,0.33,3.053,0.611,4.054,0.83
			C52.586,34.057,52.281,33.606,51.829,33.288z"/>
		<path fill="#FFFFFF" d="M50.889,37.745c0.611-0.098,1.099-0.403,1.465-0.928c0.012-0.024,0.024-0.049,0.049-0.073
			c0.342-0.537,0.476-1.136,0.391-1.795l-4.396-0.867c-0.024,0.061-0.061,0.122-0.086,0.183c-0.159,0.415-0.207,0.867-0.122,1.356
			c0.11,0.696,0.427,1.246,0.964,1.661c0.012,0.012,0.037,0.024,0.061,0.049c0.024,0.012,0.049,0.037,0.086,0.061
			c0.171,0.11,0.354,0.207,0.537,0.269C50.168,37.782,50.522,37.807,50.889,37.745z M50.498,36.732
			c0.049-0.318,0.232-0.44,0.549-0.391c0.061,0.012,0.122,0.037,0.183,0.061c-0.012,0-0.012,0-0.012,0
			c-0.134-0.012-0.208,0.037-0.22,0.159c-0.012,0.037-0.012,0.073,0,0.11c0.024,0.061,0.073,0.11,0.159,0.122
			c0.122,0.024,0.195-0.037,0.22-0.159c0-0.037,0-0.061-0.012-0.098c0.061,0.098,0.073,0.208,0.061,0.354
			c-0.012,0.11-0.061,0.207-0.159,0.281c-0.098,0.098-0.232,0.122-0.379,0.11c-0.196-0.037-0.318-0.134-0.366-0.293
			C50.486,36.903,50.486,36.817,50.498,36.732z"/>
		<path d="M50.889,37.281c0.146,0.012,0.281-0.012,0.379-0.11c0.097-0.073,0.146-0.171,0.159-0.281c0.012-0.147,0-0.257-0.061-0.354
			c0.012,0.037,0.012,0.061,0.012,0.098c-0.024,0.122-0.098,0.183-0.22,0.159c-0.086-0.012-0.134-0.061-0.159-0.122
			c-0.012-0.037-0.012-0.073,0-0.11c0.012-0.122,0.086-0.171,0.22-0.159c0,0,0,0,0.012,0c-0.061-0.024-0.122-0.049-0.183-0.061
			c-0.318-0.049-0.501,0.073-0.549,0.391c-0.012,0.085-0.012,0.171,0.024,0.256C50.571,37.147,50.693,37.245,50.889,37.281z"/>
	</g>
</g>
</svg>
