<?xml version="1.0" encoding="utf-8"?>
<!-- Generator: Adobe Illustrator 17.1.0, SVG Export Plug-In . SVG Version: 6.00 Build 0)  -->
<!DOCTYPE svg PUBLIC "-//W3C//DTD SVG 1.0//EN" "http://www.w3.org/TR/2001/REC-SVG-20010904/DTD/svg10.dtd">
<svg version="1.0" id="Layer_1" xmlns="http://www.w3.org/2000/svg" xmlns:xlink="http://www.w3.org/1999/xlink" x="0px" y="0px"
	 viewBox="0 0 200 200" enable-background="new 0 0 200 200" xml:space="preserve">
<g>
	<g>
		<g>
			<path fill="none" d="M78.184,85.617c-1.338,2.559-2.015,4.022-2.042,4.374c-0.017,0.218,0.281,0.95,0.92,2.185
				c0.243,0.495,0.586,1.133,1.016,1.899c-0.043-1.347-0.07-2.571-0.072-3.646C77.989,89.072,78.04,87.463,78.184,85.617z"/>
			<path d="M109.985,60.316c-1.433-1.785-3.485-2.909-5.443-4.039c0.082-0.116,0.165-0.231,0.235-0.348
				c1.728-2.541,2.594-5.797,2.596-9.78c0.003-3.983-1.362-8.963-4.094-14.954c-2.744-5.992-6.714-11.016-11.923-15.073
				c-5.222-4.046-10.861-5.559-16.918-4.539c-1.924,0.327-3.647,0.902-5.167,1.713c-0.213,0.057-0.426,0.126-0.628,0.196
				c-1.598,0.548-3.069,1.35-4.4,2.407c-0.888,0.701-1.694,1.469-2.421,2.317c-0.658,0.743-1.247,1.552-1.78,2.415
				c-1.388,2.262-2.347,4.68-2.891,7.265c-0.254,1.214-0.323,2.418-0.208,3.625c0.097,0.961,0.558,1.697,1.479,1.935
				c2.086,0.54,3.682,8.74,4.088,9.981c0.08,0.238,0.158,0.489,0.237,0.739c0.5,1.444,1.001,2.888,1.526,4.321
				c0.533,1.495,1.078,2.992,1.623,4.5c0.493,1.382,0.998,2.765,1.528,4.138c0.192,0.528,0.408,1.058,0.637,1.577
				c-0.034,1.072-0.01,2.345,0.072,3.805c0.029,0.576-0.006,1.502-0.104,2.765c-0.057,1.682-0.339,3.26-0.859,4.747
				c-0.016,0.048-0.032,0.095-0.048,0.143c-0.057,0.106-0.138,0.197-0.23,0.288c-0.041,0.058-0.094,0.103-0.134,0.148
				c0.609-0.112,1.337-0.336,2.174-0.711c1.128-0.487,2.319-1.164,3.573-2.007c0.336-0.231,0.647-0.451,0.958-0.671
				c0.513,0.492,1.066,0.95,1.658,1.363c1.114,0.795,2.286,1.473,3.503,2.056c0.083,0.031,0.166,0.074,0.26,0.118
				c-0.022,0.12-0.032,0.254-0.041,0.376c-0.03,0.389-0.008,0.732,0.068,1.019c-0.304,0.441-0.582,0.871-0.849,1.315
				c-0.873,1.459-2.014,3.228-3.423,5.281c-1.422,2.064-2.507,3.898-3.294,5.511c-0.774,1.614-1.246,2.799-1.416,3.568
				c-0.157,0.757-0.202,1.499-0.137,2.237c0.066,0.726,0.438,1.769,1.105,3.116c0.68,1.336,1.486,2.791,2.443,4.344
				c0.76,1.256,1.495,2.511,2.205,3.787c0.592,1.048,1.082,2.161,1.482,3.316c0.088,0.288,0.139,0.573,0.154,0.855
				c-0.234,0.018-0.467,0.013-0.722-0.007c-0.597-0.046-0.98-0.162-1.136-0.357c-0.169-0.196-0.465-0.317-0.879-0.349
				c-0.572-0.044-0.938,0.086-1.107,0.378c-0.07,0.117-0.116,0.394-0.152,0.856c-0.001,0.012-0.016,0.206-0.031,0.56
				c0.017,0.417,0.109,0.803,0.265,1.157c0.501,1.114,1.617,1.738,3.346,1.873c0.584,0.045,1.204-0.041,1.833-0.261
				c0.017,2.31,0.003,4.533-0.054,6.691c-0.066,2.426-0.069,4.674-0.021,6.742c-0.037-0.003-0.06-0.017-0.083-0.031
				c0.008,0.049,0.006,0.086,0.003,0.122c-0.012,0.158-0.036,0.303-0.096,0.444c0.805,0.368,1.648,0.702,2.532,0.991
				c-0.034,1.073-0.048,2.036-0.016,2.882c0.045,1.152-0.053,2.891-0.281,5.195c-0.37,4.76-1.122,9.406-2.272,13.959
				c-0.856,3.452-2.711,8.892-5.54,16.295c-0.725,1.923-1.329,3.55-1.799,4.87c0.291,0.035,0.54,0.14,0.75,0.278
				c0.001-0.012,0.002-0.024,0.015-0.036c2.236,1.493,5.083,2.838,8.506,4.033c1.406,0.5,2.805,0.938,4.183,1.339
				c0.002,0.293,0.002,0.611,0.011,0.954c-0.06,0.777-0.186,1.769-0.376,2.952c-0.757,0.442-1.491,0.752-2.19,0.917
				c-2.036,0.502-3.458,0.843-4.245,1.039c-1.323,0.325-2.301,0.616-2.947,0.883c-0.796,0.317-1.388,0.686-1.752,1.11
				c-0.403,0.457-0.62,1.039-0.675,1.756c-0.006,0.073-0.036,0.303-0.077,0.678c0.005,0.404,0.124,0.767,0.333,1.076
				c0.66,0.968,2.255,1.556,4.8,1.753c1.619,0.126,3.883-0.163,6.793-0.878c1.486-0.361,2.937-0.761,4.391-1.186
				c1.936-0.326,3.149-0.806,3.616-1.454c0.178-0.243,0.289-0.564,0.332-0.964c0.024-0.474,0.042-0.852,0.062-1.119
				c0.089-1.141,0.031-1.977-0.174-2.493c-0.122-0.327-0.341-0.662-0.683-0.982c-0.217-0.2-0.509-0.381-0.912-0.559
				c-0.073-0.629-0.12-1.292-0.126-2.001c1.316,0.249,2.622,0.46,3.908,0.621c5.039,0.575,10.067,0.965,15.123,1.15
				c0.05,0.139,0.078,0.251,0.071,0.348c-0.024,0.304-0.027,0.67-0.037,1.109c-0.017,0.695-0.023,1.562-0.006,2.602
				c-0.06,0.777-0.186,1.769-0.376,2.952c-0.757,0.442-1.491,0.752-2.19,0.917c-2.036,0.502-3.458,0.843-4.245,1.039
				c-1.323,0.325-2.301,0.616-2.947,0.883c-0.796,0.317-1.388,0.686-1.752,1.11c-0.403,0.457-0.62,1.039-0.675,1.756
				c-0.006,0.073-0.036,0.303-0.077,0.678c0.005,0.404,0.124,0.767,0.333,1.076c0.66,0.968,2.255,1.556,4.8,1.753
				c1.619,0.126,3.883-0.163,6.793-0.878c1.486-0.361,2.937-0.762,4.391-1.186c1.936-0.326,3.149-0.806,3.615-1.442
				c0.179-0.255,0.29-0.576,0.333-0.976c0.025-0.474,0.042-0.852,0.062-1.119c0.089-1.141,0.031-1.977-0.174-2.494
				c-0.122-0.327-0.341-0.662-0.683-0.982c-0.217-0.2-0.509-0.381-0.912-0.559c-0.153-1.185-0.171-2.53-0.055-4.024
				c0.016-0.206,0.032-0.413,0.06-0.618c0.059-0.606,0.143-1.211,0.252-1.825c1.75,0.014,3.45-0.099,5.082-0.302
				c1.769-0.23,3.911-0.686,6.438-1.357c0.826-0.229,1.679-0.481,2.532-0.744c0.123-0.003,0.259-0.017,0.404-0.006
				c0.049,0.004,0.11,0.009,0.157,0.025c-0.229-1.472-0.536-3.511-0.911-6.094c-0.692-4.806-1.161-8.716-1.403-11.74
				c-0.244-3.012-0.468-6.597-0.697-10.744c-0.216-4.158-0.299-7.036-0.235-8.644c0.076-1.607,0.111-3.327,0.141-5.132
				c0.026-2.075,0.164-4.642,0.403-7.714l0.22-2.83c0.929-0.441,1.912-0.963,2.951-1.567c-0.03-0.088-0.06-0.176-0.078-0.25
				c0.036-3.626-0.138-7.378-0.521-11.281c-0.688-6.919-2.074-13.514-4.186-19.762C124.941,83.664,121.375,74.504,109.985,60.316z
				 M77.062,92.176c-0.639-1.235-0.937-1.966-0.92-2.185c0.027-0.352,0.704-1.815,2.042-4.374c-0.143,1.846-0.195,3.455-0.177,4.812
				c0.002,1.075,0.03,2.299,0.072,3.646C77.648,93.309,77.305,92.671,77.062,92.176z"/>
			<path fill="none" d="M83.131,178.241c0,0-0.012-0.001-0.025,0.011c0.025-0.011,0.05-0.009,0.086-0.006l-0.01-0.025
				C83.169,178.232,83.157,178.231,83.131,178.241z"/>
			<path fill="none" d="M108.36,184.598c0,0-0.012-0.001-0.025,0.011c0.025-0.011,0.05-0.009,0.086-0.006l-0.01-0.025
				C108.397,184.589,108.385,184.588,108.36,184.598z"/>
			<path fill="none" d="M87.245,173.845c-0.181-0.038-0.36-0.089-0.529-0.126l-0.032,0.095
				C86.879,173.828,87.062,173.843,87.245,173.845z"/>
			<path fill="none" d="M78.184,85.617c-1.338,2.559-2.015,4.022-2.042,4.374c-0.017,0.218,0.281,0.95,0.92,2.185
				c0.243,0.495,0.586,1.133,1.016,1.899c-0.043-1.347-0.07-2.571-0.072-3.646C77.989,89.072,78.04,87.463,78.184,85.617z"/>
			<path fill="none" d="M78.384,102.126c-0.012-0.001-0.025,0.01-0.038,0.021l0.033,0.051
				C78.38,102.174,78.382,102.15,78.384,102.126z"/>
			<path fill="none" d="M86.784,32.272c0.001-0.012,0.002-0.024-0.01-0.025l-0.001,0.012C86.784,32.26,86.784,32.26,86.784,32.272z"
				/>
			<path fill="none" d="M77.014,102.899l-0.022-0.038C76.991,102.873,77.002,102.886,77.014,102.899z"/>
			<path fill="none" d="M100.797,170.938c-0.361-0.089-0.734-0.167-1.11-0.221C100.845,170.954,101.218,171.032,100.797,170.938z"/>
			<path fill="#C372AD" d="M110.618,61.624c-1.439-1.961-3.404-3.013-4.802-4.087c-0.461-0.366-0.974-0.699-1.55-1.012
				c-1.657,2.254-3.72,4.378-6.204,6.384c-0.914,0.735-1.802,1.436-2.636,2.08c-1.907,2.479-3.799,4.445-5.69,5.923
				c-1.355,1.043-2.663,1.809-3.937,2.284c-0.124-0.144-0.272-0.278-0.437-0.364c-0.022-0.038-0.044-0.065-0.067-0.091
				c-0.885-0.594-1.642-1.093-2.27-1.52c-0.02,0.096-0.026,0.181-0.034,0.278c-0.44,4.56-0.866,8.949-1.28,13.169
				c-0.414,4.232-0.494,8.416-0.254,12.576c0.254,4.149,0.379,8.997,0.378,14.543c-0.004,3.836,0.001,6.768,0.015,8.798
				c3.011,0.82,6.617,1.393,10.829,1.72c5.393,0.419,11.154,0.206,17.272-0.651c5.138-0.701,10.097-1.794,14.878-3.255
				c1.906-0.573,3.806-1.378,5.675-2.418c-0.019-0.551-0.034-1.139-0.06-1.752c-0.168-5.096-0.614-9.602-1.338-13.531
				c-0.735-3.942-1.655-7.716-2.795-11.335C125.157,85.664,121.764,76.814,110.618,61.624z M83.766,74.774
				c0.189-0.23,0.442-0.332,0.746-0.308c0.377,0.029,0.633,0.208,0.756,0.523c0.074,0.152,0.098,0.313,0.087,0.459
				c-0.015,0.194-0.09,0.372-0.225,0.532c-0.189,0.23-0.442,0.332-0.759,0.308c-0.365-0.028-0.609-0.194-0.744-0.51l-0.086-0.471
				C83.555,75.124,83.63,74.946,83.766,74.774z M82.585,84.615l-0.098-0.472c0.014-0.182,0.089-0.36,0.237-0.531
				c0.189-0.23,0.442-0.332,0.747-0.309c0.377,0.029,0.621,0.207,0.743,0.522c0.074,0.152,0.098,0.313,0.087,0.459
				c-0.015,0.194-0.09,0.372-0.225,0.532c-0.189,0.23-0.43,0.333-0.746,0.308C82.964,85.096,82.708,84.93,82.585,84.615z
				 M82.512,93.283c-0.05-0.309-0.087-0.459-0.086-0.471c0.014-0.182,0.089-0.36,0.224-0.52c0.19-0.242,0.431-0.345,0.748-0.321
				c0.377,0.029,0.634,0.196,0.757,0.498c0.073,0.165,0.097,0.326,0.085,0.483c-0.016,0.206-0.091,0.384-0.226,0.544
				c-0.176,0.218-0.429,0.321-0.758,0.296C82.892,93.765,82.647,93.599,82.512,93.283z M82.495,102.811
				c-0.062-0.31-0.087-0.459-0.086-0.471c0.014-0.182,0.089-0.359,0.224-0.52c0.202-0.241,0.443-0.344,0.76-0.32
				c0.377,0.029,0.634,0.196,0.758,0.499c0.073,0.165,0.097,0.325,0.085,0.483c-0.016,0.207-0.091,0.384-0.226,0.544
				c-0.176,0.219-0.429,0.321-0.758,0.296C82.875,103.293,82.63,103.127,82.495,102.811z M84.212,113.048
				c-0.189,0.23-0.442,0.332-0.759,0.308c-0.377-0.029-0.622-0.195-0.756-0.511l-0.086-0.471c0.014-0.182,0.089-0.36,0.225-0.533
				c0.189-0.229,0.442-0.332,0.759-0.307c0.377,0.029,0.633,0.208,0.755,0.523c0.074,0.153,0.098,0.313,0.087,0.459
				C84.422,112.71,84.346,112.888,84.212,113.048z"/>
			<path d="M84.358,76.457c0.317,0.025,0.57-0.078,0.759-0.308c0.135-0.161,0.21-0.338,0.225-0.532
				c0.011-0.146-0.013-0.306-0.087-0.459c-0.123-0.315-0.378-0.494-0.756-0.523c-0.304-0.024-0.557,0.079-0.746,0.308
				c-0.136,0.173-0.211,0.35-0.225,0.532l0.086,0.471C83.748,76.263,83.993,76.429,84.358,76.457z M83.86,75.135
				c0.134-0.148,0.299-0.221,0.506-0.205c0.377,0.029,0.568,0.252,0.562,0.654c-0.01,0.134-0.056,0.252-0.15,0.355
				c-0.123,0.162-0.287,0.222-0.506,0.205c-0.231-0.018-0.406-0.129-0.49-0.319c-0.052-0.114-0.081-0.226-0.072-0.336
				C83.72,75.369,83.778,75.251,83.86,75.135z"/>
			<path fill="#F287B7" d="M84.272,76.145c0.219,0.017,0.383-0.044,0.506-0.205c0.094-0.103,0.14-0.221,0.15-0.355
				c0.007-0.403-0.184-0.625-0.562-0.654c-0.207-0.016-0.372,0.057-0.506,0.205c-0.082,0.116-0.14,0.233-0.15,0.355
				c-0.008,0.109,0.02,0.221,0.072,0.336C83.865,76.015,84.04,76.127,84.272,76.145z"/>
			<path d="M84.063,84.986c0.135-0.161,0.21-0.338,0.225-0.532c0.011-0.146-0.013-0.306-0.087-0.459
				c-0.122-0.315-0.366-0.493-0.743-0.522c-0.304-0.024-0.558,0.079-0.747,0.309c-0.148,0.172-0.223,0.349-0.237,0.531l0.098,0.472
				c0.123,0.315,0.379,0.481,0.744,0.51C83.633,85.319,83.874,85.216,84.063,84.986z M82.73,84.65
				c-0.045-0.211-0.074-0.311-0.073-0.323c0.009-0.121,0.068-0.239,0.15-0.355c0.134-0.148,0.299-0.221,0.506-0.205
				c0.377,0.029,0.568,0.252,0.563,0.642c-0.01,0.134-0.057,0.264-0.151,0.367c-0.123,0.162-0.287,0.222-0.506,0.205
				C82.987,84.964,82.812,84.852,82.73,84.65z"/>
			<path fill="#F287B7" d="M83.724,84.777c0.094-0.103,0.141-0.234,0.151-0.367c0.006-0.39-0.185-0.613-0.563-0.642
				c-0.207-0.016-0.372,0.057-0.506,0.205c-0.083,0.116-0.141,0.233-0.15,0.355c-0.001,0.012,0.028,0.112,0.073,0.323
				c0.082,0.202,0.257,0.313,0.489,0.331C83.437,84.999,83.601,84.938,83.724,84.777z"/>
			<path d="M84.001,93.668c0.135-0.161,0.21-0.338,0.226-0.544c0.012-0.158-0.012-0.319-0.085-0.483
				c-0.123-0.302-0.38-0.469-0.757-0.498c-0.317-0.025-0.558,0.079-0.748,0.321c-0.135,0.16-0.21,0.338-0.224,0.52
				c-0.001,0.012,0.036,0.161,0.086,0.471c0.135,0.316,0.379,0.482,0.744,0.51C83.572,93.989,83.825,93.886,84.001,93.668z
				 M82.664,93.381c-0.045-0.211-0.074-0.311-0.073-0.324c0.009-0.121,0.068-0.239,0.15-0.355c0.134-0.148,0.299-0.221,0.506-0.205
				c0.377,0.029,0.568,0.252,0.563,0.643c-0.01,0.133-0.057,0.264-0.151,0.367c-0.123,0.161-0.287,0.222-0.506,0.205
				C82.922,93.694,82.759,93.583,82.664,93.381z"/>
			<path fill="#F287B7" d="M83.659,93.507c0.094-0.103,0.141-0.234,0.151-0.367c0.006-0.391-0.185-0.613-0.563-0.643
				c-0.207-0.016-0.372,0.057-0.506,0.205c-0.083,0.116-0.141,0.233-0.15,0.355c-0.001,0.012,0.028,0.112,0.073,0.324
				c0.094,0.203,0.257,0.313,0.489,0.331C83.372,93.729,83.536,93.668,83.659,93.507z"/>
			<path d="M83.997,103.197c0.135-0.16,0.21-0.338,0.226-0.544c0.012-0.158-0.012-0.318-0.085-0.483
				c-0.124-0.303-0.38-0.469-0.758-0.499c-0.317-0.025-0.557,0.079-0.76,0.32c-0.135,0.161-0.21,0.338-0.224,0.52
				c-0.001,0.012,0.024,0.161,0.086,0.471c0.135,0.316,0.379,0.481,0.756,0.511C83.567,103.518,83.82,103.415,83.997,103.197z
				 M83.654,103.036c-0.123,0.162-0.287,0.222-0.506,0.205c-0.232-0.018-0.394-0.128-0.489-0.331
				c-0.045-0.211-0.074-0.311-0.073-0.323c0.009-0.122,0.067-0.239,0.15-0.355c0.134-0.148,0.299-0.221,0.506-0.205
				c0.377,0.029,0.568,0.252,0.563,0.642C83.795,102.802,83.748,102.933,83.654,103.036z"/>
			<path fill="#F287B7" d="M83.242,102.027c-0.207-0.016-0.372,0.056-0.506,0.205c-0.083,0.116-0.14,0.234-0.15,0.355
				c-0.001,0.012,0.028,0.112,0.073,0.323c0.095,0.203,0.257,0.313,0.489,0.331c0.219,0.017,0.383-0.044,0.506-0.205
				c0.094-0.102,0.141-0.233,0.151-0.367C83.811,102.278,83.62,102.056,83.242,102.027z"/>
			<path d="M83.581,111.704c-0.317-0.025-0.569,0.078-0.759,0.307c-0.136,0.173-0.211,0.351-0.225,0.533l0.086,0.471
				c0.135,0.316,0.379,0.482,0.756,0.511c0.317,0.025,0.569-0.078,0.759-0.308c0.135-0.16,0.21-0.338,0.225-0.532
				c0.011-0.146-0.013-0.306-0.087-0.459C84.214,111.912,83.959,111.734,83.581,111.704z M83.86,113.009
				c-0.123,0.162-0.287,0.222-0.506,0.205c-0.231-0.018-0.394-0.128-0.489-0.331c-0.045-0.211-0.074-0.311-0.073-0.323
				c0.009-0.122,0.068-0.239,0.15-0.355c0.134-0.149,0.299-0.221,0.506-0.205c0.39,0.03,0.581,0.253,0.563,0.642
				C84,112.776,83.953,112.906,83.86,113.009z"/>
			<path fill="#F287B7" d="M83.448,112c-0.207-0.016-0.372,0.056-0.506,0.205c-0.083,0.116-0.141,0.233-0.15,0.355
				c-0.001,0.012,0.028,0.112,0.073,0.323c0.095,0.203,0.257,0.314,0.489,0.331c0.219,0.017,0.383-0.044,0.506-0.205
				c0.094-0.102,0.14-0.233,0.151-0.367C84.028,112.252,83.837,112.03,83.448,112z"/>
			<path fill="#FCDA00" d="M64.55,18.427c-1.337,1.924-2.332,4.315-2.994,7.171c2.086-1.475,4.681-2.08,7.798-1.838
				c0.658,0.051,1.479,0.2,2.463,0.46c0.984,0.26,2.17,0.45,3.57,0.558c2.264,0.176,4.142-0.179,5.643-1.053
				c0.45-0.271,0.879-0.591,1.263-0.965c0.198-0.18,0.371-0.362,0.53-0.521c0.108,0.033,0.167,0.062,0.202,0.089
				c0.069,0.054,0.087,0.141,0.077,0.263c-0.018,0.231-0.223,0.508-0.605,0.857c-0.421,0.37-0.961,0.707-1.623,1.022
				c-0.508,0.229-1.026,0.434-1.552,0.588c0.279,0.828,0.623,1.6,1.032,2.328c1.1,1.93,2.536,3.312,4.319,4.159
				c0.649,0.319,1.353,0.557,2.1,0.713l0.001-0.012c0.024,0.002,0.037,0.003,0.05-0.008c0.084,0.019,0.156,0.037,0.242,0.043
				c0.134,0.01,0.27-0.004,0.381-0.019c2.854,5.841,4.631,11.978,5.331,18.422c0.374,3.389,0.466,6.78,0.276,10.174
				c-0.117,1.982-0.366,3.93-0.76,5.842c2.447-1.704,4.674-3.412,6.668-5.115c2.676-2.284,4.86-5.01,6.551-8.178
				c1.68-3.18,1.835-7.701,0.455-13.587c-1.381-5.874-4.599-11.915-9.665-18.135c-5.067-6.209-10.655-9.477-16.78-9.781
				c3.472,0.086,3.168,0.05-0.923-0.096c-4.081-0.133-7.718,0.965-10.89,3.321C66.501,16.012,65.447,17.116,64.55,18.427z"/>
			<path fill="#FCDA00" d="M59.187,29.446c-0.073,0.153-0.134,0.307-0.195,0.461c-0.272,0.822-0.43,1.274-0.472,1.344
				c-0.113,0.04-0.2,0.058-0.288,0.076c-0.178-0.234-0.271-0.449-0.257-0.631c0.037-0.474,0.255-1.068,0.63-1.796
				c0.487-0.915,1.127-1.745,1.918-2.466c0.159-0.147,0.317-0.293,0.486-0.426c0.3-1.186,0.726-2.57,1.277-4.152
				c0.442-1.273,0.986-2.44,1.63-3.477c0.855-1.388,1.865-2.567,3.056-3.55c-1.282,0.585-2.432,1.351-3.462,2.309
				c-0.382,0.349-0.742,0.724-1.092,1.125c-0.699,0.801-1.318,1.669-1.856,2.605c-0.739,1.311-1.372,2.691-1.901,4.128
				c-0.225,0.532-0.415,1.092-0.568,1.642c-0.22,0.777-0.378,1.559-0.514,2.355c-0.149,0.978-0.1,1.922,0.158,2.859
				c0.154,0.537,0.496,0.869,1.051,0.973c0.337,0.075,0.68,0.077,1.001,0.041c-0.157-0.819-0.309-1.698-0.482-2.627
				C59.258,29.952,59.216,29.692,59.187,29.446z"/>
			<path fill="#FED09E" d="M85.272,70.041c1.823-0.921,3.505-2.073,5.033-3.458c0.58-0.529,1.135-1.06,1.692-1.603
				c0.04-0.351,0.091-0.702,0.119-1.054c0.391-3.61,0.475-7.22,0.254-10.841c-0.218-3.816-0.963-7.943-2.223-12.39
				c-0.741-2.599-1.731-5.156-2.969-7.671c-0.919-0.157-1.769-0.406-2.562-0.761c-1.776-0.785-3.244-2.072-4.405-3.848
				c-0.635-0.966-1.13-2.006-1.473-3.12c-0.01-0.025-0.021-0.051-0.031-0.076c-1.084,0.233-2.217,0.317-3.422,0.223
				c-1.558-0.121-2.793-0.314-3.704-0.568c-0.923-0.255-1.684-0.399-2.292-0.447c-3.969-0.308-6.912,0.685-8.842,2.979
				c-0.269,0.309-0.516,0.656-0.729,1.031c0.014,0.135,0.028,0.271,0.052,0.432c0.196,1.579,2.142,10.905,2.27,11.306
				c0.38,1.105,0.747,2.208,1.127,3.313c0.238,0.727,0.487,1.455,0.724,2.194c1.51,4.528,3.197,8.996,5.061,13.38
				c1.079,2.515,2.48,4.823,4.227,6.925c0.852,1.019,1.824,1.901,2.917,2.658c1.605,1.102,3.391,1.766,5.333,1.99
				C82.772,70.848,84.05,70.642,85.272,70.041z M67.479,48.537c-0.292-0.023-0.597-1.622-0.927-4.788
				c0.005-0.061-0.003-0.122-0.01-0.184c-0.179-1.639-0.295-3.297-0.363-4.952c0.014-0.182,0.035-0.291,0.063-0.337
				c0.041-0.058,0.142-0.087,0.275-0.076c0.11,0.009,0.203,0.382,0.269,1.108c0.027,0.283,0.093,1.168,0.199,2.642
				c0.034,0.662,0.084,1.277,0.139,1.843c0.096,0.972,0.19,1.811,0.308,2.504c0.032,0.064,0.063,0.139,0.117,0.229
				c-0.013,0.011-0.026,0.022-0.028,0.047l-0.038,0.021c0.094,0.52,0.195,0.956,0.304,1.294c0.236-0.043,0.556-0.226,0.939-0.575
				c0.407-0.347,0.679-0.546,0.804-0.573c0.06,0.017,0.118,0.058,0.202,0.089c0.069,0.054,0.049,0.163-0.052,0.35
				c-0.112,0.175-0.427,0.456-0.958,0.83C68.176,48.384,67.759,48.559,67.479,48.537z"/>
			<path d="M69.679,47.181c0.1-0.188,0.121-0.296,0.052-0.35c-0.083-0.031-0.142-0.072-0.202-0.089
				c-0.124,0.027-0.397,0.226-0.804,0.573c-0.382,0.349-0.703,0.532-0.939,0.575c-0.109-0.338-0.209-0.774-0.304-1.294
				c-0.007-0.062-0.015-0.123-0.035-0.186c0.021,0.051,0.041,0.101,0.073,0.164c0.002-0.024,0.015-0.036,0.028-0.047
				c-0.054-0.09-0.085-0.165-0.117-0.229c-0.118-0.693-0.212-1.531-0.308-2.504c-0.054-0.566-0.104-1.181-0.139-1.843
				c-0.106-1.474-0.172-2.359-0.199-2.642c-0.066-0.726-0.16-1.1-0.269-1.108c-0.134-0.01-0.234,0.019-0.275,0.076
				c-0.028,0.047-0.049,0.155-0.063,0.337c0.068,1.655,0.184,3.313,0.363,4.952c0.008,0.062,0.015,0.123,0.01,0.184
				c0.33,3.165,0.635,4.765,0.927,4.788c0.28,0.022,0.698-0.154,1.241-0.527C69.251,47.637,69.567,47.356,69.679,47.181z"/>
			<path fill="#FCDA00" d="M71.729,65.263c-0.888-1.181-1.66-2.438-2.355-3.75c-0.224-0.433-0.434-0.877-0.645-1.309
				c0.069,1.789,0.036,3.485-0.09,5.1c-0.081,1.044-0.131,1.688-0.161,1.918c-0.12,0.919-0.297,1.773-0.503,2.539
				c1.551-0.417,3.221-1.411,4.997-2.996l0.013-0.011C72.544,66.279,72.117,65.782,71.729,65.263z"/>
			<path fill="#FEFAD6" d="M79.479,70.983c-0.02,0.096-0.027,0.193-0.036,0.303c-0.029,0.376,0.102,0.741,0.381,1.08
				c0.2,0.26,0.479,0.465,0.821,0.626c0.381-0.483,0.801-1.013,1.25-1.589C81.065,71.388,80.254,71.251,79.479,70.983z"/>
			<path fill="#C372AD" d="M81.315,116.599c0.126-4.303,0.066-8.901-0.164-13.818c-0.219-4.916-0.354-8.849-0.372-11.77
				c-0.042-2.935,0.274-7.004,0.924-12.219c0.344-2.856,0.646-5.325,0.88-7.396c-0.014,0.023-0.027,0.035-0.04,0.046
				c-0.585,0.749-1.116,1.44-1.606,2.062c-0.011-0.013-0.023-0.014-0.035-0.015c-0.044,0.094-0.077,0.202-0.097,0.298
				c-0.312-0.085-0.585-0.192-0.82-0.32c-0.362,3.71-0.715,7.312-1.058,10.791c-0.354,3.613-0.473,7.196-0.333,10.762
				c0.021,0.051,0.053,0.102,0.086,0.153c-0.027,0.194-0.033,0.425-0.027,0.67l-0.013,0.17c0.004,0.269,0.019,0.539,0.034,0.821
				c0.254,4.149,0.379,8.997,0.378,14.544c-0.002,3.652-0.002,6.487,0.014,8.492c0.69,0.261,1.419,0.501,2.197,0.732
				C81.263,119.319,81.28,117.989,81.315,116.599z"/>
			<path fill="#C372AD" d="M78.192,97.505c-0.031-0.699-0.052-1.385-0.075-2.034c-0.747-1.426-1.299-2.52-1.68-3.283
				c-0.625-1.258-0.921-2.014-0.903-2.257c0.015-0.195,0.832-2.037,2.438-5.529c0.131-0.271,0.25-0.53,0.367-0.778
				c0.153-1.65,0.341-3.443,0.592-5.415c0.229-1.851,0.433-3.534,0.613-5.059c-0.137-0.121-0.25-0.252-0.349-0.394
				c-0.631,0.867-1.365,1.959-2.216,3.298c-1.018,1.595-1.94,3.063-2.767,4.403c-0.814,1.33-1.588,2.626-2.298,3.878
				c-0.795,1.404-1.279,2.906-1.464,4.505c-0.095,0.75-0.006,1.49,0.233,2.205c0.519,1.519,1.204,2.952,2.054,4.313
				c0.752,1.195,1.479,2.399,2.194,3.615c0.119,0.205,0.238,0.41,0.356,0.614C76.271,99.054,77.23,98.371,78.192,97.505z"/>
			<path fill="#FEFAD6" d="M89.446,68.031c-0.739,0.529-1.478,1.058-2.207,1.612c-1.104,0.806-2.309,1.348-3.615,1.601
				c0.559,0.373,1.258,0.831,2.109,1.398c1.709-0.71,3.521-1.962,5.436-3.756c0.699-0.642,1.365-1.336,2.022-2.067
				c-0.377,0.276-0.74,0.541-1.091,0.795c0,0,0,0-0.001,0.012c-0.115,0.064-0.208,0.155-0.302,0.258
				c-0.027,0.034-0.053,0.057-0.067,0.08c-0.098,0.005-0.185,0.01-0.272,0.028c0.136-0.649,0.273-1.311,0.386-1.974
				C91.1,66.755,90.301,67.426,89.446,68.031z"/>
			<path fill="#FED09E" d="M78.346,102.147c-0.463,0.282-0.922,0.515-1.354,0.714l0.022,0.038l-0.001,0.012l0.022,0.026
				c-0.001,0.012-0.002,0.024,0.01,0.025c0.411,0.863,0.634,1.772,0.671,2.716c0.016,0.429-0.089,0.824-0.313,1.185
				c-0.362,0.571-0.901,0.724-1.628,0.46c0.003-0.195,0.149-0.342,0.436-0.418c0.45-0.112,0.751-0.369,0.88-0.763
				c-0.234,0.019-0.479,0.012-0.734-0.008c-0.706-0.055-1.199-0.178-1.489-0.384c-0.127-0.107-0.207-0.175-0.253-0.215
				c-0.094-0.056-0.188-0.1-0.286-0.108c-0.268-0.021-0.436,0.088-0.516,0.338c-0.033,0.12-0.044,0.253-0.031,0.401
				c-0.129,1.664,0.89,2.586,3.081,2.756c0.609,0.047,1.177-0.018,1.719-0.208c-0.033-2.104-0.096-4.283-0.205-6.516L78.346,102.147
				z"/>
			<path fill="#FEFAD6" d="M78.224,98.35c-0.928,0.747-1.795,1.351-2.615,1.813c0.388,0.69,0.749,1.39,1.099,2.101
				c0.546-0.251,1.095-0.538,1.636-0.875C78.304,100.324,78.26,99.306,78.224,98.35z"/>
			<path fill="#FFFFFF" d="M81.256,121.298c-0.753-0.242-1.492-0.507-2.192-0.793c0.003,0.746,0.005,1.357,0.018,1.822
				c-0.005,0.219,0.003,0.44,0.01,0.661c0.689,0.273,1.43,0.514,2.208,0.746C81.275,122.949,81.265,122.129,81.256,121.298z"/>
			<path fill="#FFFFFF" d="M106.086,123.005c-4.504,0.432-9.004,0.486-13.521,0.136c-3.957-0.307-7.191-0.778-9.714-1.402
				c-0.336-0.087-0.685-0.175-1.008-0.273c-0.008,0.573,0.004,1.051,0.011,1.442c-0.002,0.342-0.002,0.66,0.009,0.99
				c3.045,0.847,6.735,1.439,11.045,1.774c5.393,0.419,11.155,0.206,17.272-0.65c5.137-0.701,10.097-1.794,14.877-3.255
				c1.856-0.553,3.693-1.338,5.508-2.321c-0.011-0.807-0.027-1.701-0.06-2.693c-2.152,1.213-4.067,2.054-5.745,2.535
				C118.071,121.187,111.851,122.427,106.086,123.005z"/>
			<path fill="#F287B7" d="M127.118,131.663c0.029-2.111,0.167-4.678,0.402-7.702c0.044-0.876,0.083-1.692,0.142-2.457
				c-0.951,0.415-1.834,0.737-2.661,0.979c-6.688,1.9-12.909,3.14-18.674,3.718c-4.504,0.432-9.004,0.486-13.521,0.135
				c-3.957-0.307-7.191-0.778-9.714-1.402c-0.565-0.142-1.116-0.294-1.642-0.457c-0.023,0.292-0.047,0.607-0.084,0.922
				c-0.007,0.402-0.018,1.501-0.049,3.307c-0.026,1.757-0.073,2.987-0.127,3.692c-0.27,3.473-0.737,6.809-1.417,10.043
				c-0.569,2.754-1.376,5.733-2.396,8.928c-0.599,1.884-1.645,4.942-3.149,9.163c-0.362,1.035-0.707,2.01-1.037,2.949
				c0.87,0.63,1.897,0.807,3.069,0.544c1.52-0.334,2.893-0.032,4.13,0.919c0.127,0.096,0.229,0.201,0.305,0.329
				c0.231,0.336,0.473,0.696,0.716,1.033c0.124,0.144,0.26,0.277,0.423,0.387c1.306,0.846,2.751,1.166,4.336,0.947
				c0.903-0.113,1.778-0.021,2.625,0.265c1.253,0.427,2.418,1.043,3.506,1.86c0.729,0.545,1.551,0.853,2.465,0.912
				c0.512,0.027,1.02-0.043,1.501-0.238c1.225-0.479,2.496-0.6,3.814-0.376c0.278,0.046,1.004,0.322,2.139,0.85
				c1.147,0.529,2.128,0.666,2.944,0.412c0.816-0.254,1.404-0.575,1.79-0.973c0.373-0.387,1.033-0.531,1.983-0.457
				c0.304,0.024,0.579,0.118,0.823,0.284c1.2,0.79,2.526,1.063,3.952,0.844c0.223-0.031,0.424-0.102,0.616-0.209
				c1.29-0.682,2.649-0.992,4.113-0.915c0.573,0.032,1.58,0.318,3.032,0.858c1.44,0.539,2.6,0.434,3.454-0.318
				c0.412-0.261,0.914-0.577,1.518-0.933c0.59-0.345,1.219-0.553,1.86-0.601c0.307-0.013,0.638-0.024,1.018-0.019
				c-0.377-2.558-0.71-5.37-1.009-8.459c-0.417-4.406-0.662-7.089-0.698-8.044c-0.049-0.945-0.18-3.044-0.369-6.284
				c-0.203-3.229-0.283-5.984-0.242-8.241C127.057,135.605,127.095,133.531,127.118,131.663z"/>
			<path fill="#FEFAD6" d="M72.985,164.1c-0.014,0.023-0.015,0.035-0.016,0.048l0.203,0.077
				C73.101,164.183,73.043,164.141,72.985,164.1z"/>
			<path fill="#FFFFFF" d="M126.418,170.338c-0.589,0.492-1.218,0.858-1.913,1.134c-0.681,0.253-1.587,0.244-2.693-0.026
				c-0.302-0.048-0.601-0.144-0.887-0.252c-1.266-0.575-2.585-0.775-3.958-0.613c-0.459,0.074-0.898,0.211-1.308,0.436
				c-1.418,0.758-2.912,0.91-4.471,0.484c-0.276-0.07-0.525-0.175-0.772-0.316c-0.654-0.405-1.359-0.631-2.104-0.664
				c-0.257-0.007-0.973,0.389-2.135,1.154c-1.175,0.776-3.342,0.449-6.491-0.956c-0.121-0.021-0.242-0.043-0.35-0.064
				c-0.656-0.075-1.273-0.014-1.866,0.209c-0.429,0.162-0.868,0.287-1.314,0.362c-0.782,0.135-1.552,0.112-2.296-0.093
				c-1.141-0.296-2.192-0.793-3.155-1.479c-0.742-0.534-1.546-0.914-2.433-1.166c-0.311-0.097-0.627-0.134-0.933-0.134
				c-1.021,0.055-2.036,0.038-3.046-0.053c-1.655-0.14-2.676-0.562-3.087-1.253c-0.412-0.692-1.023-1.338-1.822-1.937
				c-0.799-0.588-1.816-0.752-3.073-0.495c-1.246,0.27-2.301,0.139-3.142-0.391l-0.203-0.077c-0.361,1.022-0.693,1.986-0.997,2.903
				c2.717,1.921,6.358,3.609,10.912,5.062c5.308,1.683,13.046,2.821,23.192,3.401c3.462,0.22,6.908,0.317,10.365,0.28
				c4.11-0.084,8.237-0.717,12.421-1.907c0.413-0.115,0.815-0.242,1.216-0.358c-0.084-0.495-0.18-1.004-0.262-1.523
				c-0.146-0.805-0.276-1.658-0.415-2.537c-0.344,0.01-0.688,0.02-1.044,0.041C127.653,169.578,126.995,169.857,126.418,170.338z"/>
			<path d="M108.224,185.87c-0.593-0.413-1.017-0.629-1.26-0.648c-0.195-0.015-0.317-0.025-0.367-0.004
				c-0.087,0.018-0.13,0.1-0.14,0.233c-0.016,0.207-0.009,0.268,0.01,0.184c1.305,0.859,2.055,1.295,2.262,1.311
				c0.195,0.015,0.296-0.026,0.277-0.1c0.034-0.119,0.054-0.216,0.058-0.276C109.069,186.498,108.793,186.269,108.224,185.87z"/>
			<path fill="#A56829" d="M117.209,185.786c-0.004-0.416-0.141-0.866-0.398-1.338c-0.203-0.382-0.45-0.67-0.752-0.877
				c0.019,0.075,0.037,0.15,0.044,0.224c0.053,0.261,0.119,0.51,0.175,0.747c-0.113,0.04-0.228,0.092-0.342,0.144
				c0.011,0.013,0.01,0.025,0.022,0.038c-0.779,0.245-1.728,0.33-2.848,0.243c-1.68-0.13-2.945-0.4-3.785-0.782
				c-0.28,0.137-0.585,0.272-0.912,0.393l0.01,0.025c0.304,0.024,0.718,0.215,1.228,0.596c0.546,0.384,0.838,0.725,0.915,0.999
				c-0.057,0.106-0.183,0.145-0.378,0.13c-0.219-0.017-0.632-0.22-1.215-0.595c-0.583-0.375-0.917-0.646-1.003-0.799
				c0.098-0.151,0.19-0.242,0.28-0.296c-0.101,0.041-0.227,0.08-0.34,0.12c-0.377,0.117-0.815,0.242-1.328,0.385
				c-0.4,0.103-0.849,0.203-1.336,0.324c0.384,0.103,1.18,0.739,2.413,1.885c-0.067,0.068-0.123,0.161-0.191,0.254
				c-0.053,0.057-0.142,0.087-0.263,0.077c-0.438-0.034-0.965-0.356-1.579-0.965c-0.534-0.543-0.791-0.855-0.784-0.941
				c0.008-0.109,0.014-0.182,0.03-0.23c-0.024-0.002-0.05,0.009-0.075,0.019c-0.299,0.062-0.598,0.125-0.91,0.198
				c-1.916,0.389-3.243,0.75-3.956,1.098c-0.419,0.187-0.766,0.405-1.044,0.664c-0.013,0.012-0.014,0.023-0.016,0.048
				c-0.047,0.449-0.016,0.842,0.104,1.181c0.372,1.043,1.526,1.646,3.474,1.797c3.007,0.233,7.067-0.624,12.177-2.549
				c0.72-0.286,1.554-0.613,2.491-1.004c0.002-0.024,0.006-0.073,0.008-0.109C117.185,186.407,117.213,186.043,117.209,185.786z
				 M108.728,186.948c-0.207-0.016-0.957-0.453-2.262-1.311c-0.019,0.084-0.026,0.022-0.01-0.184c0.01-0.134,0.054-0.216,0.14-0.233
				c0.051-0.021,0.173-0.011,0.367,0.004c0.243,0.019,0.668,0.235,1.26,0.648c0.569,0.398,0.845,0.628,0.84,0.701
				c-0.005,0.061-0.024,0.157-0.058,0.276C109.024,186.922,108.923,186.963,108.728,186.948z"/>
			<path fill="#FED09E" d="M110.319,176.711c-0.012,0.317-0.029,0.694-0.028,1.147c-0.004,0.208-0.009,0.427-0.014,0.658
				c0.533,0.078,1.115,0.148,1.748,0.197c1.157,0.09,2.246,0.101,3.28,0.035c0.014-0.182,0.026-0.34,0.039-0.498
				c0.058-0.741,0.116-1.335,0.162-1.771c-1.738-0.013-3.475-0.05-5.197-0.11C110.312,176.491,110.315,176.601,110.319,176.711z"/>
			<path fill="#EA2427" d="M115.192,180.205c0.024-0.304,0.043-0.559,0.059-0.765c-1.044,0.041-2.17,0.027-3.363-0.066
				c-0.584-0.045-1.119-0.099-1.617-0.15c0.006,0.245-0.002,0.501,0.002,0.77c0.509,0.064,1.055,0.131,1.64,0.176
				C113.081,180.261,114.17,180.272,115.192,180.205z"/>
			<path fill="#FEFAD6" d="M113.087,184.293c0.901,0.07,1.689,0.021,2.351-0.147c-0.007-0.074-0.025-0.149-0.044-0.223
				c-0.173-0.93-0.242-1.937-0.23-3.035c-1.045,0.053-2.183,0.038-3.389-0.056c-0.548-0.043-1.058-0.095-1.52-0.142
				c-0.074,0.8-0.199,1.78-0.388,2.951C110.735,183.976,111.808,184.194,113.087,184.293z"/>
			<path fill="#7D2818" d="M117.068,187.595c-0.846,0.326-1.579,0.623-2.186,0.869c-1.845,0.737-3.72,1.373-5.645,1.871
				c-2.751,0.727-4.992,1.03-6.72,0.895c-2.35-0.182-3.748-0.95-4.171-2.278c-0.061-0.164-0.097-0.325-0.108-0.497
				c-0.06,0.142-0.109,0.297-0.133,0.454c-0.001,0.012-0.001,0.012-0.001,0.012c-0.005,0.061-0.009,0.122-0.014,0.182
				c-0.028,0.364-0.034,0.596-0.03,0.706c0.037,0.308,0.163,0.587,0.376,0.836c0.609,0.67,1.985,1.095,4.14,1.262
				c1.595,0.124,3.648-0.132,6.159-0.768c1.311-0.326,2.689-0.72,4.17-1.179c2.12-0.483,3.388-0.885,3.783-1.246
				c0.197-0.168,0.313-0.403,0.362-0.717C117.048,187.85,117.059,187.717,117.068,187.595z"/>
			<path fill="#FEFAD6" d="M87.858,177.936c0.901,0.07,1.689,0.021,2.351-0.147c-0.007-0.074-0.025-0.149-0.044-0.223
				c-0.173-0.93-0.242-1.937-0.23-3.035c-1.045,0.053-2.183,0.038-3.389-0.055c-0.548-0.043-1.058-0.094-1.52-0.143
				c-0.074,0.801-0.199,1.78-0.388,2.951C85.507,177.619,86.58,177.837,87.858,177.936z"/>
			<path d="M82.996,179.514c-0.593-0.413-1.017-0.629-1.26-0.648c-0.195-0.015-0.317-0.025-0.367-0.004
				c-0.087,0.018-0.13,0.1-0.14,0.234c-0.016,0.206-0.009,0.268,0.01,0.184c1.305,0.859,2.055,1.296,2.262,1.312
				c0.195,0.015,0.296-0.026,0.277-0.101c0.034-0.12,0.054-0.216,0.058-0.276C83.841,180.141,83.566,179.9,82.996,179.514z"/>
			<path fill="#A56829" d="M91.98,179.429c-0.004-0.416-0.141-0.866-0.398-1.338c-0.203-0.383-0.45-0.67-0.752-0.877
				c0.019,0.075,0.037,0.149,0.044,0.223c0.053,0.261,0.119,0.51,0.175,0.747c-0.113,0.04-0.227,0.092-0.342,0.145
				c0.011,0.013,0.01,0.025,0.022,0.038c-0.779,0.245-1.728,0.33-2.848,0.243c-1.68-0.13-2.945-0.399-3.785-0.782
				c-0.28,0.137-0.585,0.273-0.912,0.394l0.01,0.025c0.304,0.024,0.718,0.215,1.228,0.596c0.546,0.384,0.838,0.725,0.915,1
				c-0.057,0.106-0.183,0.145-0.378,0.13c-0.219-0.017-0.632-0.22-1.215-0.595c-0.583-0.375-0.917-0.645-1.004-0.799
				c0.098-0.151,0.19-0.242,0.28-0.296c-0.101,0.041-0.214,0.081-0.34,0.12c-0.377,0.117-0.815,0.242-1.328,0.385
				c-0.4,0.103-0.849,0.203-1.336,0.324c0.384,0.103,1.181,0.727,2.413,1.886c-0.067,0.068-0.122,0.149-0.191,0.254
				c-0.054,0.057-0.142,0.087-0.263,0.077c-0.438-0.034-0.965-0.356-1.579-0.966c-0.534-0.542-0.791-0.855-0.784-0.941
				c0.008-0.109,0.014-0.182,0.03-0.23c-0.024-0.002-0.05,0.009-0.075,0.019c-0.299,0.063-0.598,0.125-0.909,0.186
				c-1.917,0.401-3.244,0.762-3.956,1.098c-0.42,0.199-0.767,0.416-1.045,0.676c-0.013,0.012-0.014,0.023-0.016,0.048
				c-0.047,0.449-0.016,0.842,0.104,1.181c0.371,1.055,1.526,1.646,3.474,1.797c3.007,0.233,7.067-0.624,12.178-2.56
				c0.719-0.274,1.553-0.601,2.49-0.992c0.003-0.036,0.006-0.073,0.008-0.109C91.957,180.05,91.985,179.686,91.98,179.429z
				 M83.5,180.591c-0.207-0.016-0.957-0.453-2.262-1.312c-0.019,0.084-0.026,0.022-0.01-0.184c0.01-0.134,0.054-0.216,0.14-0.234
				c0.051-0.02,0.173-0.011,0.367,0.004c0.243,0.019,0.668,0.235,1.26,0.648c0.57,0.386,0.845,0.628,0.84,0.701
				c-0.005,0.06-0.024,0.157-0.058,0.276C83.796,180.565,83.695,180.606,83.5,180.591z"/>
			<path fill="#7D2818" d="M91.84,181.238c-0.846,0.325-1.579,0.623-2.186,0.869c-1.845,0.737-3.72,1.373-5.645,1.871
				c-2.751,0.727-4.992,1.03-6.72,0.896c-2.35-0.182-3.748-0.951-4.171-2.279c-0.061-0.163-0.097-0.325-0.108-0.497
				c-0.06,0.142-0.109,0.297-0.133,0.454c-0.001,0.012-0.001,0.012-0.001,0.012c-0.005,0.061-0.009,0.121-0.014,0.182
				c-0.028,0.364-0.035,0.608-0.03,0.706c0.037,0.308,0.163,0.587,0.376,0.835c0.609,0.671,1.985,1.095,4.14,1.262
				c1.595,0.124,3.648-0.132,6.158-0.756c1.311-0.326,2.69-0.732,4.171-1.191c2.12-0.483,3.388-0.885,3.783-1.245
				c0.197-0.168,0.314-0.416,0.362-0.717C91.82,181.494,91.83,181.36,91.84,181.238z"/>
			<path fill="#EA2427" d="M86.716,173.718c-0.552-0.141-1.116-0.295-1.668-0.447c-0.009,0.122-0.007,0.244-0.004,0.367
				c0.509,0.064,1.055,0.131,1.64,0.176L86.716,173.718z"/>
		</g>
		<g>
			<circle cx="61.821" cy="36.524" r="2.778"/>
			<path d="M67.645,34.322c0.032,0.415,0.131,0.81,0.27,1.182c0.12,0.28,0.267,0.55,0.454,0.796c0.186,0.26,0.401,0.483,0.667,0.71
				c0.06,0.056,0.133,0.114,0.207,0.158c0.159,0.116,0.306,0.217,0.466,0.307c0.669,0.361,1.405,0.509,2.21,0.442
				c0.259-0.019,0.521-0.063,0.772-0.134c0.752-0.212,1.377-0.628,1.904-1.258c0.226-0.253,0.401-0.511,0.539-0.797
				c0.09-0.161,0.154-0.323,0.207-0.5c0.047-0.112,0.083-0.239,0.106-0.366c0.001-0.013,0.001-0.013,0.002-0.026
				c0.081-0.381,0.112-0.778,0.067-1.195c-0.035-0.544-0.178-1.033-0.414-1.477c-0.055-0.12-0.124-0.229-0.181-0.324
				c-0.22-0.327-0.481-0.618-0.795-0.887c-0.521-0.44-1.093-0.717-1.702-0.842c-0.279-0.06-0.547-0.094-0.831-0.09
				c-0.116,0.004-0.233,0.008-0.337,0.025c-0.104,0.005-0.195,0.011-0.286,0.029c-0.04,0.01-0.078,0.007-0.118,0.017
				c-0.903,0.162-1.672,0.606-2.284,1.345c-0.056,0.06-0.114,0.133-0.171,0.206c-0.26,0.354-0.457,0.739-0.592,1.141
				C67.65,33.264,67.597,33.776,67.645,34.322z M72.106,30.542c0.643,0.074,1.223,0.34,1.741,0.772
				c0.725,0.607,1.117,1.385,1.203,2.335c0.03,0.406,0,0.784-0.09,1.157c-0.123,0.48-0.354,0.928-0.704,1.342
				c-0.606,0.712-1.385,1.117-2.334,1.191c-0.408,0.042-0.809,0.011-1.169-0.091c-0.48-0.123-0.916-0.353-1.33-0.703
				c-0.414-0.338-0.714-0.741-0.923-1.198c-0.021-0.051-0.04-0.113-0.072-0.177c0.783-0.931,1.73-2.095,2.821-3.517
				C71.562,31.247,71.849,30.865,72.106,30.542z M69.014,31.723c0.619-0.711,1.385-1.117,2.334-1.191
				c0.111-0.016,0.234-0.018,0.357-0.021c-0.842,1.062-1.959,2.506-3.384,4.306c-0.046-0.187-0.08-0.386-0.101-0.596
				C68.145,33.285,68.406,32.448,69.014,31.723z"/>
			<path fill="#FFCD7C" d="M68.32,34.817c1.426-1.8,2.542-3.244,3.384-4.306c-0.123,0.003-0.246,0.005-0.357,0.021
				c-0.949,0.073-1.715,0.479-2.334,1.191c-0.607,0.724-0.869,1.562-0.794,2.498C68.24,34.431,68.274,34.63,68.32,34.817z"/>
			<path fill="#FFFFFF" d="M68.428,35.168c0.032,0.064,0.051,0.126,0.072,0.177c0.209,0.457,0.509,0.86,0.923,1.198
				c0.414,0.351,0.849,0.58,1.33,0.703c0.36,0.102,0.761,0.133,1.169,0.091c0.949-0.073,1.728-0.478,2.334-1.191
				c0.351-0.414,0.581-0.861,0.704-1.342c0.09-0.373,0.12-0.75,0.09-1.157c-0.086-0.95-0.478-1.727-1.203-2.335
				c-0.518-0.432-1.097-0.698-1.741-0.772c-0.258,0.323-0.545,0.705-0.858,1.109C70.158,33.074,69.211,34.237,68.428,35.168z"/>
			<path d="M69.948,34.493c0.023,0.014,0.036,0.015,0.047,0.028c-0.056-0.066-0.139-0.109-0.235-0.129
				c-0.288-0.071-0.469,0.037-0.54,0.326c-0.018,0.072-0.025,0.157,0.006,0.233c0.024,0.161,0.14,0.256,0.32,0.294
				c0.144,0.036,0.256,0.02,0.373-0.069c0.079-0.067,0.146-0.148,0.166-0.244c0.02-0.109,0.015-0.195-0.003-0.282
				c-0.002,0.024-0.004,0.049-0.006,0.073c-0.033,0.108-0.099,0.164-0.219,0.13c-0.072-0.018-0.13-0.059-0.137-0.121
				c-0.009-0.038-0.007-0.074-0.004-0.11C69.751,34.514,69.828,34.471,69.948,34.493z"/>
			<path d="M64.327,37.986c0,0,0,0-0.001,0.012c0.001-0.007,0.003-0.013,0.004-0.02C64.328,37.98,64.328,37.983,64.327,37.986z"/>
			<path fill="#FFCD7C" d="M63.37,34.531c-0.494-0.418-1.055-0.608-1.695-0.572c-0.603,0.039-1.1,0.282-1.501,0.716
				c-0.027,0.035-0.053,0.057-0.068,0.093c0.024,0.002,0.06,0.017,0.084,0.019c1.667,0.46,2.997,0.845,3.978,1.142
				C64.065,35.356,63.796,34.882,63.37,34.531z"/>
			<path fill="#FFFFFF" d="M62.087,38.902c0.616-0.05,1.127-0.317,1.533-0.812c0.014-0.023,0.028-0.047,0.054-0.069
				c0.383-0.509,0.563-1.095,0.529-1.759l-4.316-1.205c-0.029,0.059-0.07,0.117-0.1,0.176c-0.19,0.402-0.274,0.848-0.226,1.342
				c0.056,0.702,0.33,1.275,0.833,1.73c0.011,0.013,0.035,0.027,0.057,0.054c0.023,0.014,0.046,0.04,0.081,0.068
				c0.162,0.123,0.337,0.234,0.515,0.309C61.366,38.883,61.717,38.934,62.087,38.902z"/>
			<path d="M61.915,37.107c0.145,0.024,0.281,0.01,0.386-0.08c0.103-0.066,0.159-0.159,0.18-0.268
				c0.024-0.145,0.02-0.256-0.034-0.358c0.009,0.038,0.008,0.062,0.005,0.098c-0.034,0.12-0.111,0.175-0.231,0.141
				c-0.084-0.019-0.129-0.071-0.149-0.134c-0.009-0.038-0.007-0.074,0.009-0.11c0.022-0.121,0.099-0.164,0.232-0.141
				c0,0,0,0,0.012,0.001c-0.059-0.029-0.118-0.058-0.178-0.075c-0.313-0.073-0.505,0.034-0.578,0.347
				c-0.019,0.084-0.025,0.17,0.005,0.257C61.609,36.948,61.723,37.055,61.915,37.107z"/>
		</g>
	</g>
	<path fill="none" d="M103.9,105.889c0.007-0.038,0.014-0.076,0.009-0.112l-0.05,0.081
		C103.872,105.868,103.886,105.879,103.9,105.889z"/>
	<path d="M104.947,76.551c0.052,3.076-5.432,22.742-5.732,25.769c-0.083,0.727-0.153,1.452-0.209,2.188
		c-0.039,0.425-0.078,0.85-0.114,1.286c-0.247,0.17-0.507,0.343-0.752,0.525c-0.809,0.558-1.171,2.625-1.501,3.522
		c-0.141,0.402-0.217,0.82-0.216,1.264c0.006,0.739,0.186,1.404,0.53,2.009c0.256,0.063,0.509,0.027,0.753-0.082
		c0.302,0.919,0.925-0.16,1.75,0.18c0.021,0.675,2.541,1.801,2.823,0.219c0.109-0.015,0.625,0.256,0.83,0.227
		c0.392-0.105,0.714-0.273,0.985-0.534c0.836-0.808,1.09-2.324,0.78-4.525c-0.034-0.242-0.177-0.814-0.429-1.728
		c0.019-0.212,0.039-0.425,0.06-0.625c0.055-0.575,0.109-1.15,0.15-1.735c0.041-0.499,0.071-0.984,0.125-1.473
		c0.023-0.361,0.048-0.71,0.085-1.06c0.034-0.547,0.545-1.079,0.641-1.622c3.555-20.158,5.898-26.204,6.001-31.682"/>
	<path d="M110.607,69.463c0.052,3.076-6.287,31.976-6.482,34.002c-0.786-0.592-1.684-0.922-2.694-1.001
		c-0.563-0.056-1.116-0.04-1.658,0.049c0.286-3.827,5.809-24.263,5.886-28.084"/>
	<path d="M99.596,104.758c0.047-0.537,0.083-1.072,0.132-1.597c1.541-0.18,2.967,0.136,4.266,0.952
		c0.026,0.009,0.054,0.03,0.069,0.052c-0.047,0.537-0.095,1.074-0.155,1.613c0.005,0.036-0.002,0.074-0.009,0.112
		c-0.014-0.01-0.028-0.021-0.041-0.031c-0.833-0.659-1.774-1.032-2.846-1.115C100.525,104.7,100.057,104.705,99.596,104.758z"/>
	<path d="M100.251,113.175c-0.755-0.874-0.385-0.649-0.571-1.794c-0.13-0.574-0.479-0.857-1.021-0.855
		c-0.297-0.007-0.555,0.091-0.773,0.294c-0.228,0.217-0.296,1.662-0.601,1.681c-0.144-0.498-0.271-0.874-0.349-1.159
		c-0.088-0.271-0.088-2.2,0.374-3.116c0.463-0.916,1.267-1.683,2.413-2.301c0.366-0.2,0.688-0.368,0.964-0.506
		c1.01,0.079,1.98,0.399,2.888,0.974c0.04,0.019,0.081,0.05,0.11,0.083c0.052,0.104,0.095,0.233,0.136,0.351
		c0.155,0.484,0.278,1.095,0.385,1.857c0.253,1.79,0.145,3.038-0.326,3.721c-0.235,0.342-0.612,0.555-1.15,0.68
		c0.072-0.54,0.119-1.077,0.141-1.623l-0.425-0.039C102.274,112.988,100.604,113.584,100.251,113.175z"/>
	<path fill="#C372AD" d="M105.863,73.957c-0.077,3.822-5.635,24.706-5.921,28.532c0.542-0.089,1.095-0.105,1.658-0.049
		c1.01,0.079,1.908,0.409,2.694,1.001c0.195-2.026,6.568-31.374,6.517-34.45"/>
	<path fill="#FEFAD6" d="M103.909,105.777c0.06-0.539,0.107-1.076,0.155-1.613c-0.015-0.022-0.043-0.043-0.069-0.052
		c-1.299-0.816-2.725-1.132-4.266-0.952c-0.049,0.525-0.085,1.06-0.132,1.597c0.461-0.053,0.929-0.057,1.416-0.015
		c1.072,0.083,2.013,0.456,2.846,1.115L103.909,105.777z"/>
	<path fill="#FED09E" d="M102.378,112.318l0.494-0.858c-0.022,0.546-0.069,1.083-0.141,1.623c0.537-0.125,0.914-0.339,1.15-0.68
		c0.471-0.683,0.578-1.932,0.326-3.721c-0.108-0.762-0.231-1.374-0.385-1.857c-0.041-0.118-0.084-0.247-0.136-0.351
		c-0.029-0.033-0.071-0.064-0.11-0.083c-0.907-0.575-1.877-0.894-2.888-0.974c-0.277,0.138-0.598,0.306-0.964,0.506
		c-1.146,0.618-1.95,1.385-2.413,2.301c-0.463,0.916-0.462,2.845-0.374,3.116c0.077,0.285,0.204,0.662,0.349,1.159
		c0.306-0.018,0.373-1.464,0.601-1.681c0.218-0.204-0.284,1.962,0.599,1.946c0.542-0.01,0.995-1.063,1.125-0.489
		c0.186,1.145,0.393,0.694,1.041,1.061C100.901,113.48,102.205,113.884,102.378,112.318z"/>
	<g>
		<path fill="#010101" d="M71.42,58.472c0,0,2.418-3.057,3.796-4.241c0.253-0.217,0.538-0.39,0.845-0.52l8.674-3.675
			c0.23-0.099-6.455,3.798-6.455,3.798C76.968,54.407,71.248,58.651,71.42,58.472z"/>
	</g>
</g>
</svg>
