<?xml version="1.0" encoding="utf-8"?>
<!-- Generator: Adobe Illustrator 18.1.1, SVG Export Plug-In . SVG Version: 6.00 Build 0)  -->
<!DOCTYPE svg PUBLIC "-//W3C//DTD SVG 1.1//EN" "http://www.w3.org/Graphics/SVG/1.1/DTD/svg11.dtd">
<svg version="1.1" xmlns="http://www.w3.org/2000/svg" xmlns:xlink="http://www.w3.org/1999/xlink" x="0px" y="0px"
	 viewBox="0 0 393 483" enable-background="new 0 0 393 483" xml:space="preserve">
<g id="ziutek_x5F_01">
</g>
<g id="ziutek_x5F_02">
</g>
<g id="ziutek_x5F_03">
</g>
<g id="ziutek_x5F_04">
</g>
<g id="ziutek_x5F_05">
</g>
<g id="ziutek_x5F_06">
</g>
<g id="ziutek_x5F_07">
</g>
<g id="ziutek_x5F_08">
</g>
<g id="ziutek_x5F_09">
</g>
<g id="ziutek_x5F_10">
</g>
<g id="lady_x5F_01">
</g>
<g id="Layer_13">
</g>
<g id="Layer_12">
</g>
<g id="Layer_14">
	<g>
		<g>
			<g>
				<path fill="none" d="M161.1,205.2c-3,5.7-4.5,8.9-4.5,9.7c0,0.5,0.6,2.1,2,4.9c0.5,1.1,1.3,2.5,2.3,4.2c-0.1-3-0.2-5.7-0.2-8.1
					C160.7,212.9,160.8,209.3,161.1,205.2z"/>
				<path d="M231.8,148.9c-3.2-4-7.8-6.5-12.1-9c0.2-0.3,0.4-0.5,0.5-0.8c3.8-5.7,5.8-12.9,5.8-21.8c0-8.9-3-19.9-9.1-33.3
					c-6.1-13.3-14.9-24.5-26.5-33.5c-11.6-9-24.2-12.4-37.6-10.1c-4.3,0.7-8.1,2-11.5,3.8c-0.5,0.1-0.9,0.3-1.4,0.4
					c-3.6,1.2-6.8,3-9.8,5.4c-2,1.6-3.8,3.3-5.4,5.2c-1.5,1.7-2.8,3.5-4,5.4c-3.1,5-5.2,10.4-6.4,16.2c-0.6,2.7-0.7,5.4-0.5,8.1
					c0.2,2.1,1.2,3.8,3.3,4.3c4.6,1.2,8.2,19.4,9.1,22.2c0.2,0.5,0.4,1.1,0.5,1.6c1.1,3.2,2.2,6.4,3.4,9.6c1.2,3.3,2.4,6.7,3.6,10
					c1.1,3.1,2.2,6.2,3.4,9.2c0.4,1.2,0.9,2.4,1.4,3.5c-0.1,2.4,0,5.2,0.2,8.5c0.1,1.3,0,3.3-0.2,6.2c-0.1,3.7-0.8,7.3-1.9,10.6
					c0,0.1-0.1,0.2-0.1,0.3c-0.1,0.2-0.3,0.4-0.5,0.6c-0.1,0.1-0.2,0.2-0.3,0.3c1.4-0.2,3-0.7,4.8-1.6c2.5-1.1,5.2-2.6,7.9-4.5
					c0.7-0.5,1.4-1,2.1-1.5c1.1,1.1,2.4,2.1,3.7,3c2.5,1.8,5.1,3.3,7.8,4.6c0.2,0.1,0.4,0.2,0.6,0.3c0,0.3-0.1,0.6-0.1,0.8
					c-0.1,0.9,0,1.6,0.2,2.3c-0.7,1-1.3,1.9-1.9,2.9c-1.9,3.2-4.5,7.2-7.6,11.8c-3.2,4.6-5.6,8.7-7.3,12.3c-1.7,3.6-2.8,6.2-3.2,7.9
					c-0.3,1.7-0.5,3.3-0.3,5c0.1,1.6,1,3.9,2.5,6.9c1.5,3,3.3,6.2,5.4,9.7c1.7,2.8,3.3,5.6,4.9,8.4c1.3,2.3,2.4,4.8,3.3,7.4
					c0.2,0.6,0.3,1.3,0.3,1.9c-0.5,0-1,0-1.6,0c-1.3-0.1-2.2-0.4-2.5-0.8c-0.4-0.4-1-0.7-2-0.8c-1.3-0.1-2.1,0.2-2.5,0.8
					c-0.2,0.3-0.3,0.9-0.3,1.9c0,0,0,0.5-0.1,1.2c0,0.9,0.2,1.8,0.6,2.6c1.1,2.5,3.6,3.9,7.4,4.2c1.3,0.1,2.7-0.1,4.1-0.6
					c0,5.1,0,10.1-0.1,14.9c-0.1,5.4-0.2,10.4,0,15c-0.1,0-0.1,0-0.2-0.1c0,0.1,0,0.2,0,0.3c0,0.4-0.1,0.7-0.2,1
					c1.8,0.8,3.7,1.6,5.6,2.2c-0.1,2.4-0.1,4.5,0,6.4c0.1,2.6-0.1,6.4-0.6,11.6c-0.8,10.6-2.5,20.9-5.1,31.1
					c-1.9,7.7-6,19.8-12.3,36.3c-1.6,4.3-3,7.9-4,10.8c0.6,0.1,1.2,0.3,1.7,0.6c0,0,0-0.1,0-0.1c5,3.3,11.3,6.3,18.9,9
					c3.1,1.1,6.2,2.1,9.3,3c0,0.7,0,1.4,0,2.1c-0.1,1.7-0.4,3.9-0.8,6.6c-1.7,1-3.3,1.7-4.9,2c-4.5,1.1-7.7,1.9-9.4,2.3
					c-2.9,0.7-5.1,1.4-6.6,2c-1.8,0.7-3.1,1.5-3.9,2.5c-0.9,1-1.4,2.3-1.5,3.9c0,0.2-0.1,0.7-0.2,1.5c0,0.9,0.3,1.7,0.7,2.4
					c1.5,2.2,5,3.5,10.7,3.9c3.6,0.3,8.6-0.4,15.1-2c3.3-0.8,6.5-1.7,9.8-2.6c4.3-0.7,7-1.8,8-3.2c0.4-0.5,0.6-1.3,0.7-2.1
					c0.1-1.1,0.1-1.9,0.1-2.5c0.2-2.5,0.1-4.4-0.4-5.5c-0.3-0.7-0.8-1.5-1.5-2.2c-0.5-0.4-1.1-0.8-2-1.2c-0.2-1.4-0.3-2.9-0.3-4.5
					c2.9,0.6,5.8,1,8.7,1.4c11.2,1.3,22.4,2.1,33.7,2.6c0.1,0.3,0.2,0.6,0.2,0.8c-0.1,0.7-0.1,1.5-0.1,2.5c0,1.5-0.1,3.5,0,5.8
					c-0.1,1.7-0.4,3.9-0.8,6.6c-1.7,1-3.3,1.7-4.9,2c-4.5,1.1-7.7,1.9-9.4,2.3c-2.9,0.7-5.1,1.4-6.6,2c-1.8,0.7-3.1,1.5-3.9,2.5
					c-0.9,1-1.4,2.3-1.5,3.9c0,0.2-0.1,0.7-0.2,1.5c0,0.9,0.3,1.7,0.7,2.4c1.5,2.2,5,3.5,10.7,3.9c3.6,0.3,8.6-0.4,15.1-2
					c3.3-0.8,6.5-1.7,9.8-2.6c4.3-0.7,7-1.8,8-3.2c0.4-0.6,0.6-1.3,0.7-2.2c0.1-1.1,0.1-1.9,0.1-2.5c0.2-2.5,0.1-4.4-0.4-5.5
					c-0.3-0.7-0.8-1.5-1.5-2.2c-0.5-0.4-1.1-0.8-2-1.2c-0.3-2.6-0.4-5.6-0.1-9c0-0.5,0.1-0.9,0.1-1.4c0.1-1.3,0.3-2.7,0.6-4.1
					c3.9,0,7.7-0.2,11.3-0.7c3.9-0.5,8.7-1.5,14.3-3c1.8-0.5,3.7-1.1,5.6-1.7c0.3,0,0.6,0,0.9,0c0.1,0,0.2,0,0.4,0.1
					c-0.5-3.3-1.2-7.8-2-13.6c-1.5-10.7-2.6-19.4-3.1-26.1c-0.5-6.7-1-14.7-1.6-23.9c-0.5-9.3-0.7-15.7-0.5-19.2
					c0.2-3.6,0.2-7.4,0.3-11.4c0.1-4.6,0.4-10.3,0.9-17.2l0.5-6.3c2.1-1,4.3-2.1,6.6-3.5c-0.1-0.2-0.1-0.4-0.2-0.6
					c0.1-8.1-0.3-16.4-1.2-25.1c-1.5-15.4-4.6-30.1-9.3-44C265.1,200.8,257.2,180.5,231.8,148.9z M158.6,219.8
					c-1.4-2.7-2.1-4.4-2-4.9c0.1-0.8,1.6-4,4.5-9.7c-0.3,4.1-0.4,7.7-0.4,10.7c0,2.4,0.1,5.1,0.2,8.1
					C159.9,222.3,159.1,220.9,158.6,219.8z"/>
				<path fill="none" d="M172.1,411.3C172.1,411.3,172.1,411.3,172.1,411.3c0,0,0.1,0,0.1,0l0-0.1
					C172.2,411.3,172.2,411.3,172.1,411.3z"/>
				<path fill="none" d="M228.2,425.4C228.2,425.4,228.2,425.4,228.2,425.4c0,0,0.1,0,0.1,0l0-0.1
					C228.3,425.4,228.3,425.4,228.2,425.4z"/>
				<path fill="none" d="M181.3,401.5c-0.4-0.1-0.8-0.2-1.2-0.3l-0.1,0.2C180.4,401.5,180.8,401.5,181.3,401.5z"/>
				<path fill="none" d="M161.1,205.2c-3,5.7-4.5,8.9-4.5,9.7c0,0.5,0.6,2.1,2,4.9c0.5,1.1,1.3,2.5,2.3,4.2c-0.1-3-0.2-5.7-0.2-8.1
					C160.7,212.9,160.8,209.3,161.1,205.2z"/>
				<path fill="none" d="M161.5,241.9C161.5,241.9,161.5,241.9,161.5,241.9l0,0.2C161.5,242,161.5,242,161.5,241.9z"/>
				<path fill="none" d="M180.2,86.5C180.2,86.5,180.2,86.4,180.2,86.5L180.2,86.5C180.2,86.5,180.2,86.5,180.2,86.5z"/>
				<path fill="none" d="M158.5,243.6L158.5,243.6C158.4,243.6,158.5,243.6,158.5,243.6z"/>
				<path fill="none" d="M211.4,395c-0.8-0.2-1.6-0.4-2.5-0.5C211.5,395.1,212.3,395.2,211.4,395z"/>
				<path fill="#C272AD" d="M233.3,151.8c-3.2-4.4-7.6-6.7-10.7-9.1c-1-0.8-2.2-1.6-3.4-2.3c-3.7,5-8.3,9.7-13.8,14.2
					c-2,1.6-4,3.2-5.9,4.6c-4.2,5.5-8.5,9.9-12.7,13.2c-3,2.3-5.9,4-8.8,5.1c-0.3-0.3-0.6-0.6-1-0.8c0-0.1-0.1-0.1-0.1-0.2
					c-2-1.3-3.7-2.4-5.1-3.4c0,0.2-0.1,0.4-0.1,0.6c-1,10.1-1.9,19.9-2.8,29.3c-0.9,9.4-1.1,18.7-0.6,28c0.6,9.2,0.8,20,0.8,32.4
					c0,8.5,0,15.1,0,19.6c6.7,1.8,14.7,3.1,24.1,3.8c12,0.9,24.8,0.5,38.4-1.4c11.4-1.6,22.5-4,33.1-7.2c4.2-1.3,8.5-3.1,12.6-5.4
					c0-1.2-0.1-2.5-0.1-3.9c-0.4-11.3-1.4-21.4-3-30.1c-1.6-8.8-3.7-17.2-6.2-25.2C265.6,205.3,258.1,185.6,233.3,151.8z
					 M173.5,181.1c0.4-0.5,1-0.7,1.7-0.7c0.8,0.1,1.4,0.5,1.7,1.2c0.2,0.3,0.2,0.7,0.2,1c0,0.4-0.2,0.8-0.5,1.2
					c-0.4,0.5-1,0.7-1.7,0.7c-0.8-0.1-1.4-0.4-1.7-1.1l-0.2-1C173,181.8,173.2,181.4,173.5,181.1z M170.9,203l-0.2-1
					c0-0.4,0.2-0.8,0.5-1.2c0.4-0.5,1-0.7,1.7-0.7c0.8,0.1,1.4,0.5,1.7,1.2c0.2,0.3,0.2,0.7,0.2,1c0,0.4-0.2,0.8-0.5,1.2
					c-0.4,0.5-1,0.7-1.7,0.7C171.7,204,171.2,203.7,170.9,203z M170.7,222.2c-0.1-0.7-0.2-1-0.2-1c0-0.4,0.2-0.8,0.5-1.2
					c0.4-0.5,1-0.8,1.7-0.7c0.8,0.1,1.4,0.4,1.7,1.1c0.2,0.4,0.2,0.7,0.2,1.1c0,0.5-0.2,0.9-0.5,1.2c-0.4,0.5-1,0.7-1.7,0.7
					C171.6,223.3,171,222.9,170.7,222.2z M170.7,243.4c-0.1-0.7-0.2-1-0.2-1c0-0.4,0.2-0.8,0.5-1.2c0.5-0.5,1-0.8,1.7-0.7
					c0.8,0.1,1.4,0.4,1.7,1.1c0.2,0.4,0.2,0.7,0.2,1.1c0,0.5-0.2,0.9-0.5,1.2c-0.4,0.5-1,0.7-1.7,0.7
					C171.5,244.5,171,244.1,170.7,243.4z M174.5,266.2c-0.4,0.5-1,0.7-1.7,0.7c-0.8-0.1-1.4-0.4-1.7-1.1l-0.2-1
					c0-0.4,0.2-0.8,0.5-1.2c0.4-0.5,1-0.7,1.7-0.7c0.8,0.1,1.4,0.5,1.7,1.2c0.2,0.3,0.2,0.7,0.2,1
					C175,265.5,174.8,265.9,174.5,266.2z"/>
				<path d="M174.8,184.8c0.7,0.1,1.3-0.2,1.7-0.7c0.3-0.4,0.5-0.8,0.5-1.2c0-0.3,0-0.7-0.2-1c-0.3-0.7-0.8-1.1-1.7-1.2
					c-0.7-0.1-1.2,0.2-1.7,0.7c-0.3,0.4-0.5,0.8-0.5,1.2l0.2,1C173.5,184.4,174,184.7,174.8,184.8z M173.7,181.9
					c0.3-0.3,0.7-0.5,1.1-0.5c0.8,0.1,1.3,0.6,1.2,1.5c0,0.3-0.1,0.6-0.3,0.8c-0.3,0.4-0.6,0.5-1.1,0.5c-0.5,0-0.9-0.3-1.1-0.7
					c-0.1-0.3-0.2-0.5-0.2-0.7C173.4,182.4,173.5,182.1,173.7,181.9z"/>
				<path fill="#F186B6" d="M174.6,184.1c0.5,0,0.9-0.1,1.1-0.5c0.2-0.2,0.3-0.5,0.3-0.8c0-0.9-0.4-1.4-1.2-1.5
					c-0.5,0-0.8,0.1-1.1,0.5c-0.2,0.3-0.3,0.5-0.3,0.8c0,0.2,0,0.5,0.2,0.7C173.7,183.8,174.1,184.1,174.6,184.1z"/>
				<path d="M174.2,203.8c0.3-0.4,0.5-0.8,0.5-1.2c0-0.3,0-0.7-0.2-1c-0.3-0.7-0.8-1.1-1.7-1.2c-0.7-0.1-1.2,0.2-1.7,0.7
					c-0.3,0.4-0.5,0.8-0.5,1.2l0.2,1c0.3,0.7,0.8,1.1,1.7,1.1C173.2,204.5,173.7,204.3,174.2,203.8z M171.2,203
					c-0.1-0.5-0.2-0.7-0.2-0.7c0-0.3,0.2-0.5,0.3-0.8c0.3-0.3,0.7-0.5,1.1-0.5c0.8,0.1,1.3,0.6,1.3,1.4c0,0.3-0.1,0.6-0.3,0.8
					c-0.3,0.4-0.6,0.5-1.1,0.5C171.8,203.7,171.4,203.5,171.2,203z"/>
				<path fill="#F186B6" d="M173.4,203.3c0.2-0.2,0.3-0.5,0.3-0.8c0-0.9-0.4-1.4-1.3-1.4c-0.5,0-0.8,0.1-1.1,0.5
					c-0.2,0.3-0.3,0.5-0.3,0.8c0,0,0.1,0.2,0.2,0.7c0.2,0.4,0.6,0.7,1.1,0.7C172.8,203.8,173.1,203.7,173.4,203.3z"/>
				<path d="M174,223.1c0.3-0.4,0.5-0.8,0.5-1.2c0-0.4,0-0.7-0.2-1.1c-0.3-0.7-0.8-1-1.7-1.1c-0.7-0.1-1.2,0.2-1.7,0.7
					c-0.3,0.4-0.5,0.8-0.5,1.2c0,0,0.1,0.4,0.2,1c0.3,0.7,0.8,1.1,1.7,1.1C173.1,223.8,173.6,223.6,174,223.1z M171.1,222.5
					c-0.1-0.5-0.2-0.7-0.2-0.7c0-0.3,0.2-0.5,0.3-0.8c0.3-0.3,0.7-0.5,1.1-0.5c0.8,0.1,1.3,0.6,1.3,1.4c0,0.3-0.1,0.6-0.3,0.8
					c-0.3,0.4-0.6,0.5-1.1,0.5C171.6,223.2,171.3,222.9,171.1,222.5z"/>
				<path fill="#F186B6" d="M173.3,222.7c0.2-0.2,0.3-0.5,0.3-0.8c0-0.9-0.4-1.4-1.3-1.4c-0.5,0-0.8,0.1-1.1,0.5
					c-0.2,0.3-0.3,0.5-0.3,0.8c0,0,0.1,0.2,0.2,0.7c0.2,0.5,0.6,0.7,1.1,0.7C172.6,223.2,173,223.1,173.3,222.7z"/>
				<path d="M174,244.3c0.3-0.4,0.5-0.8,0.5-1.2c0-0.4,0-0.7-0.2-1.1c-0.3-0.7-0.8-1-1.7-1.1c-0.7-0.1-1.2,0.2-1.7,0.7
					c-0.3,0.4-0.5,0.8-0.5,1.2c0,0,0.1,0.4,0.2,1c0.3,0.7,0.8,1.1,1.7,1.1C173.1,245,173.6,244.8,174,244.3z M173.3,243.9
					c-0.3,0.4-0.6,0.5-1.1,0.5c-0.5,0-0.9-0.3-1.1-0.7c-0.1-0.5-0.2-0.7-0.2-0.7c0-0.3,0.1-0.5,0.3-0.8c0.3-0.3,0.7-0.5,1.1-0.5
					c0.8,0.1,1.3,0.6,1.3,1.4C173.6,243.4,173.5,243.7,173.3,243.9z"/>
				<path fill="#F186B6" d="M172.3,241.7c-0.5,0-0.8,0.1-1.1,0.5c-0.2,0.3-0.3,0.5-0.3,0.8c0,0,0.1,0.2,0.2,0.7
					c0.2,0.5,0.6,0.7,1.1,0.7c0.5,0,0.9-0.1,1.1-0.5c0.2-0.2,0.3-0.5,0.3-0.8C173.6,242.3,173.2,241.8,172.3,241.7z"/>
				<path d="M173.1,263.2c-0.7-0.1-1.3,0.2-1.7,0.7c-0.3,0.4-0.5,0.8-0.5,1.2l0.2,1c0.3,0.7,0.8,1.1,1.7,1.1
					c0.7,0.1,1.3-0.2,1.7-0.7c0.3-0.4,0.5-0.8,0.5-1.2c0-0.3,0-0.7-0.2-1C174.5,263.7,173.9,263.3,173.1,263.2z M173.7,266.1
					c-0.3,0.4-0.6,0.5-1.1,0.5c-0.5,0-0.9-0.3-1.1-0.7c-0.1-0.5-0.2-0.7-0.2-0.7c0-0.3,0.2-0.5,0.3-0.8c0.3-0.3,0.7-0.5,1.1-0.5
					c0.9,0.1,1.3,0.6,1.3,1.4C174,265.6,173.9,265.9,173.7,266.1z"/>
				<path fill="#F186B6" d="M172.8,263.9c-0.5,0-0.8,0.1-1.1,0.5c-0.2,0.3-0.3,0.5-0.3,0.8c0,0,0.1,0.2,0.2,0.7
					c0.2,0.5,0.6,0.7,1.1,0.7c0.5,0,0.9-0.1,1.1-0.5c0.2-0.2,0.3-0.5,0.3-0.8C174.1,264.4,173.7,264,172.8,263.9z"/>
				<path fill="#FDDB00" d="M130.8,55.7c-3,4.3-5.2,9.6-6.7,16c4.6-3.3,10.4-4.6,17.4-4.1c1.5,0.1,3.3,0.4,5.5,1
					c2.2,0.6,4.8,1,7.9,1.2c5,0.4,9.2-0.4,12.6-2.3c1-0.6,2-1.3,2.8-2.1c0.4-0.4,0.8-0.8,1.2-1.2c0.2,0.1,0.4,0.1,0.4,0.2
					c0.2,0.1,0.2,0.3,0.2,0.6c0,0.5-0.5,1.1-1.3,1.9c-0.9,0.8-2.1,1.6-3.6,2.3c-1.1,0.5-2.3,1-3.5,1.3c0.6,1.8,1.4,3.6,2.3,5.2
					c2.4,4.3,5.6,7.4,9.6,9.3c1.4,0.7,3,1.2,4.7,1.6l0,0c0.1,0,0.1,0,0.1,0c0.2,0,0.3,0.1,0.5,0.1c0.3,0,0.6,0,0.8,0
					c6.3,13,10.3,26.7,11.9,41c0.8,7.5,1,15.1,0.6,22.6c-0.3,4.4-0.8,8.7-1.7,13c5.4-3.8,10.4-7.6,14.8-11.4
					c6-5.1,10.8-11.1,14.6-18.2c3.7-7.1,4.1-17.1,1-30.2c-3.1-13.1-10.2-26.5-21.5-40.4c-11.3-13.8-23.7-21.1-37.3-21.8
					c7.7,0.2,7,0.1-2.1-0.2c-9.1-0.3-17.2,2.1-24.2,7.4C135.1,50.3,132.7,52.8,130.8,55.7z"/>
				<path fill="#FDDB00" d="M118.8,80.2c-0.2,0.3-0.3,0.7-0.4,1c-0.6,1.8-1,2.8-1,3c-0.3,0.1-0.4,0.1-0.6,0.2
					c-0.4-0.5-0.6-1-0.6-1.4c0.1-1.1,0.6-2.4,1.4-4c1.1-2,2.5-3.9,4.3-5.5c0.4-0.3,0.7-0.7,1.1-0.9c0.7-2.6,1.6-5.7,2.8-9.2
					c1-2.8,2.2-5.4,3.6-7.7c1.9-3.1,4.2-5.7,6.8-7.9c-2.9,1.3-5.4,3-7.7,5.1c-0.9,0.8-1.7,1.6-2.4,2.5c-1.6,1.8-2.9,3.7-4.1,5.8
					c-1.6,2.9-3.1,6-4.2,9.2c-0.5,1.2-0.9,2.4-1.3,3.7c-0.5,1.7-0.8,3.5-1.1,5.2c-0.3,2.2-0.2,4.3,0.4,6.4c0.3,1.2,1.1,1.9,2.3,2.2
					c0.8,0.2,1.5,0.2,2.2,0.1c-0.3-1.8-0.7-3.8-1.1-5.8C119,81.3,118.9,80.7,118.8,80.2z"/>
				<path fill="#FDCF9D" d="M176.9,170.5c4.1-2.1,7.8-4.6,11.2-7.7c1.3-1.2,2.5-2.4,3.8-3.6c0.1-0.8,0.2-1.6,0.3-2.3
					c0.9-8,1.1-16.1,0.6-24.1c-0.5-8.5-2.1-17.7-4.9-27.6c-1.6-5.8-3.9-11.5-6.6-17.1c-2-0.3-3.9-0.9-5.7-1.7
					c-4-1.7-7.2-4.6-9.8-8.6c-1.4-2.1-2.5-4.5-3.3-6.9c0-0.1,0-0.1-0.1-0.2c-2.4,0.5-4.9,0.7-7.6,0.5c-3.5-0.3-6.2-0.7-8.2-1.3
					c-2.1-0.6-3.7-0.9-5.1-1c-8.8-0.7-15.4,1.5-19.7,6.6c-0.6,0.7-1.1,1.5-1.6,2.3c0,0.3,0.1,0.6,0.1,1c0.4,3.5,4.8,24.3,5.1,25.2
					c0.8,2.5,1.7,4.9,2.5,7.4c0.5,1.6,1.1,3.2,1.6,4.9c3.4,10.1,7.1,20,11.3,29.8c2.4,5.6,5.5,10.7,9.4,15.4
					c1.9,2.3,4.1,4.2,6.5,5.9c3.6,2.5,7.5,3.9,11.9,4.4C171.3,172.3,174.1,171.9,176.9,170.5z M137.3,122.7
					c-0.7-0.1-1.3-3.6-2.1-10.7c0-0.1,0-0.3,0-0.4c-0.4-3.6-0.7-7.3-0.8-11c0-0.4,0.1-0.6,0.1-0.8c0.1-0.1,0.3-0.2,0.6-0.2
					c0.2,0,0.5,0.9,0.6,2.5c0.1,0.6,0.2,2.6,0.4,5.9c0.1,1.5,0.2,2.8,0.3,4.1c0.2,2.2,0.4,4,0.7,5.6c0.1,0.1,0.1,0.3,0.3,0.5
					c0,0-0.1,0-0.1,0.1l-0.1,0c0.2,1.2,0.4,2.1,0.7,2.9c0.5-0.1,1.2-0.5,2.1-1.3c0.9-0.8,1.5-1.2,1.8-1.3c0.1,0,0.3,0.1,0.4,0.2
					c0.2,0.1,0.1,0.4-0.1,0.8c-0.2,0.4-1,1-2.1,1.8C138.8,122.3,137.9,122.7,137.3,122.7z"/>
				<path d="M142.2,119.7c0.2-0.4,0.3-0.7,0.1-0.8c-0.2-0.1-0.3-0.2-0.4-0.2c-0.3,0.1-0.9,0.5-1.8,1.3c-0.9,0.8-1.6,1.2-2.1,1.3
					c-0.2-0.8-0.5-1.7-0.7-2.9c0-0.1,0-0.3-0.1-0.4c0,0.1,0.1,0.2,0.2,0.4c0-0.1,0-0.1,0.1-0.1c-0.1-0.2-0.2-0.4-0.3-0.5
					c-0.3-1.5-0.5-3.4-0.7-5.6c-0.1-1.3-0.2-2.6-0.3-4.1c-0.2-3.3-0.4-5.2-0.4-5.9c-0.1-1.6-0.4-2.4-0.6-2.5c-0.3,0-0.5,0-0.6,0.2
					c-0.1,0.1-0.1,0.3-0.1,0.8c0.2,3.7,0.4,7.4,0.8,11c0,0.1,0,0.3,0,0.4c0.7,7,1.4,10.6,2.1,10.7c0.6,0,1.6-0.3,2.8-1.2
					C141.2,120.7,141.9,120,142.2,119.7z"/>
				<path fill="#FDDB00" d="M146.7,159.9c-2-2.6-3.7-5.4-5.2-8.3c-0.5-1-1-2-1.4-2.9c0.2,4,0.1,7.8-0.2,11.3
					c-0.2,2.3-0.3,3.8-0.4,4.3c-0.3,2-0.7,3.9-1.1,5.6c3.5-0.9,7.2-3.1,11.1-6.7l0,0C148.5,162.2,147.6,161,146.7,159.9z"/>
				<path fill="#FFFBD4" d="M164,172.6c0,0.2-0.1,0.4-0.1,0.7c-0.1,0.8,0.2,1.6,0.8,2.4c0.4,0.6,1.1,1,1.8,1.4
					c0.8-1.1,1.8-2.3,2.8-3.5C167.5,173.5,165.7,173.2,164,172.6z"/>
				<path fill="#C272AD" d="M168.1,274.1c0.3-9.6,0.1-19.8-0.4-30.7c-0.5-10.9-0.8-19.7-0.8-26.2c-0.1-6.5,0.6-15.6,2.1-27.2
					c0.8-6.4,1.4-11.8,2-16.5c0,0.1-0.1,0.1-0.1,0.1c-1.3,1.7-2.5,3.2-3.6,4.6c0,0-0.1,0-0.1,0c-0.1,0.2-0.2,0.4-0.2,0.7
					c-0.7-0.2-1.3-0.4-1.8-0.7c-0.8,8.3-1.6,16.3-2.4,24c-0.8,8-1.1,16-0.7,23.9c0,0.1,0.1,0.2,0.2,0.3c-0.1,0.4-0.1,0.9-0.1,1.5
					l0,0.4c0,0.6,0,1.2,0.1,1.8c0.6,9.2,0.8,20,0.8,32.4c0,8.1,0,14.4,0,18.9c1.5,0.6,3.2,1.1,4.9,1.6
					C167.9,280.2,168,277.2,168.1,274.1z"/>
				<path fill="#C272AD" d="M161.1,231.6c-0.1-1.6-0.1-3.1-0.2-4.5c-1.7-3.2-2.9-5.6-3.7-7.3c-1.4-2.8-2.1-4.5-2-5
					c0-0.4,1.9-4.5,5.4-12.3c0.3-0.6,0.6-1.2,0.8-1.7c0.3-3.7,0.8-7.7,1.3-12c0.5-4.1,1-7.9,1.4-11.3c-0.3-0.3-0.6-0.6-0.8-0.9
					c-1.4,1.9-3,4.4-4.9,7.3c-2.3,3.5-4.3,6.8-6.2,9.8c-1.8,3-3.5,5.8-5.1,8.6c-1.8,3.1-2.8,6.5-3.3,10c-0.2,1.7,0,3.3,0.5,4.9
					c1.2,3.4,2.7,6.6,4.6,9.6c1.7,2.7,3.3,5.3,4.9,8c0.3,0.5,0.5,0.9,0.8,1.4C156.8,235.1,159,233.6,161.1,231.6z"/>
				<path fill="#FFFBD4" d="M186.1,166.1c-1.6,1.2-3.3,2.4-4.9,3.6c-2.5,1.8-5.1,3-8,3.6c1.2,0.8,2.8,1.8,4.7,3.1
					c3.8-1.6,7.8-4.4,12.1-8.4c1.6-1.4,3-3,4.5-4.6c-0.8,0.6-1.6,1.2-2.4,1.8c0,0,0,0,0,0c-0.3,0.1-0.5,0.3-0.7,0.6
					c-0.1,0.1-0.1,0.1-0.1,0.2c-0.2,0-0.4,0-0.6,0.1c0.3-1.4,0.6-2.9,0.9-4.4C189.8,163.2,188.1,164.7,186.1,166.1z"/>
				<path fill="#FDCF9D" d="M161.4,242c-1,0.6-2.1,1.1-3,1.6l0,0.1l0,0l0,0.1c0,0,0,0.1,0,0.1c0.9,1.9,1.4,3.9,1.5,6
					c0,1-0.2,1.8-0.7,2.6c-0.8,1.3-2,1.6-3.6,1c0-0.4,0.3-0.8,1-0.9c1-0.2,1.7-0.8,2-1.7c-0.5,0-1.1,0-1.6,0
					c-1.6-0.1-2.7-0.4-3.3-0.9c-0.3-0.2-0.5-0.4-0.6-0.5c-0.2-0.1-0.4-0.2-0.6-0.2c-0.6,0-1,0.2-1.1,0.8c-0.1,0.3-0.1,0.6-0.1,0.9
					c-0.3,3.7,2,5.8,6.9,6.1c1.4,0.1,2.6,0,3.8-0.5c-0.1-4.7-0.2-9.5-0.5-14.5L161.4,242z"/>
				<path fill="#FFFBD4" d="M161.2,233.5c-2.1,1.7-4,3-5.8,4c0.9,1.5,1.7,3.1,2.4,4.7c1.2-0.6,2.4-1.2,3.6-1.9
					C161.4,237.9,161.3,235.6,161.2,233.5z"/>
				<path fill="#FFFFFF" d="M167.9,284.6c-1.7-0.5-3.3-1.1-4.9-1.8c0,1.7,0,3,0,4.1c0,0.5,0,1,0,1.5c1.5,0.6,3.2,1.1,4.9,1.7
					C168,288.2,167.9,286.4,167.9,284.6z"/>
				<path fill="#FFFFFF" d="M223.2,288.4c-10,1-20,1.1-30.1,0.3c-8.8-0.7-16-1.7-21.6-3.1c-0.7-0.2-1.5-0.4-2.2-0.6
					c0,1.3,0,2.3,0,3.2c0,0.8,0,1.5,0,2.2c6.8,1.9,15,3.2,24.6,3.9c12,0.9,24.8,0.5,38.4-1.4c11.4-1.6,22.5-4,33.1-7.2
					c4.1-1.2,8.2-3,12.3-5.2c0-1.8-0.1-3.8-0.1-6c-4.8,2.7-9,4.6-12.8,5.6C249.8,284.3,236,287.1,223.2,288.4z"/>
				<path fill="#F186B6" d="M270,307.6c0.1-4.7,0.4-10.4,0.9-17.1c0.1-1.9,0.2-3.8,0.3-5.5c-2.1,0.9-4.1,1.6-5.9,2.2
					c-14.9,4.2-28.7,7-41.5,8.3c-10,1-20,1.1-30.1,0.3c-8.8-0.7-16-1.7-21.6-3.1c-1.3-0.3-2.5-0.7-3.7-1c-0.1,0.6-0.1,1.4-0.2,2.1
					c0,0.9,0,3.3-0.1,7.4c-0.1,3.9-0.2,6.6-0.3,8.2c-0.6,7.7-1.6,15.2-3.2,22.3c-1.3,6.1-3.1,12.8-5.3,19.9c-1.3,4.2-3.7,11-7,20.4
					c-0.8,2.3-1.6,4.5-2.3,6.6c1.9,1.4,4.2,1.8,6.8,1.2c3.4-0.7,6.4-0.1,9.2,2c0.3,0.2,0.5,0.4,0.7,0.7c0.5,0.7,1.1,1.5,1.6,2.3
					c0.3,0.3,0.6,0.6,0.9,0.9c2.9,1.9,6.1,2.6,9.6,2.1c2-0.3,4,0,5.8,0.6c2.8,1,5.4,2.3,7.8,4.1c1.6,1.2,3.5,1.9,5.5,2
					c1.1,0.1,2.3-0.1,3.3-0.5c2.7-1.1,5.6-1.3,8.5-0.8c0.6,0.1,2.2,0.7,4.8,1.9c2.6,1.2,4.7,1.5,6.6,0.9c1.8-0.6,3.1-1.3,4-2.2
					c0.8-0.9,2.3-1.2,4.4-1c0.7,0.1,1.3,0.3,1.8,0.6c2.7,1.8,5.6,2.4,8.8,1.9c0.5-0.1,0.9-0.2,1.4-0.5c2.9-1.5,5.9-2.2,9.2-2
					c1.3,0.1,3.5,0.7,6.7,1.9c3.2,1.2,5.8,1,7.7-0.7c0.9-0.6,2-1.3,3.4-2.1c1.3-0.8,2.7-1.2,4.1-1.3c0.7,0,1.4-0.1,2.3,0
					c-0.8-5.7-1.6-11.9-2.2-18.8c-0.9-9.8-1.5-15.8-1.6-17.9c-0.1-2.1-0.4-6.8-0.8-14c-0.5-7.2-0.6-13.3-0.5-18.3
					C269.8,316.4,269.9,311.8,270,307.6z"/>
				<path fill="#FFFBD4" d="M149.5,379.8c0,0.1,0,0.1,0,0.1l0.5,0.2C149.8,380,149.7,379.9,149.5,379.8z"/>
				<path fill="#FFFFFF" d="M268.4,393.7c-1.3,1.1-2.7,1.9-4.3,2.5c-1.5,0.6-3.5,0.5-6-0.1c-0.7-0.1-1.3-0.3-2-0.6
					c-2.8-1.3-5.8-1.7-8.8-1.4c-1,0.2-2,0.5-2.9,1c-3.2,1.7-6.5,2-9.9,1.1c-0.6-0.2-1.2-0.4-1.7-0.7c-1.5-0.9-3-1.4-4.7-1.5
					c-0.6,0-2.2,0.9-4.8,2.6c-2.6,1.7-7.4,1-14.4-2.1c-0.3,0-0.5-0.1-0.8-0.1c-1.5-0.2-2.8,0-4.2,0.5c-1,0.4-1.9,0.6-2.9,0.8
					c-1.7,0.3-3.5,0.2-5.1-0.2c-2.5-0.7-4.9-1.8-7-3.3c-1.7-1.2-3.4-2-5.4-2.6c-0.7-0.2-1.4-0.3-2.1-0.3c-2.3,0.1-4.5,0.1-6.8-0.1
					c-3.7-0.3-6-1.3-6.9-2.8c-0.9-1.5-2.3-3-4.1-4.3c-1.8-1.3-4-1.7-6.8-1.1c-2.8,0.6-5.1,0.3-7-0.9l-0.5-0.2
					c-0.8,2.3-1.5,4.4-2.2,6.5c6,4.3,14.1,8,24.3,11.3c11.8,3.7,29,6.3,51.6,7.6c7.7,0.5,15.4,0.7,23.1,0.6
					c9.1-0.2,18.3-1.6,27.6-4.2c0.9-0.3,1.8-0.5,2.7-0.8c-0.2-1.1-0.4-2.2-0.6-3.4c-0.3-1.8-0.6-3.7-0.9-5.6c-0.8,0-1.5,0-2.3,0.1
					C271.2,392,269.7,392.6,268.4,393.7z"/>
				<path d="M227.9,428.3c-1.3-0.9-2.3-1.4-2.8-1.4c-0.4,0-0.7-0.1-0.8,0c-0.2,0-0.3,0.2-0.3,0.5c0,0.5,0,0.6,0,0.4
					c2.9,1.9,4.6,2.9,5,2.9c0.4,0,0.7-0.1,0.6-0.2c0.1-0.3,0.1-0.5,0.1-0.6C229.8,429.6,229.2,429.1,227.9,428.3z"/>
				<path fill="#A46728" d="M247.9,428.1c0-0.9-0.3-1.9-0.9-3c-0.5-0.9-1-1.5-1.7-2c0,0.2,0.1,0.3,0.1,0.5c0.1,0.6,0.3,1.1,0.4,1.7
					c-0.3,0.1-0.5,0.2-0.8,0.3c0,0,0,0.1,0,0.1c-1.7,0.5-3.8,0.7-6.3,0.5c-3.7-0.3-6.6-0.9-8.4-1.7c-0.6,0.3-1.3,0.6-2,0.9l0,0.1
					c0.7,0.1,1.6,0.5,2.7,1.3c1.2,0.9,1.9,1.6,2,2.2c-0.1,0.2-0.4,0.3-0.8,0.3c-0.5,0-1.4-0.5-2.7-1.3c-1.3-0.8-2-1.4-2.2-1.8
					c0.2-0.3,0.4-0.5,0.6-0.7c-0.2,0.1-0.5,0.2-0.8,0.3c-0.8,0.3-1.8,0.5-3,0.9c-0.9,0.2-1.9,0.5-3,0.7c0.9,0.2,2.6,1.6,5.4,4.2
					c-0.1,0.2-0.3,0.4-0.4,0.6c-0.1,0.1-0.3,0.2-0.6,0.2c-1-0.1-2.1-0.8-3.5-2.1c-1.2-1.2-1.8-1.9-1.7-2.1c0-0.2,0-0.4,0.1-0.5
					c-0.1,0-0.1,0-0.2,0c-0.7,0.1-1.3,0.3-2,0.4c-4.3,0.9-7.2,1.7-8.8,2.4c-0.9,0.4-1.7,0.9-2.3,1.5c0,0,0,0.1,0,0.1
					c-0.1,1,0,1.9,0.2,2.6c0.8,2.3,3.4,3.7,7.7,4c6.7,0.5,15.7-1.4,27.1-5.7c1.6-0.6,3.5-1.4,5.5-2.2c0-0.1,0-0.2,0-0.2
					C247.9,429.4,247.9,428.6,247.9,428.1z M229.1,430.6c-0.5,0-2.1-1-5-2.9c0,0.2-0.1,0,0-0.4c0-0.3,0.1-0.5,0.3-0.5
					c0.1,0,0.4,0,0.8,0c0.5,0,1.5,0.5,2.8,1.4c1.3,0.9,1.9,1.4,1.9,1.6c0,0.1-0.1,0.3-0.1,0.6C229.7,430.6,229.5,430.7,229.1,430.6z
					"/>
				<path fill="#FDCF9D" d="M232.6,407.9c0,0.7-0.1,1.5-0.1,2.6c0,0.5,0,0.9,0,1.5c1.2,0.2,2.5,0.3,3.9,0.4c2.6,0.2,5,0.2,7.3,0.1
					c0-0.4,0.1-0.8,0.1-1.1c0.1-1.6,0.3-3,0.4-3.9c-3.9,0-7.7-0.1-11.6-0.2C232.6,407.4,232.6,407.6,232.6,407.9z"/>
				<path fill="#EB1F24" d="M243.4,415.6c0.1-0.7,0.1-1.2,0.1-1.7c-2.3,0.1-4.8,0.1-7.5-0.1c-1.3-0.1-2.5-0.2-3.6-0.3
					c0,0.5,0,1.1,0,1.7c1.1,0.1,2.3,0.3,3.6,0.4C238.7,415.8,241.2,415.8,243.4,415.6z"/>
				<path fill="#FFFBD4" d="M238.7,424.7c2,0.2,3.8,0,5.2-0.3c0-0.2-0.1-0.3-0.1-0.5c-0.4-2.1-0.5-4.3-0.5-6.8
					c-2.3,0.1-4.9,0.1-7.5-0.1c-1.2-0.1-2.4-0.2-3.4-0.3c-0.2,1.8-0.4,4-0.9,6.6C233.5,424,235.9,424.5,238.7,424.7z"/>
				<path fill="#7D2717" d="M247.6,432.1c-1.9,0.7-3.5,1.4-4.9,1.9c-4.1,1.6-8.3,3.1-12.6,4.2c-6.1,1.6-11.1,2.3-15,2
					c-5.2-0.4-8.3-2.1-9.3-5.1c-0.1-0.4-0.2-0.7-0.2-1.1c-0.1,0.3-0.2,0.7-0.3,1c0,0,0,0,0,0c0,0.1,0,0.3,0,0.4
					c-0.1,0.8-0.1,1.3-0.1,1.6c0.1,0.7,0.4,1.3,0.8,1.9c1.4,1.5,4.4,2.4,9.2,2.8c3.5,0.3,8.1-0.3,13.7-1.7c2.9-0.7,6-1.6,9.3-2.6
					c4.7-1.1,7.5-2,8.4-2.8c0.4-0.4,0.7-0.9,0.8-1.6C247.6,432.7,247.6,432.4,247.6,432.1z"/>
				<path fill="#FFFBD4" d="M182.6,410.6c2,0.2,3.8,0,5.2-0.3c0-0.2-0.1-0.3-0.1-0.5c-0.4-2.1-0.5-4.3-0.5-6.8
					c-2.3,0.1-4.9,0.1-7.5-0.1c-1.2-0.1-2.4-0.2-3.4-0.3c-0.2,1.8-0.4,4-0.9,6.6C177.4,409.9,179.8,410.4,182.6,410.6z"/>
				<path d="M171.8,414.1c-1.3-0.9-2.3-1.4-2.8-1.4c-0.4,0-0.7-0.1-0.8,0c-0.2,0-0.3,0.2-0.3,0.5c0,0.5,0,0.6,0,0.4
					c2.9,1.9,4.6,2.9,5,2.9c0.4,0,0.7-0.1,0.6-0.2c0.1-0.3,0.1-0.5,0.1-0.6C173.7,415.5,173.1,415,171.8,414.1z"/>
				<path fill="#A46728" d="M191.8,413.9c0-0.9-0.3-1.9-0.9-3c-0.5-0.9-1-1.5-1.7-2c0,0.2,0.1,0.3,0.1,0.5c0.1,0.6,0.3,1.1,0.4,1.7
					c-0.3,0.1-0.5,0.2-0.8,0.3c0,0,0,0.1,0,0.1c-1.7,0.5-3.8,0.7-6.3,0.5c-3.7-0.3-6.6-0.9-8.4-1.7c-0.6,0.3-1.3,0.6-2,0.9l0,0.1
					c0.7,0.1,1.6,0.5,2.7,1.3c1.2,0.9,1.9,1.6,2,2.2c-0.1,0.2-0.4,0.3-0.8,0.3c-0.5,0-1.4-0.5-2.7-1.3c-1.3-0.8-2-1.4-2.2-1.8
					c0.2-0.3,0.4-0.5,0.6-0.7c-0.2,0.1-0.5,0.2-0.8,0.3c-0.8,0.3-1.8,0.5-3,0.9c-0.9,0.2-1.9,0.5-3,0.7c0.9,0.2,2.6,1.6,5.4,4.2
					c-0.1,0.2-0.3,0.3-0.4,0.6c-0.1,0.1-0.3,0.2-0.6,0.2c-1-0.1-2.1-0.8-3.5-2.1c-1.2-1.2-1.8-1.9-1.7-2.1c0-0.2,0-0.4,0.1-0.5
					c-0.1,0-0.1,0-0.2,0c-0.7,0.1-1.3,0.3-2,0.4c-4.3,0.9-7.2,1.7-8.8,2.4c-0.9,0.4-1.7,0.9-2.3,1.5c0,0,0,0.1,0,0.1
					c-0.1,1,0,1.9,0.2,2.6c0.8,2.3,3.4,3.7,7.7,4c6.7,0.5,15.7-1.4,27.1-5.7c1.6-0.6,3.5-1.3,5.5-2.2c0-0.1,0-0.2,0-0.2
					C191.7,415.3,191.8,414.5,191.8,413.9z M172.9,416.5c-0.5,0-2.1-1-5-2.9c0,0.2-0.1,0,0-0.4c0-0.3,0.1-0.5,0.3-0.5
					c0.1,0,0.4,0,0.8,0c0.5,0,1.5,0.5,2.8,1.4c1.3,0.9,1.9,1.4,1.9,1.6c0,0.1-0.1,0.3-0.1,0.6C173.6,416.4,173.4,416.5,172.9,416.5z
					"/>
				<path fill="#7D2717" d="M191.5,417.9c-1.9,0.7-3.5,1.4-4.9,1.9c-4.1,1.6-8.3,3.1-12.6,4.2c-6.1,1.6-11.1,2.3-15,2
					c-5.2-0.4-8.3-2.1-9.3-5.1c-0.1-0.4-0.2-0.7-0.2-1.1c-0.1,0.3-0.2,0.7-0.3,1c0,0,0,0,0,0c0,0.1,0,0.3,0,0.4
					c-0.1,0.8-0.1,1.4-0.1,1.6c0.1,0.7,0.4,1.3,0.8,1.9c1.4,1.5,4.4,2.4,9.2,2.8c3.5,0.3,8.1-0.3,13.7-1.7c2.9-0.7,6-1.6,9.3-2.7
					c4.7-1.1,7.5-2,8.4-2.8c0.4-0.4,0.7-0.9,0.8-1.6C191.4,418.5,191.5,418.2,191.5,417.9z"/>
				<path fill="#EB1F24" d="M180.1,401.2c-1.2-0.3-2.5-0.7-3.7-1c0,0.3,0,0.5,0,0.8c1.1,0.1,2.3,0.3,3.6,0.4L180.1,401.2z"/>
			</g>
			<g>
				<circle cx="124.7" cy="95.9" r="6.2"/>
				<path d="M137.6,91c0.1,0.9,0.3,1.8,0.6,2.6c0.3,0.6,0.6,1.2,1,1.8c0.4,0.6,0.9,1.1,1.5,1.6c0.1,0.1,0.3,0.3,0.5,0.4
					c0.4,0.3,0.7,0.5,1,0.7c1.5,0.8,3.1,1.1,4.9,1c0.6,0,1.2-0.1,1.7-0.3c1.7-0.5,3.1-1.4,4.2-2.8c0.5-0.6,0.9-1.1,1.2-1.8
					c0.2-0.4,0.3-0.7,0.5-1.1c0.1-0.3,0.2-0.5,0.2-0.8c0,0,0,0,0-0.1c0.2-0.8,0.2-1.7,0.1-2.7c-0.1-1.2-0.4-2.3-0.9-3.3
					c-0.1-0.3-0.3-0.5-0.4-0.7c-0.5-0.7-1.1-1.4-1.8-2c-1.2-1-2.4-1.6-3.8-1.9c-0.6-0.1-1.2-0.2-1.8-0.2c-0.3,0-0.5,0-0.8,0.1
					c-0.2,0-0.4,0-0.6,0.1c-0.1,0-0.2,0-0.3,0c-2,0.4-3.7,1.3-5.1,3c-0.1,0.1-0.3,0.3-0.4,0.5c-0.6,0.8-1,1.6-1.3,2.5
					C137.6,88.7,137.5,89.8,137.6,91z M147.6,82.6c1.4,0.2,2.7,0.8,3.9,1.7c1.6,1.4,2.5,3.1,2.7,5.2c0.1,0.9,0,1.7-0.2,2.6
					c-0.3,1.1-0.8,2.1-1.6,3c-1.3,1.6-3.1,2.5-5.2,2.6c-0.9,0.1-1.8,0-2.6-0.2c-1.1-0.3-2-0.8-3-1.6c-0.9-0.8-1.6-1.6-2.1-2.7
					c0-0.1-0.1-0.3-0.2-0.4c1.7-2.1,3.9-4.7,6.3-7.8C146.4,84.2,147,83.4,147.6,82.6z M140.7,85.3c1.4-1.6,3.1-2.5,5.2-2.6
					c0.2,0,0.5,0,0.8,0c-1.9,2.4-4.4,5.6-7.5,9.6c-0.1-0.4-0.2-0.9-0.2-1.3C138.8,88.7,139.3,86.9,140.7,85.3z"/>
				<path fill="#FFCD7B" d="M139.1,92.1c3.2-4,5.7-7.2,7.5-9.6c-0.3,0-0.5,0-0.8,0c-2.1,0.2-3.8,1.1-5.2,2.6
					c-1.4,1.6-1.9,3.5-1.8,5.6C139,91.3,139,91.7,139.1,92.1z"/>
				<path fill="#FFFFFF" d="M139.4,92.9c0.1,0.1,0.1,0.3,0.2,0.4c0.5,1,1.1,1.9,2.1,2.7c0.9,0.8,1.9,1.3,3,1.6
					c0.8,0.2,1.7,0.3,2.6,0.2c2.1-0.2,3.8-1.1,5.2-2.6c0.8-0.9,1.3-1.9,1.6-3c0.2-0.8,0.3-1.7,0.2-2.6c-0.2-2.1-1.1-3.8-2.7-5.2
					c-1.2-1-2.4-1.6-3.9-1.7c-0.6,0.7-1.2,1.6-1.9,2.5C143.2,88.3,141.1,90.9,139.4,92.9z"/>
				<path d="M142.8,91.4c0.1,0,0.1,0,0.1,0.1c-0.1-0.1-0.3-0.2-0.5-0.3c-0.6-0.2-1,0.1-1.2,0.7c0,0.2-0.1,0.4,0,0.5
					c0.1,0.4,0.3,0.6,0.7,0.7c0.3,0.1,0.6,0,0.8-0.2c0.2-0.1,0.3-0.3,0.4-0.5c0-0.2,0-0.4,0-0.6c0,0.1,0,0.1,0,0.2
					c-0.1,0.2-0.2,0.4-0.5,0.3c-0.2,0-0.3-0.1-0.3-0.3c0-0.1,0-0.2,0-0.2C142.3,91.5,142.5,91.4,142.8,91.4z"/>
				<path d="M130.3,99.2C130.3,99.2,130.3,99.2,130.3,99.2C130.3,99.2,130.3,99.2,130.3,99.2C130.3,99.2,130.3,99.2,130.3,99.2z"/>
				<path fill="#FFCD7B" d="M128.1,91.5c-1.1-0.9-2.3-1.4-3.8-1.3c-1.3,0.1-2.4,0.6-3.3,1.6c-0.1,0.1-0.1,0.1-0.2,0.2
					c0.1,0,0.1,0,0.2,0c3.7,1,6.7,1.9,8.9,2.5C129.7,93.3,129.1,92.3,128.1,91.5z"/>
				<path fill="#FFFFFF" d="M125.3,101.2c1.4-0.1,2.5-0.7,3.4-1.8c0-0.1,0.1-0.1,0.1-0.2c0.9-1.1,1.3-2.4,1.2-3.9l-9.6-2.7
					c-0.1,0.1-0.2,0.3-0.2,0.4c-0.4,0.9-0.6,1.9-0.5,3c0.1,1.6,0.7,2.8,1.9,3.9c0,0,0.1,0.1,0.1,0.1c0.1,0,0.1,0.1,0.2,0.2
					c0.4,0.3,0.8,0.5,1.1,0.7C123.7,101.2,124.4,101.3,125.3,101.2z"/>
				<path d="M124.9,97.2c0.3,0.1,0.6,0,0.9-0.2c0.2-0.1,0.4-0.4,0.4-0.6c0.1-0.3,0-0.6-0.1-0.8c0,0.1,0,0.1,0,0.2
					c-0.1,0.3-0.2,0.4-0.5,0.3c-0.2,0-0.3-0.2-0.3-0.3c0-0.1,0-0.2,0-0.2c0-0.3,0.2-0.4,0.5-0.3c0,0,0,0,0,0
					c-0.1-0.1-0.3-0.1-0.4-0.2c-0.7-0.2-1.1,0.1-1.3,0.8c0,0.2-0.1,0.4,0,0.6C124.2,96.9,124.5,97.1,124.9,97.2z"/>
			</g>
		</g>
		<path fill="none" d="M218.3,250.3c0-0.1,0-0.2,0-0.3L218.3,250.3C218.2,250.2,218.3,250.3,218.3,250.3z"/>
		<path d="M220.6,185c0.1,6.8-12.1,50.6-12.8,57.3c-0.2,1.6-0.3,3.2-0.5,4.9c-0.1,0.9-0.2,1.9-0.3,2.9c-0.6,0.4-1.1,0.8-1.7,1.2
			c-1.8,1.2-2.6,5.8-3.3,7.8c-0.3,0.9-0.5,1.8-0.5,2.8c0,1.6,0.4,3.1,1.2,4.5c0.6,0.1,1.1,0.1,1.7-0.2c0.7,2,2.1-0.4,3.9,0.4
			c0,1.5,5.7,4,6.3,0.5c0.2,0,1.4,0.6,1.8,0.5c0.9-0.2,1.6-0.6,2.2-1.2c1.9-1.8,2.4-5.2,1.7-10.1c-0.1-0.5-0.4-1.8-1-3.8
			c0-0.5,0.1-0.9,0.1-1.4c0.1-1.3,0.2-2.6,0.3-3.9c0.1-1.1,0.2-2.2,0.3-3.3c0.1-0.8,0.1-1.6,0.2-2.4c0.1-1.2,1.2-2.4,1.4-3.6
			c7.9-44.9,13.1-58.3,13.4-70.5"/>
		<path d="M233.2,169.2c0.1,6.8-14,71.1-14.4,75.7c-1.7-1.3-3.7-2.1-6-2.2c-1.3-0.1-2.5-0.1-3.7,0.1c0.6-8.5,12.9-54,13.1-62.5"/>
		<path d="M208.7,247.8c0.1-1.2,0.2-2.4,0.3-3.6c3.4-0.4,6.6,0.3,9.5,2.1c0.1,0,0.1,0.1,0.2,0.1c-0.1,1.2-0.2,2.4-0.3,3.6
			c0,0.1,0,0.2,0,0.3c0,0-0.1,0-0.1-0.1c-1.9-1.5-3.9-2.3-6.3-2.5C210.8,247.6,209.8,247.7,208.7,247.8z"/>
		<path d="M210.2,266.5c-1.7-1.9-0.9-1.4-1.3-4c-0.3-1.3-1.1-1.9-2.3-1.9c-0.7,0-1.2,0.2-1.7,0.7c-0.5,0.5-0.7,3.7-1.3,3.7
			c-0.3-1.1-0.6-1.9-0.8-2.6c-0.2-0.6-0.2-4.9,0.8-6.9c1-2,2.8-3.7,5.4-5.1c0.8-0.4,1.5-0.8,2.1-1.1c2.2,0.2,4.4,0.9,6.4,2.2
			c0.1,0,0.2,0.1,0.2,0.2c0.1,0.2,0.2,0.5,0.3,0.8c0.3,1.1,0.6,2.4,0.9,4.1c0.6,4,0.3,6.8-0.7,8.3c-0.5,0.8-1.4,1.2-2.6,1.5
			c0.2-1.2,0.3-2.4,0.3-3.6l-0.9-0.1C214.7,266.1,211,267.4,210.2,266.5z"/>
		<path fill="#C272AD" d="M222.7,179.2c-0.2,8.5-12.5,55-13.2,63.5c1.2-0.2,2.4-0.2,3.7-0.1c2.2,0.2,4.2,0.9,6,2.2
			c0.4-4.5,14.6-69.8,14.5-76.7"/>
		<path fill="#FFFBD4" d="M218.3,250c0.1-1.2,0.2-2.4,0.3-3.6c0,0-0.1-0.1-0.2-0.1c-2.9-1.8-6.1-2.5-9.5-2.1
			c-0.1,1.2-0.2,2.4-0.3,3.6c1-0.1,2.1-0.1,3.2,0c2.4,0.2,4.5,1,6.3,2.5L218.3,250z"/>
		<path fill="#FDCF9D" d="M214.9,264.6l1.1-1.9c0,1.2-0.2,2.4-0.3,3.6c1.2-0.3,2-0.8,2.6-1.5c1-1.5,1.3-4.3,0.7-8.3
			c-0.2-1.7-0.5-3.1-0.9-4.1c-0.1-0.3-0.2-0.5-0.3-0.8c-0.1-0.1-0.2-0.1-0.2-0.2c-2-1.3-4.2-2-6.4-2.2c-0.6,0.3-1.3,0.7-2.1,1.1
			c-2.6,1.4-4.3,3.1-5.4,5.1c-1,2-1,6.3-0.8,6.9c0.2,0.6,0.5,1.5,0.8,2.6c0.7,0,0.8-3.3,1.3-3.7c0.5-0.5-0.6,4.4,1.3,4.3
			c1.2,0,2.2-2.4,2.5-1.1c0.4,2.5,0.9,1.5,2.3,2.4C211.6,267.2,214.5,268.1,214.9,264.6z"/>
		<g>
			<path d="M146,144.8c0,0,5.4-6.8,8.4-9.4c0.6-0.5,1.2-0.9,1.9-1.2l19.3-8.2c0.5-0.2-14.4,8.5-14.4,8.5
				C158.4,135.7,145.7,145.2,146,144.8z"/>
		</g>
	</g>
</g>
<g id="Layer_15">
</g>
<g id="Layer_16">
</g>
<g id="Layer_17">
</g>
<g id="Layer_18">
</g>
<g id="Layer_19">
</g>
<g id="Layer_20">
</g>
<g id="Layer_21">
</g>
<g id="Layer_22">
</g>
<g id="Layer_23">
</g>
<g id="Layer_24">
</g>
<g id="Layer_25">
</g>
<g id="Layer_26">
</g>
<g id="Layer_27">
</g>
<g id="Layer_28">
</g>
<g id="Layer_29">
</g>
<g id="Layer_30">
</g>
<g id="Layer_31">
</g>
<g id="Layer_32">
</g>
<g id="Layer_33">
</g>
<g id="Layer_34">
</g>
<g id="Layer_36">
</g>
<g id="Layer_35">
</g>
<g id="Layer_37">
</g>
<g id="Layer_38">
</g>
<g id="Layer_39">
</g>
<g id="Layer_40">
</g>
</svg>
