<?xml version="1.0" encoding="utf-8"?>
<!-- Generator: Adobe Illustrator 18.1.1, SVG Export Plug-In . SVG Version: 6.00 Build 0)  -->
<!DOCTYPE svg PUBLIC "-//W3C//DTD SVG 1.1//EN" "http://www.w3.org/Graphics/SVG/1.1/DTD/svg11.dtd">
<svg version="1.1" xmlns="http://www.w3.org/2000/svg" xmlns:xlink="http://www.w3.org/1999/xlink" x="0px" y="0px"
	 viewBox="0 0 393 483" enable-background="new 0 0 393 483" xml:space="preserve">
<g id="ziutek_x5F_01">
</g>
<g id="ziutek_x5F_02">
</g>
<g id="ziutek_x5F_03">
</g>
<g id="ziutek_x5F_04">
</g>
<g id="ziutek_x5F_05">
</g>
<g id="ziutek_x5F_06">
</g>
<g id="ziutek_x5F_07">
</g>
<g id="ziutek_x5F_08">
</g>
<g id="ziutek_x5F_09">
</g>
<g id="ziutek_x5F_10">
</g>
<g id="lady_x5F_01">
</g>
<g id="Layer_13">
</g>
<g id="Layer_12">
	<g>
		<g>
			<g>
				<path fill="none" d="M161.1,204.9c-3,5.8-4.5,9-4.6,9.8c0,0.5,0.6,2.1,2,4.9c0.5,1.1,1.3,2.5,2.3,4.3c-0.1-3-0.2-5.8-0.2-8.2
					C160.6,212.6,160.7,209,161.1,204.9z"/>
				<path d="M231.9,148c-3.2-4-7.8-6.5-12.1-9.1c0.2-0.3,0.4-0.5,0.5-0.8c3.9-5.7,5.8-13,5.8-22s-3-20.1-9.1-33.6
					c-6.1-13.5-14.9-24.7-26.5-33.8c-11.6-9.1-24.2-12.5-37.6-10.2c-4.3,0.7-8.1,2-11.5,3.9c-0.5,0.1-0.9,0.3-1.4,0.4
					c-3.6,1.2-6.8,3-9.8,5.4c-2,1.6-3.8,3.3-5.4,5.2c-1.5,1.7-2.8,3.5-4,5.4c-3.1,5.1-5.2,10.5-6.4,16.3c-0.6,2.7-0.7,5.4-0.5,8.1
					c0.2,2.2,1.2,3.8,3.3,4.3c4.6,1.2,8.2,19.6,9.1,22.4c0.2,0.5,0.4,1.1,0.5,1.7c1.1,3.2,2.2,6.5,3.4,9.7c1.2,3.4,2.4,6.7,3.6,10.1
					c1.1,3.1,2.2,6.2,3.4,9.3c0.4,1.2,0.9,2.4,1.4,3.5c-0.1,2.4,0,5.3,0.2,8.5c0.1,1.3,0,3.4-0.2,6.2c-0.1,3.8-0.8,7.3-1.9,10.7
					c0,0.1-0.1,0.2-0.1,0.3c-0.1,0.2-0.3,0.4-0.5,0.6c-0.1,0.1-0.2,0.2-0.3,0.3c1.4-0.3,3-0.8,4.8-1.6c2.5-1.1,5.2-2.6,8-4.5
					c0.7-0.5,1.4-1,2.1-1.5c1.1,1.1,2.4,2.1,3.7,3.1c2.5,1.8,5.1,3.3,7.8,4.6c0.2,0.1,0.4,0.2,0.6,0.3c0,0.3-0.1,0.6-0.1,0.8
					c-0.1,0.9,0,1.6,0.1,2.3c-0.7,1-1.3,2-1.9,3c-1.9,3.3-4.5,7.3-7.6,11.9c-3.2,4.6-5.6,8.8-7.3,12.4c-1.7,3.6-2.8,6.3-3.2,8
					c-0.4,1.7-0.5,3.4-0.3,5c0.1,1.6,1,4,2.5,7c1.5,3,3.3,6.3,5.4,9.8c1.7,2.8,3.3,5.6,4.9,8.5c1.3,2.4,2.4,4.9,3.3,7.4
					c0.2,0.6,0.3,1.3,0.3,1.9c-0.5,0-1,0-1.6,0c-1.3-0.1-2.2-0.4-2.5-0.8c-0.4-0.4-1-0.7-2-0.8c-1.3-0.1-2.1,0.2-2.5,0.9
					c-0.2,0.3-0.3,0.9-0.3,1.9c0,0,0,0.5-0.1,1.3c0,0.9,0.2,1.8,0.6,2.6c1.1,2.5,3.6,3.9,7.4,4.2c1.3,0.1,2.7-0.1,4.1-0.6
					c0,5.2,0,10.2-0.1,15c-0.2,5.4-0.2,10.5-0.1,15.1c-0.1,0-0.1,0-0.2-0.1c0,0.1,0,0.2,0,0.3c0,0.4-0.1,0.7-0.2,1
					c1.8,0.8,3.7,1.6,5.6,2.2c-0.1,2.4-0.1,4.6,0,6.5c0.1,2.6-0.1,6.5-0.6,11.7c-0.8,10.7-2.5,21.1-5.1,31.4
					c-1.9,7.8-6,20-12.4,36.6c-1.6,4.3-3,8-4,10.9c0.6,0.1,1.2,0.3,1.7,0.6c0,0,0-0.1,0-0.1c5,3.4,11.3,6.4,18.9,9
					c3.1,1.1,6.2,2.1,9.3,3c0,0.7,0,1.4,0,2.1c-0.1,1.7-0.4,4-0.8,6.6c-1.7,1-3.3,1.7-4.9,2.1c-4.5,1.1-7.7,1.9-9.4,2.3
					c-2.9,0.7-5.1,1.4-6.6,2c-1.8,0.7-3.1,1.5-3.9,2.5c-0.9,1-1.4,2.3-1.5,3.9c0,0.2-0.1,0.7-0.2,1.5c0,0.9,0.3,1.7,0.7,2.4
					c1.5,2.2,5,3.5,10.7,3.9c3.6,0.3,8.6-0.4,15.1-2c3.3-0.8,6.5-1.7,9.8-2.7c4.3-0.7,7-1.8,8-3.3c0.4-0.5,0.6-1.3,0.7-2.2
					c0.1-1.1,0.1-1.9,0.1-2.5c0.2-2.6,0.1-4.4-0.4-5.6c-0.3-0.7-0.8-1.5-1.5-2.2c-0.5-0.4-1.1-0.9-2-1.3c-0.2-1.4-0.3-2.9-0.3-4.5
					c2.9,0.6,5.8,1,8.7,1.4c11.2,1.3,22.4,2.2,33.7,2.6c0.1,0.3,0.2,0.6,0.2,0.8c-0.1,0.7-0.1,1.5-0.1,2.5c0,1.6-0.1,3.5,0,5.8
					c-0.1,1.7-0.4,4-0.8,6.6c-1.7,1-3.3,1.7-4.9,2.1c-4.5,1.1-7.7,1.9-9.4,2.3c-2.9,0.7-5.1,1.4-6.6,2c-1.8,0.7-3.1,1.5-3.9,2.5
					c-0.9,1-1.4,2.3-1.5,3.9c0,0.2-0.1,0.7-0.2,1.5c0,0.9,0.3,1.7,0.7,2.4c1.5,2.2,5,3.5,10.7,3.9c3.6,0.3,8.6-0.4,15.1-2
					c3.3-0.8,6.5-1.7,9.8-2.7c4.3-0.7,7-1.8,8-3.2c0.4-0.6,0.6-1.3,0.7-2.2c0.1-1.1,0.1-1.9,0.1-2.5c0.2-2.6,0.1-4.4-0.4-5.6
					c-0.3-0.7-0.8-1.5-1.5-2.2c-0.5-0.4-1.1-0.9-2-1.3c-0.3-2.7-0.4-5.7-0.1-9c0-0.5,0.1-0.9,0.1-1.4c0.1-1.4,0.3-2.7,0.6-4.1
					c3.9,0,7.7-0.2,11.3-0.7c3.9-0.5,8.7-1.5,14.3-3.1c1.8-0.5,3.7-1.1,5.6-1.7c0.3,0,0.6,0,0.9,0c0.1,0,0.2,0,0.4,0.1
					c-0.5-3.3-1.2-7.9-2-13.7c-1.5-10.8-2.6-19.6-3.1-26.4c-0.5-6.8-1-14.8-1.5-24.1c-0.5-9.3-0.7-15.8-0.5-19.4
					c0.2-3.6,0.3-7.5,0.3-11.5c0.1-4.7,0.4-10.4,0.9-17.3l0.5-6.4c2.1-1,4.3-2.2,6.6-3.5c-0.1-0.2-0.1-0.4-0.2-0.6
					c0.1-8.1-0.3-16.6-1.1-25.3c-1.5-15.5-4.6-30.3-9.3-44.4C265.1,200.4,257.2,179.8,231.9,148z M158.6,219.6
					c-1.4-2.8-2.1-4.4-2-4.9c0.1-0.8,1.6-4.1,4.6-9.8c-0.3,4.1-0.4,7.8-0.4,10.8c0,2.4,0.1,5.2,0.2,8.2
					C159.9,222.1,159.1,220.7,158.6,219.6z"/>
				<path fill="none" d="M171.9,412.9C171.9,412.9,171.9,412.9,171.9,412.9c0,0,0.1,0,0.1,0l0-0.1C172,412.9,172,412.9,171.9,412.9z
					"/>
				<path fill="none" d="M228.1,427.1C228.1,427.1,228,427.1,228.1,427.1c0,0,0.1,0,0.1,0l0-0.1
					C228.1,427.1,228.1,427.1,228.1,427.1z"/>
				<path fill="none" d="M181.1,403c-0.4-0.1-0.8-0.2-1.2-0.3l-0.1,0.2C180.3,403,180.7,403,181.1,403z"/>
				<path fill="none" d="M161.1,204.9c-3,5.8-4.5,9-4.6,9.8c0,0.5,0.6,2.1,2,4.9c0.5,1.1,1.3,2.5,2.3,4.3c-0.1-3-0.2-5.8-0.2-8.2
					C160.6,212.6,160.7,209,161.1,204.9z"/>
				<path fill="none" d="M161.5,241.9C161.5,241.9,161.4,242,161.5,241.9l0,0.2C161.5,242,161.5,242,161.5,241.9z"/>
				<path fill="none" d="M180.3,85C180.3,85,180.3,85,180.3,85L180.3,85C180.3,85,180.3,85,180.3,85z"/>
				<path fill="none" d="M158.4,243.7L158.4,243.7C158.4,243.6,158.4,243.6,158.4,243.7z"/>
				<path fill="none" d="M211.2,396.5c-0.8-0.2-1.6-0.4-2.5-0.5C211.4,396.5,212.2,396.7,211.2,396.5z"/>
				<path fill="#C272AD" d="M233.3,150.9c-3.2-4.4-7.6-6.8-10.7-9.2c-1-0.8-2.2-1.6-3.4-2.3c-3.7,5.1-8.3,9.8-13.8,14.3
					c-2,1.7-4,3.2-5.9,4.7c-4.2,5.6-8.5,10-12.7,13.3c-3,2.3-5.9,4.1-8.8,5.1c-0.3-0.3-0.6-0.6-1-0.8c0-0.1-0.1-0.1-0.1-0.2
					c-2-1.3-3.7-2.5-5-3.4c0,0.2-0.1,0.4-0.1,0.6c-1,10.2-1.9,20.1-2.9,29.6c-0.9,9.5-1.1,18.9-0.6,28.2c0.6,9.3,0.8,20.2,0.8,32.7
					c0,8.6,0,15.2,0,19.8c6.7,1.8,14.7,3.1,24.1,3.8c12,0.9,24.8,0.4,38.4-1.5c11.4-1.6,22.5-4,33.1-7.3c4.2-1.3,8.5-3.1,12.6-5.4
					c0-1.2-0.1-2.6-0.1-3.9c-0.4-11.4-1.4-21.6-3-30.4c-1.6-8.9-3.7-17.3-6.2-25.5C265.6,204.9,258.1,185,233.3,150.9z M173.5,180.5
					c0.4-0.5,1-0.7,1.7-0.7c0.8,0.1,1.4,0.5,1.7,1.2c0.2,0.3,0.2,0.7,0.2,1c0,0.4-0.2,0.8-0.5,1.2c-0.4,0.5-1,0.7-1.7,0.7
					c-0.8-0.1-1.4-0.4-1.7-1.1l-0.2-1.1C173,181.3,173.2,180.9,173.5,180.5z M170.9,202.6l-0.2-1.1c0-0.4,0.2-0.8,0.5-1.2
					c0.4-0.5,1-0.7,1.7-0.7c0.8,0.1,1.4,0.5,1.7,1.2c0.2,0.3,0.2,0.7,0.2,1c0,0.4-0.2,0.8-0.5,1.2c-0.4,0.5-1,0.7-1.7,0.7
					C171.7,203.7,171.1,203.3,170.9,202.6z M170.7,222.1c-0.1-0.7-0.2-1-0.2-1.1c0-0.4,0.2-0.8,0.5-1.2c0.4-0.5,1-0.8,1.7-0.7
					c0.8,0.1,1.4,0.4,1.7,1.1c0.2,0.4,0.2,0.7,0.2,1.1c0,0.5-0.2,0.9-0.5,1.2c-0.4,0.5-1,0.7-1.7,0.7
					C171.5,223.2,171,222.8,170.7,222.1z M170.6,243.5c-0.1-0.7-0.2-1-0.2-1.1c0-0.4,0.2-0.8,0.5-1.2c0.5-0.5,1-0.8,1.7-0.7
					c0.8,0.1,1.4,0.4,1.7,1.1c0.2,0.4,0.2,0.7,0.2,1.1c0,0.5-0.2,0.9-0.5,1.2c-0.4,0.5-1,0.7-1.7,0.7
					C171.5,244.6,170.9,244.2,170.6,243.5z M174.4,266.5c-0.4,0.5-1,0.7-1.7,0.7c-0.8-0.1-1.4-0.4-1.7-1.1l-0.2-1.1
					c0-0.4,0.2-0.8,0.5-1.2c0.4-0.5,1-0.7,1.7-0.7c0.8,0.1,1.4,0.5,1.7,1.2c0.2,0.3,0.2,0.7,0.2,1
					C174.9,265.7,174.7,266.1,174.4,266.5z"/>
				<path d="M174.8,184.3c0.7,0.1,1.3-0.2,1.7-0.7c0.3-0.4,0.5-0.8,0.5-1.2c0-0.3,0-0.7-0.2-1c-0.3-0.7-0.8-1.1-1.7-1.2
					c-0.7-0.1-1.2,0.2-1.7,0.7c-0.3,0.4-0.5,0.8-0.5,1.2l0.2,1.1C173.5,183.8,174,184.2,174.8,184.3z M173.7,181.3
					c0.3-0.3,0.7-0.5,1.1-0.5c0.8,0.1,1.3,0.6,1.2,1.5c0,0.3-0.1,0.6-0.3,0.8c-0.3,0.4-0.6,0.5-1.1,0.5c-0.5,0-0.9-0.3-1.1-0.7
					c-0.1-0.3-0.2-0.5-0.2-0.8C173.4,181.8,173.5,181.6,173.7,181.3z"/>
				<path fill="#F186B6" d="M174.6,183.6c0.5,0,0.9-0.1,1.1-0.5c0.2-0.2,0.3-0.5,0.3-0.8c0-0.9-0.4-1.4-1.2-1.5
					c-0.5,0-0.8,0.1-1.1,0.5c-0.2,0.3-0.3,0.5-0.3,0.8c0,0.2,0,0.5,0.2,0.8C173.7,183.3,174.1,183.5,174.6,183.6z"/>
				<path d="M174.2,203.4c0.3-0.4,0.5-0.8,0.5-1.2c0-0.3,0-0.7-0.2-1c-0.3-0.7-0.8-1.1-1.7-1.2c-0.7-0.1-1.2,0.2-1.7,0.7
					c-0.3,0.4-0.5,0.8-0.5,1.2l0.2,1.1c0.3,0.7,0.8,1.1,1.7,1.1C173.2,204.2,173.7,203.9,174.2,203.4z M171.2,202.7
					c-0.1-0.5-0.2-0.7-0.2-0.7c0-0.3,0.2-0.5,0.3-0.8c0.3-0.3,0.7-0.5,1.1-0.5c0.8,0.1,1.3,0.6,1.3,1.4c0,0.3-0.1,0.6-0.3,0.8
					c-0.3,0.4-0.6,0.5-1.1,0.5C171.8,203.4,171.4,203.1,171.2,202.7z"/>
				<path fill="#F186B6" d="M173.4,203c0.2-0.2,0.3-0.5,0.3-0.8c0-0.9-0.4-1.4-1.3-1.4c-0.5,0-0.8,0.1-1.1,0.5
					c-0.2,0.3-0.3,0.5-0.3,0.8c0,0,0.1,0.3,0.2,0.7c0.2,0.5,0.6,0.7,1.1,0.7C172.8,203.5,173.1,203.3,173.4,203z"/>
				<path d="M174,222.9c0.3-0.4,0.5-0.8,0.5-1.2c0-0.4,0-0.7-0.2-1.1c-0.3-0.7-0.8-1.1-1.7-1.1c-0.7-0.1-1.2,0.2-1.7,0.7
					c-0.3,0.4-0.5,0.8-0.5,1.2c0,0,0.1,0.4,0.2,1.1c0.3,0.7,0.8,1.1,1.7,1.1C173,223.7,173.6,223.4,174,222.9z M171,222.3
					c-0.1-0.5-0.2-0.7-0.2-0.7c0-0.3,0.2-0.5,0.3-0.8c0.3-0.3,0.7-0.5,1.1-0.5c0.8,0.1,1.3,0.6,1.3,1.4c0,0.3-0.1,0.6-0.3,0.8
					c-0.3,0.4-0.6,0.5-1.1,0.5C171.6,223,171.2,222.7,171,222.3z"/>
				<path fill="#F186B6" d="M173.2,222.6c0.2-0.2,0.3-0.5,0.3-0.8c0-0.9-0.4-1.4-1.3-1.4c-0.5,0-0.8,0.1-1.1,0.5
					c-0.2,0.3-0.3,0.5-0.3,0.8c0,0,0.1,0.3,0.2,0.7c0.2,0.5,0.6,0.7,1.1,0.7C172.6,223.1,173,222.9,173.2,222.6z"/>
				<path d="M174,244.3c0.3-0.4,0.5-0.8,0.5-1.2c0-0.4,0-0.7-0.2-1.1c-0.3-0.7-0.8-1.1-1.7-1.1c-0.7-0.1-1.2,0.2-1.7,0.7
					c-0.3,0.4-0.5,0.8-0.5,1.2c0,0,0.1,0.4,0.2,1.1c0.3,0.7,0.8,1.1,1.7,1.1C173,245.1,173.6,244.8,174,244.3z M173.2,244
					c-0.3,0.4-0.6,0.5-1.1,0.5c-0.5,0-0.9-0.3-1.1-0.7c-0.1-0.5-0.2-0.7-0.2-0.7c0-0.3,0.2-0.5,0.3-0.8c0.3-0.3,0.7-0.5,1.1-0.5
					c0.8,0.1,1.3,0.6,1.3,1.4C173.5,243.4,173.4,243.7,173.2,244z"/>
				<path fill="#F186B6" d="M172.3,241.7c-0.5,0-0.8,0.1-1.1,0.5c-0.2,0.3-0.3,0.5-0.3,0.8c0,0,0.1,0.3,0.2,0.7
					c0.2,0.5,0.6,0.7,1.1,0.7c0.5,0,0.9-0.1,1.1-0.5c0.2-0.2,0.3-0.5,0.3-0.8C173.6,242.3,173.1,241.8,172.3,241.7z"/>
				<path d="M173,263.4c-0.7-0.1-1.3,0.2-1.7,0.7c-0.3,0.4-0.5,0.8-0.5,1.2l0.2,1.1c0.3,0.7,0.8,1.1,1.7,1.1
					c0.7,0.1,1.3-0.2,1.7-0.7c0.3-0.4,0.5-0.8,0.5-1.2c0-0.3,0-0.7-0.2-1C174.4,263.9,173.9,263.5,173,263.4z M173.7,266.4
					c-0.3,0.4-0.6,0.5-1.1,0.5c-0.5,0-0.9-0.3-1.1-0.7c-0.1-0.5-0.2-0.7-0.2-0.7c0-0.3,0.2-0.5,0.3-0.8c0.3-0.3,0.7-0.5,1.1-0.5
					c0.9,0.1,1.3,0.6,1.3,1.4C174,265.8,173.9,266.1,173.7,266.4z"/>
				<path fill="#F186B6" d="M172.7,264.1c-0.5,0-0.8,0.1-1.1,0.5c-0.2,0.3-0.3,0.5-0.3,0.8c0,0,0.1,0.3,0.2,0.7
					c0.2,0.5,0.6,0.7,1.1,0.7c0.5,0,0.9-0.1,1.1-0.5c0.2-0.2,0.3-0.5,0.3-0.8C174,264.7,173.6,264.2,172.7,264.1z"/>
				<path fill="#FDDB00" d="M130.8,54c-3,4.3-5.2,9.7-6.7,16.1c4.6-3.3,10.4-4.7,17.4-4.1c1.5,0.1,3.3,0.4,5.5,1
					c2.2,0.6,4.8,1,7.9,1.2c5,0.4,9.2-0.4,12.6-2.4c1-0.6,2-1.3,2.8-2.2c0.4-0.4,0.8-0.8,1.2-1.2c0.2,0.1,0.4,0.1,0.4,0.2
					c0.2,0.1,0.2,0.3,0.2,0.6c0,0.5-0.5,1.1-1.3,1.9c-0.9,0.8-2.1,1.6-3.6,2.3c-1.1,0.5-2.3,1-3.5,1.3c0.6,1.9,1.4,3.6,2.3,5.2
					c2.4,4.3,5.6,7.4,9.6,9.3c1.4,0.7,3,1.2,4.7,1.6l0,0c0.1,0,0.1,0,0.1,0c0.2,0,0.3,0.1,0.5,0.1c0.3,0,0.6,0,0.8,0
					c6.3,13.1,10.3,26.9,11.8,41.4c0.8,7.6,1,15.2,0.6,22.8c-0.3,4.5-0.8,8.8-1.7,13.1c5.4-3.8,10.4-7.7,14.8-11.5
					c6-5.1,10.8-11.3,14.6-18.4c3.7-7.1,4.1-17.3,1-30.5c-3.1-13.2-10.2-26.8-21.5-40.7c-11.3-13.9-23.7-21.3-37.3-21.9
					c7.7,0.2,7,0.1-2.1-0.2c-9.1-0.3-17.2,2.2-24.2,7.5C135.2,48.5,132.8,51,130.8,54z"/>
				<path fill="#FDDB00" d="M118.9,78.7c-0.2,0.3-0.3,0.7-0.4,1c-0.6,1.8-1,2.9-1.1,3c-0.3,0.1-0.4,0.1-0.6,0.2
					c-0.4-0.5-0.6-1-0.6-1.4c0.1-1.1,0.6-2.4,1.4-4c1.1-2.1,2.5-3.9,4.3-5.5c0.4-0.3,0.7-0.7,1.1-1c0.7-2.7,1.6-5.8,2.8-9.3
					c1-2.9,2.2-5.5,3.6-7.8c1.9-3.1,4.2-5.8,6.8-8c-2.9,1.3-5.4,3-7.7,5.2c-0.9,0.8-1.7,1.6-2.4,2.5c-1.6,1.8-2.9,3.8-4.1,5.9
					c-1.6,2.9-3.1,6-4.2,9.3c-0.5,1.2-0.9,2.5-1.3,3.7c-0.5,1.7-0.8,3.5-1.1,5.3c-0.3,2.2-0.2,4.3,0.3,6.4c0.3,1.2,1.1,2,2.3,2.2
					c0.8,0.2,1.5,0.2,2.2,0.1c-0.3-1.8-0.7-3.8-1.1-5.9C119,79.9,119,79.3,118.9,78.7z"/>
				<path fill="#FDCF9D" d="M176.9,169.9c4.1-2.1,7.8-4.7,11.2-7.8c1.3-1.2,2.5-2.4,3.8-3.6c0.1-0.8,0.2-1.6,0.3-2.4
					c0.9-8.1,1.1-16.2,0.6-24.4c-0.5-8.6-2.1-17.8-4.9-27.8c-1.6-5.8-3.8-11.6-6.6-17.2c-2-0.4-3.9-0.9-5.7-1.7
					c-4-1.8-7.2-4.6-9.8-8.6c-1.4-2.2-2.5-4.5-3.3-7c0-0.1,0-0.1-0.1-0.2c-2.4,0.5-4.9,0.7-7.6,0.5c-3.5-0.3-6.2-0.7-8.2-1.3
					c-2.1-0.6-3.7-0.9-5.1-1c-8.8-0.7-15.4,1.5-19.7,6.7c-0.6,0.7-1.1,1.5-1.6,2.3c0,0.3,0.1,0.6,0.1,1c0.4,3.5,4.7,24.5,5,25.4
					c0.8,2.5,1.7,5,2.5,7.4c0.5,1.6,1.1,3.3,1.6,4.9c3.4,10.2,7.1,20.2,11.2,30c2.4,5.6,5.5,10.8,9.4,15.5c1.9,2.3,4.1,4.3,6.5,6
					c3.6,2.5,7.5,4,11.9,4.5C171.3,171.7,174.1,171.2,176.9,169.9z M182.4,150c-0.2-0.8-0.2-1.3-0.2-1.3c0-0.2,0.1-0.4,0.4-0.5
					c0.5,1.4,0.8,2.2,0.8,2.4c0,0.2,0,0.8-0.1,1.9c-0.1,1.2-0.2,1.9-0.3,2.1c-0.2,0.5-0.7,1.3-1.7,2.3c-0.2-0.1-0.3-0.3-0.3-0.5
					c0,0,0.2-0.5,0.7-1.4c0.5-1,0.8-1.8,0.8-2.6C182.6,151.6,182.6,150.9,182.4,150z M137.3,121.6c-0.7-0.1-1.3-3.6-2.1-10.8
					c0-0.1,0-0.3,0-0.4c-0.4-3.7-0.7-7.4-0.8-11.1c0-0.4,0.1-0.7,0.1-0.8c0.1-0.1,0.3-0.2,0.6-0.2c0.2,0,0.5,0.9,0.6,2.5
					c0.1,0.6,0.2,2.6,0.4,5.9c0.1,1.5,0.2,2.9,0.3,4.1c0.2,2.2,0.4,4.1,0.7,5.6c0.1,0.1,0.1,0.3,0.3,0.5c0,0-0.1,0.1-0.1,0.1l-0.1,0
					c0.2,1.2,0.4,2.1,0.7,2.9c0.5-0.1,1.2-0.5,2.1-1.3c0.9-0.8,1.5-1.2,1.8-1.3c0.1,0,0.3,0.1,0.4,0.2c0.2,0.1,0.1,0.4-0.1,0.8
					c-0.2,0.4-1,1-2.1,1.9C138.9,121.3,137.9,121.6,137.3,121.6z M155.3,164c-2.9-1.8-5.3-4.1-7.4-6.8c-2.1-2.8-3.9-5.9-5.1-9.2
					c-0.7-1.7-1.4-3.5-2.1-5.2c-0.9-2.4-1.1-4.7-0.5-7c1.1-2.1,2.5-4,4.2-5.5c2.6-2.4,5.6-4.3,8.8-5.7c3.2-1.4,6.5-1.6,9.9-0.7
					c3.6,1,6.5,3.1,8.7,6.2c1.7,2.4,3.3,5,4.6,7.7c0,0,0.1,0,0.1,0c0,0.1,0,0.2,0.1,0.3c0,0,0,0,0,0c0.1,0.2,0.2,0.4,0.3,0.6
					c1.5,3.2,2.7,6.5,3.6,9.9c0.2,0.8,0.3,1.6,0.4,2.4c0,2.9-1.1,5.4-3.3,7.4c-1.1,1-2.3,2-3.4,2.9c-2.8,2.1-5.8,3.6-9,4.4
					C161.6,166.5,158.4,166,155.3,164z"/>
				<path d="M142.2,118.5c0.2-0.4,0.3-0.7,0.1-0.8c-0.2-0.1-0.3-0.2-0.4-0.2c-0.3,0.1-0.9,0.5-1.8,1.3c-0.9,0.8-1.6,1.2-2.1,1.3
					c-0.2-0.8-0.5-1.7-0.7-2.9c0-0.1,0-0.3-0.1-0.4c0,0.1,0.1,0.2,0.2,0.4c0-0.1,0-0.1,0.1-0.1c-0.1-0.2-0.2-0.4-0.3-0.5
					c-0.3-1.6-0.5-3.4-0.7-5.6c-0.1-1.3-0.2-2.7-0.3-4.1c-0.2-3.3-0.4-5.3-0.4-5.9c-0.1-1.6-0.4-2.5-0.6-2.5c-0.3,0-0.5,0-0.6,0.2
					c-0.1,0.1-0.1,0.3-0.1,0.8c0.1,3.7,0.4,7.4,0.8,11.1c0,0.1,0,0.3,0,0.4c0.7,7.1,1.4,10.7,2.1,10.8c0.6,0,1.6-0.3,2.8-1.2
					C141.3,119.6,142,118.9,142.2,118.5z"/>
				<path d="M177.6,158.3c2.2-2,3.3-4.5,3.3-7.4c0-0.8-0.1-1.6-0.4-2.4c-0.9-3.4-2.2-6.7-3.6-9.9c-0.1-0.2-0.2-0.4-0.3-0.6
					c0,0,0,0,0,0c0-0.1,0-0.2-0.1-0.3c0,0-0.1,0-0.1,0c-1.3-2.7-2.9-5.3-4.6-7.7c-2.2-3.1-5.1-5.1-8.7-6.2c-3.4-1-6.6-0.7-9.9,0.7
					c-3.2,1.4-6.1,3.3-8.8,5.7c-1.7,1.5-3.2,3.4-4.2,5.5c-0.6,2.3-0.5,4.7,0.5,7c0.7,1.8,1.4,3.5,2.1,5.2c1.3,3.3,3,6.4,5.1,9.2
					c2.1,2.7,4.5,5,7.4,6.8c3.1,2,6.4,2.5,9.9,1.6c3.3-0.8,6.3-2.3,9-4.4C175.3,160.2,176.5,159.3,177.6,158.3z M177.1,157
					c-0.4,0.4-0.8,0.8-1.3,1.2c-0.4-0.7-0.7-1.5-1.1-2.4c0.8-0.3,1.6-0.7,2.3-1.1c0.7-0.3,1.4-0.7,2.1-1
					C178.7,155,178,156.1,177.1,157z M159.9,124.9c1.2,0.1,2.4,0.3,3.6,0.7c0.6,0.2,1.2,0.4,1.8,0.7c-2,0.9-4.2,1.9-6.5,2.9
					c-0.6-1.3-1.2-2.6-1.9-4.2C157.8,124.9,158.8,124.9,159.9,124.9z M150,127.4c1.9-1.2,3.8-1.9,5.9-2.3c0.7,1.4,1.4,2.9,2.1,4.4
					c-1.9,0.8-3.8,1.7-5.9,2.7c-0.6-1.4-1.4-2.9-2.2-4.8C149.9,127.5,149.9,127.5,150,127.4z M149,128c0.7,1.5,1.4,3,2.1,4.6
					c-1.8,0.8-3.6,1.7-5.5,2.5c-0.2-0.5-0.4-1-0.6-1.5c-0.2-0.4-0.4-0.9-0.7-1.5C145.7,130.6,147.3,129.2,149,128z M142.3,134.6
					c0.5-0.7,0.9-1.2,1.5-1.8c0.4,0.9,0.8,1.8,1.3,2.7c-1.2,0.5-2.4,1.1-3.7,1.7C141.4,136.2,141.7,135.4,142.3,134.6z M149.4,148.5
					c-0.7,1.4-1.1,3.5-1.3,6.1c0,0.2,0,0.4,0,0.5c-0.6-1-1.2-2-1.8-3c-1.6-3-2.9-6.1-4.1-9.3c-0.5-1.5-0.8-3-0.9-4.5
					c5.7-2.6,11.4-5.2,17-7.8c0,0,0,0,0,0c0,0,0.1-0.1,0.1-0.1c0.5-0.2,1-0.4,1.4-0.7c2.4-1.1,4.5-2.1,6.5-3c2,1.1,3.7,2.6,5,4.6
					c1.3,1.8,2.4,3.7,3.5,5.6c-0.8-0.3-1.7-0.4-2.6-0.5c-5.4-0.4-9.2,1-11.5,4.3c-0.7,1-1.2,2.1-1.6,3.4c-0.5-0.2-1.2-0.3-2-0.4
					C153.5,143.7,150.9,145.2,149.4,148.5z M151.6,159.5c-0.8-0.9-1.6-1.7-2.3-2.6c0-0.5,0.1-1.2,0.1-2.2c0-0.1,0-0.7,0.1-1.8
					c0.1-1.2,0.5-2.3,0.9-3.3c1.4-3,4.1-4.3,8.1-4c0.1,0,0.2,0.1,0.4,0.2c0,0,0.1,0,0.1,0c-0.1,0.6-0.2,1.1-0.2,1.7
					c-0.1,0.7-0.2,1.3-0.2,1.9c0,1.2,0.3,1.9,0.8,1.9c0.3,0,0.5,0,0.6-0.1c0-0.1,0.1-0.2,0.2-0.3c0-5.2,1.2-8.6,3.3-10.5
					c2.1-1.8,5.7-2.5,10.9-2.1c0.2,0,0.5,0.2,1.1,0.6c0.2,0.1,0.4,0.2,0.6,0.4c0.1,0.2,0.2,0.4,0.3,0.5c1,2.1,1.8,4.1,2.4,6.2
					c0.5,1.5,0.8,3.1,0.8,4.6c0,0.7,0,1.3-0.1,1.9c-6.3,2.9-14,6.4-23.1,10.5C154.6,162.1,153,160.9,151.6,159.5z M160.6,164.6
					c-1-0.2-2-0.5-2.9-0.9c1.4-0.6,2.8-1.2,4.1-1.8c0.5,0.9,0.9,1.9,1.4,2.9C162.3,164.8,161.5,164.7,160.6,164.6z M168.4,163
					c-1.2,0.5-2.5,1-3.8,1.4c-0.2,0.1-0.4,0.1-0.6,0.2c-0.4-0.9-0.8-1.9-1.4-3.2c1.7-0.7,3.3-1.5,5-2.3c0.5,1.1,1.1,2.3,1.6,3.5
					C169,162.7,168.7,162.9,168.4,163z M168.5,158.8c1.8-0.8,3.6-1.7,5.4-2.5c0.4,0.9,0.8,1.7,1.2,2.6c-1.5,1.3-3.2,2.4-5,3.3
					C169.6,161.2,169.1,160,168.5,158.8z"/>
				<path fill="#FFFFFF" d="M165.2,126.3c-0.6-0.3-1.2-0.5-1.8-0.7c-1.2-0.4-2.4-0.6-3.6-0.7c-1.1-0.1-2.1,0-3.1,0.1
					c0.7,1.5,1.4,2.9,1.9,4.2C161,128.2,163.2,127.2,165.2,126.3z"/>
				<path fill="#7D2717" d="M157.2,144c0.9,0.1,1.6,0.2,2,0.4c0.4-1.3,0.9-2.4,1.6-3.4c2.3-3.3,6.1-4.7,11.5-4.3
					c0.9,0.1,1.7,0.2,2.6,0.5c-1-1.9-2.2-3.8-3.5-5.6c-1.4-2-3.1-3.5-5-4.6c-2,0.9-4.2,1.9-6.5,3c-0.5,0.2-0.9,0.4-1.4,0.7
					c0,0-0.1,0.1-0.1,0.1c0,0,0,0,0,0c-5.6,2.6-11.3,5.2-17,7.8c0,1.5,0.3,3,0.9,4.5c1.2,3.1,2.5,6.2,4.1,9.3c0.5,1,1.1,2,1.8,3
					c0-0.2,0-0.4,0-0.5c0.2-2.6,0.6-4.6,1.3-6.1C150.9,145.2,153.5,143.7,157.2,144z"/>
				<path fill="#EB1F24" d="M179.5,150.6c-0.1-1.6-0.4-3.1-0.8-4.6c-0.7-2.1-1.5-4.2-2.4-6.2c-0.1-0.2-0.2-0.4-0.3-0.5
					c-0.2-0.1-0.4-0.2-0.6-0.4c-0.6-0.4-1-0.6-1.1-0.6c-5.2-0.4-8.8,0.3-10.9,2.1c-2.1,1.8-3.2,5.3-3.3,10.5
					c-0.1,0.2-0.1,0.3-0.2,0.3c-0.1,0.1-0.3,0.2-0.6,0.1c-0.5,0-0.8-0.7-0.8-1.9c0-0.6,0.1-1.3,0.2-1.9c0-0.6,0.1-1.2,0.2-1.7
					c0,0,0,0-0.1,0c-0.2-0.2-0.3-0.2-0.4-0.2c-4-0.3-6.6,1-8.1,4c-0.5,1-0.8,2.1-0.9,3.3c-0.1,1.1-0.1,1.7-0.1,1.8
					c-0.1,1-0.1,1.7-0.1,2.2c0.7,0.9,1.5,1.8,2.3,2.6c1.4,1.5,3,2.7,4.8,3.6c9.1-4.2,16.8-7.6,23.1-10.5
					C179.5,151.9,179.6,151.3,179.5,150.6z"/>
				<path fill="#FFFFFF" d="M174.7,155.9c0.4,0.9,0.8,1.7,1.1,2.4c0.4-0.4,0.9-0.8,1.3-1.2c0.9-1,1.6-2,2-3.2
					c-0.7,0.3-1.4,0.6-2.1,1C176.3,155.2,175.5,155.5,174.7,155.9z"/>
				<path fill="#FFFFFF" d="M173.9,156.3c-1.8,0.8-3.6,1.6-5.4,2.5c0.6,1.3,1.1,2.4,1.6,3.5c1.8-0.9,3.5-2,5-3.3
					C174.7,158,174.3,157.1,173.9,156.3z"/>
				<path fill="#FFFFFF" d="M157.7,163.6c0.9,0.4,1.9,0.7,2.9,0.9c0.9,0.2,1.8,0.2,2.6,0.1c-0.5-1-0.9-2-1.4-2.9
					C160.4,162.4,159.1,163,157.7,163.6z"/>
				<path fill="#FFFFFF" d="M162.6,161.4c0.6,1.3,1,2.3,1.4,3.2c0.2,0,0.4-0.1,0.6-0.2c1.3-0.4,2.6-0.9,3.8-1.4
					c0.3-0.1,0.5-0.2,0.8-0.4c-0.6-1.2-1.1-2.3-1.6-3.5C165.9,159.9,164.3,160.7,162.6,161.4z"/>
				<path d="M181.1,156.4c0,0.2,0.1,0.4,0.3,0.5c0.9-1,1.4-1.8,1.7-2.3c0.1-0.2,0.2-0.9,0.3-2.1c0.1-1.1,0.1-1.7,0.1-1.9
					c0-0.2-0.3-1-0.8-2.4c-0.2,0.1-0.4,0.4-0.4,0.5c0,0,0.1,0.5,0.2,1.3c0.2,0.8,0.2,1.6,0.2,2.3c-0.1,0.8-0.3,1.7-0.8,2.6
					C181.3,155.9,181.1,156.4,181.1,156.4z"/>
				<path fill="#FDDB00" d="M146.7,159.2c-2-2.7-3.7-5.5-5.2-8.4c-0.5-1-1-2-1.4-2.9c0.2,4,0.1,7.8-0.2,11.5
					c-0.2,2.3-0.3,3.8-0.4,4.3c-0.3,2.1-0.7,4-1.1,5.7c3.5-0.9,7.2-3.2,11.1-6.7l0,0C148.6,161.4,147.6,160.3,146.7,159.2z"/>
				<path fill="#FFFBD4" d="M164,172c0,0.2-0.1,0.4-0.1,0.7c-0.1,0.8,0.2,1.7,0.8,2.4c0.4,0.6,1.1,1,1.8,1.4
					c0.8-1.1,1.8-2.3,2.8-3.6C167.5,172.9,165.7,172.6,164,172z"/>
				<path fill="#C272AD" d="M168,274.4c0.3-9.7,0.2-20-0.3-31c-0.5-11-0.8-19.9-0.8-26.4c-0.1-6.6,0.6-15.7,2.1-27.4
					c0.8-6.4,1.4-12,2-16.6c0,0.1-0.1,0.1-0.1,0.1c-1.3,1.7-2.5,3.2-3.6,4.6c0,0-0.1,0-0.1,0c-0.1,0.2-0.2,0.5-0.2,0.7
					c-0.7-0.2-1.3-0.4-1.8-0.7c-0.8,8.3-1.6,16.4-2.4,24.2c-0.8,8.1-1.1,16.2-0.8,24.2c0,0.1,0.1,0.2,0.2,0.3
					c-0.1,0.4-0.1,1-0.1,1.5l0,0.4c0,0.6,0,1.2,0.1,1.8c0.6,9.3,0.8,20.2,0.8,32.7c0,8.2,0,14.6,0,19.1c1.5,0.6,3.2,1.1,4.9,1.6
					C167.9,280.5,167.9,277.6,168,274.4z"/>
				<path fill="#C272AD" d="M161.1,231.6c-0.1-1.6-0.1-3.1-0.2-4.6c-1.7-3.2-2.9-5.7-3.7-7.4c-1.4-2.8-2-4.5-2-5.1
					c0-0.4,1.9-4.6,5.4-12.4c0.3-0.6,0.6-1.2,0.8-1.7c0.3-3.7,0.8-7.7,1.3-12.2c0.5-4.2,1-7.9,1.4-11.4c-0.3-0.3-0.6-0.6-0.8-0.9
					c-1.4,1.9-3,4.4-4.9,7.4c-2.3,3.6-4.3,6.9-6.2,9.9c-1.8,3-3.5,5.9-5.1,8.7c-1.8,3.2-2.9,6.5-3.3,10.1c-0.2,1.7,0,3.3,0.5,5
					c1.2,3.4,2.7,6.6,4.6,9.7c1.7,2.7,3.3,5.4,4.9,8.1c0.3,0.5,0.5,0.9,0.8,1.4C156.8,235,158.9,233.5,161.1,231.6z"/>
				<path fill="#FFFBD4" d="M186.2,165.3c-1.6,1.2-3.3,2.4-4.9,3.6c-2.5,1.8-5.1,3-8,3.6c1.2,0.8,2.8,1.9,4.7,3.1
					c3.8-1.6,7.8-4.4,12.1-8.4c1.6-1.4,3-3,4.5-4.6c-0.8,0.6-1.6,1.2-2.4,1.8c0,0,0,0,0,0c-0.3,0.1-0.5,0.3-0.7,0.6
					c-0.1,0.1-0.1,0.1-0.1,0.2c-0.2,0-0.4,0-0.6,0.1c0.3-1.5,0.6-2.9,0.9-4.4C189.8,162.5,188.1,164,186.2,165.3z"/>
				<path fill="#FDCF9D" d="M161.4,242c-1,0.6-2.1,1.2-3,1.6l0,0.1l0,0l0,0.1c0,0,0,0.1,0,0.1c0.9,1.9,1.4,4,1.5,6.1
					c0,1-0.2,1.9-0.7,2.7c-0.8,1.3-2,1.6-3.6,1c0-0.4,0.3-0.8,1-0.9c1-0.3,1.7-0.8,2-1.7c-0.5,0-1.1,0-1.6,0
					c-1.6-0.1-2.7-0.4-3.3-0.9c-0.3-0.2-0.5-0.4-0.6-0.5c-0.2-0.1-0.4-0.2-0.6-0.2c-0.6,0-1,0.2-1.1,0.8c-0.1,0.3-0.1,0.6-0.1,0.9
					c-0.3,3.7,2,5.8,6.9,6.2c1.4,0.1,2.6,0,3.8-0.5c-0.1-4.7-0.2-9.6-0.4-14.6L161.4,242z"/>
				<path fill="#FFFBD4" d="M161.1,233.5c-2.1,1.7-4,3-5.8,4.1c0.9,1.5,1.7,3.1,2.4,4.7c1.2-0.6,2.4-1.2,3.6-2
					C161.3,237.9,161.2,235.6,161.1,233.5z"/>
				<path fill="#FFFFFF" d="M167.8,285c-1.7-0.5-3.3-1.1-4.9-1.8c0,1.7,0,3,0,4.1c0,0.5,0,1,0,1.5c1.5,0.6,3.2,1.2,4.9,1.7
					C167.9,288.7,167.9,286.9,167.8,285z"/>
				<path fill="#FFFFFF" d="M223.1,288.8c-10,1-20,1.1-30.1,0.3c-8.8-0.7-16-1.7-21.6-3.1c-0.7-0.2-1.5-0.4-2.2-0.6
					c0,1.3,0,2.4,0,3.2c0,0.8,0,1.5,0,2.2c6.8,1.9,15,3.2,24.6,4c12,0.9,24.8,0.4,38.4-1.5c11.4-1.6,22.5-4,33.1-7.3
					c4.1-1.2,8.2-3,12.3-5.2c0-1.8-0.1-3.8-0.1-6c-4.8,2.7-9.1,4.6-12.8,5.7C249.8,284.7,235.9,287.5,223.1,288.8z"/>
				<path fill="#F186B6" d="M269.9,308.2c0.1-4.7,0.4-10.5,0.9-17.3c0.1-2,0.2-3.8,0.3-5.5c-2.1,0.9-4.1,1.7-5.9,2.2
					c-14.9,4.3-28.7,7.1-41.6,8.4c-10,1-20,1.1-30.1,0.3c-8.8-0.7-16-1.7-21.6-3.1c-1.3-0.3-2.5-0.7-3.7-1c-0.1,0.7-0.1,1.4-0.2,2.1
					c0,0.9,0,3.4-0.1,7.4c-0.1,3.9-0.2,6.7-0.3,8.3c-0.6,7.8-1.7,15.3-3.2,22.6c-1.3,6.2-3.1,12.9-5.3,20.1
					c-1.3,4.2-3.7,11.1-7,20.6c-0.8,2.3-1.6,4.5-2.3,6.6c1.9,1.4,4.2,1.8,6.8,1.2c3.4-0.8,6.4-0.1,9.2,2.1c0.3,0.2,0.5,0.5,0.7,0.7
					c0.5,0.8,1.1,1.6,1.6,2.3c0.3,0.3,0.6,0.6,0.9,0.9c2.9,1.9,6.1,2.6,9.6,2.1c2-0.3,4-0.1,5.8,0.6c2.8,1,5.4,2.3,7.8,4.2
					c1.6,1.2,3.4,1.9,5.5,2c1.1,0.1,2.3-0.1,3.3-0.5c2.7-1.1,5.6-1.4,8.5-0.9c0.6,0.1,2.2,0.7,4.8,1.9c2.6,1.2,4.7,1.5,6.6,0.9
					c1.8-0.6,3.1-1.3,4-2.2c0.8-0.9,2.3-1.2,4.4-1c0.7,0.1,1.3,0.3,1.8,0.6c2.7,1.8,5.6,2.4,8.8,1.9c0.5-0.1,0.9-0.2,1.4-0.5
					c2.9-1.5,5.9-2.2,9.2-2.1c1.3,0.1,3.5,0.7,6.7,1.9c3.2,1.2,5.8,1,7.7-0.7c0.9-0.6,2-1.3,3.4-2.1c1.3-0.8,2.7-1.2,4.1-1.4
					c0.7,0,1.4-0.1,2.3,0c-0.8-5.7-1.6-12.1-2.2-19c-0.9-9.9-1.5-15.9-1.5-18.1c-0.1-2.1-0.4-6.8-0.8-14.1
					c-0.4-7.3-0.6-13.4-0.5-18.5C269.7,317.1,269.8,312.4,269.9,308.2z"/>
				<path fill="#FFFBD4" d="M149.4,381.1c0,0.1,0,0.1,0,0.1l0.5,0.2C149.6,381.3,149.5,381.2,149.4,381.1z"/>
				<path fill="#FFFFFF" d="M268.3,395.1c-1.3,1.1-2.7,1.9-4.3,2.6c-1.5,0.6-3.5,0.5-6-0.1c-0.7-0.1-1.3-0.3-2-0.6
					c-2.8-1.3-5.8-1.7-8.8-1.4c-1,0.2-2,0.5-2.9,1c-3.2,1.7-6.5,2-10,1.1c-0.6-0.2-1.2-0.4-1.7-0.7c-1.5-0.9-3-1.4-4.7-1.5
					c-0.6,0-2.2,0.9-4.8,2.6c-2.6,1.7-7.4,1-14.4-2.1c-0.3,0-0.5-0.1-0.8-0.1c-1.5-0.2-2.8,0-4.2,0.5c-1,0.4-1.9,0.6-2.9,0.8
					c-1.7,0.3-3.5,0.3-5.1-0.2c-2.5-0.7-4.9-1.8-7-3.3c-1.7-1.2-3.4-2.1-5.4-2.6c-0.7-0.2-1.4-0.3-2.1-0.3c-2.3,0.1-4.5,0.1-6.8-0.1
					c-3.7-0.3-6-1.3-6.9-2.8c-0.9-1.6-2.3-3-4.1-4.3c-1.8-1.3-4-1.7-6.8-1.1c-2.8,0.6-5.1,0.3-7-0.9l-0.5-0.2
					c-0.8,2.3-1.5,4.5-2.2,6.5c6,4.3,14.1,8.1,24.3,11.4c11.8,3.8,29,6.3,51.6,7.6c7.7,0.5,15.4,0.7,23.1,0.6
					c9.1-0.2,18.3-1.6,27.6-4.3c0.9-0.3,1.8-0.5,2.7-0.8c-0.2-1.1-0.4-2.3-0.6-3.4c-0.3-1.8-0.6-3.7-0.9-5.7c-0.8,0-1.5,0-2.3,0.1
					C271,393.4,269.5,394,268.3,395.1z"/>
				<path d="M227.8,430c-1.3-0.9-2.3-1.4-2.8-1.5c-0.4,0-0.7-0.1-0.8,0c-0.2,0-0.3,0.2-0.3,0.5c0,0.5,0,0.6,0,0.4
					c2.9,1.9,4.6,2.9,5,2.9c0.4,0,0.7-0.1,0.6-0.2c0.1-0.3,0.1-0.5,0.1-0.6C229.6,431.4,229,430.9,227.8,430z"/>
				<path fill="#A46728" d="M247.7,429.8c0-0.9-0.3-1.9-0.9-3c-0.5-0.9-1-1.5-1.7-2c0,0.2,0.1,0.3,0.1,0.5c0.1,0.6,0.3,1.1,0.4,1.7
					c-0.3,0.1-0.5,0.2-0.8,0.3c0,0,0,0.1,0,0.1c-1.7,0.6-3.8,0.7-6.3,0.6c-3.7-0.3-6.6-0.9-8.4-1.8c-0.6,0.3-1.3,0.6-2,0.9l0,0.1
					c0.7,0.1,1.6,0.5,2.7,1.3c1.2,0.9,1.9,1.6,2,2.2c-0.1,0.2-0.4,0.3-0.8,0.3c-0.5,0-1.4-0.5-2.7-1.3c-1.3-0.8-2-1.4-2.2-1.8
					c0.2-0.3,0.4-0.5,0.6-0.7c-0.2,0.1-0.5,0.2-0.8,0.3c-0.8,0.3-1.8,0.5-3,0.9c-0.9,0.2-1.9,0.5-3,0.7c0.9,0.2,2.6,1.7,5.4,4.2
					c-0.1,0.2-0.3,0.4-0.4,0.6c-0.1,0.1-0.3,0.2-0.6,0.2c-1-0.1-2.1-0.8-3.5-2.2c-1.2-1.2-1.8-1.9-1.7-2.1c0-0.2,0-0.4,0.1-0.5
					c-0.1,0-0.1,0-0.2,0c-0.7,0.1-1.3,0.3-2,0.4c-4.3,0.9-7.2,1.7-8.8,2.5c-0.9,0.4-1.7,0.9-2.3,1.5c0,0,0,0.1,0,0.1
					c-0.1,1,0,1.9,0.2,2.7c0.8,2.3,3.4,3.7,7.7,4c6.7,0.5,15.7-1.4,27.1-5.7c1.6-0.6,3.5-1.4,5.5-2.3c0-0.1,0-0.2,0-0.2
					C247.7,431.2,247.8,430.4,247.7,429.8z M228.9,432.4c-0.5,0-2.1-1-5-2.9c0,0.2-0.1,0.1,0-0.4c0-0.3,0.1-0.5,0.3-0.5
					c0.1,0,0.4,0,0.8,0c0.5,0,1.5,0.5,2.8,1.5c1.3,0.9,1.9,1.4,1.9,1.6c0,0.1-0.1,0.4-0.1,0.6C229.5,432.3,229.3,432.4,228.9,432.4z
					"/>
				<path fill="#FDCF9D" d="M232.4,409.4c0,0.7-0.1,1.6-0.1,2.6c0,0.5,0,1,0,1.5c1.2,0.2,2.5,0.3,3.9,0.4c2.6,0.2,5,0.2,7.3,0.1
					c0-0.4,0.1-0.8,0.1-1.1c0.1-1.7,0.3-3,0.4-4c-3.9,0-7.7-0.1-11.6-0.2C232.4,408.9,232.4,409.2,232.4,409.4z"/>
				<path fill="#EB1F24" d="M243.3,417.2c0.1-0.7,0.1-1.3,0.1-1.7c-2.3,0.1-4.8,0.1-7.5-0.1c-1.3-0.1-2.5-0.2-3.6-0.3
					c0,0.6,0,1.1,0,1.7c1.1,0.1,2.3,0.3,3.6,0.4C238.6,417.4,241,417.4,243.3,417.2z"/>
				<path fill="#FFFBD4" d="M238.6,426.4c2,0.2,3.8,0,5.2-0.3c0-0.2-0.1-0.3-0.1-0.5c-0.4-2.1-0.5-4.3-0.5-6.8
					c-2.3,0.1-4.9,0.1-7.5-0.1c-1.2-0.1-2.4-0.2-3.4-0.3c-0.2,1.8-0.4,4-0.9,6.6C233.3,425.7,235.7,426.2,238.6,426.4z"/>
				<path fill="#7D2717" d="M247.4,433.8c-1.9,0.7-3.5,1.4-4.9,2c-4.1,1.7-8.3,3.1-12.6,4.2c-6.1,1.6-11.1,2.3-15,2
					c-5.2-0.4-8.3-2.1-9.3-5.1c-0.1-0.4-0.2-0.7-0.2-1.1c-0.1,0.3-0.2,0.7-0.3,1c0,0,0,0,0,0c0,0.1,0,0.3,0,0.4
					c-0.1,0.8-0.1,1.3-0.1,1.6c0.1,0.7,0.4,1.3,0.8,1.9c1.4,1.5,4.4,2.5,9.2,2.8c3.5,0.3,8.1-0.3,13.7-1.7c2.9-0.7,6-1.6,9.3-2.7
					c4.7-1.1,7.5-2,8.4-2.8c0.4-0.4,0.7-0.9,0.8-1.6C247.4,434.4,247.4,434.1,247.4,433.8z"/>
				<path fill="#FFFBD4" d="M182.4,412.2c2,0.2,3.8,0,5.2-0.3c0-0.2-0.1-0.3-0.1-0.5c-0.4-2.1-0.5-4.3-0.5-6.8
					c-2.3,0.1-4.9,0.1-7.5-0.1c-1.2-0.1-2.4-0.2-3.4-0.3c-0.2,1.8-0.4,4-0.9,6.6C177.2,411.5,179.6,412,182.4,412.2z"/>
				<path d="M171.6,415.7c-1.3-0.9-2.3-1.4-2.8-1.5c-0.4,0-0.7-0.1-0.8,0c-0.2,0-0.3,0.2-0.3,0.5c0,0.5,0,0.6,0,0.4
					c2.9,1.9,4.6,2.9,5,2.9c0.4,0,0.7-0.1,0.6-0.2c0.1-0.3,0.1-0.5,0.1-0.6C173.5,417.2,172.9,416.6,171.6,415.7z"/>
				<path fill="#A46728" d="M191.6,415.5c0-0.9-0.3-1.9-0.9-3c-0.5-0.9-1-1.5-1.7-2c0,0.2,0.1,0.3,0.1,0.5c0.1,0.6,0.3,1.1,0.4,1.7
					c-0.3,0.1-0.5,0.2-0.8,0.3c0,0,0,0.1,0,0.1c-1.7,0.6-3.8,0.7-6.3,0.6c-3.7-0.3-6.6-0.9-8.4-1.8c-0.6,0.3-1.3,0.6-2,0.9l0,0.1
					c0.7,0.1,1.6,0.5,2.7,1.3c1.2,0.9,1.9,1.6,2,2.2c-0.1,0.2-0.4,0.3-0.8,0.3c-0.5,0-1.4-0.5-2.7-1.3c-1.3-0.8-2-1.4-2.2-1.8
					c0.2-0.3,0.4-0.5,0.6-0.7c-0.2,0.1-0.5,0.2-0.8,0.3c-0.8,0.3-1.8,0.5-3,0.9c-0.9,0.2-1.9,0.5-3,0.7c0.9,0.2,2.6,1.6,5.4,4.2
					c-0.1,0.2-0.3,0.3-0.4,0.6c-0.1,0.1-0.3,0.2-0.6,0.2c-1-0.1-2.1-0.8-3.5-2.2c-1.2-1.2-1.8-1.9-1.7-2.1c0-0.2,0-0.4,0.1-0.5
					c-0.1,0-0.1,0-0.2,0c-0.7,0.1-1.3,0.3-2,0.4c-4.3,0.9-7.2,1.7-8.8,2.5c-0.9,0.4-1.7,0.9-2.3,1.5c0,0,0,0.1,0,0.1
					c-0.1,1,0,1.9,0.2,2.7c0.8,2.4,3.4,3.7,7.7,4c6.7,0.5,15.7-1.4,27.1-5.8c1.6-0.6,3.5-1.4,5.5-2.2c0-0.1,0-0.2,0-0.2
					C191.6,416.9,191.6,416.1,191.6,415.5z M172.7,418.2c-0.5,0-2.1-1-5-2.9c0,0.2-0.1,0.1,0-0.4c0-0.3,0.1-0.5,0.3-0.5
					c0.1,0,0.4,0,0.8,0c0.5,0,1.5,0.5,2.8,1.5c1.3,0.9,1.9,1.4,1.9,1.6c0,0.1-0.1,0.4-0.1,0.6C173.4,418.1,173.2,418.2,172.7,418.2z
					"/>
				<path fill="#7D2717" d="M191.3,419.6c-1.9,0.7-3.5,1.4-4.9,2c-4.1,1.7-8.3,3.1-12.6,4.2c-6.1,1.6-11.1,2.3-15,2
					c-5.2-0.4-8.3-2.1-9.3-5.1c-0.1-0.4-0.2-0.7-0.2-1.1c-0.1,0.3-0.2,0.7-0.3,1c0,0,0,0,0,0c0,0.1,0,0.3,0,0.4
					c-0.1,0.8-0.1,1.4-0.1,1.6c0.1,0.7,0.4,1.3,0.8,1.9c1.4,1.5,4.4,2.5,9.2,2.8c3.5,0.3,8.1-0.3,13.7-1.7c2.9-0.7,6-1.6,9.3-2.7
					c4.7-1.1,7.5-2,8.4-2.8c0.4-0.4,0.7-0.9,0.8-1.6C191.3,420.2,191.3,419.9,191.3,419.6z"/>
				<path fill="#EB1F24" d="M179.9,402.7c-1.2-0.3-2.5-0.7-3.7-1c0,0.3,0,0.5,0,0.8c1.1,0.1,2.3,0.3,3.6,0.4L179.9,402.7z"/>
			</g>
			<g>
				<circle cx="124.8" cy="94.1" r="6.2"/>
				<path d="M137.7,89.2c0.1,0.9,0.3,1.8,0.6,2.6c0.3,0.6,0.6,1.2,1,1.8c0.4,0.6,0.9,1.1,1.5,1.6c0.1,0.1,0.3,0.3,0.5,0.4
					c0.4,0.3,0.7,0.5,1,0.7c1.5,0.8,3.1,1.1,4.9,1c0.6,0,1.2-0.1,1.7-0.3c1.7-0.5,3.1-1.4,4.2-2.8c0.5-0.6,0.9-1.1,1.2-1.8
					c0.2-0.4,0.3-0.7,0.5-1.1c0.1-0.3,0.2-0.5,0.2-0.8c0,0,0,0,0-0.1c0.2-0.8,0.2-1.7,0.1-2.7c-0.1-1.2-0.4-2.3-0.9-3.3
					c-0.1-0.3-0.3-0.5-0.4-0.7c-0.5-0.7-1.1-1.4-1.8-2c-1.2-1-2.4-1.6-3.8-1.9c-0.6-0.1-1.2-0.2-1.8-0.2c-0.3,0-0.5,0-0.8,0.1
					c-0.2,0-0.4,0-0.6,0.1c-0.1,0-0.2,0-0.3,0c-2,0.4-3.7,1.3-5.1,3c-0.1,0.1-0.3,0.3-0.4,0.5c-0.6,0.8-1,1.6-1.3,2.5
					C137.8,86.8,137.6,88,137.7,89.2z M147.7,80.8c1.4,0.2,2.7,0.8,3.9,1.7c1.6,1.4,2.5,3.1,2.7,5.2c0.1,0.9,0,1.7-0.2,2.6
					c-0.3,1.1-0.8,2.1-1.6,3c-1.3,1.6-3.1,2.5-5.2,2.6c-0.9,0.1-1.8,0-2.6-0.2c-1.1-0.3-2-0.8-3-1.6c-0.9-0.8-1.6-1.6-2.1-2.7
					c0-0.1-0.1-0.3-0.2-0.4c1.7-2.1,3.9-4.7,6.3-7.8C146.5,82.3,147.1,81.5,147.7,80.8z M140.8,83.4c1.4-1.6,3.1-2.5,5.2-2.6
					c0.2,0,0.5,0,0.8,0c-1.9,2.4-4.4,5.6-7.5,9.6c-0.1-0.4-0.2-0.9-0.2-1.3C138.9,86.9,139.4,85,140.8,83.4z"/>
				<path fill="#FFCD7B" d="M139.2,90.3c3.2-4,5.7-7.2,7.5-9.6c-0.3,0-0.5,0-0.8,0c-2.1,0.2-3.8,1.1-5.2,2.6
					c-1.4,1.6-1.9,3.5-1.8,5.6C139.1,89.4,139.1,89.9,139.2,90.3z"/>
				<path fill="#FFFFFF" d="M139.5,91.1c0.1,0.1,0.1,0.3,0.2,0.4c0.5,1,1.1,1.9,2.1,2.7c0.9,0.8,1.9,1.3,3,1.6
					c0.8,0.2,1.7,0.3,2.6,0.2c2.1-0.2,3.8-1.1,5.2-2.6c0.8-0.9,1.3-1.9,1.6-3c0.2-0.8,0.3-1.7,0.2-2.6c-0.2-2.1-1.1-3.8-2.7-5.2
					c-1.2-1-2.4-1.6-3.9-1.7c-0.6,0.7-1.2,1.6-1.9,2.5C143.3,86.4,141.2,89,139.5,91.1z"/>
				<path d="M142.9,89.6c0.1,0,0.1,0,0.1,0.1c-0.1-0.1-0.3-0.2-0.5-0.3c-0.6-0.2-1,0.1-1.2,0.7c0,0.2-0.1,0.4,0,0.5
					c0.1,0.4,0.3,0.6,0.7,0.7c0.3,0.1,0.6,0,0.8-0.2c0.2-0.1,0.3-0.3,0.4-0.5c0-0.2,0-0.4,0-0.6c0,0.1,0,0.1,0,0.2
					c-0.1,0.2-0.2,0.4-0.5,0.3c-0.2,0-0.3-0.1-0.3-0.3c0-0.1,0-0.2,0-0.2C142.4,89.6,142.6,89.5,142.9,89.6z"/>
				<path d="M130.4,97.3C130.4,97.3,130.4,97.3,130.4,97.3C130.4,97.3,130.4,97.3,130.4,97.3C130.4,97.3,130.4,97.3,130.4,97.3z"/>
				<path fill="#FFCD7B" d="M128.2,89.6c-1.1-0.9-2.3-1.4-3.8-1.3c-1.3,0.1-2.4,0.6-3.3,1.6c-0.1,0.1-0.1,0.1-0.2,0.2
					c0.1,0,0.1,0,0.2,0c3.7,1,6.7,1.9,8.9,2.5C129.8,91.5,129.2,90.4,128.2,89.6z"/>
				<path fill="#FFFFFF" d="M125.4,99.4c1.4-0.1,2.5-0.7,3.4-1.8c0-0.1,0.1-0.1,0.1-0.2c0.9-1.1,1.3-2.4,1.2-3.9l-9.6-2.7
					c-0.1,0.1-0.2,0.3-0.2,0.4c-0.4,0.9-0.6,1.9-0.5,3c0.1,1.6,0.7,2.8,1.9,3.9c0,0,0.1,0.1,0.1,0.1c0.1,0,0.1,0.1,0.2,0.2
					c0.4,0.3,0.8,0.5,1.1,0.7C123.8,99.3,124.6,99.4,125.4,99.4z"/>
				<path d="M125,95.4c0.3,0.1,0.6,0,0.9-0.2c0.2-0.1,0.4-0.4,0.4-0.6c0.1-0.3,0-0.6-0.1-0.8c0,0.1,0,0.1,0,0.2
					c-0.1,0.3-0.2,0.4-0.5,0.3c-0.2,0-0.3-0.2-0.3-0.3c0-0.1,0-0.2,0-0.2c0-0.3,0.2-0.4,0.5-0.3c0,0,0,0,0,0
					c-0.1-0.1-0.3-0.1-0.4-0.2c-0.7-0.2-1.1,0.1-1.3,0.8c0,0.2-0.1,0.4,0,0.6C124.3,95,124.6,95.3,125,95.4z"/>
			</g>
		</g>
		<path fill="none" d="M218.4,248.4c0-0.1,0-0.2,0-0.3L218.4,248.4C218.3,248.4,218.4,248.4,218.4,248.4z"/>
		<path d="M220.7,183.1c0.1,6.8-12.1,50.6-12.8,57.3c-0.2,1.6-0.3,3.2-0.5,4.9c-0.1,0.9-0.2,1.9-0.3,2.9c-0.6,0.4-1.1,0.8-1.7,1.2
			c-1.8,1.2-2.6,5.8-3.3,7.8c-0.3,0.9-0.5,1.8-0.5,2.8c0,1.6,0.4,3.1,1.2,4.5c0.6,0.1,1.1,0.1,1.7-0.2c0.7,2,2.1-0.4,3.9,0.4
			c0,1.5,5.7,4,6.3,0.5c0.2,0,1.4,0.6,1.8,0.5c0.9-0.2,1.6-0.6,2.2-1.2c1.9-1.8,2.4-5.2,1.7-10.1c-0.1-0.5-0.4-1.8-1-3.8
			c0-0.5,0.1-0.9,0.1-1.4c0.1-1.3,0.2-2.6,0.3-3.9c0.1-1.1,0.2-2.2,0.3-3.3c0.1-0.8,0.1-1.6,0.2-2.4c0.1-1.2,1.2-2.4,1.4-3.6
			c7.9-44.9,13.1-58.3,13.4-70.5"/>
		<path d="M233.3,167.4c0.1,6.8-14,71.1-14.4,75.7c-1.7-1.3-3.7-2.1-6-2.2c-1.3-0.1-2.5-0.1-3.7,0.1c0.6-8.5,12.9-54,13.1-62.5"/>
		<path d="M208.8,245.9c0.1-1.2,0.2-2.4,0.3-3.6c3.4-0.4,6.6,0.3,9.5,2.1c0.1,0,0.1,0.1,0.2,0.1c-0.1,1.2-0.2,2.4-0.3,3.6
			c0,0.1,0,0.2,0,0.3c0,0-0.1,0-0.1-0.1c-1.9-1.5-3.9-2.3-6.3-2.5C210.9,245.8,209.9,245.8,208.8,245.9z"/>
		<path d="M210.3,264.6c-1.7-1.9-0.9-1.4-1.3-4c-0.3-1.3-1.1-1.9-2.3-1.9c-0.7,0-1.2,0.2-1.7,0.7c-0.5,0.5-0.7,3.7-1.3,3.7
			c-0.3-1.1-0.6-1.9-0.8-2.6c-0.2-0.6-0.2-4.9,0.8-6.9c1-2,2.8-3.7,5.4-5.1c0.8-0.4,1.5-0.8,2.1-1.1c2.2,0.2,4.4,0.9,6.4,2.2
			c0.1,0,0.2,0.1,0.2,0.2c0.1,0.2,0.2,0.5,0.3,0.8c0.3,1.1,0.6,2.4,0.9,4.1c0.6,4,0.3,6.8-0.7,8.3c-0.5,0.8-1.4,1.2-2.6,1.5
			c0.2-1.2,0.3-2.4,0.3-3.6l-0.9-0.1C214.8,264.2,211.1,265.5,210.3,264.6z"/>
		<path fill="#C272AD" d="M222.8,177.4c-0.2,8.5-12.5,55-13.2,63.5c1.2-0.2,2.4-0.2,3.7-0.1c2.2,0.2,4.2,0.9,6,2.2
			c0.4-4.5,14.6-69.8,14.5-76.7"/>
		<path fill="#FFFBD4" d="M218.4,248.2c0.1-1.2,0.2-2.4,0.3-3.6c0,0-0.1-0.1-0.2-0.1c-2.9-1.8-6.1-2.5-9.5-2.1
			c-0.1,1.2-0.2,2.4-0.3,3.6c1-0.1,2.1-0.1,3.2,0c2.4,0.2,4.5,1,6.3,2.5L218.4,248.2z"/>
		<path fill="#FDCF9D" d="M215,262.7l1.1-1.9c0,1.2-0.2,2.4-0.3,3.6c1.2-0.3,2-0.8,2.6-1.5c1-1.5,1.3-4.3,0.7-8.3
			c-0.2-1.7-0.5-3.1-0.9-4.1c-0.1-0.3-0.2-0.5-0.3-0.8c-0.1-0.1-0.2-0.1-0.2-0.2c-2-1.3-4.2-2-6.4-2.2c-0.6,0.3-1.3,0.7-2.1,1.1
			c-2.6,1.4-4.3,3.1-5.4,5.1c-1,2-1,6.3-0.8,6.9c0.2,0.6,0.5,1.5,0.8,2.6c0.7,0,0.8-3.3,1.3-3.7c0.5-0.5-0.6,4.4,1.3,4.3
			c1.2,0,2.2-2.4,2.5-1.1c0.4,2.5,0.9,1.5,2.3,2.4C211.7,265.3,214.6,266.2,215,262.7z"/>
	</g>
</g>
<g id="Layer_14">
</g>
<g id="Layer_15">
</g>
<g id="Layer_16">
</g>
<g id="Layer_17">
</g>
<g id="Layer_18">
</g>
<g id="Layer_19">
</g>
<g id="Layer_20">
</g>
<g id="Layer_21">
</g>
<g id="Layer_22">
</g>
<g id="Layer_23">
</g>
<g id="Layer_24">
</g>
<g id="Layer_25">
</g>
<g id="Layer_26">
</g>
<g id="Layer_27">
</g>
<g id="Layer_28">
</g>
<g id="Layer_29">
</g>
<g id="Layer_30">
</g>
<g id="Layer_31">
</g>
<g id="Layer_32">
</g>
<g id="Layer_33">
</g>
<g id="Layer_34">
</g>
<g id="Layer_36">
</g>
<g id="Layer_35">
</g>
<g id="Layer_37">
</g>
<g id="Layer_38">
</g>
<g id="Layer_39">
</g>
<g id="Layer_40">
</g>
</svg>
