<?xml version="1.0" encoding="utf-8"?>
<!-- Generator: Adobe Illustrator 18.1.1, SVG Export Plug-In . SVG Version: 6.00 Build 0)  -->
<!DOCTYPE svg PUBLIC "-//W3C//DTD SVG 1.1//EN" "http://www.w3.org/Graphics/SVG/1.1/DTD/svg11.dtd">
<svg version="1.1" xmlns="http://www.w3.org/2000/svg" xmlns:xlink="http://www.w3.org/1999/xlink" x="0px" y="0px"
	 viewBox="0 0 393 483" enable-background="new 0 0 393 483" xml:space="preserve">
<g id="ziutek_x5F_01">
</g>
<g id="ziutek_x5F_02">
</g>
<g id="ziutek_x5F_03">
</g>
<g id="ziutek_x5F_04">
</g>
<g id="ziutek_x5F_05">
</g>
<g id="ziutek_x5F_06">
</g>
<g id="ziutek_x5F_07">
</g>
<g id="ziutek_x5F_08">
</g>
<g id="ziutek_x5F_09">
</g>
<g id="ziutek_x5F_10">
</g>
<g id="lady_x5F_01">
</g>
<g id="Layer_13">
</g>
<g id="Layer_12">
</g>
<g id="Layer_14">
</g>
<g id="Layer_15">
</g>
<g id="Layer_16">
</g>
<g id="Layer_17">
</g>
<g id="Layer_18">
</g>
<g id="Layer_19">
</g>
<g id="Layer_20">
</g>
<g id="Layer_21">
</g>
<g id="Layer_22">
</g>
<g id="Layer_23">
</g>
<g id="Layer_24">
</g>
<g id="Layer_25">
</g>
<g id="Layer_26">
</g>
<g id="Layer_27">
</g>
<g id="Layer_28">
</g>
<g id="Layer_29">
</g>
<g id="Layer_30">
</g>
<g id="Layer_31">
</g>
<g id="Layer_32">
</g>
<g id="Layer_33">
</g>
<g id="Layer_34">
</g>
<g id="Layer_36">
</g>
<g id="Layer_35">
</g>
<g id="Layer_37">
</g>
<g id="Layer_38">
</g>
<g id="Layer_39">
	<g>
		<g>
			<path fill-rule="evenodd" clip-rule="evenodd" fill="#FFFFFF" d="M108.9,146.9c-0.1-2.3,1-4.3,2.5-4.9c-0.1-1.1,0.1-2.2,0.6-3.1
				c0.8-1.4,2-2,3.2-1.6c1-2.5,3.3-3.6,5.2-2.5c1.1,0.7,1.9,1.9,2.3,3.4c0.3-0.2,0.5-0.3,0.8-0.5c2.6-1.1,5.3,0.9,6.1,4.4
				c0.8,3.5-0.7,7.2-3.3,8.3c-0.3,0.1-0.7,0.2-1,0.3c0,0.3-0.1,0.6-0.2,0.9c-0.4,1.5-1.4,2.6-2.6,2.7c0,0,0,0.1,0,0.1
				c-0.2,2.2-1.7,3.7-3.3,3.3c-1.1-0.2-2-1.3-2.3-2.7c-0.7,0.6-1.5,0.4-2.1-0.3c-0.6-0.7-0.7-1.9-0.3-2.8c-0.3-0.3-0.5-0.6-0.7-1.1
				c-0.4,0.2-0.8,0.4-1.3,0.4C110.7,151.5,109,149.5,108.9,146.9L108.9,146.9z"/>
			<g>
				<path fill-rule="evenodd" clip-rule="evenodd" d="M108.9,146.9c-0.1-2.4,1.1-4.5,2.8-5l0,0.4c-1.3,0.7-2.2,2.5-2.1,4.5
					c0.1,2.5,1.7,4.3,3.5,4.2c0.4,0,0.8-0.2,1.1-0.4c-0.5,0.4-1,0.6-1.6,0.7C110.7,151.5,109,149.5,108.9,146.9L108.9,146.9z"/>
				<path fill-rule="evenodd" clip-rule="evenodd" d="M113.7,150.2c-0.1-0.8,0-1.7,0.3-2.4c-0.2,0.6-0.2,1.3-0.1,2
					c0.1,0.8,0.4,1.4,0.9,1.9l-0.2,0.3C114.1,151.6,113.8,151,113.7,150.2L113.7,150.2z"/>
				<path fill-rule="evenodd" clip-rule="evenodd" d="M120.4,134.8c2.1,1.2,3.1,4.5,2.2,7.3c-0.3,0.9-0.7,1.6-1.2,2.1
					c0.3-0.4,0.5-0.9,0.7-1.5c0.8-2.7-0.1-5.8-2.1-6.9c-2-1.1-4.3,0.1-5.1,2.8c-0.2,0.6-0.3,1.2-0.3,1.8c0-0.9,0.1-1.8,0.3-2.6
					C115.9,134.9,118.3,133.6,120.4,134.8L120.4,134.8z"/>
				<path fill-rule="evenodd" clip-rule="evenodd" d="M129.6,142.1c0.8,3.5-0.7,7.2-3.3,8.3c-0.5,0.2-0.9,0.3-1.4,0.3l0-0.2
					c0.2,0,0.4-0.1,0.6-0.2c2.4-1,3.8-4.5,3.1-7.8c-0.7-3.3-3.3-5.2-5.8-4.2c-0.2,0.1-0.4,0.2-0.6,0.3l0-0.2
					c0.4-0.3,0.8-0.6,1.2-0.7C126.1,136.6,128.8,138.6,129.6,142.1L129.6,142.1z"/>
				<path fill-rule="evenodd" clip-rule="evenodd" d="M125.2,151.6c-0.5,2.1-2.2,3.2-3.8,2.4c-0.8-0.4-1.4-1.2-1.8-2.3
					c0.3,0.8,0.8,1.5,1.5,1.8c1.4,0.7,2.9-0.3,3.4-2.2c0.5-1.9-0.2-4-1.6-4.7c-0.7-0.3-1.4-0.3-2,0.1c0.7-0.5,1.6-0.7,2.4-0.3
					C124.9,147.2,125.7,149.5,125.2,151.6L125.2,151.6z"/>
				<path fill-rule="evenodd" clip-rule="evenodd" d="M119.1,152.1c-0.5-0.2-0.9-0.6-1.1-1.2c0.2,0.4,0.6,0.7,1,0.8
					c0.9,0.3,1.8-0.3,2.2-1.3l0,0C121,151.6,120.1,152.4,119.1,152.1L119.1,152.1z"/>
				<path fill-rule="evenodd" clip-rule="evenodd" d="M112,138.9c0.8-1.5,2.2-2,3.4-1.5l-0.3,0.5c-1-0.1-2,0.4-2.6,1.5
					c-0.9,1.7-0.7,4.1,0.6,5.4c0.6,0.6,1.3,0.8,2,0.7c-0.8,0.2-1.7,0-2.5-0.7C111.2,143.3,110.9,140.7,112,138.9L112,138.9z"/>
				<path fill-rule="evenodd" clip-rule="evenodd" d="M119.3,157.7c1.6,0.3,3.1-1.2,3.3-3.3c0-0.2,0-0.3,0-0.5l-0.2,0
					c-0.3,2-1.6,3.3-3.1,3c-1-0.2-1.8-1.1-2.2-2.3l-0.1,0.1l-0.2,0.2C117.2,156.3,118.1,157.5,119.3,157.7L119.3,157.7z"/>
				<path fill-rule="evenodd" clip-rule="evenodd" d="M114.8,154.7c-0.7-0.9-0.7-2.4,0-3.3c0.4-0.5,0.8-0.7,1.3-0.7
					c-0.4,0-0.8,0.2-1.1,0.6c-0.6,0.8-0.6,2.2,0,3c0.6,0.8,1.6,0.8,2.2,0c0.3-0.4,0.4-0.9,0.4-1.5c0,0.6-0.1,1.3-0.5,1.8
					C116.6,155.6,115.5,155.6,114.8,154.7L114.8,154.7z"/>
			</g>
		</g>
		<g>
			<path fill-rule="evenodd" clip-rule="evenodd" fill="#FFFFFF" d="M155,162.5c-0.4,1.6-1.5,2.6-2.7,2.5c-0.1,0.8-0.5,1.5-1,2
				c-0.8,0.7-1.8,0.7-2.5,0c-1.2,1.4-2.9,1.4-4.1-0.1c-0.7-0.8-1-2-1-3.1c-0.2,0-0.4,0-0.7,0c-2-0.1-3.5-2.5-3.4-5.1
				c0.1-2.7,1.8-4.8,3.8-4.6c0.3,0,0.5,0.1,0.8,0.2c0.1-0.2,0.2-0.4,0.3-0.6c0.6-0.9,1.5-1.3,2.3-0.9c0,0,0-0.1,0-0.1
				c0.6-1.4,1.9-1.9,2.9-1.2c0.7,0.5,1.1,1.6,1.1,2.6c0.6-0.2,1.1,0.2,1.4,0.9c0.2,0.7,0.1,1.5-0.3,2c0.1,0.3,0.2,0.6,0.3,1
				c0.3,0,0.6,0,0.9,0.1C154.6,158.7,155.4,160.7,155,162.5L155,162.5z"/>
			<g>
				<path fill-rule="evenodd" clip-rule="evenodd" d="M155,162.5c-0.4,1.7-1.6,2.7-2.9,2.5l0.1-0.3c1,0,2-0.9,2.3-2.4
					c0.4-1.7-0.3-3.6-1.6-4.1c-0.3-0.1-0.6-0.2-0.8-0.1c0.4-0.1,0.8-0.1,1.2,0.1C154.6,158.7,155.4,160.7,155,162.5L155,162.5z"/>
				<path fill-rule="evenodd" clip-rule="evenodd" d="M152.3,158.6c-0.1,0.6-0.3,1.2-0.7,1.5c0.2-0.4,0.4-0.8,0.5-1.3
					c0.1-0.6,0-1.1-0.2-1.6l0.2-0.2C152.2,157.5,152.4,158,152.3,158.6L152.3,158.6z"/>
				<path fill-rule="evenodd" clip-rule="evenodd" d="M144.8,166.9c-1.2-1.6-1.3-4.2-0.1-5.8c0.3-0.5,0.8-0.9,1.2-1.1
					c-0.3,0.2-0.5,0.5-0.8,0.8c-1.1,1.6-1,4,0.1,5.5c1.1,1.5,3,1.4,4-0.2c0.2-0.3,0.4-0.7,0.5-1.1c-0.1,0.6-0.4,1.2-0.7,1.7
					C147.9,168.4,146,168.5,144.8,166.9L144.8,166.9z"/>
				<path fill-rule="evenodd" clip-rule="evenodd" d="M139.8,158.7c0.1-2.7,1.8-4.8,3.8-4.6c0.4,0,0.7,0.1,1,0.3l0,0.1
					c-0.1,0-0.3-0.1-0.5-0.1c-1.9-0.1-3.5,1.8-3.6,4.3c-0.1,2.5,1.3,4.7,3.2,4.9c0.2,0,0.3,0,0.4,0l0,0.1c-0.3,0.1-0.6,0.1-1,0.1
					C141.2,163.7,139.7,161.4,139.8,158.7L139.8,158.7z"/>
				<path fill-rule="evenodd" clip-rule="evenodd" d="M144.6,153.7c0.8-1.2,2.1-1.4,3-0.4c0.5,0.6,0.8,1.4,0.8,2.2
					c-0.1-0.7-0.3-1.3-0.7-1.8c-0.8-0.9-2.1-0.8-2.8,0.4c-0.7,1.1-0.6,2.8,0.3,3.8c0.4,0.5,0.9,0.7,1.4,0.6
					c-0.6,0.1-1.2-0.1-1.7-0.6C144,156.8,143.8,154.9,144.6,153.7L144.6,153.7z"/>
				<path fill-rule="evenodd" clip-rule="evenodd" d="M148.9,155.4c0.3,0.3,0.5,0.7,0.5,1.2c-0.1-0.3-0.3-0.7-0.5-0.9
					c-0.6-0.5-1.3-0.4-1.8,0.2l0,0C147.5,155.1,148.3,154.9,148.9,155.4L148.9,155.4z"/>
				<path fill-rule="evenodd" clip-rule="evenodd" d="M151.3,167c-0.8,0.7-1.9,0.6-2.6-0.1l0.3-0.3c0.6,0.4,1.4,0.4,2.1-0.2
					c1-0.9,1.2-2.6,0.6-3.9c-0.3-0.6-0.8-1-1.3-1.2c0.6,0.1,1.2,0.6,1.6,1.4C152.7,164.2,152.4,166.1,151.3,167L151.3,167z"/>
				<path fill-rule="evenodd" clip-rule="evenodd" d="M149.8,151.5c-1-0.8-2.3-0.2-2.9,1.2c0,0.1-0.1,0.2-0.1,0.3l0.1,0
					c0.6-1.3,1.7-1.7,2.7-1c0.7,0.5,1,1.4,1.1,2.4l0.1-0.1l0.2,0C151,153.1,150.6,152,149.8,151.5L149.8,151.5z"/>
				<path fill-rule="evenodd" clip-rule="evenodd" d="M152.3,155c0.3,0.9,0,1.9-0.6,2.3c-0.3,0.2-0.7,0.2-1,0
					c0.3,0.1,0.6,0.1,0.9-0.1c0.6-0.4,0.8-1.3,0.5-2.1c-0.3-0.8-1-1.1-1.5-0.7c-0.3,0.2-0.5,0.5-0.6,0.9c0.1-0.5,0.3-0.9,0.7-1.1
					C151.3,153.8,152,154.2,152.3,155L152.3,155z"/>
			</g>
		</g>
		<g>
			<path fill-rule="evenodd" clip-rule="evenodd" fill="#FFFFFF" d="M316.1,153.2c0.8,1.4,0.8,3.3,0.1,4.7c0.4,0.6,0.7,1.4,0.7,2.4
				c0,1.4-0.6,2.5-1.5,3c0.2,2.2-0.8,4.4-2.5,4.9c-0.9,0.3-1.9,0-2.6-0.7c-0.1,0.3-0.2,0.5-0.4,0.8c-1.3,2.3-3.7,2.8-5.4,1.1
				c-1.7-1.7-2.1-5-0.8-7.3c0.2-0.3,0.4-0.6,0.6-0.8c-0.1-0.2-0.2-0.4-0.2-0.7c-0.3-1.2,0-2.5,0.7-3.3c0,0,0-0.1,0-0.1
				c-0.6-1.5-0.2-3.4,1-4.2c0.8-0.6,1.7-0.4,2.4,0.2c0.2-0.8,0.8-1.3,1.5-1.1c0.6,0.1,1.1,0.8,1.2,1.6c0.3,0,0.6,0.1,0.8,0.2
				c0.2-0.4,0.4-0.8,0.6-1.1C313.4,151.4,315.1,151.6,316.1,153.2L316.1,153.2z"/>
			<g>
				<path fill-rule="evenodd" clip-rule="evenodd" d="M316.1,153.2c0.9,1.5,0.8,3.6-0.1,4.9l-0.2-0.2c0.6-1.3,0.6-3-0.2-4.2
					c-0.9-1.5-2.6-1.7-3.7-0.4c-0.2,0.3-0.4,0.6-0.6,0.9c0.2-0.5,0.4-1,0.8-1.4C313.4,151.4,315.1,151.6,316.1,153.2L316.1,153.2z"
					/>
				<path fill-rule="evenodd" clip-rule="evenodd" d="M311.9,154.1c0.4,0.5,0.6,1.1,0.6,1.7c-0.1-0.5-0.3-1-0.6-1.3
					c-0.4-0.4-0.8-0.6-1.2-0.6l0-0.3C311.1,153.5,311.5,153.7,311.9,154.1L311.9,154.1z"/>
				<path fill-rule="evenodd" clip-rule="evenodd" d="M312.9,168.2c-1.8,0.6-3.5-0.9-3.9-3.3c-0.1-0.7-0.1-1.4,0-2.1
					c0,0.5,0,0.9,0.1,1.4c0.4,2.2,2,3.6,3.7,3.1c1.7-0.5,2.7-2.8,2.3-5c-0.1-0.5-0.2-0.9-0.4-1.3c0.3,0.5,0.6,1.2,0.7,1.9
					C315.8,165.3,314.7,167.6,312.9,168.2L312.9,168.2z"/>
				<path fill-rule="evenodd" clip-rule="evenodd" d="M304.5,169.4c-1.7-1.7-2.1-5-0.8-7.3c0.2-0.4,0.5-0.8,0.8-1.1l0.1,0.1
					c-0.1,0.2-0.2,0.3-0.3,0.5c-1.2,2.2-0.9,5.3,0.7,6.9c1.6,1.6,3.9,1.2,5.1-1c0.1-0.2,0.2-0.4,0.3-0.5l0.1,0.1
					c-0.1,0.4-0.3,0.8-0.5,1.2C308.7,170.6,306.2,171.1,304.5,169.4L304.5,169.4z"/>
				<path fill-rule="evenodd" clip-rule="evenodd" d="M304.1,160.5c-0.4-1.7,0.3-3.4,1.6-3.9c0.7-0.3,1.3-0.1,1.9,0.3
					c-0.5-0.3-1-0.4-1.6-0.2c-1.1,0.5-1.8,2.1-1.4,3.6c0.3,1.5,1.5,2.4,2.7,1.9c0.5-0.2,1-0.7,1.2-1.3c-0.3,0.8-0.8,1.4-1.4,1.7
					C305.7,163.1,304.4,162.2,304.1,160.5L304.1,160.5z"/>
				<path fill-rule="evenodd" clip-rule="evenodd" d="M307.8,156.4c0.4-0.2,0.8-0.2,1.1,0c-0.3-0.1-0.6-0.1-0.9,0.1
					c-0.7,0.4-1,1.3-0.9,2.2l0,0C306.7,157.8,307.1,156.8,307.8,156.4L307.8,156.4z"/>
				<path fill-rule="evenodd" clip-rule="evenodd" d="M316.9,160.3c0,1.4-0.7,2.6-1.6,3.1l0-0.5c0.7-0.5,1.1-1.5,1.1-2.6
					c0-1.7-1-3-2.2-3c-0.6,0-1.1,0.3-1.5,0.8c0.4-0.7,1.1-1.1,1.8-1.1C315.8,157,316.9,158.4,316.9,160.3L316.9,160.3z"/>
				<path fill-rule="evenodd" clip-rule="evenodd" d="M305.7,152.9c-1.1,0.8-1.5,2.7-1,4.2c0,0.1,0.1,0.2,0.1,0.3l0.1-0.1
					c-0.5-1.4-0.1-3.1,0.9-3.9c0.7-0.5,1.5-0.4,2.2,0.1l0-0.1l0.1-0.2C307.5,152.5,306.5,152.3,305.7,152.9L305.7,152.9z"/>
				<path fill-rule="evenodd" clip-rule="evenodd" d="M309.6,152c0.7,0.1,1.3,1.1,1.2,2.1c-0.1,0.5-0.3,1-0.6,1.3
					c0.2-0.3,0.4-0.6,0.5-1.1c0.1-0.9-0.4-1.8-1.1-1.9c-0.7-0.1-1.3,0.5-1.4,1.4c0,0.4,0,0.9,0.2,1.2c-0.2-0.4-0.4-0.9-0.3-1.5
					C308.1,152.5,308.8,151.8,309.6,152L309.6,152z"/>
			</g>
		</g>
		<g>
			<path fill-rule="evenodd" clip-rule="evenodd" fill="#FFFFFF" d="M301.9,226.6c-0.7-0.8-0.8-2.2-0.4-3.2
				c-0.4-0.4-0.6-0.9-0.7-1.5c-0.1-0.9,0.2-1.8,0.8-2.3c-0.3-1.5,0.2-3.1,1.3-3.7c0.6-0.3,1.3-0.3,1.9,0.1c0.1-0.2,0.1-0.4,0.2-0.6
				c0.7-1.8,2.3-2.5,3.7-1.5c1.3,1,1.8,3.2,1.1,5c-0.1,0.2-0.2,0.5-0.3,0.7c0.1,0.1,0.1,0.3,0.2,0.4c0.3,0.8,0.2,1.8-0.2,2.4
				c0,0,0,0,0,0.1c0.5,1,0.4,2.3-0.3,3c-0.5,0.5-1.2,0.6-1.7,0.2c-0.1,0.6-0.5,1-0.9,1c-0.4,0-0.8-0.4-0.9-0.9c-0.2,0-0.4,0-0.6-0.1
				c-0.1,0.3-0.2,0.6-0.4,0.8C303.9,227.5,302.7,227.6,301.9,226.6L301.9,226.6z"/>
			<g>
				<path fill-rule="evenodd" clip-rule="evenodd" d="M301.9,226.6c-0.7-0.9-0.9-2.3-0.3-3.4l0.1,0.1c-0.3,1-0.2,2.1,0.5,2.9
					c0.8,0.9,1.9,0.8,2.6-0.2c0.1-0.2,0.3-0.5,0.3-0.7c-0.1,0.4-0.2,0.8-0.4,1.1C303.9,227.5,302.7,227.6,301.9,226.6L301.9,226.6z"
					/>
				<path fill-rule="evenodd" clip-rule="evenodd" d="M304.7,225.4c-0.3-0.3-0.5-0.7-0.5-1.1c0.1,0.3,0.3,0.6,0.5,0.8
					c0.3,0.2,0.6,0.3,0.9,0.3l0,0.2C305.3,225.7,305,225.6,304.7,225.4L304.7,225.4z"/>
				<path fill-rule="evenodd" clip-rule="evenodd" d="M302.9,215.8c1.2-0.6,2.5,0.1,3,1.7c0.1,0.5,0.2,1,0.2,1.4
					c0-0.3-0.1-0.7-0.2-1c-0.4-1.5-1.7-2.2-2.8-1.6c-1.1,0.6-1.6,2.3-1.2,3.8c0.1,0.3,0.2,0.6,0.4,0.8c-0.3-0.3-0.5-0.7-0.6-1.2
					C301.2,218.3,301.8,216.5,302.9,215.8L302.9,215.8z"/>
				<path fill-rule="evenodd" clip-rule="evenodd" d="M308.7,213.8c1.3,1,1.8,3.2,1.1,5c-0.1,0.3-0.3,0.6-0.5,0.8l0-0.1
					c0.1-0.1,0.1-0.3,0.2-0.4c0.7-1.7,0.2-3.8-1.1-4.7c-1.2-0.9-2.8-0.3-3.4,1.4c-0.1,0.1-0.1,0.3-0.1,0.4l-0.1-0.1
					c0.1-0.3,0.1-0.6,0.3-0.9C305.7,213.5,307.3,212.9,308.7,213.8L308.7,213.8z"/>
				<path fill-rule="evenodd" clip-rule="evenodd" d="M309.7,219.9c0.4,1.1,0,2.4-0.8,2.9c-0.4,0.3-0.9,0.3-1.3,0
					c0.4,0.2,0.7,0.1,1.1-0.1c0.7-0.5,1.1-1.7,0.7-2.7c-0.4-1-1.2-1.4-2-1c-0.4,0.2-0.6,0.6-0.7,1.1c0.1-0.6,0.4-1.1,0.9-1.4
					C308.3,218.3,309.3,218.8,309.7,219.9L309.7,219.9z"/>
				<path fill-rule="evenodd" clip-rule="evenodd" d="M307.4,223.2c-0.2,0.2-0.5,0.2-0.8,0.1c0.2,0,0.4,0,0.6-0.2
					c0.4-0.3,0.6-1.1,0.5-1.7l0,0C308,222.1,307.9,222.9,307.4,223.2L307.4,223.2z"/>
				<path fill-rule="evenodd" clip-rule="evenodd" d="M300.8,221.9c-0.1-1,0.3-1.9,0.9-2.4l0,0.3c-0.4,0.5-0.7,1.2-0.6,2
					c0.1,1.2,0.9,2,1.8,1.8c0.4-0.1,0.8-0.4,1-0.8c-0.3,0.5-0.7,0.9-1.2,1C301.8,224,301,223.1,300.8,221.9L300.8,221.9z"/>
				<path fill-rule="evenodd" clip-rule="evenodd" d="M309.1,225.4c0.7-0.7,0.9-2.1,0.3-3c0-0.1-0.1-0.1-0.1-0.2l-0.1,0.1
					c0.5,0.9,0.3,2.1-0.3,2.8c-0.5,0.5-1,0.5-1.5,0.2l0,0.1l0,0.2C307.9,225.9,308.6,225.9,309.1,225.4L309.1,225.4z"/>
				<path fill-rule="evenodd" clip-rule="evenodd" d="M306.5,226.6c-0.5,0-1-0.6-1-1.3c0-0.4,0.1-0.7,0.3-1
					c-0.1,0.2-0.2,0.5-0.2,0.8c0,0.6,0.4,1.2,0.9,1.2c0.5,0,0.9-0.5,0.9-1.2c0-0.3-0.1-0.6-0.2-0.8c0.2,0.2,0.3,0.6,0.3,1
					C307.5,226,307,226.5,306.5,226.6L306.5,226.6z"/>
			</g>
		</g>
		<g>
			<path fill-rule="evenodd" clip-rule="evenodd" fill="#FFFFFF" d="M102.3,332.3c-2.4,1.4-5.2,0.2-6.7-2.6c-1.1,0.8-2.5,1-3.8,0.5
				c-1.9-0.8-3.2-3.1-3.4-5.6c-3.3-0.7-5.7-4.8-5.4-9.3c0.1-2.6,1.1-4.9,2.5-6.4c-0.3-0.4-0.6-0.9-0.9-1.4
				c-2.5-4.7-1.8-11.2,1.7-14.6c3.5-3.4,8.3-2.4,10.8,2.3c0.3,0.6,0.6,1.3,0.8,2c0.3-0.1,0.7-0.2,1.1-0.2c1.9,0,3.5,1.6,4.2,3.8
				c0.1,0,0.1,0,0.2,0c2.5-0.6,4.9,1.6,5.4,5c0.3,2.4-0.4,4.7-1.7,6.1c0.9,1,1.3,2.9,0.7,4.4c-0.5,1.5-1.7,2.3-2.9,2
				c-0.2,0.7-0.4,1.4-0.8,2c0.5,0.7,0.8,1.4,1.1,2.3C106.4,326.3,105.1,330.7,102.3,332.3L102.3,332.3z"/>
			<g>
				<path fill-rule="evenodd" clip-rule="evenodd" d="M102.3,332.3c-2.6,1.5-5.5,0.1-6.9-3.1l0.4-0.3c1.4,2.3,3.9,3.3,6,2
					c2.7-1.5,3.9-5.6,2.8-9.2c-0.2-0.8-0.6-1.5-1-2c0.7,0.7,1.2,1.7,1.6,2.9C106.4,326.3,105.1,330.7,102.3,332.3L102.3,332.3z"/>
				<path fill-rule="evenodd" clip-rule="evenodd" d="M103.5,320.9c-0.9,0.7-1.9,0.9-2.8,0.5c0.8,0.1,1.5-0.2,2.2-0.8
					c0.8-0.7,1.3-1.6,1.6-2.7l0.4,0.2C104.8,319.2,104.3,320.3,103.5,320.9L103.5,320.9z"/>
				<path fill-rule="evenodd" clip-rule="evenodd" d="M83.1,315.2c0.3-4.9,3.4-8.5,7-8.2c1.1,0.1,2.1,0.6,2.9,1.3
					c-0.6-0.4-1.3-0.6-2-0.7c-3.4-0.3-6.3,3.1-6.6,7.7c-0.2,4.6,2.3,8.6,5.7,8.9c0.7,0.1,1.4,0,2.1-0.3c-0.9,0.5-2,0.8-3,0.7
					C85.5,324.3,82.8,320.1,83.1,315.2L83.1,315.2z"/>
				<path fill-rule="evenodd" clip-rule="evenodd" d="M86.4,292.8c3.5-3.4,8.3-2.4,10.8,2.3c0.4,0.8,0.8,1.7,1,2.7l-0.2,0.1
					c-0.2-0.4-0.3-0.8-0.5-1.1c-2.4-4.4-6.9-5.4-10.2-2.2c-3.3,3.2-4,9.4-1.6,13.8c0.2,0.4,0.4,0.7,0.6,1l-0.2,0.2
					c-0.5-0.6-1-1.3-1.4-2C82.2,302.7,82.9,296.2,86.4,292.8L86.4,292.8z"/>
				<path fill-rule="evenodd" clip-rule="evenodd" d="M99.1,296.9c2.6,0,4.6,2.9,4.6,6.3c0,1.9-0.6,3.6-1.6,4.7c0.7-1,1.2-2.4,1.2-4
					c0-3.2-1.9-5.8-4.2-5.8c-2.3,0-4.3,2.5-4.3,5.7c0,1.5,0.4,2.9,1.2,4c-1-1.2-1.6-2.9-1.5-4.7C94.4,299.6,96.5,296.8,99.1,296.9
					L99.1,296.9z"/>
				<path fill-rule="evenodd" clip-rule="evenodd" d="M102.7,308.9c0.1,1.1-0.2,2-0.7,2.8c0.3-0.7,0.4-1.5,0.4-2.4
					c-0.1-2-1.2-3.5-2.6-3.7l0,0C101.3,305.4,102.6,306.9,102.7,308.9L102.7,308.9z"/>
				<path fill-rule="evenodd" clip-rule="evenodd" d="M91.9,330.2c-2-0.9-3.3-3.3-3.4-6l0.7,0.3c0.3,2,1.4,3.8,3,4.5
					c2.3,1,4.9-0.8,5.6-4c0.4-1.5,0.2-3.1-0.3-4.5c0.7,1.6,0.9,3.5,0.5,5.4C97.2,329.3,94.4,331.3,91.9,330.2L91.9,330.2z"/>
				<path fill-rule="evenodd" clip-rule="evenodd" d="M108.9,305.6c-0.5-3.4-2.9-5.6-5.4-5c-0.2,0-0.4,0.1-0.5,0.2l0.1,0.3
					c2.3-0.5,4.5,1.6,4.9,4.7c0.3,2.2-0.3,4.3-1.5,5.6l0.2,0.1l0.3,0.4C108.4,310.6,109.2,308.1,108.9,305.6L108.9,305.6z"/>
				<path fill-rule="evenodd" clip-rule="evenodd" d="M107.9,316.2c-0.6,1.8-2.3,2.6-3.6,1.7c-0.7-0.5-1.2-1.3-1.4-2.3
					c0.2,0.8,0.7,1.4,1.3,1.8c1.2,0.8,2.7,0.1,3.3-1.6c0.6-1.7,0.1-3.7-1.2-4.5c-0.6-0.4-1.3-0.4-1.8-0.2c0.7-0.4,1.5-0.4,2.2,0.1
					C108,312.2,108.5,314.3,107.9,316.2L107.9,316.2z"/>
			</g>
		</g>
		<g>
			<path fill-rule="evenodd" clip-rule="evenodd" fill="#FFFFFF" d="M127,201.6c-1.2-0.6-2.4,0-3.1,1.3c-0.5-0.4-1.2-0.4-1.8-0.2
				c-0.9,0.4-1.5,1.5-1.5,2.7c-1.5,0.4-2.6,2.3-2.4,4.4c0.1,1.2,0.6,2.3,1.2,2.9c-0.2,0.2-0.3,0.4-0.4,0.7c-1.1,2.2-0.7,5.3,0.9,6.8
				c1.6,1.5,3.9,1,5-1.3c0.1-0.3,0.3-0.6,0.4-0.9c0.2,0,0.3,0.1,0.5,0.1c0.9,0,1.6-0.8,1.9-1.9c0,0,0.1,0,0.1,0
				c1.2,0.3,2.3-0.8,2.5-2.4c0.1-1.1-0.2-2.2-0.9-2.8c0.4-0.5,0.6-1.4,0.3-2.1c-0.3-0.7-0.8-1.1-1.4-0.9c-0.1-0.3-0.2-0.6-0.4-0.9
				c0.2-0.3,0.4-0.7,0.5-1.1C129,204.3,128.4,202.3,127,201.6L127,201.6z"/>
			<g>
				<path fill-rule="evenodd" clip-rule="evenodd" d="M127,201.6c-1.2-0.6-2.6,0.1-3.2,1.6l0.2,0.1c0.6-1.1,1.8-1.6,2.8-1
					c1.3,0.7,1.9,2.6,1.4,4.3c-0.1,0.4-0.2,0.7-0.4,1c0.3-0.4,0.5-0.8,0.7-1.4C129,204.3,128.4,202.3,127,201.6L127,201.6z"/>
				<path fill-rule="evenodd" clip-rule="evenodd" d="M127.7,206.9c-0.4-0.3-0.9-0.4-1.3-0.2c0.4,0,0.7,0.1,1.1,0.3
					c0.4,0.3,0.6,0.7,0.8,1.2l0.2-0.1C128.3,207.6,128.1,207.2,127.7,206.9L127.7,206.9z"/>
				<path fill-rule="evenodd" clip-rule="evenodd" d="M118.2,209.9c0.2,2.3,1.7,3.9,3.3,3.7c0.5-0.1,1-0.3,1.4-0.6
					c-0.3,0.2-0.6,0.3-0.9,0.4c-1.6,0.2-3-1.3-3.1-3.5c-0.2-2.1,1-4,2.6-4.2c0.3,0,0.7,0,1,0.1c-0.4-0.2-0.9-0.3-1.4-0.3
					C119.3,205.6,118.1,207.6,118.2,209.9L118.2,209.9z"/>
				<path fill-rule="evenodd" clip-rule="evenodd" d="M120,220.3c1.6,1.5,3.9,1,5-1.3c0.2-0.4,0.4-0.8,0.5-1.3l-0.1,0
					c-0.1,0.2-0.1,0.4-0.2,0.5c-1.1,2.1-3.2,2.6-4.7,1.2c-1.5-1.4-1.9-4.3-0.9-6.4c0.1-0.2,0.2-0.3,0.3-0.5l-0.1-0.1
					c-0.2,0.3-0.5,0.6-0.6,1C117.9,215.7,118.3,218.8,120,220.3L120,220.3z"/>
				<path fill-rule="evenodd" clip-rule="evenodd" d="M125.9,218.2c1.2-0.1,2.1-1.4,2.1-3c0-0.9-0.3-1.6-0.8-2.2
					c0.4,0.5,0.6,1.1,0.6,1.8c0,1.5-0.8,2.7-1.9,2.8c-1.1,0.1-2-1.1-2.1-2.6c0-0.7,0.2-1.4,0.5-1.9c-0.4,0.6-0.7,1.4-0.7,2.2
					C123.7,217,124.7,218.2,125.9,218.2L125.9,218.2z"/>
				<path fill-rule="evenodd" clip-rule="evenodd" d="M127.5,212.5c0-0.5-0.1-1-0.4-1.3c0.1,0.3,0.2,0.7,0.2,1.1
					c0,0.9-0.5,1.6-1.2,1.8h0C126.8,214.2,127.4,213.4,127.5,212.5L127.5,212.5z"/>
				<path fill-rule="evenodd" clip-rule="evenodd" d="M122.2,202.8c-0.9,0.4-1.5,1.6-1.5,2.9l0.3-0.1c0.1-1,0.6-1.8,1.4-2.1
					c1.1-0.5,2.3,0.3,2.6,1.7c0.2,0.7,0.1,1.5-0.1,2.1c0.3-0.7,0.4-1.7,0.2-2.5C124.7,203.1,123.4,202.2,122.2,202.8L122.2,202.8z"
					/>
				<path fill-rule="evenodd" clip-rule="evenodd" d="M130.4,213.9c-0.2,1.6-1.3,2.7-2.5,2.4c-0.1,0-0.2,0-0.2-0.1l0-0.1
					c1.1,0.2,2.1-0.8,2.2-2.3c0.1-1-0.2-2-0.7-2.6l0.1,0l0.1-0.2C130.1,211.6,130.5,212.7,130.4,213.9L130.4,213.9z"/>
				<path fill-rule="evenodd" clip-rule="evenodd" d="M129.8,209c-0.3-0.8-1.1-1.2-1.7-0.8c-0.3,0.2-0.6,0.6-0.7,1.1
					c0.1-0.4,0.3-0.7,0.6-0.9c0.6-0.4,1.3-0.1,1.6,0.7c0.3,0.8,0.1,1.7-0.5,2.1c-0.3,0.2-0.6,0.2-0.9,0.1c0.3,0.2,0.7,0.2,1-0.1
					C129.9,210.9,130.1,209.9,129.8,209L129.8,209z"/>
			</g>
		</g>
		<g>
			<path fill-rule="evenodd" clip-rule="evenodd" fill="#FFFFFF" d="M324.8,168.2c0.8-0.3,1.7,0.3,2.1,1.3c0.4-0.2,0.8-0.2,1.2,0.1
				c0.6,0.4,0.9,1.2,0.9,2c1,0.4,1.7,1.9,1.5,3.4c-0.1,0.8-0.5,1.5-1.1,1.9c0.1,0.2,0.2,0.3,0.3,0.5c0.7,1.7,0.2,3.8-1.1,4.7
				c-1.2,0.9-2.8,0.3-3.5-1.4c-0.1-0.2-0.2-0.5-0.2-0.7c-0.1,0-0.2,0-0.4,0c-0.6-0.1-1.1-0.7-1.3-1.5c0,0,0,0-0.1,0
				c-0.8,0-1.5-0.8-1.6-2c0-0.8,0.3-1.5,0.8-1.9c-0.3-0.4-0.3-1-0.1-1.5c0.2-0.5,0.6-0.6,1-0.5c0.1-0.2,0.2-0.4,0.3-0.6
				c-0.1-0.2-0.2-0.5-0.3-0.8C323.2,169.9,323.8,168.6,324.8,168.2L324.8,168.2z"/>
			<g>
				<path fill-rule="evenodd" clip-rule="evenodd" d="M324.8,168.2c0.9-0.3,1.8,0.3,2.1,1.5l-0.2,0.1c-0.4-0.9-1.1-1.3-1.9-1
					c-0.9,0.3-1.5,1.6-1.2,2.8c0.1,0.3,0.1,0.5,0.2,0.7c-0.2-0.3-0.3-0.6-0.4-1C323.2,169.9,323.8,168.6,324.8,168.2L324.8,168.2z"
					/>
				<path fill-rule="evenodd" clip-rule="evenodd" d="M324,171.9c0.3-0.2,0.6-0.2,0.9,0c-0.2-0.1-0.5,0-0.8,0.1
					c-0.3,0.2-0.5,0.4-0.6,0.8l-0.1-0.1C323.5,172.3,323.7,172,324,171.9L324,171.9z"/>
				<path fill-rule="evenodd" clip-rule="evenodd" d="M330.4,175c-0.3,1.6-1.4,2.6-2.6,2.2c-0.4-0.1-0.7-0.3-0.9-0.6
					c0.2,0.2,0.4,0.3,0.6,0.4c1.1,0.3,2.2-0.6,2.4-2.1c0.2-1.5-0.5-2.9-1.6-3.3c-0.2-0.1-0.5-0.1-0.7,0c0.3-0.1,0.7-0.1,1,0
					C330,171.9,330.7,173.5,330.4,175L330.4,175z"/>
				<path fill-rule="evenodd" clip-rule="evenodd" d="M328.6,182.2c-1.2,0.9-2.8,0.2-3.5-1.4c-0.1-0.3-0.2-0.6-0.2-0.9l0.1,0
					c0,0.1,0.1,0.3,0.1,0.4c0.6,1.6,2.1,2.2,3.3,1.4c1.2-0.8,1.6-2.8,1-4.4c-0.1-0.1-0.1-0.3-0.2-0.4l0.1,0c0.2,0.2,0.3,0.5,0.4,0.8
					C330.3,179.2,329.8,181.3,328.6,182.2L328.6,182.2z"/>
				<path fill-rule="evenodd" clip-rule="evenodd" d="M324.6,180c-0.8-0.2-1.4-1.2-1.3-2.4c0.1-0.6,0.3-1.1,0.7-1.4
					c-0.3,0.3-0.5,0.7-0.5,1.2c-0.1,1,0.4,2,1.2,2.2c0.8,0.2,1.5-0.6,1.6-1.6c0.1-0.5,0-1-0.2-1.4c0.3,0.4,0.4,1,0.3,1.6
					C326.2,179.4,325.4,180.2,324.6,180L324.6,180z"/>
				<path fill-rule="evenodd" clip-rule="evenodd" d="M323.8,175.9c0-0.3,0.1-0.7,0.3-0.9c-0.1,0.2-0.2,0.5-0.2,0.8
					c0,0.6,0.3,1.2,0.7,1.4l0,0C324.1,177.1,323.8,176.5,323.8,175.9L323.8,175.9z"/>
				<path fill-rule="evenodd" clip-rule="evenodd" d="M328.1,169.6c0.6,0.4,1,1.3,0.9,2.2l-0.2-0.1c0-0.7-0.3-1.3-0.8-1.6
					c-0.7-0.5-1.6-0.1-2,0.9c-0.2,0.5-0.2,1-0.1,1.5c-0.2-0.6-0.2-1.2,0-1.8C326.3,169.5,327.3,169.1,328.1,169.6L328.1,169.6z"/>
				<path fill-rule="evenodd" clip-rule="evenodd" d="M321.7,176.5c0,1.1,0.7,2,1.6,2c0.1,0,0.1,0,0.2,0l0-0.1
					c-0.8,0-1.4-0.8-1.4-1.9c0-0.7,0.2-1.4,0.7-1.7l-0.1,0l-0.1-0.1C322,174.9,321.6,175.7,321.7,176.5L321.7,176.5z"/>
				<path fill-rule="evenodd" clip-rule="evenodd" d="M322.4,173.1c0.3-0.6,0.8-0.7,1.2-0.3c0.2,0.2,0.4,0.5,0.4,0.8
					c0-0.3-0.2-0.5-0.3-0.7c-0.4-0.3-0.9-0.2-1.1,0.3c-0.2,0.5-0.1,1.2,0.2,1.5c0.2,0.2,0.4,0.2,0.6,0.2c-0.2,0.1-0.5,0-0.7-0.2
					C322.2,174.5,322.1,173.7,322.4,173.1L322.4,173.1z"/>
			</g>
		</g>
		<g>
			
				<line fill="none" stroke="#000000" stroke-width="0.5669" stroke-linecap="round" stroke-linejoin="round" stroke-miterlimit="2.4142" x1="293" y1="170.6" x2="299.9" y2="167.9"/>
			
				<line fill="none" stroke="#000000" stroke-width="0.5669" stroke-linecap="round" stroke-linejoin="round" stroke-miterlimit="2.4142" x1="291.4" y1="180.3" x2="316.1" y2="175.4"/>
			
				<line fill="none" stroke="#000000" stroke-width="0.5669" stroke-linecap="round" stroke-linejoin="round" stroke-miterlimit="2.4142" x1="309.7" y1="178" x2="319.2" y2="176.8"/>
			
				<line fill="none" stroke="#000000" stroke-width="0.5669" stroke-linecap="round" stroke-linejoin="round" stroke-miterlimit="2.4142" x1="302.2" y1="180.4" x2="321.8" y2="179.5"/>
			
				<line fill="none" stroke="#000000" stroke-width="0.5669" stroke-linecap="round" stroke-linejoin="round" stroke-miterlimit="2.4142" x1="290.3" y1="169.1" x2="301.8" y2="163.2"/>
			
				<line fill="none" stroke="#000000" stroke-width="0.5669" stroke-linecap="round" stroke-linejoin="round" stroke-miterlimit="2.4142" x1="298" y1="163.1" x2="303.1" y2="158.2"/>
			
				<line fill="none" stroke="#000000" stroke-width="0.5669" stroke-linecap="round" stroke-linejoin="round" stroke-miterlimit="2.4142" x1="313.6" y1="174.1" x2="322.3" y2="171.7"/>
			
				<line fill="none" stroke="#000000" stroke-width="0.5669" stroke-linecap="round" stroke-linejoin="round" stroke-miterlimit="2.4142" x1="292.1" y1="208.3" x2="300.1" y2="219.6"/>
			
				<line fill="none" stroke="#000000" stroke-width="0.5669" stroke-linecap="round" stroke-linejoin="round" stroke-miterlimit="2.4142" x1="295.1" y1="209.4" x2="303.4" y2="214.4"/>
			
				<line fill="none" stroke="#000000" stroke-width="0.5669" stroke-linecap="round" stroke-linejoin="round" stroke-miterlimit="2.4142" x1="297.5" y1="213.5" x2="300.9" y2="217.7"/>
			
				<line fill="none" stroke="#000000" stroke-width="0.5669" stroke-linecap="round" stroke-linejoin="round" stroke-miterlimit="2.4142" x1="100.9" y1="293" x2="132.4" y2="292.5"/>
			
				<line fill="none" stroke="#000000" stroke-width="0.5669" stroke-linecap="round" stroke-linejoin="round" stroke-miterlimit="2.4142" x1="107.2" y1="322.3" x2="134.4" y2="303.6"/>
			
				<line fill="none" stroke="#000000" stroke-width="0.5669" stroke-linecap="round" stroke-linejoin="round" stroke-miterlimit="2.4142" x1="111.7" y1="312.5" x2="132.4" y2="302.3"/>
			
				<line fill="none" stroke="#000000" stroke-width="0.5669" stroke-linecap="round" stroke-linejoin="round" stroke-miterlimit="2.4142" x1="117.9" y1="298.4" x2="138.2" y2="294.1"/>
			
				<line fill="none" stroke="#000000" stroke-width="0.5669" stroke-linecap="round" stroke-linejoin="round" stroke-miterlimit="2.4142" x1="133.5" y1="297.5" x2="127.3" y2="299"/>
			
				<line fill="none" stroke="#000000" stroke-width="0.5669" stroke-linecap="round" stroke-linejoin="round" stroke-miterlimit="2.4142" x1="119.8" y1="302.9" x2="113.6" y2="304.7"/>
			
				<line fill="none" stroke="#000000" stroke-width="0.5669" stroke-linecap="round" stroke-linejoin="round" stroke-miterlimit="2.4142" x1="107.2" y1="147.9" x2="99" y2="161.5"/>
			
				<line fill="none" stroke="#000000" stroke-width="0.5669" stroke-linecap="round" stroke-linejoin="round" stroke-miterlimit="2.4142" x1="116.4" y1="158.1" x2="103.5" y2="166.5"/>
			
				<line fill="none" stroke="#000000" stroke-width="0.5669" stroke-linecap="round" stroke-linejoin="round" stroke-miterlimit="2.4142" x1="112" y1="158.1" x2="102.7" y2="164.8"/>
			
				<line fill="none" stroke="#000000" stroke-width="0.5669" stroke-linecap="round" stroke-linejoin="round" stroke-miterlimit="2.4142" x1="109.6" y1="151.4" x2="105.1" y2="157"/>
			
				<line fill="none" stroke="#000000" stroke-width="0.5669" stroke-linecap="round" stroke-linejoin="round" stroke-miterlimit="2.4142" x1="112.2" y1="154.9" x2="102.9" y2="162"/>
			
				<line fill="none" stroke="#000000" stroke-width="0.5669" stroke-linecap="round" stroke-linejoin="round" stroke-miterlimit="2.4142" x1="138.2" y1="158.3" x2="106.8" y2="170.4"/>
			
				<line fill="none" stroke="#000000" stroke-width="0.5669" stroke-linecap="round" stroke-linejoin="round" stroke-miterlimit="2.4142" x1="145.4" y1="168.3" x2="107.8" y2="175"/>
			
				<line fill="none" stroke="#000000" stroke-width="0.5669" stroke-linecap="round" stroke-linejoin="round" stroke-miterlimit="2.4142" x1="140.1" y1="166.2" x2="123.5" y2="169.9"/>
			
				<line fill="none" stroke="#000000" stroke-width="0.5669" stroke-linecap="round" stroke-linejoin="round" stroke-miterlimit="2.4142" x1="108.2" y1="171.8" x2="130.8" y2="165"/>
			
				<line fill="none" stroke="#000000" stroke-width="0.5669" stroke-linecap="round" stroke-linejoin="round" stroke-miterlimit="2.4142" x1="129.1" y1="217.4" x2="143.4" y2="226.7"/>
			
				<line fill="none" stroke="#000000" stroke-width="0.5669" stroke-linecap="round" stroke-linejoin="round" stroke-miterlimit="2.4142" x1="130.8" y1="210.9" x2="142.5" y2="222.2"/>
			
				<line fill="none" stroke="#000000" stroke-width="0.5669" stroke-linecap="round" stroke-linejoin="round" stroke-miterlimit="2.4142" x1="131.3" y1="216.2" x2="137.9" y2="221.4"/>
			
				<line fill="none" stroke="#000000" stroke-width="0.5669" stroke-linecap="round" stroke-linejoin="round" stroke-miterlimit="2.4142" x1="134.3" y1="216.3" x2="143" y2="223.9"/>
		</g>
		<g>
			<path fill-rule="evenodd" clip-rule="evenodd" fill="#FFFFFF" d="M181,348.7c-3.8-0.2-6.5-3.8-7.3-9c-3.2,2.2-6.8,2.7-9.9,0.9
				c-5.3-3-7.4-11.4-5.3-19.7c-8.5,3.9-17.8-2.1-20.3-12.8c-2.5-10.6,0.8-20.3,7.1-26.2c-10.6-1.7-19.5-13.9-19.7-28.9
				c-0.1-16.4,10.2-27.8,22.1-25.7c-2.7-4.2-3.4-10.2-1.3-14.4c2.2-4.5,6.7-5.1,10.4-1.8c0.8-6.9,3.9-12.3,8.7-13.9
				c5.4-1.8,11.1,1.8,14.8,8.3c0.8,0.1,1.5,0.3,2.3,0.8c1.2-5.7,4.5-9.1,8.4-8.1c2.9,0.7,5.4,3.5,7.1,7.4c1.9-2.4,4.3-3.4,6.9-2.5
				c3.9,1.3,7,6.4,8.4,12.5c3.1-5.4,7.8-6.1,11.7-1.4c3.4,4.1,5.2,11.2,5.2,18.1c2.7-0.4,5.3,2.4,6.7,7.4c1.4,5.1,1.2,11.3-0.3,15.8
				c1.4,1.9,2.4,5.1,2.5,8.9c0.1,3.3-0.5,6.5-1.6,8.9c0.3,2.7,0.2,5.6-0.4,8.5c0,0,0,0,0,0c3.1,2.7,4.5,9.9,3.1,17.1
				c-1.4,7.8-7.3,12.5-9.3,11.8c-2-0.7-0.4-0.2-0.6-0.3c-0.2,2-0.7,4-1.5,5.9c-2,4.7-5.3,6.5-7.6,4.3c-1.2,9.3-5.2,18.3-10.8,22.8
				c-7.1,5.6-14.4,2.3-17.5-8C191.4,343,186.2,349,181,348.7L181,348.7z M217.5,280c1.7-2.5,2.7-2.7,4-2.6c0-0.6,0-1.4,0.1-1.9
				c0.1-0.6,0.1-1,0.2-1.4c-1.9-0.5-3.7-2.9-4.4-6.7c-0.7-3.3-0.4-6.9,0.6-9.8c-1.4,0.9-2.1,1.5-4.5-0.2c-2.4-1.7-5.1-8.6-4.4-14.8
				c-1.6,1.7-3.9,1.5-5.6-0.7c-0.6-0.8-1.1-1.8-1.5-2.9c-1.6,1.7-3.6,2.4-5.6,1.8c-0.7,3.1-1.5,5.3-4,7.6c-2.5,2.3-7,2.6-10.2-0.3
				c-0.3,0.7-0.6,1.3-1.1,1.7c0.4,1.3,0.6,2,0.5,4.3c-0.1,2.3-1.2,5.6-2.8,7c2.4,2.2,4,6.2,3.9,10.7c0,4.7-1.9,8.7-4.5,10.8
				c0.9,1.9,1.4,4.2,1.4,6.8c0,0.2,0,0.4,0,0.5c1.7-0.8,3.5-0.2,4.7,1.7c3-4.7,7.7-4.9,10.3-1.2c2.6,3.7,2.7,9.3,0.9,13.9
				c0.8,0,1.6,0.3,2.2,0.7c0.5,0.4,0.8,0.6,1.1,1c0-0.1-0.2,2.7,0-0.2c0.2-2.9,4.2-10.5,6.8-10.5c2.6,0,3.3,1.5,4.2,3.7
				c0.2-2.9,1.9-5.8,3.1-6.6c1.2-0.8,1.6-0.5,2.3-0.1C214.5,288.1,215.8,282.5,217.5,280L217.5,280z"/>
			<path fill-rule="evenodd" clip-rule="evenodd" d="M181,348.7c-3.8-0.2-6.5-3.8-7.3-9c-3.2,2.2-6.8,2.7-9.9,0.9
				c-5.3-3-7.4-11.4-5.3-19.7c-8.5,3.9-17.6-1.3-20.3-12.8c-2.3-9.7,0.8-20.3,7.1-26.2c-10.6-1.7-19.5-13.9-19.7-28.9
				c-0.1-16.4,10.2-27.8,22.1-25.7c-2.7-4.2-3.4-10.2-1.3-14.4c2.2-4.5,6.7-5.1,10.4-1.8c0.8-6.9,3.9-12.3,8.7-13.9
				c5.4-1.8,11.1,1.8,14.8,8.3c0.8,0.1,1.5,0.3,2.3,0.8c1.2-5.7,4.5-9.1,8.4-8.1c2.9,0.7,5.4,3.5,7.1,7.4c1.9-2.4,4.3-3.4,6.9-2.5
				c3.9,1.3,7,6.4,8.4,12.5c3.1-5.4,7.8-6.1,11.7-1.4c3.4,4.1,5.2,11.2,5.2,18.1c2.7-0.4,5.3,2.4,6.7,7.4c1.4,5.1,1.2,11.3-0.3,15.8
				c1.4,1.9,2.4,5.1,2.5,8.9c0.1,3.3-0.5,6.5-1.6,8.9c0.3,2.7,0.2,5.6-0.4,8.5c0,0,0,0,0,0c3.1,2.7,4.5,9.9,3.1,17.1
				c-1.4,7.8-5.5,13.1-9.3,11.8c-0.2-0.1-0.4-0.2-0.6-0.3c-0.2,2-0.7,4-1.5,5.9c-2,4.7-5.3,6.5-7.6,4.3c-1.2,9.3-5.2,18.3-10.8,22.8
				c-7.1,5.6-14.4,2.3-17.5-7.9C191.4,343,186.2,349,181,348.7L181,348.7z M180.7,248.9c0.3-0.4,0.6-0.8,0.9-1.3
				c-1.5-1.5-2.8-3.6-3.9-6.2c-0.3-0.9-0.6-1.8-0.9-2.8c0,0.1,0.1,0.1,0.1,0.2c3.4,8.5,10,11.5,14.7,7.2c4.1-3.7,5.6-11.9,4-19.3
				c1.2,3.8,1.6,7.8,1.2,11.4c1.6,0.5,3.3,0.2,4.6-1c-0.1-0.7-0.2-1.3-0.3-2c0.1,0.6,0.3,1.3,0.5,1.9c1.4-1.3,2.6-3.4,3.2-6.2
				c0.3-1.4,0.4-2.8,0.4-4.3c0.1,2.2,0,4.3-0.4,6.4c-0.5,2.4-1.4,4.3-2.5,5.7c0.3,0.6,0.7,1.2,1.1,1.8c1.8,2.3,4,2.7,5.8,1.3
				c0.1-0.4,0.1-0.7,0.2-1.1c0.4-2,1.1-3.7,1.9-4.9c-0.5,1-0.9,2.2-1.2,3.5c-0.1,0.6-0.2,1.3-0.3,1.9c0.3-0.3,0.5-0.6,0.8-1
				c0,0,0,0,0,0c-0.2,0.6-0.5,1.2-0.8,1.6c-0.5,5.6,1.3,11.2,4.2,13.3c3.3,2.3,6.8-0.6,8-6.5c0.3-1.2,0.4-2.5,0.4-3.8
				c0.1,1.9,0,3.8-0.4,5.7c-0.2,0.9-0.4,1.6-0.6,2.4c1.5-0.9,3.1-0.4,4.3,1c-1.1-1-2.5-1.2-3.8-0.3c-2.8,1.9-4.3,7.8-3.3,13.1
				c0.6,3.2,2,5.3,3.6,6c1-4,3.3-6.6,5.6-6c0.8,0.2,1.6,0.8,2.2,1.7c-0.5-0.5-1-0.8-1.5-0.9c-2.6-0.7-5.2,3.1-5.7,8.4
				c-0.1,0.7-0.1,1.3-0.1,2c1.1,0.5,2.2,1.7,2.9,3.5c0.5,1.3,0.8,2.9,0.9,4.4c-0.1-1-0.4-2-0.7-2.9c-1.6-4.2-5-4.7-7.5-1
				c-1.9,2.9-2.7,7.4-2.2,11.3c0.7,0.8,1.2,2,1.4,3.6c-0.3-1.1-0.7-2-1.2-2.6c0.2,0.9,0.4,1.7,0.7,2.4c0.4,0.9,0.9,1.6,1.4,2.1
				c-0.8-0.5-1.6-1.5-2.2-2.8c-0.3-0.7-0.6-1.5-0.8-2.4c-0.7-0.4-1.5-0.4-2.3,0.2c-1.6,1-2.8,3.5-3.1,6.2c0.5,1.6,0.7,3.4,0.6,5.4
				c-0.2,2.9-1.1,5.6-2.4,7.5c1-1.7,1.7-3.9,1.8-6.3c0.4-5-1.7-9-4.6-9c-3,0-5.7,4.2-6.2,9.3c1.4,2.5,1.7,6.5,0.5,10.1
				c-0.5,1.4-1.1,2.7-1.8,3.6c0.5-0.8,0.9-1.6,1.2-2.6c1.4-4.4,0.6-9.4-2-11.2c-0.8-0.5-1.6-0.7-2.4-0.6c0,0-0.1,0.1-0.1,0.1
				c-1.5,2.7-3.5,4.3-5.5,4.6c1.6-0.5,3.3-1.9,4.5-4.1c2.5-4.5,2.5-10.9,0-14.6c-2.6-3.7-6.9-3.1-9.7,1.5c-1.3,2.3-2,5.1-2,7.9
				c-0.2-3.3,0.6-6.8,2.2-9.6c0-0.1,0.1-0.1,0.1-0.2c-1.3-1.3-3-1.6-4.6-0.7c-0.6,5.7-4,10.5-8.1,11.1c-2.5,0.3-4.9-1-6.5-3.3
				c1.5,1.8,3.4,2.7,5.5,2.4c4.2-0.6,7.6-5.8,7.6-11.7c0-2.3-0.4-4.3-1.2-6c-0.7,0.3-1.4,0.5-2.2,0.5c-2.5,0.1-4.8-1.4-6.4-3.9
				c1.4,1.9,3.3,3,5.4,2.9c4.1-0.2,7.4-5.2,7.5-11.2c0.1-6-3.1-11.2-7.3-11.4c-2.1-0.1-4,1-5.5,2.9c1.6-2.6,4-4.1,6.5-3.9
				c1.1,0.1,2.1,0.5,3.1,1.1c1.5-1.4,2.4-3.7,2.5-6.5c0.2-4.6-2.2-8.9-5.3-9.6c-0.7-0.1-1.4-0.1-2,0.1c0.9-0.5,1.9-0.7,2.9-0.5
				C178,244.5,179.8,246.4,180.7,248.9L180.7,248.9z M182.1,248.1c-0.3,0.7-0.6,1.3-1.1,1.7c0.4,1.3,0.6,2.8,0.5,4.3
				c-0.1,3-1.2,5.6-2.8,7c2.4,2.2,4,6.2,3.9,10.7c0,4.7-1.9,8.7-4.5,10.8c0.9,1.9,1.4,4.2,1.4,6.8c0,0.2,0,0.4,0,0.5
				c1.7-0.8,3.5-0.2,4.7,1.7c3-4.7,7.6-5.2,10.3-1.2c2.4,3.5,2.7,9.3,0.9,13.9c0.8,0,1.5,0.2,2.2,0.7c0.4,0.3,0.8,0.6,1.1,1
				c0-0.1,0-0.1,0-0.2c0.4-5.8,3.5-10.5,6.8-10.5c1.8,0,3.3,1.5,4.2,3.7c0.2-2.9,1.4-5.6,3.1-6.6c0.8-0.5,1.6-0.5,2.3-0.1
				c-0.6-4.2,0.2-9.2,2.3-12.3c1.2-1.8,2.7-2.7,4-2.6c0-0.6,0-1.3,0.1-1.9c0-0.5,0.1-1,0.2-1.4c-1.9-0.5-3.7-2.9-4.4-6.7
				c-0.7-3.3-0.4-6.9,0.6-9.8c-1.4,0.9-3,0.9-4.5-0.2c-3.2-2.3-5.1-8.6-4.4-14.8c-1.6,1.7-3.9,1.5-5.6-0.7c-0.6-0.8-1.1-1.8-1.5-2.9
				c-1.6,1.7-3.6,2.4-5.6,1.8c-0.7,3.1-2.1,5.8-4,7.6C189.2,251.2,185.4,251,182.1,248.1L182.1,248.1z M148.1,227.4c0,0,0.1,0,0.1,0
				c6.1,1.3,11.3,5.9,14.6,12c-3-4.7-7.3-8.1-12.2-9.1c-10.8-2.2-20.3,8.2-20.1,23.2c0.1,14.7,9.5,26.4,20.1,26.3
				c4.8-0.1,9-2.6,12-6.5c-3.3,5.2-8.4,8.6-14.2,8.8c-5.7,5.5-8.6,15.2-6.5,24.2c2.3,10,9.8,15,17.1,12.7c0.3-0.8,0.5-1.5,0.9-2.3
				c0.6-1.4,1.4-2.7,2.2-3.9c-2.7-3.1-3.5-8.6-1.8-13.7c0.2-0.7,0.5-1.3,0.8-1.9c0,0.1,0,0.1-0.1,0.1c-1.8,5.3-0.8,11.1,2.1,14.1
				c0.4-0.5,0.9-1,1.4-1.5c-0.4,0.5-0.8,1.1-1.2,1.6c0.5,0.5,1.1,1,1.8,1.3c3.8,1.8,8-0.7,10.3-5.5c-2,5.9-6.8,9.2-11,7.3
				c-0.7-0.4-1.4-0.9-2-1.5c-0.3,0.5-0.5,1-0.8,1.6c-3.9,8.8-2.2,19,3.6,22.4c2.6,1.6,5.6,1.4,8.3-0.1c0-1.6,0.1-3.4,0.5-5.1
				c1-4.8,3.2-8.8,5.9-11.2c-2.1,2.3-3.8,5.6-4.6,9.5c-1.7,8.1,1.3,15,6.3,15.4c4.6,0.3,9.3-4.9,11-11.9c-0.2-1-0.4-2-0.6-3
				c-0.6-4.3-0.4-8.8,0.4-13.1c-0.3,3-0.2,5.9,0.1,8.8c1.8,13.1,9.8,18.3,17.5,12.4c7-5.4,11.5-18.6,10.5-30.2
				c-0.2-2.5-0.7-4.8-1.4-6.8c1.2,2.6,2.1,5.9,2.4,9.6c0.2,2.6,0.2,5.3,0,7.9c2.1,1.6,4.9-0.1,6.7-4.2c2-4.6,2-10.8,0-14
				c-1-1.6-2.3-2.1-3.7-1.8c1.6-0.7,3.3-0.2,4.5,1.7c1.4,2.2,1.9,5.7,1.5,9.2c3.7,0.8,7.5-4.5,8.9-12c1.2-6.5,0.2-13-2.2-16.2
				c-1.5,7.8-5.8,12.8-9.8,11c-0.4-0.2-0.8-0.5-1.2-0.8c0,0,0.1,0,0.1,0c4.1,1.9,8.5-3.2,10-11.3c1.3-7.2,0-14.8-3-18.3
				c2.1,1.5,3.6,4.9,4.2,8.9c0.6-2.1,1-4.5,0.9-7.1c-0.1-3.3-0.8-6.2-1.9-8.1c-0.4,1.1-1,2.1-1.6,3c-1.7,2.4-3.8,3-5.7,2
				c1.6,0.5,3.3-0.1,4.7-2.1c2.9-3.9,3.8-11.9,2.1-18c-1.2-4.3-3.4-6.7-5.6-6.8c-0.1,1.9-0.4,3.8-0.8,5.6c-0.7,2.7-1.6,4.9-2.7,6.6
				c0.7-1.3,1.3-2.9,1.7-4.7c2-8.4,0.3-19.1-4.1-24.3c-4.7-5.5-10.6-2.7-13,6.6c-0.5,2-0.8,4.1-0.9,6.3c-0.1-3.2,0.2-6.5,1-9.5
				c0.4-1.6,0.9-3.1,1.5-4.3c-1.5-5.4-4.5-9.7-8-10.8c-2.2-0.7-4.3-0.1-6,1.6c0.8,2.3,1.3,4.9,1.3,7.6c0.1,4.3-0.8,8.1-2.5,10.6
				c1.2-2.3,1.9-5.4,1.8-8.9c-0.2-7.4-3.9-14.3-8.4-15.3c-3.2-0.7-5.9,1.7-7.3,5.9c2,1.8,3.6,4.9,4.3,8.6c-1.5-5.3-5-9-8.5-8.4
				c-4.1,0.7-6.4,6.9-5.1,13.6c0,0.1,0,0.1,0,0.1c-0.2-0.6-0.4-1.3-0.5-2c-1.2-6.2,0.7-11.9,4.2-13.3c-3.3-3.8-7.6-5.6-11.5-4.2
				c-7.1,2.6-10.3,14.2-6.9,25.4c0.7,2.3,1.7,4.5,2.8,6.3c-1.9-2.4-3.4-5.4-4.5-9c-1.3-4.3-1.7-8.7-1.4-12.7
				c-3.4-2.3-7.3-1.3-9.3,2.7C145.6,218.1,146,223.3,148.1,227.4L148.1,227.4z"/>
		</g>
		<g>
			<path fill-rule="evenodd" clip-rule="evenodd" fill="#FFFFFF" d="M71.4,147.1c2.7-0.1,4.9,2.1,5.8,5.5c2.2-1.6,4.7-2.2,7.1-1.2
				c4,1.6,6,6.9,4.9,12.5c5.9-3,13,0.4,15.4,7.1c2.4,6.7,0.5,13.1-3.7,17.2c7.7,0.5,14.9,7.8,15.7,17.4c1,10.4-5.9,18.1-14.6,17.3
				c2.2,2.5,3,6.2,1.7,8.9c-1.3,2.9-4.5,3.5-7.3,1.6c-0.2,4.3-2.1,7.8-5.4,9c-3.7,1.3-7.9-0.7-10.9-4.5c-0.6,0-1.1-0.1-1.7-0.4
				c-0.5,3.5-2.7,5.7-5.5,5.3c-2-0.3-4-2-5.4-4.2c-1.2,1.5-2.8,2.3-4.7,1.8c-2.8-0.6-5.3-3.6-6.6-7.3c-1.8,3.4-5.1,4-8,1.3
				c-2.6-2.3-4.3-6.6-4.7-10.9c-1.8,0.4-3.9-1.2-5.1-4.3c-1.3-3.1-1.5-6.9-0.7-9.8c-1.1-1.1-2-3.1-2.3-5.5c-0.3-2.1,0-4.1,0.5-5.6
				c-0.3-1.7-0.5-3.5-0.3-5.3c0,0,0,0,0,0c-2.3-1.5-3.7-6-3.3-10.6c0.5-5,4.3-8.3,5.7-7.9c1.4,0.3,0.3,0.1,0.4,0.1
				c0-1.3,0.2-2.6,0.7-3.8c1.1-3.1,3.3-4.5,5.1-3.1c0.2-6,2.5-12,6.2-15.2c4.7-4,10.2-2.3,12.9,4.1
				C64.4,151.4,67.7,147.2,71.4,147.1L71.4,147.1z M49.7,193c-1,1.6-1.7,1.8-2.7,1.9c0,0.4,0.1,0.9,0.1,1.2c0,0.4,0,0.6-0.1,0.9
				c1.4,0.2,2.7,1.6,3.5,4c0.7,2,0.7,4.3,0.2,6.1c0.9-0.6,1.4-1,3.2-0.1c1.8,0.9,4.1,5.1,4,9c1-1.1,2.6-1.1,4,0.2
				c0.5,0.5,0.9,1,1.2,1.7c1-1.1,2.4-1.7,3.8-1.4c0.3-2,0.7-3.3,2.3-4.9c1.6-1.6,4.8-2,7.2-0.3c0.2-0.4,0.4-0.8,0.7-1.1
				c-0.3-0.8-0.5-1.3-0.6-2.7c-0.1-1.4,0.5-3.6,1.6-4.5c-1.8-1.3-3.2-3.7-3.4-6.5c-0.2-2.9,0.8-5.6,2.6-7.1
				c-0.7-1.1-1.2-2.6-1.4-4.2c0-0.1,0-0.2,0-0.3c-1.2,0.6-2.5,0.3-3.4-0.8c-1.9,3.2-5.2,3.5-7.2,1.3c-2-2.2-2.4-5.7-1.5-8.8
				c-0.5,0-1.2-0.1-1.6-0.3c-0.4-0.2-0.6-0.4-0.8-0.6c0,0,0-1.8,0,0.1c0,1.9-2.4,6.9-4.2,7c-1.8,0.1-2.5-0.8-3.2-2.1
				c0,1.8-1,3.8-1.8,4.3c-0.8,0.5-1.1,0.4-1.6,0.2C51.3,187.7,50.7,191.4,49.7,193L49.7,193z"/>
			<path fill-rule="evenodd" clip-rule="evenodd" d="M71.4,147.1c2.7-0.1,4.9,2.1,5.8,5.5c2.2-1.6,4.7-2.2,7.1-1.2
				c4,1.6,6,6.9,4.9,12.5c5.9-3,12.8-0.2,15.4,7.1c2.2,6.1,0.5,13.1-3.7,17.2c7.7,0.5,14.9,7.8,15.7,17.4c1,10.4-5.9,18.1-14.6,17.3
				c2.2,2.5,3,6.2,1.7,8.9c-1.3,2.9-4.5,3.5-7.3,1.6c-0.2,4.3-2.1,7.8-5.4,9c-3.7,1.3-7.9-0.7-10.9-4.5c-0.6,0-1.1-0.1-1.7-0.4
				c-0.5,3.5-2.7,5.7-5.5,5.3c-2-0.3-4-2-5.4-4.2c-1.2,1.5-2.8,2.3-4.7,1.8c-2.8-0.6-5.3-3.6-6.6-7.3c-1.8,3.4-5.1,4-8,1.3
				c-2.6-2.3-4.3-6.6-4.7-10.9c-1.8,0.4-3.9-1.2-5.1-4.3c-1.3-3.1-1.5-6.9-0.7-9.8c-1.1-1.1-2-3.1-2.3-5.5c-0.3-2.1,0-4.1,0.5-5.6
				c-0.3-1.7-0.5-3.5-0.3-5.3c0,0,0,0,0,0c-2.3-1.5-3.7-6-3.3-10.6c0.5-5,3-8.6,5.7-7.9c0.2,0,0.3,0.1,0.4,0.1
				c0-1.3,0.2-2.6,0.7-3.8c1.1-3.1,3.3-4.5,5.1-3.1c0.2-6,2.5-12,6.2-15.2c4.7-4,10.2-2.3,12.9,4.1
				C64.4,151.4,67.7,147.2,71.4,147.1L71.4,147.1z M77.5,210.7c-0.2,0.2-0.4,0.6-0.5,0.9c1.1,0.9,2.2,2.1,3.1,3.7
				c0.3,0.6,0.6,1.1,0.8,1.7c0,0,0-0.1-0.1-0.1c-2.9-5.2-7.7-6.7-10.8-3.8c-2.7,2.5-3.3,7.6-1.7,12.2c-1.1-2.3-1.6-4.8-1.5-7
				c-1.2-0.3-2.3,0-3.2,0.8c0.1,0.4,0.2,0.8,0.3,1.2c-0.1-0.4-0.3-0.8-0.5-1.1c-0.9,0.9-1.6,2.2-1.8,4c-0.1,0.9-0.1,1.8-0.1,2.7
				c-0.2-1.3-0.3-2.7-0.1-4c0.2-1.5,0.7-2.8,1.4-3.7c-0.3-0.4-0.6-0.7-0.9-1c-1.4-1.4-3-1.5-4.1-0.6c0,0.2-0.1,0.5-0.1,0.7
				c-0.2,1.3-0.6,2.3-1.1,3.2c0.3-0.6,0.5-1.4,0.6-2.2c0.1-0.4,0.1-0.8,0.1-1.2c-0.2,0.2-0.3,0.4-0.5,0.7c0,0,0,0,0,0
				c0.1-0.4,0.3-0.7,0.5-1c0-3.5-1.6-6.9-3.7-8.1c-2.4-1.3-4.7,0.7-5.2,4.4c-0.1,0.8-0.1,1.6-0.1,2.4c-0.2-1.2-0.2-2.4-0.1-3.5
				c0.1-0.5,0.2-1,0.3-1.5c-1,0.6-2.1,0.4-3.1-0.4c0.9,0.6,1.8,0.6,2.7,0c1.8-1.3,2.5-5.1,1.5-8.3c-0.6-2-1.7-3.2-2.9-3.6
				c-0.5,2.6-1.9,4.3-3.5,4c-0.6-0.1-1.1-0.4-1.6-1c0.3,0.3,0.7,0.4,1.1,0.5c1.9,0.3,3.4-2.2,3.5-5.6c0-0.4,0-0.9-0.1-1.3
				c-0.8-0.2-1.6-0.9-2.2-2.1c-0.4-0.8-0.8-1.7-0.9-2.7c0.2,0.6,0.4,1.2,0.7,1.8c1.4,2.6,3.8,2.7,5.3,0.2c1.2-1.9,1.5-4.8,0.8-7.2
				c-0.5-0.5-1-1.2-1.2-2.2c0.3,0.7,0.6,1.2,1,1.6c-0.2-0.5-0.4-1.1-0.7-1.5c-0.3-0.5-0.7-1-1.1-1.2c0.6,0.3,1.2,0.8,1.7,1.6
				c0.3,0.4,0.5,0.9,0.7,1.5c0.5,0.2,1.1,0.1,1.6-0.2c1.1-0.7,1.7-2.3,1.8-4.1c-0.4-1-0.7-2.1-0.7-3.4c0-1.9,0.4-3.6,1.2-4.9
				c-0.6,1.1-0.9,2.6-0.9,4.1c0.1,3.2,1.7,5.6,3.8,5.4c2.1-0.2,3.8-3,3.8-6.3c-1.1-1.5-1.6-4-0.9-6.4c0.2-0.9,0.6-1.8,1.1-2.4
				c-0.3,0.5-0.5,1.1-0.7,1.7c-0.7,2.9,0.2,6.1,2.1,7c0.6,0.3,1.2,0.4,1.8,0.2c0,0,0,0,0-0.1c0.9-1.8,2.2-2.9,3.6-3.2
				c-1.1,0.4-2.2,1.4-2.9,2.9c-1.5,3-1.1,7.1,0.9,9.3c2.1,2.2,5.1,1.6,6.8-1.5c0.8-1.5,1.1-3.4,1-5.1c0.3,2.1,0,4.4-1,6.2
				c0,0,0,0.1-0.1,0.1c1,0.8,2.2,0.9,3.3,0.2c0.1-3.7,2.2-6.9,5.2-7.5c1.8-0.4,3.6,0.3,4.9,1.8c-1.2-1.1-2.6-1.5-4.1-1.3
				c-3,0.6-5.1,4.1-4.8,7.9c0.1,1.4,0.6,2.7,1.2,3.8c0.5-0.2,1-0.4,1.5-0.5c1.8-0.2,3.5,0.6,4.8,2.2c-1.1-1.1-2.5-1.7-4-1.6
				c-2.9,0.3-5,3.7-4.7,7.5c0.3,3.8,2.9,6.9,5.9,6.9c1.5,0,2.8-0.8,3.7-2.1c-1,1.7-2.6,2.8-4.4,2.8c-0.8,0-1.5-0.2-2.2-0.5
				c-1,0.9-1.5,2.4-1.4,4.2c0.1,2.9,2,5.5,4.3,5.8c0.5,0.1,1,0,1.4-0.2c-0.6,0.3-1.3,0.5-2,0.4C79.6,213.4,78.3,212.3,77.5,210.7
				L77.5,210.7z M76.5,211.3c0.2-0.4,0.4-0.8,0.7-1.1c-0.3-0.8-0.6-1.7-0.6-2.7c-0.1-1.9,0.5-3.6,1.6-4.5c-1.8-1.3-3.2-3.7-3.4-6.5
				c-0.2-2.9,0.8-5.6,2.6-7.1c-0.7-1.1-1.2-2.6-1.4-4.2c0-0.1,0-0.2,0-0.3c-1.2,0.6-2.5,0.3-3.4-0.8c-1.9,3.2-5.1,3.7-7.2,1.3
				c-1.9-2.1-2.4-5.7-1.5-8.8c-0.5,0-1.1-0.1-1.6-0.3c-0.3-0.2-0.6-0.4-0.8-0.6c0,0,0,0.1,0,0.1c0.1,3.7-1.8,6.9-4.2,7
				c-1.3,0.1-2.5-0.8-3.2-2.1c0,1.8-0.7,3.6-1.8,4.3c-0.5,0.4-1.1,0.4-1.6,0.2c0.7,2.6,0.4,5.8-0.9,7.9c-0.7,1.2-1.7,1.8-2.7,1.9
				c0,0.4,0.1,0.8,0.1,1.2c0,0.3,0,0.6-0.1,0.9c1.4,0.2,2.7,1.6,3.5,4c0.7,2,0.7,4.3,0.2,6.1c0.9-0.6,2-0.7,3.2-0.1
				c2.4,1.3,4.1,5.1,4,9c1-1.1,2.6-1.1,4,0.2c0.5,0.5,0.9,1,1.2,1.7c1-1.1,2.4-1.7,3.8-1.4c0.3-2,1.1-3.7,2.3-4.9
				C71.3,209.7,74.1,209.7,76.5,211.3L76.5,211.3z M101.8,222.7C101.8,222.7,101.8,222.7,101.8,222.7c-4.5-0.5-8.4-3.2-11.2-6.8
				c2.4,2.8,5.6,4.7,9.2,5.1c7.9,0.9,14.1-6.1,13.2-15.6c-0.9-9.4-8.2-16.3-15.8-15.7c-3.4,0.3-6.3,2.1-8.2,4.7
				c2.1-3.5,5.5-5.9,9.7-6.3c3.8-3.8,5.4-10.2,3.4-15.9c-2.2-6.3-7.9-9.1-13.1-7.2c-0.1,0.5-0.3,1-0.5,1.5c-0.4,0.9-0.8,1.8-1.4,2.6
				c2.1,1.8,3,5.4,2.1,8.7c-0.1,0.4-0.3,0.9-0.5,1.3c0,0,0-0.1,0-0.1c1-3.5,0-7.1-2.3-8.9c-0.3,0.4-0.6,0.7-0.9,1
				c0.3-0.3,0.5-0.7,0.8-1.1c-0.4-0.3-0.9-0.6-1.4-0.7c-2.8-0.9-5.7,0.9-7.1,4.1c1.1-3.9,4.4-6.3,7.5-5.3c0.5,0.2,1.1,0.5,1.5,0.8
				c0.2-0.3,0.3-0.7,0.5-1.1c2.3-5.9,0.5-12.4-3.9-14.3c-2-0.8-4.1-0.6-6,0.6c0.1,1.1,0.1,2.2-0.1,3.4c-0.4,3.1-1.8,5.9-3.6,7.6
				c1.4-1.6,2.4-3.8,2.8-6.4c0.7-5.3-1.8-9.6-5.4-9.6c-3.3,0.1-6.4,3.8-7.2,8.3c0.2,0.6,0.4,1.2,0.6,1.9c0.7,2.7,0.8,5.6,0.5,8.5
				c0-1.9-0.2-3.8-0.6-5.6c-2-8.4-8.1-11.2-13.2-7c-4.7,3.9-7,12.6-5.5,19.9c0.3,1.6,0.8,3,1.4,4.3c-1-1.6-1.8-3.6-2.3-6
				c-0.3-1.6-0.5-3.3-0.5-5c-1.6-0.9-3.5,0.3-4.4,3c-1.1,3-0.7,7,0.9,8.9c0.8,0.9,1.7,1.2,2.7,0.9c-1.1,0.5-2.3,0.3-3.2-0.9
				c-1.1-1.3-1.7-3.5-1.7-5.7c-2.6-0.3-5,3.2-5.4,8c-0.4,4.1,0.7,8.2,2.6,10.1c0.5-5,3.2-8.4,6.1-7.4c0.3,0.1,0.6,0.3,0.9,0.5
				c0,0,0,0-0.1,0c-3-1-5.7,2.4-6.3,7.6c-0.5,4.6,0.9,9.2,3.3,11.3c-1.6-0.9-2.8-2.9-3.5-5.3c-0.3,1.3-0.4,2.9-0.2,4.5
				c0.3,2.1,0.9,3.8,1.8,5c0.2-0.7,0.5-1.4,0.9-1.9c1-1.6,2.4-2,3.8-1.5c-1.2-0.3-2.3,0.2-3.2,1.5c-1.8,2.6-1.9,7.6-0.3,11.3
				c1.1,2.6,2.8,4,4.3,3.9c0-1.2,0-2.4,0.2-3.5c0.3-1.7,0.8-3.1,1.5-4.2c-0.4,0.9-0.7,1.9-0.9,3c-0.9,5.3,1,11.8,4.3,14.8
				c3.6,3.2,7.5,1.2,8.6-4.6c0.2-1.3,0.3-2.6,0.3-3.9c0.3,2,0.2,4-0.1,5.9c-0.2,1-0.5,1.9-0.8,2.7c1.4,3.2,3.7,5.7,6.2,6.3
				c1.6,0.3,3-0.1,4.1-1.2c-0.7-1.4-1.2-3-1.4-4.6c-0.3-2.7,0.1-5,1.1-6.6c-0.7,1.4-1,3.4-0.7,5.6c0.6,4.6,3.6,8.6,6.8,9.1
				c2.3,0.3,4.1-1.3,4.8-3.9c-1.5-1-2.8-2.9-3.5-5.1c1.3,3.2,4,5.3,6.5,4.8c2.8-0.6,4.1-4.5,2.9-8.6c0,0,0,0,0-0.1
				c0.2,0.4,0.3,0.8,0.5,1.2c1.2,3.8,0.2,7.4-2.2,8.4c2.6,2.2,5.6,3.2,8.4,2.1c4.9-1.9,6.6-9.2,3.5-16.1c-0.6-1.4-1.4-2.7-2.3-3.8
				c1.5,1.4,2.8,3.2,3.7,5.4c1.2,2.6,1.7,5.3,1.6,7.8c2.5,1.2,5.3,0.5,6.5-2.1C104.1,228.4,103.5,225.1,101.8,222.7L101.8,222.7z"/>
		</g>
		<g>
			<path fill-rule="evenodd" clip-rule="evenodd" fill="#FFFFFF" d="M248.1,213.5c-1.2-1.2-2-3.3-2.2-5.5c-0.9,0.2-1.8-0.4-2.5-1.6
				c-1.2-2-1.7-5.1-1.2-7.7c-1.7,0.3-3.3-2.5-3.7-5.7c-0.4-3.2,0.1-5.8,1.1-7.5c-1.7-0.5-2.9-3.8-2.9-7.7c0-4.3,1.3-8.2,3.2-8.8
				c-0.5-0.9-0.6-2.6-0.3-4.1c0.4-1.7,1.2-2.6,1.9-2.2c0.1-2.3,0.8-4.7,1.8-6.3c1.2-2,2.7-2.2,3.8-0.8c0.2-0.2,0.5-0.3,0.7-0.3
				c0.3-2.6,1.4-5.1,2.8-6.1c1.1-0.8,2.1-0.6,2.8,0.5c0.8-1.9,1.9-3.5,3.2-4.3c2-1.3,3.9-0.3,4.9,2.4c2-4.8,5.4-8.4,8.7-8.2
				c3.3,0.2,5.4,3.9,5.6,9c3.1-2.2,6.6-2.1,8.7,1.1c2.3,3.4,2.2,9,0.2,13.8c2.2,1,3.9,3.5,4.2,7c0.3,3.1-0.6,6.1-2.1,8.5
				c0.5,2.4,0.5,5.1-0.2,7.7c0,0,0,0,0,0c5.2,2.7,8.1,10.2,6.1,17c-2.1,7-10.8,8.1-13.5,6.5c-2.7-1.7-0.5-0.3-0.7-0.5
				c-0.2,1.5-0.7,2.9-1.6,4c-2.1,2.6-5.4,2.2-7.6-0.6c-0.8,5.9-3.8,9.7-7.7,9.4c-4.1-0.4-7.7-5.3-9.1-11.3
				C251.7,214.2,249.8,215.2,248.1,213.5L248.1,213.5z M265.1,185.2c1.2-1.5,2-1.8,3.2-1.8c0-0.4,0-0.9,0-1.3c0-0.4,0.1-0.7,0.1-1
				c-1.6-0.2-3-1.6-3.6-3.9c-0.5-2-0.4-4.3,0.3-6.2c-1,0.8-1.6,1.3-3.1,0.8c-1.5-0.5-3.2-3.8-2.9-7.3c-0.9,1.3-2.1,1.8-3,1
				c-0.3-0.2-0.6-0.6-0.8-1.1c-0.7,1.2-1.6,2-2.5,2.1c-0.3,1.6-0.6,2.8-1.5,4.2c-0.9,1.4-2.4,2.1-3.5,1.3c-0.1,0.3-0.2,0.6-0.3,0.8
				c0.1,0.5,0.2,0.7,0.2,1.7c0,0.9-0.3,2.3-0.8,3c0.7,0.7,1.3,2.3,1.3,4.1c0,1.9-0.5,3.6-1.3,4.4c0.3,0.8,0.4,1.7,0.5,2.7
				c0,0.1,0,0.1,0,0.2c0.5-0.3,1.1,0.1,1.5,0.9c1-1.9,2.7-1.8,3.8,0.1c1.1,1.9,1.2,4.7,0.5,6.7c0.3,0.1,0.7,0.4,1,0.7
				c0.2,0.3,0.3,0.4,0.5,0.7c0,0-0.1,1.4,0-0.1c0.1-1.4,1.9-4.8,3.3-4.5c1.4,0.3,1.9,1.2,2.5,2.6c0.1-1.6,1.1-3.1,1.8-3.4
				c0.8-0.3,1.1-0.1,1.6,0.2C263.1,190.1,263.9,186.7,265.1,185.2L265.1,185.2z"/>
			<path fill-rule="evenodd" clip-rule="evenodd" d="M248.1,213.5c-1.2-1.2-2-3.3-2.2-5.5c-0.9,0.2-1.8-0.4-2.5-1.6
				c-1.2-2-1.7-5.1-1.2-7.7c-1.7,0.3-3.2-2.1-3.7-5.7c-0.4-2.9,0.1-5.8,1.1-7.5c-1.7-0.5-2.9-3.8-2.9-7.7c0-4.3,1.3-8.2,3.2-8.8
				c-0.5-0.9-0.6-2.6-0.3-4.1c0.4-1.7,1.2-2.6,1.9-2.2c0.1-2.3,0.8-4.7,1.8-6.3c1.2-2,2.7-2.2,3.8-0.8c0.2-0.2,0.5-0.3,0.7-0.3
				c0.3-2.6,1.4-5.1,2.8-6.1c1.1-0.8,2.1-0.6,2.8,0.5c0.8-1.9,1.9-3.5,3.2-4.3c2-1.3,3.9-0.3,4.9,2.4c2-4.8,5.4-8.4,8.7-8.2
				c3.3,0.2,5.4,3.9,5.6,9c3.1-2.2,6.6-2.1,8.7,1.1c2.3,3.4,2.3,9,0.2,13.8c2.2,1,3.9,3.5,4.2,7c0.3,3.1-0.6,6.1-2.1,8.5
				c0.5,2.4,0.5,5.1-0.2,7.7c0,0,0,0,0,0c5.2,2.7,8.1,10.2,6.1,17c-2.1,7-8.3,9.7-13.5,6.5c-0.3-0.2-0.5-0.3-0.7-0.5
				c-0.2,1.5-0.7,2.9-1.6,4c-2.1,2.6-5.4,2.2-7.6-0.6c-0.8,5.9-3.8,9.7-7.7,9.4c-4.1-0.4-7.7-5.3-9.1-11.3
				C251.7,214.2,249.8,215.2,248.1,213.5L248.1,213.5z M247.3,172.5c0.1-0.2,0.2-0.4,0.3-0.6c-0.5-0.4-0.9-1.1-1.2-1.9
				c-0.1-0.3-0.2-0.6-0.3-0.9c0,0,0,0,0,0.1c1,2.9,3.1,3.3,4.8,0.7c1.6-2.4,2.1-6.5,1.4-9.6c0.5,1.4,0.7,3.2,0.6,5
				c0.7-0.1,1.4-0.7,2-1.6c-0.1-0.3-0.1-0.6-0.2-0.9c0.1,0.3,0.2,0.5,0.3,0.8c0.7-1,1.2-2.4,1.5-4c0.1-0.8,0.2-1.6,0.2-2.3
				c0.1,1.1,0.1,2.2-0.1,3.4c-0.2,1.4-0.7,2.6-1.2,3.6c0.2,0.2,0.3,0.4,0.5,0.6c1,0.7,2.1,0.4,3.1-0.8c0-0.2,0.1-0.4,0.1-0.7
				c0.2-1.2,0.6-2.3,1.1-3.3c-0.3,0.7-0.5,1.5-0.7,2.3c-0.1,0.4-0.1,0.8-0.2,1.2c0.2-0.2,0.3-0.5,0.4-0.8c0,0,0,0,0,0
				c-0.1,0.4-0.3,0.8-0.5,1.1c-0.2,3.2,0.9,5.9,2.8,6.5c2.3,0.7,4.9-2,5.8-6.2c0.2-0.9,0.3-1.8,0.3-2.7c0.1,1.2,0.1,2.5-0.2,3.9
				c-0.1,0.6-0.3,1.2-0.5,1.7c1.3-1,2.7-1.2,3.9-0.7c-1.1-0.3-2.3-0.1-3.4,0.9c-2.2,1.9-3.2,6-2.4,9.1c0.5,2,1.7,3.2,3,3.5
				c0.8-2.9,2.8-5,5.1-4.9c0.9,0,1.7,0.3,2.4,0.9c-0.5-0.3-1.1-0.4-1.7-0.4c-2.7,0-5,3-5.3,6.7c0,0.5-0.1,0.9,0,1.4
				c1,0.3,2,1.1,2.8,2.5c0.5,1,0.9,2.1,1,3.3c-0.2-0.8-0.4-1.5-0.8-2.2c-1.7-3-4.6-3.3-6.5-0.9c-1.4,1.8-1.9,4.5-1.4,7
				c0.5,0.6,0.9,1.5,1.1,2.5c-0.2-0.8-0.6-1.4-1-1.8c0.1,0.6,0.3,1.1,0.6,1.7c0.3,0.6,0.7,1.1,1.1,1.6c-0.6-0.5-1.2-1.2-1.7-2.1
				c-0.3-0.5-0.5-1-0.6-1.6c-0.5-0.3-1.1-0.4-1.6-0.2c-1,0.4-1.7,1.7-1.8,3.2c0.3,1,0.5,2.1,0.4,3.3c-0.1,1.7-0.6,3-1.4,3.8
				c0.6-0.7,1-1.8,1-3.2c0.1-2.8-1.1-5.4-2.8-5.8c-1.5-0.4-2.8,1.4-3,4c0.7,1.5,0.9,3.6,0.3,5.2c-0.2,0.6-0.5,1.1-0.8,1.4
				c0.2-0.3,0.4-0.6,0.5-1c0.6-2,0.2-4.7-1-6c-0.3-0.4-0.7-0.6-1.1-0.7c0,0,0,0,0,0.1c-0.6,1.1-1.4,1.5-2.1,1.3
				c0.6,0,1.2-0.4,1.7-1.2c1-1.8,0.9-4.9-0.2-6.9c-1-1.9-2.6-1.8-3.5,0c-0.4,0.9-0.6,2-0.6,3.1c-0.1-1.4,0.1-2.8,0.7-3.8
				c0,0,0-0.1,0-0.1c-0.4-0.6-1-0.8-1.5-0.5c-0.1,2.3-1.1,3.9-2.2,3.8c-0.6-0.1-1.2-0.7-1.6-1.7c0.4,0.7,0.8,1.2,1.4,1.3
				c1.1,0.1,2-1.7,2-4.1c0-0.9-0.1-1.7-0.4-2.4c-0.2,0.1-0.4,0.2-0.6,0.2c-0.7,0-1.3-0.6-1.7-1.5c0.4,0.7,0.8,1.1,1.4,1.1
				c1.2,0,2.1-2,2.1-4.4c0-2.4-1-4.3-2.2-4.1c-0.5,0.1-1,0.6-1.4,1.4c0.4-1,1-1.7,1.6-1.8c0.3,0,0.6,0,0.9,0.2
				c0.4-0.6,0.7-1.6,0.7-2.8c0-1.9-0.7-3.3-1.6-3.1c-0.2,0-0.4,0.1-0.5,0.3c0.2-0.3,0.5-0.5,0.8-0.5
				C246.5,171.1,247,171.6,247.3,172.5L247.3,172.5z M247.8,172c-0.1,0.3-0.2,0.6-0.3,0.8c0.1,0.5,0.2,1.1,0.2,1.7
				c0,1.2-0.3,2.3-0.8,3c0.7,0.7,1.3,2.3,1.3,4.1c0,1.9-0.5,3.6-1.3,4.4c0.3,0.8,0.5,1.7,0.5,2.7c0,0.1,0,0.1,0,0.2
				c0.5-0.3,1.1,0.1,1.5,0.9c1-1.9,2.7-1.9,3.8,0.1c1,1.8,1.2,4.7,0.5,6.7c0.3,0.1,0.7,0.3,1,0.7c0.2,0.2,0.3,0.4,0.5,0.7
				c0,0,0-0.1,0-0.1c0.1-2.9,1.6-4.9,3.3-4.5c1,0.2,1.9,1.2,2.5,2.6c0.1-1.6,0.8-3,1.8-3.4c0.5-0.2,1.1-0.1,1.6,0.2
				c-0.5-2.6,0-5.6,1.5-7.6c0.9-1.2,2-1.8,3.2-1.8c0-0.4,0-0.9,0-1.3c0-0.3,0.1-0.7,0.1-1c-1.6-0.2-3-1.6-3.6-3.9
				c-0.5-2-0.4-4.3,0.3-6.2c-1,0.8-2.1,1.2-3.1,0.8c-2-0.7-3.2-3.8-2.9-7.3c-0.9,1.3-2.1,1.8-3,1c-0.3-0.2-0.6-0.6-0.8-1.1
				c-0.7,1.2-1.6,2-2.5,2.1c-0.3,1.6-0.8,3.1-1.5,4.2C250.1,172.4,248.8,172.8,247.8,172L247.8,172z M239.8,168.9
				C239.8,168.9,239.8,168.9,239.8,168.9c1.1-0.3,2.2,0.5,2.9,2.2c-0.7-1.2-1.5-1.8-2.4-1.6c-1.8,0.5-3.1,4.2-3.1,8.2
				c0,4,1.4,7.2,3.2,7.2c0.9,0,1.7-0.8,2.4-2.2c-0.7,1.8-1.7,2.9-2.8,2.9c-0.9,1.6-1.4,4.4-1,7.1c0.4,3.2,1.7,5.4,3.2,5.4
				c0.1-0.2,0.1-0.5,0.2-0.7c0.1-0.4,0.3-0.8,0.5-1.1c-0.6-1.3-0.8-3.3-0.4-4.9c0-0.2,0.1-0.4,0.2-0.6c0,0,0,0,0,0
				c-0.4,1.7-0.1,3.8,0.5,5.1c0.1-0.1,0.2-0.3,0.3-0.4c-0.1,0.1-0.2,0.3-0.3,0.5c0.1,0.2,0.3,0.5,0.4,0.6c0.9,1.1,2,0.6,2.6-1
				c-0.5,2.1-1.7,2.7-2.8,1.5c-0.2-0.2-0.3-0.5-0.5-0.7c-0.1,0.1-0.1,0.3-0.2,0.5c-0.8,2.6-0.4,6.3,0.9,8.5c0.6,1.1,1.4,1.6,2.1,1.6
				c0-0.6,0-1.3,0.1-1.9c0.2-1.7,0.9-2.9,1.7-3.5c-0.6,0.6-1.1,1.6-1.3,3c-0.4,2.9,0.5,6.3,2,7.8c1.6,1.5,3.3,0.6,3.9-2.2
				c-0.1-0.5-0.2-1.1-0.3-1.6c-0.3-2.2-0.3-4.2,0-6.1c-0.1,1.3,0,2.7,0.1,4.2c0.9,6.8,4.7,12.6,9,12.8c4.9,0.2,8.3-6.5,7.1-15
				c-0.3-1.8-0.7-3.5-1.3-5c1.1,2.1,1.9,4.5,2.2,7.2c0.3,1.9,0.3,3.8,0.1,5.5c2,2.2,4.8,2.4,6.6,0.1c2.1-2.8,1.9-7.8-0.5-11
				c-1.1-1.5-2.5-2.2-3.8-2.3c1.6-0.1,3.3,0.7,4.7,2.5c1.6,2.2,2.4,5.2,2.1,8c4.9,2.5,10.5-0.2,12.4-6.8c1.8-6-0.3-12.6-4.4-15.8
				c-2,6.9-7.5,10.3-12.1,8c-0.5-0.2-0.9-0.5-1.3-0.8c0,0,0.1,0,0.1,0c4.6,2.2,10-1.2,11.8-8.2c1.7-6.5-0.6-13-4.9-15.1
				c2.9,0.7,5.2,3.2,6.3,6.6c0.9-2,1.3-4.3,1.1-6.7c-0.3-3-1.5-5.2-3.2-6.5c-0.6,1.2-1.3,2.2-2.1,3.2c-2.2,2.5-4.7,3.6-6.8,3.4
				c1.8,0,3.8-1,5.5-3.1c3.8-4.5,4.9-11.9,2.1-16c-1.8-2.7-4.6-3-7.2-1.6c-0.1,1.5-0.3,3.1-0.7,4.7c-0.6,2.3-1.5,4.4-2.6,6.1
				c0.6-1.3,1.2-2.7,1.6-4.2c1.9-7.4-0.2-14-4.5-14.4c-3.9-0.4-7.9,4.8-9.3,11.1c-0.3,1.3-0.4,2.6-0.4,3.8c-0.1-1.7,0-3.6,0.5-5.6
				c0.2-1.1,0.5-2.1,0.9-3.1c-1-2.2-2.7-3-4.6-1.8c-1.1,0.7-2,1.9-2.8,3.4c0.4,0.8,0.6,1.8,0.7,3.1c0.1,2-0.3,4.1-1,5.8
				c0.5-1.4,0.8-3.2,0.7-4.8c-0.2-3.4-1.8-5.1-3.5-3.9c-1.1,0.8-2,2.7-2.4,4.8c0.7,0.1,1.2,0.9,1.5,2.3c-0.5-1.8-1.7-2.2-2.7-1
				c-1.1,1.3-1.7,4.1-1.4,6.3c0,0,0,0,0,0.1c-0.1-0.2-0.1-0.4-0.1-0.6c-0.3-2,0.1-4.5,1.1-5.9c-0.9-0.5-2-0.1-2.9,1.3
				c-1.5,2.4-2.1,6.6-1.4,9.7c0.2,0.7,0.4,1.2,0.6,1.7c-0.4-0.6-0.7-1.3-1-2.3c-0.3-1.2-0.4-2.5-0.3-3.8c-0.7-0.1-1.3,0.8-1.7,2.3
				C239.4,166.4,239.5,167.9,239.8,168.9L239.8,168.9z"/>
		</g>
		<g>
			
				<path fill-rule="evenodd" clip-rule="evenodd" fill="none" stroke="#000000" stroke-width="0.5669" stroke-linecap="round" stroke-linejoin="round" stroke-miterlimit="2.4142" d="
				M245.3,262.9c-20.1,2-41.5,3-63.5,2.8"/>
			
				<path fill-rule="evenodd" clip-rule="evenodd" fill="none" stroke="#000000" stroke-width="0.5669" stroke-linecap="round" stroke-linejoin="round" stroke-miterlimit="2.4142" d="
				M338.3,241.2c-20.1,9.8-52.4,17.7-93,21.7"/>
			
				<path fill-rule="evenodd" clip-rule="evenodd" fill="none" stroke="#000000" stroke-width="0.5669" stroke-linecap="round" stroke-linejoin="round" stroke-miterlimit="2.4142" d="
				M352.1,203.7c7.4,5.9,10.1,12.1,8.1,18.3c-2.1,6.7-9.5,13.2-22,19.2"/>
			
				<path fill-rule="evenodd" clip-rule="evenodd" fill="none" stroke="#000000" stroke-width="0.5669" stroke-linecap="round" stroke-linejoin="round" stroke-miterlimit="2.4142" d="
				M223.8,174.3c14,0.6,27.8,1.8,40.8,3.4 M286.7,180.9c1.3,0.2,2.7,0.5,4,0.7"/>
			
				<path fill-rule="evenodd" clip-rule="evenodd" fill="none" stroke="#000000" stroke-width="0.5669" stroke-linecap="round" stroke-linejoin="round" stroke-miterlimit="2.4142" d="
				M132.3,177.2c14.7-1.6,30.6-2.8,47.3-3.3"/>
			
				<path fill-rule="evenodd" clip-rule="evenodd" fill="none" stroke="#000000" stroke-width="0.5669" stroke-linecap="round" stroke-linejoin="round" stroke-miterlimit="2.4142" d="
				M70.9,188.9c1.7-0.5,3.4-1,5.1-1.4 M104.7,181.2c8.8-1.5,18.1-2.9,27.6-3.9"/>
			
				<path fill-rule="evenodd" clip-rule="evenodd" fill="none" stroke="#000000" stroke-width="0.5669" stroke-linecap="round" stroke-linejoin="round" stroke-miterlimit="2.4142" d="
				M26.6,228.6c-4.2-7-2.3-14.2,5.5-21.2"/>
			
				<path fill-rule="evenodd" clip-rule="evenodd" fill="none" stroke="#000000" stroke-width="0.5669" stroke-linecap="round" stroke-linejoin="round" stroke-miterlimit="2.4142" d="
				M76.2,253.9C49,247,32.3,238,26.6,228.6"/>
			
				<path fill-rule="evenodd" clip-rule="evenodd" fill="none" stroke="#000000" stroke-width="0.5669" stroke-linecap="round" stroke-linejoin="round" stroke-miterlimit="2.4142" d="
				M146.3,185.8c10.4-0.9,21.4-1.6,32.8-2"/>
			
				<path fill-rule="evenodd" clip-rule="evenodd" fill="none" stroke="#000000" stroke-width="0.5669" stroke-linecap="round" stroke-linejoin="round" stroke-miterlimit="2.4142" d="
				M179.1,183.9c15-0.5,29.7-0.3,43.7,0.3c14.1,0.7,27.8,1.9,40.7,3.6 M292.1,192.8c6.8,1.5,13.3,3.2,19.3,5
				c14.6,4.5,26.6,10.1,33.7,16.6c11.2,10.3,8.8,21.1-6.1,31.2c-17.1,11.5-49.4,21.1-92.2,26.2c-20.4,2.4-42.3,3.7-65,3.6
				 M136.3,273.4c-9.3-0.8-18.1-1.9-26.5-3.1c-13.9-2.1-26.2-4.7-36.9-7.8c-25.1-7.2-39.9-16.5-43.4-26.3
				c-2.1-5.8-0.1-11.9,5.8-17.7c6-6,15.7-11.3,27.7-15.8c3.7-1.4,7.7-2.7,11.9-4 M107.3,191.1l0.7-0.1"/>
			
				<path fill-rule="evenodd" clip-rule="evenodd" fill="none" stroke="#000000" stroke-width="0.5669" stroke-linecap="round" stroke-linejoin="round" stroke-miterlimit="2.4142" d="
				M147.2,181.5c10.8-1,22.2-1.6,33.9-2"/>
			
				<path fill-rule="evenodd" clip-rule="evenodd" fill="none" stroke="#000000" stroke-width="0.5669" stroke-linecap="round" stroke-linejoin="round" stroke-miterlimit="2.4142" d="
				M107.3,186.6c12.4-2.1,25.8-3.8,39.9-5"/>
			
				<path fill-rule="evenodd" clip-rule="evenodd" fill="none" stroke="#000000" stroke-width="0.5669" stroke-linecap="round" stroke-linejoin="round" stroke-miterlimit="2.4142" d="
				M59.7,198.4c4.8-1.7,9.9-3.3,15.4-4.8 M101.3,187.6c2-0.4,4-0.7,6-1.1"/>
			
				<path fill-rule="evenodd" clip-rule="evenodd" fill="none" stroke="#000000" stroke-width="0.5669" stroke-linecap="round" stroke-linejoin="round" stroke-miterlimit="2.4142" d="
				M20.1,233.5c-1.3-6.3,1.6-12.7,8.7-18.9"/>
			
				<path fill-rule="evenodd" clip-rule="evenodd" fill="none" stroke="#000000" stroke-width="0.5669" stroke-linecap="round" stroke-linejoin="round" stroke-miterlimit="2.4142" d="
				M64.1,263.2c-26.9-8.4-41.7-18.9-44-29.7"/>
			
				<path fill-rule="evenodd" clip-rule="evenodd" fill="none" stroke="#000000" stroke-width="0.5669" stroke-linecap="round" stroke-linejoin="round" stroke-miterlimit="2.4142" d="
				M105,272.4c-15.6-2.5-29.3-5.7-40.9-9.3"/>
			
				<path fill-rule="evenodd" clip-rule="evenodd" fill="none" stroke="#000000" stroke-width="0.5669" stroke-linecap="round" stroke-linejoin="round" stroke-miterlimit="2.4142" d="
				M260.9,274.9c-24.9,3.1-52.3,4.5-80.7,3.9"/>
			
				<path fill-rule="evenodd" clip-rule="evenodd" fill="none" stroke="#000000" stroke-width="0.5669" stroke-linecap="round" stroke-linejoin="round" stroke-miterlimit="2.4142" d="
				M361.1,244.8c-16.8,13.2-51.9,24.4-100.1,30.2"/>
			
				<path fill-rule="evenodd" clip-rule="evenodd" fill="none" stroke="#000000" stroke-width="0.5669" stroke-linecap="round" stroke-linejoin="round" stroke-miterlimit="2.4142" d="
				M286.3,185.8c12.5,2.1,24.3,4.6,34.9,7.6c16.5,4.6,30.6,10.4,39.8,17.3"/>
			
				<path fill-rule="evenodd" clip-rule="evenodd" fill="none" stroke="#000000" stroke-width="0.5669" stroke-linecap="round" stroke-linejoin="round" stroke-miterlimit="2.4142" d="
				M181.1,179.5c15.6-0.5,30.8-0.3,45.4,0.3c14.1,0.6,27.9,1.8,41.1,3.3"/>
			
				<path fill-rule="evenodd" clip-rule="evenodd" fill="none" stroke="#000000" stroke-width="0.5669" stroke-linecap="round" stroke-linejoin="round" stroke-miterlimit="2.4142" d="
				M147.7,176.1c11.1-1,22.8-1.7,34.9-2.1"/>
			
				<path fill-rule="evenodd" clip-rule="evenodd" fill="none" stroke="#000000" stroke-width="0.5669" stroke-linecap="round" stroke-linejoin="round" stroke-miterlimit="2.4142" d="
				M56.9,193.8c6-2.1,12.4-4.1,19.3-5.9 M104.5,181.7c0.7-0.1,1.3-0.2,2-0.4"/>
			
				<path fill-rule="evenodd" clip-rule="evenodd" fill="none" stroke="#000000" stroke-width="0.5669" stroke-linecap="round" stroke-linejoin="round" stroke-miterlimit="2.4142" d="
				M12.4,232c-0.7-7,3.1-14,11.1-20.8"/>
			
				<path fill-rule="evenodd" clip-rule="evenodd" fill="none" stroke="#000000" stroke-width="0.5669" stroke-linecap="round" stroke-linejoin="round" stroke-miterlimit="2.4142" d="
				M56.4,265.7C28.3,256,13.7,244,12.4,232"/>
			
				<path fill-rule="evenodd" clip-rule="evenodd" fill="none" stroke="#000000" stroke-width="0.5669" stroke-linecap="round" stroke-linejoin="round" stroke-miterlimit="2.4142" d="
				M99.9,276.6c-16.7-3-31.3-6.7-43.5-10.9"/>
			
				<path fill-rule="evenodd" clip-rule="evenodd" fill="none" stroke="#000000" stroke-width="0.5669" stroke-linecap="round" stroke-linejoin="round" stroke-miterlimit="2.4142" d="
				M269.7,280.1c-28.1,3.7-59.2,5.2-91.2,4.2"/>
			
				<path fill-rule="evenodd" clip-rule="evenodd" fill="none" stroke="#000000" stroke-width="0.5669" stroke-linecap="round" stroke-linejoin="round" stroke-miterlimit="2.4142" d="
				M380.3,223.4c5.5,34.6-58.4,50-110.6,56.7"/>
			
				<path fill-rule="evenodd" clip-rule="evenodd" fill="none" stroke="#000000" stroke-width="0.5669" stroke-linecap="round" stroke-linejoin="round" stroke-miterlimit="2.4142" d="
				M286.6,179.9c14.8,2.3,29,5.2,41.7,8.8c17.7,5,33.1,11.2,43.5,18.7"/>
			
				<path fill-rule="evenodd" clip-rule="evenodd" fill="none" stroke="#000000" stroke-width="0.5669" stroke-linecap="round" stroke-linejoin="round" stroke-miterlimit="2.4142" d="
				M182.6,174c15.9-0.5,31.6-0.4,46.7,0.3c11.9,0.5,23.7,1.4,35.1,2.7"/>
			
				<path fill-rule="evenodd" clip-rule="evenodd" fill="none" stroke="#000000" stroke-width="0.5669" stroke-linecap="round" stroke-linejoin="round" stroke-miterlimit="2.4142" d="
				M132.2,192.6c10.2-0.8,20.8-1.4,31.9-1.6"/>
			
				<path fill-rule="evenodd" clip-rule="evenodd" fill="none" stroke="#000000" stroke-width="0.5669" stroke-linecap="round" stroke-linejoin="round" stroke-miterlimit="2.4142" d="
				M52.7,206.8c6.7-2.3,14.5-4.4,22.9-6.2"/>
			
				<path fill-rule="evenodd" clip-rule="evenodd" fill="none" stroke="#000000" stroke-width="0.5669" stroke-linecap="round" stroke-linejoin="round" stroke-miterlimit="2.4142" d="
				M25.3,233.7c-2.8-4.6-1.9-9.3,2.9-14.1"/>
			
				<path fill-rule="evenodd" clip-rule="evenodd" fill="none" stroke="#000000" stroke-width="0.5669" stroke-linecap="round" stroke-linejoin="round" stroke-miterlimit="2.4142" d="
				M68.2,253.6c-23.6-5.3-38.3-12.4-43-19.8"/>
			
				<path fill-rule="evenodd" clip-rule="evenodd" fill="none" stroke="#000000" stroke-width="0.5669" stroke-linecap="round" stroke-linejoin="round" stroke-miterlimit="2.4142" d="
				M102,259.2c-12.6-1.5-23.9-3.4-33.7-5.6"/>
			
				<path fill-rule="evenodd" clip-rule="evenodd" fill="none" stroke="#000000" stroke-width="0.5669" stroke-linecap="round" stroke-linejoin="round" stroke-miterlimit="2.4142" d="
				M223.9,260c-13.8,1.3-28.4,2.2-43.5,2.5"/>
			
				<path fill-rule="evenodd" clip-rule="evenodd" fill="none" stroke="#000000" stroke-width="0.5669" stroke-linecap="round" stroke-linejoin="round" stroke-miterlimit="2.4142" d="
				M321.4,214.5c8.6,8.1,2.6,18.6-12.4,26.2"/>
			
				<path fill-rule="evenodd" clip-rule="evenodd" fill="none" stroke="#000000" stroke-width="0.5669" stroke-linecap="round" stroke-linejoin="round" stroke-miterlimit="2.4142" d="
				M292.9,200.8c12.3,3.7,23.2,8.7,28.5,13.7"/>
			
				<path fill-rule="evenodd" clip-rule="evenodd" fill="none" stroke="#000000" stroke-width="0.5669" stroke-linecap="round" stroke-linejoin="round" stroke-miterlimit="2.4142" d="
				M106.7,190.7c7.4-1.1,15.1-2,23.1-2.8c12.9-1.2,26.7-2.1,41.1-2.5"/>
			
				<path fill-rule="evenodd" clip-rule="evenodd" fill="none" stroke="#000000" stroke-width="0.5669" stroke-linecap="round" stroke-linejoin="round" stroke-miterlimit="2.4142" d="
				M33.9,214.5c5-4.7,13.3-9,23.9-12.7c5.1-1.8,10.8-3.4,16.9-5"/>
			
				<path fill-rule="evenodd" clip-rule="evenodd" fill="none" stroke="#000000" stroke-width="0.5669" stroke-linecap="round" stroke-linejoin="round" stroke-miterlimit="2.4142" d="
				M130,257.9c-6.3-0.5-12.4-1-18.2-1.7"/>
			
				<path fill-rule="evenodd" clip-rule="evenodd" fill="none" stroke="#000000" stroke-width="0.5669" stroke-linecap="round" stroke-linejoin="round" stroke-miterlimit="2.4142" d="
				M330.6,228c-6.4,7.7-22.6,14.9-46.9,20.6"/>
			
				<path fill-rule="evenodd" clip-rule="evenodd" fill="none" stroke="#000000" stroke-width="0.5669" stroke-linecap="round" stroke-linejoin="round" stroke-miterlimit="2.4142" d="
				M328.6,211.4c6.1,5.5,6.7,11.2,2,16.7"/>
			
				<path fill-rule="evenodd" clip-rule="evenodd" fill="none" stroke="#000000" stroke-width="0.5669" stroke-linecap="round" stroke-linejoin="round" stroke-miterlimit="2.4142" d="
				M143.5,177.2c11.6-1,24-1.8,36.8-2.1"/>
			
				<path fill-rule="evenodd" clip-rule="evenodd" fill="none" stroke="#000000" stroke-width="0.5669" stroke-linecap="round" stroke-linejoin="round" stroke-miterlimit="2.4142" d="
				M104.4,182.2c12.1-2.1,25.3-3.8,39.1-5.1"/>
			
				<path fill-rule="evenodd" clip-rule="evenodd" fill="none" stroke="#000000" stroke-width="0.5669" stroke-linecap="round" stroke-linejoin="round" stroke-miterlimit="2.4142" d="
				M34.8,207.1c4.9-4.5,12.2-8.5,21.1-12.1c6-2.4,12.9-4.6,20.3-6.7"/>
			
				<path fill-rule="evenodd" clip-rule="evenodd" fill="none" stroke="#000000" stroke-width="0.5669" stroke-linecap="round" stroke-linejoin="round" stroke-miterlimit="2.4142" d="
				M103.3,254.8c-31-4.9-53.2-12.3-65.1-20.6"/>
			
				<path fill-rule="evenodd" clip-rule="evenodd" fill="none" stroke="#000000" stroke-width="0.5669" stroke-linecap="round" stroke-linejoin="round" stroke-miterlimit="2.4142" d="
				M263.4,256.2c-25.6,3.4-54.3,5.1-84.3,4.7"/>
			
				<path fill-rule="evenodd" clip-rule="evenodd" fill="none" stroke="#000000" stroke-width="0.5669" stroke-linecap="round" stroke-linejoin="round" stroke-miterlimit="2.4142" d="
				M348.8,230.9c-14.6,10.7-44.5,19.9-85.4,25.3"/>
			
				<path fill-rule="evenodd" clip-rule="evenodd" fill="none" stroke="#000000" stroke-width="0.5669" stroke-linecap="round" stroke-linejoin="round" stroke-miterlimit="2.4142" d="
				M309.6,186.4c18,4.5,32.8,10.2,41.4,17.1"/>
			
				<path fill-rule="evenodd" clip-rule="evenodd" fill="none" stroke="#000000" stroke-width="0.5669" stroke-linecap="round" stroke-linejoin="round" stroke-miterlimit="2.4142" d="
				M242.1,176.3c7.8,0.6,15.5,1.3,22.9,2.2 M286.8,181.6c8.1,1.4,15.7,3,22.8,4.7"/>
			
				<path fill-rule="evenodd" clip-rule="evenodd" fill="none" stroke="#000000" stroke-width="0.5669" stroke-linecap="round" stroke-linejoin="round" stroke-miterlimit="2.4142" d="
				M145.5,173.2c10.9-1,22.4-1.6,34.3-2"/>
			
				<path fill-rule="evenodd" clip-rule="evenodd" fill="none" stroke="#000000" stroke-width="0.5669" stroke-linecap="round" stroke-linejoin="round" stroke-miterlimit="2.4142" d="
				M105.2,178.3c12.6-2.1,26.1-3.9,40.3-5.1"/>
			
				<path fill-rule="evenodd" clip-rule="evenodd" fill="none" stroke="#000000" stroke-width="0.5669" stroke-linecap="round" stroke-linejoin="round" stroke-miterlimit="2.4142" d="
				M25.3,206.7c7.4-6.3,18.4-11.8,31.6-16.5"/>
			
				<path fill-rule="evenodd" clip-rule="evenodd" fill="none" stroke="#000000" stroke-width="0.5669" stroke-linecap="round" stroke-linejoin="round" stroke-miterlimit="2.4142" d="
				M15.9,226c-1.1-6.4,2.1-13,9.4-19.2"/>
			
				<path fill-rule="evenodd" clip-rule="evenodd" fill="none" stroke="#000000" stroke-width="0.5669" stroke-linecap="round" stroke-linejoin="round" stroke-miterlimit="2.4142" d="
				M101,266c-15.8-2.6-29.7-5.9-41.4-9.6"/>
			
				<path fill-rule="evenodd" clip-rule="evenodd" fill="none" stroke="#000000" stroke-width="0.5669" stroke-linecap="round" stroke-linejoin="round" stroke-miterlimit="2.4142" d="
				M134.1,270.2c-11.7-1.1-22.7-2.5-33.1-4.3"/>
			
				<path fill-rule="evenodd" clip-rule="evenodd" fill="none" stroke="#000000" stroke-width="0.5669" stroke-linecap="round" stroke-linejoin="round" stroke-miterlimit="2.4142" d="
				M362.1,237.6c-17,13.6-52.7,25-102,31"/>
			
				<path fill-rule="evenodd" clip-rule="evenodd" fill="none" stroke="#000000" stroke-width="0.5669" stroke-linecap="round" stroke-linejoin="round" stroke-miterlimit="2.4142" d="
				M361.7,202.8c7.2,5.4,10.9,11,11.2,16.7c0.3,6.1-3.3,12.3-10.8,18.2"/>
			
				<path fill-rule="evenodd" clip-rule="evenodd" fill="none" stroke="#000000" stroke-width="0.5669" stroke-linecap="round" stroke-linejoin="round" stroke-miterlimit="2.4142" d="
				M37.7,208.2c5.4-5,14-9.5,24.6-13.4c4.5-1.6,9.5-3.2,14.8-4.6"/>
			
				<path fill-rule="evenodd" clip-rule="evenodd" fill="none" stroke="#000000" stroke-width="0.5669" stroke-linecap="round" stroke-linejoin="round" stroke-miterlimit="2.4142" d="
				M36.5,229.1c-6.7-6.7-6.4-13.9,1.1-20.9"/>
			
				<path fill-rule="evenodd" clip-rule="evenodd" fill="none" stroke="#000000" stroke-width="0.5669" stroke-linecap="round" stroke-linejoin="round" stroke-miterlimit="2.4142" d="
				M296.4,245.2c-15.9,4.2-35,7.5-56.5,9.7c-18.6,1.9-38.5,2.9-59.1,2.9"/>
			
				<path fill-rule="evenodd" clip-rule="evenodd" fill="none" stroke="#000000" stroke-width="0.5669" stroke-linecap="round" stroke-linejoin="round" stroke-miterlimit="2.4142" d="
				M228.1,178.3c13.9,0.8,27.3,2.2,39.9,4 M286.4,185.4c1.9,0.4,3.8,0.8,5.7,1.2c20.6,4.5,37.4,10.7,46,18.3"/>
			
				<path fill-rule="evenodd" clip-rule="evenodd" fill="none" stroke="#000000" stroke-width="0.5669" stroke-linecap="round" stroke-linejoin="round" stroke-miterlimit="2.4142" d="
				M109.3,181.9c10.7-1.7,22.2-3.2,34.2-4.3c11.9-1.1,24.6-1.9,37.7-2.3"/>
			
				<path fill-rule="evenodd" clip-rule="evenodd" fill="none" stroke="#000000" stroke-width="0.5669" stroke-linecap="round" stroke-linejoin="round" stroke-miterlimit="2.4142" d="
				M30.9,209.3c6-5.3,14.8-10,25.6-14.1"/>
			
				<path fill-rule="evenodd" clip-rule="evenodd" fill="none" stroke="#000000" stroke-width="0.5669" stroke-linecap="round" stroke-linejoin="round" stroke-miterlimit="2.4142" d="
				M23.3,227c-1.5-5.9,1-11.9,7.6-17.7"/>
			
				<path fill-rule="evenodd" clip-rule="evenodd" fill="none" stroke="#000000" stroke-width="0.5669" stroke-linecap="round" stroke-linejoin="round" stroke-miterlimit="2.4142" d="
				M132.2,266.4c-10.7-1.1-20.8-2.4-30.2-4c-20.5-3.4-37.4-7.9-50.2-13.1"/>
			
				<path fill-rule="evenodd" clip-rule="evenodd" fill="none" stroke="#000000" stroke-width="0.5669" stroke-linecap="round" stroke-linejoin="round" stroke-miterlimit="2.4142" d="
				M368.1,222.8c-1.4,7.7-9.7,15.3-24.6,22.2c-15.7,7.3-38.1,13.5-66,17.9"/>
			
				<path fill-rule="evenodd" clip-rule="evenodd" fill="none" stroke="#000000" stroke-width="0.5669" stroke-linecap="round" stroke-linejoin="round" stroke-miterlimit="2.4142" d="
				M358.5,205.4c7.4,5.6,10.5,11.5,9.6,17.4"/>
			
				<path fill-rule="evenodd" clip-rule="evenodd" fill="none" stroke="#000000" stroke-width="0.5669" stroke-linecap="round" stroke-linejoin="round" stroke-miterlimit="2.4142" d="
				M239.7,176.4c8.6,0.6,17.1,1.3,25.4,2.3 M286.8,181.6c11.5,1.9,22.3,4.1,32.1,6.8"/>
			
				<path fill-rule="evenodd" clip-rule="evenodd" fill="none" stroke="#000000" stroke-width="0.5669" stroke-linecap="round" stroke-linejoin="round" stroke-miterlimit="2.4142" d="
				M181.2,175.4c20.2-0.6,40-0.2,58.6,1"/>
		</g>
	</g>
</g>
<g id="Layer_40">
</g>
</svg>
