<?xml version="1.0" encoding="utf-8"?>
<!-- Generator: Adobe Illustrator 18.1.1, SVG Export Plug-In . SVG Version: 6.00 Build 0)  -->
<!DOCTYPE svg PUBLIC "-//W3C//DTD SVG 1.1//EN" "http://www.w3.org/Graphics/SVG/1.1/DTD/svg11.dtd">
<svg version="1.1" xmlns="http://www.w3.org/2000/svg" xmlns:xlink="http://www.w3.org/1999/xlink" x="0px" y="0px"
	 viewBox="0 0 393 483" enable-background="new 0 0 393 483" xml:space="preserve">
<g id="ziutek_x5F_01">
</g>
<g id="ziutek_x5F_02">
</g>
<g id="ziutek_x5F_03">
</g>
<g id="ziutek_x5F_04">
</g>
<g id="ziutek_x5F_05">
</g>
<g id="ziutek_x5F_06">
</g>
<g id="ziutek_x5F_07">
</g>
<g id="ziutek_x5F_08">
</g>
<g id="ziutek_x5F_09">
</g>
<g id="ziutek_x5F_10">
</g>
<g id="lady_x5F_01">
</g>
<g id="Layer_13">
</g>
<g id="Layer_12">
</g>
<g id="Layer_14">
</g>
<g id="Layer_15">
</g>
<g id="Layer_16">
</g>
<g id="Layer_17">
</g>
<g id="Layer_18">
</g>
<g id="Layer_19">
</g>
<g id="Layer_20">
</g>
<g id="Layer_21">
</g>
<g id="Layer_22">
</g>
<g id="Layer_23">
</g>
<g id="Layer_24">
</g>
<g id="Layer_25">
</g>
<g id="Layer_26">
</g>
<g id="Layer_27">
</g>
<g id="Layer_28">
</g>
<g id="Layer_29">
</g>
<g id="Layer_30">
</g>
<g id="Layer_31">
</g>
<g id="Layer_32">
</g>
<g id="Layer_33">
</g>
<g id="Layer_34">
</g>
<g id="Layer_36">
</g>
<g id="Layer_35">
</g>
<g id="Layer_37">
	<g>
		<path fill-rule="evenodd" clip-rule="evenodd" fill="#FFFFFF" d="M144.3,126.6c18.6,42.8,33.2,43.8,49.2-4.3
			c11,42.6,34.2,54.8,77.7,6.5c-22.6,56.7,12.8,56.4,47.1,29.6c-36.2,52.4-7.1,55.6,39.8,55.5c-68.4,19.2-67.5,29.7-6.5,49.6
			c-24.1-6.4-62.5,2.2-31.1,31c-34-12.7-30,7.6,5.3,63.8c-41.9-41.5-76.5-63.8-68.4-39.8c-23.4-31.3-37-24.6-42.9,11.1
			c-9.4-32.5-48-31.7-53,7.2c-5.4-28.2-16.5-42.4-34.2-17.1c6.2-49.3-31.9-37.4-73.6-14.3c78.4-50.9,39.9-48.5-16.1-39.5
			c39.4-10.5,79.2-20.1,8.7-26.4c46.2-8.1,64.5-19.5,24.1-42.1c21.9,7.9,48.4-3.2,15.4-52.8C111.6,173,147.6,177.9,144.3,126.6
			L144.3,126.6z"/>
		<path fill-rule="evenodd" clip-rule="evenodd" d="M143.5,123.4c18.6,42.8,33.8,44.3,49.9-3.9c11,42.6,36.5,54.1,80,5.8
			c-22.6,56.7,13.6,56.9,47.9,30.1c-36.2,52.4-7.1,58.1,39.8,58c-68.4,19.2-65.2,31.5-4.3,51.4c-24.1-6.4-65.9,2.1-34.4,30.9
			c-34-12.7-27.2,11.4,8.1,67.6c-41.9-41.5-80-66.1-71.9-42.1c-23.4-31.3-38.1-24.9-44.1,10.8c-9.4-32.5-48-30.7-53,8.1
			c-5.4-28.2-17.4-43.9-35.2-18.6c6.2-49.3-34.9-37-76.5-13.9c78.4-50.9,37.9-49.6-18.2-40.6c39.4-10.5,81.7-21.1,11.2-27.4
			c46.2-8.1,65.1-20.8,24.7-43.3c21.9,7.9,49.3-4.5,16.2-54.1C109.7,170.6,146.9,174.7,143.5,123.4L143.5,123.4z M145.3,130.8
			c18.6,46.9,32.3,46.5,48.3-5.8c10.2,46.5,31.7,58.4,76,6.3c-26.8,59.1,9.1,58,46.5,29.4c-39.2,53.6-11.7,54.9,37.3,53.9
			c-70,19.2-70.5,27.6-8.1,47.5c-25.7-6.8-61.8,1-27.8,30.5c-39.5-14-33.3,5.5,5.8,62.6c-41.3-42.7-73.9-66.5-67.3-39.4
			c-23.4-33-35.8-26.7-41.7,10.4c-10.4-33.5-48.7-32.5-52.6,7.3c-5.4-29.8-15.5-44.5-33.2-16.6c10.3-49.3-23.7-38.9-67.4-15.8
			c80.1-52.6,46.1-48.6-11.4-38.1c39.4-10.5,71.1-17.3,0.6-23.6c46.2-8.1,64.3-18.2,24-40.8c21.9,7.9,49.6,1.5,16.6-48.1
			C117.8,180.5,150.4,184.1,145.3,130.8L145.3,130.8z"/>
		<path fill-rule="evenodd" clip-rule="evenodd" d="M118.4,175.7c18.5,9.7,27.6,4.8,28.6-12.2C142.3,177,132.4,180.3,118.4,175.7
			L118.4,175.7z"/>
		<path fill-rule="evenodd" clip-rule="evenodd" d="M201.7,159.4c7.2,17.4,17.2,19.2,29.8,8.8C219.3,175.6,209.6,171.8,201.7,159.4
			L201.7,159.4z"/>
		<path fill-rule="evenodd" clip-rule="evenodd" d="M257,166.1c-1.9,17.4,3.5,21,19.3,17.3C262.4,185,258,179.7,257,166.1L257,166.1
			z"/>
		<path fill-rule="evenodd" clip-rule="evenodd" d="M202.1,305.5c-10.8-14.3-22.2-12.4-31.4,1.5C180.1,296,191.8,296,202.1,305.5
			L202.1,305.5z"/>
		<path fill-rule="evenodd" clip-rule="evenodd" d="M309.3,259.5c-12.9,0.9-15.9,8.3-9.8,17.7C296,267.2,299.5,261.9,309.3,259.5
			L309.3,259.5z"/>
		<path fill-rule="evenodd" clip-rule="evenodd" d="M111,266.6c7.6-8.8,3.2-14.4-7.4-13C113.3,254.8,115,257.7,111,266.6L111,266.6z
			"/>
		<path fill-rule="evenodd" clip-rule="evenodd" d="M205.7,172.2c4.3,7.7,9.4,9.3,17.4,4.1C216,178.8,210.9,177.4,205.7,172.2
			L205.7,172.2z"/>
		<path fill-rule="evenodd" clip-rule="evenodd" d="M237,292.2c-5.8-5-10.5-4.7-15.5,2C226.6,289.9,231.1,289.5,237,292.2L237,292.2
			z"/>
		<path fill-rule="evenodd" clip-rule="evenodd" d="M101.8,202.2c8.4-2.5,11.1-7.2,7.8-16.2C110.5,193.6,108,198.3,101.8,202.2
			L101.8,202.2z"/>
		<path fill-rule="evenodd" clip-rule="evenodd" d="M94.1,229.3c8.4-2.5,10.4-8.1,5.9-14.2C101.9,221.9,100.2,225.4,94.1,229.3
			L94.1,229.3z"/>
		<path fill-rule="evenodd" clip-rule="evenodd" d="M100.6,228.8c6.3-1.9,7.8-6.1,4.5-10.7C106.5,223.2,105.3,225.8,100.6,228.8
			L100.6,228.8z"/>
		<path fill-rule="evenodd" clip-rule="evenodd" d="M293.4,199c-2.7,8.8,1,13.7,8.9,13.4C295.3,210.2,293.3,206.7,293.4,199
			L293.4,199z"/>
		<path fill-rule="evenodd" clip-rule="evenodd" d="M133.1,296.7c1.9-14.5-4.1-19.6-16.7-17.4C127.5,279,132.6,285.3,133.1,296.7
			L133.1,296.7z"/>
		<path fill-rule="evenodd" clip-rule="evenodd" d="M135.4,286.6c0.1-6.8-2.7-9.9-10.1-9.5C131,278.1,133.9,281.1,135.4,286.6
			L135.4,286.6z"/>
	</g>
</g>
<g id="Layer_38">
</g>
<g id="Layer_39">
</g>
<g id="Layer_40">
</g>
</svg>
