<?xml version="1.0" encoding="utf-8"?>
<!-- Generator: Adobe Illustrator 18.1.1, SVG Export Plug-In . SVG Version: 6.00 Build 0)  -->
<!DOCTYPE svg PUBLIC "-//W3C//DTD SVG 1.1//EN" "http://www.w3.org/Graphics/SVG/1.1/DTD/svg11.dtd">
<svg version="1.1" xmlns="http://www.w3.org/2000/svg" xmlns:xlink="http://www.w3.org/1999/xlink" x="0px" y="0px"
	 viewBox="0 0 393 483" enable-background="new 0 0 393 483" xml:space="preserve">
<g id="ziutek_x5F_01">
</g>
<g id="ziutek_x5F_02">
</g>
<g id="ziutek_x5F_03">
</g>
<g id="ziutek_x5F_04">
</g>
<g id="ziutek_x5F_05">
</g>
<g id="ziutek_x5F_06">
</g>
<g id="ziutek_x5F_07">
</g>
<g id="ziutek_x5F_08">
</g>
<g id="ziutek_x5F_09">
</g>
<g id="ziutek_x5F_10">
</g>
<g id="lady_x5F_01">
</g>
<g id="Layer_13">
</g>
<g id="Layer_12">
</g>
<g id="Layer_14">
</g>
<g id="Layer_15">
</g>
<g id="Layer_16">
</g>
<g id="Layer_17">
</g>
<g id="Layer_18">
	<g>
		<g>
			<path d="M351.4,235.5c0.1,0,0.1-0.1,0.2-0.1l-0.1-9.8c-0.1,0-0.2,0.1-0.2,0.1l0,0c0,0-0.1,0-0.1,0c0-0.1,0-0.2,0-0.2l-69,0.4
				l-25.5,0c3.3-15.9,7.3-30.3,12-43.3c-0.3,0-0.6-0.1-0.8-0.2c-0.1,0-0.1,0-0.2,0c0,0,0,0,0,0.1L199,181c0,0,0,0,0-0.1
				c-0.1,0-0.2,0-0.3,0c-0.3,0-0.6,0-0.8-0.1c-5.1,13.9-9,28-11.9,42.5l-4.4,2.7h-8.8c0-0.3-0.1-0.5-0.2-0.8
				c-0.7-4.1-1.5-8.3-2.2-12.4c-0.7-4.1-1.6-8-2.8-12c1-1.3,2.1-2.6,3.3-3.9c1.4-1.6,2.8-3.1,4.3-4.7c1.5-1.6,3.1-3.2,4.8-4.8
				c1.7-1.7,3.4-3.4,5.2-5.1c2-1.9,4-3.9,5.9-5.9c1.7-1.7,3.3-3.4,4.8-5.2c1.6-1.8,3.1-3.6,4.6-5.4c1.7-2.2,3.4-4.4,5-6.7
				c1.4-2.1,2.7-4.3,3.9-6.7c1.1-2.3,2.1-4.6,3-7c0.9-2.5,1.7-5,2.4-7.6c0.3-1,0.5-2,0.6-3c0.1-0.9,0.2-1.7,0.1-2.5
				c-0.1,0-0.1,0-0.2-0.1c0-0.1,0-0.2,0-0.3c-0.1-0.1-0.3-0.2-0.4-0.3c0.1-0.1,0.2-0.2,0.2-0.2c0.5-0.5,1-1,1.4-1.5
				c0.1-0.1,0.1-0.1,0.2-0.2c2-2.9,2.6-6.1,2-9.6c-0.5-2.6,0.3-4.8,2.3-6.6c1.3-1.1,2.2-2.5,2.7-4.1c0.2-0.5,0.2-0.8,0.2-1.1
				c0-0.3,0-0.8,0-1.4c0-0.6-0.3-1.2-1-1.7c-0.7-0.5-1.5-0.6-2.5-0.3c-1,0.3-2,1.2-3,2.7c-0.8,1.2-1.5,2.4-2.2,3.6h-1.1
				c0.1-3.6,0.1-7.2,0.1-10.8c0-0.9-0.4-1.7-1-2.3c-0.4-0.4-0.9-0.6-1.4-0.7c-1.7-0.2-2.8,0.5-3.3,2.2c-0.2,0.5-0.2,1.1-0.2,1.7
				c0,0.2,0,0.4,0,0.7c0.1,2.7,0,5.4-0.5,8c0,0.2-0.1,0.5-0.2,0.7c-1.2-2.2-1.9-4.5-2.3-6.7c-0.4-2.2-0.9-3.9-1.5-4.8
				c-0.6-1-1.5-1.6-2.6-1.6c-1.1-0.1-2,0.5-2.6,1.7c-0.2,0.3-0.2,0.6-0.2,0.9c0,2.5,0.3,4.9,0.9,7.4c0.4,1.8,0.6,3.6,0.7,5.4
				c0,0.3,0,0.6-0.2,0.9c-0.5,1.6-1.6,2.3-3.3,2c-1.8-0.3-3.1-1.3-3.9-2.9c-0.5-1-1.2-1.8-2.1-2.5c-0.6-0.5-1.2-0.6-1.9-0.3
				c-1.1,0.4-1.6,1.2-1.5,2.3c0.1,1.5,0.5,3.3,1.3,5.6c0.8,2.3,2,4.1,3.8,5.3c1.8,1.2,3.3,2.2,4.7,2.8c1.4,0.6,2.7,2,4,4
				c0.2,0.2,0.3,0.4,0.4,0.6c-0.1,0.1-0.2,0.1-0.3,0.2c-0.1,0-0.1,0-0.2,0c0,0-0.1,0-0.2,0c0,0.1,0,0.2,0,0.2c0,0,0,0-0.1,0
				c0,0,0,0.1,0,0.2c-0.6,4-1.7,8-3.5,11.8c-2.5,5.6-5.4,10.9-8.7,16c-3.6,5.6-7.9,10.5-13,14.8c-1.9,1.6-3.9,3.2-6,4.8
				c-3.4,2.6-7,4.6-10.9,6c-1.3-1.6-2.8-3-4.4-4.2c-2.1-1.7-4.3-3.1-6.6-4.2c0,0-0.1,0-0.1,0c0.3-0.3,0.6-0.6,1-0.9
				c0.7-0.6,1.3-1.4,1.7-2.2c0.8-1.2,1.4-2.4,2.1-3.7c0.5-0.9,0.9-1.9,1.3-2.9c0.7-1.6,1.3-3.3,1.8-5c0.7-2.4,1.2-4.8,1.6-7.3
				c0.8-4.9,1.3-9.9,1.5-14.9c0.3-7.7-0.1-15.5-1.2-23.1c-0.7-5.2-2-10.3-3.7-15.3c-0.6-1.6-1.3-3.2-2.1-4.7
				c0.9,0.2,1.4,0.2,1.5,0.3c0.1,0,0.5,0.3,1.4,0.8c0.9,0.5,1.6,0.7,2,0.7c0.2,0,0.4,0,0.4-0.2c0,0,0.1-0.2,0.1-0.3
				c-0.2-0.6-0.6-1.9-1.3-3.9c-0.6-1.7-0.9-2.6-0.9-2.7c0-0.3,0-0.4,0-0.2c2,2,3.7,4,5.1,6c-0.2-0.8-0.4-1.4-0.5-2c0,0,0,0,0,0
				c-0.3-1.1-0.6-2.3-0.9-3.4c-0.6-2.1-1.3-4.2-2.2-6.2c-0.5-1.2-1.1-2.3-1.9-3.5c-0.4-0.6-0.8-1.2-1.3-1.8
				c-0.4-0.5-0.7-0.9-1.1-1.4c-0.9-1-1.8-2-2.8-2.8c-1.1-0.9-2.2-1.8-3.4-2.6c-3.3-2.3-6.9-4.1-10.7-5.4c-2.6-0.9-5.3-1.5-8-1.8
				c-7.2-0.8-14.4-0.3-21.5,1.3c-2.9,0.6-5.8,1.6-8.6,2.7c-1.5,0.6-2.9,1.3-4.3,2.1c-3.2,1.9-6,4.2-8.5,6.9c-1.6,1.7-3,3.5-4.2,5.5
				c-0.6,0.9-1.1,1.7-1.5,2.6c-0.6,1.1-1.1,2.2-1.5,3.3c-2.2,5.2-3.7,10.7-4.5,16.2c-0.4,2.8-0.8,5.7-1.2,8.5
				c-1.2,8.7-1.4,17.5-0.8,26.3c0.3,3.8,1,7.6,2.1,11.2c0.3,0.8,0.6,1.6,1,2.4c0.3,0.5,0.5,1,0.8,1.5c0.1,0.3,0.3,0.5,0.5,0.8
				c0.3,0.4,0.6,0.8,0.9,1.2c0.2,0.2,0.4,0.4,0.6,0.6c0.4,1.1,0.9,2.3,1.5,3.6c2.1,4.3,3.2,6.7,3.4,7.1c0.6,1.1,1.2,2.3,2,3.6
				c-1.8,1-3.5,2.2-5.1,3.6c-2.1,1.7-4,3.6-5.8,5.7c-1.3,1.5-2.5,3.1-3.7,4.8c-0.8,0.8-1.6,1.6-2.3,2.5c-1.9,2-3.8,4-5.6,6.1
				c-1.4,1.5-2.8,3.1-4.2,4.7c-1.5,1.8-3.1,3.6-4.5,5.4c-1.1,1.3-2.2,2.7-3.2,4.1c-1.4,1.9-2.7,3.8-4,5.8c-0.7,1.1-1.4,2.3-2,3.5
				c-1.5,2.7-1.9,5.6-1.2,8.6c0.2,0.8,0.4,1.7,0.7,2.5c0.4,1.2,0.8,2.5,1.2,3.7c0.4,1.2,0.8,2.5,1.2,3.7c0.9,2.6,1.8,5.2,2.8,7.7
				c1,2.8,2,5.6,3,8.3c0,0.6-0.1,1.2-0.1,1.8c-0.1,2.3-0.2,4.6-0.3,6.9c-0.1,2.7,0,5.4,0.1,8.1c0.1,2.7,0.4,5.4,0.9,8.1
				c0.2,0.8,0.3,1.6,0.5,2.4c-1,0.5-1.9,1.2-2.9,1.9c-1.1,0.9-2.1,1.9-3,2.9c-0.4,0.5-0.7,0.9-0.9,1.2c-0.1,0-0.1,0-0.2,0.1
				c-0.1,0.2-0.2,0.3-0.3,0.5l0.2,33l0,94.8c0.2,0.1,0.3,0.3,0.4,0.4c0.2,0.1,0.3,0.1,0.4,0.2c0,0,0.1,0,0.1,0v0
				c1.4,0.3,3,0.4,4.6,0.2c0.3,0,0.6-0.1,0.9-0.2v0.1c0.3-0.1,0.5-0.2,0.8-0.2c0,0,0.1-0.1,0.1-0.1c0,0,0,0,0.1,0c0,0,0,0,0,0
				c0.1,0,0.1-0.1,0.2-0.1l-0.1-47.8l26.8,0l0,25.1c0.1,0,0.2,0.1,0.3,0.1c0,0,0.1,0,0.2,0c0,0.1,0,0.2,0,0.4c1.4,0.3,3,0.4,4.6,0.2
				c0.7-0.1,1.3-0.2,2-0.4c0,0,0-0.1,0-0.1c0.2-0.1,0.4-0.1,0.6-0.2l0-25.1l24.6,0c0.2,0.7,0.4,1.3,0.7,1.9
				c-0.1,0.1-0.2,0.3-0.2,0.4c-0.9,1.6-1.3,3.3-1.3,5.3c0,0.5,0.1,1.1,0.2,1.8c0.2,1.1,0.6,2.1,1.1,3c1.4,2.7,3.8,4,7,4
				c6.7,0,11.6-1.5,14.6-4.5c1.1-1.1,1.9-2.3,2.4-3.6c0.4-1,0.6-1.9,0.6-2.8c-0.1-1.9-0.4-3.6-0.9-5.3c0-0.1-0.1-0.2-0.1-0.3
				l14.8-0.1l0,47.9c0.3,0.1,0.6,0.2,0.9,0.3c0,0,0,0,0,0c0,0,0,0.1,0,0.1c1.4,0.3,3,0.4,4.6,0.2c0.7-0.1,1.3-0.2,2-0.4
				c0-0.1,0-0.2,0-0.3c0.1,0,0.1,0,0.2-0.1l0-48l16.2-10.7c0,3.6,0.5,7.2,1.3,10.8c0.2,0.6,0.3,1.2,0.6,1.7
				c-0.2,0.2-0.3,0.5-0.5,0.8c-0.9,1.6-1.3,3.3-1.3,5.3c0,0.5,0.1,1.1,0.2,1.8c0.2,1.1,0.6,2.1,1.1,3c1.4,2.7,3.8,4,7,4
				c0.8,0,1.6,0,2.3-0.1l0,9c0.2,0.1,0.3,0.2,0.5,0.3c0.1,0,0.2,0,0.2,0c0,0,0,0,0,0c1.4,0.3,3,0.4,4.6,0.2c0.5-0.1,1-0.2,1.5-0.3
				c0,0,0,0,0,0c0,0,0,0,0,0c0.1,0,0.3-0.1,0.4-0.1c0-0.1,0-0.1,0-0.2c0.1-0.1,0.2-0.1,0.4-0.2l0-10.3c1.9-0.7,3.4-1.7,4.7-2.9
				c1.1-1.1,1.9-2.3,2.4-3.6c0.4-1,0.6-1.9,0.6-2.8c-0.1-1.9-0.4-3.6-0.9-5.3c-1.1-3.3-2.8-4.9-5.1-4.9c-0.5,0-1.1,0-1.6,0.1l0-42.5
				l-0.2-18.9c0,0,0.1-0.1,0.1-0.2l-7.9,0l0,0c-0.2,0-0.3,0-0.4,0c-0.1,0-0.3,0-0.4,0c-0.4,0-0.8,0-1.1-0.1l-0.5,0.3
				c0.1-0.8,0.1-1.6,0.2-2.5c0.4-6.3,0.1-12.6-0.8-18.8c-0.3-2.1-0.6-4.3-0.9-6.4l90.8-0.1l0,88.6c0.3,0.1,0.6,0.2,0.9,0.3
				c0.1,0,0.2,0,0.3,0v-0.1c1,0.2,2.1,0.3,3.3,0.3c1.5,0,2.8-0.2,4.2-0.5v0.1c0.1,0,0.1,0,0.2,0c0.3-0.2,0.6-0.3,1-0.4l-0.1-88.4
				l11.2-0.1c0,0,0,0,0,0c0,0,0.1,0,0.1,0c0.1-0.1,0.2-0.3,0.3-0.4L325,253l0,74.2c0.2,0.1,0.3,0.2,0.4,0.3c0,0.1,0,0.2,0,0.3
				c1.2,0.4,2.6,0.6,4.1,0.6c1.7,0,3.3-0.2,4.9-0.7c0,0,0-0.1,0-0.1c0.2-0.1,0.3-0.1,0.5-0.2l-0.1-80.8L351.4,235.5
				C351.4,235.6,351.4,235.5,351.4,235.5z M180.7,324.5c-1.1-0.2-2.1-0.3-3.2-0.2c0.8-2.4,1.5-4.8,2.1-7.3c0.5-2.1,0.9-4.2,1.3-6.3
				l3.6-2.4l0,18.2C183.5,325.5,182.2,324.8,180.7,324.5z"/>
		</g>
		<path fill="none" d="M180.9,310.7c-0.4,2.1-0.8,4.2-1.3,6.3c-0.6,2.5-1.3,4.9-2.1,7.3c1.1-0.1,2.1,0,3.2,0.2
			c1.5,0.3,2.8,0.9,3.9,2l0-18.2L180.9,310.7z"/>
		<path d="M351.4,235.5c0.1,0,0.1-0.1,0.2-0.1l-0.1-9.8c-0.1,0-0.2,0.1-0.2,0.1l0,0c0,0-0.1,0-0.1,0c0-0.1,0-0.2,0-0.2l-69,0.4
			l-25.5,0c3.3-15.9,7.3-30.3,12-43.3c-0.3,0-0.6-0.1-0.8-0.2c-0.1,0-0.1,0-0.2,0c0,0,0,0,0,0.1L199,181c0,0,0,0,0-0.1
			c-0.1,0-0.2,0-0.3,0c-0.3,0-0.6,0-0.8-0.1c-5.1,13.9-9,28-11.9,42.5l-4.4,2.7h-8.8c0-0.3-0.1-0.5-0.2-0.8
			c-0.7-4.1-1.5-8.3-2.2-12.4c-0.7-4.1-1.6-8-2.8-12c1-1.3,2.1-2.6,3.3-3.9c1.4-1.6,2.8-3.1,4.3-4.7c1.5-1.6,3.1-3.2,4.8-4.8
			c1.7-1.7,3.4-3.4,5.2-5.1c2-1.9,4-3.9,5.9-5.9c1.7-1.7,3.3-3.4,4.8-5.2c1.6-1.8,3.1-3.6,4.6-5.4c1.7-2.2,3.4-4.4,5-6.7
			c1.4-2.1,2.7-4.3,3.9-6.7c1.1-2.3,2.1-4.6,3-7c0.9-2.5,1.7-5,2.4-7.6c0.3-1,0.5-2,0.6-3c0.1-0.9,0.2-1.7,0.1-2.5
			c-0.1,0-0.1,0-0.2-0.1c0-0.1,0-0.2,0-0.3c-0.1-0.1-0.3-0.2-0.4-0.3c0.1-0.1,0.2-0.2,0.2-0.2c0.5-0.5,1-1,1.4-1.5
			c0.1-0.1,0.1-0.1,0.2-0.2c2-2.9,2.6-6.1,2-9.6c-0.5-2.6,0.3-4.8,2.3-6.6c1.3-1.1,2.2-2.5,2.7-4.1c0.2-0.5,0.2-0.8,0.2-1.1
			c0-0.3,0-0.8,0-1.4c0-0.6-0.3-1.2-1-1.7c-0.7-0.5-1.5-0.6-2.5-0.3c-1,0.3-2,1.2-3,2.7c-0.8,1.2-1.5,2.4-2.2,3.6h-1.1
			c0.1-3.6,0.1-7.2,0.1-10.8c0-0.9-0.4-1.7-1-2.3c-0.4-0.4-0.9-0.6-1.4-0.7c-1.7-0.2-2.8,0.5-3.3,2.2c-0.2,0.5-0.2,1.1-0.2,1.7
			c0,0.2,0,0.4,0,0.7c0.1,2.7,0,5.4-0.5,8c0,0.2-0.1,0.5-0.2,0.7c-1.2-2.2-1.9-4.5-2.3-6.7c-0.4-2.2-0.9-3.9-1.5-4.8
			c-0.6-1-1.5-1.6-2.6-1.6c-1.1-0.1-2,0.5-2.6,1.7c-0.2,0.3-0.2,0.6-0.2,0.9c0,2.5,0.3,4.9,0.9,7.4c0.4,1.8,0.6,3.6,0.7,5.4
			c0,0.3,0,0.6-0.2,0.9c-0.5,1.6-1.6,2.3-3.3,2c-1.8-0.3-3.1-1.3-3.9-2.9c-0.5-1-1.2-1.8-2.1-2.5c-0.6-0.5-1.2-0.6-1.9-0.3
			c-1.1,0.4-1.6,1.2-1.5,2.3c0.1,1.5,0.5,3.3,1.3,5.6c0.8,2.3,2,4.1,3.8,5.3c1.8,1.2,3.3,2.2,4.7,2.8c1.4,0.6,2.7,2,4,4
			c0.2,0.2,0.3,0.4,0.4,0.6c-0.1,0.1-0.2,0.1-0.3,0.2c-0.1,0-0.1,0-0.2,0c0,0-0.1,0-0.2,0c0,0.1,0,0.2,0,0.2c0,0,0,0-0.1,0
			c0,0,0,0.1,0,0.2c-0.6,4-1.7,8-3.5,11.8c-2.5,5.6-5.4,10.9-8.7,16c-3.6,5.6-7.9,10.5-13,14.8c-1.9,1.6-3.9,3.2-6,4.8
			c-3.4,2.6-7,4.6-10.9,6c-1.3-1.6-2.8-3-4.4-4.2c-2.1-1.7-4.3-3.1-6.6-4.2c0,0-0.1,0-0.1,0c0.3-0.3,0.6-0.6,1-0.9
			c0.7-0.6,1.3-1.4,1.7-2.2c0.8-1.2,1.4-2.4,2.1-3.7c0.5-0.9,0.9-1.9,1.3-2.9c0.7-1.6,1.3-3.3,1.8-5c0.7-2.4,1.2-4.8,1.6-7.3
			c0.8-4.9,1.3-9.9,1.5-14.9c0.3-7.7-0.1-15.5-1.2-23.1c-0.7-5.2-2-10.3-3.7-15.3c-0.6-1.6-1.3-3.2-2.1-4.7c0.9,0.2,1.4,0.2,1.5,0.3
			c0.1,0,0.5,0.3,1.4,0.8c0.9,0.5,1.6,0.7,2,0.7c0.2,0,0.4,0,0.4-0.2c0,0,0.1-0.2,0.1-0.3c-0.2-0.6-0.6-1.9-1.3-3.9
			c-0.6-1.7-0.9-2.6-0.9-2.7c0-0.3,0-0.4,0-0.2c2,2,3.7,4,5.1,6c-0.2-0.8-0.4-1.4-0.5-2c0,0,0,0,0,0c-0.3-1.1-0.6-2.3-0.9-3.4
			c-0.6-2.1-1.3-4.2-2.2-6.2c-0.5-1.2-1.1-2.3-1.9-3.5c-0.4-0.6-0.8-1.2-1.3-1.8c-0.4-0.5-0.7-0.9-1.1-1.4c-0.9-1-1.8-2-2.8-2.8
			c-1.1-0.9-2.2-1.8-3.4-2.6c-3.3-2.3-6.9-4.1-10.7-5.4c-2.6-0.9-5.3-1.5-8-1.8c-7.2-0.8-14.4-0.3-21.5,1.3
			c-2.9,0.6-5.8,1.6-8.6,2.7c-1.5,0.6-2.9,1.3-4.3,2.1c-3.2,1.9-6,4.2-8.5,6.9c-1.6,1.7-3,3.5-4.2,5.5c-0.6,0.9-1.1,1.7-1.5,2.6
			c-0.6,1.1-1.1,2.2-1.5,3.3c-2.2,5.2-3.7,10.7-4.5,16.2c-0.4,2.8-1.1,5.6-1.2,8.5c-0.4,10,0.4,20.6-0.8,26.3
			c-0.8,3.7,1,7.6,2.1,11.2c0.3,0.8,0.6,1.6,1,2.4c0.3,0.5,0.5,1,0.8,1.5c0.1,0.3,0.3,0.5,0.5,0.8c0.3,0.4,0.6,0.8,0.9,1.2
			c0.2,0.2,0.4,0.4,0.6,0.6c0.4,1.1,0.9,2.3,1.5,3.6c2.1,4.3,3.2,6.7,3.4,7.1c0.6,1.1,1.2,2.3,2,3.6c-1.8,1-3.5,2.2-5.1,3.6
			c-2.1,1.7-4,3.6-5.8,5.7c-1.3,1.5-2.5,3.1-3.7,4.8c-0.8,0.8-1.6,1.6-2.3,2.5c-1.9,2-3.8,4-5.6,6.1c-1.4,1.5-2.8,3.1-4.2,4.7
			c-1.5,1.8-3.1,3.6-4.5,5.4c-1.1,1.3-2.2,2.7-3.2,4.1c-1.4,1.9-2.7,3.8-4,5.8c-0.7,1.1-1.4,2.3-2,3.5c-1.5,2.7-1.9,5.6-1.2,8.6
			c0.2,0.8,0.4,1.7,0.7,2.5c0.4,1.2,0.8,2.5,1.2,3.7c0.4,1.2,0.8,2.5,1.2,3.7c0.9,2.6,1.8,5.2,2.8,7.7c1,2.8,2,5.6,3,8.3
			c0,0.6-0.1,1.2-0.1,1.8c-0.1,2.3-0.2,4.6-0.3,6.9c-0.1,2.7,0,5.4,0.1,8.1c0.1,2.7,0.4,5.4,0.9,8.1c0.2,0.8,0.3,1.6,0.5,2.4
			c-1,0.5-1.9,1.2-2.9,1.9c-1.1,0.9-2.1,1.9-3,2.9c-0.4,0.5-0.7,0.9-0.9,1.2c-0.1,0-0.1,0-0.2,0.1c-0.1,0.2-0.2,0.3-0.3,0.5l0.2,33
			l0,94.8c0.2,0.1,0.3,0.3,0.4,0.4c0.2,0.1,0.3,0.1,0.4,0.2c0,0,0.1,0,0.1,0v0c1.4,0.3,3,0.4,4.6,0.2c0.3,0,0.6-0.1,0.9-0.2v0.1
			c0.3-0.1,0.5-0.2,0.8-0.2c0,0,0.1-0.1,0.1-0.1c0,0,0,0,0.1,0c0,0,0,0,0,0c0.1,0,0.1-0.1,0.2-0.1l-0.1-47.8l26.8,0l0,25.1
			c0.1,0,0.2,0.1,0.3,0.1c0,0,0.1,0,0.2,0c0,0.1,0,0.2,0,0.4c1.4,0.3,3,0.4,4.6,0.2c0.7-0.1,1.3-0.2,2-0.4c0,0,0-0.1,0-0.1
			c0.2-0.1,0.4-0.1,0.6-0.2l0-25.1l24.6,0c0.2,0.7,0.4,1.3,0.7,1.9c-0.1,0.1-0.2,0.3-0.2,0.4c-0.9,1.6-1.3,3.3-1.3,5.3
			c0,0.5,0.1,1.1,0.2,1.8c0.2,1.1,0.6,2.1,1.1,3c1.4,2.7,3.8,4,7,4c6.7,0,11.6-1.5,14.6-4.5c1.1-1.1,1.9-2.3,2.4-3.6
			c0.4-1,0.6-1.9,0.6-2.8c-0.1-1.9-0.4-3.6-0.9-5.3c0-0.1-0.1-0.2-0.1-0.3l14.8-0.1l0,47.9c0.3,0.1,0.6,0.2,0.9,0.3c0,0,0,0,0,0
			c0,0,0,0.1,0,0.1c1.4,0.3,3,0.4,4.6,0.2c0.7-0.1,1.3-0.2,2-0.4c0-0.1,0-0.2,0-0.3c0.1,0,0.1,0,0.2-0.1l0-48l16.2-10.7
			c0,3.6,0.5,7.2,1.3,10.8c0.2,0.6,0.3,1.2,0.6,1.7c-0.2,0.2-0.3,0.5-0.5,0.8c-0.9,1.6-1.3,3.3-1.3,5.3c0,0.5,0.1,1.1,0.2,1.8
			c0.2,1.1,0.6,2.1,1.1,3c1.4,2.7,3.8,4,7,4c0.8,0,1.6,0,2.3-0.1l0,9c0.2,0.1,0.3,0.2,0.5,0.3c0.1,0,0.2,0,0.2,0c0,0,0,0,0,0
			c1.4,0.3,3,0.4,4.6,0.2c0.5-0.1,1-0.2,1.5-0.3c0,0,0,0,0,0c0,0,0,0,0,0c0.1,0,0.3-0.1,0.4-0.1c0-0.1,0-0.1,0-0.2
			c0.1-0.1,0.2-0.1,0.4-0.2l0-10.3c1.9-0.7,3.4-1.7,4.7-2.9c1.1-1.1,1.9-2.3,2.4-3.6c0.4-1,0.6-1.9,0.6-2.8
			c-0.1-1.9-0.4-3.6-0.9-5.3c-1.1-3.3-2.8-4.9-5.1-4.9c-0.5,0-1.1,0-1.6,0.1l0-42.5l-0.2-18.9c0,0,0.1-0.1,0.1-0.2l-7.9,0l0,0
			c-0.2,0-0.3,0-0.4,0c-0.1,0-0.3,0-0.4,0c-0.4,0-0.8,0-1.1-0.1l-0.5,0.3c0.1-0.8,0.1-1.6,0.2-2.5c0.4-6.3,0.1-12.6-0.8-18.8
			c-0.3-2.1-0.6-4.3-0.9-6.4l90.8-0.1l0,88.6c0.3,0.1,0.6,0.2,0.9,0.3c0.1,0,0.2,0,0.3,0v-0.1c1,0.2,2.1,0.3,3.3,0.3
			c1.5,0,2.8-0.2,4.2-0.5v0.1c0.1,0,0.1,0,0.2,0c0.3-0.2,0.6-0.3,1-0.4l-0.1-88.4l11.2-0.1c0,0,0,0,0,0c0,0,0.1,0,0.1,0
			c0.1-0.1,0.2-0.3,0.3-0.4L325,253l0,74.2c0.2,0.1,0.3,0.2,0.4,0.3c0,0.1,0,0.2,0,0.3c1.2,0.4,2.6,0.6,4.1,0.6
			c1.7,0,3.3-0.2,4.9-0.7c0,0,0-0.1,0-0.1c0.2-0.1,0.3-0.1,0.5-0.2l-0.1-80.8L351.4,235.5C351.4,235.6,351.4,235.5,351.4,235.5z
			 M193.8,365.1c1.6,0,2.9,1.4,3.9,4.1c0.3,0.9,0.6,2,0.8,3c0.2,0.9,0.2,1.5,0.2,1.9c0,2-0.8,3.9-2.5,5.6c-1.1,1.1-2.4,1.9-4,2.6
			l0-17C192.7,365.1,193.3,365.1,193.8,365.1z M198.7,181.6l34.8,1.3c2.2,0,4.3,0,6.5,0c7.1-0.1,14.2,0.1,21.4,0.6
			c1.9,0.1,3.8,0.2,5.7,0.2c-4.6,13.1-8.3,26.5-11,40.2l-1.1,0.6l-2.4,0c2.8-13.3,6.1-25.5,9.9-36.8c-0.2,0-0.4,0.1-0.7,0.1
			c0,0,0,0,0,0v0l-61.2-1.3c0,0,0,0,0,0.1c0,0,0,0,0,0.1c-0.1,0-0.2,0-0.2,0c-4.1,12-7.4,24.2-9.9,36.6l-2.4-0.1
			c-0.3,0-0.6,0-0.9-0.1C190.2,207.9,194.1,194.1,198.7,181.6z M226.1,246.4c0-0.1-0.1-0.2-0.1-0.3c-0.7,0.4-1.4,0.8-2.1,1.2
			c-0.1,0-0.2,0-0.3,0.1c-0.2,0-0.2,0.1-0.2,0.1v0.2c-0.3,0.2-0.7,0.4-1,0.6c0.1,0.2,0.1,0.5,0.1,0.8c0,0.1,0,0.2,0,0.2l1.4-0.8
			c0.3,0.2,0.8,0.5,1.4,0.6c0.2,0.1,0.3,0.1,0.5,0.2c-2.9,1.6-5.9,3.2-9,4.7c0-1.4-0.1-2.6-0.2-3.6c0.1-0.2,0.2-0.4,0.3-0.6l39-24.6
			c-0.6,2.8-1.1,5.6-1.5,8.4l-15.8,8.3c-1.9,1.1-3.7,2.2-5.6,3.3c-1.9,1.1-3.8,2.2-5.7,3.2c-0.5-0.1-0.9-0.2-1.3-0.4
			c0,0-0.3-0.1-0.7-0.4l1.1-0.7C226.2,246.7,226.2,246.6,226.1,246.4z M181.4,232.8l5.9,0.6l-2.8,1.7c-1.4,1-2.9,1.9-4.3,2.9
			l-5.4-0.5c0-0.2-0.1-0.3-0.1-0.5L181.4,232.8z M174.5,235.8c-0.2-1.3-0.5-2.5-0.7-3.7v0l5.8,0.6l-4.1,2.5
			C175.1,235.3,174.8,235.5,174.5,235.8z M226.3,235.6l7.6-4.8c0.6,0.1,1.1,0.1,1.7,0.2c2.6,0.3,5.3,0.5,8,0.6l-5.9,3.6
			c-0.6,0.4-1.3,0.9-1.9,1.3c0,0,0,0,0,0L226.3,235.6z M209,214.1L209,214.1c-0.3-0.4-0.7-0.9-1-1.4c-0.3-0.5-0.6-1.1-0.9-2
			c-0.3-0.9-0.6-1.7-0.8-2.5c-0.2-0.8-0.5-1.9-0.8-3.2c-0.2-0.9-0.3-1.7-0.3-2.2c0.2,0,0.3-0.1,0.5-0.2c0.4-0.1,0.7-0.2,1-0.3
			c0.3,1.9,0.8,4,1.5,6.2c0.7,2.1,1.4,3.4,2.2,4.2c0.1,0.2,0.2,0.4,0.3,0.7c1.9-1.5,4-2.6,6.2-3.2c0.3,0.4,0.7,0.8,1.1,1.1
			c0,0.1-0.1,0.2-0.2,0.4c-0.6,1.4-0.9,2.2-0.9,2.5c0,0.2,0.1,0.4,0.2,0.5c0.1,0,0.2,0.1,0.4,0.2c0.6-0.3,1.6-0.8,3-1.6
			c0.3-0.2,0.6-0.3,0.8-0.5c1.2,0.3,2.6,0.4,4.2,0.4c0.1,0,0.2,0,0.2,0c0.2,0.3,0.5,0.6,0.7,0.9c0.9,0.9,1.5,1.4,2,1.4
			c0.3,0,0.8-1.1,1.4-3.2c0.2-0.1,0.4-0.2,0.6-0.3c0.9,0.7,1.7,1.5,2.3,2.6c0.3,0.5,0.5,1.1,0.8,1.7c0.2,0.1,0.4,0.2,0.7,0.4
			c0,0,0,0,0,0c0.2,0,0.5,0,0.6,0.1v0c1.3,0.6,2.5,1.4,3.6,2.5c1.7,1.5,2.8,3.2,3.5,5l-2.2,0c-0.5-1.4-1.3-2.8-2.4-4
			c-0.5-0.6-1.2-1.1-1.9-1.4c-0.3-0.1-0.6-0.2-1-0.3c0,0,0,0.1,0,0.1c-0.2-0.1-0.3-0.1-0.5-0.2c0,0.5,0.1,1.3,0.1,2.5
			c0,1,0,2.1-0.2,3.2l-30.5-0.7c1.7-3.7,3.7-6.7,6.1-9C209.4,214.3,209.1,214.2,209,214.1z M203.1,196.3c-0.1-0.5-0.2-0.8-0.2-1
			c0-0.4,0.1-0.8,0.4-1.1c0.2,0.4,0.4,1,0.8,1.8c0.5,0.9,0.7,1.4,0.9,1.4c0.4,0,0.5-0.1,0.5-0.3c0-0.6,0.1-1.2,0.3-2.1
			c0.1-0.5,0.3-1.1,0.6-2l0.2,0v2.3c-0.3,0.6-0.4,1.2-0.4,1.6c0,0.1,0,0.2,0,0.2c0,0,0,0,0,0.1c0,0.2,0,0.3,0,0.4c0,0,0.1,0,0.2,0.1
			l0.2,0.1c0,0,0.1,0,0.1,0c0,0,0,0,0,0l0.1,0c0.4,0,1.7-0.5,4-1.6l0,0.1c-0.5,0.7-1.4,1.7-2.8,2.8c-0.8,0.7-1.3,1.4-1.4,2.1
			c-0.6,0.1-1.1,0.2-1.6,0.3c0-0.2-0.1-0.4-0.1-0.6c0,0-0.1,0-0.1,0c0,0,0,0,0-0.1c0,0,0,0,0,0c-0.6-0.2-1.1-0.2-1.2-0.3
			c-1.5-0.5-2.3-1.7-2.3-3.7c0-0.3,0.1-0.5,0.2-0.6c0.1,0.2,0.3,0.5,0.5,0.9c0.4,0.5,0.7,0.8,0.9,0.8c0.4,0,0.5-0.1,0.5-0.2
			c0-0.2,0-0.4,0-0.5C203.3,197.1,203.2,196.8,203.1,196.3z M242,197.5c0.7,1.5,1.1,2.3,1.1,2.6c0,0.2,0,0.3,0,0.4
			c-1.6-1.6-3.6-3.1-6.2-4.4c-3.6-1.9-7.3-2.8-11-2.8c-1.7,0-3.4,0.9-4.9,2.6c-0.5,0.6-0.9,1.2-1.3,1.9l-0.1,0.1
			c-0.2-0.3-0.4-0.4-0.7-0.6c0.2-0.3,0.4-0.7,0.6-1c1.3-2,2.3-3.4,2.8-3.9c0.2-0.2,0.4-0.4,0.5-0.5c0.7,0,2.6-0.2,5.6-0.5
			c3.6,0,6.9,0.4,9.8,1.3c1.1,0.3,2.4,0.8,3.9,1.5c-0.8,0-1.2,0.2-1.2,0.5C241,195.1,241.3,196,242,197.5z M219,198.9
			c0,0.3,0,0.5,0,0.6c0,0.3,0.2,0.5,0.3,0.7c0.2,0,0.3-0.1,0.5-0.2c0-0.1,0-0.3,0-0.5c0.3-0.2,0.6-0.6,1-1.2
			c0.2-0.3,0.5-0.9,0.9-1.7c0.9-1.5,2.6-2.3,5-2.5c2.5-0.2,5.6,0.6,9.3,2.6c0.1,0.1,0.3,0.2,0.4,0.2c0.1,0.6,0.1,1,0.1,1.2
			c-0.2,2.5-0.8,5-1.8,7.3c-2,4.5-5.2,6.8-9.4,6.8c-4,0-6.6-1-7.8-2.9c-0.4-0.7-0.7-1.4-0.8-2.2c-0.1-0.4-0.1-1,0-1.8
			c0.2-0.3,0.5-0.6,0.9-1.1c0.6-0.7,1-1.3,1.2-1.6c0.2-0.4,0.2-0.7,0-0.9c-0.4-0.3-0.7-0.5-0.9-0.6c-0.9-0.6-1.3-1.2-1.3-1.8
			l0.1-0.5c0.2-0.3,0.4-0.5,0.8-0.5C218.5,198.3,218.9,198.5,219,198.9z M228.5,212.9c-0.1,0.6-0.2,1-0.3,1
			c-0.3-0.3-0.5-0.6-0.7-0.8C227.8,213.1,228.2,213,228.5,212.9z M219.9,212.5c-0.5,0.3-0.9,0.5-1.3,0.6l0-0.1
			c0-0.1,0.2-0.3,0.5-0.8C219.4,212.3,219.6,212.4,219.9,212.5z M216.9,203.5c0-0.3,0.1-0.5,0.1-0.8c0-0.2,0.1-0.3,0.1-0.5
			c0.2,0.2,0.5,0.3,0.7,0.4C217.4,202.9,217.1,203.2,216.9,203.5z M214.2,229.4c1.1,0,2.2,0.1,3.3,0.1l-7.6,4.6l-9.6-0.8l6.8-4.3
			l0.7,0.1C209.9,229.3,212,229.3,214.2,229.4z M208.8,228l5.1-3.2l2.5,0.1c2.2,0,4.3,0,6.5,0c0.8,0,1.6,0,2.4,0l-6.3,3.8L208.8,228
			z M219.3,229.6c4.3,0.2,8.5,0.6,12.8,1l-7.4,4.5c-0.2,0.1-0.3,0.2-0.5,0.3l-12.4-1.1L219.3,229.6z M220.7,228.8l6.2-3.9
			c4.7,0,9.3,0.2,14,0.4l-7.2,4.4L220.7,228.8z M235,224.1c0.1-1.3,0.2-2.4,0.2-3.2c0-0.1,0-0.6,0-1.4c0.7,0.4,1.3,0.9,1.8,1.7
			c0.1,0.1,0.2,0.2,0.3,0.3c0.7,0.9,1.2,1.8,1.5,2.7L235,224.1z M203.7,224.5l8.5,0.3l-5.2,3.1l-8-0.5L203.7,224.5z M205.3,229
			l-7,4.2l-7.6-0.6l6.7-4.2L205.3,229z M196.6,234.3l-1.3,0.8c-1.8,1.2-3.6,2.4-5.4,3.6c0,0-0.1,0-0.1,0.1l-7.8-0.6l7.3-4.6
			L196.6,234.3z M198.6,234.4c1.9,0.1,3.7,0.2,5.6,0.3c1.4,0.1,2.8,0.2,4.2,0.3v0.1c-1.8,1.2-3.6,2.4-5.4,3.6
			c-0.5,0.3-1.1,0.7-1.6,1.1l-9.9-0.8L198.6,234.4z M210.6,235.2c4.1,0.3,8.2,0.7,12.3,1.2c-1.2,0.8-2.3,1.6-3.5,2.4
			c-1.1,0.8-2.3,1.5-3.4,2.3l-12.9-1.1L210.6,235.2z M224.7,236.6c0.2,0,0.5,0.1,0.8,0.1c2.9,0.4,5.8,0.6,8.8,0.7
			c-0.6,0.4-1.3,0.9-1.9,1.3c-1.6,1.1-3.3,2.2-4.9,3.2l-9.9-0.8L224.7,236.6z M235.5,229.8l7-4.4c0.6,0,1.1,0.1,1.7,0.1
			c3,0.2,6,0.3,9,0.2l-7.8,4.7L235.5,229.8z M242.7,224.3c-1.1-4.2-3.8-7-8.1-8.6c-0.2-0.5-0.3-0.9-0.6-1.3
			c-0.6-1.2-1.4-2.2-2.4-3.1c1.6-1.2,2.9-2.8,4-5.1c0.7-1.6,1.3-3.3,1.7-5.2c0.3-1.3,0.4-2.4,0.4-3.1c0,0,0-0.2,0-0.5
			c2.9,1.7,4.9,3.4,6.1,5.3c0.4,0,0.5-0.1,0.5-0.3l-1-4.2c0,0,0,0,0,0c-0.4-1.4-0.9-2.3-1.3-2.7c2-0.6,3.1-0.8,3.2-0.6
			c0.1,0.2,0.2,0.1,0.2-0.1c-0.7-0.4-1.4-0.8-2-1.1c-1.1-0.6-2.2-1.1-3.4-1.5c-3.5-1.2-7.4-1.9-11.8-1.9c-2.2,0-3.2,0-3.2,0.1
			c-1.1,0.1-1.9,0.2-2.4,0.3c-0.5,0.5-0.8,0.8-1.1,1c0,0,0,0,0,0c0,0,0,0,0,0c0,0,0,0,0,0c-1.1,1.1-2.3,2.8-3.5,5
			c-0.1,0.1-0.1,0.3-0.2,0.4c-0.1,0-0.3,0-0.4,0c-0.9,0-1.5,0.3-1.8,0.8c-0.1,0.3-0.2,0.7-0.2,1.3c0,0.5,0.2,1.1,0.5,1.7
			c0.1,0.1,0.2,0.3,0.3,0.4c-0.4,1.4-0.6,2.6-0.6,3.9c-0.1,0.6-0.1,1.2,0,1.7c0,0.9,0.2,1.6,0.5,2.3c-2,0.6-3.9,1.5-5.6,2.8
			c-0.4-0.6-0.8-1.4-1.2-2.5c-1.2-3.1-1.8-5.3-1.8-6.6c0-1.3,0.1-2,0.3-2.3c0.2-0.3,0.7-0.8,1.6-1.7c0.9-0.9,1.5-1.6,2-2.3
			c0.4-0.7,0.6-1.1,0.5-1.2c-0.2-0.3-0.5-0.5-0.9-0.5c-0.4,0-1.1,0.2-1.9,0.5c-0.8,0.3-1.3,0.5-1.6,0.6l0-0.1c0-0.2,0-0.8,0-1.9
			c0,0,0-0.5,0-1.3c-0.1-0.8-0.5-1.3-1.2-1.3c-0.5,0-0.9,0.3-1.2,0.9c-0.3,0.7-0.5,1.2-0.7,1.4c-0.2-0.1-0.3-0.3-0.4-0.8
			c-0.1-0.4-0.4-0.5-1-0.5c-0.3,0-0.6,0.3-0.9,0.9c-0.3,0.5-0.5,0.9-0.5,1.3c-0.5-0.2-0.9-0.2-1.5,0c-0.1,1.2-0.2,2-0.2,2.3
			c0,0.2,0.1,0.4,0.2,0.9c0.2,0.6,0.5,1.2,0.8,1.8c0.4,0.6,1,1.1,1.8,1.5c0.8,0.4,1.3,0.6,1.3,0.6c0.1,2.5,0.7,5.3,1.8,8.5
			c0.6,1.8,1.3,3.1,2,4.1c-2.2,2.3-4.1,5.3-5.6,9l-11.1-0.2c2.8-13,6-25,9.8-36l32.4,1.2c2.2,0,4.3,0,6.5,0c7-0.1,14,0.1,21,0.6
			c-3.9,11.6-7,23.5-9.4,35.6L242.7,224.3z M202.1,224.4l-4.7,2.9l-6.5-0.4l4.3-2.7L202.1,224.4z M195.8,228.2l-6.9,4.2l-6.1-0.5
			l6.7-4.2L195.8,228.2z M178.8,238.9c-1.1,0.8-2.3,1.5-3.4,2.3c-0.2-0.9-0.3-1.8-0.5-2.6L178.8,238.9z M180.5,239.1l10.3,1
			c2.2,0.1,4.3,0.2,6.5,0.4c1,0,2,0.1,2.9,0.2c-4.3,2.8-8.7,5.6-13.2,8.2l-10.3-0.2c-0.3-2.1-0.7-4.3-1.1-6.4L180.5,239.1z
			 M190.4,250.1c2.2,0,4.3,0,6.5,0c6.1-0.1,12.2,0.1,18.2,0.4c0.1,0.8,0.2,1.7,0.2,2.7c0,0.3,0,0.6,0.1,1l-38.1-0.8
			c-0.2-1.2-0.4-2.5-0.6-3.7L190.4,250.1z M188.9,248.9l12.8-8.1c5.6,0.4,11.2,0.9,16.7,1.6c2.4,0.3,4.8,0.5,7.2,0.7
			c-3.4,2.1-6.8,4.2-10.2,6.2v0.2L188.9,248.9z M186.8,223.8l6.8,0.3l-4.4,2.7l-6.3-0.4L186.8,223.8z M181.7,227.1l6.2,0.5l-6.9,4.2
			l-5.9-0.5L181.7,227.1z M179.7,227.1l-6.2,3.7c-0.2-1.2-0.4-2.5-0.7-3.7H179.7z M201.4,128.9c0-0.2-0.5-0.8-1.4-1.8
			c-0.9-1.1-2.2-2-3.7-2.7c-1.6-0.8-2.5-1.3-2.8-1.5c-2.6-2-4.3-4.7-5-8.1c-0.2-1.1-0.1-2.1,0.3-3c0.1-0.2,0.3-0.4,0.5-0.5
			c0.1-0.1,0.3-0.1,0.4-0.2c1.4,2,3.1,3.7,5.1,5.1c1.1,0.8,2.4,1,3.7,0.7c0.9-0.2,1.6-0.8,2.1-1.7c0.3-0.5,0.5-1,0.6-1.5
			c0.1-0.2,0.1-0.4,0.1-0.6c0-1.5-0.2-2.9-0.5-4.3c-0.5-2.3-0.9-4.6-1.2-7c-0.1-0.9,0.1-1.7,0.7-2.3c0.4-0.5,1-0.7,1.7-0.6
			c0.6,0,0.9,0.4,1.1,0.9c0.9,2.9,1.7,5.7,2.4,8.6c0.3,1.2,0.9,2.3,1.8,3.2c0.5,0.5,1,0.5,1.5,0.1c0.4-0.4,0.6-1.4,0.8-3.1
			c0.2-1.7,0.2-3.4,0.1-4.9c-0.1-1.6-0.1-2.8,0-3.7c0.1-0.9,0.5-1.3,1.2-1.5c0.7-0.1,1.4,0.1,2.1,0.5c0.3,0.2,0.4,0.4,0.4,0.7
			c0.1,1.6,0,3.1-0.1,4.7c-0.2,2-0.2,3.9-0.2,5.9c0,1,0.4,1.6,1.1,1.8c0.7,0.2,1.4,0.1,2.1-0.6c0.7-0.6,1.4-1.7,2.1-3.2
			c0.7-1.5,1.9-2.4,3.6-2.7c0.3,0,0.5,0.1,0.5,0.3c0.7,1.5,0.5,3-0.5,4.4c-0.9,1.2-1.8,2.3-2.8,3.5c-1.1,1.3-1.6,2.7-1.3,4.4
			c0.3,2.4,0.2,4.9-0.6,7.2c-0.7,2.2-1.8,4-3.3,5.3c-1.6-0.9-3.5-1.4-5.7-1.4c-2.5,0-4.5,0.3-6.1,0.9c-0.2-0.3-0.4-0.6-0.5-0.9
			C201.6,129.3,201.5,129.1,201.4,128.9z M75.6,156.5c-1.6-2.2-2.6-4.7-3-7.4c-0.2-1.7-0.5-3.3-0.7-4.9c-0.3-2.8-0.6-5.7-0.8-8.5
			c-0.1-2.3-0.2-4.6,0-7c0.1-2.3,0.3-4.6,0.6-7c0.3-2.1,0.5-4.2,0.7-6.3c0.3-2.8,0.6-5.7,1.1-8.5c0.4-2.6,0.9-5.2,1.5-7.8
			c0.6-2.6,1.4-5.1,2.4-7.5c0.9-2.3,2-4.5,3.4-6.6c1.5-2.3,3.3-4.5,5.2-6.4C88,77,90,75.4,92.1,74c1.4-0.9,2.9-1.7,4.5-2.4
			c8.6-3.8,17.5-5.3,26.9-4.7c5.2,0.4,10.2,1.6,15,3.6c1.9,0.8,3.7,1.7,5.5,2.8c0.6,0.4,1.2,0.8,1.8,1.2c0.9,0.6,1.8,1.3,2.6,2
			c0.8,0.7,1.6,1.4,2.3,2.2c0.8,0.9,1.5,1.8,2.2,2.8c0.5,0.6,0.9,1.3,1.2,1.9c0.3,0.5,0.6,1.1,0.9,1.6c0.5,0.9,0.9,1.9,1.3,2.8
			c0.4,1,0.8,2,1.1,3.1c-1.4-1.4-2.7-2.2-3.9-2.2c-0.3,0-0.5,0-0.5,0c-0.1,0.1-0.1,0.2-0.1,0.5c0,0.3,0.4,1.4,1.1,3.2
			c0.8,2.1,1.3,3.4,1.5,3.9c-0.2,0-0.4,0-0.8-0.2c-0.2-0.1-0.6-0.3-1.1-0.6c-1.2-0.6-2.4-0.9-3.5-1l0,0.1c0.2,0.3,0.3,0.6,0.4,1
			c0.9,2,1.7,4.2,2.5,6.3c0.7,2.1,1.4,4.3,1.9,6.5c0.5,1.9,0.9,3.9,1.3,5.8c0.6,2.8,1,5.6,1.3,8.3l-0.7,0c-0.4,0-0.7,0-1,0
			c-0.1-1.1-0.3-2.1-0.5-3c-1-5.5-3-8.2-5.9-8.2c-1.8,0-3.1,1.2-4.1,3.4c-0.6,1.5-1,2.9-1,4.1c0,1.4,0.3,2.7,0.8,4
			c1,2.5,2.6,3.8,4.8,3.8l0.2,0.1c-0.1,0.2-0.1,0.4-0.2,0.6c-0.7,2.2-1.5,4.3-2.3,6.5c-0.7,1.9-1.5,3.9-2.2,5.8
			c-0.8,2-1.7,4-2.7,5.9c-1.4,2.5-3,4.9-4.8,7.1c-1.2,1.4-2.6,2.4-4.4,2.9c-2.6,0.8-5.3,1.3-8,1.4c-2.5,0.1-5.1,0.2-7.6,0.2
			c-2.2,0-4.4,0-6.6,0c-1.5,0-3,0-4.4,0c-1.8,0-3.5,0-5.3,0c-2.5,0.2-5,0.5-7.5,0.9c-1.2,0.2-2.5,0.5-3.7,0.8
			c-2.6,0.7-5.3,1.1-8,1.2C79.3,159.8,77.2,158.8,75.6,156.5z M82.4,169.2c-0.2-0.4-1.4-3.3-3.8-8.7c0.6,0.2,1.3,0.3,2.2,0.3
			c1.6,0.2,4.9-0.3,9.9-1.5c4.9-1.1,10.8-1.6,17.6-1.5c5.1,0.2,10.2,0.3,15.3,0.1c2-0.1,4-0.3,6-0.5c0.8-0.1,1.5-0.3,2.2-0.4
			c0.8-0.2,1.7-0.5,2.5-0.8c0.5-0.2,1-0.4,1.4-0.6c0.5-0.2,0.9-0.5,1.3-0.8c0.4-0.3,0.8-0.6,1.2-1c0.4-0.3,0.7-0.7,1-1.2
			c1.1-1.4,2-2.8,2.8-4.4c1.3-2.4,2.6-4.8,3.7-7.3c1.6-3.7,3.1-7.5,4.4-11.3c0.3-1.1,0.6-2.1,0.9-3.2c1-0.1,1.7-0.3,2-0.6
			c0-0.1,0.1-0.2,0.1-0.2c-0.3,0.1-0.7,0.1-1.1,0.1c-1,0-1.9-0.1-2.6-0.5c-1.5-0.2-2.6-1.2-3.4-3c-0.5-1.3-0.8-2.5-0.8-3.6
			c0-1.1,0.3-2.3,1-3.6c0.9-1.8,2-2.7,3.5-2.7c2,0,3.4,2.5,4.3,7.5c0.2,1.2,0.4,2.5,0.5,3.9c0.1,0,0.3,0,0.4,0.1
			c0.1-0.1,0.2-0.1,0.2-0.2c0.3,0,0.7-0.1,1.1-0.1c0.4,0,0.8,0,1.1,0c0,0.5,0.1,1,0.1,1.5c-1.2,0-2,0.1-2.5,0.2
			c0,0.1,0.1,0.3,0.1,0.4c0,0.2,0.1,0.4,0.1,0.6c0.6,0.1,1.4,0.1,2.4,0.1c0,0.4,0,0.7,0,1.1c-0.4,0-0.9,0-1.5,0.1
			c-0.4,0-0.7,0.1-0.9,0.1c0,0.3,0,0.5-0.1,0.7c0.5,0.1,1.3,0.1,2.5,0.2c0,0.3,0,0.7,0,1.1c-0.1,0-0.2,0-0.2,0c-0.4,0-1,0-1.8,0.1
			c-0.2,0-0.4,0-0.6,0c0,0.3,0,0.5-0.1,0.8c0.6,0,1.4,0.1,2.5,0.2c0.1,0,0.1,0,0.2,0c0,2.3,0,4.7-0.1,7.1c-0.1,2.1-0.2,4.3-0.4,6.4
			c-0.2,2.7-0.5,5.3-0.9,8c-0.3,2.5-0.9,5-1.5,7.4c-0.7,2.6-1.5,5.1-2.6,7.6c-1.1,2.5-2.5,4.7-4.2,6.8c-0.5,0.6-1,1.2-1.5,1.7
			c-2-0.9-3.9-1.8-5.9-2.5c-2.4-0.9-4.9-1.7-7.4-2.4c-2.6-0.7-5.3-1.3-8-1.7c-2.5-0.4-5-0.6-7.6-0.8c-2.7-0.2-5.4-0.3-8.1-0.2
			c-2.7,0-5.4,0.2-8.1,0.4c-2.8,0.2-5.5,0.7-8.2,1.4c-2.6,0.7-5.1,1.6-7.6,2.8c-0.3,0.2-0.7,0.3-1,0.5
			C83.7,171.8,83,170.5,82.4,169.2z M51,249.2c-0.1,0.7-0.1,1.3-0.2,2c-0.1-0.4-0.3-0.8-0.4-1.1c-0.9-2.4-1.8-4.8-2.7-7.2
			c-0.9-2.4-1.8-4.8-2.7-7.3c-0.6-1.6-1.1-3.2-1.5-4.8c-0.2-0.8-0.4-1.6-0.7-2.4c-0.4-1.4-0.5-2.9-0.2-4.3c0.2-0.4,0.3-0.9,0.5-1.3
			c0.6-1.7,1.4-3.3,2.3-4.9c0.5-0.8,0.9-1.5,1.5-2.3c0.8-1.1,1.7-2.3,2.5-3.4c1.6-2,3.2-4.1,4.8-6.1c3-3.8,6.2-7.4,9.5-11
			c0.6-0.6,1.1-1.2,1.6-1.8c-0.6,1.1-1.1,2.1-1.7,3.2c-1.2,2.3-2.2,4.7-3.1,7.1c-0.9,2.5-1.7,4.9-2.3,7.5c-0.7,2.6-1.3,5.1-1.9,7.7
			c-0.6,2.6-1.2,5.2-1.7,7.7c-0.5,2.6-1,5.2-1.5,7.8c-0.5,2.6-0.9,5.2-1.3,7.8C51.6,244.6,51.3,246.9,51,249.2z M45.9,415.5
			l-0.1-46.8h5.3l0,46.9C49.4,416,47.7,415.9,45.9,415.5z M80.4,393l0-24.3l5.3,0l0,24.3C83.9,393.3,82.1,393.4,80.4,393z
			 M132.8,379.6c-2.8,2.8-7.4,4.1-13.9,4.1c-2.7,0-4.8-1.1-6-3.3c-0.8-1.4-1.2-2.9-1.2-4.4c0-1.7,0.4-3.2,1.2-4.4
			c0.9,1.1,2.1,2,3.7,2.5c0.7,0.2,1.5,0.3,2.2,0.3c1.7,0,3.3-0.6,4.6-1.6c0.7-0.6,1.3-1.2,1.7-2c0.3-0.5,0.5-1,0.7-1.5
			c0.1-0.2,0.2-0.4,0.2-0.6l7.9,0c0.1,0.2,0.2,0.4,0.2,0.6c0.3,0.9,0.6,2,0.8,3c0.2,0.9,0.2,1.5,0.2,1.9
			C135.3,376.1,134.5,378,132.8,379.6z M112.7,368.6h12.4c-0.2,0.4-0.3,0.8-0.5,1.1c-0.6,1.2-1.5,2.1-2.8,2.6c-2,0.9-4,1.1-6,0.4
			c-0.3-0.1-0.6-0.3-0.9-0.6c-0.8-0.8-1.5-1.7-1.9-2.8c0,0,0,0,0-0.1C112.9,369.1,112.8,368.9,112.7,368.6z M140.9,367.5l-95,0.1
			l0-46l-0.4-32c0.2-0.4,0.4-0.9,0.6-1.3c1.5-2.5,3.8-4.5,7-5.9l95.3-0.1c3.4,1.5,5.8,3.5,7.3,6.1c0.3,0.4,0.5,0.9,0.7,1.4l0.2,36.6
			c0,0.1-0.1,0.2-0.1,0.4l0.1-0.1l0,40.7L140.9,367.5z M151.4,415.5l-0.1-47l5.3,0l0,47.2C154.9,416,153.1,415.9,151.4,415.5z
			 M183.9,342c-1.3,0-3,0.6-4.9,2c-1.1,0.8-3,2.2-5.6,4.3c-2.5,1.9-4.8,3.4-6.9,4.3c-2.8,1.3-5.7,2-8.7,2v-1.9
			c3.4-2.7,6.5-5.7,9.2-9c3.7-4.4,6.6-9.3,8.7-14.6c0.5-1.2,0.9-2.4,1.3-3.6c1.7-0.2,3.4,0.1,5.1,0.8c0.6,0.2,1.1,0.6,1.5,1
			c0.3,0.3,0.6,0.6,0.9,1l0,13.7C184.4,342,184.2,342,183.9,342z M184.6,343.2v1h-0.1c0,0,0,0.1,0,0.2L157.8,362v-6.3
			c0,0,0.1,0,0.1,0c2.9,0,5.9-0.7,8.8-2c2.1-0.9,4.5-2.4,7-4.3c2.6-2.1,4.5-3.5,5.6-4.3c1.9-1.3,3.3-2,4.5-2
			C184.1,343.1,184.4,343.2,184.6,343.2z M180.7,324.5c-1.1-0.2-2.1-0.3-3.2-0.2c0.8-2.4,1.5-4.8,2.1-7.3c0.5-2.1,0.9-4.2,1.3-6.3
			l3.6-2.4l0,18.2C183.5,325.5,182.2,324.8,180.7,324.5z M177.4,321.3c-0.4,1.3-0.8,2.6-1.3,3.9c-0.1,0.1-0.2,0.3-0.3,0.4
			c0,0,0,0.1-0.1,0.1c0,0,0.1,0,0.1,0c-1.2,3.2-2.6,6.3-4.2,9.3c-2.3,4.2-5.1,8.1-8.5,11.5c-1.7,1.7-3.4,3.3-5.3,4.7l0-25.3l22-14.4
			C179.1,314.8,178.3,318,177.4,321.3z M184.6,383.7c-0.7,0-1.4,0-2.2,0c-2.7,0-4.8-1.1-6-3.3c-0.8-1.4-1.2-2.9-1.2-4.4
			c0-1.7,0.4-3.2,1.2-4.5c0.1-0.1,0.1-0.1,0.2-0.2c0.9,1.3,2.2,2.2,3.9,2.8c0.7,0.2,1.5,0.3,2.2,0.3c0.7,0,1.3-0.1,2-0.3V383.7z
			 M184.6,372.8c-1.6,0.5-3.3,0.5-4.9-0.1c-0.3-0.1-0.6-0.3-0.9-0.6c-1.1-1.1-1.8-2.3-2.2-3.8c-0.8-2.8-1.2-5.6-1.2-8.4
			c0-1.1-0.1-2.1-0.2-3.1l9.4-6.2V372.8z M157.8,366.9l0-3.6l27.4-18h5.4L157.8,366.9z M185.8,392.9l0-43l5.3-3.5l0,46.5
			C189.3,393.4,187.6,393.4,185.8,392.9z M191.1,321.3v22.9l-5.3,0l0-22.3l-0.2-14.3l5.4-3.6L191.1,321.3z M182.5,303.6l7.1,0
			l-4,2.6v0c0,0,0,0.1-0.1,0.1l-27.7,18.3l0-4.6L182.5,303.6z M180.9,303c0,0.1,0,0.2,0,0.3l-23.1,15.2l-0.3-25.3
			c5.9-0.3,11.2-1,15.9-1.9c2.9-0.6,5.5-1.3,7.7-2C181.2,290.8,180.9,302.7,180.9,303z M180.5,283.2c0.2,1.5,0.4,3,0.5,4.5
			c-5,2-12.9,3.4-23.5,4.1l0-3.6c-0.1,0-0.2-0.1-0.2-0.1c-0.3-0.5-0.6-1-1.2-1.7c-0.9-1.1-1.9-2-2.9-2.9c-1.1-0.9-2.2-1.6-3.3-2.2
			c0,0,0,0,0,0c-0.1,0-0.1,0-0.2-0.1c-0.1,0-0.2-0.1-0.2-0.1c-0.1,0-0.1-0.1-0.2-0.1l-96.5,0.1c0,0,0,0,0,0h-0.3
			c-0.3-1.9-0.5-3.7-0.7-5.6c-0.2-2.6-0.3-5.1-0.3-7.7c-0.1-7,0.3-14,1.1-20.9c1.1-8.7,2.5-17.3,4.2-25.9c1.1-5.2,2.5-10.2,4.3-15.2
			c1.4-3.8,3-7.4,4.9-11c2.3-4.2,4.9-8.2,8-11.8c0.8-1,1.7-1.9,2.6-2.8c0.9-0.9,1.9-1.7,2.8-2.5c1-0.8,2-1.5,3.1-2.1
			c1.8-1.1,3.7-2,5.6-2.8c4-1.5,8.2-2.6,12.4-3.3c3.9-0.6,7.8-0.8,11.7-0.6c4.8,0.1,9.5,0.6,14.2,1.4c2.9,0.5,5.9,1.2,8.7,2
			c2,0.6,4,1.3,6,2.1c2,0.8,4,1.7,5.9,2.7c1.9,1,3.8,2.2,5.6,3.5c0.7,0.5,1.4,1,2,1.6c0.6,0.5,1.3,1.1,1.9,1.7
			c0.6,0.6,1.2,1.2,1.7,1.8c0.1,0.1,0.2,0.3,0.3,0.4c0.2-0.1,0.5-0.2,0.7-0.2v0c0,0,0.1,0.1,0.1,0.2c1.6-0.6,3.2-1.4,4.8-2.3
			c4.9-2.9,9.5-6.3,13.7-10.2c4.1-3.8,7.7-8,10.9-12.6c3.2-4.6,6-9.5,8.4-14.6c2.2-4.7,3.8-9.5,4.7-14.5c1.6-0.7,3.7-1.1,6.4-1.1
			c2.5,0,4.6,0.7,6.3,2.1c0,0.2-0.1,0.4-0.1,0.6c-0.3,1.7-0.6,3.4-1,5c-0.3,1.1-0.6,2.3-1,3.4c-0.2,0.7-0.5,1.4-0.7,2.1
			c-0.3,0.7-0.5,1.4-0.8,2c-0.3,0.7-0.6,1.3-0.9,2c-0.5,1.1-1,2.1-1.5,3.2c-0.5,1.1-1.1,2.1-1.7,3.1c-0.6,1.1-1.2,2.1-1.9,3.2
			c-2.2,3.4-4.6,6.7-7.2,9.9c-2.9,3.5-5.9,6.9-9.1,10.1c-2.6,2.6-5.2,5.2-7.9,7.7c-3.3,3-6.4,6.1-9.4,9.4c-4.7,5-8.5,10.7-11.5,16.9
			l0.5,0.3c0.7-1.1,1.3-2.1,2-3.1c1.4-2.1,2.8-4.1,4.3-6.1c0.1-0.1,0.2-0.3,0.3-0.4c1.3,4.7,2.3,9.5,3.2,14.3c0.7,4,1.3,8,2,12.1
			c1,5.8,2,11.7,2.9,17.5c0.9,5.4,1.7,10.8,2.5,16.1C178.5,268.9,179.5,276,180.5,283.2z M275.6,362.9c-1.1,0-2.2-0.1-3.2-0.5
			l-0.1-87.6h7.5l0,87.5C278.5,362.7,277.1,362.9,275.6,362.9z M291.6,273.6l-111.4,0.1c-0.4-2.5-0.7-4.9-1-7.4l102.6-0.1l9.9-0.1
			V273.6z M291.8,265L291.8,265L179,265.1c-0.1-0.8-0.2-1.7-0.3-2.5c-0.4-2.8-0.8-5.6-1.2-8.3l12.9,0.5c2.2,0,4.3,0,6.5,0
			c6.2-0.1,12.4,0.1,18.6,0.4c0,0,0,0.1,0,0.1c0.1,0,0.1,0,0.2-0.1c0.2,0,0.4,0,0.6,0c0.1-0.1,0.2-0.2,0.4-0.3c0.1,0,0.2,0,0.3,0.1
			l10.1-5.5c1.2,0.2,2.6,0.3,4.3,0.3c3.1,0,6-0.5,8.7-1.4c1.7-0.5,3.8-1.5,6.5-3c2.7-1.5,4.9-2.5,6.4-3c2.6-0.9,5.5-1.4,8.5-1.4
			c2.4,0,4.3,0.5,5.8,1.4c1.2,0.7,1.8,1.5,1.8,2.2c0,0.5-0.4,0.9-1.1,1.3c-0.3,0.1-1.1,0.5-2.5,1c-1.1,0.4-2,0.9-2.5,1.2
			c-0.8,0.6-1.1,1.2-1.1,2c0,0.5,0.2,0.8,0.7,1.1c0.3,0.2,1,0.4,2,0.6c0.6,0.1,1.7,0.3,3.3,0.6c1.6,0.3,3.1,0.7,4.5,1.2
			c0.3,0.1,0.9,0.3,1.9,0.6c-0.2,2.3,0.6,4.1,2.4,5.6c1.3,1,2.8,1.9,4.3,2.5c2.7,1.1,5.4,1.4,8.2,0.9c1.3-0.2,2.2-0.9,2.9-2
			c1.2-2.1,1.2-4.2,0-6.4c-0.2-0.3-0.3-0.6-0.6-0.9c-1.5-1.5-3.3-2.4-5.3-2.8c-1.1-0.2-2.2-0.3-3.3-0.4c0,0,0,0-0.1,0c0,0,0,0,0,0
			c-0.5,0-0.9-0.1-1.4-0.1c-2.3-0.2-4.5,0.4-6.3,1.9c-0.2,0.2-0.4,0.4-0.6,0.6c-2.9-1-5.5-1.7-7.8-2.2c-0.5-0.1-1.5-0.2-2.9-0.4
			c-0.5-0.1-0.8-0.2-0.8-0.3c0-0.5,0.4-0.9,1.1-1.2c0.2-0.1,1.1-0.4,2.5-1c1.1-0.4,2-0.8,2.5-1.2c0.8-0.6,1.1-1.2,1.1-2
			c0-1-0.5-2-1.5-2.8c-1.6-1.3-3.9-2-7.2-2c-3,0-5.9,0.5-8.5,1.4c-1.6,0.6-3.9,1.5-6.6,3c-2.8,1.5-5,2.5-6.6,3
			c-2.7,0.9-5.5,1.4-8.4,1.4c-0.9,0-1.8,0-2.5-0.1l25.3-13.9l0,0.1c0.3-0.1,0.5-0.2,0.8-0.2c0.5-2.5,0.9-5,1.4-7.5l25.4,0l68.6-0.8
			l-49.2,32.4L291.8,265z M290.4,261.4c-0.3,0.3-0.7,0.5-1.1,0.6c-2.8,0.8-5.5,0.6-8.2-0.5c-0.8-0.3-1.5-0.6-2.2-0.9
			c-0.5-0.2-0.9-0.5-1.3-0.8c0.4-1.2,0.9-2.4,1.5-3.5c0.6-1,1.2-1.9,1.9-2.6C285.2,254.5,288.3,257,290.4,261.4z M282.1,252.7
			c0.5-0.4,1.1-0.8,1.6-1.1c1.8,0.3,3.6,0.8,5.3,1.6c0.5,0.2,0.9,0.5,1.2,0.9c1.7,1.6,2.1,3.4,1.3,5.6c-0.1,0.3-0.2,0.5-0.3,0.8
			C289.1,256.2,286.1,253.6,282.1,252.7z M280.6,252.4c-0.8-0.1-1.6-0.2-2.5-0.2c-0.9,0-1.3,0-1.3,0.1l-0.1-0.1
			c0.6-0.4,1.3-0.6,2.2-0.8c0.7-0.1,1.4-0.1,2-0.1c0.3,0,0.6,0,0.9,0C281.4,251.7,281,252,280.6,252.4z M278.1,253.4
			c0.5,0,1,0,1.5,0.1c-0.4,0.5-0.8,1-1.1,1.5c-0.8,1.2-1.5,2.5-2,3.9c-0.9-1-1.4-2.2-1.6-3.7c0-0.3,0-0.5,0.1-0.7
			c0.1-0.3,0.3-0.5,0.4-0.8C276.2,253.5,277.1,253.4,278.1,253.4z M329.4,327.2c-1.1,0-2.2-0.2-3.2-0.5l-0.1-74.5l7.5-4.9l0,79.2
			C332.3,327,330.9,327.2,329.4,327.2z M301.1,267.3l-8.3,5.6l0-7.1c0.2-0.3,0.6-0.5,1-0.8l0,0l56.7-37.4l0,7.2L301.1,267.3z"/>
		<path fill="#FDCF9D" d="M202.2,130.5c1.6-0.6,3.6-0.9,6.1-0.9c2.2,0,4,0.5,5.7,1.4c1.5-1.3,2.6-3.1,3.3-5.3
			c0.8-2.4,0.9-4.8,0.6-7.2c-0.3-1.7,0.2-3.1,1.3-4.4c1-1.1,2-2.3,2.8-3.5c1-1.4,1.1-2.8,0.5-4.4c-0.1-0.2-0.3-0.3-0.5-0.3
			c-1.6,0.3-2.8,1.2-3.6,2.7c-0.7,1.5-1.4,2.5-2.1,3.2c-0.7,0.6-1.4,0.8-2.1,0.6c-0.7-0.3-1.1-0.9-1.1-1.8c0-2,0-4,0.2-5.9
			c0.1-1.6,0.1-3.2,0.1-4.7c0-0.3-0.2-0.5-0.4-0.7c-0.7-0.5-1.4-0.6-2.1-0.5c-0.7,0.1-1.1,0.6-1.2,1.5c-0.1,0.9-0.1,2.1,0,3.7
			c0.1,1.6,0.1,3.2-0.1,4.9c-0.2,1.7-0.4,2.8-0.8,3.1c-0.5,0.5-1,0.4-1.5-0.1c-0.9-0.9-1.5-1.9-1.8-3.2c-0.7-2.9-1.5-5.7-2.4-8.6
			c-0.2-0.6-0.5-0.9-1.1-0.9c-0.7-0.1-1.3,0.1-1.7,0.6c-0.6,0.6-0.8,1.4-0.7,2.3c0.3,2.3,0.7,4.6,1.2,7c0.3,1.4,0.5,2.8,0.5,4.3
			c0,0.2,0,0.4-0.1,0.6c-0.1,0.5-0.3,1.1-0.6,1.5c-0.5,0.9-1.1,1.4-2.1,1.7c-1.3,0.3-2.5,0.1-3.7-0.7c-2-1.4-3.7-3.1-5.1-5.1
			c-0.1,0-0.3,0.1-0.4,0.2c-0.3,0.1-0.5,0.3-0.5,0.5c-0.4,0.9-0.5,2-0.3,3c0.6,3.4,2.3,6,5,8.1c0.3,0.2,1.3,0.8,2.8,1.5
			c1.5,0.8,2.8,1.7,3.7,2.7c0.9,1.1,1.4,1.7,1.4,1.8c0,0.2,0.1,0.4,0.3,0.6C201.8,129.9,202,130.2,202.2,130.5z"/>
		<path fill="#C272AD" d="M175,245.8c-1-5.8-2-11.7-2.9-17.5c-0.7-4.1-1.4-8.1-2-12.1c-0.8-4.8-1.9-9.6-3.2-14.3
			c-0.1,0.2-0.2,0.3-0.3,0.4c-1.5,2-2.9,4-4.3,6.1c-0.7,1-1.3,2.1-2,3.1l-0.5-0.3c3-6.2,6.8-11.8,11.5-16.9c3-3.2,6.2-6.4,9.4-9.4
			c2.7-2.5,5.3-5.1,7.9-7.7c3.2-3.2,6.2-6.6,9.1-10.1c2.6-3.1,5-6.4,7.2-9.9c0.7-1,1.3-2.1,1.9-3.2c0.6-1,1.2-2,1.7-3.1
			c0.6-1.1,1.1-2.1,1.5-3.2c0.3-0.7,0.6-1.3,0.9-2c0.3-0.7,0.5-1.4,0.8-2c0.2-0.7,0.5-1.4,0.7-2.1c0.3-1.1,0.7-2.2,1-3.4
			c0.4-1.7,0.8-3.4,1-5c0-0.2,0-0.4,0.1-0.6c-1.7-1.4-3.8-2.1-6.3-2.1c-2.7,0-4.8,0.4-6.4,1.1c-0.9,5-2.5,9.9-4.7,14.5
			c-2.4,5.1-5.2,10-8.4,14.6c-3.2,4.6-6.8,8.8-10.9,12.6c-4.2,3.9-8.7,7.3-13.7,10.2c-1.6,0.9-3.2,1.7-4.8,2.3c0-0.1,0-0.1-0.1-0.2
			v0c-0.3,0.1-0.5,0.1-0.7,0.2c-0.1-0.1-0.2-0.3-0.3-0.4c-0.6-0.6-1.1-1.2-1.7-1.8c-0.6-0.6-1.2-1.2-1.9-1.7c-0.7-0.6-1.3-1.1-2-1.6
			c-1.8-1.3-3.7-2.4-5.6-3.5c-1.9-1-3.9-1.9-5.9-2.7c-2-0.8-4-1.5-6-2.1c-2.9-0.8-5.8-1.5-8.7-2c-4.7-0.8-9.4-1.3-14.2-1.4
			c-3.9-0.1-7.8,0.1-11.7,0.6c-4.3,0.6-8.4,1.7-12.4,3.3c-2,0.8-3.8,1.7-5.6,2.8c-1,0.6-2.1,1.4-3.1,2.1c-1,0.8-1.9,1.6-2.8,2.5
			c-0.9,0.9-1.8,1.8-2.6,2.8c-3.1,3.7-5.7,7.6-8,11.8c-1.9,3.5-3.5,7.2-4.9,11c-1.8,5-3.2,10-4.3,15.2c-1.7,8.6-3.1,17.2-4.2,25.9
			c-0.8,7-1.2,13.9-1.1,20.9c0,2.6,0.1,5.2,0.3,7.7c0.1,1.9,0.3,3.7,0.7,5.6h0.3c0,0,0,0,0,0l96.5-0.1c0,0,0.1,0.1,0.2,0.1
			c0.1,0,0.1,0.1,0.2,0.1c0,0,0.1,0,0.2,0.1c0,0,0,0,0,0c1.1,0.6,2.2,1.3,3.3,2.2c1.1,0.9,2.1,1.9,2.9,2.9c0.5,0.6,0.9,1.2,1.2,1.7
			c0.1,0,0.2,0.1,0.2,0.1l0,3.6c10.7-0.7,18.5-2.1,23.5-4.1c-0.1-1.5-0.3-3-0.5-4.5c-0.9-7.1-1.9-14.2-3-21.3
			C176.7,256.5,175.9,251.2,175,245.8z"/>
		<path fill="#FDCF9D" d="M85.5,172.6c2.4-1.2,4.9-2.1,7.6-2.8c2.7-0.7,5.5-1.1,8.2-1.4c2.7-0.2,5.4-0.3,8.1-0.4
			c2.7,0,5.4,0,8.1,0.2c2.5,0.2,5.1,0.4,7.6,0.8c2.7,0.4,5.3,1,8,1.7c2.5,0.7,4.9,1.5,7.4,2.4c2,0.7,4,1.6,5.9,2.5
			c0.5-0.5,1.1-1.1,1.5-1.7c1.7-2.1,3.1-4.4,4.2-6.8c1.1-2.5,2-5,2.6-7.6c0.6-2.5,1.2-4.9,1.5-7.4c0.4-2.6,0.7-5.3,0.9-8
			c0.2-2.1,0.3-4.3,0.4-6.4c0.1-2.4,0.2-4.8,0.1-7.1c0,0-0.1,0-0.2,0c-1.1-0.1-2-0.1-2.5-0.2c0-0.3,0-0.5,0.1-0.8c0.2,0,0.4,0,0.6,0
			c0.8-0.1,1.4-0.1,1.8-0.1c0.1,0,0.1,0,0.2,0c0-0.3,0-0.7,0-1.1c-1.2-0.1-2-0.1-2.5-0.2c0-0.2,0-0.4,0.1-0.7c0.2,0,0.5-0.1,0.9-0.1
			c0.6-0.1,1.2-0.1,1.5-0.1c0-0.4,0-0.7,0-1.1c-1.1,0-1.9,0-2.4-0.1c0-0.2-0.1-0.4-0.1-0.6c0-0.1,0-0.3-0.1-0.4
			c0.5-0.1,1.4-0.1,2.5-0.2c0-0.5-0.1-1-0.1-1.5c-0.3,0-0.7,0-1.1,0c-0.4,0-0.8,0.1-1.1,0.1c-0.1,0-0.2,0.1-0.2,0.2
			c-0.1,0-0.3-0.1-0.4-0.1c-0.1-1.4-0.3-2.7-0.5-3.9c-0.9-5-2.3-7.5-4.3-7.5c-1.4,0-2.6,0.9-3.5,2.7c-0.6,1.3-1,2.5-1,3.6
			c0,1.1,0.3,2.3,0.8,3.6c0.8,1.9,1.9,2.9,3.4,3c0.7,0.3,1.6,0.5,2.6,0.5c0.4,0,0.7,0,1.1-0.1c0,0.1-0.1,0.2-0.1,0.2
			c-0.3,0.3-1,0.5-2,0.6c-0.2,1.1-0.5,2.1-0.9,3.2c-1.3,3.8-2.8,7.6-4.4,11.3c-1.1,2.5-2.3,4.9-3.7,7.3c-0.9,1.5-1.8,3-2.8,4.4
			c-0.3,0.4-0.6,0.8-1,1.2c-0.4,0.4-0.8,0.7-1.2,1c-0.4,0.3-0.8,0.6-1.3,0.8c-0.5,0.2-0.9,0.4-1.4,0.6c-0.8,0.3-1.6,0.6-2.5,0.8
			c-0.7,0.2-1.5,0.3-2.2,0.4c-2,0.3-4,0.4-6,0.5c-5.1,0.2-10.2,0.1-15.3-0.1c-6.8-0.1-12.7,0.4-17.6,1.5c-5,1.2-8.2,1.7-9.9,1.5
			c-0.9-0.1-1.6-0.2-2.2-0.3c2.3,5.4,3.6,8.3,3.8,8.7c0.6,1.3,1.3,2.6,2.1,3.9C84.9,172.9,85.2,172.7,85.5,172.6z M150.7,122.7
			c-0.8,0-1.3-0.3-1.6-1c-0.2-0.3-0.2-0.7-0.2-1.1c0-0.6,0-0.9,0.1-1.1c0.2-0.4,0.8-0.6,1.8-0.8c-0.2-0.4-0.6-0.9-1.3-1.6
			c-0.6-0.6-0.8-1-0.8-1.1c0-0.1,0-0.2,0.1-0.3c0-0.1,0.1-0.1,0.1-0.2c0-0.1,0.2-0.1,0.4-0.1c1,0,1.8,0.8,2.4,2.3
			c0.5,1.1,0.7,1.9,0.7,2.4C152.3,121.8,151.8,122.7,150.7,122.7z"/>
		<path d="M149.2,115.4c-0.2,0-0.3,0-0.4,0.1c0,0.1,0,0.1-0.1,0.2c0,0.1-0.1,0.2-0.1,0.3c0,0.1,0.3,0.5,0.8,1.1
			c0.6,0.7,1.1,1.2,1.3,1.6c-0.9,0.2-1.5,0.4-1.8,0.8c-0.1,0.1-0.1,0.5-0.1,1.1c0,0.4,0.1,0.8,0.2,1.1c0.3,0.7,0.8,1,1.6,1
			c1.1,0,1.6-0.9,1.6-2.6c0-0.5-0.2-1.3-0.7-2.4C150.9,116.1,150.2,115.4,149.2,115.4z M150.4,121.6c-0.3-0.3-0.5-0.7-0.5-1
			s0-0.5,0.1-0.6l1.1-0.1h0.1v0.1C151.4,120.9,151.1,121.5,150.4,121.6z"/>
		<path fill="#FDCF9D" d="M151.2,119.9h-0.1L150,120c0,0-0.1,0.2-0.1,0.6s0.2,0.7,0.5,1C151.1,121.5,151.4,120.9,151.2,119.9
			L151.2,119.9z"/>
		<path fill="#D7AD40" d="M179.7,227.1h-6.8c0.2,1.2,0.5,2.5,0.7,3.7L179.7,227.1z"/>
		<polygon fill="#C52127" points="193.6,224.1 186.8,223.8 182.8,226.3 189.2,226.8 		"/>
		<polygon fill="#C52127" points="180.9,231.8 187.8,227.6 181.7,227.1 175,231.3 		"/>
		<path fill="#EB1D25" d="M190.3,223.1c2.5-12.4,5.8-24.6,9.9-36.6c0.1,0,0.2,0,0.2,0c0,0,0-0.1,0-0.1c0,0,0,0,0-0.1l61.2,1.3v0
			c0,0,0,0,0,0c0.3,0,0.5,0,0.7-0.1c-3.8,11.2-7.1,23.5-9.9,36.8l2.4,0l1.1-0.6c2.7-13.6,6.4-27,11-40.2c-1.9,0-3.8-0.1-5.7-0.2
			c-7.1-0.5-14.2-0.7-21.4-0.6c-2.2,0-4.3,0-6.5,0l-34.8-1.3c-4.6,12.4-8.5,26.2-11.7,41.4c0.3,0,0.6,0.1,0.9,0.1L190.3,223.1z
			 M227.3,183.6c0.3-0.4,0.7-0.6,1.3-0.6c0.7,0,1.1,0.3,1.4,0.8c0.1,0.3,0.2,0.5,0.2,0.8c0,0.2,0,0.3-0.1,0.5
			c-0.1,0.2-0.2,0.4-0.3,0.6c-0.1,0.2-0.3,0.3-0.4,0.3c-0.2,0.1-0.5,0.2-0.8,0.2c-0.6,0-1.1-0.3-1.4-0.8l0-0.2c0,0,0-0.1,0-0.1
			l0-0.2l-0.1-0.3C227,184.2,227.1,183.9,227.3,183.6z"/>
		<path fill="#50ACB0" d="M228.4,185.9c0.4,0,0.7-0.2,1-0.5c0.2-0.3,0.4-0.6,0.4-0.9c-0.1-0.9-0.5-1.4-1.4-1.4
			c-0.4,0-0.7,0.1-0.9,0.4c-0.3,0.3-0.4,0.6-0.4,0.9c0,0.1,0,0.2,0,0.4l0,0.2l0,0.1c0,0,0,0.1,0,0.1
			C227.4,185.7,227.8,185.9,228.4,185.9z"/>
		<path d="M227,184.5c0-0.3,0.1-0.6,0.4-0.9c0.3-0.3,0.6-0.4,0.9-0.4c0.8,0,1.3,0.5,1.4,1.4c0,0.3-0.1,0.6-0.4,0.9
			c-0.3,0.3-0.6,0.5-1,0.5c-0.6,0-1-0.2-1.2-0.6c0,0,0-0.1,0-0.1l0,0.2c0.3,0.5,0.8,0.8,1.4,0.8c0.3,0,0.6,0,0.8-0.2
			c0.2-0.1,0.3-0.2,0.4-0.3c0.2-0.2,0.3-0.4,0.3-0.6c0-0.2,0.1-0.3,0.1-0.5c0-0.3-0.1-0.5-0.2-0.8c-0.3-0.5-0.8-0.8-1.4-0.8
			c-0.6,0-1,0.2-1.3,0.6C227.1,183.9,227,184.2,227,184.5l0,0.4C227,184.8,227,184.7,227,184.5z"/>
		<path d="M227.2,185.2l0-0.1C227.1,185.1,227.1,185.1,227.2,185.2z"/>
		<path fill="#A01F21" d="M180.2,238c1.4-1,2.9-1.9,4.3-2.9l2.8-1.7l-5.9-0.6l-6.8,4.3c0,0.2,0,0.3,0.1,0.5L180.2,238z"/>
		<path fill="#C52127" d="M173.8,232L173.8,232c0.2,1.2,0.4,2.5,0.7,3.8c0.3-0.2,0.7-0.5,1-0.7l4.1-2.5L173.8,232z"/>
		<path fill="#C52127" d="M186.9,248.8c4.5-2.6,8.9-5.4,13.2-8.2c-1-0.1-1.9-0.1-2.9-0.2c-2.2-0.1-4.3-0.2-6.5-0.4l-10.3-1l-4.9,3.1
			c0.4,2.1,0.7,4.3,1.1,6.4L186.9,248.8z"/>
		<path fill="#EB1D25" d="M178.8,238.9l-3.9-0.4c0.2,0.9,0.3,1.8,0.5,2.6C176.5,240.4,177.7,239.7,178.8,238.9z"/>
		<path fill="#B7E2EC" d="M240,188.3c-2.2,0-4.3,0-6.5,0l-32.4-1.2c-3.8,11-7,23-9.8,36l11.1,0.2c1.5-3.7,3.4-6.7,5.6-9
			c-0.8-0.9-1.4-2.3-2-4.1c-1.1-3.2-1.7-6-1.8-8.5c0,0-0.5-0.2-1.3-0.6c-0.8-0.4-1.4-0.9-1.8-1.5c-0.4-0.6-0.6-1.2-0.8-1.8
			c-0.1-0.4-0.2-0.7-0.2-0.9c0-0.3,0.1-1.1,0.2-2.3c0.5-0.2,1-0.2,1.5,0c0.1-0.4,0.3-0.8,0.5-1.3c0.3-0.6,0.6-0.9,0.9-0.9
			c0.6,0,0.9,0.2,1,0.5c0.1,0.4,0.2,0.7,0.4,0.8c0.2-0.2,0.4-0.7,0.7-1.4c0.3-0.6,0.7-0.9,1.2-0.9c0.7,0,1.1,0.4,1.2,1.3
			c0,0.9,0,1.3,0,1.3c0,1,0,1.6,0,1.9l0,0.1c0.3-0.1,0.8-0.3,1.6-0.6c0.8-0.3,1.5-0.5,1.9-0.5c0.4,0,0.7,0.2,0.9,0.5
			c0.1,0.1-0.1,0.5-0.5,1.2c-0.4,0.7-1.1,1.5-2,2.3c-0.9,0.8-1.4,1.4-1.6,1.7c-0.2,0.3-0.3,1-0.3,2.3c0,1.3,0.6,3.5,1.8,6.6
			c0.4,1,0.8,1.9,1.2,2.5c1.7-1.3,3.6-2.2,5.6-2.8c-0.3-0.7-0.5-1.5-0.5-2.3c0-0.5,0-1.1,0-1.7c0-1.2,0.2-2.5,0.6-3.9
			c-0.1-0.1-0.2-0.3-0.3-0.4c-0.4-0.6-0.5-1.2-0.5-1.7c0-0.6,0.1-1,0.2-1.3c0.3-0.5,0.9-0.8,1.8-0.8c0.2,0,0.3,0,0.4,0
			c0.1-0.1,0.1-0.3,0.2-0.4c1.2-2.2,2.3-3.9,3.5-5c0,0,0,0,0,0c0,0,0,0,0,0c0,0,0,0,0,0c0.3-0.2,0.7-0.6,1.1-1
			c0.5-0.1,1.3-0.2,2.4-0.3c0-0.1,1.1-0.1,3.2-0.1c4.4,0,8.3,0.6,11.8,1.9c1.2,0.4,2.3,0.9,3.4,1.5c0.6,0.3,1.2,0.7,2,1.1
			c0,0.2,0,0.3-0.2,0.1c-0.1-0.2-1.2,0.1-3.2,0.6c0.4,0.4,0.8,1.3,1.3,2.7c0,0,0,0,0,0l1,4.2c0,0.2-0.2,0.3-0.5,0.3
			c-1.2-1.9-3.2-3.6-6.1-5.3c0,0.3,0,0.5,0,0.5c0,0.8-0.1,1.8-0.4,3.1c-0.4,1.9-1,3.6-1.7,5.2c-1.1,2.2-2.4,3.9-4,5.1
			c1,0.8,1.8,1.9,2.4,3.1c0.2,0.4,0.4,0.8,0.6,1.3c4.3,1.5,7,4.4,8.1,8.6l8.9,0.2c2.4-12.1,5.5-24,9.4-35.6
			C254,188.4,247,188.2,240,188.3z"/>
		<path fill="#FDCF9D" d="M217.6,198.3c-0.4,0-0.7,0.2-0.8,0.5l-0.1,0.5c0,0.6,0.4,1.2,1.3,1.8c0.2,0.1,0.5,0.3,0.9,0.6
			c0.3,0.2,0.3,0.5,0,0.9c-0.3,0.3-0.7,0.9-1.2,1.6c-0.4,0.5-0.7,0.9-0.9,1.1c0,0.8,0,1.3,0,1.8c0.2,0.8,0.4,1.5,0.8,2.2
			c1.2,1.9,3.8,2.9,7.8,2.9c4.3,0,7.4-2.3,9.4-6.8c1-2.3,1.6-4.7,1.8-7.3c0-0.2,0-0.6-0.1-1.2c-0.1-0.1-0.3-0.2-0.4-0.2
			c-3.8-1.9-6.9-2.8-9.3-2.6c-2.4,0.2-4.1,1.1-5,2.5c-0.4,0.8-0.8,1.3-0.9,1.7c-0.3,0.6-0.6,1-1,1.2c0,0.2,0,0.4,0,0.5
			c-0.2,0.1-0.3,0.2-0.5,0.2c-0.2-0.2-0.3-0.4-0.3-0.7c0-0.1,0-0.3,0-0.6C218.9,198.5,218.5,198.3,217.6,198.3z M231,199
			c0.2-0.3,0.5-0.4,0.9-0.4c0.7,0,1.1,0.4,1.1,1.1c0,0.2-0.1,0.5-0.2,0.6c-0.2,0.3-0.5,0.4-0.9,0.4c-0.5,0-0.8-0.2-1-0.5
			c-0.1-0.2-0.1-0.3-0.1-0.6C230.7,199.4,230.8,199.2,231,199z M227.6,203.3c0-0.3,0.1-0.8,0.2-1.7c0.1-0.8,0.3-1.3,0.6-1.4
			c0.2,0.2,0.4,0.3,0.4,0.4c0.1,0.1,0.1,0.3,0.1,0.6c-0.1,1.5-0.2,2.7-0.2,3.6c0,0.2-0.2,0.3-0.5,0.3c-0.5,0-1.3-0.3-2.5-1.1v-0.5
			C226.1,203.2,226.8,203.2,227.6,203.3z M224.1,197.5c0.2-0.3,0.5-0.4,0.8-0.4c0.7,0,1.1,0.4,1.1,1.1c0,0.2-0.1,0.4-0.2,0.6
			c-0.2,0.3-0.5,0.4-0.9,0.4c-0.5,0-0.8-0.2-0.9-0.5c-0.1-0.2-0.1-0.3-0.1-0.6C223.9,197.9,223.9,197.7,224.1,197.5z M221.3,203.8
			c0.1,0.1,0.3,0.4,0.4,0.8c0.2,0.5,0.3,0.8,0.5,1c0.6,0.9,1.9,1.3,3.8,1.3c1,0,1.9-0.3,2.6-0.9c0.1-0.1,0.3-0.3,0.7-0.6
			c0.2-0.2,0.3-0.3,0.4-0.3l0.5,0.1c0.1-0.1,0.1,0,0.1,0.4c0,0.5-0.5,1.1-1.4,1.6c-1,0.6-2,0.9-3,0.9c-2.1,0-3.6-0.5-4.5-1.4
			c-0.5-0.6-0.8-1.2-0.8-1.8C220.7,204.5,220.9,204.1,221.3,203.8z"/>
		<path d="M225.7,203.8c1.2,0.7,2,1.1,2.5,1.1c0.4,0,0.5-0.1,0.5-0.3c0-0.9,0.1-2,0.2-3.6c0-0.3,0-0.5-0.1-0.6
			c0-0.1-0.2-0.2-0.4-0.4c-0.3,0.2-0.5,0.6-0.6,1.4c-0.1,0.9-0.1,1.5-0.2,1.7c-0.8-0.2-1.4-0.2-1.9,0V203.8z"/>
		<path d="M231.8,200.7c0.4,0,0.7-0.1,0.9-0.4c0.2-0.2,0.2-0.4,0.2-0.6c0-0.7-0.4-1.1-1.1-1.1c-0.4,0-0.6,0.2-0.9,0.4
			c-0.1,0.2-0.2,0.4-0.2,0.6c0,0.2,0,0.4,0.1,0.6C231,200.5,231.3,200.7,231.8,200.7z"/>
		<path d="M224.9,199.2c0.4,0,0.7-0.2,0.9-0.4c0.1-0.2,0.2-0.4,0.2-0.6c0-0.7-0.4-1.1-1.1-1.1c-0.4,0-0.6,0.2-0.8,0.4
			c-0.2,0.2-0.2,0.4-0.2,0.6c0,0.2,0,0.4,0.1,0.6C224.1,199,224.5,199.2,224.9,199.2z"/>
		<path d="M226,208.1c1.1,0,2-0.3,3-0.9c0.9-0.6,1.4-1.1,1.4-1.6c0-0.4,0-0.5-0.1-0.4l-0.5-0.1c-0.1,0-0.2,0.1-0.4,0.3
			c-0.4,0.3-0.6,0.5-0.7,0.6c-0.8,0.6-1.7,0.9-2.6,0.9c-1.9,0-3.2-0.4-3.8-1.3c-0.2-0.2-0.3-0.6-0.5-1c-0.2-0.4-0.3-0.7-0.4-0.8
			c-0.3,0.3-0.5,0.6-0.5,1.1c0,0.6,0.3,1.2,0.8,1.8C222.5,207.6,223.9,208.1,226,208.1z"/>
		<path fill="#D7AD40" d="M242.2,194.2c-1.5-0.7-2.8-1.2-3.9-1.5c-2.9-0.9-6.2-1.3-9.8-1.3c-3.1,0.3-4.9,0.5-5.6,0.5
			c-0.2,0.1-0.3,0.3-0.5,0.5c-0.5,0.5-1.5,1.8-2.8,3.9c-0.2,0.3-0.4,0.6-0.6,1c0.3,0.1,0.5,0.3,0.7,0.6l0.1-0.1
			c0.4-0.7,0.8-1.3,1.3-1.9c1.5-1.8,3.1-2.6,4.9-2.6c3.7,0,7.4,0.9,11,2.8c2.5,1.3,4.6,2.8,6.2,4.4c0,0,0-0.2,0-0.4
			c0-0.2-0.3-1.1-1.1-2.6c-0.7-1.5-1.1-2.4-1.1-2.8C241,194.4,241.4,194.2,242.2,194.2z"/>
		<path fill="#FDCF9D" d="M202.8,198c-0.2,0-0.5-0.3-0.9-0.8c-0.3-0.4-0.4-0.7-0.5-0.9c-0.1,0.1-0.2,0.3-0.2,0.6
			c0,1.9,0.8,3.1,2.3,3.7c0.2,0.1,0.6,0.2,1.2,0.3c0,0,0,0,0,0c0,0,0,0,0,0.1c0,0,0.1,0,0.1,0c0,0.2,0.1,0.4,0.1,0.6
			c0.5-0.1,1-0.2,1.6-0.3c0.1-0.7,0.6-1.4,1.4-2.1c1.4-1.2,2.3-2.1,2.8-2.8l0-0.1c-2.3,1.1-3.6,1.6-4,1.6l-0.1,0c0,0,0,0,0,0
			c0,0-0.1,0-0.1,0l-0.2-0.1c-0.1,0-0.1-0.1-0.2-0.1c0,0,0-0.2,0-0.4c0,0,0-0.1,0-0.1c0-0.1,0-0.2,0-0.2c0-0.4,0.2-1,0.4-1.6V193
			l-0.2,0c-0.3,0.9-0.5,1.6-0.6,2c-0.2,0.8-0.3,1.5-0.3,2.1c0,0.2-0.2,0.3-0.5,0.3c-0.1,0-0.4-0.5-0.9-1.4c-0.4-0.8-0.6-1.3-0.8-1.8
			c-0.3,0.3-0.4,0.6-0.4,1.1c0,0.2,0.1,0.5,0.2,1c0.2,0.5,0.2,0.8,0.2,1c0,0.1,0,0.3,0,0.5C203.3,197.9,203.1,198,202.8,198z"/>
		<path fill="#C3C43A" d="M203.5,223.4l30.5,0.7c0.1-1.1,0.2-2.2,0.2-3.2c0-1.2,0-2-0.1-2.5c0.1,0.1,0.3,0.1,0.5,0.2
			c0,0,0-0.1,0-0.1c0.3,0.1,0.6,0.2,1,0.3c0.8,0.3,1.4,0.8,1.9,1.4c1.1,1.2,1.9,2.6,2.4,4l2.2,0c-0.6-1.8-1.8-3.5-3.5-5
			c-1.1-1-2.3-1.9-3.6-2.5v0c-0.2,0-0.4-0.1-0.6-0.1c0,0,0,0,0,0c-0.2-0.2-0.5-0.3-0.7-0.4c-0.2-0.6-0.5-1.2-0.8-1.7
			c-0.6-1-1.4-1.9-2.3-2.6c-0.2,0.1-0.4,0.2-0.6,0.3c-0.6,2.2-1,3.2-1.4,3.2c-0.5,0-1.2-0.5-2-1.4c-0.3-0.3-0.5-0.6-0.7-0.9
			c-0.1,0-0.2,0-0.2,0c-1.6,0-3-0.1-4.2-0.4c-0.2,0.2-0.5,0.3-0.8,0.5c-1.4,0.8-2.4,1.4-3,1.6c-0.2-0.1-0.3-0.1-0.4-0.2
			c-0.1-0.1-0.2-0.3-0.2-0.5c0-0.3,0.3-1.1,0.9-2.5c0.1-0.2,0.1-0.3,0.2-0.4c-0.4-0.3-0.8-0.7-1.1-1.1c-2.2,0.6-4.3,1.7-6.2,3.2
			c-0.1-0.3-0.2-0.5-0.3-0.7c-0.8-0.7-1.5-2.1-2.2-4.2c-0.8-2.3-1.2-4.4-1.5-6.2c-0.3,0.1-0.6,0.2-1,0.3c-0.2,0.1-0.3,0.1-0.5,0.2
			c0,0.5,0.2,1.3,0.3,2.2c0.3,1.3,0.5,2.3,0.8,3.2c0.3,0.8,0.5,1.6,0.8,2.5c0.3,0.8,0.6,1.5,0.9,2c0.4,0.5,0.7,1,1.1,1.4l0,0
			c0.2,0.1,0.4,0.3,0.6,0.4C207.2,216.7,205.1,219.7,203.5,223.4z M223,215c0.5,0,0.8,0.3,0.8,0.8c0,0.2-0.1,0.4-0.3,0.6
			c-0.2,0.2-0.3,0.2-0.6,0.2c-0.5,0-0.8-0.2-0.8-0.8C222.2,215.2,222.5,215,223,215z M222.1,218.4c0.2-0.2,0.3-0.2,0.5-0.2
			c0.5,0,0.8,0.3,0.8,0.8c0,0.2-0.1,0.4-0.3,0.6c-0.2,0.2-0.3,0.2-0.6,0.2c-0.5,0-0.8-0.2-0.8-0.8
			C221.8,218.7,221.9,218.5,222.1,218.4z M221.6,220.9c0.2-0.2,0.3-0.2,0.5-0.2c0.5,0,0.8,0.3,0.8,0.8c0,0.2-0.1,0.4-0.3,0.6
			c-0.2,0.2-0.3,0.2-0.5,0.2c-0.5,0-0.8-0.2-0.8-0.8C221.3,221.3,221.4,221.1,221.6,220.9z"/>
		<path d="M223,216.5c0.2,0,0.4-0.1,0.6-0.2c0.2-0.2,0.3-0.3,0.3-0.6c0-0.5-0.3-0.8-0.8-0.8c-0.5,0-0.8,0.3-0.8,0.8
			C222.2,216.3,222.5,216.5,223,216.5z"/>
		<path d="M222.6,219.8c0.2,0,0.4-0.1,0.6-0.2c0.2-0.2,0.3-0.3,0.3-0.6c0-0.6-0.3-0.8-0.8-0.8c-0.2,0-0.4,0.1-0.5,0.2
			c-0.2,0.2-0.3,0.4-0.3,0.6C221.8,219.5,222,219.8,222.6,219.8z"/>
		<path d="M222.1,222.3c0.2,0,0.4-0.1,0.5-0.2c0.2-0.2,0.3-0.3,0.3-0.6c0-0.6-0.3-0.8-0.8-0.8c-0.2,0-0.4,0.1-0.5,0.2
			c-0.2,0.2-0.3,0.4-0.3,0.6C221.3,222.1,221.6,222.3,222.1,222.3z"/>
		<path fill="#D7AD40" d="M217.1,202.1c0,0.2-0.1,0.3-0.1,0.5c0,0.3-0.1,0.6-0.1,0.8c0.2-0.3,0.5-0.6,0.9-0.9
			C217.5,202.4,217.3,202.3,217.1,202.1z"/>
		<path fill="#11BBC3" d="M218.7,213.1c0.3-0.1,0.8-0.3,1.3-0.6c-0.3-0.1-0.6-0.2-0.8-0.3c-0.3,0.5-0.5,0.8-0.5,0.8L218.7,213.1z"/>
		<path fill="#C52127" d="M225.2,224.9c-0.8,0-1.6,0-2.4,0c-2.2,0-4.3,0-6.5,0l-2.5-0.1l-5.1,3.2l10.1,0.7L225.2,224.9z"/>
		<polygon fill="#A01F21" points="197.3,227.3 202.1,224.4 195.1,224.1 190.8,226.9 		"/>
		<polygon fill="#C52127" points="207,227.9 212.2,224.8 203.7,224.5 199,227.4 		"/>
		<path fill="#C52127" d="M203,238.7c1.8-1.2,3.6-2.4,5.4-3.6V235c-1.4-0.1-2.8-0.2-4.2-0.3c-1.9-0.1-3.7-0.2-5.6-0.3l-7.1,4.5
			l9.9,0.8C202,239.4,202.5,239.1,203,238.7z"/>
		<polygon fill="#EB1D25" points="190.7,232.6 198.3,233.2 205.3,229 197.5,228.3 		"/>
		<path fill="#C52127" d="M182,238.1l7.8,0.6c0,0,0.1,0,0.1-0.1c1.8-1.2,3.6-2.4,5.4-3.6l1.3-0.8l-7.3-0.7L182,238.1z"/>
		<polygon fill="#C52127" points="182.8,231.9 188.8,232.4 195.8,228.2 189.5,227.7 		"/>
		<path fill="#EB1D25" d="M215.4,249.2c3.4-2,6.8-4.1,10.2-6.2c-2.4-0.1-4.8-0.3-7.2-0.7c-5.6-0.7-11.1-1.2-16.7-1.6l-12.8,8.1
			l26.6,0.6V249.2z"/>
		<path fill="#A01F21" d="M207,229.1l-6.8,4.3l9.6,0.8l7.6-4.6c-1.1,0-2.2-0.1-3.3-0.1c-2.2-0.1-4.3-0.2-6.5-0.2L207,229.1z"/>
		<path fill="#C52127" d="M219.4,238.7c1.2-0.8,2.3-1.6,3.5-2.4c-4.1-0.5-8.2-0.9-12.3-1.2l-7.5,4.7l12.9,1.1
			C217.1,240.2,218.2,239.5,219.4,238.7z"/>
		<path fill="#C52127" d="M225.9,248c0.4,0.2,0.8,0.3,1.3,0.4c1.9-1.1,3.8-2.2,5.7-3.2c1.9-1.1,3.7-2.2,5.6-3.3l15.8-8.3
			c0.5-2.8,0.9-5.6,1.5-8.4l-39,24.6c-0.1,0.2-0.2,0.4-0.3,0.6c0.1,1,0.2,2.2,0.2,3.6c3-1.5,6-3.1,9-4.7c-0.2,0-0.3-0.1-0.5-0.2
			c-0.6-0.2-1.1-0.4-1.4-0.6l-1.4,0.8c0-0.1,0-0.2,0-0.2c0-0.3-0.1-0.5-0.1-0.8c0.3-0.2,0.7-0.4,1-0.6v-0.2c0,0,0.1,0,0.2-0.1
			c0.1,0,0.2-0.1,0.3-0.1c0.7-0.4,1.4-0.8,2.1-1.2c0,0.1,0,0.2,0.1,0.3c0,0.2,0.1,0.4,0.2,0.6l-1.1,0.7
			C225.6,247.8,225.9,248,225.9,248z M232.6,242c1.8-1.2,3.7-2.3,5.5-3.5l11.1-6.3c0,0.2,0,0.5,0,0.7c0,0.2,0,0.3,0,0.5l-21.8,12.9
			c-0.1-0.2-0.2-0.4-0.3-0.7c0,0,0-0.1-0.1-0.1C228.8,244.3,230.7,243.2,232.6,242z"/>
		<path d="M227.3,246.3l21.8-12.9c0-0.2,0-0.3,0-0.5c0-0.3,0-0.5,0-0.7l-11.1,6.3c-1.8,1.1-3.7,2.3-5.5,3.5
			c-1.9,1.2-3.8,2.3-5.7,3.5c0,0,0,0.1,0.1,0.1C227.2,245.9,227.2,246.1,227.3,246.3z"/>
		<path fill="#C52127" d="M224.7,235.1l7.4-4.5c-4.3-0.4-8.5-0.7-12.8-1l-7.4,4.7l12.4,1.1C224.4,235.3,224.6,235.2,224.7,235.1z"/>
		<path fill="#C52127" d="M253.1,225.7c-3,0.1-6,0-9-0.2c-0.6,0-1.1-0.1-1.7-0.1l-7,4.4l9.9,0.6L253.1,225.7z"/>
		<path fill="#11BBC3" d="M228.5,212.9c-0.3,0.1-0.6,0.2-1,0.2c0.2,0.2,0.5,0.5,0.7,0.8C228.3,213.9,228.4,213.5,228.5,212.9z"/>
		<path fill="#B7E2EC" d="M237,221.2c-0.5-0.7-1.1-1.2-1.8-1.7c0,0.8,0,1.3,0,1.4c0,0.8,0,1.9-0.2,3.2l3.7,0.1
			c-0.4-0.9-0.9-1.8-1.5-2.7C237.1,221.4,237.1,221.3,237,221.2z"/>
		<path fill="#EB1D25" d="M240.8,225.3c-4.6-0.3-9.3-0.4-14-0.4l-6.2,3.9l13,0.9L240.8,225.3z"/>
		<path fill="#C52127" d="M237.7,235.1l5.9-3.6c-2.6-0.1-5.3-0.3-8-0.6c-0.6-0.1-1.1-0.1-1.7-0.2l-7.6,4.8l9.5,0.8c0,0,0,0,0,0
			C236.4,235.9,237,235.5,237.7,235.1z"/>
		<path fill="#A01F21" d="M232.3,238.7c0.6-0.5,1.3-0.9,1.9-1.3c-2.9-0.1-5.8-0.3-8.8-0.7c-0.3,0-0.5-0.1-0.8-0.1l-7.2,4.5l9.9,0.8
			C229,240.9,230.7,239.8,232.3,238.7z"/>
		<path fill="#D7AD40" d="M350.3,226.3l-68.6,0.8l-25.4,0c-0.5,2.5-1,4.9-1.4,7.5c-0.3,0-0.6,0.1-0.8,0.2l0-0.1l-25.3,13.9
			c0.7,0.1,1.6,0.1,2.5,0.1c2.9,0,5.8-0.5,8.4-1.4c1.6-0.5,3.8-1.5,6.6-3c2.8-1.4,5-2.4,6.6-3c2.7-0.9,5.6-1.4,8.5-1.4
			c3.2,0,5.6,0.7,7.2,2c1,0.9,1.5,1.8,1.5,2.8c0,0.8-0.4,1.4-1.1,2c-0.5,0.4-1.4,0.8-2.5,1.2c-1.5,0.5-2.3,0.9-2.5,1
			c-0.8,0.4-1.1,0.8-1.1,1.2c0,0.2,0.3,0.3,0.8,0.3c1.4,0.2,2.4,0.3,2.9,0.4c2.3,0.4,4.9,1.1,7.8,2.2c0.2-0.2,0.3-0.4,0.6-0.6
			c1.9-1.4,4-2,6.3-1.9c0.5,0,0.9,0.1,1.4,0.1c0,0,0,0,0,0c0,0,0,0,0.1,0c1.1,0.1,2.2,0.2,3.3,0.4c2.1,0.4,3.9,1.3,5.3,2.8
			c0.3,0.3,0.5,0.6,0.6,0.9c1.2,2.2,1.2,4.3,0,6.4c-0.6,1.1-1.6,1.8-2.9,2c-2.8,0.5-5.6,0.2-8.2-0.9c-1.5-0.6-3-1.5-4.3-2.5
			c-1.8-1.4-2.6-3.3-2.4-5.6c-1-0.4-1.6-0.6-1.9-0.6c-1.4-0.5-2.9-0.8-4.5-1.2c-1.6-0.3-2.7-0.5-3.3-0.6c-0.9-0.2-1.6-0.4-2-0.6
			c-0.5-0.2-0.7-0.6-0.7-1.1c0-0.8,0.4-1.4,1.1-2c0.5-0.4,1.4-0.8,2.5-1.2c1.4-0.5,2.2-0.9,2.5-1c0.8-0.4,1.1-0.8,1.1-1.3
			c0-0.8-0.6-1.5-1.8-2.2c-1.5-0.9-3.4-1.4-5.8-1.4c-3,0-5.8,0.5-8.5,1.4c-1.5,0.5-3.7,1.5-6.4,3c-2.7,1.4-4.9,2.5-6.5,3
			c-2.7,0.9-5.6,1.4-8.7,1.4c-1.6,0-3.1-0.1-4.3-0.3l-10.1,5.5c-0.1,0-0.2,0-0.3-0.1c-0.1,0.1-0.2,0.2-0.4,0.3c-0.2,0-0.4,0-0.6,0
			c-0.1,0-0.1,0.1-0.2,0.1c0,0,0-0.1,0-0.1c-6.2-0.3-12.4-0.5-18.6-0.4c-2.2,0-4.3,0-6.5,0l-12.9-0.5c0.4,2.8,0.8,5.5,1.2,8.3
			c0.1,0.8,0.2,1.6,0.3,2.5l112.8-0.1v0l9.3-6.3L350.3,226.3z"/>
		<path fill="#C272AD" d="M53.2,234.5c0.5-2.6,0.9-5.2,1.5-7.8c0.5-2.6,1.1-5.2,1.7-7.7c0.6-2.6,1.2-5.1,1.9-7.7
			c0.6-2.5,1.4-5,2.3-7.5c0.9-2.5,1.9-4.8,3.1-7.1c0.5-1.1,1.1-2.2,1.7-3.2c-0.5,0.6-1.1,1.2-1.6,1.8c-3.3,3.6-6.5,7.2-9.5,11
			c-1.6,2-3.2,4-4.8,6.1c-0.9,1.1-1.7,2.3-2.5,3.4c-0.5,0.8-1,1.5-1.5,2.3c-0.9,1.5-1.7,3.2-2.3,4.9c-0.2,0.4-0.3,0.8-0.5,1.3
			c-0.3,1.4-0.2,2.9,0.2,4.3c0.3,0.8,0.5,1.6,0.7,2.4c0.4,1.6,0.9,3.2,1.5,4.8c0.9,2.4,1.8,4.8,2.7,7.3c0.9,2.4,1.8,4.8,2.7,7.2
			c0.2,0.4,0.3,0.8,0.4,1.1c0.1-0.7,0.1-1.3,0.2-2c0.3-2.3,0.5-4.6,0.9-6.9C52.3,239.7,52.7,237.1,53.2,234.5z"/>
		<path fill="#C69336" d="M156.6,326.7l-0.1,0.1c0-0.1,0.1-0.2,0.1-0.4l-0.2-36.6c-0.2-0.5-0.4-1-0.7-1.4c-1.5-2.6-3.9-4.6-7.3-6.1
			l-95.3,0.1c-3.2,1.5-5.6,3.4-7,5.9c-0.2,0.4-0.4,0.8-0.6,1.3l0.4,32l0,46l95-0.1l15.8-0.1L156.6,326.7z"/>
		<path fill="#999999" d="M45.9,368.7l0.1,46.8c1.7,0.5,3.5,0.5,5.3,0.1l0-46.9H45.9z"/>
		<path fill="#FFFFFF" d="M114.9,372.2c0.3,0.3,0.6,0.5,0.9,0.6c2,0.7,4,0.6,6-0.4c1.2-0.6,2.2-1.4,2.8-2.6c0.2-0.4,0.4-0.8,0.5-1.1
			h-12.4c0.1,0.3,0.2,0.5,0.3,0.7c0,0,0,0,0,0.1C113.4,370.5,114,371.4,114.9,372.2z"/>
		<path fill="#604D1F" d="M134.2,369.2c-0.1-0.2-0.2-0.4-0.2-0.6l-7.9,0c-0.1,0.2-0.2,0.4-0.2,0.6c-0.2,0.5-0.5,1-0.7,1.5
			c-0.5,0.8-1.1,1.4-1.7,2c-1.4,1-2.9,1.6-4.6,1.6c-0.8,0-1.5-0.1-2.2-0.3c-1.5-0.5-2.8-1.3-3.7-2.5c-0.8,1.2-1.2,2.7-1.2,4.4
			c0,1.5,0.4,3,1.2,4.4c1.3,2.2,3.3,3.3,6,3.3c6.5,0,11.1-1.4,13.9-4.1c1.7-1.7,2.5-3.5,2.5-5.6c0-0.4-0.1-1-0.2-1.9
			C134.8,371.1,134.6,370.1,134.2,369.2z"/>
		<path fill="#999999" d="M80.3,368.7l0,24.3c1.7,0.4,3.5,0.3,5.3-0.1l0-24.3L80.3,368.7z"/>
		<path fill="#A01F21" d="M215.4,254.2c0-0.3-0.1-0.6-0.1-1c-0.1-1.1-0.2-2-0.2-2.7c-6.1-0.3-12.1-0.5-18.2-0.4c-2.2,0-4.3,0-6.5,0
			l-13.7-0.5c0.2,1.2,0.4,2.5,0.6,3.7L215.4,254.2z M204.4,251.8C204.4,251.8,204.4,251.8,204.4,251.8
			C204.4,251.8,204.4,251.8,204.4,251.8l5.6,0.1c0,0.1,0,0.2,0,0.3c0,0.2,0,0.4,0.2,0.6c-1.9-0.1-3.9-0.1-5.8-0.2V251.8z M198,251.9
			c0-0.1,0-0.2,0-0.3l5.3,0.1c0,0,0,0.1,0,0.1c0,0.1,0,0.2,0,0.3c0,0.1,0,0.2,0,0.3c0,0.1,0,0.2,0,0.2c-1.8,0-3.6,0-5.4,0
			C198,252.4,198,252.2,198,251.9z"/>
		<path d="M210,252.2c0-0.1,0-0.2,0-0.3l-5.6-0.1c0,0,0,0,0,0c0,0,0,0,0,0v0.8c1.9,0,3.8,0.1,5.8,0.2
			C210.1,252.6,210,252.4,210,252.2z"/>
		<path d="M203.4,252.4c0-0.1,0-0.2,0-0.3c0-0.1,0-0.2,0-0.3c0,0,0-0.1,0-0.1l-5.3-0.1c0,0.1,0,0.2,0,0.3c0,0.3,0,0.5,0,0.7
			c1.8,0,3.6,0,5.4,0C203.4,252.6,203.4,252.5,203.4,252.4z"/>
		<polygon fill="#999999" points="185.7,321.9 185.7,344.2 191.1,344.2 191.1,321.3 191,304.1 185.6,307.6 		"/>
		<path fill="#F396BF" d="M157.4,293.2l0.3,25.3l23.1-15.2c0-0.1,0-0.2,0-0.3c0-0.3,0.3-12.2,0.2-13.8c-2.2,0.8-4.8,1.5-7.7,2
			C168.7,292.2,163.4,292.9,157.4,293.2z"/>
		<path fill="#C48438" d="M179.2,266.3c0.3,2.5,0.7,4.9,1,7.4l111.4-0.1v-7.5l-9.9,0.1L179.2,266.3z"/>
		<path fill="#CCCCCC" d="M157.8,324.6l27.7-18.3c0,0,0-0.1,0.1-0.1v0l4-2.6l-7.1,0l-24.8,16.3L157.8,324.6z"/>
		<path fill="#F396BF" d="M184.6,328.3c-0.3-0.3-0.6-0.7-0.9-1c-0.4-0.5-0.9-0.8-1.5-1c-1.7-0.7-3.4-0.9-5.1-0.8
			c-0.4,1.2-0.9,2.4-1.3,3.6c0.5-1,0.9-1.9,1.2-2.7c-0.4,1.1-0.8,2-1.2,2.7c-2.1,5.3-5,10.2-8.7,14.6c-2.8,3.3-5.8,6.3-9.2,9v1.9
			c3,0,5.9-0.7,8.7-2c2.1-0.9,4.4-2.4,6.9-4.3c2.6-2.1,4.5-3.5,5.6-4.3c1.9-1.3,3.6-2,4.9-2c0.2,0,0.5,0,0.7,0L184.6,328.3z"/>
		<path d="M175.7,329.1c0.4-0.7,0.8-1.6,1.2-2.7C176.6,327.1,176.2,328.1,175.7,329.1z"/>
		<path fill="#F396BF" d="M157.8,351.2c1.9-1.4,3.7-3,5.3-4.7c3.4-3.5,6.2-7.3,8.5-11.5c1.6-3,3.1-6.1,4.2-9.3c0,0-0.1,0-0.1,0
			c0,0,0-0.1,0.1-0.1c0.1-0.2,0.2-0.3,0.3-0.4c0.5-1.3,0.9-2.6,1.3-3.9c1-3.2,1.8-6.5,2.4-9.8l-22,14.4L157.8,351.2z"/>
		<path fill="#C69336" d="M179.3,345.1c-1.1,0.8-3,2.2-5.6,4.3c-2.6,1.9-4.9,3.4-7,4.3c-2.9,1.3-5.8,2-8.8,2c0,0-0.1,0-0.1,0v6.3
			l26.7-17.6c0,0,0-0.1,0-0.2h0.1v-1c-0.2-0.1-0.5-0.1-0.8-0.1C182.7,343.1,181.2,343.8,179.3,345.1z"/>
		<polygon fill="#CCCCCC" points="185.1,345.4 157.8,363.3 157.8,366.9 190.6,345.4 		"/>
		<path fill="#FFFFFF" d="M175.4,359.8c0.1,2.8,0.5,5.6,1.2,8.4c0.4,1.5,1.1,2.8,2.2,3.8c0.3,0.3,0.6,0.5,0.9,0.6
			c1.7,0.6,3.3,0.6,4.9,0.1v-22.2l-9.4,6.2C175.3,357.7,175.3,358.8,175.4,359.8z"/>
		<path fill="#604D1F" d="M180.4,374.1c-1.7-0.5-3-1.5-3.9-2.8c-0.1,0.1-0.1,0.2-0.2,0.2c-0.8,1.2-1.2,2.7-1.2,4.5
			c0,1.5,0.4,3,1.2,4.4c1.3,2.2,3.3,3.3,6,3.3c0.8,0,1.5,0,2.2,0v-9.6c-0.6,0.2-1.3,0.3-2,0.3C181.9,374.5,181.2,374.3,180.4,374.1z
			"/>
		<path fill="#999999" d="M151.3,368.5l0.1,47c1.7,0.5,3.5,0.5,5.3,0.1l0-47.2L151.3,368.5z"/>
		<path fill="#999999" d="M185.8,349.9l0,43c1.7,0.4,3.5,0.4,5.3,0l0-46.5L185.8,349.9z"/>
		<path fill="#604D1F" d="M196.3,379.6c1.7-1.7,2.5-3.5,2.5-5.6c0-0.4-0.1-1-0.2-1.9c-0.2-1.1-0.5-2.1-0.8-3c-1-2.7-2.3-4.1-3.9-4.1
			c-0.6,0-1.1,0-1.6,0.1l0,17C193.9,381.6,195.2,380.7,196.3,379.6z"/>
		<path fill="#C48438" d="M293.7,265L293.7,265c-0.4,0.3-0.7,0.5-1,0.8l0,7.1l8.3-5.6l49.4-32.5l0-7.2L293.7,265z"/>
		<path fill="#999999" d="M326.1,252.3l0.1,74.5c1,0.3,2.1,0.5,3.2,0.5c1.5,0,2.9-0.2,4.2-0.6l0-79.2L326.1,252.3z"/>
		<path fill="#4FB85C" d="M291.2,260.4c0.2-0.2,0.3-0.5,0.3-0.8c0.8-2.1,0.4-4-1.3-5.6c-0.4-0.3-0.8-0.6-1.2-0.9
			c-1.7-0.8-3.5-1.4-5.3-1.6c-0.6,0.3-1.1,0.7-1.6,1.1C286.1,253.6,289.1,256.2,291.2,260.4z"/>
		<path fill="#4FB85C" d="M278.9,251.4c-0.8,0.1-1.5,0.4-2.2,0.8l0.1,0.1c0-0.1,0.4-0.1,1.3-0.1c0.9,0,1.7,0,2.5,0.2
			c0.4-0.4,0.8-0.7,1.2-1c-0.3,0-0.6,0-0.9,0C280.2,251.3,279.6,251.4,278.9,251.4z"/>
		<path fill="#4FB85C" d="M274.9,254.5c-0.1,0.2-0.1,0.5-0.1,0.7c0.2,1.5,0.7,2.7,1.6,3.7c0.5-1.4,1.2-2.7,2-3.9
			c0.3-0.5,0.7-1,1.1-1.5c-0.5,0-1-0.1-1.5-0.1c-1,0-1.9,0.1-2.8,0.3C275.2,253.9,275,254.2,274.9,254.5z"/>
		<path fill="#4FB85C" d="M279.1,256.3c-0.6,1.1-1.1,2.3-1.5,3.5c0.4,0.3,0.8,0.6,1.3,0.8c0.7,0.3,1.5,0.7,2.2,0.9
			c2.7,1.1,5.4,1.2,8.2,0.5c0.4-0.1,0.8-0.3,1.1-0.6c-2.1-4.3-5.2-6.9-9.4-7.7C280.3,254.4,279.6,255.3,279.1,256.3z"/>
		<path fill="#999999" d="M272.3,274.8l0.1,87.6c1,0.3,2.1,0.5,3.2,0.5c1.5,0,2.9-0.2,4.2-0.6l0-87.5H272.3z"/>
		<path fill="#F396BF" d="M176.6,325.7c0.4-0.5,3.1-13.5,3.1-14.2c0-1.8-1.4,4.1-3.3,4.1s-3.5,1.5-3.5,3.3c0,1.5,1,2.7,2.4,3.2
			c-1.3,1-2.2,2.4-2.4,4.1c-1.3-2.4-3.2-3.9-5.2-3.9c-4.1,0-7.4,6-7.4,13.4c0,7.4-5.2,18.2-1.1,18.2c4.1,0,15.9-10.8,15.9-18.2
			c0-1.6-0.2-3.1-0.4-4.5c1.1,1.1,2.6,1.8,4.3,1.8c3.4,0,6.1,0.6,6.1-2.7C185.1,327,180.9,325.2,176.6,325.7z"/>
		<path fill="#FDDB00" stroke="#000000" stroke-miterlimit="10" d="M148.2,179.7c2.7,0.4,4.9-2.3,3.9-4.9c-1.2-3.4-2.8-8.1-4.3-12.8
			c-2.7-8.9-1.2-18.3-1.1-21c0.2-3.7,0.4-7.3,0.4-7.4c0.8-2.2,1.7-4.3,2.4-6.5c0.1-0.2,0.2-0.4,0.2-0.6l-0.2-0.1
			c-2.2,0-3.8-1.2-4.8-3.8c-0.5-1.3-0.7-2.6-0.8-4c0-1.2,0.3-2.6,1-4.1c0.9-2.3,2.3-3.4,4.1-3.4c2.9,0,4.8,2.8,5.9,8.2
			c0.2,1,0.3,2,0.5,3c0.3,0,0.6,0,1,0l0.7,0c-0.3-2.8-0.7-5.6-1.3-8.3c-0.4-1.9-0.8-3.9-1.3-5.8c-0.5-2.2-1.2-4.4-1.9-6.5
			c-0.7-2.2-1.5-4.3-2.5-6.3c-0.1-0.3-0.3-0.6-0.4-1l0-0.1c1.2,0,2.3,0.3,3.5,1c0.5,0.3,0.9,0.5,1.1,0.6c0.3,0.2,0.6,0.3,0.8,0.2
			c-0.1-0.5-0.6-1.8-1.5-3.9c-0.8-1.9-1.1-2.9-1.1-3.2c0-0.3,0-0.4,0.1-0.5c0.1,0,0.2,0,0.5,0c1.2,0,2.5,0.8,3.9,2.2
			c-0.3-1-0.7-2-1.1-3.1c-0.4-1-0.8-1.9-1.3-2.8c-0.3-0.5-0.6-1.1-0.9-1.6c-0.4-0.7-0.8-1.3-1.2-1.9c-0.7-1-1.4-1.9-2.2-2.8
			c-0.7-0.8-1.4-1.5-2.3-2.2c-0.8-0.7-1.7-1.4-2.6-2c-0.6-0.4-1.2-0.8-1.8-1.2c-1.7-1.1-3.6-2-5.5-2.8c-4.8-2-9.8-3.1-15-3.6
			c-9.3-0.7-18.3,0.9-26.9,4.7c-1.6,0.7-3.1,1.5-4.5,2.4C90,75.4,88,77,86.2,78.7c-2,1.9-3.7,4.1-5.2,6.4c-1.4,2.1-2.5,4.3-3.4,6.6
			c-1,2.5-1.8,4.9-2.4,7.5c-0.6,2.6-1.1,5.2-1.5,7.8c-0.5,2.8-0.8,5.6-1.1,8.5c-0.2,2.1-0.5,4.1-0.7,6.3c-0.1,1.1,0.1,6.5,0,7.5
			c0,0-0.1,7.2-0.1,8.7c0,0-0.9,10.4-2.7,21.3c-0.5,3.3-1,12.2-0.9,18.7c0.1,3.5,3.6,5.9,6.9,4.7c8.1-2.9,22.6-9.2,30.3-9.2
			C115.3,173.5,137.3,178.2,148.2,179.7z"/>
	</g>
</g>
<g id="Layer_19">
</g>
<g id="Layer_20">
</g>
<g id="Layer_21">
</g>
<g id="Layer_22">
</g>
<g id="Layer_23">
</g>
<g id="Layer_24">
</g>
<g id="Layer_25">
</g>
<g id="Layer_26">
</g>
<g id="Layer_27">
</g>
<g id="Layer_28">
</g>
<g id="Layer_29">
</g>
<g id="Layer_30">
</g>
<g id="Layer_31">
</g>
<g id="Layer_32">
</g>
<g id="Layer_33">
</g>
<g id="Layer_34">
</g>
<g id="Layer_36">
</g>
<g id="Layer_35">
</g>
<g id="Layer_37">
</g>
<g id="Layer_38">
</g>
<g id="Layer_39">
</g>
<g id="Layer_40">
</g>
</svg>
