<?xml version="1.0" encoding="utf-8"?>
<!-- Generator: Adobe Illustrator 18.1.1, SVG Export Plug-In . SVG Version: 6.00 Build 0)  -->
<!DOCTYPE svg PUBLIC "-//W3C//DTD SVG 1.1//EN" "http://www.w3.org/Graphics/SVG/1.1/DTD/svg11.dtd">
<svg version="1.1" xmlns="http://www.w3.org/2000/svg" xmlns:xlink="http://www.w3.org/1999/xlink" x="0px" y="0px"
	 viewBox="0 0 393 483" enable-background="new 0 0 393 483" xml:space="preserve">
<g id="ziutek_x5F_01">
</g>
<g id="ziutek_x5F_02">
</g>
<g id="ziutek_x5F_03">
</g>
<g id="ziutek_x5F_04">
</g>
<g id="ziutek_x5F_05">
</g>
<g id="ziutek_x5F_06">
</g>
<g id="ziutek_x5F_07">
</g>
<g id="ziutek_x5F_08">
</g>
<g id="ziutek_x5F_09">
</g>
<g id="ziutek_x5F_10">
</g>
<g id="lady_x5F_01">
</g>
<g id="Layer_13">
	<g>
		<g>
			<path fill="none" d="M134.9,207.1c-2.6,5.9-3.9,9.3-3.9,10c0,0.5,0.8,2.1,2.4,4.7c0.6,1.1,1.5,2.4,2.5,4.1
				c-0.3-3-0.6-5.7-0.7-8.1C135,214.9,134.9,211.3,134.9,207.1z"/>
			<path d="M312.8,181.7c-3.1-2.1-6.2-3.7-9.6-4.9c0-0.2,0-0.6,0-1.1c-0.1-0.9-0.4-1.7-0.9-2.3c-1.5-2.1-4.8-3.2-9.7-3.2
				c-0.5,0-1.8,0.1-3.9,0.4c-0.5-0.1-0.9-0.2-1.4-0.3c-1.2-0.3-2.5-0.6-3.8-0.9c-1.1-0.3-2.1-0.5-3.2-0.8c-0.8-0.2-1.5-0.3-2.3-0.5
				c-1.2-0.3-2.4-0.6-3.6-0.8c-11.8-3-23.7-5.5-35.7-7.5c-1.4-0.2-2.8-0.4-4.2-0.6c-1.9-0.3-3.9-0.5-5.8-0.8
				c-5.4-0.7-10.8-1.4-16.2-2c-3.4-3.7-7-7.1-10.9-10.4c-3.9-3.2-8.2-5.9-12.7-8.1c0.2-0.3,0.3-0.5,0.5-0.8
				c3.4-5.9,4.9-13.3,4.3-22.2s-4.4-19.7-11.4-32.6c-7-12.9-16.6-23.5-28.8-31.7c-12.2-8.2-25-10.7-38.3-7.5c-4.2,1-8,2.6-11.2,4.6
				c-0.5,0.2-0.9,0.3-1.4,0.5c-3.5,1.5-6.6,3.5-9.4,6c-1.9,1.7-3.5,3.5-5,5.5c-1.3,1.8-2.5,3.6-3.6,5.6c-2.7,5.2-4.5,10.8-5.3,16.6
				C79,84.7,79,87.4,79.5,90c0.4,2.1,1.5,3.7,3.6,4.1c4.7,0.9,9.5,18.9,10.6,21.6c0.2,0.5,0.4,1.1,0.6,1.6c1.3,3.1,2.7,6.3,4.1,9.4
				c1.4,3.2,2.9,6.5,4.3,9.8c1.3,3,2.6,6,4,9c0.5,1.1,1.1,2.3,1.7,3.4c0.1,2.4,0.3,5.2,0.7,8.5c0.2,1.3,0.2,3.3,0.2,6.2
				c0.1,3.8-0.3,7.3-1.2,10.7c0,0.1-0.1,0.2-0.1,0.3c-0.1,0.2-0.3,0.5-0.5,0.7c-0.1,0.1-0.2,0.2-0.3,0.4c1.3-0.3,2.9-1,4.7-1.9
				c2.4-1.3,5-2.9,7.6-5c0.7-0.6,1.4-1.1,2-1.6c1.2,1,2.5,1.9,3.9,2.8c2.6,1.6,5.3,2.9,8.1,4c0.2,0.1,0.4,0.1,0.6,0.2
				c0,0.3,0,0.6,0,0.8c0,0.9,0.1,1.6,0.3,2.3c-0.6,1-1.2,2-1.7,3.1c-1.7,3.4-4,7.5-6.8,12.3c-2.8,4.8-5,9.1-6.5,12.8
				c-1.5,3.7-2.3,6.4-2.6,8.2c-0.2,1.7-0.2,3.4,0,5c0.3,1.6,1.2,3.9,2.9,6.8c1.7,2.9,3.7,6,6.1,9.3c1.9,2.7,3.7,5.4,5.5,8.1
				c1.5,2.2,2.7,4.6,3.8,7.2c0.2,0.6,0.4,1.3,0.5,1.9c-0.5,0.1-1,0.1-1.6,0.1c-1.3,0-2.2-0.2-2.6-0.6c-0.4-0.4-1.1-0.6-2-0.6
				c-1.3,0-2.1,0.3-2.4,1c-0.1,0.3-0.2,0.9-0.2,1.9c0,0,0,0.5,0,1.2c0.1,0.9,0.4,1.8,0.8,2.5c1.3,2.4,3.9,3.6,7.7,3.7
				c1.3,0,2.7-0.3,4-0.9c0.4,5.1,0.7,10.1,0.9,14.9c0.2,5.4,0.6,10.4,1,15c-0.1,0-0.1,0-0.2-0.1c0,0.1,0,0.2,0,0.3
				c0,0.4,0,0.7-0.1,1c1.8,0.7,3.8,1.3,5.8,1.8c0.1,2.4,0.2,4.5,0.4,6.4c0.3,2.6,0.3,6.4,0.2,11.6c-0.1,10.7-1,21.1-2.9,31.4
				c-1.4,7.8-4.6,20.2-9.8,37.1c-1.3,4.4-2.4,8.1-3.2,11.1c0.7,0,1.2,0.2,1.7,0.5c0,0,0-0.1,0-0.1c5.2,3,11.7,5.5,19.5,7.7
				c3.2,0.9,6.4,1.7,9.5,2.3c0,0.7,0.1,1.4,0.2,2.1c0,1.7-0.1,4-0.4,6.6c-1.6,1.1-3.2,1.9-4.7,2.4c-4.4,1.4-7.5,2.4-9.3,3
				c-2.9,0.9-5,1.7-6.4,2.4c-1.7,0.8-3,1.7-3.7,2.7c-0.8,1.1-1.2,2.4-1.2,4c0,0.2,0,0.7-0.1,1.5c0.1,0.9,0.4,1.7,0.9,2.3
				c1.6,2.1,5.2,3.1,10.9,3.2c3.6,0,8.6-1,14.9-3c3.2-1,6.4-2.1,9.6-3.3c4.2-1,6.9-2.3,7.8-3.8c0.4-0.6,0.6-1.3,0.6-2.2
				c0-1.1,0-1.9,0-2.5c0-2.6-0.2-4.4-0.8-5.5c-0.3-0.7-0.9-1.4-1.7-2.1c-0.5-0.4-1.2-0.8-2.1-1.1c-0.3-1.4-0.5-2.9-0.6-4.4
				c3,0.4,5.9,0.6,8.8,0.8c11.3,0.5,22.5,0.6,33.7,0.2c0.1,0.3,0.2,0.5,0.2,0.8c0,0.7,0,1.5,0.1,2.5c0.1,1.5,0.2,3.5,0.4,5.8
				c0,1.7-0.1,4-0.4,6.6c-1.6,1.1-3.2,1.9-4.7,2.4c-4.4,1.4-7.5,2.4-9.3,3c-2.9,0.9-5,1.7-6.4,2.4c-1.7,0.8-3,1.7-3.7,2.7
				c-0.8,1.1-1.2,2.4-1.2,4c0,0.2,0,0.7-0.1,1.5c0.1,0.9,0.4,1.7,0.9,2.3c1.6,2.1,5.2,3.1,10.9,3.2c3.6,0,8.6-1,14.9-3
				c3.2-1,6.4-2.1,9.6-3.3c4.2-1,6.9-2.3,7.8-3.8c0.4-0.6,0.6-1.3,0.6-2.2c0-1.1,0-1.9,0-2.5c0-2.6-0.2-4.4-0.8-5.5
				c-0.3-0.7-0.9-1.4-1.7-2.1c-0.5-0.4-1.2-0.8-2.1-1.1c-0.5-2.6-0.8-5.6-0.7-8.9c0-0.5,0-0.9,0-1.4c0-1.4,0.1-2.7,0.3-4.1
				c3.9-0.2,7.6-0.8,11.2-1.5c3.9-0.8,8.6-2.1,14.1-4c1.8-0.6,3.7-1.3,5.5-2c0.3,0,0.6-0.1,0.9-0.1c0.1,0,0.2,0,0.4,0
				c-0.7-3.2-1.7-7.7-3-13.4c-2.3-10.6-3.9-19.2-4.9-25.9c-1-6.7-2.1-14.6-3.2-23.8c-1.1-9.2-1.7-15.6-1.9-19.2
				c-0.1-3.6-0.3-7.4-0.5-11.4c-0.3-4.6-0.4-10.4-0.3-17.2l0.1-6.3c2-1.1,4.1-2.4,6.3-3.9c-0.1-0.2-0.2-0.4-0.2-0.5
				c-0.5-8.1-1.4-16.4-2.9-25c-2.6-15.3-6.7-29.8-12.3-43.3c-4.2-10.1-9.2-19.9-15-29.2c0,0-2-3.1-2.6-4c1.8,0.2,3.6,0.3,5.5,0.5
				c4.9,0.6,8.8,1.1,11.8,1.5c3.3,0.4,6.7,0.9,10,1.5c1.5,0.3,3,0.5,4.6,0.7c6.8,0.9,13.5,2.2,20,3.9c1.6,0.4,3.1,0.8,4.7,1.2
				c0.9,0.2,1.8,0.5,2.8,0.7c0.3,0.6,0.6,1.2,0.9,1.8c1,2,2.4,3.4,4.3,4.4c0.8,0.4,1.7,0.7,2.7,0.9c1.6,0.2,3.2,0.1,4.6-0.5
				c0.2-0.5,0.2-1.1,0.1-1.7c2.1-0.4,3.7-1.4,4.7-3.1c1.5,0.2,3,0.4,4.5,0.8c2.4,0.6,4.7,0.5,6.9-0.1c0.2-0.1,0.4-0.3,0.5-0.6
				C314.1,183.3,313.8,182.4,312.8,181.7z M133.5,221.9c-1.6-2.6-2.4-4.2-2.4-4.7c0-0.8,1.3-4.1,3.9-10c0,4.1,0.1,7.7,0.3,10.7
				c0.2,2.4,0.4,5.1,0.7,8.1C134.9,224.3,134.1,223,133.5,221.9z"/>
			<path fill="none" d="M160.2,412.5C160.2,412.5,160.2,412.5,160.2,412.5c0,0,0.1,0,0.1,0l0-0.1
				C160.3,412.5,160.2,412.5,160.2,412.5z"/>
			<path fill="none" d="M217.2,422.7C217.2,422.7,217.1,422.7,217.2,422.7c0,0,0.1,0,0.1,0l0-0.1
				C217.3,422.7,217.2,422.7,217.2,422.7z"/>
			<path fill="none" d="M168.6,402.1c-0.4-0.1-0.8-0.1-1.2-0.2l-0.1,0.2C167.8,402.1,168.2,402.1,168.6,402.1z"/>
			<path fill="none" d="M134.9,207.1c-2.6,5.9-3.9,9.3-3.9,10c0,0.5,0.8,2.1,2.4,4.7c0.6,1.1,1.5,2.4,2.5,4.1
				c-0.3-3-0.6-5.7-0.7-8.1C135,214.9,134.9,211.3,134.9,207.1z"/>
			<path fill="none" d="M137.9,243.8C137.9,243.8,137.9,243.9,137.9,243.8l0,0.2C137.9,243.9,137.9,243.9,137.9,243.8z"/>
			<path fill="none" d="M145.8,87.1C145.8,87.1,145.8,87,145.8,87.1L145.8,87.1C145.8,87.1,145.8,87.1,145.8,87.1z"/>
			<path fill="none" d="M135,245.8L135,245.8C135,245.7,135,245.7,135,245.8z"/>
			<path fill="none" d="M210.6,156c-0.1-0.1-0.1-0.1-0.2-0.2l-0.1,0.1C210.4,156,210.5,156,210.6,156z"/>
			<path fill="none" d="M198.3,393.5c-0.8-0.1-1.7-0.3-2.5-0.3C198.4,393.5,199.2,393.7,198.3,393.5z"/>
			<path fill="none" d="M286.3,171.4c-0.1,0-0.2-0.1-0.2-0.1L286.3,171.4C286.3,171.5,286.3,171.5,286.3,171.4z"/>
			<path d="M225,172.5c1.8,0.2,3.6,0.3,5.5,0.5c4.9,0.6,8.8,1.1,11.8,1.5c3.3,0.4,6.7,0.9,10,1.5c1.5,0.3,3,0.5,4.6,0.7
				c6.8,0.9,13.5,2.2,20,3.9c1.6,0.4,3.1,0.8,4.7,1.2c0.9,0.2,1.8,0.5,2.8,0.7c0.3,0.6,0.6,1.2,0.9,1.8c1,2,2.4,3.4,4.3,4.4
				c0.8,0.4,1.7,0.7,2.7,0.9c1.6,0.2,3.2,0.1,4.6-0.5c0.2-0.5,0.2-1.1,0.1-1.7c2.1-0.4,3.7-1.4,4.7-3.1c1.5,0.2,3,0.4,4.5,0.8
				c2.4,0.6,4.7,0.5,6.9-0.1c0.2-0.1,0.4-0.3,0.5-0.6c0.4-1.1,0.1-2-0.9-2.7c-3.1-2.1-6.2-3.7-9.6-4.9c0-0.2,0-0.6,0-1.1
				c-0.1-0.9-0.4-1.7-0.9-2.3c-1.5-2.1-4.8-3.2-9.7-3.2c-0.5,0-1.8,0.1-3.9,0.4c-0.5-0.1-0.9-0.2-1.4-0.3c-1.2-0.3-2.5-0.6-3.8-0.9
				c-1.1-0.3-2.1-0.5-3.2-0.8c-0.8-0.2-1.5-0.3-2.3-0.5c-1.2-0.3-2.4-0.6-3.6-0.8c-11.8-3-23.7-5.5-35.7-7.5
				c-1.4-0.2-2.8-0.4-4.2-0.6c-1.9-0.3-3.9-0.5-5.8-0.8c-5.4-0.7-10.8-1.4-16.2-2c-3.4-3.7-7-7.1-10.9-10.4
				c-3.9-3.2-8.2-5.9-12.7-8.1c0.2-0.3,0.3-0.5,0.5-0.8c3.4-5.9,4.9-13.3,4.3-22.2s-4.4-19.7-11.4-32.6c-7-12.9-16.6-23.5-28.8-31.7
				c-12.2-8.2-25-10.7-38.3-7.5c-4.2,1-8,2.6-11.2,4.6c-0.5,0.2-0.9,0.3-1.4,0.5c-3.5,1.5-6.6,3.5-9.4,6c-1.9,1.7-3.5,3.5-5,5.5
				c-1.3,1.8-2.5,3.6-3.6,5.6c-2.7,5.2-4.5,10.8-5.3,16.6C79,84.7,79,87.4,79.5,90c0.4,2.1,1.5,4,3.6,4.1
				c4.5,0.3,9.5,18.9,10.6,21.6c0.2,0.5,0.4,1.1,0.6,1.6c1.3,3.1,2.7,6.3,4.1,9.4c1.4,3.2,2.9,6.5,4.3,9.8c1.3,3,2.6,6,4,9
				c0.5,1.1,1.1,2.3,1.7,3.4c0.1,2.4,0.3,5.2,0.7,8.5c0.2,1.3,0.2,3.3,0.2,6.2c0.1,3.8-0.3,7.3-1.2,10.7c0,0.1-0.1,0.2-0.1,0.3
				c-0.1,0.2-0.3,0.5-0.5,0.7c-0.1,0.1-0.2,0.2-0.3,0.4c1.3-0.3,2.9-1,4.7-1.9c2.4-1.3,5-2.9,7.6-5c0.7-0.6,1.4-1.1,2-1.6
				c1.2,1,2.5,1.9,3.9,2.8c2.6,1.6,5.3,2.9,8.1,4c0.2,0.1,0.4,0.1,0.6,0.2c0,0.3,0,0.6,0,0.8c0,0.9,0.1,1.6,0.3,2.3
				c-0.6,1-1.2,2-1.7,3.1c-1.7,3.4-4,7.5-6.8,12.3c-2.8,4.8-5,9.1-6.5,12.8c-1.5,3.7-2.3,6.4-2.6,8.2c-0.2,1.7-0.2,3.4,0,5
				c0.3,1.6,1.2,3.9,2.9,6.8c1.7,2.9,3.7,6,6.1,9.3c1.9,2.7,3.7,5.4,5.5,8.1c1.5,2.2,2.7,4.6,3.8,7.2c0.2,0.6,0.4,1.3,0.5,1.9
				c-0.5,0.1-1,0.1-1.6,0.1c-1.3,0-2.2-0.2-2.6-0.6c-0.4-0.4-1.1-0.6-2-0.6c-1.3,0-2.1,0.3-2.4,1c-0.1,0.3-0.2,0.9-0.2,1.9
				c0,0,0,0.5,0,1.2c0.1,0.9,0.4,1.8,0.8,2.5c1.3,2.4,3.9,3.6,7.7,3.7c1.3,0,2.7-0.3,4-0.9c0.4,5.1,0.7,10.1,0.9,14.9
				c0.2,5.4,0.6,10.4,1,15c-0.1,0-0.1,0-0.2-0.1c0,0.1,0,0.2,0,0.3c0,0.4,0,0.7-0.1,1c1.8,0.7,3.8,1.3,5.8,1.8
				c0.1,2.4,0.2,4.5,0.4,6.4c0.3,2.6,0.3,6.4,0.2,11.6c-0.1,10.7-1,21.1-2.9,31.4c-1.4,7.8-4.6,20.2-9.8,37.1
				c-1.3,4.4-2.4,8.1-3.2,11.1c0.7,0,1.2,0.2,1.7,0.5c0,0,0-0.1,0-0.1c5.2,3,11.7,5.5,19.5,7.7c3.2,0.9,6.4,1.7,9.5,2.3
				c0,0.7,0.1,1.4,0.2,2.1c0,1.7-0.1,4-0.4,6.6c-1.6,1.1-3.2,1.9-4.7,2.4c-4.4,1.4-7.5,2.4-9.3,3c-2.9,0.9-5,1.7-6.4,2.4
				c-1.7,0.8-3,1.7-3.7,2.7c-0.8,1.1-1.2,2.4-1.2,4c0,0.2,0,0.7-0.1,1.5c0.1,0.9,0.4,1.7,0.9,2.3c1.6,2.1,5.2,3.1,10.9,3.2
				c3.6,0,8.6-1,14.9-3c3.2-1,6.4-2.1,9.6-3.3c4.2-1,6.9-2.3,7.8-3.8c0.4-0.6,0.6-1.3,0.6-2.2c0-1.1,0-1.9,0-2.5
				c0-2.6-0.2-4.4-0.8-5.5c-0.3-0.7-0.9-1.4-1.7-2.1c-0.5-0.4-1.2-0.8-2.1-1.1c-0.3-1.4-0.5-2.9-0.6-4.4c3,0.4,5.9,0.6,8.8,0.8
				c11.3,0.5,22.5,0.6,33.7,0.2c0.1,0.3,0.2,0.5,0.2,0.8c0,0.7,0,1.5,0.1,2.5c0.1,1.5,0.2,3.5,0.4,5.8c0,1.7-0.1,4-0.4,6.6
				c-1.6,1.1-3.2,1.9-4.7,2.4c-4.4,1.4-7.5,2.4-9.3,3c-2.9,0.9-5,1.7-6.4,2.4c-1.7,0.8-3,1.7-3.7,2.7c-0.8,1.1-1.2,2.4-1.2,4
				c0,0.2,0,0.7-0.1,1.5c0.1,0.9,0.4,1.7,0.9,2.3c1.6,2.1,5.2,3.1,10.9,3.2c3.6,0,8.6-1,14.9-3c3.2-1,6.4-2.1,9.6-3.3
				c4.2-1,6.9-2.3,7.8-3.8c0.4-0.6,0.6-1.3,0.6-2.2c0-1.1,0-1.9,0-2.5c0-2.6-0.2-4.4-0.8-5.5c-0.3-0.7-0.9-1.4-1.7-2.1
				c-0.5-0.4-1.2-0.8-2.1-1.1c-0.5-2.6-0.8-5.6-0.7-8.9c0-0.5,0-0.9,0-1.4c0-1.4,0.1-2.7,0.3-4.1c3.9-0.2,7.6-0.8,11.2-1.5
				c3.9-0.8,8.6-2.1,14.1-4c1.8-0.6,3.7-1.3,5.5-2c0.3,0,0.6-0.1,0.9-0.1c0.1,0,0.2,0,0.4,0c-0.7-3.2-1.7-7.7-3-13.4
				c-2.3-10.6-3.9-19.2-4.9-25.9c-1-6.7-2.1-14.6-3.2-23.8c-1.1-9.2-1.7-15.6-1.9-19.2c-0.1-3.6-0.3-7.4-0.5-11.4
				c-0.3-4.6-0.4-10.4-0.3-17.2l0.1-6.3c2-1.1,4.1-2.4,6.3-3.9c-0.1-0.2-0.2-0.4-0.2-0.5c-0.5-8.1-1.4-16.4-2.9-25
				c-2.6-15.3-6.7-29.8-12.3-43.3 M124.5,42.8c9.1-0.3,9.8-0.3,2.1,0.1c13.6-0.3,26.6,6.1,38.8,19.2c12.2,13.1,20.3,26,24.2,38.9
				c4,12.9,4.3,23,1.1,30.3c-3.3,7.3-7.7,13.7-13.3,19.2c-4.2,4.1-8.8,8.2-14,12.4c0.6-4.3,0.8-8.7,0.8-13.1
				c-0.1-7.6-0.8-15.1-2.2-22.6c-2.5-14.2-7.4-27.6-14.7-40.2c-0.2,0.1-0.5,0.1-0.8,0.1c-0.2,0-0.4,0-0.5-0.1c0,0-0.1,0-0.1,0
				c0,0,0,0,0,0.1c0,0,0,0,0,0c-1.7-0.2-3.3-0.7-4.8-1.3c-4.1-1.6-7.5-4.5-10.2-8.6c-1-1.6-1.9-3.2-2.6-5c1.1-0.4,2.3-1,3.4-1.5
				c1.4-0.8,2.6-1.6,3.4-2.5c0.8-0.8,1.2-1.5,1.2-2c0-0.3-0.1-0.5-0.2-0.6c-0.1-0.1-0.2-0.1-0.5-0.2c-0.3,0.4-0.7,0.8-1.1,1.2
				c-0.8,0.9-1.7,1.7-2.7,2.3c-3.2,2.2-7.3,3.3-12.4,3.2c-3.1,0-5.8-0.3-8-0.7c-2.2-0.4-4.1-0.6-5.5-0.6c-7-0.1-12.6,1.7-17,5.3
				c1-6.5,2.9-11.9,5.5-16.4c1.8-3.1,4-5.7,6.5-7.8C107.5,46.2,115.4,43.1,124.5,42.8z M162.3,165.8c0-0.1,0.1-0.1,0.1-0.2
				c0.2-0.2,0.4-0.5,0.6-0.6c0,0,0,0,0,0c0.7-0.6,1.5-1.3,2.3-1.9c-1.3,1.7-2.7,3.4-4.2,4.9c-4,4.3-7.8,7.4-11.5,9.2
				c-2-1.1-3.6-2-4.9-2.8c2.9-0.8,5.5-2.2,7.8-4.1c1.5-1.3,3.1-2.6,4.7-3.9c1.8-1.5,3.5-3.1,5-4.8c-0.1,1.5-0.4,3-0.6,4.5
				C161.9,165.8,162.1,165.8,162.3,165.8z M83.8,92.6c-1.2-0.1-2.1-0.8-2.5-2c-0.7-2-1-4.1-0.8-6.3c0.2-1.8,0.4-3.6,0.8-5.3
				c0.3-1.2,0.6-2.5,1-3.7c1-3.3,2.1-6.4,3.6-9.5c1.1-2.2,2.3-4.2,3.7-6.1c0.7-0.9,1.5-1.8,2.3-2.7c2.1-2.3,4.6-4.2,7.3-5.7
				c-2.5,2.4-4.6,5.2-6.2,8.4c-1.3,2.4-2.3,5.1-3.1,8c-1,3.6-1.7,6.8-2.2,9.4c-0.4,0.3-0.7,0.7-1,1c-1.6,1.7-2.9,3.7-3.9,5.8
				c-0.7,1.7-1.1,3-1.1,4.1c0,0.4,0.2,0.9,0.7,1.4c0.2-0.1,0.4-0.1,0.6-0.2c0.1-0.2,0.4-1.2,0.8-3.1c0.1-0.4,0.2-0.7,0.4-1.1
				c0.1,0.5,0.2,1.1,0.4,1.7c0.5,2,1,4,1.5,5.8C85.3,92.7,84.5,92.8,83.8,92.6z M120.5,166c-3.7,3.8-7.3,6.3-10.6,7.4
				c0.3-1.7,0.6-3.7,0.7-5.7c0-0.5,0-2,0.1-4.3c0-3.6-0.2-7.4-0.6-11.4c0.5,0.9,1.1,1.9,1.6,2.8c1.7,2.8,3.7,5.5,5.8,8
				C118.4,163.9,119.5,165,120.5,166L120.5,166z M127.7,169.7c-2.5-1.5-4.8-3.3-6.9-5.5c-4.2-4.4-7.7-9.3-10.4-14.8
				c-4.8-9.5-9.2-19.2-13.3-29c-0.6-1.6-1.3-3.2-1.9-4.8c-1-2.4-2-4.8-3-7.2c-0.3-0.9-6.1-21.3-6.8-24.8c-0.1-0.4-0.1-0.7-0.2-1
				c0.4-0.9,0.9-1.7,1.5-2.4c3.9-5.4,10.3-8.1,19.2-8c1.4,0,3.1,0.2,5.2,0.6c2.1,0.4,4.8,0.7,8.3,0.7c2.7,0,5.2-0.3,7.6-1
				c0,0.1,0.1,0.1,0.1,0.2c0.9,2.4,2.2,4.7,3.7,6.7c2.8,3.8,6.3,6.4,10.4,7.9c1.8,0.7,3.7,1.1,5.8,1.3c3.1,5.4,5.7,10.9,7.8,16.6
				c3.5,9.7,5.8,18.8,6.8,27.2c1,8,1.4,16.1,1.1,24.2c0,0.8-0.1,1.6-0.1,2.4c-1.2,1.3-2.3,2.6-3.5,3.8c-3.2,3.3-6.7,6.1-10.6,8.5
				c-2.6,1.5-5.4,2.2-8.4,1.9C135.5,173.1,131.4,171.9,127.7,169.7z M141,174.9c-0.9,1.4-1.8,2.6-2.5,3.7c-0.8-0.3-1.4-0.7-1.9-1.3
				c-0.7-0.7-1-1.5-1-2.3c0-0.2,0-0.5,0-0.7C137.3,174.8,139.1,175,141,174.9z M129.8,237.4c-1.8-2.6-3.6-5.2-5.4-7.7
				c-2.1-2.9-3.8-6-5.2-9.3c-0.6-1.6-1-3.2-0.9-4.9c0.2-3.6,1-7,2.6-10.3c1.4-2.9,2.9-5.9,4.5-9c1.6-3.1,3.5-6.5,5.5-10.2
				c1.7-3.1,3.1-5.7,4.4-7.7c0.2,0.3,0.5,0.6,0.8,0.8c-0.2,3.4-0.4,7.2-0.6,11.4c-0.3,4.4-0.4,8.4-0.5,12.1
				c-0.2,0.6-0.4,1.2-0.7,1.8c-3,8-4.6,12.2-4.6,12.7c0,0.5,0.8,2.2,2.4,4.9c1,1.6,2.4,4,4.2,7c0.2,1.4,0.3,3,0.5,4.5
				c-2,2.1-4,3.7-6.1,5.1C130.4,238.2,130.1,237.8,129.8,237.4z M136,226c-1.1-1.6-1.9-3-2.5-4.1c-1.6-2.6-2.4-4.2-2.4-4.7
				c0-0.8,1.3-4.1,3.9-10c0,4.1,0.1,7.7,0.3,10.7C135.5,220.3,135.7,223,136,226z M131.5,239.9c1.7-1.2,3.6-2.6,5.5-4.4
				c0.2,2.1,0.5,4.4,0.7,6.7c-1.1,0.8-2.3,1.6-3.5,2.2C133.3,242.9,132.4,241.4,131.5,239.9z M135.6,259.2c-4.9,0-7.3-1.9-7.3-5.7
				c-0.1-0.3,0-0.6,0-0.9c0.1-0.6,0.5-0.8,1.1-0.8c0.2,0,0.4,0.1,0.7,0.2c0.1,0.1,0.3,0.2,0.6,0.4c0.7,0.4,1.8,0.6,3.4,0.6
				c0.6,0,1.1,0,1.6-0.1c-0.2,0.9-0.9,1.5-1.8,1.8c-0.6,0.2-0.9,0.6-0.9,1c1.7,0.5,2.8,0.1,3.5-1.3c0.4-0.8,0.6-1.7,0.5-2.7
				c-0.2-2.1-0.9-4.1-1.9-5.9c0,0,0,0,0-0.1l-0.1-0.1l0,0c0,0-0.1-0.1-0.1-0.1c0.9-0.5,1.9-1.1,2.9-1.8c0,0,0.1-0.1,0.1-0.1
				c0,0.1,0,0.1,0,0.2c0.6,5,1.1,9.8,1.5,14.5C138.2,259,137,259.2,135.6,259.2z M140.8,264.3c-0.9-12.3-1.9-23.1-3.1-32.3
				c-0.1-0.6-0.2-1.2-0.2-1.8l0-0.4c-0.1-0.5-0.1-1.1,0-1.5c-0.1-0.1-0.2-0.2-0.2-0.3c-0.9-7.9-1.1-15.9-0.9-24
				c0.2-7.8,0.5-15.9,0.7-24.2c0.5,0.2,1.2,0.4,1.9,0.6c0-0.2,0.1-0.5,0.2-0.7c0,0,0.1,0,0.1,0c1-1.5,2.1-3.1,3.2-4.8
				c0,0,0.1-0.1,0.1-0.1c-0.2,4.6-0.5,10.2-0.8,16.6c-0.6,11.7-0.7,20.8-0.2,27.3c0.5,6.5,1.4,15.2,2.6,26.1
				c1.3,10.9,2.1,21.1,2.5,30.7c0.1,3.1,0.3,6.1,0.5,8.9c-1.8-0.4-3.4-0.8-5-1.3C141.8,278.8,141.4,272.5,140.8,264.3z M142.7,290.2
				c-0.1-0.5-0.1-1-0.1-1.5c-0.1-1-0.2-2.4-0.3-4.1c1.6,0.5,3.3,1,5,1.4c0.1,1.8,0.3,3.7,0.5,5.4C146,291.1,144.3,290.7,142.7,290.2
				z M179.3,420.4c-0.8,0.9-3.6,2-8.2,3.4c-3.2,1.3-6.2,2.4-9.1,3.3c-5.5,1.8-10,2.7-13.6,2.6c-4.8,0-7.9-0.8-9.4-2.2
				c-0.5-0.5-0.8-1.1-1-1.8c0-0.2,0-0.8,0-1.6c0-0.1,0-0.3,0-0.4c0,0,0,0,0,0c0-0.4,0.1-0.7,0.2-1c0.1,0.4,0.2,0.7,0.3,1.1
				c1.1,2.9,4.4,4.4,9.6,4.4c3.9,0,8.8-1,14.8-3c4.2-1.4,8.3-3.1,12.2-5c1.3-0.6,2.9-1.4,4.7-2.3c0,0.3,0,0.6,0,0.9
				C179.9,419.4,179.7,420,179.3,420.4z M177.1,411.6C177,411.6,177,411.5,177.1,411.6c0.2-0.2,0.4-0.3,0.7-0.5
				c-0.2-0.5-0.3-1.1-0.5-1.6c0-0.2-0.1-0.3-0.1-0.5c0.7,0.4,1.3,1,1.8,1.8c0.6,1,1,2,1.1,2.9c0,0.6,0,1.4,0,2.5c0,0.1,0,0.2,0,0.2
				c-2,1-3.8,1.9-5.4,2.6c-11,5.1-19.9,7.6-26.6,7.6c-4.3,0-7-1.2-8-3.5c-0.3-0.7-0.4-1.6-0.4-2.6c0-0.1,0-0.1,0-0.1
				c0.6-0.6,1.3-1.2,2.2-1.7c1.5-0.9,4.4-1.9,8.6-3.1c0.7-0.2,1.3-0.4,2-0.6c0.1,0,0.1-0.1,0.2-0.1c0,0.1,0,0.3,0,0.5
				c0,0.2,0.6,0.8,1.9,2c1.5,1.3,2.7,1.9,3.7,1.9c0.3,0,0.5-0.1,0.6-0.2c0.1-0.2,0.2-0.4,0.4-0.6c-2.9-2.4-4.8-3.7-5.6-3.8
				c1.1-0.3,2-0.6,2.9-0.9c1.1-0.4,2.1-0.7,2.9-1.1c0.3-0.1,0.5-0.2,0.7-0.3c-0.2,0.1-0.4,0.4-0.6,0.7c0.2,0.3,1,0.9,2.4,1.6
				c1.4,0.7,2.3,1.1,2.8,1.1c0.4,0,0.7-0.1,0.8-0.3c-0.2-0.6-0.9-1.3-2.2-2.1c-1.2-0.8-2.1-1.1-2.8-1.1c-0.1,0-0.1,0-0.2,0
				c0,0,0.1,0,0.1,0c0.1,0,0.1,0,0.1-0.1c0.7-0.3,1.4-0.7,2-1c1.9,0.7,4.8,1.1,8.5,1.2C173.3,412.6,175.4,412.3,177.1,411.6z
				 M163.8,403.5c1,0,2.2,0.1,3.4,0.1c2.7,0,5.2-0.1,7.5-0.4c0.1,2.4,0.5,4.7,1,6.7c0.1,0.2,0.1,0.3,0.1,0.5
				c-1.4,0.5-3.2,0.7-5.2,0.7c-2.9,0-5.3-0.3-7.2-1C163.6,407.5,163.8,405.3,163.8,403.5z M163.7,401.1c1.2,0.3,2.5,0.5,3.8,0.7
				c0.4,0.1,0.8,0.1,1.2,0.2c-0.4,0-0.8,0-1.2,0c-1.3,0-2.5-0.1-3.7-0.1C163.7,401.7,163.7,401.4,163.7,401.1z M236.3,430.6
				c-0.8,0.9-3.6,2-8.2,3.4c-3.2,1.3-6.2,2.3-9.1,3.3c-5.5,1.8-10,2.7-13.6,2.7c-4.8,0-7.9-0.8-9.4-2.2c-0.5-0.5-0.8-1.1-1-1.8
				c0-0.2,0-0.8,0-1.6c0-0.1,0-0.3,0-0.4c0,0,0,0,0,0c0-0.4,0.1-0.7,0.2-1c0.1,0.4,0.2,0.7,0.3,1.1c1.1,2.9,4.4,4.4,9.6,4.4
				c3.9,0,8.8-1,14.8-3c4.2-1.4,8.3-3.1,12.2-5c1.3-0.6,2.9-1.4,4.7-2.3c0,0.3,0,0.6,0,0.9C236.9,429.7,236.7,430.2,236.3,430.6z
				 M234.1,421.8C234,421.8,234,421.8,234.1,421.8c0.2-0.2,0.4-0.3,0.7-0.5c-0.2-0.5-0.3-1.1-0.5-1.6c0-0.2-0.1-0.3-0.1-0.5
				c0.7,0.4,1.3,1,1.8,1.8c0.6,1,1,2,1.1,2.9c0,0.6,0,1.4,0,2.5c0,0.1,0,0.2,0,0.2c-2,1-3.8,1.9-5.4,2.6c-11,5.1-19.9,7.6-26.6,7.6
				c-4.3,0-7-1.2-8-3.5c-0.3-0.7-0.4-1.6-0.4-2.6c0-0.1,0-0.1,0-0.1c0.6-0.6,1.3-1.2,2.2-1.6c1.5-0.9,4.4-1.9,8.6-3.1
				c0.7-0.2,1.3-0.4,2-0.6c0.1,0,0.1-0.1,0.2-0.1c0,0.1,0,0.3,0,0.5c0,0.2,0.6,0.8,1.9,2c1.5,1.3,2.7,1.9,3.7,1.9
				c0.3,0,0.5-0.1,0.6-0.2c0.1-0.2,0.2-0.4,0.4-0.6c-2.9-2.4-4.8-3.7-5.6-3.8c1.1-0.3,2-0.6,2.9-0.9c1.1-0.4,2.1-0.7,2.9-1.1
				c0.2-0.1,0.5-0.2,0.7-0.3c-0.2,0.1-0.4,0.3-0.6,0.7c0.2,0.3,1,0.9,2.4,1.6c1.4,0.7,2.3,1.1,2.8,1.1c0.4,0,0.7-0.1,0.8-0.3
				c-0.2-0.6-0.9-1.3-2.2-2.1c-1.2-0.8-2.1-1.1-2.8-1.1c-0.1,0-0.1,0-0.2,0c0,0,0.1,0,0.1,0c0.1,0,0.1,0,0.1-0.1
				c0.7-0.3,1.4-0.7,2-1c1.9,0.7,4.8,1.1,8.5,1.2C230.3,422.9,232.4,422.5,234.1,421.8z M220.8,413.8c1,0,2.2,0.1,3.4,0.1
				c2.7,0,5.2-0.1,7.5-0.4c0.1,2.4,0.5,4.7,1,6.7c0.1,0.2,0.1,0.3,0.1,0.5c-1.4,0.5-3.2,0.7-5.2,0.7c-2.9,0-5.3-0.3-7.2-1
				C220.6,417.7,220.7,415.5,220.8,413.8z M220.6,410.5c1.1,0,2.3,0.1,3.6,0.1c2.7,0,5.2-0.1,7.5-0.4c0,0.5,0,1,0,1.7
				c-2.3,0.3-4.7,0.4-7.3,0.4c-1.3,0-2.5-0.1-3.7-0.1C220.7,411.6,220.6,411,220.6,410.5z M231.7,407.5c0,0.4,0,0.7,0,1.1
				c-2.3,0.3-4.7,0.5-7.3,0.4c-1.4,0-2.7-0.1-3.9-0.2c0-0.5,0-1-0.1-1.5c-0.1-1-0.1-1.8-0.1-2.6c0-0.2-0.1-0.5-0.1-0.8
				c3.8-0.1,7.7-0.3,11.6-0.6C231.7,404.5,231.7,405.9,231.7,407.5z M262.9,391.4c0.3,1.1,0.6,2.3,0.8,3.3c-0.9,0.3-1.7,0.7-2.6,1
				c-9.1,3.3-18.2,5.3-27.3,6.2c-7.7,0.6-15.3,0.9-23.1,1c-22.6,0.3-40-1.1-52-4c-10.3-2.5-18.7-5.7-25-9.6c0.5-2.1,1.1-4.3,1.8-6.6
				c0,0,0-0.1,0-0.1c0.1,0.1,0.3,0.2,0.4,0.2c1.9,1,4.3,1.2,7,0.4c2.8-0.8,5-0.6,6.9,0.6c1.9,1.2,3.3,2.6,4.3,4c1,1.5,3.4,2.3,7,2.3
				c2.3,0,4.5-0.1,6.8-0.4c0.7,0,1.4,0,2.1,0.2c2,0.4,3.8,1.1,5.6,2.2c2.2,1.4,4.7,2.3,7.2,2.8c1.7,0.3,3.4,0.3,5.1-0.1
				c1-0.2,1.9-0.6,2.9-1c1.3-0.6,2.6-0.8,4.1-0.8c0.2,0,0.5,0.1,0.8,0.1c0.8,0.1,1.7,0.2,2.5,0.3c0.9,0.1,0.1,0-2.5-0.3
				c7.2,2.6,12.1,3,14.6,1.1c2.5-1.9,4-2.9,4.6-2.9c1.7,0,3.3,0.4,4.8,1.2c0.6,0.3,1.1,0.5,1.8,0.6c3.5,0.7,6.8,0.1,9.9-1.8
				c0.9-0.6,1.8-0.9,2.8-1.2c3-0.6,6-0.3,8.9,0.8c0.7,0.2,1.3,0.4,2,0.4c2.5,0.4,4.5,0.3,6-0.4c1.5-0.7,2.8-1.6,4.1-2.8
				c1.2-1.2,2.6-1.9,4.2-2.1c0.8-0.1,1.6-0.2,2.3-0.3C262,387.8,262.4,389.6,262.9,391.4z M253.2,334.2c0.9,7.2,1.5,11.8,1.8,13.9
				c0.2,2.1,1.2,8.1,2.8,17.8c1.1,6.8,2.3,13,3.5,18.7c-0.8,0-1.6,0.1-2.3,0.2c-1.4,0.2-2.8,0.8-4,1.6c-1.3,0.9-2.4,1.7-3.2,2.3
				c-1.8,1.8-4.3,2.2-7.6,1.2c-3.3-1-5.6-1.5-6.9-1.4c-3.3,0.1-6.2,1-9,2.7c-0.4,0.3-0.8,0.5-1.3,0.6c-3.1,0.7-6.1,0.3-8.9-1.3
				c-0.6-0.3-1.2-0.5-1.9-0.5c-2.1,0-3.6,0.4-4.3,1.3c-0.8,0.9-2.1,1.7-3.8,2.4c-1.8,0.7-4,0.5-6.6-0.5c-2.6-1-4.3-1.5-4.9-1.6
				c-3-0.3-5.8,0.2-8.4,1.4c-1,0.5-2.2,0.7-3.3,0.8c-2,0-3.9-0.5-5.6-1.6c-2.5-1.7-5.2-2.8-8.1-3.6c-1.9-0.5-3.9-0.6-5.9-0.2
				c-3.5,0.7-6.7,0.2-9.8-1.4c-0.4-0.2-0.7-0.5-1-0.8c-0.6-0.7-1.2-1.5-1.7-2.2c-0.2-0.3-0.4-0.5-0.7-0.7c-2.9-1.9-6-2.4-9.3-1.4
				c-2.6,0.8-4.9,0.5-6.9-0.7c0.6-2.1,1.2-4.4,1.8-6.7c2.7-9.6,4.5-16.6,5.6-20.9c1.8-7.3,3.1-14,3.9-20.2c1-7.3,1.5-14.8,1.6-22.6
				c0-1.6-0.1-4.3-0.3-8.2c-0.2-4-0.4-6.5-0.4-7.4c0-0.7,0-1.4,0-2.1c1.2,0.3,2.4,0.5,3.7,0.8c5.7,1,12.9,1.5,21.8,1.6
				c10.1,0.1,20.1-0.7,30-2.4c12.7-2.2,26.3-5.9,40.9-11.2c1.8-0.7,3.7-1.5,5.8-2.6c0,1.7,0,3.5,0.1,5.5c-0.1,6.8,0,12.5,0.3,17.2
				c0.2,4.2,0.5,8.8,0.7,13.8C251.6,320.9,252.2,327,253.2,334.2z M256.4,274.3c-3.9,2.5-7.8,4.5-11.9,6c-10.4,4-21.2,7.2-32.5,9.5
				c-13.4,2.9-26.2,4.2-38.2,4.1c-9.6-0.1-17.9-0.8-24.8-2.2c-0.1-0.7-0.1-1.4-0.2-2.2c-0.1-0.9-0.2-1.9-0.2-3.2
				c0.7,0.2,1.5,0.3,2.3,0.5c5.7,1,12.9,1.5,21.8,1.6c10.1,0.1,20.1-0.7,30-2.4c12.7-2.2,26.3-5.9,40.9-11.2
				c3.7-1.3,7.8-3.5,12.4-6.5C256.1,270.5,256.3,272.5,256.4,274.3z M277.5,179.4c-8.3-1.9-16.7-3.5-25.1-5
				c-1.4-0.2-2.8-0.4-4.2-0.6c-1.9-0.3-3.9-0.5-5.8-0.8c-6.1-0.8-12.3-1.6-18.4-2.3c-3.8-0.5-7.6-0.8-11.4-0.8c-0.2,0-0.4,0-0.7,0
				c-0.3,0-0.7,0-1,0c-0.2,0-0.4,0.1-0.6,0.1l0.2,1.1c1.3,0.3,2.7,0.5,4.1,0.5c0.5,0,1,0,1.5,0c2.4,0.2,4.8,0.3,7.2,0.5
				c0.6,1,1.3,1.9,1.9,3c-3.4-0.3-6.4-0.5-9-0.5c-0.3-0.1-0.4-0.1-0.4-0.1c0,0.1,0.1,0.2,0.1,0.4c0,0.3,0,0.4,0.1,0.4
				c0,0,0.1-0.1,0.1-0.1c1.1-0.1,4.3,0.1,9.8,0.8c1.7,2.7,3.5,5.6,5.1,8.5c4.5,7.9,8.2,15.8,11.3,23.7c3.1,7.9,5.7,16.1,7.9,24.8
				c2.2,8.6,3.9,18.6,5.1,29.9c0.2,1.4,0.3,2.7,0.4,3.9c-4,2.6-8.1,4.7-12.2,6.3c-10.4,4-21.2,7.2-32.5,9.5
				c-13.4,2.9-26.2,4.2-38.2,4.1c-9.4-0.1-17.5-0.8-24.3-2.2c-0.3-4.5-0.8-11-1.4-19.6c-0.9-12.3-1.9-23.1-3.1-32.3
				c-1.2-9.2-1.6-18.5-1.4-28c0.3-9.5,0.5-19.3,0.8-29.5c0-0.2,0-0.4,0-0.6c1.5,0.9,3.2,1.8,5.3,3c0.1,0.1,0.1,0.1,0.2,0.2
				c0.4,0.2,0.7,0.4,1,0.7c2.8-1.3,5.5-3.2,8.4-5.7c4-3.6,7.9-8.3,11.7-14.1c1.8-1.6,3.6-3.3,5.5-5c5.2-4.8,9.5-9.9,12.8-15.2
				c1.3,0.6,2.5,1.3,3.6,2c3.3,2.2,7.1,5,11.3,8.4c2.3,1.8,4.7,4.1,7.2,6.8c0.1,0.1,0.1,0.1,0.2,0.2c-0.1,0-0.2,0-0.3,0
				c-3.8-0.5-7.6-0.8-11.4-0.8c-0.2,0-0.4,0-0.7,0c-0.3,0-0.7,0-1,0c-0.2,0-0.4,0.1-0.6,0.1l0.2,1.1c1.3,0.3,2.7,0.5,4.1,0.5
				c0.5,0,1,0,1.5,0c4.6,0.3,9.4,0.7,14.3,1.2c4.9,0.6,8.8,1.1,11.8,1.5c3.3,0.4,6.7,0.9,10,1.5c1.5,0.3,3,0.5,4.6,0.7
				c6.8,0.9,13.5,2.2,20,3.9c1.6,0.4,3.1,0.8,4.7,1.2c4.4,1,8.7,2.1,13.1,3.2c-1.6,1.5-2.6,3.4-3.1,5.6
				C277.7,177,277.5,178.2,277.5,179.4z M282.4,180.5c-1.2-0.3-2.3-0.5-3.5-0.8c0.1-3.5,1.3-6.5,3.5-9.1c0-0.1,0.1-0.1,0.1-0.1
				c1.2,0.3,2.3,0.6,3.5,0.9c0.1,0,0.2,0,0.2,0.1c0,0-0.1,0.1-0.1,0.1c-1.7,1.6-2.9,3.6-3.4,5.9
				C282.6,178.5,282.4,179.5,282.4,180.5z M298.8,184.7c-0.5,0.4-1.4,0.7-2.5,1.1c-0.1-0.4-0.2-0.7-0.3-1c-0.1-0.3,0-0.5,0.3-0.7
				c1.1,0,2.1,0,3.2,0.1C299.3,184.3,299,184.5,298.8,184.7z M312.6,183.6c-1.3,0.5-2.6,0.7-4.1,0.4c-1.3-0.3-2.6-0.5-3.9-0.8
				c-2.5-0.5-5.1-0.7-7.7-0.7c-1.3,0.1-2,0.8-2.2,2c-0.1,0.7,0,1.3,0.4,1.8c0.4,0.6,0.6,1.2,0.5,1.9c-1.1,0.2-2,0.3-2.7,0.4
				c-0.6,0.1-1.9-0.5-3.7-1.8c-1.9-1.3-3.3-3.3-4.3-6.1c-0.3-0.9-0.6-1.6-0.8-2.3c0.5-2.2,1.5-4.2,3.1-6c0.1-0.1,0.1-0.2,0.2-0.2
				c0.2-0.1,0.5-0.1,0.8-0.2c1.1-0.2,2.5-0.3,4.2-0.2c4,0,6.7,0.7,8.1,1.9c0.7,0.6,1,1.5,1.1,2.8c-1.2-0.3-2.3-0.6-3.5-0.8l-0.2,0.9
				c3.4,0.9,6.7,2.1,10,3.6c1.5,0.7,2.9,1.6,4.2,2.6C312.5,182.9,312.7,183.2,312.6,183.6z"/>
			<path fill="#C272AD" d="M267.9,166.6c-1.6-0.4-3.2-0.8-4.7-1.2c-6.6-1.7-13.2-3-20-3.9c-1.5-0.2-3-0.4-4.6-0.7
				c-3.3-0.6-6.7-1.1-10-1.5c-3-0.5-6.9-1-11.8-1.5c-4.9-0.5-9.7-0.9-14.3-1.2c-0.5,0-1,0-1.5,0c-1.4,0-2.7-0.2-4.1-0.5l-0.2-1.1
				c0.2,0,0.4-0.1,0.6-0.1c0.3,0,0.7,0,1,0c0.2,0,0.4,0,0.7,0c3.8,0.1,7.6,0.3,11.4,0.8l0.1-0.1c-2.5-2.7-4.9-4.9-7.2-6.8
				c-4.2-3.4-8-6.2-11.3-8.4c-1.1-0.7-2.3-1.4-3.6-2c-3.3,5.3-7.6,10.3-12.8,15.2c-1.9,1.8-3.8,3.5-5.5,5
				c-3.9,5.8-7.7,10.5-11.7,14.1c-2.8,2.5-5.6,4.4-8.4,5.7c-0.3-0.3-0.6-0.6-1-0.7c-0.1-0.1-0.1-0.1-0.2-0.2c-2.1-1.2-3.8-2.2-5.3-3
				c0,0.2,0,0.4,0,0.6c-0.3,10.2-0.5,20-0.8,29.5c-0.3,9.5,0.2,18.8,1.4,28c1.2,9.2,2.2,20,3.1,32.3c0.6,8.5,1,15.1,1.4,19.6
				c6.8,1.4,14.9,2.1,24.3,2.2c12,0.1,24.8-1.3,38.2-4.1c11.3-2.4,22.1-5.6,32.5-9.5c4.1-1.6,8.2-3.7,12.2-6.3
				c-0.1-1.2-0.3-2.5-0.4-3.9c-1.2-11.3-2.8-21.3-5.1-29.9c-2.2-8.7-4.9-16.9-7.9-24.8c-3.1-7.9-6.8-15.8-11.3-23.7
				c-1.7-3-3.4-5.8-5.1-8.5c-5.5-0.7-8.7-0.9-9.8-0.8c0,0.1,0,0.1-0.1,0.1c-0.1,0-0.1-0.1-0.1-0.4c0-0.2,0-0.4-0.1-0.4
				c0,0,0.1,0.1,0.4,0.1c2.6,0,5.6,0.2,9,0.5c-0.6-1-1.3-2-1.9-3c-2.4-0.2-4.8-0.4-7.2-0.5c-0.5,0-1,0-1.5,0c-1.4,0-2.7-0.2-4.1-0.5
				l-0.2-1.1c0.2,0,0.4-0.1,0.6-0.1c0.3,0,0.7,0,1,0c0.2,0,0.4,0,0.7,0c3.8,0.1,7.6,0.3,11.4,0.8c6.2,0.7,12.3,1.5,18.4,2.3
				c1.9,0.2,3.9,0.5,5.8,0.8c1.4,0.2,2.8,0.4,4.2,0.6c8.4,1.4,16.7,3.1,25.1,5c0-1.2,0.1-2.4,0.4-3.7c0.5-2.2,1.5-4.1,3.1-5.6
				C276.7,168.7,272.3,167.6,267.9,166.6z M145.7,182.1c0.4-0.5,0.9-0.8,1.6-0.8c0.8,0,1.4,0.4,1.8,1c0.2,0.3,0.3,0.7,0.3,1
				c0,0.4-0.1,0.8-0.4,1.2c-0.4,0.5-0.9,0.8-1.6,0.8c-0.8,0-1.4-0.3-1.7-1l-0.3-1C145.3,183,145.4,182.5,145.7,182.1z M144.6,204.2
				l-0.3-1c0-0.4,0.1-0.8,0.4-1.2c0.4-0.5,0.9-0.8,1.6-0.8c0.8,0,1.4,0.4,1.7,1c0.2,0.3,0.3,0.7,0.3,1c0,0.4-0.1,0.8-0.4,1.2
				c-0.4,0.5-0.9,0.8-1.6,0.8C145.5,205.2,144.9,204.9,144.6,204.2z M145.7,223.5c-0.2-0.7-0.3-1-0.3-1c0-0.4,0.1-0.8,0.4-1.2
				c0.4-0.6,0.9-0.8,1.6-0.8c0.8,0,1.4,0.3,1.8,1c0.2,0.4,0.3,0.7,0.3,1.1c0,0.5-0.1,0.9-0.4,1.2c-0.4,0.5-0.9,0.8-1.6,0.8
				C146.7,224.5,146.1,224.2,145.7,223.5z M147.2,244.7c-0.2-0.7-0.3-1-0.3-1c0-0.4,0.1-0.8,0.4-1.2c0.4-0.6,0.9-0.8,1.6-0.8
				c0.8,0,1.4,0.3,1.8,1c0.2,0.4,0.3,0.7,0.3,1.1c0,0.5-0.1,0.9-0.4,1.2c-0.4,0.5-0.9,0.8-1.6,0.8
				C148.1,245.7,147.5,245.4,147.2,244.7z M152.6,267.2c-0.4,0.5-0.9,0.8-1.6,0.8c-0.8,0-1.4-0.3-1.8-1l-0.3-1
				c0-0.4,0.1-0.8,0.4-1.2c0.4-0.5,0.9-0.8,1.6-0.8c0.8,0,1.4,0.4,1.8,1c0.2,0.3,0.3,0.7,0.3,1C153,266.5,152.8,266.9,152.6,267.2z"
				/>
			<path d="M147.2,185.8c0.7,0,1.3-0.3,1.6-0.8c0.3-0.4,0.4-0.8,0.4-1.2c0-0.3-0.1-0.7-0.3-1c-0.3-0.7-0.9-1-1.8-1
				c-0.7,0-1.2,0.3-1.6,0.8c-0.3,0.4-0.4,0.8-0.4,1.2l0.3,1C145.9,185.5,146.4,185.8,147.2,185.8z M145.9,182.9
				c0.3-0.4,0.6-0.5,1.1-0.5c0.8,0,1.3,0.5,1.3,1.4c0,0.3-0.1,0.6-0.3,0.8c-0.2,0.4-0.6,0.5-1.1,0.5c-0.5,0-0.9-0.2-1.1-0.6
				c-0.1-0.2-0.2-0.5-0.2-0.7C145.7,183.5,145.8,183.2,145.9,182.9z"/>
			<path fill="#F186B6" d="M147,185.1c0.5,0,0.8-0.2,1.1-0.5c0.2-0.2,0.3-0.5,0.3-0.8c0-0.9-0.5-1.4-1.3-1.4c-0.5,0-0.8,0.2-1.1,0.5
				c-0.2,0.3-0.3,0.5-0.3,0.8c0,0.2,0.1,0.5,0.2,0.7C146.1,184.9,146.5,185.1,147,185.1z"/>
			<path d="M147.9,204.8c0.3-0.4,0.4-0.8,0.4-1.2c0-0.3-0.1-0.7-0.3-1c-0.3-0.7-0.9-1-1.7-1c-0.7,0-1.2,0.3-1.6,0.8
				c-0.3,0.4-0.4,0.8-0.4,1.2l0.3,1c0.3,0.7,0.9,1,1.7,1C147,205.6,147.5,205.4,147.9,204.8z M144.9,204.3c-0.1-0.5-0.2-0.7-0.2-0.7
				c0-0.3,0.1-0.5,0.3-0.8c0.3-0.4,0.6-0.5,1.1-0.5c0.8,0,1.3,0.5,1.3,1.3c0,0.3-0.1,0.6-0.3,0.8c-0.2,0.4-0.6,0.5-1.1,0.5
				C145.5,204.9,145.1,204.7,144.9,204.3z"/>
			<path fill="#F186B6" d="M147.1,204.4c0.2-0.2,0.3-0.5,0.3-0.8c0-0.9-0.5-1.3-1.3-1.3c-0.5,0-0.8,0.2-1.1,0.5
				c-0.2,0.3-0.3,0.5-0.3,0.8c0,0,0.1,0.2,0.2,0.7c0.2,0.4,0.6,0.7,1.1,0.7C146.5,204.9,146.9,204.8,147.1,204.4z"/>
			<path d="M149.1,224.1c0.3-0.4,0.4-0.8,0.4-1.2c0-0.4-0.1-0.7-0.3-1.1c-0.3-0.7-0.9-1-1.8-1c-0.7,0-1.2,0.3-1.6,0.8
				c-0.3,0.4-0.4,0.8-0.4,1.2c0,0,0.1,0.4,0.3,1c0.3,0.7,0.9,1,1.7,1C148.2,224.9,148.7,224.7,149.1,224.1z M146.1,223.7
				c-0.1-0.5-0.2-0.7-0.2-0.7c0-0.3,0.1-0.5,0.3-0.8c0.3-0.4,0.6-0.5,1.1-0.5c0.8,0,1.3,0.5,1.3,1.3c0,0.3-0.1,0.6-0.3,0.8
				c-0.2,0.4-0.6,0.5-1.1,0.5C146.7,224.4,146.3,224.2,146.1,223.7z"/>
			<path fill="#F186B6" d="M148.3,223.8c0.2-0.2,0.3-0.5,0.3-0.8c0-0.9-0.5-1.3-1.3-1.3c-0.5,0-0.8,0.2-1.1,0.5
				c-0.2,0.3-0.3,0.5-0.3,0.8c0,0,0.1,0.2,0.2,0.7c0.2,0.4,0.6,0.7,1.1,0.7C147.7,224.4,148.1,224.2,148.3,223.8z"/>
			<path d="M150.6,245.4c0.3-0.4,0.4-0.8,0.4-1.2c0-0.4-0.1-0.7-0.3-1.1c-0.3-0.7-0.9-1-1.8-1c-0.7,0-1.2,0.3-1.6,0.8
				c-0.3,0.4-0.4,0.8-0.4,1.2c0,0,0.1,0.4,0.3,1c0.3,0.7,0.9,1,1.8,1C149.7,246.1,150.2,245.9,150.6,245.4z M149.8,245.1
				c-0.2,0.4-0.6,0.5-1.1,0.5c-0.5,0-0.9-0.2-1.1-0.7c-0.1-0.5-0.2-0.7-0.2-0.7c0-0.3,0.1-0.5,0.3-0.8c0.3-0.4,0.6-0.5,1.1-0.5
				c0.8,0,1.3,0.5,1.3,1.3C150,244.5,150,244.8,149.8,245.1z"/>
			<path fill="#F186B6" d="M148.7,242.9c-0.5,0-0.8,0.2-1.1,0.5c-0.2,0.3-0.3,0.5-0.3,0.8c0,0,0.1,0.2,0.2,0.7
				c0.2,0.4,0.6,0.7,1.1,0.7c0.5,0,0.8-0.2,1.1-0.5c0.2-0.2,0.3-0.5,0.3-0.8C150,243.3,149.5,242.9,148.7,242.9z"/>
			<path d="M150.9,264.4c-0.7,0-1.3,0.3-1.6,0.8c-0.3,0.4-0.4,0.8-0.4,1.2l0.3,1c0.3,0.7,0.9,1,1.8,1c0.7,0,1.3-0.3,1.6-0.8
				c0.3-0.4,0.4-0.8,0.4-1.2c0-0.3-0.1-0.7-0.3-1C152.4,264.7,151.8,264.4,150.9,264.4z M151.8,267.2c-0.2,0.4-0.6,0.5-1.1,0.5
				c-0.5,0-0.9-0.2-1.1-0.7c-0.1-0.5-0.2-0.7-0.2-0.7c0-0.3,0.1-0.5,0.3-0.8c0.3-0.4,0.6-0.5,1.1-0.5c0.9,0,1.3,0.5,1.3,1.3
				C152,266.7,152,267,151.8,267.2z"/>
			<path fill="#F186B6" d="M150.7,265c-0.5,0-0.8,0.2-1.1,0.5c-0.2,0.3-0.3,0.5-0.3,0.8c0,0,0.1,0.2,0.2,0.7
				c0.2,0.4,0.6,0.7,1.1,0.7c0.5,0,0.8-0.2,1.1-0.5c0.2-0.2,0.3-0.5,0.3-0.8C152,265.5,151.6,265,150.7,265z"/>
			<path fill="#FFFBD4" d="M286.1,171.4c-1.2-0.3-2.3-0.6-3.5-0.9c-0.1,0-0.1,0.1-0.1,0.1c-2.2,2.6-3.4,5.6-3.5,9.1
				c1.1,0.3,2.3,0.5,3.5,0.8c0-1,0.2-2.1,0.4-3.1c0.5-2.3,1.7-4.3,3.4-5.9L286.1,171.4z"/>
			<path fill="#FDCF9D" d="M312.2,182.7c-1.3-1-2.7-1.9-4.2-2.6c-3.3-1.5-6.6-2.7-10-3.6l0.2-0.9c1.2,0.2,2.4,0.5,3.5,0.8
				c-0.1-1.2-0.4-2.1-1.1-2.8c-1.3-1.3-4.1-1.9-8.1-1.9c-1.7,0-3.1,0.1-4.2,0.2c-0.3,0.1-0.6,0.1-0.8,0.2c-0.1,0.1-0.2,0.1-0.2,0.2
				c-1.6,1.8-2.6,3.8-3.1,6c0.2,0.7,0.5,1.4,0.8,2.3c1,2.7,2.4,4.7,4.3,6.1c1.9,1.3,3.1,1.9,3.7,1.8c0.7-0.1,1.5-0.2,2.7-0.4
				c0.1-0.7-0.1-1.3-0.5-1.9c-0.4-0.5-0.5-1.1-0.4-1.8c0.2-1.2,0.9-1.9,2.2-2c2.6,0,5.1,0.2,7.7,0.7c1.3,0.3,2.5,0.5,3.9,0.8
				c1.5,0.3,2.8,0.2,4.1-0.4C312.7,183.2,312.5,182.9,312.2,182.7z"/>
			<path fill="#FDCF9D" d="M296.3,184c-0.2,0.2-0.3,0.4-0.3,0.7c0.1,0.4,0.2,0.7,0.3,1c1.1-0.3,1.9-0.7,2.5-1.1
				c0.2-0.2,0.5-0.4,0.8-0.6C298.5,184,297.4,184,296.3,184z"/>
			<path fill="#FDDB00" d="M94.3,59.7c-2.7,4.5-4.5,10-5.5,16.4c4.4-3.6,10.1-5.4,17-5.3c1.5,0,3.3,0.2,5.5,0.6
				c2.2,0.4,4.9,0.7,8,0.7c5.1,0,9.2-1,12.4-3.2c1-0.7,1.9-1.5,2.7-2.3c0.4-0.4,0.8-0.9,1.1-1.2c0.2,0.1,0.4,0.1,0.5,0.2
				c0.2,0.1,0.2,0.3,0.2,0.6c0,0.5-0.4,1.2-1.2,2c-0.9,0.9-2,1.7-3.4,2.5c-1.1,0.6-2.2,1.1-3.4,1.5c0.7,1.8,1.6,3.5,2.6,5
				c2.7,4.1,6.1,7,10.2,8.6c1.5,0.6,3.1,1,4.8,1.3l0,0c0.1,0,0.1,0,0.1,0c0.2,0,0.4,0.1,0.5,0.1c0.3,0,0.6,0,0.8-0.1
				c7.2,12.6,12.1,25.9,14.7,40.2c1.4,7.5,2.1,15,2.2,22.6c0,4.4-0.2,8.8-0.8,13.1c5.2-4.2,9.9-8.3,14-12.4
				c5.6-5.5,10-11.9,13.3-19.2c3.2-7.3,2.9-17.4-1.1-30.3c-4-12.9-12-25.8-24.2-38.9c-12.2-13-25.1-19.4-38.8-19.2
				c7.7-0.3,7-0.4-2.1-0.1c-9.1,0.3-17,3.3-23.7,9.1C98.3,54,96.1,56.7,94.3,59.7z"/>
			<path fill="#FDDB00" d="M84.1,85.1c-0.1,0.4-0.3,0.7-0.4,1.1C83.3,88,83,89,82.9,89.2c-0.2,0.1-0.4,0.2-0.6,0.2
				c-0.4-0.5-0.7-1-0.7-1.4c0-1.1,0.4-2.4,1.1-4.1c0.9-2.1,2.2-4.1,3.9-5.8c0.3-0.4,0.7-0.7,1-1c0.5-2.7,1.2-5.8,2.2-9.4
				c0.8-2.9,1.8-5.6,3.1-8c1.7-3.2,3.7-6,6.2-8.4c-2.8,1.5-5.2,3.4-7.3,5.7c-0.8,0.8-1.5,1.7-2.3,2.7c-1.4,1.9-2.7,3.9-3.7,6.1
				c-1.4,3-2.6,6.2-3.6,9.5c-0.4,1.2-0.8,2.5-1,3.7c-0.4,1.8-0.6,3.5-0.8,5.3c-0.2,2.2,0.1,4.3,0.8,6.3c0.4,1.2,1.2,1.9,2.5,2
				c0.8,0.1,1.5,0.1,2.2-0.1c-0.5-1.8-0.9-3.7-1.5-5.8C84.4,86.2,84.2,85.6,84.1,85.1z"/>
			<path fill="#FDCF9D" d="M148.3,171.4c3.9-2.3,7.5-5.2,10.6-8.5c1.2-1.3,2.4-2.5,3.5-3.8c0-0.8,0.1-1.6,0.1-2.4
				c0.3-8.1-0.1-16.1-1.1-24.2c-1.1-8.5-3.4-17.5-6.8-27.2c-2-5.7-4.6-11.2-7.8-16.6c-2.1-0.2-4-0.6-5.8-1.3
				c-4.1-1.5-7.5-4.1-10.4-7.9c-1.6-2.1-2.8-4.3-3.7-6.7c0-0.1-0.1-0.1-0.1-0.2c-2.4,0.7-4.9,1-7.6,1c-3.5,0-6.2-0.3-8.3-0.7
				c-2.1-0.4-3.8-0.6-5.2-0.6c-8.9-0.1-15.2,2.6-19.2,8c-0.5,0.7-1,1.5-1.5,2.4c0.1,0.3,0.1,0.6,0.2,1c0.7,3.5,6.4,23.9,6.8,24.8
				c1,2.4,2,4.8,3,7.2c0.6,1.6,1.3,3.2,1.9,4.8c4,9.8,8.5,19.5,13.3,29c2.8,5.4,6.2,10.3,10.4,14.8c2,2.1,4.3,3.9,6.9,5.5
				c3.7,2.2,7.8,3.4,12.1,3.6C142.9,173.6,145.7,172.9,148.3,171.4z M152.4,151.4c-0.2-0.8-0.3-1.3-0.3-1.3c0-0.2,0.1-0.4,0.3-0.6
				c0.6,1.3,0.9,2.1,0.9,2.3c0.1,0.2,0.1,0.8,0.1,1.8c0,1.2-0.1,1.9-0.1,2.1c-0.2,0.5-0.6,1.4-1.5,2.4c-0.2-0.1-0.3-0.2-0.3-0.5
				c0,0,0.2-0.5,0.6-1.4c0.4-1,0.6-1.8,0.6-2.7C152.8,152.9,152.7,152.2,152.4,151.4z M105.5,126.3c-0.7,0-1.6-3.5-2.8-10.5
				c0-0.1,0-0.3-0.1-0.4c-0.6-3.6-1.2-7.3-1.6-11c0-0.4,0-0.7,0.1-0.8c0.1-0.1,0.3-0.2,0.6-0.2c0.2,0,0.5,0.8,0.8,2.4
				c0.1,0.6,0.4,2.6,0.8,5.8c0.2,1.5,0.4,2.8,0.6,4.1c0.4,2.1,0.7,4,1.1,5.5c0.1,0.1,0.2,0.3,0.3,0.5c0,0-0.1,0.1-0.1,0.1l-0.1,0.1
				c0.3,1.1,0.6,2.1,0.9,2.8c0.5-0.1,1.2-0.6,2-1.4c0.8-0.8,1.4-1.3,1.7-1.4c0.1,0,0.3,0.1,0.5,0.2c0.2,0.1,0.1,0.4-0.1,0.8
				c-0.2,0.4-0.9,1.1-2,2C107,125.8,106.1,126.3,105.5,126.3z M126.3,167c-3-1.6-5.6-3.7-7.8-6.3c-2.3-2.6-4.2-5.6-5.8-8.8
				c-0.8-1.7-1.6-3.4-2.4-5c-1.1-2.3-1.4-4.5-0.9-6.9c0.9-2.2,2.2-4.1,3.9-5.8c2.5-2.6,5.3-4.7,8.4-6.3c3.1-1.6,6.3-2.1,9.8-1.3
				c3.7,0.8,6.7,2.6,9.1,5.5c1.9,2.3,3.6,4.7,5.2,7.3c0,0,0.1,0,0.1,0c0,0.1,0.1,0.2,0.1,0.2c0,0,0,0,0,0c0.1,0.2,0.2,0.4,0.3,0.5
				c1.7,3.1,3.2,6.2,4.3,9.5c0.3,0.8,0.4,1.6,0.5,2.4c0.2,2.9-0.7,5.4-2.8,7.6c-1.1,1.1-2.1,2.1-3.2,3.1c-2.6,2.3-5.5,3.9-8.7,5
				C132.9,169.1,129.6,168.8,126.3,167z"/>
			<path d="M110.1,122.9c0.2-0.4,0.2-0.7,0.1-0.8c-0.2-0.1-0.3-0.1-0.5-0.2c-0.3,0.1-0.8,0.6-1.7,1.4c-0.8,0.8-1.5,1.3-2,1.4
				c-0.3-0.7-0.6-1.7-0.9-2.8c0-0.1-0.1-0.3-0.1-0.4c0.1,0.1,0.1,0.2,0.2,0.4c0-0.1,0-0.1,0.1-0.1c-0.1-0.2-0.2-0.4-0.3-0.5
				c-0.4-1.5-0.7-3.4-1.1-5.5c-0.2-1.3-0.4-2.6-0.6-4.1c-0.5-3.3-0.7-5.2-0.8-5.8c-0.3-1.6-0.5-2.4-0.8-2.4c-0.3,0-0.5,0.1-0.6,0.2
				c-0.1,0.1-0.1,0.4-0.1,0.8c0.4,3.7,0.9,7.3,1.6,11c0,0.1,0.1,0.3,0.1,0.4c1.2,7,2.1,10.5,2.8,10.5c0.6,0,1.5-0.4,2.7-1.4
				C109.3,124,109.9,123.3,110.1,122.9z"/>
			<path d="M148.2,159.8c2.1-2.1,3-4.7,2.8-7.6c-0.1-0.8-0.2-1.6-0.5-2.4c-1.2-3.3-2.6-6.5-4.3-9.5c-0.1-0.2-0.2-0.4-0.3-0.5
				c0,0,0,0,0,0c0-0.1-0.1-0.2-0.1-0.2c0,0-0.1,0-0.1,0c-1.5-2.6-3.2-5-5.2-7.3c-2.4-2.9-5.5-4.7-9.1-5.5c-3.4-0.7-6.7-0.3-9.8,1.3
				c-3.1,1.6-5.9,3.7-8.4,6.3c-1.6,1.6-2.9,3.6-3.9,5.8c-0.5,2.4-0.1,4.6,0.9,6.9c0.8,1.7,1.6,3.4,2.4,5c1.5,3.2,3.5,6.1,5.8,8.8
				c2.3,2.5,4.9,4.6,7.8,6.3c3.2,1.7,6.5,2,9.9,0.9c3.2-1.1,6.1-2.7,8.7-5C146.1,162,147.1,160.9,148.2,159.8z M147.6,158.7
				c-0.4,0.5-0.8,0.9-1.2,1.3c-0.4-0.7-0.8-1.5-1.3-2.3c0.8-0.4,1.5-0.8,2.2-1.2c0.7-0.4,1.4-0.7,2-1.1
				C149.1,156.5,148.5,157.6,147.6,158.7z M128.2,128c1.2,0,2.4,0.1,3.6,0.4c0.6,0.2,1.2,0.3,1.8,0.6c-1.9,1-4,2.1-6.3,3.3
				c-0.6-1.2-1.4-2.5-2.2-4C126.1,128.2,127.1,128,128.2,128z M118.5,131.2c1.8-1.3,3.7-2.2,5.7-2.6c0.7,1.4,1.6,2.8,2.4,4.2
				c-1.8,1-3.7,2-5.7,3.1c-0.7-1.3-1.6-2.8-2.5-4.6C118.4,131.2,118.4,131.2,118.5,131.2z M117.6,131.8c0.8,1.4,1.6,2.9,2.5,4.4
				c-1.7,0.9-3.5,1.9-5.3,2.9c-0.2-0.5-0.5-1-0.7-1.5c-0.2-0.4-0.5-0.9-0.8-1.5C114.5,134.6,116,133.1,117.6,131.8z M111.3,138.8
				c0.4-0.7,0.9-1.3,1.3-1.9c0.5,0.8,1,1.7,1.4,2.6c-1.1,0.6-2.3,1.3-3.5,1.9C110.6,140.5,110.9,139.6,111.3,138.8z M119.4,152.1
				c-0.6,1.5-0.8,3.5-0.9,6.1c0,0.2,0,0.4,0,0.5c-0.7-0.9-1.4-1.9-2-2.8c-1.8-2.9-3.3-5.9-4.7-8.9c-0.6-1.4-1-2.9-1.2-4.4
				c5.5-2.9,11-5.9,16.5-8.9c0,0,0,0,0,0c0,0,0.1-0.1,0.1-0.1c0.5-0.3,0.9-0.5,1.4-0.7c2.3-1.3,4.4-2.4,6.3-3.4
				c2.1,1,3.8,2.4,5.3,4.2c1.4,1.7,2.7,3.5,3.9,5.3c-0.8-0.2-1.7-0.3-2.6-0.3c-5.4,0-9.1,1.6-11.2,5.1c-0.6,1-1.1,2.2-1.3,3.4
				c-0.5-0.1-1.2-0.2-2.1-0.2C123.2,147.1,120.7,148.7,119.4,152.1z M122.3,162.8c-0.9-0.8-1.7-1.6-2.5-2.5c0-0.5,0-1.2,0-2.2
				c0-0.1,0-0.7,0-1.8c0.1-1.2,0.3-2.3,0.7-3.3c1.2-3.1,3.8-4.6,7.8-4.6c0.1,0,0.2,0.1,0.4,0.2c0,0,0.1,0,0.1,0
				c-0.1,0.6-0.1,1.1-0.1,1.7c-0.1,0.7-0.1,1.3,0,1.9c0.1,1.2,0.4,1.8,1,1.8c0.3,0,0.5-0.1,0.5-0.2c0-0.1,0.1-0.2,0.1-0.4
				c-0.3-5.1,0.6-8.6,2.6-10.6c1.9-1.9,5.5-2.9,10.7-2.8c0.2,0,0.5,0.2,1.2,0.5c0.2,0.1,0.4,0.2,0.6,0.3c0.1,0.2,0.2,0.4,0.3,0.5
				c1.1,2,2.1,4,2.9,6c0.6,1.4,1,3,1.2,4.5c0.1,0.7,0.1,1.3,0,1.9c-6.1,3.3-13.5,7.3-22.3,12C125.6,165.2,123.9,164.2,122.3,162.8z
				 M131.7,167.2c-1-0.2-2-0.4-3-0.7c1.3-0.7,2.7-1.4,4-2.1c0.5,0.9,1,1.9,1.6,2.8C133.4,167.4,132.6,167.4,131.7,167.2z
				 M139.4,165.1c-1.2,0.6-2.4,1.1-3.7,1.7c-0.2,0.1-0.4,0.2-0.6,0.2c-0.4-0.8-1-1.8-1.6-3c1.6-0.9,3.2-1.7,4.8-2.6
				c0.6,1.1,1.2,2.2,1.9,3.3C139.9,164.9,139.6,165,139.4,165.1z M139.1,160.9c1.7-1,3.5-1.9,5.2-2.8c0.5,0.8,0.9,1.7,1.4,2.5
				c-1.5,1.4-3.1,2.6-4.8,3.6C140.4,163.3,139.8,162.2,139.1,160.9z"/>
			<path fill="#FFFFFF" d="M133.6,129c-0.6-0.2-1.2-0.4-1.8-0.6c-1.2-0.3-2.4-0.4-3.6-0.4c-1.1,0-2.1,0.1-3,0.3
				c0.8,1.5,1.6,2.8,2.2,4C129.6,131.1,131.7,130,133.6,129z"/>
			<path fill="#7D2717" d="M126.9,147.1c0.9,0,1.6,0.1,2.1,0.2c0.3-1.3,0.7-2.4,1.3-3.4c2.1-3.4,5.8-5.1,11.2-5.1
				c0.9,0,1.7,0.1,2.6,0.3c-1.2-1.9-2.5-3.6-3.9-5.3c-1.5-1.9-3.3-3.3-5.3-4.2c-1.9,1-4,2.1-6.3,3.4c-0.4,0.2-0.9,0.5-1.4,0.7
				c0,0-0.1,0.1-0.1,0.1c0,0,0,0,0,0c-5.4,3-10.9,5.9-16.5,8.9c0.2,1.5,0.5,3,1.2,4.4c1.4,3,3,6,4.7,8.9c0.6,1,1.3,1.9,2,2.8
				c0-0.2,0-0.4,0-0.5c0-2.6,0.3-4.6,0.9-6.1C120.7,148.7,123.2,147.1,126.9,147.1z"/>
			<path fill="#EB1F24" d="M149.6,152.1c-0.2-1.6-0.6-3.1-1.2-4.5c-0.8-2-1.8-4-2.9-6c-0.1-0.2-0.2-0.4-0.3-0.5
				c-0.2-0.1-0.4-0.2-0.6-0.3c-0.6-0.4-1-0.5-1.2-0.5c-5.2,0-8.8,0.9-10.7,2.8c-2,2-2.9,5.5-2.6,10.6c-0.1,0.2-0.1,0.3-0.1,0.4
				c-0.1,0.1-0.3,0.2-0.5,0.2c-0.5,0-0.9-0.6-1-1.8c0-0.6,0-1.3,0-1.9c0-0.6,0-1.2,0.1-1.7c0,0,0,0-0.1,0c-0.2-0.1-0.3-0.2-0.4-0.2
				c-4,0-6.6,1.5-7.8,4.6c-0.4,1-0.6,2.1-0.7,3.3c0,1.1,0,1.7,0,1.8c0,1,0,1.7,0,2.2c0.8,0.9,1.6,1.7,2.5,2.5c1.5,1.3,3.2,2.4,5,3.2
				c8.8-4.7,16.2-8.7,22.3-12C149.7,153.4,149.7,152.8,149.6,152.1z"/>
			<path fill="#FFFFFF" d="M145.2,157.7c0.5,0.8,0.9,1.6,1.3,2.3c0.4-0.4,0.8-0.8,1.2-1.3c0.9-1,1.5-2.1,1.8-3.3
				c-0.7,0.3-1.3,0.7-2,1.1C146.7,156.9,145.9,157.3,145.2,157.7z"/>
			<path fill="#FFFFFF" d="M144.3,158.1c-1.7,0.9-3.5,1.9-5.2,2.8c0.7,1.2,1.3,2.3,1.8,3.3c1.7-1,3.3-2.3,4.8-3.6
				C145.3,159.8,144.8,158.9,144.3,158.1z"/>
			<path fill="#FFFFFF" d="M128.7,166.5c0.9,0.3,1.9,0.6,3,0.7c0.9,0.1,1.8,0.1,2.6,0c-0.6-1-1.1-1.9-1.6-2.8
				C131.4,165.1,130,165.8,128.7,166.5z"/>
			<path fill="#FFFFFF" d="M133.5,164c0.6,1.2,1.2,2.2,1.6,3c0.2-0.1,0.4-0.1,0.6-0.2c1.3-0.5,2.5-1,3.7-1.7
				c0.2-0.1,0.5-0.3,0.8-0.4c-0.6-1.1-1.3-2.2-1.9-3.3C136.7,162.3,135.1,163.1,133.5,164z"/>
			<path d="M151.5,157.7c0,0.2,0.1,0.4,0.3,0.5c0.9-1.1,1.3-1.9,1.5-2.4c0.1-0.2,0.1-1,0.1-2.1c0-1.1,0-1.7-0.1-1.8
				c0-0.2-0.3-1-0.9-2.3c-0.2,0.2-0.3,0.4-0.3,0.6c0,0,0.1,0.5,0.3,1.3c0.2,0.8,0.3,1.6,0.3,2.3c0,0.8-0.2,1.7-0.6,2.7
				C151.7,157.2,151.5,157.7,151.5,157.7z"/>
			<path fill="#FDDB00" d="M117.5,162.8c-2.2-2.5-4.1-5.2-5.8-8c-0.6-0.9-1.1-1.9-1.6-2.8c0.4,4,0.6,7.7,0.6,11.4
				c0,2.3,0,3.8-0.1,4.3c-0.1,2.1-0.4,4-0.7,5.7c3.4-1.2,6.9-3.6,10.6-7.4l0,0C119.5,165,118.4,163.9,117.5,162.8z"/>
			<path fill="#FFFBD4" d="M135.6,174.4c0,0.2,0,0.4,0,0.7c0,0.8,0.3,1.6,1,2.3c0.5,0.5,1.1,1,1.9,1.3c0.8-1.1,1.6-2.4,2.5-3.7
				C139.1,175,137.3,174.8,135.6,174.4z"/>
			<path fill="#C272AD" d="M146.7,275.6c-0.4-9.6-1.2-19.8-2.5-30.7c-1.2-10.9-2.1-19.6-2.6-26.1c-0.5-6.5-0.5-15.6,0.2-27.3
				c0.3-6.4,0.6-12,0.8-16.6c0,0.1-0.1,0.1-0.1,0.1c-1.2,1.8-2.3,3.4-3.2,4.8c0,0-0.1,0-0.1,0c-0.1,0.2-0.1,0.5-0.2,0.7
				c-0.7-0.1-1.3-0.3-1.9-0.6c-0.2,8.3-0.5,16.4-0.7,24.2c-0.2,8.1,0.1,16.1,0.9,24c0.1,0.1,0.1,0.2,0.2,0.3c0,0.4,0,1,0,1.5l0,0.4
				c0,0.6,0.1,1.2,0.2,1.8c1.2,9.2,2.2,20,3.1,32.3c0.6,8.1,1,14.4,1.3,18.9c1.6,0.5,3.2,0.9,5,1.3
				C147,281.7,146.8,278.7,146.7,275.6z"/>
			<path fill="#C272AD" d="M136.8,233.6c-0.2-1.6-0.3-3.1-0.5-4.5c-1.9-3.1-3.3-5.4-4.2-7c-1.6-2.7-2.4-4.3-2.4-4.9
				c0-0.4,1.5-4.7,4.6-12.7c0.2-0.6,0.5-1.2,0.7-1.8c0.1-3.7,0.2-7.7,0.5-12.1c0.2-4.2,0.4-7.9,0.6-11.4c-0.3-0.2-0.6-0.5-0.8-0.8
				c-1.3,2-2.7,4.6-4.4,7.7c-2,3.7-3.8,7.1-5.5,10.2c-1.6,3.1-3.1,6.1-4.5,9c-1.5,3.2-2.4,6.7-2.6,10.3c-0.1,1.7,0.2,3.3,0.9,4.9
				c1.4,3.3,3.1,6.4,5.2,9.3c1.9,2.5,3.7,5.1,5.4,7.7c0.3,0.4,0.6,0.9,0.9,1.3C132.8,237.3,134.8,235.7,136.8,233.6z"/>
			<path fill="#FFFBD4" d="M157.2,166.3c-1.6,1.3-3.1,2.6-4.7,3.9c-2.3,2-4.9,3.4-7.8,4.1c1.3,0.7,2.9,1.7,4.9,2.8
				c3.7-1.8,7.5-4.9,11.5-9.2c1.5-1.5,2.8-3.2,4.2-4.9c-0.8,0.7-1.6,1.3-2.3,1.9c0,0,0,0,0,0c-0.2,0.2-0.4,0.4-0.6,0.6
				c-0.1,0.1-0.1,0.1-0.1,0.2c-0.2,0-0.4,0.1-0.6,0.1c0.2-1.5,0.4-3,0.6-4.5C160.7,163.2,159,164.8,157.2,166.3z"/>
			<path fill="#FDCF9D" d="M137.9,243.9c-1,0.7-2,1.3-2.9,1.8l0.1,0.1l0,0l0.1,0.1c0,0,0,0.1,0,0.1c1,1.9,1.7,3.8,1.9,5.9
				c0.1,1-0.1,1.8-0.5,2.7c-0.7,1.3-1.9,1.8-3.5,1.3c0-0.4,0.3-0.8,0.9-1c1-0.3,1.6-0.9,1.8-1.8c-0.5,0.1-1.1,0.1-1.6,0.1
				c-1.6,0-2.7-0.2-3.4-0.6c-0.3-0.2-0.5-0.4-0.6-0.4c-0.2-0.1-0.4-0.2-0.7-0.2c-0.6,0-1,0.3-1.1,0.8c-0.1,0.3-0.1,0.6,0,0.9
				c0,3.7,2.4,5.6,7.3,5.7c1.4,0,2.6-0.2,3.8-0.7c-0.4-4.7-0.9-9.5-1.5-14.5L137.9,243.9z"/>
			<path fill="#FFFBD4" d="M137,235.5c-1.9,1.8-3.8,3.3-5.5,4.4c1,1.5,1.9,3,2.8,4.5c1.2-0.6,2.3-1.4,3.5-2.2
				C137.5,239.8,137.2,237.6,137,235.5z"/>
			<path fill="#FFFFFF" d="M147.3,286.1c-1.7-0.4-3.4-0.9-5-1.4c0.1,1.7,0.2,3,0.3,4.1c0,0.5,0.1,1,0.1,1.5c1.6,0.5,3.3,0.9,5,1.3
				C147.6,289.7,147.4,287.9,147.3,286.1z"/>
			<path fill="#FFFFFF" d="M202.6,286c-9.9,1.7-19.9,2.5-30,2.4c-8.8-0.1-16.1-0.6-21.8-1.6c-0.8-0.1-1.5-0.3-2.3-0.5
				c0.1,1.3,0.2,2.3,0.2,3.2c0,0.8,0.1,1.5,0.2,2.2c6.9,1.4,15.2,2.2,24.8,2.2c12,0.1,24.8-1.3,38.2-4.1c11.3-2.4,22.1-5.6,32.5-9.5
				c4-1.5,8-3.5,11.9-6c-0.1-1.8-0.3-3.8-0.5-6c-4.6,3-8.7,5.2-12.4,6.5C229,280.1,215.3,283.8,202.6,286z"/>
			<path fill="#F186B6" d="M250.7,302c-0.3-4.7-0.3-10.4-0.3-17.2c0-2-0.1-3.8-0.1-5.5c-2,1.1-4,1.9-5.8,2.6
				c-14.6,5.3-28.2,9-40.9,11.2c-9.9,1.7-19.9,2.5-30,2.4c-8.8-0.1-16.1-0.6-21.8-1.6c-1.3-0.2-2.5-0.5-3.7-0.8c0,0.7,0,1.4,0,2.1
				c0,0.9,0.2,3.3,0.4,7.4c0.2,3.9,0.3,6.7,0.3,8.2c-0.1,7.8-0.6,15.3-1.6,22.6c-0.8,6.2-2.2,13-3.9,20.2c-1,4.3-2.9,11.3-5.6,20.9
				c-0.6,2.4-1.3,4.6-1.8,6.7c2,1.3,4.3,1.5,6.9,0.7c3.3-1,6.4-0.5,9.3,1.4c0.3,0.2,0.5,0.4,0.7,0.7c0.6,0.7,1.2,1.5,1.7,2.2
				c0.3,0.3,0.6,0.6,1,0.8c3,1.7,6.3,2.2,9.8,1.4c2-0.4,3.9-0.3,5.9,0.2c2.8,0.8,5.5,1.9,8.1,3.6c1.7,1.1,3.6,1.7,5.6,1.6
				c1.1,0,2.3-0.3,3.3-0.8c2.6-1.3,5.4-1.7,8.4-1.4c0.6,0.1,2.3,0.6,4.9,1.6c2.6,1,4.8,1.2,6.6,0.5c1.8-0.7,3-1.5,3.8-2.4
				c0.8-0.9,2.2-1.3,4.3-1.3c0.7,0,1.3,0.2,1.9,0.5c2.8,1.6,5.8,2,8.9,1.3c0.5-0.1,0.9-0.3,1.3-0.6c2.8-1.7,5.7-2.6,9-2.7
				c1.3,0,3.6,0.5,6.9,1.4c3.3,1,5.8,0.6,7.6-1.2c0.9-0.6,1.9-1.4,3.2-2.3c1.3-0.9,2.6-1.4,4-1.6c0.7-0.1,1.4-0.2,2.3-0.2
				c-1.2-5.6-2.4-11.8-3.5-18.7c-1.6-9.7-2.6-15.7-2.8-17.8c-0.3-2.1-0.9-6.7-1.8-13.9c-0.9-7.2-1.5-13.3-1.8-18.3
				C251.1,310.8,250.9,306.2,250.7,302z"/>
			<path fill="#FFFBD4" d="M135.5,382.6c0,0.1,0,0.1,0,0.1l0.5,0.1C135.8,382.8,135.6,382.7,135.5,382.6z"/>
			<path fill="#FFFFFF" d="M255.1,388.2c-1.2,1.2-2.6,2.1-4.1,2.8c-1.5,0.7-3.5,0.8-6,0.4c-0.7-0.1-1.4-0.2-2-0.4
				c-2.9-1.1-5.9-1.3-8.9-0.8c-1,0.2-2,0.6-2.8,1.2c-3,1.9-6.3,2.5-9.9,1.8c-0.6-0.1-1.2-0.3-1.8-0.6c-1.5-0.8-3.1-1.2-4.8-1.2
				c-0.6,0-2.1,1-4.6,2.9c-2.5,1.9-7.3,1.5-14.6-1.1c-0.3,0-0.5-0.1-0.8-0.1c-1.5-0.1-2.8,0.2-4.1,0.8c-0.9,0.4-1.9,0.8-2.9,1
				c-1.7,0.4-3.4,0.5-5.1,0.1c-2.6-0.5-5-1.4-7.2-2.8c-1.7-1.1-3.6-1.8-5.6-2.2c-0.7-0.2-1.4-0.2-2.1-0.2c-2.3,0.3-4.5,0.4-6.8,0.4
				c-3.7-0.1-6-0.8-7-2.3c-1-1.5-2.5-2.8-4.3-4c-1.9-1.2-4.1-1.4-6.9-0.6c-2.7,0.8-5.1,0.7-7-0.4l-0.5-0.1c-0.6,2.3-1.2,4.5-1.8,6.6
				c6.3,3.9,14.7,7,25,9.6c12,2.9,29.4,4.3,52,4c7.7,0,15.4-0.4,23.1-1c9.1-0.8,18.2-2.9,27.3-6.2c0.9-0.3,1.8-0.7,2.6-1
				c-0.3-1.1-0.6-2.2-0.8-3.3c-0.4-1.8-0.9-3.6-1.3-5.6c-0.8,0.1-1.5,0.1-2.3,0.3C257.7,386.3,256.3,387.1,255.1,388.2z"/>
			<path d="M217.1,425.6c-1.4-0.8-2.4-1.2-2.9-1.2c-0.4,0-0.7,0-0.8,0c-0.2,0.1-0.3,0.2-0.3,0.5c0,0.5,0,0.6,0.1,0.4
				c3,1.7,4.8,2.6,5.2,2.6c0.4,0,0.7-0.1,0.6-0.3c0.1-0.3,0.1-0.5,0.1-0.6C219,426.9,218.4,426.4,217.1,425.6z"/>
			<path fill="#A46728" d="M237,424c-0.1-0.9-0.4-1.9-1.1-2.9c-0.5-0.8-1.1-1.4-1.8-1.8c0.1,0.2,0.1,0.3,0.1,0.5
				c0.2,0.6,0.3,1.1,0.5,1.6c-0.2,0.1-0.5,0.2-0.7,0.4c0,0,0,0.1,0.1,0.1c-1.7,0.7-3.8,1-6.3,1c-3.7,0-6.6-0.4-8.5-1.2
				c-0.6,0.3-1.3,0.7-2,1l0,0.1c0.7,0,1.6,0.4,2.8,1.1c1.3,0.8,2,1.5,2.2,2.1c-0.1,0.2-0.4,0.4-0.8,0.3c-0.5,0-1.4-0.4-2.8-1.1
				c-1.4-0.7-2.1-1.3-2.4-1.6c0.2-0.4,0.4-0.6,0.6-0.7c-0.2,0.1-0.5,0.2-0.7,0.3c-0.8,0.3-1.8,0.7-2.9,1.1c-0.9,0.3-1.9,0.6-2.9,0.9
				c0.9,0.2,2.7,1.5,5.6,3.8c-0.1,0.2-0.2,0.4-0.4,0.6c-0.1,0.1-0.3,0.2-0.6,0.2c-1,0-2.2-0.6-3.7-1.9c-1.3-1.1-1.9-1.8-1.9-2
				c0-0.2,0-0.4,0-0.5c-0.1,0-0.1,0-0.2,0.1c-0.7,0.2-1.3,0.4-2,0.6c-4.2,1.2-7.1,2.2-8.6,3.1c-0.9,0.5-1.6,1-2.2,1.6
				c0,0,0,0.1,0,0.1c0,1,0.1,1.9,0.4,2.6c1,2.3,3.6,3.4,8,3.5c6.7,0.1,15.6-2.5,26.6-7.6c1.6-0.7,3.4-1.6,5.4-2.6c0-0.1,0-0.2,0-0.2
				C237,425.4,237,424.6,237,424z M218.4,427.9c-0.5,0-2.2-0.9-5.2-2.6c0,0.2-0.1,0.1-0.1-0.4c0-0.3,0.1-0.5,0.3-0.5
				c0.1-0.1,0.4-0.1,0.8,0c0.5,0,1.5,0.4,2.9,1.2c1.3,0.8,2,1.3,2,1.4c0,0.1,0,0.4-0.1,0.6C219,427.8,218.8,427.9,218.4,427.9z"/>
			<path fill="#FDCF9D" d="M220.3,404.9c0,0.7,0,1.6,0.1,2.6c0,0.5,0,1,0.1,1.5c1.2,0.1,2.5,0.2,3.9,0.2c2.6,0,5-0.1,7.3-0.4
				c0-0.4,0-0.8,0-1.1c0-1.7,0.1-3,0.1-4c-3.9,0.2-7.7,0.4-11.6,0.6C220.3,404.4,220.3,404.6,220.3,404.9z"/>
			<path fill="#EB1F24" d="M231.7,411.9c0-0.7,0-1.2,0-1.7c-2.3,0.3-4.8,0.4-7.5,0.4c-1.3,0-2.5,0-3.6-0.1c0.1,0.5,0.1,1.1,0.1,1.7
				c1.1,0.1,2.4,0.1,3.7,0.1C227,412.4,229.4,412.2,231.7,411.9z"/>
			<path fill="#FFFBD4" d="M227.6,421.3c2,0,3.8-0.2,5.2-0.7c0-0.2-0.1-0.3-0.1-0.5c-0.5-2-0.8-4.3-1-6.7c-2.3,0.3-4.8,0.4-7.5,0.4
				c-1.2,0-2.4,0-3.4-0.1c0,1.8-0.2,4-0.4,6.6C222.3,421,224.8,421.3,227.6,421.3z"/>
			<path fill="#7D2717" d="M237,428.1c-1.8,0.9-3.4,1.6-4.7,2.3c-4,1.9-8,3.6-12.2,5c-6,2-10.9,3.1-14.8,3c-5.2,0-8.5-1.5-9.6-4.4
				c-0.2-0.4-0.3-0.7-0.3-1.1c-0.1,0.3-0.2,0.7-0.2,1c0,0,0,0,0,0c0,0.1,0,0.3,0,0.4c0,0.8,0,1.3,0,1.6c0.1,0.7,0.5,1.3,1,1.8
				c1.5,1.4,4.6,2.1,9.4,2.2c3.6,0,8.1-0.9,13.6-2.7c2.9-0.9,5.9-2,9.1-3.3c4.6-1.4,7.4-2.5,8.2-3.4c0.4-0.4,0.6-0.9,0.7-1.7
				C237,428.6,237,428.3,237,428.1z"/>
			<path fill="#FFFBD4" d="M170.6,411.1c2,0,3.8-0.2,5.2-0.7c0-0.2-0.1-0.3-0.1-0.5c-0.5-2-0.8-4.3-1-6.7c-2.3,0.3-4.8,0.4-7.5,0.4
				c-1.2,0-2.4,0-3.4-0.1c0,1.8-0.2,4-0.4,6.6C165.4,410.7,167.8,411.1,170.6,411.1z"/>
			<path d="M160.1,415.3c-1.4-0.8-2.4-1.2-2.9-1.2c-0.4,0-0.7,0-0.8,0c-0.2,0.1-0.3,0.2-0.3,0.5c0,0.5,0,0.6,0.1,0.4
				c3,1.7,4.8,2.6,5.2,2.6c0.4,0,0.7-0.1,0.6-0.3c0.1-0.3,0.1-0.5,0.1-0.6C162.1,416.6,161.4,416.1,160.1,415.3z"/>
			<path fill="#A46728" d="M180,413.8c-0.1-0.9-0.4-1.9-1.1-2.9c-0.5-0.8-1.1-1.4-1.8-1.8c0.1,0.2,0.1,0.3,0.1,0.5
				c0.2,0.6,0.3,1.1,0.5,1.6c-0.2,0.1-0.5,0.2-0.7,0.4c0,0,0,0.1,0.1,0.1c-1.7,0.7-3.8,1-6.3,1c-3.7,0-6.6-0.4-8.5-1.2
				c-0.6,0.3-1.3,0.7-2,1l0,0.1c0.7,0,1.6,0.4,2.8,1.1c1.3,0.8,2,1.5,2.2,2.1c-0.1,0.2-0.4,0.4-0.8,0.3c-0.5,0-1.4-0.4-2.8-1.1
				c-1.4-0.7-2.1-1.3-2.4-1.6c0.2-0.4,0.4-0.6,0.6-0.7c-0.2,0.1-0.5,0.2-0.7,0.3c-0.8,0.3-1.8,0.7-2.9,1.1c-0.9,0.3-1.9,0.6-2.9,0.9
				c0.9,0.2,2.7,1.4,5.6,3.8c-0.1,0.2-0.2,0.4-0.4,0.6c-0.1,0.1-0.3,0.2-0.6,0.2c-1,0-2.2-0.6-3.7-1.9c-1.3-1.1-1.9-1.8-1.9-2
				c0-0.2,0-0.4,0-0.5c-0.1,0-0.1,0-0.2,0.1c-0.7,0.2-1.3,0.4-2,0.6c-4.2,1.2-7.1,2.2-8.6,3.1c-0.9,0.5-1.6,1-2.2,1.7
				c0,0,0,0.1,0,0.1c0,1,0.1,1.9,0.4,2.6c1,2.3,3.6,3.4,8,3.5c6.7,0.1,15.6-2.5,26.6-7.6c1.6-0.7,3.4-1.6,5.4-2.6c0-0.1,0-0.2,0-0.2
				C180.1,415.2,180.1,414.3,180,413.8z M161.4,417.7c-0.5,0-2.2-0.9-5.2-2.6c0,0.2-0.1,0.1-0.1-0.4c0-0.3,0.1-0.5,0.3-0.5
				c0.1-0.1,0.4-0.1,0.8,0c0.5,0,1.5,0.4,2.9,1.2c1.3,0.8,2,1.3,2,1.4c0,0.1,0,0.4-0.1,0.6C162,417.6,161.8,417.7,161.4,417.7z"/>
			<path fill="#7D2717" d="M180,417.8c-1.8,0.9-3.4,1.6-4.7,2.3c-4,1.9-8,3.6-12.2,5c-6,2-10.9,3.1-14.8,3c-5.2,0-8.5-1.5-9.6-4.4
				c-0.2-0.4-0.3-0.7-0.3-1.1c-0.1,0.3-0.2,0.7-0.2,1c0,0,0,0,0,0c0,0.1,0,0.3,0,0.4c0,0.8,0,1.4,0,1.6c0.1,0.7,0.5,1.3,1,1.8
				c1.5,1.4,4.6,2.1,9.4,2.2c3.6,0,8.1-0.9,13.6-2.6c2.9-0.9,5.9-2,9.1-3.3c4.6-1.4,7.4-2.5,8.2-3.4c0.4-0.4,0.6-1,0.7-1.7
				C180,418.4,180,418.1,180,417.8z"/>
			<path fill="#EB1F24" d="M167.5,401.9c-1.2-0.2-2.5-0.5-3.8-0.7c0,0.3,0,0.5,0,0.8c1.1,0.1,2.4,0.1,3.7,0.1L167.5,401.9z"/>
		</g>
		<g>
			<circle cx="89.9" cy="101.1" r="6.2"/>
			<path d="M102.4,95.2c0.1,0.9,0.4,1.8,0.8,2.6c0.3,0.6,0.7,1.2,1.1,1.7c0.5,0.5,1,1,1.6,1.5c0.1,0.1,0.3,0.2,0.5,0.3
				c0.4,0.2,0.7,0.4,1.1,0.6c1.5,0.7,3.2,0.9,5,0.6c0.6-0.1,1.1-0.2,1.7-0.4c1.6-0.6,2.9-1.6,4-3.1c0.5-0.6,0.8-1.2,1.1-1.9
				c0.2-0.4,0.3-0.7,0.4-1.1c0.1-0.3,0.1-0.5,0.2-0.8c0,0,0,0,0-0.1c0.1-0.9,0.1-1.7-0.1-2.7c-0.2-1.2-0.6-2.3-1.2-3.2
				c-0.1-0.3-0.3-0.5-0.5-0.7c-0.5-0.7-1.2-1.3-1.9-1.8c-1.2-0.9-2.5-1.4-3.9-1.6c-0.6-0.1-1.2-0.1-1.9-0.1c-0.3,0-0.5,0.1-0.7,0.1
				c-0.2,0-0.4,0.1-0.6,0.1c-0.1,0-0.2,0-0.3,0.1c-2,0.5-3.6,1.6-4.8,3.4c-0.1,0.1-0.2,0.3-0.3,0.5c-0.5,0.8-0.9,1.7-1.1,2.6
				C102.2,92.9,102.2,94,102.4,95.2z M111.7,86.1c1.4,0.1,2.8,0.5,4,1.4c1.7,1.2,2.7,2.9,3.1,5c0.1,0.9,0.1,1.7,0,2.6
				c-0.2,1.1-0.6,2.1-1.3,3.1c-1.2,1.7-2.9,2.7-5,3c-0.9,0.2-1.8,0.2-2.6,0c-1.1-0.2-2.1-0.6-3.1-1.3c-1-0.7-1.7-1.5-2.3-2.5
				c-0.1-0.1-0.1-0.2-0.2-0.4c1.6-2.2,3.5-4.9,5.7-8.3C110.6,87.7,111.1,86.8,111.7,86.1z M105,89.2c1.2-1.7,2.9-2.7,5-3
				c0.2-0.1,0.5-0.1,0.8-0.1c-1.7,2.5-3.9,5.9-6.8,10.1c-0.1-0.4-0.2-0.8-0.3-1.3C103.3,92.9,103.8,91,105,89.2z"/>
			<path fill="#FFCD7B" d="M104,96.2c2.9-4.2,5.1-7.6,6.8-10.1c-0.3,0-0.5,0.1-0.8,0.1c-2.1,0.3-3.7,1.4-5,3
				c-1.2,1.7-1.7,3.6-1.3,5.7C103.7,95.4,103.9,95.8,104,96.2z"/>
			<path fill="#FFFFFF" d="M104.3,97c0.1,0.1,0.1,0.3,0.2,0.4c0.5,1,1.3,1.8,2.3,2.5c1,0.7,2,1.1,3.1,1.3c0.8,0.2,1.7,0.2,2.6,0
				c2.1-0.3,3.8-1.4,5-3c0.7-1,1.1-2,1.3-3.1c0.1-0.8,0.1-1.7,0-2.6c-0.4-2.1-1.4-3.7-3.1-5c-1.2-0.9-2.6-1.4-4-1.4
				c-0.5,0.8-1.1,1.7-1.7,2.6C107.8,92,105.9,94.8,104.3,97z M109.9,98.9c0,0.1,0.2,0.2,0.3,0.2c0.3,0.1,0.4-0.1,0.5-0.3
				c0-0.1,0-0.1,0-0.2c0.1,0.2,0.1,0.4,0.1,0.6c0,0.2-0.2,0.4-0.3,0.6c-0.2,0.2-0.5,0.3-0.8,0.2c-0.4-0.1-0.7-0.2-0.8-0.6
				c-0.1-0.2-0.1-0.4-0.1-0.5c0.1-0.7,0.5-0.9,1.1-0.8c0.2,0,0.4,0.1,0.5,0.2c0,0-0.1,0-0.1-0.1c-0.3,0-0.4,0.1-0.5,0.3
				C109.9,98.7,109.9,98.8,109.9,98.9z"/>
			<path d="M110.4,98.3c0.1,0,0.1,0,0.1,0.1c-0.1-0.1-0.3-0.2-0.5-0.2c-0.7-0.1-1,0.2-1.1,0.8c0,0.2,0,0.4,0.1,0.5
				c0.1,0.4,0.4,0.5,0.8,0.6c0.3,0.1,0.6,0,0.8-0.2c0.2-0.2,0.3-0.4,0.3-0.6c0-0.2,0-0.4-0.1-0.6c0,0.1,0,0.1,0,0.2
				c-0.1,0.2-0.2,0.4-0.5,0.3c-0.2,0-0.3-0.1-0.3-0.2c0-0.1,0-0.2,0-0.2C109.9,98.4,110.1,98.3,110.4,98.3z"/>
			<path d="M115.8,102.3"/>
			<path d="M95.7,103.9C95.7,103.9,95.7,103.9,95.7,103.9C95.7,104,95.7,103.9,95.7,103.9C95.7,103.9,95.7,103.9,95.7,103.9z"/>
			<path fill="#FFCD7B" d="M93,96.4c-1.2-0.8-2.4-1.2-3.9-1c-1.3,0.2-2.4,0.8-3.2,1.8c-0.1,0.1-0.1,0.1-0.1,0.2c0.1,0,0.1,0,0.2,0
				c3.8,0.7,6.8,1.4,9,1.8C94.6,98.2,94,97.1,93,96.4z"/>
			<path fill="#FFFFFF" d="M90.9,106.4c1.4-0.2,2.4-0.9,3.3-2.1c0-0.1,0.1-0.1,0.1-0.2c0.8-1.2,1.1-2.5,0.9-4l-9.8-1.9
				c-0.1,0.1-0.1,0.3-0.2,0.4c-0.4,0.9-0.5,1.9-0.3,3c0.2,1.5,1,2.8,2.1,3.7c0,0,0.1,0.1,0.1,0.1c0.1,0,0.1,0.1,0.2,0.1
				c0.4,0.2,0.8,0.5,1.2,0.6C89.3,106.4,90.1,106.5,90.9,106.4z M90,104.1c0.1-0.7,0.5-1,1.2-0.9c0.1,0,0.3,0.1,0.4,0.1c0,0,0,0,0,0
				c-0.3,0-0.5,0.1-0.5,0.4c0,0.1,0,0.2,0,0.2c0.1,0.1,0.2,0.2,0.4,0.3c0.3,0.1,0.4-0.1,0.5-0.4c0-0.1,0-0.1,0-0.2
				c0.1,0.2,0.2,0.5,0.1,0.8c0,0.2-0.1,0.5-0.4,0.6c-0.2,0.2-0.5,0.3-0.8,0.2c-0.4-0.1-0.7-0.3-0.8-0.7C90,104.5,90,104.3,90,104.1z
				"/>
			<path d="M90.9,105.3c0.3,0,0.6,0,0.8-0.2c0.2-0.2,0.3-0.4,0.4-0.6c0-0.3,0-0.6-0.1-0.8c0,0.1,0,0.1,0,0.2
				c-0.1,0.3-0.2,0.4-0.5,0.4c-0.2,0-0.3-0.1-0.4-0.3c0-0.1,0-0.2,0-0.2c0-0.3,0.2-0.4,0.5-0.4c0,0,0,0,0,0
				c-0.1-0.1-0.3-0.1-0.4-0.1c-0.7-0.1-1.1,0.2-1.2,0.9c0,0.2,0,0.4,0.1,0.6C90.2,105,90.4,105.2,90.9,105.3z"/>
		</g>
	</g>
</g>
<g id="Layer_12">
</g>
<g id="Layer_14">
</g>
<g id="Layer_15">
</g>
<g id="Layer_16">
</g>
<g id="Layer_17">
</g>
<g id="Layer_18">
</g>
<g id="Layer_19">
</g>
<g id="Layer_20">
</g>
<g id="Layer_21">
</g>
<g id="Layer_22">
</g>
<g id="Layer_23">
</g>
<g id="Layer_24">
</g>
<g id="Layer_25">
</g>
<g id="Layer_26">
</g>
<g id="Layer_27">
</g>
<g id="Layer_28">
</g>
<g id="Layer_29">
</g>
<g id="Layer_30">
</g>
<g id="Layer_31">
</g>
<g id="Layer_32">
</g>
<g id="Layer_33">
</g>
<g id="Layer_34">
</g>
<g id="Layer_36">
</g>
<g id="Layer_35">
</g>
<g id="Layer_37">
</g>
<g id="Layer_38">
</g>
<g id="Layer_39">
</g>
<g id="Layer_40">
</g>
</svg>
