<?xml version="1.0" encoding="utf-8"?>
<!-- Generator: Adobe Illustrator 18.1.1, SVG Export Plug-In . SVG Version: 6.00 Build 0)  -->
<!DOCTYPE svg PUBLIC "-//W3C//DTD SVG 1.1//EN" "http://www.w3.org/Graphics/SVG/1.1/DTD/svg11.dtd">
<svg version="1.1" xmlns="http://www.w3.org/2000/svg" xmlns:xlink="http://www.w3.org/1999/xlink" x="0px" y="0px"
	 viewBox="0 0 393 483" enable-background="new 0 0 393 483" xml:space="preserve">
<g id="ziutek_x5F_01">
</g>
<g id="ziutek_x5F_02">
	<g>
		<path fill="none" d="M128.1,306.7C128.1,306.7,128.1,306.7,128.1,306.7c0.1-0.1,0.1-0.2,0.2-0.2c0,0,0.1,0,0.1-0.1c0,0,0,0,0,0.1
			c0,0.1-0.1,0.3-0.1,0.4l-0.2-0.1C128.1,306.8,128.1,306.8,128.1,306.7z"/>
		<path fill="none" d="M232.3,239.2l0.2,0.1c-0.1,0-0.2,0-0.3,0C232.3,239.2,232.3,239.2,232.3,239.2z"/>
		<path fill="none" d="M135.9,300.8C135.8,300.8,135.8,300.7,135.9,300.8L135.9,300.8C135.9,300.7,135.9,300.8,135.9,300.8z"/>
		<path fill="none" d="M147.6,315C147.6,315,147.6,315,147.6,315l0,0.1C147.6,315.1,147.6,315.1,147.6,315z"/>
		<path fill="none" d="M115.4,236.1c0.6-0.4,1.3-0.8,2-1.2c-0.4,0.8-0.8,1.7-1.1,2.5c-1.4,3.2-2.7,6.5-3.9,9.8
			c-0.3,0.8-0.5,1.5-0.8,2.3c-0.6-1.4-0.9-2.5-1-3.1c-0.3-1.2-0.5-2-0.5-2.6c-0.2-0.9-0.1-1.7,0-2.3
			C110.4,239.9,112.2,238.1,115.4,236.1z"/>
		<path fill="none" d="M247.1,322.1c0,0-0.1,0.1,0,0.1L247.1,322.1C247.1,322.1,247.1,322.1,247.1,322.1z"/>
		<path fill="none" d="M138.3,301.1c0.1,0.1,0.3,0.2,0.4,0.3l-0.1,0.2C138.5,301.4,138.4,301.3,138.3,301.1z"/>
		<path fill="none" d="M231.5,140.2C231.5,140.1,231.5,140.1,231.5,140.2L231.5,140.2L231.5,140.2z"/>
		<path fill="none" d="M138.2,302.2c0.1,0,0.2,0,0.3-0.1l-0.1,0.2C138.3,302.3,138.3,302.3,138.2,302.2z"/>
		<path fill="none" d="M263,204.5C263,204.5,263,204.5,263,204.5l-0.2,0C262.9,204.5,263,204.5,263,204.5z"/>
		<path d="M269.1,233.4c-0.3-4.3-0.8-8.6-1.4-13c-0.3-1.8-0.6-3.6-1-5.4c0.4-0.9,0.7-1.7,0.9-2.4c0.4-1.4,0.6-2.2,0.6-2.2
			c-0.1-0.8-0.7-1.7-1.7-2.6c-0.6-0.5-1.1-0.9-1.7-1.2c0.1-1,0.2-1.9,0.3-2.6c1.9-0.5,3.1-1.2,3.6-2c0.2-0.3,0.3-0.7,0.2-1l-0.2-0.4
			c-0.2-1.3-0.7-2.1-1.5-2.4c-0.4-0.2-1-0.3-1.9-0.4c0-0.3,0.1-0.6,0.1-0.9c0.1-1.1,0-2.2-0.2-3.4c-0.3-1-0.4-1.5-0.4-1.6
			c-0.1-0.3-0.1-0.7-0.2-0.9c0,0-0.1,0-0.1,0c0-0.2-0.1-0.3-0.1-0.5c-0.1-0.4-0.1-0.7-0.1-1.1c-2.5,0.7-5.7,1.5-9.7,2.2
			c-8.2,1.5-15.7,2.2-22.7,2.2c-1.4-0.6-3-1.4-4.8-2.2c-5-2.5-8.8-5.5-11.3-8.9c-2.1-2.8-3.5-6.2-4.3-10.2c-0.1-0.3-0.1-0.7-0.2-1.1
			c2.4-0.5,4.8-0.7,7.3-0.4c6.5,0.7,12.7,2.3,18.8,4.8c3.4,1.4,6.8,2.7,10.3,4.1c1.8,0.7,3.6,1.3,5.4,2c1.3,0.4,2.6,0.8,4,1.2
			c2,0.6,4.1,0.9,6.2,1c2.3,0.1,4.3-0.7,6-2.2c0.8-0.7,1.3-1.7,1.5-2.7c0.4-2.4,0-4.6-1.2-6.6c-1.7-2.8-4-4.8-7-6.1
			c-6.4-2.8-12.7-4.6-19-5.4c-6.3-0.8-11.5-1.2-15.5-1.1c-4,0.1-8.1,0.4-12.1,1c-1.5,0.2-2.7,0.4-3.9,0.6c0.4-2,1-3.9,1.7-5.7
			c2.8-6.7,7.6-11.6,14.4-14.5c0.5,0,0.9,0.1,1.4,0.2c3,0.4,6.1,1,9.4,1.9c4.2,1.1,7.7,2.1,10.5,2.8c6.7,1.7,12.1,3.5,16.1,5.3
			c1.8,0.8,3.4,1.6,4.9,2.5c0-0.7,0.1-1.2,0.2-1.8l0,0c0.1-0.2,0.2-0.4,0.3-0.6c0.5-1.1,0.9-2.2,1.3-3.4c1,0.1,2,0.1,2.8,0
			c1.3-0.2,2.2-1,2.5-2.1c0.1-0.3,0.2-0.7,0.2-1.2c0-0.3,0-0.4,0-0.6c-0.1-0.4-0.4-1.1-1.1-2.1c-0.4-0.6-1.1-1.3-1.9-2
			c0.8-4.3,1.4-8.8,1.8-13.2c0,0,0,0,0-0.1c0.1-1.6,0.2-3.2,0.3-4.8c0.3,0,0.5,0,0.8-0.1c2.1-0.4,3.3-1.4,3.7-3
			c0.2-0.8,0.1-1.6-0.1-2.4c-1.9-4.2-3.5-7.9-4.9-11c-0.5-4.8-2.3-15.1-2.3-15.2c1.4,0.4,2.7,0.3,4.1-0.2c1.9-0.7,3.2-2,4-3.8
			c0.1-0.2,0.2-0.4,0.2-0.6c0.6-1.7,0.6-3.5-0.1-5.2c-0.7-2-2-3.4-3.8-4.3c-1.8-0.9-3.7-1-5.5-0.4c-1.2,0.4-2.2,1.2-3,2.1
			c-0.1-0.2-2.5-4.8-3.6-6.5c-1.7-2.6-3.6-4.9-5.7-7.1c4.3,1.5,7.9,3.3,10.8,5.5c0.5-0.3,0.7-0.7,0.6-1.2c0-0.2-0.9-1.9-2.7-5
			c-1.7-3-3.1-5.4-4.1-7.1l0-0.3c4.8,0.7,9.7,2.1,14.8,4.3c4.8,2.1,9.3,4.7,13.6,7.7c2,1.5,3.9,3,5.6,4.5c0.9,0.9,1.7,2,2.6,3.3
			c-0.6-1.7-1.3-3.5-2.1-5.1c-1.3-2.5-2.7-4.8-4.3-7.1c-1.5-2.1-3.2-4-5.3-5.6c-1.4-1.1-2.8-2.2-4.4-3.1c-0.6-0.4-1.1-0.7-1.6-1
			c-0.5-0.3-1.1-0.6-1.6-0.9c-0.9-0.5-1.7-0.9-2.6-1.3c-1.8-0.8-3.6-1.6-5.4-2.4c-2-0.8-4.1-1.5-6.1-2.2c-4.4-1.5-8.8-2.4-13.4-3
			c-5.5-0.6-11.1-1.1-16.6-1.4c-1.4-0.1-2.8-0.1-4.3,0.1c-6.3,0.4-12.5,1.3-18.7,2.7c-4.4,1.1-8.7,2.5-12.9,4.3
			c-4.5,1.9-8.7,4.2-12.6,7c-5.1,3.6-9.7,7.8-13.6,12.6c-3.4,4.1-6.3,8.5-8.7,13.2c-2.3,4.6-4.1,9.5-5.2,14.5
			c-2.3,10.3-4.3,20.7-5.8,31.1c-0.5,3-0.9,6-1.3,9c-0.6,4.2-1.3,8.3-2.2,12.3c-1.6,7.2-3.7,14.3-6.3,21.3c-1.4,3.5-2.8,7-4.2,10.5
			c-0.8,1.8-1.5,3.6-2.3,5.3c-0.6,1.3-1.1,2.6-1.7,3.9c-0.6,1.3-1.2,2.7-1.8,4c-1.2,2.7-2.5,5.4-3.7,8.1c-1.2,2.5-2.3,4.9-3.5,7.4
			c-0.5,1-0.9,2.1-1.4,3.1c-7.1,3.9-14.2,7.7-21.4,11.4c-3.7,2-7.2,4.4-10.5,7.1c-1.8,1.6-3.1,3.5-4,5.7c-0.5,1.3-0.7,2.7-0.5,4.2
			c0.1,1.1,0.4,2.3,0.8,3.4c1.4,3.7,3,7.3,4.8,10.8l-0.5-1.1c3.1,5.5,6.4,11,9.7,16.5c0,0.4-0.1,0.7-0.2,1.1
			c-0.4,3.4-0.8,6.8-1,10.1c-0.1,0.1-0.1,0.1-0.2,0.2c0,0.1,0.1,0.1,0.1,0.1c-0.3,4.2-0.5,8.4-0.6,12.6c0,4,0.1,7.9,0.5,11.9
			c0.4,4.1,1,8,1.9,11.6c0.9,3.7,2,6.6,3.5,8.8c1.5,2.2,3.8,4,7,5.5c3.1,1.5,6.3,3.2,9.4,5.1c3.1,1.8,5.8,4,8.3,6.6
			c3.1,3.2,6.1,6.5,9.1,9.8c2.7,3.1,5.5,6.1,8.4,9.1c2.1,2.2,4.1,4.4,6.1,6.7c2.5,2.8,4.4,6,5.9,9.4c0.6,1.4,0.7,2.9,0.2,4.3
			c-1,3.4-2.8,6.9-5.4,10.7c-2.6,3.7-5.4,7.5-8.3,11.3c-1.3,1.7-2.5,3.2-3.5,4.3c0.5,0.2,0.9,0.6,1.3,1c0,0,0,0.1,0.1,0.1
			c0,0,0,0,0,0c0.4,0.4,0.8,0.8,1.2,1.1c-1.6,1.7-2.9,3.3-3.8,4.6c-1.4,2-2.1,3.6-2.3,5c-0.1,0.8,0.1,2.2,0.4,4.3
			c0,0.2,0.1,0.4,0.1,0.5c0.3,0.2,0.6,0.4,0.8,0.6c0.2,0.2,0.4,0.5,0.6,0.7c0.2,0.1,0.4,0.2,0.6,0.4c0.1,0.2,0.1,0.3,0.2,0.5
			c3,2.2,6.4,4,10.4,5.6c4.7,1.8,9.8,3.1,15,3.8c4.6,0.6,8.3,0.6,11.1,0.1c1.4-0.3,2.6-0.7,3.7-1.3c0.1,0,0.1,0,0.2,0.1
			c0.3-0.2,0.7-0.4,1.2-0.5c0.7-1.5,1.1-3.2,1.3-4.9c0.1-1.3,0.2-2.2,0.1-2.8c-0.6-3.3-2.4-5.5-5.2-6.5c-1.8-0.7-4.8-1-8.9-0.8
			c-4.4,0.1-7.4,0-8.9-0.4c-2.1-0.6-3.6-1.7-4.4-3.5c0.6,0,1.1,0.1,1.7,0c0-0.6,0.1-1.2,0.3-1.8c-0.1,0-0.2,0-0.3,0
			c0-0.1,0.1-0.2,0.1-0.3c1.8-4.9,3.8-9.3,6.1-13c1-1.7,3.2-4.8,6.3-9.4c2.5-3.6,4.3-6.4,5.2-8.2c1.4-2.7,1.9-4.8,1.6-6.3
			c-0.5-2.7-5.1-10-13.7-22c-2-2.7-4.1-5.6-6.2-8.4c5.7,1.3,11.9,1.7,18.8,1.4c2.5,1.7,5.1,3.4,7.9,5.3c12.3,8.4,18.6,13.6,19,15.4
			c0.1,0.6-0.3,2-1.1,4.2c-0.9,2.5-2,4.9-3.3,7.3c-1.7,3.1-3.3,5.6-5,7.4c0.5,0.5,0.9,0.9,1.1,1.4c0.1,0,0.1-0.1,0.1-0.1
			c0.2,0.2,0.4,0.4,0.6,0.6c0.4,0.4,0.7,0.7,1.1,1.1c-2.3,1.6-3.9,3.9-5,6.8c-0.3,0.7-0.5,1.5-0.7,2.2c0.3,0.3,0.5,0.6,0.7,0.9
			c0.1,0.1,0.1,0.1,0.2,0.2c1.4,2.6,3,5,4.9,7c7.7,8.2,18.6,11,32.8,8.4c2.9-0.5,5.1-1.2,6.7-1.8c0.6-0.3,1.1-0.6,1.6-0.9
			c0-0.3,0.1-0.5,0.2-0.7c0.1,0,0.2-0.1,0.2-0.1c0.1-0.5,0.2-1,0.2-1.5c0-0.1,0.1-0.3,0.2-0.5c0-0.4,0-0.8,0.2-1.3
			c-0.1-0.2-0.1-0.4-0.2-0.6c0-0.2,0-0.4-0.1-0.4c-0.7-3.5-2.4-5.8-5.3-6.8c-1.9-0.7-4.9-0.8-9.1-0.5c-4.5,0.3-7.5,0.4-9,0
			c-2.8-0.6-4.5-2.4-5.1-5.3c0-0.2-0.1-0.5-0.1-0.8c0.1,0,0.2,0,0.2,0c0,0,0,0,0,0.1c0.7-0.1,1.3,0,1.8,0.1c0-0.1,0.1-0.2,0.1-0.4
			c0.1,0,0.1,0,0.2,0c0-0.3,0-0.5,0-0.8c0.5-2.4,1.8-6.8,3.7-13.2c2.8-9.2,4-14.8,3.6-16.7c-0.4-1.9-2.7-4.9-7-8.8
			c-2.9-2.6-6.7-6.4-11.5-11.2c4-1,7.7-2.2,11.3-3.6c2-0.8,5.3-2.3,9.8-4.4c2.8-1.4,16.8-11.9,18.1-12.8c1.6-1.1,2.4-2.6,2.3-4.5
			c0-0.5-0.1-1-0.3-1.4c4.6-6.9,8.4-14.2,11.4-21.9c2.8-7.1,5-14.4,6.6-21.8c1.4-6.3,2.3-12.7,2.8-19.1 M257.6,62.8
			c-0.1,0-0.2-0.1-0.3-0.2c-0.3,0-0.6-0.1-0.9-0.1c-0.4-0.1-0.9-0.2-1.3-0.3c-7.6-2.1-13.1-2.8-16.5-2.2c-1.3,0.2-1.6,0.7-1.2,1.5
			c0.2,1,0.6,2,1.2,3.1c1.1,1.9,1.8,3.1,1.9,3.4l-0.1,0.3c-0.1,0-0.8-0.2-1.9-0.6c-1.4-0.4-2.8-0.7-4.3-1c-4.7-0.8-9.6-0.7-14.7,0.3
			c-5,0.9-8.2,2.3-9.5,4.2c-0.4,0.6-0.7,1.3-0.7,1.9c0,0.2,0.1,0.5,0.2,1.1c0.2,0.9,0.7,1.9,1.7,3c1.2,1.2,2.1,2.1,2.6,2.8l0.1,0.2
			c0,0-0.1,0-0.1,0c-0.8,0.1-1.9,0.2-3.5,0.2c-2.4,0.4-3.9,1.9-4.3,4.4c-0.1,0.8-0.2,1.7-0.1,2.6c0.1,0.8,0.2,1.2,0.2,1.2
			c0.1,1,0.3,1.6,0.3,1.9c0.1,0.4,0.2,0.7,0.4,1c0.9,0.8,2.1,2,3.5,3.5l0.3,0.2c-0.1,0-0.2,0-0.3,0c-3.8,0.4-6.5,3.1-7.9,7.9
			c-0.5,1.6-0.8,3.5-1,5.6c-0.1,1-0.1,1.8-0.2,2.4c-1.6-0.2-3.5-0.2-5.8-0.3c-0.1-1.5-0.4-3-0.6-4.5c0-0.2-0.1-0.9-0.2-2.2
			c-0.2-1.4-0.5-2.6-0.8-3.7c-1.2-3.3-3.3-4.7-6.3-4.1c-3.4,0.6-5.8,3.9-7.2,9.7c-0.4,1.9-0.7,3.9-0.9,6.1c-0.1,1.6-0.1,2.7,0,3.1
			c0.3,1.8,0.7,3.1,1.1,3.9c0.4,0.7,0.8,1.3,1.3,1.7c-0.2,0.7-0.4,1.4-0.5,1.9c-1.9,6.1-5.6,9.7-11,10.7c-5.1,1-9.5,0.7-13.2-0.7
			c0.4-2.8,0.9-5.6,1.3-8.4c0.7-4.1,1.4-8.1,2.3-12.1c0.8-3.9,1.6-7.8,2.4-11.7c0.8-4.1,2.1-8.1,3.7-12c2.3-5.6,5.3-10.8,9-15.5
			c6.1-7.9,13.5-14.2,22.4-18.9c4.8-2.5,9.8-4.5,15.1-5.9c4.5-1.3,9.2-2.2,13.8-2.7c2-0.2,4-0.3,6-0.4c2-0.1,4-0.2,5.9-0.2
			c3.9,0,7.8,0.3,11.6,0.8c3.4,0.5,6.8,1.1,10.1,1.9c3.8,0.8,7.5,1.9,11.1,3.1c2.8,1,5.5,2.2,8.2,3.6c2.9,1.6,5.6,3.5,8.2,5.5
			c1.9,1.6,3.6,3.3,5.2,5.2c1,1.1,1.8,2.3,2.5,3.5c0,0.1,0.1,0.1,0.1,0.1c0,0-0.1-0.1-0.1-0.1c-1-0.9-2-1.7-3.1-2.5
			c-2.9-2.2-6.7-4.4-11.6-6.8c-4.9-2.3-10.7-3.9-17.3-4.9l-1.1,0.4c-0.1,0-0.1,0.2,0,0.8c0.1,0.7,1,2.6,2.6,5.5
			c1.6,2.9,2.5,4.4,2.6,4.7l0,0.2c0,0-0.1,0-0.1,0C264.9,65,261.5,63.9,257.6,62.8z M276.4,76.7c-2.1,1.5-3.4,2.4-3.8,2.6
			c-0.5,0.3-1.2,0.7-2.1,1.2c-0.5,0.3-1.1,0.6-1.7,1c0,0-0.1,0-0.1,0c0,0,0-0.1,0-0.1c0.1-0.4,0.3-0.9,0.4-1.3
			c0.2-0.4,0.4-0.8,0.6-1.1c0.7-1,1.7-1.7,2.9-2.1C274.1,76.5,275.3,76.5,276.4,76.7z M272.8,89.3c-0.1,0-0.1,0-0.2-0.1
			c-0.4-0.2-0.9-0.5-1.3-0.8c-1-0.8-1.7-1.8-2.1-3.1c-0.3-0.9-0.5-1.8-0.4-2.7c0.1-0.1,0.3-0.2,0.5-0.3c0.5-0.3,1.1-0.7,1.7-1.1
			c0.3-0.2,0.6-0.4,1-0.6c2.1-1.4,3.8-2.6,5.3-3.6c0.2,0.1,0.4,0.2,0.6,0.3c1.6,0.7,2.7,2,3.3,3.8c0.7,1.8,0.6,3.5-0.1,5.2
			c-0.1,0.1-0.1,0.1-0.1,0.2c-0.7,1.6-1.8,2.6-3.4,3.2c-1.3,0.5-2.7,0.5-4,0C273.2,89.5,273,89.4,272.8,89.3z M264.6,149.6
			c0.1-0.2,0.2-0.4,0.2-0.7c0.3-0.9,0.7-1.9,0.9-2.8c0.7,0.3,1.3,0.6,1.9,0.8c0.9,0.4,1.7,0.7,2.5,0.9c-0.2,1-0.4,1.9-0.6,2.5
			c-0.1,0.4-0.3,0.8-0.4,1.2c-1.1-0.5-2.2-1-3.5-1.5C265.3,149.9,265,149.8,264.6,149.6z M255.2,146.5c0.1-0.4,0.3-0.9,0.4-1.4
			c0.3-1.1,0.6-2.3,0.8-3.5c0.9,0.4,1.8,0.8,2.7,1.2c1.9,1,3.6,1.9,5,2.5c-0.2,0.8-0.3,1.4-0.4,1.7c-0.2,0.8-0.4,1.4-0.6,2.1
			C261.1,148.4,258.5,147.5,255.2,146.5z M243.7,143c0.6-1.6,1-3.1,1.5-4.4c1.2,0.1,2.6,0.3,3.8,0.6c1.9,0.4,4,1,6.1,1.9
			c-0.2,1.4-0.5,2.7-0.8,3.8c-0.1,0.4-0.2,0.8-0.3,1.2c-1.4-0.4-2.9-0.9-4.6-1.4C247.4,144.1,245.5,143.6,243.7,143z M231.5,140.1
			L231.5,140.1c1.5-0.4,3.1-0.8,4.7-1.1c2.5-0.5,5.1-0.7,7.6-0.5c-0.4,1.3-0.8,2.7-1.3,4.3C238.6,141.7,234.9,140.8,231.5,140.1
			C231.5,140.1,231.5,140.1,231.5,140.1z M211.2,169.8c-0.1-1.1-0.1-2.2,0-3.4c1.6-0.5,3.3-0.9,5.2-1.3c8.7-1.6,16.5-1.5,23.6,0.3
			c3.5,0.9,7.3,2.5,11.3,4.7c0.5-0.3,0.7-0.7,0.6-1.2c-0.1-0.8-1.4-1.6-3.9-2.5c-2.3-0.9-5.3-1.6-8.8-2.3c-8.4-1.6-15.3-1.9-20.6-1
			c0-0.1-0.8,0-2.3,0.3c-1.7,0.3-3.3,0.7-4.8,1.2c0-0.3,0.1-0.6,0.1-0.9c0.7-0.2,1.4-0.4,2.1-0.6c4.1-1,8.2-1.6,12.5-1.6
			c4.1-0.1,8.3,0.1,12.4,0.5c4.1,0.4,8.2,1.1,12.2,2.1c4.1,1,8,2.4,11.7,4.3c1.7,0.9,3.2,2.1,4.6,3.4c0.8,0.8,1.4,1.7,1.8,2.8
			c0.3,1,0.5,2,0.5,3c-0.1,2.2-1.1,3.6-3.2,4.4c-1.6,0.5-3.2,0.7-4.8,0.4c-1.7-0.2-3.3-0.6-4.9-1.1c-1.9-0.5-3.7-1.2-5.4-1.9
			c-7.2-2.9-14.5-5.5-21.8-7.9c-4-1.3-8.1-2.1-12.3-2.2C214.8,169.2,213,169.4,211.2,169.8z M242,195.2c0.2,0.6,0.4,1.1,0.6,1.7
			c-2.1-0.3-4.2-0.8-6.2-1.4C238.2,195.5,240.1,195.4,242,195.2z M249.8,197.6c-1.8-0.1-3.8-0.3-5.7-0.5c-0.2-0.7-0.4-1.4-0.6-2.1
			c1.8-0.2,3.7-0.4,5.6-0.7C249.4,195.5,249.6,196.7,249.8,197.6z M257.1,193c0.4,2.2,0.6,3.6,0.7,4.2c0,0.2,0,0.5,0,0.7
			c-1,0-1.7,0-2.1,0c-1.4,0-2.8-0.1-4.2-0.2c-0.1-0.6-0.2-1-0.2-1.1c-0.1-0.9-0.3-1.8-0.5-2.6c1.3-0.2,2.6-0.4,3.9-0.7
			C255.5,193.3,256.3,193.1,257.1,193z M263.5,193.6c0.3,1.6,0.3,3,0,4.1c-0.1,0-0.1,0-0.2,0c-1.5,0-2.8,0.1-3.8,0.1
			c-0.4-2.4-0.6-4.2-0.8-5.2c1.6-0.3,3.1-0.7,4.4-1C263.1,192.2,263.3,192.9,263.5,193.6z M262.5,202.8c-3.1,0.6-4.9,0.8-5.4,0.7
			c-0.5,0.2-1.2,0.4-2.1,0.6c-0.1,0-0.2,0-0.3,0c0.3,0.2,0.9,0.4,1.7,0.6c1.6,0.3,3.7,0.2,6.3-0.2c0.1,0,0.2,0,0.2,0
			c0,0,0,0.1,0,0.1c0,0.1,0,0.1,0,0.2c-0.1,1.2-0.3,3.6-0.5,6.9c-2.2,0.7-4.6,1.1-7.1,1.2c-4.6,0.2-9.3-0.2-13.8-1.2
			c-10.6-2.2-21.1-4.9-31.5-8c-2.4-0.7-4.9-1.6-7.3-2.4c-0.1-0.1-0.2-0.2-0.4-0.3c-0.4-0.1-0.7-0.2-1.1-0.2
			c-5.5-2.1-10.8-4.6-16-7.5c-6.7-3.7-12.9-7.9-18.9-12.6c-5.9-4.6-11.2-9.8-16.1-15.4c0.6-1.7,1.1-3.5,1.6-5.3
			c1-3.4,1.8-6.7,2.4-10.2c0.1-0.3,0.2-0.7,0.2-1.1c0.7-4,1.4-8.1,1.9-12.1c0.1-0.7,0.2-1.5,0.3-2.2c4,1.6,8.5,1.8,13.8,0.9
			c5-0.9,8.5-3.7,10.6-8.4c0.6-1.3,1.2-3,1.9-5.2c0.7,0.3,1.5,0.3,2.4,0.1c1.2-0.2,2.4-0.9,3.6-2.1c0.9-1.2,1.4-1.8,1.5-1.9
			l-0.3-1.4l-0.2-0.1c-0.1-0.1-0.3-0.1-0.7,0c-0.2,0-0.6,0.6-1.3,1.8c-0.9,1.2-1.9,1.9-2.9,2.1c-1.4,0.3-2.6-0.5-3.4-2.4
			c-0.4-1-0.8-1.9-0.9-3c1.1-10.4,3.1-15.9,5.8-16.4c2.8-0.5,4.7,0.7,5.8,3.7c0.3,0.9,0.6,2,0.8,3.2c0.1,1,0.1,1.5,0.1,1.5
			c0.1,1.9,0.2,3.8,0.3,5.7c0,0,0.1,0,0.1-0.1l0,0c3.9,0.3,7,0.4,9.4,0.6c0.1-0.6,0.2-1.1,0.2-1.6c-0.1,0-0.1,0-0.2,0
			c0.4-3.6,0.9-6.2,1.3-8c0.5-2.1,1.6-3.9,3.3-5.3c1.7-1.5,4-1.9,7-1.4c0.1-0.1,0.2-0.1,0.2-0.2c0.1-0.1,0-0.3,0-0.6
			c0-0.2-0.4-0.5-1.1-1c-1.3-0.8-2-1.3-2.3-1.5c-2.2-1.6-3.5-3.3-3.8-5.1c-0.2-1-0.2-2,0-2.9c0.3-1.8,1.4-3,3.2-3.3
			c0.6-0.1,2.4-0.1,5.5,0.1c0.4-0.6,0.6-1,0.6-1.1c0-0.1-1-1.2-2.9-3.3c-1.9-2.1-2.9-3.5-3-4c-0.2-0.9,0.1-1.7,0.9-2.3
			c1.3-1,3.9-2,7.9-2.7c5.7-1.1,11.2-1.1,16.2,0c1.6,0.3,3.1,0.8,4.5,1.3c1.2,0.5,1.8,0.7,1.9,0.8c0.4-0.2,0.6-0.4,0.6-0.7
			c-0.2-0.4-0.8-1.5-1.7-3.5c-1.3-2.6-2-4.2-2.2-4.8l-0.1-0.2c6.8-0.1,12.8,0.6,18,2.1c3.2,3.1,5.9,6.7,8.2,10.6
			c0.8,1.4,3,5.8,3.1,6c-0.7,1.7-0.6,3.5,0,5.3c0.6,1.8,1.7,3.1,3.2,4c0,0.2,0.3,1.4,0.4,1.6c0.3,1.2,0.5,2.4,0.7,3.7
			c0.3,1.9,0.6,3.8,0.8,5.6c-2.7-5.9-4.1-8.8-4.4-8.7c-0.3,0.1-0.5,0.2-0.6,0.4c0,0.2,0,0.5,0.1,0.9c0,0,1.7,3.8,5.2,11.4
			c3.5,7.6,5.3,11.7,5.4,12.5c0.4,1.9-0.4,3-2.2,3.4c-1.6,0.3-3.5-0.6-5.9-2.7c-0.4-0.4-1.3-1.2-2.6-2.5c-1-0.9-1.6-1.5-2.1-1.8
			c-0.1,0.1-0.3,0.2-0.5,0.3c-0.1,0.1-0.2,0.4-0.1,0.7c0.1,0.3,0.5,0.9,1.3,1.8c0.9,1,1.9,1.9,3,2.8c1.8,1.4,3.3,2.3,4.7,2.8
			c0,1.8-0.1,3.7-0.2,5.5c-0.2,4.1-0.6,8.1-1.2,12.1c-0.2-0.2-0.5-0.4-0.7-0.5c-1.8-1.3-3.8-2.4-6.1-3.1l-1.1,0.4
			c-0.1-0.1-0.1,0.1,0,0.6c1.6,0.6,3.3,1.4,5,2.3c3.4,1.9,5.2,3.8,5.6,5.6c0.1,0.3-0.1,0.7-0.4,1.2c-0.3,0.4-0.5,0.6-0.6,0.6
			c-1.8,0.3-4.1-0.1-6.9-1.3c-1.7-0.7-4.5-2.1-8.4-4.1c-3.8-1.8-7.3-3.1-10.5-3.7c-4.3-0.9-8.7-0.9-13.2-0.1
			c-12.5,2.3-20.6,8.6-24.4,18.8c-1.2,3.3-1.9,7-2,10.9c-0.1,2.4,0.1,4.5,0.4,6.1c0.7,3.9,2.1,7.4,4.2,10.3c2.5,3.6,6.2,6.6,11,9.1
			c3.7,2,8.9,3.9,15.4,5.7c2.2,0.6,4.9,0.9,8.2,1c1.5,0,4.3,0,8.4-0.1c3.2-0.1,5.5-0.1,6.8,0.1c1.9,0.3,2.9,0.9,3.1,1.8
			c0.1,0.4-0.1,0.7-0.5,0.9C265.9,202.1,264.6,202.4,262.5,202.8z M221.6,208.7c8.1,2.1,16.3,3.8,24.5,5.1c1.7,0.3,3.5,0.4,5.1,0.5
			c-6.1,5.8-9.2,8.7-9.2,8.7c-1.7,0.3-6.4-1.7-14.3-6c-6-3.3-11.3-6.4-16-9.4c-1.6-1-3.3-2.2-5-3.4
			C211.6,206,216.6,207.5,221.6,208.7z M266.4,210c-0.7,0.4-1.5,0.7-2.2,1c0.1-0.8,0.2-1.6,0.3-2.4c0-0.1,0-0.2,0-0.4
			C265.4,208.5,266.1,209.1,266.4,210z M264.7,216.4c-0.8,1.4-1.7,3.1-2.9,5c-1.4-2.2-3.1-4.6-5-7.3c2.4-0.3,4.8-0.7,7.2-1.4
			c0.9-0.3,1.7-0.6,2.5-0.9C266.3,213,265.7,214.5,264.7,216.4z M245.8,320.4c-0.9,0.3-1.9,0.6-2.8,1c-2.1,0.6-4.1,1.2-6.2,1.6
			c4.9-7.2,9-14.9,12.2-23.1c2.8-7.1,5-14.4,6.6-21.8c2.2-10.1,3.3-20.3,3.3-30.7c0-8.4-0.6-16.7-1.8-25c-0.3-2.2-0.7-4.3-1.3-6.5
			c4,5.2,6.1,7.6,6.4,7.3c0.4-0.5,1.3-2,2.8-4.6c0.2-0.4,0.5-0.9,0.7-1.3c0.5,2.3,0.9,4.7,1.3,7.3c1.4,9,1.8,17.9,1.4,26.8
			c-0.1,0.9-0.1,1.9-0.2,2.9c0,0,0-0.1-0.1-0.1c0,0.1,0.1,0.2,0.1,0.2c-0.5,7.8-1.7,15.5-3.6,23c-2.1,8.6-5.1,17.4-9.2,26.6
			C252.4,310.7,249.2,316.2,245.8,320.4z M199,400.6c1.3,2.5,2.9,4.7,4.8,6.7c7.7,8.2,18.6,11,32.8,8.4c2.4-0.4,4.4-0.9,5.8-1.5
			c-1.7,1.3-4.1,2.3-7.1,2.9c-13.5,2.5-24-0.2-31.4-8.2c-2-2.2-3.7-4.7-5.1-7.4C198.8,401.1,198.9,400.9,199,400.6z M203.9,394.3
			c2.9,2.1,6.4,3.2,10.4,3.2c0,0.4,0.1,0.8,0.1,1.1c0.1,0.3,0.1,0.7,0.2,1c-0.1,0-0.2,0-0.4,0c-2.9,0.5-4.6,1.3-5.1,2.2
			c0.2,0.3,0.4,0.5,0.5,0.6c0.2,0.2,0.5,0.2,1.1,0.1c1.8-0.3,3.1-0.7,3.9-1c0.2-0.1,0.4-0.2,0.6-0.3c0.4,0.8,0.8,1.5,1.4,2.1
			c-0.3,0.2-0.8,0.5-1.4,0.9c-1.3,0.8-2.1,1.5-2.3,1.9c0.2,0.3,0.4,0.5,0.5,0.6c0.2,0.2,0.5,0.2,1.1,0.1c0.6-0.1,1.5-0.6,2.6-1.5
			c0.4-0.3,0.7-0.6,0.9-0.9c0.5,0.3,1.1,0.5,1.7,0.7c0.2,0.1,0.3,0.1,0.5,0.1c-0.2,0.1-0.3,0.3-0.5,0.4c-1.3,1.1-2.2,2-2.8,2.9
			c0.5,0.6,0.9,0.8,1.1,0.8c0.6-0.1,1.7-0.8,3.3-2.2c0.7-0.6,1.2-1.1,1.7-1.5c1.6,0.1,3.5,0,5.8-0.2c4.4-0.4,7.4-0.4,9,0
			c2.8,0.7,4.6,2.5,5.1,5.5c0,0.2,0.1,0.3,0.1,0.5c-1.7,1.2-3.9,2-6.7,2.5c-13.5,2.5-24-0.2-31.4-8.2c-1.9-2.1-3.6-4.5-4.9-7.1
			C200.9,396.9,202.2,395.4,203.9,394.3z M185.5,350.4c3.7-0.3,7.6-0.8,11.6-1.6c2.5-0.5,4.9-1,7.3-1.6c0.7,0.6,1.3,1.2,1.8,1.6
			c11.5,10.5,17.6,16.9,18,19.2c0.1,0.4-0.3,1.9-1,4.5c-0.8,2.6-2.2,7.4-4.3,14.5c-1.1,3.8-2,6.7-2.4,8.6
			c-6.6,0.3-11.4-1.5-14.5-5.5c1.4-1.7,2.7-3.8,4.1-6.2c1.5-2.6,2.6-5.2,3.4-7.8c0.8-2.6,1.2-4.4,1-5.5c-0.2-1.1-1.5-2.6-4-4.5
			c-2.4-1.9-5.4-4.3-8.8-7c-3.5-2.7-6-4.6-7.6-5.7C189.2,352.8,187.7,351.7,185.5,350.4z M145.8,425.4c3.2,2.5,7,4.6,11.4,6.3
			c4.7,1.8,9.8,3.1,15,3.8c4.6,0.6,8.3,0.6,11.1,0.1c1.7-0.3,3.1-0.8,4.2-1.6c-0.2,0.6-0.4,1.3-0.7,1.9c-1,0.8-2.2,1.3-3.7,1.5
			c-6.2,1.2-13.2,0.5-21.1-2.1c-2.9-0.9-5.7-2.1-8.3-3.4c-2.2-1.1-3.8-2.1-4.9-3c-1.1-0.9-2.2-1.8-3.1-2.6
			C145.9,426,145.8,425.7,145.8,425.4z M151.4,414.2c2.8,2.2,5.7,3.5,9,4.1c0.2,0.6,0.4,1.2,0.8,1.7c-0.8,0.3-1.5,0.7-2.2,1.3
			c-1,0.8-1.5,1.5-1.5,2.1c0,0.1,0.1,0.3,0.2,0.5c0.1,0.2,0.4,0.2,0.7,0.2c0.6-0.1,1.5-0.6,2.7-1.5c0.5-0.4,1-0.8,1.3-1.1
			c0.4,0.4,0.9,0.8,1.5,1.1c-0.2,0.3-0.5,0.7-0.8,1.2c-1,1.5-1.5,2.5-1.4,3.2c0,0.3,0.3,0.3,0.9,0.2c0.7-0.1,1.4-0.9,2.2-2.4
			l0.6-1.5c0.7,0.2,1.4,0.4,2.3,0.5c-0.2,0.3-0.5,0.8-0.7,1.3c-0.7,1.4-1.1,2.4-1.2,3c0,0.2,0.1,0.3,0.2,0.4
			c0.1,0.1,0.4,0.2,0.7,0.1c0.7-0.1,1.4-0.9,2.1-2.3c0.4-0.9,0.7-1.7,0.8-2.3c1.3,0.1,2.9,0.1,4.6,0.1c4.4,0,7.3,0.2,8.9,0.6
			c2.8,0.8,4.5,2.5,5,5.3c0,0.2,0,0.5,0,0.9c-1,1.5-2.7,2.4-4.9,2.9c-6.2,1.2-13.2,0.5-21.1-2.1c-2.9-0.9-5.7-2.1-8.3-3.4
			c-2.2-1.1-3.8-2.1-4.9-3c-1.2-1-2.2-1.8-3.1-2.7c0.2-1.5,0.8-3,1.8-4.4C148.5,417.1,149.7,415.8,151.4,414.2z M107.1,276.9
			c0.1-0.4,0.1-0.7,0.2-1.1c1.3,1.4,2.7,2.7,4,4.1c1.1,1.7,2.2,3.5,3.3,5.2c1,1.6,2,3.2,2.9,4.8c1.1,1.8,2.1,3.7,3.1,5.5
			c10.5,16.2,3.8,10.9,6.6,18.2c0.2,0.6,0.4,1.1,0.7,1.6c-2.9,0.8-4.7,2.1-5.6,4c-0.4,1-0.5,2.2-0.3,3.5c0.4,2.3,1.4,4.1,2.9,5.5
			c2.5,2.2,6.1,2.9,10.9,2c5.2-1,16.2-4.8,11.1-17.5c-0.3-1.3-0.7-2.4-1.1-3.2c-0.6-1.3-1.7-2.7-3.3-4.1c-0.9-0.8-2.3-1.9-4.3-3.2
			c-0.1-0.1-0.1-0.1-0.2-0.1c0.1,0,0.2,0,0.3-0.1c-0.2-0.2-0.3-0.4-0.4-0.6c0.2,0,0.4,0,0.5,0c-0.1-0.2-0.2-0.3-0.3-0.5
			c0.1,0.1,0.3,0.2,0.4,0.3c0.7,0.4,1.4,0.8,2.1,1.2c7.4,4.3,15,8,22.9,11.1c7.9,3.1,15.9,5.8,24.1,8.1c8.1,2.3,16.4,3.9,24.7,4.7
			c8.4,0.8,16.8,0.3,25-1.5c3.3-0.7,6.5-1.7,9.5-2.9c0,0,0.1,0,0.1,0c0,0-0.1,0.1,0,0.1c-0.3,0.6-1.1,1.4-2.5,2.3
			c-1.4,1-40.3,21.2-47.7,22.5c-12.6,2.3-24.4,2.1-35.6-0.6c-0.2-0.3-0.4-0.5-0.6-0.8c-2.6-3.5-4-5.2-4-5.2
			c-0.4,0.1-0.6,0.2-0.6,0.4c0,0.1,0,0.4,0.1,0.9c0.1,0.4,1.4,2.4,4,6c1.5,2.1,4.4,6.1,8.5,11.7c8.3,11.5,12.7,18.4,13.1,20.7
			c0.4,2-0.8,4.9-3.5,8.7c-0.7,1-1.8,2.5-3.3,4.4c-1.3,1.7-2.2,2.8-2.6,3.4c-3.4,5.2-6.5,10.8-9.3,16.7c-0.6,1.2-1.1,2.3-1.6,3.4
			c-4.3-0.4-8.1-2.4-11.4-6c2.3-2.7,4.5-5.5,6.6-8.6c2.4-3.4,4.5-6.7,6.5-10c2-3.2,3.1-6.2,3.2-8.8c0.1-0.7-0.2-2.2-0.9-4.6
			c-0.6-2.4-2.3-5-5-7.9c-2.7-2.9-5.4-5.8-8.1-8.8c-2.7-3-5.4-6-8.2-9c-0.8-0.9-1.6-1.8-2.2-2.7c-2.2-2.9-4.7-5.6-7.5-8
			c-3-2.7-6.3-4.8-9.9-6.5c-3.6-1.7-7.1-3.6-10.4-5.8c-0.6-0.5-1.2-1-1.7-1.7c-1.9-2.5-3.2-5.2-4-8.3c-0.9-3.8-1.6-7.6-2.1-11.4
			c-0.5-3.7-0.6-7.5-0.5-11.2C105.8,297,106.9,278.4,107.1,276.9z M125.2,300.5c0.5-0.8,1-1.4,1.4-1.9c1.3-1.5,3.1-2.4,5.1-2.8
			c0.3-0.1,0.6-0.1,0.9-0.1c1,1.6,2.1,3.3,3.2,5c0,0,0,0.1,0,0.1c0,0,0,0-0.1,0c0,0-0.1,0.1-0.1,0.2c-3.1,0.6-5.8,2-8,4
			c-0.2-0.4-0.4-0.7-0.6-1.1C126.5,302.7,125.9,301.6,125.2,300.5z M138.7,304.9c4.1,2.8,6.5,6.2,7.3,10.5c0.5,2.7,0.5,4.9-0.1,6.5
			c-1.2,3.5-4.6,5.7-10.2,6.8c-4.3,0.8-7.6,0.2-9.7-1.9c-1.2-1.1-2-2.5-2.3-4.2c-0.5-2.9,1.2-4.7,5.2-5.7c0.3,0.4,0.6,0.7,0.9,1.1
			c1,1.1,1.5,1.7,1.5,1.7c0.5,0.6,0.8,1.2,0.9,1.7c0.1,0.6-0.1,1.3-0.6,2c-0.5,0.7-0.8,1.1-0.7,1.3c0.1,0.3,0.1,0.4,0.1,0.4
			c0.1,0,0.1,0,0.1,0c0,0.1,0.1,0.1,0.2,0.2c0.1,0.1,0.3,0,0.6,0c1-0.2,1.7-0.9,1.9-2.1c0-1.2,0-1.8,0-1.8c-0.2-1.1-1.1-2.6-2.6-4.3
			c-1.5-1.8-2.4-3.4-2.7-4.7c-0.2-1-0.2-1.8,0-2.5c0.1-0.3,0.3-0.8,0.7-1.6c0.5-0.8,0.7-1.9,0.7-3.2c1.5-1,3.3-1.9,5.4-2.3
			C136.7,303.6,137.8,304.3,138.7,304.9z M94.7,248.7c-1.2-2.5-1.8-5.1-1.9-7.9c0-0.8,0.1-1.6,0.5-2.4c1.3-3,3.3-5.4,6.1-7.1
			c5.1-3.2,10.5-6.2,15.9-9c3.5-1.8,6.9-3.7,10.2-5.6c4.7-2.6,9.4-5.1,14.2-7.5c2.8-1.4,5.5-2.8,8.3-4.1c0.8-0.4,1.5-0.7,2.3-1.1
			c0.8-0.3,1.6-0.6,2.5-0.9c1.2-0.4,2.5-0.8,3.7-1.1c2.7-0.7,5.4-1,8.2-0.9c2.1,0,3.9,0.8,5.4,2.3l0.6-0.4c-0.2-1.4-1.2-2.4-2.8-2.9
			c-3.5-1-7-1-10.5-0.1c-6.7,1.9-13,4.5-19.1,7.9c-2.7,1.5-5.4,3-8.1,4.5c0.4-0.8,0.7-1.5,1.1-2.2c1.4-2.9,2.7-5.8,4.1-8.7
			c1.4-3.2,2.8-6.4,4.3-9.5c1.7-3.7,3.3-7.5,4.9-11.2c1.4-3.1,2.7-6.3,3.9-9.4c0.6-1.4,1.1-2.8,1.6-4.2c1.9,2.3,4,4.5,6.2,6.6
			c6.1,5.9,12.6,11.2,19.7,15.7c7,4.5,14.4,8.4,22,11.6c1.2,0.5,2.4,1,3.5,1.4c2.8,2.1,5.3,3.8,7.4,5.3c4,2.8,10.2,6.4,18.8,10.8
			c8.9,4.6,13.8,6.6,14.9,6c1.1-0.6,3.1-2.2,6-5c2.5-2.3,4.4-4,5.5-4.9c0.8,3.5,1.6,7.5,2.3,12.1c1.4,9,1.8,17.9,1.4,26.8
			c-0.4,8.9-1.7,17.6-3.7,26.1c-2.1,8.6-5.1,17.4-9.2,26.6c-3.2,7.3-6.7,13.2-10.5,17.5c-5.6,1-11.3,1.4-17.1,1.2
			c-1.2,0-2.4-0.1-3.6-0.2c0.9-1.1,1.8-2.4,2.7-3.9c1-1.7,1.7-3.4,2.4-5.1c0.5-1.5,0.8-2.5,0.7-2.9c-0.1-0.4-0.2-0.5-0.5-0.5
			c-0.2,0-0.5,0.8-0.9,2.2c-0.6,2-1.1,3.6-1.7,4.9c-0.9,2.1-2.2,3.8-3.6,5.2c-4.9-0.4-9.9-1.2-14.7-2.2c-7.5-1.6-14.8-3.7-22-6.1
			c-3.4-1.1-6.7-2.3-9.9-3.6c0.9-1.3,1.9-3.1,2.8-5.3c0.7-1.6,1.3-3.3,2-5.3c0.5-1.7,0.8-2.6,0.8-2.8l-0.1-0.7c-0.1,0-0.2,0-0.4,0
			c-0.1,0-0.4,0.8-0.9,2.4c-0.8,2.2-1.5,4-2,5.3c-1.1,2.5-2.1,4.5-3.1,5.9c-4.6-1.8-9.1-3.8-13.5-5.9c-1.7-0.8-3.5-1.7-5.2-2.6
			c0.4-0.7,0.9-1.4,1.3-2.3c1.5-2.7,2.1-4.3,2-4.9c0-0.2-0.1-0.3-0.2-0.3c0,0-0.2,0-0.4,0c0,0-0.7,1.3-2.1,3.9
			c-0.7,1.2-1.2,2.1-1.8,3c-3-1.6-6-3.4-8.9-5.3c-1.3-2-2.5-4-3.5-6c-2.6-4.6-6.5-12.1-11.7-22.5c-3.9-7.8-6.7-13.6-8.4-17.6
			c1.2-4,2.6-8,4.2-11.9c0.8-2.1,1.8-4.1,2.7-6.1c1.9-1,4-2.1,6.3-3.2c7.3-3.5,14.1-5.8,20.3-7c5.4-1,9.2-1.2,11.3-0.6
			c0.7,0.2,1.2,0.5,1.6,0.8c0.4,0.4,0.7,0.6,0.8,0.6c0.3-0.2,0.4-0.3,0.5-0.4c0.1-0.2,0.1-0.4,0.1-0.8c-0.2-0.9-1.3-1.5-3.2-1.9
			c-2.1-0.4-4.5-0.5-7.4-0.1c0-0.1-1.3,0.1-3.8,0.5c-6.3,1.2-13,3.4-19.8,6.7c-1.7,0.8-3.6,1.8-5.6,2.9c0.1-0.2,0.2-0.4,0.3-0.6
			c-0.7,0.4-1.4,0.8-2.1,1.1c-0.1,0.2-0.2,0.5-0.3,0.7c-1.5,0.9-3,1.8-4.7,2.8c-3.2,1.9-4.9,3.9-5.4,6c-0.2,0.8-0.2,1.7,0,2.8
			c0.1,0.6,0.3,1.4,0.5,2.6c0.5,2.9,3.7,10.2,9.4,21.9c4.6,9.4,8.7,17.3,12.4,24c0.3,0.6,0.7,1.2,1,1.8c-2.9,0.8-5.3,2.4-7.3,4.8
			c-2.6-4.6-5.1-9.2-7.8-13.7c-0.8-1.5-1.6-2.9-2.5-4.3c-0.4-0.7-0.8-1.3-1.2-2c-0.1-0.1-0.1-0.3-0.2-0.4c-0.1-0.1-0.2-0.2-0.2-0.3
			c-0.3-0.4-0.5-0.8-0.8-1.2c-0.4-0.6-0.8-1.3-1.2-1.9c-1.5-2.3-3-4.7-4.5-7.1c-1.6-2.6-3.2-5.3-4.9-7.9
			C98.7,256.5,96.6,252.6,94.7,248.7z M109.9,243.8c-0.2-0.9-0.1-1.7,0-2.3c0.4-1.7,2.2-3.5,5.4-5.4c0.6-0.4,1.3-0.8,2-1.2
			c-0.4,0.8-0.8,1.7-1.1,2.5c-1.4,3.2-2.7,6.5-3.9,9.8c-0.3,0.8-0.5,1.5-0.8,2.3c-0.6-1.4-0.9-2.5-1-3.1
			C110.2,245.2,110,244.4,109.9,243.8z"/>
		<path d="M257.3,62.6c-0.3,0-0.6-0.1-0.9-0.1c-0.4-0.1-0.9-0.2-1.3-0.3c-7.6-2.1-13.1-2.8-16.5-2.2c-1.3,0.2-1.6,0.7-1.2,1.5
			c0.2,1,0.6,2,1.2,3.1c1.1,1.9,1.8,3.1,1.9,3.4l-0.1,0.3c-0.1,0-0.8-0.2-1.9-0.6c-1.4-0.4-2.8-0.7-4.3-1c-4.7-0.8-9.6-0.7-14.7,0.3
			c-5,0.9-8.2,2.3-9.5,4.2c-0.4,0.6-0.7,1.3-0.7,1.9c0,0.2,0.1,0.5,0.2,1.1c0.2,0.9,0.7,1.9,1.7,3c1.2,1.2,2.1,2.1,2.6,2.8l0,0.2
			c-0.8,0.1-1.9,0.2-3.5,0.2c-2.4,0.4-3.9,1.9-4.3,4.4c-0.1,0.8-0.2,1.7-0.1,2.6c0.1,0.8,0.2,1.2,0.2,1.2c0.1,1,0.3,1.6,0.3,1.9
			c0.1,0.4,0.2,0.7,0.4,1c0.9,0.8,2.1,2,3.5,3.5l0,0.2c-3.8,0.4-6.5,3.1-7.9,7.9c-0.5,1.6-0.8,3.5-1,5.6c-0.1,1-0.1,1.8-0.2,2.4
			c-1.6-0.2-3.5-0.2-5.8-0.3c-0.1-1.5-0.4-3-0.6-4.5c0-0.2-0.1-0.9-0.2-2.2c-0.2-1.4-0.5-2.6-0.8-3.7c-1.2-3.3-3.3-4.7-6.3-4.1
			c-3.4,0.6-5.8,3.9-7.2,9.7c-0.4,1.9-0.7,3.9-0.9,6.1c-0.1,1.6-0.1,2.7,0,3.1c0.3,1.8,0.7,3.1,1.1,3.9c0.4,0.7,0.8,1.3,1.3,1.7
			c-0.2,0.7-0.4,1.4-0.5,1.9c-1.9,6.1-5.6,9.7-11,10.7c-5.1,1-9.5,0.7-13.2-0.7c0.4-2.8,0.9-5.6,1.3-8.4c0.7-4.1,1.4-8.1,2.3-12.1
			c0.8-3.9,1.6-7.8,2.4-11.7c0.8-4.1,2.1-8.1,3.7-12c2.3-5.6,5.3-10.8,9-15.5c6.1-7.9,13.5-14.2,22.4-18.9c4.8-2.5,9.8-4.5,15.1-5.9
			c4.5-1.3,9.2-2.2,13.8-2.7c2-0.2,4-0.3,6-0.4c2-0.1,4-0.2,5.9-0.2c3.9,0,7.8,0.3,11.6,0.8c3.4,0.5,6.8,1.1,10.1,1.9
			c3.8,0.8,7.5,1.9,11.1,3.1c2.8,1,5.5,2.2,8.2,3.6c2.9,1.6,5.6,3.5,8.2,5.5c1.9,1.6,3.6,3.3,5.2,5.2c1,1.1,1.8,2.3,2.5,3.5l0,0
			c-1-0.9-2-1.7-3.1-2.5c-2.9-2.2-6.7-4.4-11.6-6.8c-4.9-2.3-10.7-3.9-17.3-4.9l-1.1,0.4c-0.1,0-0.1,0.2,0,0.8
			c0.1,0.7,1,2.6,2.6,5.5c1.6,2.9,2.5,4.4,2.6,4.7l-0.1,0.2c-2.8-1.1-6.2-2.2-10.1-3.4C257.5,62.7,257.4,62.7,257.3,62.6z"/>
		<path fill="#FCD4A4" d="M295.9,68.8c0,0-0.1-0.1-0.1-0.1l0,0C295.8,68.7,295.9,68.8,295.9,68.8z"/>
		<path fill="#FCD4A4" d="M214.1,80.2C214.1,80.2,214.1,80.2,214.1,80.2L214,80L214.1,80.2z"/>
		<path fill="#FCD4A4" d="M210.8,95.2c-0.1,0-0.2,0-0.3,0l0-0.2L210.8,95.2z"/>
		<path fill="#FCD4A4" d="M267.8,66.2c0,0-0.1,0-0.1,0l0.1-0.2L267.8,66.2z"/>
		<path fill="#FCD4A4" d="M262.5,202.8c2.1-0.4,3.4-0.7,3.9-0.9c0.4-0.2,0.6-0.5,0.5-0.9c-0.2-0.9-1.2-1.5-3.1-1.8
			c-1.3-0.2-3.5-0.2-6.8-0.1c-4.1,0.1-6.9,0.2-8.4,0.1c-3.3-0.1-6-0.4-8.2-1c-6.5-1.8-11.7-3.7-15.4-5.7c-4.8-2.5-8.4-5.5-11-9.1
			c-2-2.9-3.4-6.4-4.2-10.3c-0.3-1.7-0.4-3.7-0.4-6.1c0.1-3.9,0.8-7.5,2-10.9c3.7-10.2,11.8-16.5,24.4-18.8
			c4.5-0.8,8.8-0.8,13.2,0.1c3.2,0.7,6.7,1.9,10.5,3.7c3.9,2,6.7,3.4,8.4,4.1c2.8,1.2,5.1,1.6,6.9,1.3c0.1,0,0.3-0.2,0.6-0.6
			c0.4-0.4,0.5-0.8,0.4-1.2c-0.3-1.8-2.2-3.7-5.6-5.6c-1.7-1-3.3-1.7-5-2.3c-0.1-0.5-0.1-0.7,0-0.6l1.1-0.4c2.3,0.7,4.3,1.8,6.1,3.1
			c0.3,0.2,0.5,0.4,0.7,0.5c0.6-4,1-8,1.2-12.1c0.1-1.8,0.2-3.6,0.2-5.5c-1.4-0.5-2.9-1.4-4.7-2.8c-1.1-0.9-2.1-1.8-3-2.8
			c-0.8-0.9-1.3-1.5-1.3-1.8c-0.1-0.3,0-0.6,0.1-0.7c0.2-0.1,0.4-0.2,0.5-0.3c0.4,0.3,1.1,0.9,2.1,1.8c1.3,1.3,2.2,2.1,2.6,2.5
			c2.4,2.1,4.3,3,5.9,2.7c1.8-0.3,2.6-1.5,2.2-3.4c-0.1-0.7-1.9-4.9-5.4-12.5c-3.5-7.6-5.2-11.4-5.2-11.4c-0.1-0.5-0.1-0.8-0.1-0.9
			c0.1-0.2,0.3-0.4,0.6-0.4c0.3,0,1.7,2.9,4.4,8.7c-0.3-1.9-0.5-3.7-0.8-5.6c-0.2-1.2-0.5-2.4-0.7-3.7c-0.1-0.1-0.6-0.3,0,0
			c0-0.3-0.3-1.5-0.4-1.6c-1.5-0.9-2.6-2.2-3.2-4c-0.7-1.9-0.7-3.6,0-5.3c-0.1-0.2-1.4-3.5-3.1-6c-2.6-3.8-5-7.5-8.2-10.6
			c-5.2-1.4-11.2-2.1-18-2.1l0.1,0.2c0.2,0.6,0.9,2.3,2.2,4.8c0.9,2,1.5,3.1,1.7,3.5c0,0.3-0.3,0.5-0.6,0.7c-0.1,0-0.7-0.3-1.9-0.8
			c-1.4-0.6-2.9-1-4.5-1.3c-5.1-1.1-10.5-1.1-16.2,0c-4,0.7-6.7,1.7-7.9,2.7c-0.7,0.6-1,1.4-0.9,2.3c0.1,0.5,1.1,1.8,3,4
			c1.9,2.1,2.9,3.2,2.9,3.3c0,0.2-0.2,0.5-0.6,1.1c-3-0.2-4.9-0.2-5.5-0.1c-1.8,0.3-2.9,1.4-3.2,3.3c-0.2,0.9-0.2,1.9,0,2.9
			c0.3,1.8,1.6,3.5,3.8,5.1c0.3,0.2,1,0.7,2.3,1.5c0.7,0.5,1.1,0.8,1.1,1c0.1,0.3,0.1,0.5,0,0.6c0,0-0.1,0.1-0.2,0.2
			c-3-0.6-5.3-0.1-7,1.4c-1.7,1.4-2.8,3.2-3.3,5.3c-0.4,1.8-0.9,4.4-1.3,8c0.1,0,0.1,0,0.2,0c-0.1,0.5-0.2,1.1-0.2,1.6
			c-2.4-0.2-5.5-0.4-9.4-0.6l0,0c0,0,0,0-0.1,0.1c-0.1-1.9-0.2-3.8-0.3-5.7c0,0-0.1-0.5-0.1-1.5c-0.2-1.2-0.4-2.3-0.8-3.2
			c-1.1-3-3.1-4.2-5.8-3.7c-2.7,0.5-4.6,6-5.8,16.4c0.1,1.1,0.4,2.1,0.9,3c0.8,1.8,1.9,2.6,3.4,2.4c1-0.2,2-0.9,2.9-2.1
			c0.8-1.2,1.2-1.8,1.3-1.8c0.3-0.1,0.5,0,0.7,0l0.2,0.1l0.3,1.4c-0.1,0.1-0.6,0.7-1.5,1.9c-1.2,1.2-2.4,1.9-3.6,2.1
			c-0.9,0.2-1.7,0.1-2.4-0.1c-0.7,2.2-1.3,3.9-1.9,5.2c-2.2,4.6-5.7,7.4-10.6,8.4c-5.2,1-9.8,0.7-13.8-0.9c-0.1,0.7-0.2,1.5-0.3,2.2
			c-0.6,4-1.2,8.1-1.9,12.1c-0.1,0.4-0.1,0.7-0.2,1.1c-0.6,3.4-1.4,6.8-2.4,10.2c-0.5,1.8-1,3.5-1.6,5.3
			c4.8,5.6,10.2,10.8,16.1,15.4c5.9,4.7,12.2,8.9,18.9,12.6c5.2,2.9,10.5,5.3,16,7.5c0.4,0.1,0.7,0.2,1.1,0.2
			c0.1,0.1,0.3,0.2,0.4,0.3c2.4,0.9,4.8,1.7,7.3,2.4c10.4,3.1,20.9,5.7,31.5,8c4.6,1,9.2,1.4,13.8,1.2c2.5-0.1,4.8-0.5,7.1-1.2
			c0.3-3.4,0.4-5.7,0.5-6.9c0,0,0-0.1,0-0.2l-0.2,0c-2.6,0.5-4.7,0.5-6.3,0.2c-0.8-0.2-1.3-0.4-1.7-0.6c0.1,0,0.2,0,0.3,0
			c0.9-0.2,1.6-0.4,2.1-0.6C257.7,203.6,259.5,203.3,262.5,202.8z M253.4,92.9c-2.8,1-5.5,0.9-8.2-0.4c-1.7-0.8-3-1.8-4-3.2
			c-0.6-0.9-1.2-1.8-1.5-2.9c-1-2.8-0.9-5.6,0.4-8.3c1.3-2.7,3.3-4.6,6.1-5.6c2.8-1,5.6-0.9,8.3,0.4c2.7,1.2,4.5,3.3,5.6,6.1
			c0.4,1.1,0.6,2.2,0.7,3.2c0.1,1.7-0.3,3.4-1,5C258.3,90,256.3,91.9,253.4,92.9z M189.5,110.4c0,1.4-0.6,2.2-1.8,2.4
			c-1.7,0.3-2.7-0.6-3.1-2.6c0-0.3,0-0.4,0.1-0.5c0.1-0.1,1-0.8,2.7-2c0-0.4-0.3-1-0.9-1.8c-0.7-0.9-1-1.5-1.1-1.7
			c-0.1-0.3,0-0.6,0.1-0.7c0.2-0.1,0.3-0.2,0.5-0.3c1.2,0.9,2,1.7,2.4,2.5c0.2,0.4,0.4,1.2,0.7,2.7
			C189.4,109,189.5,109.7,189.5,110.4z M203,116.1c-2.4-0.2-5.5-0.4-9.3-0.6c0-0.1,0-0.1,0-0.2c0-0.5,0-1,0.1-1.4
			c3.9,0.1,7,0.3,9.3,0.6C203,114.9,203,115.5,203,116.1z M203,119.2c-2.5-0.2-5.7-0.4-9.5-0.6c0-0.5,0-1,0.1-1.6
			c3.9,0.1,7,0.3,9.3,0.5C203,118,203,118.6,203,119.2z M193.5,121.6c0-0.5,0-1,0-1.6c3.9,0.1,7.2,0.3,9.6,0.5
			c0,0.5,0.1,1.2,0.1,1.7C200.7,122.1,197.4,121.9,193.5,121.6z M213.3,185.6c0.4,0.4,0.8,0.9,1.2,1.3l0,0.6l-0.6,0.5
			c-7.1-6.8-9.9-15.3-8.4-25.3l1.6-0.6C205.8,170.9,207.8,178.7,213.3,185.6z"/>
		<path d="M193.6,116.9c3.9,0.1,7,0.3,9.3,0.5c0,0.6,0,1.2,0.1,1.7c-2.5-0.2-5.7-0.4-9.5-0.6C193.6,118,193.6,117.5,193.6,116.9z"/>
		<path d="M193.5,120c3.9,0.1,7.2,0.3,9.6,0.5c0,0.5,0.1,1.2,0.1,1.7c-2.6-0.2-5.8-0.4-9.8-0.6C193.5,121.2,193.5,120.6,193.5,120z"
			/>
		<path d="M193.7,115.2c0-0.5,0-1,0.1-1.4c3.9,0.1,7,0.3,9.3,0.6c0,0.5-0.1,1.1-0.1,1.7c-2.4-0.2-5.5-0.4-9.3-0.6
			C193.7,115.4,193.7,115.3,193.7,115.2z"/>
		<path d="M189.5,110.4c0-0.7-0.1-1.4-0.4-2.1c-0.3-1.4-0.5-2.3-0.7-2.7c-0.4-0.8-1.2-1.6-2.4-2.5c-0.1,0.1-0.3,0.2-0.5,0.3
			c-0.2,0.1-0.2,0.4-0.1,0.7c0,0.3,0.4,0.8,1.1,1.7c0.6,0.9,0.9,1.5,0.9,1.8c-1.7,1.2-2.6,1.9-2.7,2c-0.1,0.1-0.1,0.3-0.1,0.5
			c0.4,2.1,1.4,3,3.1,2.6C188.9,112.6,189.6,111.8,189.5,110.4z M187.9,110c0.1,0.3,0,0.6-0.1,0.8c-0.1,0.1-0.2,0.2-0.3,0.3
			c-0.6-0.3-0.9-0.5-1-0.6c-0.1-0.1-0.2-0.4-0.3-0.8l0-0.1c0.5-0.1,0.9-0.2,1.1-0.2C187.6,109.5,187.8,109.6,187.9,110z"/>
		<path fill="#FCD4A4" d="M187.5,111.1c-0.6-0.3-0.9-0.5-1-0.6c-0.1-0.1-0.2-0.4-0.3-0.8l0-0.1c0.5-0.1,0.9-0.2,1.1-0.2
			c0.3,0,0.5,0.2,0.6,0.5c0.1,0.3,0,0.6-0.1,0.8C187.7,110.8,187.6,110.9,187.5,111.1z"/>
		<path d="M253.4,92.9c2.8-1,4.8-2.9,6.1-5.6c0.8-1.6,1.1-3.3,1-5c0-1.1-0.3-2.2-0.7-3.2c-1-2.8-2.9-4.9-5.6-6.1
			c-2.7-1.3-5.5-1.4-8.3-0.4c-2.8,1-4.8,2.9-6.1,5.6c-1.2,2.7-1.4,5.4-0.4,8.3c0.4,1.1,0.9,2.1,1.5,2.9c1,1.4,2.4,2.4,4,3.2
			C247.9,93.8,250.6,93.9,253.4,92.9z M259.6,82c-1.5-1-3.2-2-5.1-3.3c-2.4-1.5-5.2-3.2-8.5-5.2c0.2,0,0.3-0.1,0.4-0.1
			c2.6-0.9,5.1-0.8,7.6,0.3c2.5,1.2,4.2,3,5.1,5.6C259.4,80.3,259.6,81.1,259.6,82z M253.1,92c-1.1,0.4-2.2,0.6-3.3,0.6
			c-1.4,0-2.8-0.3-4.2-1c-1.4-0.6-2.6-1.5-3.5-2.7c-0.7-0.8-1.2-1.8-1.6-2.9c-0.9-2.6-0.8-5.1,0.3-7.5c1-2.1,2.4-3.6,4.4-4.6
			c2.2,1.5,4.8,3,7.6,4.8c2.6,1.7,4.9,3.1,6.8,4.3c0,1.3-0.4,2.6-1,3.9C257.5,89.4,255.7,91.1,253.1,92z"/>
		<path fill="#FDD17A" d="M246,73.6c0.2,0,0.3-0.1,0.4-0.1c2.6-0.9,5.1-0.8,7.6,0.3c2.5,1.2,4.2,3,5.1,5.6c0.3,0.9,0.5,1.8,0.6,2.6
			c-1.5-1-3.2-2-5.1-3.3C252.1,77.3,249.3,75.6,246,73.6z"/>
		<path fill="#FFFFFF" d="M253.1,92c2.6-0.9,4.4-2.6,5.6-5.1c0.6-1.3,0.9-2.6,1-3.9c-1.9-1.2-4.2-2.7-6.8-4.3
			c-2.8-1.8-5.3-3.3-7.6-4.8c-2,1-3.5,2.5-4.4,4.6c-1.1,2.4-1.3,4.9-0.3,7.5c0.4,1.1,0.9,2.1,1.6,2.9c0.9,1.1,2.1,2,3.5,2.7
			c1.4,0.6,2.8,1,4.2,1C250.9,92.6,252,92.4,253.1,92z"/>
		<path d="M246.1,84.4c0.1,0.3,0.4,0.4,0.7,0.3c0.2-0.1,0.3-0.2,0.4-0.4c0-0.1,0-0.2,0-0.3c-0.1-0.3-0.4-0.4-0.7-0.3c0,0,0,0,0,0
			c0.1-0.1,0.3-0.2,0.5-0.3c0.9-0.3,1.5,0,1.8,0.8c0.1,0.2,0.1,0.5,0.1,0.7c-0.1,0.5-0.4,0.8-0.9,1c-0.4,0.1-0.8,0.1-1.1-0.1
			c-0.3-0.2-0.5-0.4-0.6-0.7c-0.1-0.4-0.1-0.8,0-1C246.1,84.2,246.1,84.3,246.1,84.4z"/>
		<path d="M214.5,187.6l-0.6,0.5c-7.1-6.8-9.9-15.3-8.4-25.3l1.6-0.6c-1.4,8.7,0.7,16.5,6.2,23.4c0.4,0.4,0.8,0.9,1.2,1.3
			L214.5,187.6z"/>
		<path fill="#1CB1BF" d="M94.7,248.7c1.9,4,4,7.8,6.4,11.5c1.7,2.6,3.3,5.3,4.9,7.9c1.5,2.4,3,4.7,4.5,7.1c0.4,0.6,0.8,1.3,1.2,1.9
			c0.3,0.4,0.5,0.8,0.8,1.2c0.1,0.1,0.2,0.2,0.2,0.3c0.1,0.2,0.1,0.3,0.2,0.4c0.4,0.7,0.8,1.3,1.2,2c0.9,1.4,1.7,2.8,2.5,4.3
			c2.6,4.5,5.2,9.1,7.8,13.7c2-2.3,4.4-3.9,7.3-4.8c-0.3-0.6-0.7-1.2-1-1.8c-3.7-6.6-7.8-14.6-12.4-24c-5.7-11.6-8.9-18.9-9.4-21.9
			c-0.3-1.1-0.4-2-0.5-2.6c-0.2-1-0.2-1.9,0-2.8c0.4-2.1,2.2-4.1,5.4-6c1.6-1,3.2-1.9,4.7-2.8c0.1-0.2,0.2-0.5,0.3-0.7
			c0.7-0.4,1.4-0.7,2.1-1.1c-0.1,0.2-0.2,0.4-0.3,0.6c2-1.1,3.9-2,5.6-2.9c6.9-3.3,13.5-5.5,19.8-6.7c2.5-0.5,3.8-0.7,3.8-0.5
			c2.9-0.3,5.3-0.3,7.4,0.1c2,0.4,3,1,3.2,1.9c0.1,0.4,0,0.6-0.1,0.8c-0.1,0.1-0.3,0.2-0.5,0.4c-0.1,0-0.4-0.2-0.8-0.6
			c-0.4-0.4-1-0.7-1.6-0.8c-2.2-0.6-5.9-0.5-11.3,0.6c-6.2,1.2-13,3.5-20.3,7c-2.3,1.1-4.4,2.1-6.3,3.2c-0.9,2-1.8,4.1-2.7,6.1
			c-1.6,3.9-3,7.9-4.2,11.9c1.7,4,4.6,9.8,8.4,17.6c5.2,10.4,9.1,17.9,11.7,22.5c1.1,2,2.3,4,3.5,6c2.9,1.9,5.8,3.6,8.9,5.3
			c0.5-0.8,1.1-1.8,1.8-3c1.4-2.6,2.1-3.9,2.1-3.9c0.2,0,0.4,0,0.4,0c0.1,0,0.1,0.1,0.2,0.3c0.1,0.5-0.6,2.1-2,4.9
			c-0.4,0.9-0.9,1.6-1.3,2.3c1.7,0.9,3.4,1.8,5.2,2.6c4.4,2.1,9,4.1,13.5,5.9c1-1.4,2-3.4,3.1-5.9c0.6-1.4,1.2-3.1,2-5.3
			c0.6-1.6,0.9-2.4,0.9-2.4c0.2,0,0.3,0,0.4,0l0.1,0.7c-0.1,0.1-0.4,1.1-0.8,2.8c-0.6,1.9-1.3,3.7-2,5.3c-0.9,2.2-1.9,3.9-2.8,5.3
			c3.3,1.3,6.6,2.5,9.9,3.6c7.2,2.4,14.5,4.5,22,6.1c4.9,1,9.8,1.8,14.7,2.2c1.5-1.3,2.7-3.1,3.6-5.2c0.6-1.2,1.2-2.9,1.7-4.9
			c0.4-1.4,0.7-2.2,0.9-2.2c0.3-0.1,0.4,0.1,0.5,0.5c0.1,0.4-0.2,1.4-0.7,2.9c-0.6,1.7-1.4,3.4-2.4,5.1c-0.9,1.5-1.7,2.8-2.7,3.9
			c1.2,0.1,2.4,0.2,3.6,0.2c5.8,0.3,11.5-0.1,17.1-1.2c3.8-4.3,7.3-10.2,10.5-17.5c4-9.2,7.1-18,9.2-26.6c2.1-8.6,3.3-17.3,3.7-26.1
			c0.5-8.9,0-17.8-1.4-26.8c-0.7-4.5-1.5-8.6-2.3-12.1c-1.1,1-3,2.6-5.5,4.9c-3,2.7-5,4.4-6,5c-1.1,0.6-6-1.5-14.9-6
			c-8.5-4.4-14.8-8-18.8-10.8c-2.1-1.5-4.6-3.3-7.4-5.3c-1.2-0.4-2.3-0.9-3.5-1.4c-7.7-3.2-15-7-22-11.6c-7-4.5-13.6-9.7-19.7-15.7
			c-2.2-2.1-4.3-4.3-6.2-6.6c-0.5,1.4-1,2.8-1.6,4.2c-1.2,3.1-2.5,6.3-3.9,9.4c-1.6,3.7-3.3,7.4-4.9,11.2c-1.4,3.2-2.8,6.4-4.3,9.5
			c-1.3,2.9-2.7,5.8-4.1,8.7c-0.3,0.7-0.7,1.5-1.1,2.2c2.7-1.5,5.4-2.9,8.1-4.5c6.1-3.4,12.4-6,19.1-7.9c3.5-1,7-1,10.5,0.1
			c1.7,0.5,2.6,1.5,2.8,2.9l-0.6,0.4c-1.5-1.5-3.3-2.3-5.4-2.3c-2.7,0-5.5,0.3-8.2,0.9c-1.2,0.4-2.5,0.8-3.7,1.1
			c-0.8,0.3-1.6,0.6-2.5,0.9c-0.8,0.3-1.6,0.7-2.3,1.1c-2.8,1.3-5.6,2.7-8.3,4.1c-4.7,2.4-9.5,4.9-14.2,7.5
			c-3.4,1.9-6.8,3.8-10.2,5.6c-5.4,2.8-10.7,5.8-15.9,9c-2.8,1.7-4.8,4.1-6.1,7.1c-0.3,0.7-0.5,1.5-0.5,2.4
			C92.8,243.5,93.5,246.2,94.7,248.7z M252.1,229.7c-0.9,0.2-1.6-0.1-2.3-0.6c-0.5-0.5-0.8-1-0.9-1.5c-0.1-0.5,0-1,0.1-1.5
			c0.3-1,1-1.6,2.1-1.8c0.9-0.2,1.7,0,2.3,0.6c0.5,0.5,0.9,1,1,1.6c0,0.2,0,0.3,0.1,0.5c0,0.4,0,0.7-0.1,1
			C254,228.8,253.3,229.4,252.1,229.7z M250,259.8c-0.5-0.4-0.8-1-0.9-1.6c-0.1-0.5-0.1-1,0.1-1.5c0.3-1,1-1.6,2.1-1.8
			c0.9-0.2,1.7,0.1,2.3,0.6c0.5,0.5,0.8,1,1,1.6c0,0.2,0,0.3,0.1,0.5c0,0.4,0,0.7-0.1,1c-0.3,1-1,1.5-2.2,1.7
			C251.4,260.6,250.6,260.4,250,259.8z M242.9,289.3c-0.1-0.5,0-1,0.1-1.5c0.3-1,1-1.6,2.1-1.9c0.9-0.2,1.6,0.1,2.3,0.6
			c0.5,0.5,0.8,1,1,1.6c0,0.2,0.1,0.3,0.1,0.5c0,0.4,0,0.7-0.1,1c-0.3,0.9-1,1.5-2.2,1.7c-0.9,0.2-1.7,0-2.3-0.6
			C243.3,290.3,243,289.8,242.9,289.3z M231.6,315.7c-0.1-0.5,0-1,0.1-1.5c0.3-1,1-1.6,2.1-1.9c0.9-0.2,1.6,0.1,2.3,0.6
			c0.5,0.5,0.8,1,1,1.6c0,0.2,0.1,0.3,0.1,0.5c0,0.4,0,0.7-0.1,1c-0.3,0.9-1,1.5-2.2,1.7c-0.9,0.2-1.7,0-2.3-0.6
			C232,316.8,231.7,316.3,231.6,315.7z M189.1,271.7c-2.6-3.6-4.4-8.2-5.5-13.8c-0.6-3.1-0.5-6.9,0.2-11.4c0.5-3,1.4-6.9,2.7-11.7
			c0.7-2.5,1.3-4.7,1.8-6.7c0,0-0.1-0.1-0.1-0.1c0.1-0.5,0.1-0.9,0.1-1.4c0-0.3,0.1-0.5,0.1-0.8c0-0.2,0.1-0.4,0.1-0.5
			c2.9,2.7,5.7,4.6,8.1,5.7c4.5,2,9.3,3.8,14.5,5.3c8.8,2.5,15.9,3.2,21.4,2.3c0,0,0,0,0,0c0,0.2-0.1,0.3-0.1,0.5l0.2,0.1
			c-0.4,2-1,4.5-1.8,7.5c-1.5,5.7-2.7,10.3-3.5,13.7c-0.9,3.4-1.7,6.1-2.5,8c-2.6,6.3-6.9,10-12.9,11.2
			C201.8,281.4,194.3,278.8,189.1,271.7z M191.2,320.5c0.2-0.3,0.4-0.6,0.6-1c0.4-0.7,0.9-1.8,1.5-3.2c0.5-1.5,1-2.7,1.3-3.6
			c0.7-1.7,1.1-2.6,1.4-2.6c0.2,0,0.3,0,0.4,0c0,0.1,0.1,0.1,0.1,0.4c0,0.2-0.2,0.8-0.7,2.1c-0.5,1.4-1.1,2.7-1.8,4
			c-0.9,1.8-1.7,3.1-2.5,4.1C191.5,320.6,191.3,320.5,191.2,320.5z"/>
		<path d="M189.1,271.7c5.2,7.1,12.7,9.7,22.7,7.9c6-1.1,10.3-4.8,12.9-11.2c0.8-1.9,1.6-4.5,2.5-8c0.9-3.4,2-8,3.5-13.7
			c0.8-3,1.4-5.5,1.8-7.5c-0.1,0-0.2,0-0.3,0c0,0,0-0.1,0-0.1c0-0.2,0.1-0.4,0.1-0.5c0,0,0,0,0,0c-5.5,1-12.6,0.2-21.4-2.3
			c-5.2-1.5-10-3.2-14.5-5.3c-2.5-1.1-5.2-3.1-8.1-5.7c0,0.2-0.1,0.3-0.1,0.5c0,0.2,0,0.5-0.1,0.8c0,0.5,0,0.9-0.1,1.4
			c0,0,0,0.1,0.1,0.1c-0.5,1.9-1.1,4.1-1.8,6.7c-1.3,4.8-2.2,8.7-2.7,11.7c-0.7,4.5-0.7,8.3-0.2,11.4
			C184.7,263.5,186.5,268.1,189.1,271.7z M228.7,248.7c-5.6,1-11.4,0.7-17.6-1c-3.6-1-8.6-2.7-15-5.2c-2.7-0.9-5.6-2.6-8.6-5
			c0.2-1,0.5-1.9,0.8-2.8c0.4-1.4,0.9-3.2,1.7-5.4c2.2,1.4,4.7,2.8,7.7,4.1c4.8,2.1,9.5,3.8,14.1,5c7.1,2,13.3,2.7,18.5,2.2
			c-0.2,1.1-0.4,2.1-0.6,3.2C229.3,245.8,229,247.3,228.7,248.7z M190.2,270.3c-2.4-3.3-4-7.6-5-12.7c-0.4-2.4-0.3-6.3,0.6-11.7
			c0.4-2.3,0.8-4.5,1.2-6.6c2.7,1.7,5.8,3.3,9.2,4.9c5.7,2.5,11.2,4.4,16.7,5.5c5.8,1.2,10.9,1.4,15.4,0.7c-0.3,1.1-0.4,1.9-0.6,2.4
			c-2.3,7.1-3.5,11-3.7,11.5c-1.1,3.2-2.1,5.7-3,7.3c-1,1.8-2.3,3.2-3.7,4.1c-1.4,0.9-3.3,1.6-5.8,2
			C202.1,279.6,194.9,277.1,190.2,270.3z"/>
		<path fill="#086A73" d="M196.1,242.5c-2.7-0.9-5.6-2.6-8.6-5c0.2-1,0.5-1.9,0.8-2.8c0.4-1.4,0.9-3.2,1.7-5.4
			c2.2,1.4,4.7,2.8,7.7,4.1c4.8,2.1,9.5,3.8,14.1,5c7.1,2,13.3,2.7,18.5,2.2c-0.2,1.1-0.4,2.1-0.6,3.2c-0.3,1.9-0.6,3.5-0.9,4.8
			c-5.6,1-11.4,0.7-17.6-1C207.5,246.7,202.5,245,196.1,242.5z"/>
		<path fill="#1CB1BF" d="M185.8,246c0.4-2.3,0.8-4.5,1.2-6.6c2.7,1.7,5.8,3.3,9.2,4.9c5.7,2.5,11.2,4.4,16.7,5.5
			c5.8,1.2,10.9,1.4,15.4,0.7c-0.3,1.1-0.4,1.9-0.6,2.4c-2.3,7.1-3.5,11-3.7,11.5c-1.1,3.2-2.1,5.7-3,7.3c-1,1.8-2.3,3.2-3.7,4.1
			c-1.4,0.9-3.3,1.6-5.8,2c-9.5,1.8-16.6-0.8-21.4-7.5c-2.4-3.3-4-7.6-5-12.7C184.7,255.2,184.9,251.3,185.8,246z"/>
		<path d="M252.1,229.7c1.2-0.2,1.9-0.8,2.2-1.7c0.1-0.3,0.1-0.6,0.1-1c0-0.2,0-0.3-0.1-0.5c-0.1-0.6-0.4-1.2-1-1.6
			c-0.6-0.6-1.4-0.8-2.3-0.6c-1.1,0.2-1.8,0.8-2.1,1.8c-0.1,0.5-0.2,1-0.1,1.5c0.1,0.6,0.4,1.1,0.9,1.5
			C250.4,229.6,251.2,229.8,252.1,229.7z M252.6,228.8c-0.6,0.1-1.1,0-1.5-0.4c-0.4-0.3-0.7-0.7-0.8-1.2c-0.2-1.4,0.4-2.1,1.6-2.4
			c0.6-0.1,1.1,0,1.5,0.4c0.5,0.3,0.7,0.7,0.8,1.2c0.1,0.4,0.1,0.8-0.1,1.1C253.9,228.2,253.4,228.6,252.6,228.8z"/>
		<path fill="#1CB1BF" d="M251,228.4c-0.4-0.3-0.7-0.7-0.8-1.2c-0.2-1.4,0.4-2.1,1.6-2.4c0.6-0.1,1.1,0,1.5,0.4
			c0.5,0.3,0.7,0.7,0.8,1.2c0.1,0.4,0.1,0.8-0.1,1.1c-0.2,0.7-0.7,1.1-1.5,1.3C252,228.9,251.5,228.8,251,228.4z"/>
		<path d="M250,259.8c0.6,0.6,1.4,0.8,2.3,0.6c1.2-0.2,1.9-0.8,2.2-1.7c0.1-0.3,0.1-0.6,0.1-1c0-0.2,0-0.3-0.1-0.5
			c-0.1-0.6-0.4-1.2-1-1.6c-0.7-0.6-1.4-0.8-2.3-0.6c-1.1,0.2-1.8,0.8-2.1,1.8c-0.1,0.5-0.2,1-0.1,1.5
			C249.2,258.9,249.5,259.4,250,259.8z M250.2,258c-0.2-1.3,0.4-2.1,1.6-2.4c0.6-0.1,1.1,0,1.5,0.4c0.5,0.3,0.7,0.7,0.8,1.2
			c0.2,1.3-0.3,2.1-1.6,2.3c-0.6,0.1-1.1,0-1.5-0.4C250.5,258.9,250.3,258.5,250.2,258z"/>
		<path fill="#1CB1BF" d="M251.7,255.7c0.6-0.1,1.1,0,1.5,0.4c0.5,0.3,0.7,0.7,0.8,1.2c0.2,1.3-0.3,2.1-1.6,2.3
			c-0.6,0.1-1.1,0-1.5-0.4c-0.4-0.3-0.7-0.7-0.8-1.2C250,256.7,250.5,255.9,251.7,255.7z"/>
		<path d="M243,287.8c-0.1,0.5-0.2,1-0.1,1.5c0.1,0.6,0.4,1.1,0.9,1.5c0.7,0.6,1.4,0.8,2.3,0.6c1.2-0.2,1.9-0.8,2.2-1.7
			c0.1-0.3,0.1-0.6,0.1-1c0-0.2,0-0.3-0.1-0.5c-0.1-0.6-0.4-1.2-1-1.6c-0.7-0.6-1.4-0.8-2.3-0.6C244,286.1,243.3,286.7,243,287.8z
			 M244.3,289.3c-0.1-1.3,0.4-2.2,1.6-2.4c0.5-0.1,1,0,1.5,0.4c0.5,0.3,0.7,0.7,0.8,1.2c0.2,1.3-0.3,2.1-1.6,2.3
			c-0.6,0.1-1.1,0-1.5-0.4C244.7,290.1,244.4,289.7,244.3,289.3z"/>
		<path fill="#1CB1BF" d="M245.9,286.9c0.5-0.1,1,0,1.5,0.4c0.5,0.3,0.7,0.7,0.8,1.2c0.2,1.3-0.3,2.1-1.6,2.3
			c-0.6,0.1-1.1,0-1.5-0.4c-0.4-0.3-0.7-0.7-0.8-1.2C244.2,287.9,244.7,287.1,245.9,286.9z"/>
		<path d="M231.7,314.2c-0.1,0.5-0.2,1-0.1,1.5c0.1,0.6,0.4,1.1,0.9,1.5c0.7,0.6,1.4,0.8,2.3,0.6c1.2-0.2,1.9-0.8,2.2-1.7
			c0.1-0.3,0.1-0.6,0.1-1c0-0.2,0-0.3-0.1-0.5c-0.1-0.6-0.4-1.2-1-1.6c-0.7-0.6-1.4-0.8-2.3-0.6C232.7,312.5,232,313.2,231.7,314.2z
			 M233,315.7c-0.1-1.4,0.4-2.1,1.6-2.4c0.5-0.1,1,0,1.5,0.4c0.5,0.3,0.7,0.7,0.8,1.2c0.3,1.3-0.3,2.1-1.6,2.4
			c-0.6,0.1-1.1,0-1.6-0.4C233.4,316.6,233.1,316.2,233,315.7z"/>
		<path fill="#1CB1BF" d="M234.6,313.3c0.5-0.1,1,0,1.5,0.4c0.5,0.3,0.7,0.7,0.8,1.2c0.3,1.3-0.3,2.1-1.6,2.4
			c-0.6,0.1-1.1,0-1.6-0.4c-0.4-0.3-0.7-0.7-0.8-1.2C232.9,314.3,233.4,313.6,234.6,313.3z"/>
		<path d="M191.8,319.5c0.4-0.7,0.9-1.8,1.5-3.2c0.5-1.5,1-2.7,1.3-3.6c0.7-1.7,1.1-2.6,1.4-2.6c0.2,0,0.3,0,0.4,0
			c0,0.1,0.1,0.1,0.1,0.4c0,0.2-0.2,0.8-0.7,2.1c-0.5,1.4-1.1,2.7-1.8,4c-0.9,1.8-1.7,3.1-2.5,4.1c-0.1-0.1-0.2-0.2-0.4-0.2
			C191.4,320.2,191.6,319.9,191.8,319.5z"/>
		<path fill="#FFFFFF" d="M272.8,89.3c0.2,0.1,0.5,0.2,0.7,0.3c1.4,0.5,2.7,0.5,4,0c1.6-0.6,2.7-1.6,3.4-3.2
			c0.1-0.1,0.1-0.1,0.1-0.2c0.7-1.7,0.7-3.4,0.1-5.2c-0.6-1.8-1.7-3-3.3-3.8c-0.2-0.1-0.4-0.2-0.6-0.3c-1.5,1.1-3.2,2.3-5.3,3.6
			c-0.3,0.2-0.7,0.4-1,0.6c-0.6,0.4-1.1,0.7-1.7,1.1c-0.2,0.1-0.3,0.2-0.5,0.3c0,0.9,0.1,1.8,0.4,2.7c0.5,1.3,1.2,2.3,2.1,3.1
			c0.4,0.3,0.8,0.6,1.3,0.8C272.6,89.3,272.7,89.3,272.8,89.3z"/>
		<path d="M270.9,84.5c0.1,0.3,0.3,0.4,0.6,0.3c0.2-0.1,0.3-0.2,0.3-0.4c0-0.1,0-0.2,0-0.3c-0.1-0.3-0.3-0.4-0.7-0.3
			c-0.1,0-0.1,0-0.1,0.1c0.1-0.2,0.3-0.3,0.6-0.4c0.8-0.3,1.3,0,1.5,0.7c0.1,0.2,0.1,0.4,0.1,0.7c0,0.4-0.3,0.7-0.8,0.9
			c-0.4,0.1-0.7,0.1-1-0.1c-0.3-0.1-0.4-0.4-0.5-0.6c-0.1-0.3-0.1-0.5-0.1-0.7C270.8,84.4,270.9,84.5,270.9,84.5z"/>
		<path fill="#FDD17A" d="M270.6,80.5c-0.5,0.3-1.1,0.6-1.7,1c0,0-0.1,0-0.1,0c0,0,0-0.1,0-0.1c0.1-0.4,0.3-0.9,0.4-1.3
			c0.2-0.4,0.4-0.8,0.6-1.1c0.7-1,1.7-1.7,2.9-2.1c1.2-0.4,2.4-0.4,3.5-0.2c-2.1,1.5-3.4,2.4-3.8,2.6
			C272.1,79.6,271.4,80,270.6,80.5z"/>
		<path fill="#FFFFFF" d="M248.9,139.2c1.9,0.4,4,1,6.1,1.9c-0.2,1.4-0.5,2.7-0.8,3.8c-0.1,0.4-0.2,0.8-0.3,1.2
			c-1.4-0.4-2.9-0.9-4.6-1.4c-2-0.6-3.9-1.1-5.7-1.7c0.6-1.6,1-3.1,1.5-4.4C246.4,138.7,247.7,138.9,248.9,139.2z"/>
		<path fill="#FFFFFF" d="M236.2,139c2.5-0.5,5.1-0.7,7.6-0.5c-0.4,1.3-0.8,2.7-1.3,4.3c-4-1.1-7.6-2-11-2.6l0,0
			C233,139.7,234.6,139.3,236.2,139z"/>
		<path fill="#FFFFFF" d="M256.5,141.6c0.9,0.4,1.8,0.8,2.7,1.2c1.9,1,3.6,1.9,5,2.5c-0.2,0.8-0.3,1.4-0.4,1.7
			c-0.2,0.8-0.4,1.4-0.6,2.1c-2.1-0.7-4.7-1.6-8-2.7c0.1-0.4,0.3-0.9,0.4-1.4C256,144,256.2,142.9,256.5,141.6z"/>
		<path fill="#FFFFFF" d="M265.8,146.1c0.7,0.3,1.3,0.6,1.9,0.8c0.9,0.4,1.7,0.7,2.5,0.9c-0.2,1-0.4,1.9-0.6,2.5
			c-0.1,0.4-0.3,0.8-0.4,1.2c-1.1-0.5-2.2-1-3.5-1.5c-0.3-0.1-0.7-0.2-1-0.4c0.1-0.2,0.2-0.4,0.2-0.7
			C265.2,148,265.5,147.1,265.8,146.1z"/>
		<path fill="#E20614" d="M216.5,165c8.7-1.6,16.5-1.5,23.6,0.3c3.5,0.9,7.3,2.5,11.3,4.7c0.5-0.3,0.7-0.7,0.6-1.2
			c-0.1-0.8-1.4-1.6-3.9-2.5c-2.3-0.9-5.3-1.6-8.8-2.3c-8.4-1.6-15.3-1.9-20.6-1c0-0.1-0.8,0-2.3,0.3c-1.7,0.3-3.3,0.7-4.8,1.2
			c0-0.3,0.1-0.6,0.1-0.9c0.7-0.2,1.4-0.4,2.1-0.6c4.1-1,8.2-1.6,12.5-1.6c4.1-0.1,8.3,0.1,12.4,0.5c4.1,0.4,8.2,1.1,12.2,2.1
			c4.1,1,8,2.4,11.7,4.3c1.7,0.9,3.2,2.1,4.6,3.4c0.8,0.8,1.4,1.7,1.8,2.8c0.3,1,0.5,2,0.5,3c-0.1,2.2-1.1,3.6-3.2,4.4
			c-1.6,0.5-3.2,0.7-4.8,0.4c-1.7-0.2-3.3-0.6-4.9-1.1c-1.9-0.5-3.7-1.2-5.4-1.9c-7.2-2.9-14.5-5.5-21.8-7.9
			c-4-1.3-8.1-2.1-12.3-2.2c-1.9,0-3.7,0.1-5.5,0.5c-0.1-1.1-0.1-2.2,0-3.4C212.8,165.8,214.6,165.4,216.5,165z"/>
		<path fill="#1CB1BF" d="M246.1,213.8c1.7,0.3,3.5,0.4,5.1,0.5c-6.1,5.8-9.2,8.7-9.2,8.7c-1.7,0.3-6.4-1.7-14.3-6
			c-6-3.3-11.3-6.4-16-9.4c-1.6-1-3.3-2.2-5-3.4c4.9,1.7,9.8,3.2,14.8,4.5C229.7,210.8,237.9,212.5,246.1,213.8z"/>
		<path fill="#FFFFFF" d="M257.8,197.9c-1,0-1.7,0-2.1,0c-1.4,0-2.8-0.1-4.2-0.2c-0.1-0.6-0.2-1-0.2-1.1c-0.1-0.9-0.3-1.8-0.5-2.6
			c1.3-0.2,2.6-0.4,3.9-0.7c0.8-0.2,1.6-0.3,2.4-0.5c0.4,2.2,0.6,3.6,0.7,4.2C257.8,197.4,257.8,197.6,257.8,197.9z"/>
		<path fill="#FFFFFF" d="M263.2,197.8c-1.5,0-2.8,0.1-3.8,0.1c-0.4-2.4-0.6-4.2-0.8-5.2c1.6-0.3,3.1-0.7,4.4-1
			c0.1,0.6,0.3,1.2,0.5,2c0.3,1.6,0.3,3,0,4.1C263.4,197.8,263.3,197.8,263.2,197.8z"/>
		<path fill="#FFFFFF" d="M243.5,195.1c1.8-0.2,3.7-0.4,5.6-0.7c0.3,1.2,0.5,2.3,0.7,3.3c-1.8-0.1-3.8-0.3-5.7-0.5
			C243.9,196.4,243.7,195.7,243.5,195.1z"/>
		<path fill="#FFFFFF" d="M236.3,195.6c1.9-0.1,3.7-0.2,5.6-0.4c0.2,0.6,0.4,1.1,0.6,1.7C240.4,196.6,238.3,196.2,236.3,195.6z"/>
		<path fill="#1CB1BF" d="M242.9,321.4c-2.1,0.6-4.1,1.2-6.2,1.6c4.9-7.2,9-14.9,12.2-23.1c2.8-7.1,5-14.4,6.6-21.8
			c2.2-10.1,3.3-20.3,3.3-30.7c0-8.4-0.6-16.7-1.8-25c-0.3-2.2-0.7-4.3-1.3-6.5c4,5.2,6.1,7.6,6.4,7.3c0.4-0.5,1.3-2,2.8-4.6
			c0.2-0.4,0.5-0.9,0.7-1.3c0.5,2.3,0.9,4.7,1.3,7.3c1.4,9,1.8,17.9,1.4,26.8c-0.1,0.9-0.1,1.9-0.2,2.9c0,0,0-0.1-0.1-0.1
			c0,0.1,0.1,0.2,0.1,0.2c-0.5,7.8-1.7,15.5-3.6,23c-2.1,8.6-5.1,17.4-9.2,26.6c-2.9,6.7-6.1,12.2-9.5,16.4
			C244.9,320.8,243.9,321.1,242.9,321.4z"/>
		<path fill="#1CB1BF" d="M264.5,208.6c0-0.1,0-0.2,0-0.4c0.9,0.2,1.6,0.8,1.9,1.8c-0.7,0.4-1.5,0.7-2.2,1
			C264.3,210.2,264.4,209.4,264.5,208.6z"/>
		<path fill="#1CB1BF" d="M261.7,221.4c-1.4-2.2-3.1-4.6-5-7.3c2.4-0.3,4.8-0.7,7.2-1.4c0.9-0.3,1.7-0.6,2.5-0.9
			c-0.2,1.2-0.8,2.7-1.8,4.6C263.9,217.8,262.9,219.5,261.7,221.4z"/>
		<path fill="#F18B00" d="M197.2,348.8c-4,0.8-7.9,1.3-11.6,1.6c2.1,1.4,3.6,2.4,4.6,3c1.6,1.1,4.2,3.1,7.6,5.7c3.4,2.7,6.3,5,8.8,7
			c2.4,1.9,3.8,3.5,4,4.5c0.2,1.1-0.1,2.9-1,5.5c-0.9,2.6-2,5.2-3.4,7.8c-1.3,2.5-2.7,4.5-4.1,6.2c3.1,3.9,7.9,5.8,14.5,5.5
			c0.5-1.9,1.3-4.8,2.4-8.6c2.1-7.1,3.6-11.9,4.3-14.5c0.7-2.6,1.1-4.1,1-4.5c-0.4-2.4-6.5-8.8-18-19.2c-0.5-0.4-1.1-0.9-1.8-1.6
			C202.1,347.8,199.7,348.3,197.2,348.8z M210.1,386C210.1,386,210.1,385.9,210.1,386C210.1,385.9,210.1,385.9,210.1,386
			C210.1,385.9,210.1,386,210.1,386z"/>
		<path d="M210.1,385.9C210.1,385.9,210.1,386,210.1,385.9C210.1,386,210.1,385.9,210.1,385.9C210.1,385.9,210.1,385.9,210.1,385.9z
			"/>
		<path fill="#71631F" d="M214.2,397.5c0,0.4,0.1,0.8,0.1,1.1c0.1,0.3,0.1,0.7,0.2,1c-0.1,0-0.2,0-0.4,0c-2.9,0.5-4.6,1.3-5.1,2.2
			c0.2,0.3,0.4,0.5,0.5,0.6c0.2,0.2,0.5,0.2,1.1,0.1c1.8-0.3,3.1-0.7,3.9-1c0.2-0.1,0.4-0.2,0.6-0.3c0.4,0.8,0.8,1.5,1.4,2.1
			c-0.3,0.2-0.8,0.5-1.4,0.9c-1.3,0.8-2.1,1.5-2.3,1.9c0.2,0.3,0.4,0.5,0.5,0.6c0.2,0.2,0.5,0.2,1.1,0.1c0.6-0.1,1.5-0.6,2.6-1.5
			c0.4-0.3,0.7-0.6,0.9-0.9c0.5,0.3,1.1,0.5,1.7,0.7c0.2,0.1,0.3,0.1,0.5,0.1c-0.2,0.1-0.3,0.3-0.5,0.4c-1.3,1.1-2.2,2-2.8,2.9
			c0.5,0.6,0.9,0.8,1.1,0.8c0.6-0.1,1.7-0.8,3.3-2.2c0.7-0.6,1.2-1.1,1.7-1.5c1.6,0.1,3.5,0,5.8-0.2c4.4-0.4,7.4-0.4,9,0
			c2.8,0.7,4.6,2.5,5.1,5.5c0,0.2,0.1,0.3,0.1,0.5c-1.7,1.2-3.9,2-6.7,2.5c-13.5,2.5-24-0.2-31.4-8.2c-1.9-2.1-3.6-4.5-4.9-7.1
			c1-1.7,2.3-3.2,3.9-4.3C206.7,396.4,210.2,397.5,214.2,397.5z"/>
		<path fill="#965919" d="M236.5,415.6c2.4-0.4,4.4-0.9,5.8-1.5c-1.7,1.3-4.1,2.3-7.1,2.9c-13.5,2.5-24-0.2-31.4-8.2
			c-2-2.2-3.7-4.7-5.1-7.4c0.1-0.3,0.2-0.5,0.3-0.8c1.3,2.5,2.9,4.7,4.8,6.7C211.4,415.5,222.3,418.3,236.5,415.6z"/>
		<path fill="#086A73" d="M126.7,298.6c1.3-1.5,3.1-2.4,5.1-2.8c0.3-0.1,0.6-0.1,0.9-0.1c1,1.6,2.1,3.3,3.2,5l0,0
			c0,0-0.1,0.1-0.1,0.2c-3.1,0.6-5.8,2-8,4c-0.2-0.4-0.4-0.7-0.6-1.1c-0.6-1.1-1.2-2.2-1.8-3.3C125.8,299.7,126.2,299.1,126.7,298.6
			z"/>
		<path fill="#FCD4A4" d="M146,315.4c0.5,2.7,0.5,4.9-0.1,6.5c-1.2,3.5-4.6,5.7-10.2,6.8c-4.3,0.8-7.6,0.2-9.7-1.9
			c-1.2-1.1-2-2.5-2.3-4.2c-0.5-2.9,1.2-4.7,5.2-5.7c0.3,0.4,0.6,0.7,0.9,1.1c1,1.1,1.5,1.7,1.5,1.7c0.5,0.6,0.8,1.2,0.9,1.7
			c0.1,0.6-0.1,1.3-0.6,2c-0.5,0.7-0.8,1.1-0.7,1.3c0.1,0.3,0.1,0.4,0.1,0.4c0.1,0,0.1,0,0.1,0c0,0.1,0.1,0.1,0.2,0.2
			c0.1,0.1,0.3,0,0.6,0c1-0.2,1.7-0.9,1.9-2.1c0-1.2,0-1.8,0-1.8c-0.2-1.1-1.1-2.6-2.6-4.3c-1.5-1.8-2.4-3.4-2.7-4.7
			c-0.2-1-0.2-1.8,0-2.5c0.1-0.3,0.3-0.8,0.7-1.6c0.5-0.8,0.7-1.9,0.7-3.2c1.5-1,3.3-1.9,5.4-2.3c1.4,0.8,2.5,1.5,3.4,2.1
			C142.8,307.6,145.2,311.1,146,315.4z"/>
		<path fill="#71631F" d="M160.4,418.3c0.2,0.6,0.4,1.2,0.8,1.7c-0.8,0.3-1.5,0.7-2.2,1.3c-1,0.8-1.5,1.5-1.5,2.1
			c0,0.1,0.1,0.3,0.2,0.5c0.1,0.2,0.4,0.2,0.7,0.2c0.6-0.1,1.5-0.6,2.7-1.5c0.5-0.4,1-0.8,1.3-1.1c0.4,0.4,0.9,0.8,1.5,1.1
			c-0.2,0.3-0.5,0.7-0.8,1.2c-1,1.5-1.5,2.5-1.4,3.2c0,0.3,0.3,0.3,0.9,0.2c0.7-0.1,1.4-0.9,2.2-2.4l0.6-1.5
			c0.7,0.2,1.4,0.4,2.3,0.5c-0.2,0.3-0.5,0.8-0.7,1.3c-0.7,1.4-1.1,2.4-1.2,3c0,0.2,0.1,0.3,0.2,0.4c0.1,0.1,0.4,0.2,0.7,0.1
			c0.7-0.1,1.4-0.9,2.1-2.3c0.4-0.9,0.7-1.7,0.8-2.3c1.3,0.1,2.9,0.1,4.6,0.1c4.4,0,7.3,0.2,8.9,0.6c2.8,0.8,4.5,2.5,5,5.3
			c0,0.2,0,0.5,0,0.9c-1,1.5-2.7,2.4-4.9,2.9c-6.2,1.2-13.2,0.5-21.1-2.1c-2.9-0.9-5.7-2.1-8.3-3.4c-2.2-1.1-3.8-2.1-4.9-3
			c-1.2-1-2.2-1.8-3.1-2.7c0.2-1.5,0.8-3,1.8-4.4c0.8-1.3,2.1-2.6,3.7-4.1C154.2,416.4,157.1,417.8,160.4,418.3z"/>
		<path fill="#965919" d="M157.2,431.8c4.7,1.8,9.8,3.1,15,3.8c4.6,0.6,8.3,0.6,11.1,0.1c1.7-0.3,3.1-0.8,4.2-1.6
			c-0.2,0.6-0.4,1.3-0.7,1.9c-1,0.8-2.2,1.3-3.7,1.5c-6.2,1.2-13.2,0.5-21.1-2.1c-2.9-0.9-5.7-2.1-8.3-3.4c-2.2-1.1-3.8-2.1-4.9-3
			c-1.1-0.9-2.2-1.8-3.1-2.6c-0.1-0.3-0.1-0.6-0.1-0.9C148.9,427.9,152.7,430,157.2,431.8z"/>
		<path fill="#F18B00" d="M107,276.9c-0.2,1.5-1.2,20.1-1.2,20.3c-0.1,3.8,0,7.5,0.5,11.2c0.5,3.9,1.2,7.7,2.1,11.4
			c0.8,3.1,2.1,5.8,4,8.3c0.5,0.7,1.1,1.2,1.7,1.7c3.3,2.2,6.8,4.2,10.4,5.8c3.6,1.7,6.9,3.8,9.9,6.5c2.8,2.4,5.2,5.1,7.5,8
			c0.7,0.9,1.4,1.8,2.2,2.7c2.8,3,5.6,6,8.2,9c2.7,3,5.4,5.9,8.1,8.8c2.7,2.9,4.4,5.5,5,7.9c0.7,2.4,0.9,3.9,0.9,4.6
			c-0.2,2.7-1.3,5.6-3.2,8.8c-2,3.3-4.1,6.6-6.5,10c-2.1,3.1-4.3,5.9-6.6,8.6c3.3,3.6,7.1,5.6,11.4,6c0.5-1.1,1-2.2,1.6-3.4
			c2.8-5.9,5.9-11.5,9.3-16.7c0.4-0.6,1.2-1.7,2.6-3.4c1.5-1.9,2.6-3.3,3.3-4.4c2.7-3.8,3.9-6.7,3.5-8.7c-0.4-2.3-4.8-9.2-13.1-20.7
			c-4.1-5.7-7-9.6-8.5-11.7c-2.6-3.6-3.9-5.6-4-6c-0.1-0.4-0.1-0.7-0.1-0.9c0.1-0.2,0.3-0.3,0.6-0.4c0,0,1.4,1.7,4,5.2
			c0.2,0.3,0.4,0.5,0.6,0.8c11.1,2.7,23,3,35.6,0.6c7.5-1.4,25.5-6.6,36.2-13.8c13.4-9,13.7-10.5,14-11.1l0-0.1
			c-3,1.2-6.2,2.2-9.5,2.9c-8.2,1.8-16.5,2.3-25,1.5c-8.4-0.8-16.6-2.4-24.7-4.7c-8.2-2.4-16.2-5-24.1-8.1
			c-7.9-3.1-15.6-6.8-22.9-11.1c-0.7-0.4-1.4-0.8-2.1-1.2l-0.1,0.2c-0.2,0-0.3,0-0.5,0c0.1,0.2,0.3,0.4,0.4,0.6l-0.1,0.2
			c2,1.3,3.4,2.3,4.3,3.2c1.5,1.4,2.6,2.8,3.3,4.1c0.4,0.9,0.8,1.9,1.1,3.2c4.8,13.3-5.8,16.5-11.1,17.5c-4.8,0.9-8.5,0.2-10.9-2
			c-1.5-1.4-2.5-3.2-2.9-5.5c-0.2-1.3-0.1-2.4,0.3-3.5c0.8-1.9,2.7-3.2,5.6-4c-0.3-0.5-0.5-1.1-0.7-1.6c-0.3-3.1,0.6-4.9,0.5-6.4
			c-0.2-2.7-3.1-5.9-6.5-11.3c-1.1-1.8-2.6-4.2-3.7-6.1c-0.9-1.6-1.9-3.2-2.9-4.8c-1.1-1.7-2.2-3.5-3.3-5.2c-1.4-1.4-2.7-2.7-4-4.1
			C107.1,276.1,107.1,276.5,107,276.9z"/>
	</g>
</g>
<g id="ziutek_x5F_03">
</g>
<g id="ziutek_x5F_04">
</g>
<g id="ziutek_x5F_05">
</g>
<g id="ziutek_x5F_06">
</g>
<g id="ziutek_x5F_07">
</g>
<g id="ziutek_x5F_08">
</g>
<g id="ziutek_x5F_09">
</g>
<g id="ziutek_x5F_10">
</g>
<g id="lady_x5F_01">
</g>
<g id="Layer_13">
</g>
<g id="Layer_12">
</g>
<g id="Layer_14">
</g>
<g id="Layer_15">
</g>
<g id="Layer_16">
</g>
<g id="Layer_17">
</g>
<g id="Layer_18">
</g>
<g id="Layer_19">
</g>
<g id="Layer_20">
</g>
<g id="Layer_21">
</g>
<g id="Layer_22">
</g>
<g id="Layer_23">
</g>
<g id="Layer_24">
</g>
<g id="Layer_25">
</g>
<g id="Layer_26">
</g>
<g id="Layer_27">
</g>
<g id="Layer_28">
</g>
<g id="Layer_29">
</g>
<g id="Layer_30">
</g>
<g id="Layer_31">
</g>
<g id="Layer_32">
</g>
<g id="Layer_33">
</g>
<g id="Layer_34">
</g>
<g id="Layer_36">
</g>
<g id="Layer_35">
</g>
<g id="Layer_37">
</g>
<g id="Layer_38">
</g>
<g id="Layer_39">
</g>
<g id="Layer_40">
</g>
</svg>
