<?xml version="1.0" encoding="utf-8"?>
<!-- Generator: Adobe Illustrator 18.1.1, SVG Export Plug-In . SVG Version: 6.00 Build 0)  -->
<!DOCTYPE svg PUBLIC "-//W3C//DTD SVG 1.1//EN" "http://www.w3.org/Graphics/SVG/1.1/DTD/svg11.dtd">
<svg version="1.1" xmlns="http://www.w3.org/2000/svg" xmlns:xlink="http://www.w3.org/1999/xlink" x="0px" y="0px"
	 viewBox="0 0 393 483" enable-background="new 0 0 393 483" xml:space="preserve">
<g id="ziutek_x5F_01">
</g>
<g id="ziutek_x5F_02">
</g>
<g id="ziutek_x5F_03">
</g>
<g id="ziutek_x5F_04">
</g>
<g id="ziutek_x5F_05">
</g>
<g id="ziutek_x5F_06">
</g>
<g id="ziutek_x5F_07">
</g>
<g id="ziutek_x5F_08">
</g>
<g id="ziutek_x5F_09">
</g>
<g id="ziutek_x5F_10">
</g>
<g id="lady_x5F_01">
</g>
<g id="Layer_13">
</g>
<g id="Layer_12">
</g>
<g id="Layer_14">
</g>
<g id="Layer_15">
</g>
<g id="Layer_16">
</g>
<g id="Layer_17">
</g>
<g id="Layer_18">
</g>
<g id="Layer_19">
</g>
<g id="Layer_20">
</g>
<g id="Layer_21">
</g>
<g id="Layer_22">
</g>
<g id="Layer_23">
</g>
<g id="Layer_24">
</g>
<g id="Layer_25">
</g>
<g id="Layer_26">
</g>
<g id="Layer_27">
</g>
<g id="Layer_28">
</g>
<g id="Layer_29">
</g>
<g id="Layer_30">
</g>
<g id="Layer_31">
</g>
<g id="Layer_32">
	<g>
		<g>
			<path fill="#BFBFBF" d="M279.2,291.4c-9.1-3.3-16.4,7.6-26,10c-17.2,4.3-24.5-6.7-23.5-9.1l-3.4,7.2
				c-2.1,6.5,12.7,21.3,21.4,23.1C281.9,329.4,298,298.3,279.2,291.4z"/>
			<g>
				<path fill="#1D1D1D" d="M225.3,299.7c-1.3,5.9,5.1,12.1,9,15.7c5.9,5.5,12,8,20,8.5c12,0.8,25.6-3.8,31.8-14.7
					c5.4-9.5-1.6-20.5-12.7-18.5c-2.8,0.5-5.4,2.1-7.8,3.5c-6.1,3.7-10.9,7.2-18.4,7.7c-4.7,0.3-9.4-1.1-13.1-4
					c-1.5-1.1-4-3.7-3.5-5.9c0.1-0.5-1.8-0.2-2,0.3c-0.7,2.9,3,5.9,5,7.3c4.5,3.1,10.8,3.7,16,2.7c6.8-1.2,11.7-4.5,17.4-8.2
					c7.1-4.5,16.5-3.2,18.7,5.4c3.5,13.7-14.7,22.4-25.1,23.3c-8.6,0.8-15.9-1.3-22.6-6.6c-4.4-3.5-12.3-10.7-10.8-17.1
					C227.4,298.8,225.5,299.1,225.3,299.7L225.3,299.7z"/>
			</g>
		</g>
		<g>
			<path fill="#FFFFFF" d="M152,308.3c-13.8-5.6-19.1-38.2-18.1-63.1c0.7-16.8-0.6-59.6,7.5-69c11.1-13,24.8-17.8,40.9-18.8
				c34.5-2.2,50.8,9.9,55.4,42.4c3.3,23.2,8.7,69.6-1.4,92.7c-5.2,11.8-11,15.2-22.5,18.6c-7.4,2.2-10.9,3.4-22.2,4.5
				C179.7,316.5,172.4,316.6,152,308.3z"/>
			<g>
				<path fill="#1D1D1D" d="M152.5,307.6c-9.6-4.3-12.8-17.5-14.8-26.7c-2.7-12.3-3.2-24.9-2.7-37.5c0.7-19.5-0.8-39.8,3.8-59
					c2.8-11.5,14.2-19,24.7-22.9c11.5-4.2,25-4.6,37-3.1c9.4,1.2,18.3,4.9,24.7,12.1c6.6,7.3,9.4,17.3,11,26.7
					c2.6,15.1,4,30.6,4.6,45.9c0.7,15.8,0.7,33.1-5.2,48.1c-3,7.5-7.6,13.2-15,16.6c-6.8,3.1-14.8,5-22.2,6.1
					c-6.7,1-13.7,1.6-20.5,1C169.1,314.2,160.6,310.8,152.5,307.6c-0.9-0.3-2.3,0.9-1.1,1.4c9.6,3.8,19.6,7.6,30,7.7
					c9.7,0.1,19.5-1.2,28.8-3.9c8.8-2.6,17.2-5.2,22.9-12.9c5.8-7.9,7.8-18.3,9-27.8c2.7-22.6,0.1-45.9-2.9-68.4
					c-2.3-17.3-7.2-34.8-24.2-42.9c-7.5-3.5-16-4.4-24.2-4.5c-10.4-0.2-20.9,1.1-30.6,5c-7.8,3.1-17,9.2-21.1,16.8
					c-3.7,6.8-4.1,15.8-4.7,23.4c-0.8,9.8-1,19.7-1.1,29.6c-0.1,9.2-0.6,18.4-0.3,27.6c0.4,10.8,2,21.8,5.3,32.1
					c2.3,7.1,6,14.9,13.1,18.1C152.2,309.3,153.7,308.1,152.5,307.6z"/>
			</g>
		</g>
		<path fill="#F4F4F4" d="M235.9,229.3c-3.5,23.3-6.1,40.5-26.6,56.8c-10.4,8.2-27.5,10.7-40.5,9.4c-6.5-0.6-11.6-1.7-17.9-3.5
			c-3.7-1.1-15.8-11.3-10-2.8c2,3,5.3,6.2,9.3,9.2c7.7,5.8,19,9.2,25.7,9.9c13.4,1.5,21.4,2.1,32.5-1.1
			c11.2-3.2,18.4-10.5,22.7-18.7c4.7-9,6.6-17.3,8-27.2C241.3,246.1,236,228.8,235.9,229.3z"/>
		<g>
			<g>
				<path fill="#FFFFFF" d="M231.8,146c-8.2-1-21.7,3.1-29.8,11.6l28.9,19.8C235.6,162.8,231.8,146,231.8,146z"/>
				<g>
					<path fill="#1D1D1D" d="M232,177.3c2.9-10.1,3.1-21.3,0.9-31.6c0-0.2-0.3-0.2-0.4-0.2c-11.4-1.1-23.4,4.1-31.4,12.2
						c-0.6,0.6,1.5,0.4,1.9,0c4.7-4.7,10.4-7.9,16.7-9.8c2-0.6,10.8-3.1,11.3-0.4c1.9,9.9,1.8,20.5-1.1,30.2
						C229.7,178.3,231.8,178,232,177.3L232,177.3z"/>
				</g>
			</g>
			<path fill="#FFDEEE" d="M227.7,173.4c3.2-9.7,1.7-23.1,1.7-23.1c-8.9,0.2-14.4,6.2-20.1,11.5c0,0,7.4,3.9,9.7,5.2
				C221.3,168.4,227.7,173.4,227.7,173.4z"/>
			<g>
				<path fill="#1D1D1D" d="M229.4,150.2c-8.1-0.5-15.5,5.9-20.3,11.7c-0.1,0.1,0,0.1,0,0.2c5.4,2.5,10.9,5.3,15.5,9
					c0.2,0.1,0.8-0.1,0.6-0.3c-1.5-1.2-14.6-10.1-15.5-9c4.6-5.6,11.8-11.8,19.3-11.3C229.4,150.6,229.9,150.2,229.4,150.2
					L229.4,150.2z"/>
			</g>
		</g>
		<g>
			<path fill="#FFFFFF" d="M146.7,305c4.1,26.1,6.1,31.6,15.1,32.2c9.1,0.5,9-6.7,9-21.9L146.7,305z"/>
			<g>
				<path fill="#1D1D1D" d="M145.7,305.2c1.3,8.2,2.3,16.8,5.3,24.6c1.4,3.7,3.7,6.5,7.6,7.4c3.5,0.8,7.5,0.5,10.3-1.9
					c4.6-4,3-15.2,3-20.4c0-0.4-2-0.1-2,0.5c0,5.7,0.5,12-1.3,17.5c-1.7,4.9-8.7,4.3-12.1,1.6c-2.9-2.2-4-6.4-4.9-9.8
					c-1.8-6.6-2.8-13.4-3.8-20.2C147.6,304.2,145.6,304.7,145.7,305.2L145.7,305.2z"/>
			</g>
		</g>
		<g>
			<path fill="#FFFFFF" d="M204.3,314.3c0.8,14.8-0.2,22,11.3,22.8c9.3,0.6,9.3-7.6,14.1-33.6L204.3,314.3z"/>
			<g>
				<path fill="#1D1D1D" d="M228.7,303.6c-1.3,6.9-2.4,13.9-3.8,20.8c-0.8,3.7-1.6,8.4-4.5,11.1c-3.8,3.7-11.3-0.1-13.2-4.1
					c-2.4-5-1.7-12-1.9-17.4c0-0.4-2,0-2,0.5c0.3,6.2-0.8,15.1,3.7,20.1c2.7,3.1,8.5,3.4,12.2,2.4c3.5-1,5.1-4.1,6.2-7.4
					c2.8-8.4,3.7-17.7,5.3-26.4C230.8,302.8,228.8,303.1,228.7,303.6L228.7,303.6z"/>
			</g>
		</g>
		<g>
			<g>
				<path fill="#FFFFFF" d="M142.2,148.9c-3,6.2-4.3,19.7-1.8,30.4l26.3-19.5C160.3,152.9,152.4,150.6,142.2,148.9z"/>
				<g>
					<path fill="#1D1D1D" d="M167.6,159.4c-6.7-6.9-15.4-9.3-24.6-10.9c-0.5-0.1-1.6,0-1.8,0.6c-4.2,9.2-3.8,20.8-1.8,30.5
						c0.1,0.5,2.1,0,2-0.5c-2-9.6-2.4-21.1,1.8-30.3c-0.6,0.2-1.2,0.4-1.8,0.6c9.1,1.6,17.7,4,24.4,10.8
						C166.1,160.5,168,159.7,167.6,159.4L167.6,159.4z"/>
				</g>
			</g>
			<path fill="#FFDEEE" d="M159.3,163.1c-1.4-6-15.5-11.9-15.5-11.9c-3.1,8.8-1.1,20.2-0.1,24.8c0,0,4.7-5.1,6.6-6.6
				C152.3,167.7,159.3,163.1,159.3,163.1z"/>
			<g>
				<path fill="#1D1D1D" d="M144,151.4c3.9,1.7,7.4,4,10.5,6.9c1.5,1.4,2.6,3.1,3.5,4.9c0.6,1.3,0,1.1-1,1.8
					c-4.2,2.8-9,5.7-12.2,9.7c-0.2,0.2,0.5,0.2,0.6,0c3.5-4.3,8.9-7.5,13.5-10.5c0.1,0,0.2-0.1,0.1-0.2c-2.1-6.3-8.6-10.5-14.4-13
					C144.3,150.9,143.7,151.2,144,151.4L144,151.4z"/>
			</g>
		</g>
		<g>
			<path fill="#F9F9F9" d="M168.8,297c-6.9-4.7-8.3-24.7-5.1-30.9c5-11.1,20.2-12.3,30.7-10.6c15.4,3,18.5,11,17,25.2
				c-0.4,5.5-0.2,15.6-4.2,19C201.3,304.8,179.5,304.4,168.8,297z"/>
			<path fill="#FFFFFF" d="M205.4,265.5c-0.1-0.2-0.2-0.5-0.4-0.7c-4.4-8.2-17.8-10.8-25.1-6.9c-7.5,3.9-13.5,8.6-12.8,23.1
				c0.5,10.3,13.4,19.9,23,17.8C202.4,296,211.4,278.5,205.4,265.5z"/>
			<g>
				<path fill="#1D1D1D" d="M165.2,292.7c-3.9-11.2-4.1-27.1,6.2-34.9c5.7-4.3,14.9-4.2,21.7-3.2c6.4,0.9,12.2,4,14.9,10.1
					c2,4.7,2.3,10.2,2.4,15.2c0.1,4.3,0.6,11.6-2.2,15.3c-2.7,3.7-8.5,5.1-12.8,5.9c-8.2,1.5-16.7,0.2-24.7-1.8
					c-0.2,0-0.8,0.2-0.5,0.3c11.4,2.8,26.1,4.7,36.5-2.4c3.9-2.7,3.9-7.4,4.2-11.7c0.6-7.2,0.2-15.2-2.7-22
					c-4.6-10.7-23-11.6-32.4-8.1c-14.9,5.6-15.8,24.6-11.3,37.6C164.6,293,165.3,292.8,165.2,292.7L165.2,292.7z"/>
			</g>
			<path fill="#1D1D1D" d="M188.1,275.6c-0.2-1.2-1.5-0.7-1.9,0.1c-0.5,1,0.3,2.1,1.4,1.4C188,276.8,188.2,276.1,188.1,275.6z"/>
		</g>
		<g>
			<g>
				<path fill="#E8E8E8" d="M190.1,219.5c-0.1-1.4-0.8-0.2-2.2-1c0,0,0,0,0,0c-0.1-0.2-0.2-0.3-0.4-0.4c-1.4-0.9-2.7-0.7-3.4,0.4
					c-0.2,0.1-1.7,0.4-1.9,0.7c-1.9,3.5-1.6,11.4,3.4,11.4C191.3,230.6,190.3,221.4,190.1,219.5z"/>
				<path fill="#D385AE" d="M183.4,220.5c0,0-0.9,8.3,2.1,8.6c3,0.3,3.2-8.1,3.2-8.1s-1-0.6-1.7-1.5c-0.6-0.9-0.8-2.3-1.2-3
					c-0.4-0.7-0.6,1.1-1.1,2.1C184.2,219.8,183.4,220.5,183.4,220.5z"/>
				<path fill="#E8E8E8" d="M195.1,215.1c-1.6-2.3-4.2-2.9-6.6-2c-1.2,0.5-3,2.4-2.4,3.9c0,0,0-0.1,0-0.1c-1.3-3.1-4.4-5.2-7.8-3.5
					c-2.2,1.1-3,3.5-2.6,5.9c0.7,4.3,5.9,4.7,8.5,2c0.8-0.8,1.4-2.3,1.6-3.3c0.1,0.1,0.8,1.6,0.9,1.8c0.2,2,1.1,3.8,5.7,3.7
					c1.3-0.1,2.5-1.6,3.2-2.7C196.5,219,196.6,217.2,195.1,215.1z"/>
				<g>
					<path fill="#1D1D1D" d="M175.4,219.5c0,3.2,4,4.4,6.7,3.5c3.3-1.1,3.8-3.1,3.9-6.4c0-0.2-0.8-0.1-0.8,0.2
						c-0.1,2.1-0.1,4.1-2.1,5.3c-2.5,1.4-6.8,0.4-6.8-2.9C176.3,219,175.4,219.2,175.4,219.5L175.4,219.5z"/>
				</g>
				<g>
					<path fill="#1D1D1D" d="M185.3,217c-0.1,3.2,1,6.4,4.7,6.7c2.8,0.2,5.3-1,6.1-3.8c0.1-0.3-0.7-0.2-0.8,0.1
						c-0.8,2.7-3.4,3.7-6,2.9c-2.8-0.8-3.2-3.6-3.1-6C186.1,216.5,185.3,216.7,185.3,217L185.3,217z"/>
				</g>
				<g>
					<path fill="#545454" d="M130.7,224c12-5.7,25.7-6.1,38.5-3.2c0.3,0.1,1-0.4,0.5-0.5c-13.1-2.9-27.1-2.5-39.4,3.3
						C129.8,223.8,130.3,224.2,130.7,224L130.7,224z"/>
				</g>
				<g>
					<path fill="#545454" d="M133.3,214.3c12.5-2.3,24.2-0.1,36.2,3.6c0.2,0.1,0.9-0.3,0.7-0.3c-12.2-3.8-24.1-5.9-36.7-3.6
						C133.1,214,132.7,214.4,133.3,214.3L133.3,214.3z"/>
				</g>
				<g>
					<path fill="#545454" d="M241.6,226.8c-13.2-6.7-26.7-8.4-41.3-6.2c-0.4,0.1-0.7,0.4-0.1,0.3c14.3-2.1,27.7-0.4,40.6,6.2
						C241,227.2,241.7,226.9,241.6,226.8L241.6,226.8z"/>
				</g>
				<g>
					<path fill="#545454" d="M242.2,217.6c-14.4-3.5-27.7-3-42.1,0c-0.5,0.1-0.4,0.7,0.2,0.6c14.2-2.9,27.3-3.4,41.5,0
						C242.1,218.2,242.7,217.7,242.2,217.6L242.2,217.6z"/>
				</g>
				<g>
					<path fill="#FF99C3" d="M185.7,216.9c0.9,0.1,4.3-2.6,3.5-3.7c-1.1-1.5-5.5-1.3-6.2,0C182,214.7,185.3,216.8,185.7,216.9z"/>
					<g>
						<path fill="#1D1D1D" d="M185.4,217.2c1.6,0,3.3-1.6,4.1-2.9c1.1-1.8-1.5-2.5-2.8-2.5c-1.4-0.1-4.1,0.1-4.6,1.8
							c-0.3,1.4,1.9,3.2,3.1,3.6c0.3,0.1,1.4-0.4,0.7-0.6c-0.8-0.2-1.7-1.2-2.2-1.8c-1.3-1.6,0.4-2.3,1.8-2.4c0.9,0,3.3,0.2,2.9,1.6
							c-0.2,0.8-1.8,2.5-2.7,2.5C185.5,216.6,184.6,217.2,185.4,217.2z"/>
					</g>
				</g>
			</g>
			<g>
				<path fill="#1D1D1D" d="M160.5,175.8c1.9-2,4.1-2.5,6.6-1.5c0.4,0.1,1.6-0.4,1.1-0.6c-3.3-1.2-6.6-0.4-9,2.2
					C158.9,176.3,160.3,176.1,160.5,175.8L160.5,175.8z"/>
			</g>
			<g>
				<path fill="#1D1D1D" d="M207.2,173.2c1.3-0.8,4.1-0.1,5.1,0.9c0.6,0.6,2.5-0.2,1.8-0.8c-1.9-1.9-6-2.2-8.3-0.9
					c-0.3,0.2-0.5,0.7-0.1,0.9C206.2,173.6,206.8,173.5,207.2,173.2L207.2,173.2z"/>
			</g>
			<g>
				<g>
					<path fill="#1D1D1B" d="M157.1,185.6c1.5-1.1-1.5,0.3-3.7-0.3c-2.7-0.8-3.9-3.9-4.9-2.8c-0.9,1,1.6,3.4,4.3,4.2
						C154.4,187.2,157.1,185.6,157.1,185.6z"/>
					<path fill="#1D1D1B" d="M154,187.1c0.8-1.4-0.5,0.6-2.9,0.5c-2.4-0.1-4.2-2.7-4.6-1.5c-0.4,1.1,3.2,3.3,5.6,3
						C153.4,188.9,154,187.1,154,187.1z"/>
				</g>
				<g>
					<g>
						<path fill="#FFFFFF" d="M151.9,205.8c5.9,11.1,23.6,4.3,25,2c4.4-7.1-3.3-25.9-20.4-22.3C154.9,185.8,145.7,194.2,151.9,205.8
							z"/>
						<g>
							<path fill="#1D1D1D" d="M151.1,206.1c4.6,7.8,14.2,7.2,21.7,4.6c6.8-2.4,7.3-8.3,4.8-14.6c-3.4-8.8-12.2-12.7-21.1-11.1
								c-2.4,0.4-4.2,3.2-5.4,5.1c-3.2,5-2.6,10.9-0.2,16c0.3,0.6,2.1,0.1,1.8-0.5c-2-4.2-2.7-8.3-1.2-12.8c0.8-2.7,3.1-6.5,6.1-7
								c8.1-1.5,15.1,3.6,18.2,10.8c2.1,4.9,2.4,10.8-3,13.1c-6.9,2.9-15.9,2.9-20.1-4.2C152.4,204.9,150.7,205.5,151.1,206.1z"/>
						</g>
					</g>
					<circle fill="#1D1D1D" cx="164.5" cy="197.3" r="4.9"/>
				</g>
			</g>
			<g>
				<g>
					<path fill="#1D1D1B" d="M215,185.3c-1.5-1.1,1.5,0.3,3.7-0.3c2.7-0.8,3.9-3.9,4.9-2.8c0.9,1-1.6,3.4-4.3,4.2
						C217.7,186.9,215,185.3,215,185.3z"/>
					<path fill="#1D1D1B" d="M218.1,186.8c-0.8-1.4,0.5,0.6,2.9,0.5c2.4-0.1,4.2-2.7,4.6-1.5c0.4,1.1-3.2,3.3-5.6,3
						C218.6,188.6,218.1,186.8,218.1,186.8z"/>
				</g>
				<g>
					<g>
						<path fill="#FFFFFF" d="M220.2,205.4c-5.9,11.1-23.6,4.3-25,2c-4.4-7.1,3.3-25.9,20.4-22.3
							C217.2,185.5,226.3,193.8,220.2,205.4z"/>
						<g>
							<path fill="#1D1D1D" d="M219.3,205.3c-4.2,7.1-13.2,6.3-19.9,3.7c-5.6-2.2-5.1-8-3.2-13c2.9-7.5,10.1-11.4,17.9-10.5
								c2.8,0.3,4.5,3.2,5.7,5.4C222.3,195.6,221.5,200.8,219.3,205.3c-0.5,0.9,1.4,1,1.7,0.2c2.2-4.6,3.1-9.7,0.8-14.4
								c-1-2.1-3.2-6.2-5.9-6.7c-9.4-1.7-17.7,2.6-21.5,11.4c-1.4,3.1-1.8,6.7-1,10c0.7,2.8,3.1,3.8,5.6,4.8
								c7.6,2.9,17.4,2.7,21.9-5C221.6,204.7,219.7,204.6,219.3,205.3z"/>
						</g>
					</g>
					<circle fill="#1D1D1D" cx="209.3" cy="196.1" r="4.9"/>
				</g>
			</g>
		</g>
		<g>
			<path fill="#D8D8D8" d="M199,159.1c-10.4-2.8-24.7,0.3-26.3,0.8c-0.8,0.3,1,8.1,13.4,8.7C196.1,169.1,202,159.9,199,159.1z"/>
			<g>
				<path fill="#1D1D1D" d="M171.9,160.5c3.6,12.6,23.3,9.6,28.3-0.2c0.1-0.2-0.7-0.1-0.8,0.1c-3.4,6.6-10.1,8.4-17,7.5
					c-4.6-0.6-8.4-3.1-9.7-7.7C172.6,160,171.9,160.2,171.9,160.5L171.9,160.5z"/>
			</g>
		</g>
		<g>
			<path fill="#FFFFFF" d="M240,224.8l1.7,26.7c16.4,15.6,23.1,18.3,27.3,11C274.2,253.6,250.4,234.7,240,224.8z"/>
			<g>
				<path fill="#1D1D1D" d="M240.7,251.9c5.7,5.4,22.8,23.8,29.7,9.8c2.8-5.8-5.3-14-8.6-17.7c-6.4-7.1-13.8-13.1-20.7-19.7
					c-0.5-0.5-2.6,0.3-2,0.8c9.6,9.1,21.7,17.7,28.1,29.5c2.4,4.5,1.4,12.7-5.6,10.6c-7.2-2.2-13.5-9.3-18.8-14.3
					C242.2,250.5,240.2,251.3,240.7,251.9L240.7,251.9z"/>
			</g>
		</g>
		<g>
			<path fill="#FFFFFF" d="M106.9,266.5c4.5,7.1,11.1,4,26.8-12.2l0.6-26.7C124.3,237.9,101.4,257.8,106.9,266.5z"/>
			<g>
				<path fill="#1D1D1D" d="M132.8,254c-5.2,5.3-11.1,12.4-18.3,15c-6.1,2.2-8.1-5.4-6.5-9.7c2.4-6.5,7.9-11.9,12.6-16.8
					c4.7-5,9.8-9.7,14.6-14.7c0.9-1-1.2-1.2-1.8-0.5c-6.3,6.5-13,12.7-19,19.6c-4.1,4.6-10.1,11.3-9.3,18c0.6,4.4,5.3,6.4,9.1,5.7
					c7.9-1.6,15.2-10.6,20.4-16C135.5,253.6,133.4,253.4,132.8,254L132.8,254z"/>
			</g>
		</g>
	</g>
</g>
<g id="Layer_33">
</g>
<g id="Layer_34">
</g>
<g id="Layer_36">
</g>
<g id="Layer_35">
</g>
<g id="Layer_37">
</g>
<g id="Layer_38">
</g>
<g id="Layer_39">
</g>
<g id="Layer_40">
</g>
</svg>
