<?xml version="1.0" encoding="utf-8"?>
<!-- Generator: Adobe Illustrator 18.1.1, SVG Export Plug-In . SVG Version: 6.00 Build 0)  -->
<!DOCTYPE svg PUBLIC "-//W3C//DTD SVG 1.1//EN" "http://www.w3.org/Graphics/SVG/1.1/DTD/svg11.dtd">
<svg version="1.1" xmlns="http://www.w3.org/2000/svg" xmlns:xlink="http://www.w3.org/1999/xlink" x="0px" y="0px"
	 viewBox="0 0 393 483" enable-background="new 0 0 393 483" xml:space="preserve">
<g id="ziutek_x5F_01">
</g>
<g id="ziutek_x5F_02">
</g>
<g id="ziutek_x5F_03">
</g>
<g id="ziutek_x5F_04">
</g>
<g id="ziutek_x5F_05">
</g>
<g id="ziutek_x5F_06">
</g>
<g id="ziutek_x5F_07">
</g>
<g id="ziutek_x5F_08">
</g>
<g id="ziutek_x5F_09">
</g>
<g id="ziutek_x5F_10">
</g>
<g id="lady_x5F_01">
</g>
<g id="Layer_13">
</g>
<g id="Layer_12">
</g>
<g id="Layer_14">
</g>
<g id="Layer_15">
</g>
<g id="Layer_16">
</g>
<g id="Layer_17">
</g>
<g id="Layer_18">
</g>
<g id="Layer_19">
</g>
<g id="Layer_20">
</g>
<g id="Layer_21">
</g>
<g id="Layer_22">
</g>
<g id="Layer_23">
</g>
<g id="Layer_24">
</g>
<g id="Layer_25">
</g>
<g id="Layer_26">
</g>
<g id="Layer_27">
	<g>
		<g>
			<path fill="#FFFFFF" d="M250,216.2l1.7,10.2c6.5,6.5,17.6,16,22.6,16.5c1.5-0.7,1.9-1.9,1.8-3.5c0.7,3.3,1.6,8.2,4.6,9.5
				c0.1-0.5,1.5-1.4,1.7-2.3c0,2.1,0.3,8.9,3.6,10.2c4.9,1.2,6.5-3.1,7.4-7c2.6-8.6,4-18.5,3.9-27.3
				C297.1,196.6,266.7,209.6,250,216.2z"/>
			<path fill="#EFEFEF" d="M272.4,238.4c2.4-0.3,2.8-4.7,4.2-1.5c0.8,1.9,1.6,8.2,3.9,8.8c0.7,0.2,2.3-1.8,1.9-2.3
				c2.5,2.6,1,12,5.3,12.2c3.1,0.2,4.8-6.7,2.2-6.9c-6.5-0.4-2.1-20-4.8-21c-2.8-1-3.4,0.9-4.7,2.7c-2,2.9-0.9-9.9-10.8-7.6
				C264.1,224.2,263.4,239.6,272.4,238.4z"/>
			<g>
				<path fill="#1D1D1D" d="M252.3,226.3c2.9,6.3,11.4,11.1,17,14.9c3.2,2.1,7.3,2.8,7.4-2.2c0-0.3-0.5-0.1-0.6,0.1
					c-1.7,6.4-8.6-0.1-11.1-1.9c-4.6-3.4-8.6-6.8-12.5-11C252.4,226.2,252.2,226.3,252.3,226.3L252.3,226.3z"/>
			</g>
			<g>
				<path fill="#1D1D1D" d="M276.4,240.2c0.3,2.8,0.5,7.4,3.6,8.7c2.6,1.1,3.7-2.7,3.2-4.6c-0.1-0.3-0.6-0.1-0.7,0.1
					c-0.2,1-0.2,2.1-0.6,3.1c-0.8,2.1-2.8,0.1-3.5-1c-1.2-1.9-1.3-4.2-1.9-6.3C276.6,240,276.4,240.1,276.4,240.2L276.4,240.2z"/>
			</g>
			<g>
				<path fill="#1D1D1D" d="M282.5,247c-0.1,2.8-0.2,8.5,3.1,9.8c1.8,0.7,3.6,0.7,5-0.9c3-3.5,3.8-8.4,4.8-12.7
					c1.5-6.4,2.4-12.9,2.2-19.5c-0.2-5.4-1.4-12-6.1-15.4c-3.1-2.2-7.8-1.9-11.4-1.5c-4.9,0.6-10,2.1-14.7,3.5
					c-4.8,1.4-10.5,3.2-14.4,6.4c-0.3,0.3,0.4,0.2,0.6,0.1c7-4.8,16-6.6,24.1-8.6c4.7-1.1,9.4-2,14.1-0.2c4.4,1.7,5.8,7.2,6.6,11.3
					c1.6,8.3-0.1,17.2-2.1,25.3c-0.8,3.3-1.6,6.6-3.3,9.5c-2.1,3.9-5.8,1.9-7.1-1c-0.8-1.9-1-4.3-0.9-6.4
					C282.9,246.8,282.5,246.9,282.5,247L282.5,247z"/>
			</g>
			<g>
				<path fill="#1D1D1D" d="M287.3,230c0.1,2.3-1.8,11.1-5.7,7c-2-2.1-1-6.3-0.7-8.7c0-0.2-0.5-0.1-0.5,0.1
					c-0.8,2.5-1.7,9.9,2.5,9.8c4-0.1,4.9-5.1,4.5-8.2C287.4,229.9,287.3,230,287.3,230L287.3,230z"/>
			</g>
			<g>
				<path fill="#1D1D1D" d="M280.5,228.7c-0.7,2.9-2.9,6.7-6.2,4.1c-2.4-1.8-2.6-5.1-2.4-7.8c0-0.2-0.4-0.1-0.5,0.1
					c-0.9,3.2,0.3,7.6,3.7,8.8c3.3,1.2,5.1-2.6,5.7-5.2C280.9,228.5,280.6,228.6,280.5,228.7L280.5,228.7z"/>
			</g>
			<g>
				<path fill="#1D1D1D" d="M290.1,241.7c0.1,1.7-0.7,5.1-3.1,3.5c-0.9-0.7-1.4-1.8-1.6-2.9c-0.2-0.8-0.2-1.6-0.1-2.4
					c0-1,0.4-2,0.4-3c0-0.1-0.3,0-0.4,0.1c-0.9,1.7-0.9,4.5-0.3,6.3c0.4,1.1,1.1,2.2,2.3,2.5c0.8,0.3,1.8,0,2.4-0.6
					c1-0.9,1.1-2.4,1-3.6C290.6,241.5,290.1,241.6,290.1,241.7L290.1,241.7z"/>
			</g>
			<g>
				<path fill="#1D1D1D" d="M286.2,222.7c-2.5,5.9-6,2.2-6.3-0.7c0-0.2-0.4,0-0.4,0.1c-1.1,2.3-4.2,1.9-5.1-0.1
					c-0.3-0.7-0.4-1.5-0.4-2.3c0-0.2-0.5,0-0.6,0.1c-0.9,2.7-2.9,3.7-6.2,2.9c-0.1,0-0.5,0.1-0.3,0.2c2.5,1.4,5.4,0,6.8-2.2
					c-0.1,0.2-0.5-2.2-0.1,0.6c0.1,0.9,0.6,1.5,1.1,2.2c0.7,0.9,2,0.9,2.9,0.7c0.6-0.1,1.4-0.5,1.7-1c0.6-0.8,0.4,0.4,0.8,1.3
					c0.3,0.7,0.9,1,1.5,1.3c2.3,1.3,4.2-1.2,4.9-3C286.5,222.5,286.3,222.6,286.2,222.7L286.2,222.7z"/>
			</g>
		</g>
		<g>
			<path fill="#FFFFFF" d="M120.9,211.1c-3.1,8.3-5.1,18-5.6,27c-0.5,4-0.4,8.6,4.6,9.1c3.5-0.1,6.2-6.4,6.9-8.3
				c-0.1,1,0.9,2.3,0.8,2.8c3.3-0.2,5.7-4.5,7.5-7.4c-0.7,1.4-0.7,2.7,0.5,3.9c4.9,1.2,18.6-3.9,26.9-7.8l5.1-9
				C154.1,209.7,130,187.1,120.9,211.1z"/>
			<path fill="#EFEFEF" d="M146.8,221.1c-8.6-5.6-11.9,6.8-12.8,3.4c-0.5-2.1-0.5-4.1-3.5-4.1c-2.9,0-5.4,20-11.7,18.1
				c-2.6-0.8-3.3,6.3-0.3,7.2c4.2,1.2,5.9-8.1,9.2-9.7c-0.5,0.4,0.3,2.7,1,2.8c2.4,0.2,5.3-5.5,6.7-6.9c2.4-2.5,1.3,1.7,3.4,2.9
				C147,239,151.5,224.2,146.8,221.1z"/>
			<g>
				<path fill="#1D1D1D" d="M161.8,230.2c-5.1,3-10.4,4.6-16,6.3c-4,1.2-11.1,4.3-10.5-2.4c0-0.3-0.5-0.1-0.6,0.1
					c-1.8,5.3,3.2,5,6.8,4.1c6.6-1.6,15.4-3.4,20.5-8C162.1,230.2,161.9,230.2,161.8,230.2L161.8,230.2z"/>
			</g>
			<g>
				<path fill="#1D1D1D" d="M134.4,235c-1.3,2-2.4,4.2-4.3,5.7c-1.3,1-2.9,0.9-3.2-0.9c-0.1-1.1,0.3-2.1,0.5-3.1
					c0.1-0.3-0.5-0.1-0.6,0c-1,1.6-1.5,5.8,1.5,5.1c3.4-0.7,4.8-4.1,6.3-6.9C134.6,234.9,134.4,234.9,134.4,235L134.4,235z"/>
			</g>
			<g>
				<path fill="#1D1D1D" d="M126.1,239.4c-0.5,1.5-1.1,2.8-2,4.3c-2,3.5-6.7,3.9-7.8,0c-0.8-2.9-0.3-6.2-0.1-9.1
					c0.6-7.5,2.1-15,4.9-22c2.5-6.1,6.8-13.2,14.9-11.9c4.6,0.7,8.5,3.9,12.3,6.3c6.4,4.1,13,8.8,17.6,14.9c0.1,0.2,0.8,0,0.7-0.2
					c-2.6-4.8-8.1-8.6-12.4-11.8c-4.5-3.3-9.5-6.7-14.7-8.8c-9.7-3.9-15.7,3.4-19.3,11.7c-2.6,6-3.7,12.6-4.6,19
					c-0.6,4.2-1.3,9,0,13.1c0.8,2.6,3.2,3.1,5.5,2.4c3.1-0.9,4.6-5.3,5.4-7.9C126.6,239.1,126.1,239.2,126.1,239.4L126.1,239.4z"/>
			</g>
			<g>
				<path fill="#1D1D1D" d="M127.7,221.8c-1.1,2.3-2.6,9.5,1.9,9.3c3.8-0.2,5.2-5.6,5.2-8.7c0-0.1-0.5,0-0.5,0.1
					c-0.5,2.4-1.5,9.3-5.3,8c-3.2-1.1-2.1-6.6-1.2-8.8C127.8,221.7,127.7,221.7,127.7,221.8L127.7,221.8z"/>
			</g>
			<g>
				<path fill="#1D1D1D" d="M134.3,222.8c-0.5,3,0.2,7,4,6.6c3.4-0.3,5.9-4,6.1-7.1c0-0.2-0.4-0.1-0.5,0.1c-0.7,2.9-2.2,6.2-5.5,6.7
					c-3.6,0.6-4-3.9-3.8-6.4C134.6,222.6,134.3,222.7,134.3,222.8L134.3,222.8z"/>
			</g>
			<g>
				<path fill="#1D1D1D" d="M120.7,231.7c-0.9,1.9-0.9,5.2,2,4.8c1.1-0.1,2.1-0.8,2.8-1.7c1.2-1.4,2.2-4.1,1.9-6
					c0-0.1-0.3,0-0.4,0.1c-0.6,1.7-0.6,3.4-1.5,5.1c-0.6,1-1.6,2.3-2.9,2.3c-2.5,0-2-3.3-1.3-4.7
					C121.3,231.5,120.7,231.6,120.7,231.7L120.7,231.7z"/>
			</g>
			<g>
				<path fill="#1D1D1D" d="M131,215.2c0.1,2.1,1.3,5.1,4,4.2c0.8-0.3,1.7-0.6,2.2-1.4c0.8-1.2,0.5,0.8,1.6,1.4
					c2.4,1.4,4.3-0.3,5.5-2.5c-0.5,1,0,2.4,1.2,3.7c1,1.1,2.5,1.4,3.9,1.2c0.2,0,0.3-0.2,0.1-0.2c-2.9,0.2-5.2-2.2-5-5
					c0-0.3-0.5-0.1-0.6,0.1c-1.2,3.4-5.5,3.7-5.9,0.1c0-0.2-0.4,0-0.5,0.1c-0.9,2-3.5,3.3-5.3,1.3c-0.7-0.8-0.7-2-0.8-3
					C131.3,215.1,131,215.1,131,215.2L131,215.2z"/>
			</g>
		</g>
		<g>
			<path fill="#FFB24D" d="M162.4,308.5c-1.1,26.8-2,33.8,7.8,34.9c7.1,0.8,12.4-1.4,16.9-25.5L162.4,308.5z"/>
			<g>
				<path fill="#1D1D1D" d="M161.3,308.6c-0.4,9-1.6,18.6-0.1,27.6c0.7,4.1,3.1,7,7.3,7.7c14.9,2.5,17.6-15.1,19.6-26.2
					c0.2-1-2-0.7-2.2,0.2c-1.8,9.4-4,27.9-17.6,24.3c-4.1-1.1-4.9-5.2-5.3-8.9c-0.9-8.2,0.1-16.7,0.4-24.9
					C163.6,307.4,161.4,307.7,161.3,308.6L161.3,308.6z"/>
			</g>
		</g>
		<g>
			<path fill="#E57F23" d="M300.2,260.7c-10.5,1.2,1.8,20-16.1,28.8c-17.4,8.6-24.1-4.5-24.7-9.7l-0.1,13.4
				c4.4,7,16.4,10.6,27.8,9.3C314.9,299.3,321.2,258.3,300.2,260.7z"/>
			<g>
				<path fill="#1D1D1D" d="M258.2,293.5c8.8,12.7,31.6,12.6,43.1,3.8c8.8-6.8,16.5-21.3,10.4-32.2c-2.3-4.1-6.8-5.2-11.1-4.8
					c-4.9,0.4-6.2,4-6.6,8.3c-0.3,3.7-0.4,7.3-1.6,10.9c-2.2,6.7-8.8,10.7-15.4,12.1c-8,1.8-15.5-4.3-16.6-12.2
					c-0.1-0.4-2.3,0-2.2,0.6c1.8,12.6,14.7,14.4,24.6,10.4c6.1-2.5,10.5-6.8,12.3-13.2c1.2-4.6-0.9-16,5.9-16.2
					c13.2-0.5,11.1,17.2,7.6,24.9c-3.1,6.8-8.8,12.3-15.8,14.9c-10.1,3.8-26.1,1.4-32.6-8C260,292.4,258.1,293.2,258.2,293.5
					L258.2,293.5z"/>
			</g>
		</g>
		<g>
			<path fill="#FFB24D" d="M156.4,301.6c-19.5-22.5-11-48.4-8-75.4c2-18.2,1.1-44.6,10.1-56.7c12.1-16.4,17.9-15,29.3-15.7
				c6.9-0.4,9.8-2.6,18.9-2.4c12.6,0.4,20.1,0.1,28.6,5c17.4,10,21.2,21.7,25,47.3c4.3,28.7,8.8,98.3-13.9,112.4
				c-12.4,7.7-29.9,7.7-38.4,5.8C192.9,319,168.7,315.8,156.4,301.6z"/>
			<g>
				<path fill="#1D1D1D" d="M157.4,301.2c-18.9-22.5-10.6-50.2-7.8-76.5c2.5-23.3-0.7-51.2,20.8-66.7c4.1-2.9,9-3.3,13.8-3.5
					c5-0.2,9.6-1.2,14.5-2.1c6.8-1.2,14.3-0.5,21.1,0.1c6.5,0.6,12.1,2.8,17.6,6.3C255,170,257.6,190.9,260,210
					c2,15.6,2.9,31.3,2.7,47c-0.2,15.5-1.3,32.2-7.5,46.7c-3,7-7.5,11.7-14.6,14.8c-9.6,4.2-21.6,5-31.9,2.8
					C190.8,317.6,170.4,315.6,157.4,301.2c-0.4-0.5-2.5,0.3-2,0.8c7.4,8.2,17.8,12.5,28.2,15.4c9.3,2.6,19.2,4.7,28.9,5.7
					c16.5,1.8,36.1-2.3,44.1-18.2c8.2-16.3,8.4-37,8.3-54.9c-0.1-19.1-1.8-38.4-5.2-57.2c-1.7-9-4.2-18.1-9.7-25.5
					c-5.5-7.3-14.4-13-23.4-15c-9.8-2.2-21.6-2.2-31.4-0.1c-7.9,1.7-16.3,0.4-23.7,3.9c-8.4,3.9-15.2,13.4-18.2,21.9
					c-4,11.3-4.2,24-4.9,35.8c-0.8,12.7-2.9,25.1-4.4,37.7c-1.5,11.9-1.8,24.1,2.4,35.5c2,5.6,5.3,10.6,9.1,15.1
					C155.8,302.5,157.8,301.8,157.4,301.2z"/>
			</g>
		</g>
		<path fill="#F9A138" d="M258.5,223.2c-0.2-0.6-1.8,9.2-1.8,13.8c0,25.7-1.9,41.3-25.5,57.5c-11.9,8.2-33.4,6-47.5,3.7
			c-7-1.2-13.7-3.4-20.4-5.8c-3.9-1.4-15.8-8.9-10.4,0.9c1.7,3.1,4.8,7.3,7.5,9.5c5.7,4.6,20.6,9.8,27.8,11c7,1.2,34.5,6.8,44.8,1.8
			c11.4-5.6,20-7.2,24-20.2c3.3-10.6,3.7-23.4,4.5-34.2C262.8,243.9,261.5,231.7,258.5,223.2z"/>
		<path fill="#E57F23" d="M261.8,236.3c-2.1,3.7-7.2,8-10.5,10.7c-10,8.2-13.4,6.9-10.7,8.7c0.4,0.3,21.3,0.1,21.7-9.1L261.8,236.3z
			"/>
		<path fill="#E57F23" d="M262,262.7c-2.7,3.3-10.1,8.4-14,10.2c-9.8,4.7-17.7,2.3-15.3,4.4c0.4,0.3,15.2,9.1,28.6-1.9L262,262.7z"
			/>
		<path fill="#E57F23" d="M257.6,294c-5.9,1.1-14.7,1.9-19,2.3c-12.8,1.3-18.2-2.6-17,0.3c0.2,0.5,8.4,9.3,32.2,7.5
			c0,0,1.6-3.5,2-4.6C256.4,298.1,257.6,294,257.6,294z"/>
		<g>
			<path fill="#FFB24D" d="M258,143.1c0,0-14.8-0.9-24.4,11.9l20.5,23.3C258.3,167,261.1,155.6,258,143.1z"/>
			<g>
				<path fill="#1D1D1D" d="M234.5,155.3c5.5-6.9,13.4-11.1,22.2-11.4c1.5-0.1,0.7,1.9,0.9,3.2c0.6,3.5,0.6,7.1,0.4,10.6
					c-0.4,7-2.6,13.9-5,20.4c-0.4,1.2,1.7,1.2,2.1,0.3c4.3-11.6,6.7-23.3,3.9-35.6c-0.1-0.3-0.4-0.5-0.7-0.5
					c-10-0.5-19.6,4.7-25.6,12.4C231.8,155.7,233.9,156.1,234.5,155.3L234.5,155.3z"/>
			</g>
		</g>
		<path fill="#FFF3E3" d="M240.4,162.5c6.9-12.9,15-17.3,15-17.3c2.9,8,0.5,23.1-3.7,30.1L240.4,162.5z"/>
		<g>
			<path fill="#1D1D1D" d="M240.4,161.8c5.1-6.7,9.7-13.7,16.6-18.8c0.3-0.2-0.4-0.2-0.6-0.1c-6.9,5.1-11.5,12.2-16.7,18.9
				C239.6,162.1,240.3,162,240.4,161.8L240.4,161.8z"/>
		</g>
		<g>
			<path fill="#E57F23" d="M259.9,210.1c-1.7,3.9-4.4,9.5-7.4,12.6c-8.9,9.3-15.6,9.9-12.7,11.3c0.4,0.2,22.7-3.3,22-12.5
				L259.9,210.1z"/>
			<g>
				<path fill="#1D1D1D" d="M258.9,211.4c-1.8,5.3-6.5,10.1-10.1,14.2c-1.8,2-3.9,4.2-6.3,5.6c-1.1,0.6-3.3,1.3-3.8,2.7
					c0,0,0,0,0,0.1c1.6,1.7,7.7-0.8,9.4-1.4c4.7-1.5,10.5-3.9,13.7-7.8c0.1-0.2-0.5-0.1-0.7,0.1c-2.1,2.6-5,3.8-7.8,5.3
					c-1.8,0.9-3.6,1.6-5.5,2.3c-0.3,0.1-10.5,2.3-6.9,0.1c2.4-1.5,4.4-2.7,6.4-4.6c4.5-4.3,10.2-10.4,12.3-16.4
					C259.6,211.1,259,211.2,258.9,211.4L258.9,211.4z"/>
			</g>
		</g>
		<g>
			<path fill="#1D1D1D" d="M261.5,263.1c-7.9,8.9-18.8,11.4-29.8,14.2c0,0-0.4,0.2-0.3,0.2c7.8,4.9,21.8,5.4,29.3-0.2
				c0.3-0.2-0.4-0.1-0.6,0c-6.4,4.8-15.2,3.9-22.6,2.1c-1-0.3-4.6-2.2-5.3-2c1.3-0.3,2.6-0.5,3.9-0.8c9.7-2.2,19.2-6,26-13.5
				C262.4,262.8,261.7,262.9,261.5,263.1L261.5,263.1z"/>
		</g>
		<g>
			<path fill="#1D1D1D" d="M257,293.3c-6.7,2.9-14.2,3.2-21.4,3.2c-4,0-9.7,0.5-13.5-1.1c-0.2-0.1-0.8,0.1-0.6,0.3
				c3.5,5,8.8,6.6,14.5,7.6c5.5,1,12,2.2,17.6,0.9c0.4-0.1,0.3-0.5-0.1-0.4c-6.5,1.5-14.3-0.3-20.7-1.6c-4.2-0.9-7.8-3.1-10.4-6.6
				c-0.8,0.2-0.7,0.3,0.2,0.4c0.4,0.1,0.8,0.2,1.2,0.2c0.3,0,0.7,0,1,0.1c10.6,0.8,22.6,1.6,32.5-2.8
				C257.7,293.4,257.3,293.1,257,293.3L257,293.3z"/>
		</g>
		<g>
			<path fill="#545454" d="M212,213.3c20.6-2.9,42.4-2.2,61.8,5.9c0.4,0.2,1.8-0.4,1.2-0.7c-19.7-8.2-41.9-8.9-62.8-6
				C211.5,212.6,211,213.4,212,213.3L212,213.3z"/>
		</g>
		<g>
			<path fill="#545454" d="M210.1,219.8c7-2.5,16.6-1.2,23.7-0.5c16,1.6,31.4,6.6,45.7,13.9c0.4,0.2,1.6-0.4,1.4-0.5
				c-15.2-7.8-31.6-12.8-48.6-14.3c-6.9-0.6-15.9-1.5-22.6,1C208.6,219.8,209.5,220.1,210.1,219.8L210.1,219.8z"/>
		</g>
		<g>
			<path fill="#545454" d="M114.5,220.3c8.7-3.5,17.5-6.2,26.8-7.2c9.2-1,18.6,0,27.8,0.9c0.4,0,1.7-0.7,0.9-0.8
				c-9.5-1-18.9-1.8-28.4-1c-9.6,0.8-18.7,3.8-27.6,7.4C113,220.1,113.8,220.6,114.5,220.3L114.5,220.3z"/>
		</g>
		<g>
			<path fill="#545454" d="M105.3,205.8c21.7-4.8,42.2-3.4,63.8,1.2c0.6,0.1,1.7-0.7,0.9-0.9c-21.9-4.7-42.9-6.1-64.9-1.2
				C104.2,205.1,104.4,206,105.3,205.8L105.3,205.8z"/>
		</g>
		<g>
			<g>
				<path fill="#FFB24D" d="M169.5,135.9c-4.1,4.4-8.8,20.3-9.4,29.2l28.6-11C182.9,145.8,179.3,143,169.5,135.9z"/>
				<g>
					<path fill="#1D1D1D" d="M189.8,153.7c-5.4-7.6-12-12.9-19.4-18.4c-0.5-0.3-1.4-0.1-1.7,0.3c-6.3,7.4-8.8,20.2-9.6,29.6
						c-0.1,1,2.1,0.7,2.2-0.2c0.7-9.1,3.1-21.7,9.2-28.8c-0.6,0.1-1.2,0.2-1.7,0.3c7.3,5.3,13.8,10.7,19.1,18.1
						C188.3,155.4,190.4,154.6,189.8,153.7L189.8,153.7z"/>
				</g>
			</g>
			<path fill="#FFF3E3" d="M175.9,154.6c2.2-14.5-5.8-15.5-5.8-15.5c-5.3,7.8-7.6,20.5-6.1,24.1L175.9,154.6z"/>
			<g>
				<path fill="#1D1D1D" d="M170.1,138.3c2.1,3.1,3.7,6.4,5.1,9.8c0.6,1.5,3.2,6.1,1.6,6.9c-3.7,1.7-7.4,3.7-10.3,6.5
					c-0.3,0.3,0.4,0.4,0.6,0.2c3.1-2.9,7.1-5,11-6.8c0.1,0,0.2-0.2,0.2-0.3c-1.9-5.8-4.2-11.5-7.6-16.6
					C170.6,137.7,169.9,138,170.1,138.3L170.1,138.3z"/>
			</g>
		</g>
		<g>
			<path fill="#EDE1CF" d="M167.1,302.4c-13.5-8.5-13.1-32.1-9.1-38.6c6.2-11.7,22.9-11.9,34.2-9.2c16.5,4.4,19.3,13.4,16.6,28.6
				c-0.9,5.9-1.4,17-6,20.4C195.9,308.7,175.6,307.8,167.1,302.4z"/>
			<path fill="#FFF3E3" d="M199.3,259.9c-5.8-9.3-30.4-8.8-35.8,9.2c-2.9,6.9-1.9,20.3,3.5,25.8c5.9,6.1,18.8,4.2,25.8,0.7
				C201.6,291.2,205.8,270.4,199.3,259.9z"/>
			<g>
				<path fill="#1D1D1D" d="M159.9,294.5c-3.9-8-4.3-16-3-24.7c1.5-9.8,9.8-15.2,19-16.9c7-1.3,14.8-0.6,21.3,2.3
					c6.7,3,9.3,9.3,10.2,16.1c0.9,6.9,0.5,14-0.4,20.9c-1,7.4-3.4,12-11,14c-7.1,1.9-15.1,1-22.1-1
					C167.3,303.5,163.2,300.4,159.9,294.5c-0.1-0.2-0.8,0-0.7,0.2c3.2,5.7,6.8,8.7,13.1,10.7c7.2,2.2,15.3,3.2,22.7,1.5
					c5-1.1,9.5-3.1,11.3-8.2c2.9-8.1,2.7-17.9,2-26.3c-0.7-7.6-3.5-13.8-10.5-17.5c-6.8-3.6-15.8-3.5-23.2-2.2
					c-7.3,1.3-13.7,5.3-17,12.1c-4.3,9-2.7,21.3,1.5,29.8C159.3,295,160,294.7,159.9,294.5z"/>
			</g>
			<path fill="#1D1D1D" d="M172.1,279.9c-0.1-1.1,0.4-2.3,1.6-2.3c2.6,0,1.6,4.6-0.6,3.8C172.5,281.2,172.2,280.6,172.1,279.9z"/>
		</g>
		<g>
			<path fill="#DB6E6E" d="M198.2,213.7c0,0,2.5,20.6-12.6,14.5c-9-3.6-6.8-14.7-6.8-14.7s5-1.7,6.2-3.2c1.1-1.5,1.5-3.7,2.3-5
				c0.8-1.1,0.9,1.9,1.6,3.7C189.7,211.2,198.2,213.7,198.2,213.7z"/>
			<path fill="#FFF3E3" d="M201.8,206.7c-1.8-2.9-5.9-4.7-9.1-3.5c-1.5,0.6-3.9,2.5-3.3,4.5c0-0.1,0-0.1,0-0.2
				c-1.3-3.9-4.8-6.8-9.1-5.1c-2.8,1.2-4.1,4-3.8,6.9c0.4,5.3,6.7,6.3,10.1,3.4c1.1-1,1.9-2.4,2.3-3.8c-0.3,0.9-0.1,4.2,0.6,5.1
				c1.3,1.6,4.9,2.1,6.8,2.2c1.5,0.1,4.3-1.8,5.2-3.1C202.9,211,203,208.5,201.8,206.7z"/>
			<g>
				<path fill="#1D1D1D" d="M176.3,204.6c-1.4,4.3-0.8,9.4,4.5,10.1c1.9,0.2,4-0.5,5.5-1.6c1.8-1.4,2-4,2.2-6.1
					c0.1-0.7-1.4-0.5-1.5,0.1c-0.2,1.5-0.3,3.1-1,4.4c-0.8,1.6-3.1,2.2-4.7,2.1c-4.6-0.3-4.7-5.6-3.6-8.9
					C177.9,203.9,176.5,204,176.3,204.6L176.3,204.6z"/>
			</g>
			<g>
				<path fill="#1D1D1D" d="M187.7,207.5c-0.4,3.5-0.2,6.8,3.3,8.6c2.7,1.3,6.2,1.1,8.5-0.7c0.8-0.6-0.4-0.9-0.9-0.5
					c-2.5,1.9-6,1.3-8.2-0.7c-1.8-1.6-1.4-4.6-1.2-6.8C189.2,206.7,187.7,206.9,187.7,207.5L187.7,207.5z"/>
			</g>
			<g>
				<path fill="#FF99C3" d="M187.8,207.2c1,0,6.6-3.4,5.6-4.2c-1-0.7-8.2-1.6-8.8-0.7C183.8,203.4,187.3,207.2,187.8,207.2z"/>
				<g>
					<path fill="#1D1D1D" d="M187.8,207.7c2.1-0.2,4.6-2.1,6-3.5c1.8-1.9-2.2-2.2-3.3-2.3c-1.4-0.2-5.7-1.1-6.7,0.6
						c-0.7,1.4,2.3,4.9,3.6,5.2c0.5,0.1,1.7-0.6,0.9-0.9c-1.1-0.3-2.5-2.6-2.9-3.6c-0.4-1,0.4-0.7,1.2-0.7c1,0,2,0.1,3,0.2
						c0.8,0.1,1.7,0.3,2.5,0.5c0.9,0.2,0.8,0.4,0.1,1c-1,0.9-2.9,2.4-4.3,2.6C187.2,206.8,186.8,207.8,187.8,207.7z"/>
				</g>
			</g>
			<path fill="#FF8F8F" d="M181.5,224.3l-0.1,0.5c3.2,3.4,8.5,4.9,12.5,2.6c1.9-1,2.1-2.5,2.1-2.5
				C194.4,220.6,183.7,220.4,181.5,224.3z"/>
			<g>
				<path fill="#1D1D1D" d="M198.5,215.4c-0.1,7.6-2.6,15.2-12,12.8c-7.2-1.9-7.7-7.8-7.2-14.3c0-0.3-0.7-0.2-0.7,0.1
					c-0.3,3.7-0.6,7.7,1.4,10.9c1.6,2.6,5.6,4,8.5,4.3c8.5,0.9,10.8-6.6,10.8-13.8C199.2,215,198.5,215.2,198.5,215.4L198.5,215.4z"
					/>
			</g>
		</g>
		<path fill="#E57F23" d="M194.8,154.1c-7.8,5.3-5,11.1,3.3,13.3c15,4.1,21-7.8,22.8-13.2C213.9,150.9,194.8,154.1,194.8,154.1z"/>
		<g>
			<path fill="#1D1D1D" d="M194.6,153.7c-6.6,3.4-5.6,10.5,0.9,13.1c4.7,1.9,11.4,2.3,16.1,0.2c4.7-2.2,7.4-8.2,9.8-12.4
				c0.2-0.3-0.5-0.3-0.6-0.1c-2,3.4-3.9,6.7-6.5,9.7c-3.8,4.3-9.6,3.8-14.8,3.1c-3.6-0.5-7.9-2.1-8.8-6c-0.7-3,1.8-5.9,4.3-7.2
				C195.3,153.9,194.9,153.5,194.6,153.7L194.6,153.7z"/>
		</g>
		<g>
			<path fill="#FFB24D" d="M251.9,311.3l-21.1,11c2,4.9,5,9.9,8.5,15.5c4.6,7.3,7.4,12,15.6,7.8C262.9,341.8,263,334.8,251.9,311.3z
				"/>
			<g>
				<path fill="#1D1D1D" d="M229.6,322.6c1.8,4.3,4.1,8.3,6.5,12.3c2.3,3.9,4.6,8.2,8.1,11.2c3.9,3.4,9.8,1,13.5-1.5
					c3-2,4-5.2,3.9-8.7c-0.2-8.5-5.2-17.4-8.7-24.9c-0.4-0.8-2.5-0.1-2.2,0.6c2.8,6,5.6,12.1,7.5,18.5c1.1,3.7,2.1,8.1,0.1,11.7
					c-0.7,1.3-1.9,2.1-3.1,2.9c-4.4,2.7-8.2,2-11.4-1.7c-5.1-6-9.2-13.8-12.2-20.9C231.5,321.2,229.3,321.9,229.6,322.6L229.6,322.6
					z"/>
			</g>
		</g>
		<g>
			<path fill="#1D1D1D" d="M261.2,236.1c-3.3,4-5.6,7.9-9.9,11.1c-3.1,2.3-6.9,4-9.6,6.9c-0.1,0.1-0.1,0.3,0.1,0.3
				c7.1,1.8,16.2-0.6,20.6-6.5c0.3-0.4-0.4-0.5-0.6-0.2c-3.2,4.2-8,6-13.1,6.6c-1.8,0.2-3.6,0.1-5.4-0.1c-1.5-0.2,1.2-1.8,1.7-2.1
				c3.4-2.3,7.1-4.4,10-7.2c2.7-2.6,4.5-5.7,6.8-8.5C262.1,235.9,261.4,235.8,261.2,236.1L261.2,236.1z"/>
		</g>
		<g>
			<path fill="#1D1D1D" d="M234.6,168.3c-2.7-3.2-8.2-5-12.4-4.6c-1,0.1-1.3,1.5-0.1,1.4c3.6-0.3,8.6,1.3,10.9,4
				C233.6,169.7,235.2,169,234.6,168.3L234.6,168.3z"/>
		</g>
		<g>
			<path fill="#1D1D1D" d="M181.5,160.1c-3.5,0-6.7,0.9-9.9,2.2c-1.4,0.5-0.2,1.7,1,1.3c2.9-1.1,5.7-1.8,8.8-1.8
				C182.6,161.7,183,160.1,181.5,160.1L181.5,160.1z"/>
		</g>
		<g>
			<path fill="#FFB24D" d="M127.9,264.6c-14,20,11,20.5,15.5,6.5l5-50C144.9,234.1,136.4,252.1,127.9,264.6z"/>
			<g>
				<path fill="#1D1D1D" d="M147.3,221.3c-3.3,11.8-8.5,23.1-14.5,33.8c-3.4,6-12.2,14.7-9.8,22.3c1.3,4.2,6.8,4.3,10.3,3.6
					c5.2-1.1,9.5-5,11.3-10c0.3-0.7-1.9-0.4-2.2,0.3c-1.9,5.2-6.9,9.4-12.6,8.8c-6.6-0.7-5-7.9-2.9-12c1.8-3.5,4.3-6.7,6.4-10.1
					c2.6-4.3,4.9-8.8,7.2-13.4c3.7-7.6,6.9-15.5,9.2-23.6C149.7,220.2,147.5,220.6,147.3,221.3L147.3,221.3z"/>
			</g>
		</g>
		<g>
			<path fill="#FFFFFF" d="M236.1,197.2c-11.3,20.4-37,7.5-32.2-12.7c4.7-20.8,35-15.4,33.9,6C237.7,192.2,236.9,195.7,236.1,197.2z
				"/>
			<g>
				<path fill="#1D1D1D" d="M235,197.4c-5.8,9.8-17,12.7-25.5,4.5c-6.4-6.2-6.5-16.8-1.8-24c5.1-7.6,15.5-7.2,22.3-2.3
					C236.7,180.5,238.3,190.1,235,197.4c-0.2,0.5,1.9,0.3,2.2-0.3c4.6-10.1-0.4-21.5-10.7-25.2c-7.5-2.6-17.2,0-21.3,7
					c-5.8,9.9-2.5,22.6,8,27.6c9.4,4.5,19.3-1.3,24.1-9.5C237.4,196.7,235.3,196.8,235,197.4z"/>
			</g>
		</g>
		<g>
			<path fill="#FFFFFF" d="M186,195.5c-16,13.8-32.5-5.3-21.9-21c10.8-16.3,33.6-2.1,25.5,15.8C189,191.7,187.2,194.4,186,195.5z"/>
			<g>
				<path fill="#1D1D1D" d="M185.2,195.4c-8.5,6.8-18.8,4.8-22.6-5.3c-2.9-7.6,1.2-17,8-21c6.9-4,15,1.1,18.3,7.2
					c3.3,6.3,1,14.3-3.7,19.2c-0.5,0.5,1.4,0.3,1.8-0.1c6.7-6.9,7.3-17.6,0.3-24.5c-5.4-5.3-13.8-5.1-19.8-1
					c-8.2,5.7-9.9,17.8-4,25.6c6.1,7.9,16.7,5.4,23.3,0C187.6,194.9,185.6,195.1,185.2,195.4z"/>
			</g>
		</g>
		<g>
			<path fill="#1D1D1D" d="M140.3,280.5c-11.6-11.5-22.4-23.9-34-35.5c-0.9-0.9-3.7,0.3-2.7,1.3c11.6,11.6,22.4,24,34,35.5
				C138.6,282.7,141.4,281.5,140.3,280.5L140.3,280.5z"/>
		</g>
		<g>
			<path fill="#FFB24D" d="M130.8,266.3c-7.3,8.3,1,12,4.3,3.3L130.8,266.3z"/>
			<g>
				<path fill="#1D1D1D" d="M130.2,266.3c-1.4,1.7-5.1,6.9-1.5,8.4c1.2,0.5,2.7,0,3.7-0.6c1.7-1,2.8-2.8,3.5-4.6
					c0.1-0.3-1.3-0.2-1.4,0.2c-0.6,1.5-2.8,5.9-5.1,4.1c-0.8-0.6-0.8-1.9-0.7-2.8c0.4-1.8,1.6-3.4,2.8-4.8
					C131.8,265.9,130.4,266.1,130.2,266.3L130.2,266.3z"/>
			</g>
		</g>
		<g>
			<path fill="#FF7676" d="M106.4,247c0,0-14.6,7.3-22.9-0.7c-8.3-8-1.7-15.1,2.4-15.2c2.7-0.1,5.7,1.4,5.7,1.4s-4.8-6.8,0.4-10
				C98.2,218.5,110.9,226.3,106.4,247z"/>
			<path fill="#FF9797" d="M104.3,241.4c0,0-12,5.6-18.7,0.4c-6.2-4.7-0.8-9.2,1.5-9.2c2.2,0,5.1,1.1,5.1,1.1s-2.8-6.2,1.8-9.4
				C99.3,220.7,108.1,226.4,104.3,241.4z"/>
			<g>
				<path fill="#1D1D1D" d="M105.6,246.7c-7.1,2.6-15.9,5.3-22.3-0.3c-7.3-6.5-1.3-21,8.5-13.5c0.2,0.2,0.9-0.1,0.6-0.4
					c-7.3-6-15.7,1.5-12.8,9.8c3.9,11.2,18.1,7.7,26.2,4.6C106.1,246.8,105.8,246.6,105.6,246.7L105.6,246.7z"/>
			</g>
			<g>
				<path fill="#1D1D1D" d="M92,232.4c-3.1-4.5-3.2-11.8,5.6-10.8c3.2,0.3,5.4,3.1,6.8,5.6c3,5.5,2.6,12.8,1.5,18.7
					c0,0.1,0.9,0,0.9-0.2c1.3-7,1.9-21.8-7.5-24.2c-7-1.7-13.9,4.7-7.8,11C91.7,232.5,92,232.4,92,232.4L92,232.4z"/>
			</g>
		</g>
		<path fill="#FFFFFF" d="M264.5,252.8c0-0.9-2.3,3.5-2.6,3.8c-3.5,4.5-5.6,5.2-9.6,9.3c-3.5,3.6-16.4,5-18.4,5.3
			c-6.4,0.7-33.2-5.6-40.4-10c-10.2-6.2-16.2-9.1-25-17c-4.1-3.7-8.9-8.6-14-16c-0.1-1-4.7-8-4.6-7.5c0,0.1-1.2,15.1-2,20.6
			c-0.9,6.9-1.1,14.8-2.2,21.6c-1.4,8.7-2.4,29.4-1.4,29.9c5.8,3.1,13.8,7.2,20.2,9.7c8.5,3.3,15.4,6.4,24.4,8
			c6.9,1.3,14.3,2.6,21.3,3.1c9.9,0.7,16.8,1.3,26.8,0.7c7.3-0.5,22.9-4.5,25-8.1c2.1-3.6,1.2-7.9,1.3-11.9
			c0.2-5.8-0.2-11.5,0.1-17.3C263.9,270.1,264.5,258.8,264.5,252.8z"/>
		<path fill="#EFEFEF" d="M163.1,238.8c-2.7-2.9-5.6-6.4-8.6-10.7c-0.1-1-4.7-8-4.6-7.5c0,0.1-1.2,15.1-2,20.6
			c-0.9,6.9-1.1,14.8-2.2,21.6c-1.4,8.7-2.4,29.4-1.4,29.9c5.7,3,13.3,7,19.6,9.5C152.7,283.7,148.3,256.1,163.1,238.8z"/>
		<g>
			<path fill="#1D1D1D" d="M163.1,285.6c-6.7-10.6-8.9-23.3-10.2-35.6c-0.6-5.3-0.8-10.7-1.1-16c-0.1-2.3,0.3-6.4-1-8.4
				c-0.1-0.1-0.4,0.1-0.4,0.1c1.1,2,0.8,5.4,0.9,7.6c0.3,5.2,0.6,10.4,1.1,15.7c1.2,12.5,3.3,26.2,10.6,36.8
				C163,285.7,163.1,285.6,163.1,285.6L163.1,285.6z"/>
		</g>
		<g>
			<path fill="#1D1D1D" d="M150.4,224.2c0.2,4.5,2.8,9,4.9,12.9c3.8,6.9,8.5,13.2,13.7,19.1c13,14.8,30.1,26.6,49.5,31.1
				c0.1,0,0.3-0.1,0.2-0.2c-19.8-5.1-36.6-16.7-50-31.9c-5.1-5.8-9.6-12.2-13.3-18.9c-2-3.7-4.2-7.9-4.6-12.1
				C150.6,224.1,150.4,224.1,150.4,224.2L150.4,224.2z"/>
		</g>
		<path fill="#EFEFEF" d="M261.5,283.6c-6.1-3.1-11.1-9-12.6-15.7c-4.1,1.7-10.2,2.6-13.3,3c0.3,0.6,0.6,1.1,0.9,1.7c4,10,5,22,0,30
			c-2.5,4.5-5.7,8.5-9.3,11.9c3.1,0,6.3,0,9.8-0.2c5.8-0.4,16.7-3,22.1-5.8C255.6,300.2,255.7,290.6,261.5,283.6z"/>
		<g>
			<path fill="#FFB24D" d="M266.3,266.1c-5.8-11.6-7.8-21-9.5-29.9l-19,11.2c3.8,13,5.7,17.3,10.4,26.5c4.5,8.7,16.4,21.2,25.9,12.5
				C279,281.8,271,275.6,266.3,266.1z"/>
			<g>
				<path fill="#1D1D1D" d="M255.6,236.5c1.8,9.1,4.1,18,7.9,26.5c2,4.5,4.6,8.6,7.4,12.6c2.2,3.2,5.3,7.3,2.1,10.8
					c-9.2,10-21.8-8.8-25.1-15.3c-3.9-7.7-6.6-15.7-9.1-24c-0.2-0.6-2.3,0.1-2.2,0.6c3,10.2,6.5,20.6,12.2,29.6
					c4.2,6.7,12.1,14.4,20.7,12.1c2.8-0.8,5.9-2.7,7-5.5c1.3-3.6-3.3-8.6-5.1-11.2c-7.5-11-11.1-23.8-13.7-36.8
					C257.7,235.4,255.5,235.9,255.6,236.5L255.6,236.5z"/>
			</g>
		</g>
		<g>
			<path fill="#1D1D1D" d="M148.9,218.2c8.5,18.8,25.2,31.9,42.8,41.6c16.4,9,34.8,14.3,53.4,10.4c0.9-0.2,0.6-1.2-0.3-1
				c-19.5,4.1-38.5-2.5-55.4-11.9c-16.9-9.4-31.1-22.1-40.4-39.1C149.1,218.1,148.9,218.1,148.9,218.2L148.9,218.2z"/>
		</g>
		<g>
			<path fill="#1D1D1D" d="M149.4,222.2c-0.9,11.4-2.8,22.7-3.9,34c-1.1,12.2-1.4,24.4-2.6,36.5c0,0.1,0,0.2,0.1,0.2
				c31.4,16.6,67.5,27.1,103.2,20.2c5.5-1.1,11.6-2.8,16-6.5c0.4-0.3,1.3-1,1.4-1.6c0.4-1.9-0.1-4.3-0.1-6.3c0-3.1,0-6.3,0.6-9.4
				c0.1-0.5-1.2-0.3-1.3,0.2c-0.8,3.4-0.7,7-0.7,10.5c0,1,0.4,4.6,0.1,5.1c-0.7,1.1-1.9,1.9-3,2.5c-10.4,6.6-25.3,6.5-37.1,6.3
				c-12.1-0.2-24.3-1.5-36.1-4.4c-12.4-3.1-24.2-8.4-35.6-13.9c-3.3-1.6-6.5-2.4-6.1-6.7c0.2-3.1,0.4-6.3,0.6-9.4
				c0.4-6.5,0.8-13,1.2-19.5c0.9-12.6,3.2-25.2,3.4-37.9C149.6,222,149.4,222.1,149.4,222.2L149.4,222.2z"/>
		</g>
		<g>
			<path fill="#FFEB99" d="M145.8,223.6v1.7c1,5,5.3,2.7,5.7-2.3C152.2,215.3,145.5,216.6,145.8,223.6z"/>
			<g>
				<path fill="#1D1D1D" d="M145,225.5c0.3,1.2,0.8,2.5,2,2.9c1,0.3,2.1-0.2,2.9-0.8c2.3-1.6,2.7-5.6,2-8.1
					c-0.6-1.9-2.4-2.6-4.2-1.7c-2.1,1-3.1,3.8-2.6,6c0.1,0.3,1.2,0,1.3-0.3c0.2-1.8,0.2-3.6,1.6-5c1-1.1,2,0.2,2.4,1.2
					c0.8,1.9,0.4,4.5-0.4,6.3c-0.3,0.6-1,1.9-1.8,1.6c-1-0.3-1.4-1.7-1.6-2.6C146.5,224.7,144.9,225.1,145,225.5L145,225.5z"/>
			</g>
		</g>
		
			<ellipse transform="matrix(0.9887 0.1497 -0.1497 0.9887 28.7082 -25.0189)" fill="#1D1D1D" cx="180.5" cy="178.1" rx="4.1" ry="4.4"/>
		
			<ellipse transform="matrix(0.9887 0.1497 -0.1497 0.9887 29.4883 -30.3809)" fill="#1D1D1D" cx="216.5" cy="180.6" rx="4.1" ry="4.4"/>
		<g>
			<path fill="#FFB24D" d="M257.2,285l-6.2-7.1c0.9,3.7,1,8.5,2.9,10C256.1,289.7,257.9,286.6,257.2,285z"/>
			<g>
				<path fill="#1D1D1D" d="M250.3,278.1c0.7,3.3,0.4,8.4,3.5,10.5c2.4,1.7,4.9-1.6,4.2-3.8c-0.2-0.7-1.7-0.3-1.4,0.4
					c0.3,0.8,0,3.7-2,2.3c-0.9-0.6-1.2-1.9-1.4-2.9c-0.6-2.3-0.8-4.6-1.3-6.9C251.6,277,250.2,277.4,250.3,278.1L250.3,278.1z"/>
			</g>
		</g>
		<g>
			<path fill="#1D1D1D" d="M262.6,255.5c1.3-0.6,1.5-1.6,2-2.9c-0.3,0.1-0.6,0.2-0.9,0.3c0.9,0.3,0.6,2.7,0.7,3.3
				c0,1.4-0.2,3,0.2,4.3c0,0.1,0.4,0,0.4-0.1c0.4-1.5,0.4-3.3,0.4-4.8c0-0.8,0.2-2.8-0.8-3.1c-0.2-0.1-0.8,0-0.9,0.3
				c-0.4,1-0.6,2-1.5,2.6C261.8,255.6,262.5,255.5,262.6,255.5L262.6,255.5z"/>
		</g>
	</g>
</g>
<g id="Layer_28">
</g>
<g id="Layer_29">
</g>
<g id="Layer_30">
</g>
<g id="Layer_31">
</g>
<g id="Layer_32">
</g>
<g id="Layer_33">
</g>
<g id="Layer_34">
</g>
<g id="Layer_36">
</g>
<g id="Layer_35">
</g>
<g id="Layer_37">
</g>
<g id="Layer_38">
</g>
<g id="Layer_39">
</g>
<g id="Layer_40">
</g>
</svg>
