<?xml version="1.0" encoding="utf-8"?>
<!-- Generator: Adobe Illustrator 18.1.1, SVG Export Plug-In . SVG Version: 6.00 Build 0)  -->
<!DOCTYPE svg PUBLIC "-//W3C//DTD SVG 1.1//EN" "http://www.w3.org/Graphics/SVG/1.1/DTD/svg11.dtd">
<svg version="1.1" xmlns="http://www.w3.org/2000/svg" xmlns:xlink="http://www.w3.org/1999/xlink" x="0px" y="0px"
	 viewBox="0 0 393 483" enable-background="new 0 0 393 483" xml:space="preserve">
<g id="ziutek_x5F_01">
</g>
<g id="ziutek_x5F_02">
</g>
<g id="ziutek_x5F_03">
</g>
<g id="ziutek_x5F_04">
</g>
<g id="ziutek_x5F_05">
</g>
<g id="ziutek_x5F_06">
</g>
<g id="ziutek_x5F_07">
</g>
<g id="ziutek_x5F_08">
</g>
<g id="ziutek_x5F_09">
</g>
<g id="ziutek_x5F_10">
</g>
<g id="lady_x5F_01">
</g>
<g id="Layer_13">
</g>
<g id="Layer_12">
</g>
<g id="Layer_14">
</g>
<g id="Layer_15">
</g>
<g id="Layer_16">
</g>
<g id="Layer_17">
</g>
<g id="Layer_18">
</g>
<g id="Layer_19">
</g>
<g id="Layer_20">
</g>
<g id="Layer_21">
</g>
<g id="Layer_22">
</g>
<g id="Layer_23">
</g>
<g id="Layer_24">
</g>
<g id="Layer_25">
</g>
<g id="Layer_26">
</g>
<g id="Layer_27">
</g>
<g id="Layer_28">
</g>
<g id="Layer_29">
</g>
<g id="Layer_30">
</g>
<g id="Layer_31">
</g>
<g id="Layer_32">
</g>
<g id="Layer_33">
</g>
<g id="Layer_34">
</g>
<g id="Layer_36">
	<g>
		<g>
			<path fill="#BFBFBF" d="M284.9,300.1c-8.5-4.7-17.4,5-27.2,5.9c-17.7,1.6-23.1-10.4-21.8-12.7l-4.4,6.6
				c-3.1,6.1,9.2,23,17.6,26.1C281.7,338.2,302.4,309.8,284.9,300.1z"/>
			<g>
				<path fill="#1D1D1D" d="M230.4,299.9c-2.2,5.5,2.6,12.1,5.7,16.2c4.8,6.5,10.5,10.4,18.3,12.4c12.3,3.1,27.4,0.4,35.1-10.5
					c6.6-9.3-0.6-21.2-11.9-19.6c-3.8,0.5-7.4,2.5-10.8,4.1c-6,2.7-12,3.7-18.5,2.2c-3.3-0.7-13.8-6.2-11.6-11.3
					c0.4-1-1.6-0.9-1.9-0.2c-1,2.4,1.2,5.4,2.6,7.1c3.4,4,8.7,5.7,13.7,6.3c7.4,0.9,13.7-1.9,20.3-4.9c4.8-2.2,9.4-3.3,14.1-0.2
					c2.3,1.5,3.8,3.9,4.4,6.5c1.3,5.4-2.5,10.7-6.3,14c-5.9,5-13.9,6.5-21.3,6.2c-8.8-0.4-16.1-3.6-22-10c-3.7-4-10.4-12.3-8-18.2
					C232.7,299,230.7,299.1,230.4,299.9L230.4,299.9z"/>
			</g>
		</g>
		<g>
			<path fill="#FFFFFF" d="M153.2,301.7c-15.1-13.8-15.2-38.9-11.7-63.6c2.4-16.6,5.4-59.4,14.3-67.9c12.4-11.8,26.4-15.2,42.5-14.6
				c34.6,1.3,49.6,14.9,50.9,47.8c0.9,23.4,1.7,70.1-10.7,92c-6.3,11.2-12.5,14-24.2,16.3c-7.6,1.4-11.2,2.3-22.5,2.2
				C180,313.7,169.6,316.5,153.2,301.7z"/>
			<g>
				<path fill="#1D1D1D" d="M154.2,301.3c-19.2-18.2-13.3-48.5-10.6-71.8c1.2-10.4,2.4-20.8,4-31.2c1.4-8.6,2.8-18.1,7.2-25.8
					c2.9-5.1,9.4-8.8,14.5-11.5c7.3-3.8,15.6-5,23.8-5.2c11.4-0.3,23.7,1.2,34.1,6.4c18.2,9.1,20.6,29.5,21.2,47.7
					c0.5,14.6,0.4,29.2-0.8,43.8c-1.2,14.1-3.2,29.2-10,41.7c-4.4,8-10.4,12.7-19.2,14.9c-7.3,1.8-14.9,2.9-22.5,3
					c-6.4,0.1-13,0.6-19.4-0.2C167.8,312,160.5,306.9,154.2,301.3c-0.4-0.4-2.2,0.4-1.9,0.7c8.3,7.4,17.1,12.1,28.3,12.3
					c9.5,0.2,19.3,0.2,28.7-1.5c8.5-1.5,17.1-3,23.7-9c7.4-6.7,10.8-17.5,13.1-26.9c5.2-21.9,5-45.3,4.4-67.7
					c-0.5-17.8-2.9-36.8-19.6-46.9c-6.7-4-14.5-5.7-22.1-6.7c-9.4-1.2-19.6-1.4-28.9,0.8c-9.5,2.3-17.8,6.9-25,13.6
					c-4.5,4.1-5.8,11.8-7.2,17.5c-4,17.2-5.1,34.9-7.5,52.3c-2.8,20.5-4.4,46.5,12,62.1C152.7,302.4,154.5,301.7,154.2,301.3z"/>
			</g>
		</g>
		<path fill="#F4F4F4" d="M244.6,232.5c-5.9,22.8-10.1,39.7-32.1,53.8c-11.1,7.2-28.4,7.9-41.2,5.3c-6.4-1.3-11.4-2.9-17.5-5.3
			c-3.6-1.4-14.6-12.8-9.7-3.8c1.7,3.2,4.7,6.7,8.4,10.1c7.1,6.5,18,11,24.5,12.4c13.2,2.8,21,4.2,32.5,2.2
			c11.5-2.1,19.3-8.6,24.5-16.4c5.6-8.5,8.3-16.5,10.7-26.3C248.3,249.7,244.7,232,244.6,232.5z"/>
		<g>
			<g>
				<path fill="#FFFFFF" d="M248.8,149.2c-8.1-1.8-21.9,0.9-30.8,8.6l26.8,22.6C250.9,166.2,248.8,149.2,248.8,149.2z"/>
				<g>
					<path fill="#1D1D1D" d="M245.9,180.2c3.9-9.7,5.2-20.9,4-31.3c0-0.1-0.1-0.1-0.2-0.1c-11.2-2.2-23.9,1.9-32.6,9.1
						c-0.4,0.4,1.5,0.2,1.9-0.2c5.7-4.7,12.5-7.4,19.8-8.4c2.5-0.3,8.9-1.6,9.2,1.8c0.8,9.9-0.4,20.2-4.1,29.5
						C243.7,180.9,245.7,180.7,245.9,180.2L245.9,180.2z"/>
				</g>
			</g>
			<path fill="#FFDEEE" d="M242,176c4.2-9.4,4-22.8,4-22.8c-8.9-0.7-14.9,4.7-21.2,9.5c0,0,7,4.6,9.1,6.2
				C236.2,170.4,242,176,242,176z"/>
			<g>
				<path fill="#1D1D1D" d="M246.1,153.1c-8-1.3-16.1,4.4-21.4,9.7c0,0-0.1,0.1,0,0.1c5.2,3,10.3,6.4,14.6,10.6
					c0.1,0.1,0.8-0.1,0.7-0.2c-1.1-1.1-13.5-11.5-14.6-10.5c5.1-5.1,12.8-10.6,20.3-9.3C245.8,153.4,246.4,153.2,246.1,153.1
					L246.1,153.1z"/>
			</g>
		</g>
		<g>
			<path fill="#FFFFFF" d="M186.4,313.1l-29.7-8.5c9.2,24.8,16.2,37.3,25.2,35.8C193,338.6,189.4,327.9,186.4,313.1z"/>
			<g>
				<path fill="#1D1D1D" d="M155.7,304.8c3.4,9,6.9,18.2,11.8,26.5c2.6,4.3,6.1,8.7,11.3,9.8c4.4,0.9,9.3-1.6,11-5.7
					c2.6-6.6-1.1-16.1-2.4-22.6c-0.2-0.9-2.2-0.4-2,0.5c1.2,6,3,12.2,3,18.4c0,6.4-6.2,10-11.7,6.9c-4.2-2.3-7-7.4-9.2-11.4
					c-4-7.3-6.9-15.1-9.8-22.9C157.3,303.4,155.4,304,155.7,304.8L155.7,304.8z"/>
			</g>
		</g>
		<g>
			<path fill="#FFFFFF" d="M200,313.5c-1.1,14.7-5,25.1,7.3,26c9.3,0.7,11.5-8.5,21.3-33.6L200,313.5z"/>
			<g>
				<path fill="#1D1D1D" d="M227.7,305.9c-2.7,6.9-5.3,13.9-8.2,20.7c-1.7,4-3.7,9.3-7.8,11.5c-4.6,2.5-10.8-0.4-11.9-5.3
					c-1.4-6,0.7-13.3,1.2-19.4c0.1-1-1.9-0.7-2,0.2c-0.7,9.2-5.6,29.9,11.1,26.5c4.2-0.9,6.6-4.1,8.6-7.6
					c4.7-8.2,7.5-17.7,10.9-26.4C230,305,228,305.1,227.7,305.9L227.7,305.9z"/>
			</g>
		</g>
		<g>
			<g>
				<path fill="#FFFFFF" d="M159.4,143.1c-3.6,5.8-6.2,19.2-4.8,30l28.1-16.8C177,148.9,169.3,145.9,159.4,143.1z"/>
				<g>
					<path fill="#1D1D1D" d="M183.6,156c-6-7.6-14.5-10.9-23.6-13.4c-0.5-0.1-1.3,0.1-1.5,0.5c-5.1,8.8-6,20.4-4.9,30.4
						c0.1,0.8,2.1,0.3,2-0.5c-1.1-9.6-0.2-21.2,4.7-29.7c-0.5,0.2-1,0.4-1.5,0.5c8.9,2.5,17.1,5.7,23,13.1
						C182.2,157.4,184.1,156.6,183.6,156L183.6,156z"/>
				</g>
			</g>
			<path fill="#FFDEEE" d="M175,159c-0.8-6.1-14.3-13.4-14.3-13.4c-4,8.5-3.1,20-2.6,24.6c0,0,5.2-4.6,7.2-5.9
				C167.5,162.9,175,159,175,159z"/>
			<g>
				<path fill="#1D1D1D" d="M160.9,145.8c4,2.2,7.4,5,10.3,8.6c-0.1-0.1,3.4,5.2,2.7,5.5c-0.7,0.4-1.4,0.7-2.1,1.1
					c-4.3,2.3-9.1,4.6-12.5,8.1c-0.2,0.2,0.5,0.1,0.6,0c3.9-3.9,9.6-6.6,14.5-9.1c0.1,0,0.1-0.1,0.1-0.2
					c-1.5-6.5-7.5-11.2-13.1-14.4C161.3,145.4,160.7,145.6,160.9,145.8L160.9,145.8z"/>
			</g>
		</g>
		<g>
			<path fill="#F9F9F9" d="M171.1,293.2c-6.4-5.4-5.8-25.4-2-31.3c6-10.6,21.3-10.2,31.6-7.5c15,4.5,17.3,12.8,14.4,26.7
				c-1,5.4-1.8,15.5-6,18.5C202.7,304.1,181,301.6,171.1,293.2z"/>
			<path fill="#FFFFFF" d="M210.7,265.5c-0.1-0.3-0.2-0.5-0.3-0.8c-3.5-8.6-16.7-12.5-24.3-9.4c-7.8,3.2-14.3,7.2-15.1,21.7
				c-0.5,10.3,11.4,21.1,21.1,20C204.6,295.5,215.3,279,210.7,265.5z"/>
			<g>
				<path fill="#1D1D1D" d="M167.9,288.4c-2.9-12.1-1.1-29.6,11.9-35.1c10.6-4.5,29.6-0.3,33.5,11.6c1.8,5.5,1.2,11.9,0.6,17.6
					c-0.4,4.1-0.8,10.6-4.2,13.4c-9.4,8-27,3.2-37-0.4c-0.2-0.1-0.8,0.2-0.5,0.3c11.1,4,25.4,7.2,36.5,1.2c3.9-2.1,4.4-6.2,5.2-10.3
					c1.5-7.4,2-15.9-0.4-23.1c-3.8-11.8-22.7-13.6-32.6-10.9c-14.7,3.9-16.6,23.8-13.7,36C167.3,288.8,168,288.6,167.9,288.4
					L167.9,288.4z"/>
			</g>
			<path fill="#1D1D1D" d="M192.4,273.8c-0.1-1.2-1.5-0.9-1.9-0.1c-0.6,1,0.1,2.1,1.2,1.5C192.3,274.9,192.5,274.3,192.4,273.8z"/>
		</g>
		<g>
			<g>
				<path fill="#E8E8E8" d="M201.2,217.2c0-1.4-1.9-0.3-3.3-1.3c0,0,0,0,0,0c-0.1-0.2-0.2-0.3-0.3-0.4c-1.3-1-2.6-1-3.4,0
					c-0.2,0.1-3.4,0.1-3.5,0.4c-3.3,9.2-1.5,16.9,3.5,17.4C199.9,233.8,201,227.1,201.2,217.2z"/>
				<path fill="#D385AE" d="M191.3,217.8c0,0-3.3,13.9,3.2,14.3c5.1,0.3,5.5-13.4,5.5-13.4s-2.5-0.9-3-1.9c-0.5-1-0.5-2.3-0.9-3.1
					c-0.3-0.7-0.7,1-1.3,2C194.2,216.9,191.3,217.8,191.3,217.8z"/>
				<path fill="#E8E8E8" d="M205.5,213.3c-1.4-2.4-3.9-3.3-6.4-2.6c-1.3,0.4-3.2,2-2.8,3.6c0-0.1,0-0.1,0-0.2
					c-1-3.2-3.9-5.6-7.4-4.2c-2.3,0.9-3.4,3.2-3.2,5.6c0.3,4.3,5.4,5.2,8.2,2.9c0.8-0.7,1.7-2.1,1.9-3.2c0,0.1,0.7,1.6,0.7,1.9
					c0,2,0.7,3.9,5.3,4.2c1.3,0.1,2.6-1.3,3.4-2.3C206.5,217.3,206.7,215.5,205.5,213.3z"/>
				<g>
					<path fill="#1D1D1D" d="M185.4,215.6c-0.3,3.2,3.4,5,6.2,4.3c3.4-0.8,4.2-2.8,4.6-6.1c0.1-0.4-0.8-0.3-0.8,0.1
						c-0.2,1.9-0.4,3.8-2.2,4.8c-2.6,1.4-7.3,0.3-6.9-3.2C186.3,215.1,185.5,215.2,185.4,215.6L185.4,215.6z"/>
				</g>
				<g>
					<path fill="#1D1D1D" d="M195.5,214.2c-0.4,3.2,0.3,6.4,3.9,7.1c2.8,0.6,5.4-0.4,6.5-3.1c0.2-0.5-0.7-0.5-0.8-0.1
						c-1,2.5-3.5,3.2-6,2.4c-2.8-0.9-3-3.9-2.7-6.4C196.4,213.7,195.5,213.8,195.5,214.2L195.5,214.2z"/>
				</g>
				<g>
					<path fill="#545454" d="M140.5,215.5c12.5-4.5,26.1-3.4,38.6,0.7c0.2,0.1,0.9-0.2,0.7-0.3c-12.8-4.2-26.7-5.2-39.5-0.6
						C139.6,215.5,140.1,215.6,140.5,215.5L140.5,215.5z"/>
				</g>
				<g>
					<path fill="#545454" d="M144,206.3c12.7-1.1,24.1,2.3,35.7,7.1c0.2,0.1,0.9-0.2,0.8-0.3c-11.7-4.9-23.3-8.3-36.1-7.2
						C144.1,206,143.4,206.4,144,206.3L144,206.3z"/>
				</g>
				<g>
					<path fill="#545454" d="M250.5,229.5c-12.4-8-25.7-11-40.3-10.3c-0.3,0-0.9,0.5-0.3,0.4c14.5-0.7,27.6,2.3,39.9,10.2
						C250,229.9,250.7,229.6,250.5,229.5L250.5,229.5z"/>
				</g>
				<g>
					<path fill="#545454" d="M252.2,220.5c-14-4.9-27.2-5.7-41.9-4.2c-0.4,0-0.7,0.5-0.1,0.4c14.4-1.5,27.5-0.7,41.3,4.2
						C251.7,220.9,252.5,220.6,252.2,220.5L252.2,220.5z"/>
				</g>
				<g>
					<path fill="#FF99C3" d="M195.9,214.1c0.9,0.2,4.5-2.2,3.8-3.4c-0.9-1.6-5.3-1.9-6.2-0.6C192.5,211.5,195.5,214,195.9,214.1z"/>
					<g>
						<path fill="#1D1D1D" d="M195.7,214.5c1.6,0.2,3.5-1.3,4.3-2.5c1.3-1.8-1.1-2.7-2.5-3c-1.3-0.3-4.5-0.3-4.8,1.5
							c-0.2,1.5,1.5,3.5,2.8,4c0.5,0.2,1.4-0.5,0.7-0.8c-0.9-0.3-1.8-1.5-2.2-2.3c-0.8-1.6,1.4-1.7,2.5-1.6c0.8,0.1,3.1,0.6,2.5,1.8
							c-0.4,0.7-2.1,2.2-3,2.1C195.5,213.6,194.9,214.4,195.7,214.5z"/>
					</g>
				</g>
			</g>
			<g>
				<path fill="#1D1D1D" d="M174.8,172.1c2.2-1.9,4.5-2.2,7.1-0.9c0.6,0.3,1.6-0.6,0.8-1c-3.1-1.5-6.2-1-8.8,1.2
					C173.1,172,174.2,172.5,174.8,172.1L174.8,172.1z"/>
			</g>
			<g>
				<path fill="#1D1D1D" d="M221.6,173.6c1.3-0.6,4.2,0.6,5,1.7c0.4,0.5,2.3-0.2,1.9-0.7c-1.7-2.1-5.8-2.6-8.1-1.4
					c-0.2,0.1-0.6,0.5-0.2,0.7C220.7,174,221.2,173.8,221.6,173.6L221.6,173.6z"/>
			</g>
			<g>
				<g>
					<path fill="#1D1D1B" d="M170.6,180.2c1.6-1-1.5,0.2-3.7-0.7c-2.7-1-3.5-4.3-4.6-3.3c-1,0.9,1.2,3.6,3.9,4.6
						C167.7,181.4,170.6,180.2,170.6,180.2z"/>
					<path fill="#1D1D1B" d="M167.3,181.3c1-1.3-0.6,0.5-3,0.2c-2.4-0.4-3.9-3.1-4.4-1.9c-0.5,1,2.9,3.6,5.3,3.5
						C166.6,183,167.3,181.3,167.3,181.3z"/>
				</g>
				<g>
					<g>
						<path fill="#FFFFFF" d="M163.4,199.7c4.8,11.7,23,6.6,24.7,4.5c5.1-6.7-0.7-26.1-18.1-24.2
							C168.4,180.1,158.4,187.5,163.4,199.7z"/>
						<g>
							<path fill="#1D1D1D" d="M162.5,199.9c3.8,8.2,13.5,8.5,21.2,6.6c6.8-1.7,8-7.2,6.4-13.7c-2.2-8.8-11-14.7-20-13.3
								c-2.3,0.4-4.2,2.6-5.6,4.2C160.6,188.4,160.5,194.4,162.5,199.9c0.2,0.5,1.9,0,1.8-0.5c-1.5-4.2-1.8-8.2-0.1-12.5
								c1-2.5,3.7-6.5,6.7-6.7c8.1-0.7,14.6,4.9,17.2,12.2c1.7,4.8,1.8,11.4-3.8,13.2c-7.2,2.3-16.5,1.4-20-6.2
								C164,198.9,162.3,199.5,162.5,199.9z"/>
						</g>
					</g>
					<path fill="#1D1D1D" d="M182.4,194.3c-0.4,2.7-2.8,4.5-5.5,4.1c-2.6-0.4-4.5-2.8-4.1-5.5c0.4-2.7,2.8-4.5,5.5-4.1
						C180.9,189.2,182.7,191.7,182.4,194.3z"/>
				</g>
			</g>
			<g>
				<g>
					<path fill="#1D1D1B" d="M229.2,185.6c-1.4-1.3,1.4,0.5,3.7,0.1c2.8-0.5,4.3-3.5,5.2-2.3c0.8,1.1-1.9,3.2-4.7,3.7
						C231.8,187.4,229.2,185.6,229.2,185.6z"/>
					<path fill="#1D1D1B" d="M232.2,187.4c-0.7-1.4,0.5,0.7,2.9,0.7c2.4,0.1,4.4-2.3,4.7-1c0.3,1.1-3.5,2.9-5.9,2.4
						C232.5,189.2,232.2,187.4,232.2,187.4z"/>
				</g>
				<g>
					<g>
						<path fill="#FFFFFF" d="M232.4,206.2c-7,10.5-23.9,2-25.1-0.5c-3.7-7.6,5.9-25.5,22.6-20.2C231.4,186,239.7,195.2,232.4,206.2
							z"/>
						<g>
							<path fill="#1D1D1D" d="M231.6,206.2c-5.2,7.1-15.1,4.9-21.6,0.8c-4-2.5-2.5-8.2-1-11.8c1.3-3,3.5-5.5,6.1-7.5
								c3.4-2.6,10.8-4.3,14.6-1.5C236,190.8,235.1,200.4,231.6,206.2c-0.4,0.7,1.4,0.4,1.6,0c4.3-7,4.3-19.6-5.4-21.7
								c-7.7-1.7-16,2.5-19.7,9.3c-1.8,3.3-3,7.1-2.1,10.9c0.6,2.8,3.8,4,6.1,5c7.1,3.1,16.1,3.3,21.1-3.5
								C233.7,205.6,231.9,205.8,231.6,206.2z"/>
						</g>
					</g>
					<path fill="#1D1D1D" d="M215.7,197.1c-0.2,2.7,1.9,5,4.6,5.1c2.7,0.2,5-1.9,5.1-4.6c0.2-2.7-1.9-5-4.6-5.1
						C218.2,192.3,215.9,194.4,215.7,197.1z"/>
				</g>
			</g>
		</g>
		<g>
			<path fill="#D8D8D8" d="M214.9,158.9c-10.1-3.8-24.6-2.2-26.3-1.9c-0.8,0.3,0.2,8.1,12.5,10C211,168.6,217.8,160,214.9,158.9z"/>
			<g>
				<path fill="#1D1D1D" d="M187.8,157.7c2.3,12.8,22.2,11.9,28.1,2.6c0.2-0.3-0.6-0.3-0.7,0c-3.8,6-10.2,7.2-16.7,6
					c-4.9-0.9-9-3.7-9.9-8.8C188.6,157.2,187.8,157.4,187.8,157.7L187.8,157.7z"/>
			</g>
		</g>
		<g>
			<path fill="#FFFFFF" d="M131.1,195.4c0,0-10.5-9.8-16.9-2.9c-5.1,5.5,0.9,8.9,8.4,14.6c0.9,0.7,10.6,15,19.7,32.5l3.1-30
				C139.7,204.6,131.1,195.4,131.1,195.4z"/>
			<g>
				<path fill="#1D1D1D" d="M146.3,209c-5.4-4.7-9.9-10.6-15.4-15.1c-4.5-3.7-13-7.4-17.6-1.7c-6.6,8,6,11.9,9.8,17.3
					c6.9,9.6,12.7,20.1,18.2,30.6c0.5,0.9,2.5,0.1,2-1c-4.6-8.8-9.6-17.5-15.1-25.9c-1.3-2.1-2.7-4.1-4.2-6.1
					c-1.9-2.5-5.3-4.1-7.7-6.2c-3.2-2.7-3.9-5.8-0.5-8.9c2.8-2.6,7-0.9,9.8,0.6c1.5,0.8,3.4,2,4.5,3.2c4.6,5,9.3,9.8,14.5,14.3
					C145.4,210.9,147.3,209.8,146.3,209L146.3,209z"/>
			</g>
		</g>
		<g>
			<path fill="#FFFFFF" d="M281.9,206.8c-3.5-7.3-13-3.9-18.3,0.2c-3.6,2.8-10.7,8.3-14,11.6l-0.6,31.7c9.5-16.7,21-30.6,22-31.1
				C277.5,215.6,284.8,212.8,281.9,206.8z"/>
			<g>
				<path fill="#1D1D1D" d="M250.3,219.2c5-4.8,10.7-9.8,16.7-13.4c4.1-2.4,9.8-3.9,13.2,0.4c4.9,6.1-5.8,10.2-9.7,12.3
					c-3,1.6-5.4,6.1-7.4,8.7c-5.6,7.3-10.6,15-15.1,22.9c-0.6,1.1,1.6,1.2,2.1,0.3c5.6-9.8,11.9-19.1,19.1-27.8
					c4-4.9,14-6.3,14.5-13.5c0.6-7.6-9.2-8-14-6.4c-7.7,2.5-15.1,9.8-20.8,15.3C247.8,219.1,249.5,220,250.3,219.2L250.3,219.2z"/>
			</g>
		</g>
		<g>
			<path fill="#FFFFFF" d="M262.5,207.4l6.8,0.1C274.5,202,269.3,197.6,262.5,207.4z"/>
			<g>
				<path fill="#1D1D1D" d="M270.3,207.4c1.2-1.3,3.9-5.4,0.7-6.2c-1.4-0.3-3.1,0.3-4.3,1c-2.2,1.3-3.8,3.3-5.3,5.3
					c-0.2,0.3,0.8,0.2,0.9,0.2c0.4-0.1,1-0.2,1.3-0.6c1.2-1.6,2.4-3.2,4.1-4.4c0.7-0.5,1.4-1,2.1-0.5c1.8,1.2-0.5,4.3-1.4,5.3
					C267.9,208.1,269.9,207.8,270.3,207.4L270.3,207.4z"/>
			</g>
		</g>
		<path fill="#FC9DD7" d="M197.7,228.9c-1-2.5-4.5-3.2-6.1-0.8c0,0-0.3,0.8,0.5,1.8c2.3,3.1,4.3,1,5,0.1
			C197.6,229.1,197.7,228.9,197.7,228.9z"/>
		<g>
			<path fill="#FFFFFF" d="M126,194.4l6.3,2.8C130.2,185.4,123.6,187.2,126,194.4z"/>
			<g>
				<path fill="#1D1D1D" d="M127.1,194.1c-0.4-1.2-0.6-2.5-0.4-3.7c0.1-0.3,0.2-0.7,0.4-0.9c0.2-0.3-0.1-0.1,0-0.1
					c1,0.2,1.7,1.3,2.1,2.1c1.1,1.8,1.6,4,1.9,6c0.2,0.9,2.3,0.3,2.2-0.6c-0.5-2.8-1.8-8.9-5.6-8.9c-3.7,0-3.6,4.2-2.8,6.7
					C125.2,195.5,127.3,194.9,127.1,194.1L127.1,194.1z"/>
			</g>
		</g>
		<g>
			<path fill="#FFED45" d="M261.9,161.5c3,1.9,6.9,3.3,10.2,2.5c3.9-1,7.1-4.6,9.8-8.8c-2.5,3.9-4.7,8.6-4.3,12.3
				c0.4,3.7,3.6,6.4,6.8,8.4c-2.9-1.9-6.9-3.3-10.2-2.5c-3.9,0.9-7,4.5-9.7,8.8c2.5-3.9,4.4-8.8,4-12.5
				C267.9,166.1,265.1,163.6,261.9,161.5z"/>
			<g>
				<path fill="#1D1D1D" d="M261.3,161.8c6.4,3.9,12.1,2.6,17.5-2.3c1.4-1.2,2.6-2.6,3.9-4c-0.2-0.6-0.3-0.5-0.6,0.2
					c-0.2,0.4-0.5,0.7-0.7,1.1c-0.5,0.7-0.9,1.5-1.3,2.2c-1.4,2.4-2.5,5-2.6,7.8c-0.1,2.4,1,4.5,2.6,6.1c0.5,0.5,1.1,0.9,1.7,1.3
					c0.4,0.3,0.9,0.6,1.4,0.8c0.4-0.4,0.2-0.6-0.6-0.6c-1.5-0.5-3.1-0.8-4.6-0.9c-5.9-0.4-9.7,4.9-12.8,9c0.1,0.1,0.3,0.2,0.4,0.3
					c4-6.9,5.3-17.8-3.8-21.1c-0.3-0.1-0.4,0.4-0.1,0.5c8.8,3.2,7.3,13.7,3.5,20.3c-0.2,0.3,0.2,0.5,0.4,0.3
					c2.1-2.8,4.3-5.8,7.4-7.6c3.4-2,7.5-1,11,0.3c0.3,0.1,0.5-0.3,0.2-0.5c-4.2-2.2-6.9-5.4-5.8-10.3c0.8-3.6,3-6.9,5-9.9
					c0.2-0.2-0.2-0.5-0.4-0.3c-2.5,2.8-5.1,5.6-8.4,7.6c-4.3,2.6-8.8,1.7-12.8-0.8C261.3,161.2,261,161.7,261.3,161.8L261.3,161.8z"
					/>
			</g>
		</g>
		<g>
			<path fill="#FFED45" d="M104.1,166.6c2.4-2.6,4.5-6.2,4.3-9.6c-0.3-4-3.3-7.8-6.9-11.1c3.4,3.1,7.6,6.2,11.4,6.4
				c3.7,0.2,6.9-2.4,9.5-5.2c-2.4,2.5-4.4,6.3-4.3,9.6c0.2,4,3.3,7.7,6.9,11.1c-3.4-3.1-7.9-5.9-11.6-6.1
				C109.7,161.4,106.7,163.8,104.1,166.6z"/>
			<g>
				<path fill="#1D1D1D" d="M104.3,167.2c2.8-3.2,4.4-6.7,3.7-11c-0.4-2.2-1.5-4.3-2.7-6.2c-0.7-1.2-1.5-2.3-2.4-3.4
					c-0.2-0.2-0.4-0.5-0.6-0.7c-0.6-0.7-1.3-0.9-0.4,0c3,2.8,6.3,5.7,10.5,6.5c3.9,0.7,7-2,9.3-4.9c-0.1-0.1-0.3-0.2-0.4-0.3
					c-2.1,3.5-3.5,7.2-2.2,11.2c0.5,1.7,1.6,3.2,2.6,4.5c0.8,1,1.7,2,2.5,3c0.4,0.4,1.7,1,0.6,0.2c-0.3-0.3-0.7-0.5-1-0.8
					c-6.1-4.3-15.2-5.8-19.5,1.6c-0.2,0.3,0.3,0.5,0.4,0.3c4.7-8.1,14.8-4.8,20.6,0c0.3,0.2,0.6-0.1,0.4-0.4
					c-2.4-2.6-4.9-5.2-6.2-8.6c-1.4-3.7,0.3-7.6,2.2-10.8c0.2-0.3-0.2-0.5-0.4-0.3c-3,3.9-6.8,5.8-11.6,3.7
					c-3.2-1.4-5.9-4.1-8.4-6.4c-0.2-0.2-0.6,0.1-0.4,0.4c2.5,3.1,4.9,6.3,6.2,10.1c1.5,4.5-0.3,8.6-3.2,11.9
					C103.7,167.1,104.1,167.5,104.3,167.2L104.3,167.2z"/>
			</g>
		</g>
		<g>
			<path fill="#FFED45" d="M125.2,155.7c2.3-0.6,4.8-2,5.9-4c1.3-2.4,0.9-5.7,0-8.9c0.8,3,2.2,6.3,4.3,7.7c2.1,1.5,4.8,1.1,7.3,0.4
				c-2.3,0.6-4.8,2-5.9,4c-1.3,2.4-0.9,5.6,0,8.9c-0.8-3-2.4-6.2-4.5-7.7C130.2,154.7,127.7,155,125.2,155.7z"/>
			<g>
				<path fill="#1D1D1D" d="M125.1,156.2c6.3-1.9,7.2-7,6.6-12.9c-0.1-1.4-0.3-0.4-0.1,0.5c0.2,0.8,0.5,1.5,0.8,2.3
					c0.5,1.2,1.1,2.4,1.8,3.5c1.2,1.6,3.3,2.5,5.3,2.2c0.4,0,0.9-0.1,1.3-0.2c0.7,0.1,0.9-0.1,0.6-0.5c-0.6,0.3-1.2,0.7-1.8,1.1
					c-1,0.8-1.8,1.7-2.4,2.9c-1.1,2.2-0.6,5-0.2,7.3c0.2,0.9,0.6,0.9,0.2,0c-0.4-0.9-0.8-1.7-1.3-2.5c-0.7-1.2-1.7-2.4-2.9-3.2
					c-2.5-1.8-5.1-2-7.8-0.6c-0.3,0.1,0,0.5,0.2,0.4c5.7-2.9,10.1,2.4,11.9,7.4c0.1,0.3,0.5,0.2,0.4-0.1c-0.5-2.3-1-4.7-0.6-7.1
					c0.5-2.7,2.9-4.3,5.1-5.5c0.2-0.1,0.1-0.5-0.2-0.4c-3,1.1-5.8,1-7.8-1.7c-1.5-2-2.1-4.6-2.7-7c-0.1-0.2-0.5-0.2-0.4,0.1
					c0.7,5.9,0.6,11.8-6.1,13.8C124.7,155.8,124.8,156.3,125.1,156.2L125.1,156.2z"/>
			</g>
		</g>
	</g>
</g>
<g id="Layer_35">
</g>
<g id="Layer_37">
</g>
<g id="Layer_38">
</g>
<g id="Layer_39">
</g>
<g id="Layer_40">
</g>
</svg>
