<?xml version="1.0" encoding="utf-8"?>
<!-- Generator: Adobe Illustrator 18.1.1, SVG Export Plug-In . SVG Version: 6.00 Build 0)  -->
<!DOCTYPE svg PUBLIC "-//W3C//DTD SVG 1.1//EN" "http://www.w3.org/Graphics/SVG/1.1/DTD/svg11.dtd">
<svg version="1.1" xmlns="http://www.w3.org/2000/svg" xmlns:xlink="http://www.w3.org/1999/xlink" x="0px" y="0px"
	 viewBox="0 0 393 483" enable-background="new 0 0 393 483" xml:space="preserve">
<g id="ziutek_x5F_01">
</g>
<g id="ziutek_x5F_02">
</g>
<g id="ziutek_x5F_03">
</g>
<g id="ziutek_x5F_04">
</g>
<g id="ziutek_x5F_05">
</g>
<g id="ziutek_x5F_06">
</g>
<g id="ziutek_x5F_07">
</g>
<g id="ziutek_x5F_08">
</g>
<g id="ziutek_x5F_09">
</g>
<g id="ziutek_x5F_10">
</g>
<g id="lady_x5F_01">
</g>
<g id="Layer_13">
</g>
<g id="Layer_12">
</g>
<g id="Layer_14">
</g>
<g id="Layer_15">
</g>
<g id="Layer_16">
</g>
<g id="Layer_17">
</g>
<g id="Layer_18">
</g>
<g id="Layer_19">
</g>
<g id="Layer_20">
</g>
<g id="Layer_21">
</g>
<g id="Layer_22">
</g>
<g id="Layer_23">
</g>
<g id="Layer_24">
</g>
<g id="Layer_25">
</g>
<g id="Layer_26">
</g>
<g id="Layer_27">
</g>
<g id="Layer_28">
</g>
<g id="Layer_29">
</g>
<g id="Layer_30">
</g>
<g id="Layer_31">
</g>
<g id="Layer_32">
</g>
<g id="Layer_33">
</g>
<g id="Layer_34">
</g>
<g id="Layer_36">
</g>
<g id="Layer_35">
</g>
<g id="Layer_37">
</g>
<g id="Layer_38">
</g>
<g id="Layer_39">
</g>
<g id="Layer_40">
	<g>
		<path fill-rule="evenodd" clip-rule="evenodd" fill="#FFFFFF" d="M187.5,339.2c5.2,0.8,10.2-1.4,13.1-5.3
			c3.1,2.6,7.2,3.9,11.4,3.4c6.9-0.9,12-6.4,12.7-13.1c7.1,5.2,17.2,4.1,23-2.7c4.8-5.6,5.3-13.4,1.9-19.4c9.1,2.8,19-1.5,23.1-10.3
			c3.6-7.7,1.7-16.6-4.2-22.2c0.9,0.1,1.8,0.1,2.8,0c0.4,0,0.7-0.1,1.1-0.2l0.9-0.2c5.7-1.6,9.6-7.2,8.9-13.2
			c-0.3-3-1.7-5.5-3.7-7.4c3.4,0.3,6.7-1,9.1-3.7c1.7-1.9,2.2-5,1.9-7.5l0.2-0.1c2.5-1.6,4.5-3.7,5.8-6.2l0.5-0.9
			c2.7-5.4,2.5-12-1-17.5c-2.2-3.4-5.4-5.9-9-7.1c0.3-3.9-0.8-7.7-3-10.8l-0.6-0.7c-1.8-2.2-4.2-3.9-7.1-4.9
			c-0.8-0.3-1.6-0.5-2.3-0.6c-0.8-4.7-5.2-8.4-10.1-7.8c-3.1,0.3-5.8,2.1-7.4,4.5c-0.4-2.9-2.4-5.4-5.4-6.1c-1.5-0.4-3-0.3-4.3,0.3
			c1.3-4.5-0.1-9.5-4-12.5c-2.3-1.8-5.1-2.6-7.8-2.4c-0.7,0.1-1.5,0.2-2.2,0.4c-2.4,0.6-4.6,2-6.2,4.1c-0.6,0.7-1.1,1.6-1.4,2.4
			c-2.6-3.1-6.9-4.2-10.6-2.7l-0.8,0.4c-0.1,0.1-0.2,0.1-0.4,0.2c-1.7,1-3,2.5-3.8,4.2c-2.8-1.8-6.4-2.1-9.5-0.5
			c0.2-0.6,0.3-1.3,0.4-1.9l0-0.3l0-0.2c0.6-6.7-4.1-12.7-10.8-13.6c-6-0.8-11.6,2.8-13.5,8.3c-1-1-2.1-1.8-3.5-2.4
			c-0.8-0.3-1.6-0.6-2.4-0.7l-1.4-0.1c-4.3-0.1-8.4,2.3-10.1,6.5c-0.4,0.9-0.6,1.9-0.8,2.9c-5.3-1.9-11.1-1-15.6,2l-0.8,0.6
			c-1.9,1.4-3.5,3.2-4.7,5.3c-0.5-1-1.2-1.8-2.1-2.6c-2.4-2.1-5.7-2.8-8.6-2.1l-1,0.3c-1.4,0.5-2.8,1.4-3.8,2.7
			c-2.2,2.5-2.8,5.7-2,8.7c-4.5-1.2-9.4,0.1-12.8,3.7c-3.6,3.7-4.5,9-2.8,13.6c-2.6,0.5-5,1.8-7,3.8c-0.1,0.1-0.3,0.3-0.4,0.4
			l-0.8,1c-3.3,4.7-3.2,11,0.3,15.5c-0.1,0.2-0.3,0.3-0.4,0.5l-0.5,0.7c-3.1,5-2.3,11.7,2.3,15.8c2.2,2,5,3,7.7,3
			c-2.7,2.1-4.3,5.3-4.2,8.9c0,2.7,1.9,5.5,4,7.2c-1.4,9.6,5.1,18.5,14.7,20c0.5,0.1,1,0.1,1.5,0.2c-0.7,2.2-0.8,4.7-0.2,7.1
			c1.7,6.2,7.7,10.1,13.9,9.3c-2.8,9.9,0.4,20.9,8.9,27.7c10,7.9,24,7.4,33.3-0.5C175.1,331.3,180.1,338,187.5,339.2L187.5,339.2z"
			/>
		<path fill-rule="evenodd" clip-rule="evenodd" fill="#FFFFFF" d="M158.9,82.5l0.6-0.1c1.9-0.3,3.9,0,5.8,0.8
			c1.4,0.6,2.6,1.5,3.5,2.5c1.8-2,4.8-2.2,6.8-0.5c2.1,1.7,2.4,4.9,0.7,7c0,0-0.1,0.1-0.1,0.1l0.1,0c4.5-1.3,9.2,1.3,10.4,5.8
			c1.2,4.3-1.1,8.7-5.2,10.2c0.4,0.3,0.8,0.6,1.2,0.9c3.4,3,3.7,8.2,0.6,11.6c-2.8,3.1-7.4,3.6-10.8,1.3c-0.1,0.5-0.2,1-0.5,1.5
			c-1.4,3.2-5.2,4.7-8.5,3.2c-0.6-0.3-1.1-0.6-1.5-1c-0.1,0.2-0.1,0.4-0.2,0.5c-2,5.2-7.8,7.9-13,5.9c-5.2-2-7.9-7.8-5.9-13
			c0.2-0.6,0.5-1.1,0.8-1.7c-5.5,0.3-10.4-3.8-10.9-9.3c-0.3-3.3,0.9-6.3,3.1-8.5c-0.3-1.6-0.2-3.2,0.1-4.7l0.2-0.7
			c1.1-3.9,4.2-7.2,8.4-8.3c2.7-0.7,5.4-0.5,7.7,0.5C154.1,84.4,156.4,83,158.9,82.5L158.9,82.5z"/>
		<path fill-rule="evenodd" clip-rule="evenodd" fill="#FFFFFF" d="M69.5,189.9l0,0.6c0,0.4-0.1,0.7-0.3,1.1c-0.2,0.6-0.6,1.2-1,1.6
			c2.5,0.8,4.2,3.2,3.9,5.9c-0.3,2.9-2.8,5.1-5.7,5c0.3,0.5,0.6,1.2,0.7,1.8c0.6,2.8-1.3,5.6-4.1,6.2c-1.4,0.3-2.8,0-3.9-0.7
			c-2.3,2.8-6.4,3.6-9.6,1.6c-1.8-1.1-2.9-2.8-3.4-4.7c-2.4,0-4.6-1.8-4.8-4.3c-0.2-2.3,1.2-4.3,3.2-5c-3.8-2.5-5.4-7.4-3.5-11.7
			c1.8-4.2,6.3-6.3,10.5-5.5c1.6-2.9,5-4.7,8.5-4.1c3.9,0.6,6.7,4,6.9,7.8C68.5,186.5,69.5,188.1,69.5,189.9L69.5,189.9z"/>
		<path fill-rule="evenodd" clip-rule="evenodd" fill="#FFFFFF" d="M339.8,156.3l0.1-0.9c0.2-2.6-0.4-5.2-1.7-7.4
			c3.3-4,3.5-9.9,0.2-14.2c-3.9-4.9-11-5.8-15.9-1.9c-0.3,0.2-0.6,0.5-0.9,0.7c-0.7-0.9-1.5-1.6-2.5-2.2c-0.7-1.5-2-2.8-3.7-3.5
			c-3.5-1.4-7.5,0.1-9.2,3.3c-2.8-0.8-5.9-0.4-8.6,1.1c-4.9,2.9-6.8,8.8-4.7,13.9c-1.7,1-3.1,2.6-3.8,4.6c-1.3,4.2,1,8.7,5.2,10
			c1,0.3,2,0.4,3,0.3c-2.1,3.8-1.1,8.7,2.6,11.2c3.4,2.3,7.8,1.8,10.7-0.9c0.3,0.9,0.7,1.7,1.4,2.5c0.4,0.4,0.8,0.8,1.2,1.1l0.8,0.5
			c2.3,1.3,5.2,1.2,7.5-0.4c5.2,2.6,11.6,1.2,15.3-3.5c2.5-3.3,3.2-7.4,2.1-11.1c0.3-0.7,0.6-1.4,0.8-2.2
			C339.7,157,339.7,156.6,339.8,156.3L339.8,156.3z"/>
		<path fill-rule="evenodd" clip-rule="evenodd" fill="#FFFFFF" d="M347.9,301.3l1.4,0.1c0.8,0.1,1.6,0.3,2.4,0.7
			c1.4,0.6,2.6,1.4,3.5,2.4c1.9-5.5,7.4-9.2,13.5-8.4c6.7,0.8,11.5,6.8,11,13.5l0,0.2l0,0.3c-0.4,3-1.8,5.6-3.8,7.5
			c1.6,1.4,2.9,3,4,4.8l0.5,0.9c2.7,5.4,2.5,12-1,17.5c-2.2,3.4-5.4,5.9-9,7.1c0.3,3.9-0.8,7.7-3,10.8l-0.6,0.7
			c-1.8,2.2-4.2,3.9-7.1,4.9c-2.1,0.7-4.3,0.9-6.4,0.7c0,3.9-3,7.2-7,7.4c-4,0.2-7.4-3-7.6-7c0-0.1,0-0.2,0-0.3l-0.1,0.2
			c-3.7,5.8-11.4,7.6-17.2,3.9c-5.6-3.5-7.4-10.6-4.4-16.4c-0.7,0.1-1.5,0.2-2.2,0.2c-6.7,0-12.2-5.4-12.2-12.1
			c0-6.2,4.6-11.3,10.6-12.1c-0.4-0.6-0.7-1.3-1-2.1c-1.6-5,1.1-10.3,6.1-11.9c0.9-0.3,1.7-0.4,2.6-0.5c-1.7-7.5,2.4-15.2,9.8-17.9
			c6.3-2.2,13.1-0.1,17,4.8C347.6,301.3,347.7,301.3,347.9,301.3L347.9,301.3z"/>
		<path fill-rule="evenodd" clip-rule="evenodd" fill="#FFFFFF" d="M12.3,346.8l-0.4-0.7c-2.2-5-0.5-11.1,4.2-14.2
			c2.3-1.5,5-2.1,7.5-1.8c-2.2-2.2-3.2-5.4-2.7-8.7c0.4-2.7,2.7-5.1,5-6.3c0-0.8,0-1.6,0.2-2.4c1.1-6.6,7.3-11,13.9-10
			c6.6,1.1,11,7.3,10,13.9l0,0.3c2.8-3,7.4-3.7,11-1.5c2.6,1.6,4,4.4,4.1,7.3c1.8-2.9,5.5-4,8.5-2.5c2.6,1.3,4,4.1,3.6,6.9
			c0.6,0,1.2,0.1,1.9,0.2c3.6,0.9,6.2,3.9,6.6,7.4l0.1,1.1c0,0.7-0.1,1.4-0.2,2c-0.3,1.2-0.8,2.2-1.5,3.2c4.7,0.9,8.4,4.9,8.5,9.9
			c0.1,4.8-3,8.9-7.4,10.2c2,3.2,1.3,7.4-1.7,9.9c-1.5,1.2-3.2,1.7-4.9,1.7c1,1.9,0.9,4.2-0.4,6.1c-1.2,1.8-3.3,2.6-5.3,2.4
			c0,1.8-0.4,3.5-1.3,5.2c-2.6,4.6-8.1,6.4-12.8,4.6l-0.9-0.4c-0.1-0.1-0.3-0.1-0.4-0.2c-2-1.1-3.4-2.7-4.3-4.6
			c-3.2,2.2-7.4,2.5-11,0.5c-3.4-1.9-5.3-5.5-5.3-9.2c-2.1,1.2-4.8,1.3-7.1,0.1c-1.2-0.6-2.1-1.4-2.8-2.4l-0.4-0.7
			c-1.1-2-1.2-4.4-0.3-6.5c-3.3,0.4-6.9-0.6-9.5-3.1c-4.2-3.9-4.9-10.1-2-14.8c-0.6-0.6-1.1-1.2-1.6-1.9
			C12.6,347.4,12.5,347.1,12.3,346.8L12.3,346.8z"/>
		<path fill-rule="evenodd" clip-rule="evenodd" fill="#FFFFFF" d="M231.9,392.7c2.2-3.3,1.3-7.7-2-9.9c-0.2-0.1-0.3-0.2-0.5-0.3
			c1.1-3.2-0.4-6.7-3.5-8.1c-2.4-1-5.1-0.5-6.9,1.1c-0.2-0.4-0.4-0.8-0.7-1.2c-2.1-2.9-6.1-3.5-9-1.4c-2.9,2.1-3.5,6.1-1.4,9
			c0.1,0.2,0.3,0.4,0.5,0.6c-1.6,1.5-2.4,3.8-1.9,6.1c0.4,2,1.7,3.6,3.4,4.4c0.3,4.6,4.3,8.1,8.9,7.8c3.2-0.2,5.8-2.1,7.1-4.8
			C228.2,395.9,230.5,394.8,231.9,392.7L231.9,392.7z"/>
		<path fill-rule="evenodd" clip-rule="evenodd" fill="#FFFFFF" d="M248.1,300.6c14.3-8.2,19.2-19.3,17.2-32.6
			c6,6.4,10,13.2,5.4,22.3C266.6,299.4,258.9,302.6,248.1,300.6L248.1,300.6z"/>
		<path fill-rule="evenodd" clip-rule="evenodd" d="M187.5,339.2c5.2,0.8,10.2-1.4,13.1-5.3c3.1,2.6,7.2,3.9,11.4,3.4
			c6.9-0.9,12-6.4,12.7-13.1c7.1,5.2,17.2,4.1,23-2.7c4.8-5.6,5.3-13.4,1.9-19.4c9.1,2.8,19-1.5,23.1-10.3
			c4.4-9.5,0.5-20.8-8.9-25.5c3.3-1.2,5.5-4.5,5.2-8.1c-0.4-4-3.6-7-7.5-7.1c1.4-4.8,0.5-10.3-2.9-14.4c-4-4.9-10.5-6.7-16.2-5.2
			c-0.8-0.5-1.6-1-2.5-1.2c0.8-4.9-1.4-9.9-5.9-12.6c-3.4-2-7.4-2.2-10.8-0.9c-1.3-3.5-3.9-6.5-7.4-8.4c-5.5-2.9-11.9-2.1-16.6,1.4
			c-2.1-7.6-8.8-13.4-17.1-14c-7.6-0.5-14.5,3.5-18,9.7c-4.8-3.6-11.4-4.3-17-1.3c-5.8,3.1-8.9,9.3-8.3,15.5
			c-4.1,0.2-8.1,2.3-10.6,6c-2.2,3.3-2.7,7.1-1.9,10.7c-2.2,2.4-3.7,5.5-4.3,9l0,0c-8.9-0.4-16.8,5.9-18.2,14.9
			c-1.5,9.6,5.1,18.7,14.7,20.2c0.5,0.1,1,0.1,1.5,0.2c-0.7,2.2-0.8,4.7-0.2,7.1c1.7,6.2,7.7,10.1,13.9,9.3
			c-2.8,9.9,0.4,20.9,8.9,27.7c10,7.9,24,7.4,33.3-0.5C175.1,331.3,180.1,338,187.5,339.2L187.5,339.2z M263.5,266.1l-0.1-0.1
			c-5.2-2.4-11-2.3-15.9-0.2c4.2-1.4,8.8-1.3,13.1,0.7c8.9,4.1,12.7,14.7,8.5,23.5c-4.1,8.9-14.6,12.7-23.5,8.5
			c-4.3-2-7.4-5.5-9-9.6c1.5,5.1,5.1,9.5,10.3,12c3.2,5.7,2.6,13-1.8,18.2c-5.1,6-13.7,7.3-20.3,3.4c0-0.6,0-1.3-0.1-1.9
			c-0.2-1.2-0.5-2.4-0.9-3.5c3.8-1.3,6.5-4.9,6.5-9.2c0-0.6,0-1.1-0.1-1.7l0,0.1c0,4.4-3,8.2-7,9.3c-0.3-0.6-0.6-1.1-1-1.6
			c0.3,0.5,0.5,1.1,0.7,1.6c-0.8,0.2-1.6,0.3-2.4,0.3c-4.8,0-8.8-3.5-9.6-8c0.1,5.3,4.4,9.6,9.7,9.6c0.9,0,1.8-0.1,2.7-0.4
			c0.1,0.5,0.2,0.9,0.3,1.4c1,7.6-4.3,14.5-11.9,15.5c-3.6,0.5-7.1-0.5-9.8-2.4c0.7-1.3,1.1-2.7,1.4-4.2c0.6-4.1-0.6-8-3-10.9
			c1.8,2.6,2.6,5.8,2.1,9.1c-1.1,6.9-7.5,11.6-14.4,10.5c-6.6-1-11.2-7.1-10.6-13.6c0.8-0.7,1.5-1.5,2.2-2.4
			c2.7-3.4,4.4-7.3,5.2-11.3c-0.9,2.6-2.2,5.1-4.1,7.4c-8.5,10.7-24.1,12.5-34.8,4c-10.7-8.5-12.5-24.1-4-34.8
			c1.8-2.3,4-4.2,6.3-5.6c-3.7,1.7-7.1,4.2-9.8,7.6c-1.9,2.4-3.3,5-4.3,7.8c-5.4,0.3-10.4-3.2-11.8-8.6c-1.6-6.2,2-12.5,8.2-14.1
			c3-0.8,6-0.3,8.5,1c-2.9-1.9-6.6-2.7-10.2-1.7c-4.2,1.1-7.4,4.3-8.7,8.1c-9-2.1-14.9-10.7-13.5-20c1.3-8,7.7-13.9,15.4-14.8
			c-1.3,9.5,5.2,18.4,14.8,19.9c1,0.2,2,0.2,3,0.2l-0.2,0c-9.6-1.5-16.2-10.6-14.7-20.2c1.4-8.6,8.7-14.8,17.2-14.9
			c-5.3-0.8-10.4,0.9-14.2,4.2c-0.1-2.8,0.6-5.6,2.2-8.1c2.1-3.2,5.4-5.2,8.9-5.8c0.3,1.6,0.8,3.2,1.6,4.7c2.2,4.2,6,6.9,10.3,7.9
			c-3.4-1.1-6.4-3.5-8.2-6.9c-3.8-7.1-1.1-15.8,6-19.6c4.7-2.5,10.3-2.2,14.5,0.5c-0.8,1.9-1.3,3.9-1.4,6c-0.2,3.2,0.3,6.2,1.5,8.9
			c-0.5-1.9-0.8-4-0.6-6.1c0.7-9.9,9.3-17.4,19.3-16.7c9.9,0.7,17.4,9.3,16.7,19.3c-0.2,2.1-0.7,4.1-1.5,6c1.6-2.5,2.5-5.5,2.8-8.6
			c0.1-1.7,0-3.4-0.3-5c4.5-2.7,10.3-3.1,15.3-0.5c3,1.6,5.3,4,6.8,6.9c-1.8,1-3.5,2.5-4.6,4.5c-1.9,3.2-2.2,6.9-1.2,10.1
			c-0.6-2.7-0.2-5.7,1.3-8.3c3.2-5.4,10.2-7.1,15.6-3.9c3.7,2.2,5.6,6.1,5.5,10.1c-2.7-0.3-5.6,0.6-7.6,2.7
			c3.5-2.6,8.5-2.5,11.8,0.6c3.7,3.5,3.9,9.3,0.4,13l-0.1,0.1c0.4-0.3,0.8-0.7,1.2-1c3.2-3.4,3.3-8.5,0.5-12
			c4.4-0.1,8.8,1.7,11.9,5.4c5.2,6.3,4.3,15.6-2,20.8c-1.3,1.1-2.8,1.9-4.4,2.5c2.4-0.5,4.7-1.6,6.7-3.2c2.4-2,4.1-4.5,5-7.3
			c3.4,0.6,6.1,3.4,6.4,7C268.1,261.7,266.3,264.7,263.5,266.1L263.5,266.1z"/>
		<g>
			<path fill-rule="evenodd" clip-rule="evenodd" d="M94.5,208.6l0.8-1c0.1-0.2,0.3-0.3,0.4-0.4c1.9-2.1,4.4-3.3,7-3.8
				c-1.7-4.5-0.8-9.8,2.8-13.6c3.4-3.6,8.3-4.8,12.8-3.7c-0.8-3-0.1-6.2,2-8.7c1.1-1.2,2.4-2.1,3.8-2.7l1-0.3
				c2.9-0.7,6.2-0.1,8.6,2.1c1.2,1,2.1,2.3,2.6,3.7c-0.5-0.9-1.1-1.7-1.9-2.4c-3.7-3.3-9.4-2.9-12.7,0.9c-2,2.3-2.6,5.2-2,7.9
				c1.5,0.6,2.9,1.5,4.2,2.7c2.8,2.7,4.2,6.3,4.1,10c-0.1-3-1.4-5.9-3.7-8.1c-4.8-4.6-12.4-4.4-16.9,0.4c-4.5,4.8-4.4,12.4,0.4,16.9
				c2.3,2.2,5.3,3.3,8.3,3.3c-3.6,0.3-7.3-0.9-10.2-3.5c-0.9-0.8-1.6-1.7-2.2-2.7c-2.3,0.5-4.4,1.6-6.1,3.4
				c-4.6,4.8-4.4,12.4,0.4,16.9c2.3,2.2,5.3,3.3,8.3,3.3c-3.6,0.3-7.3-0.9-10.2-3.5C91.4,221.1,90.8,213.9,94.5,208.6L94.5,208.6z"
				/>
			<path fill-rule="evenodd" clip-rule="evenodd" d="M167.9,161.9l1.4,0.1c0.8,0.1,1.6,0.4,2.4,0.7c1.4,0.6,2.5,1.4,3.5,2.4
				c1.9-5.5,7.5-9.1,13.5-8.3c6.7,0.9,11.5,6.9,10.8,13.6l0,0.2l0,0.3c-0.5,3.7-2.6,6.8-5.5,8.8c2.2-1.8,3.8-4.4,4.2-7.4
				c0.8-6.3-3.6-12.1-9.9-12.9c-6.3-0.8-12.1,3.6-12.9,9.9c-0.4,3,0.4,6,2.1,8.3c-2.3-2.6-3.4-6.2-2.9-9.9l0-0.2
				c-1-1.2-2.3-2.1-3.8-2.7c-5.1-2.1-10.9,0.3-13.1,5.4c-0.5,1.1-0.7,2.2-0.8,3.3c-0.1-1.6,0.1-3.3,0.8-5
				C159.5,164.2,163.6,161.8,167.9,161.9L167.9,161.9z"/>
			<path fill-rule="evenodd" clip-rule="evenodd" d="M231.7,164.8c0.7-0.2,1.5-0.3,2.2-0.4c2.7-0.2,5.5,0.6,7.8,2.4
				c3.9,3,5.4,8,4,12.5c1.3-0.5,2.8-0.6,4.3-0.3c3,0.7,5.1,3.3,5.4,6.1c1.6-2.5,4.2-4.2,7.4-4.5c5.5-0.6,10.5,4.2,10.2,9.9
				c-0.7-4.9-5.1-8.4-10-7.9c-5,0.5-8.7,5-8.2,10.1c0.3,2.4,1.4,4.5,3.2,6c-2.3-1.6-3.8-4.1-4.1-7.1c-0.2-2.1,0.2-4,1.1-5.7
				c-0.5-2.7-2.5-5.1-5.4-5.8c-1.5-0.4-3-0.3-4.4,0.3c-0.4,0.9-0.9,1.8-1.5,2.6c-1.2,1.5-2.6,2.7-4.3,3.4c1-0.7,1.9-1.5,2.7-2.5
				c0.7-0.9,1.2-1.8,1.5-2.7c-1.1,0.7-2,1.8-2.5,3c0.5-1.7,1.5-3.1,2.9-4.1c1.1-4.1-0.3-8.7-3.9-11.5c-4.8-3.7-11.6-2.8-15.3,2
				c-0.8,1-1.4,2.1-1.7,3.3c0.3-1.8,1-3.5,2.2-5C227.1,166.8,229.3,165.4,231.7,164.8L231.7,164.8z"/>
			<path fill-rule="evenodd" clip-rule="evenodd" d="M94.4,224.6l-0.5,0.7c-3.1,5-2.3,11.7,2.3,15.8c2.2,2,5,3,7.7,3
				c-2.7,2.1-4.3,5.3-4.2,8.9c0.1,3.9,3.8,7.8,6.5,8.6c-2.7-1.9-4.4-5-4.4-8.6c0.1-5.7,4.8-10.4,10.5-10.3c2.8,0,5.3,1.1,7.1,2.9
				c-1.9-2.2-4.7-3.7-7.9-3.9c0.7-0.5,1.4-1.1,2-1.8c1.3-1.5,2.2-3.3,2.7-5.2c-0.5,1.2-1.2,2.3-2.1,3.4c-4.2,4.8-11.5,5.3-16.4,1.1
				c-4.2-3.7-5.1-9.6-2.5-14.3l0.3-0.5c0.3-0.5,0.7-1,1.1-1.5c0.9-1,1.9-1.9,3.1-2.5c-1.8,0.7-3.4,1.8-4.8,3.4
				C94.8,224.1,94.6,224.3,94.4,224.6L94.4,224.6z"/>
			<path fill-rule="evenodd" clip-rule="evenodd" d="M178.1,181.8l0.8,0.5c2.4,1.5,4.4,3.7,5.7,6.5c1.1,2.4,1.6,4.9,1.5,7.3
				c-0.2-1.7-0.6-3.3-1.4-4.9c-1.5-3.2-4.1-5.6-7.1-7l-0.4-0.2c-2.8-1.2-6-1.6-9-0.9c1.2,4,1,8.4-0.9,12.5c2.3-8.2-1.5-17-9.4-20.8
				c-8.8-4.2-19.4-0.5-23.7,8.3l-0.1,0.2c0.3-1,0.6-1.9,1.1-2.8c1.3-2.7,3.2-4.9,5.4-6.6l0.8-0.6c5-3.3,11.6-4,17.5-1.2
				c3.7,1.8,6.5,4.6,8.2,8C170.9,179.3,174.8,179.9,178.1,181.8L178.1,181.8z"/>
			<path fill-rule="evenodd" clip-rule="evenodd" d="M283,194.7l-0.6-0.7c-1.8-2.2-4.2-3.9-7.1-4.9c-2.5-0.8-5-1-7.4-0.6
				c1.7,0,3.3,0.2,5,0.8c3.4,1.1,6.1,3.3,7.8,6.1l0.3,0.4c1.5,2.6,2.3,5.7,2,8.9c-4.1-0.7-8.5,0.1-12.3,2.5
				c7.8-3.3,17.1-0.6,21.8,6.8c5.3,8.2,2.9,19.2-5.3,24.5l-0.2,0.1c0.9-0.4,1.8-0.9,2.7-1.4c2.5-1.6,4.5-3.7,5.8-6.2l0.5-0.9
				c2.7-5.4,2.5-12-1-17.5c-2.2-3.4-5.4-5.9-9-7.1C286.4,201.5,285.3,197.7,283,194.7L283,194.7z"/>
			<path fill-rule="evenodd" clip-rule="evenodd" d="M272.4,269.4l0.9-0.2c5.7-1.6,9.6-7.2,8.9-13.2c-0.3-3-1.7-5.5-3.7-7.4
				c3.4,0.3,6.7-1,9.1-3.7c2.6-2.9,2.5-8.3,0.9-10.7c0.7,3.2-0.1,6.7-2.5,9.3c-3.9,4.2-10.5,4.5-14.7,0.6c-2-1.9-3.2-4.4-3.3-7
				c-0.1,3,1,5.9,3.2,8.2c-0.9-0.1-1.8-0.1-2.7,0c-2,0.2-3.9,1-5.5,2c1.2-0.6,2.4-1,3.8-1.1c6.4-0.7,12.1,3.8,12.8,10.2
				c0.6,5.5-2.7,10.6-7.8,12.3l-0.6,0.2c-0.6,0.2-1.2,0.3-1.9,0.4c-1.4,0.2-2.7,0.1-3.9-0.2c1.8,0.7,3.8,1,5.8,0.7
				C271.7,269.5,272.1,269.4,272.4,269.4L272.4,269.4z"/>
			<path fill-rule="evenodd" clip-rule="evenodd" d="M213.5,168.6l-0.8,0.4c-0.1,0.1-0.2,0.1-0.4,0.2c-1.7,1-3,2.5-3.8,4.2
				c-2.9-1.9-6.7-2.2-9.8-0.3c-3,1.8-4.7,5-4.6,8.2c-1.9-1-4.3-1.1-6.3,0c-1,0.5-1.9,1.3-2.5,2.2l-0.4,0.7c-1,1.9-1.1,4.2,0,6.3
				c0.5,1,1.3,1.8,2.1,2.4c-0.5-0.5-1-1.1-1.3-1.7c-1.6-3.1-0.4-7,2.7-8.6c1.9-1,4-0.9,5.8-0.1c0.2,1.1,0.5,2.3,1.2,3.3
				c1.4,2.4,3.7,3.9,6.2,4.5c-2-0.6-3.8-1.9-5-3.9c-2.3-4.1-1-9.3,3.1-11.6c4.1-2.3,9.3-1,11.6,3.1c1.1,2,1.4,4.2,0.9,6.2
				c0.8-2.4,0.6-5.2-0.8-7.6c-0.4-0.7-0.9-1.4-1.5-2c0.7-1.5,1.9-2.8,3.4-3.6c4.1-2.3,9.3-1,11.6,3.1c1.1,2,1.4,4.2,0.9,6.2
				c0.8-2.4,0.6-5.2-0.8-7.6C222.7,168.6,217.7,166.9,213.5,168.6L213.5,168.6z"/>
		</g>
		<g>
			
				<line fill="none" stroke="#231F20" stroke-width="0.5669" stroke-linecap="round" stroke-linejoin="round" stroke-miterlimit="2.4142" x1="109.6" y1="224.8" x2="118.9" y2="229.6"/>
			
				<line fill="none" stroke="#231F20" stroke-width="0.5669" stroke-linecap="round" stroke-linejoin="round" stroke-miterlimit="2.4142" x1="110.6" y1="220.8" x2="120.1" y2="227.1"/>
			
				<line fill="none" stroke="#231F20" stroke-width="0.5669" stroke-linecap="round" stroke-linejoin="round" stroke-miterlimit="2.4142" x1="118.6" y1="202" x2="129.6" y2="214.1"/>
			
				<line fill="none" stroke="#231F20" stroke-width="0.5669" stroke-linecap="round" stroke-linejoin="round" stroke-miterlimit="2.4142" x1="122.4" y1="202.3" x2="130.1" y2="212"/>
			
				<line fill="none" stroke="#231F20" stroke-width="0.5669" stroke-linecap="round" stroke-linejoin="round" stroke-miterlimit="2.4142" x1="151.7" y1="184.8" x2="155.7" y2="196.3"/>
			
				<line fill="none" stroke="#231F20" stroke-width="0.5669" stroke-linecap="round" stroke-linejoin="round" stroke-miterlimit="2.4142" x1="154.4" y1="185.3" x2="157.9" y2="196.5"/>
			
				<line fill="none" stroke="#231F20" stroke-width="0.5669" stroke-linecap="round" stroke-linejoin="round" stroke-miterlimit="2.4142" x1="138.9" y1="184.3" x2="144.7" y2="200.3"/>
			
				<line fill="none" stroke="#231F20" stroke-width="0.5669" stroke-linecap="round" stroke-linejoin="round" stroke-miterlimit="2.4142" x1="137.4" y1="187" x2="142.7" y2="201"/>
			
				<line fill="none" stroke="#231F20" stroke-width="0.5669" stroke-linecap="round" stroke-linejoin="round" stroke-miterlimit="2.4142" x1="131.9" y1="210.3" x2="123.9" y2="196.3"/>
			
				<line fill="none" stroke="#231F20" stroke-width="0.5669" stroke-linecap="round" stroke-linejoin="round" stroke-miterlimit="2.4142" x1="121.9" y1="225.3" x2="102.3" y2="212.3"/>
			
				<line fill="none" stroke="#231F20" stroke-width="0.5669" stroke-linecap="round" stroke-linejoin="round" stroke-miterlimit="2.4142" x1="117.6" y1="231.8" x2="109.4" y2="228.3"/>
			
				<line fill="none" stroke="#231F20" stroke-width="0.5669" stroke-linecap="round" stroke-linejoin="round" stroke-miterlimit="2.4142" x1="133.9" y1="209.3" x2="129.1" y2="199.5"/>
			
				<line fill="none" stroke="#231F20" stroke-width="0.5669" stroke-linecap="round" stroke-linejoin="round" stroke-miterlimit="2.4142" x1="159.2" y1="197" x2="157.4" y2="186"/>
			
				<line fill="none" stroke="#231F20" stroke-width="0.5669" stroke-linecap="round" stroke-linejoin="round" stroke-miterlimit="2.4142" x1="144.7" y1="191.5" x2="146.2" y2="200.3"/>
			
				<line fill="none" stroke="#231F20" stroke-width="0.5669" stroke-linecap="round" stroke-linejoin="round" stroke-miterlimit="2.4142" x1="162.4" y1="261.4" x2="132.7" y2="250.7"/>
			
				<line fill="none" stroke="#231F20" stroke-width="0.5669" stroke-linecap="round" stroke-linejoin="round" stroke-miterlimit="2.4142" x1="134.9" y1="245.2" x2="162.5" y2="257.2"/>
			
				<line fill="none" stroke="#231F20" stroke-width="0.5669" stroke-linecap="round" stroke-linejoin="round" stroke-miterlimit="2.4142" x1="186.2" y1="216.6" x2="188.7" y2="248.9"/>
			
				<line fill="none" stroke="#231F20" stroke-width="0.5669" stroke-linecap="round" stroke-linejoin="round" stroke-miterlimit="2.4142" x1="193.2" y1="248.1" x2="192" y2="226.3"/>
			
				<line fill="none" stroke="#231F20" stroke-width="0.5669" stroke-linecap="round" stroke-linejoin="round" stroke-miterlimit="2.4142" x1="229.8" y1="233.3" x2="217.3" y2="253.4"/>
			
				<line fill="none" stroke="#231F20" stroke-width="0.5669" stroke-linecap="round" stroke-linejoin="round" stroke-miterlimit="2.4142" x1="220.5" y1="253.4" x2="232.6" y2="235.8"/>
			
				<line fill="none" stroke="#231F20" stroke-width="0.5669" stroke-linecap="round" stroke-linejoin="round" stroke-miterlimit="2.4142" x1="233.6" y1="273.9" x2="254.6" y2="273.9"/>
			
				<line fill="none" stroke="#231F20" stroke-width="0.5669" stroke-linecap="round" stroke-linejoin="round" stroke-miterlimit="2.4142" x1="233.3" y1="276.9" x2="246.3" y2="278.2"/>
			
				<line fill="none" stroke="#231F20" stroke-width="0.5669" stroke-linecap="round" stroke-linejoin="round" stroke-miterlimit="2.4142" x1="221.8" y1="293.4" x2="229.1" y2="306.2"/>
			
				<line fill="none" stroke="#231F20" stroke-width="0.5669" stroke-linecap="round" stroke-linejoin="round" stroke-miterlimit="2.4142" x1="221" y1="295.9" x2="226.3" y2="308.2"/>
			
				<line fill="none" stroke="#231F20" stroke-width="0.5669" stroke-linecap="round" stroke-linejoin="round" stroke-miterlimit="2.4142" x1="178.7" y1="296.7" x2="172.7" y2="305.7"/>
			
				<line fill="none" stroke="#231F20" stroke-width="0.5669" stroke-linecap="round" stroke-linejoin="round" stroke-miterlimit="2.4142" x1="174" y1="280.2" x2="145.2" y2="289.4"/>
			
				<line fill="none" stroke="#231F20" stroke-width="0.5669" stroke-linecap="round" stroke-linejoin="round" stroke-miterlimit="2.4142" x1="171.2" y1="278.2" x2="152.2" y2="282.4"/>
			
				<line fill="none" stroke="#231F20" stroke-width="0.5669" stroke-linecap="round" stroke-linejoin="round" stroke-miterlimit="2.4142" x1="183" y1="293.9" x2="176.5" y2="306.7"/>
			
				<line fill="none" stroke="#231F20" stroke-width="0.5669" stroke-linecap="round" stroke-linejoin="round" stroke-miterlimit="2.4142" x1="217" y1="292.9" x2="222.3" y2="308"/>
			
				<line fill="none" stroke="#231F20" stroke-width="0.5669" stroke-linecap="round" stroke-linejoin="round" stroke-miterlimit="2.4142" x1="228.3" y1="280.2" x2="249.6" y2="282.4"/>
			
				<line fill="none" stroke="#231F20" stroke-width="0.5669" stroke-linecap="round" stroke-linejoin="round" stroke-miterlimit="2.4142" x1="221.5" y1="257.6" x2="236.6" y2="239.8"/>
			
				<line fill="none" stroke="#231F20" stroke-width="0.5669" stroke-linecap="round" stroke-linejoin="round" stroke-miterlimit="2.4142" x1="198.3" y1="229.8" x2="196" y2="254.1"/>
			
				<line fill="none" stroke="#231F20" stroke-width="0.5669" stroke-linecap="round" stroke-linejoin="round" stroke-miterlimit="2.4142" x1="140" y1="239.5" x2="168.7" y2="254.3"/>
			
				<line fill="none" stroke="#231F20" stroke-width="0.5669" stroke-linecap="round" stroke-linejoin="round" stroke-miterlimit="2.4142" x1="146.5" y1="246.5" x2="164.8" y2="255.5"/>
			
				<line fill="none" stroke="#231F20" stroke-width="0.5669" stroke-linecap="round" stroke-linejoin="round" stroke-miterlimit="2.4142" x1="195.1" y1="233.7" x2="194.4" y2="251.2"/>
			
				<line fill="none" stroke="#231F20" stroke-width="0.5669" stroke-linecap="round" stroke-linejoin="round" stroke-miterlimit="2.4142" x1="183.9" y1="218.4" x2="186.6" y2="250.2"/>
			
				<line fill="none" stroke="#231F20" stroke-width="0.5669" stroke-linecap="round" stroke-linejoin="round" stroke-miterlimit="2.4142" x1="190.4" y1="240" x2="191.4" y2="250.2"/>
			
				<line fill="none" stroke="#231F20" stroke-width="0.5669" stroke-linecap="round" stroke-linejoin="round" stroke-miterlimit="2.4142" x1="222.4" y1="238.5" x2="213.7" y2="253.5"/>
			
				<line fill="none" stroke="#231F20" stroke-width="0.5669" stroke-linecap="round" stroke-linejoin="round" stroke-miterlimit="2.4142" x1="229.2" y1="272" x2="250.5" y2="271.3"/>
			
				<line fill="none" stroke="#231F20" stroke-width="0.5669" stroke-linecap="round" stroke-linejoin="round" stroke-miterlimit="2.4142" x1="221.2" y1="288.6" x2="233.2" y2="305.1"/>
			
				<line fill="none" stroke="#231F20" stroke-width="0.5669" stroke-linecap="round" stroke-linejoin="round" stroke-miterlimit="2.4142" x1="186.9" y1="291.3" x2="176.3" y2="312.3"/>
			
				<line fill="none" stroke="#231F20" stroke-width="0.5669" stroke-linecap="round" stroke-linejoin="round" stroke-miterlimit="2.4142" x1="189.1" y1="294.1" x2="182.4" y2="308.3"/>
			
				<line fill="none" stroke="#231F20" stroke-width="0.5669" stroke-linecap="round" stroke-linejoin="round" stroke-miterlimit="2.4142" x1="157.3" y1="291.6" x2="175.1" y2="281.3"/>
			
				<line fill="none" stroke="#231F20" stroke-width="0.5669" stroke-linecap="round" stroke-linejoin="round" stroke-miterlimit="2.4142" x1="149.8" y1="254" x2="169.1" y2="261"/>
			
				<line fill="none" stroke="#231F20" stroke-width="0.5669" stroke-linecap="round" stroke-linejoin="round" stroke-miterlimit="2.4142" x1="261.4" y1="229.6" x2="284.4" y2="218.6"/>
			
				<line fill="none" stroke="#231F20" stroke-width="0.5669" stroke-linecap="round" stroke-linejoin="round" stroke-miterlimit="2.4142" x1="259.4" y1="228.3" x2="277.1" y2="217.6"/>
			
				<line fill="none" stroke="#231F20" stroke-width="0.5669" stroke-linecap="round" stroke-linejoin="round" stroke-miterlimit="2.4142" x1="253.6" y1="219.6" x2="269.4" y2="200"/>
			
				<line fill="none" stroke="#231F20" stroke-width="0.5669" stroke-linecap="round" stroke-linejoin="round" stroke-miterlimit="2.4142" x1="250.6" y1="219.1" x2="264.6" y2="200.5"/>
			
				<line fill="none" stroke="#231F20" stroke-width="0.5669" stroke-linecap="round" stroke-linejoin="round" stroke-miterlimit="2.4142" x1="226.1" y1="181" x2="218.5" y2="203.5"/>
			
				<line fill="none" stroke="#231F20" stroke-width="0.5669" stroke-linecap="round" stroke-linejoin="round" stroke-miterlimit="2.4142" x1="219.8" y1="184.5" x2="216.5" y2="203.5"/>
			
				<line fill="none" stroke="#231F20" stroke-width="0.5669" stroke-linecap="round" stroke-linejoin="round" stroke-miterlimit="2.4142" x1="248.6" y1="196.8" x2="235.1" y2="214.3"/>
			
				<line fill="none" stroke="#231F20" stroke-width="0.5669" stroke-linecap="round" stroke-linejoin="round" stroke-miterlimit="2.4142" x1="241.1" y1="203.3" x2="232.8" y2="212.8"/>
			
				<line fill="none" stroke="#231F20" stroke-width="0.5669" stroke-linecap="round" stroke-linejoin="round" stroke-miterlimit="2.4142" x1="241.6" y1="194.3" x2="229.8" y2="211.8"/>
			
				<line fill="none" stroke="#231F20" stroke-width="0.5669" stroke-linecap="round" stroke-linejoin="round" stroke-miterlimit="2.4142" x1="224.5" y1="192" x2="219.3" y2="204.8"/>
			
				<line fill="none" stroke="#231F20" stroke-width="0.5669" stroke-linecap="round" stroke-linejoin="round" stroke-miterlimit="2.4142" x1="205" y1="188.8" x2="206.3" y2="200.3"/>
			
				<line fill="none" stroke="#231F20" stroke-width="0.5669" stroke-linecap="round" stroke-linejoin="round" stroke-miterlimit="2.4142" x1="201.8" y1="193.5" x2="203.3" y2="203"/>
			
				<line fill="none" stroke="#231F20" stroke-width="0.5669" stroke-linecap="round" stroke-linejoin="round" stroke-miterlimit="2.4142" x1="279.9" y1="224.1" x2="259.4" y2="232.3"/>
			
				<line fill="none" stroke="#231F20" stroke-width="0.5669" stroke-linecap="round" stroke-linejoin="round" stroke-miterlimit="2.4142" x1="265.1" y1="209.8" x2="253.6" y2="223.3"/>
		</g>
		<g>
			<path fill-rule="evenodd" clip-rule="evenodd" d="M347.9,301.3l1.4,0.1c0.8,0.1,1.6,0.3,2.4,0.7c1.4,0.6,2.6,1.4,3.5,2.4
				c1.9-5.5,7.4-9.2,13.5-8.4c6.7,0.8,11.5,6.8,11,13.5l0,0.2l0,0.3c-0.5,3.7-2.5,6.9-5.4,8.8c2.2-1.8,3.7-4.4,4.1-7.5
				c0.8-6.3-3.7-12-10-12.8c-6.3-0.8-12,3.7-12.8,10c-0.4,3,0.5,6,2.2,8.3c-2.3-2.6-3.5-6.1-3-9.9l0-0.2c-1-1.2-2.3-2.1-3.8-2.7
				c-5.1-2.1-10.9,0.4-13,5.5c-0.4,1.1-0.7,2.2-0.7,3.3c-0.2-1.6,0.1-3.3,0.7-5C339.5,303.7,343.6,301.2,347.9,301.3L347.9,301.3z"
				/>
			<path fill-rule="evenodd" clip-rule="evenodd" d="M367.2,358.6l-0.6,0.7c-1.8,2.2-4.2,3.9-7.1,4.9c-2.5,0.8-5,1-7.4,0.6
				c1.7,0,3.3-0.2,5-0.8c3.4-1.1,6.1-3.3,7.8-6.1l0.3-0.4c1.5-2.6,2.3-5.7,2-8.9c-4.1,0.7-8.5-0.1-12.3-2.5
				c7.8,3.3,17.1,0.6,21.8-6.8c5.3-8.2,2.9-19.2-5.3-24.5l-0.2-0.1c0.9,0.4,1.8,0.9,2.7,1.4c2.5,1.6,4.5,3.7,5.8,6.2l0.5,0.9
				c2.7,5.4,2.5,12-1,17.5c-2.2,3.4-5.4,5.9-9,7.1C370.5,351.7,369.4,355.5,367.2,358.6L367.2,358.6z"/>
			<path fill-rule="evenodd" clip-rule="evenodd" d="M330.5,296.5c-8,2.8-12.2,11.6-9.3,19.6c0.3,0.8,0.7,1.6,1.1,2.4l-0.1-0.2
				c-2.8-8,1.4-16.7,9.3-19.6c7.1-2.5,14.9,0.6,18.5,6.9C347.1,297.8,338.4,293.7,330.5,296.5L330.5,296.5z"/>
			<path fill-rule="evenodd" clip-rule="evenodd" d="M302.3,340.8c0,6.7,5.5,12.1,12.2,12.1c2,0,3.9-0.5,5.6-1.4
				c-1.2,0.4-2.5,0.7-3.8,0.7c-6.3,0-11.5-5.1-11.5-11.4c0-6.3,5.1-11.5,11.4-11.5c1.4,0,2.6,0.2,3.9,0.6c-1.7-0.9-3.6-1.4-5.6-1.3
				C307.7,328.7,302.3,334.1,302.3,340.8L302.3,340.8z"/>
			<path fill-rule="evenodd" clip-rule="evenodd" d="M321.1,369.1c-5.8-3.7-7.6-11.4-3.9-17.2c2-3.2,5.1-5.1,8.6-5.7
				c-2.7,0.7-5.2,2.4-6.9,5c-3.4,5.3-1.8,12.4,3.6,15.8c5.3,3.4,12.4,1.8,15.8-3.6c1.6-2.6,2.1-5.6,1.5-8.3c1,3.3,0.6,7-1.4,10.2
				C334.7,371,327,372.8,321.1,369.1L321.1,369.1z"/>
			<path fill-rule="evenodd" clip-rule="evenodd" d="M346.1,372.3c-4,0.2-7.4-3-7.6-7c-0.1-2.2,0.8-4.2,2.2-5.6
				c-1.1,1.2-1.7,2.9-1.6,4.7c0.2,3.7,3.3,6.5,6.9,6.4c3.7-0.2,6.5-3.3,6.4-6.9c-0.1-1.8-0.8-3.4-2-4.5c1.6,1.3,2.6,3.2,2.7,5.4
				C353.3,368.7,350.1,372.1,346.1,372.3L346.1,372.3z"/>
			<path fill-rule="evenodd" clip-rule="evenodd" d="M312,326.7c1.6,5,6.9,7.7,11.9,6.1c1.5-0.5,2.8-1.3,3.8-2.3
				c-0.8,0.6-1.7,1.1-2.7,1.4c-4.7,1.5-9.7-1.1-11.2-5.8c-1.5-4.7,1.1-9.7,5.8-11.2c1-0.3,2-0.5,3-0.4c-1.5-0.2-3-0.2-4.5,0.3
				C313.1,316.4,310.4,321.7,312,326.7L312,326.7z"/>
		</g>
		<g>
			<path fill-rule="evenodd" clip-rule="evenodd" d="M231.9,392.7c2.2-3.3,1.3-7.7-2-9.9c-1-0.7-2.1-1-3.2-1.2
				c0.7,0.2,1.4,0.5,2.1,0.9c3.1,2.1,3.9,6.2,1.8,9.3c-2.1,3.1-6.2,3.9-9.3,1.8c-0.7-0.4-1.2-1-1.7-1.6c0.5,1,1.3,1.8,2.3,2.5
				C225.3,396.9,229.7,396,231.9,392.7L231.9,392.7z"/>
			<path fill-rule="evenodd" clip-rule="evenodd" d="M225.9,374.4c-3.3-1.4-7.1,0.1-8.6,3.3c-0.4,1-0.6,2-0.5,3c0-0.7,0.2-1.4,0.5-2
				c1.4-3.1,5-4.5,8.1-3.2c3.1,1.4,4.5,5,3.2,8.1c-0.3,0.7-0.7,1.2-1.2,1.7c0.8-0.6,1.4-1.5,1.9-2.4
				C230.7,379.7,229.2,375.9,225.9,374.4L225.9,374.4z"/>
			<path fill-rule="evenodd" clip-rule="evenodd" d="M209.3,372.8c2.9-2.1,6.9-1.4,9,1.4c1.1,1.6,1.5,3.4,1.1,5.2
				c0.2-1.4-0.1-3-1.1-4.2c-1.9-2.6-5.6-3.2-8.2-1.3c-2.6,1.9-3.2,5.6-1.3,8.2c0.9,1.3,2.3,2.1,3.7,2.3c-1.8-0.2-3.5-1.1-4.6-2.6
				C205.8,378.9,206.5,374.9,209.3,372.8L209.3,372.8z"/>
			<path fill-rule="evenodd" clip-rule="evenodd" d="M206.4,388.5c0.6,2.9,3.1,4.9,6,5.1c-2.3-0.9-4.1-2.8-4.7-5.4
				c-0.5-2.5,0.2-4.9,1.8-6.7C207.2,382.9,205.8,385.7,206.4,388.5L206.4,388.5z"/>
			<path fill-rule="evenodd" clip-rule="evenodd" d="M218.8,400.7c-4.6,0.3-8.6-3.2-8.9-7.8c0-0.5,0-1,0-1.4l0,0.1
				c0.3,4.6,4.3,8.1,8.9,7.8c4.1-0.3,7.4-3.5,7.8-7.5C226.9,396.4,223.4,400.4,218.8,400.7L218.8,400.7z"/>
		</g>
		<g>
			
				<line fill="none" stroke="#000000" stroke-width="0.3735" stroke-linecap="round" stroke-linejoin="round" stroke-miterlimit="2.4142" x1="278.9" y1="294.7" x2="309.4" y2="317.3"/>
			
				<line fill="none" stroke="#000000" stroke-width="0.3735" stroke-linecap="round" stroke-linejoin="round" stroke-miterlimit="2.4142" x1="280.4" y1="288.7" x2="316.9" y2="305.2"/>
			
				<line fill="none" stroke="#000000" stroke-width="0.3735" stroke-linecap="round" stroke-linejoin="round" stroke-miterlimit="2.4142" x1="285.4" y1="295.2" x2="316.9" y2="312.3"/>
			
				<line fill="none" stroke="#000000" stroke-width="0.3735" stroke-linecap="round" stroke-linejoin="round" stroke-miterlimit="2.4142" x1="279.5" y1="293.1" x2="303.8" y2="308.6"/>
			
				<path fill-rule="evenodd" clip-rule="evenodd" fill="none" stroke="#000000" stroke-width="0.3735" stroke-linecap="round" stroke-linejoin="round" stroke-miterlimit="2.4142" d="
				M289.1,303.6c-0.8-0.4-1.3-1.2-1.3-2.1c0-1.3,1.1-2.4,2.4-2.4c0.5,0,0.9,0.2,1.3,0.4"/>
			
				<path fill-rule="evenodd" clip-rule="evenodd" fill="none" stroke="#000000" stroke-width="0.3735" stroke-linecap="round" stroke-linejoin="round" stroke-miterlimit="2.4142" d="
				M289.7,303.2c-0.5-0.3-0.9-0.8-0.9-1.5c0-0.9,0.7-1.7,1.7-1.7c0.3,0,0.7,0.1,0.9,0.3"/>
			
				<path fill-rule="evenodd" clip-rule="evenodd" fill="none" stroke="#000000" stroke-width="0.3734" stroke-linecap="round" stroke-linejoin="round" stroke-miterlimit="2.4142" d="
				M306,306.7c-1-0.5-1.7-1.6-1.7-2.9c0-1.8,1.4-3.2,3.2-3.2c0.7,0,1.3,0.2,1.8,0.6"/>
		</g>
		<g>
			<path fill-rule="evenodd" clip-rule="evenodd" d="M12.3,346.8l-0.4-0.7c-2.2-5-0.5-11.1,4.2-14.2c2.3-1.5,5-2.1,7.5-1.8
				c-2.2-2.2-3.2-5.4-2.7-8.7c0.6-3.5,4.5-6.7,7.1-7c-2.7,1.4-4.7,4.1-5.2,7.3c-0.7,5.3,3,10.1,8.3,10.8c2.6,0.3,5-0.4,6.9-1.8
				c-2.1,1.8-4.9,2.8-7.8,2.5c0.6,0.6,1.1,1.2,1.6,2c1,1.6,1.6,3.3,1.8,5.1c-0.3-1.2-0.8-2.3-1.4-3.4c-3.2-5-9.9-6.4-14.9-3.1
				c-4.3,2.8-5.9,8.2-4.2,12.8l0.2,0.5c0.2,0.5,0.5,1.1,0.8,1.6c0.7,1.1,1.5,2,2.5,2.7c-1.5-0.9-2.9-2.1-3.9-3.7
				C12.6,347.4,12.5,347.1,12.3,346.8L12.3,346.8z"/>
			<path fill-rule="evenodd" clip-rule="evenodd" d="M58.5,391l-0.9-0.4c-0.1-0.1-0.3-0.1-0.4-0.2c-2-1.1-3.4-2.7-4.3-4.6
				c-3.2,2.2-7.4,2.5-11,0.5c-3.4-1.9-5.3-5.5-5.3-9.2c-2.1,1.2-4.8,1.3-7.1,0.1c-1.2-0.6-2.1-1.4-2.8-2.4l-0.4-0.7
				c-1.1-2.1-1.2-4.7-0.1-7c0.6-1.1,1.4-2,2.3-2.7c-0.6,0.5-1.1,1.2-1.5,1.9c-1.8,3.5-0.4,7.8,3.1,9.6c2.1,1.1,4.5,1,6.5,0
				c0.2-1.3,0.6-2.6,1.3-3.8c1.5-2.7,4.1-4.5,6.9-5.1c-2.3,0.7-4.3,2.2-5.5,4.4c-2.6,4.6-1,10.4,3.6,13c4.6,2.6,10.4,1,13-3.6
				c1.3-2.2,1.5-4.7,0.9-7c0.9,2.7,0.8,5.8-0.8,8.5c-0.5,0.8-1,1.6-1.7,2.2c0.8,1.6,2.1,3.1,3.8,4c4.6,2.6,10.4,1,13-3.6
				c1.3-2.2,1.5-4.7,0.9-7c0.9,2.7,0.8,5.8-0.8,8.5C68.7,391,63.2,392.9,58.5,391L58.5,391z"/>
			<path fill-rule="evenodd" clip-rule="evenodd" d="M73.5,320.3c-3.3-1.6-7.2-0.3-8.8,3c-0.5,1-0.7,2-0.7,3.1
				c0.1-0.7,0.3-1.4,0.6-2c1.5-3.1,5.2-4.4,8.3-2.8c3.1,1.5,4.4,5.2,2.8,8.3c-0.3,0.7-0.7,1.2-1.2,1.7c0.8-0.6,1.5-1.4,2-2.4
				C78.1,325.8,76.8,321.9,73.5,320.3L73.5,320.3z"/>
			<path fill-rule="evenodd" clip-rule="evenodd" d="M16.4,364.4c-4.8-4.5-5-11.9-0.6-16.7c2.4-2.6,5.7-3.8,9-3.7
				c-2.7,0.2-5.3,1.3-7.3,3.4c-4.1,4.4-3.8,11.2,0.5,15.3c4.4,4.1,11.2,3.8,15.3-0.5c2-2.1,2.9-4.8,2.9-7.5c0.3,3.3-0.7,6.6-3.1,9.2
				C28.7,368.6,21.2,368.8,16.4,364.4L16.4,364.4z"/>
			<path fill-rule="evenodd" clip-rule="evenodd" d="M39.9,302.8c6.6,1.1,11,7.3,10,13.9c-0.6,3.6-2.7,6.5-5.5,8.3
				c2.2-1.7,3.8-4.1,4.2-7c1-6-3.1-11.7-9.1-12.7c-6-1-11.7,3.1-12.7,9.1c-0.5,2.9,0.2,5.7,1.8,8c-2.1-2.6-3.1-6-2.6-9.6
				C27.1,306.1,33.4,301.7,39.9,302.8L39.9,302.8z"/>
			<path fill-rule="evenodd" clip-rule="evenodd" d="M60.9,315.5c-4.1-2.6-9.4-1.3-12,2.7c-0.3,0.4-0.5,0.9-0.7,1.3l0.1-0.1
				c2.6-4.1,7.9-5.3,12-2.7c3.6,2.3,5,6.8,3.4,10.7C66.1,323.3,64.9,318,60.9,315.5L60.9,315.5z"/>
			<path fill-rule="evenodd" clip-rule="evenodd" d="M83.3,371.1c3.3-2.6,3.8-7.4,1.1-10.7c-0.3-0.3-0.6-0.7-0.9-0.9l0.1,0.1
				c2.6,3.3,2.1,8-1.1,10.7c-2.9,2.4-7,2.2-9.8-0.2C75.3,373.2,80,373.7,83.3,371.1L83.3,371.1z"/>
			<path fill-rule="evenodd" clip-rule="evenodd" d="M85.6,334.8l0.1,1.1c0,0.7-0.1,1.4-0.2,2c-0.3,1.2-0.8,2.2-1.5,3.2
				c4.7,0.9,8.4,4.9,8.5,9.9c0.1,5.6-4.2,10.2-9.7,10.6l-0.2,0l-0.2,0c-3.1,0.1-5.9-1.2-7.8-3.3c1.7,1.6,4.1,2.5,6.6,2.5
				c5.2-0.1,9.4-4.5,9.2-9.7c-0.1-5.2-4.5-9.4-9.7-9.3c-2.5,0.1-4.8,1.1-6.5,2.8c1.8-2.2,4.6-3.6,7.7-3.7h0.1c0.8-1,1.4-2.1,1.7-3.4
				c1.1-4.4-1.6-8.9-6.1-9.9c-0.9-0.2-1.9-0.3-2.8-0.2c1.3-0.3,2.7-0.3,4.1,0C82.6,328.3,85.1,331.3,85.6,334.8L85.6,334.8z"/>
			<path fill-rule="evenodd" clip-rule="evenodd" d="M77.9,378.8c1.9-2.6,1.2-6.3-1.4-8.1c-0.3-0.2-0.6-0.4-0.9-0.5l0.1,0
				c2.6,1.9,3.2,5.5,1.4,8.1c-1.7,2.3-4.8,3.1-7.3,1.9C72.5,382.1,76.1,381.5,77.9,378.8L77.9,378.8z"/>
		</g>
		<g>
			
				<line fill="none" stroke="#000000" stroke-width="0.3735" stroke-linecap="round" stroke-linejoin="round" stroke-miterlimit="2.4142" x1="124.5" y1="305.9" x2="89.1" y2="324.3"/>
			
				<line fill="none" stroke="#000000" stroke-width="0.3735" stroke-linecap="round" stroke-linejoin="round" stroke-miterlimit="2.4142" x1="121.2" y1="305.1" x2="84.4" y2="322.1"/>
			
				<line fill="none" stroke="#000000" stroke-width="0.3735" stroke-linecap="round" stroke-linejoin="round" stroke-miterlimit="2.4142" x1="128.5" y1="305.9" x2="110.7" y2="320.1"/>
			
				<line fill="none" stroke="#000000" stroke-width="0.3735" stroke-linecap="round" stroke-linejoin="round" stroke-miterlimit="2.4142" x1="128.5" y1="309.6" x2="89.9" y2="339.9"/>
			
				<line fill="none" stroke="#000000" stroke-width="0.3735" stroke-linecap="round" stroke-linejoin="round" stroke-miterlimit="2.4142" x1="115.2" y1="314" x2="89.9" y2="330"/>
			
				<path fill-rule="evenodd" clip-rule="evenodd" fill="none" stroke="#000000" stroke-width="0.3735" stroke-linecap="round" stroke-linejoin="round" stroke-miterlimit="2.4142" d="
				M118.9,311.9c0.7-0.6,1.8-0.9,2.8-0.5c1.4,0.5,2.1,2.1,1.5,3.5c-0.2,0.5-0.6,1-1,1.3"/>
			
				<path fill-rule="evenodd" clip-rule="evenodd" fill="none" stroke="#000000" stroke-width="0.3735" stroke-linecap="round" stroke-linejoin="round" stroke-miterlimit="2.4142" d="
				M119.1,312.8c0.5-0.5,1.3-0.6,2-0.3c1,0.4,1.5,1.5,1.1,2.5c-0.1,0.4-0.4,0.7-0.7,0.9"/>
			
				<path fill-rule="evenodd" clip-rule="evenodd" fill="none" stroke="#000000" stroke-width="0.3736" stroke-linecap="round" stroke-linejoin="round" stroke-miterlimit="2.4142" d="
				M94.8,319.5c1.3-0.7,2.9-0.7,4.2,0.2c1.9,1.3,2.3,3.8,1.1,5.7c-0.5,0.7-1.1,1.2-1.9,1.5"/>
			
				<path fill-rule="evenodd" clip-rule="evenodd" fill="none" stroke="#000000" stroke-width="0.3735" stroke-linecap="round" stroke-linejoin="round" stroke-miterlimit="2.4142" d="
				M94.8,320.9c0.9-0.5,2.1-0.5,3,0.2c1.3,0.9,1.6,2.7,0.8,4c-0.3,0.5-0.8,0.8-1.3,1"/>
			
				<path fill-rule="evenodd" clip-rule="evenodd" fill="none" stroke="#000000" stroke-width="0.3734" stroke-linecap="round" stroke-linejoin="round" stroke-miterlimit="2.4142" d="
				M108.6,309.5c0.8-0.5,1.9-0.5,2.7,0.1c1.2,0.8,1.5,2.4,0.8,3.6c-0.3,0.5-0.7,0.8-1.2,1"/>
			
				<path fill-rule="evenodd" clip-rule="evenodd" fill="none" stroke="#000000" stroke-width="0.3735" stroke-linecap="round" stroke-linejoin="round" stroke-miterlimit="2.4142" d="
				M108.5,310.4c0.6-0.3,1.3-0.3,1.9,0.1c0.8,0.6,1.1,1.7,0.5,2.5c-0.2,0.3-0.5,0.6-0.8,0.7"/>
		</g>
		<g>
			
				<line fill="none" stroke="#000000" stroke-width="0.3735" stroke-linecap="round" stroke-linejoin="round" stroke-miterlimit="2.4142" x1="213.5" y1="339.9" x2="219.5" y2="368"/>
			
				<line fill="none" stroke="#000000" stroke-width="0.3735" stroke-linecap="round" stroke-linejoin="round" stroke-miterlimit="2.4142" x1="210.2" y1="340.4" x2="213.5" y2="367.5"/>
			
				<path fill-rule="evenodd" clip-rule="evenodd" fill="none" stroke="#000000" stroke-width="0.3735" stroke-linecap="round" stroke-linejoin="round" stroke-miterlimit="2.4142" d="
				M209.5,350.9c-0.3-1.4,0.3-3,1.5-4c1.8-1.4,4.4-1.1,5.7,0.7c0.5,0.7,0.8,1.5,0.9,2.2"/>
			
				<path fill-rule="evenodd" clip-rule="evenodd" fill="none" stroke="#000000" stroke-width="0.3734" stroke-linecap="round" stroke-linejoin="round" stroke-miterlimit="2.4142" d="
				M210.8,351.4c-0.2-1,0.2-2.1,1.1-2.8c1.3-1,3.1-0.8,4,0.5c0.4,0.5,0.6,1,0.6,1.6"/>
		</g>
		<g>
			
				<line fill="none" stroke="#000000" stroke-width="0.3735" stroke-linecap="round" stroke-linejoin="round" stroke-miterlimit="2.4142" x1="176.7" y1="156.9" x2="174.2" y2="129.8"/>
			
				<line fill="none" stroke="#000000" stroke-width="0.3735" stroke-linecap="round" stroke-linejoin="round" stroke-miterlimit="2.4142" x1="172.8" y1="159" x2="164.2" y2="131.5"/>
			
				<line fill="none" stroke="#000000" stroke-width="0.3735" stroke-linecap="round" stroke-linejoin="round" stroke-miterlimit="2.4142" x1="173.9" y1="153.2" x2="167.9" y2="128.2"/>
			
				<line fill="none" stroke="#000000" stroke-width="0.3735" stroke-linecap="round" stroke-linejoin="round" stroke-miterlimit="2.4142" x1="175.6" y1="157.3" x2="172.2" y2="136.9"/>
			
				<path fill-rule="evenodd" clip-rule="evenodd" fill="none" stroke="#000000" stroke-width="0.3734" stroke-linecap="round" stroke-linejoin="round" stroke-miterlimit="2.4142" d="
				M176.6,147.2c0.1,0.6,0,1.2-0.5,1.7c-0.7,0.6-1.8,0.6-2.4-0.1c-0.2-0.3-0.4-0.6-0.4-0.9"/>
			
				<path fill-rule="evenodd" clip-rule="evenodd" fill="none" stroke="#000000" stroke-width="0.3734" stroke-linecap="round" stroke-linejoin="round" stroke-miterlimit="2.4142" d="
				M171.2,136.9c0.1,1-0.2,2.1-1.1,2.9c-1.4,1.2-3.4,1.1-4.6-0.3c-0.4-0.4-0.6-0.9-0.7-1.4"/>
			
				<path fill-rule="evenodd" clip-rule="evenodd" fill="none" stroke="#000000" stroke-width="0.3735" stroke-linecap="round" stroke-linejoin="round" stroke-miterlimit="2.4142" d="
				M176,147c0.1,0.4,0,0.9-0.4,1.2c-0.5,0.4-1.2,0.4-1.7-0.1c-0.2-0.2-0.3-0.4-0.3-0.6"/>
			
				<path fill-rule="evenodd" clip-rule="evenodd" fill="none" stroke="#000000" stroke-width="0.3735" stroke-linecap="round" stroke-linejoin="round" stroke-miterlimit="2.4142" d="
				M170.2,136.7c0.2,0.8,0,1.7-0.7,2.3c-0.9,0.8-2.4,0.8-3.3-0.2c-0.3-0.4-0.5-0.8-0.6-1.2"/>
			
				<path fill-rule="evenodd" clip-rule="evenodd" fill="none" stroke="#000000" stroke-width="0.3735" stroke-linecap="round" stroke-linejoin="round" stroke-miterlimit="2.4142" d="
				M169.1,136.8c0.1,0.5,0,1-0.4,1.3c-0.5,0.5-1.4,0.4-1.8-0.1c-0.2-0.2-0.3-0.4-0.3-0.7"/>
		</g>
		<g>
			<path fill-rule="evenodd" clip-rule="evenodd" d="M158.9,82.5l0.6-0.1c1.9-0.3,3.9,0,5.8,0.8c1.6,0.7,3,1.8,4,3.1
				c-0.8-0.8-1.8-1.4-2.9-1.9c-2.2-1-4.6-1.1-6.7-0.5l-0.3,0.1c-2,0.6-3.7,1.8-5,3.5c2.4,1.5,4.2,3.9,5.1,6.8
				c-2.4-5.2-8.3-8.1-14-6.5c-6.4,1.7-10.2,8.3-8.4,14.7l0,0.1c-0.3-0.6-0.5-1.3-0.7-1.9c-0.5-1.9-0.5-3.9-0.1-5.7l0.2-0.7
				c1.1-3.9,4.2-7.2,8.4-8.3c2.7-0.7,5.4-0.5,7.7,0.5C154.1,84.4,156.4,83,158.9,82.5L158.9,82.5z"/>
			<path fill-rule="evenodd" clip-rule="evenodd" d="M133,108.2c0.6,5.7,5.6,9.9,11.3,9.3c0.6-0.1,1.2-0.2,1.7-0.3l-0.1,0
				c-5.7,0.6-10.8-3.6-11.3-9.3c-0.5-5.1,2.8-9.7,7.5-11C136.5,97.5,132.4,102.5,133,108.2L133,108.2z"/>
			<path fill-rule="evenodd" clip-rule="evenodd" d="M183.4,120.8c3-3.4,2.7-8.6-0.6-11.6c-1-0.9-2.2-1.5-3.4-1.8
				c0.8,0.3,1.6,0.8,2.2,1.4c3.2,2.9,3.5,7.7,0.6,10.9c-2.9,3.2-7.7,3.5-10.9,0.6c-0.7-0.6-1.2-1.3-1.6-2.1c0.5,1.2,1.2,2.3,2.2,3.2
				C175.2,124.4,180.4,124.2,183.4,120.8L183.4,120.8z"/>
			<path fill-rule="evenodd" clip-rule="evenodd" d="M186.8,98.1c1.3,4.5-1.3,9.2-5.8,10.4c-2.4,0.7-4.9,0.2-6.9-1
				c1.7,0.9,3.7,1.2,5.7,0.6c4.1-1.2,6.5-5.4,5.3-9.5c-1.2-4.1-5.4-6.5-9.5-5.3c-2,0.6-3.6,1.9-4.5,3.5c1-2.1,2.9-3.8,5.3-4.5
				C180.8,90.9,185.5,93.6,186.8,98.1L186.8,98.1z"/>
			<path fill-rule="evenodd" clip-rule="evenodd" d="M175.7,85.2c2.1,1.7,2.4,4.9,0.7,7c-0.9,1.1-2.3,1.7-3.6,1.8
				c1.1-0.1,2.2-0.7,2.9-1.6c1.6-1.9,1.3-4.8-0.6-6.4c-1.9-1.6-4.8-1.3-6.4,0.6c-0.8,0.9-1.1,2.1-1,3.2c-0.2-1.4,0.1-2.8,1.1-3.9
				C170.4,83.7,173.6,83.4,175.7,85.2L175.7,85.2z"/>
			<path fill-rule="evenodd" clip-rule="evenodd" d="M172.2,123.5c1.4-3.2,0-7-3.2-8.5c-1-0.4-2-0.6-3-0.6c0.7,0.1,1.3,0.2,2,0.5
				c3,1.4,4.4,4.9,3,8c-1.4,3-4.9,4.4-8,3c-0.6-0.3-1.2-0.7-1.7-1.1c0.6,0.8,1.4,1.4,2.4,1.9C166.9,128.2,170.7,126.7,172.2,123.5
				L172.2,123.5z"/>
			<path fill-rule="evenodd" clip-rule="evenodd" d="M149,132.2c-5.2-2-7.9-7.8-5.9-13c1.1-2.8,3.3-4.9,5.9-5.9
				c-2.1,1-3.8,2.7-4.6,5.1c-1.8,4.8,0.6,10.1,5.4,11.9c4.8,1.8,10.1-0.6,11.9-5.4c0.9-2.3,0.8-4.8-0.1-6.9c1.3,2.5,1.6,5.5,0.5,8.3
				C160,131.5,154.2,134.2,149,132.2L149,132.2z"/>
		</g>
		<g>
			<path fill-rule="evenodd" clip-rule="evenodd" d="M339.8,156.3l0.1-0.9c0.5-5.9-3.4-11.5-9.3-12.9c-2.9-0.7-5.8-0.4-8.3,0.8
				c1.4-3,1.4-6.7-0.3-9.9c-1.8-3.4-6.9-5.2-9.7-4.7c3.3,0.5,6.2,2.5,7.8,5.6c2.6,5.1,0.5,11.4-4.6,14c-2.5,1.3-5.2,1.4-7.7,0.7
				c2.8,1.1,5.9,1.1,8.8-0.2c-0.4,0.8-0.7,1.7-0.9,2.6c-0.5,2-0.5,4,0,5.8c-0.1-1.3,0-2.6,0.3-3.9c1.5-6.2,7.8-10,14.1-8.5
				c5.4,1.3,8.9,6.2,8.8,11.6l0,0.6c0,0.6-0.2,1.3-0.3,1.9c-0.3,1.3-0.9,2.5-1.6,3.6c1.3-1.4,2.2-3.2,2.7-5.2
				C339.7,157,339.7,156.6,339.8,156.3L339.8,156.3z"/>
			<path fill-rule="evenodd" clip-rule="evenodd" d="M313.9,174.6l-0.8-0.5c-0.4-0.3-0.9-0.7-1.2-1.1c-0.7-0.8-1.1-1.6-1.4-2.5
				c-2.8,2.7-7.3,3.2-10.7,0.9c-3.8-2.6-4.8-7.7-2.4-11.5l0.1-0.1l0.1-0.1c1.4-2.1,3.6-3.3,6-3.6c-1.9,0.4-3.6,1.5-4.8,3.2
				c-2.4,3.5-1.5,8.4,2,10.8c3.5,2.4,8.4,1.5,10.8-2c1.2-1.7,1.6-3.7,1.3-5.6c0.6,2.3,0.2,4.8-1.2,6.9l-0.1,0.1c0.2,1,0.7,2,1.4,2.8
				c2.4,2.8,6.7,3.1,9.5,0.7c0.6-0.5,1.1-1.1,1.5-1.8c-0.4,1-1.1,2-2,2.8C319.7,175.7,316.5,176,313.9,174.6L313.9,174.6z"/>
			<path fill-rule="evenodd" clip-rule="evenodd" d="M336.7,170.7c-4.2,5.4-12,6.4-17.4,2.2c-0.6-0.4-1.1-0.9-1.6-1.4l0.1,0.1
				c5.4,4.2,13.2,3.2,17.4-2.2c3.8-4.8,3.4-11.6-0.7-16C339.9,157.6,340.9,165.3,336.7,170.7L336.7,170.7z"/>
			<path fill-rule="evenodd" clip-rule="evenodd" d="M289,149.9c1.3-4.2,5.8-6.5,10-5.2c2.3,0.7,4,2.3,4.9,4.3
				c-0.9-1.6-2.3-2.8-4.2-3.4c-3.8-1.2-7.9,1-9.1,4.8c-1.2,3.8,1,7.9,4.8,9.1c1.9,0.6,3.8,0.4,5.4-0.4c-1.9,1.1-4.2,1.5-6.5,0.8
				C290.1,158.6,287.7,154.1,289,149.9L289,149.9z"/>
			<path fill-rule="evenodd" clip-rule="evenodd" d="M297.5,131.4c-5.3,3.1-7.1,10-4,15.4c0.3,0.6,0.7,1.1,1.1,1.6l-0.1-0.1
				c-3.1-5.3-1.3-12.2,4-15.4c4.8-2.8,10.8-1.7,14.2,2.4C309.6,130,302.8,128.3,297.5,131.4L297.5,131.4z"/>
			<path fill-rule="evenodd" clip-rule="evenodd" d="M315.3,126.9c-3.7-1.5-7.9,0.2-9.4,3.9c-0.5,1.1-0.6,2.3-0.5,3.4
				c0-0.8,0.2-1.5,0.5-2.3c1.4-3.5,5.4-5.1,8.9-3.7c3.5,1.4,5.1,5.4,3.7,8.9c-0.3,0.7-0.7,1.4-1.2,2c0.9-0.7,1.6-1.7,2-2.8
				C320.7,132.6,319,128.4,315.3,126.9L315.3,126.9z"/>
			<path fill-rule="evenodd" clip-rule="evenodd" d="M338.3,133.8c-3.9-4.9-11-5.8-15.9-1.9c-0.5,0.4-1,0.9-1.4,1.3l0.1-0.1
				c4.9-3.9,12.1-3,15.9,1.9c3.5,4.4,3.1,10.6-0.5,14.6C341.3,145.8,342.1,138.7,338.3,133.8L338.3,133.8z"/>
		</g>
		<g>
			
				<line fill="none" stroke="#000000" stroke-width="0.3735" stroke-linecap="round" stroke-linejoin="round" stroke-miterlimit="2.4142" x1="277.7" y1="189.3" x2="295.3" y2="172.8"/>
			
				<line fill="none" stroke="#000000" stroke-width="0.3735" stroke-linecap="round" stroke-linejoin="round" stroke-miterlimit="2.4142" x1="275.7" y1="187.5" x2="290.9" y2="170.3"/>
			
				<path fill-rule="evenodd" clip-rule="evenodd" fill="none" stroke="#000000" stroke-width="0.3735" stroke-linecap="round" stroke-linejoin="round" stroke-miterlimit="2.4142" d="
				M280.3,179.9c-0.9,0.9-1.2,2.2-0.8,3.4c0.6,1.8,2.5,2.8,4.3,2.2c0.7-0.2,1.2-0.6,1.6-1.1"/>
			
				<path fill-rule="evenodd" clip-rule="evenodd" fill="none" stroke="#000000" stroke-width="0.3735" stroke-linecap="round" stroke-linejoin="round" stroke-miterlimit="2.4142" d="
				M281.4,180.2c-0.6,0.6-0.9,1.5-0.6,2.4c0.4,1.3,1.7,2,3,1.6c0.5-0.2,0.9-0.4,1.2-0.8"/>
			
				<line fill="none" stroke="#000000" stroke-width="0.3735" stroke-linecap="round" stroke-linejoin="round" stroke-miterlimit="2.4142" x1="281.8" y1="190.2" x2="303" y2="175.2"/>
			
				<line fill="none" stroke="#000000" stroke-width="0.3735" stroke-linecap="round" stroke-linejoin="round" stroke-miterlimit="2.4142" x1="288.1" y1="182.7" x2="298.9" y2="174.3"/>
		</g>
		<g>
			<path fill-rule="evenodd" clip-rule="evenodd" d="M69.5,189.9l0,0.6c0,0.4-0.1,0.7-0.3,1.1c-0.2,0.6-0.6,1.2-1,1.6
				c2.5,0.8,4.2,3.2,3.9,5.9c-0.3,3-2.9,5.2-5.9,5l-0.1,0l-0.1,0c-1.7-0.2-3.1-1.1-4-2.3c0.8,1,2,1.6,3.4,1.8
				c2.8,0.3,5.3-1.8,5.6-4.6c0.3-2.8-1.8-5.3-4.6-5.6c-1.4-0.1-2.7,0.3-3.7,1c1.1-1.1,2.7-1.6,4.4-1.5l0.1,0c0.5-0.5,0.9-1,1.2-1.7
				c0.9-2.3-0.3-4.9-2.6-5.8c-0.5-0.2-1-0.3-1.5-0.3c0.7-0.1,1.5,0,2.2,0.3C68.4,186.2,69.5,188,69.5,189.9L69.5,189.9z"/>
			<path fill-rule="evenodd" clip-rule="evenodd" d="M60.1,177.9c4.5,0.7,7.5,4.9,6.8,9.4c-0.1,0.5-0.2,0.9-0.3,1.4l0-0.1
				c0.7-4.5-2.3-8.7-6.8-9.4c-4-0.7-7.8,1.7-9.1,5.4C51.4,180.1,55.6,177.2,60.1,177.9L60.1,177.9z"/>
			<path fill-rule="evenodd" clip-rule="evenodd" d="M63,212.2c-2.8,0.6-5.6-1.3-6.2-4.1c-0.3-1.5,0.1-3.1,1-4.2
				c-0.6,1-0.9,2.2-0.7,3.5c0.5,2.6,3,4.3,5.7,3.8c2.6-0.5,4.3-3,3.8-5.7c-0.3-1.3-1-2.3-1.9-3c1.3,0.7,2.2,2,2.5,3.5
				C67.7,208.8,65.8,211.6,63,212.2L63,212.2z"/>
			<path fill-rule="evenodd" clip-rule="evenodd" d="M49.5,213c3.5,2.1,8.1,1,10.2-2.5c0.2-0.4,0.4-0.8,0.6-1.1l0,0.1
				c-2.1,3.5-6.7,4.6-10.2,2.5c-3.1-1.9-4.4-5.7-3.1-9C44.9,206.4,46.1,210.9,49.5,213L49.5,213z"/>
			<path fill-rule="evenodd" clip-rule="evenodd" d="M41.3,204.1c0.3,2.6,2.6,4.5,5.2,4.2c0.8-0.1,1.5-0.4,2.1-0.8
				c-0.5,0.2-0.9,0.4-1.5,0.4c-2.5,0.3-4.7-1.5-4.9-4c-0.3-2.5,1.5-4.7,4-4.9c0.5-0.1,1,0,1.5,0.1c-0.7-0.3-1.5-0.4-2.2-0.3
				C43,199.2,41.1,201.5,41.3,204.1L41.3,204.1z"/>
			<path fill-rule="evenodd" clip-rule="evenodd" d="M41,187.5c-2.1,4.8,0.1,10.3,4.9,12.4c0.5,0.2,1,0.4,1.5,0.5l-0.1,0
				c-4.8-2.1-6.9-7.6-4.9-12.4c1.9-4.3,6.5-6.5,10.8-5.4C48.6,180.5,43.1,182.7,41,187.5L41,187.5z"/>
		</g>
		<g>
			
				<line fill="none" stroke="#000000" stroke-width="0.3735" stroke-linecap="round" stroke-linejoin="round" stroke-miterlimit="2.4142" x1="89.5" y1="206.3" x2="74.4" y2="201.3"/>
			
				<line fill="none" stroke="#000000" stroke-width="0.3735" stroke-linecap="round" stroke-linejoin="round" stroke-miterlimit="2.4142" x1="89" y1="208" x2="74.3" y2="204.6"/>
			
				<path fill-rule="evenodd" clip-rule="evenodd" fill="none" stroke="#000000" stroke-width="0.3734" stroke-linecap="round" stroke-linejoin="round" stroke-miterlimit="2.4142" d="
				M83.2,207.8c0.8,0.2,1.7,0,2.3-0.6c0.9-0.9,0.8-2.3-0.1-3.2c-0.3-0.3-0.7-0.5-1.2-0.6"/>
			
				<path fill-rule="evenodd" clip-rule="evenodd" fill="none" stroke="#000000" stroke-width="0.3734" stroke-linecap="round" stroke-linejoin="round" stroke-miterlimit="2.4142" d="
				M83,207.1c0.5,0.2,1.2,0,1.6-0.4c0.6-0.6,0.6-1.6,0-2.2c-0.2-0.2-0.5-0.4-0.8-0.4"/>
			
				<line fill="none" stroke="#000000" stroke-width="0.3735" stroke-linecap="round" stroke-linejoin="round" stroke-miterlimit="2.4142" x1="88.7" y1="203.7" x2="73.3" y2="196"/>
			
				<line fill="none" stroke="#000000" stroke-width="0.3735" stroke-linecap="round" stroke-linejoin="round" stroke-miterlimit="2.4142" x1="82.3" y1="202.3" x2="74.1" y2="198.7"/>
		</g>
	</g>
</g>
</svg>
