<?xml version="1.0" encoding="utf-8"?>
<!-- Generator: Adobe Illustrator 18.1.1, SVG Export Plug-In . SVG Version: 6.00 Build 0)  -->
<!DOCTYPE svg PUBLIC "-//W3C//DTD SVG 1.1//EN" "http://www.w3.org/Graphics/SVG/1.1/DTD/svg11.dtd">
<svg version="1.1" xmlns="http://www.w3.org/2000/svg" xmlns:xlink="http://www.w3.org/1999/xlink" x="0px" y="0px"
	 viewBox="0 0 393 483" enable-background="new 0 0 393 483" xml:space="preserve">
<g id="ziutek_x5F_01">
</g>
<g id="ziutek_x5F_02">
</g>
<g id="ziutek_x5F_03">
</g>
<g id="ziutek_x5F_04">
</g>
<g id="ziutek_x5F_05">
</g>
<g id="ziutek_x5F_06">
</g>
<g id="ziutek_x5F_07">
</g>
<g id="ziutek_x5F_08">
</g>
<g id="ziutek_x5F_09">
</g>
<g id="ziutek_x5F_10">
</g>
<g id="lady_x5F_01">
</g>
<g id="Layer_13">
</g>
<g id="Layer_12">
</g>
<g id="Layer_14">
</g>
<g id="Layer_15">
</g>
<g id="Layer_16">
</g>
<g id="Layer_17">
</g>
<g id="Layer_18">
</g>
<g id="Layer_19">
</g>
<g id="Layer_20">
</g>
<g id="Layer_21">
</g>
<g id="Layer_22">
</g>
<g id="Layer_23">
</g>
<g id="Layer_24">
</g>
<g id="Layer_25">
</g>
<g id="Layer_26">
</g>
<g id="Layer_27">
</g>
<g id="Layer_28">
	<g>
		<g>
			<g>
				<path fill="#E57F23" d="M291.3,292.5c-9.9-3.5-7.1,18.8-27,19c-19.4,0.2-19.8-14.5-18-19.5l-5.9,12c0.9,8.2,10.2,16.7,20.9,20.5
					C287.8,333.8,311.3,299.5,291.3,292.5z"/>
				<path fill="#1D1D1D" d="M239.2,304.3c1.6,9.9,11,16.5,19.6,20.1c6.8,2.9,14.3,2.7,21.2,0.4c9.8-3.2,25.2-16.8,18.2-28.3
					c-1.9-3.2-7.1-6.1-10.8-4.5c-4.4,1.8-6.1,7.4-8.5,11.1c-5.8,8.8-18.6,10.5-27.1,4.4c-4.7-3.4-6.2-10.3-4.5-15.6
					c0.2-0.6-2-0.3-2.2,0.3c-3.5,10.9,5.2,18.7,15.4,19.8c5.5,0.6,11-0.5,15.6-3.7c4.3-3,6.4-8.1,9.1-12.4
					c3.8-6.1,10.9-0.8,12.2,4.6c1.5,6.2-3,12.7-7.1,16.8c-7.1,7.2-17.3,9.9-27,7.2c-9.4-2.6-20.3-10.4-21.9-20.7
					C241.3,303.2,239.1,303.7,239.2,304.3L239.2,304.3z"/>
			</g>
			<g>
				<path fill="#FFB24D" d="M150.2,307.6c-17.9-10-12.3-46.9-12.4-74.1c0-18.3-2.8-42.8,0.7-57.4c3.1-12.8,13.1-16.9,24.4-18.9
					c6.8-1.2,12.6-2.9,21.6-3.7c12.5-1,18.9-1.2,26.8,0c17.6,2.8,28.6,14.2,35.2,39.2c7.4,28.1,11.3,81.4,0.8,101.5
					c-5,9.8-9.3,21.1-20.1,23.4c-8.1,2.4-21.7,1-30.3,0.1C181.6,316.6,166.6,316.8,150.2,307.6z"/>
				<path fill="#1D1D1D" d="M151,307c-8.7-5.2-11.1-15.7-12.2-25c-1.4-12-0.6-24.2-0.2-36.2c0.4-12.6-0.1-25-0.6-37.6
					c-0.4-11.9-1.7-26.2,3.4-37.3c5.4-11.8,20.6-12.7,31.6-14.9c12.5-2.5,26.3-3.5,39-1.4c23.5,4,31.6,28.1,35.7,48.6
					c3.2,15.7,4.7,31.7,4.9,47.7c0.2,13.5-0.1,28.3-5.3,41c-2.8,6.8-6.4,14.2-11.3,19.7c-6.6,7.6-18.2,7-27.4,6.5
					C189.3,316.9,168.5,316.5,151,307c-0.8-0.4-2.7,0.6-1.7,1.2c11.8,6.4,24.4,8.7,37.7,9.6c12,0.8,24.3,3,36.3,1.4
					c10.1-1.3,15.9-7.5,20.6-16.1c4.4-8.1,7.7-16,9.2-25.2c3.6-21.7,1.6-44.9-1.7-66.6c-2.9-19-7.6-42.2-25-53.3
					c-6.9-4.4-15.2-5.7-23.2-6c-11.1-0.5-22.5,0.9-33.4,3.1c-8.5,1.8-18.2,2.6-25,8.6c-7.5,6.6-8.6,16.3-9.1,25.8
					c-0.6,12.2,0.4,24.4,0.8,36.6c0.4,10.9-0.2,21.8-0.5,32.8c-0.4,15.4-2.2,40.1,13.3,49.3C150.1,308.6,152,307.6,151,307z"/>
			</g>
			<circle fill="#FD984C" cx="216.6" cy="212.5" r="7.9"/>
			<circle fill="#FD984C" cx="150.4" cy="213" r="7.4"/>
			<path fill="#F9A138" d="M245.3,213c-0.3-0.5-1.9,9.4-2,10c-2.8,25.6-1.9,46.8-23.5,65.5c-10.9,9.5-24.5,13.2-38.7,12.4
				c-7.1-0.4-14-1.9-20.9-3.5c-4.1-1-20.6-6.8-14.1,2.4c2,2.8,5.1,5.4,8.1,7.3c6.2,4,13.8,5.5,21,5.9c7.1,0.4,14.2-0.1,21.3,0
				c8.5,0.1,17.3,2.8,25.7,1.9c12.7-1.3,13.9-9.7,18.2-19c4.7-10.1,5.2-21.9,6.3-32.8C248.3,246.4,254.1,228.3,245.3,213z"/>
			<g>
				<path fill="#E57F23" d="M246.8,205.1c-1.2,4.1-3.3,9.9-5.9,13.3c-7.8,10.3-14.4,11.6-11.4,12.7c0.5,0.2,22.2-5.8,20.5-14.9
					L246.8,205.1z"/>
			</g>
			<g>
				<path fill="#E57F23" d="M250.8,231.2c-1.7,3.9-5.5,8.5-8.5,11.5c-9,9.3-15.6,9.8-12.8,11.2c0.4,0.2,22.7-3.1,22.1-12.3
					L250.8,231.2z"/>
			</g>
			<g>
				<path fill="#E57F23" d="M252.9,258.4c-2.3,3.6-7.1,9.9-10.6,12.4c-10.3,7.7-17,7.2-14.4,9.1c0.4,0.3,22.9,0.5,23.8-8.7
					L252.9,258.4z"/>
			</g>
			<g>
				<path fill="#E57F23" d="M248.5,286.9c-3.6,2.3-9,5.4-13.2,6.3c-12.6,2.7-18.4-0.6-16.9,2.2c0.2,0.4,20.6,10,25.2,2L248.5,286.9z
					"/>
			</g>
			<g>
				<path fill="#FFB24D" d="M234.4,314.8l-23.4,4.4c0.5,5.3,1.9,10.9,3.7,17.3c2.3,8.3,3.6,13.6,12.7,12
					C236.1,347.2,238.3,340.5,234.4,314.8z"/>
				<path fill="#1D1D1D" d="M209.9,319.5c0.6,5.9,2.1,11.6,3.7,17.3c0.9,3.3,1.7,6.6,3.6,9.5c2.8,4.3,9.4,3.4,13.5,1.9
					c3.5-1.3,5.3-4.4,6.1-7.9c1.9-8.2-0.1-17.6-1.3-25.7c-0.1-0.7-2.3-0.2-2.2,0.6c1,7,2.1,14,1.8,21.1c-0.1,3.7-0.7,8.3-4.1,10.5
					c-5.4,3.6-11.4,0.9-13.6-4.7c-2.9-7.2-4.6-15.5-5.4-23.1C212,318.3,209.8,318.7,209.9,319.5L209.9,319.5z"/>
			</g>
			<g>
				<path fill="#FFFFFF" d="M189.7,201.7c12.1,21.9,39.8,8.1,34.7-13.6c-5.1-22.4-37.7-16.6-36.5,6.4
					C188,196.3,188.8,200,189.7,201.7z"/>
				<path fill="#1D1D1D" d="M188.7,202.2c5.8,10,16.9,14.6,27.4,8.6c10.2-5.8,12.4-19.2,7-29.1c-4.7-8.5-15.6-10.1-24-6.9
					c-10.7,4.1-15.1,17-10.5,27.2c0.4,1,2.6,0.3,2.2-0.6c-4.1-9-1.1-19.7,7.7-24.6c7.6-4.2,17.2-2,22.1,5c5.9,8.3,3.8,20.5-4,26.7
					c-9.4,7.4-20.5,1.8-25.8-7.3C190.2,200.4,188.2,201.2,188.7,202.2z"/>
			</g>
			<g>
				<path fill="#FFFFFF" d="M143.1,202.4c11.3,20.4,37,7.5,32.2-12.7c-4.7-20.8-35-15.4-33.9,6C141.5,197.4,142.3,200.9,143.1,202.4
					z"/>
				<path fill="#1D1D1D" d="M142.1,202.9c5.4,9.2,15.5,13.4,25.3,8.1c9.2-5,12.4-17.6,7.1-26.6c-4.8-8.2-14.5-10.1-22.9-6.7
					c-9.8,3.9-13.8,15.7-9.5,25.1c0.4,0.8,2.5,0.2,2.2-0.6c-3.7-8-1.3-17.5,6.2-22.4c6.9-4.5,16.2-2.6,21.1,3.8
					c5.5,7.3,4,18.2-2.3,24.3c-8.5,8.2-19.8,2.9-25-5.9C143.7,201.3,141.6,202,142.1,202.9z"/>
			</g>
			<g>
				<path fill="#FFB24D" d="M229.4,134c0,0-14.3,3.9-19.3,19.1l26.9,15.5C237.3,156.6,236.4,144.9,229.4,134z"/>
				<path fill="#1D1D1D" d="M211.2,152.9c2.9-8.3,9.6-16.1,18.3-18.6c-0.4,0-0.8,0-1.2,0c6.5,10.6,7.9,22.3,7.6,34.6
					c0,0.3,2.2,0,2.2-0.6c0.3-12.2-1.1-24-7.6-34.6c-0.2-0.3-0.9-0.1-1.2,0c-9.5,2.7-17,10.4-20.3,19.6
					C208.9,153.7,211,153.5,211.2,152.9L211.2,152.9z"/>
			</g>
			<g>
				<path fill="#E57F23" d="M170.4,156.9c-4.2,4.6-2,11.2,6.5,12.5c15.3,2.4,21.3-6.6,20.4-15.3
					C192.2,152.7,170.4,156.9,170.4,156.9z"/>
			</g>
			<g>
				<path fill="#FFF3E3" d="M219,158.1c2.4-14.4,8.7-21.2,8.7-21.2c5.3,6.7,7.8,21.8,6.1,29.7L219,158.1z"/>
			</g>
			<path fill="#1D1D1D" d="M218.8,157.5c2.7-8,4.9-16.1,9.7-23.2c0.2-0.3-0.5-0.2-0.7,0c-4.8,7.1-7,15.2-9.7,23.3
				C218,157.8,218.8,157.7,218.8,157.5L218.8,157.5z"/>
			<path fill="#1D1D1D" d="M170,156.7c-4.1,6.2-0.3,11.9,6.4,13.2c5,1,10.5,0.3,15-2c5.8-2.9,4.7-8,6.4-13.2
				c0.1-0.2-0.6-0.1-0.7,0.1c-1.5,4.4-0.5,8.1-4.3,11.7c-4.6,4.2-13.4,4.2-19,2.2c-5.3-1.9-5.9-7.8-3.1-12
				C170.8,156.4,170.1,156.5,170,156.7L170,156.7z"/>
			<path fill="#1D1D1D" d="M246,206.4c-1.4,6.1-6.2,12.4-9.9,17.4c0,0-8.2,6.7-7.6,7.3c1.4,1.5,7.8-1.9,9.1-2.5c4.5-2,10-5,12.8-9.3
				c0.2-0.3-0.5-0.2-0.7,0c-2.9,4.4-9.1,7.5-13.8,9.6c-1,0.5-7.5,2.1-5.7,0.5c1.5-1.2,3.1-2.2,4.5-3.5c2.9-2.6,4.6-6.4,6.7-9.5
				c2.1-3.2,4.3-6.4,5.2-10.2C246.8,206.1,246.1,206.2,246,206.4L246,206.4z"/>
			<path fill="#1D1D1D" d="M250.8,260.5c-5,8.5-15.2,14.7-24.1,18.4c-0.1,0-0.3,0.3-0.1,0.4c7,3.2,19.4-0.7,24.9-5.3
				c0.3-0.3-0.4-0.3-0.6-0.2c-4.6,3.9-11,5.2-16.8,5.7c-1.5,0.1-5.5-0.9-6.8-0.4c1.5-0.6,2.8-1.3,4.2-2.1c7.5-3.9,15.6-9,20-16.5
				C251.7,260.2,251,260.3,250.8,260.5L250.8,260.5z"/>
			<path fill="#1D1D1D" d="M247.1,287.2c-4.6,3.9-9.7,6.1-15.7,7c-3.5,0.5-9.3,0.8-12.7-0.2c-0.2,0-0.8,0.1-0.5,0.4
				c5.8,6.5,17.5,7.9,25.4,5.2c0.4-0.1,0.3-0.6-0.1-0.5c-6.2,2.1-14.8,1.2-20.7-1.7c-1.1-0.6-2.2-1.4-3-2.3
				c-0.9-0.9-1.6-0.6-0.4-0.3c1.6,0.4,3.4,0,5,0.1c8.7,0.4,16.5-1.6,23.3-7.3C248,287.2,247.4,287,247.1,287.2L247.1,287.2z"/>
			<g>
				<path fill="#FFB24D" d="M147.2,305.7c-1.1,26.8-2,33.8,7.8,34.9c7.1,0.8,12.4-1.4,16.9-25.5L147.2,305.7z"/>
				<path fill="#1D1D1D" d="M146.1,306c-0.4,9.1-1.8,19.1,0,28.1c0.9,4.4,3.9,6.4,8.2,7c14.1,1.8,16.7-16,18.6-26.2
					c0.1-0.7-2-0.3-2.2,0.3c-1.7,9.2-4.5,29.5-18.4,24c-3.8-1.5-4.3-6.1-4.6-9.6c-0.7-8,0.2-16.2,0.5-24.2
					C148.3,304.9,146.1,305.3,146.1,306L146.1,306z"/>
			</g>
			<path fill="#545454" d="M198.7,218.6c20.1-5.2,41.9-6.9,62-1c0.5,0.1,1.7-0.6,0.9-0.8c-20.5-5.9-42.7-4.2-63.1,1.1
				C197.7,218.1,197.9,218.8,198.7,218.6L198.7,218.6z"/>
			<path fill="#545454" d="M197.5,225.5c6.7-3.3,16.4-3.1,23.7-3.2c16.1-0.2,32,3.1,47,8.7c0.5,0.2,1.7-0.6,0.9-0.9
				c-15.5-5.9-32.1-9.2-48.8-8.8c-7.2,0.2-16.6,0.1-23.3,3.4C196,225.3,196.8,225.9,197.5,225.5L197.5,225.5z"/>
			<path fill="#545454" d="M104.5,236.6c7.9-4.3,16-7.9,24.7-9.9c9.4-2.3,19.3-2.4,29-2.4c0.6,0,1.5-0.9,0.5-0.9
				c-9,0-18.2,0.2-27.1,2c-9.8,2-18.9,5.9-27.7,10.6C103,236.3,103.8,236.9,104.5,236.6L104.5,236.6z"/>
			<path fill="#545454" d="M93.7,223.1c21-7.2,41.7-8.1,63.7-5.9c0.7,0.1,1.5-0.9,0.5-1c-22.2-2.2-43.2-1.3-64.4,6
				C92.6,222.5,92.9,223.4,93.7,223.1L93.7,223.1z"/>
			<g>
				<g>
					<path fill="#FFB24D" d="M140.3,144.4c-2.8,5.2-3.3,21.9-1.6,30.6l24.9-17.9C155.8,150.5,151.5,148.7,140.3,144.4z"/>
					<path fill="#1D1D1D" d="M164.4,156.5c-7.2-6-14.9-9.5-23.5-12.8c-0.6-0.2-1.4,0.1-1.7,0.6c-4.2,8.8-3.4,21.7-1.7,31.1
						c0.2,1,2.4,0.5,2.2-0.6c-1.6-8.9-2.5-21.8,1.6-30.2c-0.6,0.2-1.1,0.4-1.7,0.6c8.4,3.3,16.1,6.8,23.1,12.6
						C163.5,158.3,165.4,157.3,164.4,156.5L164.4,156.5z"/>
				</g>
				<g>
					<path fill="#FFF3E3" d="M151.2,160.7c-1.5-14.6-9.6-13.5-9.6-13.5c-3.2,8.9-2.2,21.8,0.2,24.8L151.2,160.7z"/>
				</g>
				<path fill="#1D1D1D" d="M141.4,146.4c2.1,1.8,4.1,3.6,5.8,5.8c0.8,1,4.9,7.1,3.7,8.4c-2.6,2.9-5.1,5.9-7.1,9.2
					c-0.2,0.3,0.5,0.3,0.7,0c1.7-2.8,3.6-5.3,5.7-7.7c0.2-0.2,1.5-1.3,1.4-1.7c-1.3-6.2-5-10.3-9.7-14.3
					C141.9,145.9,141.2,146.2,141.4,146.4L141.4,146.4z"/>
			</g>
			<g>
				<g>
					<path fill="#EDE1CF" d="M161.5,305.4c-8-4.5-10.2-27.5-6.9-34.4c4.9-12.4,21.5-14.3,32.9-13c16.9,2.5,20.7,11.1,19.7,26.6
						c-0.2,6,0.5,17-3.6,20.9C197.3,311.4,170.2,310.4,161.5,305.4z"/>
				</g>
				<path fill="#FFF3E3" d="M196,268.3c-3.6-9.3-15.2-12.5-24.9-7.5c-1.9,1-3.6,2.3-4.9,3.8c-2.7,1.2-5.1,3.2-6.9,5.9
					c-1.2,1.6-2,3.3-2.4,5c-2.5,7.1-3.2,16.7,2.4,22c6.2,5.8,16.4,4.4,23.3,0.6C191.2,293.3,203.5,278.1,196,268.3z"/>
				<path fill="#1D1D1D" d="M157.9,301.6c-5.2-12.8-6.4-29.7,5.3-39.3c11.8-9.7,35.2-8.1,40.5,7.7c1.9,5.6,2.4,11.7,2.7,17.5
					c0.2,5.3,0.7,12.7-3.2,16.9c-5.1,5.4-14.9,6.1-21.9,6.1c-6.4,0-13.2-1.2-18.9-4.4c-0.2-0.1-0.8,0.2-0.7,0.2
					c10.7,6.2,26.4,6,37.5,1c5.1-2.3,7-5.8,7.6-11.2c1-8.6,0.1-18.1-2.4-26.4c-4.6-15.1-23.5-15.6-35.9-10.9
					c-17.5,6.7-17.2,28.2-11.3,42.9C157.2,302,157.9,301.8,157.9,301.6L157.9,301.6z"/>
				<path fill="#1D1D1D" d="M175,279c-0.4-1.7-2.3-0.9-2.8,0.3c-0.6,1.5,0.6,3,2,1.9C175,280.7,175.2,279.7,175,279z"/>
			</g>
			<path fill="#1D1D1D" d="M250.4,232c-3.5,6.7-10,12.7-16.1,16.9c-0.5,0.3-6.8,5-5.7,5.2c2.7,0.5,6.9-1.4,9.5-2.2
				c2.9-0.9,5.7-2.1,8.4-3.6c2.1-1.2,4.7-2.9,5.6-5.3c0.2-0.4-0.6-0.4-0.7-0.1c-0.8,2-2.9,3.5-4.7,4.6c-2.3,1.5-5,2.5-7.6,3.4
				c-1.7,0.6-3.4,1.1-5.1,1.5c-0.8,0.2-6.1,1.9-3.9,0c7.5-6.4,16.2-11.3,20.9-20.5C251.3,231.7,250.6,231.7,250.4,232L250.4,232z"/>
			<g>
				<path fill="#EDE1CF" d="M183.3,222.7c-0.1-1.8-0.4-4.2-2.2-5.2c0,0,0,0,0,0c-0.1-0.2-0.3-0.4-0.5-0.5c-1.7-1-3.3-0.8-4.2,0.6
					c-0.3,0.1-0.5,0.3-0.7,0.6c-2.2,4.3-4.6,11.2-0.1,7.8c2.7-2,4.7,0.3,7.3,0.7C184.9,226.9,183.4,223.8,183.3,222.7z"/>
				<path fill="#FFF3E3" d="M191.1,213.5c-2.1-2.6-6.4-4-9.4-2.5c-1.5,0.7-3.6,3-2.8,4.8c0-0.1,0-0.1-0.1-0.2
					c-1.7-3.7-5.5-6.2-9.6-4c-2.7,1.5-3.6,4.4-3.1,7.3c1,5.2,7.4,5.5,10.4,2.2c0.9-1,1.7-2.9,1.9-4.1c0.1,0.2,1.1,1.9,1.1,2.2
					c0.3,2.4,1.4,4.7,7,4.3c1.5-0.1,4.1-2.2,4.9-3.6C192.7,217.6,192.5,215.2,191.1,213.5z"/>
				<path fill="#1D1D1D" d="M167.2,222.3c2.8,2.1,6.2,1.7,9.1,0c2.6-1.5,2.6-4.4,2.6-7c0-0.7-1.5-0.4-1.5,0.1c0,1.7,0.1,3.6-0.8,5.2
					c-1.6,2.7-6,2.6-8.3,0.9C167.9,221.2,166.6,221.9,167.2,222.3L167.2,222.3z"/>
				<path fill="#1D1D1D" d="M178.1,215.8c0,3.7,0.6,6.9,4.4,8.3c3.1,1.2,6.6,0.1,8.1-2.8c0.4-0.7-1.1-0.7-1.4-0.2
					c-1.6,2.8-4.8,2.7-7.3,1.3c-2.3-1.3-2.3-4.5-2.3-6.8C179.6,214.9,178.1,215.1,178.1,215.8L178.1,215.8z"/>
				<g>
					<path fill="#FF99C3" d="M178.3,215.6c1-0.1,6.2-4.1,5.1-4.8c-1-0.6-8.3-0.6-8.8,0.3C173.8,212.3,177.8,215.7,178.3,215.6z"/>
					<path fill="#1D1D1D" d="M178.4,216c2-0.4,4.5-2.6,5.6-4.3c1.3-1.9-3.4-1.6-4.2-1.7c-1.4,0-5.4-0.4-6.1,1.3
						c-0.5,1.4,2.9,4.4,4.1,4.6c0.5,0.1,1.7-0.7,0.9-0.8c-1.2-0.2-2.8-2.3-3.4-3.3c-0.5-0.9,0-0.9,0.8-1c1-0.1,2-0.1,3-0.1
						c0.9,0,1.9,0,2.8,0.2c0.9,0.1,0.9,0.4,0.3,1c-0.9,1.1-2.8,2.9-4.2,3.2C177.3,215.4,177.5,216.2,178.4,216z"/>
				</g>
			</g>
			<path fill="#1D1D1D" d="M151.1,174.1c1.6-2.8,3.9-5.2,6.2-7.5c1-1-1.2-1.2-1.8-0.6c-2.4,2.4-4.8,4.9-6.5,7.9
				C148.4,175,150.6,174.9,151.1,174.1L151.1,174.1z"/>
			<path fill="#1D1D1D" d="M203.7,163.3c2.7,0.7,6,2.1,8,4.2c0.6,0.6,2.6-0.3,2-0.9c-2.2-2.2-5.7-3.8-8.7-4.5
				C204.3,161.9,202.4,163,203.7,163.3L203.7,163.3z"/>
			<g>
				<circle fill="#1D1D1D" cx="158.9" cy="190.7" r="12.2"/>
				<circle fill="#FFFFFF" cx="161.4" cy="190.4" r="4.5"/>
				<circle fill="#FFFFFF" cx="155.8" cy="183.5" r="2.6"/>
			</g>
			<g>
				<circle fill="#1D1D1D" cx="206.7" cy="188" r="12.2"/>
				<circle fill="#FFFFFF" cx="209.2" cy="187.7" r="4.5"/>
				<circle fill="#FFFFFF" cx="203.7" cy="180.7" r="2.6"/>
			</g>
			<path fill="#1D1D1D" d="M175.1,227.6c0.7-0.2,1.3-1,1.9-1.4c1.7-1.3,4,0.3,5.8,0.8c0.3,0.1,0.9-0.3,0.4-0.5
				c-1.7-0.5-3.4-1.5-5.2-1.3c-1.4,0.1-2,1.6-3.1,2C174.5,227.3,174.6,227.7,175.1,227.6L175.1,227.6z"/>
			<g>
				<g>
					<path fill="#FFB24D" d="M159.4,244.4L138,240c2,8.2,8.6,22.8,15.7,31.4c4.5,5.5,9.8,8.2,13.9,5.9
						C179.4,270.8,167.4,263.4,159.4,244.4z"/>
					<path fill="#1D1D1D" d="M158.3,244.6c2.7,6.1,6,11.8,9.5,17.5c3.2,5.3,6,10.7-0.6,14.6c-8.1,4.8-16.8-11.5-19.8-16.8
						c-3.5-6.3-6.5-13.1-8.4-20.2c-0.3-1-2.3-0.4-2,0.5c2.3,8.6,6.3,16.9,10.9,24.5c3.2,5.4,10,16,17.8,14c4.9-1.2,8.7-5.1,7.5-10.3
						c-0.7-3-2.7-5.8-4.2-8.4c-3.2-5.2-6.2-10.5-8.7-16.1C160,243.2,157.9,243.7,158.3,244.6L158.3,244.6z"/>
				</g>
				<g>
					<path fill="#FFB24D" d="M166.2,258.6l4.3,7.6c1.2,1.3,3.8,0.5,3.7-1.2C174,262.2,168.2,260.1,166.2,258.6z"/>
					<path fill="#1D1D1D" d="M166.3,259.4c1.4,0.9,3,1.6,4.4,2.6c0.9,0.6,1.8,1.3,2.3,2.2c0.9,1.4-0.2,2.5-2.1,1.9
						c-0.4-0.1-1-0.6-1.2-1c-0.2-0.3,0.9,1.8,1.2,2c0.9,0.3,1.7,0.2,2.5-0.3c1-0.5,1.6-1.5,1.1-2.7c-0.9-2.4-4.1-3.6-6.4-4.9
						c-0.4-0.2-1.6-1.1-2-1.3C165.9,257.6,166.1,259.3,166.3,259.4z"/>
				</g>
			</g>
			<g>
				<g>
					<path fill="#FFB24D" d="M202.4,238.4c-7.7,20.2-25,33.9-14,41.6c13.4,7.9,30.9-27.9,35.3-37.2L202.4,238.4z"/>
					<path fill="#1D1D1D" d="M201.4,238.3c-2.6,6.7-6.2,12.8-10,18.9c-2.7,4.3-5.6,8.6-7.1,13.5c-2,6.3,3.3,12.3,9.8,10.9
						c7.8-1.7,13.3-9.4,17.6-15.5c5.1-7.3,9.2-15.2,13-23.2c0.5-1-1.6-0.9-1.9-0.2c-6,12.5-13.1,28.5-25.2,36.2
						c-3.8,2.4-8,1.9-10.7-1.8c-2.4-3.3-0.2-8,1.4-11.1c4.7-9.4,11.2-17.7,15.1-27.5C203.7,237.4,201.7,237.6,201.4,238.3
						L201.4,238.3z"/>
				</g>
				<g>
					<path fill="#FFB24D" d="M183.9,265.4c-0.1,1.7,2.5,2.5,3.7,1.2l4.3-7.6C189.8,260.4,184,262.5,183.9,265.4z"/>
					<path fill="#1D1D1D" d="M191.7,259.7c-1.4,0.9-3,1.6-4.4,2.6c-0.9,0.6-1.8,1.3-2.3,2.2c-0.9,1.4,0.2,2.5,2.1,1.9
						c0.4-0.1,1-0.6,1.2-1c0.2-0.3-0.9,1.8-1.2,2c-0.9,0.3-1.7,0.2-2.5-0.3c-1-0.5-1.6-1.5-1.1-2.7c0.9-2.4,4.1-3.6,6.4-4.9
						c0.4-0.2,1.6-1.1,2-1.3C192.1,257.9,191.9,259.6,191.7,259.7z"/>
				</g>
			</g>
		</g>
	</g>
</g>
<g id="Layer_29">
</g>
<g id="Layer_30">
</g>
<g id="Layer_31">
</g>
<g id="Layer_32">
</g>
<g id="Layer_33">
</g>
<g id="Layer_34">
</g>
<g id="Layer_36">
</g>
<g id="Layer_35">
</g>
<g id="Layer_37">
</g>
<g id="Layer_38">
</g>
<g id="Layer_39">
</g>
<g id="Layer_40">
</g>
</svg>
