<?xml version="1.0" encoding="utf-8"?>
<!-- Generator: Adobe Illustrator 18.1.1, SVG Export Plug-In . SVG Version: 6.00 Build 0)  -->
<!DOCTYPE svg PUBLIC "-//W3C//DTD SVG 1.1//EN" "http://www.w3.org/Graphics/SVG/1.1/DTD/svg11.dtd">
<svg version="1.1" xmlns="http://www.w3.org/2000/svg" xmlns:xlink="http://www.w3.org/1999/xlink" x="0px" y="0px"
	 viewBox="0 0 393 483" enable-background="new 0 0 393 483" xml:space="preserve">
<g id="ziutek_x5F_01">
</g>
<g id="ziutek_x5F_02">
</g>
<g id="ziutek_x5F_03">
</g>
<g id="ziutek_x5F_04">
	<g>
		<path fill="none" d="M163,299c0,0-0.1,0-0.1,0.1L163,299C163,299,163,299,163,299z"/>
		<path fill="none" d="M172.3,353l0,0.2C172.3,353.1,172.3,353.1,172.3,353C172.3,353,172.3,353,172.3,353z"/>
		<path fill="none" d="M212.9,423.4c0.1-0.1,0.2-0.1,0.3-0.1L212.9,423.4C212.8,423.3,212.8,423.4,212.9,423.4z"/>
		<path d="M117.4,220.6c0.8-11.8,1.8-23.6,3-35.3c0.8-6.6,1.6-13.3,2.4-19.9c2.2-16.2,4.9-32.3,8.2-48.3c1.2-5.8,2.6-11.6,4.3-17.3
			c2.4-8.2,5.3-16.3,8.7-24.1c2.9-6.7,6.9-12.8,11.8-18.3c3.7-4,8-7,13.2-8.9c5-1.8,10.2-3,15.6-3.4c7.4-0.6,14.7-0.7,21.9-0.1
			c2.9,0.2,5.9,0.6,8.8,1.3c0.4,0.1,0.7,0.3,1.1,0.5c1.8,0.4,3.5,0.9,5.1,1.5c4.6,1.6,9,3.6,13.3,5.8c4.5,2.3,8.7,5,12.6,8.1
			c2.4,2,4.6,4.2,6.5,6.7c2.1,2.8,3.5,6,4.3,9.4c0.2,1,0.1,2-0.5,2.8c-1,1.8-2.4,2.8-4.2,3c1.3,2.2,3.5,7.1,3.5,7.1
			c0,0.2,0.1,0.3,0.2,0.5c0,0,0,0,0,0c0.4-0.1,0.8,0,1.2,0.1c-0.4,0-0.8,0-1.2,0c0.1,0.1,0.1,0.2,0.1,0.2c0.6,0,1.2,0,1.8,0.1
			c0.7,0.1,1.3,0.2,1.9,0.4c1.8,0.6,3.3,1.8,4.5,3.4c0.2,0.3,0.4,0.6,0.6,0.8c0.5,0.8,0.9,1.7,1.1,2.6c0.3,1.1,0.4,2.4,0.2,3.7
			c0,0,0,0,0,0c0,0,0,0,0,0c-0.2,1-0.4,2-0.9,2.9c-0.3,0.7-0.7,1.3-1.2,1.9c-0.5,0.6-1.1,1.1-1.7,1.6c-0.2,0.1-0.4,0.2-0.6,0.4
			c-0.1,0-0.1,0.1-0.2,0.1l0,0c-0.4,0.3-0.9,0.5-1.4,0.7c0,0.1,1.5,37.8,0.7,42.9c0.4,0.1,0.8,0.3,1.4,0.5c2.3,0.8,3.6,1.7,3.7,2.8
			c0.1,0.3,0,0.6-0.2,1c-0.1,0.2-0.2,0.3-0.3,0.5c-0.5,1.4-5.9,1.7-5.9,1.9c2.4-0.4,4.6-0.2,6.6,0.5c2.2,0.8,3.6,1.7,4.2,2.9
			c0.3,0.6,0.3,1.1,0.2,1.5c-0.1,0.3-2.9,1.3-8.4,3.2c-0.2,0.8-0.3,1.7-0.5,2.6c-0.3,1.5-0.7,3.4-1.2,5.7c0.4-0.2,0.9-0.4,1.4-0.6
			c-0.1,0.4-0.2,0.9-0.2,1.4c0.1-0.1,0.3-0.1,0.4-0.1c0.3,1.9,0.7,4.7,1.3,8.5c0.7,4.4,1,6.9,0.8,7.3c-0.2,0.7-0.4,0.9-0.5,0.8
			c-0.2-0.1-0.6-0.2-1.5-0.3c0,0,0,0-0.1,0c0.2,5.2,0.3,10.4,0,15.6c-0.3,8.4-0.8,16.8-1.4,25.2c0,0.1,0,0.3-0.1,0.4
			c-0.5,7.2-1.4,14.5-2.6,21.7c-1.9,11.5-4.6,22.8-7.9,34.1c-2,6.5-4.7,12.8-8.3,18.7c-6,10-13.3,19-21.8,27.1
			c-8.9,8.4-14.2,18.6-15.7,30.7c-0.8,6.5-1.5,13.1-2,19.7c-0.4,5.3,0.2,10.3,1.7,15.1c0.4,0.5,0.9,0.9,1.5,1.3
			c-1.4,1.2-2.8,2.2-4.2,3.1c0.8,0.5,1.8,1,3,1.4c3.4,1.2,7.7,1.8,12.8,1.8c5.1-0.1,9,0.4,11.5,1.3c4.5,1.6,7,4.1,7.5,7.7
			c0.2,1.8,0,3.5-0.7,5.2c-0.7,2-1.8,3.3-3.4,4c-0.5,0.2-1.1,0.4-2,0.6c0,0.1-0.1,0.3-0.1,0.4c-0.4,1.1-2.3,2.3-5.7,3.6
			c-3.9,1.5-8.5,2.6-13.9,3.2c-12.5,1.5-25.3,0.4-38.4-3.2l-0.2-0.1c-0.2-0.1-0.4-0.1-0.7-0.1c-0.1-0.1-0.2-0.1-0.2-0.1
			c-0.1,0-0.2-0.1-0.3-0.1c0,0,0,0,0,0c-0.3-0.1-0.5-0.2-0.7-0.3c-0.2-0.1-0.3-0.1-0.5-0.1c-0.3-0.9-0.4-1.8-0.6-2.8
			c-0.5-3.9-0.1-7.7,1.1-11.3c0.2-0.5,0.3-1,0.5-1.4c-0.7-0.2-1.5-0.4-2.2-0.7c-0.3-0.1-0.5-0.2-0.8-0.3c0.2-0.4,0.4-0.8,0.6-1.2
			c0.1-0.3,0.2-0.6,0.3-1c0,0,0-0.1,0.1-0.1c0,0,0,0,0,0c1.4-7.2,1.8-24.7,1.4-52.4c0,0.2,0,0.2,0,0.1c-0.1-2.6-0.4-5.2-0.8-7.7
			c-0.1-0.8-0.2-1.4-0.4-1.6c-0.3-0.7-0.8-1.4-1.7-2.1c-2.1-1.7-6.7-4.2-13.7-7.4c-11-4.9-18-8.9-21.1-11.8c-0.9-0.8-1.8-2-2.7-3.5
			c-1-1.5-1.9-2.6-2.8-3.5c-1.2-1.2-3.6-6-6.8-14.7c-5.2-13.9-5.8-34.9-5.7-44.6"/>
		<path d="M259.7,192c-1-0.7-2.1-1.4-3.2-2.3c-1.9-1.4-3.2-2.5-4.2-3.4c0.7,15.1,0.5,30.1-0.4,45.1c-0.1,1.4-0.2,2.8-0.2,4.3
			c-1,14.6-2.7,29.2-5.1,43.7c1.8-0.7,3.6-1.5,5.3-2.4c0.3-0.2,0.7-0.3,1-0.5c1.2-4.7,2.2-9.5,2.9-14.3c1.5-9.3,2.7-18.7,3.6-28.1
			c0.1-0.7,0.1-1.3,0.2-2C260.7,218.7,260.7,205.3,259.7,192z"/>
		<path d="M256.8,181.9c-1.3,0.5-2.7,0.9-4.1,1.4c1.2,0.6,2.8,1.7,4.8,3.4c3,2.5,4.6,3.7,4.8,3.9c-0.7-4.2-1.3-7.5-1.6-10
			C259.5,180.9,258.2,181.4,256.8,181.9z"/>
		<path d="M254.9,93c-1,0.3-2,0.8-2.9,1.4c-2,1.5-3.1,3.4-3.5,5.9c-0.2,1-0.1,2,0,3c0.3,1.3,0.8,2.5,1.6,3.6c1.5,2,3.4,3.1,5.9,3.5
			c1,0.1,2,0.1,2.9-0.1c0,0,0.1,0,0.1,0c0.7-0.1,1.2-0.3,1.9-0.6c0.6-0.3,1.1-0.6,1.7-1c0,0,0,0,0.1-0.1c1.1-0.8,2-1.9,2.5-3
			c0.4-0.9,0.8-1.9,0.9-2.9c0.4-2.5-0.2-4.7-1.7-6.6c-1.5-2-3.4-3.1-5.9-3.5c-0.5-0.1-1-0.1-1.4-0.1C256.4,92.7,255.7,92.8,254.9,93
			z"/>
		<path d="M147.3,145.3c2.9-2.7,5.6-5.8,7.8-9.5c0.7-1.1,1.3-2.1,1.8-3c-1.7-1.8-2.8-4.9-3.1-9.2c-0.1-1.9-0.1-4,0-6.2
			c0.1-1.6,0.2-2.6,0.3-2.9c0.2-0.8,0.5-1.4,0.7-1.9c0.3-1,0.8-1.7,1.4-2.3c1.6-1.7,4.2-1.9,7.7-0.7c5,1.7,8.2,6,9.6,13l5-2.2
			c-0.6-1.2-1-2.4-1.5-3.7c-0.5-1.7-1-3.6-1.3-5.8c-0.4-2.3-0.5-5-0.2-8.3c0.3-3.3,1.7-5.7,4.4-7.1c2.7-1.4,5.5-1.8,8.6-1.3
			c3,0.5,5.6,0.5,7.8,0.1c2.1-0.4,3.6-1.1,4.5-1.9c0.9-0.8,1.1-2.1,0.6-3.7c-0.5-1.7-0.7-2.7-0.7-3.2c0.1-2.8,1.4-4.5,4.1-5.3
			c1.8-0.5,3.6-0.6,5.5-0.3c5.2,1,9.9,3.1,14,6.5c1.4,1.2,2.7,1.6,4,1.3c1.2-0.3,2.3-1.3,3.1-2.9c0.8-1.6,1.5-3.2,2.2-4.8
			c1.5-0.9,3.1-1.2,4.8-1.1c4,0.5,8,1.2,12,2.1c1.7,0.3,3.3,0.1,4.8-0.6c1-2.5,0.5-4.9-1.4-7.2c-0.9-1.1-1.8-2.1-2.7-3.2
			c-2.6-3.4-5.8-6.2-9.3-8.7c-3.4-2.4-7.1-4.6-10.9-6.5c-6-3-12.2-5-18.8-6.1c0.1-0.1,0.1-0.1,0.2-0.2c0,0-0.1,0-0.1,0
			c-1.8-0.3-3.6-0.5-5.5-0.7c-5.3-0.5-10.6-0.8-16-0.8c-5.8-0.1-11.6,0.6-17.3,2.1c-5.3,1.3-10,3.8-14.2,7.3c-2,1.9-4.7,5-7.9,9.2
			c-3.2,4.2-5.7,9-7.5,14.3c-1.8,5.3-3.5,10.1-5.1,14.3c-1.6,4.3-3.2,9.7-4.7,16.3c-1.6,6.6-3,13.8-4.3,21.5
			c-1.2,7-2.4,14.2-3.6,21.3C133.9,153.7,140.9,151,147.3,145.3z"/>
		<path d="M136.6,179.5c14,4.9,31.3,8,51.9,9.3c9,0.6,17.2,0.7,25,0.4c7.7-0.3,13.9-1.1,18.4-2.2c7.6-2,15.6-4.6,24.2-7.9
			c0.9-0.4,1.8-0.7,2.6-1.1c0.2-1.5,0.5-3.3,1.1-5.4c0.3-1.1,0.5-2.2,0.7-3.1c-5.9,1.9-9.6,3.3-11.2,4.1c-0.6-0.5-0.8-1.1-0.5-1.8
			c0.6-1.6,3.7-3.2,9.4-4.8c0.6-0.2,4.2-1,10.7-2.5l-0.6-0.3c-0.8-0.4-2.2-0.9-4.1-1.6c-2.7,0.2-5.5,0.9-8.5,2.2
			c-1.7,0.8-42.7-0.2-43.6-5c-0.5-2.3,14.4-1.9,29.8-2.2c3.2-0.1,8.4,0.2,15.4,0.8c4.6,0.4,7.1,0.2,7.3-0.5l0-0.5l-4.2-1.5
			c-1.3-0.3-4.5-0.5-9.8-0.8c-5.1-0.2-7.8-0.4-8.2-0.6c-0.5-0.2-0.9-0.5-1.1-1c-0.2,0.3-0.2,0,0.1-0.7c0.2-0.6,2.6-0.8,7.3-0.6
			c4.4,0.2,8.3,0.6,11.6,1.3c0.1-0.9-0.1-23.9,0-24.8c0.5-5-0.8-17.2-0.9-17.4c-1,0.2-2.1,0.2-3.2,0.1c-0.4-0.1-0.7-0.1-1-0.2
			c-0.4-0.1-0.6-0.2-0.9-0.3c-1.3-0.5-2.5-1.2-3.6-2.2c-0.3-0.4-0.7-0.7-1-1.1c-0.5-0.7-0.9-1.3-1.2-2c-0.2-0.4-0.3-0.9-0.4-1.3
			c-0.1-0.3-0.1-0.6-0.2-0.9c-0.1-0.9-0.2-1.9,0-3c0,0,0,0,0-0.1c0.2-1.3,0.6-2.5,1.2-3.6c0.7-1.1,1.5-2,2.6-2.8
			c1-0.8,2.1-1.3,3.1-1.6c0-0.1,0-0.2-0.1-0.2c-0.9,0.3-1.8,0.6-2.6,1.1l-2.5,2.1c0.7-0.9,1.4-1.7,2.3-2.3c0.3-0.2,0.6-0.4,0.9-0.5
			c0.6-0.3,1.2-0.5,1.9-0.7c-0.1-0.2-0.1-0.3-0.2-0.5c-0.6,0.2-1.3,0.4-1.8,0.7c0,0,0,0-0.1,0c-0.3,0.2-0.6,0.3-0.9,0.5
			c0,0,0,0-0.1,0c-1,0.6-1.8,1.4-2.4,2.3c0,0,0,0,0,0.1c-0.4,0.6-0.9,1.3-1.2,2c0,0.1-0.1,0.3-0.2,0.4c0,0,0,0,0,0
			c-0.2,0.4-0.4,1-0.5,1.5c-0.1,0.2-0.1,0.4-0.2,0.6c0.2-2.1,1.1-4,2.8-5.9c0.9-1,2-1.8,3.2-2.4c0.4-0.1,0.8-0.1,1.2-0.2
			c0,0,0.1,0,0.1,0c-1-2.5-2-5-3.3-7.4c-2.2-0.5-4.4-1.2-6.4-2.2c-2.8-1.3-5.6-1.4-8.4-0.2c-0.2,0-0.3,0.2-0.4,0.4
			c-1.1,2.8-2.7,5.2-4.8,7.3c-0.5,0.5-1.1,0.8-1.8,1c-2.9,0.4-5.4-0.4-7.5-2.5c-0.9-0.9-2.7-2.1-5.6-3.9c-2.8-1.7-5.5-2.4-7.9-2
			c-2.5,0.4-3.9,0.8-4.2,1.2c-0.2,0.4-0.6,0.9-1.1,1.3c0.9,2.5,1.1,5.1,0.4,7.6c-0.2,0.9-0.9,1.9-2.1,3.1c-1.2,1.2-3.4,1.5-6.6,1
			c-3.3-0.5-6.2-0.5-8.8-0.1c-2.5,0.4-4.1,0.8-4.7,1.1c-2.4,1.5-3.7,3.7-3.7,6.8c-0.1,3,0.3,6.3,1.1,9.8c0.6,2.5,1.5,4.8,2.7,6.9
			c0,0-0.1,0.1-0.1,0.1c0.2,0.3,0.4,0.5,0.7,0.8c-3.7,1.7-6.8,3.1-9.5,4.2c-0.2,0.2-0.5,0.3-0.6,0.5c0-0.1-0.1-0.2-0.1-0.2
			c-0.1,0-0.1,0.1-0.2,0.1c0-0.1,0-0.3,0-0.4c0-0.1,0-0.2,0.1-0.3c-1.1-7.4-3.9-11.9-8.5-13.5c-2.6-0.9-4.4-0.6-5.6,0.8
			c-0.6,0.7-0.9,1.5-1.1,2.5c-0.7,10.2,0.6,15.9,3.7,16.9c2.5,0.9,4.1,1.1,4.7,0.7c0.2-0.3,0.5-0.5,0.6-0.6c0.3-0.3,0.8-0.3,1.4-0.3
			c0.3,0.2,0.5,0.4,0.6,0.5c0.2,0.3,0.2,0.6,0,1c-0.8,2.3-3.5,2.7-8.2,1.1c-0.2-0.1-0.3-0.1-0.5-0.2c-0.6,1.1-1.2,2.2-1.9,3.4
			c-2.5,3.9-5.3,7.3-8.5,10.2c-6.7,5.9-14.3,8.6-22.6,8.1c-1,6.2-1.8,12.1-2.4,17.9C127.4,175.8,131.8,177.8,136.6,179.5z"/>
		<path d="M240.9,187c-4.9,1.4-8.1,2.3-9.5,2.5c-7.3,1.1-14.7,1.8-22.1,2.2c2.7,0.8,5.5,1.7,8.5,2.7c12.3,3.8,19.1,5.7,20.6,5.7
			c1.5,0,2.6-1,3.3-3c0.7-2,1.4-3.4,2.1-4.1c1-2.4,1.9-4.5,2.9-6.2c0.4-0.7,0.8-1.4,1.2-1.9C245.6,185.6,243.2,186.3,240.9,187z"/>
		<path d="M117.6,269.9c3.2,1.4,6.8,2.8,10.8,4.3c-0.1-1.3-0.1-2.7,0.1-4.4c0.1-1.9,0.3-4,0.7-6.3c0.3-1.7,0.4-2.7,0.5-2.9
			c0.3-1,0.7-1.6,1.2-1.7c-0.1,0.6-0.3,2.3-0.7,5.1c-0.4,2.6-0.7,4.8-0.7,6.3c-0.1,1.6-0.1,3-0.1,4.2c0.5,0.2,1,0.3,1.5,0.5
			c3.4,1.2,6.8,2.2,10.3,3.2c0.2-2.4,0.5-5.5,1-9.1c0.1-0.4,0.2-0.7,0.3-0.8c0.1-0.2,0.3-0.3,0.7-0.2c0.1,0-0.1,2.8-0.7,8.4
			c0,0.6,0,1.3,0.1,2.2c3,0.8,6.1,1.6,9.2,2.3c0.1-1.2,0.2-2.4,0.3-3.6c0.5-5.1,1-10.2,1.6-15.2c0.2-1.3,0.3-2.5,0.4-3.8
			c0.4-3.3,0.8-6.7,1.1-10c1.1-11.3,2-22.7,2.6-34c0.1-1.1,0.1-2.1,0-3.3c-0.1-2.1,0.4-3.7,1.7-4.9l0.8,0.4c0.1,0.2,0.1,0.3,0.2,0.4
			c0.5,2.8,0.7,5.6,0.4,8.5c-0.4,4.1-0.9,8.3-1.1,12.5c-0.6,7.4-1.3,14.8-2.1,22.2c-0.5,4.9-1.1,9.7-1.8,14.6c-0.4,2.7-0.7,5.4-1,8
			c-0.4,3.4-0.8,6.9-1,10.3c0.5,0.4,1.1,0.8,1.8,1c3.4,1.2,6.5,1.2,9.3,0c0.1-0.7,0.2-1.5,0.3-2.2c0.8-5.1,1.7-10.1,2.6-15.1
			c0.2-1.2,0.4-2.5,0.7-3.7c0.6-3.3,1.1-6.6,1.7-9.9c1.8-11.3,3.4-22.5,4.7-33.8c0.1-1,0.2-2.1,0.2-3.2c0-2.1,0.7-3.7,2-4.8l0.7,0.4
			c0.1,0.2,0.1,0.3,0.2,0.5c0.4,2.8,0.4,5.6-0.1,8.4c-0.7,4.1-1.4,8.3-1.9,12.5c-1,7.3-2.2,14.7-3.5,21.9c-0.9,4.8-1.8,9.7-2.7,14.5
			c-0.5,2.7-1,5.4-1.5,8c-0.4,2-0.7,4-1,6.1c6.4,0.9,13,1.5,19.8,1.9c0.4,0,0.7,0.1,1.1,0.1c0.2-1,0.5-2,0.8-3.1
			c1-6.1,1.6-9.3,1.7-9.6c0.2-0.8,0.6-1.2,1.1-1.4c-0.3,2.4-0.8,5.7-1.6,9.9c-0.3,1.6-0.5,3-0.8,4.3c8.2,0.4,15.9,0.3,23.2-0.1
			c0.1-0.8,0.2-1.7,0.2-2.6c0.6-5.9,1-9.1,1.2-9.5c0.1-0.4,0.4-0.6,0.8-0.6c0,3.1-0.4,7.3-1,12.6c6.2-0.4,12.1-1.2,17.7-2.2
			c0.5-2.6,1.2-5.9,2-9.8c0.4-1.3,0.9-1.9,1.3-2c-0.1,0.5-0.6,3.6-1.8,9.6l-0.4,2.1c1.7-0.3,3.3-0.7,4.9-1.1
			c2.1-0.5,4.2-1.1,6.3-1.7c3-18.1,4.9-34.6,5.7-49.6c0.2-3.2,0.3-6.2,0.4-9.2c0.4-19.2,0.7-30.9,0.6-34.9c0-0.2,0-0.4,0-0.6
			c-0.1,0.1-0.2,0.2-0.3,0.4c0,0,0,0,0,0c-0.7,1.1-1.6,2.4-2.4,4.1c-1.7,3.5-2.7,5.4-2.9,5.7c-0.7,1.1-2.2,3.4-4.5,6.8
			c-1.5,0.1-3.9-0.3-7.4-1.2c-5.6-1.4-16.1-4.7-31.2-9.8c-8.7,0.1-17.6-0.4-26.5-1.5c-14.6-1.7-27.8-4.6-39.6-8.6
			c-4.7-1.6-8.9-3.3-12.7-5.1c0,0.3-0.1,0.7-0.1,1.1c-0.2,2.9-0.5,5.8-0.8,8.7c-0.4,4.2-0.9,8.3-1.5,12.5c-2,15.3-3,30.6-3.1,46
			C117.6,253.7,117.6,262.1,117.6,269.9z"/>
		<path d="M140.9,314.2c0.1-0.4,0.9-0.8,2.3-1.1c1.4-0.3,2.2-0.9,2.5-1.7c0.2-0.5,0.3-1.2,0.2-2c-1,0.2-2.3,0.3-3.7,0.5
			c-3.2,0.3-5.5,0.7-6.7,1.1c-2.1,0.7-3.5,1.9-4.1,3.7c-0.5,1.5-0.7,2.5-0.6,3.1c0.3,1.4,1.7,2.6,4.2,3.4c7.7,2.7,14.4,1.2,20-4.6
			c3.1-3.2,5.5-6.9,6.9-11c0.7-1.9,1.1-4.1,1.3-6.5c0,0,0,0,0-0.1c0,0-0.1,0-0.1,0.1c0.1-0.5,0.1-0.9,0.2-1.4c0-1,0-2.2,0-3.4
			c-2.6,0.2-5.3-0.2-8.3-1.2c-0.1,0-0.3-0.1-0.4-0.1c-0.3,0.3-0.7,0.6-1.1,0.9c-3.4,2.9-5.3,5-5.6,6.1c-0.5,1.4-0.5,3.5,0,6.2
			c0.5,2.8,0.5,4.7,0,6c-0.4,1.1-1,2.1-1.7,2.8c-1.2,1.2-2.7,1.5-4.3,0.9c-0.4-0.1-0.7-0.3-0.8-0.5c0-0.2-0.1-0.3-0.2-0.5
			C140.6,315.1,140.6,314.9,140.9,314.2z"/>
		<path d="M153.5,289.8c0.1,0,0.3,0.1,0.4,0.2c0,0,0.1,0,0.1,0c0.3,0.2,0.6,0.3,1,0.5l0.7,0.2c0.3,0.1,0.6,0.2,1,0.2l0,0
			c2.5,0.7,5,0.9,7.3,0.6c0.2-1.6,0.4-3.1,0.7-4.6c-2.9,0.9-6,0.8-9.4-0.4c-0.5-0.2-1-0.4-1.4-0.6c0,0,0,0,0,0.1
			C153.7,287.3,153.6,288.5,153.5,289.8z"/>
		<path d="M186.6,414.7c1.8-0.4,3.7-1.1,5.7-1.9c0,0,0,0,0.1,0c-0.2-0.7-0.5-1.3-0.7-2c-0.2,0-0.4,0-0.5,0c0.1-0.2,0.2-0.4,0.4-0.6
			c-1.8-6.2-2.7-12.8-2.7-19.7c0-10.4,0.7-18,2-22.8c1.3-4.9,2.5-8.9,3.5-11.9c1.5-4.4,2.5-7,2.9-7.8c1.3-3.1,3-5.2,4.7-6.4
			c0.2,0.1,0.4,0.3,0.6,0.5c0.2,0.3,0.2,0.6,0,1c-0.1,0.2-1,2.2-2.8,6.2c-1.9,4-2.9,6.4-3.3,7.4c-2.3,6.6-3.8,12-4.5,16.1
			c-0.7,4.9-1,11-0.7,18.3c0.3,6.6,1,12.3,2,17.2c3.2-0.4,6.4-1.7,9.6-4c-0.9-2.2-1.4-4.5-1.5-7c-0.4-10.1,0.2-20.2,1.7-30.2
			c2-13.3,8.8-24,18.3-33.7c22.8-23.5,29.9-50.7,30.7-53.5c-5.4,2.9-10.8,4.7-16.4,5.3c-2.7,0.3-7.9,0.9-15.4,1.9
			c-7.5,1-15.8,1.4-25,1.4c-8.2-0.1-17.7-0.9-28.4-2.3c-0.2,1.5-0.4,3.1-0.6,4.7c-0.1,0.7,0.1,19.6-9.8,27.9
			c-6.7,5.7-13.5,8.1-22.2,5c-3.8-1.3-5.8-3.2-6.1-5.6c-0.1-0.8,0-1.6,0.3-2.5c0.4-0.9,0.6-1.4,0.6-1.5c0.8-2.4,2.4-4,4.6-5
			c1.6-0.7,3.8-1.2,6.8-1.4c2.1-0.2,3.8-0.3,4.9-0.5c0-0.3-0.1-0.6-0.2-0.9c0-0.2-0.1-0.4-0.1-0.6c-1.4-0.4,3.4-16.1,5.9-15.5
			c0.2-2.2,0.3-4.4,0.5-6.6c-7.6-1.6-14.8-3.6-21.6-5.9c-4.6-1.6-8.8-3.2-12.5-4.7c0,2.1,0,15.1,3.5,30.2c2,8.4,5.2,15.7,10,21.7
			c4.6,5.8,10.7,10.4,18.2,13.7c4.1,1.7,7.2,3,9.3,3.8c3.6,1.5,6.7,3.1,9.3,4.8c2.6,1.6,4,3.4,4.3,5.4c0,0.3,0.1,0.6,0.1,0.9
			c0,0,0,0,0,0l0,0.2c1.1,34.1,0.5,54.4-1.6,61.1C175.9,415.9,181.1,416,186.6,414.7z"/>
		<path d="M172,424.8c11.3,3.3,21.1,4.9,29.1,4.8c10.2-0.1,18.1-1.1,23.8-2.9c1.4-0.4,2.6-0.9,3.9-1.5c0-0.1-0.1-0.1-0.1-0.2
			c-0.7-2-2.5-3.4-5.4-4.4c-1.9-0.6-6.3-1.1-13.3-1.4c-0.7-0.1-1.3-0.1-1.9-0.1c0,0.1,0,0.1-0.1,0.2c-0.2,0.5-0.8,1.5-1.7,3
			c-0.9,1.3-1.4,2.1-1.6,2.3l-0.7,0c-0.6-0.5-0.8-1.2-0.4-2.1c0.3-0.8,0.8-1.8,1.5-3c0.1-0.2,0.2-0.4,0.3-0.5
			c-1.4-0.1-2.6-0.3-3.8-0.4l-1.7,4.9c-0.2-0.1-0.6,0-1.2,0.1c-0.5-0.9-0.4-2.1,0.1-3.7c0.2-0.6,0.5-1.2,0.7-1.6
			c-0.9-0.1-1.6-0.3-2.3-0.4c-0.3,0.9-1.3,2.6-2.7,5.2c-0.2-0.1-0.6,0-1.2,0.1c-0.5-1-0.6-1.7-0.4-2.3c0.3-1,0.9-2,1.7-3.2
			c0.1-0.2,0.3-0.3,0.4-0.5c-1-0.4-2-0.9-2.8-1.4c-1.6,0.6-3.3,1.1-5.3,1.4c-4.8,0.9-9.2,1-13.4,0.3c-0.2,0.5-0.5,1.1-0.7,1.7
			c-0.2,0.7-0.5,1.9-0.6,3.6C172.1,423.4,172,424.2,172,424.8z"/>
		<path d="M228.7,429.1c0.2-0.5,0.3-0.9,0.3-1.4c-6.8,2.7-15.5,4-25.9,3.7c-8-0.2-16.6-1.2-25.8-3.2c-1.9-0.4-3.7-0.8-5.4-1.2
			c0,0.8,0.1,1.5,0.1,2.2c0,0.5,0.1,0.9,0.2,1.3c12.6,3.7,25.3,4.8,38.1,3.4c5-0.5,9.4-1.4,13.3-2.6
			C226.8,430.3,228.6,429.6,228.7,429.1z"/>
		<path d="M233.5,421.8c0.4-0.2,0.8-0.4,1.2-0.7c0-0.6-0.1-1.2-0.3-1.9c-0.7-2.4-2.5-4.1-5.4-5.1c-1.8-0.6-3.7-1-5.8-1.2
			c-1.1-0.1-2.9-0.1-5.7-0.1c-0.8,0-1.6,0-2.4,0c0,0.1-0.1,0.3-0.1,0.4c-0.4,1-1,2-2,2.9l-0.7,0c-0.5-0.4-0.7-0.8-0.7-1.1
			c0-0.1,0.1-0.5,0.3-1c0.1-0.4,0.4-0.8,0.7-1.3c-1-0.1-2-0.2-2.9-0.4c-0.1,0.3-0.2,0.5-0.3,0.8c-0.3,0.8-0.6,1.5-0.9,2.1
			c0,0-0.4,0-1.1,0.1c-0.6-0.6-0.6-1.6-0.2-2.9c0.1-0.2,0.1-0.4,0.2-0.5c-0.7-0.2-1.5-0.4-2.2-0.6l-1.1,3.3c-0.2-0.1-0.6,0-1.2,0.1
			c-0.4-0.5-0.6-1.1-0.6-1.7c0-0.1,0.2-0.6,0.5-1.4c0.1-0.4,0.3-0.7,0.4-1c-1.4-0.6-2.5-1.2-3.4-2c-2,1-3.9,1.6-5.9,1.9
			c0.1,0.5,0.2,1,0.4,1.5c0,0,0.1,0,0.2,0c0.1,0.2,0.2,0.4,0.5,0.6c0,0,0,0,0,0c0.4,0.6,0.7,1,0.9,1.3c-0.3,0.2-0.6,0.5-1.1,0.7
			c4,1.1,9.1,1.8,15.4,2.1c4.1,0.2,6.6,0.3,7.6,0.4c2.6,0.2,4.8,0.6,6.4,1.2c3,1.1,5.1,2.7,6.2,4.8
			C231.4,422.8,232.5,422.4,233.5,421.8z"/>
		<path d="M234.2,424.1c-1,0.5-2,1-3,1.3c0,0.2,0.1,0.5,0.1,0.7c0,0,0,0,0,0.1c0.1-0.1,0.2-0.1,0.3-0.1
			C232.9,425.7,233.8,425,234.2,424.1z"/>
		<path fill="#1D1D1B" d="M147.3,145.3c2.9-2.7,5.6-5.8,7.8-9.5c0.7-1.1,1.3-2.1,1.8-3c-1.7-1.8-2.8-4.9-3.1-9.2
			c-0.1-1.9-0.1-4,0-6.2c0.1-1.6,0.2-2.6,0.3-2.9c0.2-0.8,0.5-1.4,0.7-1.9c0.3-1,0.8-1.7,1.4-2.3c1.6-1.7,4.2-1.9,7.7-0.7
			c5,1.7,8.2,6,9.6,13l5-2.2c-0.6-1.2-1-2.4-1.5-3.7c-0.5-1.7-1-3.6-1.3-5.8c-0.4-2.3-0.5-5-0.2-8.3c0.3-3.3,1.7-5.7,4.4-7.1
			c2.7-1.4,5.5-1.8,8.6-1.3c3,0.5,5.6,0.5,7.8,0.1c2.1-0.4,3.6-1.1,4.5-1.9c0.9-0.8,1.1-2.1,0.6-3.7c-0.5-1.7-0.7-2.7-0.7-3.2
			c0.1-2.8,1.4-4.5,4.1-5.3c1.8-0.5,3.6-0.6,5.5-0.3c5.2,1,9.9,3.1,14,6.5c1.4,1.2,2.7,1.6,4,1.3c1.2-0.3,2.3-1.3,3.1-2.9
			c0.8-1.6,1.5-3.2,2.2-4.8c1.5-0.9,3.1-1.2,4.8-1.1c4,0.5,8,1.2,12,2.1c1.7,0.3,3.3,0.1,4.8-0.6c1-2.5,0.5-4.9-1.4-7.2
			c-0.9-1.1-1.8-2.1-2.7-3.2c-2.6-3.4-5.8-6.2-9.3-8.7c-3.4-2.4-7.1-4.6-10.9-6.5c-6-3-12.2-5-18.8-6.1l0.1-0.2
			c-1.8-0.3-3.6-0.5-5.5-0.7c-5.3-0.5-10.6-0.8-16-0.8c-5.8-0.1-11.6,0.6-17.3,2.1c-5.3,1.3-10,3.8-14.2,7.3c-2,1.9-4.7,5-7.9,9.2
			c-3.2,4.2-5.7,9-7.5,14.3c-1.8,5.3-3.5,10.1-5.1,14.3c-1.6,4.3-3.2,9.7-4.7,16.3c-1.6,6.6-3,13.8-4.3,21.5
			c-1.2,7-2.4,14.2-3.6,21.3C133.9,153.7,140.9,151,147.3,145.3z"/>
		<path fill="#FCD4A4" d="M212.3,48.4c0,0-0.1,0-0.1,0l-0.1,0.2C212.2,48.5,212.3,48.5,212.3,48.4z"/>
		<path fill="#FCD4A4" d="M250.9,83.7c-2.2-0.5-4.4-1.2-6.4-2.2c-2.8-1.3-5.6-1.4-8.4-0.2c-0.2,0-0.3,0.2-0.4,0.4
			c-1.1,2.8-2.7,5.2-4.8,7.3c-0.5,0.5-1.1,0.8-1.8,1c-2.9,0.4-5.4-0.4-7.5-2.5c-0.9-0.9-2.7-2.1-5.6-3.9c-2.8-1.7-5.5-2.4-7.9-2
			c-2.5,0.4-3.9,0.8-4.2,1.2c-0.2,0.4-0.6,0.9-1.1,1.3c0.9,2.5,1.1,5.1,0.4,7.6c-0.2,0.9-0.9,1.9-2.1,3.1c-1.2,1.2-3.4,1.5-6.6,1
			c-3.3-0.5-6.2-0.5-8.8-0.1c-2.5,0.4-4.1,0.8-4.7,1.1c-2.4,1.5-3.7,3.7-3.7,6.8c-0.1,3,0.3,6.3,1.1,9.8c0.6,2.5,1.5,4.8,2.7,6.9
			c0,0-0.1,0.1-0.1,0.1c0.2,0.3,0.4,0.5,0.7,0.8c-3.7,1.7-6.8,3.1-9.5,4.2c-0.2,0.2-0.5,0.3-0.6,0.5c0-0.1-0.1-0.2-0.1-0.2
			c-0.1,0-0.1,0.1-0.2,0.1c0-0.1,0-0.3,0-0.4c0-0.1,0-0.2,0.1-0.3c-1.1-7.4-3.9-11.9-8.5-13.5c-2.6-0.9-4.4-0.6-5.6,0.8
			c-0.6,0.7-0.9,1.5-1.1,2.5c-0.7,10.2,0.6,15.9,3.7,16.9c2.5,0.9,4.1,1.1,4.7,0.7c0.2-0.3,0.5-0.5,0.6-0.6c0.3-0.3,0.8-0.3,1.4-0.3
			c0.3,0.2,0.5,0.4,0.6,0.5c0.2,0.3,0.2,0.6,0,1c-0.8,2.3-3.5,2.7-8.2,1.1c-0.2-0.1-0.3-0.1-0.5-0.2c-0.6,1.1-1.2,2.2-1.9,3.4
			c-2.5,3.9-5.3,7.3-8.5,10.2c-6.7,5.9-14.3,8.6-22.6,8.1c-1,6.2-1.8,13.2-2.4,19c4.1,2.2,8.5,4.1,13.4,5.8c14,4.9,31.3,8,51.9,9.3
			c9,0.6,17.2,0.7,25,0.4c7.7-0.3,13.9-1.1,18.4-2.2c7.7-2,15.9-4.7,24.6-8.1c0.8-1,1.7-2.2,2.6-3.2c0.2-1.4,0.4-2.9,0.8-4.1
			c0.3-1.1,0.5-2.2,0.7-3.1c-5.9,1.9-9.6,3.3-11.2,4.1c-0.6-0.5-0.8-1.1-0.5-1.8c0.6-1.6,3.7-3.2,9.4-4.8c0.6-0.2,4.2-1,10.7-2.5
			l-0.6-0.3c-0.8-0.4-2.2-0.9-4.1-1.6c-2.7,0.2-19.8,0-23.3,0c-6,0-10.5-1.9,1-2.9c3.2-0.3,5.6,0.2,13.5,0.1c2.2,0,8.4-0.9,9.8-1
			c1-0.1,1.2-1.4,0.3-1.9c0,0-6.1-1.1-7.8-1.3c-1.7-0.1-4.1-0.3-7.1-0.4c-5.1-0.2-7.8-0.4-8.2-0.6c-0.5-0.2-0.9-0.5-1.1-1
			c-0.2,0.3-0.2,0,0.1-0.7c0.2-0.6,2.6-0.8,7.3-0.6c4.4,0.2,8.3,0.6,11.6,1.3c0.1-0.9-0.1-23.9,0-24.8c0.5-5-0.8-17.2-0.9-17.4
			c-1,0.2-2.1,0.2-3.2,0.1c-0.4-0.1-0.7-0.1-1-0.2c-0.4-0.1-0.6-0.2-0.9-0.3c-1.4-0.5-2.6-1.3-3.7-2.3c-0.3-0.3-0.6-0.7-0.9-1.1
			c-0.5-0.7-0.9-1.3-1.2-2c-0.2-0.4-0.3-0.9-0.4-1.3c-0.1-0.3-0.1-0.6-0.2-0.9c-0.1-0.9-0.2-1.9,0-3c0,0,0,0,0-0.1
			c0.2-1.3,0.6-2.5,1.2-3.6c0.7-1.1,1.5-2,2.6-2.8c1-0.8,2.1-1.3,3.1-1.6 M219.9,171.7l-0.5,1.3c-0.2,0-0.4,0-0.6-0.1
			c-9.5-3.6-13.3-10-11.4-19.3l0.8,0.1C208.5,162.2,212.3,168.2,219.9,171.7z M243.1,105.1c0-0.2,0.3-0.1,1,0.1
			c0.5,0.2,2.2,3.3,4.9,9.4c2.7,6,4,9.3,3.8,9.8c-0.8,2.2-3,2.6-6.6,1.4c-0.7-0.2-1.2-0.6-1.4-1.1c-0.1,0.3-0.1,0.1,0.1-0.7
			c0.1-0.3,0.5-0.4,1.1-0.3c1.4,0.1,2.9,0.2,4.5,0.1c-0.3-1.9-1.7-5.4-4.1-10.3c-2.5-4.9-3.7-7.5-3.7-7.6
			C242.8,105.8,242.9,105.5,243.1,105.1z M184.8,130.4c-1.7,0.9-3.9,1.9-6.5,3.1c-2,1-3.9,1.8-5.7,2.6c0-0.6-0.1-1.2-0.2-1.7
			c0-0.3,0-0.6-0.1-0.9l11.7-5.3C184.3,129.1,184.5,129.8,184.8,130.4z M183.3,126c0.1,0.5,0.3,1,0.5,1.5c-1.2,0.5-2.5,1.2-4,1.9
			c-2.8,1.3-5.3,2.5-7.5,3.4c-0.1-0.9-0.2-1.7-0.3-2.5l11.2-5C183.2,125.5,183.2,125.8,183.3,126z M182.3,122
			c0.2,0.8,0.3,1.6,0.6,2.3c-0.5,0.3-1.1,0.5-1.6,0.8c-3.6,1.7-6.8,3.1-9.5,4.3c-0.2-0.9-0.3-1.7-0.5-2.3L182.3,122z M162.6,127.9
			c-1.6-0.6-2.5-1.6-2.5-2.9c0-0.5,0.1-0.9,0.3-1.4c0.1-0.4,0.2-0.6,0.2-0.7c0.3-0.9,0.5-1.4,0.7-1.6c0.5-0.4,1.4-0.5,2.8-0.2
			c-0.2-0.5-0.7-1.1-1.4-1.9c-0.4-0.4-1-1.1-1.8-2c-0.2,0.3-0.2,0,0.1-0.7c0.2-0.5,0.4-0.7,0.6-0.7c0.2,0,0.5,0.1,1.2,0.3
			c2.7,0.9,4.2,2.7,4.5,5.3c0.1,1.4,0,2.8-0.5,4.2c-0.4,1.2-0.7,1.9-0.8,2C165.3,128.4,164.2,128.4,162.6,127.9z"/>
		<path d="M247.6,105c0-0.1,0-0.1-0.1-0.2C247.6,104.9,247.6,105,247.6,105z"/>
		<path d="M246.5,113.5c2.4,4.9,3.8,8.4,4.1,10.3c-1.6,0.1-3.1,0.1-4.5-0.1c-0.7-0.1-1,0-1.1,0.3c-0.2,0.7-0.3,0.9-0.1,0.7
			c0.2,0.5,0.7,0.9,1.4,1.1c3.6,1.3,5.9,0.8,6.6-1.4c0.2-0.5-1.1-3.7-3.8-9.8c-2.7-6.1-4.4-9.2-4.9-9.4c-0.7-0.2-1-0.3-1-0.1
			c-0.2,0.4-0.3,0.6-0.4,0.8C242.7,106,243.9,108.6,246.5,113.5z"/>
		<path d="M207.4,153.6c-1.9,9.3,1.9,15.7,11.4,19.3c0.2,0.1,0.4,0.1,0.6,0.1l0.5-1.3c-7.6-3.5-11.5-9.5-11.7-18L207.4,153.6z"/>
		<path d="M167.2,121.5c-0.3-2.7-1.8-4.4-4.5-5.3c-0.6-0.2-1-0.4-1.2-0.3c-0.2,0-0.5,0.3-0.6,0.7c-0.2,0.7-0.3,0.9-0.1,0.7
			c0.8,0.9,1.4,1.5,1.8,2c0.7,0.8,1.2,1.4,1.4,1.9c-1.4-0.3-2.3-0.2-2.8,0.2c-0.1,0.1-0.4,0.7-0.7,1.6c0,0-0.1,0.3-0.2,0.7
			c-0.2,0.5-0.2,1-0.3,1.4c0,1.4,0.9,2.4,2.5,2.9c1.6,0.5,2.7,0.5,3.3-0.2c0.1-0.2,0.4-0.8,0.8-2
			C167.2,124.2,167.3,122.8,167.2,121.5z M164.2,125.9l-1.6-0.5c-0.1-0.4-0.2-0.6-0.2-0.7c0.1-0.5,0.1-0.8,0.2-1
			c0.1-0.4,0.6-0.5,1.2-0.2c0.6,0.4,1,0.5,1,0.5L164.2,125.9z"/>
		<path fill="#FCD4A4" d="M162.6,123.7c-0.1,0.2-0.1,0.6-0.2,1c0.1,0,0.2,0.3,0.2,0.7l1.6,0.5l0.6-1.8c0,0-0.4-0.2-1-0.5
			C163.2,123.2,162.8,123.3,162.6,123.7z"/>
		<path d="M181.2,125.2c0.6-0.3,1.1-0.5,1.6-0.8c-0.2-0.7-0.4-1.5-0.6-2.3l-11.1,5c0.2,0.7,0.3,1.5,0.5,2.3
			C174.4,128.3,177.6,126.9,181.2,125.2z"/>
		<path d="M172.2,132.8c2.3-1,4.8-2.1,7.5-3.4c1.5-0.7,2.8-1.3,4-1.9c-0.1-0.5-0.3-1-0.5-1.5c-0.1-0.2-0.1-0.5-0.2-0.7l-11.2,5
			C172.1,131.1,172.1,131.9,172.2,132.8z"/>
		<path d="M172.4,134.5c0.1,0.6,0.1,1.1,0.2,1.7c1.8-0.8,3.7-1.6,5.7-2.6c2.6-1.2,4.7-2.3,6.5-3.1c-0.2-0.7-0.5-1.3-0.7-2.1
			l-11.7,5.3C172.4,133.9,172.4,134.2,172.4,134.5z"/>
		<path fill="#FFFFFF" d="M252,94.5c-2,1.5-3.1,3.4-3.5,5.9c-0.2,1-0.1,2,0,3c0.3,1.3,0.8,2.5,1.6,3.6c1.5,2,3.4,3.1,5.9,3.5
			c1,0.1,2,0.1,2.9-0.1c0,0,0.1,0,0.1,0c0.7-0.1,1.2-0.3,1.9-0.6c0.6-0.3,1.1-0.6,1.7-1c0,0,0,0,0.1-0.1c1.1-0.8,2-1.9,2.5-3
			c0.4-0.9,0.8-1.9,0.9-2.9c0.4-2.5-0.2-4.7-1.7-6.6c-1.5-2-3.4-3.1-5.9-3.5c-0.5-0.1-1-0.1-1.4-0.1c-0.8,0-1.6,0.1-2.3,0.3
			C253.9,93.3,253,93.8,252,94.5z"/>
		<path d="M255,106.5c0.4,0.4,1,0.5,1.6,0.4c0.9-0.2,1.4-0.6,1.6-1.3c0.1-0.3,0.2-0.7,0.1-1.1c-0.3-1.4-1.1-1.9-2.4-1.7
			c-0.5,0.1-0.9,0.3-1.2,0.5c0.1,0,0.2,0,0.2-0.1c0.6-0.1,1,0.1,1,0.6c0,0.2,0,0.3,0,0.5c-0.1,0.3-0.3,0.5-0.7,0.6
			c-0.6,0.1-0.9-0.1-1-0.7c0-0.1,0-0.2,0-0.3c-0.1,0.4-0.2,0.8-0.1,1.3C254.3,105.8,254.6,106.2,255,106.5z"/>
		<path fill="#FCD4A4" d="M143.1,313.1c1.4-0.3,2.2-0.9,2.5-1.7c0.2-0.5,0.3-1.2,0.2-2c-1,0.2-2.3,0.3-3.7,0.5
			c-3.2,0.3-5.5,0.7-6.7,1.1c-2.1,0.7-3.5,1.9-4.1,3.7c-0.5,1.5-0.7,2.5-0.6,3.1c0.3,1.4,1.7,2.6,4.2,3.4c7.7,2.7,14.4,1.2,20-4.6
			c3.1-3.2,5.5-6.9,6.9-11c0.7-1.9,1.1-4.1,1.3-6.5l-0.1,0c0.1-0.5,0.1-0.9,0.2-1.4c0-1,0-2.2,0-3.4c-2.6,0.2-5.3-0.2-8.3-1.2
			c-0.1,0-0.3-0.1-0.4-0.1c-0.3,0.3-0.7,0.6-1.1,0.9c-3.4,2.9-5.3,5-5.6,6.1c-0.5,1.4-0.5,3.5,0,6.2c0.5,2.8,0.5,4.7,0,6
			c-0.4,1.1-1,2.1-1.7,2.8c-1.2,1.2-2.7,1.5-4.3,0.9c-0.4-0.1-0.7-0.3-0.8-0.5c0-0.2-0.1-0.3-0.2-0.5c-0.2,0.3-0.2,0,0.1-0.7
			C141,313.8,141.8,313.4,143.1,313.1z"/>
		<path fill="#71631F" d="M233.5,421.8c0.4-0.2,0.8-0.4,1.2-0.7c0-0.6-0.1-1.2-0.3-1.9c-0.7-2.4-2.5-4.1-5.4-5.1
			c-1.8-0.6-3.7-1-5.8-1.2c-1.1-0.1-2.9-0.1-5.7-0.1c-0.8,0-1.6,0-2.4,0c0,0.1-0.1,0.3-0.1,0.4c-0.4,1-1,2-2,2.9l-0.7,0
			c-0.5-0.4-0.7-0.8-0.7-1.1c0-0.1,0.1-0.5,0.3-1c0.1-0.4,0.4-0.8,0.7-1.3c-1-0.1-2-0.2-2.9-0.4c-0.1,0.3-0.2,0.5-0.3,0.8
			c-0.3,0.8-0.6,1.5-0.9,2.1c0,0-0.4,0-1.1,0.1c-0.6-0.6-0.6-1.6-0.2-2.9c0.1-0.2,0.1-0.4,0.2-0.5c-0.7-0.2-1.5-0.4-2.2-0.6
			l-1.1,3.3c-0.2-0.1-0.6,0-1.2,0.1c-0.4-0.5-0.6-1.1-0.6-1.7c0-0.1,0.2-0.6,0.5-1.4c0.1-0.4,0.3-0.7,0.4-1c-1.4-0.6-2.5-1.2-3.4-2
			c-2,1-3.9,1.6-5.9,1.9c0.1,0.5,0.2,1,0.4,1.5c0,0,0.1,0,0.2,0c0.1,0.2,0.2,0.4,0.5,0.6c0,0,0,0,0,0c0.4,0.6,0.7,1,0.9,1.3
			c-0.3,0.2-0.6,0.5-1.1,0.7c4,1.1,9.1,1.8,15.4,2.1c4.1,0.2,6.6,0.3,7.6,0.4c2.6,0.2,4.8,0.6,6.4,1.2c3,1.1,5.1,2.7,6.2,4.8
			C231.4,422.8,232.5,422.4,233.5,421.8z"/>
		<path fill="#71631F" d="M224.9,426.8c1.4-0.4,2.6-0.9,3.9-1.5c0-0.1-0.1-0.1-0.1-0.2c-0.7-2-2.5-3.4-5.4-4.4
			c-1.9-0.6-6.3-1.1-13.3-1.4c-0.7-0.1-1.3-0.1-1.9-0.1c0,0.1,0,0.1-0.1,0.2c-0.2,0.5-0.8,1.5-1.7,3c-0.9,1.3-1.4,2.1-1.6,2.3
			l-0.7,0c-0.6-0.5-0.8-1.2-0.4-2.1c0.3-0.8,0.8-1.8,1.5-3c0.1-0.2,0.2-0.4,0.3-0.5c-1.4-0.1-2.6-0.3-3.8-0.4l-1.7,4.9
			c-0.2-0.1-0.6,0-1.2,0.1c-0.5-0.9-0.4-2.1,0.1-3.7c0.2-0.6,0.5-1.2,0.7-1.6c-0.9-0.1-1.6-0.3-2.3-0.4c-0.3,0.9-1.3,2.6-2.7,5.2
			c-0.2-0.1-0.6,0-1.2,0.1c-0.5-1-0.6-1.7-0.4-2.3c0.3-1,0.9-2,1.7-3.2c0.1-0.2,0.3-0.3,0.4-0.5c-1-0.4-2-0.9-2.8-1.4
			c-1.6,0.6-3.3,1.1-5.3,1.4c-4.8,0.9-9.2,1-13.4,0.3c-0.2,0.5-0.5,1.1-0.7,1.7c-0.2,0.7-0.5,1.9-0.6,3.6c-0.1,0.7-0.2,1.4-0.2,2.1
			c11.3,3.3,21.1,4.9,29.1,4.8C211.3,429.5,219.2,428.6,224.9,426.8z"/>
		<path fill="#B78917" d="M203.1,431.4c-8-0.2-16.6-1.2-25.8-3.2c-1.9-0.4-3.7-0.8-5.4-1.2c0,0.8,0.1,1.5,0.1,2.2
			c0,0.5,0.1,0.9,0.2,1.3c12.6,3.7,25.3,4.8,38.1,3.4c5-0.5,9.4-1.4,13.3-2.6c3.2-1,4.9-1.7,5.1-2.2c0.2-0.5,0.3-0.9,0.3-1.4
			C222.2,430.4,213.6,431.6,203.1,431.4z"/>
		<path fill="#B78917" d="M212.8,422.6c0,0.2,0.1,0.5,0.1,0.7l0.3,0c1.3-0.4,2.2-1.1,2.6-2C214.8,421.8,213.8,422.3,212.8,422.6z"/>
		<path fill="#086A73" d="M154,290c0.3,0.2,0.6,0.3,1,0.5l0.7,0.2c0.3,0.1,0.6,0.2,1,0.2l0,0c2.5,0.7,5,0.9,7.3,0.6
			c0.2-1.6,0.4-3.1,0.7-4.6c-2.9,0.9-6,0.8-9.4-0.4c-0.5-0.2-1-0.4-1.4-0.6c0,0,0,0,0,0.1c-0.1,1.3-0.1,2.5-0.2,3.8
			C153.6,289.9,153.8,290,154,290C154,290,154,290,154,290z"/>
		<path fill="#1CB1BF" d="M256.4,189.7c-1.9-1.4-3.2-2.5-4.2-3.4c0.7,15.1,0.5,30.1-0.4,45.1c-0.1,1.4-0.2,2.8-0.2,4.3
			c-1,14.6-2.7,29.2-5.1,43.7c1.8-0.7,3.6-1.5,5.3-2.4c0.3-0.2,0.7-0.3,1-0.5c1.2-4.7,2.2-9.5,2.9-14.3c1.5-9.3,2.7-18.7,3.6-28.1
			c0.1-0.7,0.1-1.3,0.2-2c1.1-13.3,1.1-26.7,0.1-40C258.7,191.3,257.6,190.6,256.4,189.7z M250.2,261.8c0.1-0.4,0.4-0.8,0.9-1.1
			c0.6-0.4,1.2-0.5,2-0.3c0.8,0.3,1.3,0.8,1.4,1.6c0.1,0.4,0.1,0.8,0,1.2c-0.1,0.4-0.5,0.8-0.9,1.1c-0.6,0.4-1.3,0.5-2,0.3
			C250.1,264.1,249.6,263.1,250.2,261.8z M255.7,236.8c0.9,0.3,1.4,0.8,1.5,1.6c0.1,0.4,0,0.8-0.1,1.2c-0.5,1.4-1.4,1.9-2.8,1.4
			c-1.5-0.5-2-1.4-1.4-2.8c0.2-0.5,0.5-0.8,0.9-1.1C254.3,236.6,254.9,236.5,255.7,236.8z M254.7,213.8c0.6-0.4,1.3-0.5,2-0.3
			c0.8,0.3,1.4,0.8,1.5,1.6c0.1,0.5,0,0.9-0.1,1.2c-0.1,0.4-0.4,0.8-0.9,1.1c-0.6,0.5-1.2,0.5-2,0.3c-1.5-0.5-2-1.4-1.4-2.8
			C254,214.5,254.3,214.1,254.7,213.8z M258.5,195.8c-0.1,0.4-0.4,0.8-0.9,1.1c-0.6,0.4-1.2,0.5-2,0.3c-1.5-0.5-1.9-1.5-1.4-2.8
			c0.1-0.4,0.5-0.8,0.9-1.1c0.6-0.4,1.3-0.5,2-0.3c0.8,0.3,1.3,0.8,1.5,1.6C258.7,195.1,258.7,195.4,258.5,195.8z"/>
		<path fill="#086A73" d="M238.9,191.1c-0.4-0.1-0.7-0.1-1.1,0.1c-0.3,0.2-0.6,0.4-0.7,0.7c-0.3,0.9,0,1.5,0.8,1.8
			c0.3,0.1,0.7,0.1,1.1-0.1c0.3-0.2,0.6-0.4,0.7-0.7c0.1-0.3,0.1-0.5,0-0.8C239.7,191.6,239.4,191.3,238.9,191.1z"/>
		<path fill="#1CB1BF" d="M252.7,183.3c1.2,0.6,2.8,1.7,4.8,3.4c3,2.5,4.6,3.7,4.8,3.9c-0.7-4.2-1.3-7.5-1.6-10
			c-1.3,0.4-2.6,0.9-4,1.4C255.4,182.3,254.1,182.8,252.7,183.3z"/>
		<path fill="#1CB1BF" d="M209.4,191.7c2.7,0.8,5.5,1.7,8.5,2.7c12.3,3.8,19.1,5.7,20.6,5.7c1.5,0,2.6-1,3.3-3
			c0.7-2,1.4-3.4,2.1-4.1c1-2.4,1.9-4.5,2.9-6.2c0.4-0.7,0.8-1.4,1.2-1.9c-2.3,0.7-4.6,1.4-7,2.1c-4.9,1.4-8.1,2.3-9.5,2.5
			C224.2,190.6,216.8,191.3,209.4,191.7z"/>
		<path fill="#F18B00" d="M250.3,186.3C250.3,186.3,250.3,186.3,250.3,186.3l0.3,0.2L250.3,186.3z"/>
		<path fill="#1CB1BF" d="M128.5,269.8c0.1-1.9,0.3-4,0.7-6.3c0.3-1.7,0.4-2.7,0.5-2.9c0.3-1,0.7-1.6,1.2-1.7
			c-0.1,0.6-0.3,2.3-0.7,5.1c-0.4,2.6-0.7,4.8-0.7,6.3c-0.1,1.6-0.1,3-0.1,4.2c0.5,0.2,1,0.3,1.5,0.5c3.4,1.2,6.8,2.2,10.3,3.2
			c0.2-2.4,0.5-5.5,1-9.1c0.1-0.4,0.2-0.7,0.3-0.8c0.1-0.2,0.3-0.3,0.7-0.2c0.1,0-0.1,2.8-0.7,8.4c0,0.6,0,1.3,0.1,2.2
			c3,0.8,6.1,1.6,9.2,2.3c0.1-1.2,0.2-2.4,0.3-3.6c0.5-5.1,1-10.2,1.6-15.2c0.2-1.3,0.3-2.5,0.4-3.8c0.4-3.3,0.8-6.7,1.1-10
			c1.1-11.3,2-22.7,2.6-34c0.1-1.1,0.1-2.1,0-3.3c-0.1-2.1,0.4-3.7,1.7-4.9l0.8,0.4c0.1,0.2,0.1,0.3,0.2,0.4
			c0.5,2.8,0.7,5.6,0.4,8.5c-0.4,4.1-0.9,8.3-1.1,12.5c-0.6,7.4-1.3,14.8-2.1,22.2c-0.5,4.9-1.1,9.7-1.8,14.6c-0.4,2.7-0.7,5.4-1,8
			c-0.4,3.4-0.8,6.9-1,10.3c0.5,0.4,1.1,0.8,1.8,1c3.4,1.2,6.5,1.2,9.3,0c0.1-0.7,0.2-1.5,0.3-2.2c0.8-5.1,1.7-10.1,2.6-15.1
			c0.2-1.2,0.4-2.5,0.7-3.7c0.6-3.3,1.1-6.6,1.7-9.9c1.8-11.3,3.4-22.5,4.7-33.8c0.1-1,0.2-2.1,0.2-3.2c0-2.1,0.7-3.7,2-4.8l0.7,0.4
			c0.1,0.2,0.1,0.3,0.2,0.5c0.4,2.8,0.4,5.6-0.1,8.4c-0.7,4.1-1.4,8.3-1.9,12.5c-1,7.3-2.2,14.7-3.5,21.9c-0.9,4.8-1.8,9.7-2.7,14.5
			c-0.5,2.7-1,5.4-1.5,8c-0.4,2-0.7,4-1,6.1c6.4,0.9,13,1.5,19.8,1.9c0.4,0,0.7,0.1,1.1,0.1c0.2-1,0.5-2,0.8-3.1
			c1-6.1,1.6-9.3,1.7-9.6c0.2-0.8,0.6-1.2,1.1-1.4c-0.3,2.4-0.8,5.7-1.6,9.9c-0.3,1.6-0.5,3-0.8,4.3c8.2,0.4,15.9,0.3,23.2-0.1
			c0.1-0.8,0.2-1.7,0.2-2.6c0.6-5.9,1-9.1,1.2-9.5c0.1-0.4,0.4-0.6,0.8-0.6c0,3.1-0.4,7.3-1,12.6c6.2-0.4,12.1-1.2,17.7-2.2
			c0.5-2.6,1.2-5.9,2-9.8c0.4-1.3,0.9-1.9,1.3-2c-0.1,0.5-0.6,3.6-1.8,9.6l-0.4,2.1c1.7-0.3,3.3-0.7,4.9-1.1
			c2.1-0.5,4.2-1.1,6.3-1.7c3-18.1,4.9-34.6,5.7-49.6c0.2-3.2,0.3-6.2,0.4-9.2c0.4-19.2,0.7-30.9,0.6-34.9l-0.3-0.3
			c-0.7,1.1-1.6,2.4-2.4,4.1c-1.7,3.5-2.7,5.4-2.9,5.7c-0.7,1.1-2.2,3.4-4.5,6.8c-1.5,0.1-3.9-0.3-7.4-1.2
			c-5.6-1.4-16.1-4.7-31.2-9.8c-8.7,0.1-17.6-0.4-26.5-1.5c-14.6-1.7-27.8-4.6-39.6-8.6c-4.7-1.6-8.9-3.3-12.7-5.1
			c0,0.3-0.1,0.7-0.1,1.1c-0.2,2.9-0.5,5.8-0.8,8.7c-0.4,4.2-0.9,8.3-1.5,12.5c-2,15.3-3,30.6-3.1,46c0,8.8,0,17.2,0,25
			c3.2,1.4,6.8,2.8,10.8,4.3C128.3,272.9,128.3,271.5,128.5,269.8z"/>
		<path fill="#FCD4A4" d="M250.6,185.9c-0.1,0.1-0.2,0.2-0.3,0.4l0.3,0.2C250.6,186.3,250.6,186.1,250.6,185.9z"/>
		<path fill="#F18B00" d="M192.3,412.7C192.3,412.8,192.3,412.8,192.3,412.7c-0.1-0.7-0.4-1.4-0.6-2c-0.2,0-0.4,0-0.5,0
			c0.1-0.2,0.2-0.4,0.4-0.6c-1.8-6.2-2.7-12.8-2.7-19.7c0-10.4,0.7-18,2-22.8c1.3-4.9,2.5-8.9,3.5-11.9c1.5-4.4,2.5-7,2.9-7.8
			c1.3-3.1,3-5.2,4.7-6.4c0.2,0.1,0.4,0.3,0.6,0.5c0.2,0.3,0.2,0.6,0,1c-0.1,0.2-1,2.2-2.8,6.2c-1.9,4-2.9,6.4-3.3,7.4
			c-2.3,6.6-3.8,12-4.5,16.1c-0.7,4.9-1,11-0.7,18.3c0.3,6.6,1,12.3,2,17.2c3.2-0.4,6.4-1.7,9.6-4c-0.9-2.2-1.4-4.5-1.5-7
			c-0.4-10.1,0.2-20.2,1.7-30.2c2-13.3,8.1-24.7,18.3-33.7c22-19.3,29.9-50.7,30.7-53.5c-5.4,2.9-10.8,4.7-16.4,5.3
			c-2.7,0.3-7.9,0.9-15.4,1.9c-7.5,1-15.8,1.4-25,1.4c-8.2-0.1-17.7-0.9-28.4-2.3c-0.2,1.5-0.4,3.1-0.6,4.7
			c-0.1,0.7,0.2,19.3-9.8,27.9c-6.7,5.7-13.5,8.1-22.2,5c-3.8-1.3-5.8-3.2-6.1-5.6c-0.1-0.8,0-1.6,0.3-2.5c0.4-0.9,0.6-1.4,0.6-1.5
			c0.8-2.4,2.4-4,4.6-5c1.6-0.7,3.8-1.2,6.8-1.4c2.1-0.2,3.8-0.3,4.9-0.5c0-0.3-0.1-0.6-0.2-0.9c0-0.2-0.1-0.4-0.1-0.6
			c-1.4-0.4,3.4-16.1,5.9-15.5c0.2-2.2,0.3-4.4,0.5-6.6c-7.6-1.6-14.8-3.6-21.6-5.9c-4.6-1.6-8.8-3.2-12.5-4.7
			c0,2.1-1,11.7,3.5,30.2c2,8.4,5.2,15.7,10,21.7c4.6,5.8,10.7,10.4,18.2,13.7c4.1,1.7,7.2,3,9.3,3.8c3.6,1.5,6.7,3.1,9.3,4.8
			c2.6,1.6,4,3.4,4.3,5.4c0,0.3,0.1,0.6,0.1,0.9c0,0.1,0,0.1,0,0.2c1.1,34.1,0.5,54.4-1.6,61.1c5.1,1.6,10.4,1.7,15.8,0.4
			C188.3,414.2,190.2,413.6,192.3,412.7z M179.1,406c-0.1-0.2-0.2-0.3-0.2-0.5c0.1-0.1,0.2-0.1,0.3-0.1
			C179.2,405.7,179.2,405.8,179.1,406L179.1,406z"/>
		<path d="M178.9,405.6c0,0.2,0.1,0.3,0.2,0.5l0,0c0-0.2,0-0.4,0-0.5C179.1,405.5,179,405.5,178.9,405.6z"/>
		<path d="M266.2,96.3C266.2,96.3,266.2,96.3,266.2,96.3C266.2,96.3,266.2,96.3,266.2,96.3z"/>
		<g>
			<path d="M233.1,114.5c1.6-0.7,2.9-1.8,4-3.1c0.6-0.8,1.1-1.8,1.5-2.9c1-2.8,0.9-5.5-0.4-8.1c-1.3-2.7-3.3-4.5-6-5.5
				c-2.8-1-5.5-0.9-8.1,0.4c-2.7,1.2-4.5,3.3-5.5,6c-0.4,1-0.6,2.1-0.7,3.2c-0.1,1.6,0.3,3.3,1,4.9c1.3,2.7,3.2,4.5,6,5.5
				C227.8,115.9,230.5,115.8,233.1,114.5z M219.5,101.6c0.9-2.5,2.6-4.3,5-5.5c2.4-1.1,4.9-1.3,7.4-0.3c0.1,0.1,0.2,0.1,0.4,0.1
				c-3.2,1.9-5.9,3.6-8.3,5.1c-1.9,1.2-3.6,2.3-5.1,3.2C219,103.3,219.2,102.5,219.5,101.6z M219.8,109c-0.6-1.3-0.9-2.5-0.9-3.8
				c1.9-1.2,4.2-2.6,6.7-4.2c2.7-1.7,5.2-3.3,7.4-4.7c2,1,3.4,2.5,4.4,4.5c1.1,2.4,1.2,4.9,0.3,7.4c-0.4,1.1-0.9,2-1.6,2.9
				c-0.9,1.1-2,2-3.4,2.6c-1.4,0.6-2.7,1-4.1,1c-1.1,0-2.2-0.2-3.3-0.6C222.8,113.1,221,111.5,219.8,109z"/>
			<path fill="#FFFFFF" d="M228.6,114.6c1.4,0,2.8-0.3,4.1-1c1.4-0.6,2.5-1.5,3.4-2.6c0.7-0.8,1.2-1.8,1.6-2.9
				c0.9-2.5,0.8-5-0.3-7.4c-1-2.1-2.4-3.5-4.4-4.5c-2.2,1.4-4.7,3-7.4,4.7c-2.6,1.6-4.8,3-6.7,4.2c0,1.3,0.4,2.6,0.9,3.8
				c1.1,2.4,3,4.1,5.5,5C226.4,114.4,227.5,114.6,228.6,114.6z"/>
			<path d="M233.2,107.1c-0.2,0.5-0.5,0.6-1,0.5c-0.3-0.1-0.5-0.3-0.5-0.6c-0.1-0.2,0-0.3,0-0.5c0.2-0.5,0.5-0.6,1.1-0.4
				c0,0,0,0,0,0c-0.2-0.1-0.5-0.3-0.7-0.4c-1.3-0.5-2.1-0.1-2.5,1.1c-0.1,0.3-0.1,0.7-0.1,1c0.1,0.7,0.5,1.2,1.3,1.4
				c0.6,0.2,1.1,0.2,1.6-0.1c0.4-0.2,0.7-0.6,0.9-1c0.2-0.6,0.2-1.1,0-1.5C233.2,106.8,233.3,107,233.2,107.1z"/>
		</g>
	</g>
</g>
<g id="ziutek_x5F_05">
</g>
<g id="ziutek_x5F_06">
</g>
<g id="ziutek_x5F_07">
</g>
<g id="ziutek_x5F_08">
</g>
<g id="ziutek_x5F_09">
</g>
<g id="ziutek_x5F_10">
</g>
<g id="lady_x5F_01">
</g>
<g id="Layer_13">
</g>
<g id="Layer_12">
</g>
<g id="Layer_14">
</g>
<g id="Layer_15">
</g>
<g id="Layer_16">
</g>
<g id="Layer_17">
</g>
<g id="Layer_18">
</g>
<g id="Layer_19">
</g>
<g id="Layer_20">
</g>
<g id="Layer_21">
</g>
<g id="Layer_22">
</g>
<g id="Layer_23">
</g>
<g id="Layer_24">
</g>
<g id="Layer_25">
</g>
<g id="Layer_26">
</g>
<g id="Layer_27">
</g>
<g id="Layer_28">
</g>
<g id="Layer_29">
</g>
<g id="Layer_30">
</g>
<g id="Layer_31">
</g>
<g id="Layer_32">
</g>
<g id="Layer_33">
</g>
<g id="Layer_34">
</g>
<g id="Layer_36">
</g>
<g id="Layer_35">
</g>
<g id="Layer_37">
</g>
<g id="Layer_38">
</g>
<g id="Layer_39">
</g>
<g id="Layer_40">
</g>
</svg>
