<?xml version="1.0" encoding="utf-8"?>
<!-- Generator: Adobe Illustrator 18.1.1, SVG Export Plug-In . SVG Version: 6.00 Build 0)  -->
<!DOCTYPE svg PUBLIC "-//W3C//DTD SVG 1.1//EN" "http://www.w3.org/Graphics/SVG/1.1/DTD/svg11.dtd">
<svg version="1.1" xmlns="http://www.w3.org/2000/svg" xmlns:xlink="http://www.w3.org/1999/xlink" x="0px" y="0px"
	 viewBox="0 0 393 483" enable-background="new 0 0 393 483" xml:space="preserve">
<g id="ziutek_x5F_01">
</g>
<g id="ziutek_x5F_02">
</g>
<g id="ziutek_x5F_03">
	<path fill="none" d="M215.7,238.9l0.2,0.1c-0.1,0-0.2,0-0.2,0C215.7,238.9,215.7,238.9,215.7,238.9z"/>
	<path fill="none" d="M120.1,299.9C120.1,299.9,120.1,299.9,120.1,299.9L120.1,299.9C120.1,299.9,120.1,299.9,120.1,299.9z"/>
	<path fill="none" d="M131.7,314C131.7,314,131.7,314,131.7,314l0,0.1C131.7,314.1,131.7,314.1,131.7,314z"/>
	<path fill="none" d="M99.8,235.8c0.6-0.4,1.3-0.8,1.9-1.2c-0.4,0.8-0.8,1.7-1.1,2.5c-1.4,3.2-2.7,6.4-3.9,9.7
		c-0.3,0.8-0.5,1.5-0.8,2.3c-0.6-1.4-0.9-2.5-1-3.1c-0.3-1.2-0.5-2-0.5-2.5c-0.2-0.9-0.1-1.6,0-2.3
		C94.9,239.6,96.7,237.8,99.8,235.8z"/>
	<path fill="none" d="M230.4,321c0,0-0.1,0.1,0,0.1L230.4,321C230.3,321,230.3,321,230.4,321z"/>
	<path fill="none" d="M122.5,300.3c0.1,0.1,0.3,0.2,0.4,0.3l-0.1,0.2C122.7,300.6,122.6,300.4,122.5,300.3z"/>
	<path fill="none" d="M214.9,140.8C214.9,140.7,214.8,140.7,214.9,140.8L214.9,140.8L214.9,140.8z"/>
	<path fill="none" d="M122.4,301.4c0.1,0,0.2,0,0.3-0.1l-0.1,0.2C122.6,301.4,122.5,301.4,122.4,301.4z"/>
	<path fill="none" d="M246.1,204.5C246.1,204.5,246.1,204.5,246.1,204.5l-0.2,0C246,204.5,246,204.5,246.1,204.5z"/>
	<path d="M255,92.4"/>
	<path d="M259.2,181.7c1.4-7.3,1-14.3,0.9-21.2c-0.1-12.3-0.8-24.3-0.6-37.5c0.3,0,0.5,0,0.8-0.1c2.1-0.4,3.3-1.4,3.6-2.9
		c0.2-0.8,0.1-1.6-0.1-2.4c-1.8-4.2-3.4-7.8-4.8-10.9c-0.5-4.8-2.3-14.9-2.3-15.1c1.4,0.4,2.7,0.3,4-0.2c1.9-0.7,3.2-1.9,4-3.8
		c0.1-0.2,0.2-0.4,0.2-0.6c0.6-1.7,0.6-3.4-0.1-5.2c-0.7-2-1.9-3.4-3.8-4.3c-1.8-0.9-3.6-1-5.5-0.4c-1.2,0.4-2.2,1.2-3,2.1
		c-0.1-0.1-2.5-4.7-3.6-6.5c-1.7-2.5-3.5-4.9-5.6-7c4.3,1.5,7.8,3.3,10.7,5.5c0.5-0.3,0.7-0.7,0.6-1.2c0-0.2-0.9-1.9-2.7-5
		c-1.7-3-3.1-5.4-4.1-7l0-0.2c4.7,0.7,9.6,2.1,14.6,4.3c4.7,2,9.2,4.6,13.5,7.6c2,1.5,3.9,3,5.6,4.5c0.8,0.9,1.7,2,2.5,3.3
		c-0.6-1.7-1.3-3.4-2.1-5.1c-1.3-2.4-2.7-4.8-4.2-7c-1.5-2.1-3.2-3.9-5.2-5.5c-1.4-1.1-2.8-2.1-4.3-3.1c-0.5-0.3-1.1-0.7-1.6-1
		c-0.5-0.3-1-0.6-1.5-0.9c-0.9-0.5-1.7-0.9-2.5-1.3c-1.8-0.8-3.6-1.6-5.4-2.4c-2-0.8-4-1.5-6.1-2.2c-4.3-1.4-8.7-2.4-13.3-3
		c-5.5-0.6-11-1.1-16.5-1.4c-1.4-0.1-2.8-0.1-4.2,0.1c-6.2,0.4-12.4,1.3-18.5,2.7c-4.4,1.1-8.7,2.5-12.8,4.3
		c-4.4,1.8-8.6,4.2-12.5,6.9c-5.1,3.6-9.6,7.8-13.5,12.5c-3.4,4-6.2,8.4-8.6,13c-2.3,4.6-4.1,9.4-5.2,14.4
		c-2.3,10.2-4.2,20.5-5.7,30.8c-0.5,3-0.9,6-1.3,9c-0.5,4.1-1.3,8.2-2.2,12.2c-1.6,7.2-3.7,14.2-6.3,21.1c-1.3,3.5-2.8,7-4.2,10.4
		c-0.8,1.8-1.5,3.5-2.3,5.3c-0.6,1.3-1.1,2.6-1.7,3.8c-0.6,1.3-1.2,2.7-1.8,4c-1.2,2.7-2.5,5.3-3.7,8c-1.2,2.4-2.3,4.9-3.4,7.4
		c-0.5,1-0.9,2-1.4,3.1c-7,3.8-14.1,7.6-21.2,11.3c-3.7,2-7.2,4.3-10.4,7.1c-1.8,1.6-3.1,3.4-3.9,5.6c-0.5,1.3-0.7,2.7-0.5,4.1
		c0.1,1.1,0.4,2.3,0.8,3.4c1.4,3.6,2.9,7.2,4.8,10.7l-0.5-1c3.1,5.5,6.3,10.9,9.6,16.3c0,0.4-0.1,0.7-0.2,1.1c-0.4,3.4-0.8,6.7-1,10
		c-0.1,0.1-0.1,0.1-0.2,0.2c0,0.1,0.1,0.1,0.1,0.1c-0.3,4.2-0.5,8.3-0.6,12.5c0,4,0.1,7.9,0.5,11.8c0.4,4.1,1,7.9,1.9,11.5
		c0.9,3.6,2,6.5,3.5,8.7c1.5,2.2,3.8,4,6.9,5.5c3.1,1.5,6.2,3.1,9.4,5c3,1.8,5.8,4,8.2,6.5c3.1,3.2,6.1,6.4,9,9.7
		c2.7,3.1,5.5,6.1,8.3,9c2.1,2.2,4.1,4.4,6.1,6.6c2.5,2.8,4.4,5.9,5.8,9.3c0.6,1.4,0.7,2.9,0.2,4.3c-1,3.4-2.8,6.9-5.4,10.6
		c-2.6,3.7-5.3,7.4-8.2,11.2c-1.3,1.7-2.5,3.1-3.5,4.3c0.5,0.2,0.9,0.6,1.3,1c0,0,0,0.1,0.1,0.1c0,0,0,0,0,0
		c0.4,0.4,0.8,0.8,1.2,1.1c-1.6,1.7-2.8,3.2-3.7,4.6c-1.3,2-2.1,3.6-2.3,5c-0.1,0.8,0.1,2.2,0.4,4.3c0,0.2,0.1,0.4,0.1,0.5
		c0.3,0.2,0.6,0.4,0.8,0.6c0.2,0.2,0.4,0.5,0.6,0.7c0.2,0.1,0.4,0.2,0.5,0.3c0.1,0.1,0.1,0.3,0.2,0.5c2.9,2.2,6.4,4,10.3,5.5
		c4.7,1.8,9.7,3.1,14.9,3.7c4.5,0.6,8.2,0.6,11,0.1c1.4-0.3,2.6-0.7,3.6-1.3c0.1,0,0.1,0,0.2,0.1c0.3-0.2,0.7-0.4,1.2-0.5
		c0.6-1.5,1-3.2,1.2-4.9c0.1-1.3,0.2-2.2,0.1-2.8c-0.6-3.3-2.3-5.4-5.2-6.5c-1.8-0.7-4.8-0.9-8.9-0.8c-4.4,0.1-7.3,0-8.8-0.4
		c-2.1-0.6-3.6-1.7-4.4-3.5c0.6,0,1.1,0.1,1.7,0c0-0.6,0.1-1.2,0.3-1.8c-0.1,0-0.2,0-0.3,0c0-0.1,0.1-0.2,0.1-0.3
		c1.8-4.9,3.8-9.2,6.1-12.9c1-1.7,3.1-4.8,6.3-9.3c2.5-3.6,4.2-6.3,5.2-8.1c1.4-2.6,1.9-4.7,1.6-6.3c-0.5-2.7-5-10-13.6-21.8
		c-2-2.7-4-5.5-6.1-8.3c5.6,1.3,11.8,1.7,18.6,1.4c2.5,1.7,5.1,3.4,7.8,5.3c12.2,8.3,18.5,13.4,18.8,15.3c0.1,0.6-0.2,1.9-1.1,4.1
		c-0.9,2.4-2,4.9-3.2,7.3c-1.7,3.1-3.3,5.5-5,7.3c0.5,0.5,0.8,0.9,1.1,1.4c0.1,0,0.1-0.1,0.1-0.1c0.2,0.2,0.4,0.4,0.6,0.6
		c0.4,0.4,0.7,0.7,1.1,1c-2.3,1.6-3.9,3.9-4.9,6.8c-0.3,0.7-0.5,1.5-0.7,2.2c0.3,0.3,0.5,0.6,0.7,0.9c0.1,0.1,0.1,0.1,0.2,0.2
		c1.3,2.6,3,4.9,4.9,6.9c7.6,8.2,18.4,10.9,32.5,8.3c2.9-0.5,5.1-1.1,6.6-1.8c0.6-0.3,1.1-0.6,1.6-0.9c0-0.3,0.1-0.5,0.2-0.7
		c0.1,0,0.1-0.1,0.2-0.1c0.1-0.5,0.2-1,0.2-1.5c0-0.1,0.1-0.3,0.2-0.5c0-0.4,0-0.8,0.2-1.2c-0.1-0.2-0.1-0.4-0.2-0.6
		c0-0.2,0-0.3,0-0.4c-0.7-3.5-2.4-5.7-5.3-6.7c-1.9-0.6-4.9-0.8-9-0.5c-4.4,0.3-7.4,0.4-8.9,0c-2.8-0.6-4.5-2.4-5-5.3
		c0-0.2-0.1-0.5-0.1-0.8c0.1,0,0.2,0,0.2,0c0,0,0,0,0,0.1c0.7-0.1,1.3,0,1.8,0.1c0-0.1,0.1-0.2,0.1-0.4c0.1,0,0.1,0,0.2,0
		c0-0.3,0-0.5,0-0.8c0.5-2.3,1.7-6.7,3.7-13.1c2.8-9.1,4-14.6,3.6-16.6c-0.4-1.9-2.7-4.9-7-8.8c-2.8-2.6-6.6-6.3-11.4-11.1
		c4-1,7.6-2.2,11.2-3.6c2-0.8,14.9-7.7,16.9-10.2c0.1,0,0.1-0.1,0.1-0.2c0.1-0.1,0.1-0.1,0.2-0.2c0.9-1.1,1.6-2.2,2.3-3.2
		c1.3-0.3,2.5-0.7,3.7-1.1c1.6-0.5,3-1.3,4.4-2.2c1.6-1.1,2.4-2.5,2.3-4.4c0-0.5-0.1-0.9-0.3-1.4c4.5-6.8,8.3-14.1,11.3-21.7
		c2.8-7,4.9-14.3,6.5-21.6c5.5-24.1,4.4-47.3,2.2-62.7c-0.8-5.1-6.9-7.7,0-9.1c2.9-0.6,1.3-2.8,0.8-4.1c-0.7-1.8-2.9-2.9-6.2-3.3
		c-9.7-1.1-13.1,4-35.1-4.8c-0.8-0.3-0.6-1.6,0.3-1.7C219.7,188.5,257.8,188.6,259.2,181.7z M240.7,64.1c-0.1,0-0.2-0.1-0.3-0.2
		c-0.3,0-0.6-0.1-0.9-0.1c-0.4-0.1-0.8-0.2-1.3-0.3c-7.5-2-13-2.7-16.3-2.1c-1.2,0.2-1.6,0.7-1.2,1.5c0.2,1,0.6,2,1.2,3.1
		c1.1,1.9,1.8,3,1.9,3.4l-0.1,0.3c-0.1,0-0.8-0.2-1.9-0.6c-1.4-0.4-2.8-0.7-4.3-0.9c-4.7-0.8-9.5-0.7-14.5,0.3
		c-5,0.9-8.1,2.3-9.4,4.2c-0.4,0.6-0.7,1.2-0.7,1.9c0,0.2,0.1,0.5,0.2,1.1c0.2,0.9,0.7,1.9,1.7,3c1.2,1.2,2,2.1,2.6,2.8l0.1,0.2
		c0,0-0.1,0-0.1,0c-0.8,0.1-1.9,0.2-3.5,0.2c-2.4,0.4-3.8,1.9-4.3,4.4c-0.1,0.8-0.2,1.6-0.1,2.6c0.1,0.8,0.2,1.2,0.2,1.2
		c0.1,1,0.3,1.6,0.3,1.8c0.1,0.4,0.2,0.7,0.4,1c0.9,0.8,2,2,3.5,3.5l0.3,0.2c-0.1,0-0.2,0-0.3,0c-3.8,0.4-6.4,3-7.8,7.8
		c-0.5,1.6-0.8,3.4-1,5.6c-0.1,1-0.1,1.8-0.2,2.4c-1.6-0.2-3.5-0.2-5.8-0.3c-0.1-1.5-0.4-3-0.6-4.4c0-0.2-0.1-0.9-0.2-2.2
		c-0.2-1.4-0.5-2.6-0.8-3.6c-1.2-3.3-3.3-4.6-6.2-4.1c-3.4,0.6-5.8,3.8-7.1,9.6c-0.4,1.9-0.7,3.9-0.9,6c-0.1,1.6-0.1,2.7,0,3.1
		c0.3,1.8,0.7,3.1,1.1,3.9c0.4,0.7,0.8,1.3,1.3,1.7c-0.2,0.7-0.4,1.4-0.5,1.9c-1.9,6.1-5.5,9.6-10.9,10.6c-5.1,0.9-9.4,0.7-13.1-0.7
		c0.4-2.8,0.9-5.5,1.3-8.3c0.7-4,1.4-8,2.2-12c0.8-3.9,1.5-7.7,2.3-11.6c0.8-4.1,2-8.1,3.7-11.9c2.3-5.5,5.3-10.7,8.9-15.4
		c6-7.9,13.4-14.1,22.2-18.7c4.7-2.5,9.7-4.4,14.9-5.8c4.5-1.3,9.1-2.1,13.7-2.7c2-0.2,4-0.3,5.9-0.4c2-0.1,3.9-0.2,5.9-0.2
		c3.9,0,7.7,0.3,11.5,0.8c3.4,0.5,6.7,1.1,10,1.8c3.7,0.8,7.4,1.9,11,3.1c2.8,1,5.5,2.2,8.1,3.6c2.9,1.6,5.6,3.4,8.1,5.5
		c1.9,1.6,3.6,3.3,5.2,5.1c1,1.1,1.8,2.3,2.5,3.5c0,0.1,0.1,0.1,0.1,0.1c0,0-0.1-0.1-0.1-0.1c-1-0.8-2-1.7-3.1-2.5
		c-2.8-2.2-6.7-4.4-11.5-6.7c-4.8-2.3-10.6-3.9-17.2-4.8l-1.1,0.4c-0.1,0-0.1,0.2,0,0.7c0.1,0.7,1,2.5,2.6,5.5
		c1.6,2.9,2.5,4.4,2.5,4.6l0,0.2c0,0-0.1,0-0.1,0C248,66.3,244.6,65.2,240.7,64.1z M259.4,77.9c-2.1,1.5-3.4,2.4-3.7,2.6
		c-0.5,0.3-1.2,0.6-2.1,1.2c-0.5,0.3-1,0.6-1.6,1c0,0-0.1,0-0.1,0c0,0,0-0.1,0-0.1c0.1-0.4,0.3-0.9,0.4-1.2c0.2-0.4,0.4-0.8,0.6-1.1
		c0.7-1,1.7-1.7,2.9-2.1C257.1,77.7,258.2,77.7,259.4,77.9z M255.8,90.4c-0.1,0-0.1,0-0.2-0.1c-0.4-0.2-0.9-0.5-1.2-0.8
		c-0.9-0.8-1.7-1.8-2.1-3.1c-0.3-0.9-0.5-1.8-0.4-2.7c0.1-0.1,0.3-0.2,0.5-0.3c0.5-0.3,1.1-0.6,1.6-1c0.3-0.2,0.6-0.4,0.9-0.6
		c2-1.3,3.8-2.5,5.2-3.6c0.2,0.1,0.4,0.2,0.6,0.3c1.6,0.7,2.7,2,3.3,3.8c0.6,1.7,0.6,3.5-0.1,5.2c0,0.1-0.1,0.1-0.1,0.2
		c-0.7,1.5-1.8,2.6-3.4,3.2c-1.3,0.5-2.6,0.5-4,0C256.2,90.6,256,90.5,255.8,90.4z M245.6,202.8c-3,0.6-4.8,0.8-5.3,0.7
		c-0.5,0.2-1.1,0.4-2,0.6c-0.1,0-0.2,0-0.2,0c0.3,0.2,0.9,0.4,1.7,0.6c1.6,0.3,3.7,0.2,6.2-0.2c0.1,0,0.2,0,0.2,0c0,0,0,0.1,0,0.1
		c0,0.1,0,0.1,0,0.2c-0.1,1.2-0.3,3.5-0.5,6.8c-2.2,0.7-4.5,1.1-7,1.2c-4.6,0.2-9.2-0.2-13.7-1.2c-10.5-2.2-20.9-4.9-31.2-7.9
		c-2.4-0.7-4.8-1.5-7.2-2.4c-0.1-0.1-0.2-0.2-0.4-0.3c-0.4-0.1-0.7-0.2-1.1-0.2c-5.4-2.1-10.7-4.6-15.8-7.4
		c-6.6-3.7-12.8-7.8-18.7-12.5c-5.8-4.6-11.1-9.7-15.9-15.3c0.6-1.7,1.1-3.5,1.6-5.2c1-3.3,1.7-6.7,2.4-10.1
		c0.1-0.3,0.2-0.7,0.2-1.1c0.7-4,1.3-8,1.9-12c0.1-0.7,0.2-1.5,0.3-2.2c3.9,1.6,8.5,1.8,13.7,0.9c4.9-0.9,8.4-3.7,10.5-8.3
		c0.6-1.3,1.2-3,1.8-5.2c0.7,0.3,1.5,0.3,2.3,0.1c1.2-0.2,2.4-0.9,3.6-2.1c0.9-1.2,1.4-1.8,1.5-1.9l-0.3-1.4l-0.2-0.1
		c-0.1-0.1-0.3-0.1-0.6,0c-0.2,0-0.6,0.6-1.3,1.8c-0.9,1.2-1.9,1.9-2.9,2c-1.4,0.3-2.5-0.5-3.4-2.3c-0.4-0.9-0.7-1.9-0.9-3
		c1.1-10.3,3-15.7,5.7-16.2c2.7-0.5,4.6,0.7,5.8,3.7c0.3,0.9,0.6,2,0.7,3.1c0.1,1,0.1,1.5,0.1,1.5c0.1,1.9,0.2,3.8,0.3,5.7
		c0,0,0.1,0,0.1-0.1l0,0c3.8,0.2,6.9,0.4,9.3,0.6c0.1-0.6,0.2-1.1,0.2-1.6c-0.1,0-0.1,0-0.2,0c0.4-3.5,0.9-6.1,1.3-7.9
		c0.5-2.1,1.6-3.8,3.3-5.3c1.7-1.5,4-1.9,6.9-1.4c0.1-0.1,0.2-0.1,0.2-0.2c0.1-0.1,0-0.3,0-0.6c0-0.2-0.4-0.5-1.1-1
		c-1.2-0.8-2-1.3-2.2-1.5c-2.2-1.6-3.5-3.3-3.8-5c-0.2-1-0.2-2,0-2.9c0.3-1.8,1.4-2.9,3.2-3.3c0.6-0.1,2.4-0.1,5.4,0.1
		c0.4-0.6,0.6-1,0.6-1.1c0-0.1-1-1.2-2.9-3.3c-1.9-2.1-2.9-3.4-3-3.9c-0.2-0.9,0.1-1.7,0.9-2.3c1.3-1,3.9-1.9,7.9-2.7
		c5.7-1.1,11-1.1,16.1,0c1.6,0.3,3.1,0.8,4.5,1.3c1.1,0.5,1.7,0.7,1.8,0.8c0.4-0.2,0.6-0.4,0.6-0.7c-0.2-0.4-0.8-1.5-1.7-3.4
		c-1.2-2.6-2-4.2-2.2-4.8l-0.1-0.2c6.7-0.1,12.6,0.6,17.8,2.1c3.1,3.1,5.8,6.6,8.1,10.5c0.8,1.4,1.6,2.8,2.3,4.3
		c0.3,0.7,0.3,0.5,0.4,1c0.1,0.2,0.2,0.5,0.3,0.7c-0.6,1.7-0.6,3.5,0,5.3c0.6,1.7,1.7,3.1,3.2,4c0,0.2,0.1,0.3,0.1,0.4
		c-0.1-0.1,0.2,1,0.3,1.2c0.3,1.2,0.5,2.4,0.7,3.6c0.3,1.9,0.6,3.7,0.8,5.6c-2.7-5.8-4.1-8.7-4.3-8.6c-0.3,0.1-0.5,0.2-0.6,0.4
		c0,0.2,0,0.5,0.1,0.9c0,0,1.7,3.8,5.1,11.3c3.5,7.5,5.2,11.6,5.4,12.3c0.4,1.9-0.4,3-2.2,3.3c-1.6,0.3-3.5-0.6-5.9-2.6
		c-0.4-0.4-1.3-1.2-2.6-2.5c-0.9-0.9-1.6-1.5-2.1-1.8c-0.1,0.1-0.3,0.2-0.5,0.3c-0.1,0.1-0.2,0.4-0.1,0.7c0.1,0.3,0.5,0.9,1.3,1.7
		c0.9,1,1.9,1.9,3,2.8c1.8,1.4,3.3,2.3,4.6,2.8c0,1.8-0.1,3.6-0.2,5.4c-0.2,4-0.6,34.5-1.2,38.5c-0.2-0.2-60.7,14.2-58.7,17
		c2.5,3.5,6.1,6.6,10.9,9c3.7,2,8.8,3.9,15.3,5.7c2.1,0.6,4.8,0.9,8.1,1c1.5,0,4.3,0,8.4-0.1c3.2-0.1,5.4-0.1,6.7,0.1
		c1.8,0.3,2.9,0.8,3,1.8c0.1,0.4-0.1,0.7-0.5,0.9C249,202.1,247.7,202.4,245.6,202.8z M205.1,208.7c8,2.1,16.1,3.7,24.3,5.1
		c1.7,0.3,3.4,0.4,5.1,0.5c-6,5.7-9.1,8.6-9.2,8.6c-1.6,0.3-6.4-1.7-14.1-5.9c-5.9-3.3-11.2-6.3-15.8-9.3c-1.6-1-3.2-2.1-4.9-3.4
		C195.2,206,200.1,207.5,205.1,208.7z M249.4,210c-0.7,0.4-1.4,0.7-2.2,1c0.1-0.8,0.2-1.5,0.3-2.4c0-0.1,0-0.2,0-0.4
		C248.5,208.4,249.1,209,249.4,210z M247.7,216.3c-0.8,1.4-1.7,3.1-2.9,4.9c-1.4-2.2-3.1-4.6-4.9-7.2c2.4-0.3,4.8-0.7,7.1-1.4
		c0.9-0.3,1.7-0.5,2.5-0.9C249.4,212.9,248.7,214.4,247.7,216.3z M229,319.4c-0.9,0.3-1.8,0.6-2.8,0.9c-2,0.6-4.1,1.2-6.2,1.6
		c4.9-7.1,8.9-14.8,12.1-22.9c2.8-7,4.9-14.3,6.5-21.6c2.2-10,3.3-20.1,3.3-30.4c0-8.3-0.6-16.6-1.8-24.8c-0.3-2.2-0.7-4.3-1.3-6.4
		c3.9,5.2,6,7.6,6.3,7.2c0.4-0.5,1.3-2,2.7-4.6c0.2-0.4,0.5-0.9,0.7-1.3c0.4,2.2,0.9,4.6,1.2,7.2c1.4,8.9,1.8,17.7,1.4,26.5
		c0,0.9-0.1,1.9-0.2,2.9c0,0,0-0.1-0.1-0.1c0,0.1,0.1,0.1,0.1,0.2c-0.5,7.7-1.7,15.3-3.5,22.8c-2,8.5-5.1,17.3-9.1,26.3
		C235.5,309.8,232.4,315.2,229,319.4z M182.6,398.8c1.3,2.5,2.9,4.7,4.7,6.6c7.6,8.2,18.4,10.9,32.5,8.3c2.4-0.4,4.3-0.9,5.7-1.5
		c-1.7,1.3-4,2.3-7.1,2.8c-13.4,2.5-23.8-0.2-31.1-8.1c-2-2.2-3.7-4.6-5.1-7.4C182.4,399.3,182.5,399.1,182.6,398.8z M187.5,392.6
		c2.9,2.1,6.3,3.1,10.3,3.2c0,0.4,0.1,0.8,0.1,1.1c0.1,0.3,0.1,0.7,0.2,1c-0.1,0-0.2,0-0.3,0c-2.8,0.5-4.5,1.3-5,2.2
		c0.2,0.3,0.4,0.5,0.5,0.6c0.2,0.2,0.5,0.2,1.1,0.1c1.8-0.3,3.1-0.7,3.8-1c0.2-0.1,0.4-0.2,0.6-0.3c0.4,0.8,0.8,1.5,1.4,2.1
		c-0.3,0.2-0.8,0.5-1.4,0.9c-1.3,0.8-2.1,1.5-2.3,1.9c0.2,0.3,0.4,0.5,0.5,0.6c0.2,0.2,0.5,0.2,1.1,0.1c0.6-0.1,1.5-0.6,2.6-1.5
		c0.4-0.3,0.7-0.6,0.9-0.8c0.5,0.3,1.1,0.5,1.7,0.7c0.2,0.1,0.3,0.1,0.5,0.1c-0.2,0.1-0.3,0.3-0.5,0.4c-1.3,1-2.2,2-2.7,2.9
		c0.5,0.6,0.9,0.8,1.1,0.8c0.6-0.1,1.7-0.8,3.2-2.2c0.7-0.6,1.2-1.1,1.6-1.5c1.6,0.1,3.5,0,5.8-0.2c4.4-0.4,7.4-0.4,8.9,0
		c2.8,0.7,4.5,2.5,5.1,5.5c0,0.2,0.1,0.3,0.1,0.5c-1.6,1.2-3.9,2-6.6,2.5c-13.4,2.5-23.8-0.2-31.1-8.1c-1.9-2.1-3.6-4.4-4.9-7
		C184.6,395.1,185.8,393.7,187.5,392.6z M169.3,349c3.7-0.3,7.5-0.8,11.5-1.6c2.5-0.5,4.9-1,7.2-1.5c0.7,0.6,1.3,1.2,1.8,1.6
		c11.4,10.4,17.4,16.7,17.8,19.1c0.1,0.4-0.3,1.9-1,4.5c-0.7,2.5-2.2,7.3-4.3,14.4c-1.1,3.7-2,6.6-2.4,8.5
		c-6.5,0.3-11.3-1.5-14.3-5.4c1.4-1.7,2.7-3.7,4-6.2c1.4-2.6,2.5-5.2,3.4-7.7c0.8-2.5,1.2-4.3,1-5.4c-0.2-1.1-1.5-2.6-3.9-4.5
		c-2.4-1.9-5.3-4.2-8.7-6.9c-3.4-2.7-5.9-4.6-7.6-5.7C172.9,351.4,171.4,350.4,169.3,349z M129.9,423.4c3.1,2.5,6.9,4.6,11.3,6.3
		c4.7,1.8,9.7,3.1,14.9,3.7c4.5,0.6,8.2,0.6,11,0.1c1.6-0.3,3.1-0.8,4.2-1.6c-0.2,0.6-0.4,1.3-0.7,1.9c-1,0.8-2.2,1.2-3.6,1.5
		c-6.2,1.2-13.1,0.5-20.9-2.1c-2.9-0.9-5.6-2.1-8.2-3.4c-2.2-1.1-3.8-2.1-4.8-2.9c-1.1-0.9-2.1-1.8-3.1-2.6
		C130,424,130,423.7,129.9,423.4z M135.5,412.3c2.8,2.2,5.7,3.5,8.9,4c0.2,0.6,0.4,1.2,0.8,1.7c-0.8,0.3-1.5,0.7-2.2,1.3
		c-0.9,0.8-1.5,1.5-1.5,2c0,0.1,0.1,0.3,0.2,0.5c0.1,0.2,0.4,0.2,0.7,0.2c0.6-0.1,1.5-0.6,2.7-1.5c0.5-0.4,1-0.8,1.3-1
		c0.4,0.4,0.9,0.8,1.5,1.1c-0.2,0.3-0.5,0.7-0.8,1.2c-1,1.5-1.5,2.5-1.4,3.1c0,0.2,0.3,0.3,0.8,0.2c0.7-0.1,1.4-0.9,2.2-2.4l0.6-1.5
		c0.6,0.2,1.4,0.4,2.3,0.5c-0.2,0.3-0.5,0.8-0.7,1.3c-0.7,1.4-1.1,2.4-1.1,3c0,0.2,0.1,0.3,0.2,0.4c0.1,0.1,0.4,0.2,0.7,0.1
		c0.7-0.1,1.4-0.9,2.1-2.3c0.4-0.8,0.7-1.6,0.8-2.3c1.3,0.1,2.9,0.1,4.6,0.1c4.3,0,7.3,0.2,8.8,0.6c2.8,0.8,4.5,2.5,5,5.2
		c0,0.2,0,0.5,0,0.9c-1,1.5-2.7,2.4-4.9,2.8c-6.2,1.2-13.1,0.5-20.9-2.1c-2.9-0.9-5.6-2.1-8.2-3.4c-2.2-1.1-3.8-2.1-4.8-2.9
		c-1.1-0.9-2.2-1.8-3.1-2.6c0.2-1.5,0.8-3,1.8-4.3C132.6,415.2,133.9,413.8,135.5,412.3z M91.6,276.3c0.1-0.4,0.1-0.7,0.2-1.1
		c1.3,1.4,2.6,2.7,4,4.1c1.1,1.7,2.2,3.4,3.3,5.2c1,1.6,2,3.2,2.9,4.8c1,1.8,2.1,3.7,3.1,5.5c-1.5-1.2-7-0.3-7.4,1.6
		c-1.1,4.3,9.2,13.3,14,16.4c0.2,0.5,0.4,1.1,0.7,1.6c-2.8,0.8-4.7,2.1-5.5,3.9c-0.4,1-0.5,2.2-0.3,3.4c0.4,2.3,1.4,4.1,2.9,5.5
		c2.5,2.2,6.1,2.9,10.8,2c5.2-1,8.7-2.9,10.6-5.8c0.5,0.3,1.1,0.5,1.6,0.7c-0.8,0.8-1.1,1.2-1.1,1.2c0.1,0.3,0.1,0.4,0.1,0.4
		c0.1,0,0.1,0,0.1,0c0,0.1,0.1,0.1,0.2,0.2c0.1,0.1,0.7-0.3,1.8-1c0.1-0.1,0.2-0.1,0.3-0.2c0,0,0.1,0,0.1,0.1
		c0.1-0.1,0.1-0.1,0.1-0.1c1.1-0.8,2.8-2.3,5.2-4.4c2.7-2.5,3.7-3.9,3.2-4.2c-0.2-0.4-0.6-0.5-1.2-0.4c-0.2,0.2-0.4,0.3-0.6,0.5
		c-2.5-1.1-5-2.2-7.5-3.4c-0.6-0.3-1.3-0.6-1.9-0.9c-0.3-1.3-0.7-2.4-1.1-3.2c-0.6-1.3-1.7-2.6-3.2-4c-0.9-0.8-2.3-1.9-4.3-3.2
		c-0.1-0.1-0.1-0.1-0.2-0.1c0.1,0,0.2,0,0.3-0.1c-0.2-0.2-0.3-0.4-0.4-0.6c0.2,0,0.3,0,0.5,0c-0.1-0.2-0.2-0.3-0.3-0.5
		c0.1,0.1,0.3,0.2,0.4,0.3c0.7,0.4,1.4,0.8,2.1,1.2c7.3,4.3,14.8,7.9,22.7,11c7.8,3,15.8,5.7,23.9,8c8,2.3,16.2,3.9,24.5,4.7
		c8.4,0.8,16.6,0.3,24.8-1.5c3.3-0.7,6.4-1.7,9.4-2.9c0,0,0.1,0,0.1,0c0,0-0.1,0.1,0,0.1c-0.3,0.6-1.1,1.4-2.5,2.3
		c-1.4,1-3.4,1.8-6.1,2.5c-2.7,0.7-4.8,1.2-6.3,1.5c-1.4,0.3-2.7,0.4-4.1,0.6l-3.7,0.7c0,0.5,0.2,0.8,0.7,0.9c1.2,0.3,2.4,0.3,3.6,0
		c2.4-0.3,4.7-0.7,7-1.2c-0.3,0.3-0.5,0.6-0.8,0.9c-6.5,1.5-30.3,15-37.7,16.4c-12.5,2.3-24.2,2.1-35.2-0.6
		c-0.2-0.3-0.4-0.5-0.6-0.8c-2.6-3.4-3.9-5.1-4-5.1c-0.4,0.1-0.6,0.2-0.6,0.4c0,0.1,0,0.4,0.1,0.9c0.1,0.4,1.4,2.3,4,5.9
		c1.5,2.1,4.4,6,8.5,11.6c8.2,11.4,12.6,18.2,13,20.5c0.4,2-0.8,4.8-3.5,8.6c-0.7,1-1.8,2.5-3.3,4.3c-1.3,1.7-2.2,2.8-2.5,3.4
		c-3.4,5.2-6.4,10.7-9.3,16.6c-0.6,1.2-1.1,2.3-1.6,3.4c-4.3-0.4-8.1-2.4-11.3-6c2.3-2.6,4.4-5.5,6.5-8.5c2.4-3.4,4.5-6.7,6.4-9.9
		c1.9-3.2,3-6.1,3.2-8.8c0.1-0.7-0.2-2.2-0.9-4.6c-0.6-2.4-2.3-5-5-7.8c-2.7-2.9-5.4-5.8-8-8.8c-2.6-2.9-5.3-5.9-8.1-8.9
		c-0.8-0.8-1.5-1.7-2.2-2.6c-2.2-2.9-4.7-5.6-7.4-8c-2.9-2.6-6.2-4.8-9.8-6.4c-3.6-1.6-7.1-3.6-10.3-5.8c-0.6-0.5-1.2-1-1.7-1.7
		c-1.9-2.4-3.2-5.2-3.9-8.2c-0.9-3.7-1.6-7.5-2.1-11.3c-0.5-3.7-0.6-7.4-0.5-11.1c0-0.2,0-0.4,0-0.5c-0.1-7.4-0.1-8.1,0.7-14.9
		C91.2,279.4,91.4,277.8,91.6,276.3z M109.6,299.6c0.5-0.8,1-1.4,1.4-1.8c1.3-1.5,3-2.4,5-2.8c0.3-0.1,0.6-0.1,0.9-0.1
		c1,1.6,2.1,3.3,3.2,4.9c0,0,0,0.1,0,0.1c0,0,0,0-0.1,0c0,0-0.1,0.1-0.1,0.2c-3.1,0.6-5.7,1.9-7.9,3.9c-0.2-0.3-0.4-0.7-0.6-1
		C110.8,301.8,110.2,300.7,109.6,299.6z M122.9,304c4,2.7,6.5,6.2,7.2,10.4c0.5,2.7,0.4,4.8-0.1,6.4c-1.2,3.4-4.6,5.7-10.1,6.7
		c-4.3,0.8-7.5,0.2-9.6-1.8c-1.2-1.1-2-2.5-2.3-4.1c-0.5-2.8,1.2-4.7,5.2-5.6c0.3,0.4,0.6,0.7,0.9,1.1c1,1.1,1.5,1.7,1.5,1.7
		c0.5,0.6,0.8,1.2,0.9,1.7c0.1,0.6-0.1,1.3-0.6,1.9c-0.5,0.7-0.8,1.1-0.7,1.3c0.1,0.3,0.1,0.4,0.1,0.4c0.1,0,0.1,0,0.1,0
		c0,0.1,0.1,0.1,0.2,0.2c0.1,0.1,0.3,0,0.6,0c1-0.2,1.6-0.9,1.9-2.1c0-1.2,0-1.8,0-1.8c-0.2-1.1-1.1-2.5-2.6-4.3
		c-1.5-1.8-2.4-3.3-2.6-4.6c-0.2-1-0.2-1.8,0-2.5c0.1-0.3,0.3-0.8,0.7-1.5c0.5-0.8,0.7-1.9,0.7-3.2c1.5-1,3.3-1.8,5.3-2.3
		C121,302.7,122.1,303.4,122.9,304z M79,248.3c-1.2-2.5-1.8-5.1-1.9-7.8c0-0.8,0.1-1.6,0.5-2.3c1.3-3,3.3-5.3,6-7
		c5.1-3.2,10.4-6.1,15.7-8.9c3.4-1.8,6.8-3.6,10.2-5.5c4.7-2.6,9.3-5.1,14-7.5c2.8-1.4,5.5-2.8,8.3-4.1c0.8-0.4,1.5-0.7,2.3-1.1
		c0.8-0.3,1.6-0.6,2.4-0.9c1.2-0.4,2.5-0.7,3.7-1.1c2.7-0.7,5.4-1,8.1-0.9c2.1,0,3.9,0.8,5.3,2.3l0.6-0.4c-0.2-1.4-1.2-2.4-2.8-2.9
		c-3.5-1-6.9-1-10.4-0.1c-6.6,1.8-12.9,4.5-18.9,7.8c-2.7,1.5-5.3,3-8,4.4c0.4-0.7,0.7-1.5,1.1-2.2c1.4-2.9,2.7-5.7,4-8.6
		c1.4-3.2,2.8-6.3,4.2-9.5c1.7-3.7,3.3-7.4,4.9-11.1c1.4-3.1,2.7-6.2,3.9-9.3c0.5-1.4,1.1-2.8,1.5-4.2c1.9,2.2,4,4.4,6.2,6.5
		c6,5.9,12.5,11.1,19.5,15.5c7,4.5,14.2,8.3,21.8,11.5c1.1,0.5,2.3,0.9,3.5,1.4c2.8,2,5.3,3.8,7.4,5.3c4,2.8,10.1,6.3,18.6,10.7
		c8.8,4.5,13.7,6.5,14.7,6c1.1-0.6,3.1-2.2,6-4.9c2.5-2.3,4.3-4,5.4-4.9c0.8,3.5,1.6,7.5,2.3,12c1.4,8.9,1.8,17.7,1.4,26.5
		c-0.4,8.8-1.6,17.4-3.7,25.9c-2,8.5-5.1,17.3-9.1,26.3c-3.2,7.3-6.6,13.1-10.4,17.4c-5.6,1-11.2,1.4-16.9,1.2
		c-1.2,0-2.4-0.1-3.6-0.2c0.9-1.1,1.8-2.4,2.6-3.8c0.9-1.7,1.7-3.3,2.3-5.1c0.5-1.5,0.8-2.5,0.7-2.9c-0.1-0.4-0.2-0.5-0.5-0.5
		c-0.2,0-0.5,0.8-0.9,2.2c-0.6,2-1.1,3.6-1.7,4.8c-0.9,2.1-2.2,3.8-3.6,5.1c-4.9-0.4-9.8-1.2-14.6-2.2c-7.4-1.6-14.7-3.6-21.8-6
		c-3.3-1.1-6.6-2.3-9.9-3.6c0.9-1.3,1.8-3,2.8-5.2c0.7-1.5,1.3-3.3,2-5.2c0.5-1.7,0.8-2.6,0.8-2.7l-0.1-0.7c-0.1,0-0.2,0-0.4,0
		c-0.1,0-0.4,0.8-0.9,2.4c-0.8,2.2-1.5,3.9-2,5.3c-1.1,2.5-2.1,4.5-3,5.8c-4.5-1.8-9-3.7-13.4-5.8c-1.7-0.8-3.4-1.7-5.1-2.5
		c0.4-0.7,0.9-1.4,1.3-2.3c1.5-2.7,2.1-4.3,2-4.8c0-0.2-0.1-0.3-0.2-0.3c0,0-0.2,0-0.4,0c0,0-0.7,1.3-2.1,3.9
		c-0.7,1.1-1.2,2.1-1.7,2.9c-3-1.6-5.9-3.4-8.8-5.2c-1.3-2-2.4-3.9-3.5-5.9c-2.6-4.6-6.4-12-11.6-22.3c-3.8-7.7-6.6-13.5-8.4-17.4
		c1.2-4,2.6-8,4.2-11.8c0.8-2.1,1.7-4.1,2.7-6.1c1.9-1,4-2.1,6.3-3.2c7.3-3.5,14-5.8,20.1-6.9c5.3-1,9.1-1.2,11.2-0.5
		c0.7,0.2,1.2,0.4,1.6,0.8c0.4,0.4,0.6,0.6,0.7,0.6c0.3-0.2,0.4-0.3,0.5-0.4c0.1-0.2,0.1-0.4,0.1-0.8c-0.2-0.9-1.2-1.5-3.2-1.9
		c-2-0.4-4.5-0.5-7.3-0.1c0-0.1-1.3,0.1-3.8,0.5c-6.3,1.2-12.8,3.4-19.7,6.6c-1.7,0.8-3.6,1.8-5.5,2.8c0.1-0.2,0.2-0.4,0.3-0.6
		c-0.7,0.4-1.4,0.7-2.1,1.1c-0.1,0.2-0.2,0.5-0.3,0.7c-1.5,0.9-3,1.8-4.6,2.7c-3.1,1.9-4.9,3.9-5.3,6c-0.2,0.8-0.2,1.7,0,2.7
		c0.1,0.6,0.3,1.4,0.5,2.5c0.5,2.9,3.7,10.1,9.3,21.7c4.6,9.3,8.7,17.2,12.3,23.7c0.3,0.6,0.7,1.2,1,1.8c-2.9,0.8-5.3,2.4-7.2,4.7
		c-2.6-4.6-5.1-9.1-7.7-13.6c-0.8-1.5-1.6-2.9-2.5-4.3c-0.4-0.7-0.8-1.3-1.2-2c-0.1-0.1-0.1-0.3-0.2-0.4c-0.1-0.1-0.2-0.2-0.2-0.3
		c-0.3-0.4-0.5-0.8-0.8-1.2c-0.4-0.6-0.8-1.3-1.2-1.9c-1.5-2.3-3-4.6-4.4-7c-1.6-2.6-3.2-5.2-4.9-7.8C83,256,80.8,252.2,79,248.3z
		 M94.4,243.5c-0.2-0.9-0.1-1.6,0-2.3c0.4-1.7,2.2-3.4,5.4-5.4c0.6-0.4,1.3-0.8,1.9-1.2c-0.4,0.8-0.8,1.7-1.1,2.5
		c-1.4,3.2-2.7,6.4-3.9,9.7c-0.3,0.8-0.5,1.5-0.8,2.3c-0.6-1.4-0.9-2.5-1-3.1C94.7,244.9,94.5,244,94.4,243.5z"/>
	<path d="M240.5,63.9c-0.3,0-0.6-0.1-0.9-0.1c-0.4-0.1-0.8-0.2-1.3-0.3c-7.5-2-13-2.7-16.3-2.1c-1.2,0.2-1.6,0.7-1.2,1.5
		c0.2,1,0.6,2,1.2,3.1c1.1,1.9,1.8,3,1.9,3.4l-0.1,0.3c-0.1,0-0.8-0.2-1.9-0.6c-1.4-0.4-2.8-0.7-4.3-0.9c-4.7-0.8-9.5-0.7-14.5,0.3
		c-5,0.9-8.1,2.3-9.4,4.2c-0.4,0.6-0.7,1.2-0.7,1.9c0,0.2,0.1,0.5,0.2,1.1c0.2,0.9,0.7,1.9,1.7,3c1.2,1.2,2,2.1,2.6,2.8l0,0.2
		c-0.8,0.1-1.9,0.2-3.5,0.2c-2.4,0.4-3.8,1.9-4.3,4.4c-0.1,0.8-0.2,1.6-0.1,2.6c0.1,0.8,0.2,1.2,0.2,1.2c0.1,1,0.3,1.6,0.3,1.8
		c0.1,0.4,0.2,0.7,0.4,1c0.9,0.8,2,2,3.5,3.5l0,0.2c-3.8,0.4-6.4,3-7.8,7.8c-0.5,1.6-0.8,3.4-1,5.6c-0.1,1-0.1,1.8-0.2,2.4
		c-1.6-0.2-3.5-0.2-5.8-0.3c-0.1-1.5-0.4-3-0.6-4.4c0-0.2-0.1-0.9-0.2-2.2c-0.2-1.4-0.5-2.6-0.8-3.6c-1.2-3.3-3.3-4.6-6.2-4.1
		c-3.4,0.6-5.8,3.8-7.1,9.6c-0.4,1.9-0.7,3.9-0.9,6c-0.1,1.6-0.1,2.7,0,3.1c0.3,1.8,0.7,3.1,1.1,3.9c0.4,0.7,0.8,1.3,1.3,1.7
		c-0.2,0.7-0.4,1.4-0.5,1.9c-1.9,6.1-5.5,9.6-10.9,10.6c-5.1,0.9-9.4,0.7-13.1-0.7c0.4-2.8,0.9-5.5,1.3-8.3c0.7-4,1.4-8,2.2-12
		c0.8-3.9,1.5-7.7,2.3-11.6c0.8-4.1,2-8.1,3.7-11.9c2.3-5.5,5.3-10.7,8.9-15.4c6-7.9,13.4-14.1,22.2-18.7c4.7-2.5,9.7-4.4,14.9-5.8
		c4.5-1.3,9.1-2.1,13.7-2.7c2-0.2,4-0.3,5.9-0.4c2-0.1,3.9-0.2,5.9-0.2c3.9,0,7.7,0.3,11.5,0.8c3.4,0.5,6.7,1.1,10,1.8
		c3.7,0.8,7.4,1.9,11,3.1c2.8,1,5.5,2.2,8.1,3.6c2.9,1.6,5.6,3.4,8.1,5.5c1.9,1.6,3.6,3.3,5.2,5.1c1,1.1,1.8,2.3,2.5,3.5l0,0
		c-1-0.8-2-1.7-3.1-2.5c-2.8-2.2-6.7-4.4-11.5-6.7c-4.8-2.3-10.6-3.9-17.2-4.8l-1.1,0.4c-0.1,0-0.1,0.2,0,0.7c0.1,0.7,1,2.5,2.6,5.5
		c1.6,2.9,2.5,4.4,2.5,4.6l-0.1,0.2c-2.8-1.1-6.2-2.2-10-3.3C240.6,64,240.6,64,240.5,63.9z"/>
	<path fill="#FCD4A4" d="M278.7,70.1c0,0-0.1-0.1-0.1-0.1l0,0C278.6,70,278.6,70.1,278.7,70.1z"/>
	<path fill="#FCD4A4" d="M197.7,81.4C197.6,81.4,197.6,81.4,197.7,81.4l-0.1-0.2L197.7,81.4z"/>
	<path fill="#FCD4A4" d="M194.3,96.2c-0.1,0-0.2,0-0.3,0l0-0.2L194.3,96.2z"/>
	<path fill="#FCD4A4" d="M250.9,67.5c0,0-0.1,0-0.1,0l0.1-0.2L250.9,67.5z"/>
	<path fill="#FCD4A4" d="M245.6,202.8c2-0.4,3.3-0.7,3.9-0.9c0.4-0.2,0.6-0.5,0.5-0.9c-0.2-0.9-1.2-1.5-3-1.8
		c-1.3-0.2-3.5-0.2-6.7-0.1c-4.1,0.1-6.8,0.2-8.4,0.1c-3.3-0.1-6-0.4-8.1-1c-6.5-1.8-11.6-3.7-15.3-5.7c-4.7-2.5-3.1-1.8-6.1-4.3
		c-2.7-2.2,50.5-0.5,54.5-7.2c0.9-1.6,0.4-49,0.6-53c0.1-1.8,0.2-3.6,0.2-5.4c-1.3-0.5-2.9-1.4-4.6-2.8c-1.1-0.9-2.1-1.8-3-2.8
		c-0.8-0.9-1.3-1.5-1.3-1.7c-0.1-0.3,0-0.6,0.1-0.7c0.2-0.1,0.4-0.2,0.5-0.3c0.4,0.3,1.1,0.9,2.1,1.8c1.3,1.3,2.2,2.1,2.6,2.5
		c2.3,2.1,4.3,2.9,5.9,2.6c1.8-0.3,2.6-1.4,2.2-3.3c-0.1-0.7-1.9-4.8-5.4-12.3c-3.4-7.5-5.1-11.3-5.1-11.3c-0.1-0.5-0.1-0.8-0.1-0.9
		c0.1-0.2,0.3-0.4,0.6-0.4c0.2,0,1.7,2.8,4.3,8.6c-0.2-1.8-0.5-3.7-0.8-5.6c-0.2-1.2-1.1-5.1-1.1-5.2c-1.5-0.9-2.6-2.2-3.2-4
		c-0.7-1.8-0.7-3.6,0-5.3c-0.1-0.2-1.3-3.5-3-6c-2.6-3.7-5-7.4-8.1-10.5c-5.1-1.4-11.1-2.1-17.8-2.1l0.1,0.2
		c0.2,0.6,0.9,2.2,2.2,4.8c0.9,1.9,1.5,3.1,1.7,3.4c0,0.3-0.3,0.5-0.6,0.7c-0.1,0-0.7-0.3-1.8-0.8c-1.4-0.5-2.9-1-4.5-1.3
		c-5-1.1-10.4-1.1-16.1,0c-4,0.7-6.6,1.6-7.9,2.7c-0.7,0.6-1,1.4-0.9,2.3c0.1,0.5,1.1,1.8,3,3.9c1.9,2.1,2.8,3.2,2.9,3.3
		c0,0.2-0.2,0.5-0.6,1.1c-3-0.2-4.8-0.2-5.4-0.1c-1.8,0.3-2.9,1.4-3.2,3.3c-0.2,0.9-0.2,1.9,0,2.9c0.3,1.7,1.6,3.4,3.8,5
		c0.3,0.2,1,0.7,2.2,1.5c0.7,0.4,1,0.8,1.1,1c0.1,0.3,0.1,0.5,0,0.6c0,0-0.1,0.1-0.2,0.2c-3-0.6-5.3-0.1-6.9,1.4
		c-1.7,1.4-2.7,3.2-3.3,5.3c-0.4,1.8-0.9,4.4-1.3,7.9c0.1,0,0.1,0,0.2,0c-0.1,0.5-0.2,1.1-0.2,1.6c-2.4-0.2-5.5-0.4-9.3-0.6l0,0
		c0,0,0,0-0.1,0.1c-0.1-1.9-0.2-3.8-0.3-5.7c0,0-0.1-0.5-0.1-1.5c-0.2-1.2-0.4-2.2-0.7-3.1c-1.1-3-3-4.2-5.8-3.7
		c-2.7,0.5-4.6,5.9-5.7,16.2c0.1,1.1,0.4,2,0.9,3c0.8,1.8,1.9,2.6,3.4,2.3c1-0.2,2-0.9,2.9-2c0.7-1.2,1.2-1.8,1.3-1.8
		c0.3-0.1,0.5,0,0.6,0l0.2,0.1l0.3,1.4c-0.1,0.1-0.5,0.7-1.5,1.9c-1.2,1.2-2.3,1.9-3.6,2.1c-0.9,0.2-1.6,0.1-2.3-0.1
		c-0.6,2.2-1.3,3.9-1.8,5.2c-2.1,4.6-5.6,7.4-10.5,8.3c-5.2,1-9.7,0.7-13.7-0.9c-0.1,0.7-0.2,1.5-0.3,2.2c-0.6,4-1.2,8-1.9,12
		c-0.1,0.4-0.1,0.7-0.2,1.1c-0.6,3.4-1.4,6.8-2.4,10.1c-0.5,1.8-1,3.5-1.6,5.2c4.8,5.6,10.1,10.7,15.9,15.3
		c5.9,4.7,12.1,8.8,18.7,12.5c5.1,2.8,10.4,5.3,15.8,7.4c0.4,0.1,0.7,0.2,1.1,0.2c0.1,0.1,0.3,0.2,0.4,0.3c2.4,0.8,4.8,1.6,7.2,2.4
		c10.3,3,20.7,5.7,31.2,7.9c4.5,1,9.1,1.4,13.7,1.2c2.5-0.1,4.8-0.5,7-1.2c0.2-3.3,0.4-5.6,0.5-6.8c0,0,0-0.1,0-0.2l-0.2,0
		c-2.5,0.5-4.6,0.5-6.2,0.2c-0.8-0.2-1.3-0.4-1.7-0.6c0.1,0,0.2,0,0.2,0c0.9-0.2,1.6-0.4,2-0.6C240.8,203.6,242.6,203.4,245.6,202.8
		z M236.6,94c-2.8,1-5.5,0.9-8.2-0.4c-1.7-0.8-3-1.8-4-3.1c-0.6-0.8-1.1-1.8-1.5-2.9c-1-2.8-0.9-5.5,0.4-8.2
		c1.3-2.7,3.3-4.5,6.1-5.5c2.8-1,5.5-0.9,8.2,0.4c2.7,1.2,4.5,3.3,5.5,6.1c0.4,1.1,0.6,2.1,0.7,3.2c0.1,1.7-0.3,3.3-1,4.9
		C241.4,91.1,239.4,93,236.6,94z M173.3,111.3c0,1.4-0.6,2.2-1.8,2.4c-1.7,0.3-2.7-0.6-3.1-2.6c0-0.2,0-0.4,0.1-0.5
		c0.1-0.1,1-0.8,2.7-2c0-0.4-0.3-0.9-0.9-1.8c-0.7-0.9-1-1.5-1.1-1.7c-0.1-0.3,0-0.6,0.1-0.7c0.2-0.1,0.3-0.2,0.5-0.3
		c1.2,0.9,2,1.7,2.4,2.5c0.2,0.4,0.4,1.2,0.7,2.6C173.2,109.9,173.3,110.6,173.3,111.3z M186.6,116.9c-2.4-0.2-5.5-0.4-9.2-0.6
		c0-0.1,0-0.1,0-0.2c0-0.5,0-1,0.1-1.4c3.9,0.1,7,0.3,9.2,0.6C186.6,115.7,186.6,116.3,186.6,116.9z M186.7,120
		c-2.5-0.2-5.6-0.4-9.4-0.6c0-0.5,0-1,0.1-1.6c3.8,0.1,6.9,0.3,9.2,0.5C186.6,118.8,186.6,119.4,186.7,120z M177.2,122.4
		c0-0.5,0-1,0-1.6c3.9,0.1,7.1,0.3,9.5,0.5c0,0.5,0.1,1.1,0.1,1.7C184.3,122.9,181.1,122.7,177.2,122.4z M196.9,185.8
		c0.4,0.4,0.8,0.9,1.1,1.3l0,0.6l-0.6,0.5c-7.1-6.8-9.8-15.1-8.3-25l1.6-0.6C189.4,171.3,191.4,179,196.9,185.8z"/>
	<path d="M177.3,117.8c3.8,0.1,6.9,0.3,9.2,0.5c0,0.6,0,1.2,0.1,1.7c-2.5-0.2-5.6-0.4-9.4-0.6C177.3,118.9,177.3,118.3,177.3,117.8z
		"/>
	<path d="M177.2,120.8c3.9,0.1,7.1,0.3,9.5,0.5c0,0.5,0.1,1.1,0.1,1.7c-2.6-0.2-5.8-0.4-9.7-0.6C177.2,122,177.2,121.4,177.2,120.8z
		"/>
	<path d="M177.4,116.1c0-0.5,0-1,0.1-1.4c3.9,0.1,7,0.3,9.2,0.6c0,0.5-0.1,1.1-0.1,1.7c-2.4-0.2-5.5-0.4-9.2-0.6
		C177.4,116.2,177.4,116.1,177.4,116.1z"/>
	<path d="M173.3,111.3c0-0.7-0.1-1.4-0.4-2.1c-0.3-1.4-0.5-2.3-0.7-2.6c-0.4-0.8-1.2-1.6-2.4-2.5c-0.1,0.1-0.3,0.2-0.5,0.3
		c-0.2,0.1-0.2,0.4-0.1,0.7c0,0.2,0.4,0.8,1.1,1.7c0.6,0.9,0.9,1.4,0.9,1.8c-1.6,1.2-2.5,1.9-2.7,2c-0.1,0.1-0.1,0.3-0.1,0.5
		c0.4,2,1.4,2.9,3.1,2.6C172.7,113.5,173.3,112.7,173.3,111.3z M171.6,110.9c0.1,0.3,0,0.6-0.1,0.8c-0.1,0.1-0.2,0.2-0.3,0.3
		c-0.6-0.3-0.9-0.5-1-0.6c-0.1-0.1-0.2-0.4-0.3-0.7l0-0.1c0.5-0.1,0.9-0.2,1.1-0.2C171.4,110.4,171.6,110.5,171.6,110.9z"/>
	<path fill="#FCD4A4" d="M171.2,112c-0.6-0.3-0.9-0.5-1-0.6c-0.1-0.1-0.2-0.4-0.3-0.7l0-0.1c0.5-0.1,0.9-0.2,1.1-0.2
		c0.3,0,0.5,0.2,0.6,0.5c0.1,0.3,0,0.6-0.1,0.8C171.5,111.7,171.4,111.8,171.2,112z"/>
	<g>
		<path d="M236.6,94c2.8-1,4.8-2.9,6.1-5.5c0.8-1.6,1.1-3.3,1-4.9c0-1.1-0.3-2.2-0.7-3.2c-1-2.8-2.8-4.8-5.5-6.1
			c-2.7-1.3-5.4-1.4-8.2-0.4c-2.8,1-4.8,2.9-6.1,5.5c-1.2,2.7-1.4,5.4-0.4,8.2c0.4,1.1,0.9,2.1,1.5,2.9c1,1.4,2.3,2.4,4,3.1
			C231.1,94.8,233.8,95,236.6,94z M242.7,83.2c-1.5-0.9-3.1-2-5.1-3.2c-2.4-1.5-5.2-3.2-8.4-5.1c0.2,0,0.3-0.1,0.4-0.1
			c2.5-0.9,5-0.8,7.5,0.3c2.4,1.2,4.1,3,5,5.5C242.5,81.4,242.7,82.3,242.7,83.2z M236.3,93.1c-1.1,0.4-2.2,0.6-3.3,0.6
			c-1.4,0-2.8-0.3-4.2-1c-1.4-0.6-2.5-1.5-3.4-2.6c-0.7-0.8-1.2-1.8-1.6-2.9c-0.9-2.6-0.8-5,0.3-7.5c1-2.1,2.4-3.6,4.4-4.5
			c2.2,1.4,4.7,3,7.5,4.7c2.6,1.6,4.8,3.1,6.8,4.3c0,1.3-0.4,2.6-1,3.8C240.7,90.5,238.8,92.1,236.3,93.1z"/>
		<path fill="#FDD17A" d="M229.3,74.8c0.2,0,0.3-0.1,0.4-0.1c2.5-0.9,5-0.8,7.5,0.3c2.4,1.2,4.1,3,5,5.5c0.3,0.9,0.5,1.7,0.6,2.6
			c-1.5-0.9-3.1-2-5.1-3.2C235.2,78.5,232.5,76.8,229.3,74.8z"/>
		<path fill="#FFFFFF" d="M236.3,93.1c2.6-0.9,4.4-2.6,5.6-5c0.6-1.3,0.9-2.5,1-3.8c-1.9-1.2-4.2-2.6-6.8-4.3
			c-2.8-1.7-5.3-3.3-7.5-4.7c-2,1-3.4,2.5-4.4,4.5c-1.1,2.4-1.2,4.9-0.3,7.5c0.4,1.1,0.9,2,1.6,2.9c0.9,1.1,2,2,3.4,2.6
			c1.4,0.6,2.8,1,4.2,1C234.1,93.7,235.2,93.5,236.3,93.1z"/>
		<path d="M235.4,85.5c0.1,0.3,0.4,0.4,0.7,0.3c0.2-0.1,0.3-0.2,0.4-0.4c0-0.1,0-0.2,0-0.3c-0.1-0.3-0.4-0.4-0.7-0.3c0,0,0,0,0,0
			c0.1-0.1,0.3-0.2,0.5-0.3c0.9-0.3,1.4,0,1.8,0.8c0.1,0.2,0.1,0.5,0.1,0.7c-0.1,0.5-0.4,0.8-0.9,1c-0.4,0.1-0.8,0.1-1.1-0.1
			c-0.3-0.2-0.5-0.4-0.6-0.7c-0.1-0.4-0.1-0.8,0-1C235.4,85.3,235.4,85.4,235.4,85.5z"/>
	</g>
	<path d="M198,187.7l-0.6,0.5c-7.1-6.8-9.8-15.1-8.3-25l1.6-0.6c-1.3,8.7,0.7,16.4,6.1,23.2c0.4,0.4,0.8,0.9,1.1,1.3L198,187.7z"/>
	<path fill="#1CB1BF" d="M78.9,248.3c1.9,3.9,4,7.7,6.4,11.4c1.7,2.6,3.3,5.2,4.9,7.8c1.4,2.4,2.9,4.7,4.4,7
		c0.4,0.6,0.8,1.3,1.2,1.9c0.3,0.4,0.5,0.8,0.8,1.2c0.1,0.1,0.2,0.2,0.2,0.3c0.1,0.1,0.1,0.3,0.2,0.4c0.4,0.7,0.8,1.3,1.2,2
		c0.9,1.4,1.7,2.8,2.5,4.3c2.6,4.5,5.2,9,7.7,13.6c2-2.3,4.4-3.9,7.2-4.7c-0.3-0.6-0.7-1.2-1-1.8c-3.6-6.6-7.7-14.4-12.3-23.7
		c-5.7-11.5-8.8-18.8-9.3-21.7c-0.3-1.1-0.4-2-0.5-2.5c-0.2-1-0.2-1.9,0-2.7c0.4-2.1,2.2-4.1,5.3-6c1.6-1,3.2-1.9,4.6-2.7
		c0.1-0.2,0.2-0.5,0.3-0.7c0.7-0.4,1.4-0.7,2.1-1.1c-0.1,0.2-0.2,0.4-0.3,0.6c2-1.1,3.8-2,5.5-2.8c6.8-3.3,13.4-5.4,19.7-6.6
		c2.5-0.5,3.7-0.7,3.8-0.5c2.9-0.3,5.3-0.3,7.3,0.1c1.9,0.4,3,1,3.2,1.9c0.1,0.4,0,0.6-0.1,0.8c-0.1,0.1-0.3,0.2-0.5,0.4
		c-0.1,0-0.4-0.2-0.7-0.6c-0.4-0.4-1-0.7-1.6-0.8c-2.1-0.6-5.9-0.4-11.2,0.5c-6.1,1.1-12.9,3.4-20.1,6.9c-2.2,1.1-4.3,2.1-6.3,3.2
		c-0.9,2-1.8,4-2.7,6.1c-1.6,3.9-3,7.8-4.2,11.8c1.7,3.9,4.5,9.7,8.4,17.4c5.2,10.3,9,17.7,11.6,22.3c1.1,2,2.2,3.9,3.5,5.9
		c2.9,1.8,5.8,3.6,8.8,5.2c0.5-0.8,1.1-1.8,1.7-2.9c1.4-2.6,2.1-3.9,2.1-3.9c0.2,0,0.3,0,0.4,0c0.1,0,0.1,0.1,0.2,0.3
		c0.1,0.5-0.6,2.1-2,4.8c-0.4,0.9-0.9,1.6-1.3,2.3c1.7,0.9,3.4,1.7,5.1,2.5c4.4,2.1,8.9,4,13.4,5.8c1-1.4,2-3.3,3-5.8
		c0.6-1.4,1.2-3.1,2-5.3c0.6-1.6,0.9-2.4,0.9-2.4c0.2,0,0.3,0,0.4,0l0.1,0.7c-0.1,0.1-0.3,1.1-0.8,2.7c-0.6,1.9-1.3,3.7-2,5.2
		c-0.9,2.2-1.8,3.9-2.8,5.2c3.3,1.3,6.5,2.4,9.9,3.6c7.2,2.4,14.4,4.4,21.8,6c4.8,1,9.7,1.8,14.6,2.2c1.5-1.3,2.7-3,3.6-5.1
		c0.6-1.2,1.1-2.8,1.7-4.8c0.4-1.4,0.7-2.2,0.9-2.2c0.3-0.1,0.4,0.1,0.5,0.5c0.1,0.4-0.2,1.4-0.7,2.9c-0.6,1.7-1.4,3.4-2.3,5.1
		c-0.8,1.5-1.7,2.8-2.6,3.8c1.2,0.1,2.4,0.2,3.6,0.2c5.7,0.2,11.4-0.1,16.9-1.2c3.8-4.3,7.2-10.1,10.4-17.4c4-9.1,7-17.8,9.1-26.3
		c2.1-8.5,3.3-17.1,3.7-25.9c0.5-8.8,0-17.6-1.4-26.5c-0.7-4.5-1.5-8.5-2.3-12c-1.1,0.9-3,2.6-5.4,4.9c-2.9,2.7-4.9,4.3-6,4.9
		c-1.1,0.5-6-1.5-14.7-6c-8.4-4.4-14.6-8-18.6-10.7c-2.1-1.5-4.6-3.2-7.4-5.3c-1.1-0.4-2.3-0.9-3.5-1.4c-7.6-3.1-14.9-7-21.8-11.5
		c-7-4.5-13.5-9.6-19.5-15.5c-2.2-2.1-4.2-4.3-6.2-6.5c-0.5,1.4-1,2.8-1.5,4.2c-1.2,3.1-2.5,6.2-3.9,9.3c-1.6,3.7-3.2,7.3-4.9,11.1
		c-1.4,3.2-2.8,6.3-4.2,9.5c-1.3,2.9-2.7,5.8-4,8.6c-0.3,0.7-0.7,1.5-1.1,2.2c2.7-1.5,5.3-2.9,8-4.4c6-3.3,12.3-6,18.9-7.8
		c3.5-1,7-0.9,10.4,0.1c1.6,0.5,2.6,1.4,2.8,2.9l-0.6,0.4c-1.5-1.5-3.3-2.3-5.3-2.3c-2.7,0-5.4,0.3-8.1,0.9
		c-1.2,0.4-2.5,0.8-3.7,1.1c-0.8,0.3-1.6,0.6-2.4,0.9c-0.8,0.3-1.5,0.7-2.3,1.1c-2.8,1.3-5.5,2.7-8.3,4.1c-4.7,2.4-9.4,4.9-14,7.5
		c-3.3,1.9-6.7,3.7-10.2,5.5c-5.4,2.8-10.6,5.7-15.7,8.9c-2.7,1.7-4.8,4.1-6,7c-0.3,0.7-0.5,1.5-0.5,2.3
		C77.1,243.2,77.8,245.8,78.9,248.3z M234.9,229.4c-0.9,0.2-1.6-0.1-2.3-0.6c-0.5-0.5-0.8-1-0.9-1.5c-0.1-0.5,0-1,0.1-1.5
		c0.3-1,1-1.6,2.1-1.8c0.9-0.2,1.6,0,2.3,0.6c0.5,0.4,0.9,1,1,1.6c0,0.2,0,0.3,0.1,0.5c0,0.4,0,0.7-0.1,1
		C236.8,228.6,236.1,229.2,234.9,229.4z M232.8,259.3c-0.5-0.4-0.8-0.9-0.9-1.5c-0.1-0.5-0.1-1,0.1-1.5c0.3-1,1-1.6,2.1-1.8
		c0.9-0.2,1.7,0.1,2.3,0.6c0.5,0.5,0.8,1,0.9,1.6c0,0.2,0,0.3,0.1,0.5c0,0.4,0,0.7-0.1,1c-0.3,1-1,1.5-2.2,1.7
		C234.2,260.1,233.5,259.9,232.8,259.3z M225.8,288.5c-0.1-0.5,0-1,0.1-1.5c0.3-1,1-1.6,2.1-1.8c0.9-0.2,1.6,0.1,2.3,0.6
		c0.5,0.5,0.8,1,0.9,1.6c0,0.2,0.1,0.3,0.1,0.5c0,0.3,0,0.7-0.1,1c-0.3,0.9-1,1.5-2.2,1.7c-0.9,0.2-1.6,0-2.3-0.6
		C226.2,289.6,225.9,289.1,225.8,288.5z M214.6,314.7c-0.1-0.5,0-1,0.1-1.5c0.3-1,1-1.6,2.1-1.8c0.9-0.2,1.6,0.1,2.3,0.6
		c0.5,0.5,0.8,1,0.9,1.6c0,0.2,0.1,0.3,0.1,0.5c0,0.3,0,0.7-0.1,1c-0.3,0.9-1,1.5-2.2,1.7c-0.9,0.2-1.6,0-2.3-0.6
		C215,315.8,214.7,315.3,214.6,314.7z M172.6,270.9c-2.6-3.5-4.4-8-5.4-13.6c-0.6-3.1-0.5-6.7,0.2-11.2c0.5-3,1.4-6.7,2.7-11.4
		c0.7-2.5,1.2-4.8,1.8-6.7c0,0,0-0.2,0-0.3c0.1-0.5,0.1-0.9,0.1-1.4c0-0.3,0.1-0.5,0.1-0.8c0-0.2,0.8,0.6,0.9,0.5
		c2.9,2.7,4.6,3.6,7.1,4.7c4.4,2,9.2,3.8,14.3,5.2c8.7,2.5,15.7,3.2,21.2,2.3c0,0,0,0,0,0c0,0.2-0.1,0.3-0.1,0.5l0.2,0.1
		c-0.4,2-1,4.5-1.8,7.4c-1.5,5.7-2.6,10.2-3.5,13.6c-0.9,3.4-1.7,6-2.5,7.9c-2.6,6.3-6.9,10-12.8,11.1
		C185.1,280.7,177.8,278,172.6,270.9z M174.6,319.5c0.2-0.3,0.4-0.6,0.6-1c0.4-0.7,0.9-1.8,1.5-3.2c0.5-1.4,1-2.6,1.3-3.5
		c0.6-1.7,1.1-2.6,1.4-2.6c0.2,0,0.3,0,0.4,0c0,0.1,0.1,0.1,0.1,0.4c0,0.2-0.2,0.8-0.6,2c-0.5,1.3-1.1,2.7-1.8,4
		c-0.9,1.7-1.7,3.1-2.5,4.1C174.8,319.6,174.7,319.5,174.6,319.5z"/>
	<path d="M172.6,271.1c5.1,7,12.6,9.6,22.5,7.8c5.9-1.1,10.2-4.8,12.8-11.1c0.7-1.8,1.6-4.5,2.5-7.9c0.8-3.4,2-7.9,3.5-13.6
		c0.8-2.9,1.4-5.4,1.8-7.4c-0.1,0-0.2,0-0.2,0c0,0,0-0.1,0-0.1c0-0.2,0.1-0.4,0.1-0.5c0,0,0,0,0,0c-5.5,1-12.5,0.2-21.2-2.3
		c-5.2-1.4-9.9-3.2-14.3-5.2c-2.5-1.1-5.2-3-8.1-5.7c0,0.2-0.1,0.3-0.1,0.5c0,0.2,0,0.5-0.1,0.8c0,0.4,0,0.9-0.1,1.4
		c0,0,0,0.1,0.1,0.1c-0.5,1.9-1.1,4.1-1.8,6.6c-1.3,4.7-2.2,8.6-2.6,11.6c-0.7,4.5-0.7,8.3-0.2,11.3
		C168.2,263,170,267.6,172.6,271.1z M211.9,248.3c-5.5,1-11.3,0.7-17.4-1c-3.5-0.9-8.5-2.7-14.9-5.1c-2.7-0.9-5.5-2.6-8.5-5
		c0.2-1,0.5-1.9,0.8-2.8c0.4-1.4,0.9-3.1,1.7-5.4c2.2,1.4,4.7,2.8,7.6,4.1c4.8,2.1,9.4,3.7,13.9,5c7.1,2,13.2,2.7,18.4,2.2
		c-0.2,1.1-0.4,2.1-0.6,3.2C212.4,245.4,212.2,247,211.9,248.3z M173.7,269.7c-2.3-3.3-4-7.5-4.9-12.6c-0.4-2.4-0.3-6.2,0.6-11.5
		c0.4-2.3,0.8-4.5,1.2-6.5c2.7,1.7,5.8,3.3,9.1,4.9c5.6,2.5,11.1,4.3,16.6,5.4c5.7,1.2,10.8,1.4,15.2,0.7c-0.2,1.1-0.4,1.8-0.6,2.4
		c-2.2,7.1-3.5,10.9-3.7,11.4c-1.1,3.2-2.1,5.6-3,7.2c-1,1.8-2.2,3.1-3.7,4.1c-1.4,0.9-3.3,1.5-5.7,2
		C185.5,278.9,178.4,276.4,173.7,269.7z"/>
	<path fill="#086A73" d="M179.5,242.2c-2.7-0.9-5.5-2.6-8.5-5c0.2-1,0.5-1.9,0.8-2.8c0.4-1.4,0.9-3.1,1.7-5.4
		c2.2,1.4,4.7,2.8,7.6,4.1c4.8,2.1,9.4,3.7,13.9,5c7.1,2,13.2,2.7,18.4,2.2c-0.2,1.1-0.4,2.1-0.6,3.2c-0.3,1.9-0.6,3.4-0.9,4.8
		c-5.5,1-11.3,0.7-17.4-1C190.9,246.4,185.9,244.7,179.5,242.2z"/>
	<path fill="#1CB1BF" d="M169.3,245.6c0.4-2.3,0.8-4.5,1.2-6.5c2.8,1.5,5.8,3.3,9.2,4.9c5.6,2.5,11.2,4.3,16.6,5.4
		c5.7,1.2,10.8,1.4,15.3,0.7c-0.3,1.1-0.4,1.9-0.6,2.4c-2.3,7.1-3.5,10.9-3.7,11.4c-1.1,3.2-2.1,5.6-3,7.2c-1,1.8-2.2,3.2-3.7,4.1
		c-1.4,0.9-3.3,1.6-5.7,2c-9.4,1.8-16.5-0.8-21.2-7.5c-2.4-3.3-4-7.5-4.9-12.6C168.2,254.8,168.4,250.9,169.3,245.6z"/>
	<path d="M235.3,229.4c1.2-0.2,1.9-0.8,2.2-1.7c0.1-0.3,0.1-0.6,0.1-1c0-0.2,0-0.3-0.1-0.5c-0.1-0.6-0.4-1.2-1-1.6
		c-0.6-0.6-1.4-0.8-2.3-0.6c-1.1,0.2-1.7,0.8-2.1,1.8c-0.1,0.5-0.2,1-0.1,1.5c0.1,0.6,0.4,1.1,0.9,1.5
		C233.6,229.4,234.4,229.6,235.3,229.4z M235.7,228.6c-0.6,0.1-1.1,0-1.5-0.4c-0.4-0.3-0.7-0.7-0.8-1.2c-0.2-1.4,0.4-2.1,1.6-2.3
		c0.6-0.1,1.1,0,1.5,0.4c0.4,0.3,0.7,0.7,0.8,1.2c0.1,0.4,0.1,0.8-0.1,1.1C237.1,228,236.6,228.4,235.7,228.6z"/>
	<path fill="#1CB1BF" d="M234.2,228.2c-0.4-0.3-0.7-0.7-0.8-1.2c-0.2-1.4,0.4-2.1,1.6-2.3c0.6-0.1,1.1,0,1.5,0.4
		c0.4,0.3,0.7,0.7,0.8,1.2c0.1,0.4,0.1,0.8-0.1,1.1c-0.2,0.7-0.7,1.1-1.5,1.2C235.2,228.7,234.7,228.6,234.2,228.2z"/>
	<path d="M233.2,259.3c0.6,0.6,1.4,0.8,2.3,0.6c1.2-0.2,1.9-0.8,2.2-1.7c0.1-0.3,0.1-0.6,0.1-1c0-0.2,0-0.3-0.1-0.5
		c-0.1-0.6-0.4-1.2-0.9-1.6c-0.6-0.6-1.4-0.8-2.3-0.6c-1.1,0.2-1.8,0.8-2.1,1.8c-0.1,0.5-0.2,1-0.1,1.5
		C232.4,258.4,232.7,258.9,233.2,259.3z M233.4,257.6c-0.1-1.3,0.4-2.1,1.6-2.3c0.6-0.1,1.1,0,1.5,0.4c0.4,0.3,0.7,0.7,0.8,1.2
		c0.2,1.3-0.3,2.1-1.6,2.3c-0.6,0.1-1.1,0-1.5-0.4C233.7,258.4,233.4,258,233.4,257.6z"/>
	<path fill="#1CB1BF" d="M234.9,255.2c0.6-0.1,1.1,0,1.5,0.4c0.4,0.3,0.7,0.7,0.8,1.2c0.2,1.3-0.3,2.1-1.6,2.3
		c-0.6,0.1-1.1,0-1.5-0.4c-0.4-0.3-0.7-0.7-0.8-1.2C233.2,256.2,233.7,255.4,234.9,255.2z"/>
	<path d="M226.3,287c-0.1,0.5-0.2,1-0.1,1.5c0.1,0.6,0.4,1.1,0.9,1.5c0.7,0.6,1.4,0.8,2.3,0.6c1.1-0.2,1.9-0.8,2.2-1.7
		c0.1-0.3,0.1-0.6,0.1-1c0-0.2,0-0.3-0.1-0.5c-0.1-0.6-0.4-1.2-0.9-1.6c-0.6-0.6-1.4-0.8-2.3-0.6C227.3,285.4,226.6,286,226.3,287z
		 M227.6,288.5c-0.1-1.3,0.4-2.1,1.6-2.4c0.5-0.1,1,0,1.5,0.4c0.4,0.3,0.7,0.7,0.8,1.2c0.2,1.3-0.3,2.1-1.6,2.3
		c-0.6,0.1-1.1,0-1.5-0.4C227.9,289.4,227.7,289,227.6,288.5z"/>
	<path fill="#1CB1BF" d="M229.2,286.2c0.5-0.1,1,0,1.5,0.4c0.4,0.3,0.7,0.7,0.8,1.2c0.2,1.3-0.3,2.1-1.6,2.3c-0.6,0.1-1.1,0-1.5-0.4
		c-0.4-0.3-0.7-0.7-0.8-1.2C227.5,287.2,228,286.4,229.2,286.2z"/>
	<path d="M215.1,313.2c-0.1,0.5-0.2,1-0.1,1.5c0.1,0.6,0.4,1.1,0.9,1.5c0.7,0.6,1.4,0.8,2.3,0.6c1.1-0.2,1.8-0.8,2.2-1.7
		c0.1-0.3,0.1-0.6,0.1-1c0-0.2,0-0.3-0.1-0.5c-0.1-0.6-0.4-1.2-0.9-1.6c-0.7-0.6-1.4-0.8-2.3-0.6
		C216.1,311.6,215.4,312.2,215.1,313.2z M216.4,314.7c-0.1-1.4,0.4-2.1,1.6-2.4c0.5-0.1,1,0,1.5,0.4c0.4,0.3,0.7,0.7,0.8,1.2
		c0.2,1.3-0.3,2.1-1.6,2.3c-0.6,0.1-1.1,0-1.5-0.4C216.8,315.6,216.5,315.2,216.4,314.7z"/>
	<path fill="#1CB1BF" d="M218,312.3c0.5-0.1,1,0,1.5,0.4c0.4,0.3,0.7,0.7,0.8,1.2c0.2,1.3-0.3,2.1-1.6,2.3c-0.6,0.1-1.1,0-1.5-0.4
		c-0.4-0.3-0.7-0.7-0.8-1.2C216.3,313.3,216.8,312.6,218,312.3z"/>
	<path d="M175.6,318.5c0.4-0.7,0.9-1.8,1.5-3.2c0.5-1.4,1-2.6,1.3-3.5c0.6-1.7,1.1-2.6,1.4-2.6c0.2,0,0.3,0,0.4,0
		c0,0.1,0.1,0.1,0.1,0.4c0,0.2-0.2,0.8-0.6,2c-0.5,1.3-1.1,2.7-1.8,4c-0.9,1.7-1.7,3.1-2.5,4.1c-0.1-0.1-0.2-0.2-0.4-0.2
		C175.2,319.2,175.4,318.8,175.6,318.5z"/>
	<path fill="#FFFFFF" d="M255.8,90.4c0.2,0.1,0.5,0.2,0.7,0.3c1.3,0.5,2.7,0.5,4,0c1.6-0.5,2.7-1.6,3.4-3.2c0.1-0.1,0.1-0.1,0.1-0.2
		c0.7-1.7,0.7-3.4,0.1-5.2c-0.6-1.8-1.7-3-3.3-3.8c-0.2-0.1-0.4-0.2-0.6-0.3c-1.5,1-3.2,2.2-5.2,3.6c-0.3,0.2-0.7,0.4-0.9,0.6
		c-0.6,0.4-1.1,0.7-1.6,1c-0.2,0.1-0.3,0.2-0.5,0.3c0,0.9,0.1,1.8,0.4,2.7c0.5,1.3,1.2,2.3,2.1,3.1c0.4,0.3,0.8,0.6,1.2,0.8
		C255.6,90.4,255.7,90.4,255.8,90.4z"/>
	<path d="M259.9,85.6c0.1,0.3,0.3,0.4,0.6,0.3c0.2-0.1,0.3-0.2,0.3-0.4c0-0.1,0-0.2,0-0.3c-0.1-0.3-0.3-0.4-0.7-0.3
		c-0.1,0-0.1,0-0.1,0.1c0.1-0.2,0.3-0.3,0.6-0.4c0.8-0.3,1.3,0,1.5,0.7c0.1,0.2,0.1,0.4,0.1,0.7c0,0.4-0.3,0.7-0.8,0.9
		c-0.4,0.1-0.7,0.1-1-0.1c-0.3-0.1-0.4-0.4-0.5-0.6c-0.1-0.3-0.1-0.5-0.1-0.7C259.9,85.5,259.9,85.6,259.9,85.6z"/>
	<path fill="#FDD17A" d="M253.6,81.7c-0.5,0.3-1,0.6-1.6,1c0,0-0.1,0-0.1,0c0,0,0-0.1,0-0.1c0.1-0.4,0.3-0.9,0.4-1.2
		c0.2-0.4,0.4-0.8,0.6-1.1c0.7-1,1.7-1.7,2.9-2.1c1.2-0.4,2.4-0.4,3.5-0.2c-2.1,1.5-3.4,2.4-3.7,2.6
		C255.1,80.8,254.4,81.2,253.6,81.7z"/>
	<path fill="#1CB1BF" d="M229.3,213.8c1.7,0.3,3.4,0.4,5.1,0.5c-6,5.7-9.1,8.6-9.2,8.6c-1.6,0.3-6.4-1.7-14.1-5.9
		c-5.9-3.3-11.2-6.3-15.8-9.3c-1.6-1-3.2-2.1-4.9-3.4c4.8,1.7,9.7,3.2,14.7,4.5C213.1,210.8,221.2,212.5,229.3,213.8z"/>
	<path fill="#1CB1BF" d="M226.2,320.3c-2,0.6-4.1,1.2-6.2,1.6c4.9-7.1,8.9-14.8,12.1-22.9c2.8-7,4.9-14.3,6.5-21.6
		c2.2-10,3.3-20.1,3.3-30.4c0-8.3-0.6-16.6-1.8-24.8c-0.3-2.2-0.7-4.3-1.3-6.4c3.9,5.2,6,7.6,6.3,7.2c0.4-0.5,1.3-2,2.7-4.6
		c0.2-0.4,0.5-0.9,0.7-1.3c0.4,2.2,0.9,4.6,1.2,7.2c1.4,8.9,1.8,17.7,1.4,26.5c0,0.9-0.1,1.9-0.2,2.9c0,0,0-0.1-0.1-0.1
		c0,0.1,0.1,0.1,0.1,0.2c-0.5,7.7-1.7,15.3-3.5,22.8c-2,8.5-5.1,17.3-9.1,26.3c-2.9,6.6-6,12-9.4,16.2
		C228.1,319.7,227.2,320,226.2,320.3z"/>
	<path fill="#1CB1BF" d="M247.5,208.6c0-0.1,0-0.2,0-0.4c0.9,0.2,1.6,0.8,1.9,1.7c-0.7,0.4-1.4,0.7-2.2,1
		C247.3,210.2,247.4,209.4,247.5,208.6z"/>
	<path fill="#1CB1BF" d="M244.8,221.2c-1.4-2.2-3.1-4.6-4.9-7.2c2.4-0.3,4.8-0.7,7.1-1.4c0.9-0.3,1.7-0.5,2.5-0.9
		c-0.2,1.2-0.8,2.7-1.8,4.5C246.9,217.7,246,219.3,244.8,221.2z"/>
	<path fill="#F18B00" d="M180.8,347.5c-4,0.7-7.8,1.3-11.5,1.6c2.1,1.4,3.6,2.4,4.5,3c1.6,1.1,4.1,3,7.6,5.7c3.4,2.7,6.3,5,8.7,6.9
		c2.4,1.9,3.7,3.4,3.9,4.5c0.2,1.1-0.1,2.9-1,5.4c-0.8,2.5-1.9,5.1-3.4,7.7c-1.3,2.5-2.6,4.5-4,6.2c3,3.9,7.8,5.7,14.3,5.4
		c0.5-1.9,1.3-4.7,2.4-8.5c2.1-7,3.6-11.8,4.3-14.4c0.7-2.6,1-4.1,1-4.5c-0.4-2.4-6.4-8.7-17.8-19.1c-0.5-0.4-1.1-0.9-1.8-1.6
		C185.7,346.5,183.3,347,180.8,347.5z M193.7,384.3C193.6,384.3,193.6,384.3,193.7,384.3C193.6,384.3,193.6,384.3,193.7,384.3
		C193.6,384.3,193.6,384.3,193.7,384.3z"/>
	<path d="M193.6,384.3C193.6,384.3,193.6,384.3,193.6,384.3C193.6,384.3,193.6,384.3,193.6,384.3
		C193.6,384.3,193.6,384.3,193.6,384.3z"/>
	<path fill="#71631F" d="M197.8,395.8c0,0.4,0.1,0.8,0.1,1.1c0.1,0.3,0.1,0.7,0.2,1c-0.1,0-0.2,0-0.3,0c-2.8,0.5-4.5,1.3-5,2.2
		c0.2,0.3,0.4,0.5,0.5,0.6c0.2,0.2,0.5,0.2,1.1,0.1c1.8-0.3,3.1-0.7,3.8-1c0.2-0.1,0.4-0.2,0.6-0.3c0.4,0.8,0.8,1.5,1.4,2.1
		c-0.3,0.2-0.8,0.5-1.4,0.9c-1.3,0.8-2.1,1.5-2.3,1.9c0.2,0.3,0.4,0.5,0.5,0.6c0.2,0.2,0.5,0.2,1.1,0.1c0.6-0.1,1.5-0.6,2.6-1.5
		c0.4-0.3,0.7-0.6,0.9-0.8c0.5,0.3,1.1,0.5,1.7,0.7c0.2,0.1,0.3,0.1,0.5,0.1c-0.2,0.1-0.3,0.3-0.5,0.4c-1.3,1-2.2,2-2.7,2.9
		c0.5,0.6,0.9,0.8,1.1,0.8c0.6-0.1,1.7-0.8,3.2-2.2c0.7-0.6,1.2-1.1,1.6-1.5c1.6,0.1,3.5,0,5.8-0.2c4.4-0.4,7.4-0.4,8.9,0
		c2.8,0.7,4.5,2.5,5.1,5.5c0,0.2,0.1,0.3,0.1,0.5c-1.6,1.2-3.9,2-6.6,2.5c-13.4,2.5-23.8-0.2-31.1-8.1c-1.9-2.1-3.6-4.4-4.9-7
		c1-1.7,2.3-3.2,3.9-4.3C190.3,394.7,193.8,395.7,197.8,395.8z"/>
	<path fill="#965919" d="M219.8,413.7c2.4-0.4,4.3-0.9,5.7-1.5c-1.7,1.3-4,2.3-7.1,2.8c-13.4,2.5-23.8-0.2-31.1-8.1
		c-2-2.2-3.7-4.6-5.1-7.4c0.1-0.3,0.2-0.5,0.3-0.8c1.3,2.5,2.9,4.7,4.7,6.6C195,413.6,205.8,416.3,219.8,413.7z"/>
	<path fill="#086A73" d="M111,297.8c1.3-1.5,3-2.4,5-2.8c0.3-0.1,0.6-0.1,0.9-0.1c1,1.6,2.1,3.3,3.2,4.9l0,0c0,0-0.1,0.1-0.1,0.2
		c-3.1,0.6-5.7,1.9-7.9,3.9c-0.2-0.3-0.4-0.7-0.6-1c-0.6-1.1-1.2-2.2-1.8-3.3C110.1,298.9,110.6,298.3,111,297.8z"/>
	<path fill="#FCD4A4" d="M130.2,314.4c0.5,2.7,0.4,4.8-0.1,6.4c-1.2,3.4-4.6,5.7-10.1,6.7c-4.3,0.8-7.5,0.2-9.6-1.8
		c-1.2-1.1-2-2.5-2.3-4.1c-0.5-2.8,1.2-4.7,5.2-5.6c0.3,0.4,0.6,0.7,0.9,1.1c1,1.1,1.5,1.7,1.5,1.7c0.5,0.6,0.8,1.2,0.9,1.7
		c0.1,0.6-0.1,1.3-0.6,1.9c-0.5,0.7-0.8,1.1-0.7,1.3c0.1,0.3,0.1,0.4,0.1,0.4c0.1,0,0.1,0,0.1,0c0,0.1,0.1,0.1,0.2,0.2
		c0.1,0.1,0.3,0,0.6,0c1-0.2,1.6-0.9,1.9-2.1c0-1.2,0-1.8,0-1.8c-0.2-1.1-1.1-2.5-2.6-4.3c-1.5-1.8-2.4-3.3-2.6-4.6
		c-0.2-1-0.2-1.8,0-2.5c0.1-0.3,0.3-0.8,0.7-1.5c0.5-0.8,0.7-1.9,0.7-3.2c1.5-1,3.3-1.8,5.3-2.3c1.4,0.8,2.5,1.5,3.3,2.1
		C127,306.7,129.4,310.1,130.2,314.4z"/>
	<path fill="#71631F" d="M144.4,416.4c0.2,0.6,0.4,1.2,0.8,1.7c-0.8,0.3-1.5,0.7-2.2,1.3c-0.9,0.8-1.5,1.5-1.5,2
		c0,0.1,0.1,0.3,0.2,0.5c0.1,0.2,0.4,0.2,0.7,0.2c0.6-0.1,1.5-0.6,2.7-1.5c0.5-0.4,1-0.8,1.3-1c0.4,0.4,0.9,0.8,1.5,1.1
		c-0.2,0.3-0.5,0.7-0.8,1.2c-1,1.5-1.5,2.5-1.4,3.1c0,0.2,0.3,0.3,0.8,0.2c0.7-0.1,1.4-0.9,2.2-2.4l0.6-1.5c0.6,0.2,1.4,0.4,2.3,0.5
		c-0.2,0.3-0.5,0.8-0.7,1.3c-0.7,1.4-1.1,2.4-1.1,3c0,0.2,0.1,0.3,0.2,0.4c0.1,0.1,0.4,0.2,0.7,0.1c0.7-0.1,1.4-0.9,2.1-2.3
		c0.4-0.8,0.7-1.6,0.8-2.3c1.3,0.1,2.9,0.1,4.6,0.1c4.3,0,7.3,0.2,8.8,0.6c2.8,0.8,4.5,2.5,5,5.2c0,0.2,0,0.5,0,0.9
		c-1,1.5-2.7,2.4-4.9,2.8c-6.2,1.2-13.1,0.5-20.9-2.1c-2.9-0.9-5.6-2.1-8.2-3.4c-2.2-1.1-3.8-2.1-4.8-2.9c-1.1-0.9-2.2-1.8-3.1-2.6
		c0.2-1.5,0.8-3,1.8-4.3c0.8-1.2,2.1-2.6,3.7-4.1C138.3,414.5,141.2,415.8,144.4,416.4z"/>
	<path fill="#965919" d="M141.2,429.7c4.7,1.8,9.7,3.1,14.9,3.7c4.5,0.6,8.2,0.6,11,0.1c1.6-0.3,3.1-0.8,4.2-1.6
		c-0.2,0.6-0.4,1.3-0.7,1.9c-1,0.8-2.2,1.2-3.6,1.5c-6.2,1.2-13.1,0.5-20.9-2.1c-2.9-0.9-5.6-2.1-8.2-3.4c-2.2-1.1-3.8-2.1-4.8-2.9
		c-1.1-0.9-2.1-1.8-3.1-2.6c-0.1-0.3-0.1-0.6-0.1-0.9C133.1,425.9,136.8,428,141.2,429.7z"/>
	<path fill="#F18B00" d="M91.6,276.3c-0.2,1.5-1.8,10.7-1.2,19.6c0,0.2,0,0.3,0,0.5c-0.1,3.7,0,7.4,0.5,11.1
		c0.5,3.8,1.2,7.6,2.1,11.3c0.8,3,2.1,5.8,3.9,8.2c0.5,0.6,1.1,1.2,1.7,1.7c3.3,2.2,6.7,4.1,10.3,5.8c3.6,1.7,6.8,3.8,9.8,6.4
		c2.7,2.4,5.2,5.1,7.4,8c0.7,0.9,1.4,1.8,2.2,2.6c2.8,2.9,5.5,5.9,8.1,8.9c2.6,3,5.3,5.9,8,8.8c2.7,2.9,4.3,5.5,5,7.8
		c0.7,2.4,0.9,3.8,0.9,4.6c-0.2,2.6-1.3,5.6-3.2,8.8c-1.9,3.2-4.1,6.5-6.4,9.9c-2.1,3-4.3,5.9-6.5,8.5c3.3,3.5,7,5.5,11.3,6
		c0.5-1.1,1-2.2,1.6-3.4c2.8-5.8,5.9-11.4,9.3-16.6c0.4-0.6,1.2-1.7,2.5-3.4c1.5-1.9,2.6-3.3,3.3-4.3c2.7-3.8,3.8-6.7,3.5-8.6
		c-0.4-2.3-4.8-9.1-13-20.5c-4.1-5.6-6.9-9.5-8.5-11.6c-2.6-3.6-3.9-5.5-4-5.9c-0.1-0.4-0.1-0.7-0.1-0.9c0.1-0.2,0.3-0.3,0.6-0.4
		c0,0,1.4,1.7,4,5.1c0.2,0.3,0.4,0.5,0.6,0.8c11,2.7,22.7,2.7,35.2,0.6c31.9-5.3,38.2-17,38.5-17.3c-2.3,0.5-4.7,0.9-7,1.2
		c-1.2,0.2-2.4,0.2-3.6,0c-0.5-0.1-0.7-0.4-0.7-0.9l3.7-0.7c1.3-0.2,2.7-0.4,4.1-0.6c1.5-0.3,3.6-0.8,6.3-1.5
		c2.7-0.7,4.7-1.5,6.1-2.5c1.4-0.9,2.2-1.7,2.5-2.3l0-0.1c-3,1.2-6.1,2.2-9.4,2.9c-8.2,1.8-16.4,2.2-24.8,1.5
		c-8.3-0.8-16.5-2.4-24.5-4.7c-8.1-2.3-16.1-5-23.9-8c-7.9-3.1-15.4-6.7-22.7-11c-0.7-0.4-1.4-0.8-2.1-1.2l-0.1,0.2
		c-0.2,0-0.3,0-0.5,0c0.1,0.2,0.3,0.4,0.4,0.6l-0.1,0.2c2,1.3,3.4,2.3,4.3,3.2c1.5,1.4,2.6,2.8,3.2,4c0.4,0.9,0.8,1.9,1.1,3.2
		c4.2,11.5-5.8,16.4-11,17.3c-4.8,0.9-8.4,0.2-10.8-2c-1.5-1.4-2.5-3.2-2.9-5.5c-0.2-1.3-0.1-2.4,0.3-3.4c0.8-1.9,2.7-3.2,5.5-3.9
		c-0.3-0.5-0.5-1.1-0.7-1.6c1.1-9.4-8.6-21.7-9.7-23.5c-0.9-1.6-1.9-3.2-2.9-4.8c-1.1-1.7-2.2-3.4-3.3-5.2c-1.3-1.4-2.7-2.7-4-4.1
		C91.7,275.6,91.7,275.9,91.6,276.3z"/>
</g>
<g id="ziutek_x5F_04">
</g>
<g id="ziutek_x5F_05">
</g>
<g id="ziutek_x5F_06">
</g>
<g id="ziutek_x5F_07">
</g>
<g id="ziutek_x5F_08">
</g>
<g id="ziutek_x5F_09">
</g>
<g id="ziutek_x5F_10">
</g>
<g id="lady_x5F_01">
</g>
<g id="Layer_13">
</g>
<g id="Layer_12">
</g>
<g id="Layer_14">
</g>
<g id="Layer_15">
</g>
<g id="Layer_16">
</g>
<g id="Layer_17">
</g>
<g id="Layer_18">
</g>
<g id="Layer_19">
</g>
<g id="Layer_20">
</g>
<g id="Layer_21">
</g>
<g id="Layer_22">
</g>
<g id="Layer_23">
</g>
<g id="Layer_24">
</g>
<g id="Layer_25">
</g>
<g id="Layer_26">
</g>
<g id="Layer_27">
</g>
<g id="Layer_28">
</g>
<g id="Layer_29">
</g>
<g id="Layer_30">
</g>
<g id="Layer_31">
</g>
<g id="Layer_32">
</g>
<g id="Layer_33">
</g>
<g id="Layer_34">
</g>
<g id="Layer_36">
</g>
<g id="Layer_35">
</g>
<g id="Layer_37">
</g>
<g id="Layer_38">
</g>
<g id="Layer_39">
</g>
<g id="Layer_40">
</g>
</svg>
