<?xml version="1.0" encoding="utf-8"?>
<!-- Generator: Adobe Illustrator 18.1.1, SVG Export Plug-In . SVG Version: 6.00 Build 0)  -->
<!DOCTYPE svg PUBLIC "-//W3C//DTD SVG 1.1//EN" "http://www.w3.org/Graphics/SVG/1.1/DTD/svg11.dtd">
<svg version="1.1" xmlns="http://www.w3.org/2000/svg" xmlns:xlink="http://www.w3.org/1999/xlink" x="0px" y="0px"
	 viewBox="0 0 393 483" enable-background="new 0 0 393 483" xml:space="preserve">
<g id="ziutek_x5F_01">
</g>
<g id="ziutek_x5F_02">
</g>
<g id="ziutek_x5F_03">
</g>
<g id="ziutek_x5F_04">
</g>
<g id="ziutek_x5F_05">
</g>
<g id="ziutek_x5F_06">
</g>
<g id="ziutek_x5F_07">
</g>
<g id="ziutek_x5F_08">
</g>
<g id="ziutek_x5F_09">
</g>
<g id="ziutek_x5F_10">
</g>
<g id="lady_x5F_01">
</g>
<g id="Layer_13">
</g>
<g id="Layer_12">
</g>
<g id="Layer_14">
</g>
<g id="Layer_15">
</g>
<g id="Layer_16">
</g>
<g id="Layer_17">
</g>
<g id="Layer_18">
</g>
<g id="Layer_19">
</g>
<g id="Layer_20">
</g>
<g id="Layer_21">
</g>
<g id="Layer_22">
</g>
<g id="Layer_23">
</g>
<g id="Layer_24">
</g>
<g id="Layer_25">
</g>
<g id="Layer_26">
	<g>
		<path fill="#E65D5D" d="M153.1,221.9c0,0-25.1-13.5-31.4-36c-6.3-22.5,3.5-34,16.8-37.1c9.9-2.3,21.9,8.4,25.6,13.2
			c3.7,4.8,10.3-2.7,19.4-2.9c13.9-0.4,25.4,11.9,17.7,32c-6.8,17.7-15.8,21.6-31.6,27.8C158.4,223.2,153.1,221.9,153.1,221.9z"/>
		<path fill="#F26A6A" d="M163.8,172.4c-0.7-4.1-3.4-8.6-7.2-10.5c-5.5-2.7-11.5-1-16.6,1.9c-21.1,11.8-5.4,41.8,12,48.2
			c0.1,0.2,0.2,0.4,0.3,0.5c1,1.6,2.6,0.4,1.7-1.1c-4.5-7.3,3.2-16.6,6.7-22.8C163.6,183.6,164.8,178.2,163.8,172.4z"/>
		<path fill="#FF7676" d="M119.7,196.7c0,0-27.3-3.4-40.8-21.5c-13.5-18.1-8.8-31.9,2.2-39.3c8.1-5.5,22.6-0.1,27.7,3
			c5,3.1,8.3-6,16.5-9.4c12.4-5.2,27.1,1.8,27.1,22.6c0,18.3-6.7,25-18.8,36.1C125,196,119.7,196.7,119.7,196.7z"/>
		<g>
			<path fill="#E57F23" d="M313.7,312c-9.9-3.5-7.1,18.8-27,19c-19.4,0.2-19.8-14.5-18-19.5l-5.9,12c0.9,8.2,10.2,16.7,20.9,20.5
				C310.2,353.3,333.7,319,313.7,312z"/>
			<g>
				<path fill="#1D1D1D" d="M261.7,323.9c1.5,9.5,10.2,15.9,18.4,19.8c7.4,3.5,15.7,3.6,23.3,0.8c9.8-3.6,23.4-16.4,17.6-28
					c-1.7-3.4-7.3-6.9-11.2-5.2c-4.2,1.8-6,7.5-8.3,11c-5.6,8.4-17.1,10.3-25.8,5.5c-5.5-3-7.8-10.3-5.9-16.1
					c0.4-1.2-1.8-1.3-2.1-0.3c-3.2,9.8,3.5,18.1,13,20c6.4,1.3,13.3,0.2,18.5-3.8c4.1-3.2,6-8.2,8.8-12.4c3.8-5.7,10.7-0.3,11.9,4.8
					c1.6,6.6-3.8,13.6-8.3,17.7c-6.5,5.8-15.3,8.2-23.8,6.6c-10.1-1.8-22.1-10.3-23.9-21C263.7,322.2,261.5,322.8,261.7,323.9
					L261.7,323.9z"/>
			</g>
		</g>
		<g>
			<path fill="#FFB24D" d="M179.6,332.1c-17.9-10-15.3-46.9-15.4-74.1c0-18.3,0.2-42.8,3.7-57.4c3.1-12.8,13.3-17,24.4-19.9
				c9.8-2.5,40.5-3.9,48.4-2.6c17.6,2.8,29.1,10.5,34.2,38.2c1.8,9.7,2.6,22.9,3.9,35.9c2.5,25.5,4.8,53.3-2.1,66.6
				c-5,9.8-9.3,17.1-20.1,19.4c-8.1,2.4-21.7,5-30.3,4.1C211,341.1,196,341.3,179.6,332.1z"/>
			<g>
				<path fill="#1D1D1D" d="M180.4,331.5c-8.8-5.2-11.7-15.6-13.4-25c-2.1-11.9-1.9-24.2-1.8-36.2c0.1-12.5,0-25.1,0.4-37.6
					c0.4-11.9,0.2-26.3,5.3-37.3c4.7-10.3,17.8-13.6,28-15c9.8-1.4,19.9-1.8,29.8-1.9c8.3-0.1,16.2,0.5,23.9,3.8
					c9.2,3.9,14.6,12.2,17.9,21.2c6.4,17.5,6.2,37.7,8,56c1.7,17.7,4.5,37.9-1.1,55.2c-2.3,7.1-6.9,14.9-12.9,19.4
					c-6.8,5.1-18.5,6.2-26.6,7.1c-8.9,1.1-18.1-0.1-27-0.9C200.2,339.3,189.9,336.6,180.4,331.5c-0.8-0.4-2.7,0.7-1.7,1.2
					c11.8,6.4,24.4,8.7,37.7,9.6c12.2,0.9,23.3,0.7,35.3-2.1c10.2-2.4,17.1-6,22.7-15.1c5.8-9.6,7.6-19.4,8-30.5
					c0.5-13.7-1-27.5-2.3-41.1c-1.4-14.1-2-28.5-5.1-42.4c-2-8.9-5.5-18.4-12.4-24.7c-5.8-5.3-13-7.7-20.5-9.1
					c-7-1.3-14.5-0.7-21.6-0.4c-8.5,0.3-17.1,0.8-25.4,2.3c-7.5,1.4-16.2,4-21.7,9.5c-7,7-7.9,17.2-8.9,26.6
					c-2.3,22.9-1.9,46.4-1.4,69.3c0.3,15.5,0.4,38.9,15.7,47.9C179.6,333.2,181.5,332.1,180.4,331.5z"/>
			</g>
		</g>
		<circle fill="#FD984C" cx="252.1" cy="235.1" r="7.9"/>
		<circle fill="#FD984C" cx="185.9" cy="235.6" r="7.4"/>
		<path fill="#F9A138" d="M268,282.9c-2.8,10.8-8,20.8-18.8,30.2c-10.9,9.5-20.4,16.6-34.6,15.8c-7.1-0.4-21.3-4-41.3-20
			c-3.3-2.6-7.8,0.9-1.3,10c2,2.8,7.3,9.3,14.7,13.3c15.6,8.5,48.4,7.2,56.7,5.3c16.3-3.7,22.2-7.9,26.6-17.1
			c4.7-10.1,5.2-21.9,6.3-32.8C277.7,270.9,270.8,272,268,282.9z"/>
		<path fill="#E57F23" d="M280.6,283.9c-3.4,10.6-12.4,12.3-11.4,15.3c0.7,2,9,2.3,10.2-2.5L280.6,283.9z"/>
		<path fill="#E57F23" d="M275.9,233.3c-1.6,11-10.3,14.2-8.8,17c1,1.9,9.3,0.8,9.6-4.1L275.9,233.3z"/>
		<path fill="#E57F23" d="M277.2,311.9c-9.3,9.3-12,4.5-12,7.7c0,1,6.5,4.7,8.3,1.9C277.3,315.7,277.2,311.9,277.2,311.9z"/>
		<path fill="#E57F23" d="M165.2,283.9c3.4,10.6,12.4,12.3,11.4,15.3c-0.7,2-9,2.3-10.2-2.5L165.2,283.9z"/>
		<path fill="#E57F23" d="M165.7,233.9c2.4,10.9,11.2,13.4,10,16.3c-0.8,1.9-9.2,1.5-9.9-3.4L165.7,233.9z"/>
		<path fill="#E57F23" d="M168.6,311.9c9.3,9.3,12,4.5,12,7.7c0,1-6.5,4.7-8.3,1.9C168.5,315.7,168.6,311.9,168.6,311.9z"/>
		<g>
			<path fill="#FFB24D" d="M262.9,335.3l-20.8,5.9c1.1,5.2,2.4,29.6,15.4,27.4C266.9,366.9,269.2,361.2,262.9,335.3z"/>
			<g>
				<path fill="#1D1D1D" d="M241,341.4c1.8,9.3,2.7,30.3,17,27.6c15.4-2.9,8.4-24,6-34c-0.2-0.8-2.4-0.2-2.2,0.6
					c2,8.5,9.7,31.9-5.7,32.5c-10.9,0.4-11.6-20-13-27.2C243,340.1,240.9,340.6,241,341.4L241,341.4z"/>
			</g>
		</g>
		<g>
			<path fill="#FFB24D" d="M261.8,160.5c0,0-14.8,4.2-22.3,17.1l26.9,15.5C266.8,181.1,268.8,171.4,261.8,160.5z"/>
			<g>
				<path fill="#1D1D1D" d="M240.6,177.7c4.7-7.7,12.2-13.3,20.7-16.3c1-0.3,1.4,2.8,2,4c1.3,2.8,2,5.9,2.4,9
					c0.8,6.2,0,12.6-0.3,18.8c0,1,2.2,0.6,2.2-0.2c0.4-11.7,1.6-22.5-4.7-32.9c-0.2-0.3-0.9-0.3-1.2-0.2c-9.4,2.7-18,9.3-23.1,17.7
					C237.9,178.5,240.1,178.4,240.6,177.7L240.6,177.7z"/>
			</g>
		</g>
		<path fill="#E57F23" d="M205.2,180.5c-4.6,4.3-3,10.9,5.5,12c24.1,3.1,21.8-3.8,21.5-12.7C227.3,178,205.2,180.5,205.2,180.5z"/>
		<path fill="#FFF3E3" d="M248.4,182.6c2.4-14.4,11.7-19.2,11.7-19.2c5.3,6.7,4.8,19.8,3.1,27.7L248.4,182.6z"/>
		<g>
			<path fill="#1D1D1D" d="M248.3,182c2.9-7.9,7.9-14.4,12.7-21.2c0.2-0.3-0.5-0.2-0.7,0c-4.8,6.8-9.9,13.4-12.7,21.3
				C247.4,182.4,248.2,182.3,248.3,182L248.3,182z"/>
		</g>
		<g>
			<path fill="#1D1D1D" d="M204.8,180.2c-1,2.6-2.2,6.2-0.6,8.9c2.6,4.4,8.5,4.6,13,4.7c4.1,0,10.2-0.2,13.6-3.2
				c3.1-2.7,2.8-6.5,2-10.2c-0.1-0.3-0.7-0.1-0.7,0.2c0.7,2.8,1.1,5.6-0.4,8.2c-2.8,5.1-12.5,4.7-17.3,4.4c-8.3-0.4-11.9-5.4-8.9-13
				C205.6,179.9,204.9,180,204.8,180.2L204.8,180.2z"/>
		</g>
		<g>
			<path fill="#FFB24D" d="M177.6,330.2c-6.4,29.3-4,35.8,5.8,36.9c7.1,0.8,12.4-4.4,16.9-28.5L177.6,330.2z"/>
			<g>
				<path fill="#1D1D1D" d="M176.5,330.4c-2,9.2-4.7,19.3-3.3,28.8c0.7,4.5,3.4,7.2,7.7,8.2c15.4,3.5,18.5-18.7,20.4-28.9
					c0.1-0.7-2-0.4-2.2,0.3c-1.7,9-4.6,32.3-18.8,27c-3.9-1.5-4.9-5.7-5.2-9.4c-0.7-8.7,1.7-17.8,3.5-26.2
					C178.8,329.4,176.7,329.7,176.5,330.4L176.5,330.4z"/>
			</g>
		</g>
		<g>
			<path fill="#EDE1CF" d="M201.9,329.9c-8-4.5-10.2-27.5-6.9-34.4c4.9-12.4,21.5-14.3,32.9-13c16.9,2.5,20.7,11.1,19.7,26.6
				c-0.2,6,0.5,17-3.6,20.9C237.7,335.9,210.7,334.9,201.9,329.9z"/>
			<path fill="#FFF3E3" d="M238.4,292.2c-7.3-9.4-19.7-11.6-29.5-4.9c-9.3,6.4-14.2,20.2-7.3,32.1c4.3,7.3,14.8,12.8,26.8,7.5
				C245.3,319.4,245.9,301.9,238.4,292.2z"/>
			<g>
				<path fill="#1D1D1D" d="M198.3,326.1c-5.6-14.1-6.4-32.7,8.4-41.3c6.4-3.7,15.2-4.2,22.4-3.1c7.9,1.2,13.1,6.3,15.3,13.8
					c1.9,6.1,2.3,12.8,2.4,19.1c0.1,5.8,0,12.1-5.2,15.7c-10.1,7.1-28.6,6.2-38.9,0.2c-0.3-0.2-0.9,0.2-0.6,0.4
					c11,6.3,28,6.3,39.1,0.2c5-2.8,5.8-7.4,6.2-12.7c0.6-8.2-0.3-17.2-2.9-25c-4.9-14.4-23.7-14.6-35.7-10
					c-17.5,6.7-17.1,28.4-11.3,43C197.7,326.7,198.4,326.4,198.3,326.1L198.3,326.1z"/>
			</g>
			<path fill="#1D1D1D" d="M221.5,302.6c-1.9-0.8-2.5,2.9-0.8,3.6c2,0.7,2.6-2.4,1.1-3.4C221.7,302.7,221.6,302.7,221.5,302.6z"/>
		</g>
		<g>
			<path fill="#EDE1CF" d="M222.7,245.2c-0.1-1.8-0.4-4.2-2.2-5.2c0,0,0,0,0,0c-0.1-0.2-0.3-0.4-0.5-0.5c-1.7-1-3.3-0.8-4.2,0.6
				c-0.3,0.1-0.5,0.3-0.7,0.6c-2.2,4.3-3.7,12.9,1.9,15.2c2.5,1,4.3-1.6,5.1-3.5C223,250.3,222.9,247.5,222.7,245.2z"/>
			<path fill="#FFF3E3" d="M230.5,236c-2.1-2.6-6.4-4-9.4-2.5c-1.5,0.7-3.6,3-2.8,4.8c0-0.1,0-0.1-0.1-0.2c-1.7-3.7-5.5-6.2-9.6-4
				c-2.7,1.5-3.6,4.4-3.1,7.3c1,5.2,7.4,5.5,10.4,2.2c0.9-1,1.7-2.9,1.9-4.1c0.1,0.2,1.1,1.9,1.1,2.2c0.3,2.4,1.4,4.7,7,4.3
				c1.5-0.1,4.1-2.2,4.9-3.6C232.1,240.2,231.9,237.7,230.5,236z"/>
			<path fill="#DB6E6E" d="M215.3,245.1c0,0-1,9.2,2.3,9.5c3.3,0.3,3.5-9,3.5-9s-1.2-0.6-1.8-1.7c-0.7-1-0.8-2.5-1.3-3.3
				c-0.5-0.8-0.7,1.2-1.2,2.3C216.2,244.3,215.3,245.1,215.3,245.1z"/>
			<g>
				<path fill="#1D1D1D" d="M205,241.6c0.1,4.2,5.1,5.1,8.4,4.2c4.2-1.1,4.9-4.2,4.9-8c0-0.6-1.4-0.3-1.5,0.2c0,2.3,0.1,4.8-1.9,6.2
					c-2.9,2.1-8.4,1.2-8.5-3C206.5,240.7,205,241,205,241.6L205,241.6z"/>
			</g>
			<g>
				<path fill="#1D1D1D" d="M217.5,238.3c0,4.4,1.1,7.8,5.8,8.7c3.7,0.7,6.8-1.8,7.3-5.4c0.1-0.7-1.4-0.5-1.5,0.1
					c-0.5,3.3-2.9,5-6.2,4.1c-3.6-0.9-4-4.4-4-7.6C219,237.4,217.5,237.7,217.5,238.3L217.5,238.3z"/>
			</g>
			<g>
				<path fill="#FF99C3" d="M217.7,238.1c1-0.1,6.2-4.1,5.1-4.8c-1-0.6-8.3-0.6-8.8,0.3C213.2,234.8,217.2,238.2,217.7,238.1z"/>
				<g>
					<path fill="#1D1D1D" d="M217.8,238.5c2-0.4,4.5-2.7,5.6-4.3c1.3-1.9-3.4-1.7-4.2-1.7c-1.5,0-5.4-0.4-6.1,1.4
						c-0.5,1.4,2.9,4.5,4.1,4.7c0.5,0.1,1.7-0.7,0.9-0.8c-1.2-0.2-2.7-2.2-3.3-3.1c-0.6-1-0.2-1,0.7-1.1c1-0.1,2-0.1,3-0.1
						c0.9,0,1.8,0.1,2.7,0.2c1,0.1,1,0.4,0.3,1.1c-0.9,1.1-2.7,2.8-4.1,3.1C216.7,237.9,216.9,238.7,217.8,238.5z"/>
				</g>
			</g>
		</g>
		<g>
			<path fill="#1D1D1D" d="M275.2,234.5c-0.8,3.7-2.8,7.1-5.2,10c-1.6,2-3.8,3.2-4.3,5.8c0,0,0,0.1,0.1,0.1c4,1.3,8.7,1.4,11.3-2.4
				c0.1-0.2-0.5-0.1-0.6,0c-2.2,3.1-6.1,3.2-9.4,2.3c-2-0.5,2.5-4.7,3.1-5.3c2.7-2.7,5-6.9,5.7-10.6
				C275.9,234.2,275.2,234.3,275.2,234.5L275.2,234.5z"/>
		</g>
		<g>
			<path fill="#1D1D1D" d="M279.7,285.5c-2.3,5.5-6.6,9.5-11.4,12.7c-0.1,0.1-0.1,0.1,0,0.2c4,1.8,8.5,1.9,12-0.9
				c0.3-0.2-0.4-0.2-0.5-0.1c-3.1,2.4-6.7,2.3-10.2,1c-0.9-0.4,1.3-1.6,1.5-1.7c0.8-0.6,1.5-1.2,2.3-1.8c3-2.6,5.5-5.7,7-9.4
				C280.4,285.3,279.8,285.3,279.7,285.5L279.7,285.5z"/>
		</g>
		<g>
			<path fill="#1D1D1D" d="M277,312c-3.3,3.7-7.5,6.9-12.7,6.3c-0.1,0-0.7,0.1-0.5,0.3c2.3,2.8,5.2,5,9,4.5c0.3,0,0.6-0.3,0.1-0.2
				c-3.1,0.4-5.5-1.3-7.5-3.3c-0.8-0.8-1-0.7,0.2-0.8c0.9-0.1,1.7-0.1,2.6-0.4c3.8-1.1,6.9-3.5,9.5-6.4
				C277.7,311.8,277.1,311.9,277,312L277,312z"/>
		</g>
		<g>
			<path fill="#1D1D1D" d="M168.4,312.3c2,1.9,4.1,3.5,6.5,4.9c1.3,0.8,2.7,1.4,4.1,2c0.9,0.4,1.3,0.7,0.3,1.3
				c-2,1.2-4.3,2.1-6.8,1.6c-0.2,0-0.7,0.2-0.6,0.3c3.3,0.6,6.3-0.9,9-2.6c0,0,0.1-0.1,0.1-0.1c-4.4-1.9-8.5-4.1-12-7.5
				C169,312,168.4,312.2,168.4,312.3L168.4,312.3z"/>
		</g>
		<g>
			<path fill="#1D1D1D" d="M165.4,285.1c1.7,4.4,4.5,7.8,7.9,11.1c0.8,0.7,1.5,1.5,2.3,2.2c0.7,0.7,1.6,0.7,0.5,1.2
				c-2.9,1.3-6.2,0.2-8.8-1.2c-0.2-0.1-0.8,0.2-0.5,0.3c3,1.6,7.4,2.8,10.5,0.7c0.1,0,0.2-0.1,0.1-0.2c-4.5-4.2-9-8.3-11.2-14.2
				C166,284.6,165.3,284.9,165.4,285.1L165.4,285.1z"/>
		</g>
		<g>
			<path fill="#1D1D1D" d="M165.7,234.8c1.7,3.7,3.9,7.2,6.4,10.4c1.2,1.5,2.5,2.8,4,4c1.1,0.9-3.6,1.5-3.6,1.5
				c-1.8,0.2-3.6-0.3-5.3-0.9c-0.3-0.1-0.8,0.3-0.4,0.5c3.5,1.3,7.1,1.4,10.3-0.5c0.1-0.1,0.3-0.3,0.1-0.4
				c-4.9-3.7-8.4-9.2-10.9-14.6C166.2,234.3,165.5,234.5,165.7,234.8L165.7,234.8z"/>
		</g>
		<g>
			<path fill="#545454" d="M241.2,241.2c20.1-5.2,41.9-6.9,62-1.1c0.6,0.2,1.7-0.7,0.8-0.9c-20.5-5.9-42.7-4.2-63.1,1.1
				C240,240.5,240.3,241.4,241.2,241.2L241.2,241.2z"/>
		</g>
		<g>
			<path fill="#545454" d="M239.9,248.1c6.7-3.3,16.4-3.1,23.7-3.2c16.1-0.2,32,3.1,47,8.7c0.5,0.2,1.7-0.6,0.9-0.9
				c-15.5-5.9-32.1-9.2-48.8-8.8c-7.2,0.2-16.6,0.1-23.3,3.4C238.4,247.8,239.2,248.4,239.9,248.1L239.9,248.1z"/>
		</g>
		<g>
			<path fill="#1D1D1D" d="M184.1,192.4c1.6-2,4.1-3.3,6.7-2.7c0.5,0.1,2.4-0.7,1.8-0.8c-3.8-0.8-8.2,1-10.6,3.9
				C181.8,193,183.7,192.9,184.1,192.4L184.1,192.4z"/>
		</g>
		<g>
			<path fill="#1D1D1D" d="M241.9,188.1c2.5,0.1,4.7,1.4,6.9,2.5c0.8,0.4,2.7-0.7,1.7-1.3c-2.5-1.3-4.9-2.7-7.8-2.8
				c-0.5,0-1.2,0.1-1.4,0.7C241.1,187.6,241.5,188.1,241.9,188.1L241.9,188.1z"/>
		</g>
		<g>
			<g>
				<path fill="#FFFFFF" d="M176.6,225.4c12.1,21.9,39.8,8.1,34.7-13.6c-5.1-22.4-37.7-16.6-36.5,6.4
					C174.9,220,175.7,223.7,176.6,225.4z"/>
				<g>
					<path fill="#1D1D1D" d="M175.7,225.8c5.8,10,16.8,14.6,27.3,8.6c10.2-5.8,12.3-19.2,6.9-29c-4.7-8.5-15.5-10.1-23.9-6.9
						c-10.6,4.1-15,17-10.4,27.1c0.4,0.9,2.3,0.3,1.9-0.5c-4.1-9.1-1.1-19.8,7.7-24.6c7.6-4.2,17.3-2.1,22.3,5
						c5.9,8.4,3.7,20.6-4.1,26.8c-9.4,7.5-20.7,1.9-26-7.3C177.1,224.2,175.2,224.9,175.7,225.8z"/>
				</g>
			</g>
			<g>
				<circle fill="#1D1D1D" cx="193.6" cy="214.7" r="12.2"/>
				<circle fill="#FFFFFF" cx="196.1" cy="214.4" r="4.5"/>
				<circle fill="#FFFFFF" cx="190.6" cy="207.4" r="2.6"/>
			</g>
		</g>
		<g>
			<g>
				<path fill="#FFFFFF" d="M227.1,225.4c12.1,21.9,39.8,8.1,34.7-13.6c-5.1-22.4-37.7-16.6-36.5,6.4
					C225.4,220,226.2,223.7,227.1,225.4z"/>
				<g>
					<path fill="#1D1D1D" d="M226.2,225.8c5.8,10,16.8,14.6,27.3,8.6c10.2-5.8,12.3-19.2,6.9-29c-4.7-8.5-15.5-10.1-23.9-6.9
						c-10.6,4.1-15,17-10.4,27.1c0.4,0.9,2.3,0.3,1.9-0.5c-4.1-9.1-1.1-19.8,7.7-24.6c7.6-4.2,17.3-2.1,22.3,5
						c5.9,8.4,3.7,20.6-4.1,26.8c-9.4,7.5-20.7,1.9-26-7.3C227.6,224.2,225.7,224.9,226.2,225.8z"/>
				</g>
			</g>
			<g>
				<circle fill="#1D1D1D" cx="244.1" cy="214.7" r="12.2"/>
				<circle fill="#FFFFFF" cx="246.6" cy="214.4" r="4.5"/>
				<circle fill="#FFFFFF" cx="241.1" cy="207.4" r="2.6"/>
			</g>
		</g>
		<g>
			<path fill="#FF7676" d="M239.6,305.5c0,0-3.1-1.8-8.4-2.2c-4.7-0.3-11.4,1-16-2.2c-2.2-1.6-5.1-3.9-6.5-6.6
				c-7.5-14.2,5.1-20.4,10.5-18.9c3.6,1,7,4.3,7,4.3s-3.3-10.3,4.8-13.1C242.9,262.8,254.2,280.1,239.6,305.5z"/>
			<path fill="#FF9797" d="M239.2,296c-1.4-6.6,5.4-15.4-2-20.2c-5.5-3.5-8.2,2.5-8.5,7.4c-2-1.8-4.4-2.9-7.3-2.7
				c-2.9,0.2-5.4,2.6-6,5.4c-0.7,3.4,1.9,6.4,4.5,8.2c2.3,1.5,5,2.4,7.7,2.9c3.3,0.6,7-0.1,10.2,0.9c0.4,0.5,0.9,0.6,1.3,0.5
				c0,0,0.1,0,0.1,0C240.7,299.3,240.3,296.6,239.2,296z"/>
		</g>
		<g>
			<g>
				<path fill="#FFB24D" d="M254.1,261.3c-7.7,20.2-25,33.9-14,41.6c13.4,7.9,30.9-27.9,35.3-37.2L254.1,261.3z"/>
				<g>
					<path fill="#1D1D1D" d="M253.1,261.4c-2.6,6.6-6.2,12.7-9.9,18.7c-2.7,4.3-5.6,8.6-7.1,13.5c-2,6.3,3.3,12.2,9.8,10.8
						c7.8-1.7,13.3-9.4,17.6-15.5c5.1-7.3,9.2-15.2,13-23.2c0.4-0.9-1.6-0.7-1.9-0.1c-5.9,12.5-13.1,28.6-25.2,36.2
						c-3.8,2.4-8.1,1.9-10.8-1.8c-2.4-3.3-0.2-8,1.4-11.1c4.7-9.5,11.2-17.8,15.2-27.7C255.4,260.4,253.4,260.7,253.1,261.4
						L253.1,261.4z"/>
				</g>
			</g>
			<g>
				<path fill="#FFB24D" d="M235.6,288.2c-0.1,1.7,2.5,2.5,3.7,1.2l4.3-7.6C241.6,283.3,235.8,285.4,235.6,288.2z"/>
				<path fill="#1D1D1D" d="M243.4,282.6c-1.4,0.9-3,1.6-4.4,2.6c-0.9,0.6-1.8,1.3-2.3,2.2c-0.9,1.4,0.2,2.5,2.1,1.9
					c0.4-0.1,1-0.6,1.2-1c0.2-0.3-0.9,1.8-1.2,2c-0.9,0.3-1.7,0.2-2.5-0.3c-1-0.5-1.6-1.5-1.1-2.7c0.9-2.4,4.1-3.6,6.4-4.9
					c0.4-0.2,1.6-1.1,2-1.3C243.8,280.8,243.6,282.5,243.4,282.6z"/>
			</g>
		</g>
		<g>
			<path fill="#FFB24D" d="M149,271.7c-9,8.6-18.9,17.1-16.6,23.3c6.4,17.3,27.9-5.8,31.5-13.7l0.6-33.2
				C164.7,254.8,156.4,264.6,149,271.7z"/>
			<g>
				<path fill="#1D1D1D" d="M163.4,248.2c-0.1,6.3-4.7,11.8-8.6,16.3c-4.5,5.3-9.8,9.8-14.7,14.6c-5.1,5-14.1,14.8-5.5,21.2
					c10.4,7.8,26.4-10.7,30.3-18.9c0.5-1-1.7-0.9-2-0.1c-3.9,8.1-23,29.1-29.4,13.5c-1.8-4.5,3.3-9.7,6-12.6
					c4-4.4,8.5-8.2,12.7-12.4c5.6-5.5,13.2-13.4,13.4-21.8C165.6,246.9,163.4,247.3,163.4,248.2L163.4,248.2z"/>
			</g>
		</g>
		<g>
			<path fill="#1D1D1D" d="M240.8,304.1c-0.2,1.9-4.8-0.5-5.8-0.8c-1.7-0.4-3.5-0.4-5.3-0.4c-8,0.1-14.8-0.1-19.9-7.2
				c-3.5-4.8-3.4-11.1-0.6-16.1c4.4-7.7,12.9-5.4,17.8,0.1c0.2,0.2,1.1,0.1,0.9-0.3c-1.9-5.8-0.7-12.2,6.3-13
				c6.4-0.7,10.3,4.7,11.3,10.2c0.1,0.3,0.7,0.1,0.7-0.2c-0.4-7.2-7.9-13.1-15-10c-3.1,1.4-4.8,3.7-5.3,7.1c-0.1,1,0,1.9,0.1,2.9
				c0.2,1.8,1.6,2.6-0.1,0.9c-1.6-1.5-3.9-2.9-6.1-3.3c-9.5-1.5-14.9,8.3-13.4,16.7c1.1,5.7,5.8,10.4,11.1,12.2
				c7.5,2.5,15.6-1.5,22.6,3.3c0.1,0.1,0.4,0,0.5-0.1c0.6-1.2,0.4-0.6,0.4-2C241.1,303.9,240.8,303.9,240.8,304.1L240.8,304.1z"/>
		</g>
		<g>
			<path fill="#1D1D1D" d="M140.1,297.5c1.1-8.3-4.9-16.9-9.9-23c-3-3.7-5.8-7.2-6.5-12c-0.9-6.2,1.9-12.9,4.5-18.3
				c4.5-9.6,9.3-19.4,15.3-28.2c5.3-7.8,10.1-15.3,8.9-25.1c0-0.2-0.7,0-0.7,0.2c0.5,10.6-4.2,17.9-9.9,26.3
				c-6,8.8-10.6,18.9-15.1,28.5c-3.6,7.7-6,17.3-0.4,24.7c5.9,7.9,14,16.5,13.5,27.2C139.8,297.7,140.1,297.6,140.1,297.5
				L140.1,297.5z"/>
		</g>
		<g>
			<path fill="#1D1D1D" d="M140.6,297.5c0.4-15.1-4.8-29.2-1-44.3c1.8-6.9,5.3-13.3,9.8-18.8c2.7-3.3,6.2-7.4,5.7-12
				c0-0.2-0.6-0.1-0.6,0.2c0,5.9-5.1,10.5-8.3,14.9c-3.8,5.1-6.2,11.2-7.7,17.3c-3.6,14.1,1,28.5,1.9,42.7
				C140.3,297.7,140.6,297.6,140.6,297.5L140.6,297.5z"/>
		</g>
		<g>
			<path fill="#1D1D1D" d="M140.1,297.5c-0.4-8.1-1.4-15.9-4.3-23.4c-3.5-9.2-9.5-17.4-13.6-26.3c-7.3-16-8.8-32.3-2.8-48.9
				c0.1-0.2-0.5-0.1-0.6,0.1c-6.7,15.1-4.7,31,1.3,46c3.8,9.3,9.6,17.5,13.8,26.6c3.9,8.2,4.9,17.2,5.9,26.1
				C139.8,297.7,140.1,297.6,140.1,297.5L140.1,297.5z"/>
		</g>
		<g>
			<path fill="#FFB24D" d="M141.2,284.2c-2,1.7-5.3,3.8-4.3,6c1.5,3.4,5.3-0.3,7-2.7L141.2,284.2z"/>
			<g>
				<path fill="#1D1D1D" d="M140.6,284.1c-1.8,1.5-7.1,5.1-3.4,7.6c1.1,0.7,2.7,0,3.6-0.6c1.5-0.9,2.7-2.2,3.6-3.6
					c0.4-0.5-1.1-0.4-1.3,0c-0.7,0.9-1.4,1.7-2.2,2.5c-1.2,1-2.5,1.7-3.4,0c-1.1-2.3,2.8-4.6,4.2-5.7
					C142.4,283.8,141,283.8,140.6,284.1L140.6,284.1z"/>
			</g>
		</g>
		<g>
			<path fill="#545454" d="M141,259.9c8.6-4.6,17.4-8.5,27-10.4c8.7-1.8,17.7-1.9,26.5-1.9c0.5,0,1.6-0.7,0.6-0.7
				c-9.5,0-19.1,0.2-28.4,2.2c-9.4,2.1-18.1,5.9-26.6,10.4C139.3,260,140.6,260.1,141,259.9L141,259.9z"/>
		</g>
		<g>
			<path fill="#545454" d="M130.3,246.4c20.9-7.2,41.5-8,63.3-5.8c0.4,0,1.7-0.6,0.9-0.7c-22.4-2.3-43.4-1.3-64.8,6
				C128.8,246.2,129.7,246.6,130.3,246.4L130.3,246.4z"/>
		</g>
		<path fill="#FF9797" d="M150,188.5c0,0-28.7-8.9-39.8-31c-11.1-22-3.3-36,9.9-41.8c9.8-4.4,24.4,4.3,29.2,8.5
			c4.8,4.3,10.1-4.9,19.5-6.9c14.4-3.2,28.8,7.2,24.8,29.6c-3.5,19.7-12,25.6-27.2,35.1C155.7,188.8,150,188.5,150,188.5z"/>
		<g>
			<g>
				<path fill="#FFB24D" d="M174.9,164.6c-3.5,4.8-6.2,21.3-5.6,30.2l27-14.5C189.4,172.8,185.4,170.4,174.9,164.6z"/>
				<g>
					<path fill="#1D1D1D" d="M197.3,179.9c-6.3-6.8-13.5-11.3-21.5-15.8c-0.5-0.3-1.6,0-1.9,0.5c-5.3,8.1-6.2,21-5.7,30.5
						c0,0.7,2.2,0.2,2.2-0.6c-0.4-9.1,0.4-22,5.6-29.8c-0.6,0.2-1.3,0.3-1.9,0.5c8,4.4,15.1,8.9,21.3,15.6
						C195.8,181.3,197.8,180.5,197.3,179.9L197.3,179.9z"/>
				</g>
			</g>
			<path fill="#FFF3E3" d="M183.5,182.3c0.4-14.6-7.7-14.6-7.7-14.6c-4.3,8.4-5,21.3-3,24.6L183.5,182.3z"/>
			<g>
				<path fill="#1D1D1D" d="M175.7,166.9c1.8,2.1,3.6,4.1,5,6.5c0.5,0.9,3.8,7.7,2.6,8.7c-3,2.5-5.8,5.2-8.2,8.2
					c-0.3,0.4,0.4,0.5,0.6,0.2c2-2.5,4.3-4.7,6.7-6.9c0.3-0.3,1.6-1,1.7-1.5c0.7-5.9-4.1-11.6-7.7-15.6
					C176.2,166.3,175.5,166.6,175.7,166.9L175.7,166.9z"/>
			</g>
		</g>
		<g>
			<path fill="#1D1D1D" d="M151.2,188.8c-13.8-7.7-29.4-13.8-39.9-26.1c-11.9-14-9.5-41.8,10.3-47.8c5.7-1.7,12.7,0.4,18.1,2.3
				c4.4,1.5,7.6,4.5,11.6,6.5c6.9,3.3,11.1-0.2,16.6-4.1c5.9-4.2,13-1.7,18.5,1.9c4.9,3.3,7.5,8.2,8.3,13.9
				c1.8,12.1-4.2,25.8-12.3,34.5c-0.4,0.4,0.5,0.6,0.8,0.3c8.2-8.3,12.7-20.2,12.8-31.9c0.1-10.5-6.7-18-16.4-21.1
				c-3.5-1.1-7.1-0.8-10.5,0.7c-5.8,2.7-8.6,8.4-16.1,5.6c-5-1.9-9-5.7-14.2-7.5c-5-1.7-10.7-2.9-16-2.1
				c-18.1,2.7-24.1,28.5-16.8,42.6c8.8,16.9,28.7,24.2,44.6,32.7C150.9,189.4,151.6,189,151.2,188.8L151.2,188.8z"/>
		</g>
		<g>
			<path fill="#1D1D1D" d="M150.6,189.6c6-2,11.7-4.8,17.2-8.1c0.3-0.2-0.4-0.1-0.5-0.1c-5.6,2.8-11,5.9-16.9,8
				C149.9,189.6,150.3,189.7,150.6,189.6L150.6,189.6z"/>
		</g>
		<g>
			<path fill="#1D1D1D" d="M120.6,196.6c6.5-1.5,13.1-7.1,16.8-12.5c0.3-0.4-0.5-0.6-0.7-0.3c-2.2,3.1-4.8,5.6-7.8,7.8
				c-2.6,1.9-5.7,3-8.4,4.8C120.4,196.6,120.5,196.7,120.6,196.6L120.6,196.6z"/>
		</g>
		<g>
			<path fill="#1D1D1D" d="M120.2,196.4c-17.9-0.4-35.9-10.9-44.3-26.8c-3.9-7.3-4.4-16.3-2.6-24.3c2.8-12.3,18.8-17,28.4-9
				c0.3,0.2,1.1-0.1,0.8-0.4c-5.9-4.9-15.7-5.4-22.3-1.5c-8.9,5.2-9.5,16.6-8.2,25.8c2.9,21.5,27.8,36.3,48,36.6
				C120.2,196.7,120.6,196.4,120.2,196.4L120.2,196.4z"/>
		</g>
		<g>
			<path fill="#1D1D1D" d="M126.6,193.6C126.6,193.6,126.7,193.5,126.6,193.6C126.6,193.5,126.6,193.6,126.6,193.6L126.6,193.6z"/>
		</g>
		<g>
			<path fill="#1D1D1D" d="M125.9,195.1c3.7,11.6,14.8,21.2,26,25.5c0.1,0,0.6-0.1,0.5-0.2c-10.9-6.3-21.8-12.7-26-25.5
				C126.3,194.9,125.8,195,125.9,195.1L125.9,195.1z"/>
		</g>
		<g>
			<path fill="#1D1D1D" d="M154.5,221.7c3.5,0.1,7.1,0.3,10.2-1.5c0.3-0.2,0.1-0.4-0.2-0.3c-3.4,1.2-6.4,1.5-9.9,1.5
				C154.4,221.4,154.2,221.7,154.5,221.7L154.5,221.7z"/>
		</g>
		<g>
			<path fill="#1D1D1D" d="M204.3,178.1c3.2-7.3-5.3-16.9-11.9-18.8c-0.4-0.1-1,0.4-0.5,0.6c7.9,2.2,12.3,10.6,12.1,18.2
				C204,178.2,204.2,178.2,204.3,178.1L204.3,178.1z"/>
		</g>
		<path fill="#FFBEBE" d="M142.3,123.1c-3.2-3.8-9.9-4-14.4-3.7c-13.6,0.7-21.1,13.1-19.5,25.8c2,15.8,17.4,26.3,29.4,31.4
			c0.3,0.2,0.6,0.5,1,0.7c1.7,1.1,1.8-1.5,0.6-2.2c0,0-0.1-0.1-0.1-0.1c-0.2-0.3-0.5-0.6-0.8-0.7c-0.1,0-0.2-0.1-0.4-0.1
			c-6.9-5.3-9.8-14.4-9.9-22.9c0-4.4,0.9-9.1,4.2-12.2c2.5-2.4,5.9-3.7,8.8-5.6C145.2,131,145.1,126.5,142.3,123.1z"/>
		<path fill="#FF9090" d="M98.4,176c-5.8-6.6,6.4-38.9-9.8-36.9c-19.6,2.4-8.1,35.3,8.7,38.6C99.2,178.2,99.4,177.2,98.4,176z"/>
		<g>
			<path fill="#FF7676" d="M119.5,197.1c-1,2-2.7,4-4.7,5c0.7,0.7,2,1.3,3,1.7c1.3-1.7,2-3.7,2-6L119.5,197.1z"/>
			<g>
				<path fill="#1D1D1D" d="M119.2,197.1c-1.1,2-2.5,3.8-4.5,4.8c-0.2,0.1-0.3,0.3-0.1,0.4c0.9,0.8,1.9,1.3,3,1.7
					c0.2,0.1,0.4,0,0.5-0.1c1.3-1.6,2.4-4,2-6.2c-0.1-0.3-0.5-0.1-0.5,0.1c-0.3,1.1-0.3,2.1-0.6,3.2c-0.3,1-0.8,1.9-1.4,2.7
					c0.2,0,0.4-0.1,0.5-0.1c-1.1-0.4-2.1-0.8-3-1.6c0,0.1-0.1,0.3-0.1,0.4c2.2-1.2,3.7-3,4.8-5.2C120,196.8,119.4,196.8,119.2,197.1
					L119.2,197.1z"/>
			</g>
		</g>
		<g>
			<path fill="#FF9797" d="M151.9,189.9h-0.3c-1.3,1.3-1.7,3.3-1.3,5c0.7,0,2-0.3,2.7-0.7C152.5,192.9,152.5,191.2,151.9,189.9z"/>
			<g>
				<path fill="#1D1D1D" d="M151.2,189.9c-1.3,1.4-1.7,3.3-1.4,5.1c0,0.1,0.2,0.1,0.3,0.1c1,0,2.1-0.3,3-0.7c0.1,0,0.3-0.1,0.3-0.3
					c-0.3-1.3-0.2-3.3-1.2-4.3c-0.1-0.1-0.5,0-0.5,0.2c0.1,0.7,0.3,1.5,0.5,2.2c0.1,0.7,0.2,1.5,0.4,2.2c0.1-0.1,0.2-0.2,0.3-0.3
					c-0.7,0.3-1.5,0.6-2.3,0.6c0.1,0,0.2,0.1,0.3,0.1c-0.3-1.8,0-3.5,1.3-4.9C152.1,189.6,151.3,189.7,151.2,189.9L151.2,189.9z"/>
			</g>
		</g>
		<g>
			<path fill="#E65D5D" d="M153.3,221.8l-0.3-0.5c-1.2,1.4-2.6,4.2-1.1,6.3c0.6,0,2.7,0.1,3.4,0.1
				C154.6,226.3,153.4,223.6,153.3,221.8z"/>
			<g>
				<path fill="#1D1D1D" d="M152.8,221.3c-1.4,1.5-2.4,3.7-1.6,5.7c0.3,0.9,0.6,0.7,1.5,0.7c0.8,0,1.7,0.1,2.5,0.1
					c0.1,0,0.6-0.1,0.5-0.2c-1-1.9-1.4-3.8-2.1-5.8c0-0.1-0.4,0-0.5,0.1c-0.3,1.9,1,4.2,1.9,5.9c0.2-0.1,0.3-0.2,0.5-0.2
					c-0.7,0-1.4,0-2.1-0.1c-1,0-1.2,0-1.6-1c-0.6-1.8,0.5-3.8,1.5-5.2C153.4,221.1,152.9,221.2,152.8,221.3L152.8,221.3z"/>
			</g>
		</g>
		<g>
			<path fill="#1D1D1D" d="M151.9,221.8c0.4,0.1,0.8,0.2,1.2,0.3c0.6,0.1,1,0.6,1.3,1c0.3-0.1,0.5-0.2,0.8-0.3c-1-1-2-1.8-3.4-2.4
				c-0.1,0.2-0.3,0.3-0.4,0.5c1.4-0.3,2.2,0.4,3.4,0.9c0.2,0.1,0.9-0.2,0.6-0.4c-1.3-0.8-2.4-1.3-3.9-1.1c-0.1,0-0.8,0.3-0.4,0.5
				c1.3,0.6,2.3,1.3,3.3,2.3c0.2,0.2,1-0.1,0.8-0.3c-0.4-0.5-0.8-0.9-1.4-1.1c-0.5-0.2-0.9-0.2-1.4-0.3
				C152.1,221.2,151.4,221.6,151.9,221.8L151.9,221.8z"/>
		</g>
		<g>
			<path fill="#1D1D1D" d="M121.4,198.1c-0.9-0.7-1.5-1.3-2.7-1.4c-0.1,0-0.7,0.2-0.6,0.3c1,0.3,2,0.7,3,1c0.2,0.1,0.9-0.2,0.8-0.3
				c-0.7-0.4-1.3-1-2-1.3c-0.3,0.1-0.5,0.2-0.8,0.3c0.7,0.1,1.2,0.7,1.9,0.6c0,0,0.6-0.1,0.5-0.2c-0.1-0.2-0.6-0.3-0.8-0.4
				c-0.3-0.1-0.6-0.3-0.9-0.3c-0.1,0-0.9,0.2-0.8,0.3c0.7,0.4,1.3,1,2,1.3c0.3-0.1,0.5-0.2,0.8-0.3c-1-0.3-2-0.7-3-1
				c-0.2,0.1-0.4,0.2-0.6,0.3c1.1,0,1.8,0.7,2.7,1.3C121,198.4,121.4,198.2,121.4,198.1L121.4,198.1z"/>
		</g>
		<g>
			<path fill="#1D1D1D" d="M150.6,190c0.9,0,1.7-0.5,2.5,0c0.3-0.1,0.6-0.2,0.8-0.3c-1-0.5-2-0.7-3.1-0.7c-0.1,0-0.9,0.2-0.6,0.3
				c1.2,0.4,2,1.3,3.1,1.9c0.1,0.1,0.6-0.1,0.6-0.2c-0.3-0.5-0.8-0.8-1.2-1.1c-0.5-0.4-1.1-0.7-1.7-0.9c-0.2,0.1-0.4,0.2-0.7,0.3
				c1,0,1.9,0.2,2.9,0.7c0.2,0.1,0.9-0.2,0.8-0.3c-1-0.6-1.9,0-2.9,0C150.8,189.8,150.3,190,150.6,190L150.6,190z"/>
		</g>
	</g>
</g>
<g id="Layer_27">
</g>
<g id="Layer_28">
</g>
<g id="Layer_29">
</g>
<g id="Layer_30">
</g>
<g id="Layer_31">
</g>
<g id="Layer_32">
</g>
<g id="Layer_33">
</g>
<g id="Layer_34">
</g>
<g id="Layer_36">
</g>
<g id="Layer_35">
</g>
<g id="Layer_37">
</g>
<g id="Layer_38">
</g>
<g id="Layer_39">
</g>
<g id="Layer_40">
</g>
</svg>
