<?xml version="1.0" encoding="utf-8"?>
<!-- Generator: Adobe Illustrator 18.1.1, SVG Export Plug-In . SVG Version: 6.00 Build 0)  -->
<!DOCTYPE svg PUBLIC "-//W3C//DTD SVG 1.1//EN" "http://www.w3.org/Graphics/SVG/1.1/DTD/svg11.dtd">
<svg version="1.1" xmlns="http://www.w3.org/2000/svg" xmlns:xlink="http://www.w3.org/1999/xlink" x="0px" y="0px"
	 viewBox="0 0 393 483" enable-background="new 0 0 393 483" xml:space="preserve">
<g id="ziutek_x5F_01">
</g>
<g id="ziutek_x5F_02">
</g>
<g id="ziutek_x5F_03">
</g>
<g id="ziutek_x5F_04">
</g>
<g id="ziutek_x5F_05">
</g>
<g id="ziutek_x5F_06">
</g>
<g id="ziutek_x5F_07">
</g>
<g id="ziutek_x5F_08">
</g>
<g id="ziutek_x5F_09">
</g>
<g id="ziutek_x5F_10">
</g>
<g id="lady_x5F_01">
</g>
<g id="Layer_13">
</g>
<g id="Layer_12">
</g>
<g id="Layer_14">
</g>
<g id="Layer_15">
</g>
<g id="Layer_16">
</g>
<g id="Layer_17">
</g>
<g id="Layer_18">
</g>
<g id="Layer_19">
</g>
<g id="Layer_20">
</g>
<g id="Layer_21">
</g>
<g id="Layer_22">
	<g>
		<g>
			<g>
				<path fill="#F49A37" stroke="#1D1D1B" stroke-miterlimit="10" d="M125.1,113.4c0,0,4.2-3,6.6-7.9c0.9-1.5,1.5-3.2,1.5-4.7
					c0,0,0,0,0,0c1.2-7.7-1.5-9.6-1.5-9.6c-0.3-0.3-0.6-0.6-1.1-0.9c-0.5-0.4-1.1-0.7-1.9-0.8c-0.2-3-0.9-6.3-2.8-7.8
					c-0.4-0.3-2.9-0.2-3.2,1.9c-0.6-1-1.6-1.7-2.9-1.2c-1.5,0.5-1.6,1.9-1.3,3.3c-0.9-1.2-2-1.9-3.4-0.6c-1,0.9-1.2,2-1,3
					c-0.6-0.4-1.4-0.4-2.1,0.6c-2.5,3.1-1.1,7.6-1.1,7.6s0.2,6.5,6.4,15.9l0.7,5.3c4.6,45,31.1,88.4,42.2,103.1
					c1.1-2.6,2.5-5,3.9-7.4c-25.6-28-39.1-96.4-39.1-96.4L125.1,113.4z M123.9,87.7c0,0-0.1-1.1-0.5-2.3
					C123.6,85.7,123.8,86.3,123.9,87.7z"/>
				<path fill="#F49A37" stroke="#1D1D1B" stroke-miterlimit="10" d="M205.3,133.1l-1.2-5.2c2.6-10.9,0.5-17.1,0.5-17.1
					s-0.3-4.7-3.7-6.8c-1-0.6-1.7-0.4-2.2,0.2c-0.2-1-0.7-2-2-2.5c-1.7-0.7-2.6,0.3-3,1.7c-0.2-1.4-0.8-2.7-2.3-2.7
					c-1.4,0-2.1,1-2.3,2.2c-1-1.8-3.4-1.1-3.7-0.6c-1.3,2-0.8,5.4,0,8.3c-0.7,0.3-1.1,0.8-1.5,1.4c-0.4,0.4-0.6,0.8-0.7,1.2
					c0,0-1.9,2.8,1.9,9.6c0,0,0,0,0,0c0.6,1.4,1.7,2.7,3,3.9c4,3.8,8.9,5.2,8.9,5.2l1.3,3.1c0,0,10.9,68.8-3.5,103.9
					c2.2,1.8,4.3,3.6,6.2,5.6C206.6,226.8,216.5,176.9,205.3,133.1z M189.1,104.9c0.1,1.3,0.3,2.3,0.3,2.3
					C189,105.9,189,105.3,189.1,104.9z"/>
			</g>
			<ellipse fill="#D2D1CF" cx="196.5" cy="319.1" rx="109.8" ry="9.8"/>
			<path fill="#5F3814" stroke="#000000" stroke-miterlimit="10" d="M251.1,270c36.8-43.6,48.3,2.5,36.3,9.9
				c-1.3-8.2,0.1-11.8-8.4-16.3C270.5,259,251.7,285.4,251.1,270z"/>
			<path fill="#EE7B12" stroke="#000000" stroke-miterlimit="10" d="M208.5,254.6c0,0,7.4,52.4,0,58.1c-7.4,5.7,17.8,1.5,17.8,1.5
				l-3.5-43.5L208.5,254.6z"/>
			<path fill="#F49A37" stroke="#1D1D1B" stroke-miterlimit="10" d="M183.3,167.4c-11.4-4.1-28.2,33.9-28.2,33.9s5.3,86.2,67.3,94.6
				c-5.1,7.1,1.1,16.9,1.1,16.9s0.5,1.7-3.2,4.6c-3.7,2.8,31.3,2.1,40.6-0.1c9.3-2.2,13.1-33.9-5.3-52
				C237.1,247.3,205.9,237.4,183.3,167.4z"/>
			<path fill="#3F9E90" d="M188.2,209.8c2.2-1.3,7.6-5.8,10.8-8.6c3.1-2.8-4-10.1-5.8-8.1c0.3,1.1,1.5,3.1,1.5,3.1
				c-17.6,15.4-36.1,14-38.3,13.2c-2.3-0.8-3.8,5.7-0.4,7C159.3,217.7,169.6,221.3,188.2,209.8z"/>
			<path fill="#523320" d="M160.6,148.9c4.1-5.7,2.1-13-5.9-3.2c-8,9.8-24.4,33.4-23.3,63.9c1.1,30.6,13.6,33.5,19.6,21.1
				C157,218.2,148.6,167.5,160.6,148.9z"/>
			<path fill="#F49A37" stroke="#1D1D1B" stroke-miterlimit="10" d="M178.1,147.8c-1.7-8.8-15.9-7.4-22.1-2.4
				c-6.2,4.9,4.9,22.4-46.1,13.6c-8.5,23.1,6.1,28.4,22.2,28.1c-2.9,1.2-5,2.7-5.5,4.5C125.1,212.9,191.6,210,178.1,147.8z"/>
			<ellipse fill="#FFFFFF" stroke="#000000" stroke-miterlimit="10" cx="168.1" cy="160.5" rx="7.7" ry="7.7"/>
			<ellipse fill="#FFFFFF" stroke="#000000" stroke-miterlimit="10" cx="152.8" cy="157.2" rx="7.7" ry="7.7"/>
			<g>
				
					<ellipse transform="matrix(0.4014 -0.9159 0.9159 0.4014 -49.0544 247.9344)" fill="#2B150D" cx="165.1" cy="161.5" rx="1.5" ry="1.4"/>
				
					<ellipse transform="matrix(0.4015 -0.9159 0.9159 0.4015 -49.0422 246.9611)" fill="#FDFFFF" cx="164.4" cy="161" rx="0.9" ry="0.8"/>
			</g>
			<g>
				
					<ellipse transform="matrix(0.4014 -0.9159 0.9159 0.4014 -55.6428 231.3534)" fill="#2B150D" cx="149.2" cy="158.2" rx="1.8" ry="1.6"/>
				
					<ellipse transform="matrix(0.4015 -0.9159 0.9159 0.4015 -55.6229 230.2366)" fill="#FDFFFF" cx="148.3" cy="157.7" rx="1.1" ry="1"/>
			</g>
			<path fill="#9F5918" stroke="#000000" stroke-miterlimit="10" d="M162.6,182c0,0-17.1,7.2-38.5,4.7c-0.5,2,0.3,4.7,2.7,8
				C154.4,203,162.6,182,162.6,182z"/>
			<path fill="#523320" d="M171,146.9c-4.1-5.7-2.1-13,5.9-3.2c8,9.8,24.4,33.4,23.3,63.9c-1.1,30.6-13.6,33.5-19.6,21.1
				C174.6,216.2,183,165.4,171,146.9z"/>
			<path fill="#DF512E" d="M144.9,186.9c0,0-9.5,14.7-11.4,20.1c-1.9,5.5-20.4,5.9-16.5-3.7c3.9-9.5,19.2-15.7,19.2-15.7
				L144.9,186.9z"/>
		</g>
		
			<ellipse transform="matrix(0.9822 0.1877 -0.1877 0.9822 32.3103 -18.0489)" fill="#2B150D" cx="111.4" cy="161.5" rx="8.5" ry="5.1"/>
	</g>
</g>
<g id="Layer_23">
</g>
<g id="Layer_24">
</g>
<g id="Layer_25">
</g>
<g id="Layer_26">
</g>
<g id="Layer_27">
</g>
<g id="Layer_28">
</g>
<g id="Layer_29">
</g>
<g id="Layer_30">
</g>
<g id="Layer_31">
</g>
<g id="Layer_32">
</g>
<g id="Layer_33">
</g>
<g id="Layer_34">
</g>
<g id="Layer_36">
</g>
<g id="Layer_35">
</g>
<g id="Layer_37">
</g>
<g id="Layer_38">
</g>
<g id="Layer_39">
</g>
<g id="Layer_40">
</g>
</svg>
