<?xml version="1.0" encoding="utf-8"?>
<!-- Generator: Adobe Illustrator 18.1.1, SVG Export Plug-In . SVG Version: 6.00 Build 0)  -->
<!DOCTYPE svg PUBLIC "-//W3C//DTD SVG 1.1//EN" "http://www.w3.org/Graphics/SVG/1.1/DTD/svg11.dtd">
<svg version="1.1" xmlns="http://www.w3.org/2000/svg" xmlns:xlink="http://www.w3.org/1999/xlink" x="0px" y="0px" width="200" height="200"
	
	  preserveAspectRatio="meet" xml:space="preserve">
<g id="ziutek_x5F_01">
	<g>
		<path fill="none" d="M77.7,300.3C77.7,300.3,77.7,300.3,77.7,300.3c0.1-0.1,0.1-0.2,0.2-0.2c0,0,0.1,0,0.1-0.1c0,0,0,0,0,0.1
			c-0.1,0.1-0.1,0.3-0.2,0.4l-0.2-0.1C77.6,300.4,77.6,300.4,77.7,300.3z"/>
		<path fill="none" d="M190.7,243.4l0.2,0.1c-0.1,0-0.2,0-0.3,0C190.7,243.5,190.7,243.5,190.7,243.4z"/>
		<path fill="none" d="M86.2,295.1C86.2,295.1,86.2,295.1,86.2,295.1L86.2,295.1C86.2,295.1,86.2,295.1,86.2,295.1z"/>
		<path fill="none" d="M96.5,310.9C96.5,310.9,96.5,310.9,96.5,310.9l0,0.1C96.5,311,96.5,310.9,96.5,310.9z"/>
		<path fill="none" d="M243.8,259.3c-0.1,0.1-0.3,0.1-0.4,0.1l0.2-0.2C243.7,259.2,243.8,259.3,243.8,259.3z"/>
		<path fill="none" d="M72.6,227.4c0.7-0.3,1.4-0.7,2.1-1c-0.5,0.8-1,1.6-1.4,2.4c-1.8,3.1-3.5,6.3-5,9.5c-0.4,0.7-0.7,1.5-1,2.2
			c-0.4-1.5-0.7-2.6-0.7-3.3c-0.2-1.2-0.3-2.1-0.3-2.7c-0.1-0.9,0-1.7,0.3-2.3C67.1,230.6,69.2,229,72.6,227.4z"/>
		<path fill="none" d="M196.5,329c0,0-0.1,0.1-0.1,0.1L196.5,329C196.5,329,196.5,329,196.5,329z"/>
		<path fill="none" d="M88.6,295.8c0.1,0.1,0.3,0.2,0.4,0.3l-0.1,0.2C88.8,296.1,88.7,295.9,88.6,295.8z"/>
		<path fill="none" d="M284.4,205l0-0.2C284.4,204.9,284.4,205,284.4,205z"/>
		<path fill="none" d="M200.8,143.1C200.8,143,200.8,143,200.8,143.1L200.8,143.1L200.8,143.1z"/>
		<path fill="none" d="M88.4,296.9c0.1,0,0.2,0,0.3,0l-0.1,0.2C88.5,297,88.5,296.9,88.4,296.9z"/>
		<path fill="none" d="M225.6,211.7C225.6,211.7,225.6,211.7,225.6,211.7l-0.2,0C225.5,211.7,225.6,211.7,225.6,211.7z"/>
		<path d="M245.5,96.8c-1.6-1.4-2.4-3.3-2.4-5.6c0.1,0.6,0.3,1.2,0.4,1.7c0.4,1.5,1.1,2.8,2.2,3.8c0.5,0.5,1,0.9,1.6,1.3
			c-0.1-0.1-0.3-0.2-0.4-0.3C246.3,97.5,245.8,97.2,245.5,96.8z"/>
		<path d="M51.6,245.7l-0.3-1.1c2.6,6,5.3,11.9,8,17.8c-0.1,0.4-0.2,0.7-0.3,1.1c-0.8,3.4-1.5,6.8-2.2,10.1
			c-0.1,0.1-0.1,0.1-0.2,0.1c0,0.1,0.1,0.1,0.1,0.2c-0.8,4.2-1.4,8.4-2,12.7c-0.5,4-0.8,8-0.8,12.1c0,4.2,0.2,8.2,0.6,12
			c0.5,3.8,1.3,6.9,2.6,9.3c1.3,2.4,3.4,4.5,6.4,6.4c3,1.9,6,3.9,9,6.2c2.9,2.2,5.5,4.7,7.7,7.6c2.8,3.6,5.5,7.2,8.1,11
			c2.4,3.4,4.9,6.8,7.5,10.2c1.9,2.5,3.7,4.9,5.5,7.4c2.2,3.2,3.8,6.5,4.9,10.2c0.4,1.5,0.4,3-0.3,4.4c-1.4,3.3-3.6,6.7-6.7,10.2
			c-3,3.5-6.2,7-9.6,10.5c-1.5,1.6-2.9,2.9-4,4c0.4,0.3,0.9,0.7,1.2,1.1c0,0,0,0.1,0.1,0.1c0,0,0,0,0,0c0.3,0.4,0.7,0.9,1.1,1.3
			c-1.8,1.5-3.3,3-4.3,4.2c-1.6,1.8-2.5,3.4-2.9,4.8c-0.2,0.8-0.2,2.2,0,4.4c0,0.2,0,0.4,0,0.6c0.3,0.2,0.5,0.4,0.8,0.7
			c0.2,0.2,0.4,0.5,0.6,0.8c0.2,0.1,0.3,0.2,0.5,0.4c0,0.2,0.1,0.4,0.1,0.6c2.8,2.5,6.1,4.8,9.9,6.8c4.6,2.4,9.5,4.2,14.8,5.5
			c4.6,1.1,8.4,1.5,11.3,1.3c1.5-0.1,2.7-0.4,3.8-0.9c0.1,0,0.1,0.1,0.2,0.1c0.4-0.2,0.8-0.3,1.2-0.4c0.8-1.5,1.4-3.1,1.8-4.9
			c0.3-1.3,0.4-2.2,0.4-2.8c-0.3-3.4-1.8-5.8-4.6-7.2c-1.8-0.9-4.8-1.5-9-1.8c-4.5-0.3-7.5-0.8-9-1.3c-2.1-0.8-3.5-2.1-4.1-4.1
			c0.6,0.1,1.1,0.2,1.7,0.2c0.1-0.6,0.2-1.2,0.5-1.8c-0.1,0-0.2,0-0.3,0c0.1-0.1,0.1-0.2,0.1-0.3c2.3-4.8,4.9-9,7.6-12.5
			c1.2-1.6,3.7-4.5,7.4-8.8c2.9-3.4,5-6,6.2-7.7c1.7-2.5,2.5-4.6,2.4-6.2c-0.2-2.8-4-10.7-11.4-23.8c-1.7-3-3.5-6.1-5.4-9.2
			c5.6,1.9,11.9,3.1,18.8,3.5c2.4,2,4.8,4,7.4,6.3c11.5,9.9,17.4,15.8,17.5,17.7c0,0.6-0.5,2-1.5,4.1c-1.2,2.4-2.5,4.8-4.1,7.1
			c-2.1,3-4,5.3-5.9,7c0.4,0.5,0.8,1,1,1.6c0.1,0,0.1-0.1,0.1-0.1c0.1,0.2,0.3,0.4,0.5,0.7c0.3,0.4,0.6,0.8,1,1.2
			c-2.5,1.4-4.4,3.5-5.8,6.4c-0.4,0.7-0.7,1.5-0.9,2.2c0.3,0.3,0.5,0.7,0.6,1c0.1,0.1,0.1,0.1,0.2,0.2c1.1,2.8,2.5,5.3,4.2,7.6
			c6.8,9.2,17.6,13.2,32.3,12.1c3-0.2,5.3-0.6,7-1.1c0.6-0.2,1.2-0.5,1.7-0.7c0.1-0.3,0.2-0.5,0.3-0.7c0.1,0,0.2,0,0.3-0.1
			c0.1-0.5,0.3-1,0.4-1.5c0.1-0.1,0.1-0.3,0.2-0.4c0-0.4,0.1-0.8,0.3-1.3c0-0.2-0.1-0.4-0.1-0.6c0-0.2,0-0.4,0-0.5
			c-0.3-3.7-1.8-6.1-4.7-7.4c-1.9-0.9-4.9-1.4-9.2-1.5c-4.6-0.1-7.6-0.5-9.1-1c-2.8-0.9-4.3-2.9-4.6-5.9c0-0.2,0-0.5,0-0.8
			c0.1,0,0.2,0,0.2,0c0,0,0,0,0,0.1c0.7,0,1.3,0.1,1.9,0.3c0.1-0.1,0.1-0.2,0.1-0.4c0.1,0,0.1,0,0.2,0c0-0.3,0-0.5,0.1-0.8
			c0.8-2.3,2.5-6.7,5.2-13c3.9-9,5.7-14.5,5.5-16.5c-0.2-2-2.2-5.3-6.1-9.7c-2.6-3-6.1-7.2-10.4-12.6c4.2-0.6,8.1-1.4,11.8-2.4
			c2.1-0.6,5.6-1.7,10.4-3.4c3-1.1,5.7-2.8,8-5.2c0.1,0,0.1,0,0.1,0c0-0.1,0-0.1,0-0.1c0.1-0.1,0.1-0.1,0.2-0.2c1-1.1,1.9-2,2.7-3
			c1.3-0.2,2.6-0.4,3.9-0.8c1.7-0.4,3.2-1,4.8-1.7c1.8-0.9,2.8-2.3,2.9-4.3c0.1-0.5,0-1-0.1-1.4c5.4-6.5,10.1-13.5,14-21
			c3.6-6.9,6.6-14,9.1-21.4c2.1-6.2,3.7-12.6,5-19c3.7,3.3,6.4,5.6,8.1,6.7c3,2,5.7,2.9,8.1,2.7c6.6-0.5,12.1-4.5,16.5-12
			c1.4-2.5,2.8-5.4,4-8.8c1.2-3.3,1.9-5.4,2.2-6.3c1.5-3.8,3.5-9.2,6-16c0.1-0.2,0.1-0.3,0.2-0.4c3.1-1,5.2-3.5,6.3-7.4
			c0.5-1.6,0.7-3.3,0.8-5.2c0-0.9,0-1.7,0-2.6c-0.2-2.6-1-5-2.5-7.2c-1-1.5-2.1-2.6-3.4-3.4c0.1-0.3,0.1-0.6,0.2-0.8
			c3.4,0.7,7,1.4,10.7,2c0.9,0.1,1.8,0.3,2.6,0.4c0.6,1.2,1.3,2.4,2,3.7c3.8,6.7,6.8,11.1,9,13.1c0.3,0.2,1.6,1.9,4,5.1
			c2.6,3.5,5,6.4,7.3,8.7c4.8,5.1,9.4,8.4,13.9,10c0.1-0.3,0.3-0.6,0.5-0.8c0,0,0.1,0,0.1,0.1c0.1-0.2,0.2-0.4,0.3-0.5
			c0.1-0.1,0.2-0.2,0.3-0.3c-0.1,0-0.1,0-0.1-0.1c6.1-10.5,10.5-20.4,13.2-29.9c3.6-12.7,6.2-25.3,7.7-38.1c0.5-3.5,0.8-7.1,1-10.7
			c0.1-0.1,0.3-0.2,0.4-0.4l-0.8-0.5c0.1-0.3,0.1-0.5,0.2-0.8c-1.4-0.1-2.9,0-4.5,0.1c-8.1,0.6-14.4,1.7-18.9,3.3
			c-4.5,1.6-9.1,3.4-13.8,5.4c-4.7,2-8.9,3.7-12.7,5.3c-0.9,0.4-2,0.8-3.1,1.3c0,0,0,0,0-0.1c0,0,0-0.1,0.1-0.1
			c-2.9-0.7-5-1.2-6.3-1.5c-1.8-0.4-5.4-0.9-11.1-1.5c-3.2-0.3-8.2-0.8-15-1.4c0-0.1-0.7-0.1-2.1,0c-3.5,0.3-6.2,2.9-8.2,7.9
			c-0.7,1.7-1.2,3.7-1.6,5.7c-0.3,1.7-0.4,2.9-0.3,3.7c0.1,1.3,0.5,2.3,1.2,3.2c0.7,0.8,1.7,1.5,3.1,2.1c1.2,0.5,2.9,1,5.3,1.7
			c1.2,0.3,2.3,0.6,3.3,0.8c-0.1,0.7-0.3,1.5-0.4,2.2c-0.7-0.1-1.4-0.1-2.1,0c-2.6,0.2-4.7,1.9-6.1,5.1c-0.5,1.1-0.8,2.2-1.1,3.4
			c-0.2,0.9-0.3,1.6-0.3,1.8c0.3,3.9,1.8,5.7,4.5,5.5c0.5,0,1.1-0.2,1.6-0.4c0.2,0.2,0.3,0.3,0.5,0.5c-0.1,0.4-0.1,0.8-0.2,1.2
			c-0.4,0.4-0.7,0.8-0.8,1.5c-0.1,0.6-0.2,1.3-0.1,2.1c0,0.2,0.1,0.5,0.2,0.7c-0.4,2-0.7,4-1.1,6c0.1,1.6,0.5,2.7,1.1,3.3
			c0.1,0.1,0.2,0.2,0.2,0.2l-0.3,0.6c-0.7,2.1-1.4,4.2-2,6.3c-1.2,4.2-2.9,8.1-5.1,11.8c-0.8,1.4-1.7,2.7-2.6,3.9
			c-0.1,0.2-0.3,0.4-0.5,0.6c-1.1-0.5-2.1-1.1-3.1-1.8c-2.7-2.1-5.3-4.5-7.5-7.1c-2.2-2.5-4.3-5.2-6.2-7.9c0.2-4.4,0.2-8.8,0-13.3
			c-0.1-1.9-0.2-3.7-0.5-5.5c0.5-0.9,0.9-1.7,1.2-2.3c0.5-1.4,0.8-2.1,0.8-2.2c-0.1-0.8-0.5-1.8-1.5-2.8c-0.5-0.6-1-1.1-1.6-1.4
			c0.2-1,0.4-1.9,0.6-2.6c2-0.3,3.3-0.9,3.8-1.7c0.3-0.3,0.4-0.6,0.3-1l-0.1-0.4c-0.1-1.3-0.5-2.2-1.2-2.6c-0.4-0.2-1-0.4-1.9-0.6
			c0.1-0.3,0.1-0.6,0.2-0.9c0.2-1.1,0.3-2.2,0.2-3.5c-0.1-1.1-0.2-1.6-0.2-1.6c0-0.4-0.1-0.7-0.1-1c0,0-0.1,0-0.1,0
			c0-0.2,0-0.3,0-0.5c0-0.4,0-0.7,0-1.1c-2.6,0.5-6,0.8-10,1.1c-8.5,0.6-16.2,0.5-23.2-0.3c-1.4-0.8-2.9-1.7-4.6-2.8
			c-4.8-3.1-8.3-6.5-10.5-10.2c-1.8-3.1-2.9-6.7-3.2-10.8c0-0.4-0.1-0.7-0.1-1.1c2.5-0.3,5-0.1,7.4,0.4c6.5,1.4,12.6,3.7,18.5,6.9
			c3.3,1.8,6.6,3.5,9.9,5.3c1.7,0.9,3.5,1.8,5.3,2.6c1.2,0.6,2.5,1.1,3.9,1.7c2,0.8,4,1.4,6.1,1.7c2.4,0.3,4.5-0.2,6.3-1.6
			c0.9-0.7,1.5-1.5,1.9-2.6c0.7-2.4,0.5-4.6-0.5-6.9c-1.4-3-3.6-5.3-6.5-7c-6.1-3.5-12.4-6.1-18.7-7.6c-6.3-1.5-11.5-2.5-15.6-2.8
			c-4.1-0.3-8.2-0.5-12.4-0.3c-1.5,0-2.8,0.1-4,0.2c0.6-1.9,1.4-3.8,2.3-5.6c3.6-6.5,9-10.9,16.2-13.1c0.5,0.1,0.9,0.2,1.4,0.3
			c3,0.7,6.1,1.7,9.3,2.9c4.1,1.6,7.5,3,10.3,4c6.6,2.5,11.9,4.9,15.7,7.1c1.7,1,3.3,2,4.7,3.1c0.1-0.7,0.2-1.3,0.4-1.8l0,0
			c0.1-0.2,0.3-0.4,0.4-0.6c0.6-1.1,1.2-2.1,1.6-3.3c1,0.2,2,0.3,2.9,0.3c1.4-0.1,2.3-0.7,2.8-1.8c0.2-0.3,0.3-0.7,0.3-1.2
			c0-0.3,0-0.4,0-0.6c0-0.4-0.3-1.1-0.9-2.2c-0.3-0.7-0.9-1.4-1.7-2.3c1.3-4.3,2.4-8.7,3.2-13.1c0,0,0,0,0-0.1
			c0.3-1.6,0.6-3.2,0.8-4.8c0.3,0,0.5,0,0.8,0c2.2-0.2,3.5-1,4-2.6c0.3-0.8,0.3-1.6,0.1-2.5c-1.4-4.5-2.7-8.4-3.7-11.7
			c0-5-0.6-15.5-0.7-15.6c1.3,0.5,2.7,0.6,4.2,0.3c2-0.5,3.5-1.6,4.5-3.4c0.1-0.2,0.2-0.4,0.3-0.5c0.8-1.7,1-3.4,0.5-5.3
			c-0.5-2.1-1.6-3.7-3.4-4.8c-1.7-1.1-3.6-1.5-5.5-1c-1.3,0.3-2.4,0.9-3.3,1.8c0-0.2-2-5.1-3-7c-1.4-2.8-3.1-5.4-5-7.8
			c4.2,2,7.6,4.2,10.3,6.8c0.5-0.2,0.8-0.6,0.7-1.2c0-0.2-0.7-2-2.2-5.4c-1.4-3.3-2.5-5.8-3.4-7.6l0-0.3c4.7,1.2,9.6,3.2,14.5,6
			c4.6,2.6,8.9,5.7,12.9,9.3c1.9,1.7,3.6,3.5,5.2,5.2c0.8,1,1.5,2.2,2.2,3.7c-0.4-1.8-0.9-3.6-1.6-5.5c-1-2.6-2.2-5.2-3.5-7.6
			c-1.2-2.3-2.8-4.4-4.7-6.2c-1.3-1.3-2.6-2.5-4.1-3.7c-0.5-0.4-1-0.8-1.6-1.2c-0.5-0.4-1-0.7-1.5-1.1c-0.8-0.6-1.6-1.1-2.4-1.6
			c-1.7-1-3.5-2.1-5.2-3c-1.9-1.1-3.9-2-6-2.9c-4.3-2-8.7-3.5-13.2-4.5c-5.5-1.2-11.1-2.4-16.7-3.3c-1.4-0.3-2.9-0.4-4.3-0.4
			c-6.4-0.3-12.8,0-19.2,0.7c-4.6,0.6-9.1,1.6-13.6,2.9c-4.7,1.4-9.2,3.3-13.5,5.7c-5.6,3.1-10.7,6.9-15.2,11.3
			c-3.9,3.7-7.3,7.9-10.3,12.4c-2.9,4.4-5.2,9.1-6.9,14.1c-3.5,10.2-6.6,20.5-9.3,30.8c-0.8,3-1.6,6-2.3,9c-1,4.1-2.2,8.2-3.6,12.3
			c-2.4,7.2-5.3,14.1-8.7,20.9c-1.8,3.4-3.6,6.8-5.5,10.1c-1,1.7-2,3.4-2.9,5.1c-0.7,1.3-1.4,2.5-2.2,3.7c-0.7,1.3-1.5,2.6-2.3,3.9
			c-1.6,2.6-3.1,5.2-4.7,7.7c-1.5,2.4-2.9,4.7-4.3,7.1c-0.6,1-1.2,2-1.8,3c-7.6,3.1-15.3,6.2-23,9.2c-4,1.6-7.8,3.6-11.4,6.1
			c-2,1.4-3.6,3.2-4.6,5.3c-0.7,1.3-1,2.7-1,4.2c0,1.2,0.2,2.4,0.5,3.5C48.9,238.1,50.1,242,51.6,245.7z M235.8,67.6
			c-0.1-0.1-0.2-0.1-0.2-0.2c-0.3-0.1-0.6-0.2-0.9-0.3c-0.4-0.2-0.8-0.3-1.3-0.5c-7.5-2.9-13-4.3-16.5-4c-1.3,0.1-1.7,0.6-1.4,1.4
			c0.1,1,0.4,2.1,0.9,3.3c0.9,2.1,1.5,3.3,1.6,3.7l-0.1,0.3c-0.1-0.1-0.7-0.3-1.8-0.8c-1.3-0.5-2.7-1-4.2-1.4
			c-4.7-1.3-9.6-1.7-14.9-1.4c-5.2,0.4-8.6,1.5-10.1,3.2c-0.5,0.6-0.8,1.2-0.9,1.9c0,0.2,0,0.5,0.1,1.1c0.1,0.9,0.5,2,1.4,3.2
			c1.1,1.4,1.8,2.4,2.3,3.1l0.1,0.2c0,0-0.1,0-0.1,0c-0.8,0.1-2,0-3.6-0.2c-2.5,0.2-4.1,1.5-4.8,4c-0.2,0.8-0.4,1.7-0.4,2.6
			c0,0.8,0,1.2,0,1.2c0,1,0.1,1.7,0.1,1.9c0,0.4,0.1,0.8,0.3,1.1c0.8,1,1.9,2.3,3.2,4l0.3,0.2c-0.1,0-0.2,0-0.3,0
			c-3.9,0-6.9,2.4-8.8,7.1c-0.7,1.5-1.2,3.4-1.7,5.6c-0.2,1-0.4,1.8-0.5,2.4c-1.6-0.3-3.6-0.6-5.8-1c0-1.5,0-3.1-0.1-4.6
			c0-0.2,0-0.9,0-2.2c0-1.4-0.2-2.7-0.5-3.8c-0.8-3.5-2.8-5.1-5.9-4.9c-3.6,0.3-6.3,3.3-8.4,9c-0.6,1.9-1.2,3.9-1.6,6.1
			c-0.3,1.7-0.4,2.7-0.4,3.1c0.1,1.8,0.4,3.2,0.7,4.1c0.3,0.8,0.7,1.4,1.2,1.9c-0.3,0.7-0.5,1.3-0.7,1.8c-2.6,6-6.7,9.2-12.4,9.6
			c-5.3,0.4-9.7-0.3-13.3-2.2c0.7-2.8,1.5-5.6,2.3-8.3c1.2-4,2.4-8,3.6-12c1.2-3.9,2.4-7.7,3.7-11.6c1.3-4.1,3-8,5.1-11.8
			c3-5.4,6.6-10.3,10.8-14.7c7-7.4,15.3-12.9,24.8-16.6c5.1-2,10.4-3.4,15.9-4.3c4.7-0.8,9.5-1.2,14.3-1.2c2.1,0,4.1,0.1,6.1,0.2
			c2,0.1,4,0.3,6,0.5c3.9,0.4,7.8,1.1,11.7,2.1c3.4,0.9,6.7,1.8,10,3c3.7,1.2,7.4,2.7,10.9,4.4c2.7,1.3,5.4,2.9,7.9,4.6
			c2.8,1.9,5.3,4.1,7.7,6.5c1.7,1.8,3.3,3.8,4.7,5.8c0.9,1.2,1.6,2.5,2.2,3.8c0,0.1,0,0.1,0.1,0.2c0,0-0.1-0.1-0.1-0.1
			c-0.9-1-1.9-1.9-2.9-2.8c-2.7-2.5-6.3-5.2-11-8.1c-4.7-2.9-10.4-5.2-17-6.9l-1.1,0.2c-0.1,0-0.1,0.2-0.1,0.8
			c0.1,0.7,0.7,2.7,2,5.9c1.3,3.1,2,4.8,2.1,5l0,0.2c0,0-0.1,0-0.1-0.1C243,70.6,239.7,69.1,235.8,67.6z M253.3,83.8
			c-2.3,1.3-3.7,2-4.1,2.2c-0.6,0.2-1.3,0.5-2.2,1c-0.5,0.2-1.1,0.5-1.8,0.8c0,0-0.1,0-0.1,0c0,0,0-0.1,0-0.1
			c0.2-0.4,0.4-0.8,0.6-1.2c0.2-0.4,0.5-0.8,0.8-1.1c0.8-0.9,1.9-1.5,3.2-1.8C251,83.3,252.2,83.4,253.3,83.8z M248.2,96.1
			c-0.1,0-0.1-0.1-0.2-0.1c-0.4-0.3-0.8-0.6-1.2-1c-0.9-0.9-1.5-2-1.8-3.4c-0.2-1-0.3-1.9-0.1-2.8c0.2-0.1,0.3-0.2,0.5-0.3
			c0.6-0.3,1.2-0.5,1.8-0.9c0.3-0.2,0.7-0.3,1-0.5c2.2-1.1,4.1-2.2,5.8-3.1c0.2,0.1,0.4,0.2,0.6,0.3c1.5,0.9,2.5,2.3,3,4.2
			c0.5,1.9,0.2,3.6-0.6,5.3c-0.1,0.1-0.1,0.1-0.1,0.2c-0.9,1.5-2.2,2.5-3.8,2.9c-1.4,0.3-2.8,0.2-4.1-0.4
			C248.7,96.4,248.4,96.3,248.2,96.1z M233.3,156.3c0.1-0.2,0.2-0.4,0.3-0.6c0.5-0.9,0.9-1.8,1.3-2.8c0.7,0.4,1.3,0.7,1.8,1
			c0.8,0.5,1.7,0.9,2.4,1.2c-0.3,1-0.6,1.8-0.9,2.5c-0.2,0.4-0.4,0.8-0.5,1.1c-1-0.6-2.1-1.3-3.4-1.9
			C234,156.7,233.6,156.5,233.3,156.3z M224.1,152.1c0.2-0.4,0.4-0.9,0.6-1.3c0.5-1.1,0.9-2.2,1.2-3.4c0.9,0.5,1.7,1,2.6,1.6
			c1.9,1.2,3.5,2.3,4.8,3.1c-0.3,0.8-0.5,1.3-0.6,1.6c-0.3,0.7-0.6,1.4-0.9,2.1C229.9,154.7,227.3,153.5,224.1,152.1z M212.8,147.3
			c0.8-1.6,1.4-3,2-4.3c1.3,0.2,2.6,0.6,3.8,1c1.9,0.6,3.9,1.5,6,2.6c-0.4,1.4-0.8,2.7-1.2,3.8c-0.2,0.4-0.3,0.8-0.5,1.1
			c-1.4-0.6-2.9-1.2-4.5-1.9C216.5,148.8,214.6,148.1,212.8,147.3z M200.8,143L200.8,143c1.6-0.3,3.2-0.5,4.9-0.6
			c2.6-0.2,5.2-0.1,7.7,0.3c-0.5,1.3-1.1,2.7-1.7,4.2C207.8,145.4,204.2,144.1,200.8,143C200.8,143,200.8,143,200.8,143z M177,170.8
			c0-1.1,0.2-2.2,0.4-3.5c1.7-0.4,3.5-0.6,5.4-0.7c9-0.7,16.9,0.3,23.9,2.9c3.5,1.3,7.1,3.3,10.9,6.1c0.5-0.2,0.8-0.6,0.7-1.2
			c-0.1-0.8-1.3-1.8-3.7-3c-2.3-1.2-5.2-2.2-8.7-3.3c-8.4-2.6-15.3-3.6-20.8-3.3c0-0.1-0.8-0.1-2.4,0c-1.8,0.1-3.5,0.4-5,0.7
			c0-0.3,0.1-0.6,0.2-0.9c0.7-0.1,1.5-0.2,2.2-0.3c4.3-0.6,8.5-0.7,12.8-0.3c4.2,0.4,8.3,1,12.5,1.9c4.1,0.9,8.2,2,12.1,3.4
			c4,1.4,7.8,3.3,11.4,5.7c1.6,1.1,3.1,2.4,4.2,4c0.7,0.9,1.2,1.9,1.5,3c0.2,1,0.3,2,0.2,3c-0.3,2.2-1.6,3.6-3.7,4.1
			c-1.6,0.4-3.3,0.3-4.9-0.1c-1.7-0.4-3.3-1-4.9-1.7c-1.8-0.7-3.6-1.6-5.3-2.5c-7-3.7-14-7.2-21.2-10.4c-3.9-1.8-8-3-12.2-3.6
			C180.7,170.6,178.9,170.6,177,170.8z M205.3,200c0.1,0.6,0.3,1.2,0.4,1.8c-2.1-0.6-4.2-1.2-6.1-2.1
			C201.5,199.8,203.4,199.9,205.3,200z M213,203.3c-1.8-0.3-3.8-0.7-5.7-1.2c-0.2-0.8-0.3-1.5-0.4-2.2c1.9,0,3.8,0,5.8-0.1
			C212.8,201.1,212.9,202.3,213,203.3z M220.9,199.4c0.2,2.2,0.2,3.7,0.2,4.3c0,0.2,0,0.5,0,0.8c-1-0.1-1.7-0.2-2.1-0.2
			c-1.4-0.2-2.8-0.4-4.2-0.6c-0.1-0.6-0.1-1-0.1-1.1c0-0.9-0.1-1.8-0.2-2.7c1.3-0.1,2.7-0.1,4-0.2
			C219.3,199.5,220.1,199.5,220.9,199.4z M227.3,200.8c0.1,1.7-0.1,3.1-0.5,4.2c-0.1,0-0.1,0-0.2,0c-1.5-0.1-2.8-0.2-3.9-0.3
			c-0.1-2.5-0.2-4.3-0.2-5.4c1.7-0.2,3.2-0.3,4.6-0.5C227.1,199.3,227.2,200,227.3,200.8z M225.3,209.9c-3.2,0.2-5,0.3-5.5,0.1
			c-0.5,0.2-1.2,0.3-2.2,0.4c-0.1,0-0.2,0-0.3,0c0.3,0.3,0.9,0.6,1.6,0.8c1.6,0.5,3.7,0.7,6.4,0.5c0.1,0,0.2,0,0.2,0
			c0,0,0,0.1,0,0.1c0,0.1,0,0.1-0.1,0.2c-0.2,1.3-0.7,3.6-1.3,6.9c-2.3,0.5-4.7,0.6-7.3,0.4c-4.7-0.3-9.3-1.2-13.9-2.8
			c-10.5-3.4-20.8-7.3-31-11.6c-2.4-1-4.8-2.1-7.1-3.2c-0.1-0.1-0.2-0.2-0.4-0.4c-0.4-0.1-0.7-0.3-1.1-0.4
			c-5.3-2.8-10.4-5.9-15.4-9.3c-6.3-4.5-12.2-9.4-17.7-14.9c-5.4-5.4-10.3-11.1-14.6-17.4c0.8-1.7,1.5-3.4,2.2-5.2
			c1.3-3.3,2.5-6.6,3.5-10c0.1-0.3,0.2-0.7,0.3-1.1c1.2-4,2.3-8,3.3-12c0.2-0.7,0.4-1.5,0.6-2.2c3.8,2,8.5,2.8,13.9,2.4
			c5.1-0.4,9-2.8,11.7-7.3c0.7-1.2,1.5-2.9,2.5-5.1c0.7,0.3,1.5,0.4,2.4,0.4c1.3-0.1,2.6-0.7,3.9-1.8c1.1-1.1,1.7-1.7,1.7-1.8
			l-0.1-1.5l-0.2-0.1c-0.1-0.1-0.3-0.1-0.7-0.1c-0.2,0-0.7,0.6-1.6,1.7c-1.1,1.1-2.1,1.7-3.2,1.8c-1.5,0.1-2.5-0.8-3.2-2.8
			c-0.3-1-0.5-2-0.6-3.1c2.3-10.4,4.9-15.7,7.7-16c2.8-0.2,4.7,1.2,5.5,4.4c0.2,1,0.4,2.1,0.4,3.3c-0.1,1,0,1.6,0,1.6
			c-0.1,2-0.2,3.9-0.3,5.9c0,0,0.1,0,0.1-0.1l0,0c3.9,0.7,7,1.2,9.4,1.7c0.2-0.6,0.3-1.1,0.4-1.6c-0.1,0-0.1-0.1-0.2,0
			c0.8-3.5,1.6-6.2,2.2-8c0.8-2,2.1-3.7,3.9-5c1.9-1.3,4.3-1.5,7.2-0.6c0.1-0.1,0.2-0.1,0.2-0.1c0.1-0.1,0-0.3,0-0.6
			c0-0.2-0.3-0.6-1-1.1c-1.2-1-1.9-1.6-2.1-1.8c-2.1-1.9-3.2-3.8-3.3-5.6c-0.1-1.1,0-2.1,0.3-3c0.5-1.8,1.8-2.8,3.7-3
			c0.6,0,2.5,0.2,5.5,0.7c0.5-0.5,0.7-0.9,0.7-1.1c0-0.1-0.8-1.3-2.6-3.7c-1.7-2.4-2.6-3.8-2.6-4.4c-0.1-1,0.3-1.8,1.1-2.3
			c1.4-0.9,4.2-1.6,8.3-1.9c5.9-0.4,11.4,0.1,16.4,1.8c1.6,0.5,3.1,1.1,4.4,1.8c1.1,0.6,1.7,0.9,1.8,1c0.4-0.2,0.6-0.4,0.7-0.6
			c-0.2-0.4-0.6-1.6-1.4-3.7c-1-2.8-1.5-4.5-1.7-5.1l-0.1-0.3c6.9,0.7,12.9,2.1,18,4.1c2.9,3.5,5.2,7.4,7.1,11.7
			c0.7,1.5,1.3,3.1,1.8,4.6c-1.1,1.6-1.6,3.4-1.3,5.4c0,0.1,0,0.3,0.1,0.4c-0.3-2.1,0.2-3.9,1.3-5.5c0.1,0.2,0.2,0.4,0.2,0.6
			c-0.2,0.4-0.4,0.8-0.6,1.3c-0.1,0.2-0.2,0.4-0.2,0.7c0.3-0.7,0.6-1.2,0.9-1.8c0.1,0.3,0.2,0.5,0.3,0.8c-0.9,1.7-1,3.5-0.6,5.4
			c0.4,1.9,1.4,3.3,2.8,4.4c0,0.2,0,0.3,0,0.4c-0.1-0.1-0.2-0.2-0.4-0.3c-0.7-0.6-1.3-1.2-1.8-2c-0.1-0.2-0.2-0.3-0.3-0.5l-0.2,0
			c0.5,1,1.1,1.8,1.9,2.5c0.2,0.2,0.5,0.4,0.8,0.7c0.1,0.3,0.1,0.5,0.1,0.8c0.2,1.3,0.3,2.5,0.4,3.8c0.1,1.9,0.2,3.9,0.2,5.8
			c-2.1-6.2-3.2-9.3-3.5-9.3c-0.4,0-0.6,0.2-0.7,0.4c-0.1,0.2-0.1,0.5,0,0.9c0,0,1.3,4,4,12.1c2.7,8.1,4,12.5,4.1,13.2
			c0.1,2-0.7,3-2.6,3.2c-1.7,0.1-3.5-1-5.7-3.3c-0.4-0.4-1.2-1.4-2.4-2.8c-0.9-1-1.5-1.7-1.9-2c-0.1,0.1-0.3,0.2-0.5,0.3
			c-0.2,0.1-0.2,0.3-0.2,0.7c0,0.3,0.4,0.9,1.2,1.9c0.8,1.1,1.7,2.1,2.7,3.2c1.7,1.6,3.1,2.7,4.4,3.4c-0.3,1.8-0.5,3.7-0.8,5.5
			c-0.7,4.1-1.5,8.1-2.5,12.1c-0.2-0.2-0.5-0.4-0.7-0.6c-1.7-1.5-3.6-2.8-5.9-3.8l-1.1,0.2c-0.1-0.1-0.2,0.1-0.1,0.6
			c1.6,0.8,3.2,1.7,4.8,2.9c3.2,2.3,4.9,4.4,5,6.3c0,0.3-0.1,0.7-0.6,1.1c-0.3,0.4-0.5,0.5-0.7,0.5c-1.9,0.1-4.2-0.5-6.9-2.1
			c-1.6-0.9-4.3-2.6-8-5.1c-3.6-2.3-7-3.9-10.2-4.9c-4.3-1.4-8.7-1.9-13.3-1.6c-12.9,1-21.8,6.4-26.7,16.3
			c-1.6,3.2-2.7,6.8-3.3,10.8c-0.3,2.4-0.4,4.5-0.3,6.2c0.3,4.1,1.3,7.7,3.1,10.9c2.2,3.9,5.5,7.4,10.1,10.4c3.6,2.4,8.6,4.9,15,7.5
			c2.1,0.9,4.8,1.5,8.2,1.9c1.5,0.2,4.4,0.4,8.6,0.8c3.3,0.2,5.5,0.5,6.8,0.8c1.9,0.5,2.8,1.2,2.9,2.2c0,0.4-0.2,0.7-0.6,0.9
			C228.8,209.6,227.5,209.8,225.3,209.9z M183.2,211.4c7.9,3,16.1,5.6,24.2,7.9c1.7,0.5,3.4,0.8,5.2,1c-6.8,5.2-10.3,7.8-10.3,7.8
			c-1.7,0.1-6.3-2.4-13.8-7.6c-5.7-4-10.7-7.7-15.1-11.3c-1.5-1.2-3.1-2.5-4.7-4C173.4,207.5,178.3,209.6,183.2,211.4z M228.4,217.7
			c-0.8,0.3-1.6,0.5-2.4,0.8c0.2-0.8,0.4-1.6,0.6-2.4c0-0.1,0-0.2,0.1-0.4C227.6,216,228.2,216.7,228.4,217.7z M226,223.9
			c-0.9,1.3-2.1,2.9-3.5,4.7c-1.2-2.4-2.6-5-4.2-7.9c2.5,0,5-0.2,7.4-0.6c0.9-0.2,1.8-0.4,2.7-0.6C228,220.7,227.2,222.1,226,223.9z
			 M259.6,229.4c1.6,1.1,3.2,1.8,4.8,2.2c-0.7,1.9-1.3,2.9-1.8,2.9c-3,0.2-5-0.1-5.8-1.1c-0.3-0.3-0.5-0.7-0.5-1.2
			c0-0.5,0-0.8,0-0.9c0-0.3,0.2-1.7,0.7-4.1C257.6,228,258.5,228.7,259.6,229.4z M259.3,205.9c-0.1,0.4-0.2,0.9-0.3,1.4
			c-0.3,0-0.7,0-1.3,0.1c-1.6,0.1-2.6,0.8-3.2,2.1c-0.3,0.6-0.4,1.3-0.4,2c0.1,1,0.6,1.8,1.7,2.6c-0.5,0.8-0.7,2-0.6,3.9
			c0,0,0,0,0,0.1c-0.3,0.1-0.5,0.1-0.8,0.2c-0.9,0.1-1.7-0.5-2.2-1.8c-0.4-1.3-0.6-1.9-0.6-1.9c0.3-1.4,0.7-2.9,1.3-4.2
			c1.2-2.8,2.5-4.3,4-4.4C257.8,205.8,258.6,205.8,259.3,205.9z M320.9,245.4c0.2-7.1,0.8-14,1.7-20.9c0.7-5.7,1.8-11.2,3-16.8
			c1.6-6.9,3.6-13.6,6.2-20.2c2.6-6.8,6.4-12.9,11.4-18.2c-1,12.6-3.1,25-6.3,37.4c-2.6,10.1-6,19.8-10.3,29.3
			c-1.5,3.3-3.1,6.6-4.9,9.7C321.4,245.6,321.1,245.5,320.9,245.4z M286.1,204.1c0.3-2.2,0.7-4.4,1.1-6.5c1.2-5.9,2.6-10.7,4.3-14.3
			c3.8-1.5,8.3-3.4,13.4-5.6c13.7-6,24.1-9.2,31.4-9.7c2.2-0.1,4.3-0.2,6.1-0.1c-5.2,5.4-9.2,11.7-12,18.8
			c-3.1,7.8-5.5,15.7-7.2,23.9c-1.8,8.4-2.9,16.8-3.3,25.4c-0.1,3-0.2,6,0,9.1c-3.7-1.9-7.6-5-11.9-9.4c-4.1-4.2-7.9-8.8-11.5-14.1
			c-3.6-4.6-6.8-10-9.7-16.2C286.4,204.8,286.2,204.5,286.1,204.1z M271.4,202.9c-14.8-2.5-22.3-5.4-22.5-8.6
			c1.7-10.2,4.7-15.4,8.9-15.5c4.2-0.1,12.6,0.7,25.2,2.5c2.7,0.5,5.1,0.9,7,1.3c-0.8,1.5-1.5,2.9-1.9,4.2c-0.5,1.7-1,3.9-1.6,6.7
			c-0.7,3.4-1.2,5.7-1.4,6.8c-0.2,0.7-0.4,2.2-0.6,4.6c0,0-0.1,0-0.1,0c0,0.1,0,0.1,0.1,0.1c0,0.1,0,0.1,0,0.2c0,0-0.1,0-0.1,0
			C280.5,204.4,276.2,203.7,271.4,202.9z M269.5,209.2c-0.6-0.2-1.2-0.3-1.9-0.4c-1.5-0.3-3.7-0.7-6.7-1.2c0.4-1.9,0.8-3.6,1.1-5.3
			c0.9,0.2,1.6,0.4,2.3,0.6c2,0.5,4,1,6.1,1.5C270.3,205.3,270,206.9,269.5,209.2z M268.1,230.2c-1.9,0.1-4.2-0.6-7-2.2
			c-2.6-1.5-3.9-2.5-4-3.2c0-0.5,0.1-1,0.5-1.6c0.4-0.5,0.7-1.1,0.9-1.7c2.1,1.4,4.1,2.1,5.9,2l1-0.2c0.1-0.1,0.2-0.1,0.2-0.2
			c0,0,0-0.2,0-0.6c0-0.2-0.5-0.4-1.4-0.7c-0.5-0.2-1.5-0.4-3-0.9c-1.9-0.6-3.2-1.3-3.9-2c0,0,0,0,0,0c-0.3-0.5-0.4-1.1-0.5-1.7
			c0,0,0,0,0,0c0.1-0.4,0.2-0.9,0.5-1.5c0.1-0.2,0.2-0.5,0.2-0.7c0.2,0.1,0.4,0.2,0.6,0.2c0.8,0.3,3.8,1.1,8.9,2.5
			c0.3-0.2,0.5-0.2,0.6-0.2c0.1-0.1,0.2-0.4,0.2-0.7c0-0.3-0.7-0.7-1.9-1.1c-0.2-0.1-1.5-0.4-4.1-1.2c-4-1.1-6-2.2-6.1-3.3
			c0-0.4,0.1-0.9,0.4-1.2c0.3-0.5,0.9-0.8,1.7-0.9c1.4-0.1,3.2,0,5.1,0.4c1.6,0.3,2.7,0.6,3.3,0.8c0.4,0.2,1.2,0.4,2.5,0.7
			c1.4,0.3,2.3,0.5,2.6,0.5l0.6-0.2c0.1-0.1,0.2-0.1,0.2-0.2c0,0,0-0.2,0-0.6c0-0.3-0.4-0.6-1-0.9c0.2-1,0.4-1.9,0.6-2.8
			c0.7,0.4,1.3,0.8,1.5,1.4c0.7,1.2,1.3,2.4,1.9,3.8c0.6,1.4,1,3.1,1.1,5.1c0.2,2-0.1,4.1-0.8,6.4
			C274.3,227.7,271.8,229.9,268.1,230.2z M226.3,263.6c0.6-3.2,1-6.4,1.4-9.7c0.4-3.1,0.6-6.1,0.8-9.2c2.3,3.2,4.7,6,7.3,8.3
			c3.1,2.8,5.8,4.9,7.9,6.2c0.1,0,0.2,0.1,0.2,0.1c-0.1,0.1-0.3,0.1-0.4,0.1c-0.9,0.2-1.7,0.4-2.3,0.6c0,0.3,0.1,0.5,0.3,0.7
			c1.3,1.1,2.6,1.1,3.9,0c1.7-1.4,3-3.1,4-5.1c3.2-6,5.9-12.3,8.1-18.8c0.1-0.3,0.2-0.5,0.3-0.8c1.1,0.3,2.4,0.3,4,0.1
			c1.8-0.3,3.3-1.7,4.5-4.1c0.6,0.1,1.2,0.1,1.8,0c0.2,0,0.5,0,0.7-0.1c-0.7,1.9-1.4,4-2.1,6.2c-2.9,8.3-5,14-6.3,17.1
			c-2.4,5.6-4.9,9.8-7.5,12.6c-3.1,3.3-6.6,5.2-10.7,5.5c-2,0.2-4.5-0.8-7.5-2.8c-1.7-1.2-4.5-3.4-8.3-6.7
			C226.4,263.7,226.3,263.6,226.3,263.6z M195.3,327.2c-1,0.2-2,0.4-3,0.6c-2.2,0.4-4.3,0.7-6.5,1c5.8-6.8,10.8-14.1,14.9-22.1
			c3.6-6.9,6.6-14,9.1-21.4c3.3-10,5.6-20.2,6.7-30.7c1-8.5,1.3-17,0.9-25.5c-0.1-2.2-0.3-4.5-0.6-6.7c3.4,5.7,5.3,8.4,5.6,8.1
			c0.5-0.5,1.6-1.9,3.3-4.4c0.3-0.4,0.6-0.9,0.9-1.2c0.2,2.3,0.4,4.8,0.5,7.5c0.4,9.3-0.1,18.3-1.6,27.2c-0.2,1-0.3,1.9-0.5,2.9
			c0,0,0-0.1-0.1-0.1c0,0.1,0,0.2,0.1,0.3c-1.4,7.8-3.5,15.5-6.2,22.9c-3,8.5-7.1,17.1-12.2,25.9
			C203.1,318.1,199.3,323.3,195.3,327.2z M139,403.2c1.1,2.7,2.4,5.1,4.1,7.3c6.8,9.2,17.6,13.2,32.3,12.1c2.5-0.2,4.5-0.5,6-0.8
			c-1.8,1.1-4.4,1.9-7.5,2.1c-14,1.1-24.3-2.9-30.9-11.8c-1.8-2.4-3.3-5.1-4.4-8.1C138.8,403.7,138.9,403.5,139,403.2z M144.7,397.4
			c2.7,2.4,6.1,3.9,10.2,4.4c0,0.4,0,0.8,0,1.1c0,0.4,0.1,0.7,0.1,1c-0.1,0-0.2,0-0.4,0c-2.9,0.2-4.8,0.8-5.4,1.7
			c0.2,0.4,0.3,0.6,0.4,0.7c0.1,0.2,0.5,0.2,1.1,0.2c1.8-0.1,3.2-0.3,4-0.6c0.2-0.1,0.4-0.2,0.6-0.3c0.3,0.9,0.7,1.6,1.2,2.3
			c-0.3,0.1-0.9,0.4-1.5,0.7c-1.4,0.7-2.3,1.3-2.5,1.7c0.2,0.4,0.3,0.6,0.4,0.7c0.1,0.2,0.5,0.2,1.1,0.2c0.6,0,1.6-0.5,2.8-1.3
			c0.4-0.3,0.8-0.5,1-0.8c0.5,0.4,1.1,0.7,1.6,0.9c0.2,0.1,0.3,0.1,0.5,0.2c-0.2,0.1-0.4,0.2-0.6,0.3c-1.5,0.9-2.5,1.8-3.1,2.7
			c0.4,0.6,0.8,0.9,1,0.9c0.6,0,1.8-0.7,3.5-1.9c0.8-0.6,1.4-1,1.8-1.4c1.6,0.2,3.6,0.4,5.9,0.4c4.5,0.1,7.6,0.4,9.1,1
			c2.8,1,4.3,3,4.6,6.1c0,0.2,0,0.3,0,0.5c-1.8,1-4.2,1.6-7.1,1.8c-14,1.1-24.3-2.9-30.9-11.8c-1.7-2.3-3.1-4.9-4.2-7.7
			C141.5,399.7,142.9,398.4,144.7,397.4z M131,350.9c3.8,0.1,7.8,0,11.9-0.3c2.6-0.2,5.1-0.5,7.6-0.8c0.6,0.7,1.2,1.3,1.6,1.8
			c10.5,11.9,15.9,19,16.1,21.5c0,0.5-0.5,1.9-1.5,4.5c-1,2.5-3,7.2-6,14.2c-1.6,3.7-2.7,6.5-3.4,8.4c-6.7-0.4-11.4-2.8-14.1-7.1
			c1.6-1.6,3.2-3.5,4.8-5.9c1.8-2.5,3.2-5,4.3-7.5c1.1-2.5,1.7-4.3,1.6-5.4c-0.1-1.1-1.3-2.8-3.5-5c-2.3-2.2-5-4.9-8.1-8
			c-3.2-3.1-5.5-5.3-7.1-6.7C134.4,353.7,133,352.5,131,350.9z M82.5,422.5c2.9,2.9,6.5,5.4,10.8,7.7c4.6,2.4,9.5,4.2,14.8,5.5
			c4.6,1.1,8.4,1.5,11.3,1.3c1.7-0.1,3.2-0.5,4.5-1.2c-0.3,0.6-0.6,1.2-0.9,1.8c-1.1,0.7-2.4,1-3.9,1.1c-6.4,0.5-13.5-1-21.1-4.5
			c-2.9-1.3-5.5-2.7-8-4.3c-2.1-1.4-3.6-2.6-4.6-3.5c-1.1-1.1-2-2.1-2.8-3C82.5,423.1,82.4,422.8,82.5,422.5z M89.4,411.8
			c2.6,2.5,5.4,4.2,8.7,5.1c0.1,0.6,0.3,1.2,0.6,1.8c-0.8,0.2-1.6,0.5-2.4,1.1c-1.1,0.7-1.7,1.3-1.8,1.9c0,0.1,0.1,0.3,0.2,0.5
			c0.1,0.2,0.3,0.3,0.7,0.2c0.6,0,1.6-0.4,2.9-1.2c0.6-0.4,1.1-0.7,1.4-0.9c0.4,0.5,0.9,0.9,1.4,1.3c-0.3,0.3-0.6,0.7-0.9,1.1
			c-1.2,1.4-1.8,2.4-1.8,3c0,0.3,0.3,0.4,0.8,0.3c0.7-0.1,1.5-0.8,2.5-2.2l0.8-1.4c0.6,0.3,1.4,0.5,2.3,0.8
			c-0.3,0.3-0.6,0.7-0.9,1.2c-0.8,1.3-1.4,2.3-1.5,2.9c0,0.2,0.1,0.4,0.2,0.4c0.1,0.2,0.3,0.2,0.7,0.2c0.7-0.1,1.5-0.7,2.4-2.1
			c0.5-0.8,0.9-1.6,1.1-2.3c1.3,0.3,2.9,0.5,4.7,0.7c4.4,0.5,7.4,1,8.9,1.6c2.8,1.1,4.3,3.1,4.5,5.9c0,0.2,0,0.6-0.1,0.9
			c-1.2,1.4-3,2.2-5.3,2.4c-6.4,0.5-13.5-1-21.1-4.5c-2.9-1.3-5.5-2.7-8-4.3c-2.1-1.4-3.6-2.6-4.6-3.5c-1.1-1.1-2-2.1-2.9-3
			c0.4-1.5,1.2-2.9,2.3-4.2C86.1,414.3,87.5,413.1,89.4,411.8z M59.7,267.8c0.1-0.4,0.2-0.7,0.3-1.1c1.2,1.6,2.4,3.1,3.6,4.6
			c0.9,1.9,1.9,3.8,2.8,5.7c0.9,1.7,1.7,3.5,2.4,5.2c0.9,2,7.7,14.7,7.3,25.1c0.1,0.6,0.3,1.2,0.5,1.7c-3,0.5-5,1.6-6.1,3.4
			c-0.5,1-0.8,2.1-0.7,3.5c0.2,2.4,1,4.4,2.4,5.9c2.3,2.5,5.9,3.6,10.9,3.3c5.4-0.4,9.2-2,11.4-4.7c5-5.8,1.3-14.2,1-15.2
			c-0.5-1.4-1.5-2.9-2.8-4.5c-0.8-0.9-4-3.9-3.9-3.9c-0.1-0.2-0.3-0.4-0.4-0.6c0.2,0,2,0.9,2.7,1.4c7,5.2,14.3,9.7,22,13.7
			c7.6,4,15.5,7.6,23.5,10.9c8,3.2,16.2,5.8,24.5,7.5c8.5,1.7,16.9,2.1,25.5,1.2c3.4-0.4,6.7-1,9.9-1.9c0,0,0.1,0,0.1,0
			c0,0-0.1,0.1-0.1,0.1c-0.3,0.6-1.3,1.3-2.8,2.1c-1.5,0.8-3.7,1.4-6.5,1.9c-2.8,0.4-5.1,0.7-6.6,0.8c-1.4,0.1-2.9,0.2-4.3,0.2
			l-3.8,0.4c-0.1,0.5,0.1,0.8,0.6,1c1.2,0.4,2.5,0.5,3.7,0.4c2.4-0.1,4.9-0.2,7.3-0.5c-0.3,0.3-0.6,0.6-0.9,0.9
			c-10.9,9.2-32.6,12-40.4,12.6c-13,1-25-0.6-35.9-4.6c-0.2-0.3-0.3-0.6-0.5-0.9c-2.3-3.8-3.5-5.7-3.5-5.7c-0.4,0-0.6,0.1-0.7,0.3
			c-0.1,0.1-0.1,0.4,0,0.9c0,0.4,1.1,2.6,3.4,6.5c1.3,2.3,3.8,6.6,7.3,12.8c7.1,12.6,10.8,20,11,22.4c0.2,2-1.4,4.9-4.5,8.4
			c-0.9,1-2.1,2.3-3.9,4.1c-1.5,1.6-2.5,2.6-3,3.2c-4,4.9-7.8,10.3-11.3,15.9c-0.7,1.1-1.4,2.2-2,3.3c-4.3-0.9-8-3.4-10.9-7.4
			c2.6-2.4,5.2-5.1,7.6-8c2.8-3.2,5.4-6.3,7.7-9.4c2.3-3,3.8-5.9,4.3-8.6c0.1-0.7,0-2.3-0.4-4.8c-0.4-2.5-1.8-5.3-4.2-8.6
			c-2.4-3.2-4.8-6.5-7.2-9.8c-2.4-3.3-4.8-6.7-7.3-10c-0.7-1-1.4-1.9-2-2.9c-1.9-3.2-4.2-6.2-6.7-9c-2.7-3-5.8-5.6-9.3-7.6
			c-3.5-2.1-6.8-4.4-9.9-7.1c-0.6-0.5-1.1-1.2-1.6-1.9c-1.6-2.7-2.7-5.7-3.1-8.9c-0.5-3.9-0.8-7.9-0.9-11.8
			c-0.1-3.8,0.2-7.6,0.8-11.4C56.2,288,59.3,269.3,59.7,267.8z M75.5,293.7c0.6-0.7,1.1-1.3,1.6-1.7c1.5-1.4,3.4-2.1,5.5-2.3
			c0.3,0,0.6,0,0.9,0c0.8,1.8,1.7,3.6,2.7,5.4c0,0,0,0.1,0,0.1c0,0,0,0-0.1,0c0,0-0.1,0.1-0.2,0.1c-3.2,0.3-6.1,1.3-8.5,3.1
			c-0.2-0.4-0.3-0.8-0.5-1.1C76.5,296.1,76,294.9,75.5,293.7z M88.6,299.6c3.8,3.3,5.9,7,6.2,11.5c0.2,2.8-0.1,5-0.8,6.5
			c-1.6,3.4-5.3,5.3-11.1,5.7c-4.4,0.3-7.7-0.7-9.6-3c-1.1-1.3-1.7-2.8-1.9-4.5c-0.2-2.9,1.7-4.7,5.9-5.2c0.2,0.4,0.5,0.8,0.8,1.2
			c0.9,1.2,1.3,1.9,1.4,1.9c0.4,0.7,0.7,1.3,0.7,1.9c0,0.6-0.2,1.3-0.8,1.9c-0.6,0.6-0.9,1-0.9,1.2c0,0.3,0,0.5,0.1,0.5
			c0.1,0,0.1,0,0.1,0c0,0.1,0.1,0.2,0.2,0.2c0.1,0.1,0.3,0.1,0.7,0c1.1-0.1,1.8-0.7,2.1-1.9c0.1-1.2,0.2-1.8,0.2-1.8
			c-0.1-1.1-0.8-2.7-2.1-4.7c-1.4-2-2.1-3.7-2.2-5c-0.1-1,0-1.9,0.3-2.5c0.1-0.3,0.4-0.8,0.9-1.5c0.6-0.8,0.9-1.9,1-3.2
			c1.7-0.9,3.6-1.5,5.7-1.8C86.8,298.1,87.8,298.9,88.6,299.6z M50.3,237.8c-0.9-2.7-1.3-5.4-1.1-8.2c0.1-0.9,0.3-1.6,0.7-2.3
			c1.6-2.9,4-5.1,7-6.5c5.6-2.7,11.3-5.1,17.1-7.3c3.7-1.5,7.4-3,11-4.5c5.1-2.1,10.1-4.1,15.2-6.1c3-1.1,5.9-2.2,8.9-3.2
			c0.8-0.3,1.6-0.6,2.5-0.8c0.9-0.2,1.7-0.5,2.6-0.7c1.3-0.2,2.6-0.5,3.9-0.7c2.8-0.4,5.6-0.4,8.4,0c2.1,0.2,3.9,1.2,5.2,2.9
			l0.7-0.4c-0.1-1.5-0.9-2.6-2.6-3.3c-3.4-1.4-7-1.8-10.6-1.2c-7,1.1-13.7,3.1-20.2,5.9c-2.9,1.2-5.8,2.4-8.7,3.6
			c0.5-0.7,0.9-1.4,1.3-2.2c1.7-2.8,3.4-5.6,5.1-8.4c1.8-3.1,3.6-6.1,5.4-9.2c2.1-3.6,4.2-7.2,6.2-10.8c1.8-3,3.4-6.1,5-9.1
			c0.7-1.4,1.4-2.7,2-4.1c1.7,2.5,3.6,5,5.6,7.4c5.5,6.7,11.5,12.7,18.2,18c6.6,5.4,13.6,10.1,21,14.1c1.1,0.6,2.3,1.2,3.4,1.8
			c2.7,2.4,5,4.5,7,6.2c3.7,3.3,9.7,7.6,17.8,13.1c8.5,5.6,13.3,8.2,14.4,7.8c1.2-0.5,3.4-1.9,6.7-4.3c2.8-2.1,4.9-3.6,6.1-4.4
			c0.5,3.6,0.8,7.8,1,12.5c0.4,9.3-0.1,18.3-1.6,27.2c-1.4,8.9-3.6,17.6-6.7,26c-3,8.5-7.1,17.1-12.2,25.9
			c-4.1,7.1-8.2,12.6-12.6,16.6c-5.8,0.4-11.6,0.2-17.4-0.7c-1.2-0.2-2.4-0.4-3.6-0.6c1-1,2.1-2.2,3.1-3.6c1.2-1.6,2.1-3.2,3-4.9
			c0.7-1.5,1.1-2.5,1-2.9c0-0.4-0.2-0.6-0.5-0.6c-0.2,0-0.6,0.8-1.2,2.2c-0.8,2-1.6,3.6-2.3,4.8c-1.2,2-2.6,3.6-4.3,4.8
			c-5-1-9.9-2.3-14.7-3.9c-7.4-2.5-14.6-5.3-21.6-8.6c-3.3-1.5-6.5-3.1-9.7-4.7c1.1-1.2,2.2-2.9,3.4-5c0.9-1.5,1.7-3.2,2.6-5.1
			c0.7-1.6,1.1-2.6,1.2-2.7l-0.1-0.7c-0.1,0-0.2,0-0.4-0.1c-0.1,0-0.5,0.8-1.2,2.3c-1,2.1-1.9,3.9-2.6,5.2c-1.4,2.4-2.6,4.3-3.7,5.6
			c-4.4-2.3-8.8-4.8-13-7.5c-1.7-1-3.3-2.1-5-3.2c0.5-0.6,1-1.3,1.6-2.2c1.8-2.6,2.7-4.1,2.6-4.7c0-0.2-0.1-0.3-0.1-0.3
			c0,0-0.2-0.1-0.4,0c0,0-0.9,1.3-2.6,3.7c-0.8,1.1-1.5,2-2.1,2.8c-2.9-2-5.7-4.1-8.4-6.3c-1.1-2.2-2.1-4.3-2.9-6.4
			c-2.1-5-5.2-13-9.3-24.1c-3.1-8.3-5.3-14.6-6.6-18.8c1.7-4,3.5-7.9,5.6-11.6c1.1-2,2.2-4,3.4-5.9c2.1-0.8,4.3-1.7,6.7-2.5
			c7.8-2.7,14.9-4.3,21.4-4.8c5.6-0.4,9.4-0.2,11.5,0.7c0.7,0.2,1.2,0.6,1.6,1c0.4,0.4,0.6,0.6,0.7,0.7c0.3-0.2,0.5-0.2,0.6-0.3
			c0.1-0.2,0.2-0.4,0.2-0.8c-0.1-0.9-1.1-1.7-3-2.3c-2-0.7-4.5-1-7.5-0.9c0-0.1-1.3-0.1-3.9,0.1c-6.5,0.5-13.5,2-20.8,4.6
			c-1.8,0.6-3.8,1.4-6,2.3c0.1-0.2,0.3-0.4,0.4-0.6c-0.8,0.3-1.5,0.6-2.2,0.9c-0.1,0.2-0.3,0.4-0.4,0.7c-1.6,0.7-3.3,1.5-5,2.3
			c-3.4,1.6-5.4,3.4-6.1,5.5c-0.3,0.8-0.4,1.7-0.3,2.8c0,0.6,0.1,1.5,0.3,2.7c0.2,3,2.6,10.7,7.1,23.2c3.6,10,6.9,18.5,9.9,25.6
			c0.2,0.6,0.6,1.3,0.8,2c-3,0.5-5.7,1.9-7.9,4c-2.1-5-4.2-9.9-6.4-14.8c-0.7-1.6-1.3-3.1-2.1-4.6c-0.3-0.7-0.7-1.4-1-2.2
			c0-0.1-0.1-0.3-0.1-0.4c-0.1-0.1-0.1-0.2-0.2-0.3c-0.2-0.4-0.4-0.8-0.7-1.3c-0.3-0.7-0.7-1.4-1-2.1c-1.3-2.5-2.5-5.1-3.7-7.7
			c-1.3-2.8-2.7-5.7-4.1-8.5C53.5,246.2,51.7,242,50.3,237.8z M66.2,234.6c-0.1-0.9,0-1.7,0.3-2.3c0.6-1.6,2.7-3.3,6.1-4.9
			c0.7-0.3,1.4-0.7,2.1-1c-0.5,0.8-1,1.6-1.4,2.4c-1.8,3.1-3.5,6.3-5,9.5c-0.4,0.7-0.7,1.5-1,2.2c-0.4-1.5-0.7-2.6-0.7-3.3
			C66.3,236,66.2,235.2,66.2,234.6z"/>
		<path d="M235.6,67.4c-0.3-0.1-0.6-0.2-0.9-0.3c-0.4-0.2-0.8-0.3-1.3-0.5c-7.5-2.9-13-4.3-16.5-4c-1.3,0.1-1.7,0.6-1.4,1.4
			c0.1,1,0.4,2.1,0.9,3.3c0.9,2.1,1.5,3.3,1.6,3.7l-0.1,0.3c-0.1-0.1-0.7-0.3-1.8-0.8c-1.3-0.5-2.7-1-4.2-1.4
			c-4.7-1.3-9.6-1.7-14.9-1.4c-5.2,0.4-8.6,1.5-10.1,3.2c-0.5,0.6-0.8,1.2-0.9,1.9c0,0.2,0,0.5,0.1,1.1c0.1,0.9,0.5,2,1.4,3.2
			c1.1,1.4,1.8,2.4,2.3,3.1l0,0.2c-0.8,0.1-2,0-3.6-0.2c-2.5,0.2-4.1,1.5-4.8,4c-0.2,0.8-0.4,1.7-0.4,2.6c0,0.8,0,1.2,0,1.2
			c0,1,0.1,1.7,0.1,1.9c0,0.4,0.1,0.8,0.3,1.1c0.8,1,1.9,2.3,3.2,4l0,0.2c-3.9,0-6.9,2.4-8.8,7.1c-0.7,1.5-1.2,3.4-1.7,5.6
			c-0.2,1-0.4,1.8-0.5,2.4c-1.6-0.3-3.6-0.6-5.8-1c0-1.5,0-3.1-0.1-4.6c0-0.2,0-0.9,0-2.2c0-1.4-0.2-2.7-0.5-3.8
			c-0.8-3.5-2.8-5.1-5.9-4.9c-3.6,0.3-6.3,3.3-8.4,9c-0.6,1.9-1.2,3.9-1.6,6.1c-0.3,1.7-0.4,2.7-0.4,3.1c0.1,1.8,0.4,3.2,0.7,4.1
			c0.3,0.8,0.7,1.4,1.2,1.9c-0.3,0.7-0.5,1.3-0.7,1.8c-2.6,6-6.7,9.2-12.4,9.6c-5.3,0.4-9.7-0.3-13.3-2.2c0.7-2.8,1.5-5.6,2.3-8.3
			c1.2-4,2.4-8,3.6-12c1.2-3.9,2.4-7.7,3.7-11.6c1.3-4.1,3-8,5.1-11.8c3-5.4,6.6-10.3,10.8-14.7c7-7.4,15.3-12.9,24.8-16.6
			c5.1-2,10.4-3.4,15.9-4.3c4.7-0.8,9.5-1.2,14.3-1.2c2.1,0,4.1,0.1,6.1,0.2c2,0.1,4,0.3,6,0.5c3.9,0.4,7.8,1.1,11.7,2.1
			c3.4,0.9,6.7,1.8,10,3c3.7,1.2,7.4,2.7,10.9,4.4c2.7,1.3,5.4,2.9,7.9,4.6c2.8,1.9,5.3,4.1,7.7,6.5c1.7,1.8,3.3,3.8,4.7,5.8
			c0.9,1.2,1.6,2.5,2.2,3.8l0,0c-0.9-1-1.9-1.9-2.9-2.8c-2.7-2.5-6.3-5.2-11-8.1c-4.7-2.9-10.4-5.2-17-6.9l-1.1,0.2
			c-0.1,0-0.1,0.2-0.1,0.8c0.1,0.7,0.7,2.7,2,5.9c1.3,3.1,2,4.8,2.1,5l-0.1,0.2c-2.7-1.5-6.1-3-9.9-4.5
			C235.7,67.5,235.7,67.5,235.6,67.4z"/>
		<path fill="#FCD4A4" d="M273.9,78c0,0-0.1-0.1-0.1-0.1l0,0C273.9,77.9,273.9,77.9,273.9,78z"/>
		<path fill="#FCD4A4" d="M189.9,80.5C189.8,80.5,189.8,80.5,189.9,80.5l-0.1-0.2L189.9,80.5z"/>
		<path fill="#FCD4A4" d="M184.8,95.3c-0.1,0-0.2,0-0.3,0l0-0.2L184.8,95.3z"/>
		<path fill="#FCD4A4" d="M245.8,72.2c0,0-0.1,0-0.1-0.1l0.1-0.2L245.8,72.2z"/>
		<path fill="#FCD4A4" d="M225.3,209.9c2.1-0.2,3.5-0.3,4.1-0.5c0.5-0.2,0.7-0.5,0.6-0.9c-0.1-1-1-1.7-2.9-2.2
			c-1.3-0.3-3.6-0.6-6.8-0.8c-4.2-0.3-7-0.6-8.6-0.8c-3.4-0.4-6.1-1.1-8.2-1.9c-6.4-2.6-11.4-5.1-15-7.5c-4.6-3-7.9-6.5-10.1-10.4
			c-1.7-3.2-2.8-6.8-3.1-10.9c-0.1-1.7,0-3.8,0.3-6.2c0.6-3.9,1.6-7.5,3.3-10.8c4.9-9.9,13.8-15.4,26.7-16.3c4.6-0.3,9,0.2,13.3,1.6
			c3.1,1,6.6,2.7,10.2,4.9c3.7,2.5,6.4,4.1,8,5.1c2.7,1.5,5,2.2,6.9,2.1c0.1,0,0.3-0.2,0.7-0.5c0.4-0.4,0.6-0.8,0.6-1.1
			c-0.1-1.9-1.8-4-5-6.3c-1.6-1.2-3.2-2.1-4.8-2.9c0-0.6,0-0.7,0.1-0.6l1.1-0.2c2.2,1,4.2,2.3,5.9,3.8c0.2,0.2,0.5,0.4,0.7,0.6
			c1-4,1.9-8,2.5-12.1c0.3-1.8,0.6-3.7,0.8-5.5c-1.3-0.6-2.8-1.8-4.4-3.4c-1-1-1.9-2.1-2.7-3.2c-0.8-1-1.1-1.6-1.2-1.9
			c0-0.4,0.1-0.6,0.2-0.7c0.2-0.1,0.4-0.2,0.5-0.3c0.4,0.3,1.1,1,1.9,2c1.2,1.4,2,2.4,2.4,2.8c2.2,2.4,4,3.5,5.7,3.3
			c1.9-0.1,2.8-1.2,2.6-3.2c-0.1-0.7-1.4-5.1-4.1-13.2c-2.7-8-4-12.1-4-12.1c0-0.5,0-0.8,0-0.9c0.1-0.2,0.3-0.4,0.7-0.4
			c0.3,0,1.4,3.1,3.5,9.3c0-1.9-0.1-3.8-0.2-5.8c-0.1-1.3-0.2-2.5-0.4-3.8c-0.1-0.1-2.7-2.3-1.6-1.3c0.5,0.5,1,0.9,1.6,1.3
			c0-0.3-0.2-1.5-0.2-1.7c-1.5-1.1-2.4-2.6-2.8-4.4c-0.5-2-0.3-3.8,0.6-5.4c-0.1-0.3-1-3.7-2.4-6.4c-2.2-4.1-1.9-5.6-7.1-11.7
			c-5.1-2-11.1-3.4-18-4.1l0.1,0.3c0.1,0.7,0.7,2.4,1.7,5.1c0.7,2.1,1.2,3.3,1.4,3.7c-0.1,0.3-0.3,0.5-0.7,0.6
			c-0.1-0.1-0.7-0.4-1.8-1c-1.4-0.7-2.8-1.3-4.4-1.8c-5-1.6-10.5-2.2-16.4-1.8c-4.1,0.3-6.9,0.9-8.3,1.9c-0.8,0.5-1.2,1.3-1.1,2.3
			c0,0.5,0.9,2,2.6,4.4c1.7,2.4,2.6,3.6,2.6,3.7c0,0.2-0.2,0.5-0.7,1.1c-3.1-0.5-4.9-0.8-5.5-0.7c-1.9,0.1-3.1,1.1-3.7,3
			c-0.3,0.9-0.4,1.9-0.3,3c0.1,1.8,1.2,3.7,3.3,5.6c0.2,0.2,0.9,0.8,2.1,1.8c0.7,0.5,1,0.9,1,1.1c0,0.3,0,0.5,0,0.6
			c0,0-0.1,0.1-0.2,0.1c-3-0.9-5.4-0.7-7.2,0.6c-1.9,1.3-3.2,3-3.9,5c-0.6,1.8-1.4,4.4-2.2,8c0.1,0,0.1,0,0.2,0
			c-0.1,0.5-0.3,1.1-0.4,1.6c-2.4-0.4-5.5-1-9.4-1.7l0,0c0,0,0,0-0.1,0.1c0.1-2,0.3-3.9,0.3-5.9c0,0,0-0.5,0-1.6
			c0-1.2-0.2-2.3-0.4-3.3c-0.8-3.2-2.6-4.6-5.5-4.4c-2.8,0.2-5.3,5.5-7.7,16c0,1.1,0.2,2.1,0.6,3.1c0.6,1.9,1.7,2.9,3.2,2.8
			c1.1-0.1,2.1-0.7,3.2-1.8c0.9-1.1,1.4-1.7,1.6-1.7c0.3,0,0.5,0,0.7,0.1l0.2,0.1l0.1,1.5c-0.1,0.1-0.6,0.6-1.7,1.8
			c-1.3,1.1-2.6,1.7-3.9,1.8c-0.9,0.1-1.7,0-2.4-0.4c-0.9,2.2-1.7,3.8-2.5,5.1c-2.7,4.5-6.6,6.9-11.7,7.3c-5.4,0.4-10-0.4-13.9-2.4
			c-0.2,0.7-0.4,1.5-0.6,2.2c-1,4-2.1,8-3.3,12c-0.1,0.4-0.2,0.7-0.3,1.1c-1,3.4-2.2,6.7-3.5,10c-0.7,1.7-1.4,3.5-2.2,5.2
			c4.3,6.3,9.1,12,14.6,17.4c5.5,5.5,11.4,10.4,17.7,14.9c4.9,3.5,10,6.6,15.4,9.3c0.4,0.1,0.7,0.2,1.1,0.4c0.1,0.1,0.2,0.2,0.4,0.4
			c2.3,1.1,4.7,2.2,7.1,3.2c10.2,4.2,20.5,8.1,31,11.6c4.5,1.5,9.1,2.4,13.9,2.8c2.6,0.2,5,0,7.3-0.4c0.6-3.4,1.1-5.7,1.3-6.9
			c0,0,0-0.1,0.1-0.2l-0.2,0c-2.7,0.2-4.8,0-6.4-0.5c-0.8-0.3-1.3-0.6-1.6-0.8c0.1,0,0.2,0,0.3,0c0.9-0.1,1.6-0.2,2.2-0.4
			C220.3,210.2,222.2,210.2,225.3,209.9z M228.3,97.7c-2.9,0.7-5.7,0.3-8.3-1.3c-1.6-1-2.8-2.2-3.7-3.7c-0.6-0.9-1-2-1.2-3.1
			c-0.7-3-0.3-5.7,1.3-8.3c1.6-2.6,3.9-4.3,6.8-5c3-0.7,5.7-0.3,8.3,1.3c2.6,1.6,4.2,3.8,4.9,6.8c0.3,1.1,0.4,2.2,0.3,3.4
			c-0.1,1.7-0.7,3.4-1.6,4.9C233.5,95.3,231.2,96.9,228.3,97.7z M161.6,108.3c-0.1,1.4-0.8,2.2-2.1,2.3c-1.7,0.1-2.7-0.9-2.8-3
			c0-0.3,0-0.4,0.1-0.5c0.2-0.1,1.2-0.7,3-1.8c0-0.4-0.2-1-0.7-1.9c-0.6-1-0.9-1.6-0.9-1.9c0-0.4,0-0.6,0.2-0.7
			c0.2-0.1,0.4-0.2,0.5-0.3c1.2,1.1,1.9,2,2.2,2.8c0.1,0.4,0.3,1.3,0.4,2.8C161.6,106.9,161.7,107.6,161.6,108.3z M174.6,115.5
			c-2.4-0.4-5.6-1-9.3-1.7c0-0.1,0-0.1,0-0.2c0.1-0.5,0.2-1,0.2-1.4c4,0.6,7.1,1.1,9.4,1.6C174.8,114.3,174.7,114.9,174.6,115.5z
			 M174.3,118.7c-2.5-0.5-5.7-1-9.5-1.7c0.1-0.5,0.1-1.1,0.2-1.6c3.9,0.6,7.1,1.1,9.4,1.5C174.4,117.5,174.3,118.1,174.3,118.7z
			 M164.4,120.1c0.1-0.5,0.1-1,0.2-1.6c4,0.6,7.2,1.1,9.7,1.6c0,0.6,0,1.2-0.1,1.8C171.6,121.4,168.3,120.8,164.4,120.1z M177.4,187
			c0.3,0.5,0.7,1,1,1.5l-0.1,0.7l-0.6,0.4c-6.5-7.7-8.4-16.6-5.7-26.5l1.7-0.5C171.4,171.4,172.6,179.5,177.4,187z"/>
		<path d="M165,115.3c3.9,0.6,7.1,1.1,9.4,1.5c-0.1,0.6-0.1,1.2-0.1,1.8c-2.5-0.5-5.7-1-9.5-1.7C164.9,116.5,165,115.9,165,115.3z"
			/>
		<path d="M164.6,118.5c4,0.6,7.2,1.1,9.7,1.6c0,0.6,0,1.2-0.1,1.8c-2.6-0.5-5.9-1.1-9.8-1.7C164.5,119.6,164.5,119.1,164.6,118.5z"
			/>
		<path d="M165.3,113.6c0.1-0.5,0.2-1,0.2-1.4c4,0.6,7.1,1.1,9.4,1.6c-0.1,0.5-0.2,1.1-0.3,1.7c-2.4-0.4-5.6-1-9.3-1.7
			C165.2,113.8,165.3,113.7,165.3,113.6z"/>
		<path d="M161.6,108.3c0.1-0.7,0-1.4-0.1-2.2c-0.1-1.5-0.2-2.4-0.4-2.8c-0.3-0.9-1-1.8-2.2-2.8c-0.2,0.1-0.3,0.2-0.5,0.3
			c-0.2,0.1-0.2,0.3-0.2,0.7c0,0.3,0.3,0.9,0.9,1.9c0.5,0.9,0.7,1.6,0.7,1.9c-1.8,1-2.8,1.6-3,1.8c-0.1,0.1-0.1,0.3-0.1,0.5
			c0.2,2.1,1.1,3.1,2.8,3C160.8,110.5,161.5,109.7,161.6,108.3z M160,107.7c0,0.4-0.1,0.6-0.2,0.8c-0.1,0.1-0.2,0.2-0.3,0.3
			c-0.6-0.4-0.9-0.6-0.9-0.7c-0.1-0.2-0.2-0.4-0.2-0.8l0-0.1c0.5-0.1,0.9-0.1,1.1-0.1C159.8,107.1,159.9,107.3,160,107.7z"/>
		<path fill="#FCD4A4" d="M159.5,108.7c-0.6-0.4-0.9-0.6-0.9-0.7c-0.1-0.2-0.2-0.4-0.2-0.8l0-0.1c0.5-0.1,0.9-0.1,1.1-0.1
			c0.3,0,0.5,0.2,0.5,0.5c0,0.4-0.1,0.6-0.2,0.8C159.7,108.5,159.6,108.6,159.5,108.7z"/>
		<path d="M228.3,97.7c3-0.7,5.2-2.4,6.8-5c1-1.6,1.5-3.2,1.6-4.9c0.1-1.1,0-2.2-0.3-3.4c-0.7-3-2.4-5.3-4.9-6.8
			c-2.6-1.6-5.4-2-8.3-1.3c-2.9,0.7-5.2,2.4-6.8,5c-1.6,2.6-2,5.4-1.3,8.3c0.3,1.2,0.7,2.2,1.2,3.1c0.9,1.5,2.1,2.7,3.7,3.7
			C222.5,97.9,225.3,98.4,228.3,97.7z M235.8,87.3c-1.4-1.1-3-2.4-4.9-3.9c-2.3-1.8-4.9-3.8-8-6.2c0.2,0,0.3-0.1,0.4-0.1
			c2.7-0.7,5.2-0.3,7.6,1.2c2.4,1.5,3.9,3.5,4.5,6.2C235.7,85.5,235.8,86.4,235.8,87.3z M228,96.7c-1.2,0.3-2.3,0.4-3.4,0.3
			c-1.4-0.2-2.8-0.6-4.1-1.4c-1.4-0.8-2.4-1.8-3.2-3.1c-0.6-0.9-1-2-1.3-3.1c-0.6-2.7-0.2-5.2,1.2-7.6c1.2-2,2.9-3.4,5-4.2
			c2.1,1.7,4.5,3.6,7.1,5.7c2.5,2,4.6,3.7,6.4,5.1c-0.2,1.3-0.7,2.6-1.4,3.8C232.8,94.5,230.7,96,228,96.7z"/>
		<path fill="#FDD17A" d="M222.9,77.3c0.2,0,0.3-0.1,0.4-0.1c2.7-0.7,5.2-0.3,7.6,1.2c2.4,1.5,3.9,3.5,4.5,6.2
			c0.2,0.9,0.3,1.8,0.3,2.7c-1.4-1.1-3-2.4-4.9-3.9C228.6,81.7,226,79.6,222.9,77.3z"/>
		<path fill="#FFFFFF" d="M228,96.7c2.7-0.7,4.8-2.2,6.2-4.5c0.8-1.2,1.2-2.5,1.4-3.8c-1.8-1.5-4-3.2-6.4-5.1c-2.6-2.1-5-4-7.1-5.7
			c-2.1,0.8-3.8,2.1-5,4.2c-1.4,2.4-1.8,4.9-1.2,7.6c0.3,1.2,0.7,2.2,1.3,3.1c0.8,1.2,1.9,2.3,3.2,3.1c1.3,0.8,2.7,1.3,4.1,1.4
			C225.7,97.1,226.9,97,228,96.7z M230.5,90.3c0,0.1,0,0.2,0,0.3c0.1,0.4,0.3,0.5,0.7,0.4c0.2,0,0.4-0.2,0.4-0.4
			c0.1-0.1,0.1-0.2,0-0.3c-0.1-0.4-0.3-0.5-0.7-0.4c0,0,0,0,0,0c0.2-0.1,0.3-0.2,0.5-0.2c0.9-0.2,1.5,0.1,1.7,1c0.1,0.3,0,0.5,0,0.7
			c-0.1,0.5-0.5,0.8-1,0.9c-0.4,0.1-0.8,0-1.1-0.2c-0.3-0.2-0.5-0.5-0.5-0.8C230.3,90.9,230.4,90.6,230.5,90.3z"/>
		<path d="M230.5,90.6c0.1,0.4,0.3,0.5,0.7,0.4c0.2,0,0.4-0.2,0.4-0.4c0.1-0.1,0.1-0.2,0-0.3c-0.1-0.4-0.3-0.5-0.7-0.4c0,0,0,0,0,0
			c0.2-0.1,0.3-0.2,0.5-0.2c0.9-0.2,1.5,0.1,1.7,1c0.1,0.3,0,0.5,0,0.7c-0.1,0.5-0.5,0.8-1,0.9c-0.4,0.1-0.8,0-1.1-0.2
			c-0.3-0.2-0.5-0.5-0.5-0.8c-0.1-0.5,0-0.8,0.1-1.1C230.5,90.4,230.5,90.5,230.5,90.6z"/>
		<path d="M178.3,189.2l-0.6,0.4c-6.5-7.7-8.4-16.6-5.7-26.5l1.7-0.5c-2.3,8.7-1.1,16.8,3.7,24.4c0.3,0.5,0.7,1,1,1.5L178.3,189.2z"
			/>
		<path fill="#1CB1BF" d="M50.3,237.8c1.5,4.2,3.2,8.4,5.2,12.4c1.4,2.8,2.8,5.7,4.1,8.5c1.2,2.6,2.5,5.1,3.7,7.7
			c0.3,0.7,0.7,1.4,1,2.1c0.2,0.4,0.4,0.8,0.7,1.3c0.1,0.1,0.1,0.2,0.2,0.3c0,0.2,0.1,0.3,0.1,0.4c0.3,0.7,0.7,1.4,1,2.2
			c0.7,1.5,1.4,3.1,2.1,4.6c2.2,4.9,4.3,9.8,6.4,14.8c2.3-2.2,4.9-3.5,7.9-4c-0.3-0.7-0.6-1.3-0.8-2c-3-7.1-6.3-15.6-9.9-25.6
			c-4.5-12.4-6.9-20.2-7.1-23.2c-0.2-1.2-0.2-2.1-0.3-2.7c0-1.1,0-2,0.3-2.8c0.7-2.1,2.7-4,6.1-5.5c1.8-0.8,3.4-1.6,5-2.3
			c0.1-0.2,0.3-0.4,0.4-0.7c0.7-0.3,1.5-0.6,2.2-0.9c-0.1,0.2-0.3,0.4-0.4,0.6c2.1-0.9,4.1-1.6,6-2.3c7.3-2.6,14.3-4.1,20.8-4.6
			c2.6-0.2,3.9-0.3,3.9-0.1c3,0,5.4,0.3,7.5,0.9c1.9,0.6,3,1.4,3,2.3c0,0.4-0.1,0.6-0.2,0.8c-0.1,0.1-0.3,0.2-0.6,0.3
			c-0.1,0-0.3-0.2-0.7-0.7c-0.4-0.4-0.9-0.8-1.6-1c-2.1-0.9-5.9-1.1-11.5-0.7c-6.4,0.5-13.6,2.1-21.4,4.8c-2.4,0.8-4.7,1.7-6.7,2.5
			c-1.2,1.9-2.3,3.9-3.4,5.9c-2.1,3.8-3.9,7.7-5.6,11.6c1.3,4.2,3.5,10.4,6.6,18.8c4.1,11.1,7.2,19.1,9.3,24.1
			c0.9,2.1,1.9,4.3,2.9,6.4c2.7,2.2,5.5,4.3,8.4,6.3c0.6-0.8,1.3-1.7,2.1-2.8c1.7-2.5,2.6-3.7,2.6-3.7c0.2,0,0.4,0,0.4,0
			c0.1,0,0.1,0.1,0.1,0.3c0,0.6-0.8,2.1-2.6,4.7c-0.6,0.9-1.1,1.5-1.6,2.2c1.6,1.1,3.3,2.2,5,3.2c4.3,2.6,8.6,5.1,13,7.5
			c1.1-1.3,2.4-3.2,3.7-5.6c0.7-1.3,1.6-3.1,2.6-5.2c0.8-1.6,1.2-2.3,1.2-2.3c0.2,0.1,0.3,0.1,0.4,0.1l0.1,0.7
			c-0.1,0.1-0.5,1-1.2,2.7c-0.9,1.9-1.7,3.6-2.6,5.1c-1.2,2.1-2.3,3.8-3.4,5c3.2,1.6,6.4,3.2,9.7,4.7c7.1,3.2,14.2,6.1,21.6,8.6
			c4.8,1.6,9.7,2.9,14.7,3.9c1.6-1.2,3.1-2.8,4.3-4.8c0.7-1.2,1.5-2.8,2.3-4.8c0.6-1.4,1-2.2,1.2-2.2c0.3,0,0.4,0.2,0.5,0.6
			c0,0.4-0.3,1.4-1,2.9c-0.8,1.7-1.8,3.3-3,4.9c-1,1.4-2.1,2.6-3.1,3.6c1.2,0.2,2.4,0.5,3.6,0.6c5.8,0.9,11.6,1.1,17.4,0.7
			c4.3-4,8.5-9.5,12.6-16.6c5.1-8.8,9.2-17.4,12.2-25.9c3-8.4,5.3-17.1,6.7-26c1.4-8.9,2-18,1.6-27.2c-0.2-4.7-0.5-8.9-1-12.5
			c-1.2,0.8-3.3,2.3-6.1,4.4c-3.3,2.4-5.5,3.9-6.7,4.3c-1.1,0.4-5.9-2.2-14.4-7.8c-8.1-5.4-14.1-9.8-17.8-13.1c-2-1.7-4.3-3.8-7-6.2
			c-1.1-0.6-2.3-1.2-3.4-1.8c-7.4-4.1-14.4-8.8-21-14.1c-6.6-5.3-12.7-11.4-18.2-18c-2-2.4-3.9-4.9-5.6-7.4c-0.6,1.4-1.3,2.7-2,4.1
			c-1.6,3-3.2,6.1-5,9.1c-2,3.6-4.1,7.2-6.2,10.8c-1.8,3.1-3.6,6.1-5.4,9.2c-1.7,2.8-3.4,5.6-5.1,8.4c-0.4,0.7-0.9,1.4-1.3,2.2
			c2.9-1.2,5.8-2.4,8.7-3.6c6.5-2.7,13.3-4.7,20.2-5.9c3.7-0.6,7.2-0.2,10.6,1.2c1.6,0.7,2.5,1.8,2.6,3.3l-0.7,0.4
			c-1.3-1.7-3.1-2.7-5.2-2.9c-2.8-0.3-5.6-0.3-8.4,0c-1.3,0.3-2.6,0.5-3.9,0.7c-0.9,0.2-1.7,0.5-2.6,0.7c-0.8,0.3-1.7,0.5-2.5,0.8
			c-3,1-5.9,2.1-8.9,3.2c-5.1,1.9-10.1,3.9-15.2,6.1c-3.6,1.5-7.3,3.1-11,4.5c-5.8,2.2-11.5,4.7-17.1,7.3c-3,1.5-5.3,3.6-7,6.5
			c-0.4,0.7-0.7,1.5-0.7,2.3C49,232.4,49.3,235.1,50.3,237.8z M211.8,236c-0.9,0.1-1.6-0.2-2.2-0.9c-0.5-0.5-0.7-1.1-0.8-1.7
			c0-0.5,0.1-1,0.3-1.5c0.4-1,1.2-1.6,2.3-1.6c0.9-0.1,1.7,0.2,2.3,0.9c0.5,0.5,0.8,1.1,0.8,1.8c0,0.2,0,0.3,0,0.5
			c0,0.4-0.1,0.7-0.3,1C213.8,235.4,213,235.9,211.8,236z M206.3,266.3c-0.5-0.5-0.7-1.1-0.7-1.7c0-0.5,0.1-1,0.2-1.5
			c0.4-1,1.2-1.5,2.3-1.6c0.9-0.1,1.7,0.3,2.3,0.9c0.5,0.5,0.7,1.1,0.8,1.8c0,0.2,0,0.3,0,0.5c0,0.4-0.1,0.7-0.2,1
			c-0.4,0.9-1.2,1.4-2.4,1.5C207.7,267.2,206.9,267,206.3,266.3z M195.9,295.3c0-0.5,0.1-1,0.3-1.5c0.4-1,1.2-1.6,2.4-1.6
			c0.9-0.1,1.6,0.3,2.3,0.9c0.5,0.5,0.7,1.1,0.8,1.8c0,0.2,0,0.3,0,0.5c0,0.4-0.1,0.7-0.2,1c-0.4,0.9-1.2,1.4-2.4,1.5
			c-0.9,0.1-1.7-0.2-2.3-0.9C196.2,296.5,195.9,295.9,195.9,295.3z M181.5,320.8c0-0.5,0.1-1,0.3-1.5c0.4-1,1.2-1.6,2.4-1.6
			c0.9-0.1,1.6,0.2,2.3,0.9c0.5,0.5,0.7,1.1,0.8,1.8c0,0.2,0,0.3,0,0.5c0,0.4-0.1,0.7-0.2,1c-0.4,0.9-1.2,1.4-2.4,1.5
			c-0.9,0.1-1.7-0.2-2.3-0.9C181.8,322,181.5,321.4,181.5,320.8z M143.3,271.6c-2.2-3.9-3.6-8.8-4-14.6c-0.2-3.2,0.2-7.1,1.4-11.6
			c0.8-3,2.2-6.9,4-11.6c1-2.5,1.8-4.7,2.6-6.5c0,0-0.1-0.1-0.1-0.1c0.1-0.5,0.2-0.9,0.3-1.4c0.1-0.3,0.1-0.5,0.2-0.8
			c0.1-0.2,0.1-0.4,0.2-0.5c2.7,3.1,5.2,5.3,7.6,6.7c4.3,2.5,9,4.9,14.1,6.9c8.6,3.5,15.7,5,21.4,4.7c0,0,0,0,0,0
			c-0.1,0.2-0.1,0.3-0.2,0.5l0.2,0.1c-0.7,2-1.6,4.5-2.7,7.4c-2.1,5.6-3.8,10.1-5.1,13.5c-1.3,3.4-2.4,6-3.4,7.8
			c-3.4,6.1-8.1,9.4-14.3,9.9C155.1,282.9,147.8,279.4,143.3,271.6z M140.1,321.3c0.3-0.3,0.5-0.6,0.7-0.9c0.5-0.7,1.1-1.7,1.9-3.1
			c0.7-1.4,1.3-2.6,1.8-3.5c0.9-1.7,1.4-2.5,1.7-2.5c0.2,0,0.3,0,0.4,0c0,0.1,0.1,0.2,0.1,0.4c0,0.2-0.3,0.8-0.9,2
			c-0.7,1.3-1.4,2.6-2.3,3.9c-1.1,1.7-2.1,3-3,3.9C140.3,321.4,140.2,321.3,140.1,321.3z"/>
		<path d="M143.3,271.6c4.5,7.8,11.8,11.3,22.2,10.5c6.2-0.5,11-3.8,14.3-9.9c1-1.8,2.1-4.4,3.4-7.8c1.2-3.4,3-7.9,5.1-13.5
			c1.1-2.9,2-5.4,2.7-7.4c-0.1,0-0.2,0-0.3,0c0,0,0-0.1,0.1-0.1c0.1-0.2,0.1-0.4,0.2-0.5c0,0,0,0,0,0c-5.7,0.4-12.8-1.2-21.4-4.7
			c-5.1-2.1-9.8-4.4-14.1-6.9c-2.4-1.4-4.9-3.7-7.6-6.7c-0.1,0.2-0.1,0.3-0.2,0.5c0,0.2-0.1,0.5-0.2,0.8c0,0.5-0.1,0.9-0.3,1.4
			c0,0,0,0.1,0.1,0.1c-0.8,1.9-1.6,4.1-2.6,6.5c-1.8,4.7-3.2,8.5-4,11.6c-1.2,4.5-1.7,8.4-1.4,11.6
			C139.8,262.8,141.1,267.7,143.3,271.6z M186,252.7c-5.7,0.4-11.6-0.6-17.7-3c-3.5-1.4-8.4-3.7-14.7-6.9c-2.6-1.2-5.4-3.2-8.2-6
			c0.3-1,0.7-1.9,1.1-2.8c0.5-1.3,1.3-3.1,2.3-5.3c2,1.7,4.5,3.4,7.4,5c4.6,2.6,9.2,4.9,13.7,6.7c7,2.8,13.2,4.2,18.5,4.3
			c-0.3,1.1-0.6,2.1-1,3.2C186.9,249.8,186.4,251.3,186,252.7z M144.6,270.3c-2-3.6-3.2-8.1-3.6-13.4c-0.2-2.5,0.4-6.4,1.9-11.7
			c0.6-2.3,1.3-4.5,2-6.5c2.6,2.1,5.5,4,8.8,6c5.5,3.2,10.9,5.7,16.3,7.4c5.7,1.8,10.9,2.6,15.5,2.4c-0.4,1.1-0.6,1.8-0.9,2.4
			c-3.1,7-4.8,10.7-5,11.3c-1.5,3.2-2.7,5.5-3.9,7c-1.2,1.7-2.6,3-4.2,3.7c-1.5,0.7-3.6,1.2-6.1,1.4
			C155.6,281,148.7,277.7,144.6,270.3z"/>
		<path fill="#086A73" d="M153.6,242.8c-2.6-1.2-5.4-3.2-8.2-6c0.3-1,0.7-1.9,1.1-2.8c0.5-1.3,1.3-3.1,2.3-5.3c2,1.7,4.5,3.4,7.4,5
			c4.6,2.6,9.2,4.9,13.7,6.7c7,2.8,13.2,4.2,18.5,4.3c-0.3,1.1-0.6,2.1-1,3.2c-0.5,1.9-1,3.4-1.5,4.8c-5.7,0.4-11.6-0.6-17.7-3
			C164.8,248.4,159.9,246.1,153.6,242.8z"/>
		<path fill="#1CB1BF" d="M142.8,245.2c0.6-2.3,1.3-4.5,2-6.5c2.6,2.1,5.5,4,8.8,6c5.5,3.2,10.9,5.7,16.3,7.4
			c5.7,1.8,10.9,2.6,15.5,2.4c-0.4,1.1-0.6,1.8-0.9,2.4c-3.1,7-4.8,10.7-5,11.3c-1.5,3.2-2.7,5.5-3.9,7c-1.2,1.7-2.6,3-4.2,3.7
			c-1.5,0.7-3.6,1.2-6.1,1.4c-9.8,0.7-16.7-2.6-20.8-10c-2-3.6-3.2-8.1-3.6-13.4C140.7,254.4,141.4,250.5,142.8,245.2z"/>
		<path d="M211.8,236c1.2-0.1,2-0.6,2.4-1.5c0.1-0.3,0.2-0.6,0.3-1c0-0.2,0-0.3,0-0.5c0-0.6-0.3-1.2-0.8-1.8c-0.6-0.7-1.3-1-2.3-0.9
			c-1.1,0.1-1.9,0.6-2.3,1.6c-0.2,0.5-0.3,1-0.3,1.5c0,0.6,0.3,1.1,0.8,1.7C210.1,235.7,210.9,236,211.8,236z M212.3,235.1
			c-0.6,0-1.1-0.1-1.5-0.5c-0.4-0.4-0.6-0.8-0.7-1.3c0-1.4,0.6-2.1,1.9-2.2c0.6,0,1.1,0.1,1.5,0.5c0.4,0.4,0.6,0.8,0.7,1.3
			c0,0.4,0,0.8-0.2,1.1C213.8,234.7,213.2,235.1,212.3,235.1z"/>
		<path fill="#1CB1BF" d="M210.8,234.6c-0.4-0.4-0.6-0.8-0.7-1.3c0-1.4,0.6-2.1,1.9-2.2c0.6,0,1.1,0.1,1.5,0.5
			c0.4,0.4,0.6,0.8,0.7,1.3c0,0.4,0,0.8-0.2,1.1c-0.2,0.7-0.8,1-1.7,1.1C211.8,235.2,211.3,235,210.8,234.6z"/>
		<path d="M206.3,266.3c0.6,0.7,1.3,0.9,2.2,0.9c1.2-0.1,2-0.6,2.4-1.5c0.1-0.3,0.2-0.6,0.2-1c0-0.2,0-0.3,0-0.5
			c0-0.6-0.3-1.2-0.8-1.8c-0.6-0.6-1.3-1-2.3-0.9c-1.1,0.1-1.9,0.6-2.3,1.6c-0.2,0.5-0.3,1-0.2,1.5
			C205.6,265.2,205.9,265.8,206.3,266.3z M206.7,264.5c0-1.4,0.6-2.1,1.9-2.2c0.6,0,1.1,0.1,1.5,0.5c0.4,0.4,0.6,0.8,0.7,1.3
			c0.1,1.4-0.5,2.1-1.9,2.2c-0.6,0-1.1-0.1-1.5-0.5C206.9,265.4,206.7,265,206.7,264.5z"/>
		<path fill="#1CB1BF" d="M208.5,262.3c0.6,0,1.1,0.1,1.5,0.5c0.4,0.4,0.6,0.8,0.7,1.3c0.1,1.4-0.5,2.1-1.9,2.2
			c-0.6,0-1.1-0.1-1.5-0.5c-0.4-0.4-0.6-0.8-0.7-1.3C206.7,263.1,207.3,262.4,208.5,262.3z"/>
		<path d="M196.1,293.8c-0.2,0.5-0.3,1-0.3,1.5c0,0.6,0.3,1.1,0.8,1.7c0.6,0.7,1.3,0.9,2.3,0.9c1.2-0.1,2-0.6,2.4-1.5
			c0.1-0.3,0.2-0.6,0.2-1c0-0.2,0-0.3,0-0.5c0-0.6-0.3-1.2-0.8-1.8c-0.6-0.6-1.3-1-2.3-0.9C197.3,292.3,196.6,292.8,196.1,293.8z
			 M197.3,295.5c0-1.4,0.7-2.1,1.9-2.2c0.6,0,1.1,0.1,1.5,0.5c0.4,0.4,0.6,0.8,0.7,1.3c0.1,1.4-0.5,2.1-1.9,2.2
			c-0.6,0-1.1-0.1-1.5-0.5C197.6,296.4,197.4,296,197.3,295.5z"/>
		<path fill="#1CB1BF" d="M199.2,293.3c0.6,0,1.1,0.1,1.5,0.5c0.4,0.4,0.6,0.8,0.7,1.3c0.1,1.4-0.5,2.1-1.9,2.2
			c-0.6,0-1.1-0.1-1.5-0.5c-0.4-0.4-0.6-0.8-0.7-1.3C197.4,294.1,198,293.4,199.2,293.3z"/>
		<path d="M181.8,319.3c-0.2,0.5-0.3,1-0.3,1.5c0,0.6,0.3,1.1,0.8,1.7c0.6,0.7,1.3,0.9,2.3,0.9c1.2-0.1,2-0.6,2.4-1.5
			c0.1-0.3,0.2-0.6,0.2-1c0-0.2,0-0.3,0-0.5c0-0.6-0.3-1.2-0.8-1.8c-0.6-0.7-1.3-1-2.3-0.9C183,317.8,182.2,318.3,181.8,319.3z
			 M183,321c0-1.4,0.6-2.1,1.9-2.2c0.6,0,1.1,0.1,1.5,0.5c0.4,0.4,0.6,0.8,0.7,1.3c0.1,1.4-0.5,2.1-1.9,2.2c-0.6,0-1.1-0.1-1.5-0.5
			C183.2,321.9,183,321.5,183,321z"/>
		<path fill="#1CB1BF" d="M184.9,318.8c0.6,0,1.1,0.1,1.5,0.5c0.4,0.4,0.6,0.8,0.7,1.3c0.1,1.4-0.5,2.1-1.9,2.2
			c-0.6,0-1.1-0.1-1.5-0.5c-0.4-0.4-0.6-0.8-0.7-1.3C183,319.6,183.6,318.9,184.9,318.8z"/>
		<path d="M140.8,320.3c0.5-0.7,1.1-1.7,1.9-3.1c0.7-1.4,1.3-2.6,1.8-3.5c0.9-1.7,1.4-2.5,1.7-2.5c0.2,0,0.3,0,0.4,0
			c0,0.1,0.1,0.2,0.1,0.4c0,0.2-0.3,0.8-0.9,2c-0.7,1.3-1.4,2.6-2.3,3.9c-1.1,1.7-2.1,3-3,3.9c-0.1-0.1-0.2-0.2-0.3-0.3
			C140.3,321,140.6,320.7,140.8,320.3z"/>
		<path fill="#FFFFFF" d="M248.2,96.1c0.2,0.1,0.4,0.3,0.6,0.4c1.3,0.6,2.7,0.8,4.1,0.4c1.7-0.4,2.9-1.4,3.8-2.9
			c0.1-0.1,0.1-0.1,0.1-0.2c0.9-1.6,1.1-3.4,0.6-5.3c-0.4-1.9-1.4-3.3-3-4.2c-0.2-0.1-0.4-0.2-0.6-0.3c-1.6,0.9-3.5,1.9-5.8,3.1
			c-0.4,0.2-0.7,0.4-1,0.5c-0.6,0.3-1.2,0.6-1.8,0.9c-0.2,0.1-0.4,0.2-0.5,0.3c-0.1,0.9-0.1,1.8,0.1,2.8c0.3,1.4,0.9,2.5,1.8,3.4
			c0.4,0.4,0.8,0.7,1.2,1C248.1,96.1,248.2,96.1,248.2,96.1z M252.9,92.8c0,0,0,0.1,0,0.2c0.1,0.3,0.3,0.4,0.6,0.4
			c0.2,0,0.3-0.2,0.4-0.4c0-0.1,0-0.2,0-0.3c-0.1-0.3-0.3-0.4-0.6-0.3c-0.1,0-0.1,0-0.1,0c0.2-0.1,0.4-0.3,0.7-0.3
			c0.8-0.2,1.3,0.1,1.5,0.9c0.1,0.2,0.1,0.5,0,0.7c-0.1,0.4-0.4,0.7-0.9,0.8c-0.4,0.1-0.7,0-1-0.2c-0.2-0.2-0.4-0.4-0.4-0.7
			C252.9,93.3,252.9,93,252.9,92.8z"/>
		<path d="M253,93c0.1,0.3,0.3,0.4,0.6,0.4c0.2,0,0.3-0.2,0.4-0.4c0-0.1,0-0.2,0-0.3c-0.1-0.3-0.3-0.4-0.6-0.3c-0.1,0-0.1,0-0.1,0
			c0.2-0.1,0.4-0.3,0.7-0.3c0.8-0.2,1.3,0.1,1.5,0.9c0.1,0.2,0.1,0.5,0,0.7c-0.1,0.4-0.4,0.7-0.9,0.8c-0.4,0.1-0.7,0-1-0.2
			c-0.2-0.2-0.4-0.4-0.4-0.7c-0.1-0.3-0.1-0.5,0-0.7C252.9,92.8,252.9,92.9,253,93z"/>
		<path fill="#FDD17A" d="M247,87c-0.5,0.2-1.1,0.5-1.8,0.8c0,0-0.1,0-0.1,0c0,0,0-0.1,0-0.1c0.2-0.4,0.4-0.8,0.6-1.2
			c0.2-0.4,0.5-0.8,0.8-1.1c0.8-0.9,1.9-1.5,3.2-1.8c1.3-0.3,2.5-0.2,3.6,0.2c-2.3,1.3-3.7,2-4.1,2.2C248.7,86.2,247.9,86.6,247,87z
			"/>
		<path fill="#FFFFFF" d="M218.6,144c1.9,0.6,3.9,1.5,6,2.6c-0.4,1.4-0.8,2.7-1.2,3.8c-0.2,0.4-0.3,0.8-0.5,1.1
			c-1.4-0.6-2.9-1.2-4.5-1.9c-1.9-0.8-3.8-1.6-5.6-2.3c0.8-1.6,1.4-3,2-4.3C216.1,143.2,217.4,143.6,218.6,144z"/>
		<path fill="#FFFFFF" d="M205.7,142.4c2.6-0.2,5.2-0.1,7.7,0.3c-0.5,1.3-1.1,2.7-1.7,4.2c-3.9-1.5-7.5-2.8-10.9-3.8l0,0
			C202.4,142.8,204,142.5,205.7,142.4z"/>
		<path fill="#FFFFFF" d="M226,147.3c0.9,0.5,1.7,1,2.6,1.6c1.9,1.2,3.5,2.3,4.8,3.1c-0.3,0.8-0.5,1.3-0.6,1.6
			c-0.3,0.7-0.6,1.4-0.9,2.1c-2-1-4.6-2.2-7.8-3.6c0.2-0.4,0.4-0.9,0.6-1.3C225.2,149.6,225.6,148.5,226,147.3z"/>
		<path fill="#FFFFFF" d="M234.9,152.9c0.7,0.4,1.3,0.7,1.8,1c0.8,0.5,1.7,0.9,2.4,1.2c-0.3,1-0.6,1.8-0.9,2.5
			c-0.2,0.4-0.4,0.8-0.5,1.1c-1-0.6-2.1-1.3-3.4-1.9c-0.3-0.1-0.6-0.3-1-0.5c0.1-0.2,0.2-0.4,0.3-0.6
			C234.1,154.8,234.5,153.9,234.9,152.9z"/>
		<path fill="#E20614" d="M182.9,166.6c9-0.7,16.9,0.3,23.9,2.9c3.5,1.3,7.1,3.3,10.9,6.1c0.5-0.2,0.8-0.6,0.7-1.2
			c-0.1-0.8-1.3-1.8-3.7-3c-2.3-1.2-5.2-2.2-8.7-3.3c-8.4-2.6-15.3-3.6-20.8-3.3c0-0.1-0.8-0.1-2.4,0c-1.8,0.1-3.5,0.4-5,0.7
			c0-0.3,0.1-0.6,0.2-0.9c0.7-0.1,1.5-0.2,2.2-0.3c4.3-0.6,8.5-0.7,12.8-0.3c4.2,0.4,8.3,1,12.5,1.9c4.1,0.9,8.2,2,12.1,3.4
			c4,1.4,7.8,3.3,11.4,5.7c1.6,1.1,3.1,2.4,4.2,4c0.7,0.9,1.2,1.9,1.5,3c0.2,1,0.3,2,0.2,3c-0.3,2.2-1.6,3.6-3.7,4.1
			c-1.6,0.4-3.3,0.3-4.9-0.1c-1.7-0.4-3.3-1-4.9-1.7c-1.8-0.7-3.6-1.6-5.3-2.5c-7-3.7-14-7.2-21.2-10.4c-3.9-1.8-8-3-12.2-3.6
			c-1.9-0.2-3.7-0.3-5.6-0.1c0-1.1,0.2-2.2,0.4-3.5C179.1,167,180.9,166.8,182.9,166.6z"/>
		<path fill="#1CB1BF" d="M207.5,219.3c1.7,0.5,3.4,0.8,5.2,1c-6.8,5.2-10.3,7.8-10.3,7.8c-1.7,0.1-6.3-2.4-13.8-7.6
			c-5.7-4-10.7-7.7-15.1-11.3c-1.5-1.2-3.1-2.5-4.7-4c4.7,2.3,9.6,4.4,14.5,6.2C191.2,214.4,199.3,217.1,207.5,219.3z"/>
		<path fill="#FFFFFF" d="M221.1,204.4c-1-0.1-1.7-0.2-2.1-0.2c-1.4-0.2-2.8-0.4-4.2-0.6c-0.1-0.6-0.1-1-0.1-1.1
			c0-0.9-0.1-1.8-0.2-2.7c1.3-0.1,2.7-0.1,4-0.2c0.8-0.1,1.7-0.1,2.5-0.2c0.2,2.2,0.2,3.7,0.2,4.3
			C221.1,203.9,221.1,204.2,221.1,204.4z"/>
		<path fill="#FFFFFF" d="M226.6,204.9c-1.5-0.1-2.8-0.2-3.9-0.3c-0.1-2.5-0.2-4.3-0.2-5.4c1.7-0.2,3.2-0.3,4.6-0.5
			c0.1,0.6,0.2,1.3,0.3,2c0.1,1.7-0.1,3.1-0.5,4.2C226.7,204.9,226.6,204.9,226.6,204.9z"/>
		<path fill="#FFFFFF" d="M206.9,200c1.9,0,3.8,0,5.8-0.1c0.1,1.2,0.2,2.4,0.4,3.4c-1.8-0.3-3.8-0.7-5.7-1.2
			C207.1,201.4,207,200.6,206.9,200z"/>
		<path fill="#FFFFFF" d="M199.6,199.7c1.9,0.1,3.8,0.2,5.8,0.2c0.1,0.6,0.3,1.2,0.4,1.8C203.6,201.2,201.6,200.5,199.6,199.7z"/>
		<path fill="#FCD4A4" d="M261.1,228c-2.6-1.5-3.9-2.5-4-3.2c0-0.5,0.1-1,0.5-1.6c0.4-0.5,0.7-1.1,0.9-1.7c2.1,1.4,4.1,2.1,5.9,2
			l1-0.2c0.1-0.1,0.2-0.1,0.2-0.2c0,0,0-0.2,0-0.6c0-0.2-0.5-0.4-1.4-0.7c-0.5-0.2-1.5-0.4-3-0.9c-1.9-0.6-3.2-1.3-3.9-2
			c0,0,0,0,0,0c-0.3-0.5-0.4-1.1-0.5-1.7c0,0,0,0,0,0c0.1-0.4,0.2-0.9,0.5-1.5c0.1-0.2,0.2-0.5,0.2-0.7c0.2,0.1,0.4,0.2,0.6,0.2
			c0.8,0.3,3.8,1.1,8.9,2.5c0.3-0.2,0.5-0.2,0.6-0.2c0.1-0.1,0.2-0.4,0.2-0.7c0-0.3-0.7-0.7-1.9-1.1c-0.2-0.1-1.5-0.4-4.1-1.2
			c-4-1.1-6-2.2-6.1-3.3c0-0.4,0.1-0.9,0.4-1.2c0.3-0.5,0.9-0.8,1.7-0.9c1.4-0.1,3.2,0,5.1,0.4c1.6,0.3,2.7,0.6,3.3,0.8
			c0.4,0.2,1.2,0.4,2.5,0.7c1.4,0.3,2.3,0.5,2.6,0.5l0.6-0.2c0.1-0.1,0.2-0.1,0.2-0.2c0,0,0-0.2,0-0.6c0-0.3-0.4-0.6-1-0.9
			c0.2-1,0.4-1.9,0.6-2.8c0.7,0.4,1.3,0.8,1.5,1.4c0.7,1.2,1.3,2.4,1.9,3.8c0.6,1.4,1,3.1,1.1,5.1c0.2,2-0.1,4.1-0.8,6.4
			c-1.3,4.1-3.8,6.3-7.5,6.6C266.2,230.3,263.8,229.6,261.1,228z"/>
		<path fill="#FCD4A4" d="M257.7,207.4c-1.6,0.1-2.6,0.8-3.2,2.1c-0.3,0.6-0.4,1.3-0.4,2c0.1,1,0.6,1.8,1.7,2.6
			c-0.5,0.8-0.7,2-0.6,3.9c0,0,0,0,0,0.1c-0.3,0.1-0.5,0.1-0.8,0.2c-0.9,0.1-1.7-0.5-2.2-1.8c-0.4-1.3-0.6-1.9-0.6-1.9
			c0.3-1.4,0.7-2.9,1.3-4.2c1.2-2.8,2.5-4.3,4-4.4c0.8-0.1,1.6-0.1,2.3,0.1c-0.1,0.4-0.2,0.9-0.3,1.4
			C258.7,207.3,258.3,207.3,257.7,207.4z"/>
		<path fill="#1CB1BF" d="M228.4,244.7c2.3,3.2,4.7,6,7.3,8.3c3.1,2.8,5.8,4.9,7.9,6.2l-0.2,0.2c-0.9,0.2-1.7,0.4-2.3,0.6
			c0,0.3,0.1,0.5,0.3,0.7c1.3,1.1,2.6,1.1,3.9,0c1.7-1.4,3-3.1,4-5.1c3.2-6,5.9-12.3,8.1-18.8c0.1-0.3,0.2-0.5,0.3-0.8
			c1.1,0.3,2.4,0.3,4,0.1c1.8-0.3,3.3-1.7,4.5-4.1c0.6,0.1,1.2,0.1,1.8,0c0.2,0,0.5,0,0.7-0.1c-0.7,1.9-1.4,4-2.1,6.2
			c-2.9,8.3-5,14-6.3,17.1c-2.4,5.6-4.9,9.8-7.5,12.6c-3.1,3.3-6.6,5.2-10.7,5.5c-2,0.2-4.5-0.8-7.5-2.8c-1.7-1.2-4.5-3.4-8.3-6.7
			c-0.1,0-0.1-0.1-0.2-0.1c0.6-3.2,1-6.4,1.4-9.7C228,250.8,228.3,247.7,228.4,244.7z"/>
		<path fill="#1CB1BF" d="M192.3,327.9c-2.2,0.4-4.3,0.7-6.5,1c5.8-6.8,10.8-14.1,14.9-22.1c3.6-6.9,6.6-14,9.1-21.4
			c3.3-10,5.6-20.2,6.7-30.7c1-8.5,1.3-17,0.9-25.5c-0.1-2.2-0.3-4.5-0.6-6.7c3.4,5.7,5.3,8.4,5.6,8.1c0.5-0.5,1.6-1.9,3.3-4.4
			c0.3-0.4,0.6-0.9,0.9-1.2c0.2,2.3,0.4,4.8,0.5,7.5c0.4,9.3-0.1,18.3-1.6,27.2c-0.2,1-0.3,1.9-0.5,2.9c0,0,0-0.1-0.1-0.1
			c0,0.1,0,0.2,0.1,0.3c-1.4,7.8-3.5,15.5-6.2,22.9c-3,8.5-7.1,17.1-12.2,25.9c-3.7,6.5-7.5,11.6-11.5,15.6
			C194.4,327.4,193.4,327.7,192.3,327.9z"/>
		<path fill="#1CB1BF" d="M226.6,216c0-0.1,0-0.2,0.1-0.4c0.9,0.3,1.5,1,1.7,2c-0.8,0.3-1.6,0.5-2.4,0.8
			C226.3,217.7,226.4,216.9,226.6,216z"/>
		<path fill="#1CB1BF" d="M222.4,228.7c-1.2-2.4-2.6-5-4.2-7.9c2.5,0,5-0.2,7.4-0.6c0.9-0.2,1.8-0.4,2.7-0.6
			c-0.3,1.2-1.1,2.7-2.4,4.4C225,225.3,223.9,226.9,222.4,228.7z"/>
		<path fill="#F18B00" d="M143,350.5c-4.2,0.3-8.1,0.4-11.9,0.3c2,1.6,3.4,2.8,4.3,3.6c1.5,1.3,3.9,3.6,7.1,6.7
			c3.2,3.1,5.9,5.8,8.1,8c2.3,2.2,3.4,3.9,3.5,5c0.1,1.1-0.5,2.9-1.6,5.4c-1.1,2.5-2.6,5-4.3,7.5c-1.6,2.4-3.2,4.3-4.8,5.9
			c2.7,4.3,7.3,6.7,14.1,7.1c0.7-1.9,1.8-4.7,3.4-8.4c3-7,4.9-11.7,6-14.2c1-2.6,1.5-4,1.5-4.5c-0.2-2.5-5.6-9.6-16.1-21.5
			c-0.4-0.5-1-1.1-1.6-1.8C148.1,350.1,145.5,350.3,143,350.5z M152,389.7C151.9,389.6,151.9,389.6,152,389.7
			C151.9,389.6,151.9,389.6,152,389.7C151.9,389.6,151.9,389.6,152,389.7z"/>
		<path d="M151.9,389.6C151.9,389.6,151.9,389.6,151.9,389.6C151.9,389.6,151.9,389.6,151.9,389.6
			C151.9,389.6,151.9,389.6,151.9,389.6z"/>
		<path fill="#71631F" d="M154.9,401.8c0,0.4,0,0.8,0,1.1c0,0.4,0.1,0.7,0.1,1c-0.1,0-0.2,0-0.4,0c-2.9,0.2-4.8,0.8-5.4,1.7
			c0.2,0.4,0.3,0.6,0.4,0.7c0.1,0.2,0.5,0.2,1.1,0.2c1.8-0.1,3.2-0.3,4-0.6c0.2-0.1,0.4-0.2,0.6-0.3c0.3,0.9,0.7,1.6,1.2,2.3
			c-0.3,0.1-0.9,0.4-1.5,0.7c-1.4,0.7-2.3,1.3-2.5,1.7c0.2,0.4,0.3,0.6,0.4,0.7c0.1,0.2,0.5,0.2,1.1,0.2c0.6,0,1.6-0.5,2.8-1.3
			c0.4-0.3,0.8-0.5,1-0.8c0.5,0.4,1.1,0.7,1.6,0.9c0.2,0.1,0.3,0.1,0.5,0.2c-0.2,0.1-0.4,0.2-0.6,0.3c-1.5,0.9-2.5,1.8-3.1,2.7
			c0.4,0.6,0.8,0.9,1,0.9c0.6,0,1.8-0.7,3.5-1.9c0.8-0.6,1.4-1,1.8-1.4c1.6,0.2,3.6,0.4,5.9,0.4c4.5,0.1,7.6,0.4,9.1,1
			c2.8,1,4.3,3,4.6,6.1c0,0.2,0,0.3,0,0.5c-1.8,1-4.2,1.6-7.1,1.8c-14,1.1-24.3-2.9-30.9-11.8c-1.7-2.3-3.1-4.9-4.2-7.7
			c1.2-1.7,2.7-3,4.5-3.9C147.4,399.8,150.8,401.3,154.9,401.8z"/>
		<path fill="#965919" d="M175.4,422.6c2.5-0.2,4.5-0.5,6-0.8c-1.8,1.1-4.4,1.9-7.5,2.1c-14,1.1-24.3-2.9-30.9-11.8
			c-1.8-2.4-3.3-5.1-4.4-8.1c0.1-0.3,0.3-0.5,0.4-0.8c1.1,2.7,2.4,5.1,4.1,7.3C150,419.7,160.8,423.7,175.4,422.6z"/>
		<path fill="#086A73" d="M77.1,292c1.5-1.4,3.4-2.1,5.5-2.3c0.3,0,0.6,0,0.9,0c0.8,1.8,1.7,3.6,2.7,5.4l0,0c0,0-0.1,0.1-0.2,0.1
			c-3.2,0.3-6.1,1.3-8.5,3.1c-0.2-0.4-0.3-0.8-0.5-1.1c-0.5-1.2-1-2.4-1.5-3.5C76.1,293,76.6,292.4,77.1,292z"/>
		<path fill="#FCD4A4" d="M94.9,311c0.2,2.8-0.1,5-0.8,6.5c-1.6,3.4-5.3,5.3-11.1,5.7c-4.4,0.3-7.7-0.7-9.6-3
			c-1.1-1.3-1.7-2.8-1.9-4.5c-0.2-2.9,1.7-4.7,5.9-5.2c0.2,0.4,0.5,0.8,0.8,1.2c0.9,1.2,1.3,1.9,1.4,1.9c0.4,0.7,0.7,1.3,0.7,1.9
			c0,0.6-0.2,1.3-0.8,1.9c-0.6,0.6-0.9,1-0.9,1.2c0,0.3,0,0.5,0.1,0.5c0.1,0,0.1,0,0.1,0c0,0.1,0.1,0.2,0.2,0.2
			c0.1,0.1,0.3,0.1,0.7,0c1.1-0.1,1.8-0.7,2.1-1.9c0.1-1.2,0.2-1.8,0.2-1.8c-0.1-1.1-0.8-2.7-2.1-4.7c-1.4-2-2.1-3.7-2.2-5
			c-0.1-1,0-1.9,0.3-2.5c0.1-0.3,0.4-0.8,0.9-1.5c0.6-0.8,0.9-1.9,1-3.2c1.7-0.9,3.6-1.5,5.7-1.8c1.3,1,2.4,1.8,3.2,2.5
			C92.5,302.9,94.5,306.6,94.9,311z"/>
		<path fill="#71631F" d="M98,416.9c0.1,0.6,0.3,1.2,0.6,1.8c-0.8,0.2-1.6,0.5-2.4,1.1c-1.1,0.7-1.7,1.3-1.8,1.9
			c0,0.1,0.1,0.3,0.2,0.5c0.1,0.2,0.3,0.3,0.7,0.2c0.6,0,1.6-0.4,2.9-1.2c0.6-0.4,1.1-0.7,1.4-0.9c0.4,0.5,0.9,0.9,1.4,1.3
			c-0.3,0.3-0.6,0.7-0.9,1.1c-1.2,1.4-1.8,2.4-1.8,3c0,0.3,0.3,0.4,0.8,0.3c0.7-0.1,1.5-0.8,2.5-2.2l0.8-1.4
			c0.6,0.3,1.4,0.5,2.3,0.8c-0.3,0.3-0.6,0.7-0.9,1.2c-0.8,1.3-1.4,2.3-1.5,2.9c0,0.2,0.1,0.4,0.2,0.4c0.1,0.2,0.3,0.2,0.7,0.2
			c0.7-0.1,1.5-0.7,2.4-2.1c0.5-0.8,0.9-1.6,1.1-2.3c1.3,0.3,2.9,0.5,4.7,0.7c4.4,0.5,7.4,1,8.9,1.6c2.8,1.1,4.3,3.1,4.5,5.9
			c0,0.2,0,0.6-0.1,0.9c-1.2,1.4-3,2.2-5.3,2.4c-6.4,0.5-13.5-1-21.1-4.5c-2.9-1.3-5.5-2.7-8-4.3c-2.1-1.4-3.6-2.6-4.6-3.5
			c-1.1-1.1-2-2.1-2.9-3c0.4-1.5,1.2-2.9,2.3-4.2c1-1.2,2.4-2.4,4.2-3.7C91.9,414.3,94.8,416,98,416.9z"/>
		<path fill="#965919" d="M93.3,430.1c4.6,2.4,9.5,4.2,14.8,5.5c4.6,1.1,8.4,1.5,11.3,1.3c1.7-0.1,3.2-0.5,4.5-1.2
			c-0.3,0.6-0.6,1.2-0.9,1.8c-1.1,0.7-2.4,1-3.9,1.1c-6.4,0.5-13.5-1-21.1-4.5c-2.9-1.3-5.5-2.7-8-4.3c-2.1-1.4-3.6-2.6-4.6-3.5
			c-1.1-1.1-2-2.1-2.8-3c0-0.3,0-0.6,0-0.9C85.4,425.3,89,427.9,93.3,430.1z"/>
		<path fill="#904316" d="M325.6,207.7c1.6-6.9,3.6-13.6,6.2-20.2c2.6-6.8,6.4-12.9,11.4-18.2c-1,12.6-3.1,25-6.3,37.4
			c-2.6,10.1-6,19.8-10.3,29.3c-1.5,3.3-3.1,6.6-4.9,9.7c-0.3-0.1-0.5-0.2-0.8-0.3c0.2-7.1,0.8-14,1.7-20.9
			C323.4,218.8,324.4,213.3,325.6,207.7z"/>
		<path fill="#D95F13" d="M259.6,229.4c1.6,1.1,3.2,1.8,4.8,2.2c-0.7,1.9-1.3,2.9-1.8,2.9c-3,0.2-5-0.1-5.8-1.1
			c-0.3-0.3-0.5-0.7-0.5-1.2c0-0.5,0-0.8,0-0.9c0-0.3,0.2-1.7,0.7-4.1C257.6,228,258.5,228.7,259.6,229.4z"/>
		<path fill="#D95F13" d="M260.9,207.6c0.4-1.9,0.8-3.6,1.1-5.3c0.9,0.2,1.6,0.4,2.3,0.6c2,0.5,4,1,6.1,1.5
			c-0.2,0.9-0.5,2.5-0.9,4.8c-0.6-0.2-1.2-0.3-1.9-0.4C266.1,208.5,263.9,208.1,260.9,207.6z"/>
		<path fill="#D95F13" d="M271.4,202.9c4.9,0.8,9.2,1.6,12.9,2.2l0-0.3c0,0,0.1,0,0.1,0c0.2-2.4,0.5-3.9,0.6-4.6
			c0.3-1.1,0.8-3.3,1.4-6.8c0.6-2.8,1.1-5,1.6-6.7c0.4-1.3,1-2.7,1.9-4.2c-2-0.4-4.3-0.8-7-1.3c-12.6-1.8-21-2.6-25.2-2.5
			c-4.2,0.1-7.2,5.3-8.9,15.5C249.1,197.5,256.6,200.4,271.4,202.9z M271.6,183.2c-6.9-0.7-11.4-1-13.3-1c0,0-0.1-0.1-0.2-0.2
			c0-0.1-0.1-0.2-0.1-0.5c0-0.5,0.6-0.8,1.9-0.9c2.8-0.2,7.3,0.1,13.6,0.9c6.1,0.8,9.1,1.3,9.1,1.7c0,0.6,0,0.7,0,0.5
			c-0.3,0.3-0.6,0.5-1,0.5C281.4,184.1,278.1,183.8,271.6,183.2z"/>
		<path fill="#F39700" d="M258.1,181.9c0-0.1-0.1-0.2-0.1-0.5c0-0.5,0.6-0.8,1.9-0.9c2.8-0.2,7.3,0.1,13.6,0.9
			c6.1,0.8,9.1,1.3,9.1,1.7c0,0.6,0,0.7,0,0.5c-0.3,0.3-0.6,0.5-1,0.5c0,0-3.3-0.3-9.9-0.9c-6.9-0.7-11.4-1-13.3-1
			C258.2,182.1,258.2,182,258.1,181.9z"/>
		<path fill="#EC6A06" d="M284.4,204.9l0,0.2c0,0-0.1,0-0.1,0l0-0.3C284.4,204.8,284.4,204.8,284.4,204.9z"/>
		<path fill="#D95F13" d="M287.2,197.6c-0.4,2.1-0.8,4.3-1.1,6.5c0.1,0.4,0.3,0.8,0.6,1.1c2.9,6.3,6.2,11.7,9.7,16.2
			c3.6,5.2,7.5,9.9,11.5,14.1c4.3,4.4,8.2,7.5,11.9,9.4c-0.1-3-0.1-6.1,0-9.1c0.4-8.6,1.5-17,3.3-25.4c1.8-8.1,4.2-16.1,7.2-23.9
			c2.8-7.1,6.8-13.3,12-18.8c-1.9-0.1-3.9,0-6.1,0.1c-7.3,0.5-17.8,3.8-31.4,9.7c-5.1,2.2-9.6,4.1-13.4,5.6
			C289.8,187,288.4,191.7,287.2,197.6z M295.8,187.1c0-0.6,1.5-1.7,4.5-3.3c2.8-1.5,6.4-3.1,10.7-4.9c10.3-4.3,17.4-6.5,21.3-6.8
			c0.5,0,0.7-0.1,0.8,0c0.2,0,0.3,0.3,0.3,0.6c0,0.6,0,0.7-0.1,0.5c-1.3,0.7-4.6,1.8-9.9,3.4c-6.1,1.9-10.4,3.3-12.8,4.2
			c-0.8,0.3-3.3,1.6-7.6,3.8c-3.9,2.1-6.1,3.1-6.4,3.1s-0.6,0-0.7,0c0-0.1-0.1-0.1-0.2-0.2c0-0.1,0-0.1-0.1,0
			C295.9,187.5,295.9,187.4,295.8,187.1z"/>
		<path fill="#F39700" d="M300.4,183.8c2.8-1.5,6.4-3.1,10.7-4.9c10.3-4.3,17.4-6.5,21.3-6.8c0.5,0,0.7-0.1,0.8,0
			c0.2,0,0.3,0.3,0.3,0.6c0,0.6,0,0.7-0.1,0.5c-1.3,0.7-4.6,1.8-9.9,3.4c-6.1,1.9-10.4,3.3-12.8,4.2c-0.8,0.3-3.3,1.6-7.6,3.8
			c-3.9,2.1-6.1,3.1-6.4,3.1s-0.6,0-0.7,0c0-0.1-0.1-0.1-0.2-0.2c0-0.1,0-0.1-0.1,0c0,0-0.1-0.2-0.1-0.4
			C295.8,186.5,297.3,185.4,300.4,183.8z"/>
		<path fill="#F18B00" d="M59.7,267.8c-4.8,21.5-4.3,28-4.3,31.9c0.1,4,0.4,7.9,0.9,11.8c0.4,3.2,1.5,6.1,3.1,8.9
			c0.4,0.7,1,1.4,1.6,1.9c3.1,2.6,6.4,5,9.9,7.1c3.4,2.1,6.6,4.6,9.3,7.6c2.5,2.7,4.7,5.8,6.7,9c0.6,1,1.3,2,2,2.9
			c2.5,3.3,5,6.7,7.3,10c2.4,3.3,4.8,6.6,7.2,9.8c2.4,3.2,3.8,6.1,4.2,8.6c0.4,2.5,0.5,4,0.4,4.8c-0.5,2.7-1.9,5.6-4.3,8.6
			c-2.3,3.1-4.9,6.2-7.7,9.4c-2.5,2.9-5,5.5-7.6,8c2.9,4,6.6,6.4,10.9,7.4c0.6-1.1,1.2-2.1,2-3.3c3.5-5.6,7.3-11,11.3-15.9
			c0.4-0.6,1.4-1.6,3-3.2c1.7-1.7,3-3.1,3.9-4.1c3.2-3.6,4.7-6.4,4.5-8.4c-0.2-2.4-3.8-9.9-11-22.4c-3.6-6.2-6-10.5-7.3-12.8
			c-2.3-3.9-3.4-6.1-3.4-6.5c0-0.5,0-0.7,0-0.9c0.1-0.2,0.3-0.3,0.7-0.3c0,0,1.2,1.9,3.5,5.7c0.2,0.3,0.4,0.6,0.5,0.9
			c11,4,22.9,5.5,35.9,4.6c7.7-0.6,32.8-3.9,40.4-12.6c0.3-0.3,0.6-0.6,0.9-0.9c-2.4,0.2-4.9,0.4-7.3,0.5c-1.3,0.1-2.5,0-3.7-0.4
			c-0.5-0.1-0.7-0.5-0.6-1l3.8-0.4c1.4,0,2.8-0.1,4.3-0.2c1.6-0.2,3.8-0.4,6.6-0.8c2.8-0.4,5-1,6.5-1.9c1.5-0.8,2.4-1.5,2.8-2.1
			l0-0.1c-3.2,0.9-6.5,1.6-9.9,1.9c-8.5,0.9-17,0.5-25.5-1.2c-8.4-1.7-16.6-4.3-24.5-7.5c-8-3.3-15.9-6.9-23.5-10.9
			c-7.7-4-15-8.6-22-13.7c-0.7-0.5-1.3-1-2-1.5c0,0-0.5,0.1-0.7,0.1c0.1,0.2,0.3,0.8,0.3,0.8c1.9,1.5,3.2,2.8,4,3.7
			c1.4,1.6,2.3,3.1,2.8,4.5c6.3,16.8-7,19.5-12.4,19.9c-5,0.4-8.6-0.7-10.9-3.3c-1.4-1.6-2.2-3.5-2.4-5.9c-0.1-1.3,0.1-2.5,0.7-3.5
			c1.1-1.8,3.1-2.9,6.1-3.4c-0.2-0.6-0.4-1.1-0.5-1.7c1.7-9.4-6.4-23.1-7.3-25.1c-0.8-1.8-1.6-3.5-2.4-5.2c-0.9-1.9-1.9-3.8-2.8-5.7
			c-1.2-1.5-2.4-3-3.6-4.6C59.9,267.1,59.8,267.4,59.7,267.8z"/>
		<g>
			<path d="M358.7,186.4c-6,1.4-9.1,2.1-9.4,2.1c-0.2,0-0.3-0.1-0.2-0.1l0-0.1c0.2-0.1,4.7-1.2,13.5-3.3c6.1-1.5,9.3-2.2,9.5-2.2
				c0.2,0,0.3,0,0.2,0.1l0,0.2C369.7,183.8,365.1,184.9,358.7,186.4z"/>
			<path d="M350.3,194.5c0,0,2.7,0,7.8,0.2c2.6,0.1,5.3,0.2,8,0.3c0.2,0,0.3,0,0.3,0c0.1,0,0.1,0.2,0.1,0.3c0,0.3,0,0.3-0.1,0.2
				c-0.2,0-5.6-0.3-16.1-0.8L350.3,194.5z"/>
			<path d="M347.6,204.1c2.1,1.2,6.5,3.1,13.3,5.9c-0.1,0.1-0.3,0.2-0.6,0.1c-8-2.9-12.3-4.9-13-5.9L347.6,204.1z"/>
			<path d="M351,220.1c-0.3-0.3-1.6-1.3-3.9-3.1c-1.7-1.4-2.6-2.1-2.6-2.2c0-0.2,0-0.3,0.1-0.3l0.1,0c4.6,3.7,7.1,5.6,7.2,5.8
				c3.2,2.7,4.8,4.2,4.8,4.5c0,0.3,0,0.3-0.1,0.2c-0.7-0.6-1.7-1.4-2.9-2.5C352.2,221.1,351.3,220.3,351,220.1z"/>
			<path d="M342.8,222.9c0.2,0.4,2.8,3.7,7.5,10.1c3.2,4.2,4.7,6.4,4.7,6.7c0,0.3,0,0.3-0.1,0.2c-4.9-6.2-9-11.8-12.5-16.8
				L342.8,222.9z"/>
			<path d="M335.3,232.3c1.4,1.9,3.7,5.5,6.7,10.6c3,5,4.5,7.7,4.5,8.1c0,0.3,0,0.3-0.1,0.2c-2.4-4.1-4.2-7.3-5.5-9.4
				c-2.2-3.8-4.2-6.9-6-9.4L335.3,232.3z"/>
		</g>
	</g>
</g>
<g id="ziutek_x5F_02">
</g>
<g id="ziutek_x5F_03">
</g>
<g id="ziutek_x5F_04">
</g>
<g id="ziutek_x5F_05">
</g>
<g id="ziutek_x5F_06">
</g>
<g id="ziutek_x5F_07">
</g>
<g id="ziutek_x5F_08">
</g>
<g id="ziutek_x5F_09">
</g>
<g id="ziutek_x5F_10">
</g>
<g id="lady_x5F_01">
</g>
<g id="Layer_13">
</g>
<g id="Layer_12">
</g>
<g id="Layer_14">
</g>
<g id="Layer_15">
</g>
<g id="Layer_16">
</g>
<g id="Layer_17">
</g>
<g id="Layer_18">
</g>
<g id="Layer_19">
</g>
<g id="Layer_20">
</g>
<g id="Layer_21">
</g>
<g id="Layer_22">
</g>
<g id="Layer_23">
</g>
<g id="Layer_24">
</g>
<g id="Layer_25">
</g>
<g id="Layer_26">
</g>
<g id="Layer_27">
</g>
<g id="Layer_28">
</g>
<g id="Layer_29">
</g>
<g id="Layer_30">
</g>
<g id="Layer_31">
</g>
<g id="Layer_32">
</g>
<g id="Layer_33">
</g>
<g id="Layer_34">
</g>
<g id="Layer_36">
</g>
<g id="Layer_35">
</g>
<g id="Layer_37">
</g>
<g id="Layer_38">
</g>
<g id="Layer_39">
</g>
<g id="Layer_40">
</g>
</svg>
