<?xml version="1.0" encoding="utf-8"?>
<!-- Generator: Adobe Illustrator 18.1.1, SVG Export Plug-In . SVG Version: 6.00 Build 0)  -->
<!DOCTYPE svg PUBLIC "-//W3C//DTD SVG 1.1//EN" "http://www.w3.org/Graphics/SVG/1.1/DTD/svg11.dtd">
<svg version="1.1" xmlns="http://www.w3.org/2000/svg" xmlns:xlink="http://www.w3.org/1999/xlink" x="0px" y="0px"
	 viewBox="0 0 393 483" enable-background="new 0 0 393 483" xml:space="preserve">
<g id="ziutek_x5F_01">
</g>
<g id="ziutek_x5F_02">
</g>
<g id="ziutek_x5F_03">
</g>
<g id="ziutek_x5F_04">
</g>
<g id="ziutek_x5F_05">
</g>
<g id="ziutek_x5F_06">
</g>
<g id="ziutek_x5F_07">
</g>
<g id="ziutek_x5F_08">
</g>
<g id="ziutek_x5F_09">
</g>
<g id="ziutek_x5F_10">
</g>
<g id="lady_x5F_01">
</g>
<g id="Layer_13">
</g>
<g id="Layer_12">
</g>
<g id="Layer_14">
</g>
<g id="Layer_15">
</g>
<g id="Layer_16">
</g>
<g id="Layer_17">
</g>
<g id="Layer_18">
</g>
<g id="Layer_19">
</g>
<g id="Layer_20">
</g>
<g id="Layer_21">
</g>
<g id="Layer_22">
</g>
<g id="Layer_23">
</g>
<g id="Layer_24">
</g>
<g id="Layer_25">
</g>
<g id="Layer_26">
</g>
<g id="Layer_27">
</g>
<g id="Layer_28">
</g>
<g id="Layer_29">
</g>
<g id="Layer_30">
</g>
<g id="Layer_31">
</g>
<g id="Layer_32">
</g>
<g id="Layer_33">
	<g>
		<g>
			<path fill="#FFFFFF" d="M128.8,225.9c0.3,13.6-21.9,37.7-15.9,46.3c10.1,14.6,25.4-12.9,27-21.3L128.8,225.9z"/>
			<g>
				<path fill="#1D1D1D" d="M127.7,226c-0.1,10-7.2,19.6-11.7,28.1c-3.3,6.3-8.3,14.8-2.1,20.7c4.8,4.6,11.3,0.6,15.1-3.1
					c5.5-5.4,10.3-13.6,11.9-21.1c0.2-0.8-2-0.5-2.2,0.3c-1.4,6.3-5,12.4-8.9,17.5c-2.4,3.1-6,7.2-10.2,7.3
					c-4.2,0.1-6.9-4.8-6.7-8.4c0.4-7.3,5.8-14.6,9.2-20.8c3.4-6.3,7.7-13.4,7.7-20.8C129.9,224.8,127.7,225.3,127.7,226L127.7,226z"
					/>
			</g>
		</g>
		<g>
			<path fill="#BFBFBF" d="M273.3,291.7c-9.1-3.3-16.4,7.6-26,10c-17.2,4.3-24.5-6.7-23.5-9.1l-3.4,7.2
				c-2.1,6.5,12.7,21.3,21.4,23.1C276,329.8,292,298.6,273.3,291.7z"/>
			<g>
				<path fill="#1D1D1D" d="M219.4,299.9c-1.4,5.9,5.2,12.2,9,15.8c5.4,5.1,11.4,8,18.9,8.5c12.6,0.8,27.1-3.3,33.2-15.3
					c4.8-9.5-2.2-20-13.1-18.1c-3.2,0.6-6.1,2.5-8.7,4.2c-5.2,3.4-9.8,6.2-16.2,7c-5.1,0.6-10.3-0.7-14.3-3.8
					c-1.5-1.1-4-3.7-3.5-5.8c0.2-0.7-1.8-0.4-2,0.3c-0.7,2.9,3,6,5,7.3c4.7,3.2,10.6,3.5,16.1,2.8c7.1-0.9,12.5-5.1,18.4-8.8
					c6.7-4.1,15.7-2.2,17.7,5.9c3.4,13.2-13.9,21.8-24.1,23.1c-8.9,1.1-16.7-0.9-23.6-6.5c-4.4-3.5-12.2-10.7-10.8-17
					C221.6,299,219.6,299.3,219.4,299.9L219.4,299.9z"/>
			</g>
		</g>
		<g>
			<path fill="#FFFFFF" d="M144.8,303.3c-17.4-10.2-17.8-32.9-16.8-57.8c0.7-16.8-2.1-54,7.5-67c7.2-9.7,24.8-19.8,40.9-20.9
				c34.5-2.2,50.1,10.6,56.4,39.4c5.3,24.5,7.6,71.9-5.5,96.8c-4.7,8.9-7.9,14.2-19.4,17.6c-7.4,2.2-17.5,2.1-25.4,0.9
				C168.3,310.6,158.1,311.1,144.8,303.3z"/>
			<g>
				<path fill="#1D1D1D" d="M145.7,302.9c-21.2-13.1-16.8-42.5-16.6-63.7c0.1-11.2-0.2-22.4,0.5-33.6c0.6-9.4,1.5-20.4,7.5-28.2
					c15.8-20.5,51.5-25.7,73.7-13.5c17.9,9.8,21.6,32.8,23.7,51.2c2.8,24.8,3.3,53.5-7.3,76.6c-2.4,5.2-5.3,10.5-9.7,14.2
					c-6.7,5.8-16.8,6.7-25.3,6.5c-7.9-0.1-16-1.4-23.8-2.3c-8.2-1-15.7-3.3-22.8-7.4c-0.5-0.3-2.4,0.5-1.6,0.9
					c11.9,6.8,24.4,7.4,37.7,9c10.7,1.2,22.2,1.7,32.1-3.2c8.3-4.1,12.8-12,16.3-20.3c4.6-10.5,6.2-22.3,7.1-33.7
					c1.8-21.7,0.8-45.4-5.6-66.3c-5.4-17.9-18.1-29-36.6-31.7c-17-2.5-34.7,0.6-49,10.4c-5.9,4-11.5,8.8-14.3,15.5
					c-3.1,7.4-3.7,15.9-4.3,23.8c-1.1,16.5-0.7,33.3-0.9,49.9c-0.2,16.9,1.3,36.8,17.2,46.5C144.4,304,146.2,303.2,145.7,302.9z"/>
			</g>
		</g>
		<path fill="#F4F4F4" d="M231,229.7c-3.5,23.3-6.1,40.5-26.6,56.8c-10.4,8.2-27.5,10.7-40.5,9.4c-6.5-0.6-11.6-1.7-17.9-3.5
			c-3.7-1.1-15.8-11.3-10-2.8c2,3,5.3,6.2,9.3,9.2c7.7,5.8,19,9.2,25.7,9.9c13.4,1.5,21.4,2.1,32.5-1.1
			c11.2-3.2,18.4-10.5,22.7-18.7c4.7-9,6.6-17.3,8-27.2C236.4,246.4,231.1,229.1,231,229.7z"/>
		<g>
			<g>
				<path fill="#FFFFFF" d="M211.3,142.8c0,0-9.7,4.6-15.9,16.2l29.4,18.1C227.4,165.8,220,148.1,211.3,142.8z"/>
				<g>
					<path fill="#1D1D1D" d="M196.4,159.1c2.9-5.1,6.5-9.5,11.1-13.1c1.1-0.8,2.2-1.6,3.4-2.2c0.2-0.1,0.5-0.3,0.8-0.4
						c-1.1,0.5,2.1,2.7,2.1,2.7c7.6,7.4,12,20.7,10,31c-0.2,1,1.9,0.7,2.1-0.2c2.3-11.8-3.4-26.8-12.9-34.2c-2.1-1.6-4.2,0.5-6,1.8
						c-5.3,3.7-9.4,8.7-12.5,14.3C193.8,159.9,196,159.9,196.4,159.1L196.4,159.1z"/>
				</g>
			</g>
			<path fill="#FFDEEE" d="M198.3,159.4c4.4-10.4,13-13.9,13-13.9c4.2,6.3,5.3,15.4,4.4,23.2L198.3,159.4z"/>
			<g>
				<path fill="#1D1D1D" d="M210.7,145.9c4.9,5.8,5.4,14.5,5.1,21.7c-0.1,1.4-0.1,0.7,0.5,1c-1.1-0.7-2.3-1.4-3.4-2.1
					c-3.9-2.3-8-4.5-12.3-6.1c-0.2-0.1-0.8,0.3-0.4,0.4c5.5,2,10.7,5,15.7,8.1c0.2,0.1,0.6,0,0.6-0.2c0.7-7.7,0.1-17.2-5.1-23.2
					C211.2,145.4,210.5,145.7,210.7,145.9L210.7,145.9z"/>
			</g>
		</g>
		<g>
			<path fill="#FFFFFF" d="M145.4,303.8c4.1,26.1,6.1,31.6,15.1,32.2c9.1,0.5,9-8.8,9-23.9L145.4,303.8z"/>
			<g>
				<path fill="#1D1D1D" d="M144.4,304c1.3,8.2,2.3,16.8,5.3,24.6c1.3,3.5,3.6,6.4,7.3,7.5c15,4.4,13.6-15,13.6-24.2
					c0-1.1-2-0.8-2,0.1c0,6.3,0.6,13.4-1.6,19.4c-1.8,4.7-8,4.5-11.5,2c-3.1-2.1-4.2-6.5-5.1-9.9c-1.8-6.6-2.8-13.4-3.8-20.2
					C146.2,302.5,144.2,303,144.4,304L144.4,304z"/>
			</g>
		</g>
		<g>
			<path fill="#FFFFFF" d="M189.1,313.1c0.8,14.8-2.2,26.1,9.2,26.9c9.3,0.6,11.3-5.6,16.2-31.6L189.1,313.1z"/>
			<g>
				<path fill="#1D1D1D" d="M213.5,308.4c-1.3,6.8-2.5,13.6-4.4,20.2c-1,3.5-2.5,8.2-6,10c-4.7,2.4-10.4-0.5-12-5.3
					c-2-6.3-0.8-13.9-1-20.5c0-1-2-0.6-2,0.2c0.4,9.9-2.8,30.4,13.5,27.3c3.7-0.7,6-3.3,7.6-6.6c3.8-7.8,4.8-17.2,6.3-25.6
					C215.7,307.3,213.7,307.6,213.5,308.4L213.5,308.4z"/>
			</g>
		</g>
		<g>
			<g>
				<path fill="#FFFFFF" d="M136.3,149.2c-3,6.2-4.3,19.7-1.8,30.4l26.3-19.5C154.4,153.2,146.4,151,136.3,149.2z"/>
				<g>
					<path fill="#1D1D1D" d="M161.7,159.6c-6.9-7-15.6-9.5-25-11.1c-0.5-0.1-1.1,0.2-1.3,0.6c-4.2,9.3-3.9,21-1.8,30.8
						c0.2,0.9,2.2,0.4,2-0.5c-1.8-8.5-1.8-17.5,0.3-25.9c0.7-2.9,0.7-3.4,3.5-2.8c2.5,0.5,4.9,1.1,7.4,1.8c5.1,1.6,9.5,4.3,13.2,8.1
						C160.5,161.2,162.4,160.3,161.7,159.6L161.7,159.6z"/>
				</g>
			</g>
			<path fill="#FFDEEE" d="M153.4,163.5c-1.4-6-15.5-11.9-15.5-11.9c-3.1,8.8-1.1,20.2-0.1,24.8c0,0,4.7-5.1,6.6-6.6
				C146.3,168,153.4,163.5,153.4,163.5z"/>
			<g>
				<path fill="#1D1D1D" d="M138,151.7c3.9,1.7,7.4,4,10.5,6.9c1.5,1.4,2.6,3.1,3.5,4.9c0.6,1.3,0,1.2-1,1.9
					c-4.2,2.8-9,5.7-12.2,9.7c-0.2,0.2,0.5,0.2,0.6,0c3.5-4.3,8.9-7.5,13.5-10.5c0.1,0,0.2-0.1,0.1-0.2c-2.1-6.3-8.6-10.5-14.4-13
					C138.4,151.3,137.8,151.6,138,151.7L138,151.7z"/>
			</g>
		</g>
		<g>
			<path fill="#F9F9F9" d="M153.6,297.4c-6.9-4.7-8.3-24.7-5.1-30.9c5-11.1,20.2-12.3,30.7-10.6c15.4,3,18.5,11,17,25.2
				c-0.4,5.5-0.2,15.6-4.2,19C186.1,305.1,164.3,304.7,153.6,297.4z"/>
			<path fill="#FFFFFF" d="M189.2,265.8c-0.1-0.2-0.2-0.5-0.4-0.7c-4.4-8.2-17.8-10.8-25.1-6.9c-7.5,3.9-13.5,8.6-12.8,23.1
				c0.5,10.3,13.4,19.9,23,17.8C186.2,296.3,195.2,278.8,189.2,265.8z"/>
			<g>
				<path fill="#1D1D1D" d="M150,293c-5.2-14.9-2.4-33.9,15.5-37.9c6.8-1.5,14.8-1.1,20.9,2.4c5.5,3.1,7.3,9.1,8.1,15
					c0.8,5.7,0.8,11.7,0.3,17.4c-0.3,3.3-0.6,6.8-2.9,9.3c-3.3,3.5-9,4-13.6,4.1c-7.7,0.1-15.4-1.7-22.8-3.6c-0.1,0-0.7,0.2-0.5,0.2
					c10.5,2.8,25.4,6.9,35.6,0.8c2.5-1.5,3.6-3.6,4.2-6.4c1.7-7.4,1.3-15.7,0.2-23.2c-1.1-7.7-4.9-13.2-12.5-15.7
					c-5.6-1.8-12.8-1.7-18.4-0.1c-16.9,4.9-20,23-14.7,38C149.4,293.3,150.1,293.1,150,293L150,293z"/>
			</g>
			<path fill="#1D1D1D" d="M168.8,274.9c-0.2-1.2-1.5-0.7-1.9,0.1c-0.5,1,0.3,2.1,1.4,1.4C168.8,276,168.9,275.4,168.8,274.9z"/>
		</g>
		<g>
			<path fill="#E8E8E8" d="M175,219.9c-0.1-1.4-0.8-0.2-2.2-1c0,0,0,0,0,0c-0.1-0.2-0.2-0.3-0.4-0.4c-1.4-0.9-2.7-0.7-3.4,0.4
				c-0.2,0.1-1.7,0.4-1.9,0.7c-1.9,3.5-1.6,11.4,3.4,11.4C176.2,230.9,175.1,221.7,175,219.9z"/>
			<path fill="#D385AE" d="M168.3,220.8c0,0-0.9,8.3,2.1,8.6c3,0.3,3.2-8.1,3.2-8.1s-1-0.6-1.7-1.5c-0.6-0.9-0.8-2.3-1.2-3
				c-0.4-0.7-0.6,1.1-1.1,2.1C169.1,220.1,168.3,220.8,168.3,220.8z"/>
			<path fill="#E8E8E8" d="M180,215.5c-1.6-2.3-4.2-2.9-6.6-2c-1.2,0.5-3,2.4-2.4,3.9c0,0,0-0.1,0-0.1c-1.3-3.1-4.4-5.2-7.8-3.5
				c-2.2,1.1-3,3.5-2.6,5.9c0.7,4.3,5.9,4.7,8.5,2c0.8-0.8,1.4-2.3,1.6-3.3c0.1,0.1,0.8,1.6,0.9,1.8c0.2,2,1.1,3.8,5.7,3.7
				c1.3-0.1,2.5-1.6,3.2-2.7C181.4,219.4,181.4,217.5,180,215.5z"/>
			<g>
				<path fill="#1D1D1D" d="M160.3,219.8c0,3.4,3.9,4.2,6.6,3.6c3.4-0.8,4-3.3,4-6.4c0-0.3-0.8-0.1-0.8,0.1c-0.1,1.9,0,4-1.8,5.2
					c-2.5,1.7-7.2,0.9-7.2-2.7C161.1,219.3,160.3,219.5,160.3,219.8L160.3,219.8z"/>
			</g>
			<g>
				<path fill="#1D1D1D" d="M170.1,217.3c-0.1,3.2,0.9,6,4.3,6.7c2.8,0.6,5.6-0.9,6.5-3.7c0.1-0.5-0.7-0.5-0.8-0.1
					c-0.7,2.5-2.9,3.5-5.4,3.1c-3.1-0.5-3.8-3.4-3.7-6.1C171,216.8,170.1,216.9,170.1,217.3L170.1,217.3z"/>
			</g>
			<g>
				<path fill="#545454" d="M115.6,224.1c12-5.7,25.6-6,38.3-3.1c0.2,0,0.9-0.3,0.7-0.3c-13.2-3-27.2-2.5-39.5,3.3
					C114.6,224.2,115.4,224.2,115.6,224.1L115.6,224.1z"/>
			</g>
			<g>
				<path fill="#545454" d="M118.2,214.7c12.5-2.3,24.3-0.2,36.2,3.5c0.3,0.1,1-0.3,0.5-0.5c-12.1-3.8-24-5.9-36.6-3.6
					C117.8,214.3,117.6,214.8,118.2,214.7L118.2,214.7z"/>
			</g>
			<g>
				<path fill="#545454" d="M226.4,227.1c-13.2-6.7-26.7-8.3-41.2-6.2c-0.4,0.1-0.7,0.5-0.1,0.4c14.3-2.1,27.7-0.5,40.7,6.2
					C225.9,227.6,226.7,227.2,226.4,227.1L226.4,227.1z"/>
			</g>
			<g>
				<path fill="#545454" d="M227.2,218c-14.4-3.5-27.7-2.9-42.1,0c-0.3,0.1-0.7,0.4-0.2,0.3c14.2-2.9,27.3-3.4,41.5,0
					C226.7,218.4,227.4,218.1,227.2,218L227.2,218z"/>
			</g>
			<g>
				<path fill="#FF99C3" d="M170.5,217.2c0.9,0.1,4.3-2.6,3.5-3.7c-1.1-1.5-5.5-1.3-6.2,0C166.9,215,170.1,217.2,170.5,217.2z"/>
				<g>
					<path fill="#1D1D1D" d="M170.3,217.6c1.6,0,3.3-1.6,4.1-2.9c1.2-1.8-1.6-2.5-2.9-2.6c-1.4-0.1-4.1,0.1-4.5,1.9
						c-0.3,1.4,1.9,3.3,3.1,3.6c0.4,0.1,1.4-0.5,0.7-0.7c-0.8-0.2-1.7-1.1-2.2-1.8c-1.3-1.6,0.4-2.3,1.9-2.3c0.9,0,3.3,0.2,2.9,1.6
						c-0.2,0.8-1.8,2.5-2.7,2.5C170.3,216.9,169.5,217.6,170.3,217.6z"/>
				</g>
			</g>
		</g>
		<g>
			<path fill="#1D1D1D" d="M147.3,176.3c1.9-2.1,4.2-2.6,6.8-1.6c0.5,0.2,1.6-0.5,0.8-0.8c-3.3-1.2-6.4-0.4-8.8,2.1
				C145.6,176.6,147,176.7,147.3,176.3L147.3,176.3z"/>
		</g>
		<g>
			<path fill="#1D1D1D" d="M194.1,173.6c1.2-0.8,4.1-0.1,5.1,0.9c0.6,0.7,2.5-0.2,1.8-0.9c-1.9-2-6-2.3-8.3-0.9
				c-0.4,0.2-0.5,0.8-0.1,1C193.1,174,193.7,173.9,194.1,173.6L194.1,173.6z"/>
		</g>
		<g>
			<g>
				<path fill="#1D1D1B" d="M144,186c1.5-1.1-1.5,0.3-3.7-0.3c-2.7-0.8-3.9-3.9-4.9-2.8c-0.9,1,1.6,3.4,4.3,4.2
					C141.2,187.5,144,186,144,186z"/>
				<path fill="#1D1D1B" d="M140.9,187.4c0.8-1.4-0.5,0.6-2.9,0.5c-2.4-0.1-4.2-2.7-4.6-1.5c-0.4,1.1,3.2,3.3,5.6,3
					C140.3,189.2,140.9,187.4,140.9,187.4z"/>
			</g>
			<g>
				<g>
					<path fill="#FFFFFF" d="M138.8,206.1c5.9,11.1,23.6,4.3,25,2c4.4-7.1-3.3-25.9-20.4-22.3C141.8,186.1,132.6,194.5,138.8,206.1z
						"/>
					<g>
						<path fill="#1D1D1D" d="M138,206.5c4.5,7.6,14.3,7.5,21.8,4.6c2.3-0.9,4.5-1.8,5.5-4.1c1.5-3.3,0.5-7.4-0.7-10.6
							c-3.1-8.1-11.6-13-20.1-11.4c-9.2,1.7-9.7,14.8-6.6,21.4c0.4,0.8,2.1,0.2,1.8-0.5c-2-4.1-2.7-8.2-1.3-12.6
							c0.7-2.2,2.7-6,5.1-6.9c8-2.9,16.2,3.5,19.3,10.5c2.1,4.9,2.3,10.7-3.1,13c-6.8,2.9-15.9,2.9-20.1-4.1
							C139.2,205,137.5,205.7,138,206.5z"/>
					</g>
				</g>
				<circle fill="#1D1D1D" cx="151.4" cy="197.6" r="4.9"/>
			</g>
		</g>
		<g>
			<g>
				<path fill="#1D1D1B" d="M201.8,185.6c-1.5-1.1,1.5,0.3,3.7-0.3c2.7-0.8,3.9-3.9,4.9-2.8c0.9,1-1.6,3.4-4.3,4.2
					C204.6,187.2,201.8,185.6,201.8,185.6z"/>
				<path fill="#1D1D1B" d="M205,187.1c-0.8-1.4,0.5,0.6,2.9,0.5c2.4-0.1,4.2-2.7,4.6-1.5c0.4,1.1-3.2,3.3-5.6,3
					C205.5,188.9,205,187.1,205,187.1z"/>
			</g>
			<g>
				<g>
					<path fill="#FFFFFF" d="M207.1,205.8c-5.9,11.1-23.6,4.3-25,2c-4.4-7.1,3.3-25.9,20.4-22.3
						C204.1,185.8,213.2,194.2,207.1,205.8z"/>
					<g>
						<path fill="#1D1D1D" d="M206.2,205.9c-4.5,7.6-14.7,6.4-21.5,2.9c-4.4-2.3-3-8.9-1.6-12.6c1-2.7,2.8-5,4.8-6.9
							c3.2-3.1,10.6-5.8,14.7-2.9C209,190.7,209.2,199.6,206.2,205.9c-0.2,0.3,1.5,0.2,1.8-0.3c3.5-7.3,2.3-19.8-7.4-20.9
							c-8.4-1-15.9,4.2-19.2,11.7c-1.4,3.2-1.9,7-0.7,10.4c0.9,2.7,4.4,3.6,6.8,4.4c7.3,2.3,16.3,1.5,20.5-5.6
							C208.1,205.3,206.5,205.5,206.2,205.9z"/>
					</g>
				</g>
				<circle fill="#1D1D1D" cx="196.2" cy="196.4" r="4.9"/>
			</g>
		</g>
		<g>
			<path fill="#D8D8D8" d="M189.6,158.5c-10.6-2.1-24.6,1.9-26.2,2.5c-0.7,0.4-0.5,8.1,11.9,7.9
				C185.4,168.8,192.8,159.1,189.6,158.5z"/>
			<g>
				<path fill="#1D1D1D" d="M162.8,161.6c-1,6.1,5.8,7.6,10.6,7.5c6.6-0.2,14.2-3.2,17-9.5c0.2-0.4-0.6-0.3-0.7-0.1
					c-2.6,5.8-9.3,8.6-15.3,9c-4.7,0.3-11.9-0.9-10.9-7C163.6,161.2,162.8,161.3,162.8,161.6L162.8,161.6z"/>
			</g>
		</g>
		<g>
			<path fill="#FFFFFF" d="M228.8,234.4l-15.2,11.7c10,19.3,15.5,35.3,23.5,32.7C251.9,273.9,235.3,246.5,228.8,234.4z"/>
			<g>
				<path fill="#1D1D1D" d="M212.6,246.6c5,9.8,9,21.8,16.5,30.1c3.7,4.1,8.8,3.7,12.6,0c5-4.8,1.7-14.2-0.3-19.5
					c-3-8.2-7.5-15.7-11.6-23.3c-0.4-0.8-2.5,0-2,0.9c5.8,10.7,15,23.8,14.1,36.5c-0.3,3.4-2.8,7.1-6.6,7c-3.4-0.1-6-4.6-7.5-7
					c-5.2-8-8.8-17.2-13.2-25.7C214.2,244.9,212.1,245.7,212.6,246.6L212.6,246.6z"/>
			</g>
		</g>
		<g>
			<path fill="#FFFFFF" d="M118.6,260.7c-1.1,2.1-3.1,5-1.6,6.5c2.4,2.3,4.3-2.1,4.9-4.6L118.6,260.7z"/>
			<g>
				<path fill="#1D1D1D" d="M118,260.8c-0.8,1.6-2,3.1-2.1,4.9c-0.1,1.3,0.9,2.4,2.2,2.5c2.8,0.2,4.1-3.6,4.6-5.7
					c0.1-0.4-1.2-0.2-1.3,0.2c-0.2,1-0.6,1.9-1,2.8c-0.5,1-1.2,2.5-2.4,1.7c-2.1-1.5,0.5-5,1.4-6.6
					C119.4,260.3,118.2,260.4,118,260.8L118,260.8z"/>
			</g>
		</g>
	</g>
</g>
<g id="Layer_34">
</g>
<g id="Layer_36">
</g>
<g id="Layer_35">
</g>
<g id="Layer_37">
</g>
<g id="Layer_38">
</g>
<g id="Layer_39">
</g>
<g id="Layer_40">
</g>
</svg>
