<?xml version="1.0" encoding="utf-8"?>
<!-- Generator: Adobe Illustrator 18.1.1, SVG Export Plug-In . SVG Version: 6.00 Build 0)  -->
<!DOCTYPE svg PUBLIC "-//W3C//DTD SVG 1.1//EN" "http://www.w3.org/Graphics/SVG/1.1/DTD/svg11.dtd">
<svg version="1.1" xmlns="http://www.w3.org/2000/svg" xmlns:xlink="http://www.w3.org/1999/xlink" x="0px" y="0px"
	 viewBox="0 0 393 483" enable-background="new 0 0 393 483" xml:space="preserve">
<g id="ziutek_x5F_01">
</g>
<g id="ziutek_x5F_02">
</g>
<g id="ziutek_x5F_03">
</g>
<g id="ziutek_x5F_04">
</g>
<g id="ziutek_x5F_05">
</g>
<g id="ziutek_x5F_06">
</g>
<g id="ziutek_x5F_07">
</g>
<g id="ziutek_x5F_08">
</g>
<g id="ziutek_x5F_09">
</g>
<g id="ziutek_x5F_10">
</g>
<g id="lady_x5F_01">
</g>
<g id="Layer_13">
</g>
<g id="Layer_12">
</g>
<g id="Layer_14">
</g>
<g id="Layer_15">
</g>
<g id="Layer_16">
</g>
<g id="Layer_17">
</g>
<g id="Layer_18">
</g>
<g id="Layer_19">
</g>
<g id="Layer_20">
</g>
<g id="Layer_21">
</g>
<g id="Layer_22">
</g>
<g id="Layer_23">
	<g>
		<g>
			<ellipse fill="#D2D1CF" cx="187.7" cy="316.7" rx="108.3" ry="9.7"/>
			<path fill="#5F3814" d="M241.5,268.3c36.3-43,47.6,2.4,35.8,9.8c-1.3-8.1,0.1-11.6-8.3-16.1C260.7,257.4,242.2,283.4,241.5,268.3
				z"/>
			<path fill="#EE7B12" d="M199.6,253.1c0,0,7.3,51.7,0,57.4c-7.3,5.6,17.6,1.5,17.6,1.5l-3.4-43L199.6,253.1z"/>
			<path fill="#F49A37" stroke="#1D1D1B" stroke-miterlimit="10" d="M174.7,167c-11.2-4-27.8,33.4-27.8,33.4s-2.8,42.7,24.3,69.2
				c1.7,19.4,8.8,37.7-1.2,43.6c-10,5.9,17.1,6.8,18.9,2.7c1.8-4.1,0.7-30.9,0.7-30.9s13.5,12.8,23.7,8.8c-5,7,1.1,16.7,1.1,16.7
				s0.5,1.7-3.2,4.5c-3.7,2.8,30.9,2.1,40-0.1c9.2-2.2,12.9-33.4-5.2-51.3C227.8,245.9,197,236.1,174.7,167z"/>
			<path fill="#3F9E90" d="M179.5,208.9c2.1-1.3,7.5-5.7,10.6-8.5c3.1-2.7-4-9.9-5.7-8c0.3,1,1.4,3.1,1.4,3.1
				c-17.4,15.2-38.5,10.8-40.8,10c-2.2-0.8-3.7,5.6-0.4,6.9C148,213.7,161.2,220.3,179.5,208.9z"/>
			<g>
				<path fill="#523320" d="M152.3,148.8c4-5.6,2.1-12.8-5.8-3.2c-7.9,9.7-24.1,32.9-23,63.1c1.1,30.2,13.4,33.1,19.4,20.8
					C148.8,217.2,140.4,167.1,152.3,148.8z"/>
				<path fill="#F49A37" stroke="#1D1D1B" stroke-miterlimit="10" d="M169.6,147.7c-1.7-8.7-15.7-7.3-21.8-2.4
					c-6.1,4.9,4.8,22.1-45.5,13.4c-16.2,44.1,52.9,22.5,52.9,22.5s-21.4,4.8-31.5,10.8c-5.2,3.1-4.9,11,0.7,13.5
					C139.6,212.6,180.3,197.2,169.6,147.7z"/>
				<ellipse fill="#FFFFFF" stroke="#000000" stroke-miterlimit="10" cx="159.7" cy="160.2" rx="7.6" ry="7.6"/>
				<ellipse fill="#FFFFFF" stroke="#000000" stroke-miterlimit="10" cx="144.6" cy="157" rx="7.6" ry="7.6"/>
				<g>
					
						<ellipse transform="matrix(0.4014 -0.9159 0.9159 0.4014 -48.6509 238.0241)" fill="#2B150D" cx="157.8" cy="156.2" rx="1.5" ry="1.4"/>
					
						<ellipse transform="matrix(0.4015 -0.9159 0.9159 0.4015 -48.6383 237.0645)" fill="#FDFFFF" cx="157.1" cy="155.7" rx="0.9" ry="0.8"/>
				</g>
				<g>
					
						<ellipse transform="matrix(0.4014 -0.9159 0.9159 0.4014 -55.1508 221.6656)" fill="#2B150D" cx="142" cy="153" rx="1.7" ry="1.6"/>
					
						<ellipse transform="matrix(0.4015 -0.9159 0.9159 0.4015 -55.1309 220.5645)" fill="#FDFFFF" cx="141.2" cy="152.5" rx="1.1" ry="1"/>
				</g>
				<path fill="#523320" d="M162.6,146.8c-4-5.6-2.1-12.8,5.8-3.2c7.9,9.7,24.1,32.9,23,63.1c-1.1,30.2-13.4,33.1-19.4,20.8
					C166,215.2,174.4,165.1,162.6,146.8z"/>
				
					<ellipse transform="matrix(0.9822 0.1877 -0.1877 0.9822 32.1245 -16.6157)" fill="#2B150D" cx="103.8" cy="161.3" rx="8.4" ry="5.1"/>
			</g>
		</g>
		<path fill="#9F5918" stroke="#000000" stroke-miterlimit="10" d="M154.3,181.5c0,0-17.1,7.2-38.5,4.7c-0.5,2,0.3,4.7,2.7,8
			C146.1,202.5,154.3,181.5,154.3,181.5z"/>
		<path fill="#DF512E" d="M136.5,186.4c0,0-9.5,14.7-11.4,20.1c-1.9,5.5-20.4,5.9-16.5-3.7c3.9-9.5,19.2-15.7,19.2-15.7L136.5,186.4
			z"/>
	</g>
</g>
<g id="Layer_24">
</g>
<g id="Layer_25">
</g>
<g id="Layer_26">
</g>
<g id="Layer_27">
</g>
<g id="Layer_28">
</g>
<g id="Layer_29">
</g>
<g id="Layer_30">
</g>
<g id="Layer_31">
</g>
<g id="Layer_32">
</g>
<g id="Layer_33">
</g>
<g id="Layer_34">
</g>
<g id="Layer_36">
</g>
<g id="Layer_35">
</g>
<g id="Layer_37">
</g>
<g id="Layer_38">
</g>
<g id="Layer_39">
</g>
<g id="Layer_40">
</g>
</svg>
