<?xml version="1.0" encoding="utf-8"?>
<!-- Generator: Adobe Illustrator 18.1.1, SVG Export Plug-In . SVG Version: 6.00 Build 0)  -->
<!DOCTYPE svg PUBLIC "-//W3C//DTD SVG 1.1//EN" "http://www.w3.org/Graphics/SVG/1.1/DTD/svg11.dtd">
<svg version="1.1" xmlns="http://www.w3.org/2000/svg" xmlns:xlink="http://www.w3.org/1999/xlink" x="0px" y="0px"
	 viewBox="0 0 393 483" enable-background="new 0 0 393 483" xml:space="preserve">
<g id="ziutek_x5F_01">
</g>
<g id="ziutek_x5F_02">
</g>
<g id="ziutek_x5F_03">
</g>
<g id="ziutek_x5F_04">
</g>
<g id="ziutek_x5F_05">
</g>
<g id="ziutek_x5F_06">
</g>
<g id="ziutek_x5F_07">
</g>
<g id="ziutek_x5F_08">
</g>
<g id="ziutek_x5F_09">
</g>
<g id="ziutek_x5F_10">
</g>
<g id="lady_x5F_01">
</g>
<g id="Layer_13">
</g>
<g id="Layer_12">
</g>
<g id="Layer_14">
</g>
<g id="Layer_15">
</g>
<g id="Layer_16">
</g>
<g id="Layer_17">
</g>
<g id="Layer_18">
</g>
<g id="Layer_19">
</g>
<g id="Layer_20">
</g>
<g id="Layer_21">
</g>
<g id="Layer_22">
</g>
<g id="Layer_23">
</g>
<g id="Layer_24">
</g>
<g id="Layer_25">
</g>
<g id="Layer_26">
</g>
<g id="Layer_27">
</g>
<g id="Layer_28">
</g>
<g id="Layer_29">
</g>
<g id="Layer_30">
	<g>
		<g>
			<g>
				<path fill="#E57F23" d="M284.3,288.8c-9.9-3.5-7.1,18.8-27,19c-19.4,0.2-19.7-14.5-18-19.5l-5.9,12c0.9,8.2,10.2,16.7,20.9,20.5
					C280.8,330,304.3,295.8,284.3,288.8z"/>
				<path fill="#1D1D1D" d="M232.3,300.6c1.5,9.5,10.2,15.9,18.4,19.8c7.4,3.5,15.7,3.6,23.3,0.8c9.8-3.6,23.4-16.4,17.6-28
					c-1.7-3.4-7.3-6.9-11.2-5.2c-4.2,1.8-6,7.5-8.3,11c-5.6,8.4-17.1,10.3-25.8,5.5c-5.5-3-7.8-10.3-5.9-16.1
					c0.4-1.2-1.8-1.3-2.1-0.3c-3.2,9.8,3.5,18.1,13,20.1c6.4,1.3,13.3,0.2,18.5-3.8c4.1-3.2,6-8.2,8.8-12.4
					c3.8-5.7,10.7-0.3,11.9,4.8c1.6,6.6-3.8,13.6-8.4,17.6c-6.5,5.8-15.3,8.2-23.8,6.6c-10.1-1.8-22.1-10.3-23.9-21
					C234.3,299,232.1,299.5,232.3,300.6L232.3,300.6z"/>
			</g>
			<g>
				<path fill="#FFB24D" d="M150.2,308.9c-17.9-10-15.3-46.9-15.4-74.1c0-18.3,0.2-42.8,3.7-57.4c3.1-12.8,13.3-17,24.4-19.9
					c9.8-2.5,40.5-3.9,48.4-2.6c17.6,2.8,29.1,10.5,34.2,38.2c1.8,9.7,2.6,22.9,3.9,35.9c2.5,25.5,4.8,53.3-2.1,66.6
					c-5,9.8-9.3,17.1-20.1,19.4c-8.1,2.4-21.7,5-30.3,4.1C181.6,317.8,166.6,318,150.2,308.9z"/>
				<path fill="#1D1D1D" d="M151.1,308.2c-8.8-5.2-11.7-15.6-13.4-25c-2.1-11.9-1.9-24.2-1.8-36.2c0.1-12.5,0-25.1,0.4-37.6
					c0.4-11.9,0.2-26.3,5.3-37.3c4.7-10.3,17.8-13.6,28-15c9.8-1.4,19.9-1.8,29.8-1.9c8.3-0.1,16.2,0.5,23.9,3.8
					c9.2,3.9,14.6,12.2,17.9,21.2c6.4,17.5,6.2,37.7,8,56c1.7,17.7,4.5,37.9-1.1,55.2c-2.3,7.1-6.9,14.9-12.9,19.4
					c-6.8,5.1-18.5,6.2-26.6,7.1c-8.9,1.1-18.1-0.1-27-0.9C170.8,316.1,160.6,313.4,151.1,308.2c-0.8-0.4-2.7,0.7-1.7,1.2
					c11.8,6.4,24.4,8.7,37.7,9.6c12.2,0.9,23.3,0.7,35.3-2.1c10.2-2.4,17.1-6,22.7-15.1c5.8-9.6,7.6-19.4,8-30.5
					c0.5-13.7-1-27.5-2.3-41.1c-1.4-14.1-2-28.5-5.1-42.4c-2-8.9-5.5-18.4-12.4-24.7c-5.8-5.3-13-7.7-20.5-9
					c-7-1.3-14.5-0.7-21.6-0.4c-8.5,0.3-17.1,0.8-25.4,2.3c-7.5,1.4-16.2,4-21.7,9.5c-7,7-7.9,17.2-8.9,26.6
					c-2.3,22.9-1.9,46.4-1.4,69.3c0.3,15.5,0.4,38.9,15.7,47.9C150.2,309.9,152.1,308.9,151.1,308.2z"/>
			</g>
			<path fill="#F9A138" d="M238.6,259.6c-2.8,10.8-8,20.8-18.8,30.2c-10.9,9.5-20.4,16.6-34.6,15.8c-7.1-0.4-21.3-4-41.3-20
				c-3.3-2.6-7.8,0.9-1.3,10c2,2.8,7.3,9.3,14.7,13.3c15.6,8.5,48.4,7.2,56.7,5.3c16.3-3.7,22.2-7.9,26.6-17.1
				c4.7-10.1,5.2-21.9,6.3-32.8C248.3,247.7,241.5,248.8,238.6,259.6z"/>
			<g>
				<path fill="#E57F23" d="M251.2,260.7c-3.4,10.6-12.4,12.3-11.4,15.3c0.7,2,9,2.3,10.2-2.5L251.2,260.7z"/>
			</g>
			<g>
				<path fill="#E57F23" d="M246.6,210c-1.6,11-10.3,14.2-8.8,17c1,1.9,9.3,0.8,9.6-4.1L246.6,210z"/>
			</g>
			<g>
				<path fill="#E57F23" d="M247.8,288.6c-9.3,9.3-12,4.5-12,7.7c0,1,6.5,4.7,8.3,1.9C247.9,292.5,247.8,288.6,247.8,288.6z"/>
			</g>
			<g>
				<path fill="#E57F23" d="M135.8,260.7c3.4,10.6,12.4,12.3,11.4,15.3c-0.7,2-9,2.3-10.2-2.5L135.8,260.7z"/>
			</g>
			<g>
				<path fill="#E57F23" d="M136.3,210.6c2.4,10.9,11.2,13.4,10,16.3c-0.8,1.9-9.2,1.5-9.9-3.4L136.3,210.6z"/>
			</g>
			<g>
				<path fill="#E57F23" d="M139.2,288.6c9.3,9.3,12,4.5,12,7.7c0,1-6.5,4.7-8.3,1.9C139.2,292.5,139.2,288.6,139.2,288.6z"/>
			</g>
			<g>
				<path fill="#FFB24D" d="M233.6,312l-20.8,5.9c1.1,5.2,2.4,29.6,15.4,27.4C237.5,343.6,239.8,338,233.6,312z"/>
				<path fill="#1D1D1D" d="M211.6,318.2c1.7,8.9,2.7,30.5,16.7,27.8c15.7-3,8.8-23.8,6.3-34.3c-0.2-1-2.4-0.5-2.2,0.6
					c2.2,9,9.5,30.3-5.1,32.2c-11.2,1.5-12.2-19.9-13.5-27C213.6,316.6,211.4,317.1,211.6,318.2L211.6,318.2z"/>
			</g>
			<g>
				<path fill="#FFFFFF" d="M196.8,202.9c12.1,21.9,39.8,8.1,34.7-13.6c-5.1-22.4-37.7-16.6-36.5,6.4
					C195,197.6,195.9,201.3,196.8,202.9z"/>
				<path fill="#1D1D1D" d="M195.7,203.2c5.6,9.7,15.6,13.8,26,9.2c11.2-5,14.3-19.1,8.6-29.3c-4.8-8.6-15.6-10-24-6.7
					C195.7,180.6,191,192.9,195.7,203.2c0.2,0.5,2.4-0.2,2.2-0.6c-3.8-8.3-1.6-18.3,5.7-23.8c7.7-5.7,18.6-3.6,24,4
					c5.4,7.7,4.2,18.8-2,25.5c-9.1,9.8-21.9,4.1-27.7-5.8C197.5,202.1,195.5,202.9,195.7,203.2z"/>
			</g>
			
				<ellipse transform="matrix(0.9995 3.103065e-02 -3.103065e-02 0.9995 6.1444 -6.5545)" fill="#1D1D1D" cx="214.2" cy="194.7" rx="4.4" ry="4.7"/>
			<g>
				<path fill="#FFFFFF" d="M148.3,202.9c12.1,21.9,39.8,8.1,34.7-13.6c-5.1-22.4-37.7-16.6-36.5,6.4
					C146.5,197.6,147.4,201.3,148.3,202.9z"/>
				<path fill="#1D1D1D" d="M147.2,203.2c5.4,9.2,15.8,14.4,26,9.3c10.9-5.5,14.5-18.7,8.6-29.4c-4.8-8.6-15.6-10-24-6.8
					C147.1,180.5,142.5,193,147.2,203.2c0.3,0.6,2.4-0.1,2.2-0.6c-3.8-8.3-1.6-18.2,5.8-23.7c7.4-5.5,17.9-3.8,23.5,3.3
					c6,7.6,4.8,19.3-1.5,26.2c-9,9.7-21.9,4.1-27.7-5.7C149,202,146.9,202.8,147.2,203.2z"/>
			</g>
			
				<ellipse transform="matrix(0.9995 3.103065e-02 -3.103065e-02 0.9995 6.1211 -5.0495)" fill="#1D1D1D" cx="165.7" cy="194.7" rx="4.4" ry="4.7"/>
			<g>
				<path fill="#FFB24D" d="M232.4,137.3c0,0-14.8,4.2-22.3,17.1l26.9,15.5C237.4,157.9,239.4,148.2,232.4,137.3z"/>
				<path fill="#1D1D1D" d="M211.2,154.3c4.7-7.7,12.6-14.1,21.4-16.6c-0.4-0.1-0.8-0.1-1.2-0.2c6.3,10.3,5,21.1,4.6,32.6
					c0,0.5,2.1,0.2,2.2-0.6c0.4-11.5,1.7-22.3-4.6-32.6c-0.2-0.4-0.9-0.3-1.2-0.2c-9.4,2.7-18,9.2-23.1,17.6
					C208.7,155.2,210.8,154.9,211.2,154.3L211.2,154.3z"/>
			</g>
			<g>
				<path fill="#E57F23" d="M175.9,157.2c-4.6,4.3-3,10.9,5.5,12c24.1,3.1,21.8-3.8,21.5-12.7C198,154.7,175.9,157.2,175.9,157.2z"
					/>
			</g>
			<g>
				<path fill="#FFF3E3" d="M219,159.3c2.4-14.4,11.7-19.2,11.7-19.2c5.3,6.7,4.8,19.8,3.1,27.7L219,159.3z"/>
			</g>
			<path fill="#1D1D1D" d="M218.9,158.8c2.9-7.9,7.9-14.5,12.7-21.2c0.2-0.3-0.5-0.3-0.7-0.1c-4.8,6.8-9.8,13.3-12.7,21.2
				C218,159.1,218.8,159.1,218.9,158.8L218.9,158.8z"/>
			<path fill="#1D1D1D" d="M175.4,157c-1.1,2.8-2.3,6.7-0.3,9.3c2.9,3.8,8.3,4,12.6,4.1c4.6,0,9.8-0.4,13.6-3.2
				c3.3-2.3,2.8-6.8,2-10.2c0-0.2-0.7,0-0.7,0.2c0.6,2.6,1,5.2,0,7.7c-2.5,6-13.7,5.4-18.9,4.9c-7.9-0.8-10.3-6.1-7.6-12.9
				C176.2,156.7,175.5,156.8,175.4,157L175.4,157z"/>
			<g>
				<path fill="#FFB24D" d="M148.2,307c-6.4,29.3-4,35.8,5.8,36.9c7.1,0.8,12.4-4.4,16.9-28.5L148.2,307z"/>
				<path fill="#1D1D1D" d="M147.2,307.1c-2,9.2-4.7,19.3-3.2,28.8c0.7,4.4,3.4,7.2,7.7,8.2c15.4,3.5,18.5-18.7,20.4-29
					c0.2-0.8-2-0.5-2.2,0.3c-1.7,9-4.6,32.3-18.8,27c-3.9-1.5-4.9-5.6-5.2-9.4c-0.7-8.7,1.7-17.8,3.5-26.2
					C149.5,306,147.3,306.4,147.2,307.1L147.2,307.1z"/>
			</g>
			<g>
				<g>
					<path fill="#FFB24D" d="M145.5,141.4c-3.5,4.8-6.2,21.3-5.6,30.2l27-14.5C160.1,149.5,156.1,147.2,145.5,141.4z"/>
					<path fill="#1D1D1D" d="M167.9,156.6c-6.3-6.8-13.5-11.4-21.6-15.8c-0.7-0.4-1.5-0.1-1.9,0.5c-5.3,8.1-6.2,21-5.7,30.4
						c0.1,1.1,2.2,0.8,2.2-0.2c-0.4-9.2,0.4-22,5.6-29.9c-0.6,0.2-1.3,0.3-1.9,0.5c8,4.4,15,8.8,21.2,15.5
						C166.6,158.3,168.6,157.4,167.9,156.6L167.9,156.6z"/>
				</g>
				<g>
					<path fill="#FFF3E3" d="M154.1,159.1c0.4-14.6-7.7-14.6-7.7-14.6c-4.3,8.4-5,21.3-3,24.6L154.1,159.1z"/>
				</g>
				<path fill="#1D1D1D" d="M146.4,143.6c1.8,2.1,3.6,4.1,5,6.5c0.6,0.9,3.9,7.7,2.6,8.8c-3,2.5-5.8,5.2-8.2,8.2
					c-0.2,0.3,0.5,0.2,0.7,0c2-2.5,4.3-4.7,6.7-6.9c0.2-0.2,1.6-1.1,1.6-1.5c-0.5-6.4-3.6-10.8-7.7-15.5
					C146.9,143.1,146.2,143.4,146.4,143.6L146.4,143.6z"/>
			</g>
			<g>
				<g>
					<path fill="#EDE1CF" d="M172.5,306.7c-8-4.5-10.2-27.5-6.9-34.4c4.9-12.4,21.5-14.3,32.9-13c16.9,2.5,20.7,11.1,19.7,26.6
						c-0.2,6,0.5,17-3.6,20.9C208.4,312.7,181.3,311.7,172.5,306.7z"/>
				</g>
				<path fill="#FFF3E3" d="M209.7,268.3c-3.6-9.3-15.2-12.5-24.9-7.5c-1.9,1-3.6,2.3-4.9,3.8c-2.7,1.2-5.1,3.2-6.9,5.9
					c-1.2,1.6-2,3.3-2.4,5c-2.5,7.1-3.2,16.7,2.4,22c6.2,5.8,16.4,4.4,23.3,0.6C204.9,293.2,217.2,278,209.7,268.3z"/>
				<path fill="#1D1D1D" d="M168.9,302.9c-5.5-13.7-6.4-31.7,7.3-40.7c6.8-4.5,16.8-5.1,24.6-3.5c7.4,1.5,12.1,6.6,14.2,13.6
					c1.7,5.7,2.2,11.9,2.4,17.9c0.2,5.7,0.3,12.7-4.5,16.5c-5.5,4.4-14,5.1-20.8,5.1c-6.4,0-13.2-1.2-18.8-4.4
					c-0.2-0.1-0.9,0.2-0.6,0.3c10.9,6.3,27.2,6.1,38.4,0.6c5.5-2.7,6.5-7.3,6.9-13.1c0.6-8.2-0.3-17.2-2.9-25
					c-4.9-14.4-23.8-14.5-35.6-10c-17.5,6.7-17.2,28.3-11.3,43C168.3,303.3,169,303.1,168.9,302.9L168.9,302.9z"/>
				<path fill="#1D1D1D" d="M192.1,279.3c-1.9-0.8-2.5,2.9-0.8,3.6c2,0.7,2.6-2.4,1.1-3.4C192.4,279.5,192.2,279.4,192.1,279.3z"/>
			</g>
			<g>
				<path fill="#FFF3E3" d="M201.1,214.8c-2.1-2.6-6.4-4-9.4-2.5c-1.5,0.7-3.6,3-2.8,4.8c0-0.1,0-0.1-0.1-0.2
					c-1.7-3.7-5.5-6.2-9.6-4c-2.7,1.5-3.6,4.4-3.1,7.3c1,5.2,7.4,5.5,10.4,2.2c0.9-1,1.7-2.9,1.9-4.1c0.1,0.2,1.1,1.9,1.1,2.2
					c0.3,2.4,1.4,4.7,7,4.3c1.5-0.1,4.1-2.2,4.9-3.6C202.7,218.9,202.5,216.5,201.1,214.8z"/>
				<path fill="#1D1D1D" d="M175.7,220.4c0.1,4.1,5.3,5.2,8.5,4c1.5-0.5,2.9-1.2,3.9-2.5c1.1-1.4,0.9-3.8,0.9-5.4
					c0-0.2-1.4,0-1.4,0.4c0,2.4,0.1,4.8-2,6.3c-3,2.1-8.3,0.8-8.4-3.2C177.1,219.7,175.7,220,175.7,220.4L175.7,220.4z"/>
				<path fill="#1D1D1D" d="M188.2,217.2c0,4.2,1.3,8.3,6.3,8.5c3.6,0.1,6.3-1.8,6.8-5.4c0.1-0.6-1.4-0.3-1.4,0.2
					c-0.5,3.7-3.5,5.3-7,3.9c-3.1-1.3-3.3-4.6-3.3-7.5C189.6,216.4,188.2,216.7,188.2,217.2L188.2,217.2z"/>
				<g>
					<path fill="#FF99C3" d="M188.3,216.9c1-0.1,6.2-4.1,5.1-4.8c-1-0.6-8.3-0.6-8.8,0.3C183.9,213.5,187.8,216.9,188.3,216.9z"/>
					<path fill="#1D1D1D" d="M188.2,217.2c2.1-0.4,4.4-2.5,5.7-4.1c1.5-2-2.7-1.7-3.7-1.8c-1.2,0-5.8-0.4-6.4,1.1
						c-0.6,1.5,2.7,4.5,4,4.7c0.4,0.1,1.7-0.6,0.9-0.7c-1.2-0.2-2.8-2.4-3.4-3.3c-0.6-1,0.3-1,1.1-1c1-0.1,2.1-0.1,3.1-0.1
						c0.8,0,1.6,0.1,2.4,0.2c0.9,0.1,0.9,0.4,0.4,1.1c-0.6,0.8-1.4,1.4-2.2,2c-0.4,0.3-0.8,0.6-1.2,0.9c-0.1,0.1-0.8,0.4-0.6,0.3
						C187.8,216.7,187.2,217.4,188.2,217.2z"/>
				</g>
			</g>
			<path fill="#1D1D1D" d="M245.8,211.3c-0.7,3.6-2.7,6.6-4.8,9.5c-1.6,2.2-4.1,3.4-4.8,6.2c0,0,0,0.1,0.1,0.1
				c4,1.3,8.7,1.3,11.4-2.4c0-0.1-0.6,0-0.7,0.1c-2.3,3.2-6.1,3.2-9.4,2.3c-2-0.5,2.5-4.8,3.1-5.3c2.8-2.7,5-6.9,5.7-10.6
				C246.5,211,245.9,211.1,245.8,211.3L245.8,211.3z"/>
			<path fill="#1D1D1D" d="M250.3,262.3c-2.3,5.4-6.5,9.4-11.4,12.6c-0.1,0.1-0.2,0.2-0.1,0.2c4,1.8,8.5,1.9,12-0.9
				c0.3-0.2-0.4-0.2-0.5-0.1c-3.1,2.3-6.7,2.3-10.2,1c-1-0.4,0.8-1.2,0.9-1.3c1-0.7,1.9-1.5,2.9-2.3c3-2.6,5.5-5.8,7-9.4
				C251.1,262,250.4,262.1,250.3,262.3L250.3,262.3z"/>
			<path fill="#1D1D1D" d="M247.6,288.7c-3.3,3.7-7.6,6.9-12.8,6.4c-0.1,0-0.6,0.1-0.4,0.3c2.3,2.8,5.2,5.1,9,4.6
				c0.3,0,0.6-0.5,0.1-0.4c-3.6,0.5-6.3-1.9-8.5-4.4c-0.1,0.1-0.3,0.2-0.4,0.3c5.5,0.6,10.1-2.7,13.7-6.6
				C248.4,288.5,247.8,288.5,247.6,288.7L247.6,288.7z"/>
			<path fill="#1D1D1D" d="M139.1,289.2c2.1,2.1,4.5,3.9,7.2,5.3c0.7,0.3,1.3,0.7,2,1c0.5,0.3,3,0.8,1.7,1.6c-2.1,1.3-4.5,2.2-7,1.7
				c-0.4-0.1-0.7,0.4-0.2,0.5c3.3,0.6,6.2-0.8,8.8-2.6c0.2-0.1,0.1-0.3,0-0.4c-4.4-1.9-8.5-4.1-11.9-7.5
				C139.4,288.5,138.8,288.9,139.1,289.2L139.1,289.2z"/>
			<path fill="#1D1D1D" d="M136.1,261.8c1.7,4.4,4.5,7.8,7.9,11.1c0.8,0.7,1.5,1.5,2.3,2.2c0.4,0.4,1.5,0.7,0.7,1.1
				c-2.9,1.5-6.4,0.3-9-1.1c-0.2-0.1-0.8,0.2-0.6,0.3c3.1,1.6,7.4,2.8,10.5,0.6c0,0,0.1-0.1,0.1-0.2c-4.5-4.2-9-8.3-11.2-14.2
				C136.7,261.4,136,261.6,136.1,261.8L136.1,261.8z"/>
			<path fill="#1D1D1D" d="M136.3,211.6c1.6,3.4,3.5,6.6,5.8,9.6c1.2,1.5,2.5,2.9,3.9,4.2c2.1,1.9-3,2.2-3.7,2.2
				c-1.5,0-3-0.4-4.4-0.9c-0.2-0.1-0.8,0.2-0.5,0.3c3.6,1.3,7.2,1.4,10.5-0.6c0.1,0,0.2-0.2,0.1-0.2c-4.9-3.7-8.4-9.2-11-14.7
				C136.9,211.1,136.2,211.4,136.3,211.6L136.3,211.6z"/>
			<path fill="#545454" d="M211.8,218.7c20.1-5.2,41.8-6.9,61.9-1c0.4,0.1,1.6-0.5,1.2-0.6c-20.5-6-42.8-4.2-63.2,1.1
				C210.8,218.4,210.9,218.9,211.8,218.7L211.8,218.7z"/>
			<path fill="#545454" d="M210.6,225.5c7-3.5,17.2-3.1,24.7-3.1c15.6,0,31.1,3.2,45.7,8.8c0.3,0.1,1.6-0.4,1.2-0.6
				c-16-6.1-32.9-9.1-50-8.7c-6.9,0.2-16,0.3-22.4,3.5C208.9,225.8,210.3,225.7,210.6,225.5L210.6,225.5z"/>
			<path fill="#545454" d="M111.8,237.5c8.5-4.6,17.3-8.4,26.8-10.3c8.7-1.8,17.6-1.8,26.4-1.9c0.3,0,1.6-0.6,0.9-0.6
				c-10,0-19.9,0.4-29.7,2.5c-9,2-17.5,5.9-25.6,10.3C110.1,237.8,111.5,237.6,111.8,237.5L111.8,237.5z"/>
			<path fill="#545454" d="M100.8,222.4c21-7.2,41.7-8.1,63.7-5.9c0.7,0.1,1.5-0.9,0.5-1c-22.2-2.2-43.2-1.3-64.4,6
				C99.7,221.7,99.9,222.7,100.8,222.4L100.8,222.4z"/>
			<path fill="#1D1D1D" d="M154,170.5c4.9,0.9,10.8-0.2,13.6-4.6c0.6-1-1.6-0.9-2.1-0.2c-2.1,3.4-6.6,4.1-10.3,3.5
				C154.4,169.1,152.7,170.3,154,170.5L154,170.5z"/>
			<path fill="#1D1D1D" d="M210.9,165.4c3.9,0.5,8.2,1.6,11.2,4.4c0.5,0.5,2.6-0.3,2-0.8c-3.1-2.9-7.7-4.1-11.8-4.6
				C211.6,164.2,209.7,165.2,210.9,165.4L210.9,165.4z"/>
			<g>
				<g>
					<path fill="#FFB24D" d="M144.6,245.7c-2.6-7.8-6-14.9-7.4-20.4c-1.2-4.5-0.7-18.8-13-13.9c-5,2-7.3,6.3-4.6,17.6
						c3.6,15.4,8.1,28.2,12.5,31.3C140.3,266.1,148.8,258.3,144.6,245.7z"/>
					<path fill="#1D1D1D" d="M145.7,245.4c-2.5-7.2-6.5-14.5-7.8-22c-0.7-4.1-1-8.6-4-11.7c-2.6-2.8-7.1-1.6-10.2-0.5
						c-4.2,1.5-6.1,5-6.4,9.4c-0.5,7.9,2.9,16.7,5.3,24.1c1.7,5.3,3.7,12.5,8.4,16.1c3.4,2.7,8,2.6,11.5,0.4
						C147.8,257.8,147.2,250.5,145.7,245.4c-0.2-0.6-2.4,0-2.2,0.6c1.5,5,2.3,17.7-7.4,15.4c-4.4-1-6.5-5.6-8.2-9.3
						c-2.1-4.6-3.6-9.6-5-14.5c-1.7-6-3.7-12.3-3.3-18.6c0.3-5.1,5.3-9.3,10.6-7.7c3.2,1,4.3,5.3,4.9,8.1c0.6,3,0.9,5.9,1.9,8.8
						c1.9,6,4.6,11.8,6.6,17.7C143.8,246.6,145.9,246,145.7,245.4z"/>
				</g>
				<g>
					<path fill="#FFB24D" d="M136.6,220.1c1.9-1.7,2-4.2,5.2-2.3c3.2,1.9-1.3,7.8-3.9,9.9l-1.5-0.5l-2-5L136.6,220.1z"/>
					<path fill="#1D1D1B" d="M136.1,219.1c1.1-1.1,1.4-2.5,3.2-2.7c1.5-0.1,3.2,1,4,2.1c2.2,3-2.7,8-4.7,9.7c-0.5,0.4-2-0.7-1.5-1.2
						c1.8-1.6,3.4-3.6,4.4-5.8c0.5-1.2,0.8-4.8-1.9-3.4c-0.9,0.5-2.5,2.9-3.2,3.7c-0.5,0.5-1.5-0.5-1.1-0.9L136.1,219.1z"/>
				</g>
			</g>
			<path fill="#1D1D1D" d="M180.8,229.1c4.4-2.9,10.8-1.7,14.9,1.2c0.3,0.2,0.9-0.2,0.6-0.4c-4.5-3.1-11.2-4.2-15.9-1.1
				C179.9,229,180.5,229.3,180.8,229.1L180.8,229.1z"/>
			<g>
				<g>
					<path fill="#FFB24D" d="M249.8,234.9l-20.1,5.4c1.8,21.6-7.8,41.4,5.5,43.5C250.6,285,249.8,245.2,249.8,234.9z"/>
					<path fill="#1D1D1D" d="M228.6,240.5c0.5,7.7-0.2,15.4-1,23.1c-0.5,4.9-1.2,10,0,14.8c1.5,6.1,9.3,7.8,13.9,4
						c6.2-5.1,7.4-15,8.3-22.4c1-8.3,1-16.8,1-25.2c0-1-2-0.6-2,0.2c0.1,13.6,0.8,29.2-5.1,41.8c-1.4,3-3.6,5.9-7,6.3
						c-5.4,0.7-7.3-4.8-7.6-9c-0.4-5.4,0.7-11.1,1.2-16.5c0.6-5.9,0.8-11.8,0.4-17.7C230.6,239.2,228.6,239.6,228.6,240.5
						L228.6,240.5z"/>
				</g>
				<g>
					<path fill="#FFB24D" d="M224.7,272.6c0.6,1.5,3.3,1.2,3.8-0.5l0.6-8.7C227.9,265.5,223.6,269.9,224.7,272.6z"/>
					<path fill="#1D1D1D" d="M229.3,264.1c-0.9,1.4-2,2.8-2.9,4.2c-0.6,0.9-1,1.9-1.1,3c-0.1,1.7,1.2,2.2,2.7,0.8
						c0.3-0.3,0.6-1,0.7-1.4c0.1-0.4,0,2-0.2,2.3c-0.7,0.7-1.5,0.9-2.4,0.9c-1.1,0-2.1-0.6-2.2-2c-0.3-2.6,2.1-5,3.7-7.2
						c0.3-0.4,1-1.7,1.2-2.1C228.8,262.3,229.4,263.9,229.3,264.1z"/>
				</g>
			</g>
			<path fill="#1D1D1D" d="M113.2,228.4c-0.9-7.3-0.8-15.4,7-18.7c0.6-0.3,0.1-0.6-0.4-0.4c-8.1,3.4-8.5,11.6-7.6,19.3
				C112.3,229,113.3,228.7,113.2,228.4L113.2,228.4z"/>
			<path fill="#1D1D1D" d="M108.9,225.7c-0.4-5.9,0-14,6.4-16.6c0.6-0.3,0.1-0.7-0.4-0.5c-6.8,2.8-7.4,11-6.9,17.4
				C107.9,226.3,108.9,226.1,108.9,225.7L108.9,225.7z"/>
		</g>
	</g>
</g>
<g id="Layer_31">
</g>
<g id="Layer_32">
</g>
<g id="Layer_33">
</g>
<g id="Layer_34">
</g>
<g id="Layer_36">
</g>
<g id="Layer_35">
</g>
<g id="Layer_37">
</g>
<g id="Layer_38">
</g>
<g id="Layer_39">
</g>
<g id="Layer_40">
</g>
</svg>
