<?xml version="1.0" encoding="utf-8"?>
<!-- Generator: Adobe Illustrator 18.1.1, SVG Export Plug-In . SVG Version: 6.00 Build 0)  -->
<!DOCTYPE svg PUBLIC "-//W3C//DTD SVG 1.1//EN" "http://www.w3.org/Graphics/SVG/1.1/DTD/svg11.dtd">
<svg version="1.1" xmlns="http://www.w3.org/2000/svg" xmlns:xlink="http://www.w3.org/1999/xlink" x="0px" y="0px"
	 viewBox="0 0 393 483" enable-background="new 0 0 393 483" xml:space="preserve">
<g id="ziutek_x5F_01">
</g>
<g id="ziutek_x5F_02">
</g>
<g id="ziutek_x5F_03">
</g>
<g id="ziutek_x5F_04">
</g>
<g id="ziutek_x5F_05">
</g>
<g id="ziutek_x5F_06">
</g>
<g id="ziutek_x5F_07">
</g>
<g id="ziutek_x5F_08">
</g>
<g id="ziutek_x5F_09">
</g>
<g id="ziutek_x5F_10">
</g>
<g id="lady_x5F_01">
</g>
<g id="Layer_13">
</g>
<g id="Layer_12">
</g>
<g id="Layer_14">
</g>
<g id="Layer_15">
</g>
<g id="Layer_16">
</g>
<g id="Layer_17">
</g>
<g id="Layer_18">
</g>
<g id="Layer_19">
</g>
<g id="Layer_20">
</g>
<g id="Layer_21">
	<g>
		<ellipse fill="#D2D1CF" cx="196.5" cy="324.4" rx="114.2" ry="10.2"/>
		<path fill="#5F3814" stroke="#000000" stroke-miterlimit="10" d="M253.2,273.4c38.2-45.3,50.2,2.6,37.7,10.3
			c-1.4-8.5,0.1-12.2-8.7-17C273.4,262,253.9,289.4,253.2,273.4z"/>
		<path fill="#5F3814" d="M148.6,237.7c-4.3,13.3-27.8-5.6-19.2-21.8c8.5-16.2,35.5-55.4,57.2-47.7
			C205.8,178,152.9,224.4,148.6,237.7z"/>
		<path fill="#EE7B12" stroke="#000000" stroke-miterlimit="10" d="M165.9,253.6c0,0,7.7,54.5,0,60.5c-7.7,5.9,18.5,1.5,18.5,1.5
			l-3.6-45.3L165.9,253.6z"/>
		<path fill="#EE7B12" stroke="#000000" stroke-miterlimit="10" d="M209,257.3c0,0,7.7,54.5,0,60.5c-7.7,5.9,18.5,1.5,18.5,1.5
			l-3.6-45.3L209,257.3z"/>
		<path fill="#F49A37" stroke="#1D1D1B" stroke-miterlimit="10" d="M182.7,166.6c-11.8-4.2-23.3,13.3-66.9-13.2
			c-17.2,51.5,37.6,48.5,37.6,48.5s-3,45,25.6,72.9c1.8,20.5,9.3,39.7-1.3,45.9c-10.5,6.2,18,7.2,19.9,2.8
			c1.9-4.4,0.8-32.5,0.8-32.5s14.3,13.5,25,9.3c-5.3,7.3,1.2,17.6,1.2,17.6s0.5,1.8-3.3,4.8c-3.9,3,32.5,2.2,42.2-0.1
			c9.6-2.3,13.6-35.2-5.5-54C238.7,249.7,206.3,239.4,182.7,166.6z"/>
		<g>
			
				<ellipse transform="matrix(0.4014 -0.9159 0.9159 0.4014 -62.0011 246.7935)" fill="#2B150D" cx="157.8" cy="170.8" rx="7.2" ry="6.6"/>
			<path fill="#FFFFFF" stroke="#000000" stroke-miterlimit="10" d="M159.8,164.3c-0.5-0.2-1.1-0.4-1.7-0.5c-0.3,0-0.7-0.1-1.1-0.1
				c-1.8,0-3.4,0.6-4.7,1.9c-1.3,1.3-2,2.8-2,4.7c0,0.8,0.1,1.5,0.3,2.2c0.3,0.9,0.8,1.7,1.5,2.5c0,0,0,0,0,0.1
				c0.4,0.3,0.7,0.6,1.1,0.9c0.4,0.3,0.8,0.5,1.3,0.6c0,0,0.1,0,0.1,0c0.7,0.2,1.4,0.3,2.2,0.4c1.9,0,3.4-0.6,4.7-1.9
				c0.7-0.7,1.3-1.6,1.6-2.5c0.2-0.7,0.4-1.4,0.4-2.2c0-1.9-0.6-3.4-1.9-4.8C161.1,165.1,160.5,164.6,159.8,164.3z"/>
			<path d="M158.2,174.3c-0.4,0.2-0.8,0.3-1.3,0.1c-0.6-0.2-1-0.6-1-1.1c0-0.3,0-0.6,0.1-0.8c0.4-1,1-1.3,2-1
				c0.4,0.1,0.6,0.3,0.8,0.5c0,0-0.1,0-0.1-0.1c-0.4-0.2-0.7,0-0.8,0.4c0,0.1-0.1,0.2,0,0.3c0,0.2,0.2,0.4,0.4,0.5
				c0.4,0.1,0.7,0,0.8-0.4c0-0.1,0-0.2,0-0.2c0.1,0.3,0,0.6-0.1,1C158.8,173.8,158.6,174,158.2,174.3z"/>
		</g>
		
			<ellipse transform="matrix(0.9822 0.1877 -0.1877 0.9822 30.9028 -18.5784)" fill="#2B150D" cx="113.5" cy="153.8" rx="8.8" ry="5.3"/>
		<path d="M145,201.7L143,201c4.3-0.6,13-2.9,14-5.1c0.1-0.3,0.2-0.7-0.2-1.3l1.3-0.8c0.7,1.2,0.5,2.1,0.2,2.8
			C156.6,200.3,146.3,201.5,145,201.7z"/>
		<path fill="#3F9E90" d="M188.6,210.3c2.1-1.4,7.5-5.9,10.6-8.6c3.1-2.8-3.8-9.9-5.5-8c0.3,1,1.4,3.1,1.4,3.1
			c-17.3,15.5-38,11.4-40.2,10.6c-2.2-0.8-3.7,5.7-0.5,6.9C157.6,215.5,170.5,221.9,188.6,210.3z"/>
		<path fill="#5F3814" stroke="#1D1D1B" stroke-miterlimit="10" d="M198.3,243.8c5.4,12.9-24.7,13.9-28.8-4
			c-4.1-17.9-9.3-65.2,12.2-73.5C202.7,161.2,192.9,231,198.3,243.8z"/>
	</g>
</g>
<g id="Layer_22">
</g>
<g id="Layer_23">
</g>
<g id="Layer_24">
</g>
<g id="Layer_25">
</g>
<g id="Layer_26">
</g>
<g id="Layer_27">
</g>
<g id="Layer_28">
</g>
<g id="Layer_29">
</g>
<g id="Layer_30">
</g>
<g id="Layer_31">
</g>
<g id="Layer_32">
</g>
<g id="Layer_33">
</g>
<g id="Layer_34">
</g>
<g id="Layer_36">
</g>
<g id="Layer_35">
</g>
<g id="Layer_37">
</g>
<g id="Layer_38">
</g>
<g id="Layer_39">
</g>
<g id="Layer_40">
</g>
</svg>
