<?xml version="1.0" encoding="utf-8"?>
<!-- Generator: Adobe Illustrator 18.1.1, SVG Export Plug-In . SVG Version: 6.00 Build 0)  -->
<!DOCTYPE svg PUBLIC "-//W3C//DTD SVG 1.1//EN" "http://www.w3.org/Graphics/SVG/1.1/DTD/svg11.dtd">
<svg version="1.1" xmlns="http://www.w3.org/2000/svg" xmlns:xlink="http://www.w3.org/1999/xlink" x="0px" y="0px"
	 viewBox="0 0 393 483" enable-background="new 0 0 393 483" xml:space="preserve">
<g id="ziutek_x5F_01">
</g>
<g id="ziutek_x5F_02">
</g>
<g id="ziutek_x5F_03">
</g>
<g id="ziutek_x5F_04">
</g>
<g id="ziutek_x5F_05">
</g>
<g id="ziutek_x5F_06">
</g>
<g id="ziutek_x5F_07">
</g>
<g id="ziutek_x5F_08">
</g>
<g id="ziutek_x5F_09">
</g>
<g id="ziutek_x5F_10">
</g>
<g id="lady_x5F_01">
</g>
<g id="Layer_13">
</g>
<g id="Layer_12">
</g>
<g id="Layer_14">
</g>
<g id="Layer_15">
</g>
<g id="Layer_16">
</g>
<g id="Layer_17">
</g>
<g id="Layer_18">
</g>
<g id="Layer_19">
</g>
<g id="Layer_20">
</g>
<g id="Layer_21">
</g>
<g id="Layer_22">
</g>
<g id="Layer_23">
</g>
<g id="Layer_24">
</g>
<g id="Layer_25">
	<g>
		<g>
			<path fill="#F16888" d="M148.9,161.5c-0.5-11.5-5.5-23.2-16.7-26.7c-11-3.4-25.3,3-28.4,15.8c-0.1,0.4-0.5,0.8-0.8,1.2l-0.1,0.1
				c0,0,0,0,0,0c-5-9.5-17.4-15.8-27-9.6c-10.5,6.8-13.5,22.9-9.3,33.5c5.5,14.1,18,24.8,30.7,33c2.4,1.5,6.2,2.6,9.3,3.8
				c0.4,0,0.6,0,0.8-0.1c0.1-0.1,0.2-0.3,0.3-0.5c0.1-0.4,0.2-0.8,0.3-1.3c-1.3-0.5-2.6-1-3.8-1.6c-1-0.6-1.9-1.3-2.5-2.2
				c-0.5-0.3,1.5-1.2,1.5-2.3c-0.5-0.3-1.4-1-1.9-1.3c0.4-1.4,2-1.9,2.4-3.3c0.2-0.7-0.3-1.2-0.7-1.6c-0.5-0.4-1-0.9-0.9-1.4
				c-0.6-1.7,1.6-0.3,2.8,0.5c0.1-1,0.8,0.6,1.3-0.2c0.8-1.1,1.5-2.2,1.6-3.5c0,0,0,0,0,0c0.4-1.2,0.7-2.4,1.2-3.4
				c0.1-0.1,0.2-0.3,0.3-0.4c0,0,0,0-0.1,0c0.2-0.2,0.4-0.5,0.6-0.7c0.2-0.4,1.6,1,2.6,0.9c0.2-0.4,0.5-1.2,0.6-1.6
				c1.4,0.1,2.4,1.3,3.8,1.4c1.4,0.1,1.2-1.9,2.2-2c1.3-0.9,1,1.3,0.5,2.5c1-0.1-0.3,0.8,0.6,1.1c1.7,0.6,3.4,1.3,5.3,0
				c0.6-0.3,1.7,0.6,2.6,0.9c1-2.9,6.8-3.5,9.4-4.9c0.7-0.3,1.5,1,2.3,1.5c2.2-3.3,4.8-7.1,6.8-12
				C148.3,172.8,149.1,167.2,148.9,161.5z"/>
			<g>
				<path fill="#1D1D1D" d="M101.2,210c-10.5-5.4-19.5-13.6-26.9-22.8c-5.1-6.4-8.7-13.1-9.5-21.2c-0.7-7.1,0.8-14.7,6-19.8
					c3.9-3.9,9.6-4.9,14.9-4.9c7.8,0,13.3,5.4,17.5,11.4c0.1,0.2,0.7,0,0.7-0.2c2.1-9.3,8.7-15.2,18.1-16.6c6.6-1,13.8,0.5,18.5,5.3
					c12,11.9,10.3,36.6-0.3,48.7c-0.2,0.2,0.5,0.2,0.7,0c11.3-12.9,12.3-39.4-1.8-50.9c-9.8-8-27.4-3.4-33.5,6.9
					c-1,1.7-1.6,3.6-2.1,5.5c0.2-0.7-4.8-5.1-5.6-5.8c-3.9-3.6-8.1-4.7-13.2-4.7c-6.6,0-12.8,2.5-16.8,7.8
					c-10.2,13.7-0.5,31.8,8.9,42.6c6.6,7.7,14.8,14.4,23.8,19.1C100.8,210.4,101.5,210.1,101.2,210L101.2,210z"/>
			</g>
			<path fill="#F16888" d="M101.5,209.9c-0.2,0-0.3,0.2-0.3,0.3c0,0.1,0,0.1,0,0.2c0.6,2.9,0,6.3-0.2,9.2c-0.1,2.6-0.2,5.2-0.5,7.7
				c-0.2,1.4-1.1,6.6,1.5,6.5c1.7-0.1,1.8-2.4,1.7-3.5c-0.2-2.4-1.2-4.5-1.1-7c0-1.5,0.3-3,0.1-4.5c-0.1-0.7-0.2-1.4-0.4-2.1
				c-0.2-0.9-0.2-1.8-0.1-2.6c1,0.1,1.5,0.5,1.3,1.2c-0.1,1.8-0.6,3.4,1.1,4.5c0.1,0.1,0.3,0.1,0.3,0c1-1,1.1-2,1-3.3
				c-0.1-1-0.4-1.9-0.5-2.9c-0.1-0.9,0.6-1.3,0.7-2C106.9,209.6,102.5,209.9,101.5,209.9z"/>
			<g>
				<path fill="#F77799" d="M86,162c0.1,0.5,0,1-0.2,1.5c-0.1,0.5-0.3,0.9-0.4,1.5c-0.2,1.2,0,3,1.3,4.4c1.6,1.6,3.2,3.3,4.9,5
					c1.7,1.7,3.5,3.4,5.2,4.7c-0.5,0.7-1.7,1.6-1.6,2.2c0.5,2-0.4,3.6-1.4,5.1c-0.5,0.8-1.2-0.8-1.3,0.2c-1.2-0.8-3.4-2.1-2.8-0.4
					c-0.2,1,2,1.6,1.7,3c-0.3,1.4-2,2-2.3,3.4c0.5,0.3,1.5,1,2.1,1.3c0.1,1.1-1.9,2-1.3,2.4c1.3,1.8,4.1,2.6,7.1,3.4
					c-0.1,0.4-0.1,0.9-0.2,1.3c0,0.2-0.1,0.4-0.3,0.5c-0.2,0.1-0.5,0.2-0.9,0.2c-1.8-0.4-3.4-1-4.9-1.7c-1.5-0.7-2.9-1.4-4.3-2.2
					c-2.7-1.6-5.1-3.4-7.3-5.3c-2.2-2-4.3-4.2-6.2-6.6c-1.9-2.4-3.6-5.1-5-8.1c-1.4-3-2.5-6.5-2.8-10.4c-0.2-2-0.1-4.1,0.2-6.2
					c0.3-2.1,1-4.3,1.8-6.2c0.9-1.9,2-3.9,3.5-5.7c1.5-1.8,3.3-3.4,5.3-4.6c4.1-2.5,8.5-3.5,12.4-3.5c0.9,0.1,1.4,0.3,1.6,0.5
					c0.1,0.3,0.1,0.6-0.2,0.9c-0.5,0.7-1.7,1.5-2.8,2.3c0.7-0.5,0.9,0.8,1.6,0.3c0,0.7-0.3,1.6-0.9,2.5c-0.6,0.9-1.5,1.7-2.7,2.2
					c0.6-0.2,1.3-0.3,1.9-0.4c0.7,0.4,0.2,1.4,0.3,2.2c-0.6,0.1-1.1,0.2-1,0.6c0.1,0.4,0.3,1.3,0.4,1.8c0.5-0.1,1.4-0.3,1.9-0.3
					c-0.5,0-0.9,0.1-0.9,0.6c0.1,0.4,0.2,1.3,0.3,1.8c-0.4,0.3-0.8,0.3-1.3,0.3c-0.5,0-1,0.1-1.2,0.4l0.6,1.2
					c0.7,0.2,1.4-0.5,2.1-0.6c-0.3,0.5-0.2,0.9,0,1.8c-0.3,0.3-0.7,0.2-1.1,0.2c-0.4,0-0.7,0.2-0.6,0.9c0.2-0.1,0.3-0.2,0.5-0.3
					c0.3,1.1,0.2,1.3,0,1.3C86.5,161.7,86,161.7,86,162z"/>
			</g>
		</g>
		<g>
			<path fill="#E57F23" d="M320.6,292.2c-9.9-3.5-7.1,18.8-27,19c-19.4,0.2-19.8-14.5-18-19.5l-5.9,12c0.9,8.2,10.2,16.7,20.9,20.5
				C317.1,333.5,340.6,299.2,320.6,292.2z"/>
			<g>
				<path fill="#1D1D1D" d="M268.6,304.1c2.7,16.9,25.9,26.1,40.9,20.6c9.6-3.6,25.3-16.6,18.2-28.4c-1.9-3.2-7.1-6.1-10.8-4.5
					c-4.4,1.8-6.1,7.4-8.5,11.1c-5.8,8.8-18.6,10.5-27.1,4.4c-4.7-3.4-6.2-10.2-4.5-15.6c0.2-0.7-1.9-0.4-2.2,0.3
					c-3.5,10.9,5.2,18.8,15.4,19.8c5.5,0.6,11-0.5,15.6-3.7c4.3-3,6.4-8.1,9.1-12.4c3.8-6.1,10.9-0.9,12.2,4.6
					c1.6,6.4-3.4,13.2-7.7,17.3c-6.8,6.5-16.2,9-25.4,6.9c-9.8-2.3-21.3-10.5-23-20.9C270.7,302.8,268.5,303.3,268.6,304.1
					L268.6,304.1z"/>
			</g>
		</g>
		<g>
			<path fill="#FFB24D" d="M179.5,307.3c-17.9-10-12.3-46.9-12.4-74.1c0-18.3-2.8-42.8,0.7-57.4c3.1-12.8,13.1-16.9,24.4-18.9
				c6.8-1.2,12.6-2.9,21.6-3.7c12.5-1,18.9-1.2,26.8,0c17.6,2.8,28.6,14.2,35.2,39.2c7.4,28.1,11.3,81.4,0.8,101.5
				c-5,9.8-9.3,21.1-20.1,23.4c-8.1,2.4-21.7,1-30.3,0.1C211,316.3,195.9,316.5,179.5,307.3z"/>
			<g>
				<path fill="#1D1D1D" d="M180.4,306.7c-8.7-5.2-11.1-15.7-12.2-25.1c-1.4-12-0.6-24.2-0.2-36.2c0.4-12.1-0.1-24.1-0.5-36.1
					c-0.5-12.3-2-27.3,3.3-38.8c5.4-11.8,20.5-12.7,31.6-15c12.8-2.6,27-3.7,39.8-1.2c23,4.5,30.8,28.3,34.8,48.5
					c3.2,15.7,4.7,31.8,4.9,47.7c0.2,13.5-0.1,28.3-5.3,41c-2.8,6.8-6.4,14.2-11.3,19.7c-6.7,7.6-18.2,7-27.4,6.5
					C218.6,316.7,197.9,316.2,180.4,306.7c-0.7-0.4-2.7,0.6-1.7,1.1c11.8,6.4,24.4,8.7,37.7,9.6c12,0.8,24.3,2.9,36.3,1.4
					c10.1-1.3,15.9-7.5,20.6-16.1c4.4-8.1,7.7-16,9.2-25.2c3.6-21.7,1.6-44.9-1.7-66.5c-2.9-19-7.6-42.2-25-53.3
					c-6.9-4.4-15.3-5.7-23.2-6c-11.1-0.5-22.5,0.9-33.4,3.1c-8.4,1.8-18.2,2.6-25,8.6c-7.5,6.6-8.6,16.3-9.1,25.7
					c-0.6,11.7,0.3,23.5,0.7,35.2c0.4,11.4-0.2,22.8-0.5,34.2c-0.4,15.4-2.2,40,13.3,49.3C179.4,308.3,181.4,307.3,180.4,306.7z"/>
			</g>
		</g>
		<path fill="#F9A138" d="M249.1,288.3c-10.9,9.5-24.5,13.2-38.7,12.4c-7.1-0.4-14-1.9-20.9-3.5c-4.1-1-20.6-6.8-14.1,2.4
			c2,2.8,14.1,11.2,29.1,13.2c19,2.5,38.6,2.7,47,1.8c12.7-1.3,13.9-9.7,18.2-19c4.7-10.1,5.2-21.9,6.3-32.8
			C277.7,246.1,270.7,269.5,249.1,288.3z"/>
		<g>
			<path fill="#E57F23" d="M278.3,212.5c-1.7,3.9-4.4,9.5-7.4,12.6c-8.9,9.3-15.6,9.9-12.7,11.3c0.4,0.2,22.7-3.3,22-12.5
				L278.3,212.5z"/>
			<g>
				<path fill="#1D1D1D" d="M277.3,213.8c-1.8,5.3-6.5,10.1-10.1,14.1c-2,2.3-4.2,4.4-6.9,5.9c-1,0.5-2.8,1.2-3.2,2.3
					c0,0,0,0.1,0,0.1c1.6,1.7,7.6-0.8,9.4-1.4c4.7-1.5,10.5-3.9,13.7-7.8c0.2-0.2-0.5-0.1-0.7,0c-2.1,2.6-5,3.8-7.8,5.3
					c-1.8,0.9-3.6,1.6-5.5,2.3c-0.9,0.3-1.9,0.6-2.8,0.8c-2.6,1.8-4.2,1.7-4.8-0.3c2.4-1.8,4.8-2.9,7.1-5
					c4.5-4.3,10.2-10.4,12.3-16.4C278.1,213.5,277.4,213.6,277.3,213.8L277.3,213.8z"/>
			</g>
		</g>
		<path fill="#E57F23" d="M281.4,258c-2.3,3.6-6.4,10-9.8,12.6c-10.3,7.7-17,7.2-14.4,9.1c0.4,0.3,22.2,0.3,23-8.8L281.4,258z"/>
		<path fill="#E57F23" d="M277.9,286.6c-3.6,2.3-9,5.4-13.2,6.3c-12.6,2.7-18.4-0.6-16.9,2.2c0.2,0.4,20.6,10,25.2,2L277.9,286.6z"
			/>
		<g>
			<path fill="#FFB24D" d="M263.7,314.6l-23.4,4.4c0.5,5.3,1.9,10.9,3.7,17.3c2.3,8.3,3.5,12.9,12.7,12
				C267,347.2,267.6,340.2,263.7,314.6z"/>
			<g>
				<path fill="#1D1D1D" d="M239.2,319.2c0.6,5.9,2.1,11.6,3.7,17.3c0.9,3.2,1.7,6.5,3.6,9.3c2.9,4.3,9.9,3.8,14.2,2.3
					c3.7-1.3,5.4-4.5,6.1-8.2c1.4-8.2-0.7-17.4-1.9-25.5c-0.1-0.9-2.3-0.3-2.2,0.6c1,6.9,2.1,13.8,2.2,20.8c0,3.7-0.2,8.3-3.5,10.6
					c-5.2,3.7-12.3,0.9-14.5-4.6c-2.9-7.1-4.6-15.4-5.4-23C241.3,317.8,239.1,318.3,239.2,319.2L239.2,319.2z"/>
			</g>
		</g>
		<g>
			<path fill="#FFB24D" d="M250.7,134.7c0,0-7.5,8-12.3,18.1l26.9,15.5C266,158,262.3,143.4,250.7,134.7z"/>
			<g>
				<path fill="#1D1D1D" d="M239.5,152.9c3.2-6.5,7.2-12.6,12.1-17.9c-0.6,0.1-1.3,0.2-1.9,0.2c10.1,8,15.1,20.5,14.5,33.3
					c0,1,2.1,0.5,2.2-0.2c0.6-12.9-4.4-25.8-14.7-33.9c-0.5-0.4-1.5-0.2-1.9,0.2c-5,5.4-9.2,11.7-12.4,18.2
					C237,153.8,239.2,153.6,239.5,152.9L239.5,152.9z"/>
			</g>
		</g>
		<path fill="#E57F23" d="M199.8,156.6c-4.2,4.6-2,11.2,6.5,12.5c15.3,2.4,21.3-6.6,20.4-15.3C221.6,152.4,199.8,156.6,199.8,156.6z
			"/>
		<path fill="#FFF3E3" d="M241,154c2-8,10-16.9,10-16.9c4.5,7.2,6.3,17.9,4.7,24.9L241,154z"/>
		<g>
			<path fill="#1D1D1D" d="M257.6,162.2c1.4-8.7-0.8-18.6-6.7-25.3c-0.1-0.2-0.8,0.1-0.7,0.3c5.8,6.6,8,16.6,6.6,25.1
				C256.8,162.5,257.5,162.4,257.6,162.2L257.6,162.2z"/>
		</g>
		<g>
			<path fill="#1D1D1D" d="M199.3,156.4c-4.1,6.2-0.3,11.9,6.4,13.2c4.6,0.9,10.9,0.6,15-2c2-1.3,3.5-2.7,4.7-4.8
				c1.5-2.6,0.8-5.7,1.7-8.4c0.1-0.3-0.6-0.2-0.7,0.1c-1.7,4.8-0.4,8.7-5.2,12.3c-4.6,3.4-12,3.4-17.3,1.9c-5.8-1.6-7-7.7-4-12.3
				C200.1,156.1,199.5,156.2,199.3,156.4L199.3,156.4z"/>
		</g>
		<g>
			<path fill="#1D1D1D" d="M280.4,260.2c-5.3,7.9-15.6,14.6-24.3,18.4c-0.1,0-0.3,0.3-0.1,0.4c7,3.3,19,1,24.6-4.1
				c0.3-0.3-0.4-0.3-0.6-0.2c-4.6,4.2-11.5,5.1-17.5,5c-1.3,0-4.6-1.3-5.7-0.8c1.2-0.5,2.4-1.2,3.6-1.9c7.5-4.2,16-9.4,20.8-16.7
				C281.2,260,280.5,260,280.4,260.2L280.4,260.2z"/>
		</g>
		<g>
			<path fill="#1D1D1D" d="M276.4,287.1c-5.6,4.7-12.3,7.2-19.7,7.1c-2.6,0-6.1,0.3-8.6-0.4c-0.1,0-0.8,0.1-0.6,0.3
				c5.8,6.5,17.6,7.8,25.5,5.1c0.5-0.2,0-0.2-0.2-0.2c-6.5,2.2-15.8,1.1-21.8-2.5c-0.7-0.5-1.4-1-1.9-1.7c-0.7-0.7-1.8-0.7-0.5-0.4
				c1.9,0.4,4.4,0.1,6.4,0.1c8.2,0.4,15.8-2.2,22.1-7.4C277.2,287,276.5,287,276.4,287.1L276.4,287.1z"/>
		</g>
		<g>
			<path fill="#FFB24D" d="M176.6,305.4c-1.1,26.8-1.7,32.2,7.8,34.9c8.6,2.4,12.4-1.4,16.9-25.5L176.6,305.4z"/>
			<g>
				<path fill="#1D1D1D" d="M175.5,305.5c-0.4,8.8-1.6,18.3,0,27c0.8,4.7,3.9,7.2,8.3,8.5c14.7,4.4,16.8-16.6,18.6-26.4
					c0.2-1.1-2-0.9-2.2,0.1c-1.4,7.3-2.4,15.6-6.5,22c-2.7,4.2-7,3.5-11.1,1.8c-3.8-1.6-4.8-5.2-5.3-9c-0.9-8,0-16.4,0.3-24.4
					C177.7,304.2,175.5,304.5,175.5,305.5L175.5,305.5z"/>
			</g>
		</g>
		<g>
			<g>
				<path fill="#FFB24D" d="M169.7,144.1c-2.8,5.2-3.3,21.9-1.6,30.6l24.9-17.9C185.2,150.2,180.9,148.4,169.7,144.1z"/>
				<g>
					<path fill="#1D1D1D" d="M194,156.4c-7.1-5.9-14.8-9.5-23.4-12.8c-0.6-0.2-1.7,0.1-2,0.6c-4.2,8.6-3.3,21.7-1.6,30.8
						c0.1,0.6,2.3,0.1,2.2-0.6c-1.7-9.2-2.6-21.9,1.6-30.5c-0.7,0.2-1.3,0.4-2,0.6c8.5,3.3,16.1,6.8,23.1,12.7
						C192.5,157.6,194.5,156.8,194,156.4L194,156.4z"/>
				</g>
			</g>
			<path fill="#FFF3E3" d="M180.6,160.4c-1.5-14.6-9.6-13.5-9.6-13.5c-2.8,7.1-1.8,20.6,0.2,24.8L180.6,160.4z"/>
			<g>
				<path fill="#1D1D1D" d="M170.8,146.2c2.1,1.8,4,3.6,5.8,5.7c0.8,1,4.9,7.1,3.7,8.4c-2.6,2.9-5.1,5.9-7.1,9.2
					c-0.2,0.3,0.5,0.4,0.7,0.1c1.7-2.8,3.6-5.3,5.7-7.7c0.2-0.2,1.5-1.3,1.4-1.7c-1.3-6.2-5-10.3-9.7-14.4
					C171.2,145.5,170.5,145.9,170.8,146.2L170.8,146.2z"/>
			</g>
		</g>
		<g>
			<path fill="#EDE1CF" d="M190.8,301.1c-8-4.5-10.2-27.5-6.9-34.4c4.9-12.4,21.5-14.3,32.9-13c16.9,2.5,20.7,11.1,19.7,26.6
				c-0.2,6,0.5,17-3.6,20.9C226.7,307.1,199.6,306.1,190.8,301.1z"/>
			<path fill="#FFF3E3" d="M227.1,265.3c-7.1-9.3-19-11.8-28.7-5.2c-9.3,6.3-17.2,24.9-7.1,34.4c6.2,5.8,21.5,7.3,28.6,3.9
				C232.6,292.4,234.7,275,227.1,265.3z"/>
			<g>
				<path fill="#1D1D1D" d="M187.2,297.3c-5.5-13.7-6.4-31.6,7.3-40.7c6.8-4.5,16.8-5.1,24.6-3.5c7.4,1.5,12.1,6.6,14.2,13.6
					c1.9,6.1,2.3,12.8,2.4,19.1c0.1,5.8,0,12.1-5.2,15.7c-10.1,7.1-28.6,6.2-38.9,0.2c-0.2-0.1-0.9,0.2-0.6,0.4
					c10.5,6.1,27.7,6.5,38.4,0.6c5.5-3,6.5-7.1,6.9-13.1c0.6-8.2-0.3-17.2-2.9-25c-4.9-14.4-23.7-14.5-35.6-10
					c-17.5,6.7-17.2,28.3-11.3,43C186.6,297.8,187.3,297.6,187.2,297.3L187.2,297.3z"/>
			</g>
			<path fill="#1D1D1D" d="M206.4,274.7c-0.4-1.7-2.3-0.9-2.8,0.3c-0.6,1.5,0.6,3,2,1.9C206.4,276.4,206.6,275.5,206.4,274.7z"/>
		</g>
		<g>
			<path fill="#1D1D1D" d="M183.6,170.4c1.5-1.7,4.1-2.3,6.3-2.3c0.5,0,0.7-0.7,0.1-0.7c-2.5,0-5.4,0.7-7.2,2.7
				C182.5,170.5,183.3,170.7,183.6,170.4L183.6,170.4z"/>
		</g>
		<g>
			<path fill="#1D1D1D" d="M233.6,165.3c2.3-0.1,4.6,0.4,6.8,0.8c0.7,0.1,2.6-1,1.3-1.2c-2.6-0.5-5.2-1-7.8-0.9
				C232.8,164.1,232.1,165.4,233.6,165.3L233.6,165.3z"/>
		</g>
		<g>
			<g>
				<path fill="#DB6E6E" d="M204,213.8c0,0-2,15.7,8.7,14.7c6.6-0.6,4.3-14.7,4.3-14.7s-6.2-0.6-6.9-1.6c-0.7-1-1-2.5-1.5-3.3
					c-0.5-0.7,0.2,2.6-1.1,2.4C206,211.1,204,213.8,204,213.8z"/>
				<path fill="#FFF3E3" d="M221,203.8c-2.3-2.5-6.5-3.7-9.5-2c-1.4,0.8-3.4,3.1-2.6,5c0-0.1,0-0.1-0.1-0.2c-1.9-3.7-5.8-6-9.7-3.6
					c-2.6,1.6-3.4,4.6-2.7,7.4c1.2,5.1,7.6,5.1,10.5,1.7c0.9-1,1.5-2.9,1.7-4.2c0.1,0.2,1.2,1.8,1.2,2.2c0.4,2.4,1.6,4.6,7.2,3.9
					c1.5-0.2,4-2.4,4.7-3.9C222.8,207.8,222.4,205.4,221,203.8z"/>
				<g>
					<path fill="#1D1D1D" d="M195.8,210.5c0.3,3.9,5,4.9,8.1,3.9c1.6-0.5,3.2-1.4,4.2-2.8c1.1-1.5,0.8-3.8,0.7-5.6
						c0-0.3-1.5-0.1-1.4,0.4c0.1,2.3,0.3,4.8-1.7,6.4c-2.8,2.2-8.2,1.4-8.5-2.7C197.2,209.8,195.8,210.1,195.8,210.5L195.8,210.5z"
						/>
				</g>
				<g>
					<path fill="#1D1D1D" d="M208.1,206.6c0.2,4.3,1.5,7.8,6.2,8.4c3.8,0.5,6.7-2.1,7.1-5.8c0.1-0.8-1.4-0.6-1.5,0.1
						c-0.3,3.2-2.4,4.9-5.6,4.5c-3.9-0.5-4.6-4.1-4.7-7.4C209.6,205.7,208.1,205.9,208.1,206.6L208.1,206.6z"/>
				</g>
				<g>
					<path fill="#545454" d="M228.8,208.4c19.8-6.2,41.4-8.9,61.8-4.1c0.4,0.1,1.7-0.5,1.2-0.6c-20.8-5-42.9-2.2-63.1,4.1
						C227.8,208.1,228,208.6,228.8,208.4L228.8,208.4z"/>
				</g>
				<g>
					<path fill="#545454" d="M228.1,215.4c6.2-3.5,15.3-3.7,22.2-4.2c16.4-1.2,32.9,1.3,48.5,6.4c0.5,0.2,1.7-0.6,0.9-0.8
						c-15.9-5.2-32.5-7.4-49.2-6.4c-7.2,0.4-16.8,0.9-23.3,4.6C226.3,215.3,227.6,215.6,228.1,215.4L228.1,215.4z"/>
				</g>
				<g>
					<path fill="#545454" d="M135.8,230.6c8-4.8,16.2-8.9,25.2-11.4c8.9-2.4,18.3-3,27.5-3.5c0.4,0,1.6-0.6,0.6-0.6
						c-9.5,0.5-19,1.3-28.3,3.6c-9.4,2.4-18,6.8-26.2,11.8C134.1,231,135.6,230.8,135.8,230.6L135.8,230.6z"/>
				</g>
				<g>
					<path fill="#545454" d="M124.4,218c20.6-8.2,41.2-10.1,63.1-8.9c0.7,0,1.5-1,0.5-1.1c-22.4-1.2-43.3,0.8-64.3,9.1
						C122.8,217.5,123.6,218.3,124.4,218L124.4,218z"/>
				</g>
				<g>
					<path fill="#FF99C3" d="M208.3,206.5c1-0.1,6-4.4,4.8-5c-1.1-0.5-8.3-0.2-8.8,0.7C203.7,203.3,207.8,206.6,208.3,206.5z"/>
					<g>
						<path fill="#1D1D1D" d="M208.4,207c2-0.5,4.3-2.9,5.4-4.6c1.3-2.1-3.3-1.7-4.1-1.7c-1,0-6.1-0.1-6.2,1.7
							c-0.1,1.7,2.9,4.4,4.5,4.6c0.7,0.1,1.5-0.9,0.5-1c-1.2-0.1-2.8-2.2-3.4-3.1c-0.5-0.8,0.5-0.7,1.1-0.8c1-0.2,1.9-0.2,2.9-0.2
							c0.8,0,1.7,0,2.5,0c0.9,0.1,1,0.2,0.4,0.9c-0.8,1.1-2.5,2.9-3.9,3.3C207.2,206.2,207.5,207.2,208.4,207z"/>
					</g>
				</g>
			</g>
			<g>
				<path fill="#1D1D1D" d="M216.3,215.2c1,4.1,0.5,10.5-3.4,13c-3.3,2.1-7.1-2.3-8-4.9c-1-2.8-0.9-6.1-0.9-9c0-0.1-0.7,0-0.7,0.2
					c0,4-0.2,8.5,2.4,11.8c1.3,1.7,4.1,3,6.3,2.4c5.4-1.5,6.1-9.3,5-13.8C217,214.9,216.3,215,216.3,215.2L216.3,215.2z"/>
			</g>
			<path fill="#FF8F8F" d="M206.9,225.6l0.8,0.7c1.1,0.5,5.3,2.9,7.6-0.7l0.4-0.8C215.4,221.1,208,222.6,206.9,225.6z"/>
		</g>
		<g>
			<path fill="#FFB24D" d="M155.5,238.4c-0.8-2.1-11.6-19.2-19.2-15.1c-21.3,11.2,14.1,35.5,18.4,36.1c4,0.5,6.8-2.4,10.4-5.3
				l1.4-29.7C162.3,228.9,155.7,239.1,155.5,238.4z"/>
			<g>
				<path fill="#1D1D1D" d="M164.2,253.8c-2.7,2.3-6.3,6.2-10.2,4.5c-1.2-0.5-2.4-1.3-3.5-2c-3.6-2.2-6.9-4.9-10-7.8
					c-5.3-4.9-13.4-13.8-8.2-21.3c7.2-10.4,19.1,4.3,22.1,11.4c0.6,1.3,2.6-0.7,3-1.1c3.6-4.2,6.4-9.1,10.1-13.3
					c0.6-0.7-1.6-0.5-2,0c-2.1,2.4-4,5-5.9,7.6c-1.4,2-2.9,5-4.9,6.4c0.6-0.1,1.2-0.2,1.7-0.4c-0.2-0.1-1.3-2.3-1.4-2.6
					c-1.3-2.1-2.9-4.1-4.5-6c-2.5-3-6.5-7.1-10.7-7.2c-7.1-0.3-12.6,7-11,13.7c2,8.3,10.7,15.1,17.3,19.8c2.2,1.6,4.7,3.5,7.4,4.2
					c4.8,1.4,9.2-2.9,12.4-5.6C166.9,253.3,164.7,253.4,164.2,253.8L164.2,253.8z"/>
			</g>
		</g>
		<g>
			<path fill="#1D1D1D" d="M180.4,193.5c0.7-3,2.8-7.1,6.4-6.8c3.9,0.3,6.3,3.6,7.5,7c0.3,1,5.2-0.5,4.9-1.3
				c-1.8-5.5-6.3-8.2-12-7.4c-5.4,0.7-10.4,3.9-11.6,9.4C175.4,195.4,180.2,194.7,180.4,193.5L180.4,193.5z"/>
		</g>
		<g>
			<path fill="#1D1D1D" d="M227.9,191.4c0.7-3.4,2.4-6.8,6.3-6.4c3.6,0.4,6.3,3.3,7.5,6.5c0.5,1.4,5.4-0.1,4.9-1.3
				c-4.1-11.1-21.3-9.5-23.6,1.9C222.7,193.6,227.6,192.8,227.9,191.4L227.9,191.4z"/>
		</g>
		<g>
			<path fill="#C9C9C9" d="M295,320.6v-25.8l-35.9-2.8l-0.1,30.8h0.1c0.5,3,8.4,6.4,18,6.4c10,0,18.1-3.2,18.1-7.1
				C295.3,321.6,295,321,295,320.6z"/>
			<path fill="#B2B2B2" d="M277.1,329.9c6.4,0,14.5-2,18.3-8.1c0.1-0.1-0.4-9.3-0.4-13.3c0-3.8,0.2-7.6,0-11.4
				c-0.3-6.8-9.1-2.9-9.9,1.9c1.9,27.2-21.1,23.7-26.1,20.2C258.6,328.1,270.1,329.9,277.1,329.9z"/>
			<path fill="#AAAAAA" d="M294.4,294.1c0,3.8-7,6.3-17,6.3c-10,0-17.9-3.2-17.9-7c0-3.8,6.2-7.8,16.1-7.8
				C285.7,285.6,294.4,290.2,294.4,294.1z"/>
			<path fill="#F16888" d="M289.3,295.1c-0.2-0.2-0.1-1.1-0.5-1.3c-2.9-2.1-6.9-3.1-10.5-3.5c-3.8-0.4-7.3,0.1-10.9,1.2
				c-1.3,0.4-5.5,2.1-5,4.3c0.8,3.5,8.2,3.5,11,3.8c3.7,0.4,7.3,0.4,11,0C287.2,299.3,291.5,297.6,289.3,295.1z"/>
			<g>
				<path fill="#1D1D1B" d="M256.8,295.6C256.8,295.6,256.8,295.6,256.8,295.6C256.8,295.6,256.8,295.6,256.8,295.6L256.8,295.6z"/>
			</g>
			<g>
				<path fill="#1D1D1B" d="M258.7,322.3c6.6,10.7,30.6,10.5,37.2-0.3c0.1-0.2-1.2-0.1-1.4,0.3c-6.6,10.2-28.3,9.7-35.2-0.1
					C259.2,322,258.6,322.2,258.7,322.3L258.7,322.3z"/>
			</g>
			<g>
				<path fill="#1D1D1B" d="M295.5,322.7c0-5.5-0.4-11.1-0.5-16.6c-0.1-4.3,1-10.7-1-14.7c-0.1-0.2-0.7,0-0.6,0.2
					c1.6,3.6,0.7,9.3,0.7,13.2C294.2,310.6,294,316.9,295.5,322.7C295.5,322.7,295.5,322.7,295.5,322.7L295.5,322.7z"/>
			</g>
			<g>
				<path fill="#1D1D1B" d="M262.7,296.4c3.4-8.7,26.7-8.5,27.4,2.1c0,0.4,0.8,0.1,0.9-0.1c2.6-11.2-28-12.3-29.2-2
					C261.7,296.9,262.5,296.8,262.7,296.4L262.7,296.4z"/>
			</g>
			<path fill="#D8D8D8" d="M289.5,288.8c-5.8-3.8-17.7-3.1-22.5-1.3c-0.1,0-0.6,0.2-0.7,0.3c-5,1.8-10.1,6.2-3.5,9.9
				c6.5,3.7,17.6,3.3,24.7,1.9C294.1,298.1,295.3,292.6,289.5,288.8z M285.4,298.7c-5.3,0.7-10.7,0.5-16-0.3
				c-2.4-0.4-4.8-1.1-6.9-2.4c-4.5-3,1.1-6.6,4.1-7.4c6.1-1.6,10.5-1.5,15.6-1c3.2,0.4,6.3,1.6,8.6,3.9
				C294.9,295.7,289,298.3,285.4,298.7z"/>
			<g>
				<path fill="#1D1D1B" d="M289,298.8c-1,0.4-1.5,1.6-1,2.6c0.6,1.2,2.6,1,3.5,0.2c0.7-0.6,1.4-2,0.4-2.6c-0.8-0.5-1.9-0.3-2.6,0.2
					c0,0,0,0.1,0,0c0.5,0,1,0.2,1.5,0.4c0.7,0.2,0.3,0.8,0,1.3c-0.3,0.6-1.2,0.6-1.6,0.1c-0.3-0.5-0.1-1.2,0.4-1.4
					c0.2-0.1,0.5-0.4,0.3-0.6C289.7,298.7,289.3,298.7,289,298.8z"/>
			</g>
			<g>
				<path fill="#1D1D1B" d="M288.8,301.3C288.8,301.3,288.8,301.3,288.8,301.3C288.8,301.3,288.8,301.3,288.8,301.3L288.8,301.3z"/>
			</g>
			<g>
				<path fill="#1D1D1B" d="M261.7,314.5C261.7,314.5,261.7,314.4,261.7,314.5C261.7,314.4,261.7,314.5,261.7,314.5L261.7,314.5z"/>
			</g>
			<g>
				<path fill="#1D1D1B" d="M291.4,298.2c0.4-8.8-1.6-20.4-11.1-23.7c-8.1-2.8-16.3,4.4-16.3,12.6c0,0.9,1.7,0.3,2-0.2
					c1.9-4.6,3.1-10.2,9-11.1c2.1-0.3,4.3,0.6,6.1,1.6c7.1,4.1,7.7,14.1,8.1,21.3C289.1,299.4,291.3,299,291.4,298.2L291.4,298.2z"
					/>
			</g>
			<g>
				<path fill="#1D1D1B" d="M259.5,323c-1.2-2.1-0.4-6.6-0.3-8.9c0-3.1,0-6.3-0.1-9.4c0-4.5,0.2-9.1-0.2-13.6c0-0.1-0.2,0-0.2,0
					c0,5.3-0.1,10.7-0.3,16c-0.1,3.4-0.2,6.7-0.3,10.1c0,1.9-0.4,4.4,1.1,5.9C259.3,323.2,259.6,323.1,259.5,323L259.5,323z"/>
			</g>
			<path fill="#F16888" d="M272,319.8c-0.6-4.3,0.7-5.6,0-9.9c0-0.1-0.1-0.2-0.1-0.3c0-0.1,0-0.2,0-0.2c0.1-2.1-0.1-6.9-0.1-9
				c0-1.2-1.2-1.9-1.3-1.9c-0.6-0.3-0.9-1.1-1.1-0.8c-0.1-0.5-0.4,0-0.8-0.2c-0.3-0.2-0.6-0.1-0.8,0.1c0.1-0.5,0.1-1-0.1-1.7
				c-0.1-0.4-0.9-0.7-0.8-0.1c-0.2,0.8-0.3,0.9-0.5,1.7c-0.2,0.3,0.3,0.7,0.5,1.6c0,0.1-0.2,9.1-0.3,10c0,1.6-0.1,4.2,1.7,4.9
				c0.2,0.1,0.4,0,0.4-0.3c0-2.6-0.8-5.1-0.8-7.6c0-0.2-0.1-0.3-0.3-0.5c0.2-1.9,0.5-5-0.1-6.8c0.1,0,0.8-0.8,1-0.5
				c0.2,0.5,0.5,1,0.6,1.6c0.1,0.6-0.5,3.1-0.4,3.4c0.4,1.5,0.5,0.7,1.1,0.5c0.5-0.2,0.8-2.8,0.2-3.6c-0.1-0.2,0.1-0.9,0.4-0.8
				c0.9,1.2,0.5,3.9,0.6,5.2c0.1,1.5,0.1,3.1,0.1,4.6c0,3.1-0.9,6.2-0.7,9.3c0.1,3.1-0.5,3.1-0.5,6.2c0,1.5,0.3,2.9,1.7,3.7
				c0.2,0.1,0.4,0.1,0.5-0.1C273,325.5,272.3,322.5,272,319.8z"/>
			<g>
				<path fill="#1D1D1B" d="M258.8,293.3c0.2,6.8,14,7.6,18.6,7.8c5.3,0.2,16.9-0.2,17.2-7.7c0.3-7.4-13.7-8.3-18.4-8.2
					c-2.7,0-20.3,1.8-17.1,8.1c0,0,0.1,0,0.1,0c4-6.1,10.6-7.1,17.6-7.1c5.1,0,14.9,0.8,16.5,6.9c2,7.7-13.4,7.6-17.5,7.4
					c-4.1-0.2-16.2-1.3-16.4-7.2C259.4,293,258.8,293.1,258.8,293.3z"/>
			</g>
		</g>
		<g>
			<g>
				<path fill="#FFB24D" d="M281.2,232.4L262,244.6c6.9,20.5,2.3,38.8,15.7,39C294,283.7,283.8,242.4,281.2,232.4z"/>
				<g>
					<path fill="#1D1D1D" d="M261,244.9c2.3,7,3.4,14.2,4.5,21.5c0.7,4.9,1.3,10.4,4.3,14.5c3.4,4.6,11.7,4.5,14.9-0.2
						c4.5-6.6,3.2-16.4,2.4-23.9c-1-8.3-2.8-16.6-4.8-24.7c-0.2-0.9-2.3-0.3-2,0.5c3.4,13.3,7.3,28.3,4.9,42c-0.5,3-1.7,6.3-4.6,7.7
						c-5,2.5-9.3-2-10.8-6.2c-1.5-4.1-1.9-8.8-2.5-13.1c-0.9-6.4-2.1-12.6-4.1-18.7C262.8,243.5,260.7,244.1,261,244.9L261,244.9z"
						/>
				</g>
			</g>
		</g>
		<g>
			<g>
				<path fill="#353535" d="M131.4,190.2c-0.7-0.4,0.5-1.1,0.9-0.9c4.8,1.8,7.8,9.6,6.3,14.3c-0.2,0.5-1.4,0.7-1.5,0.1
					C136.3,199,136,193.1,131.4,190.2L131.4,190.2z M129.1,190.6c1.1,2,2.6,3.8,3.7,5.8c1.3,2.4,1.9,5,2.5,7.6
					c0.2,0.8,2.3,0.3,2.4-0.5c0.2-4.2-3.4-12.5-8.1-13.2C129.4,190.4,129,190.5,129.1,190.6L129.1,190.6z M126.6,191.9
					c1.7,1.4,2.9,3.4,3.8,5.5c0.9,2,1,3.9,1.6,6c0.2,0.8,1.8,0.4,2-0.2c0.9-2.2-0.5-5-1.5-6.9c-1-2.1-2.6-4.4-4.9-5.2
					C127.1,190.9,125.9,191.3,126.6,191.9L126.6,191.9z M122.8,192.4c1.5,1.4,2.8,2.8,3.9,4.6c1.3,2.1,1.9,4.6,3,6.8
					c0.4,0.9,2.6,0.3,2.3-0.6c-1.4-4.2-3.5-9.5-7.8-11.6C123.8,191.4,122.2,191.8,122.8,192.4L122.8,192.4z M120.9,192.8
					c-0.4,0.5,3.2,4.7,3.7,5.4c0.5,0.9,0.9,1.8,1.3,2.8c0.3,0.7,0.1,1.7,0.7,2.3c0.3,0.3,1.3-0.2,1.5-0.4
					C130.1,200.2,122.1,191.3,120.9,192.8L120.9,192.8z"/>
				<path fill="#1D1D1D" d="M132.4,190.2c-0.6-0.2,0.7-0.7,0.9-0.7c2.6,0.4,4.4,3.3,5.5,5.5c0.9,1.7,2.6,4.8,0.6,6.3
					c-0.2,0.2-1.7,0.6-1.3-0.1c0.8-1.6-0.8-4.7-1.6-6C135.6,193.6,134.2,190.9,132.4,190.2L132.4,190.2z M129.9,190.2
					c2.1,1.5,3.5,3.7,4.4,6.1c0.8,2.4,0.5,4.4,0.4,6.8c0,0.5,1.3,0,1.4-0.2c3.2-4-1-11.7-5.2-13.2
					C130.7,189.6,129.6,189.9,129.9,190.2L129.9,190.2z M124.6,192.2c1.9,1.5,3.4,3.6,4.5,5.7c0.6,1.1,1.1,2.2,1.5,3.4
					c0.3,1,0.2,2.2,0.7,3c0.3,0.4,1.4,0,1.6-0.3c1.2-1.8-0.8-5-1.7-6.6c-1.3-2.3-3-4.5-5.3-5.8C125.6,191.3,124.2,191.9,124.6,192.2
					L124.6,192.2z M121.3,192.9c3.6,2.3,5.1,6.1,6.4,9.9c0.2,0.7,2.4,0.1,2.2-0.6c-0.9-4.1-3.4-8.1-7.1-10.1
					C122.4,192,120.8,192.6,121.3,192.9L121.3,192.9z M119.2,193.9c1.5,0.8,2.9,1.9,3.9,3.3c0.9,1.4,1,3.2,2,4.5
					c0.3,0.4,1.4,0.2,1.4-0.4c0-1.7-1-3.5-1.9-4.9c-1.1-1.7-2.8-2.7-4.7-3.2C119.6,193.2,118.7,193.7,119.2,193.9L119.2,193.9z
					 M127.9,191.1c1.4,1.1,2.6,2.5,3.6,4.1c1,1.6,1.3,3.5,2.3,5.1c0.3,0.4,1.1,0.1,1.2-0.3c0.3-1.9-1-4-2-5.5
					c-1.1-1.7-2.5-3.3-4.4-4C128.2,190.3,127.4,190.7,127.9,191.1L127.9,191.1z"/>
			</g>
			<g>
				<path fill="#CA4B63" d="M140.7,202.4l-14.3,2.2c0,0-0.6,3.9,3.3,4.8c3,0.7,3.5,1.9,4.1,3.8c-0.1,2.2,2.5,17.2,3.1,20.6
					c1.1,6.5,3.7,8.6,5,8.4c1.3-0.2,2.1-1.4,1-7.9c-0.6-3.4-4.9-19.6-5.8-21.6c-0.2-4.6,1.9-4.1,3.1-5.5
					C142.1,204.7,140.7,202.4,140.7,202.4z"/>
				<path fill="#E0E0E0" d="M141.2,203.2l-14.8,2.5l-1.1-3.7c0,0,5.8-1.4,7.7-1.7c1.8-0.3,7.1-0.8,7.1-0.8L141.2,203.2z"/>
			</g>
			<g>
				<path fill="#1D1D1B" d="M140.5,202.1c0.7,2.6,0.9,4.5-1.7,5.9c-0.5,0.3-1.2,0.7-1.5,1.2c-1.1,2-0.4,4.3,0.1,6.4
					c1.8,7.2,5.1,14.1,5.7,21.6c0.1,1.4,0,2.7-0.6,4c-1.2,2.9-4.4-4.6-4.6-5.1c-1.3-4.5-1.4-9.6-2.2-14.3c-0.6-3.8-1.2-8-3-11.5
					c-1.4-2.8-5.4-0.5-5.4-5.1c0-0.2-1.4,0-1.4,0.4c-0.1,5.5,4.3,2.3,6.1,6.4c2,4.7,2.5,10.2,3.2,15.2c0.7,4.7,0.5,10.5,3.9,14.2
					c1,1.2,3.3,1.3,4.3,0.1c1.7-2,0.8-5.9,0.4-8.2c-0.9-4.5-2.5-9-4-13.3c-1-3-2.9-7.1-2.3-10.3c0.3-1.5,2.5-2,3.5-3.1
					c1.1-1.2,0.2-3.4-0.2-4.6C140.8,201.9,140.5,202,140.5,202.1L140.5,202.1z"/>
			</g>
			<g>
				<path fill="#1D1D1B" d="M140.5,203.2c-3.2,0.2-6.4,1-9.5,1.5c-0.9,0.1-3.7,1-4.2,0c-0.5-1.1-0.6-2-0.9-3.1
					c-0.1-0.4-0.8-0.2-0.8,0.1c-0.2,1.8,0.4,2.7,1.1,4.2c0.1,0.1,0.3,0.2,0.4,0.2c4.6-0.7,9.6-1,13.9-2.7
					C140.6,203.3,140.6,203.2,140.5,203.2L140.5,203.2z"/>
			</g>
			<g>
				<path fill="#1D1D1B" d="M141.1,203c0-0.6-0.1-1.2-0.1-1.8c-0.1-0.5,0-1.5-0.5-1.8c-0.1-0.1-0.5,0-0.6,0.2
					c-0.2,0.5,0.2,1.4,0.3,1.9c0.1,0.6,0.3,1.1,0.4,1.7C140.5,203.4,141.1,203.2,141.1,203L141.1,203z"/>
			</g>
			<g>
				<path fill="#1D1D1B" d="M140.2,199.4c-1.8-0.7-4.5,0-6.4,0.3c-2.7,0.4-5.5,1-8.1,1.8c-0.6,0.2-0.4,0.8,0.2,0.7
					c4.7-1.3,9.3-2.2,14.2-2.4C140.2,199.7,140.4,199.5,140.2,199.4L140.2,199.4z"/>
			</g>
			<path fill="#F16888" d="M139,194.3c-1-2.5-2.4-4.2-4.7-5.6c-0.4-0.2-1.1,0-1.8,0.4c-0.2-0.1-0.3-0.2-0.5-0.3
				c-0.5-0.3-1.4,0.1-1.9,0.3c-0.1,0-0.4,0.2-0.6,0.4c-1,0.2-2.2,1-1.8,1.3c1.1,0.7,1.8,1.8,2.2,3c-0.6-1.1-1.3-2-2.3-2.8
				c-0.4-0.3-1.4,0.1-2.1,0.5c-0.3-0.2-0.7-0.4-1.2-0.5c-0.6-0.1-1.5,0.2-2,0.6c-0.3,0.2-0.9,0.7-0.3,0.8c0.9,0.2,1.5,1,2,1.7
				c0.4,0.5,0.7,1.3,1.3,1.5c0.6,0.2,1.3-0.1,1.8-0.3c0.2,0.4,0.3,0.7,0.5,1.1c0.3,0.7,3.1-0.4,2.8-1.1c0-0.1-0.1-0.2-0.1-0.3
				c0.7,0.1,2.4-0.5,2.5-1.1c0.2,0.3,0.3,0.7,0.5,1c0.2,0.5,1.6,0.1,2.3-0.4c0.1,0.3,0.2,0.6,0.3,0.9C136.4,196,139.2,195,139,194.3
				z"/>
		</g>
		<g>
			<path fill="#FFB24D" d="M137.7,231c0.8,1.9,4.8,3,6.5,3.2l1.1-4.1C145.2,230.1,135,224.9,137.7,231z"/>
			<g>
				<path fill="#1D1D1D" d="M144.3,234c-2-0.3-4.3-1-5.8-2.4c-1-0.9-1.6-3.4,0.4-3.3c2.2,0.1,4.1,1.3,6.1,2c0.2,0.1,0.9-0.2,0.6-0.4
					c-2.1-0.9-5.3-2.9-7.7-2c-1.4,0.6-1.1,2.4-0.4,3.4c1.4,1.9,4.3,2.7,6.5,3C144.4,234.5,144.8,234,144.3,234L144.3,234z"/>
			</g>
		</g>
		<g>
			<path fill="#1D1D1D" d="M121.9,192.2c2.8-1.7,7.1-3.1,10.4-3.6c4.9-0.9,6.9,7.2,7.5,10.4c0,0.2,0.5,0.1,0.4-0.1
				c-0.6-3.5-2.2-10-6.7-10.6c-3.8-0.5-8.7,1.8-11.9,3.7C121.3,192.1,121.7,192.3,121.9,192.2L121.9,192.2z"/>
		</g>
		<path fill="#F77799" d="M285,295c0.2-0.9-1.2-3.2-5.9-3.8c-2.6-0.3-14.8,0.8-11.8,4.1c1.1,1.2,7.2,1.5,8.7,1.4
			C283.5,296.2,284.6,296.9,285,295z"/>
	</g>
</g>
<g id="Layer_26">
</g>
<g id="Layer_27">
</g>
<g id="Layer_28">
</g>
<g id="Layer_29">
</g>
<g id="Layer_30">
</g>
<g id="Layer_31">
</g>
<g id="Layer_32">
</g>
<g id="Layer_33">
</g>
<g id="Layer_34">
</g>
<g id="Layer_36">
</g>
<g id="Layer_35">
</g>
<g id="Layer_37">
</g>
<g id="Layer_38">
</g>
<g id="Layer_39">
</g>
<g id="Layer_40">
</g>
</svg>
