<?xml version="1.0" encoding="utf-8"?>
<!-- Generator: Adobe Illustrator 18.1.1, SVG Export Plug-In . SVG Version: 6.00 Build 0)  -->
<!DOCTYPE svg PUBLIC "-//W3C//DTD SVG 1.1//EN" "http://www.w3.org/Graphics/SVG/1.1/DTD/svg11.dtd">
<svg version="1.1" xmlns="http://www.w3.org/2000/svg" xmlns:xlink="http://www.w3.org/1999/xlink" x="0px" y="0px"
	 viewBox="0 0 393 483" enable-background="new 0 0 393 483" xml:space="preserve">
<g id="ziutek_x5F_01">
</g>
<g id="ziutek_x5F_02">
</g>
<g id="ziutek_x5F_03">
</g>
<g id="ziutek_x5F_04">
</g>
<g id="ziutek_x5F_05">
</g>
<g id="ziutek_x5F_06">
</g>
<g id="ziutek_x5F_07">
</g>
<g id="ziutek_x5F_08">
</g>
<g id="ziutek_x5F_09">
</g>
<g id="ziutek_x5F_10">
</g>
<g id="lady_x5F_01">
</g>
<g id="Layer_13">
</g>
<g id="Layer_12">
</g>
<g id="Layer_14">
</g>
<g id="Layer_15">
	<g>
		<g>
			<path d="M268.4,95.1c-0.1-2.5-0.3-5-0.6-7.5c-0.4-3.2-0.9-6.5-1.6-9.7c-0.4-1.5-0.7-3.1-1.2-4.6c-0.5-1.7-1.1-3.5-1.7-5.2
				c-1.1-3.2-2.6-6.2-4.5-9c-2.5-3.9-5.6-7.4-9.2-10.3c-2.1-1.7-4.4-3.1-6.9-4.2c-5.7-2.4-11.6-3.9-17.8-4.3
				c-3.8-0.3-7.5-0.2-11.3,0.4c-4.9,0.7-9.7,1.9-14.3,3.9c-4,1.7-7.5,3.9-10.7,6.8c-2.5,2.3-4.7,4.9-6.6,7.8c-1.7,2.6-3,5.5-4,8.5
				c-0.1,0.1-0.1,0.3-0.1,0.4c0,0,0,0,0,0c-0.1,0.5-0.3,1-0.6,1.5c1.3-0.3,2.5-0.7,3.8-1.2c-0.1,0.3-0.2,0.5-0.3,0.8
				c-1.1,2.6-1.9,5.4-2.3,8.2c-0.5,3.2-0.9,6.4-1.1,9.6c-0.2,3.1-0.3,6.3-0.4,9.4c-0.1,3.1-0.2,6.2-0.1,9.4c0,2.6,0,5.2,0.1,7.7
				c0,2.6,0.1,5.1,0.1,7.7c0.1,3.1,0.2,6.2,0.3,9.3c0.2,3.1,0.4,6.1,0.7,9.2c0.3,2.6,0.6,5.1,0.9,7.7c0.4,3,1.1,6,2,8.9
				c0.9,2.8,2.2,5.5,4,7.9c-1.2,0.7-2.1,1.2-2.9,1.7l-0.2,0c-0.8,0.6-1.6,1.3-2.3,1.9c-0.8,0.6-1.5,1.3-2.3,2
				c-0.7,0.7-1.5,1.4-2.2,2.1c-0.7,0.7-1.4,1.4-2.1,2.2c-0.5,0.5-0.9,1-1.4,1.6c-6.5,8.4-10.7,16.4-10.4,16.5
				c-0.4,0.7-12.3,27.2-12,30.5c-1,3.4-1.8,6.8-2.5,10.2c-2.3,10.3-4.1,20.7-5.4,31.2c-0.8,6.2-1.7,12.4-2.8,18.5
				c-0.3,1.8-0.7,3.6-1.2,5.3c-0.1,0.5-0.2,0.9-0.4,1.3c0,0,0,0,0,0c-0.1,0.5-0.3,1-0.6,1.5c1-0.1,2.1-0.4,3.1-0.7
				c-0.9,3.2-1.6,6.3-2.3,9.5c-1.7,7.7-3.1,15.4-4.2,23.2c-1.4,9.8-2.7,19.6-3.9,29.4c-0.9,6.9-1.8,13.8-2.7,20.7
				c-0.1,0.9-0.2,1.7-0.4,2.6c0-0.1-0.1-0.1-0.1-0.2c0.1,0.1,0.1,0.2,0.1,0.3c-0.5,3.6-0.9,7.2-1.4,10.8c0.2,0.1,0.3,0.2,0.5,0.2
				c0,0,0,0,0,0.1c0.8,0.5,1.7,1.1,2.5,1.6c4.5,2.9,11.7,5.4,21.6,7.7c1.8,0.4,3.5,0.8,5.2,1.1c0.1,1.9,0.3,4.1,0.6,6.5
				c0.5,4.7,0.8,7.7,1.1,9.2c-1.1,0-2.2,0.1-3.5,0.1c-0.2-0.2-0.3-0.3-0.5-0.4c-0.7-0.7-1.1-1-1.3-1c-0.3,0-0.4,0-0.5,0.1
				c-0.1,0.1-0.1,0.1-0.1,0.1c0,0.3-0.1,0.5-0.1,0.7c0.2,0.3,0.4,0.5,0.6,0.8c-0.7,0.1-1.3,0.1-2,0.2c-0.3-0.3-0.5-0.7-0.8-1
				c-0.3,0-0.5,0.1-0.6,0.1c-0.1,0.1-0.1,0.3-0.1,0.6c0.1,0.1,0.2,0.3,0.2,0.4c-0.8,0.1-1.7,0.2-2.6,0.4c-0.4-0.4-0.5-0.5-0.6-0.5
				c-0.4,0-0.6,0-0.6,0.1c-0.1,0.1-0.2,0.2-0.2,0.5c0.1,0,0.1,0.1,0.1,0.2c-0.4,0.1-0.8,0.1-1.2,0.2c-6.3,1-10.4,2.2-12.5,3.4
				c-1.2,0.7-2.1,1.9-2.7,3.5c-0.5,1.2-0.7,2.4-0.7,3.6c0,1.5,0.1,2.6,0.3,3.3c0.2,0.7,0.6,1.2,1.1,1.4c0.5,0.2,1.3,0.3,2.4,0.3
				c0.7,0,2.1,0,4.1-0.1c5.6,0,12.6-0.6,20.8-1.8c7.9-1.1,12.5-2.1,13.6-3c1.1-0.9,1.8-1.8,2.1-2.6c0.3-0.9,0.4-1.7,0.3-2.6
				c-0.1-0.9-0.1-1.5-0.1-2c-0.2-0.8-0.4-1.6-0.5-2.5c0,0,0.1,0,0.1,0c-0.2-0.4-0.2-0.7-0.2-1.1c0-0.1,0-0.2,0.1-0.2
				c-0.1,0-0.1,0-0.2,0.1c-0.2-1.1-0.4-2.2-0.6-3.3c-0.2-0.8-0.3-1.6-0.4-2.4c0-0.1,0-0.1,0.1-0.2c-0.1,0-0.1,0-0.1,0
				c-0.6-3.4-0.9-6.3-0.9-8.7c3,0.4,5.9,0.7,8.8,0.9c5.8,0.5,11.6,0.8,17.4,0.9c3.2,0,6.4,0,9.5-0.1c0.1,0.7,0.1,1.1,0.1,1.1
				c0,0.3,0,0.7,0.1,1.1c0,1.5,0.1,3.7,0.3,6.5c0.1,0.8,0.1,1.6,0.2,2.5c0.1,1.3,0.2,2.6,0.4,4c0,0.2,0,0.4,0.1,0.5
				c0.3,3.5,0.6,6.1,0.9,7.8c0.1,0.6,0.2,1,0.2,1.4c-1.1,0-2.2,0.1-3.5,0.1c-0.2-0.2-0.3-0.3-0.5-0.4c-0.7-0.7-1.1-1-1.3-1
				c-0.3,0-0.4,0-0.5,0.1c-0.1,0.1-0.1,0.1-0.1,0.1c0,0.3-0.1,0.5-0.1,0.7c0.2,0.3,0.4,0.5,0.6,0.8c-0.7,0.1-1.3,0.1-2,0.2
				c-0.3-0.3-0.5-0.7-0.8-1c-0.3,0-0.5,0-0.6,0.1c-0.1,0.1-0.1,0.3-0.1,0.6c0.1,0.1,0.2,0.3,0.2,0.4c-0.8,0.1-1.7,0.2-2.6,0.4
				c-0.4-0.4-0.5-0.5-0.6-0.5c-0.4,0-0.6,0-0.6,0.1c-0.1,0-0.2,0.2-0.2,0.5c0.1,0.1,0.1,0.1,0.1,0.2c-0.4,0.1-0.8,0.1-1.2,0.2
				c-6.3,1-10.4,2.2-12.5,3.4c-1.2,0.7-2.1,1.9-2.7,3.5c-0.5,1.2-0.7,2.4-0.7,3.6c0,1.5,0.1,2.6,0.3,3.3c0.2,0.7,0.6,1.2,1.1,1.4
				c0.5,0.2,1.3,0.3,2.4,0.3c0.7,0,2.1,0,4.1-0.1c5.6,0,12.6-0.6,20.8-1.8c7.9-1.1,12.5-2.1,13.6-3c1.1-0.9,1.8-1.8,2.1-2.6
				c0.3-0.9,0.4-1.7,0.3-2.6c-0.1-0.9-0.1-1.5-0.1-2c-0.2-0.8-0.4-1.6-0.5-2.5c0,0,0.1,0,0.1,0c-0.2-0.4-0.2-0.7-0.2-1.1
				c0-0.1,0-0.2,0.1-0.2c-0.1,0-0.1,0-0.2,0.1c-0.2-0.9-0.3-1.7-0.5-2.6c-0.1-0.2-0.1-0.5-0.1-0.7c-0.2-0.8-0.3-1.6-0.5-2.4
				c0-0.1,0-0.1,0.1-0.2c-0.1,0-0.1,0-0.1,0c-0.3-1.8-0.5-3.5-0.7-5.1c-0.2-1.5-0.2-2.8-0.2-4c0-0.1,0-0.1,0-0.1v-4.7
				c0.1-0.9,0.1-3.4-0.1-7.3c8.2-0.8,16.3-2.3,24.3-4.4c6.4-1.7,12.4-4,18.2-7c0-0.1,0-0.2,0-0.2c0.2-0.1,0.4-0.3,0.7-0.4
				c-0.5-1.5-0.9-3.1-1.4-4.7c-0.9-3.1-1.7-6.1-2.5-9.3c-0.9-3.2-1.6-6.4-2.3-9.6c-0.6-2.8-1.2-5.7-1.6-8.5c-0.4-2.8-0.8-5.7-1-8.5
				c-0.3-3.3-0.4-6.6-0.5-9.9c0-2.9,0-5.7,0.1-8.6c0.1-3.1,0.3-6.3,0.6-9.4c0.1-1.7,0.3-3.4,0.5-5c0.2-1.7,0.4-3.4,0.7-5
				c0.4-3,0.9-6,1.4-9c0.3-1.8,0.6-3.6,0.9-5.4c0.5-0.3,1.1-0.7,1.6-1.1c1.6-1.3,2.9-2.9,3.8-4.8c0.4-1,0.8-2,0.9-3
				c0.2-1.2,0.4-2.3,0.5-3.4c0.2-1.6,0.3-3.2,0.3-4.7c0.1-2.4,0.1-4.8,0.1-7.3c0-2.4,0-4.8,0-7.2c0-2.8,0-5.6,0-8.4
				c0-2.4,0-4.9,0.1-7.3c0.1-2.4,0.1-4.9,0.2-7.3c0.1-2.6,0.2-5.2,0.4-7.8c0.3-5.7,0.6-11.4,0.8-17c0.2-5.2,0-10.3-0.5-15.5
				c-0.3-2.8-0.8-5.6-1.4-8.3c-1.5-6.3-4.2-12-8.1-17.3c-1.2-1.6-2.5-3.3-3.9-4.8c-1.5-1.8-3.2-3.4-4.9-5c-1-0.8-1.9-1.6-2.9-2.4
				c0,0,0,0,0,0c-0.7-0.5-1.3-1.1-2-1.6c0.5-0.6,1-1.2,1.5-1.8c0.7-0.8,1.3-1.7,2-2.5c0.4-0.5,0.8-1.1,1.2-1.6c1.7-0.5,3.4-1.2,5-2
				c1.5-0.8,2.9-1.7,4.1-2.9c2.4-2.4,4.4-5.1,6-8.1c1.2-2.3,2.2-4.8,2.9-7.4c1.7-6.4,2.8-13,3.5-19.6c0.4-4.1,0.6-8.2,0.7-12.3
				C268.5,100.1,268.5,97.6,268.4,95.1z"/>
		</g>
		<path fill="none" d="M255.1,295.7L255.1,295.7C255.1,295.7,255.1,295.7,255.1,295.7C255.1,295.7,255.1,295.7,255.1,295.7z"/>
		<path fill="none" d="M138.3,288.5c0.1-0.1,0.1-0.1,0.2-0.1l-0.2,0C138.3,288.4,138.3,288.5,138.3,288.5z"/>
		<path fill="none" d="M149.9,236.3c0.1-0.8,0.3-1.6,0.4-2.3l-0.2,0C150.1,234.7,150,235.5,149.9,236.3z"/>
		<path fill="none" d="M183.6,165.5l0.5-0.1l-0.1-0.2C183.8,165.4,183.7,165.4,183.6,165.5z"/>
		<path fill="none" d="M211.4,175.1c-0.4,0.1-0.9,0.1-1.3,0.1l0.1,0.2C210.6,175.3,211,175.2,211.4,175.1z"/>
		<path fill="none" d="M216.2,148.7c-0.1,0-0.1-0.1-0.2-0.1l-0.1,0.1C216.1,148.8,216.2,148.8,216.2,148.7z"/>
		<path fill="none" d="M183.1,182.1C183.1,182.1,183.1,182.1,183.1,182.1L183.1,182.1C183.1,182.1,183.1,182.1,183.1,182.1z"/>
		<path d="M268.4,95.1c-0.1-2.5-0.3-5-0.6-7.5c-0.4-3.2-0.9-6.5-1.6-9.7c-0.4-1.5-0.7-3.1-1.2-4.6c-0.5-1.7-1.1-3.5-1.7-5.2
			c-1.1-3.2-2.6-6.2-4.5-9c-2.5-3.9-5.6-7.4-9.2-10.3c-2.1-1.7-4.4-3.1-6.9-4.2c-5.7-2.4-11.6-3.9-17.8-4.3
			c-3.8-0.3-7.5-0.2-11.3,0.4c-4.9,0.7-9.7,1.9-14.3,3.9c-4,1.7-7.5,3.9-10.7,6.8c-2.5,2.3-4.7,4.9-6.6,7.8c-1.7,2.6-3,5.5-4,8.5
			c-0.1,0.1-0.1,0.3-0.1,0.4c0,0,0,0,0,0c-0.1,0.5-0.3,1-0.6,1.5c1.3-0.3,2.5-0.7,3.8-1.2c-0.1,0.3-0.2,0.5-0.3,0.8
			c-1.1,2.6-1.9,5.4-2.3,8.2c-0.5,3.2-0.9,6.4-1.1,9.6c-0.2,3.1-0.3,6.3-0.4,9.4c-0.1,3.1-0.2,6.2-0.1,9.4c0,2.6,0,5.2,0.1,7.7
			c0,2.6,0.1,5.1,0.1,7.7c0.1,3.1,0.2,6.2,0.3,9.3c0.2,3.1,0.4,6.1,0.7,9.2c0.3,2.6,0.6,5.1,0.9,7.7c0.4,3,1.1,6,2,8.9
			c0.9,2.8,2.2,5.5,4,7.9c-1.2,0.7-2.1,1.2-2.9,1.7l-0.2,0c-0.8,0.6-1.6,1.3-2.3,1.9c-0.8,0.6-1.5,1.3-2.3,2
			c-0.7,0.7-1.5,1.4-2.2,2.1c-0.7,0.7-1.4,1.4-2.1,2.2c-0.5,0.5-0.9,1-1.4,1.6c-4.9,6.1-10.7,16.4-10.4,16.5
			c-0.4,0.7-12.3,27.2-12,30.5c-1,3.4-1.8,6.8-2.5,10.2c-2.3,10.3-4.1,20.7-5.4,31.2c-0.8,6.2-1.7,12.4-2.8,18.5
			c-0.3,1.8-0.7,3.6-1.2,5.3c-0.1,0.5-0.2,0.9-0.4,1.3c0,0,0,0,0,0c-0.1,0.5-0.3,1-0.6,1.5c1-0.1,2.1-0.4,3.1-0.7
			c-0.9,3.2-1.6,6.3-2.3,9.5c-1.7,7.7-3.1,15.4-4.2,23.2c-1.4,9.8-2.7,19.6-3.9,29.4c-0.9,6.9-1.8,13.8-2.7,20.7
			c-0.1,0.9-0.2,1.7-0.4,2.6c0-0.1-0.1-0.1-0.1-0.2c0.1,0.1,0.1,0.2,0.1,0.3c-0.5,3.6-0.9,7.2-1.4,10.8c0.2,0.1,0.3,0.2,0.5,0.2
			c0,0,0,0,0,0.1c0.8,0.5,1.7,1.1,2.5,1.6c4.5,2.9,11.7,5.4,21.6,7.7c1.8,0.4,3.5,0.8,5.2,1.1c0.1,1.9,0.3,4.1,0.6,6.5
			c0.5,4.7,0.8,7.7,1.1,9.2c-1.1,0-2.2,0.1-3.5,0.1c-0.2-0.2-0.3-0.3-0.5-0.4c-0.7-0.7-1.1-1-1.3-1c-0.3,0-0.4,0-0.5,0.1
			c-0.1,0.1-0.1,0.1-0.1,0.1c0,0.3-0.1,0.5-0.1,0.7c0.2,0.3,0.4,0.5,0.6,0.8c-0.7,0.1-1.3,0.1-2,0.2c-0.3-0.3-0.5-0.7-0.8-1
			c-0.3,0-0.5,0.1-0.6,0.1c-0.1,0.1-0.1,0.3-0.1,0.6c0.1,0.1,0.2,0.3,0.2,0.4c-0.8,0.1-1.7,0.2-2.6,0.4c-0.4-0.4-0.5-0.5-0.6-0.5
			c-0.4,0-0.6,0-0.6,0.1c-0.1,0.1-0.2,0.2-0.2,0.5c0.1,0,0.1,0.1,0.1,0.2c-0.4,0.1-0.8,0.1-1.2,0.2c-6.3,1-10.4,2.2-12.5,3.4
			c-1.2,0.7-2.1,1.9-2.7,3.5c-0.5,1.2-0.7,2.4-0.7,3.6c0,1.5,0.1,2.6,0.3,3.3c0.2,0.7,0.6,1.2,1.1,1.4c0.5,0.2,1.3,0.3,2.4,0.3
			c0.7,0,2.1,0,4.1-0.1c5.6,0,12.6-0.6,20.8-1.8c7.9-1.1,12.5-2.1,13.6-3c1.1-0.9,1.8-1.8,2.1-2.6c0.3-0.9,0.4-1.7,0.3-2.6
			c-0.1-0.9-0.1-1.5-0.1-2c-0.2-0.8-0.4-1.6-0.5-2.5c0,0,0.1,0,0.1,0c-0.2-0.4-0.2-0.7-0.2-1.1c0-0.1,0-0.2,0.1-0.2
			c-0.1,0-0.1,0-0.2,0.1c-0.2-1.1-0.4-2.2-0.6-3.3c-0.2-0.8-0.3-1.6-0.4-2.4c0-0.1,0-0.1,0.1-0.2c-0.1,0-0.1,0-0.1,0
			c-0.6-3.4-0.9-6.3-0.9-8.7c3,0.4,5.9,0.7,8.8,0.9c5.8,0.5,11.6,0.8,17.4,0.9c3.2,0,6.4,0,9.5-0.1c0.1,0.7,0.1,1.1,0.1,1.1
			c0,0.3,0,0.7,0.1,1.1c0,1.5,0.1,3.7,0.3,6.5c0.1,0.8,0.1,1.6,0.2,2.5c0.1,1.3,0.2,2.6,0.4,4c0,0.2,0,0.4,0.1,0.5
			c0.3,3.5,0.6,6.1,0.9,7.8c0.1,0.6,0.2,1,0.2,1.4c-1.1,0-2.2,0.1-3.5,0.1c-0.2-0.2-0.3-0.3-0.5-0.4c-0.7-0.7-1.1-1-1.3-1
			c-0.3,0-0.4,0-0.5,0.1c-0.1,0.1-0.1,0.1-0.1,0.1c0,0.3-0.1,0.5-0.1,0.7c0.2,0.3,0.4,0.5,0.6,0.8c-0.7,0.1-1.3,0.1-2,0.2
			c-0.3-0.3-0.5-0.7-0.8-1c-0.3,0-0.5,0-0.6,0.1c-0.1,0.1-0.1,0.3-0.1,0.6c0.1,0.1,0.2,0.3,0.2,0.4c-0.8,0.1-1.7,0.2-2.6,0.4
			c-0.4-0.4-0.5-0.5-0.6-0.5c-0.4,0-0.6,0-0.6,0.1c-0.1,0-0.2,0.2-0.2,0.5c0.1,0.1,0.1,0.1,0.1,0.2c-0.4,0.1-0.8,0.1-1.2,0.2
			c-6.3,1-10.4,2.2-12.5,3.4c-1.2,0.7-2.1,1.9-2.7,3.5c-0.5,1.2-0.7,2.4-0.7,3.6c0,1.5,0.1,2.6,0.3,3.3c0.2,0.7,0.6,1.2,1.1,1.4
			c0.5,0.2,1.3,0.3,2.4,0.3c0.7,0,2.1,0,4.1-0.1c5.6,0,12.6-0.6,20.8-1.8c7.9-1.1,12.5-2.1,13.6-3c1.1-0.9,1.8-1.8,2.1-2.6
			c0.3-0.9,0.4-1.7,0.3-2.6c-0.1-0.9-0.1-1.5-0.1-2c-0.2-0.8-0.4-1.6-0.5-2.5c0,0,0.1,0,0.1,0c-0.2-0.4-0.2-0.7-0.2-1.1
			c0-0.1,0-0.2,0.1-0.2c-0.1,0-0.1,0-0.2,0.1c-0.2-0.9-0.3-1.7-0.5-2.6c-0.1-0.2-0.1-0.5-0.1-0.7c-0.2-0.8-0.3-1.6-0.5-2.4
			c0-0.1,0-0.1,0.1-0.2c-0.1,0-0.1,0-0.1,0c-0.3-1.8-0.5-3.5-0.7-5.1c-0.2-1.5-0.2-2.8-0.2-4c0-0.1,0-0.1,0-0.1v-4.7
			c0.1-0.9,0.1-3.4-0.1-7.3c8.2-0.8,16.3-2.3,24.3-4.4c6.4-1.7,12.4-4,18.2-7c0-0.1,0-0.2,0-0.2c0.2-0.1,0.4-0.3,0.7-0.4
			c-0.5-1.5-0.9-3.1-1.4-4.7c-0.9-3.1-1.7-6.1-2.5-9.3c-0.9-3.2-1.6-6.4-2.3-9.6c-0.6-2.8-1.2-5.7-1.6-8.5c-0.4-2.8-0.8-5.7-1-8.5
			c-0.3-3.3-0.4-6.6-0.5-9.9c0-2.9,0-5.7,0.1-8.6c0.1-3.1,0.3-6.3,0.6-9.4c0.1-1.7,0.3-3.4,0.5-5c0.2-1.7,0.4-3.4,0.7-5
			c0.4-3,0.9-6,1.4-9c0.3-1.8,0.6-3.6,0.9-5.4c0.5-0.3,1.1-0.7,1.6-1.1c1.6-1.3,2.9-2.9,3.8-4.8c0.4-1,0.8-2,0.9-3
			c0.2-1.2,0.4-2.3,0.5-3.4c0.2-1.6,0.3-3.2,0.3-4.7c0.1-2.4,0.1-4.8,0.1-7.3c0-2.4,0-4.8,0-7.2c0-2.8,0-5.6,0-8.4
			c0-2.4,0-4.9,0.1-7.3c0.1-2.4,0.1-4.9,0.2-7.3c0.1-2.6,0.2-5.2,0.4-7.8c0.3-5.7,0.6-11.4,0.8-17c0.2-5.2,0-10.3-0.5-15.5
			c-0.3-2.8-0.8-5.6-1.4-8.3c-1.5-6.3-4.2-12-8.1-17.3c-1.2-1.6-2.5-3.3-3.9-4.8c-1.5-1.8-3.2-3.4-4.9-5c-1-0.8-1.9-1.6-2.9-2.4
			c0,0,0,0,0,0c-0.7-0.5-1.3-1.1-2-1.6c0.5-0.6,1-1.2,1.5-1.8c0.7-0.8,1.3-1.7,2-2.5c0.4-0.5,0.8-1.1,1.2-1.6c1.7-0.5,3.4-1.2,5-2
			c1.5-0.8,2.9-1.7,4.1-2.9c2.4-2.4,4.4-5.1,6-8.1c1.2-2.3,2.2-4.8,2.9-7.4c1.7-6.4,2.8-13,3.5-19.6c0.4-4.1,0.6-8.2,0.7-12.3
			C268.5,100.1,268.5,97.6,268.4,95.1z M179,67.6c0.4-1.1,0.7-2.2,1.1-3.2c0.8-2,1.7-3.9,2.9-5.7c1.1-1.7,2.4-3.3,3.9-4.7
			c1.8-1.7,3.7-3.2,5.7-4.6c0.8-0.5,1.5-1,2.3-1.5c1.4-0.9,2.9-1.6,4.4-2.3c-0.1,0.2-0.1,0.3-0.2,0.5c-1.2,3.3-2.7,5.9-4.4,8.1
			c-1.9,2.4-3.4,4.2-4.3,5.3c-1.6,1.9-3.2,3.5-4.5,4.6C183.8,65.7,181.5,66.9,179,67.6z M138.5,288.4c-0.1,0-0.1,0.1-0.2,0.1
			c0-0.1,0-0.1,0-0.1c0.1-0.5,0.2-0.9,0.3-1.4c0.5-2.6,1-5.2,1.5-7.8c0.5-2.6,0.9-5.1,1.3-7.7c0.4-2.5,0.8-5,1.1-7.5
			c0.4-2.4,0.7-4.9,1.1-7.3c0.5-3.2,1-6.4,1.6-9.6c0.6-3.1,1.2-6.3,1.8-9.4c0.6-3,1.3-6.1,2.1-9.1c0.1-0.4,0.2-0.9,0.3-1.3
			c0.1,4.2,0.1,8.9-0.2,14.1c-0.2,1.8-0.5,3.8-0.7,5.7c-0.1,0.7-0.2,1.4-0.2,2.1c-0.3,3.1-0.6,5.7-0.7,7.8c-0.2,2.1-0.4,4.6-0.6,7.4
			c-0.3,2.8-0.5,5.5-0.8,8.2c-0.2,2.6-0.8,5.5-1.6,8.6C143.6,284.5,141.6,286.9,138.5,288.4z M169.7,415.3c0.3,1.2,0.4,1.9,0.4,2.1
			c0,1.7-0.1,2.9-0.2,3.5c-0.3,1.5-0.9,2.4-2,2.8c-2.9,1-8.6,2-17.1,3c-7.6,0.9-13.1,1.4-16.3,1.4c-0.9,0-1.5,0.1-2,0.1
			c-0.9,0-1.6-0.1-2.1-0.2c-1.6-0.4-2.4-1.6-2.4-3.5c0-2.9,1.5-5.1,4.6-6.6c2.3-1.1,5.6-1.9,10.1-2.4c0.7-0.1,1.4-0.2,2.2-0.2
			c1.9,2.4,3.1,3.6,3.7,3.6c0.4,0,0.6-0.1,0.6-0.3c-0.2-0.6-1.1-1.6-2.6-3.2c-0.1-0.1-0.1-0.1-0.1-0.2c0.7-0.1,1.4-0.1,2.1-0.2
			c1.4,2.4,2.5,3.6,3.2,3.6c0.4,0,0.6-0.1,0.6-0.2c0.1-0.3,0.1-0.4,0.1-0.6c0-0.1-0.8-1-2.2-2.9c0.7-0.1,1.5-0.1,2.2-0.2
			c1.7,1.9,2.8,2.8,3.3,2.8c0.3,0,0.4,0,0.5-0.1c0-0.1,0.1-0.2,0.1-0.2c0-0.1,0-0.1,0.1,0c0,0,0.1-0.1,0.1-0.4
			c0-0.1-0.7-0.9-2.1-2.4c0.8-0.1,1.5-0.3,2-0.5c2.8,1,6.1,1.5,10.1,1.5C167.5,415.6,168.6,415.5,169.7,415.3z M166.4,400
			c0.3,0,0.6,0,0.9,0c0,1,0.1,2,0.2,3.1c-0.4,0.1-0.9,0.1-1.3,0.1c-4,0-7.3-0.5-9.8-1.6c-0.1-1-0.2-2-0.3-3.2
			C158.9,399.5,162.4,400,166.4,400z M158.1,397.7c1.6,0.3,3.3,0.6,4.8,0.8C161.2,398.4,159.6,398.1,158.1,397.7z M167.6,404.5
			c0.2,1.2,0.3,2.4,0.5,3.6c-0.7,0.1-1.3,0.1-2,0.1c-3.8,0-7-0.5-9.4-1.4c-0.1-1-0.2-2.2-0.3-3.7c2.7,1,6.1,1.5,10,1.5
			C166.8,404.5,167.2,404.5,167.6,404.5z M168.7,410.8c0.2,0.8,0.4,1.8,0.7,3.2c-1,0.2-2.1,0.2-3.2,0.2c-3.6,0-6.6-0.4-8.9-1.2
			c0-0.1-0.1-0.2-0.1-0.2c0,0-0.1-0.1-0.1-0.1l-0.2,0c0-0.3,0-1.1,0-2.2c0-0.4-0.1-1.1-0.1-2.3c2.7,0.9,5.9,1.3,9.6,1.3
			c0.7,0,1.3-0.1,2-0.1C168.5,409.9,168.6,410.4,168.7,410.8z M206.4,410.3c0-0.2-0.1-0.4-0.1-0.5c-0.1-1.2-0.2-2.5-0.3-3.8
			c-0.1-0.8-0.2-2.4-0.3-5c2.6-0.1,5.2-0.3,7.8-0.5c1.3-0.1,2.5-0.2,3.8-0.3c0.1,1.5,0.2,2.8,0.2,3.8c0.1,2.1,0.2,3.8,0.2,5
			c0,1.2,0,2.2,0,3c-0.4,0-0.8,0-1.1,0C212.3,412,209,411.4,206.4,410.3z M217.9,416.5c-0.5,0-0.9,0.1-1.3,0.1c-1.6,0-3-0.1-4.4-0.3
			c-2.1-0.2-3.9-0.7-5.4-1.3c-0.1-0.8-0.2-1.7-0.2-2.7c0-0.2,0-0.3-0.1-0.5c0.5,0.2,0.9,0.3,1.4,0.5c2.5,0.8,5.5,1.1,8.9,1.1
			c0.3,0,0.6,0,0.9,0c0,0.9,0.1,1.9,0.2,2.9C217.9,416.3,217.9,416.4,217.9,416.5z M218.1,417.8c0.2,1.2,0.3,2.4,0.5,3.6
			c-0.7,0.1-1.3,0.1-2,0.1c-3.8,0-7-0.5-9.4-1.4c-0.1-1-0.2-2.3-0.3-3.7c2.7,1,6.1,1.5,10,1.5C217.2,417.9,217.6,417.9,218.1,417.8z
			 M220.1,428.7c0.3,1.2,0.4,1.9,0.4,2.1c0,1.7-0.1,2.9-0.2,3.5c-0.3,1.5-0.9,2.4-2,2.8c-2.9,1-8.6,2-17.1,3
			c-7.6,0.9-13.1,1.4-16.3,1.4c-0.9,0-1.5,0.1-2,0.1c-0.9,0-1.6-0.1-2.1-0.2c-1.6-0.4-2.4-1.6-2.4-3.5c0-2.9,1.5-5.1,4.6-6.6
			c2.3-1.1,5.6-1.9,10.1-2.4c0.7-0.1,1.4-0.2,2.2-0.2c1.9,2.4,3.1,3.6,3.7,3.6c0.4,0,0.6-0.1,0.6-0.3c-0.2-0.6-1.1-1.6-2.6-3.2
			c-0.1-0.1-0.1-0.1-0.1-0.2c0.7-0.1,1.4-0.1,2.1-0.2c1.4,2.4,2.5,3.6,3.2,3.6c0.4,0,0.6-0.1,0.6-0.2c0.1-0.3,0.1-0.4,0.1-0.6
			c0-0.1-0.8-1-2.2-2.9c0.7-0.1,1.5-0.1,2.2-0.2c1.7,1.9,2.8,2.8,3.3,2.8c0.3,0,0.4,0,0.5-0.1c0-0.1,0.1-0.2,0.1-0.2c0,0,0,0,0.1,0
			c0,0,0.1-0.1,0.1-0.4c0-0.1-0.7-0.9-2.1-2.4c0.8-0.2,1.5-0.3,2-0.5c2.8,1,6.1,1.5,10.1,1.5C217.9,429,219,428.9,220.1,428.7z
			 M219.1,424.2c0,0.1,0.1,0.3,0.1,0.4c0.2,0.7,0.4,1.7,0.6,2.8c-1,0.2-2.1,0.2-3.2,0.2c-3.6,0-6.6-0.4-8.9-1.2
			c0-0.1-0.1-0.2-0.1-0.2c0,0-0.1-0.1-0.1-0.1l-0.2,0c0-0.3,0-0.8,0-1.5c0-0.2,0-0.4,0-0.7c0-0.4-0.1-1.1-0.1-2.3
			c2.7,0.9,5.9,1.3,9.6,1.3c0.7,0,1.3-0.1,2-0.1C218.9,423.3,219,423.7,219.1,424.2z M258.1,380c0.2,0.6,0.3,1.1,0.5,1.7
			c0.2,0.8,0.5,1.5,0.7,2.3c0.4,1.2,0.8,2.4,1.1,3.5c-1.3,0.7-2.6,1.4-4,1.9c-6,2.6-12.3,4.7-18.8,6.1c-6.6,1.5-13.4,2.5-20.2,3.1
			c-6.5,0.6-13.1,0.9-19.6,1c-6.6,0.1-13.2-0.2-19.7-0.6c-6.7-0.5-13.3-1.3-19.9-2.4c-6.5-1.1-13-2.7-19.3-4.9
			c-4.7-1.6-9.2-3.8-13.3-6.5c0.2-1.1,0.3-2.1,0.5-3.2c0.2-1.5,0.5-2.9,0.7-4.4c0.9,0.7,1.8,1.4,2.8,1.9c1.7,0.9,3.5,1.5,5.4,1.7
			c1.3,0.2,2.5,0.1,3.8-0.3c1.4-0.4,2.8-0.4,4.2-0.2c0.9,0.2,1.8,0.5,2.6,1.1c1.1,0.7,2.2,1.6,3.1,2.5c0.9,1,1.9,1.8,3,2.6
			c2.1,1.5,4.4,2.3,7,2.5c3.4,0.3,6.6-0.3,9.7-1.8c0.6-0.3,1.1-0.5,1.7-0.6c2.6-0.5,4.9-0.1,7.1,1.3c1.9,1.1,3.9,2,6,2.6
			c1.5,0.4,3.1,0.7,4.7,0.7c3.3,0.1,6.4-0.6,9.3-2.1c1.7-0.9,3.5-1.6,5.3-2.2c2.6-0.8,5.2-0.6,7.7,0.4c2.6,1.1,5.4,1.9,8.2,2.4
			c0.9,0.2,1.8,0.2,2.7,0.1c1.9-0.3,3.6-0.9,5.3-1.9c2.2-1.3,4.4-2.6,6.6-3.8c0.8-0.4,1.5-0.7,2.3-0.8c2.6-0.5,5.2-0.5,7.9,0
			c1.1,0.2,2.3,0.3,3.5,0.4c2.2,0.2,4.4,0,6.6-0.6c1.1-0.3,2-0.8,2.7-1.5C256.7,381.6,257.4,380.8,258.1,380z M255.1,295.7
			c-0.2,0.1-0.5,0.3-0.7,0.4c0.2-0.1,0.5-0.2,0.7-0.3c-0.4,1.6-0.7,3.3-1,4.9c-0.8,5-1.5,10-1.9,15c-0.4,4.2-0.6,8.4-0.7,12.6
			c-0.1,2.5-0.1,5-0.1,7.5c0,3.3,0.1,6.7,0.4,10c0.2,2.4,0.4,4.8,0.7,7.3c0.3,2.4,0.7,4.8,1,7.2c0.4,2.4,0.9,4.8,1.5,7.1
			c0.4,1.6,0.8,3.2,1.2,4.7c0.5,2.1,1.1,4.2,1.6,6.3c-0.3,0.4-0.5,0.8-0.8,1.2c-0.9,1.2-2,2-3.4,2.5c-1.6,0.6-3.3,0.9-5,0.7
			c-3.6-0.5-7.1-0.7-10.7-0.8c-0.7,0-1.4,0.1-2.2,0.2c-1.4,0.3-2.8,0.7-4.1,1.4c-1.2,0.6-2.4,1.4-3.4,2.3c-1.6,1.4-3.5,2.4-5.6,2.8
			c-3.5,0.7-6.7,0.2-9.8-1.5c-2.8-1.6-5.7-2.1-8.9-1.5c-2.2,0.4-4.3,1.1-6.2,2.1c-2.1,1.1-4.4,1.8-6.7,2.2c-1.2,0.2-2.4,0.3-3.7,0.1
			c-3.8-0.3-7.4-1.5-10.8-3.4c-2-1.2-4.1-1.6-6.4-1.2c-1.1,0.3-2.2,0.6-3.3,1.1c-2.8,1.3-5.8,1.7-8.9,1.2c-1.5-0.3-2.9-0.8-4.1-1.6
			c-1.3-0.9-2.5-1.8-3.7-2.8c-1.2-1-2.4-2-3.7-2.9c-0.4-0.3-0.7-0.5-1.2-0.6c-1.7-0.6-3.4-0.8-5.2-0.5c-1.3,0.1-2.6,0.3-3.9,0.4
			c-2.7,0.4-5.1-0.3-7.4-2c-0.6-0.5-1.2-1-1.8-1.6c0.8-5.6,1.6-11.3,2.3-16.9c1-8,1.9-16,2.9-24c1-8.3,2.3-16.6,3.9-24.8
			c1.5-7.3,3.1-14.5,4.8-21.6c1.4-0.8,2.5-1.9,3.3-3.3c1.6-2.8,2.5-5.8,2.9-9c0.5-4.3,0.9-8.2,1.2-11.9c0.3-3.7,0.8-8.7,1.4-15
			c0.6-6.3,1.6-12.8,2.9-19.4c1.3-6.7,3.4-13.1,6.2-19.4c2.6-5.7,5.7-11.4,9.4-17.1c1.3,0.4,2.6,0.7,3.9,1c-0.1,0.2-0.2,0.4-0.3,0.5
			c-0.6,1.1-1.3,2.1-1.9,3.2c-0.9,1.6-1.9,3.3-2.8,4.8c-1,1.7-1.9,3.4-2.8,5.1c-1.8,3.5-3.5,7.1-5,10.8c-1.6,4-3,7.9-4.4,12
			c-2.9,8.9-4.7,18-5.2,27.3c-0.4,6.9-0.4,13.9,0.1,20.8c0.1,0.8,0.2,1.6,0.3,2.4c0.2,1.2,0.5,2.4,0.9,3.6c0.4,1.1,0.8,2.3,1.4,3.4
			c0.4,0.8,0.9,1.5,1.5,2.1c0.7,0.8,1.5,1.5,2.3,2.1c3,2.4,6.2,4.5,9.7,6.1c5.6,2.6,11.4,4.5,17.5,5.6c3.7,0.7,7.4,1.1,11.1,1.5
			c5.1,0.5,10.3,0.6,15.5,0.5c7.4-0.2,14.6-1.2,21.8-2.9c4.6-1.2,9-2.5,13.5-4.2c2.1-0.8,4.2-1.6,6.3-2.4
			C252.6,296.9,253.8,296.3,255.1,295.7C255.1,295.7,255.1,295.7,255.1,295.7C255.1,295.7,255.1,295.7,255.1,295.7z M245.6,165.7
			c1.2,1,2.3,2.1,3.4,3.3c0.3,0.4,0.7,0.7,1,1.1c2.2,2.5,4.2,5.2,6,8c1.7,2.6,3.1,5.3,4.2,8.2c1,2.6,1.8,5.3,2.4,8
			c0.6,2.7,1,5.3,1.2,8c0.3,3.2,0.5,6.4,0.5,9.6c0.1,3.1,0,6.2-0.1,9.3c-0.1,2.7-0.2,5.3-0.4,8c-0.2,3.3-0.3,6.6-0.5,9.9
			c-0.2,3.3-0.3,6.6-0.3,9.9c-0.1,3.3-0.1,6.6-0.1,9.9c0,3.3,0,6.7,0.1,10c0,3,0,6-0.2,9.1c-0.2,3.3-0.6,6.6-1.3,9.8
			c-0.3,1.1-0.7,2.2-1.4,3.1c-0.5,0.7-1,1.3-1.5,1.9c-7.6,4.2-15.5,7.2-23.6,9.2c-8.3,2-14.4,3.2-18.2,3.4c-3.9,0.2-7.1,0.3-9.6,0.3
			c-2.7,0-5.4-0.1-8-0.2c-3.5-0.2-7-0.5-10.4-1c-3.3-0.4-6.5-1-9.7-1.8c-3.2-0.8-6.3-1.9-9.4-3.1c-3.6-1.4-7-3.3-10.1-5.6
			c-0.8-0.6-1.6-1.2-2.3-1.8c-2.5-1.8-4.2-4.3-5-7.3c-0.6-2.3-1-4.6-1-7c-0.1-1.6-0.1-3.1-0.1-4.6c0-2,0-4.1,0-6.1
			c0-3.6,0.2-7.1,0.5-10.6c0.3-3,0.6-6,1.1-9c0.2-1.3,0.4-2.6,0.7-4c0.4-1.1,1.1-2.7,1.9-4.9c1.2-3,3.2-6.4,6-10
			c2.8-3.7,37.3-43,35-43.1c1-0.4,2.1-0.8,3.5-1.3c2.4-0.9,3.9-1.6,4.5-2c0.2,0,0.4-0.1,0.6-0.1c4.9-0.6,9.5-1.6,14-3.2
			c8.6-3,16.9-8,24.8-15.1C244.1,164.5,244.8,165.1,245.6,165.7z M242.5,163.3c-2.2,2-4.5,3.8-6.8,5.4
			c-12.1,8.4-26.6,12.7-43.4,12.7c-3.3,0-6-0.2-8.2-0.5c-0.1,0.1-0.2,0.2-0.3,0.4c-0.1,0.1-0.2,0.1-0.2,0.2
			c-0.2,0.3-0.4,0.5-0.7,0.7c0,0,0.1,0,0.1,0c0,0,0,0,0,0c-0.6,0.5-1.2,0.9-1.7,1.4c-0.4-0.1-0.8-0.1-1.2-0.2
			c-2.1-0.4-3.5-0.7-4.2-0.8c0.6-0.9,1.2-1.7,1.7-2.4c0,0,0,0,0,0c0.2-0.3,0.5-0.7,0.9-1.2c-1.2-0.8-1.7-2-1.7-3.5
			c0-2.1,0.8-4.1,2.3-6c1.5-1.5,3.2-2.8,4.9-4l-0.5,0.1c0.1-0.1,0.2-0.2,0.3-0.2c0,0,0,0,0,0c0.4-0.3,0.8-0.5,1.3-0.8
			c0.1,0.1,0.1,0.1,0.1,0.2c0.4,0.6,0.9,1.1,1.4,1.6c-0.7,0.5-1.1,0.9-1.5,1.2c-1.2,1.2-1.8,2.7-1.8,4.5c0,0.5,0.1,1,0.4,1.5
			c0.4,0.8,1,1.5,1.7,2.2c2.3,1.9,5.8,2.8,10.7,2.8c4.9,0,10-0.8,15.2-2.4c1.7-0.5,3.4-1.1,5-1.8c1.1-0.2,2.2-0.5,3.4-0.9
			c2.9-0.8,5.7-1.9,8.5-3.1c2.9-1.3,5.6-2.9,8.1-4.8c1.4-1.1,2.8-2.3,4-3.6c0.3,0.2,0.6,0.4,0.9,0.6
			C241.8,162.8,242.1,163,242.5,163.3z M187.7,167.3c1.3,1.2,2.7,2.3,4.2,3.3c2.8,1.8,5.8,3.1,9,3.9c3,0.7,6.1,1,9.2,0.8
			c0.4,0,0.9-0.1,1.3-0.1c-0.4,0.1-0.8,0.2-1.2,0.3c-4.4,1.1-9.1,1.7-14.1,1.7c-4,0-7-0.7-9.1-1.9c-1.5-1-2.3-2-2.3-3.2
			C184.7,170.7,185.7,169.1,187.7,167.3z M242.5,157.7c-1.4,1.9-2.6,3.2-3.4,3.9c-0.9,0.7-2.3,1.8-4.3,3.4c-2,1.6-4.4,3.1-7.1,4.4
			c-2.3,1.2-4.8,2-7.3,2.6c-3.2,0.8-6.4,1.3-9.7,1.6c-3.5,0.4-7,0.2-10.4-0.6c-2-0.5-3.8-1.2-5.6-2.2c-2.2-1.3-4.2-2.7-6.1-4.4
			c-2.4-2.1-4.2-4.7-5.3-7.7c-2-5-3.2-9.7-3.8-14.2c-0.5-4.4-1-11.8-1.4-22.2c-0.4-10.4-0.4-20.3,0-29.8c0.5-9.5,1.1-15.7,2.1-18.7
			c0.7-2.4,1.6-4.5,2.5-6.4c1.2-0.6,2.3-1.3,3.4-2c3.5-2.4,6.6-5.7,9.4-9.9c1.4-2.1,2.7-4.3,3.8-6.6c0,1.7,0.2,3.4,0.5,5.1
			c1.9,9.3,5.5,17.8,11,25.7c4.9,7,11.1,11.6,18.7,13.8l-2.6,9.7c-0.1,0-0.1-0.1-0.2-0.1c-0.1,0.4-0.2,0.8-0.3,1.3
			c0.5,0.2,1.1,0.4,1.8,0.7c0.9,0.4,1.8,0.7,2.5,0.9c0.2-0.5,0.3-1,0.5-1.4c-0.1,0-0.1,0-0.1-0.1c2-6.7,5.3-10.1,9.9-10.1
			c1.8,0,3.1,1.2,3.9,3.5c0.4,1.2,0.6,2.4,0.6,3.8c0,1.3-0.4,2.8-1,4.4c-1.2,2.7-3,4-5.6,4c-0.7,0-1.3-0.1-1.7-0.4
			c-1.2-0.3-2-0.9-2.6-1.9c-0.1-0.1-0.1-0.2-0.2-0.3c0,0,0,0,0,0v1.3c0.1,0.1,0.2,0.3,0.3,0.6c0.2,0.4,0.4,0.7,0.6,0.9
			c0.7,0.8,1.9,1.2,3.7,1.2c1.1,0,2.1-0.2,3-0.6c-0.3,9.1-1.9,16.5-5.1,22.4c-4.4,8.2-11.4,12.9-21,14.2c0,0.1,0,0.3,0,0.4
			c0,0.1,0,0.2,0,0.3c0.1,0.1,0.2,0.1,0.3,0.2c0.1,0,0.1,0.1,0.2,0.1c-0.1,0-0.2,0-0.2,0.1c1.1,0.8,2.1,1.5,3.3,2.1
			c2.1,1.2,4.4,2.2,6.7,3c2.3,0.8,4.8,1.4,7.3,1.8c2.9,0.5,5.8,0.5,8.7,0.1c0.8-0.1,1.6-0.3,2.4-0.4
			C243.9,155.8,243.3,156.6,242.5,157.7z M267.1,106.5c0,3.4-0.2,6.7-0.6,10c-0.3,2.6-0.6,5.2-1.1,7.8c-0.5,2.9-1.1,5.8-1.9,8.7
			c-0.8,3.2-2,6.2-3.6,9c-1.6,2.9-3.7,5.5-6.2,7.7c-2.5,2.3-5.5,3.8-8.8,4.4c-3.3,0.6-6.6,0.8-9.9,0.5c-3.3-0.3-6.4-1.1-9.5-2.2
			c-2.6-1-5.1-2.3-7.4-3.8c4-0.8,7.5-2.3,10.6-4.4c4.1-2.8,7.5-6.7,10-11.7c1.8-3.7,3.2-7.9,4-12.5c0.5-2.8,0.7-5.2,0.7-7.4
			c0-1.2,0-2,0-2.4c0.9-0.7,1.6-1.7,2.2-2.9c0.8-1.7,1.1-3.5,1.1-5.5c0-0.1,0-0.5-0.1-1.4c-0.1-1.1-0.3-2-0.5-2.9
			c-0.9-2.8-2.5-4.2-5-4.2c-5.1,0-8.8,3.7-11.1,11.1c-0.7-0.2-1.3-0.5-1.9-0.7c1.3-4.8,2.1-8,2.5-9.8c0.1-0.5,0.2-0.8,0.2-1.1
			c0-0.2,0.1-0.3,0.1-0.5c-0.4,0-0.8-0.1-1.1-0.2l-0.1,0.4c-0.7-0.5-1.4-0.9-2.1-1.1c-5.4-1.9-10-5.1-13.9-9.7c-4-4.7-7-10-9-15.9
			c-0.9-2.7-1.8-5.3-2.7-7.9c-1.6-4.7-1.8-9.2-0.6-13.4c0.9-0.4,1.7-0.7,2.6-1c2.9-1,5.8-1.6,8.7-2c3.1-0.4,6.3-0.6,9.4-0.5
			c2.9,0.1,5.8,0.4,8.7,0.9c3.1,0.6,6.1,1.4,9,2.6c3.1,1.3,6,2.9,8.7,4.8c2.5,1.9,4.8,4,6.8,6.5c2,2.5,3.6,5.1,5,8
			c1.4,3,2.5,6.1,3.5,9.3c0.9,3.2,1.6,6.4,2.1,9.6c0.4,2.6,0.6,5.3,0.8,8c0.2,2.6,0.3,5.3,0.4,7.9
			C267.1,101.4,267.2,104,267.1,106.5z"/>
		<path fill="#FDDB00" d="M266.7,90.9c-0.2-2.7-0.4-5.3-0.8-8c-0.5-3.3-1.1-6.5-2.1-9.6c-0.9-3.2-2.1-6.2-3.5-9.3
			c-1.3-2.9-3-5.5-5-8c-2-2.5-4.3-4.6-6.8-6.5c-2.7-1.9-5.6-3.6-8.7-4.8c-2.9-1.2-5.9-2.1-9-2.6c-2.9-0.5-5.8-0.8-8.7-0.9
			c-3.2-0.1-6.3,0.1-9.4,0.5c-2.9,0.4-5.8,1-8.7,2c-0.9,0.3-1.7,0.6-2.6,1c-1.2,4.2-1,8.6,0.6,13.4c0.9,2.6,1.8,5.3,2.7,7.9
			c2,5.9,4.9,11.2,9,15.9c3.9,4.6,8.5,7.8,13.9,9.7c0.8,0.3,1.5,0.7,2.1,1.1l0.1-0.4c0.4,0.1,0.7,0.2,1.1,0.2c0,0.1,0,0.3-0.1,0.5
			c-0.1,0.3-0.1,0.6-0.2,1.1c-0.4,1.8-1.2,5-2.5,9.8c0.6,0.2,1.2,0.4,1.9,0.7c2.3-7.4,6-11.1,11.1-11.1c2.4,0,4.1,1.4,5,4.2
			c0.3,0.9,0.4,1.9,0.5,2.9c0,0.9,0.1,1.4,0.1,1.4c0,2-0.4,3.8-1.1,5.5c-0.6,1.2-1.3,2.2-2.2,2.9c0,0.5,0,1.3,0,2.4
			c0,2.1-0.3,4.6-0.7,7.4c-0.8,4.6-2.1,8.7-4,12.5c-2.5,5-5.8,8.9-10,11.7c-3.1,2.1-6.6,3.6-10.6,4.4c2.4,1.5,4.8,2.7,7.4,3.8
			c3.1,1.2,6.3,1.9,9.5,2.2c3.3,0.3,6.6,0.1,9.9-0.5c3.4-0.7,6.3-2.1,8.8-4.4c2.5-2.2,4.5-4.8,6.2-7.7c1.6-2.8,2.8-5.8,3.6-9
			c0.7-2.9,1.4-5.8,1.9-8.7c0.5-2.6,0.8-5.2,1.1-7.8c0.4-3.3,0.6-6.7,0.6-10c0-2.5,0-5.1-0.1-7.7C266.9,96.2,266.8,93.6,266.7,90.9z
			"/>
		<path fill="#FDDB00" d="M190.5,59.5c1-1.1,2.4-2.9,4.3-5.3c1.8-2.1,3.2-4.8,4.4-8.1c0.1-0.2,0.1-0.3,0.2-0.5
			c-1.5,0.7-3,1.5-4.4,2.3c-0.8,0.5-1.5,1-2.3,1.5c-2,1.4-4,2.9-5.7,4.6c-1.5,1.4-2.8,2.9-3.9,4.7c-1.2,1.8-2.2,3.7-2.9,5.7
			c-0.4,1.1-0.8,2.1-1.1,3.2c2.6-0.7,4.9-1.9,7-3.6C187.3,62.9,188.8,61.4,190.5,59.5z"/>
		<path fill="#FDCF9D" d="M233.3,155.7c-2.5-0.4-4.9-1-7.3-1.8c-2.3-0.8-4.6-1.8-6.7-3c-1.2-0.7-2.2-1.4-3.3-2.1l0.1-0.1
			c-0.1-0.1-0.2-0.1-0.3-0.2c0-0.1,0-0.2,0-0.3c0-0.1,0-0.3,0-0.4c9.7-1.3,16.6-6.1,21-14.2c3.1-5.8,4.8-13.3,5.1-22.4
			c-0.9,0.4-1.9,0.6-3,0.6c-1.7,0-2.9-0.4-3.7-1.2c-0.2-0.2-0.4-0.5-0.6-0.9c-0.2-0.4-0.3-0.6-0.3-0.6v-1.3c0,0,0,0,0,0
			c0.1,0.1,0.1,0.2,0.2,0.3c0.6,1,1.4,1.6,2.6,1.9c0.5,0.3,1.1,0.4,1.7,0.4c2.5,0,4.4-1.4,5.6-4c0.7-1.6,1-3,1-4.4
			c0-1.3-0.2-2.6-0.6-3.8c-0.7-2.3-2-3.5-3.9-3.5c-4.6,0-7.9,3.4-9.9,10.1c0,0,0.1,0,0.1,0.1c-0.2,0.4-0.3,0.9-0.5,1.4
			c-0.7-0.3-1.6-0.6-2.5-0.9c-0.7-0.3-1.2-0.5-1.8-0.7c0.1-0.5,0.2-1,0.3-1.3c0.1,0,0.1,0.1,0.2,0.1l2.6-9.7
			c-7.6-2.2-13.8-6.9-18.7-13.8c-5.5-7.8-9.1-16.4-11-25.7c-0.3-1.7-0.5-3.4-0.5-5.1c-1.1,2.3-2.4,4.5-3.8,6.6
			c-2.8,4.2-6,7.5-9.4,9.9c-1.1,0.8-2.3,1.5-3.4,2c-0.9,1.9-1.8,4-2.5,6.4c-0.9,3-1.6,9.3-2.1,18.7c-0.4,9.5-0.4,19.4,0,29.8
			c0.5,10.4,0.9,17.8,1.4,22.2c0.5,4.4,1.8,9.1,3.8,14.2c1.2,3,3,5.5,5.3,7.7c1.9,1.7,3.9,3.1,6.1,4.4c1.8,1,3.6,1.8,5.6,2.2
			c3.4,0.8,6.9,1,10.4,0.6c3.2-0.3,6.5-0.8,9.7-1.6c2.5-0.6,5-1.5,7.3-2.6c2.7-1.4,5.1-2.8,7.1-4.4c2-1.6,3.4-2.7,4.3-3.4
			c0.8-0.7,2-2,3.4-3.9c0.8-1.1,1.4-1.9,1.8-2.3c-0.8,0.2-1.6,0.3-2.4,0.4C239,156.2,236.1,156.2,233.3,155.7z"/>
		<path fill="#A46728" d="M184,165.3l0.1,0.2L184,165.3C184,165.3,184,165.3,184,165.3z"/>
		<path fill="#FDCF9D" d="M187,175.1c2.1,1.3,5.1,1.9,9.1,1.9c5,0,9.7-0.6,14.1-1.7l-0.1-0.2c-3.1,0.3-6.2,0-9.2-0.8
			c-3.2-0.8-6.2-2.1-9-3.9c-1.5-1-2.9-2.1-4.2-3.3c-2,1.9-3,3.4-3,4.7C184.7,173.1,185.5,174.2,187,175.1z"/>
		<path fill="#C272AD" d="M204.5,182.2c-0.2,0-0.4,0.1-0.6,0.1c-0.7,0.4-18.3-0.5-19.3-0.2c-9.6,8.9-19.7,28.8-23.1,36.6
			c-1.9,4.3-5.5,16.9-6.7,19.9c-0.9,2.2-1.5,3.8-1.9,4.9c-0.3,1.3-0.5,2.6-0.7,4c-0.5,3-0.8,6-1.1,9c-0.3,3.5-0.5,7-0.5,10.6
			c0,2,0,4.1,0,6.1c0,1.5,0.1,3.1,0.1,4.6c0.1,2.4,0.4,4.7,1,7c0.8,3,2.5,5.4,5,7.3c0.8,0.6,1.6,1.2,2.3,1.8
			c3.1,2.3,6.5,4.2,10.1,5.6c3.1,1.2,6.2,2.2,9.4,3.1c3.2,0.8,6.4,1.4,9.7,1.8c3.5,0.5,6.9,0.8,10.4,1c2.7,0.1,5.3,0.2,8,0.2
			c2.5,0,5.7-0.1,9.6-0.3c3.9-0.2,10-1.3,18.2-3.4c8.1-2,16-5.1,23.6-9.2c0.5-0.6,1-1.3,1.5-1.9c0.7-0.9,1.2-2,1.4-3.1
			c0.7-3.2,1.1-6.4,1.3-9.8c0.2-3,0.2-6,0.2-9.1c-0.1-3.4-0.1-6.7-0.1-10c0-3.3,0.1-6.6,0.1-9.9c0.1-3.3,0.2-6.6,0.3-9.9
			c0.1-3.3,0.3-6.6,0.5-9.9c0.2-2.7,0.3-5.3,0.4-8c0.1-3.1,0.2-6.2,0.1-9.3c-0.1-3.2-0.2-6.4-0.5-9.6c-0.3-2.7-0.7-5.3-1.2-8
			c-0.6-2.8-1.4-5.4-2.4-8c-1.1-2.9-2.5-5.6-4.2-8.2c-1.8-2.8-3.8-5.5-6-8c-0.3-0.4-0.7-0.7-1-1.1c-1.1-1.2-2.2-2.2-3.4-3.3
			c-0.8-0.7-1.5-1.3-2.3-1.9c-7.9,7.1-16.2,12.1-24.8,15.1C214.1,180.5,209.4,181.6,204.5,182.2z"/>
		<path fill="#F396BF" d="M256.1,372.3c-0.4-1.6-0.8-3.1-1.2-4.7c-0.6-2.4-1.1-4.7-1.5-7.1c-0.4-2.4-0.7-4.8-1-7.2
			c-0.3-2.4-0.5-4.9-0.7-7.3c-0.2-3.4-0.4-6.7-0.4-10c0-2.5,0-5,0.1-7.5c0.1-4.2,0.4-8.4,0.7-12.6c0.4-5.1,1.1-10.1,1.9-15
			c0.3-1.7,0.6-3.3,1-4.9c-0.2,0.1-0.4,0.2-0.7,0.3c0.2-0.1,0.5-0.2,0.7-0.4l0-0.1c-1.3,0.7-2.5,1.3-3.9,1.8
			c-2.1,0.8-4.2,1.6-6.3,2.4c-4.4,1.6-8.9,3-13.5,4.2c-7.2,1.8-14.4,2.7-21.8,2.9c-5.2,0.1-10.3-0.1-15.5-0.5
			c-3.7-0.3-7.4-0.8-11.1-1.5c-6.1-1.1-11.9-3-17.5-5.6c-3.5-1.7-6.7-3.7-9.7-6.1c-0.8-0.6-1.5-1.3-2.3-2.1
			c-0.6-0.6-1.1-1.3-1.5-2.1c-0.6-1.1-1-2.2-1.4-3.4c-0.4-1.1-0.7-2.3-0.9-3.6c-0.1-0.8-0.2-1.6-0.3-2.4c-0.5-6.9-0.5-13.9-0.1-20.8
			c0.6-9.3,2.3-18.4,5.2-27.3c1.3-4.1,2.8-8,4.4-12c1.5-3.7,3.2-7.3,5-10.8c0.9-1.7,1.8-3.4,2.9-5.1c0.9-1.6,1.9-3.2,2.8-4.8
			c0.6-1.1,1.2-2.2,1.9-3.2c0.1-0.2,11.7-13.9,11.9-14.2c0.1-0.1,0.2-0.1,0.2-0.2c0.1-0.1,0.2-0.2,0.3-0.4c2.2,0.4,4.9,0.5,8.2,0.5
			c16.8,0,31.2-4.2,43.4-12.7c2.3-1.6,4.6-3.4,6.8-5.4c-0.4-0.3-0.8-0.5-1.1-0.8c-0.3-0.2-0.6-0.4-0.9-0.6c-1.3,1.3-2.6,2.5-4,3.6
			c-2.5,1.9-5.2,3.6-8.1,4.8c-2.8,1.2-5.6,2.3-8.5,3.1c-1.1,0.3-2.2,0.6-3.4,0.9c-1.7,0.7-3.4,1.3-5,1.8c-5.2,1.6-10.2,2.4-15.2,2.4
			c-4.9,0-8.4-0.9-10.7-2.8c-0.8-0.6-1.4-1.4-1.7-2.2c-0.3-0.6-0.4-1.1-0.4-1.5c0-1.8,0.6-3.3,1.8-4.5c0.4-0.3,0.8-0.8,1.5-1.2
			c-0.5-0.5-0.9-1-1.4-1.6c-0.1-0.1-0.1-0.1-0.1-0.2c-0.5,0.3-0.9,0.5-1.3,0.8l0.1,0.2c-1.8,1.2-3.4,2.5-4.9,4
			c-1.5,1.9-2.3,3.9-2.3,6c0,1.5,0.6,2.6,1.7,3.5c-0.4,0.5-0.7,0.9-0.9,1.2c0,0,0,0-0.1,0c-0.5,0.7-1.7,2.4-1.7,2.4
			c-3.7,5.7-14.7,22.9-17.3,28.6c-2.9,6.3-4.9,12.7-6.2,19.4c-1.3,6.6-2.3,13.1-2.9,19.4c-0.6,6.3-1.1,11.3-1.4,15
			c-0.3,3.7-0.7,7.7-1.2,11.9c-0.4,3.2-1.3,6.2-2.9,9c-0.8,1.4-1.9,2.5-3.2,3.3c-1.7,7.2-3.4,14.4-4.8,21.6
			c-1.6,8.2-2.9,16.5-3.9,24.8c-0.9,8-1.9,16-2.9,24c-0.7,5.6-1.4,11.3-2.3,16.9c0.6,0.6,1.2,1.1,1.8,1.6c2.2,1.7,4.7,2.3,7.4,2
			c1.3-0.2,2.6-0.3,3.9-0.4c1.8-0.2,3.5-0.1,5.2,0.5c0.4,0.1,0.8,0.3,1.2,0.6c1.2,0.9,2.5,1.9,3.7,2.9c1.2,1,2.4,1.9,3.7,2.8
			c1.2,0.8,2.6,1.4,4.1,1.6c3.1,0.5,6,0.1,8.9-1.2c1.1-0.5,2.2-0.9,3.3-1.1c2.3-0.4,4.4,0,6.4,1.2c3.3,2,6.9,3.1,10.8,3.4
			c1.3,0.1,2.5,0.1,3.7-0.1c2.4-0.4,4.6-1.1,6.7-2.2c2-1,4.1-1.7,6.2-2.1c3.2-0.6,6.2-0.1,8.9,1.5c3,1.7,6.3,2.2,9.8,1.5
			c2.1-0.4,4-1.4,5.6-2.8c1-0.9,2.1-1.7,3.4-2.3c1.3-0.7,2.7-1.1,4.1-1.4c0.7-0.1,1.4-0.2,2.2-0.2c3.6,0.1,7.2,0.4,10.7,0.8
			c1.7,0.2,3.4-0.1,5-0.7c1.4-0.5,2.5-1.4,3.4-2.5c0.3-0.4,0.6-0.8,0.8-1.2C257.2,376.5,256.6,374.4,256.1,372.3z"/>
		<path fill="#C272AD" d="M177.4,178.7c-0.6-0.7-0.6-0.3-1-2.4c-0.4-2,0.3-4.8,0.3-4.8s-2.1,1.6-5.3,6.4c-1.3,2-4,4.9-6,8.1
			c-4.5,7.2-7.2,14.4-10.4,22.3c-2.4,5.9-3,3.6-6.9,20.3c-0.7,3.1-1.4,6.1-2.1,9.1c-0.7,3.1-1.3,6.3-1.8,9.4
			c-0.6,3.2-1.1,6.4-1.6,9.6c-0.4,2.4-0.4,4.8-0.7,7.2c-0.3,2.5-0.6,5.5-1,8c-0.4,2.6-0.9,6.3-1.4,8.8c-0.5,2.6-0.6,4.1-1.1,6.7
			c-0.1,0.5,0.1,0.6,0,1l0.1,0.9c3.1-1.5,5.2-3.7,6.1-7c0.9-3.1,1.5-5.5,1.7-8.1c0.2-2.6,0.6-5.8,0.9-8.6c0.3-2.8,0.7-6.1,0.9-8.3
			c0.2-2.1,2.9-27.7,5.7-35.4c1.6-4.6,2.4-7.9,4.3-12c3.3-7.1,6.9-13,10.3-18.1c3.1-4.8,5.8-8.8,7.2-10.9
			C176,180.1,177.4,178.7,177.4,178.7z"/>
		<path fill="#FFFFFF" d="M256,382.3c-0.8,0.7-1.7,1.2-2.7,1.5c-2.2,0.6-4.4,0.8-6.6,0.6c-1.2-0.1-2.3-0.2-3.5-0.4
			c-2.6-0.4-5.2-0.4-7.9,0c-0.8,0.2-1.6,0.4-2.3,0.8c-2.2,1.2-4.4,2.5-6.6,3.8c-1.6,1-3.4,1.6-5.3,1.9c-0.9,0.2-1.8,0.2-2.7-0.1
			c-2.8-0.5-5.5-1.3-8.2-2.4c-2.5-1-5.1-1.2-7.7-0.4c-1.8,0.5-3.6,1.3-5.3,2.2c-2.9,1.5-6,2.2-9.3,2.1c-1.6-0.1-3.2-0.3-4.7-0.7
			c-2.1-0.6-4.1-1.4-6-2.6c-2.2-1.3-4.5-1.8-7.1-1.3c-0.6,0.1-1.2,0.3-1.7,0.6c-3,1.5-6.3,2.1-9.7,1.8c-2.6-0.2-4.9-1-7-2.5
			c-1.1-0.8-2.1-1.6-3-2.6c-0.9-0.9-2-1.8-3.1-2.5c-0.8-0.6-1.7-0.9-2.6-1.1c-1.4-0.3-2.8-0.2-4.2,0.2c-1.3,0.3-2.5,0.4-3.8,0.3
			c-1.9-0.2-3.7-0.7-5.4-1.7c-1-0.6-2-1.2-2.8-1.9c-0.2,1.5-0.5,2.9-0.7,4.4c-0.2,1-0.3,2.1-0.5,3.2c4.1,2.7,8.5,4.9,13.3,6.5
			c6.3,2.1,12.7,3.8,19.3,4.9c6.7,1.1,13.3,1.9,19.9,2.4c6.6,0.5,13.2,0.7,19.7,0.6c6.5-0.1,13-0.4,19.6-1
			c6.8-0.6,13.6-1.6,20.2-3.1c6.5-1.4,12.8-3.5,18.8-6.1c1.4-0.6,2.7-1.2,4-1.9c-0.4-1.2-0.8-2.4-1.1-3.5c-0.3-0.8-0.5-1.5-0.7-2.3
			c-0.2-0.6-0.3-1.1-0.5-1.7C257.4,380.8,256.7,381.6,256,382.3z"/>
		<path fill="#FDCF9D" d="M217.7,411.9c0-0.8,0-1.8,0-3c0-1.2-0.1-2.9-0.2-5c-0.1-1-0.2-2.2-0.2-3.8c-1.3,0.1-2.5,0.2-3.8,0.3
			c-2.6,0.2-5.2,0.3-7.8,0.5c0.2,2.6,0.3,4.2,0.3,5c0.1,1.3,0.2,2.6,0.3,3.8c0,0.2,0,0.4,0.1,0.5c2.6,1.1,5.9,1.7,10.2,1.7
			C216.9,412,217.3,411.9,217.7,411.9z"/>
		<path fill="#A46728" d="M206.7,427.5c-0.5,0.2-1.1,0.3-2,0.5c1.4,1.5,2.1,2.3,2.1,2.4c0,0.2,0,0.4-0.1,0.4c-0.1,0-0.1,0-0.1,0
			c-0.1,0-0.1,0.1-0.1,0.2c-0.1,0-0.3,0.1-0.5,0.1c-0.5,0-1.6-1-3.3-2.8c-0.8,0.1-1.5,0.1-2.2,0.2c1.5,1.9,2.2,2.9,2.2,2.9
			c0,0.1,0,0.3-0.1,0.6c0.1,0.1-0.2,0.2-0.6,0.2c-0.7,0-1.8-1.2-3.2-3.6c-0.8,0-1.5,0.1-2.1,0.2c0,0.1,0.1,0.1,0.1,0.2
			c1.5,1.6,2.3,2.7,2.6,3.2c0,0.2-0.2,0.3-0.6,0.3c-0.6,0-1.8-1.2-3.7-3.6c-0.8,0.1-1.6,0.1-2.2,0.2c-4.4,0.5-7.7,1.2-10.1,2.4
			c-3,1.5-4.6,3.7-4.6,6.6c0,1.9,0.8,3.1,2.4,3.5c0.6,0.1,1.3,0.2,2.1,0.2c0.5,0,1.1,0,2-0.1c3.2,0,8.6-0.5,16.3-1.4
			c8.5-1,14.2-2,17.1-3c1-0.4,1.7-1.3,2-2.8c0.1-0.6,0.2-1.7,0.2-3.5c0-0.2-0.1-0.9-0.4-2.1c-1.1,0.2-2.2,0.3-3.3,0.3
			C212.8,429,209.5,428.5,206.7,427.5z"/>
		<path fill="#EC2890" d="M216.8,413.4c-3.4,0-6.4-0.4-8.9-1.1c-0.5-0.1-1-0.3-1.4-0.5c0,0.2,0,0.3,0.1,0.5c0.1,1,0.2,1.9,0.2,2.7
			c1.5,0.6,3.3,1.1,5.4,1.3c1.4,0.2,2.8,0.3,4.4,0.3c0.5,0,0.9,0,1.3-0.1c0-0.1,0-0.1,0-0.2c-0.1-1-0.2-2-0.2-2.9
			C217.4,413.3,217.1,413.4,216.8,413.4z"/>
		<path fill="#FDEA00" d="M206.9,416.4c0.1,1.4,0.2,2.7,0.3,3.7c2.5,0.9,5.6,1.4,9.4,1.4c0.7,0,1.4,0,2-0.1
			c-0.2-1.3-0.4-2.5-0.5-3.6c-0.4,0-0.8,0.1-1.2,0.1C212.9,417.9,209.6,417.4,206.9,416.4z"/>
		<path fill="#FFFFFF" d="M216.8,422.9c-3.7,0-6.9-0.5-9.6-1.3c0.1,1.2,0.1,1.9,0.1,2.3c0,0.3,0,0.5,0,0.7c0,0.7,0,1.2,0,1.5l0.2,0
			c0,0,0,0,0.1,0.1c0,0,0.1,0.1,0.1,0.2c2.4,0.8,5.4,1.2,8.9,1.2c1.1,0,2.2-0.1,3.2-0.2c-0.3-1.1-0.5-2.1-0.6-2.8
			c0-0.1-0.1-0.3-0.1-0.4c-0.1-0.5-0.2-0.9-0.3-1.4C218.1,422.9,217.5,422.9,216.8,422.9z"/>
		<path fill="#EC2890" d="M156.4,401.6c2.5,1.1,5.8,1.6,9.8,1.6c0.5,0,0.9,0,1.3-0.1c-0.1-1.1-0.2-2.1-0.2-3.1c-0.3,0-0.6,0-0.9,0
			c-4.1,0-7.5-0.5-10.3-1.6C156.2,399.5,156.3,400.6,156.4,401.6z"/>
		<path fill="#FDEA00" d="M156.7,406.8c2.5,0.9,5.6,1.4,9.4,1.4c0.7,0,1.4,0,2-0.1c-0.2-1.3-0.4-2.5-0.5-3.6
			c-0.4,0.1-0.8,0.1-1.2,0.1c-3.9,0-7.2-0.5-10-1.5C156.6,404.5,156.7,405.7,156.7,406.8z"/>
		<path fill="#FDCF9D" d="M163,398.5c-1.6-0.3-3.2-0.5-4.8-0.8C159.6,398.1,161.2,398.4,163,398.5z"/>
		<path fill="#FFFFFF" d="M166.4,409.6c-3.7,0-6.9-0.5-9.6-1.3c0.1,1.2,0.1,1.9,0.1,2.3c0,1.1,0,1.8,0,2.2l0.2,0c0,0,0,0.1,0.1,0.1
			c0,0,0.1,0.1,0.1,0.2c2.4,0.8,5.4,1.2,8.9,1.2c1.1,0,2.2-0.1,3.2-0.2c-0.3-1.3-0.5-2.4-0.7-3.2c-0.1-0.5-0.2-0.9-0.3-1.4
			C167.7,409.5,167.1,409.6,166.4,409.6z"/>
		<path fill="#A46728" d="M156.3,414.1c-0.5,0.2-1.1,0.4-2,0.5c1.4,1.5,2.1,2.3,2.1,2.4c0,0.2,0,0.4-0.1,0.4c-0.1,0-0.1,0-0.1,0
			c-0.1,0-0.1,0.1-0.1,0.2c-0.1,0.1-0.3,0.1-0.5,0.1c-0.5,0-1.6-1-3.3-2.8c-0.8,0.1-1.5,0.1-2.2,0.2c1.5,1.9,2.2,2.9,2.2,2.9
			c0,0.1,0,0.3-0.1,0.6c0.1,0.1-0.2,0.2-0.6,0.2c-0.7,0-1.8-1.2-3.2-3.6c-0.8,0-1.5,0.1-2.1,0.2c0,0.1,0.1,0.1,0.1,0.2
			c1.5,1.6,2.3,2.7,2.6,3.2c0,0.2-0.2,0.3-0.6,0.3c-0.6,0-1.8-1.2-3.7-3.6c-0.8,0.1-1.6,0.1-2.2,0.2c-4.4,0.5-7.7,1.2-10.1,2.4
			c-3,1.5-4.6,3.7-4.6,6.6c0,1.9,0.8,3.1,2.4,3.5c0.6,0.1,1.3,0.2,2.1,0.2c0.5,0,1.1,0,2-0.1c3.2,0,8.6-0.5,16.3-1.4
			c8.5-1,14.2-2,17.1-3c1-0.4,1.7-1.3,2-2.8c0.1-0.6,0.2-1.7,0.2-3.5c0-0.2-0.1-0.9-0.4-2.1c-1.1,0.2-2.2,0.3-3.3,0.3
			C162.4,415.6,159,415.1,156.3,414.1z"/>
		<g>
			<path fill="none" d="M238.1,103.3v0.8c0.2,0,0.4,0.1,0.6,0.3c0.4-0.3,0.6-0.4,0.7-0.5c0-0.1,0.1-0.2,0.2-0.4
				C239.5,103.4,239,103.4,238.1,103.3z"/>
			<path d="M207.3,81C207.3,81,207.3,81,207.3,81C207.3,81,207.3,81,207.3,81z"/>
			<path d="M240.8,102.5c-0.3-0.5-0.9-0.7-1.9-0.7v-0.2c0.3-0.5,0.7-0.9,1.2-1.2c0.4-0.2,0.5-0.5,0.5-0.9c0-0.3-0.1-0.5-0.1-0.5
				c-0.1,0-0.2-0.1-0.5-0.2c-1.2,0.6-2,1.3-2.5,2.1c-0.4,0.7-0.6,1.5-0.6,2.5c-0.1,0.4-0.1,0.8,0.1,1.1c0.3,0.7,0.9,1.1,2.1,1.1
				c1.3,0,1.9-0.8,1.9-2.3C240.9,102.9,240.8,102.6,240.8,102.5z M239.4,103.9c-0.1,0-0.3,0.2-0.7,0.5c-0.2-0.2-0.4-0.3-0.6-0.3
				v-0.8c0.9,0.1,1.4,0.2,1.4,0.3C239.5,103.7,239.4,103.8,239.4,103.9z"/>
			<path d="M225,110.5c0.5,0.2,1,0.4,1.5,0.6c1.3,0.5,2.4,0.9,3.3,1.2c0-0.3,0.1-0.6,0.1-1c0-0.2,0.1-0.3,0.1-0.5
				c-1.9-0.7-3.4-1.2-4.6-1.6C225.2,109.7,225.1,110.1,225,110.5z"/>
			<path d="M224.5,112c-0.1,0.3-0.2,0.6-0.3,0.8c0.6,0.2,1.2,0.5,2,0.8c1.2,0.5,2.2,0.8,3.1,1.1c0.1-0.2,0.1-0.4,0.2-0.6
				c0.1-0.1,0.1-0.4,0.2-0.8c-2.1-0.7-3.8-1.3-5-1.7C224.6,111.8,224.5,111.9,224.5,112z"/>
			<path d="M225.8,107.4c0.4,0.1,0.7,0.3,1.1,0.4c1.2,0.5,2.3,0.9,3.2,1.1c0.1-0.5,0.2-1,0.3-1.4c-1.7-0.6-3.1-1.1-4.3-1.5
				C226,106.5,225.9,106.9,225.8,107.4z"/>
			<path d="M188.5,90.2c0-0.2-0.2-0.5-0.6-0.9c-2,7-3.2,11.2-3.4,12.5c0,0.5-0.5,2.7-1.4,6.5c-0.9,3.8-1.4,5.9-1.4,6.4
				c-0.1,0.1-0.1,0.2-0.1,0.3c0,0.2,0,0.5,0.2,0.8c0.2,0.3,0.9,0.4,2.1,0.3c1.2-0.2,2.9-0.3,5-0.5c2.1-0.2,3.1-0.4,3.1-0.7
				c0-0.4-0.6-0.6-1.8-0.6c-2.7,0.3-5.2,0.5-7.3,0.7c0.9-3.3,2-8,3.4-14.4C187.8,94.2,188.5,90.7,188.5,90.2z"/>
			<path d="M215.2,125.8c-0.4,0.2-0.8,0.4-1.2,0.6c-6.5,3.3-13.3,4.6-20.5,4c-0.8-0.1-1.5-0.2-2.2-0.3c-3.8-0.4-7.4-1.5-10.8-3.1
				l-0.1,0.6c3.7,2.5,7.9,4,12.6,4.5c8.2,0.8,15.8-1,22.9-5.5l-0.1-0.6L215.2,125.8z"/>
			<path d="M159.4,239.9c-0.7,0-1.3,0.3-1.7,0.8c-0.3,0.5-0.5,0.9-0.5,1.4c0,0.2,0,0.3,0,0.4c0,0.3,0.1,0.5,0.2,0.8
				c0.4,0.7,1,1.1,1.9,1.1c0.8,0,1.3-0.3,1.7-0.8c0.3-0.4,0.5-0.9,0.5-1.3c0-0.4-0.1-0.8-0.3-1.1
				C160.9,240.3,160.3,239.9,159.4,239.9z M160,243.2c-0.3,0.3-0.7,0.5-1.1,0.5c-0.7,0-1.1-0.3-1.4-0.8c-0.2-0.3-0.2-0.6-0.2-0.9
				c0-0.4,0.2-0.7,0.4-1c0.3-0.4,0.7-0.5,1.1-0.5c1,0,1.5,0.5,1.6,1.6C160.5,242.5,160.3,242.9,160,243.2z"/>
			<path fill="#F186B6" d="M158.9,240.6c-0.4,0-0.8,0.2-1.1,0.5c-0.3,0.3-0.4,0.7-0.4,1c0,0.3,0.1,0.6,0.2,0.9
				c0.3,0.5,0.7,0.8,1.4,0.8c0.5,0,0.8-0.2,1.1-0.5c0.3-0.3,0.5-0.7,0.5-1.1C160.3,241.1,159.8,240.6,158.9,240.6z"/>
			<path d="M156.1,256.5c-0.7,0-1.3,0.3-1.7,0.8c-0.3,0.4-0.5,0.9-0.5,1.4c0,0.1,0,0.3,0,0.4c0,0.3,0.1,0.5,0.2,0.8
				c0.4,0.7,1,1,1.9,1c0.7,0,1.3-0.3,1.7-0.8c0.3-0.4,0.5-0.9,0.5-1.3c0-0.4-0.1-0.8-0.3-1.2C157.6,256.9,157,256.5,156.1,256.5z
				 M156.8,259.6c-0.3,0.3-0.7,0.5-1.2,0.5c-0.7,0-1.1-0.3-1.4-0.8c-0.1-0.3-0.2-0.5-0.2-0.9c0-0.4,0.2-0.7,0.4-1
				c0.3-0.4,0.7-0.5,1.1-0.5c1,0,1.5,0.5,1.6,1.6C157.2,258.9,157,259.3,156.8,259.6z"/>
			<path fill="#F186B6" d="M155.6,256.9c-0.4,0-0.8,0.2-1.1,0.5c-0.3,0.3-0.4,0.7-0.4,1c0,0.3,0.1,0.6,0.2,0.9
				c0.3,0.5,0.7,0.8,1.4,0.8c0.5,0,0.8-0.2,1.2-0.5c0.3-0.3,0.4-0.7,0.4-1.1C157.1,257.5,156.6,256.9,155.6,256.9z"/>
			<path d="M154.8,274.7c-0.7,0-1.3,0.3-1.7,0.8c-0.3,0.4-0.5,0.9-0.5,1.4c0,0.2,0,0.3,0,0.4c0,0.3,0.1,0.5,0.2,0.8
				c0.4,0.7,1,1,1.9,1c0.7,0,1.3-0.3,1.7-0.8c0.3-0.4,0.5-0.9,0.5-1.3c0-0.4-0.1-0.8-0.3-1.2C156.4,275,155.7,274.7,154.8,274.7z
				 M155.5,277.9c-0.3,0.4-0.7,0.5-1.1,0.5c-0.7,0-1.1-0.3-1.4-0.7c-0.2-0.3-0.2-0.6-0.2-0.9c0-0.4,0.2-0.7,0.4-1
				c0.3-0.4,0.7-0.5,1.1-0.5c1,0,1.5,0.6,1.6,1.6C155.9,277.3,155.8,277.6,155.5,277.9z"/>
			<path fill="#F186B6" d="M154.3,275.3c-0.4,0-0.8,0.2-1.1,0.5c-0.3,0.3-0.4,0.7-0.4,1c0,0.3,0.1,0.6,0.2,0.9
				c0.3,0.5,0.7,0.7,1.4,0.7c0.5,0,0.8-0.2,1.1-0.5c0.3-0.3,0.5-0.7,0.5-1C155.8,275.8,155.3,275.3,154.3,275.3z"/>
			<path d="M192.2,83C192.2,83,192.2,83,192.2,83c-0.1,0.2-0.1,0.2-0.1,0.3c-0.1,0.3-0.2,0.6-0.2,0.9c-0.1,0.5-0.2,1.1-0.2,1.6
				c0,0.2,0,0.4,0,0.6c0.1,0.7,0.2,1.4,0.4,2.1c0.1,0.3,0.2,0.5,0.3,0.8c0.1,0.2,0.2,0.4,0.3,0.6c0.1,0.2,0.2,0.4,0.3,0.6
				c1.2,1.9,2.8,3,4.9,3.4c0.2,0,0.4,0.1,0.6,0.1c1.4,0.2,2.7-0.1,4-0.7c0.4-0.2,0.9-0.5,1.3-0.8c0.2-0.1,0.3-0.3,0.5-0.4
				c1-0.8,1.7-1.7,2.2-2.8c0.1-0.2,0.2-0.4,0.3-0.6c0.2-0.5,0.3-1,0.4-1.5c0.1-0.3,0.1-0.5,0.1-0.8c0-0.2,0-0.4,0.1-0.6
				c0-0.8-0.1-1.5-0.2-2.2c0-0.1,0-0.1-0.1-0.2c0-0.1,0-0.1,0-0.1c-0.1-0.1-0.1-0.2-0.1-0.3c-0.1-0.2-0.1-0.3-0.2-0.5
				c-0.2-0.5-0.4-1-0.7-1.4c-0.3-0.5-0.6-0.9-1-1.3c-0.4-0.4-0.8-0.7-1.2-1c-0.8-0.6-1.8-1-2.8-1.2c-0.4-0.1-0.8-0.1-1.2-0.2
				c-0.4,0-0.7,0-1.1,0c0,0-0.1,0-0.1,0c-0.3,0-0.5,0.1-0.8,0.1c-1,0.2-1.9,0.6-2.8,1.3c-0.4,0.3-0.7,0.6-1,0.9
				c-0.5,0.4-0.9,0.9-1.2,1.5C192.7,81.8,192.5,82.4,192.2,83z M193.2,83c0.5-1.3,1.2-2.3,2.3-3.2c0.1-0.1,0.2-0.2,0.3-0.2
				c1.6-1.1,3.3-1.4,5.1-1c1.1,0.3,2,0.7,2.8,1.3c0.6,0.5,1.2,1,1.6,1.7c0.3,0.5,0.6,0.9,0.8,1.4c0,0.1,0.1,0.2,0.1,0.3
				c0.3,0.8,0.4,1.6,0.3,2.5c0,0.2,0,0.4-0.1,0.6c0,0.2-0.1,0.3-0.1,0.5c-0.2,0.9-0.5,1.6-0.8,2.3c-0.5,1-1.2,1.8-2.2,2.5
				c-0.1,0-0.1,0.1-0.2,0.1c-1.5,1.1-3.2,1.4-5,1.1c-1.8-0.4-3.2-1.3-4.2-2.9c-0.1-0.1-0.1-0.2-0.1-0.2c-0.1-0.2-0.3-0.4-0.3-0.6
				c-0.5-0.9-0.7-1.8-0.8-2.8c0-0.2,0-0.4,0-0.6c0-0.5,0.1-1,0.2-1.5c0.1-0.4,0.2-0.7,0.3-1C193.1,83.2,193.2,83.1,193.2,83z"/>
			<path fill="#FFFFFF" d="M192.7,85.8c0,0.2,0,0.4,0,0.6c0.1,1,0.3,1.9,0.8,2.8c0.1,0.2,0.2,0.4,0.3,0.6c0,0.1,0.1,0.1,0.1,0.2
				c1,1.6,2.4,2.5,4.2,2.9c1.8,0.4,3.5,0,5-1.1c0.1-0.1,0.2-0.1,0.2-0.1c0.9-0.7,1.6-1.5,2.2-2.5c0.4-0.7,0.7-1.5,0.8-2.3
				c0-0.2,0.1-0.3,0.1-0.5c0-0.2,0.1-0.4,0.1-0.6c0.1-0.9,0-1.7-0.3-2.5c0-0.1-0.1-0.2-0.1-0.3c-0.2-0.5-0.4-1-0.8-1.4
				c-0.5-0.7-1-1.3-1.6-1.7c-0.8-0.6-1.7-1-2.8-1.3c-1.8-0.4-3.6-0.1-5.1,1c-0.1,0.1-0.2,0.2-0.3,0.2c-1.1,0.8-1.8,1.9-2.3,3.2
				c0,0.1-0.1,0.2-0.1,0.3c-0.1,0.3-0.2,0.6-0.3,1C192.7,84.8,192.7,85.3,192.7,85.8z M193.7,86.4c0.2,0.3,0.4,0.4,0.7,0.2
				c0.2-0.1,0.3-0.3,0.3-0.5c0-0.1,0-0.2-0.1-0.3c-0.2-0.3-0.4-0.4-0.8-0.2c-0.1,0-0.1,0.1-0.1,0.1c0.1-0.2,0.3-0.4,0.6-0.5
				c0.8-0.5,1.4-0.3,1.8,0.5c0.1,0.2,0.2,0.5,0.2,0.7c0,0.5-0.2,0.8-0.7,1.1c-0.4,0.2-0.7,0.2-1.1,0.1c-0.3-0.1-0.6-0.3-0.7-0.6
				c-0.2-0.3-0.2-0.6-0.2-0.8C193.7,86.3,193.7,86.4,193.7,86.4z"/>
			<path d="M194.5,87.6c0.4,0.1,0.7,0.1,1.1-0.1c0.5-0.3,0.7-0.6,0.7-1.1c0-0.2-0.1-0.5-0.2-0.7c-0.4-0.8-1-0.9-1.8-0.5
				c-0.3,0.2-0.5,0.3-0.6,0.5c0,0,0.1-0.1,0.1-0.1c0.3-0.2,0.6-0.1,0.8,0.2c0.1,0.1,0.1,0.2,0.1,0.3c0,0.2-0.1,0.4-0.3,0.5
				c-0.3,0.2-0.5,0.1-0.7-0.2c0-0.1-0.1-0.1-0.1-0.2c0,0.2,0.1,0.5,0.2,0.8C194,87.3,194.2,87.5,194.5,87.6z"/>
			<path d="M185,89.5c0.4-0.3,0.8-0.6,1.2-1c0.2-0.2,0.4-0.4,0.5-0.7c0.1-0.2,0.2-0.4,0.3-0.5c0,0,0,0,0,0c0.3-0.5,0.5-1.1,0.6-1.8
				c0,0,0,0,0,0c0.2-0.9,0.2-1.7,0-2.4v0c-0.2-0.8-0.5-1.5-1-2.2c-0.5-0.7-1.1-1.3-1.7-1.7c-0.3-0.2-0.7-0.4-1.1-0.6
				c-0.4-0.2-0.8-0.3-1.2-0.4c-0.4-0.1-0.8-0.1-1.2-0.1c-1.2,0-2.4,0.4-3.5,1.1c-0.2,0.1-0.3,0.2-0.5,0.4c-0.5,0.4-0.9,0.8-1.2,1.3
				c-0.4,0.6-0.7,1.4-0.9,2.2c0,0,0,0,0,0c0,0,0,0,0,0c-0.1,0.7-0.2,1.3-0.1,1.9c0.1,0.5,0.2,0.9,0.3,1.4c0.2,0.5,0.4,0.9,0.7,1.3
				c0.1,0.1,0.2,0.3,0.3,0.4c0,0,0,0.1,0.1,0.1h0c0.2,0.3,0.5,0.6,0.7,0.8c0.8,0.7,1.8,1.2,2.9,1.4c0.2,0.1,0.4,0.1,0.6,0.1
				c0.2,0,0.4,0,0.6,0c0.9,0,1.8-0.2,2.6-0.6C184.5,89.8,184.8,89.6,185,89.5z M180.5,89.9c-0.7-0.2-1.3-0.4-1.8-0.7
				c-0.7-0.4-1.3-1-1.8-1.7c0,0,0-0.1-0.1-0.1c-0.5-0.8-0.8-1.5-0.9-2.3c-0.1-0.6-0.1-1.2,0.1-1.9c0.3-1.5,1.1-2.7,2.4-3.6
				c1.3-0.9,2.7-1.2,4.2-0.9c1.5,0.3,2.7,1.1,3.6,2.4c0.9,1.3,1.2,2.7,0.9,4.2c-0.1,0.7-0.3,1.3-0.7,1.8c-0.4,0.7-1,1.3-1.7,1.8
				C183.4,89.9,182,90.2,180.5,89.9z"/>
			<path fill="#FFFFFF" d="M186.4,87.2c0.3-0.6,0.5-1.1,0.7-1.8c0.3-1.5,0-2.9-0.9-4.2c-0.9-1.3-2.1-2.1-3.6-2.4
				c-1.5-0.3-2.9,0-4.2,0.9c-1.3,0.9-2.1,2.1-2.4,3.6c-0.1,0.7-0.2,1.3-0.1,1.9c0.1,0.8,0.4,1.6,0.9,2.3c0,0,0,0,0.1,0.1
				c0.5,0.7,1.1,1.3,1.8,1.7c0.5,0.3,1.2,0.5,1.8,0.7c1.5,0.3,2.9,0,4.2-0.9C185.5,88.5,186,87.9,186.4,87.2z M178.5,86.2
				c-0.4,0.2-0.7,0.2-1.1,0.1c-0.3-0.1-0.6-0.3-0.7-0.6c-0.2-0.3-0.2-0.6-0.2-0.8c0,0.1,0,0.1,0.1,0.2c0.2,0.3,0.4,0.4,0.7,0.2
				c0.2-0.1,0.3-0.3,0.3-0.5c0-0.1-0.1-0.2-0.1-0.3c-0.2-0.3-0.4-0.4-0.8-0.2c-0.1,0-0.1,0.1-0.1,0.1c0.1-0.2,0.3-0.4,0.6-0.6
				c0.8-0.4,1.4-0.3,1.8,0.5c0.1,0.2,0.2,0.4,0.2,0.7C179.2,85.5,179,85.9,178.5,86.2z"/>
			<path d="M177.2,83.9c-0.3,0.2-0.5,0.4-0.6,0.6c0,0,0.1-0.1,0.1-0.1c0.3-0.2,0.6-0.1,0.8,0.2c0.1,0.1,0.1,0.2,0.1,0.3
				c0,0.2-0.1,0.4-0.3,0.5c-0.3,0.2-0.5,0.1-0.7-0.2c0-0.1-0.1-0.1-0.1-0.2c0,0.3,0.1,0.5,0.2,0.8c0.1,0.3,0.4,0.4,0.7,0.6
				c0.4,0.2,0.7,0.1,1.1-0.1c0.5-0.3,0.7-0.6,0.7-1.1c0-0.3-0.1-0.5-0.2-0.7C178.6,83.6,178,83.5,177.2,83.9z"/>
		</g>
		<path fill="none" d="M207.3,311c0,0,0.1,0,0.1,0L207.3,311C207.4,311,207.4,311,207.3,311z"/>
		<path fill="#EC2890" stroke="#000000" stroke-miterlimit="10" d="M222.9,223.8c-1.2,7-3.3,15.8-6.1,26.5
			c-2.8,10.8-6,21.6-9.4,32.6c-0.2,0.7-3.5,7.8-3.7,8.5c3.1,1,7.4,1.8,10.5,3.5c0.6-1.7,3.1-9.6,3.8-11.6
			c6.1-18.5,10-31.4,11.7-38.5c3.2-13,5.6-25,7.3-36.1c1-6.7,1.4-12.1,1.3-16.4c-3.8,3.6-8.2,6.6-13,9
			C224.8,209.9,224,217.4,222.9,223.8z"/>
		<path fill="#FDCF9D" stroke="#000000" stroke-width="0.5" stroke-miterlimit="10" d="M204,291.5c-2.7,2.7-10.3,9.2-11.1,10
			c-1.2,1.2-1.7,2.1-1.6,2.9c0.1,0.4,0.2,0.7,0.6,0.8c0.1,0.1,0.5,0.1,1.3,0c1.2-0.1,2.1-0.2,2.7-0.3c2.7-0.1,3-3.3,0.6,1.1
			c-2.5,4.4,0.4,6.1,2.2,5.5c2.8-0.9,2.1,1.6,5.1,1.1c1.8-0.3,4.2-2.2,6.3-0.6c1.7,1.3,6.1,1.9,5.7-2.3c-0.1-1.3-0.5-3.1-1.1-5.4
			c-0.7-2.4-1.1-5.1-1.3-8c0-0.7,0-1.4-0.1-2.1c-2.8-1.5-5.6-2.6-8.4-3.5C204.6,291,204.3,291.2,204,291.5z"/>
		<path fill="#C272AD" d="M222.9,221.8c-1.2,7-2.3,15.8-5.1,26.5c-2.8,10.8-6,21.6-9.4,32.6c-0.2,0.7-4.1,8.6-4.3,9.3
			c3.1,1,7,2.8,10.1,4.5c0.6-1.7,3.1-11.4,3.8-13.4c6.1-18.5,10-31.4,11.7-38.5c3.2-13,5.6-25,7.3-36.1c1-6.7,1.4-12.1,1.3-16.4
			c-3.8,3.6-8.2,6.6-13,9C224.8,207.8,224,215.4,222.9,221.8z"/>
	</g>
</g>
<g id="Layer_16">
</g>
<g id="Layer_17">
</g>
<g id="Layer_18">
</g>
<g id="Layer_19">
</g>
<g id="Layer_20">
</g>
<g id="Layer_21">
</g>
<g id="Layer_22">
</g>
<g id="Layer_23">
</g>
<g id="Layer_24">
</g>
<g id="Layer_25">
</g>
<g id="Layer_26">
</g>
<g id="Layer_27">
</g>
<g id="Layer_28">
</g>
<g id="Layer_29">
</g>
<g id="Layer_30">
</g>
<g id="Layer_31">
</g>
<g id="Layer_32">
</g>
<g id="Layer_33">
</g>
<g id="Layer_34">
</g>
<g id="Layer_36">
</g>
<g id="Layer_35">
</g>
<g id="Layer_37">
</g>
<g id="Layer_38">
</g>
<g id="Layer_39">
</g>
<g id="Layer_40">
</g>
</svg>
