<?xml version="1.0" encoding="utf-8"?>
<!-- Generator: Adobe Illustrator 18.1.1, SVG Export Plug-In . SVG Version: 6.00 Build 0)  -->
<!DOCTYPE svg PUBLIC "-//W3C//DTD SVG 1.1//EN" "http://www.w3.org/Graphics/SVG/1.1/DTD/svg11.dtd">
<svg version="1.1" xmlns="http://www.w3.org/2000/svg" xmlns:xlink="http://www.w3.org/1999/xlink" x="0px" y="0px"
	 viewBox="0 0 393 483" enable-background="new 0 0 393 483" xml:space="preserve">
<g id="ziutek_x5F_01">
</g>
<g id="ziutek_x5F_02">
</g>
<g id="ziutek_x5F_03">
</g>
<g id="ziutek_x5F_04">
</g>
<g id="ziutek_x5F_05">
</g>
<g id="ziutek_x5F_06">
	<g>
		<path fill="none" d="M141.5,152.5L141.5,152.5C141.5,152.5,141.6,152.5,141.5,152.5L141.5,152.5z"/>
		<path fill="none" d="M74.8,263.1L74.8,263.1C74.8,263.1,74.7,263.1,74.8,263.1L74.8,263.1z"/>
		<path fill="none" d="M248.2,295.6l0,0.2C248.2,295.7,248.2,295.6,248.2,295.6z"/>
		<path fill="none" d="M216.7,442.6c0,0.1,0.1,0.1,0.1,0.2L216.7,442.6C216.7,442.6,216.7,442.6,216.7,442.6z"/>
		<path fill="none" d="M207.3,471c0-0.1-0.1-0.1-0.1-0.2L207.3,471C207.2,471,207.2,471,207.3,471z"/>
		<path fill="none" d="M67.4,231.4c-3.4,0-6,1.3-7.9,4.1c0.8,0.3,1.5,0.8,2,1.3c0.1,0.1,0.3,0.3,0.4,0.4c0.1-1,1.2-1.5,3.2-1.5
			c2,0,3.1,0.8,3.3,2.4c0.2,1.6,0.3,2.7,0.3,3.5c-0.1,0.7-0.1,1.7-0.1,2.8c0,1.1-0.3,2.5-0.9,4.4c-0.6,1.8-1.5,2.7-2.8,2.8
			c-1.3,0.1-2.2-0.1-2.6-0.6c-0.3,0.3-0.7,0.6-1.1,0.7c0.4,0.3,0.7,0.6,1,1c0.5,0.7,0.7,1.3,0.7,1.8c0,0.7-0.2,1.2-0.7,1.8
			c-0.3,0.3-0.7,0.6-1.1,0.8c0.1,0.1,0.2,0.2,0.2,0.4c0.4,0.7,0.6,1.3,0.6,1.8c0,1.2-0.4,2.2-1.2,2.8c-0.7,0.5-1.5,0.9-2.7,1.2
			c1.5,1.6,3.8,2.4,6.8,2.4c3.9,0,7-1.3,9.2-3.8c0.3-0.3,0.5-0.6,0.8-0.9l-0.1-27.9C72.1,231.9,69.6,231.4,67.4,231.4z"/>
		<path fill="none" d="M96.7,226.8v0.3c0.1-0.1,0.1-0.2,0.2-0.3H96.7z"/>
		<path fill="none" d="M203.2,467.4c0-0.1,0.1-0.1,0.1-0.2l-0.1,0.1C203.2,467.3,203.2,467.4,203.2,467.4z"/>
		<path fill="none" d="M260.6,34.9c0,0.1,0,0.1,0,0.2l0.1-0.1C260.7,35,260.6,34.9,260.6,34.9z"/>
		<path fill="none" d="M163.1,176.1c-0.1,0-0.2,0-0.2-0.1L163.1,176.1C163.1,176.1,163.1,176.1,163.1,176.1z"/>
		<path fill="none" d="M245.2,45.4c0.1,0.1,0.1,0.1,0.2,0.1l0.1-0.1C245.4,45.4,245.3,45.4,245.2,45.4z"/>
		<path d="M351.7,287.2c0-2.2-1.2-6.9-3.6-14.3c-2.4-7.4-5.9-11.4-10.3-12c-4.5-0.6-7.2-0.3-8.3,0.8c-1,1.1-1.5,2.7-1.4,4.8
			c0.1,2-0.1,3.8-0.7,5.3c-0.6,1.5-1,2.8-1.4,4c-0.1,0.3-0.3,0.8-0.6,1.4c-0.8,0-1.5-0.1-2.3-0.1c0,0-0.1,0-0.1,0
			c-0.2-0.1-0.4-0.1-0.6-0.2c-0.2,0-0.4,0.1-0.6,0.1c-0.1,0.7-0.2,1.4-0.3,2c-0.7,4.1-1.8,8-3.3,11.9c-0.6,1.6-1.5,4.1-2.8,7.6
			c-1.3,3.5-2.8,7.1-4.5,10.8c-1.7,3.7-3.4,6.9-5.1,9.6c-1.7,2.7-3.5,4.9-5.3,6.7c-0.6,0.6-1.3,1.1-1.9,1.7c-0.5,0.4-1,0.8-1.5,1.1
			c-1,0.7-2,1.2-3,1.5c-1,0.4-3,0.8-6.1,1.2c-3,0.4-9.8,0.6-20.4,0.4c-10.5-0.2-19.1-1.2-25.8-2.9c-0.3-0.1-0.6-0.2-0.9-0.2
			c3.1-0.9,6.2-2.4,9.2-4.6c5.5-3.9,10-8.8,13.6-14.8c3.5-5.9,5.9-12.3,7.2-19.2c0.2-1.1,0.4-2.2,0.5-3.3c0.4,0.1,0.9,0.2,1.4,0.2
			c0.8,0.1,1.4,0.1,1.8,0.1c0.4-0.1,0.9-0.2,1.3-0.3c0.4-0.2,0.7-0.7,1-1.4c0.2-0.8-0.2-1.7-1.3-2.6c-1-0.8-1.9-1.4-2.6-1.7
			c1-1,1.6-3.8,1.8-8.2c0.2-4.7,0.3-9.3,0.2-13.8c-0.1-4.6-0.8-10.7-2.1-18.6c-1.3-7.9-3.3-15.6-5.9-23.2
			c-2.6-7.7-5.1-13.8-7.4-18.5c-2.3-4.7-5.1-9.6-8.4-14.6c-1.1-1.7-2.4-3.4-3.7-5.1c5.1-4.8,9.8-10,14.1-15.6
			c5.3-6.8,9.7-14.2,13.4-22c3.7-7.8,6.2-15.9,7.6-24.4c1.3-8.4,1.6-16.9,0.7-25.4c-0.9-8.4-2.6-16.7-5.3-24.8
			c-2.7-8.1-6.2-16.1-10.7-24c-2.4-4.3-5.1-8.2-8-11.6c0,0.1-0.1,0.1-0.1,0.2c-1-0.8-2.4-1.1-4.2-1.1c-0.8,0-1.7,0.1-2.6,0.3
			c-2.3-2.8-3.8-5.1-4.7-7.1c-1.2-2.2-2.4-4.2-3.6-5.8c-3.5-4.9-7-7.4-10.4-7.4c-1.3,0-2,0.3-2.3,0.8c-0.3,0-0.6-0.1-0.9-0.1
			c-1.9,0-3.2,0.4-3.9,1.1c-0.3,0.3-0.5,0.9-0.6,1.5c-1.2,0.2-2.3,0.6-3.4,1.1c-0.7,0.3-1.2,0.8-1.6,1.4c-0.1,0.8-0.1,1.4,0.1,1.8
			c-0.5,0.7-0.8,1.6-0.6,2.6c0.2,1.5,0.9,2.4,2.2,2.5c1.3,0.2,2.8,0.3,4.5,0.6c1.7,0.2,2.9,0.7,3.8,1.4c0.4,0.3,0.6,0.7,0.8,1
			c-0.8,0.7-1.5,1.5-2.1,2.7c-0.7,1.5-1.1,3-1.1,4.5c0,2.3,1,3.8,2.9,4.6c1.2,0.5,3.3,0.8,6.4,0.9c1.1,0,2.1,0.2,3.1,0.4
			c-0.2,0.8-0.3,1.5-0.3,2.2c-0.2,0.8-0.2,1.4,0.2,2.1c0.1,0.3,0.3,0.5,0.5,0.7c0,0.1,0,0.2,0,0.2c1.3,0.9,2.7,1.9,3.9,3
			c7.9,6.6,13.4,15,16.5,25.4c3.1,10.3,4.5,20.7,4.3,31.2c-0.2,9.8-2.2,19.3-5.9,28.4c-3.9,9.6-9.4,18.1-16.5,25.6
			c-2.7,2.9-5.6,5.7-8.7,8.3c-4.2-3.4-9-5.9-14.3-7.3c2.7-4.2,4.8-9.4,6.4-15.5c1.8-6.5,3-14,3.8-22.6c0.2-1.9,0.3-3.8,0.5-5.7
			c0.4-6.5,0.6-12.6,0.5-18.3c-0.2-7.4-0.9-14-2.3-19.8c-0.6-2.4-1.3-4.7-2.1-6.9c-1.2-3.2-2.8-6.3-4.8-9.1
			c-1.2-1.7-2.4-3.4-3.8-4.9c-0.9-1-1.9-2-2.9-2.9c-2.4-2.2-5.1-3.9-8.1-5.2c-3.1-1.4-6.3-2.5-9.6-3.4c-3.3-0.8-6.6-1.4-10-1.7
			c-2.9-0.2-5.8-0.3-8.7-0.2c-3,0.1-6,0.4-9,0.9c-2.4,0.3-4.8,0.8-7.1,1.2c-2.3,0.5-4.7,1.1-7,1.7c-3.2,0.9-6.3,1.9-9.4,2.9
			c-3.2,1.1-6.2,2.4-9.2,3.9c-1.7,0.8-3.3,1.8-4.9,2.8c-1.3,0.8-2.5,1.7-3.7,2.6c-2.3,1.8-4.5,3.6-6.6,5.5c-0.3,0.3-0.6,0.5-0.8,0.7
			c1.6-1,2.9-1.7,4-2.1c-0.1,0-0.1,0.1-0.1,0.1c0.1-0.1,0.2-0.1,0.3-0.2c0,0,0.1,0,0.1-0.1c0,0,0.1,0,0.1-0.1
			c1.4-0.8,3.2-1.7,5.1-2.7c4.8-2.3,10.5-3.6,17.3-4c0.2,0,0.5,0,0.7,0l0,0c-8.6,6.1-12.9,10-12.9,11.8c0,0.3,0,0.4,0,0.4l0-0.1
			c0.2,0.2,0.6,0.1,1.2-0.2c0.6-0.4,2.7-1.3,6.2-2.7c3.6-1.4,5.7-2.2,6.3-2.4c0.6-0.2,1.2-0.4,1.8-0.6c-0.2,0.2-0.4,0.4-0.6,0.6
			c-2.3,2.2-4.2,4.7-5.9,7.3c-1.6,2.4-4.9,9.1-5,9.2c-0.5,0.2-1,0.5-1.5,0.9c-1.6,1.2-2.6,2.8-2.9,4.9c-0.3,1.8,0,3.5,0.8,5
			c0,0.2-0.8,4-0.9,5.2c-0.5,3.2-0.7,6.5-0.7,9.8c0,3.3,0.3,6.6,0.7,9.9c0,0.1,0,0.2,0,0.2c0.1,0.6,0.2,1.3,0.3,1.9
			c-1.3,0.3-2.4,0.7-3.2,1.2c-1.2,0.7-1.7,1.6-1.7,2.6c-0.1,0.4,0.1,0.8,0.3,1.1c0.5,0.7,1.5,1,3.1,1c2.1-0.1,3.9-0.2,5.5-0.3
			c0.4,1,0.8,2.1,1.3,3.4c-0.1,0-0.2,0-0.2,0c0.2,0.4,0.4,0.9,0.5,1.3c1-0.2,2-0.4,3-0.5c2.1-0.3,5.5-0.4,10.2-0.4
			c8.1,0,14.4,0.9,18.9,2.6c1.3,1.4,2.1,3,2.5,4.9c0.1,0.7,0.2,1.6,0.3,2.8c-2.9-0.4-6-0.7-9.2-0.7c-8,0-13.2,0.9-15.7,2.8
			c-0.9,0.7-1.5,1.4-1.7,2.4c-0.1,0.4-0.2,1.1-0.2,2.1c0,2.7,1.7,4.5,5.3,5.4c2,0.5,5.9,0.8,11.6,0.9c2.4,0.1,4.4,0.2,6.1,0.3
			c-0.6,0.7-1.2,1.3-1.8,1.8c-2.5,0.5-5.4,0.8-8.6,0.8c-2.9,0-5.6-0.4-8.1-1.1c-1.1-0.3-3.1-1.1-6.3-2.3c-0.5-0.2-1.1-0.4-1.6-0.6
			c-0.2-0.1-0.3-0.2-0.4-0.3c0,0,0,0.1-0.1,0.1c-1.5-0.5-2.9-0.9-4.3-1.3c-0.1,0.1-0.1,0.3-0.1,0.4c-0.1,0-0.1-0.1-0.2-0.1
			c-0.7,2.2-1,3.8-1,5c-2.9,0.1-5,0.7-6,1.7c-0.7,0.6-1,1.6-1,2.9c0,0.8,0.2,1.4,0.5,1.9c0.8,0.9,2.4,1.4,4.9,1.4
			c0.8,0,1.4-0.1,1.7-0.2c0,0,0.1,0,0.1-0.1c0.7,1.5,1.4,2.9,2.4,4.3c1.7,2.4,3.7,4.3,6.1,5.9c-0.2,0.9-0.4,1.8-0.6,2.7
			c-0.9,1.3-1.8,2.6-2.7,3.9c-2.6,0-5.1,0.1-7.7,0.1c-3.3,0.2-6.6,0.6-10,1.1c-2.7,0.4-5.4,0.8-8,1.3c-2.7,0.4-5.3,1-8,1.5
			c-2.4,0.6-4.8,1.1-7.2,1.7c-2.4,0.6-4.8,1.3-7.1,2c-2.4,0.7-4.7,1.4-7,2.2c-2.4,0.8-4.7,1.7-7,2.5c-3.1,1.2-6.2,2.5-9.2,4
			c-3,1.4-5.9,3-8.8,4.8c-2.5,1.5-5,3.1-7.4,4.8c-2.4,1.7-4.8,3.5-7,5.4c-2.2,1.8-4.3,3.8-6.3,5.9c-2.3,2.3-4.1,4.9-5.5,7.8
			c-1.5,2.9-2.5,6-2.9,9.2c-0.5,3.3-0.4,6.6,0.1,9.9c0.5,2.8,1.4,5.4,2.9,7.8c0.4,0.7,0.9,1.3,1.5,1.8c0.1,0.1,0.1,0.1,0.2,0.2
			c0,0.1,0,0.1,0,0.2c-0.1,2.7,0.3,4.9,1.2,6.7c1.7,3.4,4.8,5.3,9.3,5.6c2.1,5.3,6,7.9,11.7,7.9c4.5,0,8.2-0.9,11.3-2.7l0,8.6
			l36.8-0.1v0c0.1,0,0.1,0,0.2,0h0.2c0,0,0,0,0.1,0c0.2,0,0.5,0,0.7,0v-39.8c1.2-0.7,1.9-1.3,2.3-1.8c0.4-0.5,0.6-1.3,0.6-2.3
			c0-0.4-0.1-0.9-0.4-1.5c-0.3-0.6-0.4-0.9-0.4-1c0,0,0.2-0.3,0.6-0.9c0.4-0.6,0.6-1.2,0.6-1.7c0-0.2-0.3-1.4-0.8-3.6
			c0-0.1,0.4-0.5,1.1-1.3c0.7-0.8,1.1-1.5,1.1-2.1c0-0.4-0.1-0.9-0.3-1.4c-0.2-0.6-0.5-1-0.9-1.2c1.4-0.3,2.3-0.7,2.6-1.1
			c0.2-0.2,0.3-0.7,0.3-1.4c0-1.8-0.8-2.9-2.3-3.5c0.4-0.4,0.7-0.8,0.8-0.9c0.1-0.1,0.1-0.3,0.1-0.7c0-0.7-0.2-1.4-0.6-2
			c-0.8-1.2-2-1.9-3.9-1.9c-0.6,0-1.1,0.1-1.5,0.3c-0.1-0.4-0.3-0.8-0.4-1.1c-0.4-0.5-1.1-0.8-2.2-0.8c-1.8,0-3.1,0.6-3.8,1.7
			c-0.2,0.3-0.4,0.7-0.6,1.2c-0.1,0.5-0.2,0.7-0.3,0.8c-0.3-0.2-0.6-0.4-0.9-0.6c-0.6-0.4-1.3-0.6-2.2-0.6c-1.7,0-2.9,0.5-3.5,1.5
			c-0.3,0.5-0.5,1.1-0.5,1.6c-0.1-0.1-0.3-0.2-0.5-0.4c-0.4-0.2-1-0.3-2-0.3c-1.4,0-2.4,0.5-3.2,1.4c-0.4,0.5-0.6,1-0.7,1.5
			c-0.1-0.1-0.3-0.2-0.4-0.3c-0.3-0.1-0.9-0.1-1.9-0.1c-1.8,0-3.1,0.8-3.7,2.3c-0.2,0.5-0.3,1-0.4,1.7H75h-0.3l0,9.1
			c-2-0.7-4.3-1-6.9-1c-6.6,0-11.4,3-14.3,9.2c-0.1,0-0.2,0-0.4,0c-0.6,0-1.1,0-1.7,0.1c0-0.2-0.1-0.3-0.1-0.4
			c-0.6-2.2-0.1-4.9,1.3-8.1c1.4-3.2,3.5-5.8,6.1-7.7c2.7-2,5.3-3.7,7.9-5.2c2.8-1.6,5.6-3.1,8.5-4.4c2.9-1.3,5.8-2.5,8.7-3.7
			c2.2-0.8,4.4-1.6,6.7-2.3c1.7-0.6,3.4-1.1,5.2-1.6c1.7-0.5,3.5-1,5.2-1.5c1.7-0.5,3.5-0.9,5.2-1.3c2.9-0.7,5.7-1.3,8.6-1.9
			c3.3-0.7,6.7-1.1,10.1-1.4c3.4-0.3,7.4-0.6,12.1-1.1c0.1,0,0.2,0,0.3,0c-1.1,2.2-2,4.3-3.1,6.5c-8.1,17.4-13.9,35.6-17.4,54.4
			c-0.6,2.9-1.1,5.9-1.6,8.9c-0.8,4.6-1.5,9.3-2.1,13.9c-1.4,0.7-2.8,1.6-3.9,2.6c-0.1,1.5,0.6,2.4,2.2,2.7c0.8,0.1,1.6,0.2,2.4,0.2
			c-0.1,3.6,0.1,7.2,0.5,10.9c0.8,7.2,3.6,13.5,8.4,18.9c4.1,4.6,8.7,8.6,14,11.8c5.3,3.3,10.9,6,16.7,8.3c5.5,2.2,11.2,4.2,16.9,6
			c2.5,0.7,5,1.4,7.5,2c-0.9,3.5-2.2,8.6-4,15.3c-2.8,11.4-4.2,21.8-4.2,31.3c0,3.3,0.3,6,0.8,8.2c0.5,2.1,1.4,4.2,2.8,6.2
			c1.1,1.7,2.9,3.9,5.4,6.7c1.5,1.7,4.4,5,8.6,9.7c1.9,2.1,4.5,4.8,7.8,8c3.9,3.7,6.4,6.2,7.6,7.5c2.6,2.7,4.5,5.2,5.7,7.4
			c0.7,1.2,1.2,2.4,1.6,3.6c0.4-0.3,0.8-0.5,1.3-0.6c0,0,0-0.1,0-0.1c1.5-0.2,2.9-0.5,4.2-0.9c1.5,1.8,2.2,4,2.2,6.8
			c0,1.5-0.3,2.9-0.9,4.1c-0.4,0.8-0.9,1.4-1.5,2.1c-1.1,1-2.9,2.1-5.4,3.2c-2.8,1.2-4.6,2.1-5.4,2.7c-1.6,1.3-2.5,2.9-2.5,4.9
			c0,0.1,0,0.6,0,1.6c0.2,0.9,0.6,1.4,1.4,1.5c0,0.3,0.1,0.5,0.2,0.8c0.5,1.1,1.5,1.6,3.1,1.6c0.6,0,1.1,0,1.3-0.1
			c0.7,1.1,1.7,1.6,3,1.6c0.3,0,0.5,0,0.7-0.1c0.1,0.4,0.3,0.8,0.4,1.1c1,1.9,2.9,2.9,5.6,2.9c1.5,0,2.9-1.3,4.1-3.9
			c0.1-1.1,0.6-1.8,1.4-2.2c0.8-0.3,2.1-1,3.9-1.9c1.7-1,2.7-2.4,2.9-4.3c0.1-0.6,0-1.4-0.1-2.4c-0.1-1.1-0.2-1.8-0.2-2.2
			c0.1-2,0.7-3.7,2-5c0.5-0.5,1.4-1.2,2.8-2c0.5-0.3,1-0.6,1.6-1c2-1.2,3.4-2.3,4.3-3.3c1.3-1.6,1.9-3.5,1.9-5.9
			c0-3.3-1.3-5.8-4-7.6c-1.6-1.1-4.6-2.2-9-3.5c-0.5-0.1-1-0.3-1.4-0.4c1-1.9,1.7-4,2.2-6.1c0,0-0.1,0-0.1,0
			c0.1-0.2,0.2-0.3,0.3-0.5c-0.9-0.2-1.8-0.5-2.6-0.8c-6.3-2.3-12.2-5.4-17.6-9.5c-2.1-1.6-4.1-3.3-6-5.2c-1.2-1.2-2.4-2.3-3.6-3.4
			c-3.2-2.8-6-6-8.3-9.6c-1.6-2.4-2.2-5.1-1.9-8c1.1-11,3-21.9,5.9-32.6c0.7-2.5,1.5-5,2.5-7.4c0.6-1.4,1.2-2.9,1.9-4.3
			c3.4,0.4,6.8,0.8,10.2,1c5.9,0.6,11.8,1,17.7,1.4c5.9,0.4,11.7,0.7,17.5,0.9h-1c5.1,0.1,10.4,0.3,16,0.6
			c5.6,0.2,11.5,0.3,17.9,0.2c6.3-0.1,12.1-1.1,17.4-3c5.3-1.9,9.5-4.2,12.5-6.8c3.1-2.6,6.6-6.9,10.5-12.7
			c3.8-5.7,7.5-11.5,11-17.5c0.6-1,1.3-2.1,1.9-3.2c1,0.8,2.2,1.2,3.6,1.2c2.7,0,4.1-0.8,4.3-2.3c0.4,0.1,1,0.2,1.6,0.2
			c0.7,0,1.4-0.2,1.9-0.7c0.1-0.1,0.2-0.2,0.3-0.3c0.7,0.3,1.6,0.5,2.7,0.5c2.6,0,4.2-2.2,4.9-6.6c0.2-1.4,0.3-3,0.3-4.8
			C351.7,291.2,351.7,289.3,351.7,287.2z M81.2,276.2l0-50.8l3.8,0l0.1,50.8H81.2z M86.2,276.2l0-50.8l4.3,0l0.1,50.9H86.2z
			 M91.7,276.2l0-50.9h3.8l0.1,50.9H91.7z M96.7,276.2l0-46.5c0.1,0.2,0.3,0.4,0.5,0.6c0.6,0.6,0.9,1,0.9,1.2c0,0.2-0.1,0.4-0.2,0.7
			c-0.1,0.3-0.2,0.6-0.2,0.9c0.4,1.5,1,2.5,1.7,2.9c0.8-1.9,1.3-3.4,1.4-4.2c0.1-0.4,0.2-0.8,0.3-1.1l0.1,45.5L96.7,276.2z
			 M102.2,276.1l0-46.9c0.3-0.3,0.6-0.5,0.7-0.6c0.2-0.3,0.3-0.7,0.3-1.2c0-0.3-0.3-0.9-0.8-1.7c-0.1-0.1-0.1-0.2-0.2-0.3v-0.1h1.5
			c-0.2,0.5-0.3,0.9-0.3,1.4c0,0.5,0.3,1.3,0.8,2.5c0,0.2-0.3,1-0.8,2.6c0,0.9,0,1.5,0.1,1.7c0.2,0.5,0.6,1,1.2,1.6
			c-0.5,0.5-0.8,1.1-0.9,1.6c-0.1,0.2-0.1,0.7-0.1,1.5c0,1.7,0.6,3.2,1.8,4.5c0.1-0.6,0.2-1.1,0.5-1.6l0.1,35.1H102.2z M101.6,224.1
			C101.6,224.1,101.6,224.1,101.6,224.1c-0.1-1.5,0.3-2.2,1.2-2.2c0.6,0,1,0.2,1.2,0.5c0.1,0.2,0.2,0.5,0.2,0.9c0,0.3,0,0.6-0.1,0.9
			H101.6z M107.2,276.1v-36.6c0.1-0.1,0.2-0.2,0.3-0.3c0.6-0.6,1.1-1,1.3-1.3c0.4-0.5,0.6-1.1,0.6-1.8c-0.6-1.8-0.9-2.8-0.9-2.8
			c0.6-1.5,0.9-2.4,0.9-2.6c0-0.4,0-0.7-0.1-0.8c-0.2-0.3-0.5-0.7-0.9-1.1c1-0.6,1.5-1.2,1.5-1.8c0-0.4-0.1-1-0.4-1.7h2l0.1,50.9
			H107.2z M109.9,221.5c0.8,0,1.3,0.1,1.5,0.3v2.3h-2.4c-0.2-0.5-0.3-0.8-0.3-0.9C108.7,222.1,109.1,221.5,109.9,221.5z M85.4,216.3
			c0.6-1.7,1.6-2.5,3.2-2.5c0.8,0,1.5,0.1,1.9,0.3c0.4,0.2,0.7,0.3,0.8,0.3c0.2,0,0.3-0.2,0.4-0.5c0.3-0.7,0.4-1.1,0.4-1.1
			c0.5-1.1,1.4-1.5,2.7-1.5c0.9,0,1.5,0.2,2,0.5c0.4,0.3,0.6,0.5,0.7,0.5c0.2,0,0.4-0.2,0.4-0.5c0.1-0.5,0.2-0.9,0.3-1.2
			c0.4-1.2,1.5-1.7,3.1-1.7c0.8,0,1.5,0.2,2.2,0.7c0.3,0.3,0.7,0.6,1.1,1c0.1-0.1,0.2-0.4,0.2-0.9c0.1-0.6,0.2-1.1,0.4-1.4
			c0.6-1.3,1.8-1.9,3.7-1.9c1.2,0,1.9,0.6,2.1,1.7c-0.2,0-0.4-0.1-0.7-0.1c-0.6,0-0.9,0-1,0.1c-0.1,0-0.1,0.1-0.1,0.3
			c0,0.2,0,0.3,0.1,0.4c2-0.2,3,0.1,3.1,0.9c0,0.8-0.2,1.3-0.7,1.7c-0.5,0.3-0.8,0.5-0.9,0.5c-0.5-0.4-1.2-0.7-2-0.7
			c-0.6,0-0.9,0-0.9,0c-0.1,0-0.2,0.1-0.2,0.3c0,0.2,0.2,0.3,0.5,0.3c0.5,0,0.8,0.1,1.1,0.1c1.1,0.2,1.6,0.8,1.6,1.8
			c0,0.1-0.2,0.6-0.7,1.6c0,0.2,0.1,0.4,0.3,0.4c0.7-0.8,1-1.4,1-2.1c0-0.4-0.1-0.8-0.2-1c-0.1-0.2-0.1-0.4,0.1-0.6
			c0.2-0.2,0.5-0.3,0.8-0.4c0.3,0,0.7,0,0.9,0.1c1.1,0.2,1.6,0.8,1.6,1.9c0,0.2-0.1,0.6-0.3,1c0,0.1,0.1,0.2,0.3,0.4l0.2-0.1
			c0.3-0.3,0.4-0.8,0.4-1.3c0-0.6-0.1-1.1-0.3-1.4c-0.4-0.8-1.3-1.2-2.4-1.3c0.2-0.4,0.2-0.7,0.2-1c0-0.5-0.1-0.8-0.2-1.1
			c-0.2-0.3-0.5-0.6-0.9-0.7c0.2-0.2,0.6-0.3,1.4-0.3c1.3,0,2.3,0.4,3,1.3c0.5,0.6,0.8,1.3,0.8,1.9c0,0.3-0.2,0.7-0.6,1
			c-0.4,0.3-0.6,0.6-0.6,0.7c0,0.1,0.1,0.3,0.4,0.4c0.2,0.1,0.5,0.3,0.9,0.6c0.9,0.7,1.3,1.4,1.3,2.3c0,0.7-0.5,1.2-1.6,1.5
			c-0.7,0.2-1.1,0.3-1.1,0.3c-0.3,0.1-0.5,0.3-0.5,0.5c0,0.1,0.2,0.4,0.7,1.1c0.5,0.7,0.7,1.2,0.7,1.7c0,0.6-0.4,1.2-1.1,1.8
			c-0.8,0.6-1.1,1.2-1.1,1.5c0,0,0.3,1.3,0.8,3.7c0,0.3-0.2,0.8-0.7,1.4c-0.4,0.6-0.7,1-0.7,1.1c0,0.2,0.2,0.5,0.5,1.1
			c0.3,0.6,0.4,1,0.4,1.3c0,1.1-0.5,2-1.6,2.7c-0.2,0.2-0.4,0.3-0.7,0.5l0-14.9c-0.2-0.1-0.4-0.2-0.6-0.3c-0.3-0.4-1.1-0.6-2.3-0.6
			c-1.1,0-1.7,0.8-1.7,2.4c0,0.4,0.2,1.1,0.5,1.9c0.4,0.8,0.5,1.4,0.5,1.8c0,0.3-0.3,0.6-0.8,0.9c-0.6,0.3-0.9,0.6-0.9,0.9
			c0,0,0.2,0.3,0.6,0.8c0.4,0.6,0.6,0.9,0.6,1.2c0,0.6-0.4,1.4-1.2,2.5c0,0.1,0.2,0.4,0.6,1.2c0.4,0.7,0.6,1.3,0.6,1.6
			c0,0.7-0.5,1.5-1.5,2.4c-1.2,1.1-1.8,1.9-2,2.4c-0.4-0.9-0.7-1.4-0.7-1.5c0-0.1-0.1-0.5-0.2-1.2c-0.1-0.7,0.1-1.4,0.6-2
			c0.4-0.7,0.7-1,0.7-1.1c-1.3-1-1.9-1.9-1.7-2.8c0.2-0.9,0.4-1.5,0.7-2c0.3-0.4,0.4-0.8,0.4-1c0-0.3-0.2-0.7-0.4-1.1
			c-0.3-0.4-0.5-0.9-0.5-1.4c0-0.3,0.1-0.8,0.4-1.4c0.3-0.6,0.4-1.2,0.4-1.9c0.1-0.4,0-0.8-0.1-1.1c-0.2-0.7-0.8-1-1.8-1
			c-0.7,0-1.3,0.4-1.7,1.2c-0.3,0.6-0.4,1.1-0.4,1.6c0,0.7,0.3,1.4,0.8,2.1c0.5,0.7,0.8,1.1,0.8,1.3c0,0.5-0.4,1-1.3,1.7
			c-0.9,0.7-1.2,1.3-1.2,2c0.1,0.4-0.1,1-0.5,1.9c-0.4,0.8-0.5,1.4-0.4,1.8h-0.1c-0.5-0.8-0.7-1.4-0.7-1.8c0.3-0.7,0.4-1.2,0.4-1.6
			c0-0.5-0.3-1-0.9-1.5c-0.6-0.4-0.9-1-0.9-1.6c0-0.4,0.2-0.8,0.7-1.3c0.4-0.4,0.7-0.8,0.7-1.1c0-0.4-0.3-0.9-1-1.6
			c-0.7-0.7-1-1.3-1-1.7c0-0.3,0.2-0.7,0.5-1.2c0.4-0.5,0.5-1.1,0.5-1.7c0-0.6-0.1-1.2-0.4-1.8c-0.5-1.1-1.4-1.6-2.7-1.6
			c-0.8,0-1.5,0.2-1.9,0.7h-7C85.2,216.8,85.3,216.6,85.4,216.3z M96.7,227.1v-0.3v-1.5h0.5c0.2,0.3,0.4,0.5,0.4,0.6
			c0,0.1-0.2,0.4-0.7,1C96.8,226.9,96.7,227,96.7,227.1z M75.9,218.3l16.2-0.1c0.1,0,0.1,0,0.2,0.1c0,0,0,0,0-0.1l3.9,0v0
			c0.3,0.5,0.4,1,0.4,1.6c0,0.4-0.2,0.9-0.5,1.3c-0.3,0.5-0.5,0.9-0.5,1.5c0,0.5,0.2,1,0.6,1.5l-20.2,0V218.3z M80,225.4l0.1,50.8
			h-4.1l0-50.8H80z M254.7,31.6c1.8,0,3.2,0.5,3.9,1.4c0.5,0.6,0.7,1.2,0.7,2c0,0.4-0.3,1-0.8,1.9c-0.1,0.1-0.2,0.3-0.3,0.4
			c-0.2-0.2-0.4-0.4-0.5-0.6c-1.7-1.8-3.2-3.5-4.4-5C253.7,31.7,254.2,31.6,254.7,31.6z M227.2,13.7c0-0.2,0.2-0.6,0.7-1
			c0.4-0.4,1.3-0.6,2.6-0.7c0.2,0,0.4,0,0.6,0c0,0.2,0,0.4,0,0.6c0,1.3,0.4,2.3,1.2,2.9c0.4,0.4,1.3,0.8,2.5,1.3
			c1.2,0.4,2.1,0.9,2.5,1.3c0.3,0.3,0.6,0.7,0.8,1.2c-1.5-1.1-3.2-1.9-5.2-2.5c-2-0.6-3.2-0.9-3.4-1c-0.3-0.1-0.7-0.3-1.3-0.6
			c-0.6-0.3-1-0.6-1-0.9C227.1,14.2,227.2,13.9,227.2,13.7z M231.5,24.2c-1-0.8-2.6-1.3-4.6-1.5c-2.1-0.2-3.5-0.4-4.3-0.5
			c-0.7-0.2-1.1-0.7-1.1-1.4c0-0.5,0-0.8,0-0.9c0.1-0.2,0.2-0.4,0.3-0.7c0.1,0.1,0.2,0.2,0.4,0.2c0.5,0.2,1.2,0.3,2,0.4
			c3,0.1,5.4,0.4,7.3,1.2c1.8,0.7,3.1,1.5,3.8,2.3c0.8,0.6,1.1,0.6,1.1,0c-1.5-1.5-3.3-2.7-5.3-3.4c-2-0.7-3.9-1.1-5.7-1.2
			c-1.9-0.1-2.9-0.6-3.1-1.4c-0.1-0.2,0-0.4,0.1-0.6c0.3-0.7,0.9-1.1,1.6-1.3c0.7-0.2,1.4-0.3,2.1-0.4c0.1,0.2,0.2,0.3,0.4,0.5
			c0.3,0.3,0.9,0.6,1.7,0.9c0.8,0.3,2.5,0.9,5.2,1.7c2.1,0.6,3.9,1.7,5.2,3.2c0,0.5-0.1,1.2-0.4,2.2c-0.1,0.6-0.2,1.1-0.3,1.5
			c-0.6-0.2-1.3-0.2-2.2-0.2c-1.1,0-2.1,0.2-3,0.7C232.4,25.1,232,24.6,231.5,24.2z M239.2,38c-3.2-0.1-5.4-0.4-6.4-0.8
			c-1.9-0.7-2.9-2-2.9-4c0-1.1,0.4-2.3,1.1-3.6c1.1-2.1,2.7-3.2,4.7-3.2c0.1,0,0.2,0,0.3,0c0.2-0.1,0.5-0.1,0.8-0.1
			c1,0,1.5,0.3,1.5,1.1c0,0.6-0.5,1.3-1.5,2.2c-1.2,1-2.3,1.6-3.5,1.6c-0.1,0.1-0.2,0.2-0.2,0.4c0,0.2,0,0.3,0,0.4
			c0.3,0,0.6-0.1,0.9-0.1c1.9,0,3.5,0.3,4.9,0.8c0.7,0.2,1.6,0.7,2.8,1.5c0.3,0.2,0.6,0.4,0.9,0.5c0,0,0,0,0,0c0,0,0.1,0,0.1,0
			c0,0,0-0.1,0-0.4c0-0.1-0.2-0.4-0.6-0.8c-0.4-0.4-1-0.8-1.7-1.2c-1.2-0.7-2.4-1.1-3.6-1.4c0.2-0.2,0.7-0.7,1.5-1.4
			c0.1-0.1,0.2-0.2,0.3-0.3c1.1,1.7,3.2,2.5,6.1,2.5c0.6,0,0.9,0,1.1-0.1c0.2-0.1,0.4-0.3,0.4-0.6c0-0.4,0-0.6-0.1-0.5
			c-2.9,0.5-4.9-0.1-6.1-1.8c-0.2-0.3-0.4-0.6-0.5-0.9c0-0.1,0-0.1,0-0.2c0-0.4-0.1-0.8-0.1-1.1c0-0.3-0.1-0.5-0.3-0.7
			c0-0.1-0.1-0.1-0.1-0.1c0-0.3,0.3-1.8,0.8-4.5c0-1.5-0.4-2.8-1.1-3.7c-0.6-0.7-1.4-1.3-2.5-1.8c-1.6-0.7-2.4-1.1-2.5-1.2
			c-0.8-0.5-1.2-1.1-1.2-1.9c0-0.4,0-0.8,0.1-1.1c1.9-0.8,4.1,0,6.7,2.5c2.6,2.5,4.6,5.3,6.2,8.2c1.5,2.9,2.6,4.8,3.2,5.7
			c0.3,0.5,1.4,1.8,3.1,3.8c0,0.1,0.1,0.1,0.1,0.2c0,0,0.1,0,0.1,0c1.1,1.2,2.4,2.7,3.9,4.4c0.6,0.7,1.1,1.3,1.7,1.9
			c-0.5,0.6-1,1.1-1.5,1.6c-1.9,1.8-4.1,3-6.6,3.6c-0.9-1.8-1.9-3-3-3.6C244.6,38.8,242.2,38.1,239.2,38z M242.2,42.9
			c-0.2-0.2-0.2-0.5-0.2-0.9c0-0.2,0-0.4,0-0.7c0-0.5,0.2-1.1,0.4-1.6c1.3,0.4,2.4,1,3.4,1.7c0.9,0.7,1.7,1.5,2.4,2.4
			c-0.8,0.1-1.7,0.2-2.5,0.2C243.8,44,242.6,43.6,242.2,42.9z M249.9,49.5c-1.4-1.4-2.9-2.7-4.5-3.9c-0.1,0-0.1-0.1-0.2-0.1
			c0.1,0,0.2,0,0.3,0c4.4,0,8.2-1.4,11.3-4.2c1.2-1,2.1-2.2,2.8-3.4c0.6-1.1,0.9-2,0.9-2.7c0-0.1,0-0.2,0-0.2c0.1,0,0.1,0.1,0.1,0.1
			c1.1,1.4,2.2,3.1,3.4,4.9c-0.2,1.3-0.6,2.4-1.1,3.5c-2,4.1-6.3,6.1-12.8,6.1C250.1,49.5,250,49.5,249.9,49.5z M226,162.2
			c2.5,1,5.2,2.6,8,4.9c-4.3,3.5-8.9,6.8-13.7,9.7c-1.7,1-3.3,2-5,2.9l0,0.4l0.3,0.2c10.3-5.1,19.4-11.6,27.1-19.5
			c7.7-7.9,13.5-16.1,17.4-24.5c3.9-8.5,6.1-16.1,6.9-22.9c1.3-11.7,0.8-22.4-1.4-32c-2.2-9.7-5.3-17.5-9.1-23.7
			c-1.5-2.5-3.3-4.7-5.2-6.8c6.2-0.2,10.3-2.3,12.6-6.3c0.5-0.9,0.9-2,1.2-3.1c1.9,3.2,3.9,6.9,5.9,11.1c3.9,8.4,6.9,17.3,9,26.7
			c2.2,9.9,2.8,19.9,2,30c-0.6,8.1-2.3,16-5,23.7c-1.8,5-4,9.8-6.6,14.4c-4.6,7.9-9.8,15.3-15.8,22.2c-8.3,9.6-17.7,17.8-28.3,24.8
			v1.9c6.2-4.6,12.1-9.4,17.9-14.4c0.7-0.6,1.4-1.2,2.1-1.9c2.6,3.3,4.9,6.7,6.9,10.1c3.4,5.8,6.2,11.2,8.3,16.3
			c2.1,5,3.8,9.6,5,13.6c1.2,4,2.5,9,3.7,15c1.2,6,2.1,11,2.6,15.1c0.4,4,0.7,8.2,0.8,12.4c0.1,4.3-0.1,8.4-0.7,12.5
			c-0.3,2.5-1,4.2-2.1,5.2c-0.3-0.1-0.6-0.2-0.8-0.3c-1-0.4-2-0.7-3-1.1c-0.3-0.1-0.6-0.1-0.7-0.2c-0.1-0.1-1.3-0.3-3.4-0.7
			c-0.2,0-0.4-0.1-0.6-0.1c0.2-0.1,0.3-0.2,0.5-0.3c0.7-0.6,1.1-1.4,1.3-2.6c0.2-0.9,0.3-2.8,0.3-5.4c0-3,0-4.6-0.1-4.9
			c-0.2-1.5-0.6-3.8-0.9-6.9h-0.4v2.7c0.5,3.1,0.7,4.8,0.7,5.2c0,0.3,0.1,1.6,0.1,3.9c0,0.7-0.1,1.7-0.1,3c-0.1,1.7-0.2,2.8-0.4,3.1
			c-0.4,0.8-1.1,1.5-2.2,2c-1.1-0.2-1.9-0.3-2.3-0.4l-15.8-2.4c0.4-1.3,0.6-2.3,0.6-3c0-0.3,0.1-1.3,0.1-3.1c0-1.2-0.1-2.2-0.2-2.8
			h-0.4c0,0.9-0.2,2.5-0.5,4.7c-0.2,1.7-0.3,3.1-0.4,4.1l-15.2-2.3c0.9,0.1,0.8,0.1-0.6-0.1c-3.1-0.4-6.1-0.8-9.2-1.2
			c-1.8-0.2-3.5-0.4-5.3-0.6c0.1-0.7,0.2-1.5,0.3-2.5c0.3-1.4,0.4-2.4,0.4-3.1c0-1.8-0.1-3.1-0.2-4h-0.4c0,1.8-0.2,3.7-0.5,5.8
			c-0.3,1.5-0.4,2.7-0.5,3.6c-0.9-0.1-1.7-0.2-2.6-0.3c-2.8-0.3-5.5-0.5-8.3-0.7c-3.4-0.3-6.9-0.5-10.3-0.6
			c-2.2-0.1-4.4-0.1-6.6-0.1c0.2-1.7,0.6-3.9,1.2-6.5c0.8-2.9,1.2-4.4,1.2-4.5c0-0.3,0-0.4-0.1-0.4l-0.1,0.1
			c-0.6,0.7-1.3,2.6-1.9,5.7c-0.6,2.7-0.9,4.5-0.9,5.3c0,0.1,0,0.3,0,0.4c-0.8,0-1.5,0-2.3,0c-2.3,0-4.6,0.1-6.9,0.1
			c-2.9,0.1-5.8,0.1-8.7,0.2c-2.7,0.2-5.5,0.3-8.2,0.4c-0.2,0-0.4,0-0.7,0.1c0.1-2.2,0.3-3.8,0.4-4.9c0-0.1,0.3-1,1-2.7
			c0.6-1.6,0.9-2.7,0.9-3.3c0-0.4-0.1-0.7-0.2-0.9h-0.4c-0.4,1.7-0.9,3.5-1.6,5.4c-0.4,1.4-0.6,3-0.6,4.8c0,0.6,0,1.2,0.1,1.6
			c-2.2,0.2-4.4,0.3-6.6,0.5c-2.4,0.3-4.8,0.5-7.1,0.8c-3.3,0.4-6.5,0.9-9.7,1.5c-0.6,0.1-1.2,0.2-1.8,0.3c0.1-3.1,1-7.9,2.8-14.4
			c2.6-9.6,5.2-18.5,7.8-26.7c2.6-8.1,5.4-16,8.3-23.4c2.7-7,5.9-13.8,9.3-20.5c1.9-3.7,3.9-7.3,6-10.9c0.1,0.1,0.2,0.2,0.3,0.3
			c1.5,1.7,2.7,3.3,3.4,4.8c1,2,1.5,4.1,1.5,6.3c0,1.9-0.1,3.2-0.4,4c0.4-0.3,0.8-0.4,1.3-0.5c0-0.1,0.1-0.1,0.1-0.1
			c3.7-0.7,7.3-1.9,10.8-3.4c5.5-2.4,10.7-5.3,15.6-8.6c2.8-1.9,5.5-4,8.1-6.1c1.5-0.7,3-1.5,4.5-2.5c2.5-1.7,4.8-3.6,6.7-5.9
			c1.4-1.6,2.7-3.2,3.8-5C221.7,160.5,223.7,161.3,226,162.2z M170.8,187.9c0-3.8-1.5-7.5-4.7-11.3c0.4,0.1,0.7,0.1,1,0.1
			c4.3,0.5,8.7,0.7,13,0.6c3.9-0.1,7.7-0.3,11.6-0.7c1.2-0.2,2.4-0.3,3.6-0.5c0.8-0.2,1.5-0.3,2.3-0.5c0.8-0.2,1.5-0.3,2.3-0.6
			c0.5-0.1,0.9-0.3,1.4-0.4c-5.1,3.8-10.5,7.3-16.5,10.3c-5.2,2.7-10,4.5-14.2,5.3c0-0.2,0-0.4,0-0.6
			C170.8,188.7,170.8,188.1,170.8,187.9z M147.3,62.2c-1.7,0.7-3.4,1.5-5.2,2.5c-1.5,0.8-2.3,1.3-2.6,1.4c0,0,0,0-0.1,0l0.1-0.1
			c1.4-1.8,4-4,7.8-6.8c0.9-0.7,2.1-1.5,3.6-2.6c0.3-0.2,0.5-0.4,0.7-0.6c0.5-0.4,0.7-0.7,0.7-0.8c0,0,0.1-0.1,0.1-0.1
			c0-0.1,0-0.2-0.2-0.2c-0.4-0.2-1.6-0.3-3.4-0.3c-1.9,0-2.9,0.1-2.9,0.1c-2,0.1-4.3,0.5-7.1,1.3c-0.4,0.1-0.9,0.3-1.4,0.4
			c-2,0.6-4,1.3-6,2.2c0.8-0.6,1.5-1.1,2.3-1.7c0.5-0.3,0.9-0.6,1.4-0.9c0.4-0.2,0.7-0.4,1.1-0.6c3.6-1.9,7.4-3.6,11.2-5
			c4.4-1.6,8.9-3,13.5-4c2.4-0.6,4.7-1,7.1-1.3c1.6-0.2,3.2-0.4,4.8-0.6c1.6-0.2,3.2-0.3,4.8-0.4c2.4-0.1,4.7-0.2,7.1-0.2
			c2.7,0,5.3,0.1,8,0.5c3.2,0.4,6.3,1.2,9.3,2.4c2.2,0.8,4.3,1.8,6.3,2.9c3.2,1.8,6,3.9,8.5,6.4c1.7,1.8,3.3,3.7,4.7,5.8
			c2.7,4.1,4.8,8.6,6.1,13.5c1.9,7.1,3,14.3,3.1,21.7c0.1,6.1-0.1,12.1-0.6,18.1c-0.3,4.5-0.8,8.9-1.5,13.4c-1.5,0.5-3.2,0.8-5,0.8
			c-5.4,0-8.7-3.4-9.9-10.1c-0.2-0.9-0.3-2.1-0.4-3.5c0.4-0.2,0.9-0.3,1.3-0.6c1.4-0.9,2.4-2.3,3.1-4.3c0.5-1.5,0.8-3.5,0.8-5.9
			v-1.3c0-1-0.2-2-0.4-2.8c-0.8-2.8-2.5-4.1-5.1-4.1c-3.8,0-6.3,3.1-7.3,9.2c-0.9,0-1.9,0-2.9,0c0.9-5.9,1.4-10,1.4-12.4
			c0-3.7-0.1-6.4-0.3-8.1c-0.3-3-1-5.5-2-7.4c-2.6-5-8.1-7.6-16.3-7.6c-2.3,0-4.2,0.2-5.8,0.6c-1.1,0.4-1.8,0.6-1.9,0.6
			c0.6-0.6,2-2,4.3-4.2c1.9-1.9,2.9-3,2.9-3.2c0,0,0-0.1,0.1-0.1c0-0.1-0.1-0.2-0.2-0.2c-0.4-0.2-1.5-0.3-3.2-0.3
			c-6.1,0-11.6,0.8-16.4,2.2c-1.6,0.5-3.2,1-4.7,1.7c-1.3,0.6-2.2,1-2.6,1.2c0,0,0,0,0,0v-0.1c0.6-1.2,2.2-3,4.9-5.5
			c2.5-2.3,3.7-3.5,3.7-3.7c0-0.2,0-0.3-0.1-0.3c-0.3-0.2-1-0.3-2.1-0.3c-3.2,0-6.2,0.3-9.3,1c-0.1,0-0.2-0.1-0.2-0.1
			c-0.1,0.1-0.2,0.1-0.2,0.2C152.2,60.5,149.7,61.2,147.3,62.2z M139.5,80.9c0.2-0.1,0.3-0.2,0.5-0.3c0.5-0.3,1-0.5,1.6-0.7
			c0.8-0.2,1.7-0.3,2.6-0.2c1.7,0.2,3.1,1.1,4.1,2.5c0.5,0.8,0.9,1.6,1.1,2.5L137,84.8C137.4,83.1,138.2,81.8,139.5,80.9z
			 M136.9,85.5c0.2,0,0.4,0,0.7-0.1c0.2,0,0.4,0,0.7,0c0.4,0,0.8,0,1.3-0.1c0.9,0,1.8,0,2.7,0c1.4,0,2.8,0,4.3,0c1,0,2,0,3,0
			c0,0.6,0,1.2-0.1,1.8c-0.3,1.9-1.2,3.4-2.6,4.5c-0.1,0.1-0.1,0.1-0.2,0.1c-1.4,1-2.9,1.4-4.5,1.1c-1.6-0.3-2.9-1.1-3.9-2.5
			c-0.1-0.1-0.1-0.1-0.1-0.2c-0.3-0.4-0.6-0.9-0.7-1.4C136.9,87.8,136.8,86.7,136.9,85.5z M143,126c-0.5-1.2-0.9-2.3-1.2-3.2
			c3.3-0.2,5.3-0.3,5.9-0.3c0,1.4,0,2.2,0,2.4c0,0.2-0.1,0.4-0.1,0.6C145.9,125.6,144.4,125.8,143,126z M153.1,125.2
			c-1.7,0-3.4,0.1-4.9,0.2c0-0.2,0.1-0.4,0.1-0.6c0-0.2,0.1-0.9,0.1-2.4c1.7,0,3.3,0.1,4.8,0.2c-0.1,1.4-0.1,2.1-0.1,2.2
			C153.2,124.9,153.2,125.1,153.1,125.2z M155.2,125.2c-0.5,0-0.9,0-1.4,0c0-0.2,0-0.3,0-0.4c0-0.9,0.1-1.6,0.1-2.2
			c2.1,0.1,4,0.3,5.8,0.6c-0.2,0.6-0.3,1.3-0.4,2C158.1,125.2,156.7,125.2,155.2,125.2z M160.2,125.4c0.1-0.6,0.3-1.2,0.6-1.9
			c2.2,0.4,4.1,0.9,5.9,1.4c-0.1,0.4-0.1,0.8-0.1,1.1C164.6,125.7,162.5,125.5,160.2,125.4z M167.3,126.1c0-0.3,0.1-0.6,0.2-0.9
			c1.3,0.5,2.5,1.1,3.5,1.7C169.9,126.6,168.7,126.3,167.3,126.1z M168.2,148.5c-2.8-0.2-4.9-0.3-6.2-0.4c-2.3-0.2-4-0.4-5.4-0.7
			c-3.5-0.7-5.3-1.9-5.3-3.8c0-0.7,0-1.2,0.1-1.5c0.2-0.7,0.8-1.4,1.6-1.9c2.4-1.6,7.2-2.4,14.5-2.4c3.2,0,6.3,0.3,9.3,0.7
			c0,0.1,0,0.1,0,0.2c0,1-0.1,1.9-0.2,2.9c-2.5-1.2-5.5-1.8-9-1.8c-3.2,0-5.6,0.2-7.4,0.7c-1.3,0.3-1.9,0.7-2,1.1
			c1-0.1,2.4-0.2,4.1-0.2c1.3-0.1,3.1-0.2,5.5-0.2c3.3,0,6.2,0.6,8.7,1.8c-0.4,1.5-0.9,3-1.6,4.4c-0.3,0.6-0.7,1.2-1.1,1.8
			C172.1,148.9,170.3,148.7,168.2,148.5z M158.7,153.8c1.3,0.2,2.5,0.3,3.8,0.3c1.7,0,3.3,0,4.8-0.1c-1.9,0.7-4.1,1-6.5,1
			c-0.8,0-1.5,0-2.3-0.1C158.5,154.6,158.6,154.2,158.7,153.8z M152.5,152.3c0.9,0.3,1.7,0.5,2.3,0.7c1.1,0.3,2.1,0.5,3.1,0.7
			c-0.1,0.4-0.2,0.8-0.2,1.2c-2.2-0.1-4.1-0.3-5.7-0.7C152.1,153.7,152.3,153,152.5,152.3z M146.5,150.1c0.5,0.2,1,0.4,1.5,0.6
			c1.4,0.5,2.6,1,3.7,1.4c-0.1,0.2-0.1,0.5-0.2,0.7c-0.1,0.4-0.2,0.9-0.3,1.3c-0.4-0.1-0.7-0.2-1.1-0.3c-1.4-0.4-2.4-0.7-3.1-0.8
			c-0.4-0.1-0.8-0.1-1.2-0.2C145.9,151.9,146.1,151,146.5,150.1z M141.5,152.5c0.1-0.6,0.3-1.2,0.4-1.9c0.2-0.6,0.3-1.2,0.5-1.8
			c0.9,0.3,2,0.6,3.2,1.1c-0.1,0.2-0.1,0.5-0.2,0.8c-0.1,0.8-0.2,1.4-0.3,2C144.1,152.6,142.9,152.5,141.5,152.5
			C141.6,152.5,141.5,152.5,141.5,152.5L141.5,152.5z M148.4,168.1c-2-1.6-3.7-3.4-5.1-5.6c-0.7-1-1.2-2-1.7-3
			c0.6-0.2,1.7-0.3,3.2-0.3c1.9,0,3.6,0.4,5.1,1.2c0.3,0.2,0.7,0.4,1.3,0.9c0.4,0.3,0.7,0.4,0.8,0.4c0.3,0,0.5-0.1,0.6-0.2
			c0.1-0.1,0.1-0.2,0.1-0.4c-0.3-0.7-0.9-1.3-2-1.9c-1.5-0.9-3.5-1.4-6-1.4c-1.9,0-3.1,0.2-3.7,0.6c-0.3,0.2-0.6,0.4-0.7,0.4
			c-0.4,0.1-1,0.2-1.8,0.2c-1.2,0-2.2-0.2-3-0.7c-0.6-0.4-0.9-0.8-0.9-1.2c0-0.8,0.2-1.4,0.7-1.8c1-0.9,3.1-1.4,6.2-1.4
			c2.1,0,3.8,0.1,5.1,0.4c0.6,0.1,1.6,0.4,3,0.8c2.6,0.8,6.3,1.3,11.2,1.3c6.9,0,11.8-2.7,14.8-8.1c1-1.8,1.7-3.8,2.2-6.1
			c0.3-1.4,0.4-2.7,0.4-3.8c0-1.9-0.1-3.3-0.2-4.1c-0.4-2.2-1.4-4.1-2.9-5.8c-4.5-5-13.5-7.5-27.1-7.5c-4.4,0-7.7,0.1-9.9,0.4
			c-2.3,0.2-3.7,0.4-4.4,0.4c-0.1,0-0.3-0.3-0.7-0.8c0.1-1.4,1.7-2.2,5-2.4c3.3-0.2,5.4-0.3,6.2-0.4c0.8,0,1.4-0.2,1.7-0.6
			c-0.4-0.2-0.7-0.4-0.9-0.5c-0.7-0.2-2-0.3-3.6-0.3c-1.5,0-2.8,0.1-4,0.3c-0.1-0.7-0.2-1.3-0.3-2c-0.1-0.6-0.1-1.1-0.2-1.7
			c-0.3-3.1-0.4-6.2-0.4-9.3c0.1-3.1,0.3-6.3,0.8-9.4c0.1-0.6,0.2-1.3,0.3-1.9c0.5,0.4,1.1,0.8,1.8,1.2c-0.7-0.4-1.2-0.9-1.8-1.4
			c0-0.2,0.1-0.3,0.1-0.4c1.1,1.1,2.4,1.8,3.9,2.1c-0.1-0.1-0.3-0.2-0.4-0.2c-0.9-0.4-1.8-0.9-2.7-1.5c-0.3-0.3-0.5-0.6-0.7-0.9
			c0-0.1,0-0.1,0-0.2c1,1.2,2.4,2,4,2.2c1.9,0.3,3.7-0.1,5.3-1.4c0.2-0.1,0.3-0.2,0.5-0.4c1.3-1.2,2.2-2.7,2.4-4.5
			c0.3-2-0.1-3.9-1.2-5.6c-1.1-1.7-2.7-2.7-4.6-3c-0.8-0.1-1.5-0.1-2.3,0c0.1-0.2,0.1-0.3,0.2-0.4l0.4-0.1l-0.2-0.1
			c-0.1,0-0.1,0-0.1,0c0.1-0.1,0.1-0.2,0.1-0.2c2.1-0.1,4,0.4,5.9,1.5c-0.9-0.7-1.8-1.3-2.9-1.7c-1-0.3-1.9-0.5-2.8-0.4
			c0.1-0.2,0.2-0.5,0.4-0.7c1.4-2.9,3.2-5.7,5.1-8.3c1.8-2.4,3.9-4.7,6.1-6.7c2.4-0.6,5.7-1,10.1-1.4l-0.3,0.2
			c-1,0.8-2.6,2.3-4.7,4.5c-2.5,2.6-3.8,4.1-3.8,4.7c0,0.3,0,0.4,0.1,0.4l0-0.1c0.2,0.2,0.6,0.3,1,0.3c0.6,0,1.4-0.3,2.6-0.8
			c1.1-0.6,4-1.5,8.6-2.8c4.6-1.4,9.6-2,14.9-1.8c-0.7,0.5-2.1,1.9-4.3,4c-2.4,2.4-3.6,3.7-3.6,4c0,0.3,0.1,0.6,0.1,0.7l0.7,0.1
			c0.3,0,0.7-0.1,1.4-0.3c0.4-0.1,1.1-0.4,2-0.7c2.1-0.7,4.3-1,6.5-1c8.4,0,13.8,3.3,16.2,9.9c0.8,2.1,1.2,4.6,1.3,7.3
			c-0.1,2.6-0.1,4.1-0.1,4.5c0,2.1-0.3,5.3-1,9.6c-0.1,0.9-0.3,2-0.5,3.3c0.1,0,0.1,0,0.2,0c-0.1,0.2-0.1,0.5-0.2,0.7
			c1.4,0,3.3,0.1,5.5,0.1c0-0.1,0-0.1,0-0.2c0-0.1,0-0.2,0-0.2c0,0,0,0,0.1,0.1c0.1-0.7,0.2-1.3,0.3-1.9c0.8-4.7,2.8-7,5.9-7
			c1.8,0,3,1,3.7,3.1c0.4,1.1,0.5,2.3,0.5,3.8c0,1.7-0.3,3.3-0.8,4.9c-1,3.2-2.8,4.8-5.3,4.8c-1.2,0-2-0.3-2.3-0.9
			c-0.1-0.3-0.2-0.5-0.3-0.6c-0.1-0.2-0.4-0.3-0.7-0.3c-0.3,0-0.4,0-0.5,0.1c0,0.1-0.1,0.2-0.2,0.3c0,0.7,0.1,1.2,0.3,1.5
			c0.1,0.1,0.2,0.2,0.3,0.3c0.6,0.6,1.7,0.9,3.2,0.9c0.4,0,0.7,0,1.1-0.1c0.5,3.9,1.3,7.3,2.6,10.1c1.4,3.1,4.8,4.7,10.1,4.7
			c1.3,0,2.5-0.2,3.6-0.5c-0.4,2.3-0.8,4.6-1.2,7c-0.3,1.4-0.6,2.8-0.9,4.2c-0.3,1.4-0.7,2.8-1.2,4.1c-0.6,1.8-1.2,3.6-1.9,5.4
			c-0.7,1.8-1.5,3.5-2.3,5.3c-0.6,1.2-1.3,2.4-2,3.6c-1.1,1.7-2.3,3.3-3.8,4.8c-1.6,1.7-3.4,3.3-5.4,4.7c-0.9,0.7-1.9,1.3-2.9,1.9
			c-0.5,0.2-0.9,0.4-1.4,0.6c-0.3,0.3-0.8,0.5-1.2,0.7c-0.1,0-0.1,0.1-0.1,0.1c-0.2,0.1-0.4,0.2-0.6,0.2c-1.9,0.8-3.8,1.3-5.8,1.7
			c-3.9,0.7-7.8,1.1-11.8,1.3c-3.9,0.2-7.8,0.3-11.7,0.1c-2.7-0.2-5.4-0.4-8-0.8c-2-0.3-4-0.7-6-1.1c-1-0.2-1.9-0.5-2.9-0.9
			c-1-0.3-1.9-0.7-2.8-1.2c-1.1-0.4-2-1-3-1.6C150.5,169.7,149.4,168.9,148.4,168.1z M160.6,175.4c-0.8,0.4-1.8,0.9-2.9,1.4
			c-3,1.5-5.1,2.7-6.3,3.6c-0.3,0.3-0.6,0.6-0.9,0.8c-1-3.4-1-6.8,0.1-10.1c2.8,1.6,5.8,2.9,9,3.9
			C159.9,175.3,160.2,175.4,160.6,175.4z M74.8,263.1v3.9c-2.9,1.9-6.7,2.9-11.2,2.9c-4.7,0-8.1-2.1-10.1-6.4c1,0,2-0.1,2.9-0.2
			c1.7,2.4,4.6,3.6,8.6,3.6C69,266.9,72.3,265.7,74.8,263.1C74.7,263.1,74.8,263.1,74.8,263.1L74.8,263.1z M74.8,260.8
			c-0.3,0.3-0.5,0.6-0.8,0.9c-2.3,2.5-5.3,3.8-9.2,3.8c-3,0-5.3-0.8-6.8-2.4c1.2-0.3,2-0.7,2.7-1.2c0.8-0.6,1.2-1.5,1.2-2.8
			c0-0.4-0.2-1-0.6-1.8c-0.1-0.1-0.1-0.3-0.2-0.4c0.4-0.2,0.8-0.4,1.1-0.8c0.5-0.5,0.7-1.1,0.7-1.8c0-0.5-0.2-1.1-0.7-1.8
			c-0.3-0.4-0.6-0.8-1-1c0.4-0.2,0.8-0.4,1.1-0.7c0.4,0.4,1.3,0.6,2.6,0.6c1.3-0.1,2.2-1,2.8-2.8c0.6-1.8,0.9-3.3,0.9-4.4
			c0-1.1,0-2,0.1-2.8c0.1-0.8-0.1-1.9-0.3-3.5c-0.2-1.6-1.3-2.4-3.3-2.4c-2,0-3.1,0.5-3.2,1.5c-0.1-0.2-0.3-0.3-0.4-0.4
			c-0.6-0.5-1.2-1-2-1.3c1.9-2.7,4.5-4.1,7.9-4.1c2.2,0,4.7,0.5,7.3,1.4L74.8,260.8z M61.5,243.3c0.4-0.3,0.7-0.7,1-1.1
			c0.3-0.7,0.5-1.4,0.5-2.3c0-0.6-0.1-1.1-0.3-1.6c0.2-0.5,0.3-0.9,0.6-1c0.2-0.1,0.9-0.2,2.3-0.3c1.3-0.1,2,0.6,2,2
			c0.1,1.4,0.1,2.4,0.1,2.9c0,0.5-0.1,1.1-0.1,1.9c0,1-0.1,1.9-0.2,2.7c-0.4,2.5-1.4,3.8-3,3.8c-0.2,0-0.5-0.1-0.8-0.3
			c-0.2-0.1-0.3-0.2-0.4-0.2c0.1-0.5,0.2-1,0.2-1.7C63.2,245.8,62.7,244.2,61.5,243.3z M67.8,226.7c2.5,0,4.7,0.4,6.8,1.2
			c0.1,0,0.1,0,0.2,0.1v3.4c-2.4-0.9-5.1-1.3-8.1-1.2c-3.8,0.2-6.6,1.8-8.3,4.9c-0.9-0.3-2-0.5-3.3-0.6
			C57.8,229.3,62.1,226.7,67.8,226.7z M51.5,235.9c0.4,0,0.9,0,1.5,0c3.3,0,5.7,0.6,7.2,1.7c1,0.7,1.4,1.5,1.4,2.3
			c0,0.1,0,0.2,0,0.3c0,2-1.2,2.9-3.4,2.9c-0.1,0-0.1,0-0.1,0c-0.1,0-0.1,0.1-0.2,0.1c0,0,0,0,0,0c0,0,0,0.1,0,0.1
			c0.9,0.1,1.7,0.4,2.4,1.1c0.4,0.4,0.7,0.8,0.9,1.3c0.1,0.2,0.2,0.4,0.3,0.7c0.2,0.4,0.4,0.9,0.4,1.5c0,0.1,0,0.2,0,0.3
			c0,0.2,0,0.5-0.1,0.7c0,0.1,0,0.1,0,0.2c0,0.2,0,0.3,0,0.3c-0.1,0.4-0.2,0.7-0.5,0.9c-0.4,0.3-0.9,0.6-1.5,0.7
			c-0.5,0.2-1.1,0.4-1.8,0.7c0,0,0,0-0.1,0c0,0,0,0.1,0,0.1c0.5,0.2,1.3,0.6,2.3,1.2c0.9,0.6,1.4,1,1.4,1.4c0,0,0,0.1,0,0.1
			c0,0,0,0.1,0,0.1c0,0.2-0.1,0.4-0.3,0.6c-0.3,0.3-0.8,0.6-1.4,0.9c-0.2,0.1-0.6,0.2-1.4,0.4c0,0,0,0,0,0c0,0,0,0.1,0,0.1
			c0.4,0.2,0.9,0.6,1.4,1.3c0.2,0.3,0.4,0.6,0.5,0.9c0.2,0.2,0.2,0.4,0.2,0.6c0,0.6-0.5,1.2-1.4,1.7c-1.4,0.8-3.5,1.2-6.2,1.2
			c-4.4,0-7.5-1.6-9.2-4.8c-0.9-1.7-1.3-3.7-1.3-6.1c0-0.8,0.2-1.9,0.6-3.4c0.3-1.4,0.6-2.5,1-3.3c0.5-1.3,1-2.2,1.4-2.8
			c0,0,0-0.1,0.1-0.1C47,239.3,49,237.4,51.5,235.9z M50.2,234.8c-0.3,0.1-0.5,0.3-0.8,0.5c-1.9,1.3-3.4,2.9-4.6,4.9
			c-0.1,0.1-0.1,0.2-0.2,0.3c-0.7,0.8-1.2,1.8-1.7,2.9c-0.7,1.8-1.2,3.7-1.5,5.6c-0.5-0.7-1-1.3-1.4-2.1c-0.4-0.6-0.7-1.3-0.9-2
			c0.2-1,0.4-1.9,0.7-2.8c1.8-5.7,5.3-9.1,10.3-10.1c-0.1,0.7-0.1,1.3,0,1.8C50.1,234.1,50.2,234.5,50.2,234.8z M124.2,193.4
			c-3.1,0.4-6.9,1-11.6,1.9c-11,2.2-20.4,4.8-28.1,8c-7.7,3.1-14.2,6.2-19.5,9.3c-5.3,3.1-8.9,6-10.8,8.8c-2,2.8-3.2,5.2-3.6,7.2
			c-0.1,0.7-0.2,1.3-0.3,1.9c-5.7,0.9-9.6,4.5-11.6,10.8c-0.1,0.4-0.2,0.8-0.3,1.2c-0.3-1.1-0.4-2.2-0.6-3.2
			c-0.2-2.4-0.2-4.9,0.2-7.3c0.2-1.3,0.5-2.7,0.8-4c0.8-3,2-5.8,3.8-8.3c0.6-0.9,1.3-1.7,1.9-2.5c5.1-6,11-11,17.7-15.2
			c8.4-5.3,17.3-9.6,26.7-12.9c2.4-0.8,4.8-1.7,7.3-2.5c15.7-5.2,31.8-7.9,48.3-8.1c0.2,0,0.3,0,0.5,0c-1.1,1.8-2.1,3.6-3,5.5
			c-1.3,2.7-2.7,5.4-4,8.1C131.8,192.6,127.2,193.1,124.2,193.4z M115,275.3c0.8-7.6,2.6-17.7,5.4-30.4c2.8-12.6,6.7-24.7,11.6-36.2
			c4.9-11.5,10-21.9,15.3-31.1c0.3-0.6,0.7-1.1,1-1.6c0,2.2,0.3,4.5,0.9,6.7c0.1,0.2,0.1,0.4,0.2,0.6c0.1,0.4,0.2,0.8,0.2,1.1
			c0.1,0,0.3,0.1,0.4,0.1c0.4-1.3,1.3-2.4,2.6-3.4c1-0.7,3.1-1.8,6.3-3.2c1.5-0.7,2.8-1.3,3.9-1.9c0.1,0,0.2,0.1,0.2,0.1
			c0,0,0,0.1,0,0.1c-5.9,10.1-11,20.5-15.4,31.3c-2.2,5.4-4.3,10.9-6.1,16.5c-3.1,9.2-5.7,17.7-8,25.7c-2.3,7.9-3.7,13.8-4.2,17.6
			c-0.3,2-0.4,3.8-0.4,5.4c-1.9,0.4-3.9,0.8-5.8,1.3c-0.8,0.2-1.5,0.4-2.3,0.6c-0.2-1-0.1-2.2,0.2-3.6c0.3-1.1,0.5-1.9,0.6-2.5
			c0.2-0.9,0.3-1.7,0.3-2.3c0-0.4-0.1-0.7-0.2-0.8h-0.5c0,1.4-0.1,2.7-0.4,3.9c-0.3,1.3-0.4,2.4-0.4,3.4c0,0.8,0,1.4,0.1,1.9
			c-2,0.6-3.9,1.2-5.8,1.9C114.9,276.2,114.9,275.8,115,275.3z M227.9,433.9c2.7,0.8,4.3,1.4,4.8,1.5c1.7,0.6,3.1,1.2,4.2,1.8
			c2.7,1.6,4,3.8,4,6.6c0,1.9-0.5,3.4-1.6,4.7c-0.7,0.8-1.9,1.8-3.7,2.9c-1.5,1-2.7,1.8-3.5,2.5c-0.2,0.2-0.4,0.4-0.6,0.6
			c-1.4,1.4-2.4,3.1-2.9,5.1c-0.2,0.6-0.2,1.3-0.2,2.2c0,0.5,0.1,1.3,0.1,2.3c0,1.8-0.7,3.2-2,4.2c-0.8,0.6-2.1,1.3-3.8,1.9
			c-1.2,0.5-1.9,1-2.1,1.6c-0.7,2.9-1.7,4.3-3.1,4.3c-1.7,0-3.1-0.6-4-1.7c-0.7-0.8-1-1.7-1-2.7c0-0.4,0.2-0.9,0.5-1.6
			c0.4-0.7,0.5-1.1,0.5-1.4c0-0.2,0-0.4-0.1-0.4c-0.1,0-0.1-0.1-0.1-0.1l-0.7-0.1c-0.6,0-1,0.5-1.3,1.4c-0.2,0.7-0.3,1.3-0.3,2.1
			c0,0.2,0,0.4,0,0.5c-0.3,0.4-0.8,0.4-1.6,0.1c-0.8-0.4-1.2-1-1.2-1.8c-0.1-0.8,0.4-1.5,1.2-2.2c0.9-0.7,1.3-1.1,1.3-1.3
			c0-0.2,0-0.4-0.1-0.4c-0.1,0-0.1-0.1-0.1-0.1l-0.8-0.1c-1.4,0.9-2.2,1.5-2.5,1.7c-0.4,0.4-0.6,1.1-0.6,2c0,0.1,0.1,0.3,0.2,0.6
			c0,0.1,0.1,0.1,0.1,0.2c0,0-0.1,0-0.1,0c-0.9,0-1.6-0.1-2-0.5c-0.5-0.4-0.7-0.9-0.7-1.6c0-0.5,0.4-1,1.2-1.5
			c0.8-0.5,1.2-0.9,1.2-1.1c0-0.2,0-0.4-0.1-0.4c-0.1,0-0.1-0.1-0.1-0.1l-0.8-0.1c-1.4,0.6-2.3,1.1-2.6,1.6c0,0.1,0,0.1-0.1,0.2
			c0-0.1,0-0.1,0-0.1c-0.1-0.2-0.1-0.4-0.1-0.6c0-1.5,0.8-2.8,2.5-3.9c0.6-0.4,1.4-0.8,2.5-1.2c0.6-0.3,1.6-0.7,2.9-1.2
			c2.5-1.1,4.3-2.2,5.4-3.5c0.8-0.9,1.4-1.9,1.8-3c0.4-1.2,0.7-2.8,0.8-4.7c0.1-2-0.6-4.1-2.2-6.5c-0.1-0.1-0.1-0.1-0.1-0.2
			c0,0,0,0,0,0c2.3-0.9,4.4-2.2,6.2-3.8c5,0.8,8,1.4,9,1.9c0.6,0.3,0.9,0.6,1,0.9c0.1,0.1,0.1,0.6,0.1,1.3c0,0.3,0,0.8-0.1,1.8
			c0,0.9,0.2,1.5,0.5,1.8c0.2,0,0.4-0.1,0.6-0.3c0.2-1.8,0.3-3,0.3-3.4c0-1.7-1.1-2.9-3.3-3.6c-0.7-0.2-1.8-0.5-3.4-0.8
			c-1.7-0.3-2.9-0.6-3.6-0.7c1.1-1.2,2.1-2.5,3-4C227.3,433.8,227.6,433.8,227.9,433.9z M195.6,353.1c-0.7,2.2-1.3,4.4-1.8,6.7
			c-0.7,2.9-1.4,5.7-2,8.6c-0.7,3.2-1.3,6.4-1.8,9.7c-0.5,3.3-0.9,6.6-1.1,10c-0.2,2.2,0,4.3,0.6,6.4c0.5,2,1.4,3.8,2.8,5.4
			c2,2.4,4.2,4.8,6.6,7c2.4,2.3,4.8,4.5,7.2,6.7c0.9,0.9,1.9,1.7,2.9,2.4c2.7,2,5.5,3.8,8.4,5.5c2.7,1.5,5.5,2.9,8.4,4
			c0.9,0.4,1.8,0.7,2.8,1c-0.4,1.7-1.1,3.3-1.8,4.8c-3.2,6.5-8.6,10.3-16.2,11.3c-1-2.5-2.4-4.7-4.1-6.8c-2-2.3-4.8-5.2-8.4-8.7
			c-3.5-3.4-6.5-6.3-8.7-8.8c-4.1-4.5-7-7.7-8.6-9.4c-2.6-2.9-4.5-5.3-5.7-7.1c-1.5-2.2-2.5-4.4-3.2-6.6c-0.7-2.3-1-4.9-1-7.9
			c0-11.1,2-23.7,6-37.8c1-3.3,1.8-6.1,2.5-8.4c4.5,1.1,9,2,13.6,2.7c1.8,0.3,3.7,0.5,5.6,0.8C197.5,347.4,196.5,350.2,195.6,353.1z
			 M321.2,321.5c-3.7,5.7-7.6,10.6-11.7,14.8c-4,4.2-9.2,7.1-15.3,8.8c-6.2,1.7-12.3,2.5-18.5,2.6c-6,0.1-11.9-0.1-17.9-0.5
			c-7.5-0.4-14.9-0.7-22.4-1c-7.9-0.4-15.8-0.9-23.7-1.5c-5.7-0.5-11.5-1.2-17.2-2.1c-5.5-0.8-11-1.9-16.4-3.2
			c-6-1.4-12-3.3-17.8-5.5c-7.6-2.9-14.6-6-20.9-9.5c-6.3-3.4-11.6-7.6-15.7-12.6c-4.1-5-6.6-9.6-7.4-13.9
			c-0.2-0.8-1.2-16.8-1.2-18.1l6.1-1.7c0-0.1-0.1-0.1-0.1-0.1c-2.8-0.1-5.5,0.6-8.1,1.8l0.3,0.7l0.7-0.2c0,0.4-0.1,0.8-0.1,1.2
			c-0.6,0-1.1,0-1.6,0c-0.5-0.1-0.9-0.2-1.3-0.3c-0.1-0.1-0.2-0.1-0.3-0.2l-0.1-0.7c1.4-1,3.5-2,6.3-3c2.8-1,7.9-2.1,15.3-3.4
			c-0.2,0.1-0.3,0.1-0.5,0.1c2.2-0.5,4.3-0.9,6.4-1.2c1.6-0.2,3.2-0.5,4.7-0.7c2.3-0.3,4.5-0.6,6.8-0.8c2.4-0.2,4.9-0.4,7.4-0.6
			c3.6-0.2,7.2-0.4,10.7-0.5c3.9-0.1,7.9-0.2,11.8-0.2c2.5,0,5.1,0,7.6,0.1c1.5,0.1,3.1,0.1,4.6,0.2c2.4,0.1,4.7,0.2,7.1,0.4
			c2.5,0.1,4.9,0.3,7.3,0.6c1.7,0.2,3.9,0.4,6.7,0.7c2.8,0.3,5.4,0.6,7.9,1c2.4,0.3,8.9,1.2,19.6,2.6c10.4,1.5,17.7,2.6,21.9,3.5
			c3,0.6,5.4,1.2,7.4,1.9c0,0-0.1,0-0.1,0c0.1,0,0.2,0,0.3,0.1c0.7,0.2,1.3,0.5,1.8,0.7c2.1,0.9,3.3,1.8,3.6,2.5
			c0.3,0.8,0.3,1.3-0.2,1.5c-0.9,0.3-2,0.3-3.3,0c-0.1,0-0.2-0.1-0.5-0.1c0-0.4,0.1-0.9,0.1-1.3c1.7,0.6,2.1,0.6,1-0.3
			c-1-0.8-2.3-1.4-3.8-1.8c-1.5-0.4-2.5-0.4-3,0c2,0.4,3.6,0.8,4.6,1.4c-0.2,1.9-6.9,22.7-8.3,25c-2.9,4.7-6.4,8.8-10.6,12.3
			c-3.9,3.3-8.2,5.7-12.9,7.2c-2-0.4-4-0.8-6.1-1.1l-0.1,0.6c2.9,1,5.9,1.8,9,2.5c2.9,0.6,5.8,1.1,8.6,1.5c3.2,0.4,6.3,0.8,9.5,1
			c3.2,0.2,6.8,0.4,10.8,0.6c4,0.2,7.1,0.2,9.1,0.2c2-0.1,4.1-0.2,6.2-0.3c2.1-0.1,4.8-0.6,8.1-1.4c1.3-0.3,2.6-0.9,3.7-1.6
			c1.8-1.1,3.4-2.5,4.8-4.1c2.1-2.4,4-5,5.7-7.8c1.7-2.7,3.1-5.6,4.4-8.6c1.2-2.7,2.3-5.5,3.5-8.2c0.8-2,1.7-4.4,2.7-7.2
			c1-2.9,1.9-5.6,2.7-8.1c0.6-1.9,1.2-4.3,1.7-7.3c0.1,0,0.2,0,0.3,0c8.5,0,14.5,2.7,18.1,8.2c-0.5,0.9-1,1.8-1.5,2.7
			c-2.5,4.7-5,9.3-7.6,13.9C328.6,309.8,325,315.8,321.2,321.5z M350.2,296.9c-0.4,3.8-1.3,5.8-2.8,6c-1.5,0.2-2.4,0.2-2.6-0.1
			c-0.3-0.3-0.4-0.4-0.4-0.4c-0.1,0-0.1,0-0.1-0.1l-0.1,0c-0.7-0.4-1.1-1.2-1.1-2.2c0-0.2,0.1-0.6,0.3-1.1c0.2-0.6,0.3-0.9,0.3-1.1
			c0-0.4-0.2-0.8-0.7-0.9c-0.6,0.5-0.9,1-1.1,1.5c-0.1,0.2-0.1,0.7-0.1,1.5c0,1.3,0.4,2.4,1.1,3.1c-0.2,0.2-0.6,0.3-1.2,0.3
			c-0.9,0-1.5-0.3-1.8-0.9c-0.1-0.2-0.1-0.7-0.1-1.5c0.3-2,0.2-3-0.4-3c-0.5,0-0.8,0.4-0.9,1.2c0,0.1,0,0.7,0,1.9c0,0,0,0.2-0.1,0.6
			c0,0.5,0,0.9,0.1,1.3c0.1,0.4,0.3,0.7,0.6,1c0,0,0,0,0,0c0.1,0.3,0.1,0.5-0.1,0.7c-0.3,0.5-1.3,0.8-3.1,0.8c-1.2,0-2.1-0.4-2.8-1
			c2.5-4.5,5-9,7.4-13.6c0.8-1.5,1.6-3,2.3-4.6c-0.3-0.2-0.5-0.5-0.7-0.9c0,0,0,0,0,0.1c-0.8-1.2-1.8-2.2-2.8-3.2
			c0.9-1.1,1.7-2.2,2.6-3.2c-0.1-0.2-0.1-0.3-0.2-0.3c-0.1-0.1-0.4,0-1,0.5c-0.4,0.4-1.3,1.1-2.5,2.1c-1-0.7-2.2-1.4-3.4-1.9
			c0.7-0.6,1.2-1,1.5-1.4c0.6-0.7,0.9-1.4,0.9-2.2c0-0.7-0.2-1.7-0.5-2.9c-0.3-1.2-0.5-2-0.5-2.5c0-0.1,0-0.3,0-0.4
			c0-0.3,0.1-0.6,0.2-0.9c0.4-0.8,1.3-1.3,2.6-1.3c0.5,0,1.6,1.1,3.3,3.4c0.4,0,0.6-0.1,0.6-0.2c0-0.3,0.1-0.6,0.1-0.9
			c0-0.1-0.1-0.2-0.3-0.6c-0.3-0.4-0.6-0.9-0.9-1.2c-1.1-1.2-2.1-1.8-3.2-1.8c-1.8,0-2.9,0.6-3.4,1.6c-0.2,0.4-0.3,1.1-0.3,2.2
			c0,0.7,0.2,1.7,0.5,2.9c0.4,1.2,0.5,2,0.5,2.7c0,0.5-0.3,1.1-0.9,1.6c-0.1,0.1-0.7,0.6-1.8,1.4c-1.9-0.7-4.1-1.2-6.5-1.4
			c0.7-1.7,1.5-3.9,2.5-6.4c-0.2-0.7-0.2-2.5,0.1-5.6c0.3-3,2.8-4.1,7.5-3.2c4.7,0.9,8.2,4.8,10.4,11.7c2.3,6.9,3.4,11.6,3.4,13.9
			c0,2.1,0,3.1,0,3.1C350.7,291.1,350.6,293.2,350.2,296.9z"/>
		<path fill="#FDCF9D" d="M228.2,15.3c0.6,0.3,1.1,0.5,1.3,0.6c0.3,0.1,1.4,0.5,3.4,1c2,0.6,3.7,1.4,5.2,2.5
			c-0.2-0.5-0.4-0.8-0.8-1.2c-0.5-0.4-1.3-0.9-2.5-1.3c-1.2-0.5-2.1-0.9-2.5-1.3c-0.8-0.7-1.2-1.7-1.2-2.9c0-0.1,0-0.3,0-0.6
			c-0.2,0-0.4,0-0.6,0c-1.3,0-2.2,0.2-2.6,0.7c-0.5,0.4-0.7,0.7-0.7,1c-0.1,0.2-0.1,0.5,0,0.8C227.2,14.7,227.6,15,228.2,15.3z"/>
		<radialGradient id="SVGID_1_" cx="77.4523" cy="153.2973" r="133.9476" gradientUnits="userSpaceOnUse">
			<stop  offset="0" style="stop-color:#FAE3CC"/>
			<stop  offset="1" style="stop-color:#FDCF9D"/>
		</radialGradient>
		<path fill="url(#SVGID_1_)" d="M232.7,25.6c0.9-0.4,1.9-0.7,3-0.7c0.9,0,1.6,0.1,2.2,0.2c0.1-0.4,0.2-0.9,0.3-1.5
			c0.3-1,0.4-1.8,0.4-2.2c-1.3-1.5-3.1-2.6-5.2-3.2c-2.7-0.8-4.4-1.3-5.2-1.7c-0.7-0.3-1.3-0.6-1.7-0.9c-0.2-0.1-0.3-0.3-0.4-0.5
			c-0.7,0.1-1.4,0.2-2.1,0.4c-0.7,0.2-1.3,0.6-1.6,1.3c-0.1,0.2-0.1,0.4-0.1,0.6c0.2,0.8,1.3,1.3,3.1,1.4c1.8,0.1,3.7,0.5,5.7,1.2
			c2,0.7,3.7,1.8,5.3,3.4c0.1,0.6-0.3,0.6-1.1,0c-0.7-0.8-2-1.6-3.8-2.3c-1.8-0.8-4.3-1.2-7.3-1.2c-0.9-0.1-1.6-0.3-2-0.4
			c-0.2-0.1-0.3-0.1-0.4-0.2c-0.2,0.2-0.3,0.4-0.3,0.7c0,0.1,0,0.4,0,0.9c0,0.8,0.4,1.3,1.1,1.4c0.8,0.2,2.2,0.3,4.3,0.5
			c2.1,0.2,3.6,0.7,4.6,1.5C232,24.6,232.4,25.1,232.7,25.6z"/>
		<radialGradient id="SVGID_2_" cx="77.4527" cy="153.2977" r="133.9475" gradientUnits="userSpaceOnUse">
			<stop  offset="0" style="stop-color:#FAE3CC"/>
			<stop  offset="1" style="stop-color:#FDCF9D"/>
		</radialGradient>
		<path fill="url(#SVGID_2_)" d="M249.4,43.5c2.4-0.6,4.6-1.8,6.6-3.6c0.6-0.5,1-1,1.5-1.6c-0.6-0.6-1.1-1.2-1.7-1.9
			c-1.5-1.7-2.9-3.2-3.9-4.4c0,0,0,0-0.1,0c0-0.1-0.1-0.1-0.1-0.2c-1.7-2-2.7-3.2-3.1-3.8c-0.6-0.9-1.6-2.8-3.2-5.7
			c-1.6-3-3.6-5.7-6.2-8.2c-2.6-2.5-4.8-3.4-6.7-2.5c-0.1,0.3-0.1,0.6-0.1,1.1c0,0.8,0.4,1.4,1.2,1.9c0.1,0.1,0.9,0.5,2.5,1.2
			c1.2,0.5,2,1.1,2.5,1.8c0.8,0.9,1.1,2.2,1.1,3.7c-0.5,2.7-0.8,4.2-0.8,4.5c0,0,0.1,0.1,0.1,0.1c0.2,0.2,0.2,0.4,0.3,0.7
			c0,0.2,0,0.6,0.1,1.1c0,0.1,0,0.1,0,0.2c0.1,0.3,0.3,0.6,0.5,0.9c1.2,1.7,3.2,2.3,6.1,1.8c0.1-0.1,0.1,0.1,0.1,0.5
			c0,0.3-0.1,0.5-0.4,0.6c-0.2,0.1-0.5,0.1-1.1,0.1c-2.9,0-4.9-0.8-6.1-2.5c-0.1,0.1-0.2,0.2-0.3,0.3c-0.8,0.7-1.3,1.2-1.5,1.4
			c1.3,0.2,2.5,0.7,3.6,1.4c0.7,0.4,1.2,0.8,1.7,1.2c0.4,0.4,0.6,0.6,0.6,0.8c0,0.3,0,0.4,0,0.4c-0.1,0-0.1,0-0.1,0c0,0,0,0,0,0
			c-0.3-0.2-0.6-0.3-0.9-0.5c-1.2-0.7-2.1-1.2-2.8-1.5c-1.4-0.5-3-0.8-4.9-0.8c-0.4,0-0.7,0-0.9,0.1c0-0.1,0-0.2,0-0.4
			c0-0.2,0.1-0.3,0.2-0.4c1.2,0,2.3-0.5,3.5-1.6c1-0.9,1.5-1.7,1.5-2.2c0-0.7-0.5-1.1-1.5-1.1c-0.3,0-0.5,0-0.8,0.1
			c-0.1,0-0.2,0-0.3,0c-2,0-3.6,1.1-4.7,3.2c-0.7,1.4-1.1,2.6-1.1,3.6c0,2,1,3.3,2.9,4c1.1,0.4,3.2,0.6,6.4,0.8
			c3,0.2,5.4,0.8,7.2,1.9C247.4,40.6,248.4,41.8,249.4,43.5z"/>
		<path fill="#086A73" d="M248.2,43.8c-0.7-0.9-1.4-1.7-2.4-2.4c-1-0.7-2.1-1.3-3.4-1.7c-0.3,0.6-0.4,1.1-0.4,1.6c0,0.3,0,0.5,0,0.7
			c0,0.3,0.1,0.6,0.2,0.9c0.4,0.7,1.6,1.1,3.4,1.1C246.5,44,247.3,43.9,248.2,43.8z"/>
		<path fill="#086A73" d="M263,43.4c0.5-1.1,0.9-2.2,1.1-3.5c-1.2-1.8-2.3-3.4-3.4-4.9l-0.1,0.1c0,0.7-0.3,1.6-0.9,2.7
			c-0.7,1.2-1.7,2.4-2.8,3.4c-3.1,2.8-6.9,4.2-11.3,4.2l-0.1,0.1c1.6,1.2,3.1,2.5,4.5,3.9c0.1,0,0.2,0,0.3,0
			C256.7,49.5,261,47.5,263,43.4z"/>
		<path d="M154.9,59.7c0.1,0,0.1,0,0.2,0.1c3.1-0.7,6.2-1,9.3-1c1.1,0,1.8,0.1,2.1,0.3c0.1,0.1,0.1,0.2,0.1,0.3
			c0,0.2-1.2,1.4-3.7,3.7c-2.7,2.5-4.3,4.3-4.9,5.5l0,0.1c0.4-0.2,1.2-0.6,2.6-1.2c1.5-0.7,3.1-1.2,4.7-1.7
			c4.9-1.5,10.4-2.2,16.4-2.2c1.7,0,2.7,0.1,3.2,0.3c0.1,0.1,0.2,0.1,0.2,0.2c-0.1,0.1-0.1,0.1-0.1,0.1c0,0.2-1,1.3-2.9,3.2
			c-2.2,2.2-3.6,3.6-4.3,4.2c0.1,0,0.8-0.2,1.9-0.6c1.6-0.4,3.5-0.6,5.8-0.6c8.3,0,13.7,2.5,16.3,7.6c1,1.9,1.7,4.4,2,7.4
			c0.2,1.7,0.3,4.4,0.3,8.1c0,2.4-0.4,6.5-1.4,12.4c1,0,2,0,2.9,0c1-6.1,3.5-9.2,7.3-9.2c2.6,0,4.3,1.4,5.1,4.1
			c0.3,0.8,0.4,1.8,0.4,2.8v1.3c0,2.4-0.3,4.4-0.8,5.9c-0.7,2-1.7,3.5-3.1,4.3c-0.4,0.2-0.8,0.4-1.3,0.6c0.1,1.4,0.2,2.6,0.4,3.5
			c1.2,6.7,4.5,10.1,9.9,10.1c1.8,0,3.4-0.3,5-0.8c0.6-4.5,1.1-8.9,1.5-13.4c0.5-6,0.6-12.1,0.6-18.1c-0.1-7.4-1.2-14.6-3.1-21.7
			c-1.3-4.8-3.4-9.3-6.1-13.5c-1.4-2.1-3-4-4.7-5.8c-2.5-2.5-5.3-4.6-8.5-6.4c-2-1.1-4.1-2.1-6.3-2.9c-3-1.1-6.1-1.9-9.3-2.4
			c-2.7-0.3-5.3-0.5-8-0.5c-2.3,0-4.7,0.1-7.1,0.2c-1.6,0.1-3.2,0.3-4.8,0.4c-1.6,0.2-3.2,0.4-4.8,0.6c-2.4,0.3-4.8,0.8-7.1,1.3
			c-4.6,1-9.1,2.3-13.5,4c-3.8,1.4-7.5,3-11.2,5c-0.4,0.2-0.7,0.4-1.1,0.6c-0.5,0.3-0.9,0.6-1.4,0.9c-0.8,0.6-1.5,1.1-2.3,1.7
			c2-0.8,4-1.5,6-2.2c0.5-0.2,0.9-0.3,1.4-0.4c2.8-0.8,5.1-1.2,7.1-1.3c0-0.1,1-0.1,2.9-0.1c1.9,0,3,0.1,3.4,0.3
			c0.2,0.1,0.2,0.1,0.2,0.2c0,0.1-0.1,0.1-0.1,0.1c0,0.1-0.2,0.4-0.7,0.8c-0.2,0.2-0.5,0.4-0.7,0.6c-1.5,1-2.7,1.9-3.6,2.6
			c-3.8,2.8-6.4,5.1-7.8,6.8l0,0.1c0.2-0.1,1.1-0.6,2.6-1.4c1.8-0.9,3.5-1.8,5.2-2.5c2.4-1,4.9-1.8,7.3-2.3
			C154.7,59.8,154.8,59.8,154.9,59.7z"/>
		<path fill="#FDCF9D" d="M139.5,66.1C139.6,66.1,139.6,66.1,139.5,66.1L139.5,66.1L139.5,66.1z"/>
		<path fill="#FDCF9D" d="M158,68.6C158.1,68.6,158.1,68.6,158,68.6L158,68.6L158,68.6z"/>
		<path fill="#086A73" d="M258.2,37.3c0.1-0.1,0.2-0.3,0.3-0.4c0.6-0.9,0.8-1.5,0.8-1.9c0-0.8-0.2-1.4-0.7-2
			c-0.8-0.9-2.1-1.4-3.9-1.4c-0.4,0-0.9,0.1-1.4,0.1c1.3,1.5,2.8,3.2,4.4,5C257.8,37,258,37.1,258.2,37.3z"/>
		<path fill="#1CB1BF" d="M216.2,164.9c-2,2.3-4.2,4.2-6.7,5.9c-1.4,0.9-2.9,1.8-4.5,2.5c-2.6,2.2-5.3,4.2-8.1,6.1
			c-4.9,3.3-10.1,6.2-15.6,8.6c-3.5,1.5-7.1,2.7-10.8,3.4c0,0-0.1,0.1-0.1,0.1c-0.5,0.1-0.9,0.2-1.3,0.5c0.3-0.8,0.4-2.2,0.4-4
			c0-2.2-0.5-4.3-1.5-6.3c-0.8-1.4-1.9-3-3.4-4.8c-0.1-0.1-0.2-0.2-0.3-0.3c-2,3.6-4,7.2-6,10.9c-3.5,6.7-6.6,13.5-9.3,20.5
			c-2.9,7.5-5.7,15.3-8.3,23.4c-2.7,8.2-5.3,17.1-7.8,26.7c-1.7,6.5-2.7,11.3-2.8,14.4c0.6-0.1,1.2-0.2,1.8-0.3
			c3.2-0.6,6.4-1.1,9.7-1.5c2.4-0.3,4.8-0.5,7.1-0.8c2.2-0.2,4.4-0.3,6.6-0.5c0-0.4-0.1-1-0.1-1.6c0-1.8,0.2-3.4,0.6-4.8
			c0.6-1.8,1.2-3.6,1.6-5.4h0.4c0.1,0.1,0.2,0.4,0.2,0.9c0,0.6-0.3,1.7-0.9,3.3c-0.7,1.7-0.9,2.7-1,2.7c-0.2,1-0.3,2.7-0.4,4.9
			c0.2,0,0.4-0.1,0.7-0.1c2.7-0.2,5.5-0.3,8.2-0.4c2.9-0.1,5.8-0.2,8.7-0.2c2.3-0.1,4.6-0.1,6.9-0.1c0.8,0,1.5,0,2.3,0
			c0-0.1,0-0.3,0-0.4c0-0.8,0.3-2.6,0.9-5.3c0.7-3.1,1.3-5,1.9-5.7l0.1-0.1c0.1,0,0.1,0.2,0.1,0.4c0,0.1-0.4,1.6-1.2,4.5
			c-0.7,2.6-1.1,4.8-1.2,6.5c2.2,0,4.4,0.1,6.6,0.1c3.4,0.1,6.9,0.3,10.3,0.6c2.8,0.2,5.5,0.4,8.3,0.7c0.8,0.1,1.7,0.2,2.6,0.3
			c0.1-0.9,0.2-2.2,0.5-3.6c0.3-2.1,0.5-4,0.5-5.8h0.4c0.1,0.9,0.2,2.3,0.2,4c0,0.6-0.1,1.7-0.4,3.1c-0.2,0.9-0.3,1.7-0.3,2.5
			c1.7,0.2,3.5,0.4,5.3,0.6c3.1,0.4,6.1,0.8,9.2,1.2c1.4,0.2,1.5,0.2,0.6,0.1l15.2,2.3c0-1,0.1-2.4,0.4-4.1c0.3-2.2,0.4-3.8,0.5-4.7
			h0.4c0.1,0.7,0.2,1.6,0.2,2.8c0,1.8,0,2.9-0.1,3.1c-0.1,0.7-0.3,1.7-0.6,3l15.8,2.4c0.4,0.1,1.2,0.2,2.3,0.4
			c1.1-0.6,1.8-1.3,2.2-2c0.2-0.3,0.3-1.4,0.4-3.1c0.1-1.3,0.1-2.3,0.1-3c0-2.3,0-3.6-0.1-3.9c0-0.4-0.3-2.1-0.7-5.2v-2.7h0.4
			c0.4,3.1,0.7,5.4,0.9,6.9c0,0.3,0.1,1.9,0.1,4.9c0,2.6-0.1,4.4-0.3,5.4c-0.2,1.2-0.6,2.1-1.3,2.6c-0.1,0.1-0.3,0.2-0.5,0.3
			c0.2,0.1,0.4,0.1,0.6,0.1c2.1,0.4,3.3,0.6,3.4,0.7c0.2,0.1,0.4,0.2,0.7,0.2c1,0.3,2,0.7,3,1.1c0.3,0.1,0.6,0.2,0.8,0.3
			c1.1-1,1.8-2.7,2.1-5.2c0.6-4.1,0.8-8.3,0.7-12.5c-0.1-4.2-0.4-8.4-0.8-12.4c-0.5-4-1.3-9.1-2.6-15.1c-1.3-6-2.5-11-3.7-15
			c-1.2-4-2.9-8.6-5-13.6c-2.1-5-4.9-10.5-8.3-16.3c-2-3.4-4.3-6.8-6.9-10.1c-0.7,0.6-1.4,1.2-2.1,1.9c-5.7,5-11.7,9.9-17.9,14.4
			v-1.9c10.6-7,20.1-15.2,28.3-24.8c6-6.9,11.2-14.3,15.8-22.2c2.7-4.6,4.9-9.4,6.6-14.4c2.7-7.7,4.3-15.6,5-23.7
			c0.8-10.1,0.1-20.1-2-30c-2-9.4-5-18.3-9-26.7c-2-4.2-3.9-7.9-5.9-11.1c-0.3,1.1-0.7,2.2-1.2,3.1c-2.2,4-6.4,6.1-12.6,6.3
			c1.9,2.1,3.7,4.4,5.2,6.8c3.8,6.1,6.9,14,9.1,23.7c2.2,9.6,2.7,20.3,1.4,32c-0.8,6.8-3,14.4-6.9,22.9c-3.9,8.4-9.7,16.6-17.4,24.5
			c-7.7,7.9-16.8,14.4-27.1,19.5l-0.3-0.2l0-0.4c1.7-0.9,3.4-1.8,5-2.9c4.9-2.9,9.4-6.1,13.7-9.7c-2.8-2.3-5.5-3.9-8-4.9
			c-2.3-0.9-4.3-1.6-6-2.2C218.9,161.7,217.6,163.3,216.2,164.9z M137.3,268.3c-0.4,0.6-1,0.8-1.8,0.8c-1,0-1.7-0.4-2-1.1
			c-0.1-0.2-0.2-0.5-0.3-0.8c0-0.1,0-0.3,0-0.4c0-0.5,0.2-1,0.6-1.5c0.4-0.6,1-0.8,1.8-0.8c0.9,0,1.5,0.4,2,1.2
			c0.2,0.4,0.3,0.8,0.3,1.2C137.8,267.3,137.7,267.8,137.3,268.3z M144.7,245.7c-0.4,0.6-1,0.8-1.8,0.8c-1,0-1.7-0.4-2-1.1
			c-0.1-0.2-0.2-0.5-0.2-0.8c0-0.1,0-0.3,0-0.4c0-0.5,0.2-1,0.6-1.5c0.4-0.6,1-0.8,1.8-0.8c0.9,0,1.5,0.4,1.9,1.1
			c0.2,0.4,0.3,0.8,0.3,1.2C145.2,244.8,145,245.2,144.7,245.7z M151.7,223.9c-0.4,0.6-1,0.8-1.8,0.8c-1,0-1.7-0.4-2-1.1
			c-0.1-0.2-0.2-0.5-0.2-0.8c0-0.1,0-0.3,0-0.4c0-0.5,0.2-1,0.6-1.5c0.4-0.6,1-0.9,1.7-0.9c0.9,0,1.6,0.4,2,1.2
			c0.2,0.4,0.3,0.8,0.3,1.2C152.3,223,152.1,223.5,151.7,223.9z M159.1,204.5c-0.4,0.6-1,0.8-1.8,0.8c-1,0-1.7-0.4-2-1.1
			c-0.1-0.2-0.2-0.5-0.2-0.8c0-0.1,0-0.3,0-0.4c0-0.5,0.2-1,0.5-1.5c0.4-0.6,1-0.9,1.8-0.9c0.9,0,1.6,0.4,2,1.2
			c0.2,0.4,0.3,0.8,0.3,1.2C159.6,203.6,159.5,204,159.1,204.5z M165.1,187.7c-0.4,0.6-1,0.8-1.8,0.8c-1,0-1.7-0.4-2-1.1
			c-0.1-0.2-0.2-0.5-0.2-0.8c0-0.1,0-0.3,0-0.4c0-0.5,0.2-1,0.6-1.5c0.4-0.6,1-0.9,1.7-0.9c0.9,0,1.6,0.4,2,1.2
			c0.2,0.4,0.3,0.8,0.3,1.2C165.7,186.8,165.5,187.2,165.1,187.7z"/>
		<path d="M163.3,183.9c-0.7,0-1.3,0.3-1.7,0.9c-0.4,0.4-0.6,0.9-0.6,1.5c0,0.1,0,0.3,0,0.4c0,0.3,0.1,0.6,0.2,0.8
			c0.4,0.7,1.1,1.1,2,1.1c0.8,0,1.4-0.3,1.8-0.8c0.4-0.4,0.5-0.9,0.5-1.4c0-0.4-0.1-0.8-0.3-1.2
			C164.9,184.3,164.3,183.9,163.3,183.9z M164.3,187.1c-0.3,0.4-0.7,0.5-1.2,0.5c-0.7,0-1.2-0.3-1.4-0.8c-0.2-0.3-0.2-0.6-0.2-0.9
			c0-0.4,0.2-0.7,0.4-1.1c0.3-0.3,0.7-0.5,1.2-0.5c1,0,1.6,0.6,1.7,1.7C164.7,186.4,164.6,186.8,164.3,187.1z"/>
		<path fill="#239DC4" d="M163.1,184.3c-0.4,0-0.8,0.2-1.2,0.5c-0.3,0.3-0.4,0.7-0.4,1.1c0,0.3,0.1,0.6,0.2,0.9
			c0.3,0.5,0.7,0.8,1.4,0.8c0.5,0,0.9-0.2,1.2-0.5c0.3-0.3,0.4-0.7,0.4-1.1C164.7,184.9,164.1,184.3,163.1,184.3z"/>
		<path d="M157.3,200.7c-0.7,0-1.3,0.3-1.8,0.9c-0.3,0.4-0.5,0.9-0.5,1.5c0,0.1,0,0.3,0,0.4c0,0.3,0.1,0.6,0.2,0.8
			c0.4,0.7,1.1,1.1,2,1.1c0.8,0,1.3-0.3,1.8-0.8c0.4-0.5,0.5-0.9,0.5-1.4c0-0.4-0.1-0.8-0.3-1.2
			C158.9,201.1,158.2,200.7,157.3,200.7z M158.3,204.1c-0.3,0.4-0.7,0.5-1.2,0.5c-0.7,0-1.2-0.3-1.4-0.8c-0.1-0.2-0.2-0.6-0.2-0.9
			c0-0.4,0.2-0.7,0.4-1.1c0.3-0.3,0.7-0.5,1.2-0.5c1,0,1.6,0.6,1.7,1.7C158.7,203.5,158.6,203.8,158.3,204.1z"/>
		<path fill="#239DC4" d="M157,201.4c-0.4,0-0.8,0.2-1.2,0.5c-0.3,0.3-0.4,0.7-0.4,1.1c0,0.3,0.1,0.7,0.2,0.9
			c0.3,0.5,0.8,0.8,1.4,0.8c0.5,0,0.9-0.2,1.2-0.5c0.3-0.3,0.4-0.7,0.4-1.1C158.6,201.9,158.1,201.4,157,201.4z"/>
		<path d="M150,220.2c-0.7,0-1.3,0.3-1.7,0.9c-0.4,0.4-0.6,0.9-0.6,1.5c0,0.1,0,0.3,0,0.4c0,0.3,0.1,0.6,0.2,0.8
			c0.4,0.7,1,1.1,2,1.1c0.8,0,1.4-0.3,1.8-0.8c0.4-0.4,0.5-0.9,0.5-1.4c0-0.4-0.1-0.8-0.3-1.2C151.5,220.6,150.9,220.2,150,220.2z
			 M150.6,223.6c-0.3,0.4-0.7,0.5-1.2,0.5c-1.1,0-1.6-0.6-1.6-1.7c0-0.4,0.2-0.7,0.4-1.1c0.3-0.3,0.7-0.5,1.2-0.5
			c1,0,1.5,0.6,1.7,1.7C151.1,222.9,150.9,223.3,150.6,223.6z"/>
		<path fill="#239DC4" d="M149.4,220.8c-0.4,0-0.8,0.2-1.2,0.5c-0.3,0.3-0.4,0.7-0.4,1.1c0,1.1,0.6,1.7,1.6,1.7
			c0.5,0,0.9-0.2,1.2-0.5c0.3-0.3,0.5-0.7,0.5-1.1C151,221.4,150.4,220.8,149.4,220.8z"/>
		<path d="M142.9,241.9c-0.7,0-1.3,0.3-1.8,0.8c-0.4,0.5-0.6,1-0.6,1.5c0,0.1,0,0.3,0,0.4c0.1,0.3,0.1,0.5,0.2,0.8
			c0.4,0.7,1.1,1.1,2,1.1c0.7,0,1.3-0.3,1.8-0.8c0.4-0.4,0.5-0.9,0.5-1.4c0-0.4-0.1-0.8-0.3-1.2
			C144.4,242.3,143.8,241.9,142.9,241.9z M143.6,245.3c-0.3,0.3-0.7,0.5-1.2,0.5c-0.7,0-1.2-0.3-1.4-0.8c-0.1-0.3-0.2-0.6-0.2-0.9
			c0-0.4,0.2-0.7,0.5-1.1c0.3-0.3,0.7-0.5,1.2-0.5c1,0,1.5,0.6,1.6,1.7C144,244.7,143.8,245,143.6,245.3z"/>
		<path fill="#239DC4" d="M142.4,242.6c-0.5,0-0.9,0.2-1.2,0.5c-0.3,0.3-0.5,0.7-0.5,1.1c0,0.3,0.1,0.6,0.2,0.9
			c0.3,0.5,0.7,0.8,1.4,0.8c0.4,0,0.8-0.2,1.2-0.5c0.3-0.3,0.4-0.7,0.4-1.1C143.9,243.1,143.3,242.6,142.4,242.6z"/>
		<path d="M135.5,264.5c-0.7,0-1.3,0.3-1.8,0.8c-0.4,0.5-0.6,1-0.6,1.5c0,0.1,0,0.3,0,0.4c0.1,0.3,0.1,0.5,0.3,0.8
			c0.4,0.7,1,1.1,2,1.1c0.7,0,1.3-0.3,1.8-0.8c0.4-0.4,0.5-0.9,0.5-1.4c0-0.4-0.1-0.8-0.3-1.2C137.1,264.9,136.4,264.5,135.5,264.5z
			 M136.2,267.7c-0.3,0.3-0.7,0.5-1.2,0.5c-0.7,0-1.2-0.3-1.4-0.8c-0.1-0.3-0.2-0.6-0.2-0.9c0-0.4,0.2-0.8,0.5-1.1
			c0.3-0.4,0.7-0.5,1.2-0.5c1,0,1.5,0.6,1.6,1.7C136.6,267,136.5,267.3,136.2,267.7z"/>
		<path fill="#239DC4" d="M135,264.9c-0.5,0-0.9,0.2-1.2,0.5c-0.3,0.3-0.5,0.7-0.5,1.1c0,0.3,0.1,0.6,0.2,0.9
			c0.2,0.5,0.7,0.8,1.4,0.8c0.5,0,0.9-0.2,1.2-0.5c0.3-0.3,0.4-0.7,0.4-1.1C136.6,265.4,136,264.9,135,264.9z"/>
		<path fill="#FCD4A4" d="M154.6,171.9c0.9,0.4,1.8,0.8,2.8,1.2c1,0.4,1.9,0.7,2.9,0.9c2,0.4,4,0.8,6,1.1c2.7,0.4,5.4,0.7,8,0.8
			c3.9,0.2,7.8,0.1,11.7-0.1c3.9-0.2,7.9-0.6,11.8-1.3c2-0.4,3.9-1,5.8-1.7c0.2-0.1,0.4-0.2,0.6-0.2c0.1-0.1,0.1-0.1,0.1-0.1
			c0.4-0.1,0.8-0.4,1.2-0.7c0.5-0.2,1-0.4,1.4-0.6c1-0.6,2-1.2,2.9-1.9c2-1.4,3.8-3,5.4-4.7c1.4-1.5,2.7-3.1,3.8-4.8
			c0.7-1.2,1.4-2.4,2-3.6c0.8-1.7,1.6-3.5,2.3-5.3c0.7-1.8,1.3-3.6,1.9-5.4c0.4-1.3,0.8-2.7,1.2-4.1c0.3-1.4,0.6-2.8,0.9-4.2
			c0.4-2.3,0.8-4.6,1.2-7c-1.2,0.3-2.4,0.5-3.6,0.5c-5.3,0-8.7-1.6-10.1-4.7c-1.3-2.8-2.1-6.2-2.6-10.1c-0.3,0.1-0.7,0.1-1.1,0.1
			c-1.5,0-2.6-0.3-3.2-0.9c-0.1-0.1-0.2-0.2-0.3-0.3c-0.2-0.3-0.3-0.8-0.3-1.5c0.1-0.1,0.1-0.2,0.2-0.3c0.1-0.1,0.2-0.1,0.5-0.1
			c0.3,0,0.6,0.1,0.7,0.3c0.1,0.1,0.2,0.3,0.3,0.6c0.3,0.6,1,0.9,2.3,0.9c2.5,0,4.3-1.6,5.3-4.8c0.5-1.6,0.8-3.2,0.8-4.9
			c0-1.4-0.2-2.7-0.5-3.8c-0.7-2-1.9-3.1-3.7-3.1c-3.2,0-5.2,2.3-5.9,7c-0.1,0.6-0.2,1.2-0.3,1.9c0,0-0.1-0.1-0.1-0.1
			c0,0.1,0,0.1,0,0.2c0,0.1,0,0.1,0,0.2c-2.2-0.1-4-0.1-5.5-0.1c0.1-0.3,0.1-0.5,0.2-0.7c-0.1,0-0.1,0-0.2,0
			c0.2-1.3,0.4-2.4,0.5-3.3c0.7-4.3,1-7.5,1-9.6c0-0.4,0-2,0.1-4.5c-0.1-2.8-0.5-5.2-1.3-7.3c-2.4-6.6-7.8-9.9-16.2-9.9
			c-2.2,0-4.4,0.3-6.5,1c-1,0.3-1.7,0.6-2,0.7c-0.6,0.2-1.1,0.3-1.4,0.3l-0.7-0.1c0-0.1,0-0.4-0.1-0.7c0-0.3,1.2-1.6,3.6-4
			c2.2-2.2,3.6-3.5,4.3-4c-5.4-0.2-10.4,0.4-14.9,1.8c-4.6,1.3-7.5,2.3-8.6,2.8c-1.1,0.5-2,0.8-2.6,0.8c-0.4,0-0.7-0.1-1-0.3l0,0.1
			c0,0-0.1-0.2-0.1-0.4c0-0.6,1.3-2.2,3.8-4.7c2.1-2.2,3.7-3.7,4.7-4.5l0.3-0.2c-4.4,0.4-7.7,0.8-10.1,1.4c-2.3,2-4.3,4.3-6.1,6.7
			c-1.9,2.6-3.6,5.4-5.1,8.3c-0.1,0.3-0.7,1.5-0.8,1.6c0,0,0.1,0,0.1,0l0.2,0.1l-0.4,0.1c-0.1,0.1-0.1,0.3-0.2,0.4
			c0.7-0.1,1.5-0.1,2.3,0c1.9,0.3,3.5,1.3,4.6,3c1.2,1.7,1.5,3.5,1.2,5.6c-0.3,1.8-1.1,3.4-2.4,4.5c-0.2,0.1-0.3,0.3-0.5,0.4
			c-1.6,1.2-3.4,1.7-5.3,1.4c-1.6-0.3-3-1-4-2.2c0,0.1-0.5,2.6-0.6,3.2c-0.5,3.1-0.8,6.3-0.8,9.4c0,3.1,0.1,6.2,0.4,9.3
			c0.1,0.6,0.1,1.1,0.2,1.7c0.1,0.7,0.2,1.3,0.3,2c1.2-0.2,2.5-0.3,4-0.3c1.7,0,2.9,0.1,3.6,0.3c0.3,0.1,0.6,0.2,0.9,0.5
			c-0.3,0.4-0.9,0.6-1.7,0.6c-0.8,0-2.9,0.2-6.2,0.4c-3.3,0.2-5,1-5,2.4c0.4,0.5,0.6,0.8,0.7,0.8c0.7,0,2.2-0.1,4.4-0.4
			c2.3-0.2,5.6-0.4,9.9-0.4c13.5,0,22.6,2.5,27.1,7.5c1.5,1.7,2.5,3.6,2.9,5.8c0.2,0.8,0.2,2.2,0.2,4.1c0,1.1-0.2,2.4-0.4,3.8
			c-0.4,2.2-1.2,4.3-2.2,6.1c-2.9,5.4-7.9,8.1-14.8,8.1c-4.9,0-8.6-0.4-11.2-1.3c-1.4-0.4-2.4-0.7-3-0.8c-1.3-0.3-3-0.4-5.1-0.4
			c-3.1,0-5.2,0.4-6.2,1.4c-0.5,0.4-0.7,1-0.7,1.8c0,0.4,0.3,0.8,0.9,1.2c0.7,0.4,1.7,0.7,3,0.7c0.8,0,1.4-0.1,1.8-0.2
			c0.2-0.1,0.4-0.2,0.7-0.4c0.6-0.4,1.8-0.6,3.7-0.6c2.5,0,4.5,0.4,6,1.4c1,0.6,1.7,1.3,2,1.9c0,0.2,0,0.3-0.1,0.4
			c-0.1,0.2-0.3,0.2-0.6,0.2c-0.1,0-0.4-0.1-0.8-0.4c-0.6-0.4-1.1-0.7-1.3-0.9c-1.5-0.8-3.2-1.2-5.1-1.2c-1.5,0-2.6,0.1-3.2,0.3
			c0.5,1,1.1,2,1.7,3c1.4,2.1,3.1,4,5.1,5.6c1,0.8,2.1,1.5,3.2,2.2C152.5,170.9,153.5,171.5,154.6,171.9z M209.4,107.9
			c0-1.1,0.2-2,0.7-2.5c0.1-0.1,1-1.1,2.9-2.7c0.2,0,0.4,0.1,0.5,0.1c0.1,0.1,0.1,0.2,0.1,0.5c0,0.2-0.3,0.6-1,1.4
			c-0.7,0.7-1,1.1-1.2,1.2c-0.1,0.1-0.1,0.3-0.1,0.4c1.1,0.1,1.7,0.3,2,0.8c0.1,0.1,0.1,0.5,0.1,1c0,0.6,0,1-0.1,1.2
			c-0.2,0.5-0.8,0.8-1.7,0.8c-1.2,0-1.9-0.3-2.1-1C209.3,108.7,209.3,108.3,209.4,107.9z M201.1,108.4c2.1,0,4,0.1,5.7,0.1
			c0,0.3,0,0.4,0,0.6c0,0.3,0,0.6,0,0.9c-2.4-0.1-4.3-0.1-5.8-0.1C201.1,109.4,201.1,108.9,201.1,108.4z M201,111
			c2.2,0,4.1,0.1,5.9,0.1c0,0.5,0,0.9,0,1.4c-2.5-0.1-4.5-0.1-6-0.1C200.9,112,201,111.5,201,111z M200.7,113.7
			c2.3,0,4.4,0.1,6.2,0.1c0,0.4,0.1,0.9,0.1,1.3c0,0,0,0.1,0,0.1c-2.3-0.1-4.1-0.1-5.6-0.1c-0.3,0-0.6,0-0.9,0
			C200.6,114.6,200.7,114.1,200.7,113.7z M140.9,107c1.2,1.2,2.5,2.1,4.1,2.7c1.2,0.4,2.2,1.1,3.2,1.8l0.1,0.6l-0.3,0.3
			c-1.8-0.6-3.4-1.3-4.6-2.2c-1.3-0.8-2.4-1.7-3.3-2.5c-0.9-0.8-0.9-1.9,0.1-3.4c0.9-1.4,2.4-3.3,4.4-5.5c2-2.3,3.6-4.1,4.8-5.6
			c1.2-1.5,2.1-2.7,2.8-3.6c0.3-0.4,0.5-0.6,0.8-0.4l0.3,1.2c-1.8,2.1-3.6,4.2-5.3,6.2c-1.8,2-3.2,3.8-4.4,5.2
			c-1.2,1.4-2,2.9-2.5,4.3C140.6,106.4,140.7,106.7,140.9,107z M159.4,94.6c-1.1-1.5-1.7-3-1.9-4.7c-0.2-1.1-0.1-2.2,0.1-3.3
			c0.5-2.9,1.9-5.3,4.3-7c2.4-1.7,5.1-2.3,8-1.9c2.9,0.5,5.2,1.9,7,4.3c1.7,2.4,2.3,5.1,1.9,8c-0.2,1.1-0.5,2.2-1,3.1
			c-0.8,1.5-1.9,2.8-3.3,3.8c-2.4,1.7-5.1,2.4-8,1.9C163.5,98.4,161.2,97,159.4,94.6z"/>
		<path d="M174.4,97c1.5-1,2.6-2.3,3.3-3.8c0.5-0.9,0.8-2,1-3.1c0.5-2.9-0.2-5.6-1.9-8c-1.7-2.4-4.1-3.8-7-4.3
			c-2.9-0.5-5.6,0.2-8,1.9c-2.4,1.7-3.8,4.1-4.3,7c-0.2,1.1-0.2,2.2-0.1,3.3c0.2,1.7,0.8,3.2,1.9,4.7c1.7,2.4,4,3.8,7,4.3
			C169.3,99.4,172,98.7,174.4,97z M158.5,86.7c0.4-2.7,1.7-4.8,3.9-6.4c2.2-1.5,4.6-2.1,7.3-1.7c2.7,0.4,4.8,1.7,6.4,3.9
			c1.1,1.5,1.7,3.2,1.8,4.9l-19.5-0.3C158.4,87,158.5,86.9,158.5,86.7z M160.2,94c-0.9-1.2-1.5-2.6-1.7-4c-0.1-0.7-0.2-1.4-0.1-2.2
			l19.6,0.3c0,0.6-0.1,1.2-0.2,1.8c-0.2,1.2-0.5,2.2-1.1,3.1c-0.7,1.3-1.6,2.3-2.9,3.2c-1.2,0.9-2.5,1.4-3.9,1.7
			c-1.1,0.2-2.2,0.2-3.4,0C163.9,97.5,161.8,96.2,160.2,94z"/>
		<path fill="#FCD4A4" d="M176.1,82.6c-1.6-2.2-3.7-3.5-6.4-3.9c-2.7-0.4-5.1,0.1-7.3,1.7c-2.2,1.6-3.5,3.7-3.9,6.4
			c0,0.2-0.1,0.3-0.1,0.4l19.5,0.3C177.8,85.8,177.2,84.1,176.1,82.6z"/>
		<path fill="#FFFFFF" d="M169.9,97.9c1.4-0.3,2.7-0.8,3.9-1.7c1.2-0.9,2.2-2,2.9-3.2c0.5-0.9,0.9-2,1.1-3.1
			c0.1-0.6,0.2-1.2,0.2-1.8l-19.6-0.3c0,0.8,0,1.5,0.1,2.2c0.2,1.4,0.8,2.7,1.7,4c1.6,2.2,3.7,3.5,6.4,3.9
			C167.7,98.1,168.8,98.1,169.9,97.9z M163.7,90.8c-0.1,0.3-0.2,0.6-0.5,0.8c-0.3,0.3-0.7,0.3-1.1,0.3c-0.5-0.1-0.9-0.4-1-0.8
			c-0.1-0.2-0.1-0.5-0.1-0.7c0.2-0.9,0.7-1.3,1.6-1.1c0.2,0.1,0.4,0.1,0.5,0.2c0,0,0,0,0,0c-0.4-0.1-0.6,0.1-0.7,0.4
			c0,0.1,0,0.2,0,0.3c0.1,0.2,0.2,0.3,0.4,0.3c0.4,0.1,0.6-0.1,0.6-0.4c0-0.1,0-0.2,0-0.3C163.7,90.1,163.8,90.4,163.7,90.8z"/>
		<path d="M163.6,90.1c-0.1,0.4-0.3,0.5-0.6,0.4c-0.2,0-0.4-0.2-0.4-0.3c0-0.1,0-0.2,0-0.3c0.1-0.4,0.3-0.5,0.7-0.4c0,0,0,0,0,0
			c-0.1-0.1-0.3-0.1-0.5-0.2c-0.9-0.1-1.4,0.2-1.6,1.1c0,0.2,0,0.5,0.1,0.7c0.2,0.5,0.5,0.7,1,0.8c0.4,0.1,0.8,0,1.1-0.3
			c0.3-0.2,0.4-0.5,0.5-0.8c0-0.4,0-0.7-0.2-1C163.6,89.9,163.6,90,163.6,90.1z"/>
		<path d="M206.9,109c0-0.1,0-0.3,0-0.6c-1.7,0-3.6-0.1-5.7-0.1c0,0.5,0,0.9-0.1,1.4c1.5,0.1,3.4,0.1,5.8,0.1
			C206.9,109.6,206.9,109.3,206.9,109z"/>
		<path d="M206.9,111.1c-1.8,0-3.7-0.1-5.9-0.1c0,0.5-0.1,0.9-0.1,1.4c1.5,0.1,3.5,0.1,6,0.1C206.9,112.1,206.9,111.6,206.9,111.1z"
			/>
		<path d="M207.1,115.2c0-0.1,0-0.1,0-0.1c-0.1-0.4-0.1-0.9-0.1-1.3c-1.9,0-3.9-0.1-6.2-0.1c-0.1,0.5-0.1,0.9-0.2,1.4
			c0.3,0,0.6,0,0.9,0C202.9,115.1,204.8,115.1,207.1,115.2z"/>
		<path d="M211.5,110c0.9,0,1.5-0.3,1.7-0.8c0.1-0.2,0.1-0.6,0.1-1.2c0-0.5,0-0.9-0.1-1c-0.3-0.5-0.9-0.8-2-0.8
			c0-0.1,0.1-0.3,0.1-0.4c0.2-0.1,0.6-0.4,1.2-1.2c0.7-0.7,1-1.2,1-1.4c0-0.3,0-0.5-0.1-0.5c-0.2,0-0.3-0.1-0.5-0.1
			c-1.8,1.7-2.8,2.6-2.9,2.7c-0.4,0.6-0.7,1.4-0.7,2.5c-0.1,0.4-0.1,0.8,0,1.1C209.6,109.6,210.3,110,211.5,110z M210.7,107.7
			c0.8,0.1,1.3,0.1,1.3,0.3l-0.1,0.4l-0.5,0.2c-0.3,0-0.6-0.1-0.8-0.3V107.7z"/>
		<radialGradient id="SVGID_3_" cx="77.4521" cy="153.2948" r="133.947" gradientUnits="userSpaceOnUse">
			<stop  offset="0" style="stop-color:#FAE3CC"/>
			<stop  offset="1" style="stop-color:#FDCF9D"/>
		</radialGradient>
		<path fill="url(#SVGID_3_)" d="M212,108.3l0.1-0.4c0-0.1-0.5-0.2-1.3-0.3v0.6c0.2,0.2,0.4,0.3,0.8,0.3L212,108.3z"/>
		<path d="M143.3,101.9c1.2-1.5,2.7-3.2,4.4-5.2c1.7-2,3.5-4.1,5.3-6.2l-0.3-1.2c-0.2-0.2-0.5-0.1-0.8,0.4c-0.6,0.9-1.5,2.1-2.8,3.6
			c-1.2,1.5-2.8,3.3-4.8,5.6c-2,2.3-3.4,4.1-4.4,5.5c-1,1.4-1,2.6-0.1,3.4c0.9,0.8,2,1.7,3.3,2.5c1.3,0.9,2.9,1.6,4.6,2.2l0.3-0.3
			l-0.1-0.6c-0.9-0.8-2-1.4-3.2-1.8c-1.6-0.6-2.9-1.5-4.1-2.7c-0.2-0.3-0.3-0.6-0.2-0.9C141.2,104.7,142.1,103.3,143.3,101.9z"/>
		<path fill="#FFFFFF" d="M167.3,126.1c1.3,0.2,2.5,0.5,3.7,0.8c-1-0.6-2.2-1.2-3.5-1.7C167.4,125.5,167.4,125.8,167.3,126.1z"/>
		<path fill="#FFFFFF" d="M160.8,123.4c-0.3,0.7-0.4,1.4-0.6,1.9c2.3,0.1,4.4,0.3,6.4,0.6c0-0.3,0.1-0.7,0.1-1.1
			C164.9,124.3,163,123.8,160.8,123.4z"/>
		<path fill="#FFFFFF" d="M138,90.2c0,0.1,0.1,0.1,0.1,0.2c1,1.4,2.3,2.2,3.9,2.5c1.6,0.3,3.1-0.1,4.5-1.1c0.1,0,0.1-0.1,0.2-0.1
			c1.4-1.1,2.3-2.6,2.6-4.5c0.1-0.6,0.1-1.2,0.1-1.8c-1,0-2,0-3,0c-1.4,0-2.8,0-4.3,0c-0.9,0-1.8,0-2.7,0c-0.4,0-0.8,0-1.3,0.1
			c-0.2,0-0.4,0-0.7,0c-0.2,0-0.5,0-0.7,0.1c-0.2,1.2-0.1,2.3,0.4,3.4C137.4,89.3,137.7,89.8,138,90.2z M138.4,88.4
			c0.1-0.4,0.2-0.8,0.5-0.9c0.2-0.1,0.5-0.2,0.8-0.1c0.3,0.1,0.5,0.2,0.7,0.3c0,0-0.1,0-0.1,0c-0.3-0.1-0.5,0.1-0.6,0.4
			c0,0.1,0,0.2,0,0.3c0.1,0.2,0.2,0.3,0.4,0.3c0.3,0.1,0.5-0.1,0.6-0.4c0-0.1,0-0.1,0-0.2c0.1,0.2,0.1,0.4,0.1,0.7
			c-0.1,0.3-0.2,0.5-0.4,0.7c-0.3,0.2-0.6,0.3-1,0.3c-0.4-0.1-0.7-0.3-0.9-0.6c0,0,0-0.1,0-0.1C138.3,88.8,138.3,88.6,138.4,88.4z"
			/>
		<path d="M138.4,89.1c0.2,0.4,0.4,0.6,0.9,0.6c0.4,0.1,0.7,0,1-0.3c0.2-0.2,0.4-0.4,0.4-0.7c0-0.3,0-0.5-0.1-0.7c0,0.1,0,0.1,0,0.2
			c-0.1,0.3-0.2,0.4-0.6,0.4c-0.2,0-0.3-0.1-0.4-0.3c-0.1-0.1-0.1-0.2,0-0.3c0.1-0.3,0.2-0.4,0.6-0.4c0.1,0,0.1,0,0.1,0
			c-0.2-0.1-0.4-0.2-0.7-0.3c-0.3-0.1-0.6,0-0.8,0.1c-0.3,0.1-0.5,0.4-0.5,0.9C138.3,88.6,138.3,88.8,138.4,89.1
			C138.4,89,138.4,89.1,138.4,89.1z"/>
		<path fill="#FCD4A4" d="M148.3,82.3c-1-1.4-2.4-2.3-4.1-2.5c-0.9-0.1-1.8-0.1-2.6,0.2c-0.6,0.2-1.1,0.4-1.6,0.7
			c-0.2,0.1-0.3,0.2-0.5,0.3c-1.3,0.9-2.2,2.2-2.5,3.9l12.3-0.1C149.1,83.9,148.8,83,148.3,82.3z"/>
		<path fill="#FFFFFF" d="M147.7,122.5c-0.6,0-2.6,0.1-5.9,0.3c0.4,0.9,0.8,2,1.2,3.2c1.4-0.2,2.9-0.4,4.6-0.5
			c0-0.2,0.1-0.4,0.1-0.6C147.7,124.7,147.7,123.9,147.7,122.5z"/>
		<path fill="#FFFFFF" d="M148.5,122.5c-0.1,1.5-0.1,2.3-0.1,2.4c0,0.2-0.1,0.4-0.1,0.6c1.5-0.1,3.2-0.2,4.9-0.2
			c0-0.2,0-0.3,0.1-0.5c0-0.1,0.1-0.8,0.1-2.2C151.8,122.5,150.1,122.5,148.5,122.5z"/>
		<path fill="#FFFFFF" d="M154,122.6c-0.1,0.6-0.1,1.3-0.1,2.2c0,0.1,0,0.3,0,0.4c0.4,0,0.9,0,1.4,0c1.4,0,2.9,0,4.2,0.1
			c0.1-0.8,0.2-1.5,0.4-2C158,123,156.1,122.8,154,122.6z"/>
		<path fill="#EB1D25" d="M176.4,142.9c-2.4-1.2-5.3-1.8-8.7-1.8c-2.4,0-4.2,0.1-5.5,0.2c-1.7,0-3.1,0.1-4.1,0.2
			c0.1-0.4,0.8-0.8,2-1.1c1.8-0.5,4.2-0.7,7.4-0.7c3.5,0,6.5,0.6,9,1.8c0.1-0.9,0.2-1.9,0.2-2.9c0-0.1,0-0.1,0-0.2
			c-3-0.5-6.1-0.7-9.3-0.7c-7.3,0-12.2,0.8-14.5,2.4c-0.8,0.6-1.3,1.2-1.6,1.9c-0.1,0.3-0.1,0.8-0.1,1.5c0,1.9,1.7,3.2,5.3,3.8
			c1.3,0.3,3.1,0.5,5.4,0.7c1.3,0.1,3.4,0.3,6.2,0.4c2.1,0.1,3.9,0.3,5.5,0.6c0.4-0.6,0.7-1.1,1.1-1.8
			C175.5,145.9,176.1,144.5,176.4,142.9z"/>
		<path fill="#FFFFFF" d="M150.2,153.7c0.3,0.1,0.7,0.2,1.1,0.3c0.1-0.4,0.2-0.8,0.3-1.3c0.1-0.3,0.1-0.5,0.2-0.7
			c-1.1-0.4-2.3-0.8-3.7-1.4c-0.5-0.2-1-0.4-1.5-0.6c-0.3,0.9-0.6,1.7-0.7,2.6c0.4,0.1,0.9,0.1,1.2,0.2
			C147.8,153,148.8,153.3,150.2,153.7z"/>
		<path fill="#FFFFFF" d="M145.2,152.6c0.1-0.6,0.2-1.3,0.3-2c0.1-0.3,0.1-0.5,0.2-0.8c-1.2-0.4-2.3-0.8-3.2-1.1
			c-0.1,0.6-0.3,1.2-0.5,1.8c-0.2,0.7-0.3,1.4-0.4,1.9l0.1,0C142.9,152.5,144.1,152.6,145.2,152.6z"/>
		<path fill="#FFFFFF" d="M167.2,154c-1.4,0.1-3,0.1-4.8,0.1c-1.2,0-2.5-0.1-3.8-0.3c-0.1,0.4-0.2,0.8-0.2,1.1
			c0.7,0,1.5,0.1,2.3,0.1C163.1,155,165.3,154.7,167.2,154z"/>
		<path fill="#FFFFFF" d="M157.9,153.7c-1-0.2-2.1-0.4-3.1-0.7c-0.6-0.2-1.4-0.4-2.3-0.7c-0.2,0.7-0.3,1.4-0.4,1.9
			c1.6,0.3,3.5,0.6,5.7,0.7C157.8,154.5,157.8,154.1,157.9,153.7z"/>
		<path fill="#1CB1BF" d="M120.5,272.8c0-1,0.1-2.1,0.4-3.4c0.3-1.3,0.4-2.6,0.4-3.9h0.5c0.1,0.1,0.2,0.4,0.2,0.8
			c0,0.6-0.1,1.4-0.3,2.3c-0.1,0.5-0.3,1.3-0.6,2.5c-0.3,1.3-0.3,2.5-0.2,3.6c0.8-0.2,1.5-0.4,2.3-0.6c1.9-0.5,3.9-0.9,5.8-1.3
			c0-1.6,0.1-3.4,0.4-5.4c0.5-3.8,1.9-9.7,4.2-17.6c2.3-8,4.9-16.5,8-25.7c1.9-5.6,3.9-11.1,6.1-16.5c4.3-10.8,9.5-21.3,15.4-31.3
			l-0.2-0.1c-1.1,0.6-2.3,1.2-3.9,1.9c-3.2,1.4-5.3,2.5-6.3,3.2c-1.4,1-2.2,2.1-2.6,3.4c-0.1,0-0.3-0.1-0.4-0.1
			c0-0.4-0.1-0.8-0.2-1.1c-0.1-0.2-0.1-0.4-0.2-0.6c-0.6-2.2-0.9-4.5-0.9-6.7c-0.3,0.5-0.7,1.1-1,1.6c-5.3,9.2-10.4,19.5-15.3,31.1
			c-4.9,11.5-8.8,23.6-11.6,36.2c-2.8,12.6-4.6,22.7-5.4,30.4c-0.1,0.5-0.1,1-0.2,1.4c1.9-0.7,3.8-1.4,5.8-1.9
			C120.5,274.2,120.5,273.6,120.5,272.8z"/>
		<path fill="#1CB1BF" d="M150.6,171.3c-1.1,3.3-1.2,6.6-0.1,10.1c0.3-0.3,0.6-0.6,0.9-0.8c1.2-0.9,3.3-2.2,6.3-3.6
			c1.1-0.5,2-1,2.9-1.4c-0.3-0.1-0.7-0.2-1-0.3C156.4,174.2,153.5,172.9,150.6,171.3z"/>
		<path fill="#1CB1BF" d="M142.1,183.9c0.9-1.9,1.9-3.7,3-5.5c-0.2,0-0.3,0-0.5,0c-16.5,0.2-32.6,2.9-48.3,8.1
			c-2.5,0.8-4.9,1.7-7.3,2.5c-9.4,3.3-18.3,7.6-26.7,12.9c-6.7,4.2-12.6,9.2-17.7,15.2c-0.7,0.8-1.3,1.6-1.9,2.5
			c-1.8,2.5-3,5.3-3.8,8.3c-0.3,1.3-0.6,2.7-0.8,4c-0.4,2.4-0.5,4.8-0.2,7.3c0.1,1.1,0.3,2.2,0.6,3.2c0.1-0.4,0.2-0.8,0.3-1.2
			c2-6.2,5.9-9.8,11.6-10.8c0.1-0.6,0.2-1.3,0.3-1.9c0.4-2,1.6-4.4,3.6-7.2c2-2.8,5.6-5.8,10.8-8.8c5.3-3.1,11.7-6.2,19.5-9.3
			c7.7-3.1,17.1-5.8,28.1-8c4.6-0.9,8.5-1.5,11.6-1.9c2.9-0.4,7.6-0.8,13.9-1.4C139.4,189.3,140.7,186.6,142.1,183.9z"/>
		<path fill="#1CB1BF" d="M185.1,184.9c5.9-3.1,11.4-6.5,16.5-10.3c-0.5,0.1-0.9,0.3-1.4,0.4c-0.8,0.2-1.6,0.4-2.3,0.6
			c-0.8,0.2-1.6,0.4-2.3,0.5c-1.2,0.2-2.4,0.4-3.6,0.5c-3.9,0.4-7.7,0.6-11.6,0.7c-4.4,0.1-8.7-0.1-13-0.6c-0.3,0-0.7-0.1-1-0.1
			c3.1,3.8,4.7,7.6,4.7,11.3c0,0.1,0,0.7,0.1,1.7c0,0.2,0,0.4,0,0.6C175.1,189.4,179.9,187.6,185.1,184.9z"/>
		<path fill="#F18B00" d="M341.1,286.9c-3.5-5.5-9.6-8.2-18.1-8.2c-0.1,0-0.2,0-0.3,0c-0.5,3-1.1,5.4-1.7,7.3
			c-0.8,2.6-1.7,5.3-2.7,8.1c-1,2.8-1.9,5.3-2.7,7.2c-1.2,2.7-2.3,5.5-3.5,8.2c-1.3,3-2.7,5.8-4.4,8.6c-1.7,2.8-3.6,5.4-5.7,7.8
			c-1.4,1.6-3,3-4.8,4.1c-1.2,0.7-2.4,1.3-3.7,1.6c-3.3,0.8-6,1.3-8.1,1.4c-2.1,0.1-4.1,0.2-6.2,0.3c-2,0.1-5.1,0-9.1-0.2
			c-4-0.2-7.6-0.4-10.8-0.6c-3.2-0.2-6.4-0.5-9.5-1c-2.9-0.4-5.8-0.9-8.6-1.5c-3-0.7-6-1.5-9-2.5l0.1-0.6c2,0.3,4,0.7,6.1,1.1
			c4.6-1.5,9-3.9,12.9-7.2c4.2-3.5,8.1-7.5,10.6-12.3c6.8-12.8,8.1-23.1,8.3-25c-1.1-0.6-2.6-1-4.6-1.4c0.5-0.4,1.5-0.4,3,0
			c1.5,0.4,2.8,1,3.8,1.8c1.1,0.8,0.7,0.9-1,0.3c-0.1,0.4-0.1,0.9-0.1,1.3c0.3,0.1,0.5,0.1,0.5,0.1c1.3,0.4,2.4,0.4,3.3,0
			c0.4-0.2,0.5-0.7,0.2-1.5c-0.3-0.8-1.5-1.6-3.6-2.5c-0.6-0.2-1.1-0.5-1.8-0.7c-0.1,0-0.2,0-0.3-0.1c0,0,0.1,0,0.1,0
			c-1.9-0.7-4.4-1.3-7.4-1.9c-4.2-0.9-11.4-2-21.9-3.5c-10.6-1.4-17.1-2.3-19.6-2.6c-2.4-0.3-5-0.7-7.9-1c-2.8-0.3-5.1-0.5-6.7-0.7
			c-2.4-0.3-4.9-0.5-7.3-0.6c-2.4-0.2-4.8-0.3-7.1-0.4c-1.5-0.1-3-0.1-4.6-0.2c-2.5-0.1-5-0.1-7.6-0.1c-3.9,0-7.8,0.1-11.8,0.2
			c-3.6,0.1-7.2,0.3-10.7,0.5c-2.5,0.2-5,0.4-7.4,0.6c-2.3,0.2-4.5,0.4-6.8,0.8c-1.6,0.2-3.2,0.4-4.7,0.7c-2.2,0.3-4.3,0.7-6.4,1.2
			c0.2-0.1,0.3-0.1,0.5-0.1c-7.4,1.3-12.5,2.4-15.3,3.4c-2.8,1-4.9,2-6.3,3l0.1,0.7c0.1,0.1,0.2,0.1,0.3,0.2
			c0.4,0.2,0.8,0.3,1.3,0.3c0.5,0,1.1,0,1.6,0c0-0.4,0-0.8,0.1-1.2l-0.7,0.2l-0.3-0.7c2.6-1.2,5.3-1.8,8.1-1.8c0,0,0.1,0,0.1,0.1
			l-6.1,1.7c0,1.3,1,17.2,1.2,18.1c0.8,4.3,3.2,8.9,7.4,13.9c4.1,5,9.4,9.2,15.7,12.6c6.3,3.4,13.3,6.6,20.9,9.5
			c5.8,2.2,11.8,4,17.8,5.5c5.4,1.3,10.9,2.4,16.4,3.2c5.7,0.9,11.5,1.5,17.2,2.1c7.9,0.6,15.8,1.1,23.7,1.5
			c7.5,0.3,14.9,0.7,22.4,1c6,0.4,11.9,0.5,17.9,0.5c6.2-0.1,12.3-0.9,18.5-2.6c6.1-1.7,11.3-4.6,15.3-8.8c4-4.2,7.9-9.2,11.7-14.8
			c3.7-5.6,7.3-11.6,10.8-17.9c2.5-4.6,5.1-9.3,7.6-13.9C340.1,288.7,340.6,287.8,341.1,286.9z M202.4,322.3
			c-11.5-1.4-18.7-7.8-21.6-19.2l0.6-0.2c0.7,2,1.5,3.9,2.6,5.6c5,8.5,12.5,13,22.4,13.6C205.1,322.4,203.8,322.4,202.4,322.3z"/>
		<path d="M184,308.6c-1.1-1.8-1.9-3.6-2.6-5.6l-0.6,0.2c2.9,11.4,10.1,17.8,21.6,19.2c1.3,0.1,2.7,0.1,4-0.2
			C196.5,321.6,189,317,184,308.6z"/>
		<path fill="#F18B00" d="M179.4,341.2c-0.7,2.3-1.5,5.1-2.5,8.4c-4,14.1-6,26.7-6,37.8c0,3,0.3,5.7,1,7.9c0.6,2.2,1.7,4.4,3.2,6.6
			c1.3,1.8,3.2,4.2,5.7,7.1c1.6,1.8,4.5,4.9,8.6,9.4c2.3,2.5,5.2,5.4,8.7,8.8c3.6,3.4,6.4,6.3,8.4,8.7c1.8,2,3.1,4.3,4.1,6.8
			c7.6-1,13-4.8,16.2-11.3c0.8-1.5,1.4-3.1,1.8-4.8c-0.9-0.3-1.9-0.6-2.8-1c-2.9-1.2-5.7-2.5-8.4-4c-2.9-1.6-5.7-3.5-8.4-5.5
			c-1-0.8-2-1.6-2.9-2.4c-2.4-2.2-4.8-4.5-7.2-6.7c-2.3-2.2-4.5-4.5-6.6-7c-1.3-1.6-2.3-3.4-2.8-5.4c-0.6-2.1-0.7-4.3-0.6-6.4
			c0.3-3.3,0.7-6.7,1.1-10c0.5-3.2,1.1-6.4,1.8-9.7c0.6-2.9,1.3-5.7,2-8.6c0.6-2.2,1.2-4.5,1.8-6.7c0.9-2.9,1.8-5.7,2.9-8.6
			c-1.9-0.3-3.7-0.5-5.6-0.8C188.4,343.1,183.9,342.2,179.4,341.2z"/>
		<radialGradient id="SVGID_4_" cx="77.4479" cy="153.298" r="133.9494" gradientUnits="userSpaceOnUse">
			<stop  offset="0" style="stop-color:#FAE3CC"/>
			<stop  offset="1" style="stop-color:#FDCF9D"/>
		</radialGradient>
		<path fill="url(#SVGID_4_)" d="M350.5,287.8c0-2.4-1.1-7-3.4-13.9c-2.3-6.9-5.7-10.8-10.4-11.7c-4.7-0.9-7.2,0.2-7.5,3.2
			c-0.3,3-0.3,4.9-0.1,5.6c-1,2.5-1.8,4.7-2.5,6.4c2.4,0.2,4.5,0.7,6.5,1.4c1-0.8,1.6-1.2,1.8-1.4c0.6-0.6,0.9-1.1,0.9-1.6
			c0-0.6-0.2-1.5-0.5-2.7c-0.3-1.2-0.5-2.1-0.5-2.9c0-1.1,0.1-1.8,0.3-2.2c0.5-1.1,1.7-1.6,3.4-1.6c1.1,0,2.2,0.6,3.2,1.8
			c0.3,0.4,0.6,0.8,0.9,1.2c0.2,0.4,0.3,0.6,0.3,0.6c0,0.3,0,0.6-0.1,0.9c0,0.1-0.2,0.2-0.6,0.2c-1.7-2.2-2.9-3.4-3.3-3.4
			c-1.4,0-2.2,0.4-2.6,1.3c-0.1,0.3-0.2,0.6-0.2,0.9c0,0.2,0,0.3,0,0.4c0,0.5,0.2,1.4,0.5,2.5c0.4,1.2,0.5,2.2,0.5,2.9
			c0,0.8-0.3,1.5-0.9,2.2c-0.3,0.4-0.8,0.8-1.5,1.4c1.2,0.6,2.3,1.2,3.4,1.9c1.2-1,2.1-1.8,2.5-2.1c0.6-0.4,0.9-0.6,1-0.5
			c0.1,0.1,0.1,0.2,0.2,0.3c-0.9,1-1.8,2.1-2.6,3.2c1.1,0.9,2,2,2.8,3.2c0,0,0-0.1,0-0.1c0.2,0.3,0.4,0.6,0.7,0.9
			c-0.8,1.5-1.5,3-2.3,4.6c-2.4,4.6-4.8,9.1-7.4,13.6c0.7,0.7,1.7,1,2.8,1c1.8,0,2.8-0.3,3.1-0.8c0.1-0.2,0.1-0.4,0.1-0.7
			c0,0,0,0,0,0c-0.3-0.3-0.5-0.6-0.6-1c-0.1-0.4-0.2-0.8-0.1-1.3c0.1-0.4,0.1-0.6,0.1-0.6c0-1.1,0-1.8,0-1.9
			c0.1-0.8,0.4-1.2,0.9-1.2c0.6,0,0.7,1,0.4,3c0,0.8,0.1,1.3,0.1,1.5c0.3,0.6,0.9,0.9,1.8,0.9c0.6,0,1-0.1,1.2-0.3
			c-0.7-0.7-1.1-1.8-1.1-3.1c0-0.8,0-1.3,0.1-1.5c0.1-0.6,0.5-1.1,1.1-1.5c0.4,0.2,0.7,0.5,0.7,0.9c0,0.2-0.1,0.6-0.3,1.1
			c-0.2,0.5-0.3,0.9-0.3,1.1c0,1,0.4,1.7,1.1,2.2l0.1,0c0,0,0,0.1,0.1,0.1c0,0,0.2,0.2,0.4,0.4c0.3,0.3,1.2,0.3,2.6,0.1
			c1.5-0.2,2.4-2.2,2.8-6c0.4-3.7,0.5-5.7,0.4-6C350.5,290.9,350.5,289.9,350.5,287.8z"/>
		<path fill="#B6C134" d="M94.1,216.3c1.3,0,2.2,0.5,2.7,1.6c0.3,0.6,0.4,1.2,0.4,1.8c0,0.6-0.2,1.2-0.5,1.7
			c-0.3,0.5-0.5,0.9-0.5,1.2c0,0.4,0.3,1,1,1.7c0.7,0.7,1,1.3,1,1.6c0,0.3-0.2,0.7-0.7,1.1c-0.4,0.4-0.7,0.9-0.7,1.3
			c0,0.6,0.3,1.2,0.9,1.6c0.6,0.5,0.9,0.9,0.9,1.5c0,0.3-0.1,0.9-0.4,1.6c0,0.4,0.2,1,0.7,1.8h0.1c-0.1-0.4,0-1,0.4-1.8
			c0.4-0.9,0.6-1.5,0.5-1.9c-0.1-0.7,0.3-1.4,1.2-2c0.9-0.6,1.3-1.2,1.3-1.7c0-0.1-0.3-0.6-0.8-1.3c-0.5-0.7-0.8-1.4-0.8-2.1
			c0-0.5,0.1-1,0.4-1.6c0.4-0.8,0.9-1.2,1.7-1.2c0.9,0,1.5,0.3,1.8,1c0.1,0.3,0.2,0.7,0.1,1.1c0,0.7-0.1,1.3-0.4,1.9
			c-0.3,0.6-0.4,1-0.4,1.4c0,0.5,0.2,1,0.5,1.4c0.3,0.5,0.4,0.8,0.4,1.1c0,0.2-0.2,0.6-0.4,1c-0.3,0.5-0.6,1.1-0.7,2
			c-0.2,0.9,0.4,1.8,1.7,2.8c0,0.1-0.3,0.5-0.7,1.1c-0.5,0.6-0.7,1.3-0.6,2c0.1,0.7,0.1,1.2,0.2,1.2c0.1,0.2,0.3,0.7,0.7,1.5
			c0.2-0.6,0.8-1.3,2-2.4c1.1-0.9,1.5-1.8,1.5-2.4c0-0.4-0.2-0.9-0.6-1.6c-0.4-0.7-0.6-1.1-0.6-1.2c0.8-1.1,1.2-1.9,1.2-2.5
			c0-0.2-0.2-0.6-0.6-1.2c-0.4-0.5-0.6-0.8-0.6-0.8c0-0.3,0.3-0.6,0.9-0.9c0.6-0.3,0.8-0.7,0.8-0.9c0-0.4-0.2-1-0.5-1.8
			c-0.3-0.9-0.5-1.5-0.5-1.9c0-1.6,0.6-2.4,1.7-2.4c1.2,0,1.9,0.2,2.3,0.6c0.2,0.1,0.4,0.2,0.6,0.3l0,14.9c0.3-0.2,0.5-0.4,0.7-0.5
			c1.1-0.8,1.6-1.7,1.6-2.7c0-0.3-0.2-0.8-0.4-1.3c-0.3-0.6-0.5-0.9-0.5-1.1c0-0.2,0.2-0.5,0.7-1.1c0.4-0.6,0.7-1.1,0.7-1.4
			c-0.5-2.4-0.8-3.7-0.8-3.7c0-0.3,0.4-0.9,1.1-1.5c0.7-0.7,1.1-1.3,1.1-1.8c0-0.4-0.2-1-0.7-1.7c-0.5-0.6-0.7-1-0.7-1.1
			c0-0.2,0.2-0.4,0.5-0.5c0,0,0.4-0.1,1.1-0.3c1-0.3,1.6-0.8,1.6-1.5c0-0.9-0.4-1.7-1.3-2.3c-0.4-0.3-0.7-0.5-0.9-0.6
			c-0.3-0.2-0.4-0.3-0.4-0.4c0-0.1,0.2-0.3,0.6-0.7c0.4-0.3,0.6-0.7,0.6-1c0-0.6-0.3-1.3-0.8-1.9c-0.7-0.9-1.7-1.3-3-1.3
			c-0.8,0-1.2,0.1-1.4,0.3c0.4,0.1,0.7,0.4,0.9,0.7c0.1,0.2,0.2,0.6,0.2,1.1c0,0.3-0.1,0.7-0.2,1c1.2,0,2,0.4,2.4,1.3
			c0.2,0.4,0.3,0.9,0.3,1.4c0,0.6-0.1,1-0.4,1.3l-0.2,0.1c-0.2-0.2-0.3-0.4-0.3-0.4c0.2-0.5,0.3-0.8,0.3-1c0-1.1-0.5-1.7-1.6-1.9
			c-0.2,0-0.5-0.1-0.9-0.1c-0.3,0.1-0.6,0.3-0.8,0.4c-0.2,0.1-0.2,0.3-0.1,0.6c0.1,0.2,0.2,0.6,0.2,1c0,0.6-0.3,1.3-1,2.1
			c-0.2-0.1-0.3-0.2-0.3-0.4c0.4-0.9,0.7-1.5,0.7-1.6c0-1-0.6-1.6-1.6-1.8c-0.3-0.1-0.7-0.1-1.1-0.1c-0.3-0.1-0.5-0.2-0.5-0.3
			c0-0.2,0.1-0.2,0.2-0.3c0.1,0,0.4,0,0.9,0c0.8,0,1.5,0.2,2,0.7c0.1,0,0.4-0.2,0.9-0.5c0.5-0.3,0.7-0.9,0.7-1.7
			c0-0.8-1.1-1.1-3.1-0.9c0,0-0.1-0.2-0.1-0.4c0-0.2,0.1-0.3,0.1-0.3c0.1-0.1,0.4-0.1,1-0.1c0.2,0,0.5,0,0.7,0.1
			c-0.2-1.1-0.9-1.7-2.1-1.7c-1.9,0-3.2,0.6-3.7,1.9c-0.2,0.3-0.3,0.8-0.4,1.4c-0.1,0.5-0.2,0.8-0.2,0.9c-0.4-0.4-0.8-0.8-1.1-1
			c-0.6-0.5-1.3-0.7-2.2-0.7c-1.7,0-2.7,0.6-3.1,1.7c-0.1,0.3-0.2,0.7-0.3,1.2c-0.1,0.3-0.2,0.5-0.4,0.5c-0.1,0-0.3-0.2-0.7-0.5
			c-0.5-0.3-1.2-0.5-2-0.5c-1.3,0-2.2,0.5-2.7,1.5c0,0-0.1,0.3-0.4,1.1c-0.1,0.3-0.3,0.5-0.4,0.5c-0.1,0-0.4-0.1-0.8-0.3
			c-0.4-0.2-1-0.3-1.9-0.3c-1.5,0-2.6,0.8-3.2,2.5c-0.1,0.3-0.2,0.6-0.3,0.8h7C92.6,216.6,93.3,216.3,94.1,216.3z"/>
		<polygon fill="#AB782B" points="86.2,225.3 86.2,276.2 90.6,276.2 90.5,225.3 		"/>
		<polygon fill="#BB892C" points="81.2,225.4 81.2,276.2 85.1,276.2 85,225.3 		"/>
		<path fill="#BB892C" d="M104.2,223.3c0-0.4-0.1-0.7-0.2-0.9c-0.2-0.3-0.6-0.5-1.2-0.5c-0.9,0-1.3,0.7-1.3,2.2c0,0,0,0.1,0,0.1h2.5
			C104.2,223.9,104.2,223.6,104.2,223.3z"/>
		<path fill="#BB892C" d="M95.6,222.6c0-0.6,0.2-1,0.5-1.5c0.4-0.4,0.5-0.9,0.5-1.3c0-0.6-0.1-1.1-0.4-1.6v0l-3.9,0c0,0,0,0,0,0.1
			c-0.1,0-0.1,0-0.2-0.1l-16.2,0.1v5.9l20.2,0C95.8,223.6,95.6,223.1,95.6,222.6z"/>
		<path fill="#AB782B" d="M97.5,225.8c0-0.1-0.1-0.2-0.4-0.6h-0.5v1.5h0.2C97.3,226.2,97.5,225.9,97.5,225.8z"/>
		<polygon fill="#BB892C" points="91.7,225.3 91.7,276.2 95.6,276.2 95.5,225.3 		"/>
		<path fill="#BB892C" d="M105.5,242.6c-1.2-1.3-1.8-2.7-1.8-4.5c0-0.8,0-1.3,0.1-1.5c0.1-0.5,0.4-1.1,0.9-1.6
			c-0.7-0.6-1-1.1-1.2-1.6c-0.1-0.2-0.1-0.8-0.1-1.7c0.6-1.6,0.8-2.4,0.8-2.6c-0.6-1.2-0.8-2.1-0.8-2.5c0-0.5,0.1-0.9,0.3-1.4h-1.5
			v0.1c0.1,0.1,0.1,0.2,0.2,0.3c0.5,0.8,0.8,1.4,0.8,1.7c0,0.5-0.1,0.9-0.3,1.2c-0.1,0.2-0.3,0.4-0.7,0.6l0,46.9h3.9L106,241
			C105.7,241.6,105.6,242.1,105.5,242.6z"/>
		<path fill="#AB782B" d="M100.7,231.7c-0.1,0.8-0.5,2.3-1.4,4.2c-0.7-0.4-1.2-1.3-1.7-2.9c0-0.3,0.1-0.6,0.2-0.9
			c0.1-0.3,0.2-0.5,0.2-0.7c0-0.1-0.3-0.5-0.9-1.2c-0.2-0.2-0.3-0.4-0.5-0.6l0,46.5l4.4,0l-0.1-45.5
			C100.8,230.9,100.7,231.3,100.7,231.7z"/>
		<path fill="#BB892C" d="M111.5,224.1v-2.3c-0.2-0.2-0.7-0.3-1.5-0.3c-0.8,0-1.2,0.6-1.1,1.7c0,0.1,0.1,0.4,0.3,0.9H111.5z"/>
		<path fill="#AB782B" d="M109.5,225.2c0.2,0.7,0.4,1.3,0.4,1.7c0,0.6-0.5,1.2-1.5,1.8c0.3,0.5,0.6,0.8,0.9,1.1
			c0.1,0.1,0.1,0.4,0.1,0.8c0,0.3-0.3,1.1-0.9,2.6c0,0,0.3,1,0.9,2.8c0,0.6-0.2,1.2-0.6,1.8c-0.2,0.3-0.6,0.7-1.3,1.3
			c-0.1,0.1-0.2,0.2-0.3,0.3v36.6h4.4l-0.1-50.9H109.5z"/>
		<polygon fill="#AB782B" points="80.1,276.2 80,225.4 75.9,225.4 75.9,276.2 		"/>
		<path fill="#AB782B" d="M66.6,230.2c3-0.1,5.7,0.3,8.1,1.2v-3.4c-0.1,0-0.1-0.1-0.2-0.1c-2-0.8-4.3-1.2-6.8-1.2
			c-5.8,0-10,2.6-12.8,7.8c1.3,0.1,2.4,0.3,3.3,0.6C60.1,231.9,62.8,230.3,66.6,230.2z"/>
		<radialGradient id="SVGID_5_" cx="77.453" cy="153.2977" r="133.948" gradientUnits="userSpaceOnUse">
			<stop  offset="0" style="stop-color:#FAE3CC"/>
			<stop  offset="1" style="stop-color:#FDCF9D"/>
		</radialGradient>
		<path fill="url(#SVGID_5_)" d="M45.5,241.6c0,0,0,0.1-0.1,0.1c-0.4,0.6-0.9,1.5-1.4,2.8c-0.3,0.8-0.7,1.8-1,3.3
			c-0.4,1.5-0.6,2.7-0.6,3.4c0,2.4,0.4,4.4,1.3,6.1c1.7,3.2,4.7,4.8,9.2,4.8c2.7,0,4.8-0.4,6.2-1.2c1-0.6,1.4-1.1,1.4-1.7
			c0-0.2-0.1-0.4-0.2-0.6c-0.1-0.3-0.3-0.6-0.5-0.9c-0.5-0.6-0.9-1-1.4-1.3c0,0,0-0.1,0-0.1c0,0,0,0,0,0c0.8-0.2,1.2-0.3,1.4-0.4
			c0.7-0.3,1.1-0.6,1.4-0.9c0.2-0.2,0.3-0.4,0.3-0.6c0,0,0,0,0-0.1c0,0,0-0.1,0-0.1c0-0.4-0.4-0.9-1.4-1.4c-1-0.6-1.7-1-2.3-1.2
			c0-0.1,0-0.1,0-0.1c0,0,0.1,0,0.1,0c0.7-0.2,1.3-0.4,1.8-0.7c0.6-0.2,1.1-0.4,1.5-0.7c0.3-0.2,0.5-0.5,0.5-0.9c0-0.1,0-0.2,0-0.3
			c0-0.1,0-0.1,0-0.2c0.1-0.2,0.1-0.4,0.1-0.7c0-0.1,0-0.2,0-0.3c0-0.6-0.1-1.1-0.4-1.5c-0.1-0.2-0.2-0.5-0.3-0.7
			c-0.2-0.4-0.5-0.9-0.9-1.3c-0.7-0.7-1.5-1-2.4-1.1c0,0,0-0.1,0-0.1c0,0,0,0,0,0c0.1,0,0.1-0.1,0.2-0.1c0,0,0.1,0,0.1,0
			c2.2,0,3.3-1,3.4-2.9c0-0.1,0-0.2,0-0.3c0-0.8-0.5-1.5-1.4-2.3c-1.5-1.2-3.9-1.7-7.2-1.7c-0.5,0-1,0-1.5,0
			C49,237.4,47,239.3,45.5,241.6z"/>
		<radialGradient id="SVGID_6_" cx="77.4527" cy="153.3035" r="133.94" gradientUnits="userSpaceOnUse">
			<stop  offset="0" style="stop-color:#FAE3CC"/>
			<stop  offset="1" style="stop-color:#FDCF9D"/>
		</radialGradient>
		<path fill="url(#SVGID_6_)" d="M63.5,250c0.3,0.2,0.5,0.3,0.8,0.3c1.6,0,2.6-1.3,3-3.8c0.1-0.8,0.2-1.7,0.2-2.7
			c0.1-0.7,0.1-1.4,0.1-1.9c0-0.5,0-1.5-0.1-2.9c-0.1-1.4-0.8-2.1-2-2c-1.3,0.1-2.1,0.1-2.3,0.3c-0.2,0.1-0.4,0.5-0.6,1
			c0.2,0.5,0.3,1,0.3,1.6c0,0.8-0.2,1.5-0.5,2.3c-0.3,0.5-0.6,0.9-1,1.1c1.2,0.9,1.8,2.4,1.8,4.8c0,0.6-0.1,1.2-0.2,1.7
			C63.2,249.8,63.3,249.9,63.5,250z"/>
		<path fill="#086A73" d="M50.2,232c-5,1-8.5,4.4-10.3,10.1c-0.3,0.9-0.5,1.8-0.7,2.8c0.3,0.7,0.6,1.3,0.9,2
			c0.4,0.7,0.9,1.4,1.4,2.1c0.2-1.9,0.7-3.8,1.5-5.6c0.4-1.1,1-2,1.7-2.9c0.1-0.1,0.1-0.2,0.2-0.3c1.3-1.9,2.8-3.5,4.6-4.9
			c0.3-0.2,0.5-0.4,0.8-0.5c-0.1-0.3-0.1-0.7-0.1-1C50.1,233.2,50.1,232.6,50.2,232z"/>
		<path fill="#AB782B" d="M64.9,266.9c-4,0-6.8-1.2-8.6-3.6c-0.9,0.1-1.8,0.2-2.9,0.2c2,4.3,5.4,6.4,10.1,6.4c4.5,0,8.2-1,11.2-2.9
			v-3.9h-0.1C72.3,265.7,69,266.9,64.9,266.9z"/>
		<radialGradient id="SVGID_7_" cx="77.4534" cy="153.3029" r="133.946" gradientUnits="userSpaceOnUse">
			<stop  offset="0" style="stop-color:#FAE3CC"/>
			<stop  offset="1" style="stop-color:#FDCF9D"/>
		</radialGradient>
		<path fill="url(#SVGID_7_)" d="M224.1,437.7c0.7,0.2,1.9,0.4,3.6,0.7c1.5,0.3,2.6,0.5,3.4,0.8c2.2,0.7,3.3,1.9,3.3,3.6
			c0,0.4-0.1,1.6-0.3,3.4c-0.2,0.1-0.4,0.2-0.6,0.3c-0.3-0.3-0.4-0.9-0.5-1.8c0.1-0.9,0.1-1.5,0.1-1.8c0-0.7,0-1.2-0.1-1.3
			c-0.1-0.4-0.5-0.7-1-0.9c-1-0.4-4-1.1-9-1.9c-1.8,1.6-3.8,2.9-6.2,3.8l0.1,0.2c1.5,2.4,2.3,4.5,2.2,6.5c-0.1,2-0.4,3.5-0.8,4.7
			c-0.4,1.1-1,2.1-1.8,3c-1.2,1.3-3,2.4-5.4,3.5c-1.3,0.5-2.3,0.9-2.9,1.2c-1.1,0.4-1.9,0.9-2.5,1.2c-1.6,1-2.5,2.3-2.5,3.9
			c0,0.2,0,0.4,0.1,0.6l0.1-0.1c0.3-0.5,1.2-1,2.6-1.6l0.8,0.1c0,0,0,0.1,0.1,0.1c0,0,0.1,0.2,0.1,0.4c0,0.2-0.4,0.6-1.2,1.1
			c-0.8,0.5-1.2,1-1.2,1.5c0,0.7,0.2,1.2,0.7,1.6c0.5,0.4,1.2,0.5,2,0.5v-0.2c-0.1-0.3-0.2-0.6-0.2-0.6c0-0.9,0.2-1.6,0.6-2
			c0.2-0.3,1.1-0.8,2.5-1.7l0.8,0.1c0,0,0,0.1,0.1,0.1c0,0,0.1,0.2,0.1,0.4c0,0.1-0.4,0.5-1.3,1.3c-0.9,0.7-1.3,1.4-1.2,2.2
			c0,0.8,0.4,1.4,1.2,1.8c0.8,0.4,1.3,0.4,1.6-0.1c0-0.2,0-0.3,0-0.5c0-0.7,0.1-1.4,0.3-2.1c0.3-0.9,0.7-1.4,1.3-1.4l0.7,0.1
			c0,0,0,0.1,0.1,0.1c0,0,0.1,0.2,0.1,0.4c0,0.3-0.2,0.7-0.5,1.4c-0.3,0.7-0.5,1.2-0.5,1.6c0,0.9,0.3,1.8,1,2.7
			c0.9,1.1,2.3,1.7,4,1.7c1.4,0,2.4-1.4,3.1-4.3c0.2-0.6,0.9-1.1,2.1-1.6c1.7-0.7,3-1.3,3.8-1.9c1.3-1,2-2.4,2-4.2
			c-0.1-1-0.1-1.7-0.1-2.3c0-0.9,0-1.6,0.2-2.2c0.5-2,1.5-3.7,2.9-5.1c0.2-0.2,0.4-0.4,0.6-0.6c0.8-0.7,2-1.5,3.5-2.5
			c1.8-1.1,3-2.1,3.7-2.9c1.1-1.3,1.6-2.8,1.6-4.7c0-2.8-1.3-5-4-6.6c-1.1-0.6-2.4-1.2-4.2-1.8c-0.4-0.2-2-0.7-4.8-1.5
			c-0.3-0.1-0.6-0.2-0.9-0.3C226.2,435.2,225.2,436.5,224.1,437.7z"/>
	</g>
</g>
<g id="ziutek_x5F_07">
</g>
<g id="ziutek_x5F_08">
</g>
<g id="ziutek_x5F_09">
</g>
<g id="ziutek_x5F_10">
</g>
<g id="lady_x5F_01">
</g>
<g id="Layer_13">
</g>
<g id="Layer_12">
</g>
<g id="Layer_14">
</g>
<g id="Layer_15">
</g>
<g id="Layer_16">
</g>
<g id="Layer_17">
</g>
<g id="Layer_18">
</g>
<g id="Layer_19">
</g>
<g id="Layer_20">
</g>
<g id="Layer_21">
</g>
<g id="Layer_22">
</g>
<g id="Layer_23">
</g>
<g id="Layer_24">
</g>
<g id="Layer_25">
</g>
<g id="Layer_26">
</g>
<g id="Layer_27">
</g>
<g id="Layer_28">
</g>
<g id="Layer_29">
</g>
<g id="Layer_30">
</g>
<g id="Layer_31">
</g>
<g id="Layer_32">
</g>
<g id="Layer_33">
</g>
<g id="Layer_34">
</g>
<g id="Layer_36">
</g>
<g id="Layer_35">
</g>
<g id="Layer_37">
</g>
<g id="Layer_38">
</g>
<g id="Layer_39">
</g>
<g id="Layer_40">
</g>
</svg>
