<?xml version="1.0" encoding="utf-8"?>
<!-- Generator: Adobe Illustrator 18.1.1, SVG Export Plug-In . SVG Version: 6.00 Build 0)  -->
<!DOCTYPE svg PUBLIC "-//W3C//DTD SVG 1.1//EN" "http://www.w3.org/Graphics/SVG/1.1/DTD/svg11.dtd">
<svg version="1.1" xmlns="http://www.w3.org/2000/svg" xmlns:xlink="http://www.w3.org/1999/xlink" x="0px" y="0px"
	 viewBox="0 0 393 483" enable-background="new 0 0 393 483" xml:space="preserve">
<g id="ziutek_x5F_01">
</g>
<g id="ziutek_x5F_02">
</g>
<g id="ziutek_x5F_03">
</g>
<g id="ziutek_x5F_04">
</g>
<g id="ziutek_x5F_05">
</g>
<g id="ziutek_x5F_06">
</g>
<g id="ziutek_x5F_07">
	<g>
		<path fill="none" d="M126.1,179.4c-0.2-0.8-0.4-1.5-0.5-2.3c-0.6-2.3-1.1-4.6-1.4-6.9c-0.3-1.5-0.5-3.1-0.7-4.7
			c-0.3-2.2-0.5-4.5-0.7-6.7c-0.2-2.2-0.4-4.5-0.5-6.7c-0.2-2.2-0.3-4.5-0.4-6.7c-0.1-2.2-0.2-4.5-0.3-6.7c-0.1-2.2-0.1-4.5-0.1-6.7
			c0-2.3,0-4.5,0-6.7c0-2.2,0.1-4.5,0.1-6.7c0-1.6,0.1-3.2,0.2-4.8c-1.8-0.1-3-0.7-3.6-2c-0.2-0.5-0.4-1.2-0.4-2.2c0,0,0,0,0-0.1
			c-1.6,1.4-3.1,2.9-4.7,4.3c-1.6,1.5-3.1,3.1-4.6,4.7c-1,1.1-2,2.1-3,3.2c-1,1-1.9,2.1-2.9,3.2c-0.9,1.1-1.9,2.1-2.8,3.2
			c-1.4,1.6-2.7,3.2-4.1,4.9c-1.3,1.7-2.6,3.4-3.9,5.1c-1.4,2-2.8,4.2-4,6.4c-1.1,2-1.3,4.1-0.7,6.3c0.7,2.5,1.7,4.8,3.2,6.8
			c1.4,2,2.9,3.8,4.6,5.6c1.7,1.9,3.5,3.7,5.3,5.4c1.7,1.7,3.5,3.3,5.4,4.9c1.9,1.7,4,3.3,6.2,4.7c2,1.3,4.2,2.6,6.6,3.9
			c2.4,1.3,4.7,2.5,6.9,3.6c1.5,0.8,3,1.5,4.5,2.2c-0.4-0.6-0.8-1.2-1.1-1.8C127.5,184.1,126.6,181.8,126.1,179.4z"/>
		<path fill="none" d="M210.9,412.6c-0.5-1.2-1-2.3-1.5-3.5c-0.2-0.4-0.3-0.9-0.4-1.3c-0.1-0.5-0.2-1-0.3-1.5
			c-0.2-1.8-0.1-3.5,0.3-5.2c0.3-1.3,0.6-2.6,1-3.9c0.3-1.3,0.6-2.6,1-3.9c0.2-0.9,0.5-1.9,0.7-2.8c0.2-0.7,0.3-1.4,0.5-2.1
			c0.3-1.2,0.6-2.3,0.8-3.5c0.5-2.2,1-4.4,1.5-6.6c0.1-0.3,0.1-0.6,0.2-0.9c-4.6-0.2-9.1-0.7-13.7-1.5c-1.1-0.2-2.1-0.4-3.2-0.6
			c-2.3,2.8-4.3,5.8-6.1,8.9c-0.4,1.1-1.2,3.5-2.4,7.3c-1.7,5.5-2.6,8.7-2.6,9.6c0,1.1,0.8,3.3,2.4,6.9c1,2.2,2.7,5.8,5.3,10.8
			c2.6,5.1,4.4,8.7,5.3,10.7c0.5,1,0.8,1.9,1.2,2.7c0.1-0.1,0.2-0.1,0.3-0.2c0.1-0.1,0.1-0.2,0.2-0.3c0.1,0,0.2,0,0.3,0.1
			c0,0,0,0,0.1,0c0,0,0,0,0,0.1c1.4,0.5,2.4,1.4,2.9,2.9c0.3,0.7,0.4,1.5,0.4,2.4c0,0.5,0,1,0,1.5c0,0.2,0,0.3,0,0.5
			c0.5,0,1.1,0,1.7,0c2,0,3.4,0,4.3,0.1c0.2,0,0.7,0.1,1.6,0.3c1.4,0.3,5,0.4,11,0.5c-0.5-1.5-1.1-3-1.8-4.5
			c-2.2-4.7-3.7-7.8-4.5-9.5C215.1,421.5,213,417.1,210.9,412.6z"/>
		<path d="M304,276.2c-0.7-3.3-1.1-5.3-1.1-6.1c-0.4-6.4-1.1-12.9-2-19.2c-0.8-5.9-2.2-11.6-4.3-17.1c-2-5.3-4.4-10.5-7.2-15.5
			c-2.5-4.6-5.3-9-8.3-13.2c-3.3-4.6-6.9-9-10.8-13.1c-3.7-3.9-7.7-7.3-12-10.4c-4.6-3.2-9.6-5.8-14.8-7.9
			c-5.5-2.2-11.1-3.8-16.9-4.8c-3-0.5-5.9-0.8-8.9-1c0.9-1.9,1.6-3.8,2.3-5.8c0.8-2.5,1.3-5.1,1.5-7.7c0.2-2.6,0.4-5.1,0.5-7.7
			c0.1-2.2,0.2-4.5,0.3-6.7c0.1-2.1,0.1-4.1,0.1-6.2c0-2.2,0-4.3,0-6.5c0-2.3,0-4.6,0-6.8c0-1.6-0.1-3.3-0.3-4.9
			c-0.3-2.6-0.7-5.2-1-7.8c-0.3-2.3-0.8-4.6-1.3-6.9c-0.6-2.5-1.3-5.1-2.2-7.6c-0.3-1-0.7-2-1.3-2.9c-0.8-1.4-1.7-2.7-2.9-3.8
			c-1.8-1.8-3.8-3.1-6.1-4.1c-1.8-1.2-4.3-2.2-7.6-3c-4.8-1.3-7.8-1.8-8.9-1.5c0.7-0.6,1.1-1.2,1.4-1.7c0.3-0.6,0.5-1.3,0.5-2.2
			c0-1-0.3-2-0.8-3.2c-0.4-0.7-0.8-1.3-1.3-1.7c0.5-0.4,1-1,1.5-1.8c0.6-1.1,0.9-2,0.9-2.7c0-4.4-2.3-6.6-6.9-6.6
			c-0.9,0-1.4,0-1.4,0.1c-0.3,0-1.3,0.3-3.1,0.9c0.7-0.8,1.3-1.6,1.6-2.5c0.4-1,0.6-1.9,0.7-2.6c0.1-0.7,0.1-1.4,0.1-2.2
			c0-0.8-0.1-1.4-0.2-1.9c-0.1-0.5-0.7-1.8-1.6-4c-0.2-0.6-0.7-1.3-1.5-2.2c-0.6-0.9-1.5-1.7-2.8-2.5c-1.3-0.8-2.3-1.4-3.1-1.7
			c0,0-0.1,0-0.1-0.1c0.1,0.3,0.3,0.5,0.4,0.7c0.7,1.5,1.1,2.9,1.1,4.1c0,2.5-1.1,4.4-3.3,5.7c-1.4,0.8-3.9,1.6-7.4,2.3
			c-3.6,0.7-6.1,1.4-7.4,2.1c-2.2,1.1-3.3,2.9-3.3,5.2c0,0.7,0.1,1.3,0.4,1.8c-3.4,1.1-5.5,1.9-6.4,2.6c-0.4,0.4-0.7,0.8-0.9,1.4
			c-0.1,0.4-0.1,1-0.1,1.9c0,0.3,0.1,0.7,0.2,1.2c0.3,0.8,0.6,1.5,1.2,2.1c0.9,1.1,2.1,1.8,3.7,2.3c0,0.1-0.1,0.2-0.1,0.2
			c-0.3,0.9-0.7,1.6-1.1,2.1c-1.3,1.9-3.2,2.5-5.6,1.7c0,0,0,0.1-0.1,0.1c0,0,0,0.1,0,0.3c0.2,0.9,0.5,1.9,0.9,2.8
			c0.6,1.5,1.3,2.4,2,2.6c-4.2,1.8-8.3,3.9-12.3,6.3c-0.4,0.3-0.8,0.5-1.2,0.8c-0.1-0.2-0.3-0.4-0.5-0.7c-0.4-0.5-0.7-0.8-1.1-1
			c0.1-0.2,0.2-0.4,0.2-0.6c0-0.1,0.1-0.3,0.1-0.5c0.3-0.2,0.7-0.6,1.4-1.1c1.3-1.1,2.5-2.1,3.6-3.2c3.5-3.3,5.2-5.8,5.2-7.3
			c0,0,0-0.2,0-0.4c0-0.3,0-0.6-0.1-0.9c-0.3-0.8-0.9-1.2-2-1.2c-0.2,0-2,1.2-5.6,3.7c-3.3,2.3-5.1,3.6-5.4,4
			c-0.4-0.1-0.9-0.1-1.5-0.1c-2.5,0-3.8,0.3-3.8,1c0,0,0,0.1,0,0.1c-0.4-0.1-0.8-0.1-1.2-0.1c-0.6,0-1.9,0.5-4.1,1.4
			c-1.5,0.7-2.5,1.2-3,1.6c-2.7,0.2-4.5,1.5-5.3,4.1c-0.3,0.9-0.4,1.9-0.5,3c0,0.9,0,1.5,0,1.6c-0.1,2.1-0.3,3.7-0.4,4.7
			c-0.1,0.3-0.2,0.7-0.5,1.3c-1.1-0.4-2.3-0.7-3.5-0.8c-0.1,0.3-0.2,0.6-0.4,0.8c0,0,0.1,0,0.1,0c-1.6,2.1-3.1,4.1-4.7,6.2
			c-3.2,4.3-6.5,8.5-10.1,12.5c-3.5,3.9-6.9,7.8-10.3,11.8c-3.5,4.2-6.4,8.7-8.4,13.7c-1.8,4.3-2,8.7-0.5,13.1
			c1.7,5.2,4.3,9.8,7.9,13.9c3.5,4,7.2,7.7,11.3,11.2c4,3.4,8,6.8,12.1,10c4.1,3.2,8.2,6.5,12.2,9.7c3.8,3,7.6,6,11.3,9
			c-1.7,4.4-3,8.7-3.9,13.1c-1.1,5.2-2,10.4-2.7,15.6c-0.7,5.3-1.4,10.7-2,16c-0.8,7-1.2,13.7-1.4,20c-0.2,6.3,0,12.3,0.5,18
			c0.5,5.6,1.5,11,3.1,16c0.5,1.6,1,3.3,1.6,5c-0.1,0-0.2-0.1-0.4-0.1c0.1,0.1,0.1,0.1,0.2,0.2c0.1,0.1,0.3,0.3,0.4,0.4
			c1.2,3.4,2.6,6.9,4.3,10.5c2.4,5.2,5.4,10.1,9,14.5c3.8,4.6,7.8,9,12.1,13c5.3,5,11.3,9,17.9,12.2c4.6,2.2,9.2,4.1,13.9,5.9
			c0,0.3-0.1,0.5-0.2,0.8c-0.5,2.2-1,4.4-1.5,6.6c-0.3,1.2-0.6,2.3-0.8,3.5c-0.2,0.7-0.3,1.4-0.5,2.1c-0.2,0.9-0.5,1.9-0.7,2.8
			c-0.3,1.3-0.7,2.6-1,3.9c-0.3,1.3-0.6,2.6-1,3.9c-0.4,1.7-0.5,3.5-0.3,5.2c0.1,0.5,0.2,1,0.3,1.5c0.1,0.4,0.3,0.9,0.4,1.3
			c0.4,1.2,0.9,2.3,1.5,3.5c2.1,4.5,4.2,9,6.4,13.4c0.8,1.7,2.3,4.8,4.5,9.5c0.7,1.5,1.3,3,1.8,4.5c-5.9,0-9.6-0.2-11-0.5
			c-0.9-0.2-1.4-0.3-1.6-0.3c-0.8-0.1-2.3-0.1-4.3-0.1c-6.5,0-11.2,1.3-14.3,4c-1.1,0.9-1.9,2-2.4,3.2c-0.4,0.9-0.6,1.7-0.6,2.4
			c0,1.2,0.3,2.6,1.1,4.1c0.2,0.4,0.5,1.1,1,2c0,0,0,0,0,0c0.1,0,0.2-0.1,0.3-0.1c0,0,0,0.1,0,0.1c1.8,0,4,0,6.6,0
			c4.3,0,8.7,0.1,13.1,0.1c0.2,0,4,0,11.6-0.1c-0.1,0.3-0.1,0.6-0.1,1c0,1.2,0.3,2.6,1.1,4.1c0.2,0.4,0.5,1.1,1,2c0,0,0,0,0,0
			c0.1,0,0.2-0.1,0.3-0.1c0,0,0,0.1,0,0.1c1.8,0,4,0,6.6,0c4.3,0,8.7,0.1,13.1,0.1c0.3,0,8.4,0,24.3-0.1c0,0,0,0,0,0c0,0,0,0,0.1,0
			c0.3,0,0.6,0,0.9,0.1c0.1-2,0.4-3.6,0.9-4.7c0.3-0.8,0.5-1.3,0.6-1.6c0.2-0.7,0.3-1.6,0.3-2.7c0-0.5,0-1,0-1.5
			c0-0.9-0.2-1.7-0.4-2.4c-0.5-1.5-1.5-2.5-2.9-2.9c0,0,0,0,0-0.1c0,0,0,0-0.1,0c-0.1,0-0.2-0.1-0.3-0.1c0,0.1-0.1,0.2-0.2,0.3
			c-0.1,0-0.2,0.1-0.3,0.2c-0.3-0.8-0.7-1.7-1.2-2.7c-0.9-2-2.7-5.6-5.3-10.7c-2.5-5-4.3-8.6-5.3-10.8c-1.6-3.5-2.4-5.8-2.4-6.9
			c0-0.9,0.9-4.1,2.6-9.6c1.2-3.8,2-6.2,2.4-7.3c2-3.5,4.3-6.8,6.8-9.9c3.5-4.2,7.8-7.3,12.9-9.3c2.2-0.9,4.4-1.8,6.5-2.8
			c4.8-2.3,9.5-4.7,14-7.5c4.3-2.6,8.3-5.8,11.8-9.5c3.5-3.7,6.6-7.8,9.4-12.1c2.4-3.7,4.5-7.6,6.4-11.6c2.3-5,4.3-10,5.9-15.2
			c1.3-4.2,2.4-8.4,3.2-12.7c0.4-2.3,0.9-4.3,1.3-5.9c0.4-1.6,0.8-4.3,1-8.1C304.9,283.1,304.7,279.5,304,276.2z M125.4,185.8
			c-2.2-1.2-4.6-2.4-6.9-3.6c-2.4-1.3-4.6-2.6-6.6-3.9c-2.2-1.4-4.2-3-6.2-4.7c-1.9-1.6-3.7-3.3-5.4-4.9c-1.8-1.8-3.6-3.6-5.3-5.4
			c-1.6-1.8-3.1-3.7-4.6-5.6c-1.5-2.1-2.6-4.4-3.2-6.8c-0.6-2.2-0.3-4.3,0.7-6.3c1.2-2.2,2.5-4.4,4-6.4c1.2-1.7,2.5-3.4,3.9-5.1
			c1.3-1.6,2.7-3.3,4.1-4.9c0.9-1.1,1.9-2.1,2.8-3.2c1-1.1,1.9-2.1,2.9-3.2c1-1.1,2-2.1,3-3.2c1.5-1.6,3.1-3.2,4.6-4.7
			c1.5-1.5,3.1-2.9,4.7-4.3c0,0,0,0,0,0.1c0,1,0.1,1.7,0.4,2.2c0.6,1.3,1.8,1.9,3.6,2c-0.1,1.6-0.2,3.2-0.2,4.8
			c-0.1,2.3-0.1,4.5-0.1,6.7c0,2.2,0,4.5,0,6.7c0,2.2,0,4.5,0.1,6.7c0.1,2.2,0.1,4.5,0.3,6.7c0.1,2.2,0.2,4.5,0.4,6.7
			c0.2,2.2,0.3,4.5,0.5,6.7c0.2,2.2,0.4,4.5,0.7,6.7c0.2,1.6,0.4,3.1,0.7,4.7c0.4,2.3,0.8,4.6,1.4,6.9c0.2,0.8,0.4,1.5,0.5,2.3
			c0.5,2.4,1.4,4.7,2.7,6.9c0.4,0.6,0.7,1.2,1.1,1.8C128.5,187.4,127,186.6,125.4,185.8z M221.8,435.4c0.7,1.5,1.3,3,1.8,4.5
			c-5.9,0-9.6-0.2-11-0.5c-0.9-0.2-1.4-0.3-1.6-0.3c-0.8-0.1-2.3-0.1-4.3-0.1c-0.6,0-1.2,0-1.7,0c0-0.1,0-0.3,0-0.5c0-0.5,0-1,0-1.5
			c0-0.9-0.2-1.7-0.4-2.4c-0.5-1.5-1.5-2.5-2.9-2.9c0,0,0,0,0-0.1c0,0,0,0-0.1,0c-0.1,0-0.2-0.1-0.3-0.1c0,0.1-0.1,0.2-0.2,0.3
			c-0.1,0-0.2,0.1-0.3,0.2c-0.3-0.8-0.7-1.7-1.2-2.7c-0.9-2-2.7-5.6-5.3-10.7c-2.5-5-4.3-8.6-5.3-10.8c-1.6-3.5-2.4-5.8-2.4-6.9
			c0-0.9,0.9-4.1,2.6-9.6c1.2-3.8,2-6.2,2.4-7.3c1.8-3.1,3.8-6.1,6.1-8.9c1,0.2,2.1,0.4,3.2,0.6c4.5,0.8,9.1,1.3,13.7,1.5
			c-0.1,0.3-0.1,0.6-0.2,0.9c-0.5,2.2-1,4.4-1.5,6.6c-0.3,1.2-0.6,2.4-0.8,3.5c-0.2,0.7-0.3,1.4-0.5,2.1c-0.2,0.9-0.5,1.9-0.7,2.8
			c-0.3,1.3-0.7,2.6-1,3.9c-0.3,1.3-0.6,2.6-1,3.9c-0.4,1.7-0.5,3.5-0.3,5.2c0.1,0.5,0.2,1,0.3,1.5c0.1,0.4,0.3,0.9,0.4,1.3
			c0.4,1.2,0.9,2.3,1.5,3.5c2.1,4.5,4.2,9,6.4,13.4C218.2,427.6,219.7,430.8,221.8,435.4z"/>
	</g>
	<g>
		<path fill="none" d="M195.2,334.3c0,0,0.1,0.1,0.1,0.1L195.2,334.3C195.3,334.3,195.3,334.3,195.2,334.3z"/>
		<path fill="none" d="M194.4,335.3v0.1c0.1,0,0.1,0,0.2,0C194.6,335.4,194.5,335.3,194.4,335.3z"/>
		<path fill="none" d="M128.8,91.2c0.1-0.1,0.1-0.1,0.2-0.2l-0.2,0C128.8,91.1,128.8,91.2,128.8,91.2z"/>
		<path fill="none" d="M210,397.2c0.3-1.3,0.6-2.6,1-3.9c0.2-0.9,0.5-1.9,0.7-2.8c0.2-0.7,0.3-1.4,0.5-2.1c0.3-1.2,0.6-2.3,0.8-3.5
			c0.5-2.2,1-4.4,1.5-6.6c0.1-0.3,0.1-0.6,0.2-0.9c-4.6-0.2-9.1-0.7-13.7-1.5c-1.1-0.2-2.1-0.4-3.2-0.6c-2.3,2.8-4.3,5.8-6.1,8.9
			c-0.4,1.1-1.2,3.5-2.4,7.3c-1.7,5.5-2.6,8.7-2.6,9.6c0,1.1,0.8,3.3,2.4,6.9c1,2.2,2.7,5.8,5.3,10.8c2.6,5.1,4.4,8.7,5.3,10.7
			c0.5,1,0.8,1.9,1.2,2.7c0.1-0.1,0.2-0.1,0.3-0.2c0.1-0.1,0.1-0.2,0.2-0.3c0.1,0,0.2,0,0.3,0.1c0,0,0,0,0.1,0c0,0,0,0,0,0.1
			c1.4,0.5,2.4,1.4,2.9,2.9c0.3,0.7,0.4,1.5,0.4,2.4c0,0.5,0,1,0,1.5c0,0.2,0,0.3,0,0.5c0.5,0,1.1,0,1.7,0c2,0,3.4,0,4.3,0.1
			c0.2,0,0.7,0.1,1.6,0.3c1.4,0.3,5,0.4,11,0.5c-0.5-1.5-1.1-3-1.8-4.5c-2.2-4.7-3.7-7.8-4.5-9.5c-2.2-4.4-4.4-8.9-6.4-13.4
			c-0.5-1.2-1-2.3-1.5-3.5c-0.2-0.4-0.3-0.9-0.4-1.3c-0.1-0.5-0.2-1-0.3-1.5c-0.2-1.8-0.1-3.5,0.3-5.2
			C209.3,399.8,209.6,398.5,210,397.2z"/>
		<path fill="none" d="M153.3,199.7C153.3,199.7,153.3,199.7,153.3,199.7C153.3,199.7,153.3,199.7,153.3,199.7L153.3,199.7z"/>
		<path fill="none" d="M108.6,118.5c-1,1.1-2,2.1-3,3.2c-1,1-1.9,2.1-2.9,3.2c-0.9,1.1-1.9,2.1-2.8,3.2c-1.4,1.6-2.7,3.2-4.1,4.9
			c-1.3,1.7-2.6,3.4-3.9,5.1c-1.4,2-2.8,4.2-4,6.4c-1.1,2-1.3,4.1-0.7,6.3c0.7,2.5,1.7,4.8,3.2,6.8c1.4,2,2.9,3.8,4.6,5.6
			c1.7,1.9,3.5,3.7,5.3,5.4c1.7,1.7,3.5,3.3,5.4,4.9c1.9,1.7,4,3.3,6.2,4.7c2,1.3,4.2,2.6,6.6,3.9c2.4,1.3,4.7,2.5,6.9,3.6
			c1.5,0.8,3,1.5,4.5,2.2c-0.4-0.6-0.8-1.2-1.1-1.8c-1.3-2.1-2.2-4.4-2.7-6.9c-0.2-0.8-0.4-1.5-0.5-2.3c-0.6-2.3-1.1-4.6-1.4-6.9
			c-0.3-1.5-0.5-3.1-0.7-4.7c-0.3-2.2-0.5-4.5-0.7-6.7c-0.2-2.2-0.4-4.5-0.5-6.7c-0.2-2.2-0.3-4.5-0.4-6.7c-0.1-2.2-0.2-4.5-0.3-6.7
			c-0.1-2.2-0.1-4.5-0.1-6.7c0-2.3,0-4.5,0-6.7c0-2.2,0.1-4.5,0.1-6.7c0-1.6,0.1-3.2,0.2-4.8c-1.8-0.1-3-0.7-3.6-2
			c-0.2-0.5-0.4-1.2-0.4-2.2c0,0,0,0,0-0.1c-1.6,1.4-3.1,2.9-4.7,4.3C111.6,115.3,110.1,116.9,108.6,118.5z"/>
		<path fill="none" d="M137.2,77.8C137.2,77.8,137.2,77.9,137.2,77.8v0.1C137.2,77.9,137.2,77.9,137.2,77.8z"/>
		<path fill="#CA9731" d="M164.7,25.7c1.1,1,1.8,1.6,2,1.9c0.6,0.8,0.9,1.7,0.9,2.6c0,1.3-0.3,2.5-0.8,3.5c-0.4,0.7-1,1.5-1.8,2.4
			c-0.9,1-1.5,1.7-1.8,2.1c-0.5,0.8-0.8,1.8-0.8,2.8c0,1,0.1,1.7,0.2,2.1c0.2,0.5,0.7,1.3,1.7,2.4c0.4,0.5,0.7,1.3,0.9,2.4
			c0.2,1.1,0.4,1.8,0.7,2.2c0.1,0,0.3-0.1,0.4-0.2c0-0.4,0.1-0.9,0.1-1.4c0-1.2-0.5-2.7-1.5-4.3c-0.6-1-1-1.5-1-1.7
			c-0.3-0.6-0.5-1.1-0.5-1.5c0-0.9,0.3-1.8,0.8-2.6c0.2-0.3,0.8-0.9,1.8-2c0.8-0.8,1.4-1.6,1.8-2.4c0.5-1.1,0.8-2.4,0.8-3.9
			c0-1.1-0.3-2.2-0.9-3c-0.3-0.5-1-1.2-2-2.1c-0.9-0.8-1.6-1.6-2-2.3c-0.6-1-0.9-2.2-0.9-3.6c0-1.3,0.6-2.7,1.8-4.2
			c0.1-0.1,0.5-0.6,1.2-1.4c0.4-0.4,0.6-0.7,0.6-0.9c0-0.2-0.1-0.3-0.2-0.4c-0.1,0-0.3-0.1-0.3-0.1c-1.9,1.7-3.1,2.9-3.5,3.7
			c-0.4,0.7-0.6,1.8-0.6,3.4c0,1.6,0.3,2.9,0.9,4C163.1,24,163.8,24.8,164.7,25.7z"/>
		<path fill="#CA9731" d="M180.3,19.7c0.9,0.5,1.4,0.9,1.7,1.2c0.5,0.6,0.8,1.3,0.8,2.2c0,0.4-0.2,0.8-0.5,1.3
			c-0.5,0.5-0.9,0.9-1.2,1.2c-1.1,1.2-1.7,2.5-1.7,4.1c0,0.9,0.2,1.7,0.5,2.4c0.2,0.3,0.6,0.8,1.2,1.4c0.5,0.5,0.9,1,1.2,1.5
			c0.4,0.7,0.5,1.6,0.5,2.7c-0.3,1.5-0.4,2.4-0.4,2.8c0,1,0.2,1.7,0.5,2.1c0.2-0.1,0.3-0.2,0.5-0.3c0-0.7,0.1-1.5,0.2-2.5
			c0.1-1,0.2-1.7,0.2-2.1c0-1.3-0.2-2.4-0.5-3.2c-0.2-0.6-0.6-1.1-1.2-1.7c-0.7-0.6-1-1.1-1.2-1.3c-0.3-0.5-0.5-1.2-0.5-2
			c0-0.8,0.2-1.4,0.5-2.1c0.2-0.4,0.6-0.9,1.2-1.5c0.6-0.7,1-1.1,1.2-1.4c0.4-0.5,0.5-1.1,0.5-1.6c0-1-0.3-1.9-0.8-2.6
			c-0.3-0.4-0.9-0.9-1.7-1.4c-0.9-0.5-1.4-1-1.7-1.3c-0.5-0.6-0.8-1.3-0.8-2.2c0-1.5,0.8-2.9,2.3-4.2c0.3-0.2,0.8-0.6,1.6-1.2
			c0.5-0.3,0.7-0.6,0.7-0.7c0-0.3,0-0.5-0.1-0.4L182.6,9c-1.8,1-3.1,1.9-3.8,3c-0.7,0.9-1,2.1-1,3.6c0,1.1,0.3,2.1,0.8,2.7
			C178.9,18.8,179.4,19.2,180.3,19.7z"/>
		<path fill="#CA9731" d="M193.8,34c1,0.8,1.6,1.2,1.9,1.5c0.6,0.6,0.8,1.4,0.8,2.3c0,0.6-0.2,1.1-0.6,1.6c-0.1,0.1-0.6,0.6-1.3,1.4
			c-1.3,1.2-1.9,2.7-1.9,4.3c0,1.1,0.3,2.2,0.9,3.2c0.6,1.1,0.9,2.1,0.9,3c0,0.6-0.2,1.4-0.6,2.1c-0.4,0.8-0.6,1.7-0.6,2.8
			c0,0.9,0.1,1.8,0.2,2.7c0.2,1.7,0.7,2.6,1.3,2.6c0.3,0,0.5-0.1,0.4-0.2c0-0.2,0.1-0.4,0.1-0.5c0-0.2-0.2-0.8-0.5-1.7
			c-0.3-0.9-0.5-1.8-0.5-2.8c0-1.2,0.2-2,0.6-2.6c0.4-0.5,0.6-1.4,0.6-2.5c0-1.5-0.3-2.7-0.9-3.7c-0.3-0.6-0.6-0.9-0.6-1.1
			c-0.2-0.4-0.3-0.9-0.3-1.5c0-0.8,0.2-1.5,0.6-2.2c0.3-0.4,0.7-1,1.3-1.6c0.7-0.7,1.1-1.2,1.3-1.6c0.4-0.6,0.6-1.2,0.6-1.9
			c0-1.3-0.3-2.3-0.8-3c-0.3-0.4-0.9-0.9-1.9-1.4c-0.9-0.5-1.5-1-1.9-1.5c-0.6-0.8-0.8-1.9-0.8-3.4c0-1.5,0.6-3.1,1.9-4.9
			c0.2-0.2,0.6-0.8,1.3-1.7c0.4-0.5,0.6-0.8,0.6-1c0-0.3,0-0.5-0.1-0.4l-0.5-0.1c-1,0.5-1.9,1.5-2.6,2.9c-0.8,1.4-1.2,3-1.3,4.8
			c-0.2,1.7,0.1,3.1,0.6,4C192.4,32.7,193,33.4,193.8,34z"/>
		<path d="M304,276.2c-0.7-3.3-1.1-5.3-1.1-6.1c-0.4-6.4-1.1-12.9-2-19.2c-0.8-5.9-2.2-11.6-4.3-17.1c-2-5.3-4.4-10.5-7.2-15.5
			c-2.5-4.6-5.3-9-8.3-13.2c-3.3-4.6-6.9-9-10.8-13.1c-3.7-3.9-7.7-7.3-12-10.4c-4.6-3.2-9.6-5.8-14.8-7.9
			c-5.5-2.2-11.1-3.8-16.9-4.8c-3-0.5-5.9-0.8-8.9-1c0.9-1.9,1.6-3.8,2.3-5.8c0.8-2.5,1.3-5.1,1.5-7.7c0.2-2.6,0.4-5.1,0.5-7.7
			c0.1-2.2,0.2-4.5,0.3-6.7c0.1-2.1,0.1-4.1,0.1-6.2c0-2.2,0-4.3,0-6.5c0-2.3,0-4.6,0-6.8c0-1.6-0.1-3.3-0.3-4.9
			c-0.3-2.6-0.7-5.2-1-7.8c-0.3-2.3-0.8-4.6-1.3-6.9c-0.6-2.5-1.3-5.1-2.2-7.6c-0.3-1-0.7-2-1.3-2.9c-0.8-1.4-1.7-2.7-2.9-3.8
			c-1.8-1.8-3.8-3.1-6.1-4.1c-1.8-1.2-4.3-2.2-7.6-3c-4.8-1.3-7.8-1.8-8.9-1.5c0.7-0.6,1.1-1.2,1.4-1.7c0.3-0.6,0.5-1.3,0.5-2.2
			c0-1-0.3-2-0.8-3.2c-0.4-0.7-0.8-1.3-1.3-1.7c0.5-0.4,1-1,1.5-1.8c0.6-1.1,0.9-2,0.9-2.7c0-4.4-2.3-6.6-6.9-6.6
			c-0.9,0-1.4,0-1.4,0.1c-0.3,0-1.3,0.3-3.1,0.9c0.7-0.8,1.3-1.6,1.6-2.5c0.4-1,0.6-1.9,0.7-2.6c0.1-0.7,0.1-1.4,0.1-2.2
			c0-0.8-0.1-1.4-0.2-1.9c-0.1-0.5-0.7-1.8-1.6-4c-0.2-0.6-0.7-1.3-1.5-2.2c-0.6-0.9-1.5-1.7-2.8-2.5c-1.3-0.8-2.3-1.4-3.1-1.7
			c0,0-0.1,0-0.1-0.1c0.1,0.3,0.3,0.5,0.4,0.7c0.7,1.5,1.1,2.9,1.1,4.1c0,2.5-1.1,4.4-3.3,5.7c-1.4,0.8-3.9,1.6-7.4,2.3
			c-3.6,0.7-6.1,1.4-7.4,2.1c-2.2,1.1-3.3,2.9-3.3,5.2c0,0.7,0.1,1.3,0.4,1.8c-3.4,1.1-5.5,1.9-6.4,2.6c-0.4,0.4-0.7,0.8-0.9,1.4
			c-0.1,0.4-0.1,1-0.1,1.9c0,0.3,0.1,0.7,0.2,1.2c0.3,0.8,0.6,1.5,1.2,2.1c0.9,1.1,2.1,1.8,3.7,2.3c0,0.1-0.1,0.2-0.1,0.2
			c-0.3,0.9-0.7,1.6-1.1,2.1c-1.3,1.9-3.2,2.5-5.6,1.7c0,0,0,0.1-0.1,0.1c0,0,0,0.1,0,0.3c0.2,0.9,0.5,1.9,0.9,2.8
			c0.6,1.5,1.3,2.4,2,2.6c-4.2,1.8-8.3,3.9-12.3,6.3c-0.4,0.3-0.8,0.5-1.2,0.8c-0.1-0.2-0.3-0.4-0.5-0.7c-0.4-0.5-0.7-0.8-1.1-1
			c0.1-0.2,0.2-0.4,0.2-0.6c0-0.1,0.1-0.3,0.1-0.5c0.3-0.2,0.7-0.6,1.4-1.1c1.3-1.1,2.5-2.1,3.6-3.2c3.5-3.3,5.2-5.8,5.2-7.3
			c0,0,0-0.2,0-0.4c0-0.3,0-0.6-0.1-0.9c-0.3-0.8-0.9-1.2-2-1.2c-0.2,0-2,1.2-5.6,3.7c-3.3,2.3-5.1,3.6-5.4,4
			c-0.4-0.1-0.9-0.1-1.5-0.1c-2.5,0-3.8,0.3-3.8,1c0,0,0,0.1,0,0.1c-0.4-0.1-0.8-0.1-1.2-0.1c-0.6,0-1.9,0.5-4.1,1.4
			c-1.5,0.7-2.5,1.2-3,1.6c-2.7,0.2-4.5,1.5-5.3,4.1c-0.3,0.9-0.4,1.9-0.5,3c0,0.9,0,1.5,0,1.6c-0.1,2.1-0.3,3.7-0.4,4.7
			c-0.1,0.3-0.2,0.7-0.5,1.3c-1.1-0.4-2.3-0.7-3.5-0.8c-0.1,0.3-0.2,0.6-0.4,0.8c0,0,0.1,0,0.1,0c-1.6,2.1-3.1,4.1-4.7,6.2
			c-3.2,4.3-6.5,8.5-10.1,12.5c-3.5,3.9-6.9,7.8-10.3,11.8c-3.5,4.2-6.4,8.7-8.4,13.7c-1.8,4.3-2,8.7-0.5,13.1
			c1.7,5.2,4.3,9.8,7.9,13.9c3.5,4,7.2,7.7,11.3,11.2c4,3.4,8,6.8,12.1,10c4.1,3.2,8.2,6.5,12.2,9.7c3.8,3,7.6,6,11.3,9
			c-1.7,4.4-3,8.7-3.9,13.1c-1.1,5.2-2,10.4-2.7,15.6c-0.7,5.3-1.4,10.7-2,16c-0.8,7-1.2,13.7-1.4,20c-0.2,6.3,0,12.3,0.5,18
			c0.5,5.6,1.5,11,3.1,16c0.5,1.6,1,3.3,1.6,5c-0.1,0-0.2-0.1-0.4-0.1c0.1,0.1,0.1,0.1,0.2,0.2c0.1,0.1,0.3,0.3,0.4,0.4
			c1.2,3.4,2.6,6.9,4.3,10.5c2.4,5.2,5.4,10.1,9,14.5c3.8,4.6,7.8,9,12.1,13c5.3,5,11.3,9,17.9,12.2c4.6,2.2,9.2,4.1,13.9,5.9
			c0,0.3-0.1,0.5-0.2,0.8c-0.5,2.2-1,4.4-1.5,6.6c-0.3,1.2-0.6,2.3-0.8,3.5c-0.2,0.7-0.3,1.4-0.5,2.1c-0.2,0.9-0.5,1.9-0.7,2.8
			c-0.3,1.3-0.7,2.6-1,3.9c-0.3,1.3-0.6,2.6-1,3.9c-0.4,1.7-0.5,3.5-0.3,5.2c0.1,0.5,0.2,1,0.3,1.5c0.1,0.4,0.3,0.9,0.4,1.3
			c0.4,1.2,0.9,2.3,1.5,3.5c2.1,4.5,4.2,9,6.4,13.4c0.8,1.7,2.3,4.8,4.5,9.5c0.7,1.5,1.3,3,1.8,4.5c-5.9,0-9.6-0.2-11-0.5
			c-0.9-0.2-1.4-0.3-1.6-0.3c-0.8-0.1-2.3-0.1-4.3-0.1c-6.5,0-11.2,1.3-14.3,4c-1.1,0.9-1.9,2-2.4,3.2c-0.4,0.9-0.6,1.7-0.6,2.4
			c0,1.2,0.3,2.6,1.1,4.1c0.2,0.4,0.5,1.1,1,2c0,0,0,0,0,0c0.1,0,0.2-0.1,0.3-0.1c0,0,0,0.1,0,0.1c1.8,0,4,0,6.6,0
			c4.3,0,8.7,0.1,13.1,0.1c0.2,0,4,0,11.6-0.1c-0.1,0.3-0.1,0.6-0.1,1c0,1.2,0.3,2.6,1.1,4.1c0.2,0.4,0.5,1.1,1,2c0,0,0,0,0,0
			c0.1,0,0.2-0.1,0.3-0.1c0,0,0,0.1,0,0.1c1.8,0,4,0,6.6,0c4.3,0,8.7,0.1,13.1,0.1c0.3,0,8.4,0,24.3-0.1c0,0,0,0,0,0c0,0,0,0,0.1,0
			c0.3,0,0.6,0,0.9,0.1c0.1-2,0.4-3.6,0.9-4.7c0.3-0.8,0.5-1.3,0.6-1.6c0.2-0.7,0.3-1.6,0.3-2.7c0-0.5,0-1,0-1.5
			c0-0.9-0.2-1.7-0.4-2.4c-0.5-1.5-1.5-2.5-2.9-2.9c0,0,0,0,0-0.1c0,0,0,0-0.1,0c-0.1,0-0.2-0.1-0.3-0.1c0,0.1-0.1,0.2-0.2,0.3
			c-0.1,0-0.2,0.1-0.3,0.2c-0.3-0.8-0.7-1.7-1.2-2.7c-0.9-2-2.7-5.6-5.3-10.7c-2.5-5-4.3-8.6-5.3-10.8c-1.6-3.5-2.4-5.8-2.4-6.9
			c0-0.9,0.9-4.1,2.6-9.6c1.2-3.8,2-6.2,2.4-7.3c2-3.5,4.3-6.8,6.8-9.9c3.5-4.2,7.8-7.3,12.9-9.3c2.2-0.9,4.4-1.8,6.5-2.8
			c4.8-2.3,9.5-4.7,14-7.5c4.3-2.6,8.3-5.8,11.8-9.5c3.5-3.7,6.6-7.8,9.4-12.1c2.4-3.7,4.5-7.6,6.4-11.6c2.3-5,4.3-10,5.9-15.2
			c1.3-4.2,2.4-8.4,3.2-12.7c0.4-2.3,0.9-4.3,1.3-5.9c0.4-1.6,0.8-4.3,1-8.1C304.9,283.1,304.7,279.5,304,276.2z M227.2,170
			c5.3,0.8,10.4,2.2,15.3,4.2c4.8,2,9.3,4.4,13.6,7.3c4.4,3,8.5,6.3,12.2,10.1c3.8,3.7,7.2,7.7,10.3,12c3,4.1,5.8,8.4,8.3,12.8
			c2.6,4.6,4.9,9.4,6.9,14.3c2,4.8,3.6,9.8,4.9,14.8c1.3,5,2.1,10.1,2.5,15.2c0.3,3.4,0.4,6.7,0.3,10.1l-3.7,5.5
			c-5,5.5-10.3,10.8-15.9,15.8c-5.1,4.6-10.4,8.9-15.9,12.8c-3.4,2.4-6.9,4.6-10.6,6.6c-4.4,2.4-9,4.5-13.6,6.5c-4,1.6-8,2.9-12.1,4
			c-5.2,1.3-10.5,2.4-15.8,3.3c0.1-0.9,0.2-1.7,0.2-2.3c0-2.1-0.4-3.8-1.1-5.2c2.5-3.2,4.4-6.7,5.9-10.5c1.9-5,3.4-10.1,4.3-15.3
			c0.9-5.1,1.8-10.2,2.6-15.3c0.8-5.2,1.5-10.4,2.1-15.7c0.5-5.3,0.8-10.5,1-15.8c0.1-5.1-0.1-10.2-0.6-15.2
			c-0.5-5.2-1.4-10.3-2.7-15.3c-1.3-5-3.1-9.9-5.6-14.5l-0.2,0.1l-0.2,0.7c1,2.2,1.9,4.5,2.6,6.8c1.5,4.5,2.7,9.2,3.6,13.9
			c1,5.1,1.5,10.3,1.7,15.5c0.2,5.7,0.1,11.4-0.3,17.1c-0.5,6.2-1.1,12.3-1.9,18.5c-0.7,5.1-1.4,10.2-2.4,15.2
			c-0.7,3.7-1.5,7.5-2.5,11.2c-1,3.9-2.5,7.7-4.3,11.4c-1.1,2.2-2.4,4.4-3.7,6.4c-1.6-2.1-4-3.3-7.5-3.5c0.6-1.4,1.4-3.3,2.4-5.5
			c2.2-4.7,3.9-9.6,5.1-14.8c1.3-5.1,2.3-10,3.1-14.7c0.8-4.7,1.2-9.2,1.4-13.3c0.1-4.2,0.2-9.3,0.3-15.3c0-6.1-0.5-11.9-1.6-17.6
			c-1.1-5.7-2.3-9.8-3.7-12.5c-1.4-2.7-2.6-4.8-3.6-6.5c-1-1.7-2.9-3.4-5.7-5.3l-0.1,0.5c0.5,0.4,1,0.9,1.5,1.4
			c3.4,3.4,5.9,7.2,7.5,11.4c1.6,4.2,2.7,8.4,3.2,12.6c0.6,4.2,0.9,9.4,1,15.7c0.1,6.3,0.2,11.3,0.1,14.8c-0.1,3.5-0.4,7.4-1.1,11.7
			c-0.7,4.3-1.5,8.5-2.5,12.7c-1.3,5.6-2.7,10.5-4.3,14.7c-1.4,3.8-2.8,7.1-4,10c0,0,0,0-0.1,0c-4.4,0-8.2,1.2-11.4,3.6
			c-1.2,0.9-2.2,1.8-2.9,2.9c-0.7,0.9-1,1.6-1,2.1c0,0,0,0.2,0,0.4c0,0.3,0.1,0.6,0.2,0.9c0.4,0.8,1.2,1.3,2.5,1.3
			c0.7,0,1.4-0.2,2.2-0.6c0.7-0.4,1.5-0.5,2.4-0.5c0.9,0,1.4,0.1,1.7,0.2c0.2,0.1,0.2,0.2,0.2,0.5c0,0.6-0.6,1.3-1.8,2
			c-0.3,0.2-1.3,0.7-3.1,1.6c-3.7,0-7.4-0.1-11.1-0.4c-9.5-0.7-18.8-2.1-28-4.4c-5.8-1.4-11.6-3-17.3-4.7
			c-2.5-13.1-3.7-26.3-3.4-39.7c0.1-6.2,0.3-12.3,0.6-18.5c0.2-5.4,0.8-10.8,1.6-16.2c1.1-6.5,2.5-12.5,4.2-18.1
			c1.7-5.6,3.4-10.5,5.1-14.7c1.4-3.5,3.2-7.3,5.3-11.2c0.5,0.1,1,0.1,1.4,0.1c0.3,0.5,0.7,1.1,1.1,1.7c1.6,2.5,2.7,4.4,3.2,5.8
			c0.6,1.6,1.2,3.3,1.6,5.1c0.1,0.4,0.2,1.3,0.2,2.7c0,1.1,0.2,2,0.5,2.5c1.8-0.9,4.5-2.2,8.1-4c3-1.5,5.6-2.9,7.7-4.1
			c5.5-3.2,10.1-6.7,13.6-10.4c1-1.1,2.7-2.9,5.2-5.5c0.5-0.5,0.9-1.1,1.3-1.6c0.5-0.3,1.1-0.6,1.6-0.9c2.3-1.3,4.6-2.7,6.7-4.3
			c2.1-1.6,4.1-3.3,6-5.1c1.8-1.8,3.4-3.7,4.9-5.7c1.5-2.1,2.9-4.2,4-6.5c0-0.1,0.1-0.2,0.1-0.2C220.5,169.3,223.8,169.6,227.2,170z
			 M208.8,334.5c0,0-0.1,0-0.1,0c0,0-0.1,0.1-0.1,0.1c-0.7,0.4-1.5,0.6-2.4,0.6c-1.2,0-1.9-0.1-2.2-0.3c0.3-0.2,0.7-0.4,1-0.7
			c0.7-0.5,1.2-1.1,1.7-1.7c0.4-0.6,0.6-1.1,0.6-1.5c0-0.2-0.1-0.3-0.2-0.4c-0.1,0-0.3-0.1-0.3-0.1c0,0-0.2,0.3-0.6,0.8
			c-0.4,0.6-0.8,1.1-1.3,1.5c-1.5,1.4-3.4,2.2-5.6,2.2c-2,0-3.4-0.2-4.1-0.6c0,0-0.1-0.1-0.1-0.1c0,0,0,0,0.1,0
			c0.9-0.4,1.9-0.8,2.9-1.4c1.5-0.8,2.9-1.5,3.9-2.3c1.1-0.7,1.6-1.2,1.6-1.5c0-0.2,0-0.3-0.1-0.3l-0.5-0.2c0,0-0.5,0.3-1.6,0.9
			c-1.3,0.8-2.5,1.5-3.7,2.1c-3.9,2-6.7,3.1-8.5,3.1c-1.1,0-1.7-0.2-1.9-0.5c-0.1-0.1-0.1-0.3-0.1-0.5c0-0.2,0-0.4,0-0.4
			c0-0.9,0.6-1.7,1.8-2.6c0.7-0.5,2-1.1,3.9-2.1c1.9-0.9,3.2-1.6,3.9-2.2c1.2-0.9,1.8-1.9,1.8-2.9c0.1-0.3,0-0.6-0.1-0.8
			c-0.4-0.5-1.3-0.7-2.8-0.7c-0.9,0-1.7,0.2-2.6,0.5c-0.8,0.4-1.5,0.6-2.1,0.6c-0.6,0-1.1-0.2-1.4-0.6c-0.2-0.3-0.3-0.6-0.3-1
			c0-0.4,0.3-0.9,0.9-1.7c0.7-0.9,1.7-1.7,2.9-2.5c3.3-2.2,7.5-3.3,12.3-3.3c2.9,0,5,1.3,6.3,3.9c0.8,1.6,1.2,3.2,1.2,4.9
			c0,0.5-0.1,1.1-0.2,2c-0.2,1.5-0.5,2.9-0.8,4.2C211.3,331.8,210.2,333.6,208.8,334.5z M153.3,199.7
			C153.3,199.7,153.3,199.7,153.3,199.7c2.5,0,5.1,0,7.6-0.1c2.5,0,4.9-0.2,7.3-0.4c2.2-0.2,4.3-0.6,6.5-0.9
			c2.3-0.4,4.6-0.9,6.9-1.6c2.4-0.6,4.7-1.4,6.9-2.3c0.9-0.4,1.8-0.7,2.7-1.1c-1.3,1.6-2.6,3.1-4.1,4.6c-3.6,3.7-7.9,7-12.7,9.9
			c-3.6,2.2-8.8,4.9-15.6,8.1c0-1.4-0.2-2.9-0.6-4.7c-0.4-1.7-0.9-3.3-1.5-4.8c-0.4-1.1-0.7-1.8-0.8-2.2c-0.1-0.4-0.4-1-0.9-1.8
			C154.6,201.8,154.1,200.9,153.3,199.7C153.3,199.7,153.3,199.7,153.3,199.7z M219,161.2c-0.4,1.5-0.9,2.9-1.4,4.3
			c-0.5,1.4-1.1,2.7-1.8,3.9c-0.8,1.5-1.7,3-2.7,4.5c-1.1,1.7-2.4,3.2-3.7,4.7c-1.6,1.7-3.3,3.4-5,4.9c-1.6,1.4-3.4,2.7-5.2,3.9
			c-1.8,1.2-3.7,2.2-5.6,3.2c-2.5,1.2-5.1,2.3-7.7,3.3c-2.4,0.9-4.8,1.6-7.2,2.2c-3.8,0.9-7.6,1.7-11.5,2.2c-4,0.6-8,0.8-12.1,0.6
			c-1.1-0.1-2.2-0.2-3.4-0.2c-3.5-0.2-6.9-1.1-10.1-2.5c-1.6-0.7-3-1.6-4.5-2.6c-0.5-0.4-1-0.7-1.5-1.1c-0.5-0.4-1-0.8-1.4-1.2
			c-0.4-0.4-0.8-0.8-1.2-1.2c-0.4-0.4-0.8-0.8-1.1-1.3c-0.9-1.1-1.7-2.3-2.4-3.6c-0.5-1-0.9-2.1-1.3-3.1c-0.7-1.7-1.2-3.5-1.7-5.3
			c-0.9-3.8-1.6-7.7-2.1-11.6c-0.4-3-0.7-6-0.8-9c-0.7-14.1-1-28.3-0.7-42.4c2.9-0.1,5.4-0.5,7.5-1.3c1.7-0.7,3.3-1.7,4.7-3
			c0.4-0.3,0.9-0.8,1.6-1.6c0.6-0.6,1.1-1.1,1.5-1.4c1.1-0.9,2.3-1.4,3.5-1.4c1.4,0,2.2,0.3,2.4,0.8c0.1,0.2,0.1,0.4,0.1,0.7
			c0,0.3-0.1,0.4-0.1,0.5c0,0.8-0.1,1.4-0.4,2c-0.2,0.3-0.5,0.7-1,1.2c-0.5,0.5-0.8,0.8-1,1c-0.3,0.5-0.4,1-0.4,1.6
			c-0.1,0.5,0,1.1,0.2,1.6c0.4,1.1,1.3,1.7,2.7,1.7c2.1,0,4.2-0.5,6.4-1.6c1.5-0.7,3.4-1.9,5.7-3.5c2.6-1.8,4.3-3,5.2-3.5
			c1.9-1.1,3.5-1.6,5-1.6c0.7,0,1.1,0.8,1.2,2.4c0,0.3-0.1,0.9-0.3,1.6c-0.2,0.7-0.3,1.2-0.3,1.6c-0.1,0.5,0,0.9,0.2,1.4
			c0.4,0.9,1.3,1.3,2.6,1.3c1.3,0,2.8-0.3,4.7-0.8c1.1-0.3,2.9-0.9,5.3-1.8c2.4-0.9,4.1-1.5,5.3-1.8c1.9-0.5,3.6-0.8,4.9-0.8
			c3.1,0,5.1,1.5,6.1,4.6c0.3,1,0.5,2.1,0.6,3.3c0,1.1,0,1.7,0,1.8c0,2.1-0.2,4.3-0.5,6.5c-0.6,4-1,6.5-1.1,7.5
			c0,0.3-0.4,2.3-0.9,5.9c0,0,0,0,0,0c0.1,0,0.2,0,0.3,0c0,0.2,0,0.3,0,0.5c0.3,0.1,0.6,0.2,0.9,0.2c0,0.1,0.1,0.1,0.1,0.2
			c0,0,0-0.1,0-0.1c1.3,0.3,3,0.5,5.1,0.7c0.1,0.1,0.1,0.1,0.2,0.2c-0.1-0.6-0.1-1.5,0.1-2.8c0.2-1.7,0.6-3.4,1.1-4.9
			c1.5-4.4,3.6-6.6,6.5-6.6c1.1,0,2,1.2,2.5,3.7c0.1,0.8,0.3,1.6,0.3,2.6c0,0.5,0.1,1,0.1,1.3c0.1,1.6-0.1,3.2-0.4,4.8
			c-0.7,3.1-2,4.7-4,4.7c-0.9,0-1.6-0.2-2.2-0.5c-0.9-0.2-1.5-0.6-2-1.3c-0.1-0.2-0.2-0.3-0.3-0.4v0.7c0.2,0.6,0.6,1.1,1.2,1.5
			c0.8,0.7,1.8,1,2.9,1.1c0.1,1,0.4,2.1,0.7,3.1c0.6,1.8,1.4,3.3,2.5,4.7c2.5,3.2,5.8,4.9,9.9,5.1
			C219.6,158.4,219.3,159.8,219,161.2z M146.4,198.9c-1,0.8-2,1.7-2.9,2.7c-1.5,1.6-2.8,3.4-4,5.4c-0.6,1.1-1.1,2.1-1.6,3.1v-1.4
			c0.2-1.6,0.7-4.6,1.5-8.9c0.2-1.3,0.4-2.4,0.6-3.2C141.9,197.6,144.1,198.3,146.4,198.9z M117.8,109.5c0,1,0.1,1.7,0.4,2.2
			c0.6,1.3,1.8,1.9,3.6,2c-0.1,1.6-0.2,3.2-0.2,4.8c-0.1,2.3-0.1,4.5-0.1,6.7c0,2.2,0,4.5,0,6.7c0,2.2,0,4.5,0.1,6.7
			c0.1,2.2,0.1,4.5,0.3,6.7c0.1,2.2,0.2,4.5,0.4,6.7c0.2,2.2,0.3,4.5,0.5,6.7c0.2,2.2,0.4,4.5,0.7,6.7c0.2,1.6,0.4,3.1,0.7,4.7
			c0.4,2.3,0.8,4.6,1.4,6.9c0.2,0.8,0.4,1.5,0.5,2.3c0.5,2.4,1.4,4.7,2.7,6.9c0.4,0.6,0.7,1.2,1.1,1.8c-1.4-0.7-2.9-1.4-4.5-2.2
			c-2.2-1.2-4.6-2.4-6.9-3.6c-2.4-1.3-4.6-2.6-6.6-3.9c-2.2-1.4-4.2-3-6.2-4.7c-1.9-1.6-3.7-3.3-5.4-4.9c-1.8-1.8-3.6-3.6-5.3-5.4
			c-1.6-1.8-3.1-3.7-4.6-5.6c-1.5-2.1-2.6-4.4-3.2-6.8c-0.6-2.2-0.3-4.3,0.7-6.3c1.2-2.2,2.5-4.4,4-6.4c1.2-1.7,2.5-3.4,3.9-5.1
			c1.3-1.6,2.7-3.3,4.1-4.9c0.9-1.1,1.9-2.1,2.8-3.2c1-1.1,1.9-2.1,2.9-3.2c1-1.1,2-2.1,3-3.2c1.5-1.6,3.1-3.2,4.6-4.7
			C114.7,112.3,116.2,110.9,117.8,109.5C117.8,109.5,117.8,109.5,117.8,109.5z M198.7,80.3c0.2,2,0.2,4.1,0.2,6.4
			c0.1,1.1,0,2.3-0.1,3.4c-0.3,2.2-1,3.3-2,3.3c-0.8-0.5-2-0.7-3.6-0.7c-1.4,0-2.3,0.6-2.8,1.8c-0.2,0.5-0.3,1.1-0.5,1.9
			c-0.1,1-0.2,1.7-0.3,2.2c-0.3,1.8-0.7,3.2-1.4,4c-1,1.2-2.5,1.8-4.7,1.8c-1,0-1.8-0.4-2.4-1.3c-0.3-0.5-0.7-1.5-1.2-2.9
			c-0.4-1.4-0.8-2.4-1.2-2.9c-0.6-0.9-1.4-1.3-2.4-1.3c-0.6,0-1.3,0.2-1.9,0.5c-0.6,0.4-1.3,0.6-1.9,0.6c-2.1,0-3.5-0.9-3.9-2.6
			c-0.2-0.6-0.3-1.5-0.3-2.7c-0.1-1.5-0.2-2.5-0.3-3.1c-0.4-2.5-1.4-4.5-3.2-5.7c-1.4-1-3.2-1.7-5.6-2.1c6.8-1.8,13.8-2.6,21.1-2.4
			C188.9,78.6,194.9,79.2,198.7,80.3z M148.4,80.5c-0.1-0.2-0.2-0.6-0.3-1.2c-0.1-0.5-0.2-0.9-0.4-1.1c2.4,0,4.1-0.8,5.2-2.4
			c0.6-0.9,1-1.8,1-2.7c1,0.2,2.2,0.3,3.5,0.3c2.6,0,4.8-0.3,6.9-0.9c0.7-0.2,1.3-0.5,1.8-0.7c0.4-0.2,0.6-0.4,0.6-0.5
			c0-0.3,0-0.5-0.1-0.4l-0.5-0.1c-0.2,0-0.6,0.1-0.9,0.2c-0.6,0.3-1.1,0.5-1.3,0.5c-1.5,0.5-3.7,0.8-6.4,0.8c-3.1,0-5.4-0.7-6.9-2.1
			c-1-0.9-1.5-2-1.5-3.1c0-1.7,1.3-3,3.8-3.9c0.6-0.2,1.5-0.5,2.6-0.8c0.2-0.1,0.3-0.1,0.5-0.2c1.1,1.5,3.2,2.2,6.1,2.2
			c1.8,0,3.3-0.3,4.7-0.8c1.1-0.5,1.7-0.8,1.7-1.1c0-0.2-0.1-0.3-0.2-0.4c-0.1,0-0.3-0.1-0.3-0.1c-0.6,0.3-1.2,0.5-1.8,0.7
			c-1.2,0.4-2.6,0.6-4.3,0.6c-2.3,0-3.9-0.5-4.9-1.4c-0.2-0.2-0.3-0.3-0.4-0.5c0-0.1,0-0.2-0.1-0.1c-0.3-0.5-0.5-1.1-0.5-1.8
			c0-2.1,1.1-3.6,3.3-4.6c0.9-0.4,2-0.7,3.4-1c0.2,0,1.5-0.3,3.9-0.8c3.4-0.7,5.9-1.5,7.4-2.5c2.2-1.5,3.3-3.6,3.3-6.5
			c0,0,0-0.4-0.1-1.1c0-0.3-0.1-0.6-0.1-1c1.1,1.1,1.8,1.8,2.2,2.2c2.4,2.6,3.6,5.5,3.6,8.4c0,1.5-0.6,3.2-1.7,4.9
			c-0.9,1.2-1.5,1.9-1.6,2.2c-0.1,0-0.2,0.1-0.3,0.1c-3.3,1.1-4.9,1.7-4.9,1.8c0,0.2,0,0.3,0,0.3l0,0c0.1,0.1,0.1,0.2,0.1,0.2
			c0.1,0.1,0.2,0.1,0.4,0.1c0.6,0,1.2-0.2,2.1-0.5c0.5-0.2,1.3-0.5,2.4-1.1c0.1-0.1,0.3-0.1,0.4-0.2c0.1,0,0.1,0.1,0.2,0.1
			c0.2-0.1,0.4-0.3,0.5-0.4c1.9-0.7,3.8-1.1,5.6-1.1c2.3,0,4,0.8,5,2.3c0.6,0.9,0.9,2,0.9,3.1c0,1.2-0.6,2.2-1.8,2.9
			c-0.6,0.3-1,0.6-1.2,0.7c-0.5-0.1-1.1-0.2-1.7-0.2c-1.3,0-2.8,0.2-4.3,0.7c-1.3,0.4-2,0.7-2,0.9c0,0.1,0.2,0.3,0.5,0.6
			c2.9-0.7,4.8-1.1,5.9-1.1c0.4,0,0.7,0,1,0.1c0,0.1,0,0.1,0,0.1c0.3,0,0.6,0.1,0.9,0.3c0,0,0,0,0.1,0c0.6,0.4,1.2,0.9,1.6,1.7
			c0.6,1,0.8,1.9,0.8,2.7c0,0.8-0.3,1.6-1,2.5c-0.1,0.1-0.3,0.4-0.7,0.9c-0.1,0.1-0.2,0.3-0.2,0.3c-0.6-0.1-1.1-0.2-1.7-0.2
			c-3.1-0.4-5.8-0.6-8-0.6c-2.9,0-4.3,0-4.3,0.1c-4.7,0.1-9.7,0.8-15,2.2c-5.4,1.4-8.9,2.4-10.6,3.1C149.4,82,148.7,81.4,148.4,80.5
			z M155.7,81.9c0.4-0.1,0.8-0.3,1.3-0.4c1.5,0.2,3.1,0.6,4.7,1c0.9,0.2,1.9,0.8,3.1,1.6c1.6,1.2,2.5,2.8,2.6,4.8
			c0,0.1-0.1,0.8-0.2,2.1c-0.1,1.2-0.1,2.2,0,3.1c0.5,2.6,2.4,4,5.7,4c1,0,1.7-0.2,2.1-0.6c0.4-0.4,1.2-0.6,2.2-0.6
			c0.4,0,0.7,0.5,1,1.3c0.3,1.3,0.6,2.2,0.8,2.9c1,2.9,2.9,4.3,5.6,4.3c1.8,0,3.2-0.6,4.1-1.8c0.7-0.9,1.2-2.2,1.6-4
			c0.1-0.5,0.2-1.2,0.4-2.1c0.2-0.8,0.3-1.4,0.5-1.9c0.4-1.2,1-1.8,1.9-1.8c0.7,0,1.5,0.1,2.4,0.3c0.9,0.2,1.5,0.4,1.9,0.4
			c1.1,0,1.9-1.2,2.2-3.7c0.1-0.9,0.2-2.3,0.2-4.1c0-1.9-0.1-3.9-0.2-6.1c3.4,1.1,5.8,2.1,7.1,2.9c1.3,0.9,2.1,1.3,2.3,1.3
			c0.1,0,0.2,0,0.3,0c0.2,0.1,0.5,0.2,0.7,0.3c0.2,0.1,0.4,0.2,0.6,0.3c0.2,0.1,0.5,0.2,0.7,0.4c0.2,0.1,0.5,0.3,0.7,0.5
			c0.2,0.2,0.4,0.4,0.7,0.6c0.2,0.2,0.4,0.5,0.7,0.7c0.2,0.3,0.4,0.6,0.6,0.9c0.2,0.3,0.4,0.7,0.6,1c0.2,0.4,0.4,0.7,0.6,1.1
			c0.3,0.6,0.6,1.2,0.9,1.8c1,2.2,1.8,4.4,2.3,6.7c0.8,3.5,1.4,7.1,1.9,10.6c0.3,2.4,0.6,4.7,0.7,7.1c0.4,7.4,0.5,14.7,0.1,22.1
			c-0.3,5.2-0.6,10.3-1.1,15.4c0,0.5-0.1,1-0.2,1.5c-5.1-0.1-8.7-2.5-10.6-7c-0.4-1.1-0.9-2.7-1.4-4.9c0,0,0-0.1,0-0.1
			c1.9-0.4,3.2-2.1,3.9-4.9c0.4-1.7,0.6-3.6,0.5-5.5c0,0,0-0.5,0-1.4c-0.1-1.1-0.2-2.1-0.4-3c-0.7-2.8-2.3-4.2-4.6-4.2
			c-2.9,0-5,2.4-6.4,7.3c-0.4,1.6-0.8,3.3-1,5.2c-0.1,0.4-0.1,0.7-0.1,1.1c-0.3-0.1-0.5-0.1-0.8-0.2c-1.1-0.2-2.2-0.4-3.3-0.5
			c0-0.4,0.1-0.8,0.1-1.2c0.1-1.5,0.2-2.7,0.3-3.6c0.3-2.1,0.6-4.6,1.1-7.5c0.3-2.4,0.5-4.7,0.5-7c0-0.1,0-0.8,0-2
			c-0.1-1.3-0.3-2.6-0.6-3.7c-1.1-3.4-3.5-5.1-7.1-5.1c-1.3,0-2.9,0.3-4.9,0.8c-1,0.3-2.8,0.9-5.4,1.8c-2.4,0.9-4.3,1.5-5.6,1.8
			c-2.1,0.6-4,0.8-5.6,0.8c-0.3,0-0.4-0.6-0.4-1.7c0-0.3,0.1-0.8,0.3-1.4c0.2-0.6,0.3-1.1,0.3-1.7c0,0,0-0.2,0-0.6
			c0-0.4-0.1-0.8-0.2-1.2c-0.4-1.1-1.5-1.7-3.1-1.7c-1.2,0-2.7,0.5-4.4,1.6c-0.6,0.4-2.3,1.5-5,3.5c-2.2,1.6-4.1,2.7-5.6,3.5
			c-2.2,1-4.2,1.6-6.2,1.6c-1.3,0-2-0.7-2-2.2c0-0.2,0.2-0.5,0.4-0.9c0.2-0.2,0.5-0.6,1-1.2c0.9-1.2,1.4-2.4,1.4-3.7
			c0-0.1,0-0.3,0.1-0.6c0.1-0.4,0-0.8-0.1-1.1c-0.4-1-1.5-1.4-3.3-1.4c-1.5,0-2.8,0.4-4,1.4c-0.4,0.3-0.9,0.8-1.5,1.4
			c-1,1-1.5,1.5-1.6,1.6c-1.4,1.3-2.9,2.3-4.5,3c-2.2,0.9-4.9,1.4-8,1.4c-1.5,0-2.5-0.4-3-1.2c-0.3-0.4-0.4-1-0.4-1.8
			c0-0.9,0.3-2,1-3.2c0,0,0,0,0,0v0c1-1.9,2.8-4.1,5.4-6.8c1.7-1.8,3.5-3.4,5.4-5c1.8-1.5,3.3-2.6,4.4-3.2
			C142.6,87.1,149.5,83.9,155.7,81.9z M134.2,90.1c0.2,0.2,0.3,0.3,0.5,0.5c-3.2,2.1-5.9,4.1-8.3,6.3c-0.1-0.1-0.1-0.2-0.1-0.4
			c0-0.1,0-0.3,0.1-0.4c1.3-0.5,2.1-1.6,2.4-3.3c0.1,0,1.1-0.8,3.1-2.3c0.7-0.5,1.2-0.9,1.5-1.2C133.6,89.4,133.9,89.7,134.2,90.1z
			 M138.2,78.3c0-0.5,0.1-0.9,0.3-1.3c0.2-0.3,0.3-0.5,0.3-0.6c0,0,0,0,0,0c0.6-0.5,1.1-0.9,1.4-1.2c1-0.8,1.8-1.1,2.3-1.1
			c0.4,0,0.6,0.2,0.8,0.6c0.1,0.3,0.2,0.6,0.2,0.9c0,0.6-0.2,1.3-0.7,2.1l-0.7-0.1c-0.3,0-1,0.1-2.1,0.4c-1,0.3-1.6,0.5-1.6,0.5
			C138.3,78.4,138.2,78.4,138.2,78.3C138.2,78.3,138.2,78.3,138.2,78.3z M134.5,80.2c0.5-0.4,1.4-1.2,2.6-2.3c0,0,0,0,0.1-0.1
			c0,0,0,0.1,0,0.1c-0.1,0.3-0.1,0.6,0,0.8c0.2,0.5,0.6,0.8,1.3,0.8c0.3,0,1-0.2,2.2-0.6c0.5-0.2,1-0.3,1.6-0.5
			c-0.9,1.1-2.1,2.4-3.8,3.7c-1.7,1.3-2.9,2.3-3.5,2.8c-0.2,0.2-0.4,0.4-0.6,0.5c0-0.1,0-0.5,0.1-0.9c0-0.6-0.1-1.2-0.3-1.7
			c-0.3-0.7-0.7-1.3-1.3-1.7C133.4,81,133.9,80.7,134.5,80.2z M128.5,81.8c0.8-0.1,1.4-0.2,1.6-0.2c1.6,0,2.7,0.6,3.1,1.7
			c0.1,0.4,0.2,0.8,0.2,1.3c0,0.5,0,0.8,0,0.9c0,1.4-0.9,2.8-2.6,4.1c-0.9,0.6-1.5,1-1.8,1.3c-0.1,0.1-0.1,0.1-0.2,0.2
			c0,0,0-0.1,0-0.2c0,0,0-0.1,0-0.2c0.6-0.7,0.9-1.3,1.1-1.8c0.3-0.6,0.4-1.4,0.4-2.2c0-1.1-0.2-2.1-0.7-2.9c-0.5-0.9-1.2-1.6-2.1-2
			C127.8,81.9,128.1,81.9,128.5,81.8z M121.7,84.1c1.8-1,3-1.4,3.6-1.4c1.5,0,2.7,0.6,3.5,1.8c0.5,0.8,0.7,1.6,0.7,2.4
			c0,0.4-0.2,1.1-0.7,2c-0.1-0.4-0.3-0.8-0.5-1.2c-1.2-1.8-3.7-2.8-7.5-3C121,84.4,121.3,84.3,121.7,84.1z M112.8,97.2
			c0.2-0.8,0.3-1.8,0.4-3c0-0.6,0.1-1.5,0.2-2.7c0.2-2,0.5-3.4,1.1-4.2c0.8-1.1,2.3-1.6,4.4-1.6c4.4,0,7.2,0.8,8.4,2.4
			c0.4,0.6,0.6,1.2,0.7,1.9c0,0.7-0.1,1.2-0.1,1.4c0,2.6-1.4,3.9-4.2,3.9c-0.1,0-0.2-0.3-0.2-1c-0.1-1.2-0.1-2-0.1-2.1
			c-0.2-2.1-0.7-3.1-1.6-3.1c-0.3,0-0.5,0.1-0.5,0.2c0.4,0.9,0.6,1.9,0.7,3c0.1,1.1,0.1,1.8,0.1,2.2c0,0,0,0.1,0,0.1
			c-0.2,0.6-0.5,1.4-0.8,2.4c-0.3,0.6-1.1,1.3-2.2,2.3c-1.1,0.8-1.6,1.2-1.6,1.2c0,0.2,0.1,0.4,0.1,0.5c0.1,0,0.2,0.1,0.4,0.2
			c1.7-0.5,3-1.5,4-3.2c0.4-0.6,0.7-1.3,0.9-1.9c0.4,0.2,0.9,0.3,1.6,0.3c0.3,0,0.5,0,0.7,0c0,0,0,0.1,0,0.2c0,0.3,0,0.5,0,0.8
			c0,0.2,0.1,0.3,0.2,0.4c-0.8,0.7-1.6,1.5-2.3,2.3c-1.8,1.9-3.1,3.7-4,5.3c-1.9-2.7-4.2-4.7-6.9-5.8
			C112.5,98.7,112.6,98,112.8,97.2z M125.9,205.7c-1.2-0.8-2.4-1.6-3.6-2.6c-4-3.1-8.1-6.2-12.2-9.3c-4.7-3.6-9.1-7.1-13.3-10.5
			c-4.2-3.4-8.4-7.3-12.5-11.7c-4.1-4.4-6.8-8.3-8.1-11.9c-1.3-3.6-2-6.1-2-7.6c-0.2-5.7,1.3-10.8,4.5-15.5c2.1-3,4.3-5.8,6.7-8.6
			c3-3.5,6.1-7,9.1-10.6c3.9-4.5,7.6-9.2,11.2-14c1-1.4,2.1-2.9,3.1-4.3c0.3,0.1,0.6,0.2,0.9,0.2c0.7,0.2,1.5,0.6,2.4,1.1
			c0.6,0.4,1.9,1.2,3.7,2.5c0.5,0.3,1.4,1.4,2.7,3.3c-0.1,0.2-0.2,0.4-0.3,0.7c-0.1,0.1-0.2,0.2-0.3,0.3c-1.9,1.7-3.7,3.4-5.5,5.1
			c-2.2,2.2-4.3,4.5-6.3,6.8c-1,1.2-2,2.3-3,3.3c-0.4,0.4-0.7,0.7-1.1,1.1c-0.3,0.4-0.7,0.7-1.1,1.1c-0.6,0.7-1.2,1.4-1.8,2.1
			c-1.3,1.5-2.6,3.1-3.9,4.8c-1.9,2.5-3.8,5-5.5,7.4c-1.7,2.4-2.9,4.6-3.6,6.6c-0.7,2-0.8,3.7-0.3,5.1c0.5,1.4,1.1,2.8,1.7,4.1
			c0.5,1,1.1,2,1.8,2.9c0.2,0.3,0.4,0.5,0.5,0.8c0.2,0.3,0.4,0.5,0.6,0.8c0.2,0.3,0.4,0.6,0.6,0.8c0.7,0.9,1.3,1.7,2,2.5
			c1.3,1.5,2.7,3,4.1,4.5c4.3,4.4,9,8.4,14.1,11.9c5.8,3.9,11.9,7.4,18.3,10.4c0.6,0.3,1.3,0.6,1.9,0.9c0.6,0.6,1.2,1.3,1.8,1.9
			c1.2,1.1,2.4,2,3.7,2.9c-2.4,2.5-4.7,6.1-6.8,10.7c-0.4,0.9-0.8,1.7-1.1,2.6C128.2,207.4,127.1,206.5,125.9,205.7z M120.5,294.3
			c-0.8-7.6-1.1-13.7-1-18.3c0.1-4.6,0.5-10.2,1.1-16.9c0.6-6.7,1.4-13.2,2.3-19.6c0.9-6.4,2.1-12.8,3.6-19.2
			c1.5-6.4,3.9-12.6,7.3-18.4c1.3-2.3,2.8-4.3,4.4-6.2c0.2,0.1,0.4,0.2,0.6,0.3c-0.4,1.6-0.7,3.6-1.1,6.2c-0.6,4.2-0.9,6.8-0.9,8
			c0,0.6,0,1,0,1.1c0.1,0.4,0.2,0.8,0.5,1.1c0.7-0.8,1.9-2.5,3.6-5.1c1.5-2.2,2.7-3.9,3.8-4.9c1.2-1.2,2.4-2.2,3.8-3.1
			c0.3,0.1,0.6,0.1,0.8,0.1c-2.4,3.2-4.5,7.4-6.3,12.6c-2.2,6.5-4.2,13-5.9,19.3c-1.7,6.3-2.8,12.7-3.4,19.2c-0.6,6.3-0.9,12.7-1,19
			c-0.1,6.2-0.1,12.4-0.1,18.6c0,6.2,0.5,12.3,1.3,18.3c0.5,3.7,1.1,7.5,1.9,11.2c-3.7-1.1-7.3-2.3-10.9-3.5
			C122.7,307.7,121.2,301.1,120.5,294.3z M189.6,428.7c-1.9-3.9-3.8-7.9-5.7-11.8c-0.8-1.8-1.7-3.5-2.6-5.2
			c-2.1-4.1-3.9-8.4-5.2-12.8c-0.1-0.6-0.2-1.1-0.2-1.7c0-0.4,0.1-0.8,0.1-1.1c0.1-0.4,0.1-0.8,0.2-1.2c1.5-6,3-12,4.6-17.9
			c0.5-2,1-3.9,1.6-5.8c0-0.1,0-0.1,0.1-0.2c0.2,0.1,0.5,0.2,0.7,0.3c4.3,1.6,8.6,2.8,13.1,3.8c-2,2.4-3.8,5.1-5.3,8.1
			c-0.4,1-1.2,3.2-2.3,6.6c-1.1,3.4-1.9,6.1-2.3,8.3c-0.4,1.8-0.6,2.8-0.6,3c0,1.4,0.8,3.9,2.4,7.5c1.1,2.4,2.8,6,5.3,10.7
			c2.8,5.3,4.5,8.8,5.3,10.4c0.5,1.1,1,2.1,1.3,3c0,0,0,0,0,0c-2.6,1.3-4.5,2-5.6,2c-0.9,0-1.9-0.3-2.9-0.9c0,0,0-0.1,0-0.1
			c-0.2-0.5-0.4-1.1-0.5-1.6c-0.2-0.5-0.4-1.1-0.6-1.6C190.1,429.7,189.8,429.2,189.6,428.7z M208.7,406.3c0.1,0.5,0.2,1,0.3,1.5
			c0.1,0.4,0.3,0.9,0.4,1.3c0.4,1.2,0.9,2.3,1.5,3.5c2.1,4.5,4.2,9,6.4,13.4c0.8,1.7,2.3,4.8,4.5,9.5c0.7,1.5,1.3,3,1.8,4.5
			c-5.9,0-9.6-0.2-11-0.5c-0.9-0.2-1.4-0.3-1.6-0.3c-0.8-0.1-2.3-0.1-4.3-0.1c-0.6,0-1.2,0-1.7,0c0-0.1,0-0.3,0-0.5c0-0.5,0-1,0-1.5
			c0-0.9-0.2-1.7-0.4-2.4c-0.5-1.5-1.5-2.5-2.9-2.9c0,0,0,0,0-0.1c0,0,0,0-0.1,0c-0.1,0-0.2-0.1-0.3-0.1c0,0.1-0.1,0.2-0.2,0.3
			c-0.1,0-0.2,0.1-0.3,0.2c-0.3-0.8-0.7-1.7-1.2-2.7c-0.9-2-2.7-5.6-5.3-10.7c-2.5-5-4.3-8.6-5.3-10.8c-1.6-3.5-2.4-5.8-2.4-6.9
			c0-0.9,0.9-4.1,2.6-9.6c1.2-3.8,2-6.2,2.4-7.3c1.8-3.1,3.8-6.1,6.1-8.9c1,0.2,2.1,0.4,3.2,0.6c4.5,0.8,9.1,1.3,13.7,1.5
			c-0.1,0.3-0.1,0.6-0.2,0.9c-0.5,2.2-1,4.4-1.5,6.6c-0.3,1.2-0.6,2.4-0.8,3.5c-0.2,0.7-0.3,1.4-0.5,2.1c-0.2,0.9-0.5,1.9-0.7,2.8
			c-0.3,1.3-0.7,2.6-1,3.9c-0.3,1.3-0.6,2.6-1,3.9C208.6,402.8,208.5,404.6,208.7,406.3z M157,441.3c0-0.6,0.2-1.3,0.6-2.1
			c0.5-1,1.3-2,2.4-2.8c2.9-2.3,7.4-3.5,13.3-3.5c0.6,0,1.2,0,1.7,0c1.5,3.9,2.3,5.9,2.6,5.9c0.2,0,0.3-0.1,0.4-0.1
			c0-0.1,0.1-0.2,0.1-0.3c-0.2-1.4-0.9-3.2-2.2-5.5c0.7,0,1.2,0,1.6,0.1c0.1,0,0.5,0.1,1.4,0.3c0,0,0,0,0,0c0.9,3.5,1.6,5.2,2,5.2
			c0.3,0,0.5-0.1,0.5-0.2c0-0.2,0-0.4,0-0.5c0-0.2-0.3-1.1-0.8-2.7c-0.2-0.7-0.4-1.3-0.6-1.7c0.7,0.1,1.6,0.1,2.7,0.2
			c0.9,3.3,1.7,4.9,2.3,4.9c0.3,0,0.5-0.1,0.5-0.3c-0.3-1.3-0.6-2.2-0.8-2.9c-0.2-0.6-0.6-1.2-0.9-1.7c1.6,0,3.7,0.1,6.1,0.1
			c1.5,1.2,3.1,1.8,4.8,1.8c1.3,0,3.7-0.9,7.2-2.8c0.6,0.3,1.1,0.7,1.4,1.1c0.7,0.8,1,2.3,1,4.4c0,0.2,0,0.5,0,0.7
			c-5.1,0.3-9,1.6-11.6,3.9c-0.4,0.3-0.7,0.6-1,1c-16.6,0-27.9,0.1-34,0.1C157.2,442.9,157,442,157,441.3z M190,446.5
			c-14.7,0-25.1,0.1-31.2,0.1c-0.1-0.3-0.3-0.7-0.5-1.1c-0.1-0.2-0.2-0.4-0.3-0.7c1.9,0,4.2,0,7,0.1c4.3,0,8.7,0.1,13.1,0.1
			c0.2,0,4.4,0,12.7-0.1c-0.3,0.4-0.5,0.8-0.7,1.2C190.1,446.3,190,446.4,190,446.5z M236,453.7c-21.4,0-36,0.1-43.7,0.1
			c-0.1-0.3-0.3-0.7-0.5-1.1c-0.1-0.2-0.2-0.4-0.3-0.7c1.9,0,4.2,0.1,7,0.1c4.3,0,8.7,0.1,13.1,0.1c0.3,0,8.4,0,24.5-0.1
			C236.1,452.6,236,453.1,236,453.7z M235.3,440c0.6,0.3,1.1,0.7,1.4,1.1c0.7,0.8,1,2.3,1,4.4c0,0.9-0.1,1.8-0.3,2.4
			c-0.1,0.2-0.3,0.8-0.6,1.7c-0.2,0.4-0.3,0.9-0.4,1.4c-22.8,0-37.9,0.1-45.2,0.1c-0.4-1.1-0.6-2-0.6-2.7c0-0.6,0.2-1.3,0.6-2.1
			c0.4-0.9,1.1-1.7,1.9-2.4c0.1,0,0.1-0.1,0.2-0.1c0,0,0,0,0,0c0.1-0.1,0.2-0.2,0.4-0.3c2.9-2.3,7.4-3.5,13.3-3.5c0.6,0,1.2,0,1.7,0
			c1.5,3.9,2.3,5.9,2.6,5.9c0.2,0,0.3-0.1,0.4-0.1c0-0.1,0.1-0.2,0.1-0.3c-0.2-1.4-0.9-3.2-2.2-5.5c0.7,0,1.2,0,1.6,0.1
			c0.1,0,0.5,0.1,1.4,0.3c0,0,0,0,0,0c0.9,3.5,1.6,5.2,2,5.2c0.3,0,0.5-0.1,0.5-0.2c0-0.2,0-0.4,0-0.5c0-0.2-0.3-1.1-0.8-2.7
			c-0.2-0.7-0.4-1.3-0.6-1.7c0.7,0.1,1.6,0.1,2.7,0.2c0.9,3.3,1.7,4.9,2.3,4.9c0.3,0,0.5-0.1,0.5-0.3c-0.3-1.3-0.6-2.2-0.8-2.9
			c-0.2-0.6-0.6-1.2-0.9-1.7c1.6,0,3.7,0.1,6.1,0.1c1.5,1.2,3.1,1.8,4.8,1.8C229.4,442.8,231.8,441.9,235.3,440z M214.9,334.9
			C214.9,334.9,215,334.9,214.9,334.9c0.1,0,0-0.1,0-0.1c-0.1-0.1-3.2-0.7-4.3-0.6c0.9-1,1.6-2.4,2.2-4.1c0.4-1,0.6-2.2,0.9-3.4
			c2.9-0.4,5.9-0.9,8.8-1.5c6.3-1.2,12.5-3,18.5-5.4c6-2.4,11.8-5.2,17.4-8.5c5.4-3.2,10.5-6.7,15.4-10.6c4.9-3.9,9.6-8.1,14.1-12.5
			c4.3-4.3,8.5-8.6,12.5-13.1c0.6-0.6,1.1-1.3,1.6-1.9c2.7,9.6-0.4,26.9-0.6,28c-1.1,4.9-2.5,9.8-4.2,14.6c-1.9,5.2-4,10.4-6.4,15.3
			c-2.3,4.6-4.5,8.6-6.8,12.1c-2.3,3.4-6,7.5-11.1,12c-5.1,4.6-10.3,8.1-15.4,10.4c-5.2,2.3-9.9,4.4-14.2,6.3
			c-4.3,1.9-8,4.4-11.2,7.7c-2.9,3.1-5.5,6.6-7.6,10.7c-0.4,1-1.2,3.2-2.3,6.6c-1.1,3.4-1.9,6.1-2.3,8.3c-0.4,1.8-0.6,2.8-0.6,3
			c0,1.4,0.8,3.9,2.4,7.5c1.1,2.4,2.8,6,5.3,10.7c2.8,5.3,4.5,8.8,5.3,10.4c0.5,1.1,1,2.1,1.3,3c0,0,0,0,0,0c-2.6,1.3-4.5,2-5.6,2
			c-0.9,0-1.9-0.3-2.9-0.9c0,0,0-0.1,0-0.1c-0.2-0.5-0.4-1.1-0.5-1.6c-0.2-0.5-0.4-1.1-0.6-1.6c-0.2-0.5-0.5-1.1-0.7-1.6
			c-1.9-3.9-3.8-7.9-5.7-11.8c-0.8-1.8-1.7-3.5-2.6-5.2c-2.1-4.1-3.9-8.4-5.2-12.8c-0.1-0.6-0.2-1.1-0.2-1.7c0-0.4,0.1-0.8,0.1-1.1
			c0.1-0.4,0.1-0.8,0.2-1.2c1.5-6,3-12,4.6-17.9c0.5-2,1-3.9,1.6-5.8c0.5-1.4,0.6-2.9,0.5-4.4c-0.1,0-0.2,0-0.3,0
			c-0.7,0.1-1.1,0.6-1.1,1.4c0,0.1,0,0.2,0,0.2c0,0.2-0.1,0.4-0.1,0.5c0,0.1,0,0.2-0.1,0.4c-4.5-0.2-8.9-0.8-13.4-1.6
			c-1.4-0.2-2.8-0.5-4.3-0.8c0,0,0-0.1-0.1-0.1c0,0,0,0,0,0.1c-4.9-1.1-9.7-2.4-14.4-4.1c-6.4-2.3-12.5-5-18.4-8.2
			c-5.7-3.1-11-7-15.8-11.4c-4.8-4.5-22-31.7-22.7-33.7c-0.2-0.4-0.3-0.8-0.5-1.2c2.5,1,5.1,1.9,7.6,2.7c6,2,12.2,3.9,18.4,5.5
			c5.9,1.5,11.8,2.7,17.9,3.4c5.7,0.8,11.5,1.2,17.3,1.4c1.4,0.1,2.9,0.1,4.3,0.1c-1.1,0.6-2,1.2-2.7,1.7c-1.2,1-1.8,2-1.8,3.1
			c0,0,0,0.1-0.1,0.4c0,0.3,0,0.6,0.1,0.9"/>
		<path d="M125.2,99.6c-2.5,2.6-4.3,4.9-5.4,6.8v0c0,0,0,0,0,0c-0.7,1.2-1,2.3-1,3.2c0,0.8,0.1,1.4,0.4,1.8c0.5,0.8,1.5,1.2,3,1.2
			c3.2,0,5.8-0.5,8-1.4c1.6-0.7,3.1-1.7,4.5-3c0.1-0.1,0.7-0.6,1.6-1.6c0.6-0.6,1.1-1.1,1.5-1.4c1.2-0.9,2.5-1.4,4-1.4
			c1.8,0,2.9,0.5,3.3,1.4c0.1,0.3,0.2,0.7,0.1,1.1c-0.1,0.3-0.1,0.5-0.1,0.6c0,1.3-0.5,2.5-1.4,3.7c-0.5,0.5-0.8,0.9-1,1.2
			c-0.3,0.4-0.4,0.7-0.4,0.9c0,1.5,0.7,2.2,2,2.2c1.9,0,4-0.5,6.2-1.6c1.5-0.7,3.4-1.9,5.6-3.5c2.7-1.9,4.3-3.1,5-3.5
			c1.7-1.1,3.2-1.6,4.4-1.6c1.6,0,2.7,0.6,3.1,1.7c0.1,0.4,0.2,0.7,0.2,1.2c0,0.4,0,0.5,0,0.6c0,0.5-0.1,1.1-0.3,1.7
			c-0.2,0.6-0.3,1.1-0.3,1.4c0,1.1,0.1,1.7,0.4,1.7c1.7,0,3.5-0.3,5.6-0.8c1.4-0.4,3.2-1,5.6-1.8c2.6-0.9,4.4-1.6,5.4-1.8
			c1.9-0.6,3.5-0.8,4.9-0.8c3.6,0,6,1.7,7.1,5.1c0.4,1.1,0.6,2.3,0.6,3.7c0,1.2,0,1.9,0,2c0,2.3-0.2,4.6-0.5,7
			c-0.5,2.9-0.8,5.4-1.1,7.5c-0.1,0.9-0.2,2.1-0.3,3.6c0,0.5-0.1,0.9-0.1,1.2c1.1,0.1,2.2,0.3,3.3,0.5c0.3,0.1,0.6,0.1,0.8,0.2
			c0-0.3,0.1-0.7,0.1-1.1c0.2-1.9,0.5-3.6,1-5.2c1.4-4.9,3.5-7.3,6.4-7.3c2.3,0,3.9,1.4,4.6,4.2c0.2,0.9,0.4,1.9,0.4,3
			c0,0.9,0,1.4,0,1.4c0.1,2-0.1,3.8-0.5,5.5c-0.7,2.9-2,4.5-3.9,4.9c0,0,0,0.1,0,0.1c0.5,2.2,1,3.8,1.4,4.9c1.9,4.6,5.4,6.9,10.6,7
			c0.1-0.5,0.1-1,0.2-1.5c0.5-5.1,0.9-10.3,1.1-15.4c0.4-7.4,0.4-14.7-0.1-22.1c-0.1-2.3-0.4-4.7-0.7-7.1c-0.5-3.6-1.1-7.1-1.9-10.6
			c-0.5-2.3-1.3-4.6-2.3-6.7c-0.3-0.6-0.6-1.2-0.9-1.8c-0.2-0.4-0.4-0.7-0.6-1.1c-0.2-0.3-0.4-0.7-0.6-1c-0.2-0.3-0.4-0.6-0.6-0.9
			c-0.2-0.3-0.4-0.5-0.7-0.7c-0.2-0.2-0.4-0.4-0.7-0.6c-0.2-0.2-0.4-0.4-0.7-0.5c-0.2-0.2-0.4-0.3-0.7-0.4c-0.2-0.1-0.4-0.2-0.6-0.3
			c-0.2-0.1-0.5-0.2-0.7-0.3c-0.1,0.1-0.2,0.1-0.3,0c-0.2,0-0.9-0.5-2.3-1.3c-1.3-0.8-3.6-1.8-7.1-2.9c0.1,2.2,0.2,4.2,0.2,6.1
			c0,1.8-0.1,3.2-0.2,4.1c-0.3,2.5-1.1,3.7-2.2,3.7c-0.4,0-1.1-0.1-1.9-0.4c-0.9-0.2-1.7-0.3-2.4-0.3c-0.9,0-1.5,0.6-1.9,1.8
			c-0.2,0.5-0.3,1.1-0.5,1.9c-0.2,0.9-0.3,1.7-0.4,2.1c-0.4,1.8-0.9,3.2-1.6,4c-0.9,1.2-2.3,1.8-4.1,1.8c-2.7,0-4.6-1.4-5.6-4.3
			c-0.2-0.7-0.5-1.7-0.8-2.9c-0.3-0.9-0.6-1.3-1-1.3c-1,0-1.8,0.2-2.2,0.6c-0.5,0.4-1.2,0.6-2.1,0.6c-3.4,0-5.3-1.3-5.7-4
			c-0.2-0.8-0.2-1.8,0-3.1c0.1-1.3,0.2-2,0.2-2.1c-0.2-2-1.1-3.6-2.6-4.8c-1.2-0.9-2.2-1.4-3.1-1.6c-1.7-0.4-3.2-0.8-4.7-1
			c-0.4,0.1-0.8,0.3-1.3,0.4c-6.2,2-13.1,5.2-20.7,9.5c-1.1,0.6-2.6,1.7-4.4,3.2C128.7,96.2,127,97.8,125.2,99.6z"/>
		<path fill="#CA9731" d="M159.5,80.8c2.4,0.4,4.3,1.1,5.6,2.1c1.8,1.3,2.8,3.2,3.2,5.7c0.1,0.6,0.2,1.6,0.3,3.1
			c0.1,1.2,0.2,2.1,0.3,2.7c0.5,1.7,1.8,2.6,3.9,2.6c0.6,0,1.3-0.2,1.9-0.6c0.6-0.4,1.3-0.5,1.9-0.5c1,0,1.8,0.4,2.4,1.3
			c0.3,0.5,0.7,1.5,1.2,2.9c0.4,1.4,0.8,2.4,1.2,2.9c0.6,0.9,1.4,1.3,2.4,1.3c2.2,0,3.7-0.6,4.7-1.8c0.7-0.8,1.1-2.2,1.4-4
			c0.1-0.5,0.2-1.2,0.3-2.2c0.1-0.8,0.3-1.4,0.5-1.9c0.5-1.2,1.4-1.8,2.8-1.8c1.5,0,2.7,0.2,3.6,0.7c1.1,0,1.8-1.1,2-3.3
			c0.1-1.1,0.2-2.3,0.1-3.4c0-2.3-0.1-4.4-0.2-6.4c-3.8-1.1-9.8-1.7-18.1-1.9C173.3,78.2,166.2,79,159.5,80.8z M189.1,93.2
			c0.6-0.9,1.1-1.4,1.4-1.5c0.5-0.3,1.1-0.4,1.8-0.4c0.2,0,0.8,0.1,1.9,0.2c0.7,0.1,1.3,0.1,1.6,0c0.5-0.2,0.9-0.5,1.1-1.1
			c0.3-0.7,0.4-1.2,0.4-1.6c0-1.1-0.3-2.5-0.9-4.1c-0.3-0.8-0.6-1.5-0.9-2.2c0-0.3,0-0.4,0.1-0.5c0.1-0.1,0.2-0.1,0.4-0.1
			c0.8,0,1.4,1.2,1.9,3.5c0.1,0.7,0.3,1.5,0.3,2.4c0.1,0.7,0.1,1.1,0.1,1.1c0,0.6-0.1,1.2-0.4,1.9c-0.3,0.8-1.4,1.2-3.4,1.3
			c-0.1,0-0.8,0-2.1,0.1c-0.7,0-1,0.1-1.2,0.1c-0.4,0.3-0.9,0.9-1.4,1.7c-0.5,0.7-0.9,1.2-1.3,1.5c-0.2-0.1-0.3-0.1-0.4-0.1
			c-0.1-0.1-0.1-0.2-0.1-0.4C188.2,94.7,188.5,94.1,189.1,93.2z M182.6,96.9c0.4,1.2,0.6,2.6,0.6,4.3c0,0.4,0,0.7,0,1
			c-0.2,0.1-0.3,0.1-0.5,0.2c-0.1-0.2-0.2-0.8-0.3-1.8c-0.1-1.2-0.2-2.1-0.4-2.7c-0.6-2.4-2-3.6-4.3-3.6c-1.1,0-2.1,0.2-3,0.5
			c-0.9,0.4-1.6,0.6-2.2,0.6c-0.3,0-0.6-0.1-0.7-0.3l0,0c0,0,0-0.1,0-0.3c0-0.2,0.8-0.6,2.3-1c1.5-0.4,2.8-0.6,3.7-0.6
			C180.1,93.1,181.7,94.4,182.6,96.9z"/>
		<path fill="#DDB97C" d="M188.7,95.5c0.4-0.3,0.8-0.8,1.3-1.5c0.5-0.8,1-1.3,1.4-1.7c0.1-0.1,0.5-0.1,1.2-0.1c1.3,0,1.9,0,2.1-0.1
			c1.9-0.1,3.1-0.5,3.4-1.3c0.3-0.7,0.4-1.4,0.4-1.9c0,0,0-0.4-0.1-1.1c-0.1-0.9-0.2-1.7-0.3-2.4c-0.5-2.3-1.1-3.5-1.9-3.5
			c-0.2,0-0.4,0-0.4,0.1c0,0-0.1,0.2-0.1,0.5c0.3,0.7,0.6,1.4,0.9,2.2c0.6,1.6,0.9,3,0.9,4.1c0,0.4-0.1,0.9-0.4,1.6
			c-0.2,0.6-0.6,1-1.1,1.1c-0.4,0.1-0.9,0.1-1.6,0c-1.1-0.2-1.7-0.2-1.9-0.2c-0.7,0-1.3,0.1-1.8,0.4c-0.3,0.2-0.8,0.7-1.4,1.5
			c-0.6,0.9-1,1.5-1,1.8c0,0.2,0.1,0.4,0.1,0.4C188.3,95.4,188.5,95.5,188.7,95.5z"/>
		<path fill="#DDB97C" d="M174.1,93.8c-1.5,0.4-2.3,0.8-2.3,1c0,0.2,0,0.3,0,0.3l0,0c0.2,0.2,0.4,0.3,0.7,0.3c0.5,0,1.2-0.2,2.2-0.6
			c0.9-0.4,1.9-0.5,3-0.5c2.2,0,3.6,1.2,4.3,3.6c0.2,0.6,0.3,1.6,0.4,2.7c0.1,1,0.2,1.6,0.3,1.8c0.1,0,0.3-0.1,0.5-0.2
			c0-0.3,0-0.6,0-1c0-1.7-0.2-3.1-0.6-4.3c-0.9-2.5-2.5-3.8-4.8-3.8C176.9,93.1,175.6,93.4,174.1,93.8z"/>
		<path fill="#CA9731" d="M150.4,82.3c1.7-0.7,5.3-1.7,10.6-3.1c5.4-1.4,10.4-2.1,15-2.2c0-0.1,1.4-0.1,4.3-0.1c2.2,0,4.9,0.2,8,0.6
			c0.6,0.1,1.1,0.2,1.7,0.2c0.1-0.1,0.1-0.2,0.2-0.3c0.4-0.5,0.6-0.8,0.7-0.9c0.7-0.9,1-1.8,1-2.5c0-0.8-0.3-1.7-0.8-2.7
			c-0.4-0.8-1-1.3-1.6-1.7c0,0,0,0-0.1,0c-0.3-0.1-0.6-0.2-0.9-0.3c0,0,0-0.1,0-0.1c-0.3-0.1-0.7-0.1-1-0.1c-1.1,0-3,0.4-5.9,1.1
			c-0.3-0.3-0.5-0.6-0.5-0.6c0-0.2,0.7-0.5,2-0.9c1.5-0.5,3-0.7,4.3-0.7c0.6,0,1.2,0.1,1.7,0.2c0.2-0.1,0.6-0.4,1.2-0.7
			c1.2-0.8,1.8-1.8,1.8-2.9c0-1.2-0.3-2.2-0.9-3.1c-1-1.5-2.7-2.3-5-2.3c-1.8,0-3.7,0.4-5.6,1.1c-0.2,0.1-0.4,0.3-0.5,0.4
			c-0.1,0-0.2-0.1-0.2-0.1c-0.1,0-0.3,0.1-0.4,0.2c-1.1,0.5-1.9,0.9-2.4,1.1c-0.8,0.3-1.5,0.5-2.1,0.5c-0.2,0-0.4,0-0.4-0.1
			c0,0-0.1-0.1-0.1-0.2l0,0c0,0,0-0.1,0-0.3c0-0.1,1.6-0.7,4.9-1.8c0.1,0,0.2-0.1,0.3-0.1c0.2-0.3,0.7-1.1,1.6-2.2
			c1.1-1.7,1.7-3.3,1.7-4.9c0-2.9-1.2-5.8-3.6-8.4c-0.4-0.4-1.1-1.1-2.2-2.2c0.1,0.3,0.1,0.6,0.1,1c0.1,0.7,0.1,1.1,0.1,1.1
			c0,2.9-1.1,5.1-3.3,6.5c-1.5,1-4,1.8-7.4,2.5c-2.5,0.5-3.8,0.8-3.9,0.8c-1.4,0.3-2.6,0.7-3.4,1c-2.2,1-3.3,2.5-3.3,4.6
			c0,0.7,0.2,1.3,0.5,1.8c0-0.1,0.1,0,0.1,0.1c0.1,0.2,0.3,0.3,0.4,0.5c1,0.9,2.6,1.4,4.9,1.4c1.7,0,3.1-0.2,4.3-0.6
			c0.6-0.2,1.2-0.4,1.8-0.7c0.1,0,0.2,0.1,0.3,0.1c0.1,0.1,0.2,0.2,0.2,0.4c0,0.3-0.6,0.7-1.7,1.1c-1.4,0.5-2.9,0.8-4.7,0.8
			c-2.9,0-5-0.7-6.1-2.2c-0.2,0.1-0.3,0.1-0.5,0.2c-1.1,0.3-2,0.6-2.6,0.8c-2.5,0.9-3.8,2.2-3.8,3.9c0,1.1,0.5,2.1,1.5,3.1
			c1.5,1.4,3.8,2.1,6.9,2.1c2.7,0,4.9-0.3,6.4-0.8c0.3-0.1,0.7-0.2,1.3-0.5c0.4-0.1,0.7-0.2,0.9-0.2l0.5,0.1c0.1-0.1,0.1,0,0.1,0.4
			c0,0.1-0.2,0.3-0.6,0.5c-0.5,0.2-1.1,0.5-1.8,0.7c-2,0.6-4.3,0.9-6.9,0.9c-1.3,0-2.5-0.1-3.5-0.3c-0.1,0.9-0.4,1.8-1,2.7
			c-1.1,1.6-2.8,2.4-5.2,2.4c0.1,0.2,0.2,0.6,0.4,1.1c0.1,0.6,0.2,1,0.3,1.2C148.7,81.4,149.4,82,150.4,82.3z"/>
		<path fill="#CA9731" d="M138.5,78.4c0,0,0.6-0.2,1.6-0.5c1.1-0.3,1.8-0.4,2.1-0.4l0.7,0.1c0.5-0.8,0.7-1.5,0.7-2.1
			c0-0.3-0.1-0.6-0.2-0.9c-0.2-0.4-0.5-0.6-0.8-0.6c-0.6,0-1.3,0.4-2.3,1.1c-0.4,0.3-0.8,0.7-1.4,1.2c0,0,0,0,0,0
			c0,0.1-0.1,0.3-0.3,0.6c-0.2,0.3-0.3,0.7-0.3,1.3c0,0,0,0.1,0,0.1C138.2,78.4,138.3,78.4,138.5,78.4z"/>
		<path fill="#FDCF9D" d="M134.2,82.9c0.2,0.5,0.3,1.1,0.3,1.7c0,0.5,0,0.8-0.1,0.9c0.2-0.2,0.4-0.3,0.6-0.5
			c0.6-0.5,1.8-1.5,3.5-2.8c1.7-1.4,3-2.6,3.8-3.7c-0.6,0.1-1.1,0.3-1.6,0.5c-1.2,0.4-1.9,0.6-2.2,0.6c-0.7,0-1.1-0.3-1.3-0.8
			c-0.1-0.2-0.1-0.5,0-0.8l-0.1-0.1c-1.2,1.1-2.1,1.9-2.6,2.3c-0.6,0.5-1.2,0.8-1.6,1C133.5,81.6,134,82.1,134.2,82.9z"/>
		<path fill="#FDCF9D" d="M129.7,84c0.5,0.9,0.7,1.9,0.7,2.9c0,0.8-0.1,1.6-0.4,2.2c-0.2,0.5-0.6,1-1.1,1.8c0,0.1,0,0.1,0,0.2l0.2,0
			c0.3-0.2,0.9-0.7,1.8-1.3c1.7-1.3,2.6-2.7,2.6-4.1c0-0.1,0-0.4,0-0.9c0-0.5-0.1-1-0.2-1.3c-0.4-1.2-1.5-1.7-3.1-1.7
			c-0.3,0-0.8,0.1-1.6,0.2c-0.3,0.1-0.6,0.1-0.9,0.2C128.5,82.4,129.2,83,129.7,84z"/>
		<path fill="#FDCF9D" d="M131.8,90.4c-2,1.5-3.1,2.3-3.1,2.3c-0.3,1.7-1.1,2.8-2.4,3.3c-0.1,0.1-0.1,0.3-0.1,0.4
			c0,0.1,0.1,0.3,0.1,0.4c2.4-2.2,5.2-4.2,8.3-6.3c-0.1-0.1-0.3-0.3-0.5-0.5c-0.4-0.3-0.7-0.6-0.9-0.8
			C133,89.5,132.5,89.9,131.8,90.4z"/>
		<path fill="#FCD4A4" d="M209.9,151.9c-1.1-1.4-2-3-2.5-4.7c-0.4-1.1-0.6-2.1-0.7-3.1c-1.2-0.1-2.1-0.4-2.9-1.1
			c-0.5-0.4-0.9-1-1.2-1.5v-0.7c0.1,0.1,0.2,0.3,0.3,0.4c0.5,0.7,1.1,1.1,2,1.3c0.5,0.3,1.3,0.5,2.2,0.5c2,0,3.4-1.6,4-4.7
			c0.3-1.6,0.5-3.2,0.4-4.8c0-0.3,0-0.8-0.1-1.3c-0.1-1-0.2-1.8-0.3-2.6c-0.5-2.4-1.3-3.7-2.5-3.7c-2.9,0-5,2.2-6.5,6.6
			c-0.5,1.6-0.9,3.2-1.1,4.9c-0.2,1.3-0.2,2.2-0.1,2.8c-0.1-0.1-0.1-0.2-0.2-0.2c-2.1-0.2-3.8-0.4-5.1-0.7c0,0,0,0.1,0,0.1
			c0-0.1-0.1-0.1-0.1-0.2c-0.3-0.1-0.6-0.1-0.9-0.2c0-0.2,0-0.3,0-0.5c-0.1,0-0.2,0-0.3,0c0,0,0,0,0,0c0.6-3.6,0.9-5.6,0.9-5.9
			c0.1-0.9,0.5-3.4,1.1-7.5c0.3-2.2,0.5-4.4,0.5-6.5c0-0.1,0-0.7,0-1.8c-0.1-1.2-0.2-2.4-0.6-3.3c-1-3.1-3-4.6-6.1-4.6
			c-1.3,0-3,0.3-4.9,0.8c-1.2,0.3-2.9,1-5.3,1.8c-2.4,0.9-4.2,1.5-5.3,1.8c-1.9,0.6-3.5,0.8-4.7,0.8c-1.3,0-2.2-0.4-2.6-1.3
			c-0.2-0.4-0.3-0.9-0.2-1.4c0-0.3,0.1-0.9,0.3-1.6c0.2-0.7,0.3-1.2,0.3-1.6c-0.1-1.6-0.5-2.4-1.2-2.4c-1.5,0-3.1,0.5-5,1.6
			c-0.9,0.5-2.6,1.6-5.2,3.5c-2.3,1.6-4.2,2.8-5.7,3.5c-2.2,1.1-4.4,1.6-6.4,1.6c-1.4,0-2.3-0.6-2.7-1.7c-0.2-0.5-0.3-1.1-0.2-1.6
			c0-0.6,0.2-1.1,0.4-1.6c0.2-0.2,0.5-0.6,1-1c0.5-0.4,0.8-0.8,1-1.2c0.3-0.5,0.4-1.2,0.4-2c0-0.1,0-0.2,0.1-0.5
			c0-0.3,0-0.5-0.1-0.7c-0.2-0.6-1.1-0.8-2.4-0.8c-1.2,0-2.4,0.4-3.5,1.4c-0.4,0.3-0.9,0.8-1.5,1.4c-0.7,0.8-1.3,1.3-1.6,1.6
			c-1.5,1.3-3,2.3-4.7,3c-2.1,0.8-4.6,1.3-7.5,1.3c-0.3,14.1,0,28.3,0.7,42.4c0.2,3,0.4,6,0.8,9c0.5,3.9,1.2,7.8,2.1,11.6
			c0.4,1.8,1,3.6,1.7,5.3c0.4,1.1,0.8,2.1,1.3,3.1c0.6,1.3,1.4,2.5,2.4,3.6c0.4,0.4,0.7,0.9,1.1,1.3c0.4,0.4,0.8,0.8,1.2,1.2
			c0.4,0.4,0.9,0.8,1.4,1.2c0.5,0.4,1,0.8,1.5,1.1c1.4,1,2.9,1.9,4.5,2.6c3.2,1.4,6.6,2.2,10.1,2.5c1.1,0.1,2.3,0.1,3.4,0.2
			c4.1,0.2,8.1-0.1,12.1-0.6c3.8-0.5,7.7-1.2,11.5-2.2c2.4-0.6,4.9-1.3,7.2-2.2c2.6-1,5.2-2.1,7.7-3.3c1.9-1,3.8-2,5.6-3.2
			c1.8-1.2,3.5-2.5,5.2-3.9c1.8-1.5,3.5-3.1,5-4.9c1.4-1.5,2.6-3.1,3.7-4.7c1-1.4,1.9-2.9,2.7-4.5c0.7-1.3,1.3-2.6,1.8-3.9
			c0.6-1.4,1.1-2.9,1.4-4.3c0.4-1.4,0.6-2.8,0.9-4.1C215.7,156.9,212.4,155.2,209.9,151.9z"/>
		<path fill="#1CB1BF" d="M217.1,169.4c-1.2,2.3-2.5,4.4-4,6.5c-1.5,2-3.1,3.9-4.9,5.7c-1.9,1.9-3.8,3.6-6,5.1
			c-2.1,1.6-4.3,3-6.7,4.3c-0.5,0.3-1.1,0.6-1.6,0.9c-0.4,0.5-0.8,1-1.3,1.6c-2.5,2.6-4.2,4.4-5.2,5.5c-3.5,3.7-8.1,7.2-13.6,10.4
			c-2.1,1.2-4.6,2.6-7.7,4.1c-3.6,1.8-6.2,3.1-8.1,4c-0.3-0.5-0.5-1.4-0.5-2.5c0-1.4-0.1-2.3-0.2-2.7c-0.4-1.8-1-3.5-1.6-5.1
			c-0.5-1.4-1.6-3.3-3.2-5.8c-0.4-0.7-0.8-1.2-1.1-1.7c-0.5,0-1-0.1-1.4-0.1c-2.1,3.9-3.9,7.7-5.3,11.2c-1.7,4.2-3.4,9.1-5.1,14.7
			c-1.7,5.6-3.1,11.7-4.2,18.1c-0.9,5.4-1.4,10.8-1.6,16.2c-0.3,6.2-0.4,12.3-0.6,18.5c-0.3,13.4,0.8,26.6,3.4,39.7
			c5.7,1.7,11.5,3.3,17.3,4.7c9.2,2.3,18.5,3.8,28,4.4c3.7,0.3,7.4,0.4,11.1,0.4c1.7-0.9,2.8-1.4,3.1-1.6c1.2-0.7,1.8-1.4,1.8-2
			c0-0.2-0.1-0.4-0.2-0.5c-0.3-0.1-0.8-0.2-1.7-0.2c-0.9,0-1.7,0.2-2.4,0.5c-0.7,0.4-1.5,0.6-2.2,0.6c-1.3,0-2.1-0.4-2.5-1.3
			c-0.1-0.3-0.2-0.6-0.2-0.9c0-0.3,0-0.4,0-0.4c0-0.5,0.3-1.2,1-2.1c0.7-1,1.7-2,2.9-2.9c3.2-2.4,7-3.6,11.4-3.6c0,0,0,0,0.1,0
			c1.3-2.9,2.6-6.2,4-10c1.6-4.3,3-9.2,4.3-14.7c1-4.2,1.8-8.4,2.5-12.7c0.7-4.3,1.1-8.2,1.1-11.7c0-3.5,0-8.4-0.1-14.8
			c-0.1-6.3-0.5-11.6-1-15.7c-0.6-4.2-1.6-8.3-3.2-12.6c-1.6-4.2-4.1-8-7.5-11.4c-0.5-0.5-1-0.9-1.5-1.4l0.1-0.5
			c2.8,1.9,4.7,3.7,5.7,5.3c1,1.6,2.2,3.8,3.6,6.5c1.4,2.7,2.6,6.8,3.7,12.5c1.1,5.7,1.6,11.5,1.6,17.6c-0.1,6-0.1,11.2-0.3,15.3
			c-0.1,4.2-0.6,8.6-1.4,13.3c-0.8,4.7-1.8,9.6-3.1,14.7c-1.3,5.1-3,10.1-5.1,14.8c-1,2.2-1.8,4.1-2.4,5.5c3.4,0.2,5.9,1.4,7.5,3.5
			c1.4-2,2.6-4.2,3.7-6.4c1.8-3.6,3.3-7.4,4.3-11.4c1-3.7,1.8-7.4,2.5-11.2c0.9-5,1.7-10.1,2.4-15.2c0.8-6.2,1.4-12.3,1.9-18.5
			c0.4-5.7,0.5-11.4,0.3-17.1c-0.2-5.2-0.8-10.4-1.7-15.5c-0.9-4.7-2.1-9.3-3.6-13.9c-0.8-2.3-1.6-4.6-2.6-6.8l0.2-0.7l0.2-0.1
			c2.5,4.6,4.4,9.4,5.6,14.5c1.3,5,2.2,10.1,2.7,15.3c0.5,5.1,0.7,10.2,0.6,15.2c-0.1,5.3-0.5,10.5-1,15.8
			c-0.5,5.3-1.2,10.5-2.1,15.7c-0.8,5.1-1.7,10.2-2.6,15.3c-0.9,5.3-2.4,10.4-4.3,15.3c-1.5,3.8-3.4,7.3-5.9,10.5
			c0.7,1.4,1.1,3.1,1.1,5.2c0,0.6-0.1,1.4-0.2,2.3c5.3-0.9,10.6-2,15.8-3.3c4.1-1,8.2-2.4,12.1-4c4.6-1.9,9.2-4.1,13.6-6.5
			c3.7-2,7.2-4.2,10.6-6.6c5.6-3.9,10.9-8.2,15.9-12.8c5.5-5,10.8-10.3,15.9-15.8l3.7-5.5c0.1-3.4,0-6.7-0.3-10.1
			c-0.4-5.2-1.3-10.3-2.5-15.2c-1.3-5-2.9-10-4.9-14.8c-2-4.9-4.3-9.7-6.9-14.3c-2.5-4.4-5.3-8.7-8.3-12.8c-3.1-4.3-6.6-8.3-10.3-12
			c-3.8-3.8-7.9-7.1-12.2-10.1c-4.3-2.9-8.8-5.4-13.6-7.3c-5-2-10.1-3.4-15.3-4.2c-3.3-0.5-6.7-0.8-10-0.8
			C217.1,169.3,217.1,169.4,217.1,169.4z M135.8,280.1c-0.3-0.5-0.4-0.9-0.4-1.4c0-0.5,0.2-1,0.5-1.5c0.4-0.7,1.1-1.1,2-1.1
			c1,0,1.7,0.4,2.2,1.3c0.2,0.4,0.3,0.8,0.3,1.3c0,0.6-0.2,1.1-0.6,1.6c-0.5,0.6-1.1,0.9-1.9,0.9C137,281.1,136.3,280.8,135.8,280.1
			z M142,313.8c-0.5,0.6-1.1,0.9-1.9,0.9c-0.9,0-1.6-0.4-2.1-1.1c-0.3-0.4-0.4-0.9-0.4-1.4c0-0.5,0.2-1,0.5-1.5
			c0.5-0.7,1.1-1.1,2-1.1c1,0,1.7,0.4,2.2,1.2c0.2,0.4,0.3,0.9,0.3,1.3C142.6,312.8,142.4,313.3,142,313.8z M143,243.5
			c-0.5,0.6-1.1,0.9-1.9,0.9c-1,0-1.7-0.4-2.1-1.1c-0.3-0.4-0.4-0.9-0.4-1.3c0-0.5,0.2-1,0.4-1.5c0.5-0.7,1.1-1.1,2.1-1.1
			c1,0,1.7,0.4,2.2,1.3c0.2,0.4,0.3,0.8,0.3,1.3C143.6,242.5,143.4,243,143,243.5z M151.8,211.5c-0.5,0.6-1.1,0.9-1.9,0.9
			c-1,0-1.7-0.4-2.1-1.1c-0.3-0.5-0.4-0.9-0.4-1.4c0-0.5,0.1-1,0.4-1.5c0.4-0.7,1.1-1.1,2.1-1.1c1,0,1.7,0.4,2.1,1.3
			c0.2,0.4,0.3,0.8,0.4,1.3C152.4,210.5,152.2,211,151.8,211.5z"/>
		<path d="M149.9,207.4c-0.9,0-1.6,0.4-2.1,1.1c-0.3,0.5-0.4,1-0.4,1.5c0,0.5,0.1,0.9,0.4,1.4c0.4,0.7,1.1,1.1,2.1,1.1
			c0.8,0,1.4-0.3,1.9-0.9c0.4-0.5,0.6-1,0.6-1.6c0-0.4-0.1-0.8-0.4-1.3C151.6,207.8,150.9,207.4,149.9,207.4z M151.1,211.1
			c-0.4,0.5-0.9,0.8-1.6,0.8c-0.8,0-1.3-0.3-1.7-0.9c-0.2-0.4-0.3-0.7-0.3-1.1c0-0.4,0.1-0.8,0.4-1.2c0.4-0.5,0.9-0.8,1.6-0.8
			c0.8,0,1.4,0.3,1.7,1c0.2,0.3,0.3,0.7,0.3,1C151.5,210.3,151.3,210.7,151.1,211.1z"/>
		<path fill="#00AFC4" d="M149.5,207.9c-0.7,0-1.2,0.3-1.6,0.8c-0.3,0.4-0.4,0.8-0.4,1.2c0,0.3,0.1,0.7,0.3,1.1
			c0.4,0.6,0.9,0.9,1.7,0.9c0.7,0,1.2-0.3,1.6-0.8c0.3-0.4,0.4-0.8,0.4-1.2c0-0.3-0.1-0.7-0.3-1
			C150.8,208.2,150.3,207.9,149.5,207.9z"/>
		<path d="M141.1,239.4c-0.9,0-1.6,0.4-2.1,1.1c-0.3,0.5-0.4,1-0.4,1.5c0,0.4,0.1,0.9,0.4,1.3c0.4,0.7,1.1,1.1,2.1,1.1
			c0.8,0,1.4-0.3,1.9-0.9c0.4-0.5,0.6-1,0.6-1.6c0-0.4-0.1-0.8-0.3-1.3C142.8,239.8,142.1,239.4,141.1,239.4z M142.5,243.1
			c-0.4,0.5-0.9,0.8-1.6,0.8c-0.8,0-1.4-0.3-1.7-0.9c-0.2-0.4-0.3-0.7-0.3-1.1c0-0.4,0.1-0.8,0.4-1.2c0.4-0.5,0.9-0.8,1.6-0.8
			c0.8,0,1.4,0.3,1.7,1c0.2,0.4,0.3,0.7,0.3,1C142.9,242.3,142.8,242.7,142.5,243.1z"/>
		<path fill="#00AFC4" d="M140.9,239.9c-0.7,0-1.2,0.3-1.6,0.8c-0.3,0.4-0.4,0.8-0.4,1.2c0,0.4,0.1,0.7,0.3,1.1
			c0.3,0.6,0.9,0.9,1.7,0.9c0.7,0,1.2-0.3,1.6-0.8c0.3-0.4,0.4-0.8,0.4-1.2c0-0.3-0.1-0.7-0.3-1
			C142.3,240.2,141.7,239.9,140.9,239.9z"/>
		<path d="M139.8,280.3c0.4-0.5,0.6-1,0.6-1.6c0-0.4-0.1-0.8-0.3-1.3c-0.4-0.8-1.2-1.3-2.2-1.3c-0.9,0-1.6,0.4-2,1.1
			c-0.3,0.5-0.5,1-0.5,1.5c0,0.4,0.1,0.9,0.4,1.4c0.4,0.7,1.1,1.1,2.1,1.1C138.7,281.1,139.3,280.8,139.8,280.3z M136,279.7
			c-0.2-0.4-0.3-0.7-0.3-1.1c0-0.4,0.1-0.8,0.4-1.2c0.4-0.5,0.9-0.8,1.6-0.8c0.8,0,1.4,0.3,1.7,1c0.2,0.3,0.3,0.7,0.3,1
			c0,0.4-0.1,0.8-0.4,1.2c-0.4,0.5-0.9,0.8-1.6,0.8C137,280.6,136.4,280.3,136,279.7z"/>
		<path fill="#00AFC4" d="M139.3,279.8c0.3-0.4,0.4-0.8,0.4-1.2c0-0.3-0.1-0.7-0.3-1c-0.3-0.6-0.9-1-1.7-1c-0.7,0-1.2,0.3-1.6,0.8
			c-0.3,0.4-0.4,0.8-0.4,1.2c0,0.3,0.1,0.7,0.3,1.1c0.3,0.6,0.9,0.9,1.7,0.9C138.4,280.6,139,280.4,139.3,279.8z"/>
		<path d="M140.1,309.7c-0.9,0-1.6,0.3-2,1.1c-0.3,0.5-0.5,1-0.5,1.5c0,0.5,0.1,0.9,0.4,1.4c0.4,0.7,1.1,1.1,2.1,1.1
			c0.8,0,1.4-0.3,1.9-0.9c0.4-0.5,0.6-1,0.6-1.6c0-0.4-0.1-0.9-0.3-1.3C141.8,310.1,141.1,309.7,140.1,309.7z M141.5,313.4
			c-0.4,0.5-0.9,0.8-1.6,0.8c-0.8,0-1.3-0.3-1.7-0.9c-0.2-0.4-0.3-0.7-0.3-1.1c0-0.4,0.1-0.8,0.4-1.2c0.4-0.5,0.9-0.8,1.6-0.8
			c0.8,0,1.3,0.3,1.7,1c0.2,0.4,0.3,0.7,0.3,1C141.9,312.6,141.8,313,141.5,313.4z"/>
		<path fill="#00AFC4" d="M139.9,310.2c-0.7,0-1.2,0.3-1.6,0.8c-0.3,0.4-0.4,0.8-0.4,1.2c0,0.3,0.1,0.7,0.3,1.1
			c0.3,0.6,0.9,0.9,1.7,0.9c0.7,0,1.2-0.3,1.6-0.8c0.3-0.4,0.4-0.8,0.4-1.2c0-0.3-0.1-0.7-0.3-1
			C141.3,310.5,140.7,310.2,139.9,310.2z"/>
		<path fill="#1CB1BF" d="M154.9,202.3c0.4,0.8,0.7,1.4,0.9,1.8c0.1,0.4,0.4,1.2,0.8,2.2c0.6,1.5,1.1,3.1,1.5,4.8
			c0.4,1.8,0.6,3.4,0.6,4.7c6.8-3.2,12.1-5.9,15.6-8.1c4.9-2.9,9.1-6.2,12.7-9.9c1.4-1.5,2.8-3,4.1-4.6c-0.9,0.4-1.8,0.8-2.7,1.1
			c-2.3,0.9-4.6,1.7-6.9,2.3c-2.3,0.6-4.6,1.2-6.9,1.6c-2.1,0.4-4.3,0.7-6.5,0.9c-2.4,0.3-4.9,0.4-7.3,0.4c-2.5,0-5,0-7.5,0.1l0,0
			C154.1,200.9,154.6,201.8,154.9,202.3z"/>
		<path fill="#1CB1BF" d="M133.9,306.6c-0.8-6.1-1.3-12.2-1.3-18.3c0-6.2,0-12.4,0.1-18.6c0.1-6.4,0.4-12.7,1-19
			c0.6-6.5,1.7-12.9,3.4-19.2c1.7-6.4,3.6-12.8,5.9-19.3c1.8-5.2,3.9-9.4,6.3-12.6c-0.3,0-0.6-0.1-0.8-0.1c-1.3,0.9-2.6,2-3.8,3.1
			c-1,1.1-2.3,2.7-3.8,4.9c-1.7,2.5-2.9,4.2-3.6,5.1c-0.2-0.3-0.4-0.6-0.5-1.1c0-0.2,0-0.5,0-1.1c0-1.2,0.3-3.8,0.9-8
			c0.4-2.6,0.8-4.6,1.1-6.2c-0.2-0.1-0.4-0.2-0.6-0.3c-1.6,1.8-3.1,3.9-4.4,6.2c-3.4,5.9-5.8,12-7.3,18.4
			c-1.5,6.4-2.7,12.8-3.6,19.2c-0.9,6.4-1.7,12.9-2.3,19.6c-0.6,6.7-1,12.3-1.1,16.9c-0.1,4.6,0.2,10.7,1,18.3
			c0.7,6.8,2.1,13.4,4.4,19.9c3.6,1.2,7.3,2.4,10.9,3.5C135.1,314,134.4,310.3,133.9,306.6z"/>
		<path fill="#1CB1BF" d="M139.3,199.8c-0.8,4.3-1.3,7.3-1.5,8.9v1.4c0.5-1,1-2,1.6-3.1c1.2-2,2.5-3.9,4-5.4c0.9-1,1.9-1.9,2.9-2.7
			c-2.3-0.5-4.4-1.3-6.5-2.3C139.7,197.4,139.5,198.5,139.3,199.8z"/>
		<path fill="#1CB1BF" d="M130.4,205.7c2.1-4.7,4.4-8.3,6.8-10.7c-1.3-0.9-2.6-1.8-3.7-2.9c-0.6-0.6-1.2-1.2-1.8-1.9
			c-0.6-0.3-1.2-0.6-1.9-0.9c-6.4-3-12.5-6.5-18.3-10.4c-5.1-3.5-9.8-7.4-14.1-11.9c-1.4-1.5-2.8-3-4.1-4.5c-0.7-0.8-1.4-1.6-2-2.5
			c-0.2-0.3-0.4-0.5-0.6-0.8c-0.2-0.2-0.4-0.5-0.6-0.8c-0.2-0.3-0.4-0.5-0.5-0.8c-0.6-0.9-1.2-1.9-1.8-2.9c-0.7-1.3-1.2-2.6-1.7-4.1
			c-0.5-1.4-0.4-3.1,0.3-5.1c0.7-2,1.9-4.2,3.6-6.6c1.7-2.4,3.5-4.9,5.5-7.4c1.3-1.6,2.5-3.2,3.9-4.8c0.6-0.7,1.2-1.4,1.8-2.1
			c0.3-0.4,0.7-0.7,1.1-1.1c0.4-0.3,0.7-0.7,1.1-1.1c1.1-1.1,2.1-2.2,3-3.3c2-2.4,4.1-4.6,6.3-6.8c1.8-1.8,3.6-3.5,5.5-5.1
			c0.1-0.1,0.2-0.2,0.3-0.3c0.1-0.2,0.2-0.4,0.3-0.7c-1.3-1.9-2.2-3-2.7-3.3c-1.8-1.2-3.1-2.1-3.7-2.5c-0.9-0.5-1.7-0.9-2.4-1.1
			c-0.3-0.1-0.6-0.2-0.9-0.2c-1,1.4-2.1,2.9-3.1,4.3c-3.6,4.8-7.3,9.5-11.2,14c-3,3.5-6.1,7.1-9.1,10.6c-2.4,2.8-4.6,5.6-6.7,8.6
			c-3.3,4.7-4.8,9.8-4.5,15.5c0.1,1.5,0.7,4,2,7.6c1.3,3.6,4,7.5,8.1,11.9c4.1,4.4,8.2,8.3,12.5,11.7c4.2,3.4,8.7,6.9,13.3,10.5
			c4,3.1,8.1,6.2,12.2,9.3c1.2,0.9,2.4,1.8,3.6,2.6c1.2,0.8,2.4,1.6,3.4,2.6C129.6,207.5,130,206.6,130.4,205.7z"/>
		<path fill="#ED9921" d="M198.1,335.7c-0.4-0.1-4-1-4.4-0.9c-1.9,0.2-7,2.6-7.3-0.1c-0.1-0.3-0.2-0.5-0.1-0.9
			c0.1-0.3,0.1-0.4,0.1-0.4c0-1.1,0.6-2.1,1.8-3.1c0,0,0,0,0,0c0.7-0.6,0.4-1.8-0.6-1.8c-0.4,0-0.7,0-1.1-0.1
			c-5.8-0.2-11.5-0.6-17.3-1.4c-6-0.8-12-1.9-17.9-3.4c-6.2-1.6-12.3-3.4-18.4-5.5c-2.6-0.9-5.1-1.8-7.6-2.7
			c0.1,0.4,0.3,0.8,0.5,1.2c5.3,14,17.9,29.2,22.7,33.7c4.8,4.5,10.1,8.3,15.8,11.4c5.9,3.2,12,6,18.4,8.2c4.7,1.7,9.5,3,14.4,4.1
			c0,0,0,0,0-0.1c0,0,0.1,0,0.1,0.1c1.4,0.3,2.8,0.6,4.3,0.8c4.4,0.8,8.9,1.3,13.4,1.6c0-0.1,0-0.2,0.1-0.4c0-0.2,0.1-0.3,0.1-0.5
			c0-0.1,0-0.1,0-0.2c0-0.8,0.4-1.2,1.1-1.4c0.1,0,0.2,0,0.3,0c0.2,1.5,0,2.9-0.5,4.4c-0.6,1.9-1.1,3.8-1.6,5.8
			c-1.5,6-3,11.9-4.6,17.9c-0.1,0.4-0.2,0.8-0.2,1.2c0,0.4-0.1,0.8-0.1,1.1c0,0.6,0,1.2,0.2,1.7c1.3,4.4,3,8.7,5.2,12.8
			c0.9,1.7,1.8,3.5,2.6,5.2c1.9,3.9,3.8,7.9,5.7,11.8c0.2,0.5,0.5,1.1,0.7,1.6c0.2,0.5,0.4,1,0.6,1.6c0.2,0.5,0.3,0.9,0.5,1.4
			c0.2,0.2,0.3,0.4,0.5,0.6c0.9,0.5,1.8,0.7,2.6,0.7c1.1,0,3-0.7,5.6-2c0,0,0,0,0,0c-0.4-0.9-0.8-1.9-1.3-3
			c-0.8-1.6-2.5-5.1-5.3-10.4c-2.5-4.8-4.2-8.3-5.3-10.7c-1.6-3.6-2.4-6.1-2.4-7.5c0-0.2,0.2-1.2,0.6-3c0.4-2.2,1.2-5,2.3-8.3
			c1.1-3.3,1.9-5.5,2.3-6.5c0,0,0-0.1,0-0.1c2.1-4.1,4.6-7.6,7.6-10.6c3.2-3.3,6.9-5.9,11.2-7.7c4.3-1.9,9-4,14.2-6.3
			c5.2-2.3,10.3-5.8,15.4-10.4c5.1-4.6,8.8-8.6,11.1-12c2.3-3.5,4.5-7.5,6.8-12.1c2.4-5,4.6-10.1,6.4-15.3
			c1.6-4.6,8.6-26.8,5.3-40.7c-0.2-0.8-1.2-1-1.7-0.4c-0.1,0.2-0.3,0.3-0.4,0.5c-4.1,4.5-8.2,8.8-12.5,13.1
			c-4.5,4.4-9.2,8.6-14.1,12.5c-4.9,3.9-10,7.4-15.4,10.6c-5.6,3.3-11.4,6.2-17.4,8.5c-6,2.3-12.2,4.1-18.5,5.4
			c-2.7,0.5-5.4,1-8.1,1.4c-0.4,0.1-0.7,0.4-0.8,0.8c-0.2,1-0.4,1.9-0.7,2.7c-0.5,1.4-1.2,2.5-1.7,3.5c-1.4,2.7-7.5,2.5-7.5,2.5
			c-0.2-0.2-0.6-0.4-0.8-0.6c-0.2-0.2-0.4-0.2-0.7-0.3C202.2,335.4,199.1,336,198.1,335.7z M232.4,364c-0.1,0-0.6,0.1-1.5,0.1
			c-5.7,0-10.1-1.6-13.4-4.7c-1.2-1.2-2.1-2.4-2.8-3.8c-0.6-1.1-0.8-2.1-0.8-2.8c0-0.3,0.2-0.6,0.5-0.8c0.3,0.6,0.8,1.6,1.3,3.1
			c0.6,1.5,1.7,3,3.3,4.5c1.7,1.5,4,2.6,7,3.3c3,0.7,4.9,0.9,5.7,0.9c0.8-0.1,1.1,0,1.1,0.1C232.7,363.9,232.6,364,232.4,364z"/>
		<path d="M231.7,363.6c-0.8,0.1-2.7-0.2-5.7-0.9c-3-0.6-5.3-1.7-7-3.3c-1.6-1.5-2.7-3-3.3-4.5c-0.5-1.5-1-2.5-1.3-3.1
			c-0.3,0.3-0.5,0.5-0.5,0.8c0,0.8,0.3,1.7,0.8,2.8c0.7,1.4,1.6,2.6,2.8,3.8c3.3,3.2,7.7,4.7,13.4,4.7c0.9,0,1.4,0,1.5-0.1
			c0.2,0,0.3-0.1,0.4-0.3C232.8,363.5,232.5,363.5,231.7,363.6z"/>
		<path fill="#FDCF9D" d="M213,325c0.1-0.9,0.2-1.6,0.2-2c0-1.6-0.4-3.3-1.2-4.9c-1.3-2.6-3.4-3.9-6.3-3.9c-4.9,0-9,1.1-12.3,3.3
			c-1.2,0.8-2.1,1.6-2.9,2.5c-0.6,0.7-0.9,1.3-0.9,1.7c0,0.3,0.1,0.7,0.3,1c0.3,0.4,0.7,0.6,1.4,0.6c0.6,0,1.3-0.2,2.1-0.6
			c0.8-0.4,1.7-0.5,2.6-0.5c1.4,0,2.4,0.2,2.8,0.7c0.2,0.3,0.2,0.5,0.1,0.8c0,1-0.6,2-1.8,2.9c-0.8,0.6-2.1,1.3-3.9,2.2
			c-2,0.9-3.3,1.6-3.9,2.1c-1.2,0.8-1.8,1.7-1.8,2.6c0,0.1,0,0.2,0,0.4c0,0.2,0,0.3,0.1,0.5c0.2,0.4,0.9,0.5,1.9,0.5
			c1.8,0,4.6-1,8.5-3.1c1.2-0.6,2.4-1.3,3.7-2.1c1.1-0.6,1.6-0.9,1.6-0.9l0.5,0.2c0.1,0,0.1,0.1,0.1,0.3c0,0.3-0.5,0.8-1.6,1.5
			c-1.1,0.7-2.4,1.5-3.9,2.3c-1,0.5-2,1-2.9,1.4l0.1,0.1c0.7,0.4,2,0.6,4.1,0.6c2.2,0,4.1-0.7,5.6-2.2c0.5-0.4,0.9-1,1.3-1.5
			c0.4-0.5,0.5-0.8,0.6-0.8c0.1,0,0.2,0.1,0.3,0.1c0.1,0.1,0.2,0.2,0.2,0.4c0,0.4-0.2,0.9-0.6,1.5c-0.4,0.6-1,1.1-1.7,1.7
			c-0.3,0.3-0.7,0.5-1,0.7c0.3,0.2,1,0.3,2.2,0.3c0.9,0,1.6-0.2,2.4-0.6c0,0,0.1-0.1,0.1-0.1c0,0,0.1,0,0.1,0
			c1.5-0.9,2.6-2.7,3.4-5.3C212.5,327.9,212.8,326.5,213,325z"/>
		<path fill="#FDCF9D" d="M119.1,105.2c0.9-1.6,2.2-3.4,4-5.3c0.7-0.8,1.5-1.5,2.3-2.3c-0.1-0.1-0.2-0.3-0.2-0.4c0-0.2,0-0.5,0-0.8
			c0-0.1,0-0.1,0-0.2c-0.2,0-0.4,0-0.7,0c-0.7,0-1.2-0.1-1.6-0.3c-0.2,0.6-0.5,1.3-0.9,1.9c-1,1.6-2.4,2.7-4,3.2
			c-0.2-0.1-0.3-0.1-0.4-0.2c-0.1-0.1-0.1-0.2-0.1-0.5c0,0,0.6-0.4,1.6-1.2c1.2-0.9,1.9-1.7,2.2-2.3c0.3-1,0.6-1.8,0.8-2.4
			c0,0,0-0.1,0-0.1c0-0.4-0.1-1.1-0.1-2.2c-0.1-1.1-0.3-2.1-0.7-3c0-0.1,0.2-0.2,0.5-0.2c0.9,0,1.5,1,1.6,3.1c0,0.1,0,0.9,0.1,2.1
			c0,0.6,0.1,1,0.2,1c2.8,0,4.2-1.3,4.2-3.9c0-0.2,0-0.6,0.1-1.4c0-0.7-0.3-1.4-0.7-1.9c-1.2-1.6-4-2.4-8.4-2.4
			c-2.1,0-3.5,0.5-4.4,1.6c-0.6,0.8-1,2.2-1.1,4.2c-0.1,1.2-0.1,2.1-0.2,2.7c-0.1,1.2-0.2,2.1-0.4,3c-0.1,0.7-0.3,1.5-0.6,2.2
			C114.9,100.5,117.2,102.5,119.1,105.2z"/>
		<path fill="#FDCF9D" d="M128.2,87.6c0.2,0.4,0.4,0.8,0.5,1.2c0.4-0.9,0.7-1.5,0.7-2c0-0.8-0.2-1.6-0.7-2.4
			c-0.8-1.2-1.9-1.8-3.5-1.8c-0.5,0-1.7,0.5-3.6,1.4c-0.3,0.2-0.7,0.4-1,0.5C124.5,84.8,127.1,85.9,128.2,87.6z"/>
		<path fill="#ED9921" d="M190.9,431.8c0.2,0.5,0.4,1.1,0.5,1.6c0,0,0,0.1,0,0.1c1,0.6,2,0.9,2.9,0.9c1.1,0,3-0.7,5.6-2c0,0,0,0,0,0
			c-0.4-0.9-0.8-1.9-1.3-3c-0.8-1.6-2.5-5.1-5.3-10.4c-2.5-4.8-4.2-8.3-5.3-10.7c-1.6-3.6-2.4-6.1-2.4-7.5c0-0.2,0.2-1.2,0.6-3
			c0.4-2.2,1.2-5,2.3-8.3c1.1-3.4,1.9-5.6,2.3-6.6c1.6-3,3.3-5.7,5.3-8.1c-4.5-1-8.8-2.3-13.1-3.8c-0.3-0.1-0.5-0.2-0.7-0.3
			l-0.1,0.2c-0.6,1.9-1.1,3.8-1.6,5.8c-1.5,6-3,12-4.6,17.9c-0.1,0.4-0.2,0.8-0.2,1.2c0,0.4-0.1,0.8-0.1,1.1c0,0.6,0,1.2,0.2,1.7
			c1.3,4.4,3,8.7,5.2,12.8c0.9,1.7,1.8,3.5,2.6,5.2c1.9,3.9,3.8,7.9,5.7,11.8c0.2,0.5,0.5,1.1,0.7,1.6
			C190.5,430.8,190.7,431.3,190.9,431.8z"/>
		<path fill="#8D7E30" d="M182.4,371.1l0.1-0.2C182.5,370.9,182.4,371,182.4,371.1z"/>
		<path fill="#8D7E30" d="M192.5,443c2.6-2.3,6.5-3.6,11.6-3.9c0-0.2,0-0.5,0-0.7c0-2.1-0.3-3.6-1-4.4c-0.3-0.4-0.8-0.8-1.4-1.1
			c-3.5,1.8-5.9,2.8-7.2,2.8c-1.6,0-3.2-0.6-4.8-1.8c-2.4,0-4.5,0-6.1-0.1c0.3,0.5,0.7,1.1,0.9,1.7c0.2,0.6,0.5,1.6,0.8,2.9
			c0,0.2-0.2,0.3-0.5,0.3c-0.6,0-1.4-1.6-2.3-4.9c-1.1,0-2-0.1-2.7-0.2c0.2,0.4,0.4,1,0.6,1.7c0.5,1.6,0.8,2.5,0.8,2.7
			c0,0.1,0,0.3,0,0.5c0,0.1-0.1,0.2-0.5,0.2c-0.4,0-1.1-1.8-2-5.2c0,0,0,0,0,0c-0.9-0.2-1.3-0.3-1.4-0.3c-0.4-0.1-0.9-0.1-1.6-0.1
			c1.2,2.3,2,4.1,2.2,5.5c0,0-0.1,0.1-0.1,0.3c-0.1,0.1-0.2,0.1-0.4,0.1c-0.2,0-1.1-2-2.6-5.9c-0.5,0-1.1,0-1.7,0
			c-5.9,0-10.3,1.2-13.3,3.5c-1.1,0.8-1.8,1.8-2.4,2.8c-0.4,0.8-0.6,1.5-0.6,2.1c0,0.7,0.2,1.6,0.6,2.7c6.1,0,17.4-0.1,34-0.1
			C191.9,443.6,192.2,443.3,192.5,443z"/>
		<path fill="#8D7E30" d="M223.3,441c-2.4,0-4.5,0-6.1-0.1c0.3,0.5,0.7,1.1,0.9,1.7c0.2,0.6,0.5,1.6,0.8,2.9c0,0.2-0.2,0.3-0.5,0.3
			c-0.6,0-1.4-1.6-2.3-4.9c-1.1,0-2-0.1-2.7-0.2c0.2,0.4,0.4,1,0.6,1.7c0.5,1.6,0.8,2.5,0.8,2.7c0,0.1,0,0.3,0,0.5
			c0,0.1-0.1,0.2-0.5,0.2c-0.4,0-1.1-1.8-2-5.2c0,0,0,0,0,0c-0.9-0.2-1.3-0.3-1.4-0.3c-0.4-0.1-0.9-0.1-1.6-0.1
			c1.2,2.3,2,4.1,2.2,5.5c0,0-0.1,0.1-0.1,0.3c-0.1,0.1-0.2,0.1-0.4,0.1c-0.2,0-1.1-2-2.6-5.9c-0.5,0-1.1,0-1.7,0
			c-5.9,0-10.3,1.2-13.3,3.5c-0.1,0.1-0.3,0.2-0.4,0.3c0,0,0,0,0,0c-0.1,0-0.1,0.1-0.2,0.1c-0.8,0.7-1.4,1.5-1.9,2.4
			c-0.4,0.8-0.6,1.5-0.6,2.1c0,0.7,0.2,1.6,0.6,2.7c7.4,0,22.4-0.1,45.2-0.1c0.1-0.5,0.3-1,0.4-1.4c0.4-0.9,0.6-1.5,0.6-1.7
			c0.2-0.7,0.3-1.5,0.3-2.4c0-2.1-0.3-3.6-1-4.4c-0.3-0.4-0.8-0.8-1.4-1.1c-3.5,1.8-5.9,2.8-7.2,2.8
			C226.5,442.8,224.9,442.2,223.3,441z"/>
		<path fill="#4E6131" d="M178.1,445c-4.5,0-8.9,0-13.1-0.1c-2.8,0-5.1,0-7-0.1c0.1,0.2,0.2,0.4,0.3,0.7c0.2,0.4,0.4,0.8,0.5,1.1
			c6.1,0,16.5,0,31.2-0.1c0-0.1,0.1-0.3,0.2-0.4c0.2-0.4,0.4-0.8,0.7-1.2C182.5,445,178.2,445,178.1,445z"/>
		<path fill="#4E6131" d="M198.5,452.1c-2.8,0-5.1,0-7-0.1c0.1,0.2,0.2,0.4,0.3,0.7c0.2,0.4,0.4,0.8,0.5,1.1
			c7.7,0,22.2-0.1,43.7-0.1c0-0.6,0.1-1.1,0.2-1.6c-16.1,0.1-24.3,0.1-24.5,0.1C207.2,452.2,202.8,452.1,198.5,452.1z"/>
		<path fill="#CA9731" d="M139.9,54.3c0.4,0.3,1.2,0.7,2.3,1.2c1.1,0.5,1.9,0.9,2.3,1.3c0.7,0.6,1,1.3,1,2.2c0,0.8-0.3,1.4-0.8,1.9
			c-0.3,0.3-0.9,0.7-1.7,1.1c-0.8,0.4-1.4,0.8-1.7,1.1c-0.5,0.5-0.8,1.1-0.8,1.9c0,0.7,0.4,1.4,1.3,2.2c0.5,0.4,0.7,0.7,0.9,0.9
			c0.3,0.4,0.4,0.7,0.4,1.1c0,0.2-0.1,0.4-0.2,0.7c-0.1,0.3-0.2,0.5-0.2,0.7c0,0.2,0,0.3,0,0.4c0.1,0,0.1,0,0.2,0.1l0.4,0.1
			c0.3,0,0.5-0.1,0.6-0.3c0-0.4,0.1-0.9,0.2-1.6c0-0.8-0.4-1.6-1.3-2.5c-0.2-0.2-0.5-0.5-0.9-0.9c-0.3-0.3-0.4-0.6-0.4-0.8
			c0-0.6,0.3-1.1,0.8-1.4c0.2-0.1,0.7-0.4,1.7-0.9c0.8-0.4,1.4-0.8,1.7-1.3c0.5-0.6,0.8-1.5,0.8-2.5c0-1.2-0.3-2.1-1-2.9
			c-0.5-0.5-1.2-0.9-2.3-1.3c-1.3-0.5-2-0.8-2.3-1c-0.7-0.4-1-1-1-1.7c0-0.9,0.7-2,2-3.4c0.2-0.2,0.6-0.6,1.4-1.3
			c0.4-0.4,0.6-0.6,0.6-0.7c0-0.3,0-0.3-0.1-0.2c-0.1,0.1-0.5,0.3-1.2,0.6c-0.7,0.3-1.6,1-2.6,2.2c-1,1.2-1.5,2.2-1.3,3
			C138.7,53.1,139.2,53.8,139.9,54.3z"/>
	</g>
	<g>
		<path fill="none" d="M205.7,136.6c-0.1,0-0.2,0.2-0.5,0.6c0.2,0.1,0.5,0.3,0.9,0.5c0.4,0.2,0.7,0.3,0.8,0.3c0-0.1,0.1-0.3,0.1-0.5
			C206.9,136.9,206.5,136.6,205.7,136.6z"/>
		<path d="M168.6,130.6c0.7-0.9,1.1-1.9,1.4-2.8c0.1-0.3,0.1-0.5,0.1-0.8c0.1-0.8,0.1-1.7,0-2.6c-0.4-2.3-1.5-4.1-3.3-5.4
			c-1.9-1.3-3.9-1.8-6.2-1.5c-2.3,0.4-4.1,1.5-5.4,3.4c-1.3,1.9-1.8,3.9-1.5,6.2c0.1,0.9,0.4,1.7,0.8,2.4c0.6,1.2,1.4,2.1,2.6,3
			c0.2,0.1,0.4,0.3,0.6,0.4c1.7,1,3.6,1.4,5.6,1C165.4,133.6,167.2,132.5,168.6,130.6z M163.1,133.3c-0.9,0.1-1.8,0.1-2.6,0
			c-1.1-0.2-2.1-0.6-3-1.3c-1-0.7-1.7-1.5-2.2-2.5c-0.4-0.7-0.7-1.5-0.8-2.4c-0.3-2.1,0.1-3.9,1.3-5.6c1.2-1.7,2.9-2.7,4.9-3
			c2.1-0.3,4,0.1,5.7,1.3c1.7,1.2,2.7,2.8,3,4.9c0.2,0.9,0.2,1.7,0,2.6c-0.2,1.1-0.6,2.1-1.3,3.1
			C166.8,131.9,165.1,132.9,163.1,133.3z"/>
		<path fill="#FFFFFF" d="M169.3,127.1c0.2-0.8,0.2-1.7,0-2.6c-0.3-2.1-1.3-3.7-3-4.9c-1.7-1.2-3.6-1.7-5.7-1.3
			c-2.1,0.3-3.7,1.3-4.9,3c-1.2,1.7-1.7,3.6-1.3,5.6c0.1,0.9,0.4,1.7,0.8,2.4c0.5,1,1.3,1.8,2.2,2.5c0.9,0.7,2,1.1,3,1.3
			c0.8,0.1,1.7,0.1,2.6,0c2.1-0.3,3.7-1.4,4.9-3.1C168.7,129.2,169.1,128.2,169.3,127.1z M162.5,121.5c0,0.2-0.2,0.4-0.3,0.6
			c-0.2,0.2-0.5,0.3-0.8,0.2c-0.4-0.1-0.7-0.3-0.8-0.6c-0.1-0.2-0.1-0.4-0.1-0.6c0.1-0.7,0.5-1,1.2-0.9c0.2,0,0.3,0.1,0.4,0.1
			c0,0,0,0,0,0c-0.3-0.1-0.5,0.1-0.5,0.3c0,0.1,0,0.2,0,0.2c0,0.1,0.2,0.2,0.3,0.3c0.3,0,0.4-0.1,0.5-0.4c0-0.1,0-0.1,0-0.2
			C162.5,120.9,162.6,121.1,162.5,121.5z"/>
		<path d="M162.4,120.9c0,0.3-0.2,0.4-0.5,0.4c-0.2,0-0.3-0.1-0.3-0.3c0-0.1,0-0.2,0-0.2c0-0.3,0.2-0.4,0.5-0.3c0,0,0,0,0,0
			c-0.1-0.1-0.2-0.1-0.4-0.1c-0.7-0.1-1.1,0.2-1.2,0.9c0,0.2,0,0.4,0.1,0.6c0.1,0.4,0.4,0.6,0.8,0.6c0.3,0.1,0.6,0,0.8-0.2
			c0.2-0.2,0.3-0.4,0.3-0.6c0-0.3,0-0.6-0.1-0.8C162.4,120.7,162.4,120.8,162.4,120.9z"/>
		<path d="M144.4,161.8c0-0.2,0-0.4-0.1-0.4c0,0-0.2-0.1-0.4-0.1c-1.8,0.2-4.2,0.6-7.3,1.1l-1,0c0.1-2.4,0.5-5.3,1.4-8.6
			c0.5-1.9,1-4,1.5-6.1c0.5-2.2,2.1-8.8,5-19.7c0-0.2,0-0.4-0.1-0.4c-0.1,0-0.2,0-0.5,0c-0.1,0-1.5,5.3-4.1,15.9
			c-2.7,10.9-4.1,17.1-4.1,18.7c0,0.6,0,1,0.1,1.2l1,0.1c0.9,0,2.4-0.2,4.6-0.5C143,162.7,144.4,162.3,144.4,161.8z"/>
		<path d="M134.9,132.3c0.3-0.2,0.6-0.5,0.9-0.7c0.3-0.3,0.5-0.6,0.8-1c0.1-0.1,0.2-0.3,0.3-0.4c0.6-1,0.9-2.1,0.9-3.2
			c0-0.4,0-0.8-0.1-1.2c-0.1-0.9-0.4-1.7-0.8-2.4c-0.2-0.3-0.5-0.7-0.7-1c-0.3-0.3-0.6-0.6-0.9-0.8c-1.4-1.1-2.9-1.4-4.6-1.2
			c-1.7,0.3-3,1.1-4,2.6c-0.5,0.7-0.8,1.5-1,2.3v0c-0.2,0.8-0.2,1.6,0,2.5c0.3,1.6,1,2.9,2.1,3.9c0.1,0.1,0.3,0.2,0.4,0.3
			c1.4,1.1,2.9,1.4,4.6,1.2C133.5,133,134.2,132.7,134.9,132.3z M128.7,131.5c-0.1,0-0.1-0.1-0.2-0.1c-1.2-1-2-2.2-2.2-3.8
			c-0.3-1.6,0-3,0.9-4.2c0.9-1.2,2-2,3.5-2.1c1.5-0.2,2.8,0.1,4,1c1.2,0.9,1.9,2.1,2.2,3.7c0.3,1.6,0,3-0.9,4.3c0,0-0.1,0.1-0.1,0.2
			c-0.9,1.2-2,1.9-3.4,2.1C131.1,132.7,129.9,132.4,128.7,131.5z"/>
		<path fill="#FFFFFF" d="M135.9,130.3c0-0.1,0.1-0.1,0.1-0.2c0.9-1.3,1.1-2.8,0.9-4.3c-0.3-1.6-1-2.8-2.2-3.7c-1.2-0.9-2.5-1.2-4-1
			c-1.5,0.2-2.6,0.9-3.5,2.1c-0.9,1.2-1.2,2.7-0.9,4.2c0.3,1.6,1,2.9,2.2,3.8c0,0,0.1,0.1,0.2,0.1c1.2,0.9,2.5,1.2,3.9,1
			C133.9,132.3,135.1,131.5,135.9,130.3z M132,123.6c0,0.2-0.2,0.4-0.3,0.6c-0.2,0.2-0.5,0.3-0.8,0.2c-0.4-0.1-0.7-0.3-0.8-0.6
			c-0.1-0.2-0.1-0.4,0-0.6c0.1-0.7,0.5-1,1.2-0.9c0.2,0,0.4,0.1,0.6,0.3c0,0-0.1,0-0.1,0c-0.3,0-0.5,0.1-0.5,0.3c0,0.1,0,0.2,0,0.2
			c0.1,0.1,0.2,0.2,0.4,0.3c0.3,0,0.4-0.1,0.5-0.3c0-0.1,0-0.1,0-0.2C132,123.2,132.1,123.4,132,123.6z"/>
		<path d="M132,123.1c0,0.3-0.2,0.4-0.5,0.3c-0.2,0-0.3-0.1-0.4-0.3c0-0.1,0-0.2,0-0.2c0.1-0.3,0.2-0.4,0.5-0.3c0,0,0.1,0,0.1,0
			c-0.1-0.1-0.3-0.2-0.6-0.3c-0.7-0.1-1.1,0.2-1.2,0.9c0,0.2,0,0.4,0,0.6c0.1,0.3,0.4,0.5,0.8,0.6c0.3,0,0.6,0,0.8-0.2
			c0.2-0.2,0.3-0.4,0.3-0.6c0-0.2,0-0.5-0.1-0.6C132,123,132,123.1,132,123.1z"/>
		<path d="M147.5,180.3c0.7-1.1,1.1-2.3,1.1-3.7c0-0.8-0.1-1.5-0.4-2.2c-0.6-1.3-1.8-2-3.6-2c-2.7,0-4.5,0.9-5.5,2.7
			c-0.6,1-0.9,2.2-0.9,3.7c-0.1,0.7,0,1.4,0.3,2.1c0.6,1.3,1.8,2,3.7,2C144.7,182.8,146.4,182,147.5,180.3z M142.2,181.7
			c-1.1,0-2-0.4-2.5-1.2c-0.3-0.5-0.5-1.1-0.5-1.7c0-1,0.2-2,0.7-2.9c0.7-1.5,1.9-2.3,3.5-2.3c1.9,0,3.2,0.4,3.8,1.3
			c0.3,0.4,0.4,1,0.4,1.7c0,0.9-0.2,1.8-0.6,2.6C146,180.9,144.5,181.7,142.2,181.7z"/>
		<path fill="#8D191C" d="M147.6,176.6c0-0.8-0.1-1.4-0.4-1.7c-0.6-0.9-1.9-1.3-3.8-1.3c-1.6,0-2.7,0.8-3.5,2.3
			c-0.5,1-0.7,1.9-0.7,2.9c0,0.6,0.2,1.2,0.5,1.7c0.5,0.8,1.3,1.2,2.5,1.2c2.3,0,3.9-0.8,4.8-2.6
			C147.4,178.3,147.6,177.4,147.6,176.6z"/>
		<path d="M151.1,177.8c-0.3,0-0.5,0.5-0.7,1.5c-0.2,1.2-0.4,1.9-0.6,2.2c-0.9,1-2.1,1.8-3.9,2.5c-1.5,0.5-2.3,0.7-2.3,0.8
			c0,0.3,0,0.4,0.1,0.3c0,0,0.1,0.1,0.1,0.2c0.1,0,0.2,0.1,0.4,0.1c2.7,0,4.7-0.8,6-2.5c0.9-1.1,1.4-2.3,1.4-3.5
			C151.7,178.4,151.5,177.8,151.1,177.8z"/>
		<path d="M194.3,144.7c0.1,0,0.2,0,0.3,0c2,0,3.3,0.1,3.8,0.4c0.3,0.2,0.5,0.2,0.6,0.3c0.2,0.1,0.6,0.1,1.1,0.1
			c0-0.4,0.1-0.9,0.1-1.3c-1.2-0.4-3.2-0.6-5.9-0.7C194.4,143.9,194.4,144.3,194.3,144.7z"/>
		<path d="M194.5,141.8c3.2,0.5,5,0.7,5.5,0.7c0.2,0,0.4,0,0.6,0c0-0.2,0.1-0.5,0.1-0.7c-2.3-0.6-4.4-1-6.2-1.1
			C194.5,141.1,194.5,141.4,194.5,141.8z"/>
		<path d="M207.8,136.3c-0.3-0.6-1.1-0.9-2.4-0.9c0-0.6,0.4-1.6,1.2-2.9c0.8-1.3,1.2-2,1.2-2c0-0.2-0.1-0.3-0.2-0.4
			c-0.1,0-0.3-0.1-0.3-0.1c-1.4,1.7-2.3,2.8-2.6,3.4c-0.4,0.7-0.5,1.7-0.5,3c-0.1,0.4-0.1,0.9,0,1.3c0.3,0.8,1.2,1.3,2.7,1.3
			c0.6,0,0.9-0.2,1-0.5c0-0.1,0.1-0.4,0.1-1C207.9,136.9,207.9,136.5,207.8,136.3z M206.9,138c-0.1,0-0.4-0.1-0.8-0.3
			c-0.4-0.2-0.7-0.4-0.9-0.5c0.3-0.4,0.5-0.6,0.5-0.6c0.8,0,1.3,0.3,1.3,0.9C206.9,137.7,206.9,137.9,206.9,138z"/>
	</g>
</g>
<g id="ziutek_x5F_08">
</g>
<g id="ziutek_x5F_09">
</g>
<g id="ziutek_x5F_10">
</g>
<g id="lady_x5F_01">
</g>
<g id="Layer_13">
</g>
<g id="Layer_12">
</g>
<g id="Layer_14">
</g>
<g id="Layer_15">
</g>
<g id="Layer_16">
</g>
<g id="Layer_17">
</g>
<g id="Layer_18">
</g>
<g id="Layer_19">
</g>
<g id="Layer_20">
</g>
<g id="Layer_21">
</g>
<g id="Layer_22">
</g>
<g id="Layer_23">
</g>
<g id="Layer_24">
</g>
<g id="Layer_25">
</g>
<g id="Layer_26">
</g>
<g id="Layer_27">
</g>
<g id="Layer_28">
</g>
<g id="Layer_29">
</g>
<g id="Layer_30">
</g>
<g id="Layer_31">
</g>
<g id="Layer_32">
</g>
<g id="Layer_33">
</g>
<g id="Layer_34">
</g>
<g id="Layer_36">
</g>
<g id="Layer_35">
</g>
<g id="Layer_37">
</g>
<g id="Layer_38">
</g>
<g id="Layer_39">
</g>
<g id="Layer_40">
</g>
</svg>
