<?xml version="1.0" encoding="utf-8"?>
<!-- Generator: Adobe Illustrator 18.1.1, SVG Export Plug-In . SVG Version: 6.00 Build 0)  -->
<!DOCTYPE svg PUBLIC "-//W3C//DTD SVG 1.1//EN" "http://www.w3.org/Graphics/SVG/1.1/DTD/svg11.dtd">
<svg version="1.1" xmlns="http://www.w3.org/2000/svg" xmlns:xlink="http://www.w3.org/1999/xlink" x="0px" y="0px"
	 viewBox="0 0 393 483" enable-background="new 0 0 393 483" xml:space="preserve">
<g id="ziutek_x5F_01">
</g>
<g id="ziutek_x5F_02">
</g>
<g id="ziutek_x5F_03">
</g>
<g id="ziutek_x5F_04">
</g>
<g id="ziutek_x5F_05">
</g>
<g id="ziutek_x5F_06">
</g>
<g id="ziutek_x5F_07">
</g>
<g id="ziutek_x5F_08">
</g>
<g id="ziutek_x5F_09">
</g>
<g id="ziutek_x5F_10">
</g>
<g id="lady_x5F_01">
</g>
<g id="Layer_13">
</g>
<g id="Layer_12">
</g>
<g id="Layer_14">
</g>
<g id="Layer_15">
</g>
<g id="Layer_16">
</g>
<g id="Layer_17">
	<g>
		<g>
			<path d="M266.2,366.5C266.2,366.6,266.2,366.6,266.2,366.5c-1.8-4.1-4.3-10-5.6-13.2c-0.9-2-1.7-4-2.6-6c-0.4-1-0.8-2-1.2-3
				c-0.8-2.2-1.5-4.4-2.2-6.5c-2.4-7.8-4.7-15.7-6.9-23.6c-0.2-0.8-0.5-1.7-0.7-2.5c-0.1-0.4-0.2-0.7-0.3-1c-0.6-2,0-2.3,0.5-2.6
				c0.5-0.2,1-0.2,1.4-0.4c-0.3-1.3-1.1-4.1-1-4.3c0.9,0.1,4.8,0.3,4.8,0.3c0-0.2-1.1-16.8-1.1-17.5c0.1-1.9,0.4-3.7,0.6-5.6
				c1.1-10,8.1-40.3,3.4-57.1c-4-14.5-7.1-22-11.2-29.2c-1.4-2.5-3-4.8-4.8-7.1c0,0.1,0,0.2-0.1,0.3c-0.4-0.8-0.8-1.5-1.3-2.1
				c0.8-0.2,1.5-0.5,2.2-0.8c0.1,0,0.1,0,0.2,0c1.1-0.3,2.1-0.7,3.1-1.1c8.1-3.8,19.7-64.3,19.5-68.1c-0.5-8.6-1.3-15.9-2.4-21.8
				c-1.1-5.9-2.1-10.4-2.9-13.4c-0.2-0.7-0.4-1.4-0.7-2.1c-1.7-5.4-3.9-10.7-6.5-15.9c-4.3-7.8-10.7-12.9-19.3-13.3
				c-0.1,0-0.6-0.2-1.2-0.2c-1,0-1.9,0.6-2.7,0c-0.1-0.1-0.3-0.2-0.4-0.4c-1.8-2-4.4-4.5-8-5.1c-15.6-2.3-36.3,3.7-43.1,8.1
				c-6.3,4-11.9,7.9-16.8,13.3c-5.3,6-11.5,15.3-14.9,22.4c-3.8,7.8-6.6,15.9-8.4,24.4c-1.7,8.2-2.2,16.4-1.4,24.8
				c0.9,8.8,3.4,30.4,9.4,36.9c0.4,0.5,0.9,0.9,1.3,1.4c4,4,10.1,9,14.3,10.6c-0.3,1.1,0,0-0.1,1.2c-3.4,0.4-26.7,39-20,91.5
				c0,0,0,0.1,0,0.1c0,4.7,2.5,7.7,3.6,8.3c0.6,0.4,4.7,1.9,4.6,2.1c-0.7,2.8-2,7.5-3.5,11.7c0.4,0.4,5.9,2.5,6.5,2.6
				c-0.7,3.1-0.7,1.8-1.2,5.3c-0.1,0.3,1.5,0.3,1.3,0.8c-8.3,28.3-26.9,62.4-27.5,63.3c22.6,12.6,28.8,13.5,43.4,15.8
				c0.7,3.4,3.5,27.2,4.2,34.5c-2.7,1.3-4.2,3.9-5.5,6.7c-0.7,1.4-3.3,8.6-3.2,9.5c2.9,0.8,9.6,1.5,15.6,1.5
				c7.2,0,13.5-0.3,18.4-1.5c0-0.3-0.1-1.8-0.1-2.1c0-0.5,0-1-0.1-1.5c-0.1,0-0.5-3.5-0.6-3.4c-0.8-5.2-3-7.8-7.6-9.9
				c0-2.1,1.6-22,2.3-31.6c3.3,0.2,6.7,0.1,10,0c2.3-0.1,3.7,0.1,5.8,0c0.5,2.5,1,4.2,1.2,5.3c0.2,1.6,2.3,24.6,2.4,27.2
				c-2.6,1.3-3.8,2.6-5.1,5.4c-0.7,1.4-1.5,2.7-1.8,4.1c-0.1,0.7-1.2,6.6-1.2,7.3c2.9,0.8,9.5,0.8,15.5,0.8c7.2,0,13.3-0.6,18.2-1.8
				c0-0.3,0-1.6,0-1.9c0-0.4-0.1-1.9-0.2-2.8c0,0,0,0,0,0c0-0.1,0-0.3-0.1-0.4c0,0,0-0.1,0-0.1c0,0,0,0,0,0
				c-0.8-5.2-3.6-10.2-8.5-11.7c0.1-3.1,0.6-24.5,0.6-26.1c0-1.6,0.2-3.8,0.4-6.9c15.6-2.2,26.7-5.4,33.2-8.2c3-1.3,7-3.8,9.6-5.2
				c-0.5-1.2-1.6-3-2.1-4.1C267.2,369.3,266.8,367.9,266.2,366.5z M254.4,91.3C254.4,91.3,254.4,91.3,254.4,91.3
				C254.3,91,254.3,90.9,254.4,91.3z"/>
		</g>
		<g>
			<path fill="none" d="M251.1,302.9C251.1,302.9,251.1,302.9,251.1,302.9h-0.1C251,302.9,251,302.9,251.1,302.9z"/>
			<path fill="none" d="M216.2,206.6C216.2,206.6,216.2,206.6,216.2,206.6l-0.1,0.2C216.2,206.7,216.2,206.7,216.2,206.6z"/>
			<path fill="none" d="M243.4,303.2c-0.1,0-0.1,0-0.2-0.1l0,0.1C243.3,303.3,243.3,303.2,243.4,303.2z"/>
			<path fill="none" d="M185.7,389.9C185.7,389.9,185.7,389.9,185.7,389.9L185.7,389.9C185.7,389.9,185.7,389.9,185.7,389.9z"/>
			<path fill="none" d="M201.6,218.9c0.1,1,0.2,2.1,0.4,3.2l-0.5-5.1h0C201.5,217.6,201.6,218.2,201.6,218.9z"/>
			<path fill="none" d="M157.6,90.5C157.6,90.5,157.6,90.5,157.6,90.5L157.6,90.5L157.6,90.5z"/>
			<path d="M230.4,50c8.6,0.4,15,4.6,19.3,12.4c2.6,5.1,4.8,10.4,6.5,15.8c0.2,0.7,0.4,1.4,0.7,2.1c0.8,3,1.8,7.4,2.9,13.3
				c1.1,5.9,1.9,13.2,2.4,21.8c0.2,3.8-11.4,64.3-19.5,68.1c-1,0.4-2.1,0.8-3.1,1.1c-1.8,0.4-3.7,0.7-5.7,0.8c-0.3,0-0.6,0-0.9-0.1
				c-0.3,0-0.6-0.1-0.9-0.1c-0.2-0.1-0.4-0.1-0.6-0.1c0.2-0.1,0.4-0.2,0.6-0.2c3.3-1.3,6.6-3.8,9.9-7.5c4.1-4.6,7.4-11.4,10-20.3
				c2-6.9,3-26.7,2.9-31.4c1.6-0.9,2.7-2.9,3.4-5.9c0.5-2.2,0.8-4.7,0.8-7.5c0.1-1.5,0.1-2.9-0.3-4.2c-0.6-2.6-2-3.9-4.3-3.9
				c-1.8,0-3.3,2.2-4.6,6.6c-0.4,1.4-0.7,3-1,4.7c-0.2,1.3-0.3,2.1-0.3,2.5c0,0.3,0,0.6,0.1,0.8c-0.3,0-0.7-0.1-1.1-0.1
				c-0.2,0-0.5,0-0.8,0.1c0.3-0.6,0.4-1.4,0.5-2.3c0.1-0.9,0.2-2.2,0.3-4c0.2-1,0.3-2.6,0.3-4.6c0-1,0-2.1,0-3.2
				c0-3.2,0-5.3-0.1-6.3c-0.1-1.9-0.3-3.6-0.7-5.4c1.1,0.2,2.3,0.2,3.4,0.2c1.4,0,2.3-0.1,2.6-0.1c0.2-0.1,0.3-0.2,0.3-0.5
				c-1.6-1.3-2.6-2.2-3.1-2.7c0,0.3,0.3,1,1,2h-2.9c-4.4-1-8-2.5-10.8-4.6c-2-1.5-3.7-3.3-5-5.2c-1.3-2-2.7-4.7-4-8.2
				c-1.4-3.5-2-5.5-1.9-5.9c1.1-2,1.9-4.2,2.5-6.5c0.2-0.8,0.4-1.6,0.6-2.4c0.6-2.4,0.6-4.7-0.1-7.1c-0.2-0.6-0.4-1.1-0.6-1.6
				C229.3,50.2,229.8,50.1,230.4,50z"/>
			<path d="M217.6,215.6c-1.3-0.3-2.8-0.4-4.3-0.4c-1.6,0-2.5,0.1-2.5,0.1c-2.7,0-5.4,0.5-8.1,1.5c-0.4-2.9-0.7-5.7-1-8.3
				c2-1.6,5.5-2.4,10.7-2.4c1.4,0,2.6,0.2,3.8,0.4c0,0,0,0,0.1,0c-0.1,0.1-0.1,0.1-0.1,0.2c0.3,0.1,0.5,0.3,0.8,0.5
				c0.1,1.9,0.3,4.2,0.6,6.9C217.5,214.7,217.5,215.2,217.6,215.6z"/>
			<path d="M200.9,211.1c-0.4,0-0.9,0-1.3,0c-1.1,0-2.2-0.1-3.2-0.1c0.7-1.6,1.4-2.9,1.9-3.9c-0.3-0.2-0.6-0.4-0.8-0.8
				c-0.1,0.1-0.1,0.2-0.2,0.3c0,0,0,0,0,0c-0.1-0.1-0.2-0.2-0.4-0.3c1-0.7,1.9-1.6,2.7-2.6c0.1-0.1,0.2-0.2,0.2-0.3
				c0.4,1,0.8,2,1.4,2.7c0.3,0.3,0.5,0.6,0.8,0.9c-0.2,0.1-0.4,0.2-0.6,0.4c0-0.1,0-0.2-0.1-0.3c-0.2,0.1-0.5,0.2-0.8,0.3
				c0.1,0.5,0.1,0.9,0.1,1.4C200.8,209.6,200.9,210.4,200.9,211.1z"/>
			<path d="M193.4,214.6c-2.3-2.3-7.2-3.5-14.7-3.5c0.8-2,1.6-3.9,2.4-5.9c0.3-0.1,0.6-0.2,0.8-0.4c0,0.1,0.1,0.1,0.1,0.1
				c0.1-0.1,0.2-0.2,0.3-0.3c5.5-2.1,10.2-0.9,14.2,3.5c-0.6,1.3-1.4,2.9-2.3,4.7C194,213.5,193.7,214,193.4,214.6z"/>
			<path d="M182.9,187.3c0.4-0.2,0.5-0.3,0.6-0.3c0-2.3,0.1-4.5,0.2-6.5c0.1-1.5,0.3-3.5,0.7-5.9c0.1-0.8,0.2-1.6,0.4-2.4
				c0.1-0.6,0.2-1.1,0.3-1.5c0-0.3,0.1-0.6,0.3-0.8c0.1-0.2,0.1-0.3,0.2-0.4c0,0-0.1,0-0.1,0c0.6-1.6,1.5-2.4,2.6-2.4
				c1.7,0,2.7,1.5,3,4.5c0.1,1,0.2,2,0.2,3.1c0,0.5,0,1.1,0,1.7c0,0.6-0.3,3.7-0.8,9.3c0,0.2,0.2,0.5,0.7,0.9c0.5-0.8,0.8-1.9,1-3.5
				c0.2-1.6,0.3-3.8,0.4-6.6c0.1-0.6,0.1-1.2,0.1-1.8c0-1.3-0.1-2.5-0.3-3.7c-0.1-0.4-0.1-0.8-0.2-1.1c0.2,0,0.5-0.1,1-0.3
				c0.5-0.2,0.8-0.3,1-0.3c1.6,0,2.7,1.3,3.2,3.9c0.1,0.4,0.1,0.9,0.2,1.5c0.1,0.8,0.1,1.9,0.1,3c0,0.9-0.3,3.6-0.8,8
				c0,0.3,0.1,0.5,0.2,0.6c0.1,0.1,0.2,0.1,0.5,0.2c0.7-1.2,1.2-2.6,1.4-4.3c0.1-0.5,0.1-2,0.1-4.3c0.1-1.1,0.1-2.2,0-3.2
				c-0.1-0.7-0.2-1.3-0.3-2c0-0.2-0.1-0.3-0.1-0.5c2.5-0.9,4.2-0.1,5,2.4c0.1,0.2,0.1,0.4,0.2,0.6c0.4,1.6,0.6,3.6,0.4,5.8
				c0,4.3-0.7,8.7-1.9,13.2c-1,3.5-2.3,6.3-3.8,8.5c-0.8,1.1-1.6,2-2.5,2.8c-1.9-1.4-3.8-2.3-5.7-2.8c-2.1-0.5-4.1-0.5-6.3,0
				c-0.4,0.1-0.9,0.2-1.3,0.4c-0.1-0.1-0.2-0.2-0.2-0.4c-0.8-1.1-1.3-1.8-1.5-2.3c-1.7-2.7-2.8-5.4-3.3-8.1c0,0,0,0,0,0
				c0-0.1,0-0.1-0.1-0.1c0,0,0,0,0-0.1c-0.3-1.3-0.4-2.7-0.4-4c-0.2-1.6-0.1-3.1,0.1-4.6c0.5-3,1.9-4.6,4-4.6
				c0.5,0.7,0.9,1.1,1.2,1.2c-0.1,1-0.2,1.6-0.2,2C182.3,184.7,182.5,186.3,182.9,187.3z"/>
			<path d="M205.2,175.6c-0.1-0.3-0.2-0.7-0.3-1c-0.1-0.3-0.2-0.5-0.3-0.8c0.1-0.1,0.2-0.2,0.2-0.4c0.2-0.4,0.4-0.8,0.5-1
				c0.5-0.8,1.4-1.3,2.6-1.3c1.1,0,2,0.7,2.4,2.1c0.1,0.4,0.2,0.8,0.3,1.3c0.2,1,0.2,2.2,0.2,3.6c0,1.3-0.1,3.3-0.1,6
				c0,2.3,0.1,4,0.5,5.1c0.2-0.1,0.4-0.2,0.7-0.3v-13.9c0-0.2,0-0.3,0-0.5c0-0.4,0-0.8-0.1-1.2c0.2-0.1,0.5-0.3,0.9-0.7
				c0.4-0.3,1-0.5,1.8-0.5c1.4,0,2.3,0.8,2.8,2.3c0.2,0.5,0.3,1,0.4,1.6c0.2,1.3,0.2,2.8,0,4.4c0,0.8-0.4,4.4-1,10.9
				c0,0.3,0.2,0.7,0.7,1.2c0.2-0.1,0.4-0.2,0.7-0.3c0.3-2.2,0.6-4.2,0.8-6.2c0.7,0.6,1.3,1.7,1.7,3.4c0.4,1.5,0.6,2.6,0.6,3.5
				c0,2.2-0.4,4.4-1.4,6.5c-0.2,0.6-1.2,2.5-2.9,5.7c-1.4-0.4-2.8-0.6-4.5-0.6c-3.6,0-6.5,0.5-8.9,1.6c-1.3-1-2.2-2.6-2.6-4.6
				c1.1-2,2.1-4.5,2.9-7.4c1.1-4.4,1.7-8.9,1.7-13.4C205.7,179.1,205.6,177.3,205.2,175.6z"/>
			<path d="M218,206.3c0.1-0.1,0.1-0.1,0.1-0.2c1.6-3.1,2.6-5.2,2.9-6.1c0.9-2.3,1.4-4.7,1.4-7c0-0.1,0-0.2,0-0.3
				c2.8-0.7,5.7-1.7,8.8-3.2c-0.1,1.2-0.5,2.5-1,4.1c-1,2.8-2.5,5.3-4.4,7.6c-2.2,2.7-4.7,4.8-7.7,6.4
				C218.1,207.2,218,206.7,218,206.3z"/>
			<path d="M180,201.2c0.3,0.6,0.6,1.1,0.9,1.6c0.1,0.2,0.2,0.3,0.3,0.5c-0.1,0-0.2,0-0.3,0c-0.2,0-0.4,0-0.5,0
				c-0.4,0.9-0.8,1.8-1.1,2.8c-1.2-0.9-2.2-2-3.1-3.3c-2.4-3.3-3.7-7.5-3.9-12.8c1.3,0.7,2.7,1.4,4.2,2
				C177,195.1,178.2,198.2,180,201.2z"/>
			<path d="M218.2,209.2c3.5-1.8,6.5-4.3,9-7.5c1.9-2.5,3.3-5.2,4.3-8.2c0.2-0.5,0.3-1,0.4-1.4c0.4-1.3,0.6-2.4,0.7-3.3
				c0.5-0.2,1.1-0.6,2-1c1.2-0.6,1.9-1.1,2.3-1.4c0.1,0,0.2,0,0.4,0c-0.4,2.3-1,4.7-1.8,7c-0.7,2.1-1.6,4.1-2.7,6
				c-0.3,0.4-0.5,0.9-0.8,1.4c-1.3,2.1-2.8,4.1-4.5,6c-1.1,1.3-2.3,2.4-3.6,3.3c-0.9,0.7-2,1.4-3,2c-0.7,0.4-1.5,0.8-2.3,1.1
				C218.4,211.8,218.3,210.5,218.2,209.2z"/>
			<path d="M164.5,184.2c-6.1-0.7-11.9-3.9-17.5-9.6c-0.4-0.4-0.9-0.9-1.3-1.4c-6-6.5-9.5-28.1-10.3-36.9
				c-0.9-8.4-0.4-16.6,1.4-24.8c1.8-8.4,4.6-16.6,8.4-24.4c3.4-7.1,7.8-13.7,13.1-19.7c4.9-5.5,10.5-10.2,16.8-14.2
				c6.9-4.4,39.8-9.7,43.1-9c3.6,0.7,6.2,2.1,8,4.2c1.7,2.1,2.7,4.4,2.7,6.9c0.1,2.5-0.5,5.4-1.7,8.7c-1.2,3.2-3,6.1-5.4,8.5
				c-2.2,2.3-4.7,4.4-7.3,6.2c-0.8,0.6-1.5,1.1-2.3,1.6c-8.5,5.8-17.5,9.6-27,11.6c-4.6,1.1-9.3,1.9-14.1,2.5
				c-5.8,0.7-11.2,0.9-16.1,0.6c0.7-0.6,1.6-1.4,2.6-2.3c1.5-1.4,2.2-2.4,2.2-2.9c0-0.3-0.2-0.5-0.7-0.6c-1-0.2-3.2-0.2-6.6,0
				c0.5-0.1,1-0.4,1.5-0.8c0.5-0.4,0.8-0.8,0.8-1c0-0.3,0-0.4-0.1-0.4l-0.7-0.2c-0.5,0-2,1.1-4.4,3.2c-0.1,0.1-0.1,0.2,0,0.3
				c0.1,0.2,0.3,0.3,0.6,0.3c1.1,0.2,3.6,0.2,7.5-0.1c0,0,0,0,0.1,0l-0.1,0.1c-0.8,0.8-2,1.9-3.8,3.2c-1.5,1.2-2.2,1.8-2.2,1.8v0.3
				c6.5,0.2,12,0.2,16.4,0.1c-1.9,2.4-3.5,5.1-5,8.1c-4.6,9.4-6.7,19.4-6.4,29.9c0.3,9.5,2.7,32.4,7.1,40.7c0.2,0.4,0.4,0.8,0.6,1.1
				c1.9,3.4,4.2,6.4,7,9.1C169.2,184.7,166.9,184.5,164.5,184.2z"/>
			<path d="M196.1,90.7c1.5,1.5,2.2,3.2,2.2,5.3c0,2.1-0.7,3.8-2.2,5.3c-1.1,1.1-2.4,1.8-3.8,2.1c-1.3-0.5-2.7-0.6-4.1-0.3
				c-1-0.4-1.9-0.9-2.7-1.7c-1.5-1.5-2.2-3.2-2.2-5.3c0-0.7,0.1-1.5,0.3-2.1c2.6-0.7,5.3-1.4,8-2.2c1.4-0.4,2.7-0.9,4.1-1.4
				C195.8,90.5,195.9,90.6,196.1,90.7z"/>
			<path d="M170,187.1c-0.4-0.3-0.7-0.6-1.1-0.9c1.8,0.2,3.6,0.3,5.4,0.3c-3.5-3.8-6.5-7.7-8.8-11.9c-4.1-7.1-6.5-28.9-7.2-37.3
				c-0.8-9.6,0.4-19,3.9-28.1c1.9-5,4.4-9.4,7.6-13.3c3.7-0.1,6.6-0.4,8.5-0.8c1.3-0.3,2.5-0.5,3.8-0.8c-0.1,0.5-0.2,1.1-0.2,1.7
				c0,2.4,0.9,4.6,2.6,6.3c0.5,0.5,1.1,1,1.7,1.4c-1.3,0.5-2.5,1.3-3.8,2.4l0.1,0.7l0.5,0.3c4.4-3.8,9.1-3.8,14.2,0.3
				c-0.1-0.4-0.2-0.8-0.5-1.1c-0.8-0.8-1.7-1.5-2.5-2c1-0.4,2-1.1,2.9-2c1.7-1.7,2.6-3.8,2.6-6.3c0-2.4-0.8-4.5-2.5-6.2
				c2.9-1.1,5.9-2.5,8.9-4.2c5.1-2.7,8.5-4.9,10.1-6.5c1.6-1.7,3.1-2.9,4.3-3.8c1.2-0.8,2.7-2.5,4.4-5.1c0.2-0.3,0.5-0.7,0.7-1
				c0.1,1,0.5,2.5,1.1,4.5c1,3,2.4,5.8,4.1,8.3c3.8,5.8,8.7,9.4,14.4,10.7c0.8,3.5,1.2,7.6,1.2,12.2c0,3.5-0.2,6.5-0.7,9
				c-0.4,2.5-0.7,4.3-0.7,5.3c0,0.1,0,0.2,0.1,0.3c0,0,0,0,0,0c-0.1,0.2-0.1,0.3,0,0.3c0,0.1,0.2,0.1,0.4,0.2
				c0.1,0.1,0.1,0.1,0.2,0.1c0,0,0.1,0,0.1-0.1c0.4,0,0.9,0.1,1.6,0.1c0.8,0,1.3,0,1.7,0c0,0,0,0,0,0c0,0,0.1,0,0.1,0
				c0.1,0,0.1,0,0.2,0c0.1-0.1,0.2-0.1,0.3-0.2c0,0,0.1-0.1,0.1-0.1c0-0.1,0-0.2,0-0.3v-0.1c0-2.9,0.3-5.7,0.9-8.2
				c0.8-3.7,2-5.6,3.6-5.6c1.5,0,2.5,1,3,3.1c0.2,0.8,0.3,2,0.3,3.7c-0.1,2.1-0.3,4.2-0.8,6.3c-0.9,4.2-2.4,6.3-4.3,6.3
				c-0.3,0-0.6-0.3-0.8-0.8c-0.2-0.6-0.4-0.9-0.8-0.9c-0.3,0-0.4,0.1-0.5,0.1l-0.1,0.1v1.2c0.1,0.1,0.3,0.4,0.6,1
				c0.4,0.5,0.9,0.7,1.5,0.7c0.5,0,0.9-0.1,1.4-0.2c-0.8,8.2-2.7,30.4-5.7,38.5c-3.2,8.5-8.5,14.9-16.1,19.2c-0.6,0.3-1.2,0.7-1.9,1
				c-0.9,0.1-1.4,0.4-1.4,1c0,0,0,0.1-0.1,0.2c0,0.2,0.1,0.3,0.3,0.4c0.6,0.4,1.6,0.6,3,0.4c0,0,0.1,0,0.1,0
				c0.3-0.1,0.6-0.1,0.9-0.1c0,0,0,0,0,0l0,0c0,0,0,0,0,0c-0.3,0.2-0.5,0.3-0.7,0.4c0,0,0-0.1,0-0.1c-0.1,0.1-0.2,0.1-0.3,0.2
				c-0.1,0.1-0.2,0.1-0.3,0.2c-2.3,1.3-4,2.1-5.2,2.6c-1.3,0.5-2.7,0.9-4.1,1.2c-0.1-0.8-0.1-1.6-0.3-2.5c-0.5-2.7-1.4-4-2.7-4
				c-0.2,0-0.4,0-0.5,0c0.1-1.5,0.2-2.9,0.2-4.2c0.3-1.8,0.3-3.5,0-5.1c-0.1-0.4-0.1-0.7-0.2-1c-0.2-0.6-0.4-1.2-0.7-1.6
				c2.8-0.8,5.6-1.8,8.2-3c4.7-2.3,8.7-4.7,12.1-7.2c1.7,1.4,2.8,2.1,3.2,2.1c0.4,0,0.7-0.1,0.8-0.3c-0.4-0.9-1.5-2.1-3.5-3.5
				c-1.7-1.3-2.7-1.9-2.9-1.9c-0.3,0-0.4,0-0.5,0.1c-0.1,0-0.1,0.1-0.1,0.1c0,0.3-0.1,0.5-0.1,0.7c0,0.2,0.8,0.9,2.2,2.2
				c-5.2,3.6-10.9,6.5-17.2,8.4c-1.2,0.4-2.4,0.7-3.5,1c-0.7-0.4-1.5-0.7-2.5-0.7c-0.8,0-1.5,0.2-2.2,0.7c-0.3,0.2-0.5,0.4-0.7,0.5
				c-0.6-1.5-1.7-2.2-3.5-2.2c-1.4,0-2.5,0.5-3.4,1.4c-0.4,0.4-0.7,0.8-0.8,1.2c-1-1.2-2.3-1.8-4-1.8c-0.7,0-1.3,0.1-1.7,0.2
				c-0.8-2.1-2.1-3.1-4-3.1c-0.5,0-1.1,0.2-1.8,0.5c-0.2,0.1-0.4,0.2-0.6,0.3c-0.8-1.9-2-2.9-3.6-2.9c-1.3,0-2.3,1.2-3.3,3.5
				c-4.3-1.8-8.2-4-11.7-6.8v0c1.2-1.3,2.1-2.1,2.6-2.5c-0.1-0.1-0.1-0.3-0.2-0.3c-0.1-0.1-0.3-0.2-0.6-0.2c-0.3,0-1.2,0.6-2.7,1.8
				c-1.6,1.3-2.5,2.3-2.5,2.8c0,0.3,0.1,0.5,0.2,0.6c0.1,0.1,0.2,0.1,0.5,0.2c0.5-0.4,1.3-1,2.1-1.8c3.6,3,7.6,5.5,11.9,7.3
				c-0.3,0.9-0.6,2-0.9,3.2c-0.1,0.3-0.1,0.7-0.2,1c-0.2,1.2-0.4,2.4-0.6,3.7c-0.4-0.4-1-0.7-1.9-0.7c-2.6,0-4.1,1.6-4.8,4.8
				c-0.2,1-0.3,2.2-0.3,3.5c0,0.7,0,1.4,0.1,2c0.1,0.8,0.2,1.7,0.3,2.5C173.7,189.6,171.6,188.4,170,187.1z"/>
			<path d="M170.8,189.2c0.1,4.1,0.7,7.6,1.7,10.5c0.4,1.1,0.9,2.2,1.5,3.1c1.1,1.7,2.4,3.2,4,4.4c0.2,0.1,0.3,0.2,0.4,0.3
				c-0.4,1-0.8,2-1.2,3c-1.6-0.9-3.5-2.4-5.7-4.4c-1-1-2-2.1-2.8-3.3c-1.1-1.6-2-3.5-2.7-5.6c0.6-0.1,1.1-0.4,1.6-1
				c0.5-0.6,0.7-1.2,0.7-1.8c0-0.4-0.2-1-0.5-1.7c-0.2-0.5-0.5-1-0.9-1.5C168.3,190.5,169.5,189.8,170.8,189.2z"/>
			<path d="M146.9,285.8c-1-0.6-1.9-1.6-2.4-2.9c-0.5-1.1-0.9-2.8-1.3-4.8c0,0,0-0.1,0-0.1c-2.1-9.8,18.4-75.8,19.3-76.5
				c0.5-0.4,0.8-0.8,1.1-1.2c0.4,0.9,0.8,1.7,1.3,2.5c2.3,4,5.4,6.9,9.3,8.8c-0.5,1.2,1.7,2.4,1.2,3.6c-1.1,2.7-2.3,5.5-3.5,8.2
				c-1.7,3.9-3.5,18.7-5.5,22.5c-0.1,0.1-0.1,0.1-0.1,0.2c-0.5,1-1.1,2.1-1.6,3.1c-0.7,1.3-1.3,2.6-2,3.9c-1,2-2.2,4-3.5,5.9
				c-1.4,2-2.9,3.8-4.7,5.4c-0.2-0.6-0.3-1.2-0.3-2c0-0.9,0.1-2.8,0.2-5.6c0.1-1.4,0.4-4,1.1-7.6c0.6-3.1,1.4-18,2.4-22.8
				c0.2-0.6,0.3-1.3,0.4-1.9c0-0.3,0-0.5-0.1-0.6c-0.1-0.1-0.2-0.1-0.4-0.1c-0.1,0-0.1,0-0.2,0c-1,0-2,15.3-3.3,23.8
				c-0.1,0.6-0.2,1.1-0.2,1.7c-0.3,2.3-0.6,4.7-0.9,7.2c-0.3,2.6-0.4,4.1-0.4,4.4c0,0,0,0.4-0.1,1.1c0,0.9,0.1,1.7,0.3,2.5
				c0.1,0.3,0.2,0.5,0.3,0.8c-0.8,0.7-1.7,1.2-2.7,1.6c-0.2,0.1-0.3,0.1-0.4,0l0.1,0.5c1.4,0.4,2.7,0.2,3.9-0.7c0,0,0,0,0,0
				c0.2-0.1,0.3-0.2,0.5-0.3c0-0.1,0.1-0.2,0.1-0.2c0.1-0.1,0.2-0.2,0.3-0.3c1.5-1.4,2.8-3,3.9-4.7c2.2-3.3,4.3-6.6,6.1-10.1
				c0.3-0.6,0.6-1.1,0.9-1.7c0.5-1,1.1-2.1,1.6-3.1c1-2.1,2.1-15.1,3-17.3c1.1-2.3,2.1-4.5,3.2-6.8c1.5-3.2,2.9-6.4,4.2-9.6
				c5.2-0.1,9.1,0.4,11.6,1.6c2.5,1.2,3.5,1.8,3.2,1.7l-2.9,6.1c-0.1,0.1-0.1,0.2-0.1,0.2c-0.5,1-1,2.1-1.4,3.1
				c-1.3,2.8-2.8,17.1-4.5,20.9c-0.5,1-0.9,2.1-1.5,3.1c-0.7,1.5-1.4,3.1-2.2,4.7c-3.4,7.2-7.7,14.4-13,21.8
				c-5.3,7.3-10.6,11-15.9,11C149.5,286.7,148,286.4,146.9,285.8z"/>
			<path d="M148.5,289c0.1-0.4,0.2-0.7,0.3-1.1c0.8,0.2,1.7,0.3,2.7,0.3c5.4,0,10.6-3.4,15.8-10.3c5.2-6.8,9.3-13.4,12.3-19.8
				c1.2-2.6,2.6-5.5,4.1-8.8c0.5-1,1-2.1,1.5-3.1c1.2-2.7,2.6-16.6,4-19.7l2.2-4.7c0.1-0.2,0.2-0.5,0.3-0.7c0.4-1,0.9-1.9,1.3-2.7h0
				c0.7,1,1.2,2,1.6,3.2c0.5,1.6,0.8,3.6,0.9,5.9c0,1.3,0,13.9-0.1,16c0,0.9,0,1.7,0,2.6c-0.1,1-0.1,2.1-0.2,3.1
				c-0.7,9.1-2.8,17.4-6.6,24.8c-3.8,7.5-9.1,13.4-15.8,17.7c-7.5,4.8-16.7,7.4-27.5,7.8C146.7,295.3,147.7,291.8,148.5,289z"/>
			<path d="M147.3,300.8c10.3-0.7,19.2-3.2,26.4-7.8c6.9-4.3,12.2-10.3,16.2-18.1c3.8-7.5,6-16,6.6-25.7c0.1-1,0.1-2.1,0.2-3.1
				c0-0.9,0-1.8,0-2.7c0.1-2.2,0.1-14.9,0.1-16.2c0-2.3-0.3-4.4-0.8-6c-0.5-1.7-1.2-3.1-2.2-4.4c0.1-0.1,0.1-0.2,0.2-0.3l0.7-1.6
				c0.4-1,0.9-1.8,1.3-2.6c0.8,0.1,1.6,0.1,2.4,0.1c0,0.2,0.1,0.3,0.2,0.4c0.1,0.1,0.2,0.1,0.5,0.2c0.1-0.1,0.3-0.3,0.4-0.5
				c0.1,0,0.2,0,0.4,0c0.5,0,1,0,1.5,0c0.1,0.9,0.2,1.8,0.2,2.7l0.2,1.7l0.5,5.1l0.3,3.2c0,0.1,0,0.1,0,0.2c0.1,0.5,0.1,1.1,0.2,1.6
				c0.4,3.1,0.8,17.3,1.2,20.4c0.1,0.6,0.2,1.3,0.3,1.9c0.2,1.6,0.5,3.2,0.8,4.8c0.7,3.2,1.5,6.3,2.6,9.4c0.9,2.7,2,5.3,3.2,7.8
				c0.1,2.2,0.4,4.6,0.7,7.2c0.8,5.5,1.4,8.8,2,10c0.9,1.9,2.3,3.6,4.1,5.3c2.1,1.8,4.6,3.2,7.4,4.2c0.9,0.3,2.7,1,5.3,1.9
				c2.7,0.9,5.6,1.7,8.4,2.4c1.5,0.3,3,0.7,4.5,0.9c0.1,0,0.2,0,0.2,0.1c-0.1,0-0.2,0.1-0.2,0.1c-11.8,4.1-25.3,6.2-40.4,6.2
				c-14.5,0-26.2-1-35.3-3.1c-6.4-1.5-11.8-2.9-16.1-4.2c-0.1-0.2-0.3-0.3-0.5-0.4c0,0.1-0.1,0.1-0.1,0.2
				C149.5,301.5,148.3,301.2,147.3,300.8z"/>
			<path d="M169.6,403c0-0.2-0.1-0.3-0.1-0.5c-0.1-0.7-0.2-1.4-0.3-2.1c-0.2-1.8-0.5-3.6-0.7-5.2c-0.4-2.7-0.7-5.1-1.1-7.1
				c5.6,0.9,11.7,1.5,18.3,1.9c0,0,0-0.1,0-0.1c0,0,0,0,0,0c0.5,0.1,0.9,0.2,1.2,0.2h0.1c0.1,0,0.1,0,0.2,0c0,1.6-0.1,3.3-0.1,5.1
				c0,1.6-0.1,3.4-0.1,5.2c0,0.7,0,1.3-0.1,2c0,0.2,0,0.4,0,0.6c-0.1,1.3-0.1,2.5-0.1,3.7c0,0.2,0,0.4,0,0.6
				c-1.9,0.3-4.2,0.4-6.7,0.4c-4,0-7.4-0.2-10-0.6c0-0.1-0.1-0.3-0.1-0.4C169.9,405.5,169.7,404.2,169.6,403z"/>
			<path d="M170.5,410.8c-0.1-0.8-0.2-1.5-0.3-2.3c2.7,0.4,6,0.6,9.9,0.6c2.4,0,4.6-0.2,6.7-0.5c0,0.8-0.1,1.5-0.1,2.2
				c-2.7,0.5-5.9,0.8-9.5,0.8C174.7,411.6,172.4,411.3,170.5,410.8z"/>
			<path d="M170.6,412.4c1.9,0.4,4.1,0.7,6.6,0.7c3.4,0,6.6-0.3,9.5-1c-0.1,3.8-0.2,6.9-0.3,9.4c-2-0.6-4.3-0.9-6.9-0.9
				c-2.9-0.2-5.6,0.3-8.1,1.5C171.3,419.3,171,416.1,170.6,412.4z"/>
			<path d="M195,436.4c0,0.4,0,0.7,0,1c-4.9,1.2-11,1.8-18.2,1.8c-6,0-10.4-0.4-13.3-1.3c0-0.7,0.1-1.4,0.2-2.2
				c3,0.6,7.5,0.9,13.2,0.9c6.9,0,13-0.6,18-1.8C195,435.4,195,435.9,195,436.4z"/>
			<path d="M194.8,433.6c-4.9,1.1-10.9,1.7-18,1.7c-5.6,0-9.9-0.4-12.8-1.1c0.3-1.5,0.9-2.9,1.5-4.3c1.6-3.2,4-5.4,7.3-6.7
				c2.2-0.8,4.4-1.2,6.8-1.2C188.8,422,193.9,425.9,194.8,433.6z"/>
			<path d="M208.7,403c0-0.2-0.1-0.3-0.1-0.5c-0.1-0.7-0.2-1.4-0.3-2.1c-0.2-1.8-0.5-3.6-0.7-5.2c-0.2-1.8-0.5-3.4-0.7-5
				c6.8-0.2,13.2-0.7,19.4-1.6c-0.1,2-0.1,4.1-0.2,6.5c0,1.6-0.1,3.4-0.1,5.2c0,0.7,0,1.3-0.1,2c0,0.2,0,0.4,0,0.6
				c-0.1,1.3-0.1,2.5-0.1,3.7c0,0.2,0,0.4,0,0.6c-1.9,0.3-4.2,0.4-6.7,0.4c-4,0-7.4-0.2-10-0.6c0-0.1,0-0.3,0-0.4
				C208.9,405.5,208.8,404.2,208.7,403z"/>
			<path d="M209.6,410.8c-0.1-0.8-0.2-1.5-0.3-2.3c2.7,0.4,6,0.6,9.9,0.6c2.4,0,4.6-0.2,6.7-0.5c0,0.8-0.1,1.5-0.1,2.2
				c-2.7,0.5-5.9,0.8-9.5,0.8C213.8,411.6,211.5,411.3,209.6,410.8z"/>
			<path d="M209.7,412.4c1.9,0.4,4.1,0.7,6.6,0.7c3.4,0,6.6-0.3,9.5-1c-0.1,3.8-0.2,6.9-0.3,9.4c-2-0.6-4.3-0.9-6.9-0.9
				c-2.9-0.2-5.6,0.3-8.1,1.5C210.4,419.3,210.1,416.1,209.7,412.4z"/>
			<path d="M234.1,436.4c0,0.4,0,0.7,0,1c-4.9,1.2-11,1.8-18.2,1.8c-6,0-10.4-0.4-13.3-1.3c0-0.7,0.1-1.4,0.2-2.2
				c3,0.6,7.5,0.9,13.2,0.9c6.9,0,13-0.6,18-1.8C234.1,435.4,234.1,435.9,234.1,436.4z"/>
			<path d="M233.9,433.6c-4.9,1.1-10.9,1.7-18,1.7c-5.6,0-9.9-0.4-12.8-1.1c0.3-1.5,0.9-2.9,1.5-4.3c1.6-3.2,4-5.4,7.2-6.7
				c2.2-0.8,4.4-1.2,6.8-1.2C227.9,422,233,425.9,233.9,433.6z"/>
			<path d="M267.2,370.7c0.5,1.2,1,2.3,1.5,3.5c-2.6,1.4-5.5,2.8-8.5,4.1c-9.8,4.1-20.6,7.1-32.6,8.8v-0.2c-0.3,0.2-0.5,0.3-0.9,0.3
				c-0.1,0-0.2,0-0.3,0c0,0,0,0.1,0,0.1c-6.3,0.9-24.7,1.7-26.2,1.7c-4,0-56.1-6.5-71.2-14.5c-1.5-0.8-3-1.7-4.5-2.6
				c0.8-1.2,2.2-3.8,4.2-7.8c1,0.5,1.9,1,2.8,1.5c10.1,5.1,21,8.7,32.8,10.8c10,1.9,22.1,4.8,35.9,4.8c8.7,0,55.8-10.7,59.2-12
				c2.2-0.8,4.2-1.7,6.1-2.6C266,367.9,266.6,369.3,267.2,370.7z"/>
			<path d="M253.8,337.7c0.7,2.2,1.4,4.4,2.2,6.5c0.4,1,0.8,2.1,1.2,3c0.9,2,1.7,4,2.6,6c1.6,3.9,3.3,7.8,5,11.7
				c-1.5,0.7-3,1.4-4.6,2.1c-4.2,1.8-49.4,12.6-60.1,12.6c-19.2,0-63-12.2-71.1-16.5c2.6-5.3,6.1-12.7,10.5-22.4
				c6.9-14.9,11-25.3,12.5-31.1c4.9,1.4,10.4,2.7,16.6,3.8c7.1,1.4,13.5,2.2,19.4,2.7c5.9,0.4,10.8,0.7,14.8,0.7
				c8.6,0,16.2-0.6,22.8-1.7c6.5-1.1,13.2-3,20.1-5.5c0.1,0.7,0.3,1.3,0.5,2c0.3,0.8,0.5,1.6,0.7,2.5
				C249.1,322.1,251.4,329.9,253.8,337.7z"/>
			<path d="M251.1,302.9c0,0-0.1,0-0.1,0c-4.6-0.4-9.8-1.4-15.6-3.1c-5.9-1.7-9.9-3-12-3.9c-2.2-0.8-4.2-2.2-6.1-4.3
				c-1.9-2.1-3.2-4.5-3.8-7.4c-0.5-2.4-0.8-5.6-0.9-9.5c1,1.7,2.2,3.4,3.4,5c2.2,2.7,4.8,4.9,7.9,6.6c0.9,0.2,1.7,0.3,2.6,0.3
				c3.4,0,6.8-1.7,10.2-5.2c3.1-3.2,5.9-7.4,8.6-12.9c2.5-5.1,4.5-10.5,5.9-16.2c1.5-5.7,2.2-21.8,2.2-26.2c0.2-1.5-0.1-2.3-0.7-2.3
				c-0.3,0-0.5,0.1-0.5,0.2c-0.1,0.1-0.1,0.1-0.1,0.2c-0.1,5.1-0.5,20.4-1.1,24.1c-0.7,4.6-2,8.8-3.6,12.6c-1.1,2.6-1.8,4.2-2,4.7
				c-1.4,3-2.9,5.8-4.5,8.3c-5,7.6-10,11.4-15.3,11.4c-0.6,0-1.1-0.1-1.8-0.3c-0.3-0.2-0.7-0.4-1-0.6c-0.7-0.4-1.4-0.9-2-1.4
				c-0.6-0.5-1.2-1.1-1.8-1.6c-0.9-0.9-1.7-1.8-2.4-2.8c-2.6-3.8-4.8-7.8-6.7-12c-1.4-3.3-2.5-6.7-3.2-10.2c-0.5-2.6-1-4.9-1.3-7
				c-0.3-1.9-0.6-3.6-0.8-5.1c-0.4-3.2-0.9-18.5-1.5-24.1c-0.1-0.7-0.2-1.3-0.2-2c2.7-0.9,6.1-1.4,10.4-1.4c1.5,0,3,0.2,4.5,0.7
				c0.6,6.5,1,10.8,1.4,13.1c0.1,0.2,0.3,13.6,0.9,18.3c0,0.2,0.1,0.4,0.1,0.6c0.5,3.7,1,6.7,1.5,9.2c0.9,4.5,2.1,7.8,3.4,9.8
				c1.1,1.6,2.3,2.4,3.6,2.4c0.6,0,1.3-0.3,2.1-0.8c0.8-0.5,1.2-1,1.2-1.4c0-0.1,0-0.1,0-0.1c-0.7,0.6-1.7,0.9-3,0.9
				c-0.6,0-1.1-0.1-1.6-0.4c-0.3-0.1-0.5-0.3-0.8-0.6c-0.2-0.2-0.3-0.4-0.4-0.6c2.5-2,5.7-7,9.4-14.9c1.7-3.5,3.3-18.3,4.8-22.1
				c1.3-3.3,2-5.2,2-5.6c0-0.4,0-0.6-0.1-0.8c-0.1-0.2-0.3-0.3-0.6-0.3c-0.1,0-0.8,1.7-2.2,5c-1.9,4.7-3.4,19.3-4.6,22.1
				c-3.8,8.4-6.9,13.6-9.4,15.4c-0.9-2.2-2-5.9-3-11.1c-0.4-1.8-0.8-3.9-1.1-6.2c-1-6.3-1.9-25.2-2.7-34.9c1.1-0.5,2.1-1,3.1-1.7
				c0.8-0.4,1.5-0.9,2.1-1.4c2.8-2,5.3-4.4,7.3-7.1c0.3-0.4,0.5-0.8,0.8-1.2c1.6-2.4,3-5,4-7.7c1-2.6,1.9-5.2,2.5-7.9
				c1.7,2.2,3.3,4.6,4.8,7.1c4.1,7.2,7.9,16.9,11.3,29.2c1.4,5-2.2,46.9-3.4,57.1c-0.2,1.9-0.3,3.7-0.5,5.6c0,0.6-0.1,1.2-0.1,1.8
				C250.5,293,250.6,297.9,251.1,302.9C251.1,302.9,251.1,302.9,251.1,302.9z"/>
			<path fill="#FDDB00" d="M164.3,175.8c-0.2-0.4-0.4-0.8-0.6-1.1c-4.4-8.3-6.7-31.2-7.1-40.7c-0.4-10.5,1.7-20.5,6.4-29.9
				c1.4-2.9,3.1-5.6,5-8.1c-4.4,0.1-9.8,0.1-16.4-0.1v-0.3c0,0,0.7-0.7,2.2-1.8c1.7-1.4,3-2.4,3.8-3.2v-0.1
				c-3.9,0.3-6.4,0.3-7.5,0.1c-0.4-0.1-0.6-0.2-0.6-0.3c0-0.1,0-0.2,0-0.3c2.5-2.1,3.9-3.2,4.4-3.2l0.7,0.2c0.1,0,0.1,0.2,0.1,0.4
				c0,0.3-0.3,0.6-0.8,1c-0.5,0.4-1,0.7-1.5,0.8c3.4-0.2,5.6-0.2,6.6,0c0.5,0.1,0.7,0.3,0.7,0.6c0,0.5-0.7,1.4-2.2,2.9
				c-1,1-1.9,1.8-2.6,2.3c4.9,0.3,10.3,0.1,16.1-0.6c4.8-0.5,9.5-1.4,14.1-2.5c9.5-2,18.5-5.8,27-11.6c0.8-0.5,1.5-1.1,2.3-1.6
				c2.6-1.9,5.1-4,7.3-6.2c2.4-2.4,4.2-5.3,5.4-8.5c1.2-3.3,1.8-6.1,1.7-8.7c-0.1-2.5-1-4.8-2.7-6.9c-1.8-2-4.4-3.4-8-4.2
				c-3.3-0.7-6.7-0.9-10.1-0.7c-0.3,0-0.5,0.1-0.8,0.1c-2.1,0.2-0.8,0.1-2.7,0.3c-3,0.5-22.6,4.9-29.5,9.3
				c-6.3,4-11.9,8.8-16.8,14.2c-5.3,6-9.7,12.6-13.1,19.7c-3.8,7.8-6.6,15.9-8.4,24.4c-1.7,8.2-2.2,16.4-1.4,24.8
				c0.9,8.8,4.3,30.4,10.3,36.9c0.4,0.5,0.9,0.9,1.3,1.4c5.6,5.7,11.4,8.8,17.5,9.6c2.4,0.3,4.7,0.5,6.9,0.7
				C168.5,182.2,166.2,179.2,164.3,175.8z"/>
			<path fill="#FDDB00" d="M229.5,59c-0.2,0.8-0.4,1.6-0.6,2.4c-0.5,2.3-1.4,4.5-2.5,6.5c-0.1,0.4,0.5,2.3,1.9,5.9
				c1.4,3.5,2.7,6.3,4,8.2c1.3,2,3,3.7,5,5.2c2.8,2.1,6.4,3.6,10.8,4.6h2.9c-0.7-1-1-1.6-1-2c0.5,0.5,1.6,1.4,3.1,2.7
				c0,0.3-0.1,0.5-0.3,0.5c-0.3,0.1-1.2,0.1-2.6,0.1c-1.2,0-2.3-0.1-3.4-0.2c0.4,1.8,0.6,3.6,0.7,5.4c0.1,1,0.1,3.2,0.1,6.3
				c0,1.1,0,2.2,0,3.2c0,2-0.1,3.5-0.3,4.6c-0.1,1.7-0.2,3-0.3,4c-0.1,0.9-0.3,1.7-0.5,2.3c0.3,0,0.6-0.1,0.8-0.1
				c0.4,0,0.8,0,1.1,0.1c0-0.3-0.1-0.5-0.1-0.8c0-0.4,0.1-1.2,0.3-2.5c0.3-1.7,0.6-3.3,1-4.7c1.2-4.4,2.7-6.6,4.6-6.6
				c2.3,0,3.7,1.3,4.3,3.9c0.3,1.3,0.4,2.7,0.3,4.2c0,2.8-0.3,5.3-0.8,7.5c-0.7,3-1.9,5-3.4,5.9c0.1,4.7-0.9,24.5-2.9,31.4
				c-2.6,8.9-5.9,15.7-10,20.3c-3.3,3.7-6.5,6.2-9.9,7.5c-0.2,0.1-0.4,0.2-0.6,0.2c0.2,0.1,0.4,0.1,0.6,0.1c0.3,0.1,0.6,0.1,0.9,0.1
				c0.3,0,0.6,0.1,0.9,0.1c2-0.1,3.9-0.3,5.7-0.8c1.1-0.3,2.1-0.7,3.1-1.1c8.1-3.8,19.7-64.4,19.5-68.1c-0.5-8.6-1.3-15.8-2.4-21.8
				c-1.1-5.9-2.1-10.4-2.9-13.3c-0.2-0.7-0.4-1.4-0.7-2.1c-1.7-5.4-3.9-10.7-6.5-15.8c-4.3-7.8-10.7-12-19.3-12.4
				c-0.5,0.1-1.1,0.2-1.7,0.3c0.3,0.5,0.5,1.1,0.6,1.6C230,54.3,230.1,56.7,229.5,59z"/>
			<path fill="#FDCF9D" d="M175.8,188c0-0.7-0.1-1.4-0.1-2c0-1.3,0.1-2.5,0.3-3.5c0.7-3.2,2.3-4.8,4.8-4.8c0.8,0,1.4,0.2,1.9,0.7
				c0.2-1.3,0.4-2.5,0.6-3.7c0.1-0.3,0.1-0.7,0.2-1c0.3-1.2,0.5-2.3,0.9-3.2c-4.3-1.9-8.3-4.3-11.9-7.3c-0.8,0.8-1.5,1.4-2.1,1.8
				c-0.2-0.1-0.4-0.2-0.5-0.2c-0.1-0.1-0.2-0.3-0.2-0.6c0-0.6,0.8-1.5,2.5-2.8c1.5-1.2,2.4-1.8,2.7-1.8c0.3,0,0.5,0.1,0.6,0.2
				c0.1,0.1,0.1,0.2,0.2,0.3c-0.5,0.4-1.4,1.3-2.6,2.5v0c3.5,2.7,7.4,5,11.7,6.8c0.9-2.4,2-3.5,3.3-3.5c1.7,0,2.9,1,3.6,2.9
				c0.2-0.1,0.3-0.2,0.6-0.3c0.7-0.3,1.2-0.5,1.8-0.5c1.9,0,3.2,1,4,3.1c0.4-0.1,1-0.2,1.7-0.2c1.7,0,3,0.6,4,1.8
				c0.2-0.4,0.4-0.8,0.8-1.2c0.9-0.9,2-1.4,3.4-1.4c1.7,0,2.9,0.8,3.5,2.2c0.2-0.2,0.4-0.3,0.7-0.5c0.7-0.4,1.5-0.7,2.2-0.7
				c0.9,0,1.8,0.2,2.5,0.7c1.2-0.3,2.3-0.6,3.5-1c6.3-2,12-4.8,17.2-8.4c-1.5-1.3-2.2-2-2.2-2.2c0-0.2,0-0.4,0.1-0.7
				c0,0,0.1,0,0.1-0.1c0.1-0.1,0.2-0.1,0.5-0.1c0.2,0,1.2,0.6,2.9,1.9c2,1.4,3.1,2.6,3.5,3.5c-0.1,0.2-0.4,0.3-0.8,0.3
				c-0.4,0-1.5-0.7-3.2-2.1c-3.3,2.5-7.3,4.9-12.1,7.2c-2.7,1.3-5.4,2.3-8.2,3c0.3,0.5,0.5,1,0.7,1.6c0.1,0.3,0.1,0.6,0.2,1
				c0.3,1.6,0.3,3.3,0,5.1c0,1.4-0.1,2.8-0.2,4.2c0.1,0,0.3,0,0.5,0c1.4,0,2.3,1.3,2.7,4c0.1,0.8,0.2,1.6,0.3,2.5
				c1.4-0.3,2.7-0.7,4.1-1.2c1.2-0.4,2.9-1.3,5.2-2.6c0.1-0.1,0.2-0.1,0.3-0.2c0.1-0.1,0.2-0.1,0.3-0.2c0,0,0,0,0,0.1
				c0.2-0.1,0.5-0.3,0.7-0.4c-0.3,0-0.6,0.1-0.9,0.1c0,0-0.1,0-0.1,0c-1.4,0.1-2.4,0-3-0.4c-0.2-0.1-0.3-0.3-0.3-0.4
				c0-0.2,0.1-0.2,0.1-0.2c0-0.6,0.5-0.9,1.4-1c0.7-0.3,1.3-0.7,1.9-1c7.5-4.3,12.9-10.7,16.1-19.2c3-8.1,4.9-30.3,5.7-38.5
				c-0.4,0.1-0.9,0.2-1.4,0.2c-0.7,0-1.1-0.2-1.5-0.7c-0.3-0.5-0.5-0.8-0.6-1v-1.2l0.1-0.1c0.1-0.1,0.3-0.1,0.5-0.1
				c0.4,0,0.6,0.3,0.8,0.9c0.2,0.5,0.4,0.8,0.8,0.8c2,0,3.4-2.1,4.3-6.3c0.4-2.1,0.7-4.2,0.8-6.3c0-1.7-0.1-2.9-0.3-3.7
				c-0.5-2.1-1.5-3.1-3-3.1c-1.6,0-2.8,1.9-3.6,5.6c-0.6,2.6-0.9,5.3-0.9,8.2v0.1c0,0.1,0,0.2,0,0.3c-0.1,0-0.1,0-0.1,0.1
				c-0.1,0.1-0.2,0.2-0.3,0.2c-0.1,0-0.1,0-0.2,0c-0.1,0-0.1,0-0.1,0c0,0,0,0,0,0c-0.3,0-0.9,0-1.7,0c-0.7,0-1.3,0-1.6-0.1
				c0,0-0.1,0.1-0.1,0.1c-0.1,0-0.2-0.1-0.2-0.1c-0.2-0.1-0.4-0.1-0.4-0.2c0,0,0-0.1,0-0.3c0,0,0,0,0,0c-0.1-0.1-0.1-0.2-0.1-0.3
				c0-1,0.2-2.7,0.7-5.3c0.4-2.5,0.7-5.5,0.7-9c0-4.6-0.4-8.7-1.2-12.2c-5.8-1.3-10.6-4.8-14.4-10.7c-1.7-2.5-3-5.3-4.1-8.3
				c-0.7-2-1-3.4-1.1-4.5c-0.2,0.4-0.4,0.7-0.7,1c-1.7,2.5-3.2,4.2-4.4,5.1c-1.2,0.9-2.7,2.1-4.3,3.8c-1.6,1.6-5,3.8-10.1,6.5
				c-3.1,1.6-6.1,3-8.9,4.2c1.7,1.7,2.5,3.8,2.5,6.2c0,2.4-0.9,4.6-2.6,6.3c-0.9,0.9-1.9,1.5-2.9,2c0.8,0.5,1.7,1.2,2.5,2
				c0.3,0.3,0.4,0.6,0.5,1.1c-5.1-4-9.7-4.1-14.2-0.3l-0.5-0.3l-0.1-0.7c1.3-1.1,2.6-1.9,3.8-2.4c-0.6-0.4-1.1-0.8-1.7-1.4
				c-1.7-1.7-2.6-3.8-2.6-6.3c0-0.6,0.1-1.2,0.2-1.7c-1.3,0.3-2.6,0.6-3.8,0.8c-1.9,0.4-4.8,0.7-8.5,0.8c-3.2,3.9-5.7,8.3-7.6,13.3
				c-3.4,9.1-4.7,18.5-3.9,28.1c0.7,8.4,3.1,30.2,7.2,37.3c2.3,4.2,5.3,8.1,8.8,11.9c-1.8,0-3.6-0.1-5.4-0.3
				c0.3,0.3,0.7,0.6,1.1,0.9c1.7,1.3,3.7,2.5,6.1,3.5C175.9,189.7,175.8,188.9,175.8,188z M251.6,116.3c0-0.8,0.2-1.6,0.6-2.3
				c0.2-0.5,0.7-1.2,1.4-2.2c0.4,0.2,0.7,0.5,0.7,0.9c0,0.3-0.1,0.6-0.3,1c-0.2,0.5-0.3,0.8-0.4,0.9c0.9,0,1.3,0.5,1.2,1.7
				c0,0.6-0.1,1-0.2,1.3c-0.3,0.5-0.8,0.7-1.5,0.7c-0.8,0-1.3-0.3-1.4-0.9C251.5,117,251.5,116.7,251.6,116.3z M244.5,121.8
				c0.1-0.1,0.4-0.2,1-0.3c0.5-0.1,1-0.1,1.4-0.1c1.2,0,1.9,0.1,2.2,0.3c0.1,0.1,0.1,0.2,0.1,0.3c0,0.3-0.1,0.5-0.4,0.6
				c-0.2,0-0.8,0.1-2,0.1c-1.5,0-2.2-0.1-2.3-0.3c0-0.1,0-0.2,0-0.3C244.6,122,244.6,121.9,244.5,121.8z M244.3,124.1
				c0.1,0,0.4-0.1,0.8-0.1c2.4,0,3.6,0.3,3.6,0.9c0,0.3-0.1,0.5-0.4,0.6c-0.1,0-0.6,0.1-1.4,0.1c-0.3,0-0.9-0.1-1.6-0.2
				c-0.7-0.2-1.1-0.3-1.2-0.4c0,0.2-0.1,0-0.1-0.4C244,124.3,244.1,124.2,244.3,124.1z M244,126.8c0.1-0.1,0.4-0.2,1-0.3
				c0.5-0.1,1-0.1,1.4-0.1c1.2,0,1.9,0.1,2.2,0.3c0.1,0.1,0.1,0.2,0.1,0.3c0,0.3-0.1,0.5-0.4,0.6c-0.2,0-0.8,0.1-2,0.1
				c-1.5,0-2.2-0.1-2.3-0.3c0-0.1,0-0.2,0-0.3C244.1,127,244.1,126.9,244,126.8z M237.7,118c0,1-0.9,1.9-2.6,2.7
				c-1.7,0.7-3.8,1.1-6.3,1.1c-2.4,0-4.5-0.4-6.3-1.1c-1.7-0.8-2.6-1.6-2.6-2.7c0-1,0.9-1.9,2.6-2.7c1.7-0.8,3.8-1.1,6.3-1.1
				c2.5,0,4.5,0.4,6.3,1.1C236.8,116.1,237.7,117,237.7,118z M219.3,103.6c-1.9-1.9-2.8-4.1-2.8-6.7c0-2.6,0.9-4.8,2.8-6.7
				c1.9-1.9,4.1-2.8,6.7-2.8c2.6,0,4.8,0.9,6.7,2.8c1.9,1.9,2.8,4.1,2.8,6.7c0,2.6-0.9,4.9-2.8,6.7c-1.2,1.2-2.6,2-4.2,2.4
				c1.1,0.6,2.1,1.4,3.2,2.4l-0.1,0.9c-4.7-3.8-9.7-4.2-14.9-1.3c-0.2,0.1-0.4,0.1-0.6,0v-0.6c1.7-1.2,3.4-2,5-2.4
				C220.5,104.7,219.9,104.2,219.3,103.6z M206.1,132.7c0.1,0,0.4-0.1,0.9-0.1c0.4,0,1.3,0.2,2.6,0.7c1.4,0,2.2-0.1,2.3-0.2
				c-1.1-4.4-1.7-7.3-1.9-8.7c-0.1-0.8-0.1-3.1-0.1-7.1c0.1-4.7,0.2-8.4,0.4-11.1c0.2-3.7,0.5-5.6,0.9-5.6c0.4,0,0.6,0,0.7,0.1
				c0.1,0.1,0.1,0.3,0.1,0.5c-0.1,1.7-0.2,3.3-0.3,5c0,0.2-0.1,0.3-0.1,0.5c-0.3,3.7-0.4,7.2-0.4,10.7c0,3.6,0.4,7.2,1,10.9
				c0.4,1.8,0.7,3.4,1,4.7c0,0.5-0.1,0.9-0.3,1.2c-0.4,0.4-1.1,0.6-2.3,0.6c-1.5,0-2.5-0.2-3-0.5c-0.6-0.4-1.2-0.6-1.9-0.6
				c-0.1,0.2-0.1,0-0.1-0.4C205.7,132.9,205.9,132.8,206.1,132.7z M177.7,115.4c1.7-0.8,3.8-1.1,6.3-1.1c2.4,0,4.5,0.4,6.3,1.1
				c1.7,0.7,2.6,1.6,2.6,2.7c0,1-0.9,1.9-2.6,2.7c-1.7,0.7-3.8,1.1-6.3,1.1c-2.4,0-4.5-0.4-6.3-1.1c-1.7-0.8-2.6-1.6-2.6-2.7
				C175.1,117,176,116.1,177.7,115.4z"/>
			<path fill="#FDCF9D" d="M232.9,186.9C232.9,186.9,232.9,186.9,232.9,186.9C232.9,186.9,232.9,186.9,232.9,186.9L232.9,186.9z"/>
			<path d="M216.2,108.1c0.2,0.1,0.4,0.1,0.6,0c5.2-3,10.1-2.6,14.9,1.3l0.1-0.9c-1-1-2.1-1.8-3.2-2.4c1.6-0.4,2.9-1.2,4.2-2.4
				c1.9-1.9,2.8-4.1,2.8-6.7c0-2.6-0.9-4.8-2.8-6.7c-1.9-1.9-4.1-2.8-6.7-2.8c-2.6,0-4.9,0.9-6.7,2.8c-1.9,1.9-2.8,4.1-2.8,6.7
				c0,2.6,0.9,4.9,2.8,6.7c0.6,0.6,1.2,1.1,1.9,1.5c-1.6,0.4-3.3,1.2-5,2.4V108.1z M220.3,102.7c-1.6-1.6-2.4-3.5-2.4-5.8
				c0-2.2,0.8-4.1,2.4-5.7c1.6-1.6,3.5-2.4,5.8-2.4c2.2,0,4.2,0.8,5.8,2.4c1.6,1.6,2.4,3.5,2.4,5.7c0,2.2-0.8,4.2-2.4,5.8
				c-1.6,1.6-3.5,2.4-5.8,2.4c0,0-0.1,0-0.1,0c-0.7-0.2-1.4-0.2-2.1-0.3C222.5,104.5,221.3,103.7,220.3,102.7z"/>
			<path fill="#FFFFFF" d="M226,105.1C226,105.1,226,105.1,226,105.1c2.3,0,4.2-0.8,5.8-2.4c1.6-1.6,2.4-3.5,2.4-5.8
				c0-2.2-0.8-4.1-2.4-5.7c-1.6-1.6-3.5-2.4-5.8-2.4c-2.3,0-4.2,0.8-5.8,2.4c-1.6,1.6-2.4,3.5-2.4,5.7c0,2.2,0.8,4.2,2.4,5.8
				c1,1,2.2,1.8,3.6,2.1C224.6,104.8,225.3,104.9,226,105.1z M228.9,94.7c0.3-0.4,0.7-0.5,1.2-0.5c0.3,0,0.6,0.1,0.8,0.2
				c0,0,0,0,0,0c-0.3,0.2-0.4,0.4-0.4,0.6c0,0.3,0,0.4,0,0.4c0,0,0,0,0-0.1c0.1,0.1,0.1,0.1,0.2,0.2c0.1,0.1,0.3,0.1,0.5,0.1
				c0.2,0,0.4,0,0.5,0c0,0.1,0,0.1,0,0.2c0,0.4-0.2,0.7-0.4,1.1c-0.3,0.3-0.7,0.5-1.2,0.5c-0.7,0-1.2-0.3-1.4-0.8
				c-0.1-0.3-0.2-0.5-0.2-0.9C228.5,95.3,228.6,95,228.9,94.7z"/>
			<path d="M230.1,97.4c0.5,0,0.9-0.2,1.2-0.5c0.3-0.3,0.4-0.7,0.4-1.1c0-0.1,0-0.1,0-0.2c-0.1,0-0.3,0-0.5,0c-0.3,0-0.5,0-0.5-0.1
				c-0.1-0.1-0.1-0.2-0.2-0.2c0,0,0,0.1,0,0.1c0,0,0-0.2,0-0.4c0-0.2,0.1-0.4,0.4-0.6c0,0,0,0,0,0c-0.2-0.1-0.5-0.2-0.8-0.2
				c-0.4,0-0.8,0.2-1.2,0.5c-0.3,0.3-0.4,0.7-0.4,1.1c0,0.3,0.1,0.6,0.2,0.9C228.9,97.1,229.4,97.4,230.1,97.4z"/>
			<path d="M205.8,133.6c0.7,0,1.3,0.2,1.9,0.6c0.5,0.3,1.5,0.5,3,0.5c1.1,0,1.9-0.2,2.3-0.6c0.2-0.2,0.3-0.6,0.3-1.2
				c-0.3-1.3-0.7-2.9-1-4.7c-0.7-3.7-1-7.3-1-10.9c0-3.4,0.1-7,0.4-10.7c0-0.2,0-0.3,0.1-0.5c0.1-1.7,0.2-3.3,0.3-5
				c0-0.3-0.1-0.5-0.1-0.5c-0.1-0.1-0.3-0.1-0.7-0.1c-0.4,0-0.7,1.9-0.9,5.6c-0.2,2.7-0.3,6.4-0.4,11.1c0,4,0.1,6.4,0.1,7.1
				c0.2,1.4,0.8,4.3,1.9,8.7c-0.1,0.1-0.9,0.2-2.3,0.2c-1.3-0.4-2.1-0.7-2.6-0.7c-0.5,0-0.8,0-0.9,0.1c-0.3,0.1-0.4,0.3-0.4,0.5
				C205.7,133.6,205.8,133.8,205.8,133.6z"/>
			<path fill="#F8A770" d="M228.8,114.3c-2.4,0-4.5,0.4-6.3,1.1c-1.7,0.7-2.6,1.6-2.6,2.7c0,1,0.9,1.9,2.6,2.7
				c1.7,0.7,3.8,1.1,6.3,1.1c2.5,0,4.5-0.4,6.3-1.1c1.7-0.8,2.6-1.6,2.6-2.7c0-1-0.9-1.9-2.6-2.7
				C233.3,114.6,231.3,114.3,228.8,114.3z"/>
			<path d="M244.5,122.5c0.1,0.2,0.9,0.3,2.3,0.3c1.1,0,1.8,0,2-0.1c0.3-0.1,0.4-0.3,0.4-0.6c0-0.2-0.1-0.3-0.1-0.3
				c-0.3-0.2-1-0.3-2.2-0.3c-0.4,0-0.8,0.1-1.4,0.1c-0.6,0.1-0.9,0.2-1,0.3c0.1,0.1,0.1,0.2,0,0.4
				C244.5,122.3,244.5,122.4,244.5,122.5z"/>
			<path d="M253,118.3c0.8,0,1.3-0.2,1.5-0.7c0.1-0.3,0.2-0.7,0.2-1.3c0.2-1.1-0.2-1.7-1.2-1.7c0-0.1,0.2-0.4,0.4-0.9
				c0.2-0.4,0.3-0.8,0.3-1c0-0.4-0.2-0.7-0.7-0.9c-0.7,1-1.1,1.7-1.4,2.2c-0.4,0.7-0.6,1.5-0.6,2.3c-0.1,0.4-0.1,0.7,0,1
				C251.7,118,252.2,118.3,253,118.3z M252.9,116.1c0-0.1,0.2-0.1,0.5,0.2c0,0.2-0.1,0.4-0.3,0.6h-0.3V116.1z"/>
			<path fill="#FDCF9D" d="M253.4,116.3c-0.4-0.3-0.5-0.3-0.5-0.2v0.8h0.3C253.3,116.7,253.4,116.5,253.4,116.3z"/>
			<path d="M244,127.4c0.1,0.2,0.9,0.3,2.3,0.3c1.1,0,1.8,0,2-0.1c0.3-0.1,0.4-0.3,0.4-0.6c0-0.2-0.1-0.3-0.1-0.3
				c-0.3-0.2-1-0.3-2.2-0.3c-0.4,0-0.8,0.1-1.4,0.1c-0.6,0.1-0.9,0.2-1,0.3c0.1,0.1,0.1,0.2,0,0.4C244,127.3,244,127.4,244,127.4z"
				/>
			<path d="M244.1,125c0.1,0.1,0.5,0.2,1.2,0.4c0.7,0.1,1.3,0.2,1.6,0.2c0.8,0,1.3,0,1.4-0.1c0.3-0.1,0.4-0.3,0.4-0.6
				c0-0.6-1.2-0.9-3.6-0.9c-0.4,0-0.7,0-0.8,0.1c-0.2,0.1-0.3,0.3-0.3,0.5C244,125,244,125.2,244.1,125z"/>
			<path fill="#F8A770" d="M177.7,120.7c1.7,0.7,3.8,1.1,6.3,1.1c2.4,0,4.5-0.4,6.3-1.1c1.7-0.8,2.6-1.6,2.6-2.7
				c0-1-0.9-1.9-2.6-2.7c-1.7-0.8-3.8-1.1-6.3-1.1c-2.4,0-4.5,0.4-6.3,1.1c-1.7,0.7-2.6,1.6-2.6,2.7
				C175.1,119.1,176,120,177.7,120.7z"/>
			<path fill="#FFFFFF" d="M183.6,93.9c-0.2,0.7-0.3,1.4-0.3,2.1c0,2.1,0.7,3.8,2.2,5.3c0.8,0.8,1.7,1.4,2.7,1.7
				c1.4-0.3,2.8-0.2,4.1,0.3c1.5-0.3,2.7-1,3.8-2.1c1.5-1.5,2.2-3.2,2.2-5.3c0-2.1-0.7-3.8-2.2-5.3c-0.1-0.1-0.3-0.2-0.4-0.4
				c-1.4,0.5-2.8,1-4.1,1.4C188.8,92.5,186.2,93.2,183.6,93.9z M193.9,94.4c-0.1,0.1-0.1,0.1-0.1,0.2c0,0,0,0-0.1,0
				c-0.2,0.1-0.2,0.2-0.2,0.5c0,0.3,0,0.4,0.1,0.4l0-0.1l0.6,0.3c0.3-0.1,0.4-0.2,0.5-0.4c0.1-0.1,0.1-0.1,0.2-0.1
				c0.1,0.2,0.1,0.4,0.2,0.7c0,0.4-0.2,0.7-0.5,1.1c-0.3,0.3-0.7,0.5-1.2,0.5c-1.1,0-1.6-0.5-1.6-1.7c0-0.4,0.1-0.8,0.4-1.1
				c0.3-0.4,0.7-0.5,1.2-0.5C193.6,94.4,193.7,94.4,193.9,94.4z"/>
			<path d="M192.2,94.9c-0.3,0.3-0.4,0.7-0.4,1.1c0,1.1,0.5,1.7,1.6,1.7c0.5,0,0.9-0.2,1.2-0.5c0.3-0.3,0.5-0.7,0.5-1.1
				c0-0.3-0.1-0.5-0.2-0.7c-0.1,0-0.1,0.1-0.2,0.1c-0.1,0.2-0.3,0.3-0.5,0.4l-0.6-0.3l0,0.1c0,0-0.1-0.2-0.1-0.4
				c0-0.3,0.1-0.4,0.2-0.5c0,0,0.1,0,0.1,0c0-0.1,0.1-0.2,0.1-0.2c-0.2,0-0.3-0.1-0.5-0.1C192.9,94.4,192.5,94.6,192.2,94.9z"/>
			<path fill="#FDCF9D" d="M203.8,194.3c-0.8,2.9-1.7,5.4-2.9,7.4c0.4,2,1.3,3.5,2.6,4.6c2.4-1,5.3-1.6,8.9-1.6
				c1.6,0,3.1,0.2,4.5,0.6c1.7-3.2,2.7-5.1,2.9-5.7c0.9-2.2,1.4-4.4,1.4-6.5c0-0.9-0.2-2.1-0.6-3.5c-0.4-1.7-1-2.8-1.7-3.4
				c-0.2,2-0.4,4.1-0.8,6.2c-0.2,0.1-0.4,0.2-0.7,0.3c-0.4-0.5-0.7-0.9-0.7-1.2c0.7-6.5,1-10.2,1-10.9c0.2-1.6,0.2-3,0-4.4
				c-0.1-0.6-0.2-1.1-0.4-1.6c-0.5-1.6-1.4-2.3-2.8-2.3c-0.8,0-1.4,0.2-1.8,0.5c-0.4,0.4-0.7,0.6-0.9,0.7c0.1,0.4,0.1,0.8,0.1,1.2
				c0,0.2,0,0.4,0,0.5v13.9c-0.2,0.1-0.4,0.2-0.7,0.3c-0.4-1.1-0.5-2.8-0.5-5.1c0.1-2.7,0.1-4.7,0.1-6c0-1.5-0.1-2.7-0.2-3.6
				c-0.1-0.5-0.2-0.9-0.3-1.3c-0.4-1.4-1.3-2.1-2.4-2.1c-1.2,0-2,0.4-2.6,1.3c-0.1,0.2-0.3,0.6-0.5,1c-0.1,0.1-0.2,0.3-0.2,0.4
				c0.1,0.3,0.2,0.5,0.3,0.8c0.1,0.3,0.2,0.7,0.3,1c0.4,1.7,0.5,3.4,0.3,5.3C205.5,185.5,204.9,189.9,203.8,194.3z"/>
			<path fill="#FDCF9D" d="M181.2,179c-2.2,0-3.5,1.5-4,4.6c-0.3,1.5-0.3,3.1-0.1,4.6c0,1.4,0.1,2.7,0.4,4c0,0,0,0,0,0.1
				c0,0,0.1,0.1,0.1,0.1c0,0,0,0,0,0c0.5,2.7,1.7,5.4,3.3,8.1c0.3,0.4,0.8,1.2,1.5,2.3c0.1,0.1,0.2,0.2,0.2,0.4
				c0.4-0.1,0.9-0.3,1.3-0.4c2.1-0.5,4.2-0.5,6.3,0c1.9,0.5,3.8,1.4,5.7,2.8c0.9-0.7,1.7-1.7,2.5-2.8c1.5-2.1,2.8-5,3.8-8.5
				c1.3-4.5,1.9-8.9,1.9-13.2c0.2-2.2,0.1-4.2-0.4-5.8c0-0.2-0.1-0.4-0.2-0.6c-0.9-2.5-2.5-3.3-5-2.4c0.1,0.2,0.1,0.3,0.1,0.5
				c0.1,0.7,0.2,1.3,0.3,2c0.1,1.1,0.1,2.1,0,3.2c0,2.3,0,3.8-0.1,4.3c-0.2,1.7-0.6,3.1-1.4,4.3c-0.2-0.1-0.4-0.2-0.5-0.2
				c-0.1-0.1-0.2-0.3-0.2-0.6c0.5-4.4,0.8-7.1,0.8-8c0-1.2,0-2.2-0.1-3c-0.1-0.6-0.1-1.1-0.2-1.5c-0.5-2.6-1.5-3.9-3.2-3.9
				c-0.2,0-0.5,0.1-1,0.3c-0.5,0.2-0.8,0.3-1,0.3c0.1,0.4,0.2,0.7,0.2,1.1c0.2,1.2,0.3,2.4,0.3,3.7c0,0.6,0,1.2-0.1,1.8
				c-0.1,2.8-0.2,5.1-0.4,6.6c-0.2,1.5-0.5,2.7-1,3.5c-0.4-0.4-0.7-0.7-0.7-0.9c0.5-5.6,0.8-8.7,0.8-9.3c0-0.6,0-1.1,0-1.7
				c0-1.1-0.1-2.1-0.2-3.1c-0.4-3-1.4-4.5-3-4.5c-1.1,0-2,0.8-2.6,2.4c0,0,0.1,0,0.1,0c-0.1,0.1-0.2,0.3-0.2,0.4
				c-0.2,0.3-0.2,0.5-0.3,0.8c-0.1,0.5-0.2,1-0.3,1.5c-0.1,0.8-0.3,1.6-0.4,2.4c-0.3,2.4-0.5,4.3-0.7,5.9c-0.1,2-0.2,4.2-0.2,6.5
				c-0.1,0-0.2,0.1-0.6,0.3c-0.4-0.9-0.7-2.6-0.7-5.1c0-0.3,0.1-1,0.2-2C182.2,180.1,181.7,179.7,181.2,179z"/>
			<path fill="#F396BF" d="M223.9,210c1.4-1,2.6-2.1,3.6-3.3c1.6-1.9,3.1-3.9,4.5-6c0.3-0.4,0.5-0.9,0.8-1.4c1.1-1.9,2-3.9,2.7-6
				c0.7-2.3,1.3-4.6,1.8-7c-0.1,0-0.3,0-0.4,0c-0.4,0.3-1.1,0.8-2.3,1.4c-0.8,0.4-1.5,0.8-2,1c-0.1,0.9-0.3,2-0.7,3.3
				c-0.1,0.4-0.3,0.9-0.4,1.4c-1,3-2.4,5.7-4.3,8.2c-2.4,3.2-5.4,5.7-9,7.5c0.1,1.4,0.2,2.7,0.3,3.9c0.8-0.3,1.6-0.7,2.3-1.1
				C221.9,211.4,222.9,210.7,223.9,210z"/>
			<path fill="#FDCF9D" d="M225.8,201.2c1.9-2.3,3.3-4.8,4.4-7.6c0.5-1.6,0.9-2.9,1-4.1c-3.1,1.5-6,2.6-8.8,3.2c0,0.1,0,0.2,0,0.3
				c0,2.3-0.4,4.7-1.4,7c-0.4,0.9-1.4,3-2.9,6.1c0,0.1-0.1,0.1-0.1,0.2c0.1,0.4,0.1,0.9,0.1,1.3C221.1,206,223.6,203.9,225.8,201.2z
				"/>
			<path fill="#C272AD" d="M250.7,288.1c0-0.6,0-1.2,0.1-1.8c0.1-1.9,0.3-3.7,0.5-5.6c1.1-10.1,7.5-39.2,3.4-57.1
				c-2.9-12.5-7.2-22-11.3-29.2c-1.4-2.5-3-4.8-4.8-7.1c-0.7,2.7-1.5,5.3-2.5,7.9c-1.1,2.7-2.4,5.3-4,7.7c-0.3,0.4-0.5,0.8-0.8,1.2
				c-2,2.8-4.4,5.2-7.3,7.1c-0.7,0.5-1.4,1-2.1,1.4c-1,0.6-2,1.2-3.1,1.7c0.8,9.6,1.7,28.6,2.7,34.9c0.3,2.3,0.7,4.4,1.1,6.2
				c1.1,5.2,2.1,8.9,3,11.1c2.5-1.8,5.6-6.9,9.4-15.4c1.2-2.7,2.7-17.4,4.6-22.1c1.4-3.4,2.1-5,2.2-5c0.3,0,0.5,0.1,0.6,0.3
				c0.1,0.1,0.1,0.4,0.1,0.8c0,0.4-0.7,2.2-2,5.6c-1.5,3.9-3.1,18.6-4.8,22.1c-3.8,7.9-6.9,12.9-9.4,14.9c0.1,0.2,0.3,0.4,0.4,0.6
				c0.3,0.3,0.5,0.5,0.8,0.6c0.4,0.3,1,0.4,1.6,0.4c1.3,0,2.3-0.3,3-0.9c0,0.1,0,0.1,0,0.1c0,0.4-0.4,0.9-1.2,1.4
				c-0.8,0.5-1.5,0.8-2.1,0.8c-1.3,0-2.5-0.8-3.6-2.4c-1.3-2-2.4-5.3-3.4-9.8c-0.5-2.5-1-5.5-1.5-9.2c0-0.2-0.1-0.4-0.1-0.6
				c-0.6-4.6-0.9-18.1-0.9-18.3c-0.4-2.3-0.9-6.6-1.4-13.1c-1.4-0.4-2.9-0.7-4.5-0.7c-4.3,0-7.7,0.5-10.4,1.4c0.1,0.7,0.2,1.3,0.2,2
				c0.6,5.5,1.1,20.9,1.5,24.1c0.2,1.5,0.4,3.2,0.8,5.1c0.3,2.1,0.8,4.4,1.3,7c0.7,3.5,1.8,6.9,3.2,10.2c1.8,4.2,4,8.2,6.7,12
				c0.7,1,1.5,2,2.4,2.8c0.6,0.6,1.2,1.1,1.8,1.6c0.6,0.5,1.3,1,2,1.4c0.3,0.2,0.7,0.4,1,0.6c0.6,0.2,1.2,0.3,1.8,0.3
				c5.2,0,10.3-3.8,15.3-11.4c1.6-2.4,3.1-5.2,4.5-8.3c0.2-0.5,0.9-2,2-4.7c1.7-3.8,2.9-8.1,3.6-12.6c0.6-3.7,0.9-19.1,1.1-24.1
				c0-0.1,0.1-0.1,0.1-0.2c0.1-0.1,0.3-0.2,0.5-0.2c0.6,0,0.8,0.8,0.7,2.3c0,4.5-0.8,20.5-2.2,26.2c-1.5,5.7-3.5,11.1-5.9,16.2
				c-2.6,5.4-5.5,9.7-8.6,12.9c-3.4,3.5-6.8,5.2-10.2,5.2c-0.9,0-1.7-0.1-2.6-0.3c-3.1-1.6-5.7-3.8-7.9-6.6c-1.3-1.6-2.4-3.3-3.4-5
				c0.2,3.9,0.5,7.1,0.9,9.5c0.6,2.9,1.8,5.3,3.8,7.4c1.9,2.1,3.9,3.5,6.1,4.3c2.1,0.8,6.2,2.1,12,3.9c5.8,1.7,11.1,2.8,15.6,3.1
				l0.1,0C250.6,297.9,250.5,293,250.7,288.1z"/>
			<path fill="#FDCF9D" d="M201.5,207.2c0,0.1,0,0.2,0.1,0.3c0.2-0.1,0.4-0.3,0.6-0.4c-0.3-0.3-0.6-0.6-0.8-0.9
				c-0.6-0.8-1.1-1.7-1.4-2.7c-0.1,0.1-0.2,0.2-0.2,0.3c-0.8,1.1-1.7,2-2.7,2.6c0.1,0.1,0.3,0.2,0.4,0.3c0,0,0,0,0,0
				c0.1-0.1,0.1-0.2,0.2-0.3c0.2,0.3,0.4,0.6,0.8,0.8c-0.5,1-1.1,2.3-1.9,3.9c1,0,2.1,0.1,3.2,0.1c0.4,0,0.9,0,1.3,0
				c-0.1-0.8-0.1-1.5-0.2-2.2c0-0.5-0.1-1-0.1-1.4C201,207.4,201.3,207.3,201.5,207.2z"/>
			<path fill="#A1597B" d="M216.1,206.8l0.1-0.2c-1.2-0.3-2.4-0.4-3.8-0.4c-5.1,0-8.7,0.8-10.7,2.4c0.3,2.6,0.7,5.3,1,8.3
				c2.6-1,5.3-1.5,8.1-1.5c0-0.1,0.8-0.1,2.5-0.1c1.5,0,2.9,0.2,4.3,0.4c0-0.4-0.1-0.9-0.1-1.4c-0.2-2.7-0.4-5-0.6-6.9
				C216.6,207.1,216.4,206.9,216.1,206.8z"/>
			<path fill="#F396BF" d="M259.8,353.3c-0.9-2-1.7-4-2.6-6c-0.4-1-0.8-2-1.2-3c-0.8-2.2-1.5-4.4-2.2-6.5
				c-2.4-7.8-4.7-15.7-6.9-23.6c-0.2-0.8-0.5-1.7-0.7-2.5c-0.2-0.7-2.9-7.7-3-8.4l0-0.1c-1.6-0.3-3.1-0.6-4.5-0.9
				c-2.9-0.6-5.7-1.4-8.4-2.4c-2.6-0.9-4.4-1.6-5.3-1.9c-2.8-0.9-5.3-2.3-7.4-4.2c-1.9-1.6-3.2-3.4-4.1-5.3c-0.6-1.2-1.2-4.5-2-10
				c-0.4-2.6-0.6-5-0.7-7.2c-1.2-2.6-2.3-5.2-3.2-7.8c-1.1-3.1-2-6.2-2.6-9.4c-0.3-1.6-0.6-3.2-0.8-4.8c-0.1-0.6-0.2-1.2-0.3-1.9
				c-0.4-3.1-0.8-17.3-1.2-20.4c-0.1-0.5-0.1-1.1-0.2-1.6c0-0.1,0-0.1,0-0.2L202,222c-0.1-1.1-0.3-2.1-0.4-3.1
				c-0.1-0.7-0.1-0.9-0.2-1.9h0l-0.2-1.7c-0.1-0.9-0.2-2.1-0.2-3c-0.5,0-1,0.7-1.5-0.3c-0.1,0-0.3,0-0.4,0c-0.2,1-0.3,0.7-0.4,0.8
				c-0.2-0.1-0.4,0-0.5-0.1c-0.1-0.1-0.1-0.1-0.2-0.3c-0.8-0.1-1.6,0-2.4-0.1c-0.4,0.8-0.8,1.7-1.3,2.7l-0.7,1.6
				c-0.1,0.1-0.1,0.2-0.2,0.3c1,1.2,1.7,2.7,2.2,4.4c0.5,1.6,0.8,3.6,0.8,6c0,1.3,0,14-0.1,16.2c0,0.9,0,1.8,0,2.7
				c0,1-0.1,2.1-0.2,3.1c-0.6,9.6-2.8,18.2-6.6,25.7c-3.9,7.7-9.3,13.7-16.2,18.1c-7.3,4.6-16.1,7.2-26.4,7.8
				c1.1,0.4,2.3,0.8,3.5,1.1c0-0.1,0.5,0.2,0.6,0.2c0.1,0,0.1,0,0.1,0c0.8,0.2,1.7,0.5,2.5,0.7c-2,7-8,24.1-14.4,38
				c-4.4,9.6-7.9,17.1-10.5,22.4c5.5,2.9,11.5,5.4,18.1,7.5c9,2.8,18.9,2.8,29.8,3.9c7.3,0.8,15,5.1,23.2,5.1
				c10.2,0,19.7-4.7,28.7-6c11.5-1.7,21.9-2.6,31.4-6.6c1.6-0.7,3.1-1.4,4.6-2.1C263.1,361.1,261.5,357.2,259.8,353.3z"/>
			<path fill="#FFFFFF" d="M200.1,381.1c-8.4,0-16.1-4.4-23.2-5.1c-4.5-0.4-8.7,1-12.7,0.2c-6.1-1.1-12-2.7-17.7-4.6
				c-5.2-1.8-10.2-3.8-15.1-6.3c-0.9-0.5-1.9-0.9-2.8-1.5c-2,4-3.4,6.6-4.2,7.8c1.5,0.9,3,1.7,4.5,2.6
				c24.5,15.1,67.2,14.5,71.2,14.5c1.5,0,20-0.8,26.2-1.7c0,0,0-0.1,0-0.1c0.1,0,0.2,0,0.3,0c0.3,0,0.6-0.1,0.9-0.3v0.2
				c12-1.7,22.9-4.6,32.6-8.8c3-1.3,5.9-2.7,8.5-4.1c-0.5-1.2-1-2.3-1.5-3.5c-0.6-1.4-1.2-2.8-1.7-4.1c-1.9,0.9-4,1.8-6.1,2.6
				c-9.4,3.6-19.5,4.3-30.5,5.9c-7.1,1.1-14.5,5.7-22.2,5.9C204.5,381.1,202.3,381.1,200.1,381.1z"/>
			<path fill="#FDCF9D" d="M219.1,407.7c2.6,0,4.8-0.1,6.7-0.4c0-0.2,0-0.4,0-0.6c0-1.2,0.1-2.4,0.1-3.7c0-0.2,0-0.4,0-0.6
				c0-0.7,0-1.4,0.1-2c0-1.8,0.1-3.5,0.1-5.2c0.1-2.4,0.1-4.5,0.2-6.5c-6.2,0.8-12.7,1.4-19.4,1.6c0.2,1.5,0.5,3.2,0.7,5
				c0.2,1.6,0.5,3.4,0.7,5.2c0.1,0.7,0.2,1.4,0.3,2.1c0,0.2,0.1,0.4,0.1,0.5c0.2,1.3,0.3,2.5,0.4,3.7c0,0.1,0,0.3,0,0.4
				C211.8,407.5,215.1,407.7,219.1,407.7z"/>
			<path fill="#EE3B24" d="M225.8,410.8c0-0.7,0-1.5,0.1-2.2c-2,0.3-4.2,0.5-6.7,0.5c-3.8,0-7.1-0.2-9.9-0.6
				c0.1,0.8,0.2,1.6,0.3,2.3c2,0.5,4.2,0.8,6.7,0.8C219.9,411.6,223,411.3,225.8,410.8z"/>
			<path fill="#FFFFFF" d="M218.6,420.6c2.6,0,4.8,0.3,6.9,0.9c0.1-2.5,0.2-5.7,0.3-9.4c-2.9,0.7-6.1,1-9.5,1
				c-2.5,0-4.7-0.2-6.6-0.7c0.4,3.7,0.7,7,0.8,9.7C213.1,420.9,215.8,420.4,218.6,420.6z"/>
			<path fill="#A46728" d="M211.9,423.2c-3.3,1.3-5.7,3.5-7.2,6.7c-0.7,1.4-1.2,2.8-1.5,4.3c2.9,0.8,7.2,1.1,12.8,1.1
				c7.1,0,13.1-0.6,18-1.7c-1-7.7-6-11.5-15.3-11.6C216.3,422,214.1,422.4,211.9,423.2z"/>
			<path fill="#A46728" d="M202.8,435.8c-0.1,0.7-0.2,1.4-0.2,2.2c2.9,0.8,7.3,1.3,13.3,1.3c7.2,0,13.3-0.6,18.2-1.8
				c0-0.3,0-0.7,0-1c0-0.5,0-1-0.1-1.5c-5.1,1.2-11.1,1.8-18,1.8C210.3,436.7,205.9,436.4,202.8,435.8z"/>
			<path fill="#C272AD" d="M167.3,275.7c5.3-7.3,9.6-14.6,13-21.8c0.8-1.6,1.5-3.2,2.2-4.7c0.5-1.1,1-2.1,1.5-3.1
				c1.7-3.8,3.3-18,4.5-20.9c0.5-1.1,1-2.1,1.4-3.1c0-0.1,0.1-0.2,0.1-0.2l2.9-6.1c0.4,0.1-0.7-0.5-3.2-1.7
				c-2.5-1.2-6.3-1.7-11.6-1.6c-1.4,3.2-2.8,6.4-4.2,9.6c-1,2.3-2.1,4.6-3.2,6.8c-1,2.1-2,15.2-3,17.3c-0.5,1-1.1,2.1-1.6,3.1
				c-0.3,0.6-0.6,1.2-0.9,1.7c-1.9,3.5-3.9,6.9-6.1,10.1c-1.1,1.7-2.4,3.3-3.9,4.7c-0.1,0.1-0.2,0.2-0.3,0.3c0,0.1-0.1,0.2-0.1,0.2
				c-0.2,0.1-0.3,0.2-0.5,0.3c0,0,0,0,0,0c-1.2,0.9-2.5,1.1-3.9,0.7l-0.1-0.5c0.2,0.1,0.3,0.1,0.4,0c1-0.3,1.9-0.9,2.7-1.6
				c-0.1-0.2-0.2-0.5-0.3-0.8c-0.2-0.8-0.3-1.6-0.3-2.5c0-0.8,0.1-1.1,0.1-1.1c0-0.3,0.1-1.8,0.4-4.4c0.3-2.5,0.6-4.9,0.9-7.2
				c0.1-0.6,0.2-1.1,0.2-1.7c1.2-8.5,2.3-23.8,3.3-23.8c0.1,0,0.2,0,0.2,0c0.2,0,0.3,0,0.4,0.1c0.1,0.1,0.1,0.3,0.1,0.6
				c-0.2,0.7-0.3,1.3-0.4,1.9c-1,4.8-1.9,19.7-2.4,22.8c-0.7,3.6-1.1,6.2-1.1,7.6c-0.1,2.8-0.2,4.7-0.2,5.6c0,0.8,0.1,1.4,0.3,2
				c1.8-1.6,3.3-3.4,4.7-5.4c1.3-1.9,2.5-3.9,3.5-5.9c0.7-1.3,1.3-2.6,2-3.9c0.5-1,1.1-2.1,1.6-3.1c0-0.1,0.1-0.1,0.1-0.2
				c2-3.8,3.8-18.6,5.5-22.5c1.2-2.7,2.3-5.4,3.5-8.2c0.5-1.2,1-2.4,1.5-3.6c-3.9-1.9-7-4.8-9.3-8.8c-0.5-0.8-0.9-1.6-1.3-2.5
				c-0.3,0.4-4.1-15.8-4.5-15.4c-21.5,19.7-23.4,83.2-21.3,93c0,0,0,0.1,0,0.1c0.3,2.1,0.8,3.7,1.3,4.8c0.6,1.3,1.4,2.3,2.4,2.9
				c1.1,0.7,5.3,1,7.2,1C156.7,286.7,162,283.1,167.3,275.7z"/>
			<path fill="#FDCF9D" d="M172.2,190c0.2,5.3,1.5,9.5,3.9,12.8c0.9,1.2,1.9,2.3,3.1,3.3c0.4-0.9,0.8-1.9,1.1-2.8c0.2,0,0.3,0,0.5,0
				c0.1,0,0.2,0,0.3,0c-0.1-0.2-0.2-0.3-0.3-0.5c-0.3-0.5-0.6-1-0.9-1.6c-1.7-3.1-3-6.2-3.6-9.3C174.8,191.4,173.4,190.7,172.2,190z
				"/>
			<path fill="#A1597B" d="M182.4,204.7c-0.1,0.1-0.2,0.2-0.3,0.3c0-0.1-0.1-0.1-0.1-0.1c-0.3,0.1-0.5,0.2-0.8,0.4
				c-0.8,2-1.6,3.9-2.4,5.9c7.5,0.1,12.4,1.3,14.7,3.5c0.3-0.6,0.5-1.1,0.8-1.7c0.9-1.8,1.7-3.4,2.3-4.7
				C192.6,203.8,187.8,202.6,182.4,204.7z"/>
			<path fill="#F396BF" d="M166.2,197.2c0.7,2.1,1.6,4,2.7,5.6c0.8,1.3,1.7,2.3,2.8,3.3c2.2,2,4.1,3.5,5.7,4.4c0.4-1,0.8-2,1.2-3
				c-0.2-0.1-0.3-0.2-0.4-0.3c-1.6-1.2-2.9-2.7-4-4.4c-0.6-0.9-1.1-2-1.5-3.1c-1.1-2.8-1.7-6.3-1.7-10.5c-1.3,0.6-6.9-5.1-8.2-4.4
				C163.1,185.4,163.8,187.8,166.2,197.2z"/>
			<path fill="#C272AD" d="M188.5,274c3.8-7.4,5.9-15.6,6.6-24.8c0.1-1,0.1-2.1,0.2-3.1c0-0.9,0-1.7,0-2.6c0.1-2.1,0.1-14.8,0.1-16
				c-0.1-2.3-0.3-4.2-0.9-5.9c-0.4-1.2-0.9-2.2-1.6-3.2h0c-0.4,0.9-0.8,1.7-1.3,2.7c-0.1,0.2-0.2,0.4-0.3,0.7l-2.2,4.7
				c-1.4,3.1-2.8,17-4,19.7c-0.5,1.1-1,2.1-1.5,3.1c-1.5,3.3-2.9,6.3-4.1,8.8c-3,6.4-7.1,13-12.3,19.8c-5.2,6.9-10.4,10.3-15.8,10.3
				c-1,0-1.9-0.1-2.7-0.3c-0.1,0.3-0.2,0.7-0.3,1.1c-0.7,2.8-1.8,6.3-3.2,10.5c10.8-0.4,20-3,27.5-7.8
				C179.4,287.4,184.7,281.6,188.5,274z"/>
			<path fill="#FDCF9D" d="M180,407.7c2.6,0,4.8-0.1,6.7-0.4c0-0.2,0-0.4,0-0.6c0-1.2,0.1-2.4,0.1-3.7c0-0.2,0-0.4,0-0.6
				c0-0.7,0-1.4,0.1-2c0.1-1.8,0.1-3.5,0.1-5.2c0.1-1.8,0.1-3.5,0.1-5.1c-0.1,0-0.1,0-0.2,0H187c-0.3,0-0.7-0.1-1.2-0.2l0,0.1
				c-6.6-0.4-12.7-1-18.3-1.9c0.3,2.1,0.7,4.5,1.1,7.1c0.2,1.6,0.5,3.4,0.7,5.2c0.1,0.7,0.2,1.4,0.3,2.1c0,0.2,0.1,0.4,0.1,0.5
				c0.2,1.3,0.3,2.5,0.4,3.7c0,0.1,0,0.3,0.1,0.4C172.7,407.5,176,407.7,180,407.7z"/>
			<path fill="#EE3B24" d="M186.7,410.8c0-0.7,0-1.5,0.1-2.2c-2,0.3-4.2,0.5-6.7,0.5c-3.8,0-7.1-0.2-9.9-0.6
				c0.1,0.8,0.2,1.6,0.3,2.3c2,0.5,4.2,0.8,6.7,0.8C180.8,411.6,183.9,411.3,186.7,410.8z"/>
			<path fill="#FFFFFF" d="M179.5,420.6c2.6,0,4.8,0.3,6.9,0.9c0.1-2.5,0.2-5.7,0.3-9.4c-2.9,0.7-6,1-9.5,1c-2.5,0-4.7-0.2-6.6-0.7
				c0.4,3.7,0.7,7,0.8,9.7C174,420.9,176.7,420.4,179.5,420.6z"/>
			<path fill="#A46728" d="M172.8,423.2c-3.3,1.3-5.7,3.5-7.3,6.7c-0.7,1.4-1.2,2.8-1.5,4.3c2.9,0.8,7.2,1.1,12.8,1.1
				c7.1,0,13.1-0.6,18-1.7c-1-7.7-6-11.5-15.3-11.6C177.2,422,175,422.4,172.8,423.2z"/>
			<path fill="#A46728" d="M163.7,435.8c-0.1,0.7-0.2,1.4-0.2,2.2c2.9,0.8,7.3,1.3,13.3,1.3c7.2,0,13.3-0.6,18.2-1.8
				c0-0.3,0-0.7,0-1c0-0.5,0-1-0.1-1.5c-5.1,1.2-11.1,1.8-18,1.8C171.2,436.7,166.8,436.4,163.7,435.8z"/>
		</g>
	</g>
</g>
<g id="Layer_18">
</g>
<g id="Layer_19">
</g>
<g id="Layer_20">
</g>
<g id="Layer_21">
</g>
<g id="Layer_22">
</g>
<g id="Layer_23">
</g>
<g id="Layer_24">
</g>
<g id="Layer_25">
</g>
<g id="Layer_26">
</g>
<g id="Layer_27">
</g>
<g id="Layer_28">
</g>
<g id="Layer_29">
</g>
<g id="Layer_30">
</g>
<g id="Layer_31">
</g>
<g id="Layer_32">
</g>
<g id="Layer_33">
</g>
<g id="Layer_34">
</g>
<g id="Layer_36">
</g>
<g id="Layer_35">
</g>
<g id="Layer_37">
</g>
<g id="Layer_38">
</g>
<g id="Layer_39">
</g>
<g id="Layer_40">
</g>
</svg>
