<?xml version="1.0" encoding="utf-8"?>
<!-- Generator: Adobe Illustrator 18.1.1, SVG Export Plug-In . SVG Version: 6.00 Build 0)  -->
<!DOCTYPE svg PUBLIC "-//W3C//DTD SVG 1.1//EN" "http://www.w3.org/Graphics/SVG/1.1/DTD/svg11.dtd">
<svg version="1.1" xmlns="http://www.w3.org/2000/svg" xmlns:xlink="http://www.w3.org/1999/xlink" x="0px" y="0px"
	 viewBox="0 0 393 483" enable-background="new 0 0 393 483" xml:space="preserve">
<g id="ziutek_x5F_01">
</g>
<g id="ziutek_x5F_02">
</g>
<g id="ziutek_x5F_03">
</g>
<g id="ziutek_x5F_04">
</g>
<g id="ziutek_x5F_05">
</g>
<g id="ziutek_x5F_06">
</g>
<g id="ziutek_x5F_07">
</g>
<g id="ziutek_x5F_08">
</g>
<g id="ziutek_x5F_09">
</g>
<g id="ziutek_x5F_10">
</g>
<g id="lady_x5F_01">
</g>
<g id="Layer_13">
</g>
<g id="Layer_12">
</g>
<g id="Layer_14">
</g>
<g id="Layer_15">
</g>
<g id="Layer_16">
</g>
<g id="Layer_17">
</g>
<g id="Layer_18">
</g>
<g id="Layer_19">
</g>
<g id="Layer_20">
</g>
<g id="Layer_21">
</g>
<g id="Layer_22">
</g>
<g id="Layer_23">
</g>
<g id="Layer_24">
</g>
<g id="Layer_25">
</g>
<g id="Layer_26">
</g>
<g id="Layer_27">
</g>
<g id="Layer_28">
</g>
<g id="Layer_29">
</g>
<g id="Layer_30">
</g>
<g id="Layer_31">
</g>
<g id="Layer_32">
</g>
<g id="Layer_33">
</g>
<g id="Layer_34">
</g>
<g id="Layer_36">
</g>
<g id="Layer_35">
	<g>
		<path fill="#FDBE14" d="M379.9,255.7l-28.5-3.6c-14.8-0.4-27-1.8-36.6-4c-14.2-3.5-23.2-9.5-26.8-17.8
			c-7-17.4,4.2-51.5,33.7-102.4c-43,43.9-74.4,67.1-94.2,69.7c-4.2,0.6-8,0.3-11.4-0.9c-9.2-2.7-18.1-13.7-26.5-32.8
			c-9.5-21.6-37.2-100.1-37.2-100.1c-3.9,58.6-15.5,92.6-34.8,101.8c-2.6,1.4-6.1,2.3-10.5,2.9c-18.9,2.3-50.2-6-94-25.1
			c0,0,41.3,41.4,50.3,51.1c7.2,8,9.9,14.6,8.1,19.9c-1.4,3.7-4.6,6.6-9.6,8.8c-6.4,2.7-17,5-31.6,6.7l-17.2,1.8
			c0,0,46.1,14.1,58.2,17.8c9.8,2.9,15.7,6.8,17.5,11.7c1.4,3.3,1.6,6.5,0.6,9.7c-1.8,5.1-6.7,11.7-14.7,19.9
			c16.1-7,28.7-11.1,37.9-12.3c10.2-1.4,17.8,0.7,22.6,6.2c5.6,6.4,5.7,17.2,0.3,32.2c-2.5,6.8-6.1,14.7-10.9,23.8
			c-8.8,16.6-21.4,37.1-38,61.4c0,0,38.2-24.4,49.8-25.8c7-1,12.7,0.3,17.2,3.8c5.4,4,10.1,11.3,14.2,22l8.9,17.3
			c7-27,22.4-58.7,35.6-60.3c12.2-1.5,29.6,6.7,52.1,24.9c-4.4-13.5-6.1-25.8-5.1-36.9c0.2-2.1,0.5-4.3,0.9-6.3
			c3.2-17.2,12.7-31.9,28.6-44.3C298.3,289,379.9,255.7,379.9,255.7z"/>
		<path fill="#FFFFFF" d="M348.5,178.7c-27.5,2.5-46.1,0.3-55.7-6.7c-8.4-6.2-13.1-16.6-14.1-31c-1.1-16.3-0.2-38.3,2.9-66.1
			c-30.8,51.1-54.9,80.1-72.1,86.9c-1.2,0.6-2.6,0.9-4.2,0.9c-5.6,0.8-11.8-1-18.4-5.3c-8.8-5.9-19.7-16.7-32.5-32.5
			c13.7,36.3,14.3,58.8,1.8,67.6c-3.8,2.7-8.9,4.4-15.4,5c-14.7,2.1-40.5,0.1-77.7-6.2c22.7,9.4,38.2,17.7,46.7,24.9
			c4.4,3.9,7,8.1,7.8,12.6c1,6.8-3.5,13.2-13.5,19C90,256.2,62.7,266.2,22.1,278c12.1-0.8,20.5-0.5,25.3,0.9
			c4.6,1.4,7.2,4.3,7.8,8.8c0.6,5.3-0.4,10.9-3,17c-4.1,9.6-12.1,21.7-23.9,36.1c-2.1,2.5-4.3,5.1-6.6,7.8c4.6-2.8,9.1-5.4,13.4-7.8
			c20.5-11.4,37.1-17.9,49.8-19.7c10.2-1.2,18.5,0.5,24.7,5c5.1,3.8,8.9,8.7,11.4,14.7c2.7,6.7,3.7,14.7,3.1,24.2
			c10.8-10.1,21.2-15.8,31-17c4.4-0.6,8.7-0.3,12.9,0.9c12.9,4.1,29.4,21.8,49.5,53.3l10,13.5c-3.6-29.5-0.3-63.5,11.3-74.8
			c0.6-0.5,1.1-1.1,1.7-1.6c3.4-2.7,7.4-4.4,12.1-4.9c8.3-1.1,20.4,1.1,36.4,6.5c16.6,5.7,37.4,15,62.3,27.9v-2.8
			c-9.2-8.6-17.5-17-24.9-25.1c-41.4-45.2-55.4-82.6-42.2-112.2C291.4,212.5,312.8,195.9,348.5,178.7L348.5,178.7z"/>
		<g>
			<path fill="#855531" d="M274.4,161.9c2-0.1,3.7-0.1,5,0c0.8,0.1,1.7,0.4,2.6,0.7c0.5,0.3,1,0.5,1.5,0.9l3,2.7
				c1.2,1,2.3,1.7,3.4,2.1l0.6,0.1l1.2,1.4c1.6,2.1,2.9,4.4,3.9,6.7c1,2.3,1.6,4.8,2,7.4c0.3,2.1,0.3,4.4,0.2,6.8
				c-0.1,2-0.3,4.3-0.6,6.8c0,0.2-0.1,0.5-0.1,0.8h4c0.4-3.1,0.6-5.8,0.7-8.1c0.1-3.9-0.2-7.4-1-10.6c-1.6-6.6-5.6-12.7-12-18.4
				c-0.4-0.3-0.8-0.5-1.3-0.5c-0.4,0-0.8,0.1-1.1,0.3l-1.7-1.3c-2.1-1.2-4.8-1.8-8.1-1.6l-13.1,0.8l-4.3-0.1
				c-1.7-0.3-3.6-0.8-5.5-1.6c-5-2.3-8.8-4-11.3-5.1c-4.4-1.9-8.4-3-11.9-3.4l-3.1-0.2l-5.4,0.4l-5.3,0.8c-4.4,0.7-8.9,1.8-13.5,3.2
				c-1.9,0.6-4.1,1.5-6.7,2.6l-6.6,3c-2.4,1-4.7,1.7-6.9,2l-3.3,0.2l-6.3,0.1c-4.1,0.1-7.7,0.4-10.7,0.8c-2.7,0.4-5.4,1.1-8.3,2.3
				l-3.7,1.5l-5.4,1.7c-0.9,0.4-1.8,0.7-2.7,0.9l-2.5,0.6c-1.2,0.5-2.6,0.9-4.2,1.3l-4.9,1.1c-2.3,0.5-3.9,0.9-5,1.2l-5.8,1.6
				c-0.9,0.1-2.1,0.1-3.7,0.1l-2.1,0c-1.7,0-3.7,0.3-6,1c-3.6,1-6.7,2.3-9.4,4c-1.5,1-2.9,2.1-4.2,3.3c-1.3,1.3-2.5,2.7-3.4,4.2
				c-0.4,0.6-0.8,1.4-1.3,2.5l-1.2,2.5l-3.1,4.9l-1.3,2.3h4.7l1.5-2.6c0.7-1,1.2-1.8,1.5-2.5l1.2-2.5c0.5-1.1,0.9-1.9,1.2-2.5
				l0.9-1.4c1.2-1.5,2.4-2.7,3.8-3.8c1.6-1.2,3.5-2.3,5.5-3.2c2.6-1.1,5.1-1.8,7.4-2.2l7-0.1l2.9-0.3l4.5-1.2c2-0.6,3.4-1,4.5-1.2
				c4-0.9,6.8-1.6,8.4-2.1c2.1-0.7,3.9-1.5,5.5-2.5c1.2,0,2.4-0.1,3.7-0.4c1.3-0.3,2.9-0.8,4.8-1.6l4.7-1.8c1.3-0.4,3-0.8,5.1-1.1
				l9.9-0.7l5.2,0l5.2-0.3c2.4-0.3,5.1-1.1,8.1-2.5l7.7-3.6c5.6-2.3,12.4-4,20.2-5.1l5.5-0.6c2-0.1,3.9-0.1,5.6,0.1
				c1.7,0.3,3.5,0.7,5.5,1.3c1.5,0.5,3.3,1.2,5.3,2c1.8,0.8,4.6,2,8.2,3.7c1.7,0.8,3.2,1.4,4.5,1.9c1.6,0.6,3.2,0.9,4.7,1.1l5.2,0.1
				L274.4,161.9L274.4,161.9z"/>
			<path fill="#855531" d="M250.1,194.6c-0.4,0.4-0.6,0.8-0.5,1.4c0,0.7,0,1.4,0,2.2h4c0-0.7,0-1.4,0-2.2c0-0.6-0.3-1.1-0.7-1.4
				c-0.4-0.3-0.9-0.5-1.4-0.5C250.9,194.2,250.5,194.3,250.1,194.6L250.1,194.6z"/>
			<path fill="#855531" d="M205.7,181.9c0.4-0.7,0.4-1.4,0-2c-0.4-0.6-1-0.9-1.8-0.9c-0.7,0-1.2,0.3-1.6,0.9
				c-4.4,7-8.1,13.1-10.9,18.3h4.5C198.5,193.6,201.8,188.1,205.7,181.9L205.7,181.9z"/>
			<path fill="#855531" d="M195.9,198.2h-4.5c-0.2,0.4-0.4,0.7-0.6,1c-0.8,1.5-1.6,3-2.4,4.5l0,0.1c-2.9,5.5-5.3,10.7-7.3,15.6
				c-4.1,10-6.5,19.6-7.2,28.7h3.9c0.1-1.1,0.2-2.2,0.4-3.3c1.1-8.2,3.7-17,7.6-26.4c2.5-5.9,5.6-12.1,9.3-18.7
				C195.3,199.3,195.5,198.7,195.9,198.2L195.9,198.2z"/>
			<path fill="#855531" d="M301,198.2h-4c-0.4,2.9-1.1,6.8-2,11.6c-1.1,5.8-1.9,9.9-2.2,12.3c-0.7,4.8-1.2,9-1.2,12.7
				c0,1.7,0,3.7,0.1,6.1l0.4,7.3h4.1c0-0.7-0.1-1.5-0.1-2.3l-0.4-6.6c-0.2-4,0.1-8.6,0.8-13.8v-0.1c0.4-2.9,1.1-7.1,2.1-12.3
				c1.1-5.7,1.8-9.8,2.2-12.3C300.8,199.9,300.9,199,301,198.2L301,198.2z"/>
			<path fill="#855531" d="M253.6,198.2h-4c0,0.7-0.1,1.5-0.2,2.2c-0.4,2.9-1.4,6.6-3,11.2c-2,5.6-3.2,9.3-3.6,11
				c-2,7.9-3.6,16.3-4.7,25.1c0,0.1,0,0.3,0,0.5h4c0.1-0.7,0.1-1.4,0.3-2.1c1.2-8.4,2.8-16.6,4.8-24.4c0.4-1.5,1-3.4,1.8-5.6l2-5.6
				c1.5-4.5,2.4-8.3,2.6-11.5C253.5,198.7,253.6,198.5,253.6,198.2L253.6,198.2z"/>
			<path fill="#855531" d="M89.2,198.2h-4.7l-1.5,2.6c-1.1,1.9-2.1,3.5-3,4.7c-1.4,1.8-3.7,4.3-7,7.5c-3.2,3.2-5.5,5.8-6.9,7.5
				c-1.8,2.3-3.1,5.2-3.8,8.6c-0.5,2.3-0.8,5.5-0.9,9.5c-0.1,3.4,0.2,6.6,0.9,9.5h4.1c-0.3-1.1-0.5-2.2-0.7-3.3
				c-0.5-3.9-0.4-8.5,0.3-13.7c0.3-1.9,0.7-3.5,1.2-4.9c0.5-1,1.1-2,1.8-3c1.4-1.8,3.7-4.3,6.9-7.5c3.2-3.2,5.5-5.7,6.9-7.5
				c1-1.3,2.1-3,3.3-4.9L89.2,198.2L89.2,198.2z"/>
			<path fill="#855531" d="M77.4,231c-0.4,0.4-0.6,0.8-0.5,1.4c0.1,3.4-0.1,7.5-0.6,12.6l-0.3,3.2h3.9l0.6-5.8
				c0.4-3.8,0.5-7.1,0.4-10c0-0.6-0.3-1.1-0.7-1.4c-0.4-0.3-0.9-0.5-1.4-0.5S77.8,230.7,77.4,231L77.4,231z"/>
			<path fill="#855531" d="M140.2,203.3c-0.3-0.5-0.6-0.8-1.2-1l-0.5-0.1c-0.4,0-0.9,0.1-1.2,0.4c-0.4,0.3-0.6,0.6-0.7,1.1
				c-0.6,3.7-1.4,7.9-2.4,12.7l-2.6,12.7c-0.9,4.4-1.7,8.6-2.5,12.7l-1.1,6.4h4c0.5-3.2,1.2-6.7,1.9-10.4l6.4-33
				C140.5,204.2,140.5,203.7,140.2,203.3L140.2,203.3z"/>
			<path fill="#855531" d="M177.7,248.2h-3.9c-0.4,5.4-0.3,10.5,0.4,15.5c0.9,6.7,3,12.9,6.1,18.7c1,1.8,2,3.4,3.1,5
				c-2,3.3-3.9,6.3-5.9,8.9c-0.5,0.7-1,1.3-1.5,1.9h5c0.9-1.2,1.8-2.5,2.7-3.8l2.3-3.6c2.2,2.5,4.6,4.7,7.2,6.5l1.5,1h12.2
				c-2.8-0.5-5.4-1.2-7.7-2.1c-1.8-0.8-3.6-1.9-5.3-3.2c-2.2-1.8-4.3-3.9-6.3-6.4c-2.5-3.3-4.6-6.9-6.3-10.9
				c-1.6-4-2.8-8.3-3.4-12.9C177.4,258,177.3,253.2,177.7,248.2L177.7,248.2z"/>
			<path fill="#855531" d="M132.1,248.2h-4l-1,5.7l-2.6,11.5c-1,4.5-1.5,8.4-1.7,11.7c-0.2,3.2,0.1,6.4,0.7,9.8
				c0.5,2.9,1.3,5.7,2.4,8.5l-1.4,1.2c-0.7,0.5-1.5,1.1-2.4,1.5h9.4c-0.4-0.7-0.7-1.4-1.1-2.1l0.5-0.9c0.3-0.5,0.4-1,0.2-1.5
				c-0.1-0.5-0.4-0.8-0.9-1.1c-0.4-0.2-0.8-0.3-1.2-0.3c-0.9-2.7-1.5-5.6-2-8.7c-0.4-3.1-0.3-6.6,0.2-10.5c0.4-2.7,1.1-6.4,2.3-11.3
				c1.2-5.2,2-8.9,2.4-11.3C131.9,249.8,132,249,132.1,248.2L132.1,248.2z"/>
			<path fill="#855531" d="M131.4,298.2H122c-0.7,0.4-1.3,0.7-2,1c-2.5,1-5.2,1.7-8.2,2.2c-3.1,0.4-5.9,0.4-8.6,0.1
				c-2-0.3-4.1-0.9-6.2-1.8c-1-0.4-2-1-3-1.5H87c0.2,0.1,0.4,0.3,0.5,0.4c2.6,2.1,5.4,3.7,8.3,4.9c3.1,1.2,6.2,1.9,9.4,2.1l7.2-0.3
				c2.4-0.4,4.8-0.9,7-1.7c3.2-1.1,5.9-2.6,8-4.3c2.3,4.4,5.4,7.8,9.4,10.2c2.7,1.7,5.8,2.9,9,3.8c3.3,0.9,6.6,1.2,9.7,1
				c2.1-0.1,4.1-0.5,6.2-1.1c0.2,0.3,0.5,0.6,0.9,0.8l0.3,0.1h0c1.9,0.8,3.7,1.9,5.5,3.3l4.9,4.4c-0.1,1.2-0.2,2.5-0.1,3.8
				c0.1,1.6,0.3,3.1,0.7,4.4c0.5,1.6,1.3,2.8,2.4,3.8c0.8,0.7,1.9,1.4,3.2,1.8c0.8,0.3,2,0.7,3.5,1c3.3,0.8,6.3,1.2,9.1,1.2l6.2-0.2
				l2.9,0.1c1.6,0.2,3.5,0.7,5.7,1.3l16.9,4.9c4.5,1.2,8.4,2.2,11.8,2.8c4.3,0.8,8.3,1.3,12,1.5c3.7,0.2,7.4,0,10.9-0.6
				c3.7-0.6,7.2-1.6,10.5-3.1c6.1-2.7,10.8-7.4,14-14c0.1-0.2,0.2-0.4,0.3-0.6c1.5-3.3,2.6-6.6,3.2-10.1c0.7-3.7,0.8-7.5,0.4-11.3
				c-0.4-3.7-1.2-7.1-2.4-10.2H280c0.1,0.2,0.2,0.5,0.3,0.7c1.1,2.7,1.9,5.6,2.3,8.7c0.4,3.4,0.5,6.7,0.1,9.9
				c-0.4,3.1-1.3,6.2-2.6,9.3c-0.5,1.1-0.9,2.1-1.4,3c-0.8,1.6-1.7,3-2.6,4.2c-1.1,1.4-2.4,2.7-3.9,3.8c-1.7,1.3-3.6,2.4-5.7,3.3
				c-3.1,1.3-6.5,2.2-10.3,2.7c-4.4,0.6-9.3,0.5-14.7-0.2c-3.5-0.5-7.4-1.2-11.6-2.3c-2.8-0.7-6.6-1.7-11.4-3.1l-11.3-3.3
				c-2.1-0.6-4.1-1-6.2-1.3l-3.1-0.1l-3,0.1c-2.8,0.1-5.2,0.1-7.2-0.2c-2.9-0.4-5.4-1-7.3-1.8l-1.4-0.8l-0.7-0.7l-0.6-1
				c-0.3-0.7-0.5-1.5-0.7-2.5c-0.1-1.4-0.1-3,0.1-4.8c0.1-0.3,0.2-0.5,0.3-0.8l0-0.6c0.1-0.7,0.3-1.3,0.6-1.9
				c0.5-1.1,1.1-2.1,1.9-3.2c1.3-1.6,3.1-3.4,5.6-5.4l2.8-2.3c1.1-1,2.1-1.8,2.8-2.3c1.9-1.4,3.6-2.5,5.1-3.2
				c0.9-0.4,1.8-0.6,2.6-0.7c0.6-0.1,1.1-0.1,1.7,0c0.5,0,0.9-0.1,1.2-0.3l1,0.3c3.2,0.8,6.7,1.3,10.3,1.3c3.9,0,7.4-0.6,10.7-1.8
				c1.8-0.7,3.6-1.6,5.4-2.7h-10.4c-0.5,0.1-1,0.2-1.5,0.3c-2.8,0.4-5.8,0.3-8.8,0c-0.4-0.1-0.9-0.1-1.3-0.2h-12.2l0.2,0.1
				c-1.3,0.5-2.7,1.2-4.1,2.2c-1.2,0.8-2.5,1.9-4.1,3.2L183,307c-1.7,1.4-3,2.6-3.9,3.5c-1.4,1.4-2.5,2.7-3.3,4.1
				c-0.5,0.8-1,1.7-1.4,2.7l-3.5-3c-1.5-1.2-3.1-2.2-4.6-3c1.9-1,3.7-2.2,5.6-3.6c3.2-2.4,6.2-5.6,9.2-9.5h-5
				c-2.2,2.6-4.4,4.7-6.7,6.5c-2,1.5-4.1,2.8-6.3,3.7c-1.9,0.8-3.9,1.3-5.9,1.6c-2.1,0.3-4.3,0.3-6.6,0c-2.8-0.4-5.6-1.2-8.4-2.3
				c-2-0.9-3.8-1.9-5.4-3.1c-1.3-1-2.5-2.2-3.6-3.6C132.5,300.1,131.9,299.2,131.4,298.2L131.4,298.2z"/>
			<path fill="#855531" d="M79.8,248.2h-3.9l-1,9.4c-0.2,2.4-0.2,4.8-0.1,7.2c-0.4-0.7-0.8-1.5-1.3-2.3l-1.9-3.8
				c-0.4-0.7-1.1-1.9-2.2-3.6c-1-1.5-1.7-2.7-2.1-3.7c-0.4-1-0.7-2.1-1-3.2h-4.1c0.8,3.6,2.2,6.8,4.1,9.5c0.8,1.1,1.6,2.6,2.6,4.7
				c1.1,2.3,1.9,3.9,2.5,4.8l2.1,3.1c0.8,1.2,1.5,2.3,1.9,3.2l0.1,0.2l0.7,3.9v1.1c0,0.6,0.2,1.1,0.6,1.4l0.3,1.4
				c0.6,2.2,1.1,3.9,1.5,5.1c0.7,1.9,1.4,3.5,2.2,4.9c1.5,2.5,3.5,4.7,6,6.8H94c-1.2-0.7-2.4-1.5-3.6-2.3c-1.8-1.4-3.3-2.9-4.7-4.6
				c-1-1.4-1.8-2.8-2.5-4.1c-1.2-2.8-2.1-6.1-2.9-9.8c-0.1-1.7-0.4-3.3-0.9-4.8l-0.3-1.8c-0.3-2.9-0.5-5.9-0.4-9.1
				c0-2.8,0.2-5.9,0.6-9.3L79.8,248.2L79.8,248.2z"/>
			<path fill="#855531" d="M296.1,248.2h-4.1l0.2,4.6c0,2.1-0.1,4-0.4,5.8c-0.3,1.9-0.7,3.8-1.4,5.8c-0.5,1.6-1.2,3.5-2.1,5.6
				l-2.1,4.5c-0.8,1.5-1.7,2.9-2.6,4.2c-1.9,2.4-4.3,4.8-7.1,7c-2.5,1.9-5.1,3.4-7.7,4.5c-2.3,0.9-4.6,1.6-7,1.9
				c-2.3,0.3-4.7,0.3-7,0c-1.6-0.2-3.4-0.6-5.2-1.2c-1.5-0.5-3.2-1.1-5-1.9c-1.8-0.7-3.2-1.5-4.4-2.3c1.2-2.5,1.7-4.9,1.4-7.2
				c-0.1-0.6-0.3-1.1-0.6-1.4c-0.2-0.2-0.5-0.4-0.8-0.5c-0.1-9.9,0.5-19.7,1.7-29.3h-4c-1.4,11.5-1.9,23.3-1.5,35.4
				c0,0.3,0.1,0.6,0.3,0.9c-0.6,1.1-1.3,2.3-2.1,3.4c-1.6,2-3.5,3.8-5.6,5.5c-1.9,1.4-3.7,2.5-5.5,3.3c-1.5,0.6-3.2,1.1-4.9,1.4
				h10.4c1.1-0.7,2.2-1.5,3.3-2.4c2.3-1.9,4.3-3.9,5.8-5.9c1,0.7,2.2,1.3,3.4,1.9c1.3,0.6,3.1,1.4,5.6,2.3c3.6,1.3,7.2,2,10.9,2.1
				c3.4,0.1,6.9-0.5,10.3-1.7c2.4-0.8,4.8-2,7-3.4l1.5,1.7c1.1,1.5,2.2,3.3,3.1,5.4h4.3c0-0.1,0-0.1-0.1-0.2
				c-1.4-3.6-3.2-6.6-5.5-9.1l0,0c5.4-4.1,9.4-8.8,12-14.3c1.9-4,3.3-7.5,4.1-10.4c1-3.4,1.4-7.3,1.4-11.7
				C296.2,251.3,296.2,249.8,296.1,248.2L296.1,248.2z"/>
			<path fill="#FEE1C6" d="M279.4,161.9c-1.4-0.1-3-0.2-5,0l-10.2,0.7l-5.2-0.1c-1.5-0.2-3.1-0.5-4.7-1.1c-1.3-0.4-2.8-1.1-4.5-1.9
				c-3.6-1.7-6.4-3-8.2-3.7c-2-0.8-3.8-1.5-5.3-2c-1.9-0.6-3.7-1.1-5.5-1.3c-1.7-0.2-3.5-0.3-5.6-0.1l-5.5,0.6
				c-7.8,1.1-14.5,2.8-20.2,5.1l-7.7,3.6c-3,1.3-5.8,2.2-8.1,2.5l-5.2,0.3l-5.2,0l-9.9,0.7c-2.2,0.3-3.9,0.7-5.1,1.1l-4.7,1.8
				c-1.9,0.8-3.5,1.3-4.8,1.6c-1.3,0.3-2.5,0.4-3.7,0.4c-1.6,1-3.4,1.8-5.5,2.5c-1.6,0.5-4.4,1.2-8.4,2.1c-1,0.2-2.5,0.6-4.5,1.2
				l-4.5,1.2l-2.9,0.3l-7,0.1c-2.4,0.4-4.8,1.1-7.4,2.2c-2.1,0.9-3.9,1.9-5.5,3.2c-1.4,1.1-2.7,2.3-3.8,3.8l-0.9,1.4
				c-0.3,0.6-0.7,1.4-1.2,2.5l-1.2,2.5c-0.3,0.7-0.8,1.5-1.5,2.5l-4.5,7.7c-1.2,2-2.2,3.6-3.3,4.9c-1.4,1.8-3.7,4.3-6.9,7.5
				c-3.2,3.2-5.5,5.7-6.9,7.5c-0.7,1-1.4,2-1.8,3c-0.5,1.4-0.9,3-1.2,4.9c0,0,0,0.1,0,0.1h11.2c0.1-0.1,0.1-0.2,0.2-0.3
				c0.4-0.3,0.8-0.5,1.3-0.5s1,0.2,1.4,0.5c0.1,0.1,0.2,0.2,0.3,0.3h50.9c0.1-0.7,0.3-1.4,0.4-2.1l2.6-12.7c1-4.8,1.8-9.1,2.4-12.7
				c0.1-0.4,0.3-0.8,0.7-1.1c0.4-0.3,0.8-0.4,1.2-0.4l0.5,0.1c0.5,0.1,0.9,0.5,1.2,1c0.2,0.4,0.3,0.9,0.2,1.5l-5.1,26.5H177
				c1.1-3.8,2.4-7.8,4.1-11.8c2-5,4.4-10.2,7.3-15.6l0-0.1c0.8-1.5,1.6-3,2.4-4.5c3-5.4,6.8-11.9,11.5-19.3c0.4-0.6,0.9-0.9,1.6-0.9
				c0.7,0,1.3,0.3,1.8,0.9c0.4,0.7,0.5,1.3,0,2c-4.4,7-8,12.9-10.7,17.9c-3.7,6.6-6.8,12.8-9.3,18.7c-1.8,4.4-3.4,8.6-4.6,12.7h59.7
				c0.6-2.9,1.3-5.8,2-8.6c0.4-1.8,1.6-5.4,3.6-11c1.6-4.5,2.6-8.3,3-11.2c0.2-1.5,0.2-3,0.2-4.4c0-0.6,0.1-1.1,0.5-1.4
				c0.4-0.3,0.8-0.5,1.3-0.5c0.5,0,1,0.1,1.4,0.5c0.4,0.4,0.7,0.8,0.7,1.4c0.1,1.1,0,2.1,0,3c-0.2,3.2-1.1,7-2.6,11.5l-2,5.6
				c-0.8,2.2-1.4,4.1-1.8,5.6c-0.8,3.1-1.6,6.3-2.3,9.5h46.9c0.2-2.8,0.5-5.8,1.1-9.1c0.4-2.5,1.1-6.6,2.2-12.3
				c1-5.3,1.7-9.4,2.1-12.4c0.3-2.5,0.5-4.8,0.6-6.8c0.1-2.4,0-4.7-0.2-6.8c-0.4-2.6-1-5.1-2-7.4c-1-2.3-2.3-4.5-3.9-6.7l-1.2-1.4
				l-0.6-0.1c-1.1-0.4-2.2-1.1-3.4-2.1l-3-2.7c-0.4-0.3-0.9-0.6-1.5-0.9C281.1,162.2,280.2,162,279.4,161.9L279.4,161.9z"/>
			<path fill="#FEE1C6" d="M291.8,231.2h-46.9c-1,4.9-1.9,9.8-2.6,14.9c-1.4,10.3-2,20.7-1.9,31.4c0.3,0.1,0.5,0.2,0.8,0.5
				c0.3,0.4,0.5,0.8,0.6,1.4c0.3,2.3-0.2,4.7-1.4,7.2c1.2,0.8,2.7,1.6,4.4,2.3c1.8,0.8,3.5,1.4,5,1.9c1.8,0.6,3.5,1,5.2,1.2
				c2.4,0.3,4.7,0.3,7,0c2.4-0.4,4.7-1,7-1.9c2.6-1.2,5.2-2.7,7.7-4.5c2.8-2.2,5.2-4.5,7.1-7c0.9-1.2,1.8-2.6,2.6-4.2l2.1-4.5
				c0.9-2.1,1.6-4,2.1-5.6c0.6-2,1.1-4,1.4-5.8c0.2-1.8,0.3-3.7,0.4-5.8l-0.6-11.8c-0.1-2.3-0.2-4.4-0.1-6.1
				C291.6,233.7,291.7,232.5,291.8,231.2L291.8,231.2z"/>
			<path fill="#FEE1C6" d="M77.2,231.2H66c-0.7,5.2-0.8,9.8-0.3,13.6c0.4,2.3,0.9,4.5,1.7,6.5c0.4,0.9,1.1,2.2,2.1,3.7
				c1.1,1.6,1.8,2.8,2.2,3.6l1.9,3.8c0.4,0.9,0.9,1.6,1.3,2.3c-0.1-2.4,0-4.8,0.1-7.2l1.3-12.6c0.5-5.1,0.7-9.2,0.6-12.6
				C76.8,231.9,76.9,231.5,77.2,231.2L77.2,231.2z"/>
			<path fill="#FEE1C6" d="M177,231.2h-41.7l-1.3,6.6c-0.9,4.7-1.7,8.9-2.3,12.8c-0.4,2.3-1.2,6.1-2.4,11.3
				c-1.1,4.8-1.9,8.6-2.3,11.3c-0.5,3.9-0.6,7.4-0.2,10.5c0.4,3.1,1.1,6,2,8.7c0.4,0,0.8,0.1,1.2,0.3c0.5,0.3,0.8,0.6,0.9,1.1
				c0.2,0.5,0.1,1-0.2,1.5l-0.5,0.9c0.8,1.8,1.8,3.5,2.9,4.9c1.1,1.4,2.3,2.6,3.6,3.6c1.6,1.2,3.4,2.2,5.4,3.1
				c2.8,1.2,5.6,1.9,8.4,2.3c2.3,0.3,4.4,0.3,6.6,0c2-0.3,4-0.9,5.9-1.6c2.2-0.9,4.3-2.2,6.3-3.7c2.8-2.2,5.5-5,8.2-8.4
				c2-2.6,4-5.5,5.9-8.9c-1.1-1.6-2.2-3.2-3.1-5c-3.2-5.8-5.2-12-6.1-18.7C172.8,253.6,173.7,242.8,177,231.2L177,231.2z"/>
			<path fill="#FEE1C6" d="M131.3,231.2H80.4c0.3,0.3,0.4,0.7,0.4,1.2c0.1,2.8,0,6.2-0.4,10l-1.1,9.9c-0.4,3.4-0.6,6.5-0.6,9.3
				c-0.1,3.2,0.1,6.2,0.4,9.1l0.3,1.8c0.5,1.5,0.8,3.1,0.9,4.8c0.8,3.7,1.7,7,2.9,9.8c0.6,1.4,1.4,2.8,2.5,4.1
				c1.3,1.6,2.9,3.2,4.7,4.6c2.1,1.5,4.3,2.8,6.6,3.8c2.1,0.9,4.2,1.4,6.2,1.8c2.6,0.3,5.5,0.3,8.6-0.1c3-0.4,5.7-1.1,8.2-2.2
				c1.7-0.7,3.2-1.6,4.4-2.5l1.4-1.2c-1.1-2.8-1.8-5.6-2.4-8.5c-0.6-3.4-0.8-6.6-0.7-9.8c0.2-3.3,0.8-7.2,1.7-11.7l2.6-11.5
				l2.2-12.1C129.9,238.4,130.5,234.9,131.3,231.2L131.3,231.2z"/>
			<path fill="#FEE1C6" d="M178.1,244.9c-0.8,6.2-0.8,12.1-0.1,17.8c0.7,4.6,1.8,8.9,3.4,12.9c1.7,4,3.8,7.6,6.3,10.9
				c2,2.5,4.1,4.7,6.3,6.4c1.7,1.3,3.5,2.4,5.3,3.2c2.7,1.1,5.7,1.8,9,2.3c3,0.4,6,0.4,8.8,0c2.3-0.3,4.4-0.9,6.4-1.7
				c1.8-0.8,3.6-1.9,5.5-3.3c2.1-1.7,4-3.5,5.6-5.5c0.8-1.1,1.5-2.3,2.1-3.4c-0.1-0.3-0.2-0.6-0.3-0.9c-0.4-12.3,0.1-24.3,1.6-35.9
				c0.7-5.7,1.6-11.2,2.7-16.5h-59.7C179.7,235.9,178.7,240.5,178.1,244.9L178.1,244.9z"/>
			<path fill="#FEE1C6" d="M186.1,290.8l-2.3,3.6c-3.8,5.6-7.7,10.1-11.9,13.3c-1.8,1.4-3.7,2.6-5.6,3.6c1.5,0.8,3,1.8,4.6,3l3.5,3
				c0.4-1,0.8-1.9,1.4-2.7c0.9-1.4,2-2.7,3.3-4.1c0.9-0.9,2.2-2.1,3.9-3.5l3.8-3.3c1.6-1.4,3-2.4,4.1-3.2c1.4-0.9,2.8-1.6,4.1-2.2
				l-1.8-1.1C190.7,295.4,188.3,293.3,186.1,290.8L186.1,290.8z"/>
			<path fill="#FEE1C6" d="M241.6,291.9c-1.3-0.6-2.4-1.2-3.4-1.9c-1.5,2-3.4,4-5.8,5.9c-2.9,2.3-5.8,4.1-8.7,5.1
				c-3.3,1.2-6.9,1.8-10.7,1.8c-3.6,0-7-0.5-10.3-1.3l-1-0.3c-0.3,0.2-0.7,0.3-1.2,0.3c-0.5-0.1-1.1,0-1.7,0
				c-0.8,0.1-1.6,0.4-2.6,0.7c-1.5,0.7-3.2,1.8-5.1,3.2c-0.7,0.6-1.6,1.3-2.8,2.3l-2.8,2.3c-2.4,2-4.3,3.8-5.6,5.4
				c-0.8,1.1-1.4,2.1-1.9,3.2c-0.3,0.6-0.4,1.3-0.6,1.9l0,0.6c0,0.3-0.1,0.6-0.3,0.8c-0.2,1.8-0.2,3.4-0.1,4.8
				c0.2,1,0.4,1.8,0.7,2.5l0.6,1l0.7,0.7l1.4,0.8c1.9,0.8,4.4,1.4,7.3,1.8c1.9,0.2,4.3,0.3,7.2,0.2l3-0.1l3.1,0.1
				c2,0.3,4.1,0.7,6.2,1.3l11.3,3.3c4.8,1.4,8.6,2.4,11.4,3.1c4.2,1.1,8.1,1.8,11.6,2.3c5.4,0.7,10.3,0.8,14.7,0.2
				c3.8-0.5,7.2-1.4,10.3-2.7c2.1-0.9,4-2,5.7-3.3c1.5-1.1,2.7-2.4,3.9-3.8c0.9-1.2,1.8-2.6,2.6-4.2c0.5-0.9,1-1.9,1.4-3
				c1.3-3.1,2.1-6.2,2.6-9.3c0.4-3.2,0.4-6.5-0.1-9.9c-0.4-3.1-1.2-6-2.3-8.7c-1-2.3-2.2-4.4-3.5-6.1l-1.5-1.7
				c-2.3,1.4-4.6,2.5-7,3.4c-3.4,1.2-6.8,1.8-10.3,1.7c-3.7-0.1-7.4-0.7-10.9-2.1C244.8,293.3,242.9,292.5,241.6,291.9L241.6,291.9z
				"/>
			<path fill="#FDC18C" d="M187.7,209.3c-2.1,4.3-3.5,7.5-4.4,9.6c-3.1,7.4-4.9,13.9-5.5,19.2l-1.3,11.3c0,0.4-0.1,3.1-0.1,8.2
				c0,2.5,0.5,5.8,1.5,10c1.2,5.2,2.9,10.1,5,14.5c2.7,5.5,5.8,9.9,9.3,13c4.3,3.7,9.1,5.6,14.5,5.6c2.4,0,4-0.4,4.7-1.3
				c0.7-0.8,0.6-1.4-0.1-1.6l-13.2-5.2c-2.1-0.9-3.6-2-4.6-3.5c-2.7-3.8-4.8-7.3-6.2-10.4c-2.9-6.2-4.5-10.1-4.9-11.5
				c-0.3-1.1-0.5-2.4-0.6-3.9c0-0.9-0.1-2.7-0.1-5.6c0-15.8,3.9-32,11.8-48.3c1.7-3.5,4.4-8.5,8.1-15.1c2.5-4.3,3.7-7,3.7-8.1
				c0-3.8-1.2-4.7-3.5-2.5c-1.7,1.6-3.2,3.6-4.5,6.1l-2.6,4.9c-1,1.9-1.7,3.5-2.2,4.7C191.3,201.7,189.8,205,187.7,209.3
				L187.7,209.3z"/>
			<path fill="#FDC18C" d="M248.9,209.7c-1,2.4-1.9,5.5-2.8,9.1c-0.3,3-0.7,5.9-1.3,8.9c-0.4,2.6-1.1,5.7-1.8,9.3
				c-1.8,8.2-3,14.4-3.6,18.7c-0.8,5.8-1.3,11.8-1.3,18L238,277c0,2.3,0.2,4.3,0.7,6.1c1.4,5.7,4.7,8.6,9.9,8.6c1.2,0,2.1-0.3,2.6-1
				c0.3-0.4,0.5-1,0.5-1.6v0l-4.2-3.8c-2.8-2.1-4.2-5.9-4.2-11.2c0-4.3,0.6-9.7,1.7-16.5c1.4-7.5,2.3-13,2.8-16.5l1-8.1
				c0.3-3.2,0.3-5.3,0-6.1c-0.3-0.8,0.1-7.2,1.3-19.2C249.5,208.5,249.1,209.2,248.9,209.7L248.9,209.7z"/>
			<path fill="#FDC18C" d="M140.6,206.6c-2.3-1.2-3.6-0.3-3.9,2.9c-0.5,7-1.4,13.9-2.7,20.8c-1.7,9-4.9,20.7-9.5,35.1
				c2,1.8,2.4,6.3,1.4,13.5c-1.6,10.6,1.4,19.6,8.9,27.2c1.5,1.5,3.2,2.7,5.1,3.6c5.9,2.7,11.8,2.9,17.8,0.8l-4.3-0.5
				c-10.5-2-17.4-8-20.8-17.8c-2.4-7-2.9-14.1-1.4-21.5c2.1-10.6,4.6-21.2,7.3-31.7C141.3,227.9,142,217.1,140.6,206.6L140.6,206.6z
				"/>
			<path fill="#FDC18C" d="M109.5,302.4h0.4c-3.1-0.3-6.6-1-10.6-2.1c-9.1-2.5-14.2-9.5-15.2-20.9c-1.1-11.5-1.3-20.5-0.7-27
				c0.6-6.5,0.9-11.4,0.9-14.7c0-1.4-0.3-2.3-0.9-2.7c-0.5-0.3-1.2-0.2-1.9,0.3c-0.7,0.5-1.4,1.3-1.9,2.3c-0.6,1.1-0.9,2.3-0.9,3.4
				c0,2.8-0.1,5.9-0.4,9.4c-0.4,4.6-0.7,7.9-0.8,9.9c-0.1,1.8-0.1,4.8-0.1,8.9c0,3.7,0,5.8,0.1,6.3c0.3,4.2,1.3,7.9,2.8,11.3
				C84.9,297.2,94.7,302.4,109.5,302.4L109.5,302.4z"/>
			<path fill="#FDC18C" d="M282,301.2l-0.2-0.3c-0.4-0.6-0.9-1-1.4-1.3c-0.1,10.6-2.2,20.6-6.3,30.3c-0.2,0.5-0.4,1-0.7,1.5
				c-1.2,2.7-7.5,5.6-19,8.6c-11.5,3-24.5,2.4-39.2-1.8c-14.6-4.2-20.4-5.8-17.2-4.7c22.8,10.5,44.9,14.7,66.1,12.8
				c3.4-4.5,6.1-7,8.1-7.7c5-1.6,8.5-4.5,10.6-8.7c1.1-2.3,1.8-5,2-8.1C285.2,314.6,284.3,307.7,282,301.2L282,301.2z"/>
			<path fill="#FDC18C" d="M294.5,169.9c0.3-0.5,0.5-1.1,0.5-1.6c0-1-2.4-3-7.3-5.9c-4.1-2.4-6.7-3.8-7.8-4.3h-13.2
				c-5.9,0.1-10.6-0.4-13.9-1.4c-0.9-0.3-2.2-0.8-3.9-1.5c-1.7-0.7-3.1-1.2-4.3-1.6c-1-0.3-2.3-1-4.2-1.9c-1.8-1-3.3-1.6-4.6-2.1
				c-4.3-1.3-10.3-1.2-18.1,0.4c-4.7,1-10.4,3-17.3,6l-7.9,3.5c-2.9,1.2-5.6,2.2-8,2.8l-13.9,0.2l-12.9,2.1
				c-7,1.1-11.1,1.9-12.2,2.5c-1.7,0.9-4.8,2-9.3,3.4l-9.2,2.9l-14.6,0.2c-4.7,0.7-9.4,2.9-14.3,6.9c-2,1.6-3.6,3.2-4.9,4.9
				c-1.2,1.6-1.9,2.9-1.9,3.9l0,0.5c0,0.4,0.1,0.8,0.2,1.1c0.4,1,1.1,1.5,2.2,1.6l6.4-6.9c1-1,3-2.2,6-3.7c3-1.5,5.5-2.5,7.4-2.9
				l14.1-0.1c7.9-2.6,14-4.5,18.3-5.6c6.5-1.7,15-3.5,25.5-5.4l13.5-0.1l5.7-2.4c4.2-1.8,7.8-3.3,10.8-4.5c10.9-4.2,19.6-6.3,26-6.3
				c3,0,6,0.5,8.9,1.4c1.5,0.5,4.1,1.5,7.7,3.1c3.3,1.4,6.1,2.5,8.3,3.1c3.4,0.9,7,1.4,10.7,1.4l4.9-0.3l11.2,0.1l6.2,3.9
				c3.7,2.3,6.1,3.5,7.2,3.5C293.3,171,294,170.6,294.5,169.9L294.5,169.9z"/>
			<path fill="#FDCC9F" d="M205.8,312.6c-0.5,2-0.7,4-0.7,6c0.1,3.5-0.3,7-1,10.6c0.1,0.1,0.6-0.2,1.2-1c0.7-0.8,1-2.9,1.2-6.4
				C206.7,318.4,206.5,315.3,205.8,312.6L205.8,312.6z"/>
			<path fill="#FDCC9F" d="M203.6,308.9c-2.4-0.8-4.8-0.6-7.3,0.5l-3.1,1.3c-2.3,0.8-4.4,1.9-6.4,3.3c-1.9,1.3-3.1,3-3.6,5.2
				c-0.3,1.3-0.2,2.6,0.3,3.9c0.1-2.4,1-4.4,2.6-6.1c1.1-1.2,2.4-2.1,4-2.6c3.6-1.2,7.1-2.6,10.4-4.2L203.6,308.9L203.6,308.9z"/>
			<path fill="#FDCC9F" d="M194.4,331.2c2.7,0.5,5.5,0.8,8.5,0.9c-3.9-1.1-7.9-1.8-12-2.3c-1.7-0.2-3.4-0.3-5.2-0.4
				c0,0.1,0,0.3,0.1,0.4c0.2,0.5,1,0.7,2.2,0.7C189.6,330.5,191.7,330.7,194.4,331.2L194.4,331.2z"/>
			<path fill="#231F20" d="M274.4,161.9c2-0.1,3.7-0.1,5,0c0.8,0.1,1.7,0.4,2.6,0.7c0.5,0.3,1,0.5,1.5,0.9l3,2.7
				c1.2,1,2.3,1.7,3.4,2.1l0.6,0.1l1.2,1.4c1.6,2.1,2.9,4.4,3.9,6.7c1,2.3,1.6,4.8,2,7.4c0.3,2.1,0.3,4.4,0.2,6.8
				c-0.1,2-0.3,4.3-0.6,6.8c0,0.2-0.1,0.5-0.1,0.8h4c0.4-3.1,0.6-5.8,0.7-8.1c0.1-3.9-0.2-7.4-1-10.6c-1.6-6.6-5.6-12.7-12-18.4
				c-0.4-0.3-0.8-0.5-1.3-0.5c-0.4,0-0.8,0.1-1.1,0.3l-1.7-1.3c-2.1-1.2-4.8-1.8-8.1-1.6l-13.1,0.8l-4.3-0.1
				c-1.7-0.3-3.6-0.8-5.5-1.6c-5-2.3-8.8-4-11.3-5.1c-4.4-1.9-8.4-3-11.9-3.4l-3.1-0.2l-5.4,0.4l-5.3,0.8c-4.4,0.7-8.9,1.8-13.5,3.2
				c-1.9,0.6-4.1,1.5-6.7,2.6l-6.6,3c-2.4,1-4.7,1.7-6.9,2l-3.3,0.2l-6.3,0.1c-4.1,0.1-7.7,0.4-10.7,0.8c-2.7,0.4-5.4,1.1-8.3,2.3
				l-3.7,1.5l-5.4,1.7c-0.9,0.4-1.8,0.7-2.7,0.9l-2.5,0.6c-1.2,0.5-2.6,0.9-4.2,1.3l-4.9,1.1c-2.3,0.5-3.9,0.9-5,1.2l-5.8,1.6
				c-0.9,0.1-2.1,0.1-3.7,0.1l-2.1,0c-1.7,0-3.7,0.3-6,1c-3.6,1-6.7,2.3-9.4,4c-1.5,1-2.9,2.1-4.2,3.3c-1.3,1.3-2.5,2.7-3.4,4.2
				c-0.4,0.6-0.8,1.4-1.3,2.5l-1.2,2.5l-3.1,4.9l-1.3,2.3h4.7l1.5-2.6c0.7-1,1.2-1.8,1.5-2.5l1.2-2.5c0.5-1.1,0.9-1.9,1.2-2.5
				l0.9-1.4c1.2-1.5,2.4-2.7,3.8-3.8c1.6-1.2,3.5-2.3,5.5-3.2c2.6-1.1,5.1-1.8,7.4-2.2l7-0.1l2.9-0.3l4.5-1.2c2-0.6,3.4-1,4.5-1.2
				c4-0.9,6.8-1.6,8.4-2.1c2.1-0.7,3.9-1.5,5.5-2.5c1.2,0,2.4-0.1,3.7-0.4c1.3-0.3,2.9-0.8,4.8-1.6l4.7-1.8c1.3-0.4,3-0.8,5.1-1.1
				l9.9-0.7l5.2,0l5.2-0.3c2.4-0.3,5.1-1.1,8.1-2.5l7.7-3.6c5.6-2.3,12.4-4,20.2-5.1l5.5-0.6c2-0.1,3.9-0.1,5.6,0.1
				c1.7,0.3,3.5,0.7,5.5,1.3c1.5,0.5,3.3,1.2,5.3,2c1.8,0.8,4.6,2,8.2,3.7c1.7,0.8,3.2,1.4,4.5,1.9c1.6,0.6,3.2,0.9,4.7,1.1l5.2,0.1
				L274.4,161.9L274.4,161.9z"/>
			<path fill="#855531" d="M250.1,194.6c-0.4,0.4-0.6,0.8-0.5,1.4c0,0.7,0,1.4,0,2.2h4c0-0.7,0-1.4,0-2.2c0-0.6-0.3-1.1-0.7-1.4
				c-0.4-0.3-0.9-0.5-1.4-0.5C250.9,194.2,250.5,194.3,250.1,194.6L250.1,194.6z"/>
			<path fill="#231F20" d="M205.7,181.9c0.4-0.7,0.4-1.4,0-2c-0.4-0.6-1-0.9-1.8-0.9c-0.7,0-1.2,0.3-1.6,0.9
				c-4.4,7-8.1,13.1-10.9,18.3h4.5C198.5,193.6,201.8,188.1,205.7,181.9L205.7,181.9z"/>
			<path fill="#231F20" d="M195.9,198.2h-4.5c-0.2,0.4-0.4,0.7-0.6,1c-0.8,1.5-1.6,3-2.4,4.5l0,0.1c-2.9,5.5-5.3,10.7-7.3,15.6
				c-4.1,10-6.5,19.6-7.2,28.7h3.9c0.1-1.1,0.2-2.2,0.4-3.3c1.1-8.2,3.7-17,7.6-26.4c2.5-5.9,5.6-12.1,9.3-18.7
				C195.3,199.3,195.5,198.7,195.9,198.2L195.9,198.2z"/>
			<path fill="#231F20" d="M301,198.2h-4c-0.4,2.9-1.1,6.8-2,11.6c-1.1,5.8-1.9,9.9-2.2,12.3c-0.7,4.8-1.2,9-1.2,12.7
				c0,1.7,0,3.7,0.1,6.1l0.4,7.3h4.1c0-0.7-0.1-1.5-0.1-2.3l-0.4-6.6c-0.2-4,0.1-8.6,0.8-13.8v-0.1c0.4-2.9,1.1-7.1,2.1-12.3
				c1.1-5.7,1.8-9.8,2.2-12.3C300.8,199.9,300.9,199,301,198.2L301,198.2z"/>
			<path fill="#231F20" d="M253.6,198.2h-4c0,0.7-0.1,1.5-0.2,2.2c-0.4,2.9-1.4,6.6-3,11.2c-2,5.6-3.2,9.3-3.6,11
				c-2,7.9-3.6,16.3-4.7,25.1c0,0.1,0,0.3,0,0.5h4c0.1-0.7,0.1-1.4,0.3-2.1c1.2-8.4,2.8-16.6,4.8-24.4c0.4-1.5,1-3.4,1.8-5.6l2-5.6
				c1.5-4.5,2.4-8.3,2.6-11.5C253.5,198.7,253.6,198.5,253.6,198.2L253.6,198.2z"/>
			<path fill="#231F20" d="M89.2,198.2h-4.7l-1.5,2.6c-1.1,1.9-2.1,3.5-3,4.7c-1.4,1.8-3.7,4.3-7,7.5c-3.2,3.2-5.5,5.8-6.9,7.5
				c-1.8,2.3-3.1,5.2-3.8,8.6c-0.5,2.3-0.8,5.5-0.9,9.5c-0.1,3.4,0.2,6.6,0.9,9.5h4.1c-0.3-1.1-0.5-2.2-0.7-3.3
				c-0.5-3.9-0.4-8.5,0.3-13.7c0.3-1.9,0.7-3.5,1.2-4.9c0.5-1,1.1-2,1.8-3c1.4-1.8,3.7-4.3,6.9-7.5c3.2-3.2,5.5-5.7,6.9-7.5
				c1-1.3,2.1-3,3.3-4.9L89.2,198.2L89.2,198.2z"/>
			<path fill="#231F20" d="M77.4,231c-0.4,0.4-0.6,0.8-0.5,1.4c0.1,3.4-0.1,7.5-0.6,12.6l-0.3,3.2h3.9l0.6-5.8
				c0.4-3.8,0.5-7.1,0.4-10c0-0.6-0.3-1.1-0.7-1.4c-0.4-0.3-0.9-0.5-1.4-0.5S77.8,230.7,77.4,231L77.4,231z"/>
			<path fill="#231F20" d="M140.2,203.3c-0.3-0.5-0.6-0.8-1.2-1l-0.5-0.1c-0.4,0-0.9,0.1-1.2,0.4c-0.4,0.3-0.6,0.6-0.7,1.1
				c-0.6,3.7-1.4,7.9-2.4,12.7l-2.6,12.7c-0.9,4.4-1.7,8.6-2.5,12.7l-1.1,6.4h4c0.5-3.2,1.2-6.7,1.9-10.4l6.4-33
				C140.5,204.2,140.5,203.7,140.2,203.3L140.2,203.3z"/>
			<path fill="#231F20" d="M177.7,248.2h-3.9c-0.4,5.4-0.3,10.5,0.4,15.5c0.9,6.7,3,12.9,6.1,18.7c1,1.8,2,3.4,3.1,5
				c-2,3.3-3.9,6.3-5.9,8.9c-0.5,0.7-1,1.3-1.5,1.9h5c0.9-1.2,1.8-2.5,2.7-3.8l2.3-3.6c2.2,2.5,4.6,4.7,7.2,6.5l1.5,1h12.2
				c-2.8-0.5-5.4-1.2-7.7-2.1c-1.8-0.8-3.6-1.9-5.3-3.2c-2.2-1.8-4.3-3.9-6.3-6.4c-2.5-3.3-4.6-6.9-6.3-10.9
				c-1.6-4-2.8-8.3-3.4-12.9C177.4,258,177.3,253.2,177.7,248.2L177.7,248.2z"/>
			<path fill="#231F20" d="M132.1,248.2h-4l-1,5.7l-2.6,11.5c-1,4.5-1.5,8.4-1.7,11.7c-0.2,3.2,0.1,6.4,0.7,9.8
				c0.5,2.9,1.3,5.7,2.4,8.5l-1.4,1.2c-0.7,0.5-1.5,1.1-2.4,1.5h9.4c-0.4-0.7-0.7-1.4-1.1-2.1l0.5-0.9c0.3-0.5,0.4-1,0.2-1.5
				c-0.1-0.5-0.4-0.8-0.9-1.1c-0.4-0.2-0.8-0.3-1.2-0.3c-0.9-2.7-1.5-5.6-2-8.7c-0.4-3.1-0.3-6.6,0.2-10.5c0.4-2.7,1.1-6.4,2.3-11.3
				c1.2-5.2,2-8.9,2.4-11.3C131.9,249.8,132,249,132.1,248.2L132.1,248.2z"/>
			<path fill="#231F20" d="M131.4,298.2H122c-0.7,0.4-1.3,0.7-2,1c-2.5,1-5.2,1.7-8.2,2.2c-3.1,0.4-5.9,0.4-8.6,0.1
				c-2-0.3-4.1-0.9-6.2-1.8c-1-0.4-2-1-3-1.5H87c0.2,0.1,0.4,0.3,0.5,0.4c2.6,2.1,5.4,3.7,8.3,4.9c3.1,1.2,6.2,1.9,9.4,2.1l7.2-0.3
				c2.4-0.4,4.8-0.9,7-1.7c3.2-1.1,5.9-2.6,8-4.3c2.3,4.4,5.4,7.8,9.4,10.2c2.7,1.7,5.8,2.9,9,3.8c3.3,0.9,6.6,1.2,9.7,1
				c2.1-0.1,4.1-0.5,6.2-1.1c0.2,0.3,0.5,0.6,0.9,0.8l0.3,0.1h0c1.9,0.8,3.7,1.9,5.5,3.3l4.9,4.4c-0.1,1.2-0.2,2.5-0.1,3.8
				c0.1,1.6,0.3,3.1,0.7,4.4c0.5,1.6,1.3,2.8,2.4,3.8c0.8,0.7,1.9,1.4,3.2,1.8c0.8,0.3,2,0.7,3.5,1c3.3,0.8,6.3,1.2,9.1,1.2l6.2-0.2
				l2.9,0.1c1.6,0.2,3.5,0.7,5.7,1.3l16.9,4.9c4.5,1.2,8.4,2.2,11.8,2.8c4.3,0.8,8.3,1.3,12,1.5c3.7,0.2,7.4,0,10.9-0.6
				c3.7-0.6,7.2-1.6,10.5-3.1c6.1-2.7,10.8-7.4,14-14c0.1-0.2,0.2-0.4,0.3-0.6c1.5-3.3,2.6-6.6,3.2-10.1c0.7-3.7,0.8-7.5,0.4-11.3
				c-0.4-3.7-1.2-7.1-2.4-10.2H280c0.1,0.2,0.2,0.5,0.3,0.7c1.1,2.7,1.9,5.6,2.3,8.7c0.4,3.4,0.5,6.7,0.1,9.9
				c-0.4,3.1-1.3,6.2-2.6,9.3c-0.5,1.1-0.9,2.1-1.4,3c-0.8,1.6-1.7,3-2.6,4.2c-1.1,1.4-2.4,2.7-3.9,3.8c-1.7,1.3-3.6,2.4-5.7,3.3
				c-3.1,1.3-6.5,2.2-10.3,2.7c-4.4,0.6-9.3,0.5-14.7-0.2c-3.5-0.5-7.4-1.2-11.6-2.3c-2.8-0.7-6.6-1.7-11.4-3.1l-11.3-3.3
				c-2.1-0.6-4.1-1-6.2-1.3l-3.1-0.1l-3,0.1c-2.8,0.1-5.2,0.1-7.2-0.2c-2.9-0.4-5.4-1-7.3-1.8l-1.4-0.8l-0.7-0.7l-0.6-1
				c-0.3-0.7-0.5-1.5-0.7-2.5c-0.1-1.4-0.1-3,0.1-4.8c0.1-0.3,0.2-0.5,0.3-0.8l0-0.6c0.1-0.7,0.3-1.3,0.6-1.9
				c0.5-1.1,1.1-2.1,1.9-3.2c1.3-1.6,3.1-3.4,5.6-5.4l2.8-2.3c1.1-1,2.1-1.8,2.8-2.3c1.9-1.4,3.6-2.5,5.1-3.2
				c0.9-0.4,1.8-0.6,2.6-0.7c0.6-0.1,1.1-0.1,1.7,0c0.5,0,0.9-0.1,1.2-0.3l1,0.3c3.2,0.8,6.7,1.3,10.3,1.3c3.9,0,7.4-0.6,10.7-1.8
				c1.8-0.7,3.6-1.6,5.4-2.7h-10.4c-0.5,0.1-1,0.2-1.5,0.3c-2.8,0.4-5.8,0.3-8.8,0c-0.4-0.1-0.9-0.1-1.3-0.2h-12.2l0.2,0.1
				c-1.3,0.5-2.7,1.2-4.1,2.2c-1.2,0.8-2.5,1.9-4.1,3.2L183,307c-1.7,1.4-3,2.6-3.9,3.5c-1.4,1.4-2.5,2.7-3.3,4.1
				c-0.5,0.8-1,1.7-1.4,2.7l-3.5-3c-1.5-1.2-3.1-2.2-4.6-3c1.9-1,3.7-2.2,5.6-3.6c3.2-2.4,6.2-5.6,9.2-9.5h-5
				c-2.2,2.6-4.4,4.7-6.7,6.5c-2,1.5-4.1,2.8-6.3,3.7c-1.9,0.8-3.9,1.3-5.9,1.6c-2.1,0.3-4.3,0.3-6.6,0c-2.8-0.4-5.6-1.2-8.4-2.3
				c-2-0.9-3.8-1.9-5.4-3.1c-1.3-1-2.5-2.2-3.6-3.6C132.5,300.1,131.9,299.2,131.4,298.2L131.4,298.2z"/>
			<path fill="#231F20" d="M79.8,248.2h-3.9l-1,9.4c-0.2,2.4-0.2,4.8-0.1,7.2c-0.4-0.7-0.8-1.5-1.3-2.3l-1.9-3.8
				c-0.4-0.7-1.1-1.9-2.2-3.6c-1-1.5-1.7-2.7-2.1-3.7c-0.4-1-0.7-2.1-1-3.2h-4.1c0.8,3.6,2.2,6.8,4.1,9.5c0.8,1.1,1.6,2.6,2.6,4.7
				c1.1,2.3,1.9,3.9,2.5,4.8l2.1,3.1c0.8,1.2,1.5,2.3,1.9,3.2l0.1,0.2l0.7,3.9v1.1c0,0.6,0.2,1.1,0.6,1.4l0.3,1.4
				c0.6,2.2,1.1,3.9,1.5,5.1c0.7,1.9,1.4,3.5,2.2,4.9c1.5,2.5,3.5,4.7,6,6.8H94c-1.2-0.7-2.4-1.5-3.6-2.3c-1.8-1.4-3.3-2.9-4.7-4.6
				c-1-1.4-1.8-2.8-2.5-4.1c-1.2-2.8-2.1-6.1-2.9-9.8c-0.1-1.7-0.4-3.3-0.9-4.8l-0.3-1.8c-0.3-2.9-0.5-5.9-0.4-9.1
				c0-2.8,0.2-5.9,0.6-9.3L79.8,248.2L79.8,248.2z"/>
			<path fill="#231F20" d="M296.1,248.2h-4.1l0.2,4.6c0,2.1-0.1,4-0.4,5.8c-0.3,1.9-0.7,3.8-1.4,5.8c-0.5,1.6-1.2,3.5-2.1,5.6
				l-2.1,4.5c-0.8,1.5-1.7,2.9-2.6,4.2c-1.9,2.4-4.3,4.8-7.1,7c-2.5,1.9-5.1,3.4-7.7,4.5c-2.3,0.9-4.6,1.6-7,1.9
				c-2.3,0.3-4.7,0.3-7,0c-1.6-0.2-3.4-0.6-5.2-1.2c-1.5-0.5-3.2-1.1-5-1.9c-1.8-0.7-3.2-1.5-4.4-2.3c1.2-2.5,1.7-4.9,1.4-7.2
				c-0.1-0.6-0.3-1.1-0.6-1.4c-0.2-0.2-0.5-0.4-0.8-0.5c-0.1-9.9,0.5-19.7,1.7-29.3h-4c-1.4,11.5-1.9,23.3-1.5,35.4
				c0,0.3,0.1,0.6,0.3,0.9c-0.6,1.1-1.3,2.3-2.1,3.4c-1.6,2-3.5,3.8-5.6,5.5c-1.9,1.4-3.7,2.5-5.5,3.3c-1.5,0.6-3.2,1.1-4.9,1.4
				h10.4c1.1-0.7,2.2-1.5,3.3-2.4c2.3-1.9,4.3-3.9,5.8-5.9c1,0.7,2.2,1.3,3.4,1.9c1.3,0.6,3.1,1.4,5.6,2.3c3.6,1.3,7.2,2,10.9,2.1
				c3.4,0.1,6.9-0.5,10.3-1.7c2.4-0.8,4.8-2,7-3.4l1.5,1.7c1.1,1.5,2.2,3.3,3.1,5.4h4.3c0-0.1,0-0.1-0.1-0.2
				c-1.4-3.6-3.2-6.6-5.5-9.1l0,0c5.4-4.1,9.4-8.8,12-14.3c1.9-4,3.3-7.5,4.1-10.4c1-3.4,1.4-7.3,1.4-11.7
				C296.2,251.3,296.2,249.8,296.1,248.2L296.1,248.2z"/>
			<path fill="#FDCC9F" d="M186.3,188.9c-0.6-1.8-1.3-3.1-2.1-3.8c-0.7-0.7-1.2-1-1.4-1c-0.2,0-0.3,0.1-0.4,0.2
				c-0.1,0.1-0.1,0.3,0,0.5c0.5,0.8,1,1.8,1.5,2.9c0.6,1.4,1.1,2.9,1.6,4.6c0.3,1.1,0.9,2.8,1.7,5c0.3-0.1,0.4-1.1,0.3-2.9
				C187.3,192.6,187,190.8,186.3,188.9L186.3,188.9z"/>
			<path fill="#FDCC9F" d="M189.8,184c-0.1,0-0.2,0-0.3,0.1c-0.1,0.1-0.1,0.2-0.1,0.4l-0.6,8.3c-0.3,2.9-0.3,5.9-0.1,8.8h0.1
				c0.8-3.1,1.5-6.4,2-9.9c0.6-3.5,0.6-5.6,0.2-6.3l-0.8-1.2C190.1,184.1,190,184,189.8,184L189.8,184z"/>
			<path fill="#FDCC9F" d="M97.5,294.1l-3.6-2.4l1.1,1.7c1.9,2.6,4.5,4.3,7.8,4.9c3.5,0.7,6.8,0.3,10.1-1.1l-7.6-0.4
				c-2.9-0.3-5.6-1.3-8-2.9L97.5,294.1L97.5,294.1z"/>
			<path fill="#FDCC9F" d="M116.4,293.5l0.5-0.6c-1,0.4-2.1,0.7-3.2,0.9c-5.1,1.1-10.3,1.2-15.6,0.4c3.2,1.1,6.4,1.8,9.7,2.2
				C111.2,296.8,114,295.9,116.4,293.5L116.4,293.5z"/>
			<path fill="#FDCC9F" d="M134.5,294.8c1.6,1.2,3.5,2.1,5.5,2.6c1.9,0.5,3.8,0.8,5.7,1l5-0.1c1.6-0.1,3.3-0.8,5.1-2
				c-1.8,0.5-3.6,0.7-5.4,0.7l-5.8-0.4c-1.9-0.3-3.8-0.6-5.7-1.1c-2-0.5-3.8-1.4-5.5-2.8l-0.1,0
				C133.6,293.7,134.1,294.4,134.5,294.8L134.5,294.8z"/>
			<path fill="#FDCC9F" d="M139.9,291.4l-0.7-0.3c1.3,1.4,3,2.3,4.9,2.6c2.1,0.4,4.1,0.2,6.2-0.4l-5.6-0.8
				C143,292.3,141.4,292,139.9,291.4L139.9,291.4z"/>
			<path fill="#FDCC9F" d="M71.1,240.8c-0.1,0-0.3,0.1-0.4,0.2c-0.1,0.1-0.1,0.3-0.1,0.4c0.4,1.4,0.9,2.8,1.7,4.2
				c0.6,1.2,1.4,2.4,2.3,3.8c-1-2.6-1.7-4.5-2.2-5.7c-0.3-0.8-0.6-1.7-0.8-2.5C71.5,241,71.4,240.8,71.1,240.8L71.1,240.8z"/>
			<path fill="#FDCC9F" d="M253.8,277.3c1.5,0.4,3.1,0.4,4.7-0.2c1.7-0.6,3.2-1.7,4.5-3.3c-1.4,1-2.7,1.8-4.1,2.4
				c-1.3,0.5-2.6,0.9-3.9,1.1L253.8,277.3L253.8,277.3L253.8,277.3z"/>
			<path fill="#FDCC9F" d="M263.3,280.9c7.9-0.9,12.4-5.3,13.5-13.2c-3.2,6.8-8.3,11.3-15.6,13.5L263.3,280.9L263.3,280.9z"/>
			<path fill="#FDCC9F" d="M270.3,273c-4.1,2.8-8.5,4.8-13.3,6C262.2,279.6,266.6,277.6,270.3,273L270.3,273z"/>
			<path fill="#FDCC9F" d="M210.1,282.4c1.8-0.5,3.5-1.1,5-1.8l0.3-0.2l-1.7,0.3c-2.3,0.3-4.4,0.3-6.3,0.1c-1.5-0.2-2.8-0.5-4.1-1.1
				l-0.2,0l-0.6-0.4l1.5,1.1C206.2,282.3,208.2,282.9,210.1,282.4L210.1,282.4z"/>
			<path fill="#FDCC9F" d="M193.3,279.5l-1.2-1c1.8,3.1,4.8,5.4,8.8,6.9c4,1.5,7.3,1.9,9.9,1.2l4.5-1.2c-2.8,0.2-5.5,0.1-8.1-0.2
				c-2.6-0.4-5.1-1-7.4-2C197.6,282.4,195.4,281.1,193.3,279.5L193.3,279.5z"/>
			<path fill="#FDCC9F" d="M222.3,318.8c-1.1-2.9-2.7-5.3-4.8-7c-2.2-1.7-5.2-2.1-9-1c0.1,0.1,0.2,0.1,0.3,0.1c0.7,0,1.4,0,2.1,0
				c1,0.1,1.9,0.4,2.9,0.8c1.3,0.6,2.6,1.4,3.8,2.3C219.3,315.4,220.9,317,222.3,318.8L222.3,318.8z"/>
			<path fill="#FDCC9F" d="M125.8,204.8l0.8,1.1c1.7,2.2,3.1,4.4,4.3,6.9c1,2,1.5,3.4,1.6,4.1c0-0.3,0-1-0.2-2.2
				c-0.1-1.2-0.6-2.9-1.4-5c-0.8-2.1-1.8-3.6-2.9-4.4l-1.9-1.3c-0.2,0-0.3,0.1-0.4,0.3C125.7,204.5,125.7,204.7,125.8,204.8
				L125.8,204.8z"/>
			<path fill="#FDCC9F" d="M145.8,300l-4.9-1c0.9,1.4,2.3,2.3,4.2,2.7l3.2,0.1c1.7-0.3,3.1-1,4.4-2.2l0.3-0.3
				C150.6,300,148.2,300.2,145.8,300L145.8,300z"/>
			<path fill="#FDCC9F" d="M216.3,277.1c-1.3-0.6-2.5-1.3-3.6-2.1l-0.7-0.6c0.9,1.7,2.1,3,3.6,3.8c1.4,0.8,3,1.1,4.7,0.9l3.1-0.5
				l-1.9-0.1C219.7,278.2,218,277.7,216.3,277.1L216.3,277.1z"/>
			<path fill="#FDCC9F" d="M268,315.1c-0.2-0.5-0.9-1.2-2-2.1c0.6,1.8,1,3.7,1.3,5.8v0c0.4,3.3,0.5,6.9,0.2,10.9
				c-0.1,1.5-0.3,3.1-0.5,4.7c1-0.7,1.5-1.4,1.8-2.3c0.2-0.7,0.4-1.5,0.5-2.4c0.2-1.8,0.3-4,0.2-6.5
				C269.2,319.6,268.7,316.9,268,315.1L268,315.1z"/>
			<path fill="#FDCC9F" d="M273.6,323.9L273.6,323.9c-0.6,1.6-0.9,3-1.1,3.9c-0.1,0.7-0.2,1.3-0.4,1.9c-0.3,1.2-0.7,2.4-1.2,3.6v0
				l0,0.1c-0.3,0.6-0.5,1.6-0.7,2.9c0.4-0.1,1.2-1.1,2.6-3c0.8-1.2,1.4-2.4,1.6-3.6c0.2-0.9,0.2-1.8,0-2.7
				C274,325.1,273.8,324,273.6,323.9L273.6,323.9z"/>
		</g>
	</g>
</g>
<g id="Layer_37">
</g>
<g id="Layer_38">
</g>
<g id="Layer_39">
</g>
<g id="Layer_40">
</g>
</svg>
