<?xml version="1.0" encoding="utf-8"?>
<!-- Generator: Adobe Illustrator 18.1.1, SVG Export Plug-In . SVG Version: 6.00 Build 0)  -->
<!DOCTYPE svg PUBLIC "-//W3C//DTD SVG 1.1//EN" "http://www.w3.org/Graphics/SVG/1.1/DTD/svg11.dtd">
<svg version="1.1" xmlns="http://www.w3.org/2000/svg" xmlns:xlink="http://www.w3.org/1999/xlink" x="0px" y="0px"
	 viewBox="0 0 393 483" enable-background="new 0 0 393 483" xml:space="preserve">
<g id="ziutek_x5F_01">
</g>
<g id="ziutek_x5F_02">
</g>
<g id="ziutek_x5F_03">
</g>
<g id="ziutek_x5F_04">
</g>
<g id="ziutek_x5F_05">
</g>
<g id="ziutek_x5F_06">
</g>
<g id="ziutek_x5F_07">
</g>
<g id="ziutek_x5F_08">
</g>
<g id="ziutek_x5F_09">
</g>
<g id="ziutek_x5F_10">
</g>
<g id="lady_x5F_01">
</g>
<g id="Layer_13">
</g>
<g id="Layer_12">
</g>
<g id="Layer_14">
</g>
<g id="Layer_15">
</g>
<g id="Layer_16">
</g>
<g id="Layer_17">
</g>
<g id="Layer_18">
</g>
<g id="Layer_19">
</g>
<g id="Layer_20">
	<g>
		<g>
			<path d="M328.7,193.9c-0.4-1.9-1.3-3.5-2.6-4.9c-1.5-1.5-3.1-2.7-4.9-3.8l-0.5-0.4c-0.1,0-0.1,0-0.2,0c-1.9-1-3.9-1.8-6.1-2.3
				c-9.8-2.3-19.8-3.3-29.9-3.1c-1.7,0.1-3.3,0.1-4.9,0.1c-2.5,0.1-4.9,0.1-7.4,0.1c-3.5,0-7,0.1-10.5,0.1h-0.7
				c-0.6-1.9-1-3.8-1.4-5.7c-1.3-6.8-0.8-13.4,1.5-19.9c2.3-6.4,4.7-12.8,7.5-19.1c3.5-0.8,6-3.8,7.4-9.1c0.9-3.2,1.2-6.5,1.2-10.1
				c0,0,0-0.4,0-1.2c0-1-0.2-1.8-0.5-2.6c-0.5-1.1-1.2-2-2.3-2.6c0.1-2.2,0.2-4.5,0.1-6.7c0-4-0.7-7.9-1.8-11.7
				c-2.3-7.5-6.3-14.1-11.9-19.6c-5.5-5.4-11.9-9.3-19.2-11.6c-0.1,0-0.2-0.1-0.4-0.1c-1.2-0.3-2.3-0.6-3.5-0.9
				c-6.5-1.6-13-1.8-19.6-0.6c-8.6,1.5-16.4,4.9-23.2,10.3c-3.1,2.4-5.6,5.2-7.8,8.4c-0.9,1.3-16.6,32.7-18.8,35.1
				c-4.1,4.4-5.1,9.3-3.1,14.7c1.6,4.4,2.8,8.9,3.6,13.4c-1.5,0.5-3,0.8-4.5,0.8c-0.6,0-1.2-0.1-1.7-0.2c-2.8-0.8-4.9-2.5-6.2-5.3
				c-0.2,4.4,0.3,8.6,1.5,12.7c0.3,1,0.7,2,1.4,2.8c1.9,2.6,4.5,4.2,7.7,4.7c1.5,0.2,2.9,0.3,4.3,0.3c0.8,3.3,1.8,6.6,3,9.8
				c0.5,1.2,1.2,2.3,2.2,3.1c4.7,3.9,10,6.4,16.1,7.6c5.3,1,10.7,1.3,16.2,0.9c0.1,1,0.3,2,0.4,2.9c-7.6,0-15.1,0.1-22.7,0.2
				c0,0,0.1-0.1,0.1-0.1c-0.9,0.1-1.9,0.2-3.1,0.2c-1.3,2.8-2.9,6.8-4.9,12c-2.9,7.8-5.1,14.3-6.7,19.8c-2,11.4-3.5,20.3-4.4,26.6
				c-2.8,0.6-5.6,1.3-8.4,2.1c-6.2,1.8-12.2,3.9-18.3,6.3c-0.1,0-0.2,0.1-0.4,0.1c-3.2,0.7-6.3,1.5-9.5,2.5c-3,0.8-5,1.5-6,1.9
				c-1,0.3-2,0.6-2.8,1c-1.1,0.5-2.2,1-3.1,1.4c-3.1,1.7-5.8,3.9-8.3,6.5c-0.6,0.7-1.2,1.4-1.7,2.1c-1.4,2.3-2,4.7-2,7.4
				c0,0.7,0.1,1.3,0.2,1.9c0.5,2.3,1.5,4.1,3.2,5.7c0.4,0.4,0.9,0.7,1.5,0.8c0.6,0.1,1.2,0.2,1.8,0.1c0.5,0.5,1.2,1,1.9,1.6
				c0.5,0.4,1.1,0.7,1.8,0.8c-0.1,0.7-0.2,1.4-0.2,2.2c-0.4,3.9-0.6,6.3-0.6,7.1c0,2.1,0.2,4.8,0.6,8c0.4,3.1,0.7,5.5,1.2,7.1
				c0.8,3.3,2,6.4,3.7,9.5c0.1,0.2,0.3,0.5,0.4,0.7c-2.1,2.3-3.8,5.1-5.1,8.3c-2.9,7.3-4.5,14.9-4.8,22.8c-0.1,3.1-0.1,6.3,0,9.5
				c0.3,7.2,0.2,14.4-0.1,21.6h0c0,0.1,0,0.1-0.1,0.2c0.6,0.2,1.3,0.3,2.1,0.5c-0.3,0.6-0.7,1-1.3,1.3c-1.6,0.7-3.1,0.6-4.6-0.5
				c-2.2-1.6-4.4-3.2-6.7-4.7c-4.2-2.7-8.7-3.8-13.6-3.2c-3.7,0.4-6.4,2.2-8.1,5.3c-0.1-0.2-0.2-0.4-0.3-0.7c-1.2-2.9-1.9-5.1-2-6.5
				c-0.1-0.6-0.1-1.4-0.1-2.4c0.1-1.9,0.1-3,0.1-3.3c0-0.7,0.1-1.9,0.4-3.5c0.3-1.6,0.4-2.9,0.4-3.8c0-0.6-0.4-1-1.1-1.4
				c-1.7-0.8-5.2-1.2-10.5-1.2c-1.5,0-2.4,1.5-2.7,4.5c-0.1,0.9-0.1,2.1-0.1,3.3c0,0.7,0.1,1.3,0.1,2c0,4.4,0.3,8.2,0.9,11.3
				c0.8,4,2.2,7.9,4.1,11.6c0.7,1.3,2.1,2.9,4.1,4.9c2.5,2.5,5.4,4.8,8.6,6.8c8.9,5.8,18.5,8.7,28.6,8.7c2.8,0,4.4-0.1,4.8-0.1
				c0.3,0,0.4-0.1,0.5-0.2c0.1,0,0.2,0.1,0.3,0.1c17.2,9.9,38.5,14.8,63.9,14.8c7.6,0,14.9-0.8,21.9-2.3c0.9-0.2,1.8-0.4,2.7-0.6
				c0.3,0.5,0.6,0.9,0.9,1.4c2.4,3.5,5.6,5.3,9.7,5.6c8.1,0.4,15.2-1.7,21.6-6.4c0.5-0.4,1.1-0.8,1.6-1.2c4.2-2.6,7.9-5.7,11.3-9.3
				c3.9-3.2,7.3-6.9,10.3-11c3.7-5.1,7.3-10.4,10.8-15.7c1.5-2.3,3.1-4.7,4.6-7.1c3.3-5,6.2-10.2,8.8-15.5c1.6-3.2,3-6.5,4.2-9.8
				c0.3-0.8,0.6-1.7,0.8-2.6c0.8-3.3,1.3-6.6,1.7-10l-0.1-0.3l-9.4,0.6l-0.1,0.4H280l-1,0.2l0.6,7h0c0,0.1,0,0.2,0,0.2
				c0.1,0.7,0.1,1.4,0,2.1c0,1.9-0.3,3.3-0.9,4.2c-0.3,1.5-0.7,2.5-1.2,3.3c-0.1,0.2-0.2,0.4-0.3,0.6c-0.4,0.9-0.9,1.8-1.5,2.5
				c-1.3,2.9-2.8,5-4.3,6.4c0-1.3,0.1-2.5,0.2-3.8c0.2-2.6,0.4-5.3,0.6-7.9c0.4-4.4,1.4-8.5,3.2-12.5c0.7-1.5,1.4-2.9,2.1-4.3
				c2.2-4.2,4.5-8.3,6.9-12.4c1.6-2.8,2.8-5.7,3.6-8.7c1.5-5.7,2.8-11.4,3.9-17.2c1.4-7.2,2.3-14.4,2.7-21.7
				c0.4-6.5,0.9-13,1.4-19.5c0.2-2.1,0.5-4.2,0.9-6.3c2.7-14.2,5.7-28.2,9.3-42.2l15-0.1c0.7,0.1,1.3,0.1,2,0h0.2v0
				c1-0.1,1.8-0.5,2.5-1.2c0.5-0.4,0.8-0.9,1.1-1.4c0.2-0.3,0.3-0.6,0.4-0.9c0.4-0.9,0.7-1.9,0.9-2.8c0.1-0.9,0.2-1.7,0.2-2.5
				c0-0.6,0-1.2,0.1-1.8C328.9,196.2,328.9,195,328.7,193.9z M167.2,153.8c-2-0.3-3.7-1.1-5.2-2.4c-1.2-1.2-2.2-2.5-2.8-4.1
				c-1.1-2.7-1.7-5.5-1.7-8.3c2.1,2.7,4.7,3.8,8,3.3c3-0.6,5.7-1.7,8.3-3.3c0.8-0.5,1.5-0.9,2.4-1.2c1.6-0.7,3.3-1.2,5.1-1.5
				c2.7-0.2,4.9,0.7,6.8,2.6c0.1,0.2,0.3,0.4,0.4,0.6c0.6,1.5,0.4,2.8-0.7,4.1c-0.4,0.6-0.9,1.2-1.3,1.7c-2.4,3.1-5.3,5.4-8.7,7
				C174.4,153.8,170.9,154.3,167.2,153.8z M208,175.3c-8,0.1-15.8-1.3-23.2-4.1c-6.7-2.5-10.5-7.3-11.6-14.2c-0.1-0.5-0.1-1-0.2-1.5
				c0.7-0.1,1.4-0.2,2.1-0.4c2.5-0.6,4.8-1.7,7-3.1c3.7-2.5,6.4-5.9,8.1-10.1c0.1-0.2,0.1-0.4,0.1-0.5c0-2.3-1-4.1-2.9-5.4
				c-1.6-1-3.2-1.5-5.1-1.4c-2.6,0.3-5.2,1-7.6,2.3c-0.7,0.3-1.3,0.7-2,1c-0.4,0.3-0.9,0.6-1.3,0.8c-0.2-2-0.7-4-1.5-5.9
				c-1.5-3.4-2.6-6.9-3.3-10.6c-0.2-1-0.1-2,0.2-3c1.8-5.1,21.2-38.8,21.4-39c4-6.8,9.5-12,16.5-15.6c4.6-2.3,9.3-3.8,14.3-4.6
				c0,0,0,0,0.1,0c2.7-0.4,5.5-0.5,8.3-0.5c8,0.3,15.5,2.4,22.5,6.2c1.2,0.7,2.3,1.3,3.4,2c0.3,0.2,0.5,0.4,0.8,0.6
				c5.7,4.1,10.2,9.3,13.4,15.6c3.9,7.7,5.7,15.9,5.2,24.5c-0.9-0.2-1.9-0.4-3-0.4c-0.9,0-2,0.4-3.2,1.1l-0.2,0.1
				c-1.2,0.8-1.8,1.4-1.8,1.8c0,0.7,0.5,1,1.4,1c0.5,0,1.2-0.3,2.1-0.9c0.9-0.6,1.7-0.9,2.3-0.9c3.3,0,4.9,1.7,4.9,5.2
				c0.1,3-0.2,5.9-0.9,8.8c-1.1,4.4-2.9,7.1-5.5,8.1c-0.6,0.5-1.3,0.8-2.2,0.8c-1.6,0-2.8-0.9-3.6-2.7c-0.2-0.5-0.4-1-0.5-1.6
				c-0.4,0.1-0.7,0.5-0.7,1.2c0,0.1,0.1,0.4,0.2,0.9c0.2,0.6,0.5,1.2,0.8,1.7c0.2,0.3,0.4,0.6,0.6,0.8c0.8,0.9,1.7,1.5,2.7,1.7
				c-0.7,1.8-1.5,3.6-2.3,5.4c-2.7,6-4.8,12.2-6.2,18.6c-1.7,7.4-1.1,14.5,1.6,21.5c0.6,1.6,1.1,3.3,1.5,5c0.5,2.5,1.2,4.9,2.2,7.1
				c-0.3,0.7-0.9,1.2-1.7,1.7c-0.4,0.3-0.9,0.5-1.5,0.7c-1.1,0.7-2.4,1.2-3.9,1.6c-1.3,0.4-3.7,0.8-7,1.2c-0.5,0.1-1,0.2-1.5,0.2
				c-4.9,0.8-8.5,1.5-10.9,2.2c-2.3,0.7-4.7,1.7-7.4,3.2c-0.4,0.2-0.7,0.4-1.1,0.6c-3.3,1.9-6.9,4.3-10.8,7.1
				c-3.1,2.4-5.6,4.3-7.3,5.7c0-0.2,0.1-0.5,0.1-0.8c0.1-1.2,0.1-2.6,0-4.1c0-3.3-0.2-6-0.7-8.1c-0.3-1.5-1.1-3.7-2.3-6.8
				c0.6-0.9,1.1-1.8,1.7-2.8c0.7-1,1.2-2.1,1.7-3.2c0.1,0.2,0.2,0.4,0.2,0.4c0.2,0.6,0.4,1.7,0.4,3.1c0,1.2,0.3,2,0.9,2.6
				c0.2-0.1,0.4-0.1,0.7-0.3c0-0.6,0.1-1.5,0.1-2.5c0-1.8-0.5-3.6-1.6-5.4c-0.4-0.5-0.6-0.9-0.8-1.3c0-0.1,0-0.2,0-0.4
				c-0.2-0.2-0.3-0.4-0.5-0.6c-0.1-0.1-0.1-0.3-0.2-0.4c0,0,0,0,0,0c-0.1-0.2-0.1-0.3-0.1-0.5c0-1.1,0.8-2.1,2.4-3.1
				c0.4-0.2,0.9-0.6,1.6-0.9c0.5-0.3,0.7-0.6,0.7-0.8c0-0.5,0-0.7-0.1-0.6l-0.7-0.1c-0.4,0.1-0.8,0.2-1.1,0.4
				c-0.1-1.3-0.4-2.6-0.7-3.9c1.7,0,3.4-0.1,5.1-0.4c4.1-0.5,7.8-1.7,11.3-3.5c3.6-1.9,6.9-4.4,9.8-7.7c2.3-2.6,5-4.7,8.1-6.2
				c-0.1-0.2-0.3-0.3-0.4-0.3c-2.1-0.4-4.1,0.2-6,1.7c-0.8,0.7-1.6,1.5-2.4,2.3c-1.4,1.7-3,3.2-4.6,4.7c-1.5,1.3-3,2.5-4.6,3.6
				c-3.3,2.3-6.9,3.6-10.8,3.8C213.6,175.2,210.9,175.3,208,175.3z M263.8,187.8c0.3-0.1,0.7-0.1,0.9-0.2c0.7,0.1,1.5,0.2,2.5,0.4
				c3.9,0.9,5.8,3.3,5.8,7.3c0,3.3-1.6,6.1-4.9,8.3c-1.9,1.3-4.7,2.6-8.3,3.9c-0.8,0.3-1.5,0.5-2.4,0.8c-2.6,0.8-4.5,1.4-5.7,1.8
				c-1.8,0.6-3.3,1.1-4.4,1.7c-0.2,0.1-0.4,0.2-0.6,0.2c-2,0.9-3.4,2-4.1,3.2c-1-0.9-2.3-1.8-3.8-2.6c-4.3-2.3-9.3-3.4-14.9-3.4
				c0,0,0,0-0.1,0c0,0,0,0,0.1,0c2.2-1.4,4.4-2.6,6.5-3.6c0.1-0.1,0.2-0.1,0.4-0.2c3.7-1.7,7.8-3.1,12.4-4.2c1.1-0.3,3.4-0.7,7-1.5
				c1.1-0.2,2.3-0.5,3.7-0.7c3.6-0.7,6.1-1.4,7.5-2.1c1-0.5,1.7-1.1,2.2-1.8c0.1,0.1,0.1,0.2,0.2,0.3c0.1-0.1,0.1-0.3,0.2-0.4
				c0.5-0.8,0.7-2.2,0.7-4.3v-0.1C264.5,189.6,264.1,188.7,263.8,187.8z M170,232.3c0.4-2.6,1-5.7,1.7-9.2c0.4-2.1,1.1-5.2,2-9.4
				c1.5-7.1,4.4-15.4,8.5-24.7c0.7-1.6,1.7-3.9,3.2-7c1.8,0.3,3.7,0.4,5.6,0.3h18c-0.2,0.2-0.4,0.3-0.5,0.5c-0.8,0.9-1.2,2-1.2,3
				c0,0.7,0.3,1.5,0.9,2.6c0,0.1-0.1,0.2-0.1,0.3c-0.6,1.3-1.2,2.5-1.8,3.8c-0.2,0-0.4-0.1-0.6-0.1c-0.4,0-0.8,0.1-1.1,0.2
				c-0.3-0.1-0.6-0.2-1.1-0.2c-0.5,0-1.2,0.3-2,0.9c-0.9,0.7-2,1.8-3.3,3.2c-0.9,1-1.7,2-2.3,3c-0.7,0.9-1,1.5-1,1.8
				c0,0.7,0.4,1.2,1.4,1.5c0.2,0.1,0.5,0.1,0.9,0.2l-8.7,5.9c-2.9,2.6-5.4,5.6-7.4,9c-2,3.3-3.9,6.7-5.5,10.2c-1.1,2.2-2,4.5-3,6.8
				c-1,0.9-2.1,1.9-3.1,2.9C169.7,235.3,169.9,233.4,170,232.3z M198,201c1.4-1.7,3-3.4,4.9-5.2c0.2-0.2,0.4-0.4,0.6-0.6
				c0.7,1.8,1.3,3.8,1.9,6.1c0.3,1.1,0.6,2.2,0.8,3.2c-0.4-0.2-0.9-0.4-1.4-0.6c-1.4-0.5-2.5-0.9-3.3-1.2c-0.4-0.1-0.8-0.3-1.2-0.5
				c0,0-0.1-0.1-0.1-0.1c0,0,0,0.1-0.1,0.1C199.4,201.8,198.6,201.4,198,201z M199.1,204.1c-1.3,2.4-2.4,4.9-3.3,7.5
				c-1.7,4.5-4.4,8.3-8.3,11.2c-3.7,2.8-7.4,5.7-11,8.7c-0.1,0.1-0.2,0.2-0.4,0.3c0.1-0.2,0.1-0.4,0.2-0.5c0.2-0.5,0.4-0.9,0.6-1.4
				c2.7-5.8,6.2-11.2,10.3-16.1C190.7,210,194.6,206.7,199.1,204.1z M170.2,240.1c0.5-0.5,1-1,1.5-1.5c3.9-3.9,8.1-7.4,12.7-10.5
				c0.7-0.4,1.3-0.9,2-1.3c2.1-1.4,4-2.9,5.7-4.8c2.7-2.9,4.7-6.2,6.1-10c0.9-2.5,2-4.8,3.4-7.1c1,0.5,2.8,1.5,5.3,2.8
				c0.3,1.7,0.4,3.1,0.4,4.4c-0.2,2.9-0.3,5.1-0.2,6.7c-2.2,1.8-4.2,3.9-6,6.5c-0.7-1-1.3-2-1.5-2.8c-0.5,0.4-0.7,0.9-0.7,1.5
				c0,0.1,0.4,0.7,1,1.7c0.2,0.2,0.3,0.5,0.5,0.7c-0.2,0.3-0.4,0.6-0.6,0.9c-0.7,0.2-1.3,0.4-2,0.7c-1,0.4-1.9,0.8-2.5,1.2
				c-0.6,0.4-0.9,0.7-0.9,0.8c0,0.3,0,0.5,0.1,0.5c0.1,0,0.1,0.1,0.2,0.1l0.9,0.1c0.1,0,0.5-0.3,1.5-0.8c0.5-0.3,1-0.5,1.4-0.6
				c-0.6,1.1-1.2,2.2-1.8,3.4c-0.7,1.4-1.3,2.7-1.8,4.1c-0.5-0.9-1.1-1.8-1.6-2.8c-0.5,0.3-0.7,0.8-0.7,1.3c0,0.1,0.3,0.7,0.8,1.9
				c0.1,0.4,0.3,0.7,0.5,1.1l-1.1,0.5c-1.1,0.6-2,1.2-2.7,1.7c-0.7,0.6-1,1.1-1,1.4c0,0.4,0.1,0.6,0.2,0.7c0.1,0.1,0.3,0.1,0.5,0.2
				c0.1-0.1,0.4-0.4,1.2-0.9c0.7-0.6,1.5-1.1,2.1-1.6c0.2-0.1,0.5-0.3,0.7-0.4c-0.9,2.9-1.3,5.6-1.3,8.1v0.9
				c0.1,0.5,0.5,0.8,1.1,0.8c0.2,0,0.9-2,2.1-6c0.1-0.4,0.2-0.8,0.4-1.2c1.7,2.8,3.2,4.2,4.5,4.2c0.5,0,0.8-0.1,0.9-0.4
				c-1.5-2-3.1-4.1-4.6-6.4c0.1-0.5,0.3-0.9,0.4-1.3c0.9-0.2,1.9-0.3,2.9-0.3c0.7,0,1.7,0.1,3.1,0.5c0.3,0.1,0.4,0,0.5-0.1
				c0.1-0.1,0.2-0.4,0.3-0.9c-0.1-0.3-0.4-0.5-0.7-0.7c-0.6-0.4-1.7-0.5-3.2-0.5c-0.8,0-1.5,0.1-2.3,0.2c0.3-0.8,0.6-1.5,0.8-1.9
				c0.2-0.5,0.9-1.7,1.9-3.8c0.5-1,0.9-1.8,1.4-2.6l0.4,0.4c2.7,3.3,4.8,4.9,6.3,4.9c0.3,0,0.5-0.1,0.6-0.3c0.1-0.2,0.1-0.4,0.1-0.4
				c-2.3-1.8-4.1-3.4-5.7-4.9c1.5-0.2,3-0.4,4.6-0.5c0.8-0.1,1.3-0.2,1.6-0.2c0.3-0.1,0.4-0.3,0.4-0.6c0-0.2,0-0.3-0.1-0.4
				c-0.4-0.2-1.5-0.3-3.1-0.3c-1.3,0-2.6,0.1-3.8,0.2c1.7-2.6,3.9-4.9,6.5-6.8c2-1.5,5.1-3.9,9.3-7.3c0.5-0.4,1.1-0.8,1.6-1.2
				c0,0,0.1,0,0.1,0c0.6,0.2,1.6,0.4,3.2,0.6c5.2,0.7,9.1,1.3,11.6,1.9c0.3,0.1,0.8,0.3,1.6,0.8c1.1,0.7,2.7,1.7,4.8,3.1
				c0.1,0.5,0.4,0.7,1.1,0.7h0.1c0,0,0,0,0.1,0h0c0.4,0,0.7-0.1,0.8-0.4c0-0.1,0-0.1,0-0.2c0.3-0.2,0.8-0.5,1.3-0.9
				c0.1-0.2,0.2-0.3,0.3-0.5c1.9-2.4,3.9-3.7,6.2-4.1c1.2-0.5,2.9-1.2,5.3-1.9c0.9-0.3,1.7-0.5,2.5-0.8c2.3-0.8,4-1.3,5.1-1.8
				c2.8-1.1,5.1-2.3,6.7-3.7c5.4,5.2,9.7,11.1,12.8,17.9c3.7,7.8,5.7,16,5.9,24.7c0.2,5.9-0.4,11.6-1.7,17.4
				c-1.8,7.7-6.2,13.7-13.1,17.9c-1.9,1.2-3.9,2.3-5.9,3.3c-1.1,0.2-2.1,0.4-3.2,0.6c-1.5,0.4-2.9,0.8-4.4,1.2
				c-0.1-2.2-0.7-4.4-1.7-6.5c0-0.1-0.1-0.1-0.1-0.2c-0.6,0.4-1.2,0.7-1.9,1c0.8,1.6,1.3,3.4,1.4,5.6c-0.2,0.3-0.4,0.7-0.6,1.1
				c-0.4,0.9-0.9,1.6-1.7,2.2c-0.5,0.4-1,0.7-1.5,1.1c-0.4,0.2-0.7,0.4-1.2,0.6c0.1-0.1,0.2-0.1,0.4-0.1c-1,0.6-2,1-3.1,1.4
				c-0.7-1.1-1.5-1.2-2.4-0.4c-0.1,0.1-0.2,0.3-0.1,0.6c0.3,1.2,0.6,2.5,0.8,3.7c0.3,1.4,0.3,2.8-0.1,4.2c-0.4,1.6-1.3,2.7-2.7,3.3
				c-0.6,0.3-1.3,0.4-2.1,0.4c0,0,0,0-0.1,0c-2.1-0.2-3-1.4-2.8-3.6c0.1-0.9-0.1-1.6-0.5-2.3c-0.1-0.1-0.1-0.2-0.2-0.3
				c-0.1-0.1-0.1-0.1-0.3-0.2c-0.8,0-1.2,0.4-1.2,1.2c0,1.2,0,2.3,0,3.5c-0.8,1.7-1.8,3.2-3.2,4.3c0,0,0,0,0,0
				c-0.3,0.2-0.6,0.3-1,0.3c-2.1,0.2-3.6-0.7-4.5-2.5c-0.3-0.6-0.4-1.1-0.4-1.7c0-1.5-0.1-3-0.3-4.5c-0.1-0.6-0.4-0.8-0.9-0.9
				c-0.8,0.4-1.2,1-1.2,2c-0.1,1.9,0.1,3.8,0.4,5.7c0,0-0.1,0.1-0.1,0.1c-2.1,0.8-4,0.6-5.7-0.8c-0.2-0.2-0.4-0.4-0.6-0.7
				c-1-2.3-1.4-4.8-1.2-7.4c0.3-3.3,1-6.6,2-9.9c0.6-2,1.8-3.7,3.4-5c-2.5,0.1-4.3,1.3-5.3,3.7c-1.1,2.7-1.8,5.5-2,8.4
				c-2.2-0.6-3.8-1.9-4.8-3.8c-0.3-0.5-0.3-1-0.2-1.6c0.4-1.8,1.2-3.4,2.5-4.7c1.8-2,3.9-3.8,6.2-5.2c0.7-0.5,1.6-0.8,2.4-0.9
				c2.5-0.3,5.1-0.5,7.7-0.5c5.7,0,11.3-0.5,16.9-1.6c0.2-0.1,0.4-0.1,0.6-0.2c0.1-0.1,0.3-0.1,0.4-0.3c0.1,0,0.1,0,0.2,0.1
				c1.1-0.5,2-1,2.8-1.6c-0.1-0.1-0.1-0.1-0.2-0.1c0.2-0.1,0.5-0.1,0.7-0.2c0.9-0.3,1.9-0.8,2.8-1.3c2.1-1.2,4-2.9,5.8-5.1
				c1.8-2.2,3.2-4.7,4.2-7.4c1.1-2.9,1.6-5.8,1.6-8.8c-0.1-3.7-0.5-7.3-1.2-11c-1.3-7.3-3.2-10.9-5.7-10.9c-0.8,0-1.2,0.4-1.2,1.2
				c0,0.1,0.1,0.4,0.4,0.9c0.1,0.1,0.1,0.2,0.1,0.3c0.4,0.7,0.9,1.6,1.6,2.8c1.5,2.5,2.4,4.7,2.6,6.3c0.3,2,0.7,4,1,5.8
				c0.1,1.1,0.2,2.6,0.2,4.6c0,2.1-0.2,3.9-0.6,5.6c-0.4,1.7-1.2,3.6-2.3,5.7c-1.6,3-3.8,5.5-6.6,7.4c-0.7,0.5-1.5,1-2.3,1.5
				c-1.2,0.6-2.4,1.2-3.7,1.6c-0.1,0.1-0.2,0.1-0.3,0.2c0,0,0,0.1,0,0.1c-0.3,0.1-0.7,0.3-1.1,0.5c-0.4,0-0.9,0.1-1.4,0.4
				c-0.3,0.1-0.5,0.2-0.9,0.3c-2.7,0.5-5.4,0.7-8.1,0.7c-1.5,0-2.9,0.1-4.3,0.1c-3.5,0.1-7,0.4-10.4,0.8c-0.1,0-0.2,0-0.3,0.1
				c-2.9,0.5-5.3,1.9-7.2,4.3c-0.3,0.4-0.7,0.8-1.1,1.1c-1.7,1.4-2.9,3.1-3.8,5c-0.2,0.5-0.3,1-0.4,1.5c0,0.4-0.1,0.9-0.1,1.3
				c0,3.3,1.5,5.6,4.3,7c0.9,0.4,1.8,0.7,2.9,0.7c-0.3,2.8,0,5.4,0.8,8c0,0,0,0,0,0c0,0.1,0,0.1,0,0.1c0.5,1.7,1.6,2.7,3.3,3.2
				c0.5,0.2,1.1,0.3,1.6,0.4c-0.1,1.5-0.1,3.2-0.1,5.2c-0.1,3.9-0.1,8.1,0,12.3l0.2,13.6c-2.6,0.9-5.2,1.5-7.9,1.8
				c-7,0.9-13.7-0.2-20.1-3.2c1.1-0.9,2.3-1.7,3.6-2.4l-2.1-1.2c-2.7,0.9-4.7,2.5-6.1,5c-1,1.8-1.9,3.6-2.8,5.4h-0.2
				c0,0.1,0.1,0.2,0.1,0.4c-2,4.4-3.6,9.1-4.7,13.9c-1.7,7.2-3,14.6-3.9,22c-0.4-0.9-0.9-1.7-1.4-2.5c-2.1-3-5-5-8.8-6.1
				c-1.7-0.5-3.5-0.8-5.5-0.9c-0.5,0-1.1-0.1-1.7-0.1c-0.8,0-1.5,0.1-2.3,0.1c0.5-1.6,0.8-3.3,0.9-5c0.7-2.8,1.3-5.7,1.6-8.7
				c0.9-8.4,2.1-16.7,3.6-24.8c1.3-7,4.8-12.9,10.4-17.7c3.2-2.7,7-4.4,11.2-4.9c0.4-0.1,0.7-0.1,1-0.1c8.2-0.8,16,0.7,23.2,4.4
				c0.7,0.4,1.5,0.6,2.2,0.8c0.3,0,0.5,0.1,0.7,0c0.6-0.1,1-0.5,1.2-1.3c-2-1.9-4.3-3.3-7-4.2c-0.6-0.2-1.1-0.4-1.7-0.5
				c-7.3-1.7-14.6-2.1-22.1-1.2c-1.8,0.3-3.5,0.8-5.1,1.6c-5.5,2.9-9.7,6.9-12.6,11.9c-0.3-0.2-0.6-0.5-0.9-0.7
				c-4.2-3.6-7.3-8.1-9.3-13.5c-2.7-7.3-4.6-14.8-5.9-22.5c-0.1-0.7-0.1-1.5-0.1-2.2c0.6-9.5,2.7-18.6,6.2-27.4
				c1.2-3.1,2.8-6.1,4.8-8.8C165.8,245.2,167.9,242.5,170.2,240.1z M262.1,320.5c-2.8,2.8-5.9,5.1-9.3,7c-2.7,1.5-5.5,3-8.3,4.3
				v-1.6c0-2.2,0.2-5.6,0.6-10.2c0.4-4.6,0.6-8,0.6-10.1c-0.1-1-0.1-1.7-0.1-2.3c1.4,0,2.7-0.4,4.1-1.2c1-0.6,1.7-1.5,2.1-2.6
				c0.2-0.6,0.4-1.2,0.6-1.8c0.5-0.1,1-0.3,1.5-0.4c2.3-0.9,5.6-1.9,9.8-3c3.6-1,7.1-1.9,10.5-2.7c0.3-0.1,0.6-0.1,0.9-0.2
				C273.4,305.3,269.1,313.5,262.1,320.5z M276.5,298.8c0.3-1.2,0.6-2.3,0.8-3.5c0.4-0.1,0.8-0.1,1.2-0.2c2.9-0.7,5-1,6.4-1h0.4
				c-0.7,6.9-2.8,14-6.2,21.3c-0.3,0.9-0.8,2-1.4,3.3c-1.2,2.4-2.7,4.6-4.5,6.6c-5.7,6.2-13.5,9.3-23.2,9.3l-5-0.2l0-0.1
				c0,0-0.1-0.1-0.1-0.1c0,0,0,0,0,0c4.1-2.1,8.1-4.4,12-7c2-1.3,3.9-2.8,5.6-4.4C269.3,316.2,274,308.2,276.5,298.8z M201.1,406.9
				c-0.8,0.1-2.2,0.4-4,0.6c-4.8,0.7-10,1.1-15.6,1.1h-2.2c0.5-1.4,0.7-2.9,0.7-4.4c0-4.1-0.5-8-1.4-12c-0.4-1.5-0.6-3.1-0.7-4.6
				c1.3,0.1,2.6-0.1,3.7-0.8c0.3-0.1,0.4-0.4,0.6-0.6c0.1,0.1,0.2,0.1,0.2,0.2c0.8-3.5,1.5-7,2-10.5c0.6-4.4,1.4-8.9,2.3-13.3
				c1.9-1.2,4.7-3.3,8.5-6.5c2.3-1.9,4.3-3.7,6.1-5.4c0.9-0.8,1.5-1.5,2-1.9c1.1,0,2.3,0,3.4,0c8,0,14.3-0.4,18.8-1.2l0.3,17v12.8
				c-0.3,1.6-0.5,3-0.7,4.3c-0.7-0.1-1.5-0.2-2.2-0.3c-5.9-0.4-11.4,0.9-16.4,3.7c-0.4,0.2-0.7,0.6-0.9,1
				c-2.9,6.2-4.4,12.7-4.4,19.6C201,406.1,201.1,406.5,201.1,406.9z M178.4,385.3l0.4-1.6l0.7,1.2c-0.1,0-0.2,0.1-0.3,0.1
				C179.1,385.1,178.8,385.2,178.4,385.3z M194.4,348.4C194.4,348.4,194.4,348.4,194.4,348.4c1.9,0.1,3.8,0.3,5.7,0.4
				c-0.4,0.3-0.9,0.7-1.4,1.1c-1.5,1.5-3.9,3.7-7.3,6.7c-1.5,0.9-2.9,1.8-4.1,2.5c0.4-1.7,0.7-3.3,1.1-4.9c0.2-0.7,0.3-1.4,0.5-2
				c0.4-1.4,0.8-2.7,1.3-4C191.7,348.2,193,348.3,194.4,348.4z M191.4,345.8c1.1-2,2.4-3.7,4-5.3c0.3,0.1,0.6,0.3,0.9,0.4h0.2
				c0.9,0,2,0.4,3.6,1.2c0.4,0,0.9,0.1,1.6,0.3c0.4,0.1,1.3,0.4,2.4,0.7c1.5,0.4,3.1,0.6,4.8,0.8c0.9,0,2,0,3.1,0c2,0,3.8,0,5.3,0.1
				c2.7-0.6,5.4-1.3,8.1-2.1l0.1,3.3c-4.2,0.9-10.5,1.3-19.1,1.3C201.2,346.4,196.2,346.2,191.4,345.8z M174.9,408
				c0.9,0.2,1.6,0.3,2.2,0.4v0.1c0,0.6-0.2,1-0.6,1.4c-0.4,0.4-0.9,0.6-1.4,0.6c-0.5,0-1-0.2-1.4-0.6c-0.4-0.4-0.6-0.9-0.6-1.4
				c0-0.3,0.1-0.6,0.2-0.9C173.7,407.8,174.2,407.9,174.9,408z M173.8,407c0.4-0.3,0.8-0.5,1.2-0.5c0.6,0,1,0.2,1.4,0.6
				c0.1,0.1,0.3,0.3,0.4,0.5c-0.4-0.1-0.9-0.2-1.5-0.3C174.7,407.2,174.2,407.1,173.8,407z M175.3,404.5c-0.9-0.2-1.9,0-2.7,0.5
				c-1.2-1.6-2.9-2.3-5.1-2.1c-0.6,0-1.1,0.1-1.7,0.1c-1.3,0.1-2.6,0.6-3.7,1.4c-0.5-2.5-2-3.9-4.7-4.2c-2-0.2-3.9,0.2-5.6,1.2
				c-0.9-2.3-2.6-3.4-5.2-3.5c-1.3-0.1-2.5,0.1-3.6,0.6c-0.6,0.3-1.2,0.6-1.7,1c-0.8,0.7-1.3,1.5-1.5,2.4c-2,0-4,0.1-6,0.1h-0.3
				c-0.6,0-1.2-0.1-1.7-0.5c-2.5-1.6-3.3-3.8-2.4-6.6c0,0,0-0.1,0.1-0.1c0,0,0,0,0,0l0,0c0.6,0.6,1.4,1,2.5,1.2
				c1.1,0.3,2.5,0.4,4.1,0.4c2.9,0,4.7-0.4,5.4-1.3c0.2-0.3,0.4-0.6,0.4-1.1c0-0.4,0-0.8,0-0.9c0-0.9-0.3-1.8-0.7-2.7
				c-0.3-0.5-0.7-1-1.2-1.3c-0.2-0.2-0.5-0.3-0.7-0.4c3.4-0.8,6.7-1.6,10.1-2.5c3.8-1,7.1-2.9,9.7-5.7c0.9-1,1.6-2.2,2-3.6
				c0.2-0.7,0.3-1.4,0.3-2c1-0.1,2.3-0.2,3.8-0.2h0.3c1.7,0,3.3,0.3,4.9,0.9c2.3,0.9,4.4,2.6,6.4,5c-0.8,2.9-1.1,5.9-0.9,9
				c0.1,2,0.4,4.1,0.9,6.1c0.7,2.9,0.9,5.9,0.9,8.9c0,0.1,0,0.3,0,0.4C176.8,404.8,176.1,404.6,175.3,404.5z M163.9,406.5
				c0,0.4,0.1,0.4,0.1,0.1c2,0.1,3.7,0.3,5,0.5c0.5,0.1,0.9,0.2,1.4,0.3c-0.8,2.7-2.7,3.9-5.7,3.6c-0.8-0.1-1.4-0.4-1.8-1
				c-0.5-1.4-0.3-2.6,0.5-3.5c0.1,0.1,0.1,0.1,0.2,0.1C163.8,406.6,163.9,406.5,163.9,406.5z M163.8,406.1
				C163.8,406.1,163.9,406.1,163.8,406.1l0.1,0C163.9,406.2,163.8,406.2,163.8,406.1z M164.3,406l-0.2-0.1c0.1-0.1,0.3-0.2,0.5-0.3
				c0.2-0.1,0.5-0.2,0.8-0.3c1.9-0.3,3.5,0.1,4.9,1.1c0.1,0.1,0.1,0.1,0.2,0.2C169.3,406.2,167.3,406,164.3,406z M153.1,404.2
				c0.1,0,0.1,0,0.1,0.1c3.1,0.3,4.9,0.7,5.7,1.1c0.2,0.1,0.4,0.3,0.6,0.5c0,0,0.1,0,0.1,0c0,0.6-0.2,1.2-0.4,1.7
				c-1.1,1.6-2.6,2.2-4.7,1.9c-0.9-0.1-1.6-0.7-2-1.6c-0.8-1.7-0.6-3.2,0.5-4.5l-0.1,0.3C153,404,153,404.2,153.1,404.2z
				 M157.1,403.9c-1.6-0.4-2.9-0.6-3.8-0.6h-0.2c0.1-0.1,0.2-0.3,0.4-0.4c0.1-0.1,0.4-0.2,0.6-0.2c2.1-0.4,3.8,0.1,5.2,1.4
				c0.1,0.1,0.2,0.2,0.2,0.4c0,0.1,0,0.1,0,0.1C158.9,404.4,158.1,404.1,157.1,403.9z M149.6,403c-0.1,0.4-0.1,0.8-0.4,1.2
				c-0.4,1-1.2,1.7-2.2,2.1c-1.7,0.5-3.1,0.1-4.1-1.3c-0.6-0.8-0.8-1.7-0.7-2.6c0.1-0.4,0.2-0.7,0.4-1
				C144.2,401.6,146.5,402.1,149.6,403z M143.2,400.6c0.5-0.4,1.1-0.6,1.9-0.5c1,0.1,2,0.2,2.9,0.5c0.4,0.1,0.8,0.3,1.2,0.5
				c0.2,0.4,0.3,0.7,0.4,1.1C148.5,401.2,146.4,400.7,143.2,400.6z M159.9,341.6c1.2,0.4,2.5,0.8,3.8,1.2l-3.2,20.2
				c-2,1.7-4.3,3.4-6.7,5.1c-1.6,1.2-5.7,3.3-12.5,6.5c-1.5,0.7-2.9,1.4-4.1,1.9v-0.1c-0.7-7.2-1-14.4-0.9-21.5
				c0.1-6.1,1.9-11.5,5.2-16.3c1-1.4,2.2-2.5,3.6-3.3c0.4,0.3,0.9,0.6,1.5,0.9C150.1,338,154.6,339.9,159.9,341.6z M148.5,333.9
				c3.8-0.9,7.7-1.2,11.7-0.9c1.7,0.1,3.3,0.4,4.9,0.9l-1,6.4c-1.6-0.5-3.1-1-4.7-1.6C155.6,337.2,151.9,335.6,148.5,333.9z
				 M158.9,373.1l-0.2,1.5h0.2c-0.1,0.1-0.1,0.3-0.2,0.4c0,0.1,0,0.2,0,0.4c0,0,0,0.1,0,0.1c0,0,0,0,0.1,0c0.1,1.9-0.6,3.5-2.2,4.8
				c-2.4,1.9-5.2,3.2-8.2,3.9c-0.9,0.2-1.9,0.5-2.8,0.8c-2.5,0.8-5.1,1.5-7.5,1.9l-0.9-3.9l-0.8-3.4c1.7-0.8,3.7-1.7,5.8-2.7
				c7.3-3.6,12-6.2,14.1-7.8c1.3-1,2.5-2,3.7-2.8l-0.9,5.9l-0.1,0.9c0,0-0.1,0-0.1,0C158.9,373,158.9,373.1,158.9,373.1z
				 M136.4,390.1c0.4,0.1,0.9,0.2,1.5,0.3c1.7,0.6,2.6,1.5,2.6,2.8c0,0,0,0.1,0.1,0.3c0,0.2,0,0.4-0.2,0.6c-0.5,0.5-2,0.8-4.4,0.8
				c-1.5,0-2.7-0.1-3.6-0.3c-1.2-0.3-1.9-0.7-1.9-1.3c0.3-0.4,0.7-0.7,1-0.9c1.4-1,2.8-1.7,4.3-2.4
				C135.9,389.9,136.1,390,136.4,390.1z M145.3,276.7c0.4-0.9,0.5-1.9,0.4-2.9c-0.1-0.6-0.1-1.1-0.1-1.7c1.5-0.5,3.6-1,6.3-1.7
				c-2.1,8.2-2.1,16.4,0,24.7c0.1,0.4,0.2,0.8,0.3,1.2c0.8,3.1,1.7,6.1,2.8,9.1c-6.8-0.1-13.5,0.8-20,2.8c-0.4-0.7-0.7-1.1-0.8-1.4
				c-2.5-4.6-3.7-9.2-3.7-13.8c0-5.2,1.4-9.7,4.2-13.3c0.5-0.7,1.3-1.5,2.3-2.3c0.1,0.4,0.4,0.7,0.7,1.1c0.9,0.9,2,1.3,3.4,1.1
				C143.2,279.5,144.6,278.5,145.3,276.7z M145.1,266.8c0.3,0,0.6-0.1,0.9-0.1c1-0.1,2-0.3,3-0.4c1.4-0.1,2.8-0.4,4.2-0.6
				c-0.1,0.5-0.3,1-0.4,1.5c-2.7,0.3-5.1,0.8-7.3,1.6C145.4,268.1,145.3,267.5,145.1,266.8z M142.6,248.6L142.6,248.6
				c1.4-0.5,2.8-0.9,4.2-1.3c2.3-0.7,4.7-1.4,7-2.3c1-0.4,2.1-0.7,3.1-1c2.9-0.7,5.9-1.5,8.8-2.1c-1.1,1.2-2.1,2.5-3.2,3.9
				c-0.5,0.7-0.9,1.3-1.4,1.9c-2.9,4-5,8.4-6.5,13.1c-0.3,0.9-0.5,1.8-0.8,2.7c-2.4,0.2-4.8,0.4-7.1,0.7c0-0.1,0-0.3,0-0.4
				c0-1.4-0.3-3.4-0.8-6.2c-0.6-2.7-1-4.5-1.5-5.5c-0.1-0.1-0.1-0.2-0.1-0.3c-0.5-0.9-1.1-2-1.8-3h0
				C142.5,248.7,142.6,248.7,142.6,248.6z M118.1,278.3c-2.6-1.7-3.5-4.1-2.7-7.1c0.2-0.8,0.6-1.6,1-2.4c0.3-0.5,0.6-1.1,0.9-1.7
				c-0.1-0.9-0.7-1.2-1.7-1c-0.9,0.2-1.5,0.7-1.8,1.6c-1,2.3-1.3,4.7-0.9,7.2c0.1,0.3,0.1,0.6,0.1,0.9c-1.8-0.7-3-2-3.6-3.9
				c-0.1-0.5-0.2-0.9-0.2-1.4c-0.1-0.1-0.1-0.2-0.2-0.3c0.2-4.6,2.3-8.3,6.2-11c5.4-3.6,11.2-6.3,17.5-7.8c1.7-0.4,3.4-0.8,5.2-1.2
				c0.5-0.1,0.9-0.3,1.4-0.4c0.2-0.1,0.4-0.1,0.6-0.1c0,0,0,0,0.1,0c0,0,0,0,0,0c0.7,0.8,1.3,1.8,1.9,2.8c1.7,3.1,2.5,6.8,2.5,11.3
				v0.5c0,0.2,0,0.4,0,0.6c-0.1-0.2-0.1-0.4-0.2-0.6c0,0,0,0,0-0.1c0,0,0,0,0,0.1c0,0.6-0.2,1-0.6,1.4c-0.1,0.4-0.3,0.6-0.6,0.9
				c0,0.3,0,0.5-0.1,0.8c0,0.1,0.1,0.4,0.1,0.6c0,0.1,0,0.3-0.1,0.4c0.2,1.5,0.4,3.1,0.4,4.7c0,0.8,0,1.5-0.1,2.3
				c-0.1,0.6-0.4,1-0.8,1.3c-1,0.6-2.1,0.8-3.2,0.6c-0.3-1.6-0.4-3.2-0.3-4.9c0-0.5-0.1-0.9-0.2-1.4c-0.6-1.6-1.8-2.4-3.5-2.5
				c-1.8-0.1-3.5,0.2-5.1,0.9c-1.8,0.8-2.9,2.1-3.4,3.9c-0.7,2.2-1.2,4.4-1.7,6.6c-0.4,1.4-1.2,2.3-2.5,2.6c-0.3,0.1-0.7,0.1-0.9,0
				c-1.3-3.2-1.3-6.3,0-9.5c0.4-0.9,0.8-1.9,1.2-2.8c0.2-0.4,0.1-0.7-0.1-1c-0.4-0.4-0.7-0.6-1.1-0.5c-0.3,0.1-0.5,0.2-0.8,0.6
				c-0.8,0.9-1.3,2-1.7,3.1C118.3,274.3,118.1,276.3,118.1,278.3z M120.7,304.8c-0.5-1.9-0.9-4.3-1.3-7.2c-0.3-2.7-0.5-5.1-0.5-7.3
				c0-0.9,0.2-3.3,0.6-7c0-0.1,0-0.1,0-0.2c0,0,0,0.1,0.1,0.1c0.6,0.7,1.3,1.1,2.3,1.3c0.3,0.1,0.6,0.1,1,0.1
				c1.4,0.1,2.5-0.3,3.5-1.2c0.5-0.5,0.8-1,0.9-1.6c0.3-1.6,0.6-3.3,0.7-5c0.3-3.1,1.9-5.2,4.8-6c1.2-0.4,2.5-0.4,3.6,0.1
				c0.1,0,0.2,0.1,0.2,0.2c0.1,0.7,0.2,1.5,0.3,2.3c-1.8,1.5-3.4,3.3-4.7,5.4c-2.6,4.1-3.9,8.8-3.9,14c0,2.4,0.1,4.1,0.2,4.9
				c0.1,0.8,0.5,2.2,1,4.1c0.8,1.4,1.7,3.1,2.6,5.2c0.3,0.6,0.6,1.2,0.8,1.8c-2.1,0.7-4,1.7-5.7,2.8c-0.9,0.6-1.9,1.3-2.7,2
				c-0.4-0.9-0.9-1.9-1.3-2.8c-0.1-0.1-0.1-0.3-0.2-0.5C121.9,308.4,121.2,306.6,120.7,304.8z M114.2,376l0.1-0.4c0,0,0,0,0-0.1
				c-0.1-0.7-0.1-1.1-0.1-1.1c0-0.6,0.1-2.5,0.4-5.6c0.2-3,0.4-4.7,0.5-4.9c-0.2-2.1-0.2-3.9-0.1-5.4c0-0.2,0-0.4,0-0.5
				c0-0.4,0-0.8-0.1-1.2c-0.2-4.6-0.2-9.2,0-13.7c0.2-6.5,1.7-12.7,4.5-18.6c1.4-3,3.2-5.8,5.3-8.3c0.4-0.4,0.7-0.8,1.1-1.1
				c1.3-1.2,2.8-2.2,4.5-2.8c3.1-1.2,6.3-2.2,9.5-2.9c4.4-1,8.9-1.5,13.5-1.5h2.5c0.3,0.7,0.5,1.4,0.8,2.1c0.4,1,0.9,2.1,1.3,3.2
				c1.2,2.6,2.7,5,4.5,7.1c0.8,0.9,1.7,1.7,2.6,2.5c0.9,0.8,1.9,1.5,2.8,2.3c-0.8,1.7-1.5,3.4-2.1,5.3c-0.1,0.5-0.3,0.9-0.4,1.5
				c-6.9-1.7-13.7-1.5-20.3,0.7c-1.1,0.4-2.1,1-2.9,1.8c-4.5,4.3-7.1,9.6-7.6,15.9c-0.7,7.7-0.7,15.4-0.1,23.1
				c0.1,1.1,0.2,2.3,0.4,3.3c-0.1,0-0.1,0.1-0.1,0.1c-1.2,0.1-2.7,0.1-4.4,0.2c-1.2,0-2.5,0-3.9,0h-2.3c-3.8-0.1-7-0.4-9.4-0.8
				C114.6,376.1,114.4,376,114.2,376z M97.6,375.1c1.9,0.9,3.7,2,5.3,3.4c1.9,1.6,4.1,2.9,6.4,3.7c2.7,0.9,4.9,0.4,6.7-1.6
				c0.5-0.5,0.8-1.1,1.1-1.6c1.7,0.2,3.6,0.3,5.7,0.4c1.2,0.1,2.5,0.1,4,0.1h2.2c0,0.1,0.1,0.2,0.1,0.3c0.1,0.3,0.2,0.6,0.4,0.8
				c0.6,1.2,0.9,2.2,0.9,3.1c0,1-0.5,1.9-1.5,2.7c-0.1,0.1-0.5,0.4-1,0.7c-0.3,0.2-0.4,0.4-0.4,0.4c0,0.3,0,0.5,0.1,0.5
				c0,0,0.1,0.1,0.2,0.1l0.7,0.1c1.6,0,2.6-0.7,3.1-1.9c0.2-0.5,0.3-1.4,0.3-2.7c0-0.1-0.4-1.5-1.1-4.3c1.3,0,2.5-0.1,3.6-0.1
				c0.3,1.8,0.5,3.5,0.8,5.2c0.1,1.1,0.4,2.1,0.8,3.2c-3.3,0.8-6.1,2.4-8.3,4.9c-0.5,0.7-0.9,1.4-0.9,2.3c-6.3-1-12.7-1.7-19.2-2.1
				c-5.5-0.3-10.8-1.3-16-3c-2.2-0.7-3.7-2-4.7-4c-0.3-0.7-0.4-1.4,0-2.1c0,0,0-0.1,0-0.1c0,0,0,0,0,0c0.9,0.6,2.4,0.9,4.5,0.9
				c0.6,0,1-0.4,1.2-1.1c0-0.1,0-0.3,0.1-0.5v-1.2c0.1-0.5,0.1-1.1-0.1-1.7c-0.1-0.8-0.5-1.3-1.1-1.5l-0.1-0.4
				c-0.4-0.2-0.9-0.2-1.4-0.2c-0.4,0-0.9,0.1-1.3,0.4c-0.8,0.3-1.4,0.7-2,1.2V379c0.1-0.4,0.1-0.7,0-1c-0.1-0.2-0.2-0.4-0.4-0.6
				c1-0.6,2.1-1.1,3.2-1.5c0.1,0,0.1-0.1,0.2-0.1l0.1-0.6c-0.1-0.2-0.3-0.4-0.6-0.5c-0.4-0.1-0.7-0.2-1.2-0.2c-0.2,0-0.4,0-0.6,0
				l-2.3,0.3C89.4,373.1,93.5,373.2,97.6,375.1z M87.3,382.9c0.6-1,1.4-1.9,2.5-2.5c0.4-0.2,0.8-0.5,1.2-0.8
				c0.2,0.3,0.4,0.7,0.6,0.9c0.3,0.4,0.4,0.8,0.4,1.2c0,0,0,0.1,0.1,0.4c0,0.2,0,0.5-0.1,0.7c-0.4,0.7-1.5,1-3.4,1
				C88,383.7,87.6,383.4,87.3,382.9z M83.5,380.1c0.1-0.8,0.6-1.4,1.3-1.8c0.1-0.1,0.3-0.1,0.4-0.2c0.1,0.1,0.2,0.3,0.4,0.4
				c0.3,0.3,0.4,0.5,0.4,0.7c0,0.3-0.7,0.7-2.1,1.2c-0.1,0.1-0.3,0.1-0.5,0.2C83.4,380.4,83.5,380.2,83.5,380.1z M103.3,404.5
				c-0.1,0-0.3-0.1-0.6-0.2c-0.3-0.1-0.5-0.3-0.7-0.3l-6.7-1.8c-2-0.9-5.4-2.5-10-5c-1.2-0.6-2.3-1.3-3.4-1.9
				c-1.9-0.7-3.7-1.9-5.2-3.7c-2.4-2-4.1-3.7-5-5.2c-1.3-2.2-2.6-5.8-3.7-10.9c-1-4.7-1.6-8.7-1.6-11.7c0-0.8,0.1-2.1,0.2-3.9
				c0.2-2.1,0.4-3.3,0.5-3.7c0.7,0,1.4,0.1,2,0.1c2.2,0.1,3.7,0.2,4.5,0.4c1.4,0.2,2.1,0.4,2.2,0.4c-0.7,6.8-0.6,12.1,0.2,15.8
				c0.8,3.5,2.1,6.2,4,8.2c0.4,0.4,0.8,0.8,1.3,1.2c0.2,0.8,0.7,1.2,1.7,1.4h0.2c0.4,0.2,0.8,0.5,1.2,0.7c0,0.3,0,0.6-0.1,1
				c-0.4,2,0.3,3.5,2,4.5c4.2,2.5,8.7,4.1,13.7,4.7c1.5,0.1,2.9,0.3,4.4,0.5c2.3,0.3,4.5,0.7,6.8,0.9c-0.1,0.2-0.2,0.4-0.3,0.6
				c-0.4,1-0.7,2.1-0.7,3.1c0,0,0.1,0.7,0.2,2.1c0.2,0.9,0.5,1.5,1,1.8c0,0.1-0.1,0.1-0.1,0.2c0.5,0.3,1,0.7,1.5,1
				C108,404.8,104.9,404.7,103.3,404.5z M201.4,417.3c-5.3,1.3-12.5,2-21.5,2c-19.9,0-36.8-2.8-50.7-8.2c-3.3-1.3-6.5-2.8-9.6-4.5
				c-0.3-0.1-0.7-0.3-1-0.4c-1.9-0.9-3.4-2-4.5-3.1c-0.9-1-1.5-2-1.5-3c-0.1-0.2-0.1-0.4-0.1-0.6c0-0.3,0.1-0.6,0.2-0.9
				c0.2-1.1,0.8-1.8,1.8-2.1c4.1,0.4,8.2,0.6,12.4,0.7c0.1,3.4,1.8,5.6,5.1,6.5c2.2,0.6,4.4,0.8,6.6,0.6c0.5,0,1.1-0.1,1.6-0.2
				c0.5,2.4,1.9,4,4.2,4.7c2.1,0.6,4,0.3,5.8-0.9c0.7,2.5,2.4,4,5,4.3c2.2,0.2,4-0.4,5.5-1.9c0.8,2.4,2.5,3.5,5.2,3.3
				c2.2,0.1,3.9-0.6,5.4-2.1c1.6,1.7,3.4,2,5.6,1c0.6-0.3,1.1-0.7,1.4-1.3c1,0,2,0,3.1,0c8.4,0,15.1-0.4,20.1-1.1
				c0.4,2.4,1.1,4.6,2.1,6.8C202.6,417,201.9,417.2,201.4,417.3z M240.7,413.3c-4.8,4.4-10.4,7.3-16.7,8.9c-0.2,0.1-0.4,0.1-0.7,0.2
				c-3.9,0.9-7.7,0.9-11.6-0.2c-0.8-0.2-1.5-0.6-2-1.2c-0.3-0.3-0.5-0.6-0.8-0.9c-3.4-4-5.2-8.5-5.5-13.4c0-0.1-0.1-0.3-0.1-0.5
				c-0.1-1.4-0.2-2-0.2-2.1c0-2.3,0.3-4.8,0.9-7.4c0.1-0.7,0.3-1.4,0.5-2c0.4-3.2,1.8-6,3.9-8.4c0.4-0.2,0.7-0.5,1.1-0.7
				c0.4-0.2,0.7-0.3,1.1-0.5c1.4-0.6,2.9-0.9,4.4-1.1c1.5-0.1,2.9-0.1,4.4-0.1c1.7-0.1,3.3-0.1,4.9,0c0.1,0,0.2,0,0.2,0c0,0,0,0,0,0
				c0,0.1-0.1,0.3-0.1,0.5c0.2-0.2,0.4-0.4,0.5-0.5c3.4,0.2,6,1.7,7.6,4.4c0,0.2,0,0.4,0,0.6c0,0.7,0,1.4-0.1,2.1
				c-0.2,4.3-0.1,8.5,0.4,12.7c0.2,2.3,0.9,4.4,2.1,6.3c1.2,2.1,3.1,3.1,5.6,3.1h0.2C240.7,413.3,240.7,413.3,240.7,413.3z
				 M292.6,282.2c-0.1,2-0.3,4-0.6,6c-1.4,8.6-3.2,17.2-5.5,25.6c-0.6,2.3-1.5,4.6-2.7,6.6c-3.3,6.1-6.4,12.2-9.3,18.5
				c-3,6.7-4.7,13.8-4.9,21.2l-0.1,2.2c0,0-0.1,0-0.1,0c0,0.1,0.1,0.1,0.1,0.1c0,0.4,0,0.9,0,1.3c-0.1,2.9,0.5,5.6,1.8,7.9
				c0.1-0.3,0.2-0.6,0.2-0.8c0-0.8,0-1.6-0.1-2.3c0.5-0.6,0.9-1.3,1.5-2c1.3-1.9,2.9-4.7,5-8.4c0.7-1.4,1.3-2.7,1.8-4
				c1.2-2.8,1.7-5.7,1.4-8.6c-0.1-1.4-0.2-2.8-0.3-4.2c0-0.2,0-0.4-0.1-0.7c-0.1-0.4-0.1-0.9-0.1-1.3c1.1,0,2.1-0.2,3-0.7l5.1-0.7
				c0.1,5-0.9,9.8-3,14.4c-1.7,3.6-3.4,7.2-5.2,10.9c-0.9,1.8-1.9,3.6-3,5.2c-1.2,1.9-2.4,3.8-3.6,5.8c-1.5,2.7-3.2,5.2-5.1,7.6
				c-0.7,0.8-1.3,1.6-1.9,2.5c-2.7,3.8-5.5,7.6-8.3,11.3c-2.9,3.8-6,7.3-9.5,10.5c-0.9,0.9-1.8,1.6-2.8,2.3
				c-0.4,0.3-0.9,0.6-1.4,0.8c-1.1,0.6-2.2,1-3.3,1.4c-1.2,0.3-2.2,0.2-3.2-0.4c-1.2-0.8-2-1.8-2.5-3.3c-1-3.2-1.4-6.5-1.3-9.9
				c0.1-2.8,0.1-5.5-0.2-8.3c0.3-0.8,0.2-1.6-0.1-2.5c-0.5-1.2-1.2-2-2.4-2.5c-0.6-0.3-1.2-0.5-1.8-0.8c-0.9-0.4-1.9-0.7-2.8-1
				c0.1-1.1,0.1-2.3,0.2-3.6c0.1-2.9,0.2-6,0.2-9.6c0-3,0-4.5,0-4.7c-0.2-10.3-0.4-20.7-0.6-31c-0.2-11.1-0.5-19.1-0.7-24.3
				c0.4,0,0.8,0,1.2-0.1c0.9-0.1,1.7-0.3,2.5-0.7c0.4,0.5,0.9,0.9,1.5,1.2c1.6,1,3.5,1.3,5.7,0.8c0.6-0.1,1.2-0.4,1.7-0.8
				c1.1-0.9,2-2,2.7-3.2c0.6,0.4,1.3,0.8,1.9,1c0,0.3-0.1,0.6-0.1,0.9c-0.2,2.2-0.2,4.5-0.1,6.8c-0.1,3.4-0.4,6.2-0.7,8.4
				c-0.3,1.9-0.5,4.1-0.5,6.7c0,2,0,3.3,0.1,4c0.1,0.9,0.4,1.6,0.9,2c0.4,0.4,1.2,0.6,2.3,0.7c0.7,0.1,2.1,0.1,4.3,0.1
				c10.9,0,19.3-3.3,25.3-9.8c1.9-2,3.4-4.3,4.6-6.8c0.8-2.1,1.2-3.1,1.2-3.1c1.7-4.4,3-8.1,3.9-11c1.7-5.4,2.6-9.4,2.6-12
				c0.1-0.4,0.1-0.9,0-1.3c-0.2-0.8-0.9-1.2-2.2-1.2c-2.2,0-5.4,0.5-9.5,1.4c-0.1,0-0.2-0.1-0.3-0.1c0,0.1,0,0.1,0,0.2
				c-3.5,0.8-7.6,1.9-12.4,3.4c-4.8,1.5-8.3,2.6-10.3,3.2c0.1-1.3,0.1-2.7-0.1-4.1c3.1-0.7,5.6-2.5,7.5-5.2c0,0,0,0,0-0.1
				c3.5-1,7.3-2.2,11.2-3.5C275.8,285.9,282.8,284.3,292.6,282.2L292.6,282.2z M306.3,199.2C306.3,199.2,306.3,199.2,306.3,199.2
				c-2.3,8.8-4.3,17.5-6.3,26.3c-0.7,2.9-1.4,5.8-2.2,8.7c-2.2,7.8-3.6,15.8-4.1,23.9c-0.3,4.8-0.7,9.6-1.2,14.4
				c-0.3,2.5-0.3,5-0.1,7.6c-3.9,1.1-8.8,2.3-14.7,3.6c0-0.2,0-0.4-0.1-0.5c6.6-3.9,10.8-9.6,12.7-17c1.9-7.6,2.5-15.3,1.8-23.2
				c-0.7-7.9-2.7-15.3-6-22.4c-1.7-3.5-3.8-6.8-6.5-9.7c-0.8-0.9-1.7-1.9-2.5-2.8c-1.5-1.7-2.9-3.4-4.4-5.1c0.2-0.3,0.4-0.6,0.7-0.9
				c1.2-1.7,1.8-3.9,1.8-6.5c0.2-1.7-0.1-3.5-0.9-5.2c-1.5-3.3-4.8-5-9.7-5.1h-0.1c-0.1,0-0.1,0-0.2,0h-0.3c-0.5,0-0.9,0-1.3,0.1
				l-0.4-0.9c-0.2-0.7-0.5-1.4-0.7-2.1h2.8c3.2,0,6.4,0,9.7,0c3.4,0,6.8,0,10.2-0.1h1.1c2.4,0,4.8-0.1,7.2-0.1c4-0.1,7.9,0.2,11.7,1
				c1.2,0,2.3,0.1,3.5,0.3c3.2,0.4,6.3,1.2,9.2,2.4c-2.4,0.9-4.4,2.5-6.1,4.8c-1.5,2-2.7,4.3-3.6,6.6l-0.8,2.1
				C306.5,199.1,306.4,199.2,306.3,199.2z M306.6,206.8l3.1-9.8l7.1-0.4c-0.7,0.7-1.1,1.5-1.4,2.6c-0.3,1.6-0.2,3.1,0.4,4.6
				c0.3,0.9,0.9,1.8,1.7,2.5c0.3,0.3,0.6,0.5,0.9,0.7L306.6,206.8z M326.8,199.5c-0.1,1.1-0.4,2.1-0.8,3.1c-0.2,0.5-0.4,1-0.7,1.4
				c-0.3,0.4-0.6,0.7-1,1c-0.3,0.2-0.6,0.4-0.9,0.5c-0.3,0.1-0.7,0.2-1,0.2c-0.4,0.1-0.8,0-1.2-0.1c-0.3,0-0.6-0.1-0.9-0.3
				c-0.3-0.2-0.6-0.4-0.8-0.6c-0.9-0.9-1.6-2-1.9-3.3c-0.1-0.4-0.2-0.8-0.1-1.2c2.2,0.1,3.5,0.1,3.9,0.1c0.9,0,1.4-0.1,1.5-0.2
				c0,0,0-0.2,0-0.4c0-0.5,0-0.6-0.1-0.4c0,0,0,0-0.1,0c0.1-0.9-0.1-1.7-0.6-2.4c-0.5-0.9-1.2-1.4-2.2-1.5v-0.1l-9.4-0.1
				c0.5-0.8,0.9-1.5,1.5-2.3c0.5-0.8,1.1-1.5,1.7-2.2c2-2.2,4.3-3.4,6.9-3.6c0.8,0.4,1.7,0.9,2.5,1.4c0.3,0.1,0.6,0.3,0.8,0.5
				c1.3,1.1,2.2,2.5,2.6,4.2C327,195.4,327.1,197.4,326.8,199.5z M317.8,199.2c0.1-0.2,0.3-0.4,0.4-0.7c0.6-0.7,1.2-0.9,1.8-0.5
				c0.3,0,0.6,0,0.9,0.1c0.3,0.1,0.5,0.4,0.7,0.7c0.1,0.2,0.2,0.4,0.3,0.6C321,199.3,319.6,199.2,317.8,199.2z"/>
			<path fill="#915223" d="M318.3,207l-11.8-0.2l3.1-9.8l7.1-0.4c-0.7,0.7-1.1,1.5-1.4,2.6c-0.3,1.6-0.2,3.1,0.4,4.6
				c0.3,0.9,0.9,1.8,1.7,2.5C317.7,206.5,318,206.8,318.3,207z"/>
			<path fill="#915223" d="M321.8,199.3c-0.8-0.1-2.2-0.1-4-0.2c0.1-0.2,0.3-0.4,0.4-0.7c0.6-0.7,1.2-0.9,1.8-0.5
				c0.3,0,0.6,0,0.9,0.1c0.3,0.1,0.5,0.4,0.7,0.7C321.6,199,321.7,199.2,321.8,199.3z"/>
			<path fill="#976126" d="M326.8,199.5c-0.1,1.1-0.4,2.1-0.8,3.1c-0.2,0.5-0.4,1-0.7,1.4c-0.3,0.4-0.6,0.7-1,1
				c-0.3,0.2-0.6,0.4-0.9,0.5c-0.3,0.1-0.7,0.2-1,0.2c-0.4,0.1-0.8,0-1.2-0.1c-0.3,0-0.6-0.1-0.9-0.3c-0.3-0.2-0.6-0.4-0.8-0.6
				c-0.9-0.9-1.6-2-1.9-3.3c-0.1-0.4-0.2-0.8-0.1-1.2c2.2,0.1,3.5,0.1,3.9,0.1c0.9,0,1.4-0.1,1.5-0.2c0,0,0-0.2,0-0.4
				c0-0.5,0-0.6-0.1-0.4c0,0,0,0-0.1,0c0.1-0.9-0.1-1.7-0.6-2.4c-0.5-0.9-1.2-1.4-2.2-1.5v-0.1l-9.4-0.1c0.5-0.8,0.9-1.5,1.5-2.3
				c0.5-0.8,1.1-1.5,1.7-2.2c2-2.2,4.3-3.4,6.9-3.6c0.8,0.4,1.7,0.9,2.5,1.4c0.3,0.1,0.6,0.3,0.8,0.5c1.3,1.1,2.2,2.5,2.6,4.2
				C327,195.4,327.1,197.4,326.8,199.5z"/>
			<path fill="#B82025" d="M179.6,384.9c-0.1,0-0.2,0.1-0.3,0.1c-0.2,0.1-0.5,0.2-0.9,0.2l0.4-1.6L179.6,384.9z"/>
			<path fill="#EDDFD4" d="M176.8,407.6c-0.4-0.1-0.9-0.2-1.5-0.3c-0.6-0.1-1.1-0.2-1.5-0.3c0.4-0.3,0.8-0.5,1.2-0.5
				c0.6,0,1,0.2,1.4,0.6C176.6,407.3,176.8,407.5,176.8,407.6z"/>
			<path fill="#EDDFD4" d="M149.6,402.1c-1.1-0.9-3.2-1.4-6.4-1.5c0.5-0.4,1.1-0.6,1.9-0.5c1,0.1,2,0.2,2.9,0.5
				c0.4,0.1,0.8,0.3,1.2,0.5C149.3,401.4,149.5,401.8,149.6,402.1z"/>
			<path fill="#EDDFD4" d="M159.6,404.7c-0.7-0.3-1.5-0.5-2.5-0.8c-1.6-0.4-2.9-0.6-3.8-0.6h-0.2c0.1-0.1,0.2-0.3,0.4-0.4
				c0.1-0.1,0.4-0.2,0.6-0.2c2.1-0.4,3.8,0.1,5.2,1.4c0.1,0.1,0.2,0.2,0.2,0.4C159.5,404.6,159.5,404.6,159.6,404.7z"/>
			<path fill="#EDDFD4" d="M170.5,406.6c-1.2-0.4-3.2-0.6-6.2-0.6l-0.2-0.1c0.1-0.1,0.3-0.2,0.5-0.3c0.2-0.1,0.5-0.2,0.8-0.3
				c1.9-0.3,3.5,0.1,4.9,1.1C170.4,406.5,170.4,406.5,170.5,406.6z"/>
			<path fill="#FFFFFF" d="M86,379.2c0,0.3-0.7,0.7-2.1,1.2c-0.1,0.1-0.3,0.1-0.5,0.2c0-0.1,0-0.3,0.1-0.4c0.1-0.8,0.6-1.4,1.3-1.8
				c0.1-0.1,0.3-0.1,0.4-0.2c0.1,0.1,0.2,0.3,0.4,0.4C85.9,378.7,86,378.9,86,379.2z"/>
			<path fill="#FFFFFF" d="M91.9,382.7c-0.4,0.7-1.5,1-3.4,1c-0.5,0-0.9-0.3-1.2-0.8c0.6-1,1.4-1.9,2.5-2.5c0.4-0.2,0.8-0.5,1.2-0.8
				c0.2,0.3,0.4,0.7,0.6,0.9c0.3,0.4,0.4,0.8,0.4,1.2c0,0,0,0.1,0.1,0.4C92.1,382.3,92,382.6,91.9,382.7z"/>
			<path fill="#EDDFD4" d="M140.4,394c-0.5,0.5-2,0.8-4.4,0.8c-1.5,0-2.7-0.1-3.6-0.3c0.2-0.9,0.6-1.6,1-2.2
				c0.7-0.9,1.7-1.7,3.1-2.3c0.4,0.1,0.9,0.2,1.5,0.3c1.7,0.6,2.6,1.5,2.6,2.8c0,0,0,0.1,0.1,0.3C140.6,393.7,140.5,393.9,140.4,394
				z"/>
			<path fill="#915223" d="M317.1,185.7c-2.4,0.9-4.4,2.5-6.1,4.8c-1.5,2-2.7,4.3-3.6,6.6l-0.8,2.1c-0.1,0-0.2,0-0.2,0.1
				c0,0,0,0.1,0,0.1c-2.2,8.7-4.3,17.4-6.3,26.2c-0.7,2.9-1.4,5.8-2.2,8.7c-2.2,7.8-3.6,15.8-4.1,23.9c-0.3,4.8-0.7,9.6-1.2,14.4
				c-0.3,2.5-0.3,5-0.1,7.6c-3.9,1.1-8.8,2.3-14.7,3.6c0-0.2,0-0.4-0.1-0.5c6.6-3.9,10.8-9.6,12.7-17c1.9-7.6,2.5-15.3,1.8-23.2
				c-0.7-7.9-2.7-15.3-6-22.4c-1.7-3.5-3.8-6.8-6.5-9.7c-0.8-0.9-1.7-1.9-2.5-2.8c0.3-1,0.7-2.8,1.2-5.4c0.7-3.5,1.2-6.1,1.6-7.6
				c1.5-6,3.3-10.2,5.4-12.8c2.4,0,4.8-0.1,7.2-0.1c4-0.1,7.9,0.2,11.7,1c1.2,0,2.3,0.1,3.5,0.3
				C311.1,183.7,314.1,184.5,317.1,185.7z"/>
			<path fill="#976126" d="M285.5,182.1c-2.1,2.6-3.9,6.8-5.4,12.8c-0.4,1.6-0.9,4.1-1.6,7.6c-0.5,2.6-0.9,4.4-1.2,5.4
				c-1.5-1.7-2.9-3.4-4.4-5.1c0.2-0.3,0.4-0.6,0.7-0.9c1.2-1.7,1.8-3.9,1.8-6.5c0.2-1.7-0.1-3.5-0.9-5.2c-1.5-3.3-4.8-5-9.7-5.1
				h-0.1c-0.1,0-0.1,0-0.2,0h-0.3c-0.5,0-0.9,0-1.3,0.1l-0.4-0.9c-0.2-0.7-0.5-1.4-0.7-2.1h2.8c3.2,0,6.4,0,9.7,0
				c3.4,0,6.8,0,10.2-0.1H285.5z"/>
			<path fill="#EAEAE9" d="M187.9,143.5c-0.4,0.6-0.9,1.2-1.3,1.7c-2.4,3.1-5.3,5.4-8.7,7c-3.4,1.6-7,2.1-10.6,1.5
				c-2-0.3-3.7-1.1-5.2-2.4c-1.2-1.2-2.2-2.5-2.8-4.1c-1.1-2.7-1.7-5.5-1.7-8.3c2.1,2.7,4.7,3.8,8,3.3c3-0.6,5.7-1.7,8.3-3.3
				c0.8-0.5,1.5-0.9,2.4-1.2c1.6-0.7,3.3-1.2,5.1-1.5c2.7-0.2,4.9,0.7,6.8,2.6c0.1,0.2,0.3,0.4,0.4,0.6
				C189.1,140.9,188.9,142.2,187.9,143.5z"/>
			<path fill="#986D41" d="M205.6,182.3c-1.2,1.8-2.2,4.1-3,7c-0.4,1.6-0.8,2.7-1,3.5c-0.1,0.2-0.1,0.5-0.2,0.7
				c-0.9,0.7-2,1.8-3.3,3.2c-0.9,1-1.7,2-2.3,3c-0.7,0.9-1,1.5-1,1.8c0,0.7,0.4,1.2,1.4,1.5c0.2,0.1,0.5,0.1,0.9,0.2l-8.7,5.9
				c-2.9,2.6-5.4,5.6-7.4,9c-2,3.3-3.9,6.7-5.5,10.2c-1.1,2.2-2,4.5-3,6.8c-1,0.9-2.1,1.9-3.1,2.9c0.3-2.6,0.5-4.5,0.6-5.6
				c0.4-2.6,1-5.7,1.7-9.2c0.4-2.1,1.1-5.2,2-9.4c1.5-7.1,4.4-15.4,8.5-24.7c0.7-1.6,1.7-3.9,3.2-7c1.8,0.3,3.7,0.4,5.6,0.3H205.6z"
				/>
			<path fill="#976126" d="M209.1,182.3c-0.2,0.2-0.4,0.3-0.5,0.5c-0.8,0.9-1.2,2-1.2,3c0,0.7,0.3,1.5,0.9,2.6
				c0,0.1-0.1,0.2-0.1,0.3c-0.6,1.3-1.2,2.5-1.8,3.8c-0.2,0-0.4-0.1-0.6-0.1c-0.4,0-0.8,0.1-1.1,0.2c-0.3-0.1-0.6-0.2-1.1-0.2
				c-0.5,0-1.2,0.3-2,0.9c0.1-0.2,0.1-0.4,0.2-0.7c0.2-0.7,0.5-1.9,1-3.5c0.8-2.9,1.8-5.2,3-7H209.1z"/>
			<path fill="#D5444C" d="M206.2,204.5c-0.4-0.2-0.9-0.4-1.4-0.6c-1.4-0.5-2.5-0.9-3.3-1.2c-0.4-0.1-0.8-0.3-1.2-0.5
				c0,0-0.1-0.1-0.1-0.1c0,0,0,0.1-0.1,0.1c-0.8-0.4-1.6-0.8-2.3-1.1c1.4-1.7,3-3.4,4.9-5.2c0.2-0.2,0.4-0.4,0.6-0.6
				c0.7,1.8,1.3,3.8,1.9,6.1C205.7,202.4,206,203.5,206.2,204.5z"/>
			<path fill="#D5444C" d="M199.1,204.1c-1.3,2.4-2.4,4.9-3.3,7.5c-1.7,4.5-4.4,8.3-8.3,11.2c-3.7,2.8-7.4,5.7-11,8.7l-0.2-0.2
				c0.2-0.5,0.4-0.9,0.6-1.4c2.7-5.8,6.2-11.2,10.3-16.1C190.7,210,194.6,206.7,199.1,204.1z"/>
			<path fill="#976126" d="M132.2,278.8c-2.6,4.1-3.9,8.8-3.9,14c0,2.4,0.1,4.1,0.2,4.9c0.1,0.8,0.5,2.2,1,4.1
				c0.8,1.4,1.7,3.1,2.6,5.2c0.3,0.6,0.6,1.2,0.8,1.8c-2.1,0.7-4,1.7-5.7,2.8c-2.3-2.9-3.9-5.4-4.7-7.7c-1-2.6-1.5-6.3-1.5-10.9
				c0-2.5,0-4,0.1-4.6c0.1-0.5,0.3-1.8,0.8-3.9c0.3,0.1,0.6,0.1,1,0.1c1.4,0.1,2.5-0.3,3.5-1.2c0.5-0.5,0.8-1,0.9-1.6
				c0.3-1.6,0.6-3.3,0.7-5c0.3-3.1,1.9-5.2,4.8-6c1.2-0.4,2.5-0.4,3.6,0.1c0.1,0,0.2,0.1,0.2,0.2c0.1,0.7,0.2,1.5,0.3,2.3
				C135,275,133.4,276.8,132.2,278.8z"/>
			<path fill="#986D41" d="M127.2,311.7c-0.9,0.6-1.9,1.3-2.7,2c-0.4-0.9-0.9-1.9-1.3-2.8c-0.1-0.1-0.1-0.3-0.2-0.5
				c-1-1.9-1.8-3.8-2.3-5.6c-0.5-1.9-0.9-4.3-1.3-7.2c-0.3-2.7-0.5-5.1-0.5-7.3c0-0.9,0.2-3.3,0.6-7l0.1-0.1
				c0.6,0.7,1.3,1.1,2.3,1.3c-0.4,2-0.7,3.3-0.8,3.9c-0.1,0.5-0.1,2-0.1,4.6c0,4.7,0.5,8.3,1.5,10.9
				C123.3,306.2,124.9,308.8,127.2,311.7z"/>
			<path fill="#915223" d="M153.2,265.8c-0.1,0.5-0.3,1-0.4,1.5c-2.7,0.3-5.1,0.8-7.3,1.6c-0.1-0.7-0.2-1.3-0.3-2
				c0.3,0,0.6-0.1,0.9-0.1c1-0.1,2-0.3,3-0.4C150.4,266.2,151.8,266,153.2,265.8z"/>
			<path fill="#D5444C" d="M156.6,309.9c-1.3,0.5-2.5,0.8-3.7,0.8c-7-0.7-11.3-1.2-13.1-1.4c4.4-1,8.9-1.5,13.5-1.5h2.5
				C156.1,308.5,156.3,309.2,156.6,309.9z"/>
			<path fill="#D5444C" d="M162.5,320.2h-10.4c-8.9,1.5-15.3,5.7-19.3,12.6c-3.3,5.8-5,13.6-5,23.6c0,3.5,0.3,7,0.9,10.4
				c0.9,5.2,1.5,8.6,1.7,10.2c-1.2,0-2.5,0-3.9,0h-2.3c-1.3-11.1-2-17.7-2-19.9c-0.1-4.4-0.1-7.9,0-10.5c0.1-4.6,0.5-8.5,1.2-11.6
				c0.3-1.3,0.8-3.1,1.5-5.5c0.8-2.4,1.2-4.1,1.4-4.9c0.2-1,1-2.4,2.3-4c0.7-0.9,1.6-2,2.8-3.4c-0.3-0.1-1.2-0.4-2.8-0.9
				c-1.2-0.3-2.1-0.7-2.8-1.2c1.3-1.2,2.8-2.2,4.5-2.8c3.1-1.2,6.3-2.2,9.5-2.9c1.8,0.2,6.1,0.7,13.1,1.4c1.2,0,2.4-0.3,3.7-0.8
				c0.4,1,0.9,2.1,1.3,3.2C159.1,315.7,160.6,318,162.5,320.2z"/>
			<path fill="#D5444C" d="M131.4,317.2c-1.2,1.3-2.1,2.5-2.8,3.4c-1.3,1.7-2,3-2.3,4c-0.2,0.8-0.7,2.4-1.4,4.9
				c-0.7,2.4-1.2,4.2-1.5,5.5c-0.7,3.1-1.1,7-1.2,11.6c-0.1,2.6-0.1,6.1,0,10.5c0,2.2,0.7,8.8,2,19.9c-3.8-0.1-7-0.4-9.4-0.8
				c-0.2-0.1-0.4-0.1-0.6-0.1l0.1-0.4c0,0,0,0,0-0.1c-0.1-0.7-0.1-1.1-0.1-1.1c0-0.6,0.1-2.5,0.4-5.6c0.2-3,0.4-4.7,0.5-4.9
				c-0.2-2.1-0.2-3.9-0.1-5.4c0-0.2,0-0.4,0-0.5c0-0.4,0-0.8-0.1-1.2c-0.2-4.6-0.2-9.2,0-13.7c0.2-6.5,1.7-12.7,4.5-18.6
				c1.4-3,3.2-5.8,5.3-8.3c0.4-0.4,0.7-0.8,1.1-1.1c0.7,0.5,1.7,0.9,2.8,1.2C130.2,316.7,131.1,317,131.4,317.2z"/>
			<path fill="#D5444C" d="M168,325c-0.8,1.7-1.5,3.4-2.1,5.3c-0.1,0.5-0.3,0.9-0.4,1.5c-6.9-1.7-13.7-1.5-20.3,0.7
				c-1.1,0.4-2.1,1-2.9,1.8c-4.5,4.3-7.1,9.6-7.6,15.9c-0.7,7.7-0.7,15.4-0.1,23.1c0.1,1.1,0.2,2.3,0.4,3.3c-0.1,0-0.1,0.1-0.1,0.1
				c-1.2,0.1-2.7,0.1-4.4,0.2c-0.2-1.6-0.8-5-1.7-10.2c-0.6-3.5-0.9-6.9-0.9-10.4c0-9.9,1.7-17.8,5-23.6c4-6.9,10.4-11.1,19.3-12.6
				h10.4c0.8,0.9,1.7,1.7,2.6,2.5C166.1,323.5,167,324.2,168,325z"/>
			<path fill="#915223" d="M165.1,333.9l-1,6.4c-1.6-0.5-3.1-1-4.7-1.6c-3.9-1.4-7.5-3-11-4.8c3.8-0.9,7.7-1.2,11.7-0.9
				C161.9,333.2,163.5,333.5,165.1,333.9z"/>
			<path fill="#915223" d="M112.9,404.9c-4.8-0.1-8-0.2-9.5-0.4c-0.1,0-0.3-0.1-0.6-0.2c-0.3-0.1-0.5-0.3-0.7-0.3l-6.7-1.8
				c-2-0.9-5.4-2.5-10-5c-1.2-0.6-2.3-1.3-3.4-1.9c-1.8-1.2-3.6-2.3-5.2-3.6c0,0,0,0-0.1,0c-1.8-2.1-3.4-4.9-4.8-8.5
				c-2.2-5.9-3.3-12.3-3.3-19.2c0-0.8,0.1-2.2,0.3-4.1c0.1-1.6,0.2-2.7,0.3-3.4c2.2,0.1,3.7,0.2,4.5,0.4c1.4,0.2,2.1,0.4,2.2,0.4
				c-0.7,6.8-0.6,12.1,0.2,15.8c0.8,3.5,2.1,6.2,4,8.2c0.4,0.4,0.8,0.8,1.3,1.2c0.2,0.8,0.7,1.2,1.7,1.4h0.2
				c0.4,0.2,0.8,0.5,1.2,0.7c0,0.3,0,0.6-0.1,1c-0.4,2,0.3,3.5,2,4.5c4.2,2.5,8.7,4.1,13.7,4.7c1.5,0.1,2.9,0.3,4.4,0.5
				c2.3,0.3,4.5,0.7,6.8,0.9c-0.1,0.2-0.2,0.4-0.3,0.6c-0.4,1-0.7,2.1-0.7,3.1c0,0,0.1,0.7,0.2,2.1c0.2,0.9,0.5,1.5,1,1.8
				c0,0.1-0.1,0.1-0.1,0.2C111.9,404.2,112.4,404.6,112.9,404.9z"/>
			<path d="M82,395.4c-1.9-0.7-3.7-1.9-5.2-3.7c0,0,0.1,0,0.1,0C78.4,393,80.1,394.2,82,395.4z"/>
			<path fill="#986D41" d="M76.7,391.7c-2.4-2-4.1-3.7-5-5.2c-1.3-2.2-2.6-5.8-3.7-10.9c-1-4.7-1.6-8.7-1.6-11.7
				c0-0.8,0.1-2.1,0.2-3.9c0.2-2.1,0.4-3.3,0.5-3.7c0.7,0,1.4,0.1,2,0.1c0,0.7-0.1,1.8-0.3,3.4c-0.2,2-0.3,3.4-0.3,4.1
				c0,6.9,1.1,13.3,3.3,19.2C73.3,386.8,74.9,389.6,76.7,391.7z"/>
			<g>
				<path fill="#FCD4A4" d="M89.6,375.9c-1.1,0.4-2.2,0.9-3.2,1.5c0.2,0.1,0.5,0.4,0.6,0.6c0.1,0.3,0.2,0.7,0.2,1v0.5
					c1-0.5,1-0.9,1.8-1.2c0.4-0.2,0.8-0.4,1.2-0.4c0.5-0.1,0.9,0,1.3,0.2l0,0.4c0.6,0.2,1.2,0.7,1.3,1.5c0.1,0.6,0.3,1.1,0.3,1.7
					v1.2c2-0.2,3.4,0.1,5.1,0.7c1.1,0.4,2.5,1.2,4.5,2.5c2.1,1.3,3.7,2.2,4.9,2.7c2.1,0.9,4.3,1.3,6.6,1.3c3.8,0,7-1.1,9.7-3.2
					c2.3-1.8,4-3.9,5.1-6.9c-0.1-0.1-0.1,0-0.1,0h-2.2c-1.4,0-2.7-0.3-4-0.4c-2.1-0.1-4-0.3-5.7-0.5c-0.3,0.6-0.7,1-1.1,1.5
					c-1.8,2-4.1,2.5-6.7,1.6c-2.4-0.8-4.5-2.1-6.4-3.7c-1.6-1.4-3.4-2.5-5.3-3.4c-4.1-1.9-8.2-2-12.4-0.3l2.3-0.3c0.2,0,0.4,0,0.6,0
					c0.4,0,0.8,0.1,1.2,0.2c0.3,0.1,0.5,0.3,0.6,0.5l-0.1,0.6C89.7,375.9,89.6,375.9,89.6,375.9z"/>
				<path fill="#FCD4A4" d="M135.2,384.4c-0.3-1.7-0.5-3.5-0.8-5.2c-1.1,0.1-2.3,0.1-3.6,0.1c0.7,2.8,1.1,4.2,1.1,4.3
					c0,1.2-0.1,2.1-0.3,2.7c-0.5,1.3-1.5,1.9-3.1,1.9l-0.7-0.1c-0.1-0.1-0.2-0.1-0.2-0.1c-0.1,0-0.1-0.2-0.1-0.5
					c0-0.1,0.1-0.2,0.4-0.4c0.6-0.4,0.9-0.6,1-0.7c1-0.8,1.5-1.7,1.5-2.7c0-0.9-0.3-1.9-0.9-3.1c-0.1-0.2-0.3-0.5-0.4-0.8
					c-1,3-2.7,5.4-5.1,7.3c-2.7,2.1-6,3.2-9.7,3.2c-2.4,0-4.6-0.4-6.7-1.3c-1.2-0.5-2.9-1.4-4.9-2.7c-2-1.3-3.5-2.1-4.7-2.5
					c-1.7-0.6-3.5-0.9-5.4-0.7c0,0.2-0.1,0.4-0.1,0.5c-0.2,0.7-0.6,1.1-1.2,1.1c-2.1,0-3.6-0.3-4.5-0.9l-0.1,0.1
					c-0.3,0.7-0.3,1.4,0,2.1c1,2,2.5,3.3,4.7,4c5.2,1.7,10.5,2.6,16,3c6.5,0.4,12.9,1,19.2,2.1c0-0.9,0.4-1.6,0.9-2.3
					c2.2-2.5,4.9-4.2,8.3-5C135.6,386.5,135.4,385.5,135.2,384.4z"/>
			</g>
			<path fill="#915223" d="M203.5,416.7c-0.9,0.3-1.6,0.5-2.1,0.6c-5.3,1.3-12.5,2-21.5,2c-19.9,0-36.8-2.8-50.7-8.2
				c-3.3-1.3-6.5-2.8-9.6-4.5c-0.3-0.1-0.7-0.3-1-0.4c-1.9-0.9-3.4-2-4.5-3.1c-0.9-1-1.5-2-1.5-3c-0.1-0.2-0.1-0.4-0.1-0.6
				c0-0.3,0.1-0.6,0.2-0.9c0.2-1.1,0.8-1.8,1.8-2.1c4.1,0.4,8.2,0.6,12.4,0.7c0.1,3.4,1.8,5.6,5.1,6.5c2.2,0.6,4.4,0.8,6.6,0.6
				c0.5,0,1.1-0.1,1.6-0.2c0.5,2.4,1.9,4,4.2,4.7c2.1,0.6,4,0.3,5.8-0.9c0.7,2.5,2.4,4,5,4.3c2.2,0.2,4-0.4,5.5-1.9
				c0.8,2.4,2.5,3.5,5.2,3.3c2.2,0.1,3.9-0.6,5.4-2.1c1.6,1.7,3.4,2,5.6,1c0.6-0.3,1.1-0.7,1.4-1.3c1,0,2,0,3.1,0
				c8.4,0,15.1-0.4,20.1-1.1C201.7,412.3,202.5,414.5,203.5,416.7z"/>
			<path fill="#915223" d="M225.4,345.2c-4.2,0.9-10.5,1.3-19.1,1.3c-5.1,0-10.1-0.2-15-0.7c1.1-2,2.4-3.7,4-5.3
				c0.3,0.1,0.6,0.3,0.9,0.4h0.2c0.9,0,2,0.4,3.6,1.2c0.4,0,0.9,0.1,1.6,0.3c0.4,0.1,1.3,0.4,2.4,0.7c1.5,0.4,3.1,0.6,4.8,0.8
				c0.9,0,2,0,3.1,0c2,0,3.8,0,5.3,0.1c2.7-0.6,5.4-1.3,8.1-2.1L225.4,345.2z"/>
			<path fill="#915223" d="M200.1,348.7c-0.4,0.3-0.9,0.7-1.4,1.1c-1.5,1.5-3.9,3.7-7.3,6.7c-1.5,0.9-2.9,1.8-4.1,2.5
				c0.4-1.7,0.7-3.3,1.1-4.9c1.6-1.5,3.5-3.4,6-5.7c0,0,0,0,0.1,0C196.3,348.5,198.2,348.6,200.1,348.7z"/>
			<path fill="#986D41" d="M194.4,348.4c-2.4,2.3-4.4,4.1-6,5.7c0.2-0.7,0.3-1.4,0.5-2c0.4-1.4,0.8-2.7,1.3-4
				C191.7,348.2,193,348.3,194.4,348.4z"/>
			<path fill="#FFFFFF" d="M136.4,390.1c-1.3,0.6-2.3,1.3-3.1,2.3c-0.4,0.6-0.8,1.4-1,2.2c-1.2-0.3-1.9-0.7-1.9-1.3
				c0.3-0.4,0.7-0.7,1-0.9c1.4-1,2.8-1.7,4.3-2.4C135.9,389.9,136.1,390,136.4,390.1z"/>
			<g>
				<path fill="#FCD4A4" d="M173.3,407.7c-0.1,0.3-0.2,0.6-0.2,0.9c0,0.6,0.2,1,0.6,1.4c0.4,0.4,0.9,0.6,1.4,0.6
					c0.6,0,1.6-0.2,2-0.6c0.4-0.4,1.1-0.9,1.1-1.4v-0.1c-1-0.1-1.9-0.2-2.7-0.4C174.8,407.9,173.7,407.8,173.3,407.7z"/>
				<path fill="#FCD4A4" d="M164.1,406.6c-0.1,0.2-0.1,0.2-0.1-0.1c-0.1,0.1-0.1,0.1-0.2,0.1c-0.1,0-0.2-0.1-0.2-0.1
					c-0.8,0.9-1,2-0.5,3.5c0.4,0.6,1,1,1.8,1c2.9,0.3,4.8-0.9,5.7-3.6c-0.4-0.1-0.9-0.2-1.4-0.3
					C167.8,406.9,166.1,406.7,164.1,406.6z"/>
				<path fill="#FCD4A4" d="M142.2,402.4c-0.1,0.9,0.1,1.8,0.7,2.6c1.1,1.4,2.4,1.9,4.1,1.3c1-0.4,1.8-1,2.2-2.1
					c0.2-0.4,0.3-0.8,0.4-1.2c-3.1-0.9-5.4-1.5-7-1.7C142.4,401.7,142.3,402,142.2,402.4z"/>
				<path fill="#FCD4A4" d="M158.9,405.4c-0.7-0.5-2.6-0.9-5.7-1.1c0,0,0-0.1-0.1-0.1c-0.1,0-0.1-0.2-0.1-0.5l0.1-0.3
					c-1.1,1.3-1.3,2.8-0.5,4.5c0.4,0.9,1.1,1.4,2,1.6c2,0.3,3.6-0.3,4.7-1.9c0.2-0.5,0.3-1.1,0.4-1.7c0,0,0,0-0.1,0
					C159.3,405.7,159.1,405.5,158.9,405.4z"/>
				<path fill="#FCD4A4" d="M176.7,395.7c-0.4-2-0.7-4.1-0.9-6.1c-0.2-3.1,0.1-6.1,0.9-9c-2-2.4-4.1-4.1-6.4-5
					c-0.3,1.2-0.8,2.6-1.6,4.1c-0.8,1.5-1.7,3-2.7,4.4c-0.8,1.1-1.6,2.3-2.5,3.9c-0.8,1.1-2,1.8-3.7,2.4c-1.1,0.3-2.8,0.8-5.1,1.3
					c-2.1,0.5-3.7,0.9-4.7,1.3c-3,1.1-5.3,2.9-7,5.5c1.1-0.5,2.3-0.7,3.6-0.6c2.5,0,4.3,1.2,5.2,3.5c1.7-1,3.6-1.4,5.6-1.2
					c2.6,0.3,4.1,1.7,4.7,4.2c1.1-0.8,2.4-1.3,3.7-1.4c0.6-0.1,1.1-0.1,1.7-0.1c2.2-0.2,3.9,0.5,5.1,2.1c0.9-0.5,1.8-0.7,2.7-0.5
					c0.8,0.1,1.5,0.3,2.3,0.5c0-0.1,0-0.3,0-0.4C177.7,401.6,177.4,398.7,176.7,395.7z"/>
				<path fill="#FCD4A4" d="M150,393c1-0.4,2.6-0.8,4.7-1.3c2.3-0.5,4-1,5.1-1.3c1.7-0.5,2.9-1.3,3.7-2.4c0.9-1.5,1.7-2.8,2.5-3.9
					c1-1.4,1.9-2.8,2.7-4.4c0.8-1.6,1.3-2.8,1.6-4c-1.6-0.6-3.2-0.8-4.9-0.8h-0.3c-1.5,0-2.8-0.1-3.8,0c0,0.7-0.1,1.3-0.3,2
					c-0.4,1.4-1,2.5-2,3.5c-2.7,2.8-5.9,4.8-9.7,5.7c-3.4,0.9-6.7,1.7-10.1,2.5c0.3,0.1,0.5,0.3,0.7,0.4c0.5,0.4,0.9,0.8,1.2,1.3
					c0.5,0.9,0.7,1.7,0.7,2.7c0,0.1,0,0.5,0,0.9c0,0.4-0.1,0.8-0.4,1.1c-0.7,0.9-2.5,1.3-5.4,1.3c-1.7,0-3-0.1-4.1-0.4
					c-1.2-0.3-2-0.7-2.5-1.2l-0.1,0.1c-0.9,2.8-0.1,5,2.4,6.6c0.5,0.3,1.1,0.5,1.7,0.5l0.1-0.1c0.1,0,0.1,0.1,0.2,0.1c2,0,4,0,6-0.1
					c0.2-1,0.7-1.8,1.5-2.4c0.5-0.4,1.1-0.8,1.7-1C144.7,395.9,147,394.1,150,393z"/>
			</g>
			<path fill="#986D41" d="M206.4,392.7c-1,3.3-1.5,7-1.5,11.1c0,4.4,0.5,8,1.5,10.9c0.6,1.8,1.5,3.6,2.6,5.5
				c-3.4-4-5.2-8.5-5.5-13.4c0-0.1-0.1-0.3-0.1-0.5c-0.1-1.4-0.2-2-0.2-2.1c0-2.3,0.3-4.8,0.9-7.4c0.1-0.7,0.3-1.4,0.5-2
				c0.4-3.2,1.8-6,3.9-8.4c0.4-0.2,0.7-0.5,1.1-0.7c0.4-0.2,0.7-0.3,1.1-0.5C208.8,387,207.3,389.5,206.4,392.7z"/>
			<path fill="#976126" d="M223.9,422.3c-0.2,0.1-0.4,0.1-0.7,0.2c-3.9,0.9-7.7,0.9-11.6-0.2c-0.8-0.2-1.5-0.6-2-1.2
				c-0.3-0.3-0.5-0.6-0.8-0.9c-1.2-1.9-2-3.7-2.6-5.5c-1-2.9-1.5-6.5-1.5-10.9c0-4.1,0.5-7.8,1.5-11.1c1-3.3,2.4-5.7,4.2-7.5
				c1.4-0.6,2.9-0.9,4.4-1.1c1.5-0.1,2.9-0.1,4.4-0.1c-2.2,2.9-3.9,6.2-5.1,9.8c-1.3,3.9-2,7.9-2,12c0,5.3,1.7,9.5,5.1,12.8
				c1.6,1.5,3.4,2.6,5.4,3.3C223.1,422.1,223.5,422.2,223.9,422.3z"/>
			<path fill="#915223" d="M240.7,413.4c-4.8,4.4-10.4,7.3-16.7,8.9c-0.4-0.1-0.8-0.2-1.2-0.3c-2-0.6-3.8-1.7-5.4-3.3
				c-3.4-3.3-5.1-7.5-5.1-12.8c0-4.1,0.7-8.1,2-12c1.2-3.6,3-6.9,5.1-9.8c1.7-0.1,3.3-0.1,4.9,0l0.2,0.1c0,0.1-0.1,0.3-0.1,0.5
				c0.2-0.2,0.4-0.4,0.5-0.5c3.4,0.2,6,1.7,7.6,4.4c0,0.2,0,0.4,0,0.6c0,0.7,0,1.4-0.1,2.1c-0.2,4.3-0.1,8.5,0.4,12.7
				c0.2,2.3,0.9,4.4,2.1,6.3c1.2,2.1,3.1,3.1,5.6,3.1L240.7,413.4z"/>
			<path fill="#915223" d="M158.9,373C158.9,373,158.9,373,158.9,373c-0.1,0.1-0.1,0.1,0,0.1l-0.2,1.5h0.2c-0.1,0.1-0.1,0.3-0.2,0.4
				c0,0.1,0,0.2,0,0.4c0,0,0,0.1,0,0.1c0,0,0,0,0.1,0c0.1,1.9-0.6,3.5-2.2,4.8c-2.4,1.9-5.2,3.2-8.2,3.9c-0.9,0.2-1.9,0.5-2.8,0.8
				c-2.5,0.8-5.1,1.5-7.5,1.9l-0.9-3.9c1.9-0.9,9.2-4.6,21.9-10.9L158.9,373z"/>
			<path fill="#986D41" d="M160,366.2l-0.9,5.9c-12.7,6.3-20,10-21.9,10.9l-0.8-3.4c1.7-0.8,3.7-1.7,5.8-2.7
				c7.3-3.6,12-6.2,14.1-7.8C157.6,368,158.9,367.1,160,366.2z"/>
			<path fill="#915223" d="M271.5,287c-3.9,1.3-7.7,2.5-11.2,3.5c0,0,0,0.1,0,0.1c-1.9,2.8-4.4,4.5-7.5,5.2c0.2,1.4,0.2,2.8,0.1,4.1
				c2-0.7,5.5-1.7,10.3-3.2c4.8-1.5,8.9-2.6,12.4-3.4c0-0.1,0-0.1,0-0.2c0.1,0.1,0.2,0.1,0.3,0.1c4.1-0.9,7.3-1.4,9.5-1.4
				c1.2,0,1.9,0.4,2.2,1.2c0.1,0.4,0.1,0.8,0,1.3c0,2.6-0.9,6.6-2.6,12c-0.9,2.9-2.3,6.6-3.9,11c0,0-0.4,1-1.2,3.1
				c-1.2,2.5-2.7,4.7-4.6,6.8c-6,6.6-14.4,9.8-25.3,9.8c-2.2,0-3.6,0-4.3-0.1c-1.1-0.1-1.8-0.3-2.3-0.7c-0.5-0.4-0.8-1.1-0.9-2
				c-0.1-0.7-0.1-2-0.1-4c0-2.5,0.1-4.7,0.5-6.7c0.4-2.3,0.6-5.1,0.7-8.4c-0.1-2.3-0.1-4.6,0.1-6.8c0-0.3,0.1-0.6,0.1-0.9
				c-0.6-0.2-1.3-0.5-1.9-1c-0.7,1.2-1.6,2.3-2.7,3.2c-0.5,0.4-1,0.7-1.7,0.8c-2.1,0.5-4,0.2-5.7-0.8c-0.6,6.4-0.9,15.2-0.8,26.4
				c0.1,12.7-0.1,21.9-0.6,27.6v19.7c0.6,0.2,1.2,0.5,1.8,0.8c1.1,0.5,1.9,1.4,2.4,2.5c0.3,0.8,0.4,1.7,0.1,2.5
				c0.3,2.8,0.4,5.5,0.2,8.3c-0.1,3.4,0.3,6.7,1.3,9.9c0.4,1.4,1.2,2.5,2.5,3.3c1,0.6,2,0.7,3.2,0.4c1.2-0.4,2.3-0.8,3.3-1.4
				c0.4-0.3,0.9-0.5,1.4-0.8c1-0.7,2-1.4,2.8-2.3c3.4-3.3,6.6-6.8,9.5-10.5c2.8-3.7,5.6-7.5,8.3-11.3c0.6-0.9,1.2-1.7,1.9-2.5
				c1.9-2.4,3.6-4.9,5.1-7.6c1.1-2,2.3-3.9,3.6-5.8c1.1-1.7,2.1-3.4,3-5.2c1.8-3.6,3.5-7.3,5.2-10.9c2.1-4.5,3.1-9.3,3-14.4
				l-5.1,0.7c-0.9,0.4-1.9,0.7-3,0.7c0,0.4,0,0.9,0.1,1.3c0.1,0.3,0.1,0.5,0.1,0.7c0.1,1.4,0.1,2.8,0.3,4.2c0.3,2.9-0.2,5.8-1.4,8.6
				c-0.5,1.3-1.1,2.6-1.8,4c-2,3.7-3.7,6.5-5,8.4c-0.5,0.7-1,1.4-1.5,2c0,0.8,0,1.6,0.1,2.3c0,0.3-0.1,0.5-0.2,0.8
				c-1.3-2.4-1.9-5-1.8-7.9c0-0.4,0-0.9,0-1.3c0,0-0.1-0.1-0.1-0.1c0,0,0.1,0,0.1,0l0.1-2.2c0.2-7.4,1.8-14.4,4.9-21.2
				c2.8-6.3,6-12.4,9.3-18.5c1.2-2.1,2.1-4.3,2.7-6.6c2.3-8.4,4.1-16.9,5.5-25.6c0.3-2,0.5-4,0.6-6v0
				C282.8,284.3,275.8,285.9,271.5,287z M266.4,349.8c-1.5,19.3-2.4,29-2.9,29c-0.6,0-0.9-0.8-1.1-2.3c-2.4,2.7-5.1,5.5-8,8.4
				c-7,6.9-11.9,11.2-14.7,12.8c0,1.3,0.1,2.5,0.2,3.6c0.3,2.2,0.7,3.9,1.2,4.9c-0.2,0.2-0.4,0.3-0.8,0.3c-1.2,0-2-1.5-2.3-4.5
				c-0.1-0.9-0.1-2-0.1-3.1c0.1-1,0.1-1.5,0.1-1.5c0-0.4,0-0.9,0-1.4c-0.1,0-0.1,0-0.1,0c0,0,0.1-0.1,0.1-0.1
				c0.1-7.9,0.3-15.6,0.6-23.3c0.4-12,0.9-19.6,1.4-22.7c-0.1-0.1-0.1-0.1-0.1-0.3c-0.1-0.1-0.1-0.2-0.1-0.4
				c1.6-0.5,3.8-1.4,6.8-2.6c0.1-0.1,0.2-0.1,0.3-0.1c1.4-0.2,6.1-1.6,14.3-4.2c0.1,0,1.2-0.3,3.4-0.9c0.9,0.6,1.5,1.9,1.7,4.1
				C266.6,346.8,266.6,348.3,266.4,349.8z"/>
			<path d="M266.4,345.3c-0.2-2.2-0.8-3.6-1.7-4.1c-2.2,0.5-3.3,0.8-3.4,0.9c-8.2,2.6-12.9,4-14.3,4.2c-0.1,0.1-0.2,0.1-0.3,0.1
				c-3,1.3-5.2,2.1-6.8,2.6c0,0.1,0,0.3,0.1,0.4c0,0.1,0.1,0.2,0.1,0.3c-0.5,3.1-1,10.7-1.4,22.7c-0.2,7.6-0.4,15.4-0.6,23.3
				c-0.1,0-0.1,0.1-0.1,0.1c0,0,0.1,0,0.1,0c0,0.4,0,0.9,0,1.4c0,0,0,0.5-0.1,1.5c0,1.1,0,2.2,0.1,3.1c0.3,3,1,4.5,2.3,4.5
				c0.4,0,0.6-0.1,0.8-0.3c-0.6-1-1-2.7-1.2-4.9c-0.1-1.1-0.2-2.3-0.2-3.6c2.8-1.6,7.7-5.9,14.7-12.8c2.9-2.9,5.6-5.7,8-8.4
				c0.1,1.6,0.5,2.3,1.1,2.3c0.5,0,1.5-9.7,2.9-29C266.6,348.3,266.6,346.8,266.4,345.3z M263.3,363.1c-0.6,4.9-0.9,8.1-0.9,9.9
				c0,0,0,0,0,0.1c-4.4,4.6-7.5,7.8-9.5,9.7c-2.1,1.9-5.4,4.9-10.1,8.8c-1.2,1-2.2,1.9-3.1,2.6c0.1-3.8,0.3-7.5,0.8-11.1
				c0.1-4.7,0.3-9.3,0.6-14c0.5-9.3,0.7-14.7,0.7-16.2c0.1-1.4,0.1-2.5,0-3.3c1.4-0.4,4.4-1.4,9-2.8c6.8-2.1,11.1-3.2,12.8-3.4
				c0.1,0.4,0.2,1.4,0.4,3c0.1,1.6,0.2,2.7,0.2,3.2C264.2,353.8,263.9,358.3,263.3,363.1z"/>
			<path fill="#976126" d="M230.9,335.9c0.1,12.7-0.1,21.9-0.6,27.6v19.7c-0.9-0.4-1.9-0.7-2.8-1c0.1-1.1,0.1-2.3,0.2-3.6
				c0.1-2.9,0.2-6,0.2-9.6c0-3,0-4.5,0-4.7c-0.2-10.3-0.4-20.7-0.6-31c-0.2-11.1-0.5-19.1-0.7-24.3c0.4,0,0.8,0,1.2-0.1
				c0.9-0.1,1.7-0.3,2.5-0.7c0.4,0.5,0.9,0.9,1.5,1.2C231.1,315.9,230.9,324.7,230.9,335.9z"/>
			<path fill="#D5444C" d="M275.1,295.8c-1.7,9.5-6,17.7-13,24.7c-2.8,2.8-5.9,5.1-9.3,7c-2.7,1.5-5.5,3-8.3,4.3v-1.6
				c0-2.2,0.2-5.6,0.6-10.2c0.4-4.6,0.6-8,0.6-10.1c-0.1-1-0.1-1.7-0.1-2.3c1.4,0,2.7-0.4,4.1-1.2c1-0.6,1.7-1.5,2.1-2.6
				c0.2-0.6,0.4-1.2,0.6-1.8c0.5-0.1,1-0.3,1.5-0.4c2.3-0.9,5.6-1.9,9.8-3c3.6-1,7.1-1.9,10.5-2.7
				C274.5,295.9,274.8,295.9,275.1,295.8z"/>
			<path fill="#915223" d="M285.2,294.1c-0.7,6.9-2.8,14-6.2,21.3c-0.3,0.9-0.8,2-1.4,3.3c-1.2,2.4-2.7,4.6-4.5,6.6
				c-5.7,6.2-13.5,9.3-23.2,9.3l-5-0.2l0-0.1l0-0.1c4.1-2.1,8.1-4.4,12-7c2-1.3,3.9-2.8,5.6-4.4c6.9-6.6,11.6-14.6,14.1-24
				c0.3-1.2,0.6-2.3,0.8-3.5c0.4-0.1,0.8-0.1,1.2-0.2c2.9-0.7,5-1,6.4-1H285.2z"/>
			<path fill="#D5444C" d="M259.9,207.4c-0.8,0.3-1.5,0.5-2.4,0.8c-2.6,0.8-4.5,1.4-5.7,1.8c-1.8,0.6-3.3,1.1-4.4,1.7
				c-2.3-1.5-4.9-2.8-8.1-3.9c-2.8-1-5.7-1.8-8.5-2.3l0.1-0.2c3.7-1.7,7.8-3.1,12.4-4.2c1.1-0.3,3.4-0.7,7-1.5h1.6
				c2.3,0.7,4.1,1.9,5.5,3.5C258.4,204.1,259.2,205.6,259.9,207.4z"/>
			<path fill="#D5444C" d="M273.1,195.2c0,3.3-1.6,6.1-4.9,8.3c-1.9,1.3-4.7,2.6-8.3,3.9c-0.7-1.8-1.5-3.3-2.5-4.4
				c-1.4-1.6-3.2-2.8-5.5-3.5h-1.6c1.1-0.2,2.3-0.5,3.7-0.7c3.6-0.7,6.1-1.4,7.5-2.1c1-0.5,1.7-1.1,2.2-1.8c0.1,0.1,0.1,0.2,0.2,0.3
				c0.1-0.1,0.1-0.3,0.2-0.4c0.5-0.8,0.7-2.2,0.7-4.3v-0.1c-0.3-0.9-0.7-1.8-1-2.7c0.3-0.1,0.7-0.1,0.9-0.2c0.7,0.1,1.5,0.2,2.5,0.4
				C271.2,188.8,273.1,191.3,273.1,195.2z"/>
			<path fill="#D5444C" d="M247.4,211.7c-0.2,0.1-0.4,0.2-0.6,0.2c-2,0.9-3.4,2-4.1,3.2c-1-0.9-2.3-1.8-3.8-2.6
				c-4.3-2.3-9.3-3.4-14.9-3.4v0c2.2-1.4,4.4-2.6,6.5-3.6c0.1,0,0.2,0,0.3,0.1c2.9,0.5,5.7,1.3,8.5,2.3
				C242.5,208.9,245.1,210.2,247.4,211.7z"/>
			<path fill="#B82025" d="M162.5,245.8c-0.5,0.7-0.9,1.3-1.4,1.9c-2.9,4-5,8.4-6.5,13.1c-0.3,0.9-0.5,1.8-0.8,2.7
				c-2.4,0.2-4.8,0.4-7.1,0.7c0-0.1,0-0.3,0-0.4c0-1.4-0.3-3.4-0.8-6.2c-0.6-2.7-1-4.5-1.5-5.5l-0.1-0.3c2-0.6,4.4-1.2,7.3-2
				C155.9,248.5,159.5,247.2,162.5,245.8z"/>
			<path fill="#D5444C" d="M165.7,242c-1.1,1.2-2.1,2.5-3.2,3.9c-3,1.4-6.6,2.7-10.8,4c-2.9,0.7-5.3,1.4-7.3,2h0
				c-0.5-0.9-1.1-2-1.8-3l0.1-0.1l0.1-0.1c1.3-0.5,2.7-0.9,4.1-1.2c2.3-0.7,4.7-1.4,7-2.3c1-0.4,2.1-0.7,3.1-1
				C159.8,243.4,162.8,242.6,165.7,242z"/>
			<path fill="#D5444C" d="M277.4,251.4c0,4.1-0.9,8.2-2.5,12.2c-1.7,3.9-3.9,7.4-6.9,10.5c-2.4,2.5-5,4.6-7.9,6.3
				c-1.3-2.8-3.2-4.8-5.7-6c0.2-0.1,0.3-0.2,0.5-0.3c0.9-0.3,1.9-0.8,2.8-1.3c2.1-1.2,4-2.9,5.8-5.1c1.8-2.2,3.2-4.7,4.2-7.4
				c1.1-2.9,1.6-5.8,1.6-8.8c-0.1-3.7-0.5-7.3-1.2-11c-1.3-7.3-3.2-10.9-5.7-10.9c-0.8,0-1.2,0.4-1.2,1.2c0,0.1,0.1,0.4,0.4,0.9
				c0.1,0.1,0.1,0.2,0.1,0.3c0.1,1.6-0.2,3.3-0.9,5.2c-0.8,2-1.8,3.7-3.2,5.4c-1.5,1.7-3,2.9-4.6,3.7c-1.8,0.8-3.5,1-5.2,0.5
				l-0.3,0.3c4.1,1.7,7,4.3,8.8,7.8c1.5,2.9,2.2,6.6,2.2,11.1c0,1.3-0.3,2.7-0.8,4.2c-0.7,0.5-1.5,1-2.3,1.5
				c-1.2,0.6-2.4,1.2-3.7,1.6c-0.1,0.1-0.2,0.1-0.3,0.2c0,0,0,0.1,0,0.1c-0.3,0.1-0.7,0.3-1.1,0.5c-0.4,0-0.9,0.1-1.4,0.4
				c-0.3,0.1-0.5,0.2-0.9,0.3c-2.7,0.5-5.4,0.7-8.1,0.7c-1.5,0-2.9,0.1-4.3,0.1c0.2-0.3,0.3-0.5,0.4-0.8c0-0.2,0.1-1.3,0.1-3.3
				c0-1.9-0.3-3.9-0.9-6.2c-0.8-2.8-1.9-5.4-3.4-7.8c-3.9-6.3-9.7-10.5-17.3-12.4v-0.1c2.4,0.5,5,0.7,7.9,0.4c3.2-0.3,6.2-1,8.9-2.1
				c6.8-2.9,10.2-8,10.2-15.1c0-5.3-1.4-9.8-4.1-13.5c1.1,0.7,2.7,1.7,4.8,3.1c0.1,0.5,0.4,0.7,1.1,0.7h0.1c0,0,0,0,0.1,0h0
				c0.4,0,0.7-0.1,0.8-0.4c0-0.1,0-0.1,0-0.2c0.3-0.2,0.8-0.5,1.3-0.9c0.1-0.2,0.2-0.3,0.3-0.5c1.9-2.4,3.9-3.7,6.2-4.1
				c1.2-0.5,2.9-1.2,5.3-1.9c0.9-0.3,1.7-0.5,2.5-0.8c1.8,1.2,3.6,3,5.4,5.3c2.3,3,4.4,6.5,6.3,10.7c1.9,4.1,3.4,8.4,4.5,12.9
				C276.9,243.2,277.4,247.5,277.4,251.4z"/>
			<path fill="#D5444C" d="M288.4,264.2c-1.8,7.7-6.2,13.7-13.1,17.9c-1.9,1.2-3.9,2.3-5.9,3.3c-1.1,0.2-2.1,0.4-3.2,0.6
				c-1.5,0.4-2.9,0.8-4.4,1.2c-0.1-2.2-0.7-4.4-1.7-6.5c0-0.1-0.1-0.1-0.1-0.2c2.9-1.7,5.5-3.7,7.9-6.3c2.9-3.1,5.2-6.6,6.9-10.5
				c1.7-4,2.5-8.1,2.5-12.2c0-3.9-0.6-8.2-1.7-12.8c-1.1-4.4-2.6-8.7-4.5-12.9c-1.9-4.2-4-7.8-6.3-10.7c-1.8-2.4-3.6-4.1-5.4-5.3
				c2.3-0.8,4-1.3,5.1-1.8c2.8-1.1,5.1-2.3,6.7-3.7c5.4,5.2,9.7,11.1,12.8,17.9c3.7,7.8,5.7,16,5.9,24.7
				C290.3,252.7,289.7,258.5,288.4,264.2z"/>
			<path fill="#D5444C" d="M214.3,244.8H214C214.2,244.9,214.2,244.9,214.3,244.8c7.6,2,13.4,6.2,17.3,12.5c1.5,2.4,2.6,5,3.4,7.8
				c0.7,2.3,0.9,4.4,0.9,6.2c0,2,0,3.1-0.1,3.3c-0.1,0.3-0.2,0.6-0.4,0.8c-3.5,0.1-7,0.4-10.4,0.8c-0.1,0-0.2,0-0.3,0.1
				c-2.9,0.5-5.3,1.9-7.2,4.3c-0.3,0.4-0.7,0.8-1.1,1.1c-1.7,1.4-2.9,3.1-3.8,5c-0.2,0.5-0.3,1-0.4,1.5c0,0.4-0.1,0.9-0.1,1.3
				c0,3.3,1.5,5.6,4.3,7c0.9,0.4,1.8,0.7,2.9,0.7c-0.3,2.8,0,5.4,0.8,8c0,0,0,0,0,0l0,0c-0.7,1-2.2,2.1-4.5,3.3
				c-2.5,1.2-4.3,2.1-5.3,2.6c-0.6-0.2-1.1-0.4-1.7-0.5c-7.3-1.7-14.6-2.1-22.1-1.2c-1.8,0.3-3.5,0.8-5.1,1.6
				c-5.5,2.9-9.7,6.9-12.6,11.9c-0.3-0.2-0.6-0.5-0.9-0.7c-4.2-3.6-7.3-8.1-9.3-13.5c-2.7-7.3-4.6-14.8-5.9-22.5
				c-0.1-0.7-0.1-1.5-0.1-2.2c0.6-9.5,2.7-18.6,6.2-27.4c1.2-3.1,2.8-6.1,4.8-8.8c2-2.8,4.2-5.5,6.5-7.9c0.4-0.4,1-0.9,1.6-1.4
				l-0.1-0.1c3.9-3.9,8.1-7.4,12.7-10.5c0.7-0.4,1.3-0.9,2-1.3c2.1-1.4,4-2.9,5.7-4.8c2.7-2.9,4.7-6.2,6.1-10c0.9-2.5,2-4.8,3.4-7.1
				c1,0.5,2.8,1.5,5.3,2.8c0.3,1.7,0.4,3.1,0.4,4.4c-0.2,2.9-0.3,5.1-0.2,6.7c-2.2,1.8-4.2,3.9-6,6.5c-0.7-1-1.3-2-1.5-2.8
				c-0.5,0.4-0.7,0.9-0.7,1.5c0,0.1,0.4,0.7,1,1.7c0.2,0.2,0.3,0.5,0.5,0.7c-0.2,0.3-0.4,0.6-0.6,0.9c-0.7,0.2-1.3,0.4-2,0.7
				c-1,0.4-1.9,0.8-2.5,1.2c-0.6,0.4-0.9,0.7-0.9,0.8c0,0.3,0,0.5,0.1,0.5c0.1,0,0.1,0.1,0.2,0.1l0.9,0.1c0.1,0,0.5-0.3,1.5-0.8
				c0.5-0.3,1-0.5,1.4-0.6c-0.6,1.1-1.2,2.2-1.8,3.4c-0.7,1.4-1.3,2.7-1.8,4.1c-0.5-0.9-1.1-1.8-1.6-2.8c-0.5,0.3-0.7,0.8-0.7,1.3
				c0,0.1,0.3,0.7,0.8,1.9c0.1,0.4,0.3,0.7,0.5,1.1l-1.1,0.5c-1.1,0.6-2,1.2-2.7,1.7c-0.7,0.6-1,1.1-1,1.4c0,0.4,0.1,0.6,0.2,0.7
				c0.1,0.1,0.3,0.1,0.5,0.2c0.1-0.1,0.4-0.4,1.2-0.9c0.7-0.6,1.5-1.1,2.1-1.6c0.2-0.1,0.5-0.3,0.7-0.4c-0.9,2.9-1.3,5.6-1.3,8.1
				v0.9c0.1,0.5,0.5,0.8,1.1,0.8c0.2,0,0.9-2,2.1-6c0.1-0.4,0.2-0.8,0.4-1.2c1.7,2.8,3.2,4.2,4.5,4.2c0.5,0,0.8-0.1,0.9-0.4
				c-1.5-2-3.1-4.1-4.6-6.4c0.1-0.5,0.3-0.9,0.4-1.3c0.9-0.2,1.9-0.3,2.9-0.3c0.7,0,1.7,0.1,3.1,0.5c0.3,0.1,0.4,0,0.5-0.1
				c0.1-0.1,0.2-0.4,0.3-0.9c-0.1-0.3-0.4-0.5-0.7-0.7c-0.6-0.4-1.7-0.5-3.2-0.5c-0.8,0-1.5,0.1-2.3,0.2c0.3-0.8,0.6-1.5,0.8-1.9
				c0.2-0.5,0.9-1.7,1.9-3.8c0.5-1,0.9-1.8,1.4-2.6l0.4,0.4c2.7,3.3,4.8,4.9,6.3,4.9c0.3,0,0.5-0.1,0.6-0.3c0.1-0.2,0.1-0.4,0.1-0.4
				c-2.3-1.8-4.1-3.4-5.7-4.9c1.5-0.2,3-0.4,4.6-0.5c0.8-0.1,1.3-0.2,1.6-0.2c0.3-0.1,0.4-0.3,0.4-0.6c0-0.2,0-0.3-0.1-0.4
				c-0.4-0.2-1.5-0.3-3.1-0.3c-1.3,0-2.6,0.1-3.8,0.2c1.7-2.6,3.9-4.9,6.5-6.8c2-1.5,5.1-3.9,9.3-7.3c0.5-0.4,1.1-0.8,1.6-1.2
				c0,0,0.1,0,0.1,0c0.6,0.2,1.6,0.4,3.2,0.6c5.2,0.7,9.1,1.3,11.6,1.9c0.3,0.1,0.8,0.3,1.6,0.8c2.8,3.6,4.1,8.1,4.1,13.5
				c0,7.1-3.4,12.1-10.2,15.1c-2.7,1.2-5.6,1.9-8.9,2.1C219.4,245.5,216.7,245.3,214.3,244.8z"/>
			<path fill="#D5444C" d="M190.1,311.4c-3.7,1.5-6.9,3.9-9.6,7.4c-3.7,4.7-6.1,10.5-7,17.4c-0.5,3.9-1.8,9.9-3.8,18
				c-2.3,9.1-3.7,15.1-4.3,18.2c-0.5,0-1.1-0.1-1.7-0.1c-0.8,0-1.5,0.1-2.3,0.1c0.5-1.6,0.8-3.3,0.9-5c0.7-2.8,1.3-5.7,1.6-8.7
				c0.9-8.4,2.1-16.7,3.6-24.8c1.3-7,4.8-12.9,10.4-17.7c3.2-2.7,7-4.4,11.2-4.9C189.4,311.5,189.8,311.4,190.1,311.4z"/>
			<path fill="#D5444C" d="M216.3,316.9c-1.2,0-3-0.2-5.4-0.4c-2.5-0.3-4.2-0.4-5.1-0.4c-2.8,0-5.5,0.5-8.4,1.5
				c-2.9,1-5.6,2.5-8.1,4.5c-5.7,4.5-9.2,10.5-10.8,18c-0.5,2.5-2.1,8.9-4.7,19c-1.7,6.5-2.6,11.3-2.9,14.3
				c-1.7-0.5-3.5-0.8-5.5-0.9c0.7-3.1,2.1-9.2,4.3-18.2c2-8.1,3.3-14.2,3.8-18c0.9-6.9,3.3-12.7,7-17.4c2.8-3.5,6-5.9,9.6-7.4
				c8.2-0.8,16,0.7,23.2,4.4c0.7,0.4,1.5,0.6,2.2,0.8c0.3,0,0.5,0.1,0.7,0L216.3,316.9z"/>
			<path fill="#D5444C" d="M225.3,340.2c-2.6,0.9-5.2,1.5-7.9,1.8c-7,0.9-13.7-0.2-20.1-3.2c1.1-0.9,2.3-1.7,3.6-2.4l-2.1-1.2
				c-2.7,0.9-4.7,2.5-6.1,5c-1,1.8-1.9,3.6-2.8,5.4h-0.2c0,0.1,0.1,0.2,0.1,0.4c-2,4.4-3.6,9.1-4.7,13.9c-1.7,7.2-3,14.6-3.9,22
				c-0.4-0.9-0.9-1.7-1.4-2.5c-2.1-3-5-5-8.8-6.1c0.3-3,1.3-7.8,2.9-14.3c2.6-10.2,4.2-16.5,4.7-19c1.6-7.5,5.2-13.5,10.8-18
				c2.5-2,5.2-3.5,8.1-4.5c2.8-1,5.6-1.5,8.4-1.5c0.9,0,2.6,0.1,5.1,0.4c2.4,0.3,4.2,0.4,5.4,0.4l0-0.2c0.6-0.1,1-0.5,1.2-1.3
				c-2-1.9-4.3-3.3-7-4.2c1-0.5,2.7-1.4,5.3-2.6c2.4-1.2,3.9-2.3,4.5-3.3l0,0l0,0c0,0.1,0,0.1,0,0.1c0.5,1.7,1.6,2.7,3.3,3.2
				c0.5,0.2,1.1,0.3,1.6,0.4c-0.1,1.5-0.1,3.2-0.1,5.2c-0.1,3.9-0.1,8.1,0,12.3L225.3,340.2z"/>
			<path fill="#B82025" d="M267.2,251.4c0,2.1-0.2,3.9-0.6,5.6c-0.4,1.7-1.2,3.6-2.3,5.7c-1.6,3-3.8,5.5-6.6,7.4
				c0.5-1.5,0.8-2.9,0.8-4.2c0-4.5-0.7-8.3-2.2-11.1c-1.8-3.5-4.7-6.1-8.8-7.8l0.3-0.3c1.7,0.5,3.4,0.3,5.2-0.5
				c1.6-0.8,3.2-2,4.6-3.7c1.4-1.6,2.4-3.4,3.2-5.4c0.7-1.9,1-3.6,0.9-5.2c0.4,0.7,0.9,1.6,1.6,2.8c1.5,2.5,2.4,4.7,2.6,6.3
				c0.3,2,0.7,4,1,5.8C267.1,247.9,267.2,249.4,267.2,251.4z"/>
			<path d="M260.2,280.4c-0.6,0.4-1.2,0.7-1.9,1c-1.3-2.6-3.6-4.4-6.7-5.5c1.1-0.5,2-1,2.8-1.6C256.9,275.7,258.8,277.7,260.2,280.4
				z"/>
			<g>
				<radialGradient id="SVGID_1_" cx="127.1553" cy="266.193" r="17.1715" gradientUnits="userSpaceOnUse">
					<stop  offset="0" style="stop-color:#F8E1C9"/>
					<stop  offset="1" style="stop-color:#FDCF9D"/>
				</radialGradient>
				<path fill="url(#SVGID_1_)" d="M140.2,250C140.2,250,140.2,250,140.2,250C140.1,250,140.1,250,140.2,250c-0.3,0-0.5-0.1-0.7-0.1
					c-0.5,0.1-0.9,0.2-1.4,0.3c-1.8,0.4-3.5,0.8-5.2,1.2c-6.3,1.6-12.1,4.2-17.5,7.8c-3.9,2.7-6,6.3-6.2,11c0.1,0.1,0.1,0.2,0.2,0.3
					c0,0.4,0.1,0.9,0.2,1.4c0.6,1.9,1.8,3.2,3.6,3.9c0-0.3-0.1-0.6-0.1-0.9c-0.4-2.5-0.1-4.9,0.9-7.2c0.4-0.8,1-1.3,1.8-1.6
					c1-0.2,1.5,0.1,1.7,1c-0.3,0.6-0.6,1.1-0.9,1.7c-0.4,0.8-0.8,1.6-1,2.4c-0.8,3,0,5.4,2.7,7.1c-0.1-2,0.2-3.9,0.7-5.9
					c0.3-1.2,0.9-2.3,1.7-3.1c0.3-0.3,0.6-0.5,0.8-0.6c0.4-0.1,0.8,0.1,1.1,0.5c0.3,0.3,0.4,0.7,0.1,1c-0.4,0.9-0.9,1.8-1.2,2.8
					c-1.2,3.1-1.2,6.3,0,9.5c0.3,0.1,0.6,0.1,0.9,0c1.4-0.3,2.2-1.2,2.5-2.6c0.5-2.2,1.1-4.4,1.7-6.6c0.5-1.8,1.7-3.1,3.4-3.9
					c1.6-0.7,3.3-1,5.1-0.9c1.7,0.1,2.9,0.9,3.5,2.5c0.2,0.4,0.3,0.9,0.2,1.4c-0.1,1.7,0,3.3,0.3,4.9c1.2,0.2,2.2,0,3.2-0.6
					c0.5-0.3,0.8-0.7,0.8-1.3c0.1-0.8,0.1-1.5,0.1-2.3c-0.1-1.6-0.2-3.1-0.4-4.7c0.1-0.1,0.1-0.3,0.1-0.4c0-0.2-0.1-0.4-0.1-0.6
					c0.1-0.2,0.1-0.5,0.1-0.8c0.3-0.2,1-0.5,1-0.9c0.4-0.3,1.1-0.8,1.1-1.4c0,0,0,0,0-0.1c0,0-0.9-0.1-0.9-0.1h0.9v-0.3
					c0-4.5-1.1-8.1-2.8-11.1C141.9,251.6,140.9,251,140.2,250z"/>
				<radialGradient id="SVGID_2_" cx="237.165" cy="292.1157" r="19.5917" gradientUnits="userSpaceOnUse">
					<stop  offset="0" style="stop-color:#F8E1C9"/>
					<stop  offset="1" style="stop-color:#FDCF9D"/>
				</radialGradient>
				<path fill="url(#SVGID_2_)" d="M258.3,281.5c-0.1,0-0.2,0.1-0.3,0.1c-3.9,1.9-7.9,2.9-12,3l-2.1-0.1c-4.1,0.9-6.9,2.8-8.4,5.7
					c-1.1,2.1-1.7,5.3-1.7,9.4c0,2.3,0.2,3.9,0.7,5c-0.5-1.1-0.7-2.7-0.7-5c0-4.1,0.6-7.3,1.7-9.4c1.5-2.9,4.3-4.8,8.4-5.7l2.1,0.1
					c4.1-0.1,8.1-1.1,12-3C258.1,281.6,258.2,281.5,258.3,281.5c-1.3-2.6-3.6-4.4-6.7-5.5c-0.2,0.1-0.4,0.2-0.6,0.3
					c-0.2,0.1-0.4,0.1-0.5,0.2l0-0.1c-5.5,1.1-11.2,1.7-16.9,1.6c-2.6,0-5.2,0.1-7.7,0.5c-0.9,0.1-1.7,0.4-2.4,0.9
					c-2.3,1.5-4.4,3.2-6.2,5.2c-1.3,1.4-2.1,3-2.5,4.7c-0.1,0.5-0.1,1.1,0.2,1.6c1,1.9,2.6,3.2,4.8,3.8c0.2-2.9,0.9-5.7,2-8.4
					c1-2.4,2.8-3.7,5.3-3.7c-1.7,1.3-2.8,3-3.4,5c-1,3.2-1.7,6.5-2,9.9c-0.2,2.6,0.1,5,1.2,7.4c0.1,0.3,0.3,0.6,0.6,0.7
					c1.7,1.3,3.6,1.6,5.7,0.8c0.1,0,0.1-0.1,0.1-0.1c-0.3-1.9-0.4-3.8-0.4-5.7c0-1,0.4-1.7,1.2-2c0.5,0.1,0.9,0.3,0.9,0.9
					c0.2,1.5,0.3,3,0.3,4.5c0,0.6,0.1,1.2,0.4,1.7c0.9,1.8,2.3,2.7,4.5,2.5c0.4,0,0.7-0.1,1-0.3c-0.9-0.9-1-1.7-1.4-2.3
					c0.4,0.6,1.5,1.4,2.5,2.3c0,0,0,0,0,0c1-1.2,1.9-2.6,2.7-4.3c0-1.2-0.3-2.3-0.3-3.5c0-0.8,0.3-1.2,1.1-1.2
					c0.1,0.1,0.1,0.1,0.2,0.2c0.1,0.1,0.1,0.2,0.2,0.3c1.4,0.1,2.4,0.8,2.8,2.2c0.2,0.8,0.4,2.4,0.5,3.4c0,0,0,0,0.1,0
					c0.7,0,1.5,0,2.1-0.3c1.4-0.7,2.3-1.7,2.7-3.3c0.4-1.4,0.4-2.8,0.1-4.2c-0.3-1.3-0.6-2.5-0.8-3.7c-0.1-0.3,0-0.5,0.1-0.6
					c0.9-0.8,1.7-0.7,2.4,0.4c1.1-0.4,2.1-0.9,3.1-1.4c-0.1,0-0.3,0.1-0.4,0.1c0.4-0.2,0.8-0.4,1.2-0.6c0.5-0.4,1.1-0.7,1.5-1.1
					c0.8-0.6,1.4-1.3,1.7-2.2c0.2-0.4,0.4-0.8,0.6-1.1C259.6,284.9,259.1,283.1,258.3,281.5z"/>
			</g>
			<path d="M269.6,116.3c1-0.8,1.5-1.3,1.5-1.5c0-0.5,0-0.7-0.1-0.6l-1-0.1c-1.5,0.1-2.8,1.4-4.1,3.9c-1.2,2.3-1.8,4.2-1.8,5.8
				c-0.1,0.5,0,0.9,0.2,1.4c0.4,0.9,1.1,1.3,2.3,1.3c2.3,0,3.4-1.1,3.4-3.4c0-1-0.1-1.6-0.2-1.9c-0.4-0.8-1.4-1.3-3.1-1.6v-0.2
				C267.4,118.3,268.4,117.3,269.6,116.3z M266.9,121.3c0.6,0,1,0.1,1.3,0.4c0.2,0.2,0.3,0.6,0.3,1.2c0,0.3-0.1,0.7-0.2,1
				c-0.3,0.6-0.9,0.9-1.7,0.9c-0.7,0-1-0.3-1-1c0-0.1,0.1-0.6,0.5-1.3C266.3,121.8,266.6,121.3,266.9,121.3z"/>
			<path fill="#DD9B70" d="M268.2,124c-0.3,0.6-0.9,0.9-1.7,0.9c-0.7,0-1-0.3-1-1c0-0.1,0.1-0.6,0.5-1.3c0.4-0.8,0.7-1.2,0.9-1.2
				c0.6,0,1,0.1,1.3,0.4c0.2,0.2,0.3,0.6,0.3,1.2C268.4,123.3,268.4,123.6,268.2,124z"/>
			<radialGradient id="SVGID_3_" cx="220.6454" cy="138.2465" r="67.5994" gradientUnits="userSpaceOnUse">
				<stop  offset="0" style="stop-color:#F8E1C9"/>
				<stop  offset="1" style="stop-color:#FDCF9D"/>
			</radialGradient>
			<path fill="url(#SVGID_3_)" d="M270,110.4c-0.7,0-1.4,0.3-2.3,0.9c-0.9,0.6-1.5,0.9-2.1,0.9c-0.9,0-1.4-0.4-1.4-1
				c0-0.4,0.6-1,1.8-1.8l0.2-0.1c0-6.5-0.1-11.5-0.5-15c-0.6-5.4-1.7-10-3.6-14c-1-2.1-2.2-4.2-3.6-6.2c1.4,2,2.6,4,3.6,6.2
				c1.8,4,3,8.7,3.6,14c0.4,3.5,0.5,8.5,0.5,15c1.2-0.7,2.3-1.1,3.2-1.1c1.1,0,2.1,0.1,3,0.4c0.5-8.6-1.3-16.8-5.2-24.5
				c-3.2-6.3-7.7-11.5-13.4-15.6l-0.1,0.1c0.3,0.3,0.6,0.6,1,1c-0.3-0.3-0.6-0.7-1-1c-0.2-0.2-0.5-0.4-0.7-0.7
				c-1.1-0.7-2.2-1.4-3.4-2c-7-3.8-14.5-5.9-22.5-6.2c-2.8-0.1-5.6,0.5-8.3,0.5c0,0-0.1,0-0.1,0c-4.9,1-9.7,2.3-14.3,4.6
				c-7,3.6-12.5,8.8-16.5,15.6c-0.1,0.2-19.6,33.9-21.4,39c-0.4,1-0.4,2-0.2,3c0.7,3.7,1.8,7.2,3.3,10.6c0.9,1.9,1.4,3.8,1.5,5.9
				c0.4-0.2,0.9-0.5,1.3-0.8c0.7-0.3,1.3-0.7,2-1c2.4-1.2,4.9-2,7.6-2.3c1.8-0.1,3.5,0.4,5.1,1.4c2,1.3,2.9,3.1,2.9,5.4
				c0,0.2,0,0.4-0.1,0.5c-1.7,4.2-4.4,7.5-8.1,10.1c-2.2,1.5-4.5,2.5-7,3.1c-0.7,0.1-1.4,0.3-2.1,0.4c0.1,0.5,0.1,1,0.2,1.5
				c1.1,6.9,4.9,11.6,11.6,14.2c7.4,2.8,15.1,4.2,23.2,4.1c2.8,0,5.6-0.1,8.4-0.4c4-0.2,7.6-1.5,10.8-3.8c1.6-1.1,3.1-2.3,4.6-3.6
				c1.6-1.5,3.1-3,4.6-4.7c0.7-0.8,1.5-1.6,2.4-2.3c1.9-1.5,3.9-2.1,6-1.7c0.1,0,0.3,0.1,0.4,0.3c-3.1,1.5-5.8,3.6-8.1,6.2
				c-2.9,3.3-6.2,5.8-9.8,7.7c-3.4,1.8-7.2,2.9-11.3,3.5c-1.7,0.3-3.4,0.4-5.1,0.4c0.3,1.3,0.5,2.6,0.7,3.9c0.4-0.1,0.7-0.3,1.1-0.4
				l0.7,0.1c0.1-0.1,0.1,0.1,0.1,0.6c0,0.2-0.2,0.4-0.7,0.8c-0.7,0.4-1.2,0.7-1.6,0.9c-1.6,1-2.2,2-2.2,3.1c0,0.1,0.2,0.3,0.2,0.5
				c0,0,0,0,0,0c0,0.1,0,0.3,0.1,0.4c0.1,0.2,0.2,0.4,0.4,0.6c0,0.1,0,0.2,0,0.4c0.2,0.3,0.5,0.7,0.8,1.3c1.1,1.8,1.6,3.6,1.6,5.4
				c0,1.1,0,2-0.1,2.5c-0.3,0.1-0.5,0.2-0.7,0.3c-0.6-0.5-0.9-1.4-0.9-2.6c0-1.5-0.1-2.5-0.4-3.1c0,0-0.1-0.1-0.2-0.4
				c-0.5,1.1-1,2.2-1.7,3.2c-0.6,0.9-1.2,1.8-1.7,2.8c1.2,3.1,2,5.4,2.3,6.8c0.5,2.1,0.7,4.8,0.7,8.1c0.1,1.5,0.1,2.8,0,4.1
				c0,0.3,0,0.5-0.1,0.8c1.7-1.3,4.2-3.2,7.3-5.7c3.8-2.8,7.4-5.2,10.8-7.1c0.4-0.2,0.7-0.4,1.1-0.6c2.7-1.5,5.2-2.5,7.4-3.2
				c2.4-0.7,6-1.4,10.9-2.2c1.5-2.1,2.4-3.6,2.8-4.6c0.5-1.5,0.8-4.1,0.8-7.9c0-5.8-1.7-10.8-5-15.1c3.3,4.3,5,9.3,5,15.1
				c0,3.8-0.3,6.5-0.8,7.9c-0.4,1-1.3,2.5-2.8,4.6c0.5-0.1,1-0.1,1.5-0.2c3.3-0.5,5.7-0.9,7-1.2c1.6-0.4,2.9-0.9,3.9-1.6
				c0.6-0.2,1.1-0.4,1.5-0.7c0.8-0.5,1.4-1,1.7-1.7c-1-2.2-1.7-4.6-2.2-7.1c-0.4-1.7-0.8-3.4-1.5-5c-2.7-7-3.2-14.2-1.6-21.5
				c1.4-6.4,3.5-12.6,6.2-18.6c0.8-1.8,1.6-3.6,2.3-5.4c-1-0.2-2-0.7-2.7-1.7c-2.4,5.3-4.6,9.1-6.5,11.6c-2.7,3.3-6.2,5.8-10.6,7.4
				l-0.3,0.3c0,0,0,0,0,0l0.3-0.3c4.4-1.6,7.9-4.1,10.6-7.4c2-2.4,4.1-6.3,6.5-11.6c-0.2-0.3-0.4-0.5-0.6-0.8
				c-0.3-0.5-0.6-1.1-0.8-1.7c-0.2-0.5-0.2-0.8-0.2-0.9c0-0.7,0.2-1,0.7-1.2c0.1,0.5,0.3,1,0.5,1.6c0.8,1.8,2,2.7,3.6,2.7
				c0.9,0,1.6-0.3,2.2-0.8c2.6-1,4.4-3.7,5.5-8.1c0.7-2.9,1-5.8,0.9-8.8C274.9,112.1,273.2,110.4,270,110.4z M222.5,152.9
				c-3.8,0.4-7.4,0.2-11-0.7c-4-1-7.3-3-10-6c-2.1-2.3-2.8-5-2.2-8.1c0.2-1.1,0.8-2.1,1.6-2.9c1.8-1.7,4-2.8,6.5-3.3
				c3.8-0.8,7.5-0.6,11.2,0.7c1.2,0.4,2.4,1,3.5,1.7c2.6,1.7,5.4,3.1,8.4,4.2c0.8,0.4,1.7,0.7,2.5,0.9c1.1,0.2,2.1,0.4,3.2,0.4
				c3.8-0.3,7.4-1.4,10.8-3.3c0,0.4-0.1,0.8-0.1,1.1c-0.1,0.6-0.3,1-0.7,1.5c-1,1.2-2.1,2.4-3.2,3.5c-2.8,2.8-5.9,5.2-9.5,6.9
				C230,151.3,226.3,152.4,222.5,152.9z M187,129c-0.1-0.5-0.1-0.9,0-1.4c0.2-1,0.6-2,1-3c2-4.6,4.2-8.9,6.8-13.2l0.8,0
				c0,0.1,0.1,0.1,0.1,0.2c0,1.2-0.4,2.3-1,3.4c-2.3,3.5-4.2,7.1-5.8,11c-0.8,2-0.3,3.4,1.7,4.4c0.7,0.4,1.5,0.6,2.3,0.7
				c2,0.2,3.8-0.2,5.3-1.4c0.5-0.4,0.9-0.9,1.3-1.4c0.6-0.9,0.6-1.8-0.2-2.6c-0.4-0.4-0.9-0.6-1.6-0.4c-0.7,0.2-1.2,0.5-1.5,0.9
				c-0.1-0.3-0.1-0.6,0-0.8c0.8-1.2,2-1.5,3.5-1c0.3,0.1,0.6,0.3,0.8,0.6c0.8,1.3,0.8,2.7,0.1,4.1c-0.5,1.1-1.2,1.9-2.3,2.4
				c-2.4,1.3-5,1.6-7.8,1C188.6,132.1,187.5,131,187,129z M186.3,156.4c0-0.8,0.9-1.4,2.6-1.9c2.4-0.7,6.1-1,11.1-1
				c4.5,0,7.3,0.2,8.2,0.5c0.5,0.2,0.5,0.4,0.1,0.6c0,0.4,0,0.6-0.1,0.6c-0.1,0.1-0.7,0.1-1.6,0.2c-5.8,0.3-10.9,0.6-15.1,0.9
				c-1.1,0.1-2,0.3-2.8,0.7c-0.7,0.3-1.1,0.5-1.2,0.5C186.7,157.4,186.3,157.1,186.3,156.4z M224.2,164.6c0,3.9-12.4,5.7-36.7,5.2
				c0,0-0.1,0.1-0.1,0.1c0,0-0.1-0.2-0.1-0.5c0-0.5,0-0.8,0.1-0.9c0.2-0.2,1.1-0.3,2.7-0.4c0.3,0,0.7,0,1.2-0.1c1,0,2.1,0.2,3.3,0.2
				c9,0,16.2-0.3,21.6-1.3c0,0,0.1,0,0.1,0c0.4,0,0.8-0.2,1.2-0.4c1.4-0.3,2.9-0.7,4-1C222.3,165.3,223.2,164.9,224.2,164.6
				L224.2,164.6z M248.1,164.3c2-2.4,3.4-4.5,3.4-6.2c0-1.5-0.3-2.7-0.3-3.3v0c0,0.7,0.4,1.8,0.4,3.3c0,1.7-1.2,3.8-3.2,6.2
				c-0.2,0.3-1.7,1.8-4.3,4.5c0,0-0.1,0-0.1,0C246.6,166,247.9,164.5,248.1,164.3z M256.3,71.1c0.3,0.3,0.5,0.6,0.8,0.9
				C256.8,71.8,256.6,71.4,256.3,71.1z M255.1,69.8c0.3,0.3,0.6,0.6,0.9,0.9C255.6,70.4,255.4,70.1,255.1,69.8z M258.4,73.7
				c-0.3-0.4-0.6-0.8-0.9-1.2C257.8,72.9,258.1,73.3,258.4,73.7z M269.9,116.3c-1.2,1-1.7,2-2.7,3.1v0.2c2,0.3,2.4,0.8,2.8,1.6
				c0.1,0.3,0,0.9,0,1.9c0,2.3-1.2,3.4-3.5,3.4c-1.2,0-2-0.4-2.4-1.3c-0.2-0.4-0.3-0.9-0.2-1.4c0-1.6,0.6-3.6,1.8-5.8
				c1.3-2.5,2.7-3.9,4.1-3.9l1,0.1c0.1-0.1,0.3,0.1,0.3,0.6C271.2,115,270.9,115.4,269.9,116.3z"/>
			<path d="M223.8,164.5L223.8,164.5c0,4-12.2,5.7-36.5,5.3c0,0,0,0.1,0,0.1c0,0,0-0.2,0-0.5c0-0.5,0-0.8,0.1-0.9
				c0.2-0.2,1.1-0.3,2.7-0.4c0.3,0,0.7,0,1.2-0.1c1,0,2.1,0.1,3.3,0.1c9,0,16.2-0.4,21.6-1.4c0,0,0.1,0,0.1,0c0.4,0,0.8-0.1,1.2-0.2
				c1.4-0.3,2.7-0.6,3.8-0.9C222.1,165.3,223,164.9,223.8,164.5z"/>
			<path d="M236.2,139.8c-1.1,0-2.1-0.1-3.2-0.4c-0.9-0.2-1.7-0.5-2.5-0.9c-2.9-1.1-5.7-2.5-8.4-4.2c-1.1-0.7-2.3-1.3-3.5-1.7
				c-3.7-1.3-7.4-1.5-11.2-0.7c-2.5,0.5-4.7,1.7-6.5,3.3c-0.8,0.8-1.4,1.7-1.6,2.9c-0.6,3.1,0.1,5.7,2.2,8.1c2.7,3.1,6,5,10,6
				c3.6,0.9,7.3,1.1,11,0.7c3.9-0.5,7.6-1.6,11.1-3.3c3.6-1.7,6.7-4.1,9.5-6.9c1.1-1.2,2.2-2.3,3.2-3.5c0.4-0.4,0.6-0.9,0.7-1.5
				c0.1-0.4,0.1-0.7,0.1-1.1C243.6,138.4,240,139.5,236.2,139.8z M239.4,143.8c-2.7,2.5-5.8,4.4-9.2,5.7c-3.6,1.3-7.3,2-11.2,2
				c-3.6,0-7.1-0.7-10.5-2.1c-3.5-1.5-6-3.9-7.6-7.2c-0.5-1-0.5-2.1-0.2-3.2c1-3.1,3.2-4.9,6.5-5.5c2-0.3,4.1-0.5,6.1-0.4
				c3.9,0.2,7.3,1.5,10.3,3.8c0.9,0.5,1.9,1,2.8,1.6c1.7,1,3.4,1.8,5.2,2.2c4.7,1,9.2,0.3,13.3-2.2
				C243.1,140.2,241.3,142.1,239.4,143.8z"/>
			<path fill="#EAEAE9" d="M244.9,138.3c-1.8,1.9-3.6,3.7-5.6,5.5c-2.7,2.5-5.8,4.4-9.2,5.7c-3.6,1.3-7.3,2-11.2,2
				c-3.6,0-7.1-0.7-10.5-2.1c-3.5-1.5-6-3.9-7.6-7.2c-0.5-1-0.5-2.1-0.2-3.2c1-3.1,3.2-4.9,6.5-5.5c2-0.3,4.1-0.5,6.1-0.4
				c3.9,0.2,7.3,1.5,10.3,3.8c0.9,0.5,1.9,1,2.8,1.6c1.7,1,3.4,1.8,5.2,2.2C236.4,141.6,240.8,140.8,244.9,138.3z"/>
			<path d="M200.7,129.1c-0.5,1.1-1.2,1.9-2.3,2.4c-2.4,1.3-5,1.6-7.8,1c-2-0.4-3.1-1.5-3.5-3.5c-0.1-0.5-0.1-0.9,0-1.4
				c0.2-1,0.6-2,1-3c2-4.6,4.2-8.9,6.8-13.2l0.8,0c0,0.1,0.1,0.1,0.1,0.2c0,1.2-0.4,2.3-1,3.4c-2.3,3.5-4.2,7.1-5.8,11
				c-0.8,2-0.3,3.4,1.7,4.4c0.7,0.4,1.5,0.6,2.3,0.7c2,0.2,3.8-0.2,5.3-1.4c0.5-0.4,0.9-0.9,1.3-1.4c0.6-0.9,0.6-1.8-0.2-2.6
				c-0.4-0.4-0.9-0.6-1.6-0.4c-0.7,0.2-1.2,0.5-1.5,0.9c-0.1-0.3-0.1-0.6,0-0.8c0.8-1.2,2-1.5,3.5-1c0.3,0.1,0.6,0.3,0.8,0.6
				C201.4,126.2,201.4,127.6,200.7,129.1z"/>
			<path d="M208.3,154.6c0,0.4,0,0.6-0.1,0.6c-0.1,0.1-0.7,0.1-1.6,0.2c-5.8,0.3-10.9,0.6-15.1,0.9c-1.1,0.1-2,0.3-2.8,0.7
				c-0.7,0.3-1.1,0.5-1.2,0.5c-0.8,0-1.2-0.4-1.2-1c0-0.8,0.9-1.4,2.6-1.9c2.4-0.7,6.1-1,11.1-1c4.5,0,7.3,0.2,8.2,0.5
				C208.7,154.1,208.7,154.4,208.3,154.6z"/>
			<path d="M243.3,128c0,0.8-0.2,1.8-0.7,3.1c-0.1,0.4-0.3,0.7-0.4,1c-0.5,1.1-1.1,1.6-1.7,1.6c-0.1,0-0.3,0-0.4,0
				c0.3-0.9,0.5-1.7,0.8-2.7c0.2-1,0.4-1.7,0.4-2.1c0,0,0-0.2,0-0.6c0-0.5-0.1-0.9-0.2-1.3c-0.1-0.2-0.1-0.4-0.2-0.5
				c-0.1-0.6-0.4-1.2-0.7-1.9c-0.1-0.3-0.8-1.6-1.9-4c-1.9-3.9-2.8-7.2-2.8-9.9c0,0,0.1-2,0.3-5.8c0.3-3.8,0.8-5.7,1.4-5.7
				c1,0,1.4,1.1,1.1,3.3c0,0.2,0,0.4-0.1,0.6c-0.4,4.4-0.5,6.8-0.5,7.3c0,1.8,0.3,3.6,0.9,5.3c0.4,1.1,1,2.5,2,4.2
				c1,1.9,1.6,3.2,1.9,3.9C243,125.2,243.3,126.6,243.3,128z"/>
			<path d="M214.1,110.4c0,0.5-0.2,0.9-0.5,1.2c-0.4,0.4-0.8,0.6-1.4,0.6c-0.8,0-1.3-0.3-1.6-0.9c-0.2-0.3-0.2-0.7-0.2-1
				c0-0.4,0.2-0.9,0.5-1.2c0.4-0.4,0.8-0.6,1.3-0.6c0.2,0,0.4,0,0.6,0.1c-0.1,0.1-0.2,0.3-0.2,0.5c0,0.3,0,0.5,0.1,0.5
				c0,0,0,0,0-0.1c0.1,0.1,0.4,0.3,0.7,0.4c0.2-0.1,0.4-0.2,0.5-0.3C214,109.9,214.1,110.1,214.1,110.4z"/>
			<path fill="#DEA687" d="M245.4,305.2c-2.1-0.2-3-1.4-2.8-3.6c0.1-0.9-0.1-1.6-0.5-2.3c1.4,0.1,2.4,0.9,2.8,2.4
				C245.1,302.5,245.3,303.7,245.4,305.2z"/>
		</g>
		<g>
			<path fill="#FCD4A4" d="M203.6,114.8c-1.1-1.5-1.7-3-1.9-4.7c-0.2-1.1-0.1-2.2,0.1-3.3c0.5-2.9,1.9-5.3,4.3-7
				c2.4-1.7,5.1-2.3,8-1.9c2.9,0.5,5.2,1.9,7,4.3c1.7,2.4,2.3,5.1,1.9,8c-0.2,1.1-0.5,2.2-1,3.1c-0.8,1.5-1.9,2.8-3.3,3.8
				c-2.4,1.7-5.1,2.4-8,1.9C207.6,118.6,205.3,117.2,203.6,114.8z"/>
			<path d="M218.5,117.2c1.5-1,2.6-2.3,3.3-3.8c0.5-0.9,0.8-2,1-3.1c0.5-2.9-0.2-5.6-1.9-8c-1.7-2.4-4.1-3.8-7-4.3
				c-2.9-0.5-5.6,0.2-8,1.9c-2.4,1.7-3.8,4.1-4.3,7c-0.2,1.1-0.2,2.2-0.1,3.3c0.2,1.7,0.8,3.2,1.9,4.7c1.7,2.4,4,3.8,7,4.3
				C213.5,119.6,216.1,119,218.5,117.2z M202.6,107c0.4-2.7,1.7-4.8,3.9-6.4c2.2-1.5,4.6-2.1,7.3-1.7c2.7,0.4,4.8,1.7,6.4,3.9
				c1.1,1.5,1.7,3.2,1.8,4.9l-19.5-0.3C202.6,107.3,202.6,107.1,202.6,107z M204.3,114.2c-0.9-1.2-1.5-2.6-1.7-4
				c-0.1-0.7-0.2-1.4-0.1-2.2l19.6,0.3c0,0.6-0.1,1.2-0.2,1.8c-0.2,1.2-0.5,2.2-1.1,3.1c-0.7,1.3-1.6,2.3-2.9,3.2
				c-1.2,0.9-2.5,1.4-3.9,1.7c-1.1,0.2-2.2,0.2-3.4,0C208,117.7,205.9,116.4,204.3,114.2z"/>
			<path fill="#FCD4A4" d="M220.2,102.8c-1.6-2.2-3.7-3.5-6.4-3.9c-2.7-0.4-5.1,0.1-7.3,1.7c-2.2,1.6-3.5,3.7-3.9,6.4
				c0,0.2-0.1,0.3-0.1,0.4l19.5,0.3C221.9,106,221.3,104.4,220.2,102.8z"/>
			<path fill="#FFFFFF" d="M214.1,118.2c1.4-0.3,2.7-0.8,3.9-1.7c1.2-0.9,2.2-2,2.9-3.2c0.5-0.9,0.9-2,1.1-3.1
				c0.1-0.6,0.2-1.2,0.2-1.8l-19.6-0.3c0,0.8,0,1.5,0.1,2.2c0.2,1.4,0.8,2.7,1.7,4c1.6,2.2,3.7,3.5,6.4,3.9
				C211.9,118.4,213,118.4,214.1,118.2z M207.9,111.1c-0.1,0.3-0.2,0.6-0.5,0.8c-0.3,0.3-0.7,0.3-1.1,0.3c-0.5-0.1-0.9-0.4-1-0.8
				c-0.1-0.2-0.1-0.5-0.1-0.7c0.2-0.9,0.7-1.3,1.6-1.1c0.2,0.1,0.4,0.1,0.5,0.2c0,0,0,0,0,0c-0.4-0.1-0.6,0.1-0.7,0.4
				c0,0.1,0,0.2,0,0.3c0.1,0.2,0.2,0.3,0.4,0.3c0.4,0.1,0.6-0.1,0.6-0.4c0-0.1,0-0.2,0-0.3C207.9,110.3,207.9,110.6,207.9,111.1z"/>
			<path d="M207.7,110.3c-0.1,0.4-0.3,0.5-0.6,0.4c-0.2,0-0.4-0.2-0.4-0.3c0-0.1,0-0.2,0-0.3c0.1-0.4,0.3-0.5,0.7-0.4c0,0,0,0,0,0
				c-0.1-0.1-0.3-0.1-0.5-0.2c-0.9-0.1-1.4,0.2-1.6,1.1c0,0.2,0,0.5,0.1,0.7c0.2,0.5,0.5,0.7,1,0.8c0.4,0.1,0.8,0,1.1-0.3
				c0.3-0.2,0.4-0.5,0.5-0.8c0-0.4,0-0.7-0.2-1C207.7,110.1,207.7,110.2,207.7,110.3z"/>
		</g>
		<g>
			<path fill="#FCD4A4" d="M172.8,113.1c-1-1.3-1.5-2.7-1.7-4.2c-0.1-1-0.1-1.9,0-2.9c0.4-2.6,1.7-4.7,3.9-6.3
				c2.1-1.5,4.6-2.1,7.2-1.7c2.6,0.4,4.7,1.7,6.3,3.9c1.5,2.2,2.1,4.6,1.7,7.2c-0.2,1-0.4,2-0.9,2.8c-0.7,1.3-1.7,2.5-3,3.4
				c-2.1,1.6-4.6,2.1-7.2,1.7C176.5,116.5,174.4,115.2,172.8,113.1z"/>
			<path d="M186.3,115.3c1.3-0.9,2.3-2.1,3-3.4c0.4-0.8,0.7-1.8,0.9-2.8c0.4-2.6-0.1-5-1.7-7.2c-1.6-2.1-3.7-3.4-6.3-3.9
				c-2.6-0.4-5,0.1-7.2,1.7c-2.1,1.6-3.4,3.7-3.9,6.3c-0.2,1-0.2,2,0,2.9c0.2,1.5,0.8,2.9,1.7,4.2c1.6,2.2,3.6,3.4,6.3,3.9
				C181.7,117.4,184.1,116.8,186.3,115.3z M172,106c0.4-2.4,1.6-4.3,3.5-5.7c2-1.4,4.1-1.9,6.5-1.5c2.4,0.4,4.3,1.6,5.7,3.5
				c1,1.4,1.5,2.8,1.7,4.4l-17.5-0.3C171.9,106.3,172,106.2,172,106z M173.5,112.6c-0.8-1.1-1.3-2.3-1.5-3.6c-0.1-0.6-0.1-1.3-0.1-2
				l17.6,0.3c0,0.5,0,1-0.1,1.6c-0.2,1-0.5,2-0.9,2.8c-0.6,1.1-1.5,2.1-2.6,2.9c-1.1,0.8-2.3,1.3-3.5,1.5c-1,0.2-2,0.2-3,0
				C176.8,115.7,174.9,114.5,173.5,112.6z"/>
			<path fill="#FCD4A4" d="M187.8,102.3c-1.4-2-3.3-3.1-5.7-3.5c-2.4-0.4-4.6,0.1-6.5,1.5c-2,1.4-3.2,3.3-3.5,5.7
				c0,0.1,0,0.3-0.1,0.4l17.5,0.3C189.3,105.2,188.8,103.7,187.8,102.3z"/>
			<path fill="#FFFFFF" d="M182.3,116.1c1.3-0.2,2.4-0.8,3.5-1.5c1.1-0.8,2-1.8,2.6-2.9c0.5-0.8,0.8-1.8,0.9-2.8
				c0.1-0.5,0.1-1.1,0.1-1.6l-17.6-0.3c0,0.7,0,1.3,0.1,2c0.2,1.3,0.7,2.5,1.5,3.6c1.4,2,3.3,3.1,5.7,3.5
				C180.3,116.3,181.3,116.3,182.3,116.1z"/>
			<path d="M178.6,110.1c-0.1,0.3-0.2,0.4-0.6,0.4c-0.2,0-0.4-0.1-0.4-0.3c0-0.1,0-0.2,0-0.3c0-0.3,0.3-0.4,0.6-0.4c0,0,0,0,0,0
				c-0.1-0.1-0.3-0.1-0.5-0.2c-0.8-0.1-1.3,0.2-1.4,1c0,0.2,0,0.4,0.1,0.6c0.1,0.4,0.4,0.7,0.9,0.8c0.4,0,0.7,0,1-0.3
				c0.2-0.2,0.4-0.4,0.4-0.7c0-0.4,0-0.7-0.2-0.9C178.6,109.9,178.6,110,178.6,110.1z"/>
		</g>
	</g>
</g>
<g id="Layer_21">
</g>
<g id="Layer_22">
</g>
<g id="Layer_23">
</g>
<g id="Layer_24">
</g>
<g id="Layer_25">
</g>
<g id="Layer_26">
</g>
<g id="Layer_27">
</g>
<g id="Layer_28">
</g>
<g id="Layer_29">
</g>
<g id="Layer_30">
</g>
<g id="Layer_31">
</g>
<g id="Layer_32">
</g>
<g id="Layer_33">
</g>
<g id="Layer_34">
</g>
<g id="Layer_36">
</g>
<g id="Layer_35">
</g>
<g id="Layer_37">
</g>
<g id="Layer_38">
</g>
<g id="Layer_39">
</g>
<g id="Layer_40">
</g>
</svg>
