<?xml version="1.0" encoding="utf-8"?>
<!-- Generator: Adobe Illustrator 18.1.1, SVG Export Plug-In . SVG Version: 6.00 Build 0)  -->
<!DOCTYPE svg PUBLIC "-//W3C//DTD SVG 1.1//EN" "http://www.w3.org/Graphics/SVG/1.1/DTD/svg11.dtd">
<svg version="1.1" xmlns="http://www.w3.org/2000/svg" xmlns:xlink="http://www.w3.org/1999/xlink" x="0px" y="0px"
	 viewBox="0 0 393 483" enable-background="new 0 0 393 483" xml:space="preserve">
<g id="ziutek_x5F_01">
</g>
<g id="ziutek_x5F_02">
</g>
<g id="ziutek_x5F_03">
</g>
<g id="ziutek_x5F_04">
</g>
<g id="ziutek_x5F_05">
</g>
<g id="ziutek_x5F_06">
</g>
<g id="ziutek_x5F_07">
</g>
<g id="ziutek_x5F_08">
</g>
<g id="ziutek_x5F_09">
</g>
<g id="ziutek_x5F_10">
</g>
<g id="lady_x5F_01">
</g>
<g id="Layer_13">
</g>
<g id="Layer_12">
</g>
<g id="Layer_14">
</g>
<g id="Layer_15">
</g>
<g id="Layer_16">
</g>
<g id="Layer_17">
</g>
<g id="Layer_18">
</g>
<g id="Layer_19">
	<g>
		<path fill="#CCCBCB" d="M99.2,375.2c1.8-13.3,12.8-23.4,33-30.3c20.2-6.8,43.8-8.5,70.6-5c26.9,3.5,49.1,11.3,66.9,23.2
			c17.8,11.9,25.8,24.5,24,37.8c-1.8,13.3-12.8,23.4-33,30.2c-20.2,6.9-43.8,8.6-70.6,5c-26.9-3.6-49.1-11.3-66.9-23.2
			C105.5,401.1,97.5,388.5,99.2,375.2z"/>
		<g>
			<path fill="none" d="M246.5,310.7c1.5-5.4,2.3-10.8,2.5-16.4c0.3-6.2,0.5-12.4,0.6-18.6c0.4,0.3,0.9,0.7,1.3,1
				c3.5,2.9,5.5,5.4,5.9,7.5c0.5,2.1,0.3,5.8-0.6,11.3c0,9.6-0.4,20-1.1,31.4c-3.4-3-7.2-6.4-11.4-10.1c0.3-0.5,0.6-1,0.9-1.5
				C245.4,313.9,246,312.3,246.5,310.7z"/>
			<path d="M108,197.7c0,2,0.2,3.8,0.5,5.5c0.6,2.6,1.5,4.1,2.7,4.5c0,0,0,0.1,0,0.1c0.2,0,0.3,0,0.4,0c0.1,0,0.3,0,0.4,0
				c0.1,0,0.2,0,0.3,0c2.3,0,4.1-0.1,5.3-0.2c-0.1,3.1-0.5,6.2-1.1,9.2c-0.3,1.5-0.5,3.4-0.5,5.6c0,1.3,0,3.2,0.1,5.7v22.7
				c0,12,0.2,22.6,0.5,31.8c0.3,5.7,0.7,13.3,1.3,22.8c1.2,18.2,2.1,37,2.5,56.3c0,0.2,0,0.3,0,0.5c0,0.1,0,0.4-0.1,1.1
				c0.9,0.7,1.9,1.4,2.9,2.1c0.3,0.1,0.5,0.3,0.7,0.5c0.3,0,0.5,0.1,0.8,0.2c0.3-0.1,0.5-0.2,0.8-0.2c0,0,0,0,0-0.1
				c0.6-0.1,1.3-0.3,2.2-0.6c0.3-0.2,0.6-0.4,1-0.6c0.5-0.2,1.3-0.3,2.2-0.5c0-0.5,0-1,0.1-1.6c0-0.1,0-0.2,0-0.3c0,0,0,0,0,0
				c0-0.6,0-1.2,0.1-1.8c0.1-3.9,0.2-7.8,0.3-11.7c0.1-4.1,0.2-8.3,0.3-12.4c0.1-3.9,0.2-7.8,0.3-11.6c1.4,1.4,2.8,2.8,4.3,4.3
				c12.1,12.2,19.6,20.1,22.5,23.5c1.6,1.9,2.9,3.5,3.9,4.6l-0.7,35.2l-0.6,15.8v0c0,0-0.1-0.1-0.1-0.1c0.1,0.7,0.1,1.5,0,2.4
				c0.5,0.3,1,0.6,1.5,1c0.5,0.5,0.9,0.9,1.2,1.4c1.5,1.3,2.2,1.9,2.3,1.9l0.3-0.1c0.1,0,0.3,0.1,0.5,0.1c1,0,3.3-0.8,6.7-2.4
				c0.7-0.3,1.4-0.7,1.9-0.9c0-0.1,0-0.3,0-0.5c0.1,0,0.2,0,0.3-0.1c0-0.4,0-0.8,0.1-1.2c0.8-16.1,1.1-26.5,1.1-31.3v-14.4
				c0-0.6,0-1.3-0.2-1.9c2.1,0.5,4.4,0.8,6.8,0.9c0.6,0.9,1.1,1.9,1.5,2.9c1,2.4,1.7,4.8,2.1,7.4c1,6.5,1,13.1-0.1,19.7
				c-0.5,3.3-1.2,6.6-2,9.8c0.1,0.1,0.3,0.1,0.3,0.3c0.9,1.2,1.8,2.4,2.9,3.6c6.1,6.9,13.7,10.9,22.8,12c0.1,0.2,0.2,0.3,0.3,0.4
				c4.9,6.5,10.2,9.7,15.8,9.7c2.7,0,4.2-0.9,4.7-2.6c0.2-0.5,0.2-1.1,0.2-1.8c-0.1-0.5-0.2-0.8-0.2-0.8c0-1.9-0.4-3.9-1.2-6
				c3.6-0.6,7.4-1.5,11.2-2.6c0.1,0,0.1,0,0.2,0c4.2,4.5,8.7,6.8,13.5,6.8c2.7,0,4.2-0.9,4.7-2.6c0.2-0.5,0.2-1.1,0.2-1.8
				c-0.1-0.5-0.2-0.8-0.2-0.8c0-2.4-0.6-4.9-1.9-7.6c2.1-0.9,4.3-1.9,6.4-3c3.1-1.5,6-3,8.6-4.5c0,0.1,0,0.1,0,0.2c0,0,0,0,0,0
				c0.1-0.2,0.3-0.3,0.4-0.4c0,0,0,0,0,0c0.1-0.1,0.2-0.1,0.3-0.2c0-0.1,0-0.1,0-0.2c0.2-0.2,0.4-0.3,0.7-0.4
				c0.6-4.7,1.2-9.5,1.6-14.3c1.3-14,1.3-24.5-0.2-31.5c-1.5-7-5.7-13.7-12.9-20.1c-0.5-0.5-1.1-1-1.7-1.5c0-1,0-2,0-3
				c0-4.4,0.1-6.5,0.3-6.3c0.1,0.2,0.7-5.6,1.5-17.4c0.9-11.8,1.3-19,1.3-21.7c0-2.3,0-3.7,0-3.9c-0.1-0.9-0.3-1.6-0.8-2.2
				c-0.4-0.5-1.3-1.3-2.7-2.5c-2.3-2-4.6-3.9-6.8-5.7c-1.4-1.1-3.2-2.6-5.3-4.3c0.1-5.2,0.2-10.4,0.2-15.5c1.6,0.5,3.2,0.8,4.6,0.9
				c3.3,0.2,5.4-0.6,6.3-2.3c0.9-1.7,1.4-3.1,1.4-4.3c-0.1-1.1-0.1-1.7-0.1-1.9c0-0.5-0.5-2.9-1.5-7.3c-1.2-5.4-3.5-12.8-7-22.3
				c-1.7-4.5-3.1-7.9-4.2-10.3c0-6.8,0-13.5-0.1-20.3c0-3,0-5.9,0-8.9c0-4.6-0.1-9.2-0.3-13.8c-0.2-4.6-0.4-9.2-0.8-13.8
				c-0.3-4.6-0.7-9.2-1.2-13.8c-0.2-2.1-0.4-4.1-0.8-6.1c-0.3-2.1-0.7-4.1-1-6.1c-0.4-2.2-0.9-4.4-1.4-6.5c-0.7-2.9-1.5-5.8-2.3-8.6
				c-0.6-2.1-1.3-4.2-1.9-6.2c-0.1-0.3-0.2-0.6-0.3-0.9c-0.3-0.9-0.7-1.9-1.1-2.8c-0.8-1.8-1.7-3.6-2.6-5.4
				c-0.9-1.6-1.7-3.2-2.7-4.8c-1.4-2.4-3-4.6-4.8-6.7c-3.4-4.1-7.2-7.6-11.5-10.7c-3.9-2.8-8.1-5.1-12.6-6.8
				c-3.2-1.2-6.5-2.1-9.8-2.8c-3.4-0.6-6.9-0.9-10.4-0.9c-0.8,0-1.6,0-2.3,0c-0.2-2.6-1.7-4.9-4.6-6.8c-2.8-1.8-7.6-3.7-14.4-5.6
				c0-0.1-1.7-0.2-5.2-0.2c-10.9,0-18.9,4.1-23.9,12.5c-3.6,6-5.4,13.4-5.4,22.3c0,4.6,0.4,8.3,1.2,11.3c1.6,5.5,4.5,8.7,8.6,9.5
				c-0.4,1.7-0.8,3.4-1.1,5.2c-0.2,1.1-0.4,2.1-0.6,3.2c-0.3,1.8-0.6,3.6-0.8,5.4c-0.3,1.8-0.5,3.7-0.7,5.5
				c-0.3,2.3-0.5,4.5-0.8,6.9c-0.1,1-0.2,2.1-0.3,3.2c-0.1,1.1-0.1,2.2-0.2,3.3c0,0.5,0,1,0,1.6c0,0.7-0.1,1.3-0.1,2
				c-0.1,2.4-0.2,4.8-0.3,7.2c-0.2,5.5-0.4,11.1-0.6,16.7c-0.1,4.9-0.3,9.7-0.4,14.6c-0.1,3-0.2,5.9-0.3,8.9
				c-1.6-0.1-3.5-0.3-5.5-0.4c0-0.1-1.5-0.2-4.6-0.2c-4.6,0-8.2,0.9-10.7,2.6c-0.5,0.3-0.9,0.7-1.4,1c0,0.1,0,0.2-0.1,0.3
				c0,0.3-0.1,0.5-0.1,0.7c0.1,0,0.2,0.1,0.2,0.1c-0.5,0.8-0.9,2-1.2,3.3C108.2,193.5,108,195.5,108,197.7z M243.7,316.8
				c0.3-0.5,0.6-1,0.9-1.5c0.8-1.5,1.4-3.1,1.9-4.7c1.5-5.4,2.3-10.8,2.5-16.4c0.3-6.2,0.5-12.4,0.6-18.6c0.4,0.3,0.9,0.7,1.3,1
				c3.5,2.9,5.5,5.4,5.9,7.5c0.5,2.1,0.3,5.8-0.6,11.3c0,9.6-0.4,20-1.1,31.4C251.7,323.9,247.9,320.6,243.7,316.8z"/>
		</g>
		<g>
			<path fill="none" d="M193.5,225.2C193.6,225.2,193.6,225.2,193.5,225.2L193.5,225.2C193.5,225.2,193.5,225.2,193.5,225.2z"/>
			<path fill="none" d="M166.1,197.7c0,0,0.1-0.1,0.1-0.1L166.1,197.7C166.1,197.7,166.1,197.7,166.1,197.7z"/>
			<path fill="none" d="M169.6,199.3c0,0,0.1-0.1,0.1-0.1L169.6,199.3C169.6,199.3,169.6,199.3,169.6,199.3z"/>
			<path fill="none" d="M229.6,223.4c0.1,0,0.1-0.1,0.1-0.1L229.6,223.4C229.7,223.5,229.6,223.5,229.6,223.4z"/>
			<path fill="none" d="M207.9,222.1C207.9,222.1,207.9,222.1,207.9,222.1l-0.2-0.1C207.8,222.1,207.9,222.1,207.9,222.1z"/>
			<path fill="none" d="M229.6,223.9c-0.1,0-0.2,0-0.3,0c0.1-0.1,0.1-0.2,0.2-0.3C229.5,223.7,229.6,223.8,229.6,223.9z"/>
			<path fill="none" d="M249.6,207.2C249.6,207.2,249.6,207.1,249.6,207.2C249.6,207.1,249.6,207.2,249.6,207.2
				c0.1,0.1,0.2,0.3,0.3,0.4h-0.3C249.6,207.5,249.6,207.3,249.6,207.2z"/>
			<path fill="none" d="M230.7,423.5c0,0.1,0,0.1,0,0.2V423.5C230.6,423.5,230.7,423.5,230.7,423.5z"/>
			<path fill="none" d="M256.8,284.3c0.5,2.1,0.3,5.8-0.6,11.3c0,9.6-0.4,20-1.1,31.4c-3.4-3-7.2-6.4-11.4-10.1
				c0.3-0.5,0.6-1,0.9-1.5c0.8-1.5,1.4-3.1,1.9-4.7c1.5-5.4,2.3-10.8,2.5-16.4c0.3-6.2,0.5-12.4,0.6-18.6c0.4,0.3,0.9,0.7,1.3,1
				C254.4,279.7,256.4,282.2,256.8,284.3z"/>
			<path fill="none" d="M259.1,416.5c0,0.1,0,0.1,0,0.2V416.5C259,416.6,259.1,416.5,259.1,416.5z"/>
			<path fill="none" d="M168.2,347.4C168.2,347.5,168.3,347.5,168.2,347.4v0.2C168.2,347.5,168.2,347.5,168.2,347.4z"/>
			<path fill="none" d="M162.1,348.8c0.1,0.1,0.2,0.2,0.3,0.3l-0.2,0.2C162.1,349.2,162.1,349,162.1,348.8z"/>
			<path fill="none" d="M166.4,351.3C166.4,351.3,166.4,351.3,166.4,351.3l-0.2,0C166.2,351.3,166.3,351.3,166.4,351.3z"/>
			<path fill="none" d="M174.4,200c0,0,0,0.1,0,0.2l0-0.3C174.4,199.9,174.4,199.9,174.4,200z"/>
			<path fill="none" d="M125.2,316.3c0,0,0-0.1,0-0.1l0.3-0.1C125.4,316.2,125.3,316.3,125.2,316.3z"/>
			<path d="M108,197.7c0,2,0.2,3.8,0.5,5.5c0.6,2.6,1.5,4.1,2.7,4.5c0,0,0,0.1,0,0.1c0.2,0,0.3,0,0.4,0c0.1,0,0.3,0,0.4,0
				c0.1,0,0.2,0,0.3,0c2.3,0,4.1-0.1,5.3-0.2c-0.1,3.1-0.5,6.2-1.1,9.2c-0.3,1.5-0.5,3.4-0.5,5.6c0,1.3,0,3.2,0.1,5.7v22.7
				c0,12,0.2,22.6,0.5,31.8c0.3,5.7,0.7,13.3,1.3,22.8c1.2,18.2,2.1,37,2.5,56.3c0,0.2,0,0.3,0,0.5c0,0.1,0,0.4-0.1,1.1
				c0.9,0.7,1.9,1.4,2.9,2.1c0.3,0.1,0.5,0.3,0.7,0.5c0.3,0,0.5,0.1,0.8,0.2c0.3-0.1,0.5-0.2,0.8-0.2c0,0,0,0,0-0.1
				c0.6-0.1,1.3-0.3,2.2-0.6c0.3-0.2,0.6-0.4,1-0.6c0.5-0.2,1.3-0.3,2.2-0.5c0-0.5,0-1,0.1-1.6c0-0.1,0-0.2,0-0.3c0,0,0,0,0,0
				c0-0.6,0-1.2,0.1-1.8c0.1-3.9,0.2-7.8,0.3-11.7c0.1-4.1,0.2-8.3,0.3-12.4c0.1-3.9,0.2-7.8,0.3-11.6c1.4,1.4,2.8,2.8,4.3,4.3
				c12.1,12.2,19.6,20.1,22.5,23.5c1.6,1.9,2.9,3.5,3.9,4.6l-0.7,35.2l-0.6,15.8v0c0,0-0.1-0.1-0.1-0.1c0.1,0.7,0.1,1.5,0,2.4
				c0.5,0.3,1,0.6,1.5,1c0.5,0.5,0.9,0.9,1.2,1.4c1.5,1.3,2.2,1.9,2.3,1.9l0.3-0.1c0.1,0,0.3,0.1,0.5,0.1c1,0,3.3-0.8,6.7-2.4
				c0.7-0.3,1.4-0.7,1.9-0.9c0-0.1,0-0.3,0-0.5c0.1,0,0.2,0,0.3-0.1c0-0.4,0-0.8,0.1-1.2c0.8-16.1,1.1-26.5,1.1-31.3v-14.4
				c0-0.6,0-1.3-0.2-1.9c2.1,0.5,4.4,0.8,6.8,0.9c0.6,0.9,1.1,1.9,1.5,2.9c1,2.4,1.7,4.8,2.1,7.4c1,6.5,1,13.1-0.1,19.7
				c-0.5,3.3-1.2,6.6-2,9.8c0.1,0.1,0.3,0.1,0.3,0.3c0.9,1.2,1.8,2.4,2.9,3.6c6.1,6.9,13.7,10.9,22.8,12c0.1,0.2,0.2,0.3,0.3,0.4
				c4.9,6.5,10.2,9.7,15.8,9.7c2.7,0,4.2-0.9,4.7-2.6c0.2-0.5,0.2-1.1,0.2-1.8c-0.1-0.5-0.2-0.8-0.2-0.8c0-1.9-0.4-3.9-1.2-6
				c3.6-0.6,7.4-1.5,11.2-2.6c0.1,0,0.1,0,0.2,0c4.2,4.5,8.7,6.8,13.5,6.8c2.7,0,4.2-0.9,4.7-2.6c0.2-0.5,0.2-1.1,0.2-1.8
				c-0.1-0.5-0.2-0.8-0.2-0.8c0-2.4-0.6-4.9-1.9-7.6c2.1-0.9,4.3-1.9,6.4-3c3.1-1.5,6-3,8.6-4.5c0,0.1,0,0.1,0,0.2c0,0,0,0,0,0
				c0.1-0.2,0.3-0.3,0.4-0.4c0,0,0,0,0,0c0.1-0.1,0.2-0.1,0.3-0.2c0-0.1,0-0.1,0-0.2c0.2-0.2,0.4-0.3,0.7-0.4
				c0.6-4.7,1.2-9.5,1.6-14.3c1.3-14,1.3-24.5-0.2-31.5c-1.5-7-5.7-13.7-12.9-20.1c-0.5-0.5-1.1-1-1.7-1.5c0-1,0-2,0-3
				c0-4.4,0.1-6.5,0.3-6.3c0.1,0.2,0.7-5.6,1.5-17.4c0.9-11.8,1.3-19,1.3-21.7c0-2.3,0-3.7,0-3.9c-0.1-0.9-0.3-1.6-0.8-2.2
				c-0.4-0.5-1.3-1.3-2.7-2.5c-2.3-2-4.6-3.9-6.8-5.7c-1.4-1.1-3.2-2.6-5.3-4.3c0.1-5.2,0.2-10.4,0.2-15.5c1.6,0.5,3.2,0.8,4.6,0.9
				c3.3,0.2,5.4-0.6,6.3-2.3c0.9-1.7,1.4-3.1,1.4-4.3c-0.1-1.1-0.1-1.7-0.1-1.9c0-0.5-0.5-2.9-1.5-7.3c-1.2-5.4-3.5-12.8-7-22.3
				c-1.7-4.5-3.1-7.9-4.2-10.3c0-6.8,0-13.5-0.1-20.3c0-3,0-5.9,0-8.9c0-4.6-0.1-9.2-0.3-13.8c-0.2-4.6-0.4-9.2-0.8-13.8
				c-0.3-4.6-0.7-9.2-1.2-13.8c-0.2-2.1-0.4-4.1-0.8-6.1c-0.3-2.1-0.7-4.1-1-6.1c-0.4-2.2-0.9-4.4-1.4-6.5c-0.7-2.9-1.5-5.8-2.3-8.6
				c-0.6-2.1-1.3-4.2-1.9-6.2c-0.1-0.3-0.2-0.6-0.3-0.9c-0.3-0.9-0.7-1.9-1.1-2.8c-0.8-1.8-1.7-3.6-2.6-5.4
				c-0.9-1.6-1.7-3.2-2.7-4.8c-1.4-2.4-3-4.6-4.8-6.7c-3.4-4.1-7.2-7.6-11.5-10.7c-3.9-2.8-8.1-5.1-12.6-6.8
				c-3.2-1.2-6.5-2.1-9.8-2.8c-3.4-0.6-6.9-0.9-10.4-0.9c-0.8,0-1.6,0-2.3,0c-0.2-2.6-1.7-4.9-4.6-6.8c-2.8-1.8-7.6-3.7-14.4-5.6
				c0-0.1-1.7-0.2-5.2-0.2c-10.9,0-18.9,4.1-23.9,12.5c-3.6,6-5.4,13.4-5.4,22.3c0,4.6,0.4,8.3,1.2,11.3c1.6,5.5,4.5,8.7,8.6,9.5
				c-0.4,1.7-0.8,3.4-1.1,5.2c-0.2,1.1-0.4,2.1-0.6,3.2c-0.3,1.8-0.6,3.6-0.8,5.4c-0.3,1.8-0.5,3.7-0.7,5.5
				c-0.3,2.3-0.5,4.5-0.8,6.9c-0.1,1-0.2,2.1-0.3,3.2c-0.1,1.1-0.1,2.2-0.2,3.3c0,0.5,0,1,0,1.6c0,0.7-0.1,1.3-0.1,2
				c-0.1,2.4-0.2,4.8-0.3,7.2c-0.2,5.5-0.4,11.1-0.6,16.7c-0.1,4.9-0.3,9.7-0.4,14.6c-0.1,3-0.2,5.9-0.3,8.9
				c-1.6-0.1-3.5-0.3-5.5-0.4c0-0.1-1.5-0.2-4.6-0.2c-4.6,0-8.2,0.9-10.7,2.6c-0.5,0.3-0.9,0.7-1.4,1c0,0.1,0,0.2-0.1,0.3
				c0,0.3-0.1,0.5-0.1,0.7c0.1,0,0.2,0.1,0.2,0.1c-0.5,0.8-0.9,2-1.2,3.3C108.2,193.5,108,195.5,108,197.7z M131.9,185.4
				c-0.3,8.7-0.9,17.4-1.5,26.1c-0.9,12.3-1.8,24.7-2.7,37.1c-0.2,1.7-0.3,3.5-0.4,5.2c-0.6-0.7-1.3-1.3-1.9-2
				c0.3-4.9,0.4-13.3,0.3-25.3c0.2-4.6,0.3-8.5,0.3-11.6c0.2-5.8-0.1-12.7-0.7-20.4c-0.3-4.2-1.4-7.3-3.3-9.3
				C126.2,185.2,129.5,185.3,131.9,185.4z M180.2,57.5c-2,0.2-3.9,0.4-5.9,0.8c-1.6,0.3-3.3,0.7-4.9,1.2c-0.1-1.7-0.3-3.2-0.6-4.5
				c-0.9-3.1-2.5-4.7-4.8-4.7c-2.2,0-3.3,0.1-3.6,0.3l0.2,0.5c3.3-0.9,5.6,0.3,7,3.5c0.7,1.5,1,3.2,1,5.1c-0.9,0.3-1.7,0.6-2.6,0.9
				c-2.7,1-5.2,2.3-7.6,3.8c-0.4,0.3-0.7,0.5-1.1,0.7c-0.2-0.5-0.4-0.9-0.7-1.4c-1.6-2.8-3.6-4.3-6-4.3c-0.7,0-1.1,0.1-1.4,0.3
				c3.3,1.7,5.5,3.1,6.6,4.3c0.4,0.4,0.7,0.9,0.9,1.3c-1.2,0.9-2.3,1.8-3.4,2.7c-2.3,2.1-4.3,4.4-6.1,6.8c-2.4,3.4-4.1,7-5.3,11
				c-0.1,0.5-0.3,1-0.4,1.5c-1.3-0.3-2.5-0.9-3.7-2c-0.5-0.5-1.5-1.6-2.9-3.4l-0.7,0.3c0.8,1.2,1.9,2.5,3.3,3.8
				c1.5,1.5,2.8,2.3,3.8,2.4c-0.6,2.1-1.2,4.1-1.7,6.2c-0.3,1.3-0.7,2.5-1,3.8c-3.9-1.1-6.5-4.1-7.9-9c-0.9-3.2-1.2-6.5-0.9-9.9
				c0-10.9,2.5-19.2,7.6-24.9c4.8-5.4,11.6-8.1,20.2-8.1c7.4,0,13.3,1.6,17.7,4.7c1.6,1.1,2.9,2.4,3.8,3.8
				C179.7,56.1,180.1,56.9,180.2,57.5z M225.4,77.9c-1-0.4-2-0.8-3-1.1c-1.5-0.4-3-0.7-4.5-0.9c-2.8-0.4-5.6,0-8.2,1.1
				c-1.1,0.4-2.1,1.1-2.9,2.1c-0.5,0.5-0.9,1.1-1.3,1.8c-0.2,0.4-0.4,0.8-0.6,1.2c-0.6,1-0.9,2.1-1.1,3.2c-0.1,0.7-0.3,1.3-0.6,2
				c-0.9-1.8-1.9-3.3-3.1-4.7c-1.1-1.4-3.1-3-5.7-4.8c-2.7-1.8-6-3-9.9-3.5c-2.8-0.4-5.6-0.3-8.4,0.3c-0.8,0.2-1.6,0.4-2.3,0.6
				c-0.8,0.2-1.5,0.5-2.2,0.8c-1,0.4-2,0.9-2.9,1.6c-3.4,2.4-5.8,5.6-7.3,9.4c-1.3,3.4-2.1,6.9-2.4,10.5c-0.3,3.4-0.4,6.7-0.2,10.1
				c0.2,3,0.3,6,0.4,9c0.2,3.1,0.3,6.2,0.3,9.2c-1.6,0-2.9,0-3.9,0c0-0.1,0-0.1,0-0.1c-0.8-7.7-3.4-11.5-7.7-11.5
				c-2.4,0-4.1,1.5-5.1,4.4c-0.5,1.6-0.8,3.2-0.8,5c-0.1,0.7-0.1,1.3-0.1,1.8c0,1.1,0.1,2.1,0.4,2.9c0.7,2.4,2.3,3.7,4.9,3.9
				c-0.4,4.2-0.6,6.3-0.6,6.5c-1.1,6.7-4.4,10-9.9,10c-0.6,0-1.2,0-1.7-0.1c0.1-1.3,0.1-2.6,0.1-3.9c0.1-2.4,0.2-4.9,0.3-7.4
				c0.1-1.8,0.2-3.5,0.2-5.3c0.2-3.5,0.5-7,0.9-10.5c0.4-3.5,0.9-7,1.4-10.5c0.6-3.5,1.2-7,2-10.4c0.9-4,1.9-7.9,3.2-11.6
				c1.2-3.6,2.7-7,4.5-10.4c1.8-3.3,4-6.2,6.8-8.7c2.8-2.5,5.9-4.6,9.3-6.3c4.2-2.1,8.6-3.4,13.2-4.2c12.1-1.9,23.3,0.2,33.7,6.5
				c1.1,0.7,2.3,1.4,3.4,2.1c1.1,0.8,2.2,1.5,3.3,2.3c1.1,0.8,2.1,1.7,3.1,2.6c1.2,1.1,2.4,2.2,3.6,3.4
				C224.4,76.8,224.9,77.3,225.4,77.9z M248,183c0,1.9,0.1,3.7,0.1,5.6c-1.1,0.7-2,1.3-2.7,1.6c-4.1,1.9-8,3.3-11.6,4.1
				c-8,1.9-17.9,2.9-29.8,2.9c-6.7,0-13.8-0.5-21.2-1.5c-7.5-1-14.8-2.5-21.8-4.4c-11.4-3.1-20.5-6.7-27-10.9
				c0.1-1.6,0.1-3.2,0.2-4.8c0.1-3.2,0.2-6.3,0.3-9.5c0.1-3.2,0.2-6.3,0.3-9.5c0.1-2.2,0.2-4.4,0.2-6.6c0.7,0.2,1.3,0.2,1.9,0.2
				c5.2,0,8.6-2.3,10.2-7c0.5-1.4,0.9-3.4,1.3-6.1c0.4-2.6,0.7-4.3,0.9-5.2c0.8-0.1,1.5-0.4,2-0.7c0.5-0.3,0.8-0.7,0.9-1.2
				c-0.1-0.1-0.1-0.2-0.3-0.3c-0.1-0.1-0.4-0.2-0.7-0.2c-0.3,0-0.8,0.1-1.6,0.4c-0.9,0.3-1.4,0.4-1.6,0.4c-2.1,0-3.4-1.1-4-3.3
				c-0.3-1.1-0.4-2.2-0.3-3.3c0-1.4,0.2-2.8,0.6-4.3c0.7-2.5,1.9-3.7,3.5-3.7c3.6,0,5.7,3,6.4,9.1c0,0.3,0.1,0.5,0.1,0.8
				c0,0,0,0,0,0c0,0.1,0,0.3,0,0.4c0,0.4-0.1,0.9-0.1,1.3c2.3,0,4.7-0.1,7-0.2c0-0.5,0-1,0-1.5c-0.1,0-0.1,0-0.1,0
				c-0.2-3.1-0.3-6.2-0.3-9.3c-0.1-3.6-0.2-7.3-0.4-10.9c-0.1-1.1-0.1-2.1-0.1-3.2c0-1.1,0.1-2.1,0.1-3.2c0.1-1.7,0.3-3.4,0.6-5
				c0.4-2.4,1.1-4.6,2.1-6.8c1.4-3.1,3.3-5.6,6.1-7.5c1.1-0.8,2.2-1.5,3.4-2c1-0.4,2-0.8,3.1-1.1c1.4-0.4,2.8-0.7,4.2-0.8
				c2.8-0.2,5.5,0.1,8.2,0.9c4.5,1.3,8.3,3.8,11.2,7.5c1.6,2.1,3,4.3,4.1,6.7c0.2,0.2,0.4-0.1,0.7-0.7c0.3-0.7,0.6-2,1-4
				c0.1-0.6,0.3-1.1,0.4-1.7c0.3-1.4,0.9-2.7,1.8-3.9c0.3-0.5,0.8-0.9,1.3-1.3c0.4-0.3,0.8-0.5,1.2-0.7c0.5-0.3,1.1-0.5,1.7-0.7
				c1-0.3,2.1-0.4,3.1-0.4c1.3,0,2.5,0.1,3.8,0.3c3.4,0.5,6.6,1.6,9.5,3.3c0.9,1.1,1.7,2.3,2.4,3.4c1,1.5,1.9,2.9,2.7,4.5
				c0.8,1.4,1.5,2.9,2.3,4.4c0.7,1.4,1.3,2.7,2,4.1c0.3,0.6,0.5,1.1,0.8,1.7c0,0.1,0.1,0.2,0.1,0.3c0.3,0.6,0.5,1.2,0.7,1.9
				c0.3,0.9,0.6,1.7,0.9,2.6c0.8,2.8,1.5,5.6,2.2,8.4c0.5,2,0.9,3.9,1.4,5.8c0.3,1.5,0.6,3,0.8,4.5c0.3,2.2,0.7,4.5,0.9,6.7
				c0.3,2.3,0.6,4.6,0.9,6.9c0.6,5.1,1.1,10.2,1.5,15.4c0.3,5.1,0.5,10.2,0.5,15.3c0,1.8,0,3.7,0.1,5.5c0,2.2,0.1,4.4,0.1,6.6
				C248,180.3,248,181.6,248,183z M167.6,196.6c0-0.2,0-0.4-0.1-0.7c-0.2,0-0.4,0-0.9-0.2c-0.8,0-1.5,0.4-2.1,1.2
				c-2.6-1.4-5.2-2.9-7.9-4.7c-0.3-0.2-0.6-0.4-1-0.6c3.9,1.2,8,2.2,12.5,3.2c6.7,1.5,13.6,2.5,20.7,3.3c4.8,0.5,9.1,0.8,12.8,0.9
				c-2.6,3.1-7,4.6-13.2,4.6c-1.9,0-3.9-0.2-6-0.5c-2.6-3.9-4.1-5.7-4.5-5.7c-0.8,0-1.7,0.4-2.5,1.2c-0.6,0.5-0.9,1-1.1,1.4
				c0,0.1,0,0.1,0,0.2c0,0,0,0.1,0,0.2c0.1,0.3,0.2,0.6,0.2,0.9c0.1,0,0.1,0.1,0.1,0.1c-0.2-0.1-0.5-0.2-0.7-0.2
				c-1.4-0.5-2.8-1-4.3-1.6c0,0-0.1,0-0.1,0c0,0,0.1-0.1,0.1-0.1c0.5-0.4,0.8-0.8,0.8-1c0-0.3,0-0.4,0-0.4c-0.1,0-0.1-0.1-0.2-0.2
				l-0.1-0.1c0-0.1-0.2-0.1-0.5-0.1c-0.7,0-1.4,0.4-1.9,1.2c-0.5-0.3-1.1-0.5-1.6-0.8c0,0,0,0-0.1,0c0,0,0.1-0.1,0.1-0.1
				C167.2,197.1,167.6,196.8,167.6,196.6z M182.2,223.3c0-0.2,0-0.4-0.1-0.5c0.3-0.6,0.6-1.2,1-1.9c2.1-3.7,3.9-5.6,5.6-5.7
				c1.6-0.1,2.9-0.1,3.9,0.1c-2.2,0-3.2,0.3-2.8,0.9c5.1,0.6,8.2,1.5,9.4,2.6c0.5,0.5,0.7,1,0.7,1.8c0,0.2,0,0.4-0.1,0.7
				c-0.2-0.2-0.4-0.3-0.7-0.5c-0.9-0.7-2.6-1.5-5-2.6l-1.1,0.2c0,0,0,0.1-0.1,0.1c0,0-0.1,0.2-0.1,0.5c0,0,1.1,0.7,3.5,2.1
				c2.3,1.4,3.5,2.4,3.5,3.2c0,0.3-0.1,0.6-0.2,0.6c-0.2,0.1-0.7,0.2-1.5,0.2c-1.1,0-2.1-0.3-3.2-1c-1-0.7-1.7-1-2.1-1l-0.8,0.2
				c0,0,0,0.1-0.1,0.1c0,0-0.1,0.2-0.1,0.5c0,0.2,0.1,0.4,0.4,0.7c-0.1,0.3-0.1,0.6-0.2,1c-0.3,1.6-0.4,2.6-0.6,3.1
				c-0.7,2.7-2.2,4-4.5,4c-0.6,0-1.1-0.1-1.5-0.2c-0.6-0.6-1.3-1.2-2-1.8c-1.6-1.6-2.4-2.9-2.4-3.9
				C181.8,224.7,182.2,223.6,182.2,223.3z M179.6,226.5c0,1.8,0.8,3.5,2.4,4.9c0.3,0.4,0.7,0.8,1.3,1.2c0.5,0.4,1,0.8,1.5,1
				c-1.3,1.4-2.6,2.6-3.9,3.8c-1.9-1.4-3.6-3.6-5-6.6c-0.3-0.5-0.5-1.1-0.8-1.7c0.3-0.2,0.6-0.4,0.8-0.5c1.4-0.9,2.6-1.8,3.8-2.7
				C179.7,226.2,179.6,226.4,179.6,226.5z M197.8,280.4c-0.2-0.6-0.3-1.2-0.5-1.9c-0.9-4.4-1.6-8.5-2.1-12.3
				c-0.5-3.8-1.3-9-2.4-15.8c-0.4-3.3-0.7-5.8-0.9-7.6c-0.1-0.4-0.1-0.8-0.2-1.2c1.6,0.3,3.5,0.5,5.5,0.5c4.5,0,8.2-0.5,11-1.5
				c0,0.3,0,0.5,0,0.8c0,5.5,1.4,13.6,4.2,24.3c0.9,3,3,5.4,6.1,7.3c1.9,1.1,5,2.4,9.2,3.7c4.2,1.3,6.9,2.4,8.4,3.3
				c2.4,1.5,3.7,3.6,3.7,6.1c0,1.2,0,1.8,0,2c-0.1,0.9-0.5,1.7-1.2,2.4c-2,1.9-7.5,2.9-16.6,3c-3.7,0-6.9-0.2-9.7-0.7
				c0-0.1-0.1-0.3-0.1-0.4c-0.5-1.9-1.2-3.6-2.2-5.2C207.3,282.9,203.3,280.6,197.8,280.4z M208.8,288.7c0.7,1.2,1.3,2.5,1.7,3.9
				c-3-0.7-5.4-1.7-6.9-3.2c-2.3-2-4-4.4-5.1-7.2C203.1,282.5,206.5,284.7,208.8,288.7z M192.5,240.2l7-8.8c0.1,0,0.1,0,0.2,0.1
				c0.1,0.1,0.1,0.1,0.2,0.1c1.3,1.2,4,3.8,8.1,7.7c-2.5,0.8-6,1.2-10.6,1.2C195.5,240.4,193.9,240.3,192.5,240.2z M199.2,228.9
				c-0.3-0.6-0.8-1.3-1.4-2.2c0.1,0,0.3,0,0.4,0c1.5,0,2.5-0.4,2.9-1.2c0.2-0.3,0.2-0.8,0.2-1.4c0-0.6-0.2-1.1-0.5-1.6
				c0.2-0.3,0.3-0.6,0.3-1c0.1-0.9,0.2-1.5,0.2-1.5c0-0.9-0.6-1.8-1.7-2.7c-0.8-0.6-1.7-1.1-2.7-1.4c-0.3-0.4-1.1-0.9-2.4-1.5
				c-1-0.5-2.6-0.6-4.8-0.4c-0.1-0.1-0.2-0.3-0.3-0.4c-2.3-3.5-4.2-6.5-5.8-8.9c2.1,0.3,3.7,0.5,4.9,0.5c6.5,0,11.4-1.7,14.5-5
				c0.4-0.4,0.7-0.9,1-1.3c2.6,0,5.1,0,7.6-0.2c0.1,0.2,0.2,0.3,0.2,0.4c2.2,4,5.4,6.1,9.6,6.1c4.3,0,8.6-1.1,13.1-3.3
				c3.8-1.9,7.4-4.5,10.9-7.7c1-0.9,1.9-1.8,2.8-2.7c0.1,5.7,0.1,11.3,0,16.9c-0.1,2.8-0.1,5.6-0.2,8.4c0,1.5-0.1,2.9,0,4.4
				c0,1.4,0,2.7,0,4c0,0.5,0,1.1,0.1,1.6c0.2,2.5,0.3,5,0.4,7.5c-0.2-0.1-0.4-0.2-0.7-0.3c-4.1-2.1-8-4.5-11.7-7.3
				c-2-1.4-4.1-2.5-6.3-3.2c0,0-0.1,0-0.1,0c0.1,0,0.1-0.1,0.1-0.1c-0.1-0.1-0.3-0.3-0.4-0.4c-1.8-1.9-3.7-3.4-5.7-4.5
				c6.9-4,10.3-6.2,10.4-6.7c0-0.9-0.3-1.7-1-2.6c-0.5-0.6-0.9-1-1.3-1.2c0,0-0.1,0-0.1,0c0,0-0.1,0-0.2,0c-0.3,0.1-0.9,0.5-1.6,1.1
				c-0.8,0.6-1.2,0.9-1.3,0.9c-3.6,2.4-6.9,4.6-9.8,6.6c-0.6-0.1-1.2-0.2-1.8-0.3c-4.5-0.5-7.2-0.1-8,1.1c-0.8,1.2-1.2,2.3-1.1,3.2
				c0,0.6,0,1.2,0.1,1.7c0.1,0,0.1,0.1,0.2,0.1c0,0,0,0,0,0c-0.2,0.3-0.3,0.7-0.3,1c0,0.2,0,0.5,0.1,0.7c-3.3,2.4-5.9,4.4-7.7,5.8
				C199.8,229.5,199.5,229.2,199.2,228.9C199.2,228.9,199.2,228.9,199.2,228.9z M214.9,223.5c-0.3-0.6-0.7-0.9-1.1-0.9
				c-1.6,0-2.8,0.7-3.7,2c0,0-0.1-0.1-0.1-0.1c-0.5-0.4-0.7-0.9-0.7-1.4c0-0.5,0.6-1,1.8-1.6c1.2-0.6,2.1-0.8,2.7-0.6
				c0,0.2,0.1,0,0.1-0.5c0-0.3-0.1-0.6-0.4-0.7c-0.1,0-0.4-0.1-1-0.1c-1.4,0-2.6,0.4-3.5,1.1c0.1-1,0.2-1.5,0.2-1.7
				c0.4-1.4,2-2.1,4.8-2.1c5,0,9.5,2,13.4,5.9c0.5,0.5,1,1,1.5,1.6c0,0,0-0.1,0-0.1c0,0.1,0,0.3,0,0.4c0.2,1.4,0.2,2.2,0.2,2.5
				c-0.1,0.8-0.3,1.6-0.7,2.7c-0.4,1.1-0.8,1.9-1.3,2.6c-0.4,0.5-1.1,1.1-2.2,1.8c0,0-0.1,0-0.2,0c-3.9,0-6.2-1.1-7.1-3.3
				c-0.2-0.4-0.4-1.2-0.6-2.3c0.1-0.1,0.1-0.1,0.1-0.2c0.3-0.5,0.5-1,0.6-1.7c0.1-0.6,0.2-1,0.3-1.1c-0.1-0.4-0.4-0.6-0.9-0.6
				c-0.4,0-0.7,0.2-0.8,0.5c-0.1,0.3-0.4,1-0.8,2.2c-0.4,1.2-1.2,1.6-2.6,1.5c-1.3-0.2-2.1-0.8-2.2-1.7c-0.4-0.8,0-1.6,1.2-2.6
				C213.2,224.1,214.2,223.6,214.9,223.5z M228.5,233.2c0.7-0.9,1.2-1.9,1.7-3.1c0.3-0.8,0.5-1.4,0.5-1.7c-0.1-0.9-0.2-1.9-0.2-2.8
				c1.5,0.6,2.9,1.3,4.3,2.2c0.3,0.2,0.5,0.3,0.8,0.5c0.1,0.5,0.1,1,0.1,1.6c0,2.1-0.2,3.8-0.6,5c-0.5,1.4-1.3,2.5-2.3,3.2
				c-1.9-1.4-3.6-2.7-5.1-3.9C228,233.9,228.3,233.6,228.5,233.2z M229.3,223.9c0.1-0.1,0.1-0.2,0.2-0.3c0.1,0.1,0.1,0.2,0.1,0.3
				C229.5,223.9,229.4,223.9,229.3,223.9z M232.6,212c-3.8,2.2-7.1,4.2-9.9,5.8c-0.9-0.5-1.9-0.9-2.9-1.1c1.5-0.9,3.3-2,5.4-3.3
				c2.5-1.6,4.3-2.9,5.3-3.8c0.1,0.6,0.3,1.1,0.8,1.5C232.1,211.5,232.5,211.9,232.6,212z M231.3,209.2c0-0.3,0.1-0.4,0.2-0.4
				c0.3,0.1,0.5,0.5,0.8,1c0.3,0.5,0.4,0.9,0.5,1.3C232.5,210.8,232,210.1,231.3,209.2z M204.4,227.5c1.2-1,2.4-2,3.6-2.9
				c0.1,0.2,0.2,0.4,0.3,0.6c0.2,0.3,0.3,0.5,0.5,0.7c-2.7,1.5-5.1,2.8-7.4,4C202.3,229.2,203.3,228.4,204.4,227.5z M245.9,192.1
				c-6.9,7.6-15.1,11.4-24.4,11.4c-3.5,0-6.2-1.6-8.2-4.8c14.1-0.8,25.3-3.3,33.5-7.6C246.5,191.4,246.2,191.7,245.9,192.1z
				 M198.1,228.7c-0.7-0.8-1.4-1.5-2.2-2.4c0.3,0.1,0.6,0.2,0.9,0.3C197.2,227.3,197.7,228,198.1,228.7z M186.4,214.7
				c-1.1-1.5-3.1-4.5-6.2-8.8c-1.7-2.4-3.1-4.1-4-5.1c0.6-0.1,1.1-0.4,1.4-0.9c0.4-0.7,0.7-1.2,0.8-1.3c4.5,6.8,8,12,10.4,15.5
				c-0.4,0.1-0.9,0.1-1.3,0.2C187.1,214.4,186.8,214.5,186.4,214.7z M175.7,200.1c-0.3,0-0.4-0.1-0.4-0.2c0.1-0.3,0.4-0.5,1-0.9
				c0.5-0.3,0.9-0.5,1.2-0.6C177.2,198.9,176.6,199.4,175.7,200.1z M234.4,239.3c1.2-0.9,2.1-2.2,2.6-3.8c0.3-1.1,0.5-2.4,0.5-3.8
				c-0.1-1.2-0.1-1.8-0.1-1.8c0-0.1,0-0.3,0-0.4c2.5,1.6,5,3.2,7.4,4.8c0.5,0.3,1,0.5,1.5,0.8c2.7,1.3,5.5,1.5,8.4,0.6l0.7-1.4
				l-0.1-0.8l-0.6-0.2c-1.5,1.1-3,1.6-4.6,1.3c0-3.8-0.1-7.6-0.2-11.5c-0.1-5.2-0.2-10.4-0.2-15.6c0-0.1,0-0.3,0-0.4
				c0,0,0-0.1,0-0.1c0,0,0,0,0,0c0.1,0.2,0.1,0.3,0.2,0.4c1.7,3.7,3.4,7.8,5.1,12.2c3.9,10.5,5.8,18.4,5.8,23.5c0,1.9-0.3,3.5-0.9,5
				c-0.6,1.5-2.8,2-6.5,1.7C249.7,249.6,243.3,246.1,234.4,239.3z M262.3,307.2c-0.7,7.4-1.4,15.6-1.9,24.5c-1.1-1-2.4-2.1-3.7-3.3
				c0.2-3.7,0.3-7.8,0.6-12.4c0.8-17.5,1.2-27.2,1.3-29.2c0.1-2-0.3-3.9-1.3-5.6c-1.1-2-3.7-4.5-7.7-7.6c0-1.7,0.1-3.5,0.1-5.2
				c5.4,4.3,9.1,7.1,11,8.4c2.1,1.5,3.1,4.2,3.1,8.3C263.8,289.3,263.3,296.6,262.3,307.2z M249.6,275.8c0.4,0.3,0.9,0.7,1.3,1
				c3.5,2.9,5.5,5.4,5.9,7.5c0.5,2.1,0.3,5.8-0.6,11.3c0,9.6-0.4,20-1.1,31.4c-3.4-3-7.2-6.4-11.4-10.1c0.3-0.5,0.6-1,0.9-1.5
				c0.8-1.5,1.4-3.1,1.9-4.7c1.5-5.4,2.3-10.8,2.5-16.4C249.2,288.2,249.4,282,249.6,275.8z M258.9,414.1c-1.3,1.3-2.8,1.9-4.6,1.9
				c-2.1,0-4.3-0.8-6.6-2.4c3.3-1.1,6.6-2.3,9.9-3.8C258.2,411.2,258.7,412.6,258.9,414.1z M244.1,414.7c0.5-0.2,1.1-0.3,1.6-0.5
				c2.8,2.3,5.6,3.5,8.3,3.5c2,0,3.6-0.3,5-1.1c0,0,0.1,0,0.1,0c0,0.1,0,0.1,0,0.2c0,0.2,0,0.9,0,2c-0.2,1.1-0.6,1.7-1.4,1.7
				C252.6,420.4,248,418.5,244.1,414.7z M230.5,421c-1.3,1.3-2.8,1.9-4.6,1.9c-2.7,0-5.4-1.2-8.3-3.7c3.9-0.1,8-0.4,12.2-1.1
				C230.1,419,230.3,420,230.5,421z M213.3,419.1c0.6,0.1,1.3,0.1,1.9,0.1c3.6,3.6,7,5.4,10.4,5.4c2,0,3.6-0.3,5-1.1
				c0,0,0.1,0,0.1,0c0,0.1,0,0.1,0,0.2c0,0.2,0,0.9,0,2c-0.2,1.1-0.6,1.7-1.4,1.7C223.2,427.4,217.8,424.6,213.3,419.1z
				 M187.7,400.6c7.3,8.2,16.6,12.3,28,12.3c7.9,0,16.5-1.3,25.6-4c7.6-2.2,15.2-5.1,23-8.9c3.8-1.9,7.3-3.7,10.5-5.6
				c-0.2,1.8-0.5,3.7-0.7,5.6c-3.5,1.9-7.6,3.9-12.4,6.2c-15.4,7.5-30.4,11.2-45,11.2c-12.4,0-21.9-4.5-28.6-13.3
				c-0.5-0.7-1.1-1.5-1.6-2.3c0.2-0.6,0.3-1.3,0.5-2C187.3,400.2,187.5,400.4,187.7,400.6z M182.9,359.4c-0.6-0.7-1.2-1.4-1.9-2
				c-3-2.8-5.9-5.6-8.9-8.5c-1.2-1.2-2.4-2.3-3.7-3.5c0.3-1.9,0.4-3.8,0.6-5.7c0.2-4.1,0.5-8.2,0.8-12.2c0.3-3.6,0.5-7.1,0.8-10.7
				c0.3-3.8,0.4-7.7,0.4-11.5c0-0.8-0.2-1.5-0.4-2.2c-0.9-2.1-2.1-4.1-3.5-5.9c-2.6-3.3-5.3-6.5-8.1-9.6c-2.6-2.9-5.3-5.7-8-8.5
				c-2.9-3-5.7-5.9-8.5-8.9c-2.1-2.2-4.1-4.5-6.2-6.7c-2.1-2.3-4.3-4.7-6.5-7c-0.3-0.3-0.6-0.7-0.9-1c0.8-10.2,1.7-20.3,2.5-30.5
				l-0.2,1.5c0.1-1.5,0.3-3,0.3-4.6c0.3-3,0.5-6.1,0.7-9.2c0.2-3.1,0.4-6.1,0.6-9.2c0.2-3.1,0.3-6.1,0.5-9.2
				c0.2-3.1,0.3-6.2,0.4-9.3c0-0.9,0.1-1.9,0.1-2.9c4.9,3,10.8,5.7,17.6,8c1.9,1.5,4.5,3.1,7.7,4.8c1.8,0.9,3.5,1.8,5.1,2.7
				c-0.1,0.2-0.2,0.5-0.3,0.7c-0.4,1.2-0.6,2.1-0.6,3c0,0.9,0,1.5,0.1,1.7c0.1,0.7,0.5,1.2,1,1.5c0.7-0.3,1-0.9,0.9-1.8
				c-0.3-1-0.4-1.7-0.4-2.2c0-0.9,0.2-1.7,0.6-2.3c0.7,0.3,1.3,0.6,1.9,0.9c-0.1,0.3-0.3,0.6-0.3,0.9c-0.3,1-0.5,2-0.6,3
				c0,0.5,0,0.9,0.1,1.4c0.3,0.2,0.5,0.3,0.7,0.3c0.6-0.4,0.9-1,1-1.7c-0.1-0.8,0-1.4,0.1-1.8c0.2-0.5,0.4-1,0.6-1.4
				c3,1.4,5.6,2.4,7.8,3.1c3.4,4.6,6.4,8.6,9,12c-1.7,1.3-3.5,3.9-5.4,8c-1.8,1.3-3.5,2.5-5.1,3.6c-6.8,4.6-11.8,7-15,7.3
				c-2-2.3-3.7-6.2-5.2-11.9c-0.7-3.1-1.2-5.7-1.7-7.8c-0.9-4-1.6-6.1-2-6.1c-0.4,0-0.6,0.1-0.7,0.4c-0.1,0.2-0.1,0.5-0.1,1
				c0,0.6,0.3,2.3,0.9,5c0.7,3.5,1.6,6.7,2.6,9.7c1.4,4.2,2.8,7.4,4.3,9.6c-0.5-0.1-0.8-0.2-1-0.4c-0.5-0.4-0.8-0.6-0.9-0.7
				c-0.2,0.1-0.3,0.1-0.5,0.2c-0.2,0.1-0.3,0.3-0.3,0.6c0,0.6,0.4,1.1,1.2,1.5c0.8,0.3,1.6,0.5,2.6,0.5c3.4,0,8.1-1.9,14.2-5.7
				c0.2,0.6,0.4,1.1,0.6,1.6c1.3,3.4,3,5.7,5.1,7.1c-6.3,5.3-12,7.9-17.2,7.9c-8,0-13.6-6.9-16.9-20.7c-0.8-3.4-1.6-8.2-2.5-14.3
				c-0.6-4.3-1.1-6.5-1.5-6.5c-0.7,0-1,0.6-0.8,1.8c0,1.6,0.2,4.1,0.6,7.4c0.7,5.1,1.6,9.8,2.9,14.1c3.9,13.2,10,19.9,18.3,19.9
				c6.3,0,12.7-3,19.1-8.9c1.8-1.7,3.5-3.5,5.1-5.3c0.2,0,0.3,0,0.5,0c2.7,0,4.5-1.5,5.7-4.4c0.6-1.5,0.9-3.1,0.9-4.6
				c0,0,0-0.1,0-0.1c0,0,0.1,0,0.1,0.1c2.1,2.5,3.6,4.2,4.5,5c-2.9,3.7-5.4,7-7.6,9.8c-0.3-0.1-0.5-0.1-0.7-0.2
				c0.9,3.9,1.3,6.1,1.5,6.5c0.2,0.6,0.8,5.7,2.1,15.4c1.2,9.7,2.9,17.5,5.2,23.4c2.2,5.9,9.2,9.1,20.8,9.5
				c11.6,0.4,18.6-0.8,20.8-3.4c0.8-0.9,1.2-1.9,1.3-3c0-1.1-0.2-2.4-0.6-4c-0.4-1.6-1.3-3-2.7-4.2c-1.4-1.2-3.9-2.4-7.4-3.5
				c-3.5-1.1-6.6-2.3-9.5-3.4c-2.8-1.2-5-3-6.4-5.6c-1.5-2.5-2.7-7.1-3.6-13.6c-1-6.5-1.5-10.7-1.5-12.4c0-0.8,0.1-1.8,0.3-2.8
				c-0.1,0-0.2,0.1-0.2,0.2c-0.1-0.1-0.2-0.2-0.3-0.2c0,0,0.1-0.1,0.1-0.2c0,0-0.1,0.1-0.1,0.1c-2.2-2.1-5-4.6-8.3-7.6
				c1.5-0.8,4.2-2.3,8-4.4c0,0,0,0,0,0c-0.1,0.4-0.2,0.9-0.2,1.3c0,0.7,0.3,1.4,0.7,1.9c0.6,0.8,1.6,1.1,2.9,1.1
				c1.1,0,2.1-0.2,2.8-0.7c0.2,1.1,0.8,2.1,1.8,3.2c1.7,1.9,4.2,2.8,7.3,2.8c0.2,0,0.3,0,0.4,0c0.1-0.1,0.1-0.3,0.2-0.3
				c0.3-0.1,0.5-0.1,0.8-0.1c0.2-0.1,0.3-0.3,0.5-0.4c1.1,0.8,2.3,1.8,3.7,2.8c5.6,4.1,10.2,7.4,13.9,9.8c1.5,0.9,3,1.7,4.4,2.3
				c0,3.4-0.1,6.8-0.2,10.2c0,0.9,0,1.7-0.1,2.5c0,0.5,0,1,0,1.5c0,0.7-0.1,1.4-0.1,2.1c0,0.8-0.1,1.6-0.1,2.3
				c0,0.6-0.1,1.2-0.1,1.9c-0.1,0.9-0.1,1.9-0.2,2.9v0.3c-0.1,1-0.1,2-0.2,3c-0.1,1.9-0.2,3.7-0.3,5.6c0,1.6-0.1,3.2-0.1,4.8
				c0,1.1-0.1,2.2-0.1,3.3c0,1.6-0.1,3.2-0.1,4.8c0,0.8-0.1,1.5-0.1,2.3c-0.1,1-0.1,2.1-0.2,3.1c-0.1,0.6-0.1,1.3-0.2,1.9
				c-0.1,0.6-0.1,1.2-0.2,1.8c-0.1,0.5-0.2,1.1-0.2,1.6c-0.1,0.5-0.2,1-0.3,1.5c-0.2,0.7-0.3,1.3-0.5,2c-0.2,0.8-0.5,1.5-0.7,2.3
				c-0.3,0.7-0.5,1.3-0.8,1.9c-0.3,0.6-0.5,1.1-0.9,1.6c-0.2,0.2-0.3,0.4-0.5,0.7c-0.1,0.2-0.3,0.4-0.5,0.6c-0.4,0.5-0.9,1-1.3,1.5
				c-0.3,0.4-0.6,0.8-0.9,1.2c-0.3,0.3-0.5,0.6-0.9,0.9c-0.6,0.5-1.3,0.9-2,1.3c-0.9,0.5-1.9,0.9-2.8,1.3c-2.8,1-5.7,1.7-8.6,2.1
				c-2.1,0.3-4.1,0.3-6.1,0.1l0.2,0.8c0.5,0.1,0.9,0.1,1.4,0.2c3.7,0.3,7.4,0,11-0.9c2.1-0.5,4.2-1.4,6-2.6c0.7-0.4,1.3-0.9,1.9-1.4
				c1.1-0.9,2.1-2,2.9-3.1c2.2,1.9,4.9,4.2,8,6.7c4.5,3.7,8.3,7.1,11.5,10.3c0,0,0,0,0,0c6.4,6.3,10.4,11.6,11.7,15.8
				c2.1,6.3,2.9,14.2,2.5,23.5c-0.3,6-0.8,12.1-1.5,18.2c-3.9,2.1-8.6,4.5-14.2,7.2c-15.4,7.5-30.4,11.2-45,11.2
				c-12.2,0-21.7-4.3-28.3-13c0.3-1.2,0.5-2.4,0.7-3.6c0.6-3.4,1.1-6.8,1.3-10.3c0.1-1.6,0.2-3.2,0.2-4.7c0-0.8-0.1-1.6-0.1-2.4
				c-0.1-0.8-0.2-1.6-0.3-2.4c-0.3-1.5-0.6-3.1-1-4.6c-0.6-2.3-1.4-4.5-2.5-6.6c-0.4-0.7-0.8-1.4-1.2-2.1
				C184,360.8,183.5,360.1,182.9,359.4z M174,357.6c-2.2-2.2-3.9-3.9-5.2-5.1c-0.5-0.5-0.9-0.9-1.3-1.2c0.1,0,0.2,0,0.3,0
				c0.1,0,0.1,0,0.2,0c0-0.4,0-0.9,0-1.3c0-0.8,0.1-1.6,0.2-2.3c0-0.1,0-0.1,0-0.2c0,0,0.1,0,0.1,0.1c0.9,0.8,1.9,1.6,2.9,2.4
				c2.3,1.9,4.5,3.9,6.6,6c1.6,1.6,3.2,3.3,4.6,5.2c0.2,0.3,0.4,0.5,0.6,0.8c-2-0.4-4.2-0.9-6.7-1.5c0,0,0,0,0,0
				C175.6,359.4,174.9,358.5,174,357.6z M163.3,410.1c0.1-3.8,0.2-7.7,0.3-11.5c0.1-4.1,0.2-8.3,0.3-12.4c0.1-4.1,0.2-8.3,0.3-12.4
				c0-0.5,0-1.1,0-1.6c0.1-4.3,0.1-8.5,0-12.8c0.7,0.9,1.4,1.8,1.9,2.7c0.6,1.1,0.9,2.2,0.9,3.3c0,3,0,7.6,0,13.8
				c0,8.5-0.3,15.9-0.9,22.3c-0.3,2.9-0.5,6.4-0.7,10.4C164.8,411.4,164.1,410.8,163.3,410.1z M125.7,364.1c0-0.6,0-1.2,0.1-1.8
				c0.1-3.9,0.2-7.8,0.3-11.7c0.1-4.1,0.2-8.3,0.3-12.4c0.1-4.1,0.2-8.3,0.3-12.4c0-0.5,0-1.1,0-1.6c0-1.5,0-3,0.1-4.5
				c1.1,1.1,2.3,2.3,3.4,3.5l-0.4,20l-0.8,20.1C127.6,363.6,126.6,363.9,125.7,364.1z M117.8,255.3c0.7,0.7,1.3,1.4,2,2.1
				c-0.1,0.6-0.1,1.2-0.1,1.8c0,0.7,0,2.8,0,6.4c0,13.7,0.5,23.5,1.4,29.5c1,6.3,3.1,11.6,6.2,15.9c1.4,2,3.1,3.9,5.1,6.1
				c2,2.1,8.3,9.1,19,21.1c4.9,5.5,8.5,9.2,10.8,11.2c-0.1-0.2-0.1-0.4-0.1-0.6c0.1,0.1,0.2,0.2,0.3,0.3c0,0,0.1,0.1,0.1,0.1
				c0.2-3.1,0.3-6.5,0.5-10.3c0.8-17.5,1.3-27.1,1.5-29.1c0.2-2,0-3.8-0.7-5.6c-0.7-1.7-10.8-13.4-30.5-35c-6-6.6-11-12-15.1-16.4
				l5.7-0.5c1.1,1.2,2.2,2.3,3.4,3.5c0,0,0,0,0,0.1c0.4,0.4,1,0.9,1.5,1.6c0,0,0-0.1,0-0.1c1,1,2,2.1,3,3.1c1.5,1.6,2.9,3.2,4.3,4.8
				c2.7,3.1,5.4,6.2,8,9.3l-0.8-1.1c0.3,0.4,0.6,0.8,1,1.1c7,7.2,13.9,14.5,20.6,21.8c0.9,1,1.8,2.1,2.6,3.2
				c1.5,2.1,2.2,4.4,2.2,7.1c0,2.1-0.1,4.2-0.3,6.2c-0.1,1.3-0.2,2.5-0.3,3.8c-0.1,1.5-0.2,3-0.3,4.5c-0.1,1.7-0.3,3.4-0.5,5.1
				c-0.9,8.3-1.5,16.6-2.1,24.9c0,0,0.1,0,0.2,0c0,0,0,0,0,0c0,0.3-0.1,0.7-0.1,1c0,0,0.3,0.2,0.8,0.5c0.6,0.4,2.1,1.7,4.4,4
				c1.1,1.1,2,2,2.6,2.8c0,0,0,0,0,0c0,0,0.1,0,0.1,0.1c0.7,0.9,1.1,1.5,1.2,2.1c0.2,1,0.3,2.6,0.3,4.6c0,2.1-0.1,6.2-0.1,12.4
				c0,8.5-0.3,15.9-0.9,22.3c-0.3,2.6-0.5,5.7-0.6,9.1c-0.7,0.3-1.4,0.6-2.2,0.9c-0.3,0.1-1.7,0.9-4.4,2.1c0-1,0.1-2,0.1-3.1
				c0.8-16.1,1.1-26.5,1.1-31.3v-14.4c0-2.5-1.7-5.5-5.1-9c-1.2-1.3-11.9-12.4-32.1-33.3c-2.1-2.2-4.1-4.2-5.9-6.1
				c-0.1,0.1-0.1,0.1-0.2,0.2c0,0,0-0.1,0-0.1c0-0.1-0.1-0.3-0.1-0.4c0-0.1-0.1-0.1-0.1-0.1l-0.5,29l-0.7,19.3
				c-0.4-0.2-0.9-0.5-1.5-0.9c0-0.5,0-1.1,0-1.8c0-9.9-0.3-19.7-0.7-29.2c-0.3-5.5-0.8-13.6-1.5-24.4c-0.7-10.4-1.2-18.8-1.5-25.2
				C118.1,273.7,117.8,264.6,117.8,255.3z M161.3,340.9c-0.1,1.5-0.2,3.2-0.3,4.8c-0.5-0.4-0.9-0.9-1.5-1.4
				c-5.4-5.3-10.3-10.5-14.7-15.7c-4.4-5.2-7.5-8.7-9.3-10.6c-1.8-1.8-3.4-3.6-4.8-5.2c-3.7-4.3-5.9-8.3-6.7-11.9
				c-1.4-6.2-2.3-14.3-2.7-24.2c-0.1-5.3-0.3-9.3-0.3-12c-0.1-2.2-0.2-4.3-0.3-6.2c1.9,1.9,3.8,4,5.9,6.2
				c-0.2,5.5-0.3,11.1-0.3,16.6c0,2,0.2,4,0.5,6c0.2,1.5,0.5,2.9,1,4.4c0.3,0.9,0.5,1.8,0.8,2.7c0.3,0.9,0.6,1.7,0.9,2.6
				c0.3,0.9,0.7,1.7,1,2.6c0.7,1.7,1.5,3.4,2.5,5.1c0.9,1.7,1.9,3.3,2.9,5c0.5,0.8,1,1.6,1.5,2.5c1.1,1.6,2.2,3.3,3.3,4.8
				c1.1,1.6,2.3,3.2,3.5,4.7c1.3,1.6,2.6,3.3,3.9,4.9c1.3,1.6,2.7,3.2,4.1,4.7c1.3,1.4,2.6,2.8,3.9,4.3c1.3,1.4,2.7,2.8,4,4.2
				C160.5,340.1,160.9,340.5,161.3,340.9z M157.9,335c-1.7-1.8-3.5-3.7-5.1-5.6c-1.7-1.9-3.4-3.8-5-5.7c-0.8-1-1.6-2-2.4-2.9
				c-1.6-2-3.1-4-4.5-6c-0.7-1-1.4-2.1-2.1-3.1c-1.4-2.1-2.6-4.2-3.8-6.4c-0.6-1.1-1.1-2.2-1.6-3.3c-1.4-2.8-2.6-5.7-3.6-8.6
				c-0.5-1.4-0.9-2.8-1.1-4.2c-0.7-3.5-1-7-0.9-10.6c0-4.1,0.2-8.2,0.4-12.3c1.8,2,3.7,4,5.7,6.2c17.8,19.7,27,30.1,27.6,31.4
				c0.6,1.3,0.9,2.3,1,3.1c0.1,0.8,0.2,1.7,0.1,2.9c0,1.6-0.2,6.5-0.6,14.7c-0.1,4.5-0.2,9.2-0.4,14.1
				C160.3,337.4,159.1,336.2,157.9,335z M117.8,227.8c0.1-5.9,0.4-10.3,0.9-13.1c0.4-2.6,0.7-5.8,0.7-9.6c0.2-3.4,0.1-6.6-0.3-9.7
				c-0.7-5-2.3-7.9-4.8-8.8c1.4-0.6,3.1-1,4.9-1.3c1.7,1.2,2.9,3.1,3.8,5.7c0.5,1.6,0.8,3.6,1,5.9c0.1,1.3,0.2,2.8,0.3,4.8
				c0.2,2.4,0.2,5.4,0.1,9c-0.1,6.1-0.1,9.2-0.1,9.2c0,13.1-0.1,23.6-0.2,31.5l-6.2,0.6c0-0.4,0-0.8,0-1.2
				C117.7,240.5,117.7,232.8,117.8,227.8z M113.9,206.2c0.3-0.6,0.5-1.5,0.7-2.5c0.1-0.9,0.2-1.8,0.3-2.8c0-0.9,0-1.3,0-1.3
				c0.1-0.9,0.1-1.7,0-2.4c0-0.3-0.1-0.7-0.2-0.9c0.9,0,1.8-0.1,2.7-0.1c0,0.1,0,0.2,0,0.3c0.3,2.8,0.5,5.7,0.3,8.8
				c0,0.4,0,0.8,0,1.2C116.8,206.3,115.5,206.3,113.9,206.2z M113.1,199.9c0-1.4,0-2.3,0.2-2.6h0.1v3.5c-0.1,0-0.2,0-0.3,0
				C113.1,200.5,113.1,200.2,113.1,199.9z M109.6,197.9c0.5-6.6,1.4-9.9,2.9-9.9c2.4,0,4,2.4,4.8,7.2c-1.2,0-2.4,0-3.5,0
				c-0.1,0-0.3-0.1-0.4-0.1c-1.1,0-1.7,0.7-1.9,2c-0.1,0.7-0.1,1.4,0,2.1c0,1,0,2,0.1,2.7c0,0.2-0.1,0.3-0.1,0.5c0.3,0,0.6,0,0.9,0
				c0.3,0,0.6,0,0.9,0c-0.1,0.3-0.2,0.5-0.3,0.9c-0.3,0.7-0.4,1.4-0.4,2.1c-0.2,0-0.3,0.1-0.4,0.4c-1.3-1.5-2.1-2.8-2.3-4.1
				C109.6,201.2,109.6,200,109.6,197.9z"/>
			
				<radialGradient id="SVGID_1_" cx="1028.344" cy="137.3138" r="138.7222" gradientTransform="matrix(-1 0 0 1 1312.707 0)" gradientUnits="userSpaceOnUse">
				<stop  offset="0" style="stop-color:#F8E1C9"/>
				<stop  offset="1" style="stop-color:#FDCF9D"/>
			</radialGradient>
			<path fill="url(#SVGID_1_)" d="M245.4,190.2c-4.1,1.9-8,3.3-11.6,4.1c-8,1.9-17.9,2.9-29.8,2.9c-6.7,0-13.8-0.5-21.2-1.5
				c-7.5-1-14.8-2.5-21.8-4.4c-11.4-3.1-20.5-6.7-27-10.9c0.1-1.6,0.1-3.2,0.2-4.8c0.1-3.2,0.2-6.3,0.3-9.5c0.1-3.2,0.2-6.3,0.3-9.5
				c0.1-2.2,0.2-4.4,0.2-6.6c0.7,0.2,1.3,0.2,1.9,0.2c5.2,0,8.6-2.3,10.2-7c0.5-1.4,0.9-3.4,1.3-6.1c0.4-2.6,0.7-4.3,0.9-5.2
				c0.8-0.1,1.5-0.4,2-0.7c0.5-0.3,0.8-0.7,0.9-1.2c-0.1-0.1-0.1-0.2-0.3-0.3c-0.1-0.1-0.4-0.2-0.7-0.2c-0.3,0-0.8,0.1-1.6,0.4
				c-0.9,0.3-1.4,0.4-1.6,0.4c-2.1,0-3.4-1.1-4-3.3c-0.3-1.1-0.4-2.2-0.3-3.3c0-1.4,0.2-2.8,0.6-4.3c0.7-2.5,1.9-3.7,3.5-3.7
				c3.6,0,5.7,3,6.4,9.1c0,0.3,0.1,0.5,0.1,0.8c0,0,0,0,0,0c0,0.1,0,0.3,0,0.4c0,0.4-0.1,0.9-0.1,1.3c2.3,0,4.7-0.1,7-0.2
				c0-0.5,0-1,0-1.5c-0.1,0-0.1,0-0.1,0c-0.2-3.1-0.3-6.2-0.3-9.3c-0.1-3.6-0.2-7.3-0.4-10.9c-0.1-1.1-0.1-2.1-0.1-3.2
				c0-1.1,0.1-2.1,0.1-3.2c0.1-1.7,0.3-3.4,0.6-5c0.4-2.4,1.1-4.6,2.1-6.8c1.4-3.1,3.3-5.6,6.1-7.5c1.1-0.8,2.2-1.5,3.4-2
				c1-0.4,2-0.8,3.1-1.1c1.4-0.4,2.8-0.7,4.2-0.8c2.8-0.2,5.5,0.1,8.2,0.9c4.5,1.3,8.3,3.8,11.2,7.5c1.6,2.1,3,4.3,4.1,6.7
				c0.2,0.2,0.4-0.1,0.7-0.7c0.3-0.7,0.6-2,1-4c0.1-0.6,0.3-1.1,0.4-1.7c0.3-1.4,0.9-2.7,1.8-3.9c0.3-0.5,0.8-0.9,1.3-1.3
				c0.4-0.3,0.8-0.5,1.2-0.7c0.5-0.3,1.1-0.5,1.7-0.7c1-0.3,2.1-0.4,3.1-0.4c1.3,0,2.5,0.1,3.8,0.3c3.4,0.5,6.6,1.6,9.5,3.3
				c0.9,1.1,1.7,2.3,2.4,3.4c1,1.5,1.9,2.9,2.7,4.5c0.8,1.4,1.5,2.9,2.3,4.4c0.7,1.4,1.3,2.7,2,4.1c0.3,0.6,0.5,1.1,0.8,1.7
				c0,0.1,0.1,0.2,0.1,0.3c0.3,0.6,0.5,1.2,0.7,1.9c0.3,0.9,0.6,1.7,0.9,2.6c0.8,2.8,1.5,5.6,2.2,8.4c0.5,2,0.9,3.9,1.4,5.8
				c0.3,1.5,0.6,3,0.8,4.5c0.3,2.2,0.7,4.5,0.9,6.7c0.3,2.3,0.6,4.6,0.9,6.9c0.6,5.1,1.1,10.2,1.5,15.4c0.3,5.1,0.5,10.2,0.5,15.3
				c0,1.8,0,3.7,0.1,5.5c0,2.2,0.1,4.4,0.1,6.6c0,1.4,0,2.7,0,4.1c0,1.9,0.1,3.7,0.1,5.6C247.1,189.3,246.2,189.8,245.4,190.2z"/>
			<path fill="#C8982C" d="M118.7,214.7c0.4-2.6,0.7-5.8,0.7-9.6c0.2-3.4,0.1-6.6-0.3-9.7c-0.7-5-2.3-7.9-4.8-8.8
				c1.4-0.6,3.1-1,4.9-1.3c1.7,1.2,2.9,3.1,3.8,5.7c0.5,1.6,0.8,3.6,1,5.9c0.1,1.3,0.2,2.8,0.3,4.8c0.2,2.4,0.2,5.4,0.1,9
				c-0.1,6.1-0.1,9.2-0.1,9.2c0,13.1-0.1,23.6-0.2,31.5l-6.2,0.6c0-0.4,0-0.8,0-1.2c-0.1-10.3-0.1-17.9,0-23
				C117.8,221.9,118.1,217.5,118.7,214.7z"/>
			<path fill="#8C5924" d="M112.4,188c2.4,0,4,2.4,4.8,7.2c-1.2,0-2.4,0-3.5,0c-0.1,0-0.3-0.1-0.4-0.1c-1.1,0-1.7,0.7-1.9,2
				c-0.1,0.7-0.1,1.4,0,2.1c0,1,0,2,0.1,2.7c0,0.2-0.1,0.3-0.1,0.5c0.3,0,0.6,0,0.9,0c0.3,0,0.6,0,0.9,0c-0.1,0.3-0.2,0.5-0.3,0.9
				c-0.3,0.7-0.4,1.4-0.4,2.1c-0.2,0-0.3,0.1-0.4,0.4c-1.3-1.5-2.1-2.8-2.3-4.1c-0.1-0.4-0.1-1.6-0.1-3.7
				C110,191.3,111,188,112.4,188z"/>
			<path fill="#A7782B" d="M113.3,197.3L113.3,197.3l0.1,3.5c-0.1,0-0.2,0-0.3,0c0.1-0.3,0.1-0.6,0.1-0.9
				C113,198.4,113.1,197.6,113.3,197.3z"/>
			<path fill="#A7782B" d="M114.9,200.9c0-0.9,0-1.3,0-1.3c0.1-0.9,0.1-1.7,0-2.4c0-0.3-0.1-0.7-0.2-0.9c0.9,0,1.8-0.1,2.7-0.1
				c0,0.1,0,0.2,0,0.3c0.3,2.8,0.5,5.7,0.3,8.8c0,0.4,0,0.8,0,1.2c-0.9-0.1-2.2-0.1-3.8-0.2c0.3-0.6,0.5-1.5,0.7-2.5
				C114.7,202.8,114.8,201.9,114.9,200.9z"/>
			<path fill="#A7782B" d="M127.7,248.6c-0.2,1.7-0.3,3.5-0.4,5.2c-0.6-0.7-1.3-1.3-1.9-2c0.3-4.9,0.4-13.3,0.3-25.3
				c0.2-4.6,0.3-8.5,0.3-11.6c0.2-5.8-0.1-12.7-0.7-20.4c-0.3-4.2-1.4-7.3-3.3-9.3c4.2,0,7.5,0.1,9.9,0.2
				c-0.3,8.7-0.9,17.4-1.5,26.1C129.5,223.9,128.6,236.2,127.7,248.6z"/>
			
				<radialGradient id="SVGID_2_" cx="1035.4449" cy="262.2988" r="130.6697" gradientTransform="matrix(-1 0 0 1 1312.707 0)" gradientUnits="userSpaceOnUse">
				<stop  offset="0" style="stop-color:#F8E7EF"/>
				<stop  offset="1" style="stop-color:#F9D4E4"/>
			</radialGradient>
			<path fill="url(#SVGID_2_)" d="M182.9,359.4c0.6,0.7,1.1,1.5,1.6,2.2c0.4,0.7,0.8,1.4,1.2,2.1c1.1,2.1,2,4.3,2.5,6.6
				c0.4,1.5,0.8,3,1,4.6c0.2,0.8,0.3,1.6,0.3,2.4c0,0.8,0.1,1.6,0.1,2.4c0,1.5-0.1,3.2-0.2,4.7c-0.3,3.5-0.7,6.9-1.3,10.3
				c-0.2,1.2-0.4,2.4-0.7,3.6c6.7,8.6,16.1,13,28.3,13c14.6,0,29.7-3.8,45-11.2c5.6-2.7,10.3-5.1,14.2-7.2
				c0.7-6.2,1.2-12.3,1.5-18.2c0.4-9.3-0.4-17.1-2.5-23.5c-1.4-4.2-5.3-9.5-11.7-15.8c0,0,0,0,0,0c-3.2-3.2-7-6.6-11.5-10.3
				c-3.1-2.6-5.7-4.8-8-6.7c-0.9,1.1-1.8,2.1-2.9,3.1c-0.6,0.5-1.2,1-1.9,1.4c-1.9,1.2-3.9,2.1-6,2.6c-3.6,0.9-7.3,1.2-11,0.9
				c-0.5-0.1-0.9-0.1-1.4-0.2l-0.2-0.8c2.1,0.3,4.1,0.2,6.1-0.1c2.9-0.4,5.8-1.1,8.6-2.1c0.9-0.4,1.9-0.8,2.8-1.3
				c0.7-0.4,1.4-0.9,2-1.3c0.3-0.3,0.6-0.6,0.9-0.9c0.3-0.4,0.6-0.8,0.9-1.2c0.4-0.5,0.9-1,1.3-1.5c0.2-0.2,0.3-0.4,0.5-0.6
				c0.2-0.2,0.3-0.4,0.5-0.7c0.3-0.5,0.6-1,0.9-1.6c0.3-0.6,0.6-1.3,0.8-1.9c0.3-0.8,0.5-1.5,0.7-2.3c0.2-0.7,0.3-1.3,0.5-2
				c0.1-0.5,0.2-1,0.3-1.5c0.1-0.5,0.2-1.1,0.2-1.6c0.1-0.6,0.2-1.2,0.2-1.8c0.1-0.7,0.1-1.3,0.2-1.9c0.1-1,0.1-2.1,0.2-3.1
				c0.1-0.8,0.1-1.5,0.1-2.3c0-1.6,0.1-3.2,0.1-4.8c0-1.1,0.1-2.2,0.1-3.3c0-1.6,0.1-3.2,0.1-4.8c0.1-1.9,0.1-3.7,0.3-5.6
				c0-1,0.1-2,0.2-3v-0.3c0.1-1,0.1-2,0.2-2.9c0-0.7,0-1.3,0.1-1.9c0-0.8,0-1.5,0.1-2.3c0-0.7,0-1.4,0.1-2.1c0-0.5,0-1,0-1.5
				c0-0.9,0.1-1.7,0.1-2.5c0.1-3.4,0.2-6.8,0.2-10.2c-1.4-0.6-2.9-1.4-4.4-2.3c-3.7-2.3-8.3-5.6-13.9-9.8c-1.4-1-2.6-2-3.7-2.8
				c-0.2,0.1-0.3,0.3-0.5,0.4c-0.3,0-0.5,0-0.8,0.1c-0.1,0.1-0.1,0.2-0.2,0.3c-0.1,0-0.3,0-0.4,0c-3.1,0-5.5-0.9-7.3-2.8
				c-0.9-1.1-1.5-2.1-1.8-3.2c-0.8,0.4-1.7,0.7-2.8,0.7c-1.3,0-2.3-0.3-2.9-1.1c-0.5-0.5-0.7-1.2-0.7-1.9c0-0.4,0.1-0.9,0.2-1.3
				c0,0,0,0,0,0c-3.9,2.1-6.5,3.6-8,4.4c3.3,3,6,5.5,8.3,7.6c0,0,0.1-0.1,0.1-0.1c0,0.1,0,0.1-0.1,0.2c0.1,0.1,0.2,0.2,0.3,0.2
				c0.1-0.1,0.2-0.1,0.2-0.2c-0.2,1.1-0.3,2-0.3,2.8c0,1.7,0.5,5.9,1.5,12.4c0.9,6.5,2.1,11,3.6,13.6c1.5,2.6,3.6,4.4,6.4,5.6
				c2.8,1.2,6,2.3,9.5,3.4c3.5,1.1,5.9,2.3,7.4,3.5c1.4,1.2,2.3,2.6,2.7,4.2c0.4,1.6,0.6,2.9,0.6,4c-0.1,1.1-0.5,2.1-1.3,3
				c-2.2,2.7-9.2,3.8-20.8,3.4c-11.6-0.4-18.6-3.6-20.8-9.5c-2.3-5.9-4-13.7-5.2-23.4c-1.2-9.7-1.9-14.8-2.1-15.4
				c-0.1-0.4-0.6-2.6-1.5-6.5c0.3,0.1,0.5,0.1,0.7,0.2c2.2-2.8,4.7-6.1,7.6-9.8c-0.9-0.8-2.5-2.5-4.5-5h-0.1
				c-0.1,1.5-0.4,3.1-0.9,4.6c-1.1,3-3,4.4-5.7,4.4c-0.2,0-0.3,0-0.5,0c-1.6,1.9-3.3,3.6-5.1,5.3c-6.4,5.9-12.8,8.9-19.1,8.9
				c-8.3,0-14.4-6.6-18.3-19.9c-1.3-4.3-2.2-9-2.9-14.1c-0.4-3.3-0.6-5.8-0.6-7.4c-0.2-1.2,0.1-1.8,0.8-1.8c0.4,0,0.9,2.2,1.5,6.5
				c0.8,6.1,1.6,10.8,2.5,14.3c3.3,13.8,9,20.7,16.9,20.7c5.2,0,10.9-2.6,17.2-7.9c-2.1-1.4-3.7-3.7-5.1-7.1c-0.2-0.5-0.4-1-0.6-1.6
				c-6.1,3.8-10.8,5.7-14.2,5.7c-1,0-1.9-0.2-2.6-0.5c-0.8-0.4-1.2-0.9-1.2-1.5c0-0.3,0.1-0.5,0.3-0.6c0.2-0.1,0.4-0.1,0.5-0.2
				c0.1,0,0.4,0.3,0.9,0.7c0.2,0.2,0.6,0.3,1,0.4c-1.5-2.3-3-5.5-4.3-9.6c-1-3-1.9-6.2-2.6-9.7c-0.6-2.7-0.9-4.4-0.9-5
				c0-0.5,0-0.8,0.1-1c0.1-0.3,0.3-0.4,0.7-0.4c0.4,0,1,2,2,6.1c0.5,2.1,1,4.7,1.7,7.8c1.5,5.7,3.2,9.6,5.2,11.9
				c3.2-0.3,8.1-2.7,15-7.3c1.6-1.1,3.3-2.3,5.1-3.6c2-4,3.8-6.7,5.4-8c-2.7-3.4-5.7-7.4-9-12c-2.1-0.7-4.7-1.7-7.8-3.1
				c-0.3,0.4-0.5,0.9-0.6,1.4c-0.1,0.4-0.2,1-0.1,1.8c-0.1,0.7-0.4,1.3-1,1.7c-0.2,0-0.4-0.2-0.7-0.3c0-0.5-0.1-0.9-0.1-1.4
				c0.1-1,0.3-2,0.6-3c0.1-0.3,0.2-0.7,0.3-0.9c-0.6-0.3-1.3-0.6-1.9-0.9c-0.4,0.6-0.6,1.4-0.6,2.3c0,0.5,0.2,1.2,0.4,2.2
				c0.1,0.8-0.2,1.4-0.9,1.8c-0.6-0.3-0.9-0.8-1-1.5c-0.1-0.2-0.1-0.8-0.1-1.7c0-0.8,0.2-1.8,0.6-3c0.1-0.3,0.2-0.5,0.3-0.7
				c-1.6-0.8-3.3-1.7-5.1-2.7c-3.2-1.7-5.7-3.3-7.7-4.8c-6.8-2.3-12.7-5-17.6-8c-0.1,1-0.1,2-0.1,2.9c-0.1,3.1-0.3,6.2-0.4,9.3
				c-0.1,3.1-0.3,6.1-0.5,9.2c-0.2,3-0.4,6.1-0.6,9.2c-0.2,3.1-0.4,6.1-0.7,9.2c-0.1,1.5-0.2,3.1-0.3,4.6l0.2-1.5
				c-0.9,10.2-1.7,20.3-2.5,30.5c0.3,0.3,0.6,0.7,0.9,1c2.2,2.3,4.4,4.7,6.5,7c2.1,2.2,4.1,4.5,6.2,6.7c2.7,3,5.6,6,8.5,8.9
				c2.7,2.8,5.4,5.6,8,8.5c2.8,3.1,5.5,6.3,8.1,9.6c1.5,1.8,2.6,3.8,3.5,5.9c0.3,0.7,0.4,1.4,0.4,2.2c0,3.9-0.2,7.7-0.4,11.5
				c-0.3,3.6-0.5,7.1-0.8,10.7c-0.3,4-0.6,8.1-0.8,12.2c-0.2,1.9-0.3,3.8-0.6,5.7c1.2,1.1,2.5,2.3,3.7,3.5c3,2.8,5.9,5.6,8.9,8.5
				C181.7,358,182.3,358.7,182.9,359.4z M204.3,339c13.5,1.6,24.6-2.4,33.1-12.1c0.3-0.3,0.6-0.6,1-0.8l0.9,0.4
				c-6.9,9.1-16.3,13.6-28,13.4C209,339.9,206.6,339.6,204.3,339z M204,294.2c-2.5,0-4.5-0.8-5.9-2.3c-1.2-1.2-1.7-2.4-1.7-3.6
				c0-0.5,0.3-0.9,0.8-1.1c0.4,0.1,0.7,0.5,0.7,1.3c0,0.7,0.4,1.5,1.2,2.5c0.9,0.9,2.1,1.5,3.9,1.9c1.7,0.4,2.6,0.7,2.6,0.9
				c0,0.2,0,0.2-0.1,0C205.1,294.1,204.7,294.2,204,294.2z M193.8,291.3c0-0.3,0.1-0.6,0.3-0.7c0.2-0.1,0.4-0.2,0.5-0.2
				c0.4,0.1,0.7,0.6,0.9,1.4c0.2,0.9,0.7,1.8,1.6,2.9c0.9,1,2.1,1.6,3.6,1.8c1.5,0.1,2.3,0.4,2.2,0.8c0,0.4-0.1,0.5-0.1,0.3
				c-0.3,0.3-0.6,0.4-1,0.4c-2.4,0-4.4-0.9-6-2.7C194.5,293.9,193.8,292.6,193.8,291.3z"/>
			<path d="M196.4,288.4c0-0.5,0.3-0.9,0.8-1.1c0.4,0.1,0.7,0.5,0.7,1.3c0,0.7,0.4,1.5,1.2,2.5c0.9,0.9,2.1,1.5,3.9,1.9
				c1.7,0.4,2.6,0.7,2.6,0.9c0,0.2,0,0.2-0.1,0c-0.3,0.3-0.7,0.4-1.4,0.4c-2.5,0-4.5-0.8-5.9-2.3
				C196.9,290.8,196.4,289.6,196.4,288.4z"/>
			<path d="M194.1,290.7c0.2-0.1,0.4-0.2,0.5-0.2c0.4,0.1,0.7,0.6,0.9,1.4c0.2,0.9,0.7,1.8,1.6,2.9c0.9,1,2.1,1.6,3.6,1.8
				c1.5,0.1,2.3,0.4,2.2,0.8c0,0.4-0.1,0.5-0.1,0.3c-0.3,0.3-0.6,0.4-1,0.4c-2.4,0-4.4-0.9-6-2.7c-1.3-1.5-2-2.8-2-4
				C193.8,291,193.9,290.8,194.1,290.7z"/>
			<path d="M237.4,326.9c0.3-0.3,0.6-0.6,1-0.8l0.9,0.4c-6.9,9.1-16.3,13.6-28,13.4c-2.4,0-4.8-0.3-7.1-0.9
				C217.8,340.6,228.8,336.6,237.4,326.9z"/>
			<path fill="#C8982C" d="M119.7,259.2c0,0.7,0,2.8,0,6.4c0,13.7,0.5,23.5,1.4,29.5c1,6.3,3.1,11.6,6.2,15.9c1.4,2,3.1,3.9,5.1,6.1
				c2,2.1,8.3,9.1,19,21.1c4.9,5.5,8.5,9.2,10.8,11.2l0.2-0.2c0,0,0.1,0.1,0.1,0.1c0.2-3.1,0.3-6.5,0.5-10.3
				c0.8-17.5,1.3-27.1,1.5-29.1c0.2-2,0-3.8-0.7-5.6c-0.7-1.7-10.8-13.4-30.5-35c-6-6.6-11-12-15.1-16.4l5.7-0.5
				c1.1,1.2,2.2,2.3,3.4,3.5c0,0,0,0,0,0.1c0.4,0.4,1,0.9,1.5,1.6c0,0,0-0.1,0-0.1c1,1,2,2.1,3,3.1c1.5,1.6,2.9,3.2,4.3,4.8
				c2.7,3.1,5.4,6.2,8,9.3l-0.8-1.1c0.3,0.4,0.6,0.8,1,1.1c7,7.2,13.9,14.5,20.6,21.8c0.9,1,1.8,2.1,2.6,3.2
				c1.5,2.1,2.2,4.4,2.2,7.1c0,2.1-0.1,4.2-0.3,6.2c-0.1,1.3-0.2,2.5-0.3,3.8c-0.1,1.5-0.2,3-0.3,4.5c-0.1,1.7-0.3,3.4-0.5,5.1
				c-0.9,8.3-1.5,16.6-2.1,24.9h0.2c0,0.3-0.1,0.7-0.1,1c0,0,0.3,0.2,0.8,0.5c0.6,0.4,2.1,1.7,4.4,4c1.1,1.1,2,2,2.6,2.8
				c0,0,0,0,0,0c0,0,0.1,0,0.1,0.1c0.7,0.9,1.1,1.5,1.2,2.1c0.2,1,0.3,2.6,0.3,4.6c0,2.1-0.1,6.2-0.1,12.4c0,8.5-0.3,15.9-0.9,22.3
				c-0.3,2.6-0.5,5.7-0.6,9.1c-0.7,0.3-1.4,0.6-2.2,0.9c-0.3,0.1-1.7,0.9-4.4,2.1c0-1,0.1-2,0.1-3.1c0.8-16.1,1.1-26.5,1.1-31.3
				v-14.4c0-2.5-1.7-5.5-5.1-9c-1.2-1.3-11.9-12.4-32.1-33.3c-2.1-2.2-4.1-4.2-5.9-6.1l-0.3,0.1c0-0.1-0.1-0.3-0.1-0.4
				c0-0.1-0.1-0.1-0.1-0.1l-0.5,29l-0.7,19.3c-0.4-0.2-0.9-0.5-1.5-0.9c0-0.5,0-1.1,0-1.8c0-9.9-0.3-19.7-0.7-29.2
				c-0.3-5.5-0.8-13.6-1.5-24.4c-0.7-10.4-1.2-18.8-1.5-25.2c-0.4-8.8-0.6-17.8-0.7-27.1c0.7,0.7,1.3,1.4,2,2.1
				C119.7,258,119.7,258.6,119.7,259.2z"/>
			<path fill="#A7782B" d="M159.6,344.2c-5.4-5.3-10.3-10.5-14.7-15.7c-4.4-5.2-7.5-8.7-9.3-10.6c-1.8-1.8-3.4-3.6-4.8-5.2
				c-3.7-4.3-5.9-8.3-6.7-11.9c-1.4-6.2-2.3-14.3-2.7-24.2c-0.1-5.3-0.3-9.3-0.3-12c-0.1-2.2-0.2-4.3-0.3-6.2c1.9,1.9,3.8,4,5.9,6.2
				c-0.2,5.5-0.3,11.1-0.3,16.6c0,2,0.2,4,0.5,6c0.2,1.5,0.5,2.9,1,4.4c0.3,0.9,0.5,1.8,0.8,2.7c0.3,0.9,0.6,1.7,0.9,2.6
				c0.3,0.9,0.7,1.7,1,2.6c0.7,1.7,1.5,3.4,2.5,5.1c0.9,1.7,1.9,3.3,2.9,5c0.5,0.8,1,1.6,1.5,2.5c1.1,1.6,2.2,3.3,3.3,4.8
				c1.1,1.6,2.3,3.2,3.5,4.7c1.3,1.6,2.6,3.3,3.9,4.9c1.3,1.6,2.7,3.2,4.1,4.7c1.3,1.4,2.6,2.8,3.9,4.3c1.3,1.4,2.7,2.8,4,4.2
				c0.4,0.4,0.8,0.8,1.2,1.2c-0.1,1.5-0.2,3.2-0.3,4.8C160.6,345.2,160.1,344.7,159.6,344.2z"/>
			
				<radialGradient id="SVGID_3_" cx="1035.4449" cy="262.2993" r="130.6699" gradientTransform="matrix(-1 0 0 1 1312.707 0)" gradientUnits="userSpaceOnUse">
				<stop  offset="0" style="stop-color:#F8E7EF"/>
				<stop  offset="1" style="stop-color:#F9D4E4"/>
			</radialGradient>
			<path fill="url(#SVGID_3_)" d="M152.8,329.4c-1.7-1.9-3.4-3.8-5-5.7c-0.8-1-1.6-2-2.4-2.9c-1.6-2-3.1-4-4.5-6
				c-0.7-1-1.4-2.1-2.1-3.1c-1.4-2.1-2.6-4.2-3.8-6.4c-0.6-1.1-1.1-2.2-1.6-3.3c-1.4-2.8-2.6-5.7-3.6-8.6c-0.5-1.4-0.9-2.8-1.1-4.2
				c-0.7-3.5-1-7-0.9-10.6c0-4.1,0.2-8.2,0.4-12.3c1.8,2,3.7,4,5.7,6.2c17.8,19.7,27,30.1,27.6,31.4c0.6,1.3,0.9,2.3,1,3.1
				c0.1,0.8,0.2,1.7,0.1,2.9c0,1.6-0.2,6.5-0.6,14.7c-0.1,4.5-0.2,9.2-0.4,14.1c-1.2-1.2-2.3-2.4-3.5-3.5
				C156.2,333.2,154.5,331.3,152.8,329.4z"/>
			<path fill="#ED83B4" d="M166.7,195.8c-0.8,0-1.5,0.4-2.1,1.2c-2.6-1.4-5.2-2.9-7.9-4.7c-0.3-0.2-0.6-0.4-1-0.6
				c3.9,1.2,8,2.2,12.5,3.2c6.7,1.5,13.6,2.5,20.7,3.3c4.8,0.5,9.1,0.8,12.8,0.9c-2.6,3.1-7,4.6-13.2,4.6c-1.9,0-3.9-0.2-6-0.5
				c-2.6-3.9-4.1-5.7-4.5-5.7c-0.8,0-1.7,0.4-2.5,1.2c-0.6,0.5-0.9,1-1.1,1.4l0,0.3c0.1,0.3,0.2,0.6,0.2,0.9c0.1,0,0.1,0.1,0.1,0.1
				c-0.2-0.1-0.5-0.2-0.7-0.2c-1.4-0.5-2.8-1-4.3-1.6l0.1-0.1c0.5-0.4,0.8-0.8,0.8-1c0-0.3,0-0.4,0-0.4c-0.1,0-0.1-0.1-0.2-0.2
				l-0.1-0.1c0-0.1-0.2-0.1-0.5-0.1c-0.7,0-1.4,0.4-1.9,1.2c-0.5-0.3-1.1-0.5-1.6-0.8l0.1-0.1c0.9-0.4,1.4-0.8,1.4-0.9
				c0-0.2,0-0.4-0.1-0.7C167.4,195.9,167.1,195.9,166.7,195.8z"/>
			<path fill="#A7782B" d="M176.2,200.8c0.6-0.1,1.1-0.4,1.4-0.9c0.4-0.7,0.7-1.2,0.8-1.3c4.5,6.8,8,12,10.4,15.5
				c-0.4,0.1-0.9,0.1-1.3,0.2c-0.4,0.1-0.7,0.2-1.1,0.4c-1.1-1.5-3.1-4.5-6.2-8.8C178.5,203.5,177.2,201.8,176.2,200.8z"/>
			<path fill="#8C5924" d="M175.2,199.9c0.1-0.3,0.4-0.5,1-0.9c0.5-0.3,0.9-0.5,1.2-0.6c-0.3,0.4-0.8,0.9-1.8,1.6
				C175.4,200,175.3,200,175.2,199.9z"/>
			
				<radialGradient id="SVGID_4_" cx="1035.4454" cy="262.2988" r="130.6699" gradientTransform="matrix(-1 0 0 1 1312.707 0)" gradientUnits="userSpaceOnUse">
				<stop  offset="0" style="stop-color:#F8E7EF"/>
				<stop  offset="1" style="stop-color:#F9D4E4"/>
			</radialGradient>
			<path fill="url(#SVGID_4_)" d="M197.8,226.7c0.6,0.9,1,1.7,1.4,2.2c0,0,0,0,0,0c0.3,0.3,0.6,0.6,0.9,0.9c1.8-1.5,4.3-3.4,7.7-5.8
				c-0.1-0.3-0.1-0.5-0.1-0.7c0-0.3,0.1-0.7,0.3-1l-0.2-0.1c-0.1-0.5-0.1-1-0.1-1.7c0-0.9,0.3-2,1.1-3.2c0.8-1.2,3.5-1.6,8-1.1
				c0.6,0.1,1.2,0.2,1.8,0.3c3-2,6.2-4.2,9.8-6.6c0.1-0.1,0.5-0.3,1.3-0.9c0.7-0.6,1.3-0.9,1.6-1.1c0.1,0,0.1,0,0.2,0
				c0,0,0.1,0,0.1,0c0.4,0.2,0.8,0.6,1.3,1.2c0.8,0.9,1.1,1.8,1,2.6c0,0.4-3.5,2.7-10.4,6.7c2,1.1,3.9,2.6,5.7,4.5
				c0.2,0.2,0.3,0.3,0.4,0.4l0,0.2c2.3,0.7,4.4,1.8,6.3,3.2c3.7,2.7,7.6,5.1,11.7,7.3c0.3,0.1,0.5,0.2,0.7,0.3
				c-0.1-2.5-0.2-5-0.4-7.5c-0.1-0.5-0.1-1.1-0.1-1.6c0-1.3,0-2.7,0-4c0-1.5,0-2.9,0-4.4c0.1-2.8,0.2-5.6,0.2-8.4
				c0.2-5.6,0.2-11.3,0-16.9c-0.9,0.9-1.8,1.9-2.8,2.7c-3.5,3.3-7.2,5.8-10.9,7.7c-4.5,2.2-8.8,3.3-13.1,3.3c-4.2,0-7.4-2-9.6-6.1
				c-0.1-0.1-0.1-0.3-0.2-0.4c-2.4,0.1-5,0.2-7.6,0.2c-0.3,0.4-0.7,0.9-1,1.3c-3.1,3.3-7.9,5-14.5,5c-1.2,0-2.8-0.2-4.9-0.5
				c1.6,2.4,3.5,5.3,5.8,8.9c0.1,0.2,0.2,0.3,0.3,0.4c2.2-0.2,3.9-0.1,4.8,0.4c1.3,0.6,2.1,1.1,2.4,1.5c1,0.3,2,0.8,2.7,1.4
				c1.1,0.9,1.7,1.8,1.7,2.7c0,0,0,0.5-0.2,1.5c-0.1,0.4-0.2,0.7-0.3,1c0.3,0.5,0.5,1,0.5,1.6c0,0.7-0.1,1.2-0.2,1.4
				c-0.4,0.8-1.4,1.2-2.9,1.2C198.1,226.7,197.9,226.7,197.8,226.7z M237.8,210.2c0-1,0-1.8-0.2-2.2c-0.3-1.3-1.1-2.2-2.1-2.6
				c-1-0.2-1.6-0.3-1.6-0.5c0-0.2-0.1-0.4-0.1-0.7c0.2,0,0.4-0.2,0.8-0.4c1.2-0.3,2.4,0.3,3.5,1.9c0.7,1,1.1,1.9,1.4,2.7
				c0.2,0.9,0.3,1.4,0.3,1.6c0.1,0.7-0.1,1.3-0.6,1.7C238.3,211.5,237.9,211.1,237.8,210.2z M231.5,207.1c-0.1-0.3-0.1-0.4-0.1-0.4
				c0.1-0.1,0.1-0.1,0.1-0.2l0.1-0.1c0-0.1,0.2-0.1,0.5-0.2c1.1-0.3,2.2,0.4,3.3,2.1c0.6,0.9,1,1.7,1.4,2.7c0.1,0.4,0.2,0.9,0.3,1.4
				c-0.2,0.2-0.4,0.4-0.6,0.5c-0.7-0.3-1.2-0.7-1.4-1.4c-0.2-0.8-0.3-1.4-0.6-1.7c-0.6-0.9-1.2-1.5-2-1.8
				C231.9,207.6,231.6,207.3,231.5,207.1z"/>
			<path d="M231.5,206.4L231.5,206.4c0.1-0.2,0.3-0.2,0.6-0.3c1.1-0.3,2.2,0.4,3.3,2.1c0.6,0.9,1,1.7,1.4,2.7
				c0.1,0.4,0.2,0.9,0.3,1.4c-0.2,0.2-0.4,0.4-0.6,0.5c-0.7-0.3-1.2-0.7-1.4-1.4c-0.2-0.8-0.3-1.4-0.6-1.7c-0.6-0.9-1.2-1.5-2-1.8
				c-0.6-0.3-0.9-0.5-1-0.8c-0.1-0.3-0.1-0.4-0.1-0.4C231.5,206.6,231.5,206.5,231.5,206.4z"/>
			<path d="M237.6,208c-0.3-1.3-1.1-2.2-2.1-2.6c-1-0.2-1.6-0.3-1.6-0.5c0-0.2-0.1-0.4-0.1-0.7c0.2,0,0.4-0.2,0.8-0.4
				c1.2-0.3,2.4,0.3,3.5,1.9c0.7,1,1.1,1.9,1.4,2.7c0.2,0.9,0.3,1.4,0.3,1.6c0.1,0.7-0.1,1.3-0.6,1.7c-0.8-0.2-1.2-0.6-1.3-1.5
				C237.8,209.2,237.7,208.5,237.6,208z"/>
			
				<radialGradient id="SVGID_5_" cx="1028.3425" cy="137.313" r="138.7239" gradientTransform="matrix(-1 0 0 1 1312.707 0)" gradientUnits="userSpaceOnUse">
				<stop  offset="0" style="stop-color:#F8E1C9"/>
				<stop  offset="1" style="stop-color:#FDCF9D"/>
			</radialGradient>
			<path fill="url(#SVGID_5_)" d="M183.1,220.9c2.1-3.7,3.9-5.6,5.6-5.7c1.6-0.1,2.9-0.1,3.9,0.1c-2.2,0-3.2,0.3-2.8,0.9
				c5.1,0.6,8.2,1.5,9.4,2.6c0.5,0.5,0.7,1,0.7,1.8c0,0.2,0,0.4-0.1,0.7c-0.2-0.2-0.4-0.3-0.7-0.5c-0.9-0.7-2.6-1.5-5-2.6l-1.1,0.2
				c0,0,0,0.1-0.1,0.1c0,0-0.1,0.2-0.1,0.5c0,0,1.1,0.7,3.5,2.1c2.3,1.4,3.5,2.4,3.5,3.2c0,0.3-0.1,0.6-0.2,0.6
				c-0.2,0.1-0.7,0.2-1.5,0.2c-1.1,0-2.1-0.3-3.2-1c-1-0.7-1.7-1-2.1-1l-0.8,0.2c0,0,0,0.1-0.1,0.1c0,0-0.1,0.2-0.1,0.5
				c0,0.2,0.1,0.4,0.4,0.7c-0.1,0.3-0.1,0.6-0.2,1c-0.3,1.6-0.4,2.6-0.6,3.1c-0.7,2.7-2.2,4-4.5,4c-0.6,0-1.1-0.1-1.5-0.2
				c-0.6-0.6-1.3-1.2-2-1.8c-1.6-1.6-2.4-2.9-2.4-3.9c0.6-2,0.9-3.1,0.9-3.3c0-0.2,0-0.4-0.1-0.5
				C182.4,222.2,182.7,221.6,183.1,220.9z"/>
			<path fill="#A7782B" d="M196.8,226.5c0.5,0.8,0.9,1.5,1.3,2.2c-0.7-0.8-1.4-1.5-2.2-2.4C196.2,226.4,196.5,226.5,196.8,226.5z"/>
			<path fill="#ED83B4" d="M182,231.5c0.3,0.4,0.7,0.8,1.3,1.2c0.5,0.4,1,0.8,1.5,1c-1.3,1.4-2.6,2.6-3.9,3.8
				c-1.9-1.4-3.6-3.6-5-6.6c-0.3-0.5-0.5-1.1-0.8-1.7c0.3-0.2,0.6-0.4,0.8-0.5c1.4-0.9,2.6-1.8,3.8-2.7c0,0.2,0,0.3,0,0.5
				C179.6,228.4,180.4,230,182,231.5z"/>
			<path fill="#ED83B4" d="M221.5,203.5c-3.5,0-6.2-1.6-8.2-4.8c14.1-0.8,25.3-3.3,33.5-7.6c-0.3,0.3-0.6,0.6-0.9,1
				C239,199.7,230.8,203.5,221.5,203.5z"/>
			<path fill="#8C5924" d="M231.5,208.7c0.3,0.1,0.5,0.5,0.8,1c0.3,0.5,0.4,0.9,0.5,1.3c-0.3-0.3-0.9-0.9-1.5-1.8
				C231.4,208.9,231.4,208.8,231.5,208.7z"/>
			<path fill="#A7782B" d="M219.8,216.7c1.5-0.9,3.3-2,5.4-3.3c2.5-1.6,4.3-2.9,5.3-3.8c0.1,0.6,0.3,1.1,0.8,1.5
				c0.7,0.4,1.1,0.7,1.3,0.9c-3.8,2.2-7.1,4.2-9.9,5.8C221.8,217.4,220.8,217,219.8,216.7z"/>
			
				<radialGradient id="SVGID_6_" cx="1035.4449" cy="262.2988" r="130.6705" gradientTransform="matrix(-1 0 0 1 1312.707 0)" gradientUnits="userSpaceOnUse">
				<stop  offset="0" style="stop-color:#F8E7EF"/>
				<stop  offset="1" style="stop-color:#F9D4E4"/>
			</radialGradient>
			<path fill="url(#SVGID_6_)" d="M237,235.5c0.3-1.1,0.5-2.4,0.5-3.8c-0.1-1.2-0.1-1.8-0.1-1.8c0-0.1,0-0.3,0-0.4
				c2.5,1.6,5,3.2,7.4,4.8c0.5,0.3,1,0.5,1.5,0.8c2.7,1.3,5.5,1.5,8.4,0.6l0.7-1.4l-0.1-0.8l-0.6-0.2c-1.5,1.1-3,1.6-4.6,1.3
				c0-3.8-0.1-7.6-0.2-11.5c-0.1-5.2-0.2-10.4-0.2-15.6h0.3c1.7,3.7,3.4,7.8,5.1,12.2c3.9,10.5,5.8,18.4,5.8,23.5
				c0,1.9-0.3,3.5-0.9,5c-0.6,1.5-2.8,2-6.5,1.7c-3.6-0.4-10-3.9-18.9-10.7C235.6,238.4,236.4,237.1,237,235.5z"/>
			
				<radialGradient id="SVGID_7_" cx="1028.3431" cy="137.3141" r="138.7224" gradientTransform="matrix(-1 0 0 1 1312.707 0)" gradientUnits="userSpaceOnUse">
				<stop  offset="0" style="stop-color:#F8E1C9"/>
				<stop  offset="1" style="stop-color:#FDCF9D"/>
			</radialGradient>
			<path fill="url(#SVGID_7_)" d="M213.8,222.6c-1.6,0-2.8,0.7-3.7,2c0,0-0.1-0.1-0.1-0.1c-0.5-0.4-0.7-0.9-0.7-1.4
				c0-0.5,0.6-1,1.8-1.6c1.2-0.6,2.1-0.8,2.7-0.6c0,0.2,0.1,0,0.1-0.5c0-0.3-0.1-0.6-0.4-0.7c-0.1,0-0.4-0.1-1-0.1
				c-1.4,0-2.6,0.4-3.5,1.1c0.1-1,0.2-1.5,0.2-1.7c0.4-1.4,2-2.1,4.8-2.1c5,0,9.5,2,13.4,5.9c0.5,0.5,1,1,1.5,1.6c0,0,0-0.1,0-0.1
				c0,0.1,0,0.3,0,0.4c0.2,1.4,0.2,2.2,0.2,2.5c-0.1,0.8-0.3,1.6-0.7,2.7c-0.4,1.1-0.8,1.9-1.3,2.6c-0.4,0.5-1.1,1.1-2.2,1.8
				c0,0-0.1,0-0.2,0c-3.9,0-6.2-1.1-7.1-3.3c-0.2-0.4-0.4-1.2-0.6-2.3c0.1-0.1,0.1-0.1,0.1-0.2c0.3-0.5,0.5-1,0.6-1.7
				c0.1-0.6,0.2-1,0.3-1.1c-0.1-0.4-0.4-0.6-0.9-0.6c-0.4,0-0.7,0.2-0.8,0.5c-0.1,0.3-0.4,1-0.8,2.2c-0.4,1.2-1.2,1.6-2.6,1.5
				c-1.3-0.2-2.1-0.8-2.2-1.7c-0.4-0.8,0-1.6,1.2-2.6c1.2-0.9,2.2-1.4,2.9-1.5C214.6,222.9,214.2,222.6,213.8,222.6z"/>
			<path fill="#ED83B4" d="M230.7,228.4c-0.1-0.9-0.2-1.9-0.2-2.8c1.5,0.6,2.9,1.3,4.3,2.2c0.3,0.2,0.5,0.3,0.8,0.5
				c0.1,0.5,0.1,1,0.1,1.6c0,2.1-0.2,3.8-0.6,5c-0.5,1.4-1.3,2.5-2.3,3.2c-1.9-1.4-3.6-2.7-5.1-3.9c0.3-0.3,0.5-0.6,0.8-0.9
				c0.7-0.9,1.2-1.9,1.7-3.1C230.5,229.4,230.7,228.8,230.7,228.4z"/>
			<path fill="#A7782B" d="M208.3,225.2c0.2,0.3,0.3,0.5,0.5,0.7c-2.7,1.5-5.1,2.8-7.4,4c0.9-0.7,1.9-1.5,2.9-2.4
				c1.2-1,2.4-2,3.6-2.9C208.1,224.8,208.2,225,208.3,225.2z"/>
			
				<radialGradient id="SVGID_8_" cx="1035.4436" cy="262.2993" r="130.6726" gradientTransform="matrix(-1 0 0 1 1312.707 0)" gradientUnits="userSpaceOnUse">
				<stop  offset="0" style="stop-color:#F8E7EF"/>
				<stop  offset="1" style="stop-color:#F9D4E4"/>
			</radialGradient>
			<path fill="url(#SVGID_8_)" d="M199.6,231.4c0.1,0.1,0.1,0.1,0.2,0.1c1.3,1.2,4,3.8,8.1,7.7c-2.5,0.8-6,1.2-10.6,1.2
				c-1.9,0-3.5-0.1-4.9-0.3l7-8.8C199.5,231.4,199.5,231.4,199.6,231.4z"/>
			<path fill="#94C83D" d="M197.4,278.5c-0.9-4.4-1.6-8.5-2.1-12.3c-0.5-3.8-1.3-9-2.4-15.8c-0.4-3.3-0.7-5.8-0.9-7.6
				c-0.1-0.4-0.1-0.8-0.2-1.2c1.6,0.3,3.5,0.5,5.5,0.5c4.5,0,8.2-0.5,11-1.5c0,0.3,0,0.5,0,0.8c0,5.5,1.4,13.6,4.2,24.3
				c0.9,3,3,5.4,6.1,7.3c1.9,1.1,5,2.4,9.2,3.7c4.2,1.3,6.9,2.4,8.4,3.3c2.4,1.5,3.7,3.6,3.7,6.1c0,1.2,0,1.8,0,2
				c-0.1,0.9-0.5,1.7-1.2,2.4c-2,1.9-7.5,2.9-16.6,3c-3.7,0-6.9-0.2-9.7-0.7c0-0.1-0.1-0.3-0.1-0.4c-0.5-1.9-1.2-3.6-2.2-5.2
				c-2.7-4.4-6.8-6.7-12.2-6.9C197.7,279.8,197.5,279.2,197.4,278.5z"/>
			<path fill="#57A145" d="M210.5,292.5c-3-0.7-5.4-1.7-6.9-3.2c-2.3-2-4-4.4-5.1-7.2c4.6,0.4,8.1,2.5,10.4,6.5
				C209.5,289.8,210.1,291.1,210.5,292.5z"/>
			<path fill="#A7782B" d="M168.8,352.4c-0.5-0.5-0.9-0.9-1.3-1.2c0.1,0,0.2,0,0.3,0c0.1,0,0.1,0,0.2,0c0-0.4,0-0.9,0-1.3
				c0-0.8,0.1-1.6,0.2-2.3l0.1-0.1c0.9,0.8,1.9,1.6,2.9,2.4c2.3,1.9,4.5,3.9,6.6,6c1.6,1.6,3.2,3.3,4.6,5.2c0.2,0.3,0.4,0.5,0.6,0.8
				c-2-0.4-4.2-0.9-6.7-1.5c0,0,0,0,0,0c-0.5-0.9-1.2-1.9-2.1-2.8C171.8,355.3,170,353.6,168.8,352.4z"/>
			<path fill="#A7782B" d="M163.9,386.2c0.1-4.1,0.2-8.3,0.3-12.4c0-0.5,0-1.1,0-1.6c0.1-4.3,0.1-8.5,0-12.8
				c0.7,0.9,1.4,1.8,1.9,2.7c0.6,1.1,0.9,2.2,0.9,3.3c0,3,0,7.6,0,13.8c0,8.5-0.3,15.9-0.9,22.3c-0.3,2.9-0.5,6.4-0.7,10.4
				c-0.5-0.5-1.2-1.1-2-1.8c0.1-3.8,0.2-7.7,0.3-11.5C163.7,394.5,163.8,390.3,163.9,386.2z"/>
			<path fill="#B85227" d="M254.1,417.7c2,0,3.6-0.3,5-1.1l0.1,0.2c0,0.2,0,0.9,0,2c-0.2,1.1-0.6,1.7-1.4,1.7
				c-5.2,0-9.8-1.9-13.7-5.7c0.5-0.2,1.1-0.3,1.6-0.5C248.6,416.5,251.3,417.7,254.1,417.7z"/>
			<path fill="#90381E" d="M217.6,419.2c3.9-0.1,8-0.4,12.2-1.1c0.3,0.9,0.6,1.9,0.8,2.9c-1.3,1.3-2.8,1.9-4.6,1.9
				C223.2,422.9,220.4,421.6,217.6,419.2z"/>
			<path fill="#B85227" d="M225.7,424.6c2,0,3.6-0.3,5-1.1l0.1,0.2c0,0.2,0,0.9,0,2c-0.2,1.1-0.6,1.7-1.4,1.7
				c-6.2,0-11.6-2.8-16.1-8.3c0.6,0.1,1.3,0.1,1.9,0.1C218.8,422.8,222.2,424.6,225.7,424.6z"/>
			<path fill="#ED83B4" d="M215.7,412.9c7.9,0,16.5-1.3,25.6-4c7.6-2.2,15.2-5.1,23-8.9c3.8-1.9,7.3-3.7,10.5-5.6
				c-0.2,1.8-0.5,3.7-0.7,5.6c-3.5,1.9-7.6,3.9-12.4,6.2c-15.4,7.5-30.4,11.2-45,11.2c-12.4,0-21.9-4.5-28.6-13.3
				c-0.5-0.7-1.1-1.5-1.6-2.3c0.2-0.6,0.3-1.3,0.5-2c0.2,0.2,0.4,0.4,0.6,0.7C194.9,408.8,204.3,412.9,215.7,412.9z"/>
			<path fill="#A7782B" d="M126,350.6c0.1-4.1,0.2-8.3,0.3-12.4c0.1-4.1,0.2-8.3,0.3-12.4c0-0.5,0-1.1,0-1.6c0-1.5,0-3,0.1-4.5
				c1.1,1.1,2.3,2.3,3.4,3.5l-0.4,20l-0.8,20.1c-1.4,0.4-2.4,0.7-3.3,0.9c0-0.6,0-1.2,0.1-1.8C125.9,358.4,126,354.5,126,350.6z"/>
			<path fill="#C8982C" d="M260.4,331.7c-1.1-1-2.4-2.1-3.7-3.3c0.2-3.7,0.3-7.8,0.6-12.4c0.8-17.5,1.2-27.2,1.3-29.2
				c0.1-2-0.3-3.9-1.3-5.6c-1.1-2-3.7-4.5-7.7-7.6c0-1.7,0.1-3.5,0.1-5.2c5.4,4.3,9.1,7.1,11,8.4c2.1,1.5,3.1,4.2,3.1,8.3
				c0,4.1-0.5,11.4-1.6,22C261.5,314.7,260.9,322.8,260.4,331.7z"/>
			<path fill="#90381E" d="M247.7,413.5c3.3-1.1,6.6-2.3,9.9-3.8c0.6,1.4,1.1,2.8,1.3,4.3c-1.3,1.3-2.8,1.9-4.6,1.9
				C252.1,415.9,249.9,415.1,247.7,413.5z"/>
			
				<radialGradient id="SVGID_9_" cx="1067.165" cy="73.8747" r="127.577" gradientTransform="matrix(-1 0 0 1 1312.707 0)" gradientUnits="userSpaceOnUse">
				<stop  offset="0" style="stop-color:#AEAEAF"/>
				<stop  offset="1" style="stop-color:#989898"/>
			</radialGradient>
			<path fill="url(#SVGID_9_)" d="M169.4,59.5c-0.1-1.7-0.3-3.2-0.6-4.5c-0.9-3.1-2.5-4.7-4.8-4.7c-2.2,0-3.3,0.1-3.6,0.3l0.2,0.5
				c3.3-0.9,5.6,0.3,7,3.5c0.7,1.5,1,3.2,1,5.1c-0.9,0.3-1.7,0.6-2.6,0.9c-2.7,1-5.2,2.3-7.6,3.8c-0.4,0.3-0.7,0.5-1.1,0.7
				c-0.2-0.5-0.4-0.9-0.7-1.4c-1.6-2.8-3.6-4.3-6-4.3c-0.7,0-1.1,0.1-1.4,0.3c3.3,1.7,5.5,3.1,6.6,4.3c0.4,0.4,0.7,0.9,0.9,1.3
				c-1.2,0.9-2.3,1.8-3.4,2.7c-2.3,2.1-4.3,4.4-6.1,6.8c-2.4,3.4-4.1,7-5.3,11c-0.1,0.5-0.3,1-0.4,1.5c-1.3-0.3-2.5-0.9-3.7-2
				c-0.5-0.5-1.5-1.6-2.9-3.4l-0.7,0.3c0.8,1.2,1.9,2.5,3.3,3.8c1.5,1.5,2.8,2.3,3.8,2.4c-0.6,2.1-1.2,4.1-1.7,6.2
				c-0.3,1.3-0.7,2.5-1,3.8c-3.9-1.1-6.5-4.1-7.9-9c-0.9-3.2-1.2-6.5-0.9-9.9c0-10.9,2.5-19.2,7.6-24.9c4.8-5.4,11.6-8.1,20.2-8.1
				c7.4,0,13.3,1.6,17.7,4.7c1.6,1.1,2.9,2.4,3.8,3.8c0.6,0.9,1,1.7,1.1,2.4c-2,0.2-3.9,0.4-5.9,0.8C172.7,58.6,171,59,169.4,59.5z"
				/>
			
				<radialGradient id="SVGID_10_" cx="1067.1653" cy="73.8744" r="127.5771" gradientTransform="matrix(-1 0 0 1 1312.707 0)" gradientUnits="userSpaceOnUse">
				<stop  offset="0" style="stop-color:#AEAEAF"/>
				<stop  offset="1" style="stop-color:#989898"/>
			</radialGradient>
			<path fill="url(#SVGID_10_)" d="M217.8,75.9c-2.8-0.4-5.6,0-8.2,1.1c-1.1,0.4-2.1,1.1-2.9,2.1c-0.5,0.5-0.9,1.1-1.3,1.8
				c-0.2,0.4-0.4,0.8-0.6,1.2c-0.6,1-0.9,2.1-1.1,3.2c-0.1,0.7-0.3,1.3-0.6,2c-0.9-1.8-1.9-3.3-3.1-4.7c-1.1-1.4-3.1-3-5.7-4.8
				c-2.7-1.8-6-3-9.9-3.5c-2.8-0.4-5.6-0.3-8.4,0.3c-0.8,0.2-1.6,0.4-2.3,0.6c-0.8,0.2-1.5,0.5-2.2,0.8c-1,0.4-2,0.9-2.9,1.6
				c-3.4,2.4-5.8,5.6-7.3,9.4c-1.3,3.4-2.1,6.9-2.4,10.5c-0.3,3.4-0.4,6.7-0.2,10.1c0.2,3,0.3,6,0.4,9c0.2,3.1,0.3,6.2,0.3,9.2
				c-1.6,0-2.9,0-3.9,0c0-0.1,0-0.1,0-0.1c-0.8-7.7-3.4-11.5-7.7-11.5c-2.4,0-4.1,1.5-5.1,4.4c-0.5,1.6-0.8,3.2-0.8,5
				c-0.1,0.7-0.1,1.3-0.1,1.8c0,1.1,0.1,2.1,0.4,2.9c0.7,2.4,2.3,3.7,4.9,3.9c-0.4,4.2-0.6,6.3-0.6,6.5c-1.1,6.7-4.4,10-9.9,10
				c-0.6,0-1.2,0-1.7-0.1c0.1-1.3,0.1-2.6,0.1-3.9c0.1-2.4,0.2-4.9,0.3-7.4c0.1-1.8,0.2-3.5,0.2-5.3c0.2-3.5,0.5-7,0.9-10.5
				c0.4-3.5,0.9-7,1.4-10.5c0.6-3.5,1.2-7,2-10.4c0.9-4,1.9-7.9,3.2-11.6c1.2-3.6,2.7-7,4.5-10.4c1.8-3.3,4-6.2,6.8-8.7
				c2.8-2.5,5.9-4.6,9.3-6.3c4.2-2.1,8.6-3.4,13.2-4.2c12.1-1.9,23.3,0.2,33.7,6.5c1.1,0.7,2.3,1.4,3.4,2.1c1.1,0.8,2.2,1.5,3.3,2.3
				c1.1,0.8,2.1,1.7,3.1,2.6c1.2,1.1,2.4,2.2,3.6,3.4c0.5,0.5,1,1.1,1.5,1.7c-1-0.4-2-0.8-3-1.1C220.9,76.4,219.4,76.1,217.8,75.9z"
				/>
		</g>
		<g>
			<path fill="none" d="M148.1,126.2h0.3c0.3,0,0.5,0.1,0.7,0.3c0.2,0.2,0.3,0.3,0.3,0.3c-0.3,0.3-0.6,0.4-1,0.4
				C148.1,126.9,148,126.5,148.1,126.2z"/>
			<path d="M191.2,128.2c2.2,0.3,4.2,0,6.1-1.1c0.2-0.2,0.4-0.3,0.7-0.4c1.2-0.9,2.1-2,2.8-3.2c0.4-0.8,0.7-1.7,0.8-2.7
				c0.4-2.4-0.1-4.7-1.6-6.7c-1.4-2-3.4-3.2-5.8-3.6c-2.4-0.4-4.7,0.1-6.7,1.6c-2,1.5-3.2,3.4-3.6,5.9c-0.2,0.9-0.2,1.9-0.1,2.7
				c0.1,0.3,0.1,0.6,0.2,0.9c0.3,1.1,0.8,2.1,1.5,3.1C186.9,126.6,188.8,127.8,191.2,128.2z M186,124.1c-0.7-1-1.2-2.1-1.5-3.3
				c-0.1-0.9-0.1-1.8,0-2.8c0.4-2.2,1.5-4,3.3-5.3c1.9-1.3,3.9-1.8,6.1-1.4c2.2,0.4,4,1.5,5.3,3.3c1.3,1.8,1.8,3.9,1.5,6.1
				c-0.2,1-0.4,1.8-0.9,2.7c-0.6,1-1.4,1.9-2.4,2.7c-1,0.8-2.1,1.2-3.3,1.5c-0.9,0.2-1.9,0.2-2.8,0C189.2,127,187.4,125.9,186,124.1
				z"/>
			<path fill="#FFFFFF" d="M186,124.1c1.3,1.8,3.1,2.9,5.3,3.3c1,0.2,1.9,0.2,2.8,0c1.2-0.2,2.3-0.7,3.3-1.5
				c1.1-0.8,1.9-1.6,2.4-2.7c0.4-0.8,0.7-1.7,0.9-2.7c0.3-2.2-0.1-4.3-1.5-6.1c-1.3-1.9-3.1-2.9-5.3-3.3c-2.2-0.3-4.3,0.1-6.1,1.4
				c-1.8,1.3-2.9,3.1-3.3,5.3c-0.1,1-0.1,1.9,0,2.8C184.8,122,185.3,123.1,186,124.1z M197.4,119.7c0-0.3,0-0.6,0.2-0.9
				c0,0.1,0,0.2,0,0.3c0,0.3,0.2,0.4,0.5,0.4c0.2-0.1,0.3-0.2,0.4-0.3c0-0.1,0-0.2,0-0.3c0-0.3-0.2-0.4-0.5-0.4c0,0,0,0,0,0
				c0.2-0.1,0.3-0.1,0.5-0.2c0.7-0.1,1.2,0.2,1.3,0.9c0,0.2,0,0.4,0,0.6c-0.2,0.4-0.4,0.6-0.9,0.7c-0.3,0.1-0.7,0-0.9-0.2
				C197.6,120.1,197.5,119.9,197.4,119.7z"/>
			<path d="M197.6,119.1c0,0.3,0.2,0.4,0.5,0.4c0.2-0.1,0.3-0.2,0.4-0.3c0-0.1,0-0.2,0-0.3c0-0.3-0.2-0.4-0.5-0.4c0,0,0,0,0,0
				c0.2-0.1,0.3-0.1,0.5-0.2c0.7-0.1,1.2,0.2,1.3,0.9c0,0.2,0,0.4,0,0.6c-0.2,0.4-0.4,0.6-0.9,0.7c-0.3,0.1-0.7,0-0.9-0.2
				c-0.2-0.2-0.3-0.4-0.4-0.7c0-0.3,0-0.6,0.2-0.9C197.6,118.9,197.5,119,197.6,119.1z"/>
			<path d="M234.2,121.8c0.2-0.9,0.2-1.8,0-2.7c-0.2-0.9-0.5-1.7-1.1-2.5c-1.1-1.5-2.5-2.5-4.3-2.8c-1.8-0.3-3.4,0.1-4.9,1.3
				c-0.4,0.3-0.7,0.6-1,0.9c-0.3,0.3-0.6,0.7-0.8,1.1c-0.4,0.8-0.8,1.6-0.9,2.6c-0.1,0.4-0.1,0.9-0.1,1.3c0,1.2,0.3,2.4,0.9,3.5
				c0.1,0.2,0.2,0.3,0.3,0.4c0.3,0.4,0.6,0.8,0.9,1c0.3,0.3,0.6,0.6,1,0.8c0.7,0.5,1.5,0.8,2.4,0.9c1.8,0.3,3.4-0.1,5-1.3
				c0.1-0.1,0.3-0.2,0.4-0.3C233.1,124.9,233.9,123.5,234.2,121.8z M233.4,121.6c-0.3,1.7-1.1,3.1-2.4,4.1c0,0-0.1,0.1-0.2,0.1
				c-1.3,0.9-2.7,1.3-4.2,1c-1.5-0.3-2.7-1-3.7-2.3c0,0-0.1-0.1-0.1-0.2c-0.9-1.4-1.3-3-1-4.7c0.3-1.7,1.1-3.1,2.4-4
				c1.3-0.9,2.8-1.3,4.4-1.1c1.6,0.2,2.9,1,3.8,2.3C233.4,118.3,233.7,119.9,233.4,121.6z"/>
			<path fill="#FFFFFF" d="M233.4,121.6c0.3-1.7,0-3.3-1-4.6c-0.9-1.4-2.2-2.1-3.8-2.3c-1.6-0.2-3,0.2-4.4,1.1
				c-1.3,0.9-2.1,2.2-2.4,4c-0.3,1.7,0,3.3,1,4.7c0,0.1,0.1,0.1,0.1,0.2c0.9,1.3,2.1,2.1,3.7,2.3c1.5,0.3,2.9-0.1,4.2-1
				c0.1,0,0.1-0.1,0.2-0.1C232.3,124.7,233.2,123.3,233.4,121.6z M231.5,121.6c-0.1,0.4-0.4,0.6-0.9,0.7c-0.3,0.1-0.6,0-0.9-0.3
				c-0.2-0.2-0.3-0.4-0.4-0.7c0-0.3,0-0.5,0.1-0.7c0,0.1,0,0.1,0,0.2c0,0.3,0.2,0.4,0.5,0.3c0.2,0,0.3-0.1,0.4-0.3
				c0-0.1,0-0.2,0-0.3c-0.1-0.3-0.3-0.4-0.6-0.3c0,0-0.1,0-0.1,0c0.2-0.2,0.4-0.2,0.6-0.3c0.8-0.1,1.2,0.2,1.3,0.9
				C231.6,121.2,231.6,121.4,231.5,121.6z"/>
			<path d="M230.7,122.3c-0.3,0.1-0.6,0-0.9-0.3c-0.2-0.2-0.3-0.4-0.4-0.7c0-0.3,0-0.5,0.1-0.7c0,0.1,0,0.1,0,0.2
				c0,0.3,0.2,0.4,0.5,0.3c0.2,0,0.3-0.1,0.4-0.3c0-0.1,0-0.2,0-0.3c-0.1-0.3-0.3-0.4-0.6-0.3c0,0-0.1,0-0.1,0
				c0.2-0.2,0.4-0.2,0.6-0.3c0.8-0.1,1.2,0.2,1.3,0.9c0,0.2,0,0.4-0.1,0.6C231.4,122,231.1,122.2,230.7,122.3z"/>
			<path d="M214.1,159.5c-0.9,0-2.5-0.6-4.6-1.8c-2.3-1.3-3.4-2.2-3.4-3c0-0.3,0.1-0.5,0.3-0.7c0.2-0.1,0.4-0.2,0.5-0.2
				c1,0.9,2,1.6,2.8,2.2c1.5,1.1,3,1.7,4.4,1.7c1.7,0,2.7-0.7,3.2-2.1c0.2-0.5,0.2-1.5,0.2-3.2c0-3.2-1-8.4-3-15.6
				c-0.5-1.8-1.2-4.2-2.1-7.3c-0.6-2.3-0.9-3.7-0.9-4.3c0-0.6,0.3-1.1,0.8-1.7c2.5,7.9,3.9,12.7,4.3,14.2c1.7,6.7,2.5,11.6,2.5,14.7
				c0.3,1.2,0.3,2.4,0,3.6C218.5,158.4,216.8,159.5,214.1,159.5z"/>
			<path d="M188.9,169.7c0.3,0.2,0.5,0.4,0.8,0.6c0.5,0.3,1.1,0.5,1.9,0.5c1.7,0,2.9-0.4,3.5-1.4c0.3-0.9,0.7-1.4,0.9-1.4
				c0,0,0,0,0,0c0.1-0.1,0.2-0.2,0.3-0.2c0.1,0,0.2,0.2,0.4,0.6c0.2,0.5,0.5,1,0.8,1.4c1,1.3,2.4,2,4.4,2c0.6,0,1.1,0,1.6-0.1
				c-0.4-0.7-0.7-1.6-0.7-2.8c0-0.6,0.1-1,0.4-1.3c0.2,0.2,0.3,0.6,0.3,1.1c0.1,0.8,0.1,1.4,0.2,1.6c0.4,1.4,1.5,2.1,3.5,2.1
				c0.9,0,1.5-0.3,2.1-0.9c0.1-0.2,0.2-0.3,0.3-0.5c-0.7-0.7-1.1-1.5-1.1-2.1c0-0.3,0.2-0.4,0.5-0.4c0.1,0,0.2,0.2,0.4,0.5
				c0.3,0.5,0.5,0.9,0.8,1.2c0.9,1.2,2.2,1.8,3.9,1.8c1.6,0,2.6-0.3,3-0.9c0.1-0.3,0.2-0.4,0.2-0.6c0.1-0.3,0.2-0.3,0.4-0.3
				c0.2,0,0.3,0,0.3,0.1c0,0.1,0,0.1,0.1,0.1c0,0.2,0,0.4-0.1,0.6c0.2,0.3,0.3,0.5,0.5,0.8c0.8,1,1.9,1.5,3.5,1.5s2.5-0.3,2.9-1
				c0-0.1,0.1-0.3,0.2-0.8c0.1-0.2,0.2-0.3,0.3-0.3c0,0,0,0,0,0h0.1c2.7,0,4.1-0.7,4.5-2c0-0.2,0.1-0.6,0.1-1.4
				c0-0.4,0.1-0.6,0.4-0.6c0.2,0,0.3,0.1,0.4,0.3v0.6c0,0.8-0.1,1.5-0.4,2.1c-0.3,0.6-0.7,1.1-1.2,1.4c0.3,0.2,0.7,0.5,1,0.9
				c0.6,0.7,0.9,1.4,0.9,2c0,0.3-0.1,0.5-0.4,0.8c-0.2-0.1-0.3-0.1-0.3-0.1c-0.2-1.5-0.7-2.6-1.6-3.1c-0.1-0.1-0.2-0.1-0.2-0.1
				c-0.5,0.2-1.1,0.3-1.7,0.3c-0.5,0-0.9,0-1.1-0.1c0,0.1,0,0.2,0,0.3c0,0.2-0.1,0.4-0.2,0.6c0.7,0.6,1,1.3,1,2.1c0,0.5,0,1-0.2,1.4
				c-0.3,0.9-0.8,1.3-1.6,1.3c-0.3,0-0.4-0.1-0.3-0.2c-0.1-0.2-0.1-0.3-0.1-0.4c0-0.1,0.2-0.3,0.7-0.8s0.7-0.9,0.7-1.4
				c0-0.5-0.3-1-0.9-1.5c-0.6,0.3-1.6,0.4-2.9,0.4c-1.6,0-2.8-0.4-3.7-1.1c-0.4-0.4-0.7-0.7-0.9-1.1c-0.3,0.3-0.7,0.5-1.2,0.7
				c0.3,0.7,0.4,1.3,0.4,1.9c0.1,0.4,0.1,0.9,0,1.3c-0.3,0.8-0.9,1.2-2.1,1.2c-0.4,0-0.6-0.2-0.6-0.5c0.2-0.2,0.7-0.4,1.5-0.6
				c0.3-0.1,0.4-0.5,0.4-1.2c0-0.5-0.2-1.1-0.5-1.9c-0.4,0.1-0.9,0.1-1.4,0.1c-1.4,0-2.7-0.4-3.7-1.3c-0.1,0.3-0.4,0.5-0.7,0.8
				c-0.5,0.4-1.1,0.6-1.7,0.7c0.3,0.5,0.5,1.1,0.5,1.8c0,0.1-0.1,0.5-0.2,1.3c-0.3,0.8-1,1.2-2.1,1.2c-0.6,0-0.9-0.2-0.9-0.4
				c0-0.2,0.1-0.3,0.3-0.3c0.3-0.1,0.6-0.1,0.8-0.2c0.8-0.3,1.2-0.8,1.2-1.6c0-0.7-0.3-1.2-1-1.7c-1-0.1-1.9-0.4-2.5-0.9
				c0,0,0,0,0,0c-0.3,0.2-0.9,0.3-2.1,0.3c-0.1,0-0.3,0-0.3,0c0.2,0.4,0.3,0.8,0.3,1c0,0.6-0.2,1.2-0.5,1.8c-0.6,1-1.6,1.5-3,1.5
				c-0.1,0-0.3-0.2-0.5-0.5c1-0.3,1.7-0.6,2.1-0.9c0.7-0.4,1-1.1,1-2c0-0.1-0.2-0.5-0.5-1c-1.3-0.2-2.4-0.8-3.3-1.6
				c-0.5-0.5-0.9-1.1-1.1-1.5c-0.1,0.2-0.3,0.5-0.5,0.7c-0.6,0.8-1.6,1.2-2.7,1.4c1.5,2.2,1,3.7-1.6,4.5c-0.1,0-0.2,0-0.3,0
				c1.5-0.7,2-1.8,1.6-3.3c-0.1-0.5-0.4-0.9-0.7-1.1c-0.1,0-0.2,0-0.2,0c-0.9,0-1.6-0.2-2.2-0.5c-0.6-0.3-0.9-0.7-0.9-1.1
				C188.5,169.9,188.6,169.8,188.9,169.7z"/>
			<path d="M146.2,126c0,0.6,0.2,1.1,0.6,1.8c0.5,0.8,1.1,1.1,1.7,1.1c1.5,0,2.4-0.6,2.7-1.8c0.2-0.6,0.2-1.3,0-2
				c-0.2-1.1-0.3-1.9-0.6-2.2c-0.3-0.3-1-1.4-2.1-3.2c-0.2,0.1-0.3,0.1-0.5,0.2c-0.2,0.1-0.3,0.3-0.3,0.7c0,0.2,0.3,0.8,0.9,1.9
				c0.6,1.1,0.9,1.8,0.9,2.1v0.2c-0.6-0.2-1.1-0.3-1.3-0.3C146.9,124.4,146.2,125,146.2,126z M148.4,127.1c-0.3-0.3-0.3-0.6-0.3-0.9
				h0.3c0.3,0,0.5,0.1,0.7,0.3c0.2,0.2,0.3,0.3,0.3,0.3C149.1,127,148.8,127.1,148.4,127.1z"/>
			<path d="M161.5,132.1c0.1,0.5,0.1,0.9,0.2,1.5c-2.6,0.1-5,0.2-7.5,0.2c0-0.2,0-0.4,0-0.6c0-0.1,0-0.1,0-0.2c0-0.3,0-0.6,0-0.9
				C155.2,132,157.7,132,161.5,132.1z"/>
			<path d="M161.2,128.9c0,0.5,0.1,0.9,0.1,1.5c-2.5,0.1-4.9,0.2-7.3,0.2c0-0.1,0-0.3,0-0.4c0.1-0.4,0.1-0.9,0.1-1.3
				C155.2,128.9,157.6,128.9,161.2,128.9z"/>
			<path d="M162.1,136.6c-2.7,0.1-5.3,0.2-7.8,0.2c0-0.6,0-1.1-0.1-1.7c1.2,0,3.8,0,7.7,0.1C161.9,135.7,162,136.2,162.1,136.6z"/>
			<path d="M185.7,165.4c0.4,0,0.6,0.1,0.6,0.3l0,0.3c-1.9,0.6-2.8,2-2.8,4.3c0,2.3,0.8,3.8,2.4,4.4c0,0.2,0,0.3-0.2,0.3l-0.4,0.1
				c-0.9,0-1.6-0.7-2.1-1.9c-0.3-0.9-0.5-1.6-0.5-2.3c0-0.9,0.1-1.9,0.3-2.8C183.4,166.3,184.3,165.4,185.7,165.4z"/>
		</g>
	</g>
</g>
<g id="Layer_20">
</g>
<g id="Layer_21">
</g>
<g id="Layer_22">
</g>
<g id="Layer_23">
</g>
<g id="Layer_24">
</g>
<g id="Layer_25">
</g>
<g id="Layer_26">
</g>
<g id="Layer_27">
</g>
<g id="Layer_28">
</g>
<g id="Layer_29">
</g>
<g id="Layer_30">
</g>
<g id="Layer_31">
</g>
<g id="Layer_32">
</g>
<g id="Layer_33">
</g>
<g id="Layer_34">
</g>
<g id="Layer_36">
</g>
<g id="Layer_35">
</g>
<g id="Layer_37">
</g>
<g id="Layer_38">
</g>
<g id="Layer_39">
</g>
<g id="Layer_40">
</g>
</svg>
