<?xml version="1.0" encoding="utf-8"?>
<!-- Generator: Adobe Illustrator 18.1.1, SVG Export Plug-In . SVG Version: 6.00 Build 0)  -->
<!DOCTYPE svg PUBLIC "-//W3C//DTD SVG 1.1//EN" "http://www.w3.org/Graphics/SVG/1.1/DTD/svg11.dtd">
<svg version="1.1" xmlns="http://www.w3.org/2000/svg" xmlns:xlink="http://www.w3.org/1999/xlink" x="0px" y="0px"
	 viewBox="0 0 393 483" enable-background="new 0 0 393 483" xml:space="preserve">
<g id="ziutek_x5F_01">
</g>
<g id="ziutek_x5F_02">
</g>
<g id="ziutek_x5F_03">
</g>
<g id="ziutek_x5F_04">
</g>
<g id="ziutek_x5F_05">
</g>
<g id="ziutek_x5F_06">
</g>
<g id="ziutek_x5F_07">
</g>
<g id="ziutek_x5F_08">
</g>
<g id="ziutek_x5F_09">
</g>
<g id="ziutek_x5F_10">
</g>
<g id="lady_x5F_01">
</g>
<g id="Layer_13">
</g>
<g id="Layer_12">
</g>
<g id="Layer_14">
</g>
<g id="Layer_15">
</g>
<g id="Layer_16">
</g>
<g id="Layer_17">
</g>
<g id="Layer_18">
</g>
<g id="Layer_19">
</g>
<g id="Layer_20">
</g>
<g id="Layer_21">
</g>
<g id="Layer_22">
</g>
<g id="Layer_23">
</g>
<g id="Layer_24">
</g>
<g id="Layer_25">
</g>
<g id="Layer_26">
</g>
<g id="Layer_27">
</g>
<g id="Layer_28">
</g>
<g id="Layer_29">
	<g>
		<g>
			<g>
				<path fill="#E57F23" d="M287.6,289c-9.9-3.5-7.1,18.8-27,19c-19.4,0.2-19.7-14.5-18-19.5l-5.9,12c0.9,8.2,10.2,16.7,20.9,20.5
					C284.1,330.3,307.6,296,287.6,289z"/>
				<path fill="#1D1D1D" d="M235.6,300.9c1.5,9.5,10.2,15.9,18.4,19.8c7.4,3.5,15.7,3.6,23.3,0.8c9.8-3.6,23.4-16.4,17.6-28
					c-1.7-3.4-7.3-6.9-11.2-5.2c-4.2,1.8-6,7.5-8.3,11c-5.6,8.4-17.1,10.3-25.8,5.5c-5.5-3-7.8-10.3-5.9-16.1
					c0.4-1.2-1.8-1.3-2.1-0.3c-3.2,9.8,3.5,18.1,13,20c6.4,1.3,13.3,0.2,18.5-3.8c4.1-3.2,6-8.2,8.8-12.4c3.8-5.7,10.7-0.3,11.9,4.8
					c1.6,6.6-3.8,13.6-8.3,17.7c-6.5,5.8-15.3,8.2-23.8,6.6c-10.1-1.8-22.1-10.3-23.9-21C237.6,299.2,235.4,299.8,235.6,300.9
					L235.6,300.9z"/>
			</g>
			<g>
				<path fill="#FFB24D" d="M153.5,309.1c-17.9-10-15.3-46.9-15.4-74.1c0-18.3,0.2-42.8,3.7-57.4c3.1-12.8,13.3-17,24.4-19.9
					c9.8-2.5,40.5-3.9,48.4-2.6c17.6,2.8,29.1,10.5,34.2,38.2c1.8,9.7,2.6,22.9,3.9,35.9c2.5,25.5,4.8,53.3-2.1,66.6
					c-5,9.8-9.3,17.1-20.1,19.4c-8.1,2.4-21.7,5-30.3,4.1C184.9,318.1,169.9,318.3,153.5,309.1z"/>
				<path fill="#1D1D1D" d="M154.3,308.5c-8.8-5.2-11.7-15.6-13.4-25c-2.1-11.9-1.9-24.2-1.8-36.2c0.1-12.5,0-25.1,0.4-37.6
					c0.4-11.9,0.2-26.3,5.2-37.4c4.7-10.3,17.7-13.6,28-15c9.8-1.4,19.9-1.8,29.8-1.9c8.3-0.1,16.2,0.6,23.9,3.8
					c9.2,3.9,14.6,12.2,17.9,21.2c6.4,17.5,6.2,37.7,8,56c1.7,17.6,4.2,37.1-0.8,54.3c-2.1,7.4-7,15.7-13.2,20.3
					c-6.8,5.1-18.5,6.2-26.6,7.1c-8.9,1.1-18.1-0.1-27-0.9C174.1,316.3,163.9,313.6,154.3,308.5c-0.8-0.4-2.7,0.7-1.7,1.2
					c11.8,6.4,24.4,8.7,37.7,9.6c12.2,0.9,23.3,0.7,35.3-2.1c10.2-2.4,17.1-6,22.7-15.1c5.8-9.6,7.6-19.4,8-30.5
					c0.5-13.7-1-27.5-2.3-41.1c-1.4-14.1-2-28.5-5.1-42.4c-2.1-9.3-5.7-18.6-12.9-25.2c-5.5-5-12.8-7.3-20-8.5
					c-7-1.3-14.5-0.7-21.6-0.4c-8.5,0.3-17.1,0.8-25.4,2.3c-7.8,1.4-15.7,4.1-21.7,9.5c-7.2,6.5-8,17.6-8.9,26.6
					c-2.3,22.9-1.9,46.4-1.4,69.3c0.3,15.5,0.4,38.9,15.7,47.9C153.4,310.2,155.4,309.1,154.3,308.5z"/>
			</g>
			<path fill="#F9A138" d="M241.9,259.9c-2.8,10.8-8,20.8-18.8,30.2c-10.9,9.5-20.4,16.6-34.6,15.8c-7.1-0.4-21.3-4-41.3-20
				c-3.3-2.6-7.8,0.9-1.3,10c2,2.8,7.3,9.3,14.7,13.3c15.6,8.5,48.4,7.2,56.7,5.3c16.3-3.7,22.2-7.9,26.6-17.1
				c4.7-10.1,5.2-21.9,6.3-32.8C251.6,247.9,244.7,249,241.9,259.9z"/>
			<g>
				<path fill="#E57F23" d="M254.5,260.9c-3.4,10.6-12.4,12.3-11.4,15.3c0.7,2,9,2.3,10.2-2.5L254.5,260.9z"/>
			</g>
			<g>
				<path fill="#E57F23" d="M249.9,210.3c-1.6,11-10.3,14.2-8.8,17c1,1.9,9.3,0.8,9.6-4.1L249.9,210.3z"/>
			</g>
			<g>
				<path fill="#E57F23" d="M251.1,288.9c-9.3,9.3-12,4.5-12,7.7c0,1,6.5,4.7,8.3,1.9C251.2,292.7,251.1,288.9,251.1,288.9z"/>
			</g>
			<g>
				<path fill="#E57F23" d="M139.1,260.9c3.4,10.6,12.4,12.3,11.4,15.3c-0.7,2-9,2.3-10.2-2.5L139.1,260.9z"/>
			</g>
			<g>
				<path fill="#E57F23" d="M139.6,210.8c2.4,10.9,11.2,13.4,10,16.3c-0.8,1.9-9.2,1.5-9.9-3.4L139.6,210.8z"/>
			</g>
			<g>
				<path fill="#E57F23" d="M142.5,288.9c9.3,9.3,12,4.5,12,7.7c0,1-6.5,4.7-8.3,1.9C142.4,292.7,142.5,288.9,142.5,288.9z"/>
			</g>
			<g>
				<path fill="#FFB24D" d="M236.8,312.3l-20.8,5.9c1.1,5.2,2.4,29.6,15.4,27.4C240.8,343.9,243.1,338.2,236.8,312.3z"/>
				<path fill="#1D1D1D" d="M214.9,318.4c1.8,9.3,2.7,30.3,17,27.6c15.4-2.9,8.4-24,6-34.1c-0.2-0.8-2.4-0.3-2.2,0.6
					c2.1,9,9.5,30.5-5.1,32.4c-11.2,1.5-12.2-20.1-13.5-27.1C216.9,317,214.8,317.6,214.9,318.4L214.9,318.4z"/>
			</g>
			<g>
				<path fill="#FFFFFF" d="M200,203.2c12.1,21.9,39.8,8.1,34.7-13.6c-5.1-22.4-37.7-16.6-36.5,6.4
					C198.3,197.8,199.1,201.5,200,203.2z"/>
				<path fill="#1D1D1D" d="M199,203.6c5.5,9.5,16.6,14.7,26.8,8.9c10.5-6,13.3-19,7.6-29.3c-4.7-8.5-15.6-10.1-24-6.8
					c-10.7,4.1-15.2,16.9-10.5,27.1c0.4,0.9,2.5,0.2,2.2-0.6c-4.1-9-1.1-19.8,7.6-24.6c7.6-4.2,17.2-2,22.2,5
					c5.9,8.3,3.8,20.6-4,26.8c-9.4,7.4-20.5,1.7-25.9-7.4C200.6,202,198.5,202.7,199,203.6z"/>
			</g>
			
				<ellipse transform="matrix(0.9995 3.103420e-02 -3.103420e-02 0.9995 6.1544 -6.6566)" fill="#1D1D1D" cx="217.5" cy="194.9" rx="4.4" ry="4.7"/>
			<g>
				<path fill="#FFFFFF" d="M151.5,203.2c12.1,21.9,39.8,8.1,34.7-13.6c-5.1-22.4-37.7-16.6-36.5,6.4
					C149.8,197.8,150.6,201.5,151.5,203.2z"/>
				<path fill="#1D1D1D" d="M150.5,203.6c5.5,9.5,16.6,14.7,26.8,8.9c10.5-6,13.3-19,7.6-29.3c-4.7-8.5-15.6-10.1-24-6.8
					c-10.7,4.1-15.2,16.9-10.5,27.1c0.4,0.9,2.5,0.2,2.2-0.6c-4.1-9-1.1-19.8,7.6-24.6c7.6-4.2,17.2-2,22.2,5
					c5.9,8.3,3.8,20.6-4,26.8c-9.4,7.4-20.5,1.7-25.9-7.4C152.1,202,150,202.7,150.5,203.6z"/>
			</g>
			
				<ellipse transform="matrix(0.9995 3.103420e-02 -3.103420e-02 0.9995 6.131 -5.1514)" fill="#1D1D1D" cx="169" cy="194.9" rx="4.4" ry="4.7"/>
			<g>
				<path fill="#FFB24D" d="M235.7,137.5c0,0-14.8,4.2-22.3,17.1l26.9,15.5C240.7,158.1,242.7,148.4,235.7,137.5z"/>
				<path fill="#1D1D1D" d="M214.5,154.8c4.7-7.7,12.2-13.3,20.7-16.2c1-0.3,1.4,2.7,1.9,3.9c1.3,2.8,2,5.9,2.4,9
					c0.8,6.2-0.1,12.6-0.3,18.8c0,1.2,2.2,0.9,2.2-0.2c0.4-11.7,1.6-22.5-4.7-33c-0.2-0.4-0.8-0.4-1.2-0.3
					c-9.5,2.8-18,9.4-23.1,17.7C211.7,155.5,214,155.6,214.5,154.8L214.5,154.8z"/>
			</g>
			<g>
				<path fill="#E57F23" d="M179.1,157.4c-4.6,4.3-3,10.9,5.5,12c24.1,3.1,21.8-3.8,21.5-12.7C201.2,155,179.1,157.4,179.1,157.4z"
					/>
			</g>
			<g>
				<path fill="#FFF3E3" d="M222.3,159.6c2.4-14.4,11.7-19.2,11.7-19.2c5.3,6.7,4.8,19.8,3.1,27.7L222.3,159.6z"/>
			</g>
			<path fill="#1D1D1D" d="M222.2,159c2.9-7.9,7.9-14.4,12.7-21.2c0.2-0.3-0.5-0.2-0.7,0c-4.8,6.8-9.9,13.4-12.7,21.3
				C221.3,159.3,222.1,159.2,222.2,159L222.2,159z"/>
			<path fill="#1D1D1D" d="M178.7,157.3c-1.3,3.2-2.1,6.8,0.1,9.8c2.9,3.9,9.7,3.6,13.9,3.5c8.8-0.2,16.3-3.2,13.9-13.2
				c0-0.1-0.7,0-0.7,0.2c0.6,2.6,1,5.2,0,7.7c-2.6,6.3-14.6,5.5-20.1,4.7c-7.4-1.1-8.9-6.6-6.5-12.8
				C179.4,157.1,178.8,157.1,178.7,157.3L178.7,157.3z"/>
			<g>
				<path fill="#FFB24D" d="M151.5,307.2c-6.4,29.3-4,35.8,5.8,36.9c7.1,0.8,12.4-4.4,16.9-28.5L151.5,307.2z"/>
				<path fill="#1D1D1D" d="M150.4,307.4c-2,9.1-4.7,19.3-3.3,28.8c0.7,4.6,3.6,7.3,8,8.2c15.2,2.9,18.1-18.7,20-29
					c0.1-0.6-2-0.2-2.2,0.4c-1.7,9-4.6,32.4-18.8,27c-3.9-1.5-4.9-5.7-5.2-9.5c-0.7-8.7,1.7-17.8,3.5-26.2
					C152.7,306.5,150.6,306.8,150.4,307.4L150.4,307.4z"/>
			</g>
			<g>
				<g>
					<path fill="#FFB24D" d="M148.8,141.6c-3.5,4.8-6.2,21.3-5.6,30.2l27-14.5C163.3,149.8,159.3,147.4,148.8,141.6z"/>
					<path fill="#1D1D1D" d="M171.2,156.9c-6.2-6.8-13.4-11.3-21.4-15.7c-0.5-0.3-1.7-0.1-2,0.4c-5.3,8.1-6.2,21-5.7,30.4
						c0,0.5,2.2,0.1,2.2-0.6c-0.4-9.1,0.4-22,5.6-29.9c-0.7,0.1-1.3,0.3-2,0.4c8,4.4,15.2,8.9,21.4,15.7
						C169.6,158.2,171.6,157.4,171.2,156.9L171.2,156.9z"/>
				</g>
				<g>
					<path fill="#FFF3E3" d="M157.4,159.3c0.4-14.6-7.7-14.6-7.7-14.6c-4.3,8.4-5,21.3-3,24.6L157.4,159.3z"/>
				</g>
				<path fill="#1D1D1D" d="M149.6,143.8c3.7,4.1,6.7,8.3,7.5,13.9c0.3,2-1.6,2.8-2.9,4c-1.9,1.7-3.6,3.5-5.2,5.5
					c-0.3,0.3,0.4,0.4,0.6,0.2c1.8-2.3,3.9-4.3,6-6.3c0.4-0.4,2.2-1.5,2.3-2.1c1-5.6-4.4-11.8-7.7-15.5
					C150.1,143.3,149.4,143.6,149.6,143.8L149.6,143.8z"/>
			</g>
			<g>
				<g>
					<path fill="#EDE1CF" d="M175.8,306.9c-8-4.5-10.2-27.5-6.9-34.4c4.9-12.4,21.5-14.3,32.9-13c16.9,2.5,20.7,11.1,19.7,26.6
						c-0.2,6,0.5,17-3.7,20.9C211.6,312.9,184.6,311.9,175.8,306.9z"/>
				</g>
				<path fill="#FFF3E3" d="M213,268.5c-3.6-9.3-15.2-12.5-24.9-7.5c-1.9,1-3.6,2.3-4.9,3.8c-2.7,1.2-5.1,3.2-6.9,5.9
					c-1.2,1.6-2,3.3-2.4,5c-2.5,7.1-3.2,16.7,2.4,22c6.2,5.8,16.4,4.4,23.3,0.6C208.2,293.5,220.5,278.3,213,268.5z"/>
				<path fill="#1D1D1D" d="M172.2,303.1c-5.3-13.3-6.5-30.7,6.3-40.1c12-8.8,34.3-7,39.5,8.4c1.9,5.6,2.4,11.7,2.7,17.5
					c0.2,5.3,0.7,12.7-3.2,16.9c-5.1,5.4-14.9,6.1-21.9,6.1c-6.4,0-13.2-1.1-18.9-4.4c-0.2-0.1-0.8,0.2-0.7,0.2
					c10.7,6.2,26.4,6,37.5,1c5.1-2.3,7-5.8,7.6-11.2c1-8.6,0.1-18.1-2.4-26.4c-4.6-15.1-23.5-15.6-36-10.9
					c-17.5,6.7-17.2,28.2-11.3,42.9C171.5,303.5,172.3,303.3,172.2,303.1L172.2,303.1z"/>
				<path fill="#1D1D1D" d="M195.4,279.6c-1.9-0.8-2.5,2.9-0.8,3.6c2,0.7,2.6-2.4,1.1-3.4C195.6,279.7,195.5,279.6,195.4,279.6z"/>
			</g>
			<g>
				<path fill="#EDE1CF" d="M196.6,224.2c-0.1-1.8-0.4-4.2-2.2-5.2c0,0,0,0,0,0c-0.1-0.2-0.3-0.4-0.5-0.5c-1.7-1-3.3-0.8-4.2,0.6
					c-0.3,0.1-0.5,0.3-0.7,0.6c-2.2,4.3-3.7,12.9,1.9,15.2c2.5,1,4.3-1.6,5.1-3.5C196.9,229.3,196.8,226.5,196.6,224.2z"/>
				<path fill="#FFF3E3" d="M204.4,215c-2.1-2.6-6.4-4-9.4-2.5c-1.5,0.7-3.6,3-2.8,4.8c0-0.1,0-0.1-0.1-0.2c-1.7-3.7-5.5-6.2-9.6-4
					c-2.7,1.5-3.6,4.4-3.1,7.3c1,5.2,7.4,5.5,10.4,2.2c0.9-1,1.7-2.9,1.9-4.1c0.1,0.2,1.1,1.9,1.1,2.2c0.3,2.4,1.4,4.7,7,4.3
					c1.5-0.1,4.1-2.2,4.9-3.6C206,219.1,205.8,216.7,204.4,215z"/>
				<path fill="#DB6E6E" d="M189.2,224.1c0,0-1,9.2,2.3,9.5c3.3,0.3,3.5-9,3.5-9s-1.2-0.6-1.8-1.7c-0.7-1-0.8-2.5-1.3-3.3
					c-0.5-0.8-0.7,1.2-1.2,2.3C190.1,223.3,189.2,224.1,189.2,224.1z"/>
				<path fill="#1D1D1D" d="M178.9,220.5c0.1,4.3,5,5.4,8.4,4.5c4.2-1.1,4.9-4.3,4.9-8.1c0-0.8-1.5-0.6-1.5,0.1
					c0,2.4,0.1,4.9-2.2,6.3c-2.8,1.7-8,1.1-8.2-2.9C180.4,219.6,178.9,219.8,178.9,220.5L178.9,220.5z"/>
				<path fill="#1D1D1D" d="M191.4,217.4c0,4.3,1.3,8.3,6.3,8.5c3.6,0.1,6.3-1.8,6.8-5.4c0.1-0.6-1.4-0.3-1.4,0.2
					c-0.5,3.7-3.5,5.3-7,3.9c-3.1-1.3-3.3-4.6-3.3-7.5C192.9,216.6,191.4,216.9,191.4,217.4L191.4,217.4z"/>
				<g>
					<path fill="#FF99C3" d="M191.6,217.1c1-0.1,6.2-4.1,5.1-4.8c-1-0.6-8.3-0.6-8.8,0.3C187.1,213.8,191.1,217.2,191.6,217.1z"/>
					<path fill="#1D1D1D" d="M191.7,217.5c2-0.4,4.5-2.6,5.6-4.3c1.3-1.9-3.4-1.7-4.2-1.7c-1.4,0-5.4-0.4-6.1,1.4
						c-0.5,1.4,2.9,4.5,4.1,4.6c0.5,0.1,1.7-0.7,0.9-0.8c-1.2-0.2-2.8-2.3-3.4-3.3c-0.5-0.9,0-0.8,0.8-1c1-0.1,2-0.1,3-0.1
						c0.9,0,1.9,0,2.8,0.2c0.9,0.1,0.9,0.4,0.3,1c-0.9,1.1-2.8,2.9-4.2,3.2C190.6,216.9,190.8,217.7,191.7,217.5z"/>
				</g>
			</g>
			<g>
				<path fill="#FFB24D" d="M251.4,227.5l2.7,27.7c13.5,16.9,19.2,24.5,28.1,19C293.1,267.5,257.2,236.1,251.4,227.5z"/>
				<path fill="#1D1D1D" d="M253,255.5c4.2,5.3,8.3,10.7,13.1,15.5c2.8,2.8,6,5.3,10.1,5.4c4.9,0.2,10.1-3,8.9-8.3
					c-1.7-7.9-9.3-15.2-14.5-21c-5.9-6.6-12.9-12.7-18-19.9c-0.4-0.5-2.3,0.4-2.2,0.6c8.1,11.6,19.7,20.4,27.9,32
					c2.2,3.1,7.9,11.1,3.1,14.4c-5,3.4-9.8-0.6-13.3-3.9c-4.8-4.6-8.8-10.2-13-15.4C254.8,254.4,252.9,255.3,253,255.5L253,255.5z"
					/>
			</g>
			<g>
				<path fill="#FFB24D" d="M125,200.8c-2.8-3.8-7.5-17.2-17.1-8.2c-4,3.7-2.3,9,4.2,18.5c8.9,13,23.2,29.8,26.7,35l0.1-28.2
					C133.7,211.3,128.3,205.3,125,200.8z"/>
				<path fill="#1D1D1D" d="M139.8,217.3c-4.3-5.4-8.9-10.5-13.1-15.9c-2.4-3.1-3.9-6.7-6.4-9.6c-4.6-5.2-12.8-2.8-15.3,3.4
					c-1.2,3,0.4,6.8,1.8,9.4c3.2,5.9,7.3,11.3,11.3,16.6c6.4,8.5,13.6,16.6,19.7,25.4c0.6,0.8,2.6,0,2-1c-10-14.5-23.7-27.1-31.5-43
					c-1.9-3.9-2.1-7.5,1.4-10.5c5-4.3,8.9,0.5,11.4,4.5c4.9,7.8,11,14.5,16.7,21.7C138.5,219.1,140.5,218.2,139.8,217.3L139.8,217.3
					z"/>
			</g>
			<path fill="#1D1D1D" d="M249.1,211.5c-0.7,3.6-2.7,6.6-4.8,9.5c-1.6,2.2-4.1,3.4-4.8,6.2c0,0,0,0.1,0.1,0.1
				c4,1.3,8.7,1.3,11.4-2.4c0-0.1-0.6,0-0.7,0.1c-2.3,3.2-6,3.2-9.4,2.3c-2-0.5,2.5-4.8,3.1-5.3c2.8-2.7,5-6.9,5.7-10.6
				C249.8,211.3,249.1,211.4,249.1,211.5L249.1,211.5z"/>
			<path fill="#1D1D1D" d="M253.6,262.5c-2.3,5.4-6.6,9.5-11.4,12.7c-0.1,0.1-0.1,0.1,0,0.2c4,1.8,8.5,1.9,12-0.9
				c0.3-0.2-0.4-0.1-0.5,0c-3.1,2.4-6.7,2.3-10.2,1c-0.9-0.4,1.3-1.6,1.5-1.8c0.6-0.4,1.2-0.9,1.8-1.4c3.2-2.8,5.9-5.9,7.5-9.9
				C254.3,262.3,253.7,262.3,253.6,262.5L253.6,262.5z"/>
			<path fill="#1D1D1D" d="M250.9,289c-3.3,3.7-7.5,6.9-12.7,6.3c-0.1,0-0.7,0.1-0.5,0.3c2.3,2.8,5.2,5.1,9,4.5
				c0.3,0,0.6-0.4,0.1-0.4c-3.6,0.5-6.3-1.9-8.5-4.5c-0.2,0.1-0.4,0.2-0.5,0.3c5.6,0.6,10.2-2.7,13.8-6.7
				C251.7,288.7,251,288.8,250.9,289L250.9,289z"/>
			<path fill="#1D1D1D" d="M142.4,289.3c2.2,2.1,4.5,3.8,7.2,5.2c1.3,0.7,2.7,1.4,4.1,2c0.9,0.4-0.9,1.1-1,1.2
				c-1.9,1.1-4,1.7-6.2,1.3c-0.2,0-0.8,0.3-0.4,0.3c3.3,0.6,6.2-0.8,8.9-2.6c0.1-0.1,0.2-0.2,0.1-0.2c-4.4-1.9-8.5-4.1-12-7.5
				C142.8,288.9,142.2,289.2,142.4,289.3L142.4,289.3z"/>
			<path fill="#1D1D1D" d="M139.3,262.1c1.7,4.4,4.5,7.8,7.9,11.1c0.8,0.7,1.5,1.5,2.3,2.2c0.7,0.7,1.6,0.7,0.5,1.2
				c-2.9,1.3-6.2,0.2-8.8-1.2c-0.2-0.1-0.8,0.2-0.5,0.3c3,1.6,7.4,2.9,10.5,0.7c0.1,0,0.2-0.2,0.1-0.2c-4.5-4.2-9-8.3-11.2-14.2
				C139.9,261.6,139.2,261.8,139.3,262.1L139.3,262.1z"/>
			<path fill="#1D1D1D" d="M139.6,211.8c1.6,3.4,3.5,6.6,5.8,9.6c1.2,1.5,2.5,2.9,3.9,4.2c2.1,1.9-3,2.2-3.7,2.2
				c-1.5,0-3-0.4-4.4-0.9c-0.2-0.1-0.8,0.2-0.5,0.3c3.6,1.3,7.2,1.4,10.5-0.6c0.1,0,0.2-0.2,0.1-0.2c-4.9-3.7-8.4-9.2-11-14.7
				C140.2,211.4,139.5,211.6,139.6,211.8L139.6,211.8z"/>
			<path fill="#545454" d="M215.1,219.1c20.1-5.2,41.9-6.9,62-1c0.5,0.1,1.7-0.6,0.9-0.8c-20.5-5.9-42.7-4.2-63.1,1.1
				C214,218.6,214.2,219.3,215.1,219.1L215.1,219.1z"/>
			<path fill="#545454" d="M213.9,225.8c6.7-3.3,16.3-3,23.5-3.1c16-0.2,31.9,3.1,46.9,8.7c0.4,0.1,1.7-0.4,1.2-0.6
				c-16-6.1-32.9-9.1-50-8.8c-7,0.2-16,0.3-22.4,3.5C212.2,226,213.5,226,213.9,225.8L213.9,225.8z"/>
			<path fill="#545454" d="M115,237.9c8.2-4.5,16.7-8.1,25.9-10.2c9-2,18.4-2.1,27.7-2.1c0.6,0,1.5-0.8,0.6-0.8
				c-9.5,0-19,0.3-28.4,2.2c-9.4,1.9-18.2,5.9-26.6,10.5C113.2,238,114.5,238.2,115,237.9L115,237.9z"/>
			<path fill="#545454" d="M104,222.6c21-7.2,41.7-8.1,63.7-5.9c0.6,0.1,1.5-0.8,0.5-0.9c-22.2-2.2-43.2-1.3-64.4,6
				C103,222,103.2,222.9,104,222.6L104,222.6z"/>
			<path fill="#1D1D1D" d="M157.8,170c1.7-2.2,4.6-3.4,7.4-2.9c1.1,0.2,2.2-1.4,0.7-1.7c-3.6-0.8-7.7,1-9.9,3.8
				C155.1,170.4,157.1,170.8,157.8,170L157.8,170z"/>
			<path fill="#1D1D1D" d="M216.1,165.1c2.5,0.1,4.7,1.5,6.8,2.6c0.9,0.5,2.5-0.9,1.2-1.5c-2.6-1.3-4.9-2.6-7.9-2.7
				C215,163.4,214.7,165.1,216.1,165.1L216.1,165.1z"/>
			<g>
				<path fill="#FFB24D" d="M122.5,196.1c1.1-2.3,0.3-4.6,4-4c3.7,0.6,1.6,7.7-0.1,10.7l-1.6,0.1l-3.7-4L122.5,196.1z"/>
				<path fill="#1D1D1B" d="M121.7,195.4c0.6-1.4,0.4-2.9,2-3.6c1.3-0.7,3.3-0.2,4.5,0.5c3.1,2,0.3,8.4-0.9,10.7
					c-0.3,0.5-2.1,0.1-1.8-0.6c1.1-2.1,1.9-4.6,2-7c0.1-1.3-1-4.8-3-2.5c-0.7,0.8-1.2,3.6-1.7,4.6c-0.3,0.6-1.5,0.1-1.3-0.4
					L121.7,195.4z"/>
			</g>
			<path fill="#1D1D1D" d="M101.5,193.2c-4.5,8,0.2,16.6,5.4,23.1c0.2,0.2,1.1-0.1,0.9-0.3c-5.1-6.4-9.8-14.9-5.3-22.9
				C102.6,192.8,101.7,192.9,101.5,193.2L101.5,193.2z"/>
			<path fill="#1D1D1D" d="M97.6,195.8c-2,6.4-0.6,12.2,3.6,17.4c0.2,0.2,1.1-0.1,0.9-0.3c-4.2-5.2-5.6-10.8-3.6-17.3
				C98.6,195.5,97.7,195.6,97.6,195.8L97.6,195.8z"/>
		</g>
	</g>
</g>
<g id="Layer_30">
</g>
<g id="Layer_31">
</g>
<g id="Layer_32">
</g>
<g id="Layer_33">
</g>
<g id="Layer_34">
</g>
<g id="Layer_36">
</g>
<g id="Layer_35">
</g>
<g id="Layer_37">
</g>
<g id="Layer_38">
</g>
<g id="Layer_39">
</g>
<g id="Layer_40">
</g>
</svg>
