<?xml version="1.0" encoding="utf-8"?>
<!-- Generator: Adobe Illustrator 18.1.1, SVG Export Plug-In . SVG Version: 6.00 Build 0)  -->
<!DOCTYPE svg PUBLIC "-//W3C//DTD SVG 1.1//EN" "http://www.w3.org/Graphics/SVG/1.1/DTD/svg11.dtd">
<svg version="1.1" xmlns="http://www.w3.org/2000/svg" xmlns:xlink="http://www.w3.org/1999/xlink" x="0px" y="0px"
	 viewBox="0 0 393 483" enable-background="new 0 0 393 483" xml:space="preserve">
<g id="ziutek_x5F_01">
</g>
<g id="ziutek_x5F_02">
</g>
<g id="ziutek_x5F_03">
</g>
<g id="ziutek_x5F_04">
</g>
<g id="ziutek_x5F_05">
</g>
<g id="ziutek_x5F_06">
</g>
<g id="ziutek_x5F_07">
</g>
<g id="ziutek_x5F_08">
</g>
<g id="ziutek_x5F_09">
</g>
<g id="ziutek_x5F_10">
</g>
<g id="lady_x5F_01">
	<g>
		<path fill="none" d="M227.8,187.9h-0.1c0,0.3,0,0.5,0.1,0.8C227.7,188.4,227.8,188.2,227.8,187.9z"/>
		<path fill="none" d="M270.2,419.4C270.2,419.4,270.2,419.4,270.2,419.4h0.2C270.3,419.4,270.2,419.4,270.2,419.4z"/>
		<path d="M298.4,431.1c-0.8-0.9-2.1-1.9-4-3.2c0,0,0,0,0,0c-3.2-1.8-5.9-4.3-7.9-7.5c-1.3-2-2.4-4-3.4-6.1
			c-1.3-2.9-2.6-5.8-3.9-8.8c-4.4-9.7-9.4-20.9-14.9-33.5c-1.4-3.2-2.6-6.1-3.7-8.7c6.6-3.8,12.6-8,18.2-12.7c3-2.6,6.1-5.4,9.1-8.4
			c0,0,0,0,0,0.1c0.3-0.3,0.7-0.6,1.1-0.8c-1.4-3.7-3.2-7.8-5.1-12.4c-3.1-7.1-7.2-16.1-12.2-26.9c-5-10.8-10.4-21.4-16-31.7
			c-5.2-9.7-10.7-19.2-16.3-28.6c-1.4-2.4-2.9-4.8-4.4-7.1c2.7-1.6,5.2-3.2,7.6-4.6c0-0.1,0-0.1,0-0.2c0.2-0.1,0.3-0.1,0.5-0.1
			c-0.2-3.1-0.8-5.9-1.6-8.4c-0.2-0.5-0.4-1-0.5-1.5c0.8-1.4,1.8-2.3,2.8-2.9c0.7-0.4,1.8-0.8,3.2-1.3c2.7-0.5,5.2-1.5,7.6-2.7
			c0.7-0.4,1.2-0.9,1.7-1.5c0.7-0.9,1.1-1.9,1.2-3c0.2-1.9,0.1-3.7-0.3-5.6c2.1-1.1,3.9-2.6,5.4-4.6c1.3-1.6,2.3-3.4,3-5.3
			c0.5-1.5,0.8-2.7,0.8-3.7c0-1.2-0.2-2.6-0.7-4.2c-0.6-2.2-1.6-4.2-2.9-5.9c-3.7-5-9.5-7.5-17.5-7.5c-2.3,0-3.4,0.1-3.4,0.1
			c-6.4,0.8-10.7,2.8-12.7,6c-2,3.2-3,6-3.1,8.6c-0.1,2.5,0.2,4.4,0.7,5.7c0.1,0.2,0.2,0.5,0.3,0.7c-0.3,0.2-0.6,0.5-0.8,0.9
			c-0.4,0.6-0.6,1.6-0.6,2.8c0,1.4,0.3,2.9,0.8,4.5c0.1,0.1,0.1,0.2,0.1,0.3c-2.9,3.8-5.8,6.9-8.6,9.3c-6.4-8-13.7-15.8-21.9-23.4
			c-3.6-3.3-7-6.2-10.4-8.7c6.1-1.3,11.5-4,16.1-7.9c4.9-4.3,9-9.9,12.1-17.1c2.5-6,4.4-12.3,5.6-18.7c2-10.7,2.3-21.5,0.8-32.3
			c0-0.1,0-0.3-0.1-0.4c-1.1-8.8-3.5-17.2-7.2-25.1c-4.7-10.7-11.9-19-21.7-25.2c-2.5-1.5-5-2.8-7.7-3.8l-0.6-0.9
			c-0.3-0.3-0.6-0.6-1-1c-1.2-1.1-2.7-2.1-4.4-3.2c-4.7-2.8-9.4-4.2-14-4.2c-1.6,0-2.4,0-2.4,0.1c-7.7,0.9-15.4,2.9-23,5.9
			c-7,2.8-13.3,6.2-19.1,10.3c-5.5,3.9-9.9,7.9-13.1,12.1c-0.1,0.2-0.3,0.3-0.4,0.5c-3,4-4.4,7.6-4.4,10.9c0,2.6,0.7,4.9,2.1,6.8
			c0.9,1.2,2.1,2.3,3.6,3.1c0.7,0.4,1.5,0.8,2.4,1.1c-1.5,4.3-2.5,8.8-3.2,13.4c0,0.2-0.1,0.3-0.1,0.5c-0.9,6.1-1.6,11.8-2.3,17.1
			c-2.9,3.4-4.3,5.8-4.3,7.2c0,1.6,1,2.8,2.9,3.6c-1,7.6-1.7,13.2-2,16.7c-1.4,1.2-3.3,2.8-5.7,4.8c0,0.1,0,0.1,0,0.2
			c-0.1,0.1-0.1,0.1-0.1,0.1c-0.9,0.8-1.5,2.1-1.7,3.7c-0.1,0.7-0.1,2-0.1,4c0,2.1,0.2,3.5,0.7,4c0,0,0.1-0.1,0.1-0.1
			c0,0.2,0,0.3,0.1,0.3c0,0,0,0,0.1,0c0.6,2.8,1.9,5.4,3.9,7.5c0.6,0.7,1.3,1.2,2.1,1.7c0.9,0.5,1.8,0.9,2.7,1.2c0,0.1,0,0.1,0,0.1
			c0,0,0,0,0-0.1c0.3,0.3,1.3,0.6,3,1.1c0.5,0.1,0.9,0.2,1.3,0.3c0.5,1.1,1.1,2.2,1.7,3.2c1.8,3.2,4,6.1,6.5,8.7
			c2.4,2.5,5.2,4.6,8.2,6.2c3.2,1.7,6.5,2.8,10.1,3.4c0.3,0,0.7,0.1,1,0.1c-1.7,8.3-2.9,16.5-3.4,24.7c-0.8,12.1,0.5,23.9,4.1,35.6
			c2.2,4.9,5.3,8.4,9.3,10.5c0.7,2.6,1.3,5.2,2.1,7.8c3,11.1,6.6,22.1,10.7,32.9c3.3,8.8,6.9,17.4,10.8,25.9
			c4.7,10.3,9.9,20.4,15.6,30.3c3,5.3,6.2,10.4,9.7,15.4c0.2-0.1,0.5-0.1,0.7-0.1c11.3,0.1,22.3-1.4,33-4.7c0.7,1.5,1.5,2.9,2.2,4.3
			c12.1,23.4,18.2,36.5,18.3,39.3c0.1,2.8-0.9,4.6-3.2,5.5c-2.2,0.8-4.4,1.6-6.3,2.2c-2,0.7-4.2,1.3-6.6,2c-2.4,0.7-4.2,1.3-5.4,1.8
			c-1.2,0.5-2.6,1.4-4.1,2.6c-1.5,1.1-1.9,3-1.2,5.5c0.7,2.5,4.6,3.6,11.6,3.3c7-0.3,11.9-0.7,14.5-1.3c2.7-0.5,6.1-2,10.3-4.3
			c4.2-2.3,6.9-4,8.2-4.9c1.3-1,2.1-1.8,2.4-2.5c0.3-0.7-3.1-8.8-10.1-24.3c-6.3-13.9-11.3-25.5-15.2-34.6c1.4-0.5,2.7-1.1,4.1-1.7
			c1.9,3.8,4,7.9,6.4,12.4c3.7,7.2,7.2,15,10.6,23.2c-0.1,0-0.1,0-0.1-0.1c0.1,0.1,0.1,0.3,0.2,0.4c0.1,0.1,0.1,0.1,0.1,0.1
			c3.4,8.3,6.5,17,9.5,26.3c-0.9,0.6-1.7,1.2-2.4,2c-0.8,0.8-1.6,1.8-2.3,2.9c-0.4,1-0.5,2-0.4,3c0.1,1,1,1.7,2.6,2.3
			c0.4,0.1,0.8,0.3,1.3,0.4c1.3,0.3,3.2,0.4,5.8,0.4c7.8,0,13.7-1.1,17.8-3.4c1.5-0.9,2.7-1.8,3.5-2.9c0.6-0.9,0.9-1.7,0.9-2.4
			C300.1,433.6,299.6,432.3,298.4,431.1z M241.7,229.2c-1.9,1.2-3.9,2.4-6.1,3.8c-0.3-2.1-0.7-4.2-1.3-6c-2.1-6.1-5.7-9.8-10.9-11.2
			c1-0.9,2.1-1.9,3.2-2.9c0.5-0.5,1.1-1,1.6-1.4c5.9,0.7,9.9,4.2,12.1,10.7C241,224.2,241.5,226.5,241.7,229.2z M227.8,185.3
			c0.2-1.8,0.8-3.5,1.6-4.9c2.7-4.6,8.2-6.9,16.3-6.9c6.9,0,12.1,2.2,15.7,6.5c1.3,1.5,2.3,3.3,3,5.3c0.5,1.5,0.8,2.9,0.8,4.1
			c0,0.6-0.2,1.6-0.7,2.9c-0.7,1.8-1.6,3.4-2.7,4.9c-1.4,1.8-3,3.3-4.9,4.3c-0.2-0.8-0.3-1.5-0.3-2c0-0.9,0.1-1.6,0.3-2.2
			c0.2-0.6,0.7-1.8,1.6-3.7c0.8-1.8,1.2-3.2,1.2-3.9c0-0.8,0-1.3,0.1-1.8c0-0.5,0-1-0.2-1.4c-0.5-1.3-1.6-2-3.5-2
			c-1.5,0-2.9,0.5-3.9,1.7c-0.8,0.8-1.5,2-2.1,3.6c-0.6,1.7-1.1,3-1.4,3.6c-0.5,1.1-1.1,1.7-1.7,1.7c-0.4,0-0.7-0.3-1.1-0.8
			c-0.3-0.4-0.4-0.9-0.4-1.5c0-0.6,0.8-1.9,2.3-4.1c1.5-2.1,2.3-3.4,2.3-3.6c0-0.8-0.3-1.5-0.6-2.3c-0.8-1.5-2-2.2-3.7-2.2
			c-1.7,0-3,0.6-4,1.9c-0.6,0.8-1.2,2.2-1.7,4.2c-0.6,2.2-1.1,3.6-1.3,4.2c-0.7,1.3-1.6,1.9-2.8,1.9c-1,0-1.7-0.2-1.8-0.7
			c0,0,0-0.4,0-1.1c0-1,0.4-2.2,1.1-3.4c0.8-1.2,1.1-2.6,1.1-4.1c0,0,0-0.2,0.1-0.6c0-0.5,0-0.9-0.1-1.3c-0.3-1.2-0.9-1.8-2.1-1.8
			c-2.4,0-4.2,1.5-5.4,4.4c-0.5,1.3-0.8,2.5-0.9,3.8c-0.1,0.3-0.1,0.5-0.1,0.8c0-0.3-0.1-0.5-0.1-0.8
			C227.7,186.6,227.7,185.7,227.8,185.3z M227.4,196.8c0-0.6,0.1-1.1,0.4-1.5c0,0.3,0.1,0.7,0.1,1c0.2,1.8,0.5,3,1.1,3.5
			c0.2,0,0.4-0.1,0.7-0.2c0-0.7,0-1.6-0.2-2.7c-0.2-1.1-0.3-3.4-0.3-6.8c0-5.1,1.7-8,5.2-8.7c0.4,0.9,0.6,1.6,0.6,2.1
			c0,0.7-0.1,1.3-0.3,1.9c-0.1,0.3-0.4,0.7-0.8,1.4c-0.7,1.2-1.1,2.6-1.1,4.2c-0.2,0.6-0.2,1.2,0,1.7c0.3,1.1,1.4,1.6,3.1,1.6
			c1.7,0,3-0.6,3.9-1.9c0.5-0.8,1.1-2.2,1.6-4.2c0.5-2.1,1-3.5,1.5-4.2c0.9-1.3,2.1-1.9,3.8-1.9c0.3,0,0.7,0.4,1.3,1.3
			c0.5,0.8,0.8,1.3,0.8,1.6c0,0.2-0.2,0.6-0.7,1.2c-0.7,0.8-1.2,1.5-1.6,2c-1.5,2-2.3,3.8-2.3,5.2c0,0.1,0,0.3,0,0.5
			c0.1,0.4,0.1,0.8,0.3,1.1c0.5,1.1,1.5,1.6,3.1,1.6c1.1,0,1.9-0.5,2.5-1.6c0.1-0.3,0.5-1.5,1.2-3.6c0.5-1.7,1.1-2.9,1.8-3.6
			c1-1.1,2.5-1.6,4.4-1.6c0.3,0,0.6,0.9,0.9,2.6c0,1.4-0.5,3.2-1.6,5.5c-1,2.3-1.6,4-1.6,5.4c0,1,0.2,2.1,0.5,3.5
			c0.6,2.1,0.9,3.7,0.9,4.8c-0.1,1.1-0.4,2-1.1,2.7c-0.7,0.7-1.9,1.5-3.8,2.4c-1.9,0.9-3.6,1.4-5.1,1.6c-0.2,0-0.5,0-0.7,0.1
			c0,0,0,0,0,0c-1,0.2-1.9,0.6-2.6,1.1c-1.1,0.9-2,1.8-2.7,2.8c-2.2-4.5-5.6-7.3-10.1-8.3c0-2.3-0.2-4-0.6-5
			c-0.9-2.2-1.4-3.6-1.7-4.2C227.7,199.6,227.4,198.2,227.4,196.8z M227.5,203c0.3,0.7,0.7,1.5,1.1,2.4c0.5,1,0.7,2.5,0.6,4.5
			c0,0,0,0-0.1,0c-0.3-0.1-0.5-0.3-0.7-0.5c-0.6,0.6-1.1,1.1-1.7,1.7c0-0.1-0.1-0.2-0.1-0.3c-0.6-1.8-1.1-3.4-1.5-4.7
			C225.9,205.1,226.7,204.1,227.5,203z M223.9,207.5c0.5,1.7,1.1,3.2,1.9,4.5c-1.8,1.7-3,2.8-3.8,3.4c0,0-0.1,0.1-0.1,0.1
			c0,0,0,0-0.1,0c0,0,0,0,0,0.1c0,0,0,0,0,0c-0.4-0.5-0.7-1-1.1-1.5c-0.5-0.6-1-1.3-1.5-1.9C220.9,210.7,222.4,209.2,223.9,207.5z
			 M108.3,87.7c-0.7-0.3-1.3-0.7-1.9-1.1c-2.4-1.8-3.7-4.4-3.7-7.8c0-3.3,1.5-6.8,4.4-10.7c0.4-0.6,0.9-1.2,1.4-1.8
			c3.6-4.3,8.6-8.4,14.7-12.4c6.2-4,12.8-7.1,19.8-9.5c7.4-2.5,14.4-3.8,20.9-3.8c3.6,0,7.8,1.2,12.5,3.7c1.5,0.7,3.8,2.4,6.7,5
			c0,0,0,0,0,0c0.7,0.3,1.5,0.6,2.2,0.9c9.7,4.5,17.4,11.4,23,20.7c1.2,2,2.3,4.1,3.2,6.2c0,0.1,0.1,0.2,0.1,0.3
			c3.9,8.2,6.4,16.6,7.5,25.2c0.7,6.2,0.9,12.5,0.6,18.8c-0.7,11.1-3.1,21.8-7.4,32.1c-3.7,8.1-8.4,14.2-14.2,18.3
			c-5.7,4-12.9,6-21.9,6.1c0.8-2,1.4-4.5,1.9-7.4c0.7-3.9,1.1-6.8,1.2-8.6c0.2-1.7,0.2-4.2,0.2-7.3c0-7.4-1.2-14.1-3.6-20.4
			c-1.1-2.9-2.6-6.2-4.6-10c-1.2-2.3-3.4-6.3-6.6-11.9c-0.6-1.1-1.6-2.8-2.9-5.2c-1.2-2.1-2.1-3.8-2.8-5.3
			c-1.9-4.2-2.8-7.6-2.7-10.6c0.2-4.6-0.5-8.1-2-10.6c-1.6-2.5-2.9-4.8-4-6.8c-1.1-2.1-1.5-4-1.4-6c0.1-1.9,1.1-4,3-6.2
			c-0.6,0.1-1.4,0.1-2.4,0.1c-2.5,0-4.3,0.6-5.5,1.7c-1.1,1.1-3,3.3-5.7,6.7c-2.3,3-4.4,5-6.3,6.4c-2.2,1.5-4.7,2.5-7.4,2.8
			c-0.6,0.1-1.3,0.1-1.9,0.1c-7.3,0-12.2,0.3-14.6,0.9c-1.2,0.3-2,0.7-2.5,1.2c-0.4,0.4-0.6,0.9-0.5,1.3c0,0.4,0.1,0.7,0.2,0.9
			c0.1,0.1,0.2,0.3,0.4,0.3c0-0.1,0-0.3,0-0.7c0-0.5,0.6-1.1,1.9-1.7c1.2-0.6,3.2-1,5.8-1.1c-1.3,2.5-2.3,5-3.3,7.6
			C109.4,88.2,108.9,88,108.3,87.7z M161.3,202.4c5.1,0.3,8.7-0.2,10.9-1.5c2.1-1.3,3.5-2.4,4.2-3.2c1.3-1.4,2.3-3.2,3-5.2
			c0.8-2.2,1.3-4.8,1.4-7.6c0.1-1.5,0.1-2.9,0-4.4c0-0.3,0-0.6,0-0.9c0.7-0.1,1.5-0.1,2.2-0.2c0.5,2.1,0.7,4.1,0.7,5.8
			c0,2.1,0,3.5-0.1,4c-0.2,2.7-0.8,5.1-1.7,7.2c-2.9,6.6-8.7,10-17.6,10c-7.6,0-14.3-2.3-20.1-7c1.9-0.2,3.8-0.5,5.6-0.9
			C153.6,200.8,157.4,202.2,161.3,202.4z M151.3,197.9c1.1-0.3,2.3-0.7,3.4-1.1c3.4-1.3,6.6-2.8,9.7-4.6c2.8-1.6,5.3-3.5,7.7-5.6
			c2.3-2.1,4.6-4.4,6.6-6.9c0.2,0,0.5,0,0.7,0c0,0.3,0,0.5,0,0.8c0,6.1-0.7,10.7-2.3,13.7c-0.2,0.4-0.4,0.8-0.7,1.2
			c-2.3,3.2-5.4,5.1-9.3,5.5c-3.8,0.4-7.4,0-11.1-1C154.3,199.4,152.7,198.8,151.3,197.9z M94.1,162.3c-0.1-1.4-0.1-2.5-0.1-3.3
			c0.1-2.7,0.9-4,2.5-4c2.3,0,4.2-0.3,5.4-0.7c0.9-0.3,1.6-0.9,2.2-1.6c0.8-1,1.2-1.6,1.3-1.6c0.6-0.5,1.4-0.7,2.6-0.7
			c0.3,0,0.7,0.5,1.4,1.4c1.1,1.5,1.8,2.6,2.2,3.1c2.1,2.5,4.4,4,7,4.4c-2.3,1.9-5,2.9-7.9,2.9c-2.2,0-4.1-0.5-5.5-1.4
			c-0.9-0.6-1.4-0.9-1.5-0.9c-0.5-0.3-1.2-0.4-1.9-0.4c-0.8,0-2.4,0.8-4.7,2.4c-1.4,1-2.3,1.8-2.9,2.4
			C94.2,163.7,94.2,163.1,94.1,162.3z M109.3,163.6c-2,1.7-4.2,2.5-6.8,2.5c-3.2,0-5.1-0.3-6-0.9c-0.1-0.1-0.3-0.3-0.5-0.6
			c0,0,0,0,0,0c0.4-0.4,0.8-0.8,1.4-1.2c1.8-1.6,3.6-2.4,5.2-2.4c0.3,0,0.6,0.1,1,0.4c0.7,0.6,1.1,0.9,1.1,1
			C105.8,163.1,107.3,163.5,109.3,163.6z M102.8,174.6c-1.7-0.4-3.1-1.2-4.2-2.5c-0.7-0.8-1.3-1.6-1.8-2.5c-0.7-1.3-1.3-2.5-2-3.9
			c0,0,0.1-0.1,0.1-0.1c0,0,0,0,0,0c0.9,1.4,3.4,2.1,7.6,2.1c3,0,5.8-1.3,8.5-4c2.9-0.1,5.5-1,7.8-2.7c-1.2,2.3-2.3,4.5-3.6,6.6
			c-0.8,1.4-1.7,2.7-2.8,3.9C109.8,174.4,106.6,175.4,102.8,174.6z M125.2,195.3c-2.9-1.5-5.5-3.3-7.8-5.5c-3.7-3.6-6.7-7.6-9.2-12
			c1.1,0.1,2.2,0.2,3.3,0.2c0.6,0,1,0,1.2-0.1c0.3-0.1,0.4-0.3,0.4-0.7c0-0.5,0-0.7-0.1-0.5c-2.1,0.1-4,0-5.9-0.4
			c1-0.2,2.1-0.6,3.1-1.2c1.1-0.6,2.1-1.4,3-2.4c2-2.2,3.7-4.7,5.1-7.4c1.2-2.4,2.3-4.9,3.3-7.4c0,0-0.1,0-0.1,0c0,0,0,0,0,0
			c0-0.1,0-0.1,0.1-0.2c-0.4,0.1-0.8,0.1-1.2,0.1c-1.8,0-3.4-0.5-4.7-1.4c-1-0.7-2-1.7-3-3.1c-1.3-1.8-2.1-2.8-2.4-3.1
			c-0.9-0.9-1.9-1.4-2.9-1.4c-1.3,0-2.3,0.3-3.1,1c-0.7,0.9-1.3,1.6-1.8,2.1c-0.5,0.6-1.2,1-1.9,1.1c-0.5,0.1-1.2,0.1-2,0
			c-0.5-0.1-1-0.1-1.3-0.1c0.3-0.2,0.6-0.4,1-0.7c0.6-0.4,2.8-2.4,6.7-6c0-0.1-0.1-0.2-0.2-0.4c-0.1-0.1-0.3-0.2-0.7-0.2
			c0,0-0.6,0.5-1.9,1.5c0.4-3.4,1-8.4,1.8-14.9c2.2,0.7,5.4,1,9.5,1c1.2,0,1.9,0,2.1-0.1c0.3-0.1,0.4-0.3,0.4-0.7
			c0-0.1-0.9-0.3-2.7-0.5c-1.8-0.2-4.2-0.4-7.2-0.8c-3-0.4-4.6-1.4-4.8-3.1c-0.1-1.7,2.5-5.3,7.8-10.7c1.3-1.3,3.2-3.2,5.5-5.5
			c1.7-1.7,2.5-2.7,2.5-3c0-0.3,0-0.5-0.1-0.6c-0.1,0-0.3-0.1-0.6-0.1c-0.1,0-1,0.8-2.7,2.4c-2,1.9-3.9,3.8-5.7,5.7
			c-0.8,0.9-1.6,1.7-2.3,2.5c0.8-5.7,1.5-10.9,2.3-15.6c0.3-1.8,0.5-3.6,0.8-5.2c1-6.3,3-12.1,5.8-17.4c0.4,0,0.8,0,1.2,0
			c0.5,0,1.7,0.1,3.7,0.3c1.9,0.1,3.6,0.1,5.2-0.1c0.3,0,0.5-0.1,0.8-0.1c5.8-0.9,10.4-3.9,13.9-9.1c1.6-2.4,3.2-4.4,4.5-6
			c1.4-1.6,2.6-2.5,3.7-2.7c1-0.1,1.6-0.1,1.8,0.1c-1.1,1.8-1.7,4.1-1.7,6.9c0,1.1,0.4,2.5,1.2,4.1c1.1,2,2,3.6,2.6,4.6
			c1.1,2.1,2,3.9,2.5,5.5c0.7,2.2,1,4.5,0.8,6.7c-0.2,3.1,0.6,6.7,2.4,10.8c0.9,2,2.8,5.5,5.6,10.5c3.2,5.5,5.5,9.5,6.9,12.1
			c2,3.8,3.6,7.1,4.7,10c2.4,6.1,3.6,12.9,3.6,20.4c0,4.4,0,6.7,0,7c-0.1,2-0.5,4.6-1.3,7.9c-0.7,3.4-1.2,5.8-1.5,7
			c-0.1,0.5-0.3,1-0.4,1.5c-0.2,0.4-0.4,0.8-0.7,1.2c-0.1,0.1-0.1,0.1-0.2,0.2c0.8,0,1.7,0.1,2.6,0.1c0.2,0,0.4,0,0.7,0
			c-0.3,0.3-0.5,0.5-0.7,0.7c-2.5,2.6-5.2,5-8,7.3c-4.1,3.3-8.6,6-13.5,7.9c-4,1.6-8.1,2.5-12.4,2.6c-2.5,0-5,0-7.5-0.3
			C131.6,197.8,128.3,196.9,125.2,195.3z M136.9,259.4c-3.7-10.8-5.2-22.1-4.6-33.7c0.4-8.9,1.6-17.8,3.4-26.5
			c2.1,0.2,4.3,0.2,6.4,0.1c2.4,2,5,3.7,7.8,5c4.6,2.2,9.5,3.4,14.6,3.4c9.2,0,15.4-3.4,18.4-10.2c1-2.2,1.7-4.8,1.9-7.6
			c0.1-0.9,0.1-2.5,0.1-4.8c0-1.9-0.1-3.8-0.3-5.6c1.1,0.8,2.2,1.6,3.2,2.5c5.4,4.3,10.1,8.5,14,12.5c3.9,4,8.2,8.9,13.1,14.6
			c1.7,1.9,3.6,4.4,5.8,7.4c-1.7,1.4-4.4,3.8-8.2,7c-3.2,2.8-5.5,4.7-7,5.6c-1.5,1-4.2,2.9-8,5.9c-3.9,2.9-9.6,6.6-17.1,11.1
			c-7.6,4.4-13.9,6.7-19.1,6.7c-2.1,0-3.9-0.1-5.3-0.3c-1.5-2-2.6-4.6-3.5-7.9c-0.9-3.8-1.4-8.6-1.4-14.6c0-1.4,0.4-6.7,1.1-15.9
			c0-0.1-0.2-0.5-0.7-1c-0.7,4-1.1,7.2-1.3,9.6c-0.2,2.4-0.4,4.8-0.5,7.1c-0.2,5.3,0.3,10.3,1.4,15c0.7,2.9,1.7,5.3,2.8,7.3
			c-1.1-0.3-1.9-0.6-2.4-1c-1.3-1.1-2.1-1.9-2.3-2.6c-0.4-0.5-0.5-0.8-0.6-0.8c-0.3,0-0.5,0.1-0.6,0.2c-0.1,0.1-0.1,0.2-0.1,0.2
			c0,0.3,0.1,0.7,0.4,1.2c0.4,0.8,0.9,1.5,1.7,2.1c2.1,1.9,5.9,2.9,11.2,2.9c5.3,0,11.6-2.1,18.9-6.5c7.3-4.3,12.5-7.6,15.5-9.7
			c3-2.2,5.8-4.2,8.2-6c3.9-2.7,10-7.8,18.2-15.1c5.2,1,8.9,4.5,10.9,10.5c0.6,1.8,1.1,3.9,1.4,6.2c-1.2,0.7-2.5,1.5-3.8,2.3
			c-9,5.3-17.2,10.4-24.6,15.2c-7.4,4.8-15.1,9.1-23.1,12.9c-8,3.8-16.5,6.1-25.6,6.7c-0.5,0-1.1,0-1.6,0
			C146.8,270.9,140.6,267.1,136.9,259.4z M266.2,429.2c0.3,1-0.2,2-1.4,3.2c-0.6,0.6-1.4,1.2-2.5,1.8c-3,1.8-6.2,3.5-9.5,5
			c-1.8,0.8-3.2,1.4-4.1,1.7c-0.9,0.5-5.5,1.1-13.8,1.6c-8.2,0.6-12.6-0.2-13.2-2.3c-0.6-2.1,0-3.9,1.8-5.1c1.3-0.9,3.3-1.8,6.1-2.7
			c1.1-0.4,2.4-0.8,3.8-1.2c0.3-0.1,0.6-0.1,0.8-0.2c0.3,0.5,0.6,1,0.9,1.4c1.4,2.1,2.1,3.1,2.1,3c-0.2-0.9-0.5-1.9-0.9-3
			c-0.2-0.6-0.5-1.1-0.7-1.8c1.2-0.3,2.2-0.7,3.2-1c0,0.1,0.1,0.1,0.1,0.2c0.6,1,1.2,1.9,1.6,2.5c1,1.6,1.5,2.3,1.5,2.3
			c0-0.3,0.1-0.5,0.1-0.7c0-0.1-0.2-0.6-0.7-1.6c-0.4-0.8-0.9-1.8-1.5-3.1c1-0.4,2-0.7,2.8-1l2.6,4c0.3,0,0.5,0,0.5-0.1
			c0-0.1,0.1-0.1,0.1-0.2c0-0.1-0.5-1.3-1.7-3.6c-0.1-0.2-0.2-0.4-0.3-0.6c0.3-0.1,0.6-0.3,0.9-0.4c2.3-1.1,3.4-2.6,3.6-4.6
			c4.9-0.5,9-2.4,12.3-5.8C264.2,424.2,265.9,428.3,266.2,429.2z M260.2,415.2c-3.2,3.4-7.1,5.3-11.7,5.8c-0.4-2.1-1.7-5.6-3.9-10.5
			c4.2-0.7,7.9-2.5,10.9-5.6C257.3,408.8,258.8,412.3,260.2,415.2z M252.7,398.9c0.7,1.6,1.4,3.1,2.1,4.6c-3.1,3.2-6.7,5-11,5.6
			c-0.3-0.6-0.6-1.3-0.9-1.9c-3.8-8-6.8-14.3-9.2-18.9c-2.4-4.6-3.6-7-3.7-7.2c-0.7-1.4-1.3-2.7-2-4c0.6-0.2,1.2-0.4,1.8-0.6
			c1.3-0.4,2.5-0.8,3.8-1.2c2.7-0.9,5.3-1.8,7.9-2.8C245.2,381.8,249,390.6,252.7,398.9z M245,369.4c-5.1,2.2-10.1,4.1-15.1,5.6
			c-12,3.8-23.3,5.5-33.9,5.3c-0.9,0-1.7,0-2.5-0.1c-0.9-1.3-1.8-2.6-2.6-4c12.4,0.1,24.4-0.8,35.9-4.7c1.3-0.4,2.5-1.8,3.8-2.2
			c3.5-1.2,13.8-3.5,23.7-9c4.8-2.6,6.5-5.9,10.2-8.8c4.5-3.4,4.9-2.1,11.5-6.8c3.5-2.5,6.5-5.8,9.7-9.1c0.7,1.7,1.3,3.4,2,5
			c-2.7,2.8-5.4,5.4-8.3,7.8c-4.2,3.6-9,7-14.6,10.5C258.3,363,251.8,366.5,245,369.4z M258.5,391.4c-3.3-7-6.8-14.3-10.6-21.6
			c4-1.8,7.9-3.7,11.6-5.8c5.2,12,9.3,21.3,12.2,27.9c2.1,4.7,3.6,8.2,4.7,10.5c-3,2.7-6.3,4-10,4c-0.5,0-0.9,0-1.4-0.1
			C263.1,401.4,260.9,396.5,258.5,391.4z M265.7,407.9c0.3,0,0.6,0,0.9,0c3.9,0,7.4-1.3,10.5-4.1c0.6,1.3,0.9,1.9,0.9,1.9
			c1.3,2.8,2.6,5.6,4,8.5c-2.9,2.3-6.8,3.5-11.6,3.5c-0.3-0.1-0.5-0.1-0.8-0.1C268.4,414.5,267.1,411.2,265.7,407.9z M297.8,436.7
			c-0.8,0.9-1.9,1.7-3.2,2.4c-3.9,2-9,3-15.4,3c-4.2,0-7-0.4-8.5-1.2c-0.8-0.4-1.2-0.9-1.3-1.6c-0.1-0.6,0.1-1.1,0.4-1.8
			c0.3-0.4,0.6-0.7,0.9-1c3.2-3.5,6.9-5.4,11.2-5.8c0-0.1-0.1-0.1-0.1-0.1c-2.8-0.2-5.3,0.3-7.4,1.4c-0.9-3.1-2.1-6.6-3.5-10.6
			c-0.2-0.7-0.5-1.3-0.7-1.9c0,0,0-0.1,0-0.1c0.1,0,0.1,0,0.2,0c4.7,0,8.7-1.4,12-4.2c1.1,2.5,2.4,4.8,3.9,7.1
			c0.5,0.8,1,1.5,1.7,2.1c1.3,1.2,2.6,2.4,4.1,3.5c0.3,0.2,1.1,0.8,2.4,1.7c1.3,0.9,2.4,1.8,3.2,2.7c0.8,0.9,1.2,1.7,1.2,2.4
			C298.7,435.3,298.4,436,297.8,436.7z"/>
		<radialGradient id="SVGID_1_" cx="-14.2653" cy="-5.8102" r="328.1821" gradientUnits="userSpaceOnUse">
			<stop  offset="0" style="stop-color:#FCE2CA"/>
			<stop  offset="1" style="stop-color:#FDCF9D"/>
		</radialGradient>
		<path fill="url(#SVGID_1_)" d="M228.8,184.1c1.1-3,2.9-4.4,5.4-4.4c1.1,0,1.8,0.6,2.1,1.8c0.1,0.4,0.1,0.8,0.1,1.3
			c0,0.4-0.1,0.6-0.1,0.6c0,1.5-0.4,2.9-1.1,4.1c-0.7,1.2-1.1,2.4-1.1,3.4c0,0.7,0,1.1,0,1.1c0.2,0.5,0.8,0.7,1.8,0.7
			c1.2,0,2.1-0.6,2.8-1.9c0.3-0.6,0.7-2,1.3-4.2c0.5-1.9,1.1-3.4,1.7-4.2c1-1.3,2.3-1.9,4-1.9c1.7,0,2.9,0.7,3.7,2.2
			c0.4,0.7,0.6,1.5,0.6,2.3c0,0.3-0.7,1.5-2.3,3.6c-1.5,2.2-2.3,3.5-2.3,4.1c0,0.6,0.1,1.1,0.4,1.5c0.3,0.5,0.7,0.8,1.1,0.8
			c0.7,0,1.2-0.5,1.7-1.7c0.3-0.7,0.8-1.9,1.4-3.6c0.7-1.6,1.4-2.8,2.1-3.6c1.1-1.1,2.4-1.7,3.9-1.7c1.9,0,3,0.7,3.5,2
			c0.1,0.4,0.2,0.9,0.2,1.4c0,0.5-0.1,1-0.1,1.8c0,0.7-0.4,2.1-1.2,3.9c-0.8,1.9-1.3,3.1-1.6,3.7c-0.2,0.6-0.3,1.3-0.3,2.2
			c0,0.5,0.1,1.2,0.3,2c1.9-1.1,3.5-2.5,4.9-4.3c1.1-1.5,2.1-3.1,2.7-4.9c0.5-1.3,0.7-2.3,0.7-2.9c0-1.2-0.3-2.5-0.8-4.1
			c-0.7-1.9-1.7-3.7-3-5.3c-3.6-4.4-8.8-6.5-15.7-6.5c-8.1,0-13.6,2.3-16.3,6.9c-0.9,1.5-1.4,3.1-1.6,4.9c-0.1,0.4-0.1,1.3-0.1,2.6
			h0.1C228,186.6,228.3,185.4,228.8,184.1z"/>
		<radialGradient id="SVGID_2_" cx="-14.2694" cy="-5.8126" r="328.187" gradientUnits="userSpaceOnUse">
			<stop  offset="0" style="stop-color:#FCE2CA"/>
			<stop  offset="1" style="stop-color:#FDCF9D"/>
		</radialGradient>
		<path fill="url(#SVGID_2_)" d="M230.5,210.2c4.5,1.1,7.8,3.8,10.1,8.3c0.7-1,1.7-1.9,2.7-2.8c0.7-0.5,1.5-0.9,2.6-1.1c0,0,0,0,0,0
			c0.3-0.1,0.5-0.1,0.7-0.1c1.5-0.1,3.2-0.7,5.1-1.6c1.9-0.9,3.2-1.7,3.8-2.4c0.6-0.7,1-1.6,1.1-2.7c0.1-1.1-0.3-2.7-0.9-4.8
			c-0.4-1.3-0.5-2.5-0.5-3.5c0-1.3,0.5-3.1,1.6-5.4c1.1-2.3,1.6-4.1,1.6-5.5c-0.3-1.7-0.6-2.6-0.9-2.6c-1.9,0-3.4,0.5-4.4,1.6
			c-0.7,0.8-1.3,2-1.8,3.6c-0.7,2.1-1.1,3.3-1.2,3.6c-0.6,1.1-1.4,1.6-2.5,1.6c-1.6,0-2.6-0.5-3.1-1.6c-0.2-0.3-0.3-0.7-0.3-1.1
			c0-0.2,0-0.4,0-0.5c0-1.4,0.8-3.2,2.3-5.2c0.4-0.5,0.9-1.2,1.6-2c0.5-0.6,0.7-1,0.7-1.2c0-0.3-0.3-0.8-0.8-1.6
			c-0.5-0.9-1-1.3-1.3-1.3c-1.7,0-2.9,0.6-3.8,1.9c-0.5,0.7-1,2.1-1.5,4.2c-0.5,2-1.1,3.4-1.6,4.2c-0.9,1.3-2.2,1.9-3.9,1.9
			c-1.7,0-2.8-0.5-3.1-1.6c-0.2-0.5-0.2-1.1,0-1.7c0-1.6,0.4-3,1.1-4.2c0.4-0.7,0.7-1.1,0.8-1.4c0.2-0.6,0.3-1.2,0.3-1.9
			c0-0.6-0.2-1.3-0.6-2.1c-3.4,0.7-5.2,3.6-5.2,8.7c0,3.5,0.1,5.7,0.3,6.8c0.2,1.1,0.2,2,0.2,2.7c-0.3,0.1-0.5,0.2-0.7,0.2
			c-0.5-0.5-0.9-1.7-1.1-3.5c0-0.3-0.1-0.6-0.1-1c-0.3,0.4-0.4,0.9-0.4,1.5c0,1.4,0.3,2.9,0.8,4.2c0.2,0.5,0.8,1.9,1.7,4.2
			C230.3,206.3,230.5,208,230.5,210.2z"/>
		<path fill="#FFFBD4" d="M226.7,211.1c0.5-0.5,1.1-1.1,1.7-1.7c0.2,0.2,0.5,0.4,0.7,0.5c0,0,0.1,0,0.1,0c0.1-2-0.1-3.5-0.6-4.5
			c-0.4-0.9-0.8-1.7-1.1-2.4c-0.8,1.1-1.6,2.1-2.4,3.1c0.3,1.3,0.8,2.9,1.5,4.7C226.6,210.9,226.6,211,226.7,211.1z"/>
		<path fill="#FFFBD4" d="M228.1,211.5c-0.5,0.5-1.1,0.9-1.6,1.4c-1.1,1-2.1,1.9-3.2,2.9c5.2,1.4,8.8,5.1,10.9,11.2
			c0.6,1.8,1.1,3.8,1.3,6c2.2-1.3,4.2-2.6,6.1-3.8c-0.3-2.6-0.7-5-1.5-7C238.1,215.7,234,212.1,228.1,211.5z"/>
		<path fill="#FDDB00" d="M105.8,84.3c-0.1-0.1-0.3-0.2-0.4-0.3c-0.1-0.2-0.2-0.5-0.2-0.9c-0.1-0.5,0.1-0.9,0.5-1.3
			c0.5-0.5,1.3-0.9,2.5-1.2c2.5-0.6,7.3-0.9,14.6-0.9c0.7,0,1.3,0,1.9-0.1c2.7-0.3,5.2-1.2,7.4-2.8c1.9-1.3,4-3.4,6.3-6.4
			c2.7-3.4,4.6-5.6,5.7-6.7c1.1-1.1,3-1.7,5.5-1.7c1,0,1.8,0,2.4-0.1c-1.9,2.2-2.9,4.3-3,6.2c-0.1,1.9,0.3,3.9,1.4,6
			c1.1,2,2.4,4.3,4,6.8c1.5,2.5,2.2,6,2,10.6c-0.1,2.9,0.8,6.4,2.7,10.6c0.7,1.5,1.6,3.3,2.8,5.3c1.3,2.3,2.3,4.1,2.9,5.2
			c3.2,5.6,5.3,9.6,6.6,11.9c2,3.8,3.5,7.1,4.6,10c2.4,6.2,3.6,13,3.6,20.4c0,3.2-0.1,5.6-0.2,7.3c-0.1,1.8-0.5,4.6-1.2,8.6
			c-0.5,2.9-1.1,5.4-1.9,7.4c8.9-0.1,16.2-2.1,21.9-6.1c5.8-4.1,10.5-10.2,14.2-18.3c4.3-10.3,6.7-21,7.4-32.1
			c0.3-6.3,0.2-12.6-0.6-18.8c-1.1-8.6-3.6-17-7.5-25.2c0-0.1-0.1-0.2-0.1-0.3c-0.9-2.1-2-4.2-3.2-6.2c-5.6-9.3-13.2-16.2-23-20.7
			c-0.7-0.3-1.5-0.7-2.2-0.9c0,0,0,0,0,0c-3-2.6-5.2-4.3-6.7-5c-4.7-2.5-8.9-3.7-12.5-3.7c-6.5,0-13.4,1.3-20.9,3.8
			c-6.9,2.4-13.5,5.5-19.8,9.5c-6.1,4-11.1,8.1-14.7,12.4c-0.5,0.6-1,1.2-1.4,1.8c-2.9,3.9-4.4,7.4-4.4,10.7c0,3.4,1.2,6,3.7,7.8
			c0.6,0.4,1.2,0.8,1.9,1.1C107.1,86.6,106.2,85.4,105.8,84.3z M180.7,84.2c-2.7-9.9-5.8-16.3-9.5-19.3c-3.6-3-5.6-4.9-5.9-5.5
			l0.5-0.1c8.3,6.1,13.3,13.9,15,23.6c0.1,0.3,0.1,0.7,0.1,1.1L180.7,84.2z M189,75.3c-0.8-3.9-2.9-7.8-6.3-11.6
			c-3.4-3.8-5.6-6.3-6.7-7.6c0,0.7-0.1,0.9-0.1,0.4c0-0.1,0-0.3,0.1-0.4l0.4-0.1c4.5,4.5,7.4,7.7,8.8,9.5c2.9,3.7,4.4,6.8,4.4,9.5
			C189.5,75.2,189.3,75.3,189,75.3z M193.4,60.3c2.8,3.9,4.8,7.5,6.2,10.8c-0.1,0.1-0.3,0.2-0.6,0.3c-1.3-3.1-3.2-6.4-5.6-10.1
			c-2.5-3.7-5-6-7.4-7l0.1-0.2l-0.1,0c0,0,0.2,0,0.5,0C188,53.9,190.3,56,193.4,60.3z M185.3,50.6C185.3,50.7,185.3,50.7,185.3,50.6
			c0.3,0.3,0.6,0.5,1.1,0.7c-0.4,0-0.7,0-1.1,0c-3.4,0.1-6.2,0.2-8.4,0.6c-2.6,0.4-5.3,1.1-8,2.1c-2.7,1-6,2.5-9.9,4.5
			c-0.1,0-0.3,0-0.4-0.1c-0.3-0.1-0.5-0.1-0.5-0.2c0.5-0.3,1.7-0.9,3.6-2c1.5-0.9,2.9-1.5,4.2-2.1c3.8-1.5,9.4-2.7,16.6-3.4
			C182.6,50.7,183.5,50.7,185.3,50.6z M170.5,45.8c0.1,0,0.2,0,0.3-0.1c0.8,0,2.1,0.5,4,1.3c1.7,0.9,2.7,1.5,3,1.9
			c-0.1,0.1-0.3,0.2-0.6,0.3c-0.5-0.1-0.9-0.4-1.1-0.8c-0.2-0.4-2.1-1.2-5.6-2.3V45.8z M157.4,47.5c0.1,0,0.6,0,1.6,0
			c1.2,0,2.4,0.1,3.5,0.2c3.4,0.4,5.7,1.3,6.8,2.5c0,0.3-0.2,0.5-0.6,0.5c0.4-0.6-1-1.3-4.4-2c-3.3-0.7-5.7-1-7.2-0.9
			c0-0.1,0-0.2-0.1-0.3C156.9,47.5,157.1,47.5,157.4,47.5z M150.1,51.3c1.8,0.1,3.5,0.3,5.2,0.6c1.7,0.3,3.5,0.5,5.4,0.5
			c0.3,0.3,0.5,0.5,0.5,0.6c0.1,0.1-0.5,0.1-1.8,0c-1.4-0.1-3-0.3-4.8-0.6c-1.9-0.2-4.2-0.6-6.9-1.1c0,0,0,0-0.1-0.1
			C147.5,51.2,148.4,51.2,150.1,51.3z"/>
		<radialGradient id="SVGID_3_" cx="-14.2677" cy="-5.8126" r="328.1857" gradientUnits="userSpaceOnUse">
			<stop  offset="0" style="stop-color:#FCE2CA"/>
			<stop  offset="1" style="stop-color:#FDCF9D"/>
		</radialGradient>
		<path fill="url(#SVGID_3_)" d="M142.6,198.2c4.3-0.1,8.5-0.9,12.4-2.6c4.9-2,9.4-4.6,13.5-7.9c2.8-2.3,5.5-4.7,8-7.3
			c0.2-0.2,0.5-0.5,0.7-0.7c-0.2,0-0.4,0-0.7,0c-0.9,0-1.7,0-2.6-0.1c0.1-0.1,0.1-0.1,0.2-0.2c0.3-0.4,0.5-0.8,0.7-1.2
			c0.1-0.5,0.3-0.9,0.4-1.5c0.3-1.2,0.8-3.6,1.5-7c0.7-3.3,1.1-5.9,1.3-7.9c0-0.3,0-2.6,0-7c0-7.4-1.2-14.2-3.6-20.4
			c-1.1-2.9-2.7-6.2-4.7-10c-1.4-2.6-3.7-6.6-6.9-12.1c-2.9-5-4.7-8.4-5.6-10.5c-1.8-4.1-2.6-7.7-2.4-10.8c0.1-2.2-0.1-4.5-0.8-6.7
			c-0.5-1.6-1.3-3.4-2.5-5.5c-0.6-1.1-1.5-2.6-2.6-4.6c-0.8-1.6-1.2-3-1.2-4.1c0-2.8,0.6-5.1,1.7-6.9c-0.1-0.2-0.7-0.2-1.8-0.1
			c-1.1,0.2-2.3,1.1-3.7,2.7c-1.4,1.6-2.9,3.6-4.5,6c-3.6,5.2-8.2,8.2-13.9,9.1c-0.3,0.1-0.5,0.1-0.8,0.1c-1.6,0.2-3.4,0.2-5.2,0.1
			c-2-0.2-3.2-0.3-3.7-0.3c-0.4,0-0.8,0-1.2,0c-2.9,5.3-4.8,11.1-5.8,17.4c-0.3,1.7-0.5,3.4-0.8,5.2c-0.7,4.8-1.5,10-2.3,15.6
			c0.7-0.8,1.5-1.6,2.3-2.5c1.8-1.9,3.7-3.8,5.7-5.7c1.7-1.6,2.6-2.4,2.7-2.4c0.4,0,0.6,0,0.6,0.1c0.1,0.1,0.1,0.3,0.1,0.6
			c0,0.3-0.8,1.3-2.5,3c-2.3,2.3-4.2,4.1-5.5,5.5c-5.3,5.4-7.9,8.9-7.8,10.7c0.1,1.7,1.7,2.7,4.8,3.1c3,0.4,5.4,0.6,7.2,0.8
			c1.8,0.2,2.7,0.3,2.7,0.5c0,0.4-0.1,0.6-0.4,0.7c-0.2,0.1-0.9,0.1-2.1,0.1c-4.1,0-7.2-0.3-9.5-1c-0.9,6.5-1.5,11.4-1.8,14.9
			c1.2-1,1.8-1.5,1.9-1.5c0.3,0,0.5,0.1,0.7,0.2c0.1,0.2,0.2,0.3,0.2,0.4c-3.9,3.6-6.2,5.6-6.7,6c-0.4,0.3-0.7,0.5-1,0.7
			c0.3,0,0.8,0.1,1.3,0.1c0.9,0.1,1.5,0.1,2,0c0.7-0.2,1.4-0.5,1.9-1.1c0.5-0.5,1.1-1.2,1.8-2.1c0.7-0.7,1.8-1,3.1-1
			c1,0,2,0.5,2.9,1.4c0.3,0.3,1.1,1.3,2.4,3.1c1.1,1.4,2.1,2.5,3,3.1c1.4,0.9,3,1.4,4.7,1.4c0.4,0,0.8-0.1,1.2-0.1
			c-0.1,0.1-0.1,0.1-0.1,0.2h0c-1,2.5-2.1,5-3.3,7.4c-1.3,2.7-3,5.2-5.1,7.4c-0.9,1-1.9,1.8-3,2.4c-1,0.6-2.1,1-3.1,1.2
			c1.9,0.5,3.9,0.6,5.9,0.4c0.1-0.1,0.1,0.1,0.1,0.5c0,0.4-0.1,0.6-0.4,0.7c-0.2,0.1-0.6,0.1-1.2,0.1c-1.1,0-2.2-0.1-3.3-0.2
			c2.5,4.5,5.5,8.5,9.2,12c2.3,2.2,4.9,4.1,7.8,5.5c3.1,1.5,6.4,2.4,9.9,2.6C137.5,198.2,140,198.3,142.6,198.2z"/>
		<path fill="#EB1D25" d="M97.1,161.8c2.3-1.6,3.8-2.4,4.7-2.4c0.7,0,1.3,0.1,1.9,0.4c0.1,0,0.6,0.3,1.5,0.9
			c1.4,0.9,3.3,1.4,5.5,1.4c3,0,5.6-1,7.9-2.9c-2.6-0.5-5-1.9-7-4.4c-0.4-0.5-1.2-1.6-2.2-3.1c-0.6-0.9-1.1-1.4-1.4-1.4
			c-1.2,0-2,0.3-2.6,0.7c-0.1,0-0.5,0.6-1.3,1.6c-0.6,0.7-1.3,1.2-2.2,1.6c-1.3,0.5-3.1,0.7-5.4,0.7c-1.6,0-2.4,1.3-2.5,4
			c0,0.8,0,1.9,0.1,3.3c0.1,0.8,0.1,1.5,0.2,1.9C94.8,163.6,95.7,162.8,97.1,161.8z"/>
		<path fill="#EB1D25" d="M112.5,171.5c1.1-1.2,2-2.5,2.8-3.9c1.2-2.1,2.4-4.3,3.6-6.6c-2.3,1.7-5,2.6-7.8,2.7c-2.7,2.7-5.5,4-8.5,4
			c-4.2,0-6.7-0.7-7.6-2.1l-0.1,0.1c0.6,1.3,1.3,2.6,2,3.9c0.5,0.9,1.1,1.7,1.8,2.5c1.1,1.2,2.6,2.1,4.2,2.5
			C106.6,175.4,109.8,174.4,112.5,171.5z"/>
		<path fill="#A01E21" d="M103.5,161.3c-0.3-0.3-0.7-0.4-1-0.4c-1.6,0-3.4,0.8-5.2,2.4c-0.5,0.5-1,0.9-1.4,1.2c0,0,0,0,0,0
			c0.3,0.4,0.5,0.6,0.5,0.6c0.8,0.6,2.8,0.9,6,0.9c2.5,0,4.8-0.8,6.8-2.5c-2-0.1-3.5-0.6-4.6-1.3
			C104.6,162.3,104.2,161.9,103.5,161.3z"/>
		<radialGradient id="SVGID_4_" cx="-14.2677" cy="-5.8095" r="328.1827" gradientUnits="userSpaceOnUse">
			<stop  offset="0" style="stop-color:#FCE2CA"/>
			<stop  offset="1" style="stop-color:#FDCF9D"/>
		</radialGradient>
		<path fill="url(#SVGID_4_)" d="M167,200.9c4-0.4,7-2.3,9.3-5.5c0.3-0.4,0.5-0.8,0.7-1.2c1.5-3,2.3-7.6,2.3-13.7c0-0.3,0-0.6,0-0.8
			c-0.2,0-0.5,0-0.7,0c-2,2.4-4.2,4.8-6.6,6.9c-2.3,2.1-4.9,4-7.7,5.6c-3.1,1.8-6.3,3.4-9.7,4.6c-1.1,0.4-2.3,0.8-3.4,1.1
			c1.5,0.8,3,1.5,4.7,1.9C159.5,201,163.2,201.3,167,200.9z"/>
		<path fill="#FFFFFF" d="M144.2,199.2c5.7,4.6,12.4,7,20.1,7c8.8,0,14.7-3.3,17.6-10c0.9-2.1,1.5-4.5,1.7-7.2
			c0.1-0.5,0.1-1.8,0.1-4c0-1.7-0.2-3.7-0.7-5.8c-0.7,0.1-1.5,0.2-2.2,0.2c0,0.3,0,0.6,0,0.9c0.1,1.5,0.1,2.9,0,4.4
			c-0.1,2.8-0.6,5.4-1.4,7.6c-0.7,2.1-1.7,3.8-3,5.2c-0.6,0.8-2,1.9-4.2,3.2c-2.1,1.4-5.8,1.9-10.9,1.5c-3.8-0.2-7.7-1.6-11.5-4.1
			C147.9,198.7,146.1,199.1,144.2,199.2z"/>
		<path fill="#F186B6" d="M157.1,270.8c9.1-0.7,17.6-2.9,25.6-6.7c8-3.8,15.7-8.1,23.1-12.9c7.4-4.8,15.6-9.9,24.6-15.2
			c1.3-0.8,2.5-1.5,3.8-2.3c-0.3-2.3-0.7-4.4-1.4-6.2c-2.1-6-5.7-9.5-10.9-10.5c-8.2,7.3-14.3,12.3-18.2,15.1
			c-2.5,1.8-5.2,3.8-8.2,6c-3,2.2-8.2,5.4-15.5,9.7c-7.3,4.3-13.6,6.5-18.9,6.5c-5.3,0-9.1-0.9-11.2-2.9c-0.7-0.6-1.3-1.3-1.7-2.1
			c-0.3-0.5-0.4-0.9-0.4-1.2c0,0,0.1-0.1,0.1-0.2c0.1-0.1,0.3-0.2,0.6-0.2c0,0,0.2,0.3,0.6,0.8c0.2,0.6,0.9,1.5,2.3,2.6
			c0.5,0.4,1.3,0.8,2.4,1c-1.2-2-2.1-4.4-2.8-7.3c-1.2-4.7-1.7-9.7-1.4-15c0.2-2.4,0.3-4.8,0.5-7.1c0.2-2.4,0.6-5.6,1.3-9.6
			c0.5,0.5,0.7,0.9,0.7,1c-0.7,9.2-1.1,14.5-1.1,15.9c0,6,0.5,10.9,1.4,14.6c0.9,3.3,2,5.9,3.5,7.9c1.5,0.2,3.2,0.3,5.3,0.3
			c5.2,0,11.6-2.2,19.1-6.7c7.5-4.5,13.3-8.2,17.1-11.1c3.9-3,6.6-4.9,8-5.9c1.5-1,3.8-2.8,7-5.6c3.8-3.3,6.5-5.6,8.2-7
			c-2.2-3-4.1-5.5-5.8-7.4c-4.8-5.8-9.2-10.6-13.1-14.6c-3.9-4-8.5-8.2-14-12.5c-1-0.8-2.1-1.7-3.2-2.5c0.2,1.8,0.3,3.6,0.3,5.6
			c0,2.3,0,3.9-0.1,4.8c-0.3,2.9-0.9,5.4-1.9,7.6c-3.1,6.8-9.2,10.2-18.4,10.2c-5.1,0-10-1.1-14.6-3.4c-2.7-1.3-5.3-3-7.8-5
			c-2.1,0.1-4.3,0.1-6.4-0.1c-1.8,8.7-3,17.6-3.4,26.5c-0.6,11.6,0.9,22.8,4.6,33.7c3.7,7.6,9.9,11.4,18.6,11.4
			C156,270.9,156.6,270.8,157.1,270.8z"/>
		<path fill="#F186B6" d="M221.9,215.5C221.9,215.5,221.9,215.5,221.9,215.5C221.9,215.5,221.9,215.5,221.9,215.5
			C221.9,215.5,222,215.5,221.9,215.5c0.1-0.1,0.2-0.1,0.2-0.1c0.8-0.6,2-1.7,3.8-3.4c-0.8-1.3-1.4-2.8-1.9-4.5
			c-1.5,1.7-3.1,3.3-4.7,4.6c0.5,0.7,1,1.3,1.5,1.9C221.1,214.5,221.5,215,221.9,215.5z"/>
		<path fill="#F186B6" d="M226.7,370.3c5-1.5,10-5.4,15.1-7.6c6.8-2.9,11.7,0.1,19.6-10.3c4-5.2,10.5-6,14.6-9.5
			c3.1-2.6,6-5.4,8.9-8.5c-4-9.8-8.8-20.3-14.2-31.5c-13.7-28.1-25.2-49.3-34.6-63.7c-0.8-1.3-1.6-2.5-2.4-3.7
			c-1.3,0.7-2.5,1.5-3.9,2.3c-9.1,5.5-16.4,10-21.6,13.4c-5.3,3.4-10.4,6.5-15.3,9.3c-11.2,6.4-23.1,10.4-35.9,11.8
			c-0.5,0-1.1,0-1.6,0c-3.7,0-7-0.6-9.9-1.9c3.6,12.3,7.4,24.4,11.7,36.5c0.4,1.2,0.9,2.5,1.3,3.7c2.7,7.4,5.7,14.7,9,21.9
			c4.9,10.9,9.8,20.8,14.8,29.8c2.3,4.2,4.8,8.3,7.2,12.1c1,0,2,0.1,3.1,0.1c4.7,0.1,9.4-1.2,14.4-1.9
			C213.4,371.9,220,372.4,226.7,370.3z"/>
		<path fill="#A46728" d="M245,427.3c-0.3,0.1-0.5,0.3-0.9,0.4c0.1,0.2,0.2,0.4,0.3,0.6c1.1,2.4,1.7,3.6,1.7,3.6
			c0,0.1,0,0.1-0.1,0.2c-0.1,0.1-0.2,0.1-0.5,0.1l-2.6-4c-0.9,0.3-1.8,0.7-2.8,1c0.6,1.3,1.1,2.3,1.5,3.1c0.4,1,0.7,1.5,0.7,1.6
			c0,0.1,0,0.4-0.1,0.7c0,0.1-0.5-0.7-1.5-2.3c-0.5-0.7-1-1.5-1.6-2.5c-0.1-0.1-0.1-0.1-0.1-0.2c-1,0.3-2.1,0.6-3.2,1
			c0.3,0.6,0.5,1.2,0.7,1.8c0.4,1.1,0.7,2.1,0.9,3c0,0.1-0.7-0.9-2.1-3c-0.3-0.4-0.6-0.9-0.9-1.4c-0.3,0.1-0.5,0.2-0.8,0.2
			c-1.4,0.4-2.7,0.8-3.8,1.2c-2.8,0.9-4.8,1.8-6.1,2.7c-1.8,1.3-2.4,3-1.8,5.1c0.5,2.1,5,2.9,13.2,2.3c8.2-0.6,12.8-1.1,13.8-1.6
			c0.9-0.4,2.3-0.9,4.1-1.7c3.3-1.5,6.5-3.2,9.5-5c1-0.6,1.8-1.2,2.5-1.8c1.2-1.1,1.7-2.2,1.4-3.2c-0.3-0.9-2-5-5.3-12.3
			c-3.3,3.4-7.4,5.3-12.3,5.8C248.5,424.7,247.3,426.2,245,427.3z"/>
		<radialGradient id="SVGID_5_" cx="-14.2704" cy="-5.8213" r="328.1919" gradientUnits="userSpaceOnUse">
			<stop  offset="0" style="stop-color:#FCE2CA"/>
			<stop  offset="1" style="stop-color:#FDCF9D"/>
		</radialGradient>
		<path fill="url(#SVGID_5_)" d="M229.9,376.3c-0.6,0.2-1.2,0.4-1.8,0.6c0.7,1.3,1.3,2.7,2,4c0.1,0.2,1.3,2.6,3.7,7.2
			c2.4,4.6,5.4,10.9,9.2,18.9c0.3,0.7,0.6,1.3,0.9,1.9c4.3-0.6,7.9-2.4,11-5.6c-0.7-1.5-1.4-3-2.1-4.6c-3.8-8.3-7.5-17.1-11.2-26.5
			c-2.6,1-5.2,1.9-7.9,2.8C232.3,375.6,231.1,376,229.9,376.3z"/>
		<radialGradient id="SVGID_6_" cx="-14.2729" cy="-5.8066" r="328.1846" gradientUnits="userSpaceOnUse">
			<stop  offset="0" style="stop-color:#FCE2CA"/>
			<stop  offset="1" style="stop-color:#FDCF9D"/>
		</radialGradient>
		<path fill="url(#SVGID_6_)" d="M276.5,402.4c-1.1-2.3-2.6-5.8-4.7-10.5c-2.9-6.6-7-15.9-12.2-27.9c-3.7,2.1-7.6,4-11.6,5.8
			c3.8,7.4,7.3,14.6,10.6,21.6c2.4,5.1,4.6,10,6.6,14.9c0.5,0.1,0.9,0.1,1.4,0.1C270.2,406.4,273.5,405,276.5,402.4z"/>
		<path fill="#FFF8AD" d="M282,414.3c-1.3-2.8-2.6-5.7-4-8.5c0-0.1-0.3-0.7-0.9-1.9c-3.1,2.7-6.6,4.1-10.5,4.1c-0.3,0-0.6,0-0.9,0
			c1.3,3.3,2.6,6.5,3.8,9.7c0.3,0,0.5,0.1,0.8,0.1C275.2,417.8,279.1,416.6,282,414.3z"/>
		<path fill="#A46728" d="M294.4,429.5c-1.3-0.9-2.1-1.5-2.4-1.7c-1.5-1.1-2.8-2.2-4.1-3.5c-0.7-0.7-1.2-1.3-1.7-2.1
			c-1.4-2.3-2.7-4.7-3.9-7.1c-3.3,2.8-7.3,4.2-12,4.2l-0.1,0.1c0.2,0.6,0.5,1.3,0.7,1.9c1.4,4,2.5,7.5,3.5,10.6
			c2.2-1.1,4.7-1.5,7.4-1.4c0,0.1,0.1,0.1,0.1,0.1c-4.3,0.4-8,2.4-11.2,5.8c-0.3,0.3-0.6,0.7-0.9,1c-0.3,0.6-0.5,1.2-0.4,1.8
			c0.1,0.6,0.5,1.2,1.3,1.6c1.5,0.8,4.3,1.2,8.5,1.2c6.3,0,11.5-1,15.4-3c1.4-0.7,2.5-1.5,3.2-2.4c0.6-0.7,0.9-1.4,1-2.1
			c0-0.7-0.3-1.5-1.2-2.4C296.8,431.3,295.7,430.4,294.4,429.5z"/>
		<path fill="#FFF8AD" d="M248.4,421.1c4.6-0.5,8.5-2.5,11.7-5.8c-1.3-3-2.9-6.4-4.7-10.3c-3.1,3.1-6.7,5-10.9,5.6
			C246.7,415.4,248,418.9,248.4,421.1z"/>
		<path d="M165.9,54.1c-1.3,0.5-2.7,1.2-4.2,2.1c-1.9,1.1-3.1,1.7-3.6,2c0.1,0.1,0.2,0.2,0.5,0.2c0.1,0,0.3,0.1,0.4,0.1
			c3.8-2,7.1-3.5,9.9-4.5c2.7-1,5.4-1.7,8-2.1c2.3-0.3,5.1-0.5,8.4-0.6c0.3,0,0.7,0,1.1,0c-0.5-0.2-0.9-0.5-1.1-0.7c0,0,0,0,0,0
			c-1.8,0-2.7,0.1-2.7,0.1C175.3,51.5,169.8,52.6,165.9,54.1z"/>
		<path d="M186,53.9l-0.1,0.2c2.4,1,4.9,3.4,7.4,7c2.5,3.7,4.4,7,5.6,10.1c0.3-0.1,0.5-0.1,0.6-0.3c-1.3-3.3-3.4-6.8-6.2-10.8
			c-3.1-4.3-5.4-6.4-7-6.4C186.2,53.9,186,53.9,186,53.9L186,53.9z"/>
		<path d="M147.6,51.3c2.7,0.5,5,0.9,6.9,1.1c1.9,0.2,3.5,0.4,4.8,0.6c1.3,0.1,1.9,0.1,1.8,0c-0.1-0.1-0.2-0.3-0.5-0.6
			c-1.9,0-3.7-0.1-5.4-0.5c-1.7-0.3-3.4-0.5-5.2-0.6C148.4,51.2,147.5,51.2,147.6,51.3C147.6,51.3,147.6,51.3,147.6,51.3z"/>
		<path d="M176.1,48.4c0.3,0.4,0.6,0.7,1.1,0.8c0.3-0.1,0.5-0.1,0.6-0.3c-0.3-0.4-1.3-1-3-1.9c-1.8-0.9-3.2-1.3-4-1.3
			c-0.1,0.1-0.3,0.1-0.3,0.1v0.3C174,47.3,175.9,48,176.1,48.4z"/>
		<path d="M157,47.8c1.5-0.1,3.9,0.1,7.2,0.9c3.3,0.7,4.8,1.4,4.4,2c0.4-0.1,0.6-0.2,0.6-0.5c-1.1-1.2-3.3-2.1-6.8-2.5
			c-1.1-0.1-2.3-0.2-3.5-0.2c-1,0-1.5,0-1.6,0c-0.3,0-0.4,0-0.4,0.1C157,47.7,157.1,47.7,157,47.8z"/>
		<path d="M165.8,59.3l-0.5,0.1c0.3,0.6,2.3,2.5,5.9,5.5c3.6,3,6.8,9.5,9.5,19.3l0.2-0.2c0-0.3-0.1-0.7-0.1-1.1
			C179.1,73.2,174.1,65.4,165.8,59.3z"/>
		<path fill="#7D1416" d="M176,56.2c0,0.1-0.1,0.3-0.1,0.4C175.9,57.1,176,56.9,176,56.2z"/>
		<path d="M176.4,56.1l-0.4,0.1c1.1,1.2,3.3,3.8,6.7,7.6c3.4,3.8,5.5,7.6,6.3,11.6c0.3-0.1,0.5-0.1,0.6-0.3c0-2.6-1.4-5.8-4.4-9.5
			C183.8,63.8,180.9,60.7,176.4,56.1z"/>
		<path fill="#F89C1C" d="M113.4,80.8c-2.6,0.1-4.6,0.5-5.8,1.1c-1.2,0.6-1.8,1.2-1.9,1.7c0,0.4,0,0.7,0,0.7
			c0.5,1.1,1.3,2.2,2.5,3.4c0.5,0.3,1.1,0.5,1.7,0.7C111.1,85.8,112.1,83.3,113.4,80.8z"/>
		<path d="M145.9,97.6c-0.3-1.3-0.8-2.5-1.6-3.7c-1.5-2.2-3.4-3.5-5.9-4c-0.1,0-0.3-0.1-0.4-0.1c-1.7-0.3-3.4-0.1-4.9,0.5
			c-0.7,0.3-1.3,0.6-2,1.1c-0.1,0-0.1,0.1-0.2,0.1c-0.3,0.1-0.9,0.7-1.9,1.8c-0.5,0.7-1,1.4-1.4,2.2c-0.4,0.9-0.7,1.8-0.9,2.9
			c0,0,0,0,0,0.1c-0.1,0.4-0.1,0.9-0.1,1.3c-0.1,1.3,0.1,2.5,0.5,3.6c0.2,0.6,0.5,1.3,0.8,1.8c0,0.1,0.1,0.1,0.1,0.1
			c0.1,0.2,0.3,0.5,0.4,0.7c0.1,0.1,0.2,0.3,0.3,0.4v0c0.6,0.7,1.1,1.3,1.6,1.7c0.1,0.1,0.3,0.2,0.4,0.3c0,0,0.1,0.1,0.1,0.1
			c0.8,0.5,1.6,0.9,2.5,1.2c0.1,0,0.3,0.1,0.4,0.1c0.3,0.1,0.6,0.1,0.9,0.2c2.6,0.4,5.1-0.2,7.3-1.9c0.2-0.1,0.4-0.3,0.6-0.5
			c0.5-0.4,0.9-0.8,1.2-1.3c1.1-1.4,1.8-3,2.1-4.9C146.2,100.2,146.2,98.8,145.9,97.6z M141.3,107.3c-0.1,0.1-0.2,0.1-0.2,0.2
			c-1.9,1.4-4,1.9-6.2,1.5c-0.4-0.1-0.7-0.2-1.1-0.3c-0.1-0.1-0.3-0.1-0.4-0.1c-1-0.4-1.9-0.9-2.7-1.7c-0.4-0.4-0.8-0.9-1.2-1.4
			c-0.1-0.1-0.1-0.2-0.2-0.3c-0.1,0-0.1-0.1-0.1-0.1c-0.2-0.3-0.3-0.6-0.5-0.9c-0.2-0.3-0.3-0.6-0.4-0.9c-0.1-0.4-0.3-0.8-0.4-1.2
			c0.4,0.1,0.7,0.2,1.1,0.3c0.5,0.1,0.7,0.2,0.8,0.3c4.5,1.6,9.3,1.8,14.3,0.7C143.6,105,142.6,106.3,141.3,107.3z M144.8,101.2
			c-0.1,0.4-0.1,0.8-0.3,1.1c-4,1.5-9.6,1.3-16.7-0.7c-0.2-1-0.1-2.1,0-3.1c0,0,0,0,0,0c0.2-1.1,0.5-2.1,0.9-2.9
			c0-0.1,0.1-0.1,0.1-0.2c0.5-0.9,1.1-1.7,1.9-2.3c0.1-0.1,0.3-0.3,0.5-0.4c0.5-0.4,1.1-0.7,1.7-1c1.5-0.6,3-0.8,4.7-0.6
			c0.2,0,0.4,0,0.6,0.1c2.1,0.4,3.7,1.5,5,3.3C144.8,96.4,145.3,98.6,144.8,101.2z"/>
		<path fill="#F8A770" d="M138.4,91.1c-0.2-0.1-0.4-0.1-0.6-0.1c-1.7-0.2-3.3,0-4.7,0.6c-0.6,0.3-1.1,0.6-1.7,1
			c-0.2,0.1-0.4,0.3-0.5,0.4c-0.8,0.7-1.4,1.4-1.9,2.3c0,0.1-0.1,0.1-0.1,0.2c-0.5,0.9-0.8,1.8-0.9,2.9c0,0,0,0,0,0
			c-0.2,1.1-0.2,2.1,0,3.1c7.1,2,12.7,2.3,16.7,0.7c0.1-0.4,0.2-0.7,0.3-1.1c0.4-2.5-0.1-4.8-1.5-6.8
			C142.1,92.6,140.5,91.5,138.4,91.1z"/>
		<path fill="#F8A770" d="M129.9,102.8c-0.1-0.1-0.3-0.2-0.8-0.3c-0.3-0.1-0.7-0.2-1.1-0.3c0.1,0.4,0.2,0.8,0.4,1.2
			c0.1,0.3,0.2,0.7,0.4,0.9c0.1,0.3,0.3,0.6,0.5,0.9c0,0.1,0.1,0.1,0.1,0.1c0,0.1,0.1,0.2,0.2,0.3c0.3,0.5,0.7,1,1.2,1.4
			c0.8,0.7,1.7,1.3,2.7,1.7c0.1,0.1,0.3,0.1,0.4,0.1c0.3,0.1,0.7,0.2,1.1,0.3c2.2,0.3,4.3-0.2,6.2-1.5c0.1-0.1,0.1-0.1,0.2-0.2
			c1.3-1,2.3-2.3,2.9-3.8C139.2,104.6,134.4,104.4,129.9,102.8z"/>
		<path d="M116.2,98.1c-0.2-1.1-0.6-2-1.3-3c-1.2-1.8-2.8-2.8-4.8-3.3c-0.1,0-0.2,0-0.3-0.1c-1.4-0.2-2.7-0.1-4,0.4
			c-0.5,0.2-1.1,0.5-1.6,0.9c-0.1,0-0.1,0.1-0.2,0.1c-0.2,0.1-0.7,0.5-1.5,1.4c-0.5,0.5-0.8,1.1-1.1,1.7c-0.3,0.7-0.6,1.5-0.7,2.3
			c0,0,0,0,0,0.1c-0.1,0.3-0.1,0.7-0.1,1c0,1,0.1,2,0.4,2.9c0.1,0.5,0.4,1,0.6,1.5c0,0,0.1,0.1,0.1,0.1c0.1,0.2,0.2,0.3,0.3,0.5
			c0.1,0.1,0.1,0.2,0.2,0.3v0c0.5,0.6,0.9,1.1,1.3,1.3c0.1,0.1,0.2,0.2,0.3,0.3c0,0,0.1,0.1,0.1,0.1c0.6,0.4,1.3,0.8,2,1
			c0.1,0.1,0.2,0.1,0.3,0.1c0.2,0.1,0.5,0.1,0.7,0.1c2.1,0.4,4.1-0.1,5.9-1.5c0.1-0.1,0.3-0.3,0.5-0.4c0.4-0.3,0.7-0.7,1-1
			c0.9-1.1,1.5-2.4,1.7-4C116.4,100.2,116.4,99.1,116.2,98.1z M112.5,105.9c-0.1,0-0.1,0.1-0.2,0.1c-1.5,1.1-3.2,1.5-5,1.2
			c-0.3,0-0.6-0.1-0.9-0.2c-0.1,0-0.2-0.1-0.3-0.1c-0.8-0.3-1.5-0.7-2.1-1.3c-0.3-0.3-0.7-0.7-0.9-1.1c-0.1-0.1-0.1-0.1-0.1-0.2
			c0-0.1-0.1-0.1-0.1-0.1c-0.1-0.3-0.3-0.5-0.4-0.7c-0.1-0.3-0.2-0.5-0.3-0.8c-0.2-0.5-0.3-0.9-0.4-1.4c4.2,1.6,8.6,2,13.3,1.2
			C114.5,103.9,113.7,105,112.5,105.9z M115.4,101c0,0.3-0.1,0.5-0.1,0.8c-5,0.8-9.5,0.3-13.6-1.4c0-0.5,0-1,0.1-1.5c0,0,0,0,0,0
			c0.1-0.9,0.4-1.7,0.8-2.3c0-0.1,0-0.1,0.1-0.1c0.4-0.7,0.9-1.3,1.5-1.9c0.1-0.1,0.3-0.2,0.5-0.3c0.4-0.3,0.9-0.6,1.3-0.7
			c1.2-0.5,2.4-0.7,3.8-0.5c0.1,0,0.3,0.1,0.5,0.1c1.7,0.3,3,1.2,4,2.7C115.3,97.2,115.7,99,115.4,101z"/>
		<path fill="#F8A770" d="M110.2,92.9c-0.2,0-0.3-0.1-0.5-0.1c-1.4-0.2-2.6,0-3.8,0.5c-0.5,0.2-0.9,0.4-1.3,0.7
			c-0.2,0.1-0.3,0.2-0.5,0.3c-0.6,0.5-1.1,1.1-1.5,1.9c0,0-0.1,0.1-0.1,0.1c-0.4,0.7-0.6,1.5-0.8,2.3c0,0,0,0,0,0
			c-0.1,0.5-0.1,1-0.1,1.5c4.1,1.8,8.6,2.3,13.6,1.4c0.1-0.3,0.1-0.5,0.1-0.8c0.3-2.1-0.1-3.9-1.1-5.5
			C113.2,94.1,111.8,93.2,110.2,92.9z"/>
		<path fill="#F8A770" d="M101.7,101.3c0.1,0.5,0.2,1,0.4,1.4c0.1,0.3,0.2,0.5,0.3,0.8c0.1,0.2,0.3,0.5,0.4,0.7c0,0,0.1,0.1,0.1,0.1
			c0,0.1,0.1,0.1,0.1,0.2c0.3,0.4,0.6,0.8,0.9,1.1c0.6,0.6,1.3,1.1,2.1,1.3c0.1,0.1,0.2,0.1,0.3,0.1c0.3,0.1,0.6,0.2,0.9,0.2
			c1.8,0.3,3.4-0.1,5-1.2c0.1-0.1,0.1-0.1,0.2-0.1c1.2-0.9,2-2.1,2.5-3.4C110.3,103.4,105.9,103,101.7,101.3z"/>
		<path fill="#FFFFFF" d="M279.2,348.7c2.9-2.4,5.6-5,8.3-7.8c-0.7-1.6-1.3-3.3-2-5c-3.2,3.3-6.4,6.3-9.7,9.1
			c-4.3,3.6-13.2,5-13.7,8c-1.4,7.8-20.6,11.2-31.7,16.6c-1.2,0.6-2.5,1.8-3.8,2.2c-6.3,2.1-12.7,1.7-19.1,2.6
			c-5.5,0.8-11.1,2.2-16.8,2.1c0.9,1.4,1.7,2.7,2.6,4c0.8,0,1.6,0.1,2.5,0.1c10.6,0.2,21.9-1.6,33.9-5.3c5-1.5,10-3.4,15.1-5.6
			c6.8-2.9,13.4-6.4,19.6-10.3C270.2,355.7,275.1,352.2,279.2,348.7z"/>
	</g>
</g>
<g id="Layer_13">
</g>
<g id="Layer_12">
</g>
<g id="Layer_14">
</g>
<g id="Layer_15">
</g>
<g id="Layer_16">
</g>
<g id="Layer_17">
</g>
<g id="Layer_18">
</g>
<g id="Layer_19">
</g>
<g id="Layer_20">
</g>
<g id="Layer_21">
</g>
<g id="Layer_22">
</g>
<g id="Layer_23">
</g>
<g id="Layer_24">
</g>
<g id="Layer_25">
</g>
<g id="Layer_26">
</g>
<g id="Layer_27">
</g>
<g id="Layer_28">
</g>
<g id="Layer_29">
</g>
<g id="Layer_30">
</g>
<g id="Layer_31">
</g>
<g id="Layer_32">
</g>
<g id="Layer_33">
</g>
<g id="Layer_34">
</g>
<g id="Layer_36">
</g>
<g id="Layer_35">
</g>
<g id="Layer_37">
</g>
<g id="Layer_38">
</g>
<g id="Layer_39">
</g>
<g id="Layer_40">
</g>
</svg>
