<?xml version="1.0" encoding="utf-8"?>
<!-- Generator: Adobe Illustrator 18.1.1, SVG Export Plug-In . SVG Version: 6.00 Build 0)  -->
<!DOCTYPE svg PUBLIC "-//W3C//DTD SVG 1.1//EN" "http://www.w3.org/Graphics/SVG/1.1/DTD/svg11.dtd">
<svg version="1.1" xmlns="http://www.w3.org/2000/svg" xmlns:xlink="http://www.w3.org/1999/xlink" x="0px" y="0px"
	 viewBox="0 0 393 483" enable-background="new 0 0 393 483" xml:space="preserve">
<g id="ziutek_x5F_01">
</g>
<g id="ziutek_x5F_02">
</g>
<g id="ziutek_x5F_03">
</g>
<g id="ziutek_x5F_04">
</g>
<g id="ziutek_x5F_05">
</g>
<g id="ziutek_x5F_06">
</g>
<g id="ziutek_x5F_07">
</g>
<g id="ziutek_x5F_08">
</g>
<g id="ziutek_x5F_09">
</g>
<g id="ziutek_x5F_10">
</g>
<g id="lady_x5F_01">
</g>
<g id="Layer_13">
</g>
<g id="Layer_12">
</g>
<g id="Layer_14">
</g>
<g id="Layer_15">
</g>
<g id="Layer_16">
</g>
<g id="Layer_17">
</g>
<g id="Layer_18">
</g>
<g id="Layer_19">
</g>
<g id="Layer_20">
</g>
<g id="Layer_21">
</g>
<g id="Layer_22">
</g>
<g id="Layer_23">
</g>
<g id="Layer_24">
</g>
<g id="Layer_25">
</g>
<g id="Layer_26">
</g>
<g id="Layer_27">
</g>
<g id="Layer_28">
</g>
<g id="Layer_29">
</g>
<g id="Layer_30">
</g>
<g id="Layer_31">
	<g>
		<g>
			<g>
				<path fill="#FFB24D" d="M138.8,219.9c0.8,18-29.2,32.1-25.3,41.9c6.6,16.7,27.9-6.8,31.5-14.7L138.8,219.9z"/>
				<path fill="#1D1D1D" d="M137.7,220c0.1,11-9.2,19.2-16.3,26.4c-3.9,3.9-11.8,10.5-8.5,16.8c8.2,15.6,29-7.6,33.1-16.1
					c0.5-1-1.7-0.9-2.1-0.2c-3.1,6.4-8.7,12.1-14.3,16.2c-3.2,2.4-7.7,5-11.6,2.9c-3.5-1.9-4.5-6.3-2.9-9.6
					c3.1-6.5,10.2-11.6,15-16.8c5.1-5.5,9.8-12.1,9.7-19.9C139.9,218.7,137.7,219.1,137.7,220L137.7,220z"/>
			</g>
			<g>
				<path fill="#E57F23" d="M291.2,292.5c-9.9-3.5-7.1,18.8-27,19c-19.4,0.2-19.7-14.5-18-19.5l-5.9,12c0.9,8.2,10.2,16.7,20.9,20.5
					C287.7,333.8,311.2,299.5,291.2,292.5z"/>
				<path fill="#1D1D1D" d="M239.1,304.3c1.7,10.3,11.9,17.2,21,20.6c6.4,2.4,13.4,2,19.8-0.2c9.8-3.2,25.2-16.7,18.2-28.2
					c-2-3.4-6.9-5.7-10.8-4.4c-4.2,1.5-6,7-8.1,10.4c-5.8,9.2-18.6,11.4-27.5,4.9c-4.7-3.4-6.2-10.3-4.5-15.7c0.1-0.4-2-0.2-2.1,0.4
					c-3.5,10.9,5.2,18.6,15.4,19.6c5.3,0.5,11.4-0.4,15.7-3.8c4.2-3.3,6.3-7.9,9.1-12.4c2-3.3,4-3.5,7.4-1.6
					c2.5,1.3,4.1,3.7,4.7,6.4c1.5,6.2-3,12.7-7.1,16.9c-7.1,7.2-17.3,9.9-27,7.2c-9.5-2.6-20.3-10.5-22-20.8
					C241.2,303.3,239.1,303.8,239.1,304.3L239.1,304.3z"/>
			</g>
			<g>
				<path fill="#FFB24D" d="M150.1,307.6c-17.9-10-12.3-46.9-12.4-74.1c0-18.3-2.8-42.8,0.7-57.4c3.1-12.8,13.1-16.9,24.4-18.9
					c6.8-1.2,12.6-2.9,21.6-3.7c12.5-1,18.9-1.2,26.8,0c17.6,2.8,28.6,14.2,35.2,39.2c7.4,28.1,11.3,81.4,0.8,101.5
					c-5,9.8-9.3,21.1-20.1,23.4c-8.1,2.4-21.7,1-30.3,0.1C181.5,316.6,166.5,316.8,150.1,307.6z"/>
				<path fill="#1D1D1D" d="M151.1,307.2c-8.4-5-11-14.9-12.2-24c-1.6-11.5-0.8-23.3-0.4-34.8c0.4-12.4,0.1-24.7-0.4-37.2
					c-0.5-12.4-1.7-26.2,2.2-38.2c4.5-13.8,20.2-15,32.3-17.5c12.8-2.6,27.1-3.7,40-1.2c22.7,4.4,30.7,27.6,34.8,47.5
					c3.2,15.2,4.7,30.8,5.1,46.3c0.4,13.9,0.1,28.9-4.6,42.2c-2.3,6.4-5.8,13-9.6,18.5c-6.8,9.9-18.4,10-29.3,9.4
					C189.4,317.2,168.7,316.7,151.1,307.2c-0.5-0.3-2.3,0.6-2.1,0.7c11.8,6.4,24.3,8.6,37.5,9.5c12,0.8,24.3,2.9,36.3,1.4
					c9.1-1.2,15-6,19.7-13.7c4.7-7.8,8.5-16.2,10.1-25.2c3.9-22,2.2-45.3-1.1-67.3c-2.9-19.2-7.4-43.1-25-54.4
					c-6.8-4.4-15.2-5.6-23.1-6c-11.1-0.5-22.5,0.9-33.3,3.1c-7.9,1.6-16.8,2.4-23.6,7.2c-8.1,5.7-10,14.7-10.7,24.1
					c-0.9,12.1,0.1,24.3,0.5,36.4c0.4,11,0,22-0.3,33c-0.5,15.8-3.1,42.2,13,51.8C149.6,308.3,151.3,307.4,151.1,307.2z"/>
			</g>
			<ellipse fill="#FD984C" cx="156.7" cy="199.3" rx="10" ry="7"/>
			<ellipse fill="#FD984C" cx="208.7" cy="200.1" rx="10" ry="7"/>
			<path fill="#F9A138" d="M245.2,213c-0.3-0.5-1.9,9.4-2,10c-2.8,25.6-1.9,46.8-23.5,65.5c-10.9,9.5-24.5,13.2-38.7,12.4
				c-7.1-0.4-14-1.9-20.9-3.5c-4.1-1-20.6-6.8-14.1,2.4c2,2.8,5.1,5.4,8.1,7.3c6.2,4,13.8,5.5,21,5.9c7.1,0.4,14.2-0.1,21.3,0
				c8.5,0.1,17.3,2.8,25.7,1.9c12.7-1.3,13.9-9.7,18.2-19c4.7-10.1,5.2-21.9,6.3-32.8C248.2,246.4,254,228.3,245.2,213z"/>
			<g>
				<path fill="#E57F23" d="M246.7,205.1c-1.2,4.1-3.3,9.9-5.9,13.3c-7.8,10.3-14.4,11.6-11.4,12.7c0.5,0.2,22.2-5.8,20.5-14.9
					L246.7,205.1z"/>
			</g>
			<g>
				<path fill="#E57F23" d="M250.7,231.2c-1.7,3.9-5.5,8.5-8.5,11.5c-9,9.3-15.6,9.8-12.8,11.2c0.4,0.2,22.7-3.1,22.1-12.3
					L250.7,231.2z"/>
			</g>
			<g>
				<path fill="#E57F23" d="M252.7,258.4c-2.3,3.6-7.1,9.9-10.6,12.4c-10.3,7.7-17,7.2-14.4,9.1c0.4,0.3,22.9,0.5,23.8-8.7
					L252.7,258.4z"/>
			</g>
			<g>
				<path fill="#E57F23" d="M248.4,286.9c-3.6,2.3-9,5.4-13.2,6.3c-12.6,2.7-18.4-0.6-16.9,2.2c0.2,0.4,20.6,10,25.2,2L248.4,286.9z
					"/>
			</g>
			<g>
				<path fill="#FFB24D" d="M234.3,314.8l-23.4,4.4c0.5,5.3,1.9,10.9,3.7,17.3c2.3,8.3,3.6,13.6,12.7,12
					C236,347.2,238.2,340.5,234.3,314.8z"/>
				<path fill="#1D1D1D" d="M209.7,319.5c0.6,5.9,2.1,11.6,3.7,17.3c0.9,3.3,1.7,6.6,3.6,9.5c2.9,4.3,9.4,3.4,13.6,1.9
					c3.5-1.3,5.3-4.5,6.1-7.9c1.9-8.2-0.1-17.7-1.3-25.8c-0.1-0.8-2.3-0.3-2.2,0.6c1,7,2.1,14,1.8,21.1c-0.1,3.7-0.7,8.2-4.1,10.5
					c-5.3,3.6-11.4,0.9-13.6-4.6c-2.9-7.2-4.6-15.5-5.4-23.1C211.8,318.2,209.7,318.7,209.7,319.5L209.7,319.5z"/>
			</g>
			<g>
				<path fill="#FFB24D" d="M229.3,134c0,0-14.3,3.9-19.3,19.1l26.9,15.5C237.2,156.6,236.3,144.9,229.3,134z"/>
				<path fill="#1D1D1D" d="M211.1,152.9c2.9-8.3,9.6-16,18.3-18.5c-0.4,0-0.8-0.1-1.2-0.1c6.5,10.6,7.9,22.3,7.6,34.6
					c0,0.5,2.2,0.1,2.2-0.6c0.3-12.2-1.1-24-7.6-34.6c-0.2-0.4-0.9-0.2-1.2-0.1c-9.5,2.7-17,10.5-20.2,19.7
					C208.7,153.8,210.9,153.6,211.1,152.9L211.1,152.9z"/>
			</g>
			<g>
				<path fill="#E57F23" d="M170.3,156.9c-4.2,4.6-2,11.2,6.5,12.5c15.3,2.4,21.3-6.6,20.4-15.3
					C192.1,152.7,170.3,156.9,170.3,156.9z"/>
			</g>
			<g>
				<path fill="#FFF3E3" d="M218.9,158.1c2.4-14.4,8.7-21.2,8.7-21.2c5.3,6.7,7.8,21.8,6.1,29.7L218.9,158.1z"/>
			</g>
			<path fill="#1D1D1D" d="M218.7,157.6c2.7-8,4.9-16.1,9.7-23.1c0.3-0.4-0.4-0.5-0.6-0.2c-4.8,7.1-7,15.2-9.8,23.3
				C217.9,157.9,218.6,157.9,218.7,157.6L218.7,157.6z"/>
			<path fill="#1D1D1D" d="M169.9,156.6c-3.7,5.7-1.1,11.4,5.2,13.2c5.2,1.4,11.3,0.7,16.1-1.7c5.9-3,4.7-8,6.5-13.2
				c0.1-0.4-0.6-0.4-0.7-0.1c-1.5,4.3-0.5,8.1-4.3,11.6c-4.1,3.7-11,3.8-16.1,3.1c-6.7-0.9-9.8-7-6.1-12.7
				C170.7,156.4,170.1,156.3,169.9,156.6L169.9,156.6z"/>
			<path fill="#1D1D1D" d="M245.9,206.5c-1.4,5.9-5.8,11.3-9.1,16.3c-0.3,0.4-8.3,8.4-8.4,8.3c2,1.2,7.4-1.8,9.1-2.5
				c4.5-2,10-5,12.7-9.3c0-0.1-0.6,0-0.7,0.1c-2.7,4.2-8.1,6.9-12.4,9.1c-2.2,1.1-10.2,3.4-6.2,0.4c1.3-1,2.6-1.9,3.8-2.9
				c2.5-2.2,4.1-5.5,5.9-8.2c2.3-3.7,5-7.1,6-11.4C246.6,206.2,245.9,206.3,245.9,206.5L245.9,206.5z"/>
			<path fill="#1D1D1D" d="M248.1,264.4c-4.9,7.2-13.6,11.4-21.5,14.5c-0.1,0-0.3,0.3-0.1,0.4c3.3,1.5,7.7,1,11.2,0.7
				c4.2-0.4,9-1.3,12.3-4.1c0.3-0.3-0.4-0.3-0.6-0.2c-4,3.3-9.9,3.8-14.9,4.1c-2.2,0.1-4.5,0-6.6-0.5c-1.4-0.3,1.3-0.9,2.1-1.3
				c6.9-3,14.4-7.1,18.7-13.5C249,264.1,248.2,264.1,248.1,264.4L248.1,264.4z"/>
			<path fill="#1D1D1D" d="M247,287.3c-4.6,3.8-9.7,6.1-15.7,7c-3.4,0.5-9.3,0.8-12.7-0.2c-0.2,0-0.8,0.1-0.5,0.4
				c5.7,6.5,17.6,7.9,25.4,5.2c0.4-0.1,0.3-0.6-0.1-0.4c-6.2,2.2-14.8,1.2-20.7-1.7c-1.1-0.6-2.2-1.4-3-2.4
				c-0.9-0.8-1.6-0.6-0.4-0.3c1.6,0.4,3.4,0,5,0.1c8.7,0.4,16.5-1.6,23.3-7.3C247.9,287.2,247.3,287.1,247,287.3L247,287.3z"/>
			<g>
				<path fill="#FFB24D" d="M147.1,305.7c-1.1,26.8-2,33.8,7.8,34.9c7.1,0.8,12.4-1.4,16.9-25.5L147.1,305.7z"/>
				<path fill="#1D1D1D" d="M146,305.9c-0.4,9-1.6,18.6-0.1,27.6c0.7,4.4,3.3,6.9,7.7,7.6c14.6,2.5,17.3-15.6,19.3-26.2
					c0.2-0.8-2-0.4-2.2,0.3c-1.7,9.2-4.2,28.7-17.9,24.2c-3.8-1.2-4.6-5.4-5-8.9c-0.9-8.2,0.1-16.7,0.4-25
					C148.2,304.7,146,305.2,146,305.9L146,305.9z"/>
			</g>
			<g>
				<g>
					<path fill="#FFB24D" d="M140.2,144.4c-2.8,5.2-3.3,21.9-1.6,30.6l24.9-17.9C155.7,150.5,151.4,148.7,140.2,144.4z"/>
					<path fill="#1D1D1D" d="M164.5,156.6c-7.1-5.9-14.8-9.5-23.4-12.8c-0.6-0.2-1.6-0.1-1.9,0.5c-4.2,8.7-3.4,21.7-1.7,31
						c0.2,0.8,2.3,0.3,2.2-0.6c-1.6-9-2.6-21.8,1.6-30.3c-0.6,0.2-1.3,0.3-1.9,0.5c8.5,3.3,16.1,6.8,23.1,12.6
						C163.1,158.1,165.2,157.2,164.5,156.6L164.5,156.6z"/>
				</g>
				<g>
					<path fill="#FFF3E3" d="M151.1,160.7c-1.5-14.6-9.6-13.5-9.6-13.5c-3.2,8.9-2.2,21.8,0.2,24.8L151.1,160.7z"/>
				</g>
				<path fill="#1D1D1D" d="M141.3,146.4c2.4,2.1,4.7,4.2,6.6,6.8c0.7,0.9,4,6.4,3,7.5c-2.6,2.8-5.1,5.9-7,9.2
					c-0.1,0.1,0.6,0.1,0.7-0.1c1.5-2.5,3.2-4.7,5.1-7c0.2-0.3,2.1-2,2-2.3c-1.3-6.2-4.9-10.2-9.6-14.3
					C141.8,146,141.2,146.3,141.3,146.4L141.3,146.4z"/>
			</g>
			<g>
				<path fill="#FFB24D" d="M237.8,234l-11.7,15.6c13.5,16.9,19,32.3,31.2,26.6C270.9,268.7,243.7,242.5,237.8,234z"/>
				<path fill="#1D1D1D" d="M225.1,250.1c4.3,5.5,8.2,11.3,12.3,16.9c2.8,3.9,5.9,8,10.3,10.2c4.7,2.4,12.9,0.5,14.2-5.2
					c1.5-6.8-3.9-14.1-7.6-19.2c-4.8-6.7-10.7-12.5-15.4-19.3c-0.5-0.8-2.6,0-2,0.9c7.3,10.4,17.9,19.1,22.3,31.3
					c3,8.5-4.9,13.9-12.3,8.6c-3.8-2.7-6.5-7.1-9.2-10.8c-3.4-4.9-6.8-9.7-10.5-14.4C226.5,248.4,224.5,249.2,225.1,250.1
					L225.1,250.1z"/>
			</g>
			<g>
				<g>
					<path fill="#EDE1CF" d="M161.4,305.4c-8-4.5-10.2-27.5-6.9-34.4c4.9-12.4,21.5-14.3,32.9-13c16.9,2.5,20.7,11.1,19.7,26.6
						c-0.2,6,0.5,17-3.6,20.9C197.2,311.4,170.1,310.4,161.4,305.4z"/>
				</g>
				<path fill="#FFF3E3" d="M195.9,268.3c-3.6-9.3-15.2-12.5-24.9-7.5c-1.9,1-3.6,2.3-4.9,3.8c-2.7,1.2-5.1,3.2-6.9,5.9
					c-1.2,1.6-2,3.3-2.4,5c-2.5,7.1-3.2,16.7,2.4,22c6.2,5.8,16.4,4.4,23.3,0.6C191.1,293.3,203.4,278.1,195.9,268.3z"/>
				<path fill="#1D1D1D" d="M157.8,301.6c-5.3-13.3-6.5-30.6,6.3-40c12-8.8,34.3-7,39.5,8.4c1.9,5.6,2.4,11.7,2.7,17.5
					c0.2,5.3,0.7,12.7-3.2,16.8c-4.9,5.1-14.1,5.9-20.8,6.1c-6.8,0.2-14.1-0.9-20-4.4c-0.2-0.1-0.8,0.2-0.7,0.3
					c10.4,6,26.8,6.4,37.5,1c5.5-2.7,7.1-6.3,7.7-12.3c0.8-8.3-0.1-17.3-2.5-25.3c-4.6-15.1-23.5-15.7-36-10.9
					c-17.5,6.7-17.2,28.3-11.3,42.9C157.1,302,157.8,301.8,157.8,301.6L157.8,301.6z"/>
				<path fill="#1D1D1D" d="M173.9,279c-0.4-1.7-2.3-0.9-2.8,0.3c-0.6,1.5,0.6,3,2,1.9C173.9,280.7,174.1,279.7,173.9,279z"/>
			</g>
			<path fill="#1D1D1D" d="M245,240.3c2.5-2.4,4.5-5.1,6-8.2c0.2-0.4-0.6-0.4-0.7-0.1c-1.5,3.1-3.5,5.8-6,8.1
				C244,240.4,244.7,240.5,245,240.3L245,240.3z"/>
			<path fill="#1D1D1D" d="M249.4,246.8c1.3-0.8,2.1-2.4,2.6-3.8c0.1-0.4-0.6-0.3-0.7-0.1c-0.5,1.3-1.2,2.8-2.4,3.6
				C248.5,246.8,249.1,247,249.4,246.8L249.4,246.8z"/>
			<g>
				<path fill="#1D1D1D" d="M155.7,171.9c2.1-2.5,5-3,8.1-2.6c0.7,0.1,2.6-1,1.3-1.2c-4.3-0.6-8.6,0.3-11.4,3.7
					C153.1,172.6,155.2,172.5,155.7,171.9L155.7,171.9z"/>
				<path fill="#1D1D1D" d="M203.1,166.5c3-1,5.6-0.1,7.9,1.9c0.4,0.4,2.3-0.5,2.1-0.7c-3.2-2.8-6.8-3-10.7-1.6
					C200.9,166.6,202.3,166.8,203.1,166.5L203.1,166.5z"/>
				<g>
					<path fill="#EDE1CF" d="M172.7,212.2c0,0,2.4,11.6,8.6,11.9c6.6,0.3,9.8-11.3,9.8-11.3c-8.3-9.2-9.2-6.1-10.2-7.8
						C180.4,204.3,172.7,212.2,172.7,212.2z"/>
					<path fill="#DB6E6E" d="M174.8,212.8c0,0,1.8,9.2,6.4,9.3c5.5,0.1,8.5-8.7,8.5-8.7c-8.3-9.2-8-8.7-8.9-10.4
						C180.3,202.3,174.8,212.8,174.8,212.8z"/>
					<path fill="#FFF3E3" d="M193.6,203.8c-2.1-2.7-6.3-4.2-9.4-2.7c-1.5,0.7-3.6,2.9-2.9,4.8c0-0.1,0-0.1-0.1-0.2
						c-1.6-3.8-5.4-6.4-9.5-4.2c-2.7,1.4-3.7,4.3-3.2,7.2c0.9,5.2,7.3,5.7,10.3,2.5c0.9-1,1.8-2.8,2-4.1c0.1,0.2,1,1.9,1.1,2.2
						c0.2,2.4,1.3,4.7,6.9,4.4c1.5-0.1,4.1-2.2,5-3.5C195.1,207.9,194.9,205.5,193.6,203.8z"/>
					<path fill="#1D1D1D" d="M179.9,205.5c-0.1,2.7-0.1,5.2-2.8,6.6c-4.7,2.3-8.4-1.7-7.9-6.1c0.1-0.6-1.4-0.3-1.4,0.2
						c-0.5,5.1,3.3,8.1,8.1,7.2c4.4-0.8,5.4-4,5.5-8C181.4,204.7,179.9,205,179.9,205.5L179.9,205.5z"/>
					<path fill="#1D1D1D" d="M180.6,205.8c0.1,5,3.3,9,8.5,8.6c5-0.4,7-4.8,6.2-9.3c-0.1-0.7-1.6-0.3-1.4,0.4
						c0.7,3.7-0.5,7.3-4.6,7.8c-4.4,0.6-7-3.7-7.1-7.6C182,204.9,180.5,205.1,180.6,205.8L180.6,205.8z"/>
					<g>
						<path fill="#FF99C3" d="M180.7,205.6c1-0.1,6.3-4,5.2-4.6c-1-0.6-8.3-0.8-8.9,0.1C176.3,202.1,180.2,205.6,180.7,205.6z"/>
						<path fill="#1D1D1D" d="M180.8,206c1.9-0.3,4.7-2.6,5.7-4.2c1.2-2-3.2-1.8-4.2-1.9c-1.1,0-5.9-0.5-6.1,1.3
							c-0.2,1.7,2.6,4.6,4.2,4.8c0.7,0.1,1.5-0.8,0.5-1c-0.5-0.1-1.2-1-1.5-1.3c-0.7-0.6-1.3-1.4-1.7-2.2c-0.3-0.7,1.1-0.6,1.6-0.6
							c1-0.1,2.1,0,3.1,0c0.7,0,1.5,0.1,2.2,0.2c0.9,0.1,0.5,0.4,0,1c-0.9,1-2.7,2.7-4.2,3C179.7,205.3,179.9,206.2,180.8,206z"/>
					</g>
					<path fill="#545454" d="M204.9,203.1c20.2-4.8,42-6,62,0.3c0.6,0.2,1.7-0.7,0.8-1c-20.4-6.4-42.6-5.2-63.1-0.3
						C203.7,202.3,204,203.3,204.9,203.1L204.9,203.1z"/>
					<path fill="#545454" d="M203.3,207.8c6.4-3,15.6-2.7,22.4-2.7c16.4,0,32.7,3.6,47.9,9.7c0.5,0.2,1.8-0.5,1.1-0.7
						c-15.5-6.3-31.8-9.7-48.5-9.9c-7.3-0.1-16.8-0.3-23.6,2.9C201.8,207.6,202.6,208.2,203.3,207.8L203.3,207.8z"/>
					<path fill="#545454" d="M104.3,220.7c8.5-4.4,17.2-7.9,26.6-9.7c8.9-1.7,18.2-1.6,27.2-1.4c0.5,0,1.6-0.8,0.6-0.8
						c-9.7-0.2-19.4-0.1-28.9,1.7c-9.3,1.7-18,5.5-26.3,9.8C102.5,220.7,103.8,220.9,104.3,220.7L104.3,220.7z"/>
					<path fill="#545454" d="M93.9,209.1c21.2-6.8,41.9-7.2,63.8-4.5c0.7,0.1,1.5-0.9,0.5-1c-22.2-2.7-43.1-2.3-64.6,4.6
						C92.7,208.4,93,209.4,93.9,209.1L93.9,209.1z"/>
					<g>
						<path fill="#FF8F8F" d="M177.9,219.6c0,0,3.8,4.2,7.8,0.1l0.1-0.8C183.1,216.7,179.2,218,177.9,219.6z"/>
					</g>
				</g>
				<path fill="#1D1D1D" d="M195.6,191.3c0.2-3.8,2.7-7.3,6.8-7.4c4.4-0.1,6.6,4,6.9,7.9c0.1,1.3,4.5,0.4,4.3-1.2
					c-0.9-13.4-21.7-10.9-22.4,1.2C191.2,193.6,195.5,192.7,195.6,191.3L195.6,191.3z"/>
				<path fill="#1D1D1D" d="M153.1,192.2c0.2-3.9,2.6-7,6.6-7.4c4.4-0.4,6.7,3.8,7,7.6c0.1,1.6,4.5,0.7,4.3-1.2
					c-1.1-13.4-21.9-10.9-22.4,1.5C148.7,194.7,153.1,193.9,153.1,192.2L153.1,192.2z"/>
			</g>
			<g>
				<path fill="#FF5050" d="M110.3,244.5c0.3-0.3-1.1-0.8-1.4-0.4c-0.1,0.1-0.2,0.2-0.3,0.4c-0.2,0-0.3,0-0.4,0
					c-2.3,1.2-7.1,7.4-3.9,9.6c1.5,1,3.5,0.8,4.1-0.9C109.5,250.5,108.2,246.7,110.3,244.5z"/>
				<path fill="#4A934A" d="M123.5,283.5c5.5-15-2.3-31-14-40.5c-0.4-0.4-1.8,0.2-1.3,0.6c11.6,9.4,19.4,25.1,13.9,40
					C121.8,284.2,123.3,284,123.5,283.5L123.5,283.5z"/>
				<path fill="#FF5050" d="M109.8,231.9c-1-1.8-2.6-4.7-4-4.8c-2.2-0.3-1.9,1.7-3.5,2.4c-3.7,1.7-6.3,5.4-7.5,9.2
					c-0.8,2.6,1.5,3.2,3.4,3.2c-1.9,4.9,1.8,4.9,4.2,5.1c2.3,0.2,4.7,0.4,6.1-1.1c0.1,0,0.2-0.1,0.3-0.1c0.4-0.2,0.8-0.5,1.1-0.8
					c0.6,0.3,1.4-1.3,1.6-1.7C114.2,238.6,112.1,236.1,109.8,231.9z"/>
				<path fill="#FF7373" d="M105.4,231.1c-0.1,0-0.1,0-0.2,0.1c-0.7-0.2-1.6-0.1-2.2,0.1c-1.3,0.4-2.5,1.7-3.2,2.9
					c-0.5,1-1,2.2-0.4,3.3c0.7,1.3,2.7,1.1,3.7,0.5c1-0.6,2.1-1.8,2.8-3.1c0,0.3,0,0.6-0.1,1c-0.5,1.5-2.4,3.6-1.9,5.4
					c0.5,1.7,1.9,2.4,3.4,2.2c0.8,0.2,1.4-0.1,1.8-0.7c0.1,0,0.1-0.1,0.2-0.1c0.3-0.2,0.7-1.3,0.7-1.6c0.2-0.7,0.3-1.4,0.4-2
					C110.8,235.5,109.6,231.3,105.4,231.1z"/>
				<g>
					<path fill="#1D1D1D" d="M104.2,245c-0.3,0-0.6,0-0.8,0.2c-4.1,4.5-7.3-2.7-4.1-3.3c0.1,0,0.5-0.2,0.1-0.2
						c-3.9,0.2-5.6-1.1-3.7-4.6c1.5-2.8,9-11.7,11.7-5.6c0.8,1.7-0.7,3.8-1.8,5c-1.6,1.8-8.1,4.7-7,0.6c0.3-1.1,1.2-2,2-2.8
						c4.4-4.3,5.7,2,2,2.6c-0.1,0-0.2,0.1,0,0.1c1.7-0.2,4.3-4.1,1.8-4.5c-2.5-0.3-5,2.2-6,4.2c-1.7,3.2,2.5,2.9,4.2,2.2
						c3.1-1.2,8-6,4.2-9.1c-2.8-2.2-6.7,1.4-8.5,3.2c-1.2,1.2-6.6,7.6-2.6,8.6c1,0.2,3.6-0.3,2.2,0.6c-1.1,0.7-0.5,2.7,0.2,3.4
						c0.9,0.9,2.1,1.8,3.5,1.4c0.8-0.2,2-1.9,2.4-1.9C104,245.1,104.3,245,104.2,245L104.2,245z"/>
					<path fill="#1D1D1D" d="M102.5,247c2.8-0.2,7-1.1,8.8-3.6c2.4-3.2,1.3-6.4-0.2-9.7c-1.1-2.5-5.9-10.6-8.1-4.4
						c0,0.1,0.3,0,0.4-0.1c2.6-5.2,6.3,2.8,7.4,5.2c0.6,1.2,1,2.5,1.4,3.8C113.7,243.9,106.8,246.5,102.5,247
						C102.5,246.9,102.3,247,102.5,247L102.5,247z"/>
					<path fill="#1D1D1D" d="M108.1,245.6c-1.9,0.8-7,9-3.2,9.2c1.7,0.1,4-0.8,4.4-2.6c0.5-2.1-2.3-5.5-0.1-7c0.1-0.1-0.2,0-0.2,0
						c-1.3,0.8-1.1,2.1-0.7,3.4c0.8,2.8,1.4,5.2-2.4,6c-2.9,0.6-1.9-2.9-1.3-4.3c0.7-1.7,1.9-3.9,3.6-4.7
						C108.4,245.5,108.2,245.5,108.1,245.6L108.1,245.6z"/>
					<path fill="#1D1D1D" d="M109.7,243.9c-1.7,0.8-3.6,0.2-4.9-1.1c-1.4-1.4,0.1-3.4,1.1-4.5c1.5-1.5,2.7-3.4,2.1-5.6
						c0-0.1-0.2,0-0.2,0.1c0.1,2.9-1.6,4.1-3.1,6.3c-0.7,1-1.5,2.5-0.7,3.6c1.2,1.6,4,2.6,5.7,1.3
						C109.9,243.9,109.8,243.9,109.7,243.9L109.7,243.9z"/>
					<path fill="#1D1D1D" d="M110.9,244.3c10.3,10.4,18,25.1,12.2,39.7c-0.1,0.3,0.5,0.2,0.5,0c5.9-14.1-1.7-30.3-12.5-39.9
						C111,244.1,110.8,244.2,110.9,244.3L110.9,244.3z"/>
				</g>
			</g>
			<g>
				<path fill="#FFB24D" d="M122.3,251c-2,1.7-5.3,3.8-4.3,6c1.5,3.4,5.3-0.3,7-2.7L122.3,251z"/>
				<path fill="#1D1D1D" d="M121.8,251c-1.5,1.2-3.2,2.3-4.2,4c-0.7,1.1-0.5,2.9,0.9,3.5c2.8,1.3,5.9-2.2,7.3-4.2
					c0.3-0.5-1.1-0.3-1.3,0c-1.1,1.5-4.1,5.4-5.6,2.5c-1.1-2.3,2.8-4.6,4.2-5.7C123.5,250.6,122.1,250.7,121.8,251L121.8,251z"/>
			</g>
		</g>
	</g>
</g>
<g id="Layer_32">
</g>
<g id="Layer_33">
</g>
<g id="Layer_34">
</g>
<g id="Layer_36">
</g>
<g id="Layer_35">
</g>
<g id="Layer_37">
</g>
<g id="Layer_38">
</g>
<g id="Layer_39">
</g>
<g id="Layer_40">
</g>
</svg>
