<?xml version="1.0" encoding="utf-8"?>
<!-- Generator: Adobe Illustrator 18.1.1, SVG Export Plug-In . SVG Version: 6.00 Build 0)  -->
<!DOCTYPE svg PUBLIC "-//W3C//DTD SVG 1.1//EN" "http://www.w3.org/Graphics/SVG/1.1/DTD/svg11.dtd">
<svg version="1.1" xmlns="http://www.w3.org/2000/svg" xmlns:xlink="http://www.w3.org/1999/xlink" x="0px" y="0px"
	 viewBox="0 0 393 483" enable-background="new 0 0 393 483" xml:space="preserve">
<g id="ziutek_x5F_01">
</g>
<g id="ziutek_x5F_02">
</g>
<g id="ziutek_x5F_03">
</g>
<g id="ziutek_x5F_04">
</g>
<g id="ziutek_x5F_05">
</g>
<g id="ziutek_x5F_06">
</g>
<g id="ziutek_x5F_07">
</g>
<g id="ziutek_x5F_08">
</g>
<g id="ziutek_x5F_09">
</g>
<g id="ziutek_x5F_10">
</g>
<g id="lady_x5F_01">
</g>
<g id="Layer_13">
</g>
<g id="Layer_12">
</g>
<g id="Layer_14">
</g>
<g id="Layer_15">
</g>
<g id="Layer_16">
</g>
<g id="Layer_17">
</g>
<g id="Layer_18">
</g>
<g id="Layer_19">
</g>
<g id="Layer_20">
</g>
<g id="Layer_21">
</g>
<g id="Layer_22">
</g>
<g id="Layer_23">
</g>
<g id="Layer_24">
</g>
<g id="Layer_25">
</g>
<g id="Layer_26">
</g>
<g id="Layer_27">
</g>
<g id="Layer_28">
</g>
<g id="Layer_29">
</g>
<g id="Layer_30">
</g>
<g id="Layer_31">
</g>
<g id="Layer_32">
</g>
<g id="Layer_33">
</g>
<g id="Layer_34">
</g>
<g id="Layer_36">
</g>
<g id="Layer_35">
</g>
<g id="Layer_37">
</g>
<g id="Layer_38">
	<g>
		<g>
			<g>
				<path fill-rule="evenodd" clip-rule="evenodd" fill="#FFFFFF" d="M310.1,298.2c-0.6,3.4-3.4,5.9-6.8,6.1
					c-0.1,1.7-0.9,3.3-2.2,4.4c-2,1.7-4.7,2-7,0.9c-2.9,3.3-7.9,3.9-11.5,1.3c-2.1-1.5-3.3-3.8-3.5-6.1c-0.6,0.1-1.2,0.3-1.8,0.3
					c-5.6,0.4-10.5-3.8-10.9-9.4c-0.4-5.6,3.8-10.5,9.4-10.9c0.7-0.1,1.5,0,2.2,0.1c0.2-0.4,0.4-0.9,0.6-1.3
					c1.3-2.1,3.8-3.1,6.1-2.8c0-0.1,0-0.1,0.1-0.2c1.2-3.1,4.7-4.7,7.8-3.4c2.2,0.9,3.6,2.9,3.8,5.1c1.5-0.5,3.2,0,4.2,1.4
					c0.9,1.4,0.7,3.1-0.3,4.3c0.5,0.5,0.8,1.2,1,1.9c0.9-0.2,1.8-0.2,2.7-0.1C308,290.5,310.7,294.2,310.1,298.2L310.1,298.2z"/>
				<g>
					<path fill-rule="evenodd" clip-rule="evenodd" d="M310.1,298.2c-0.6,3.6-3.8,6.2-7.4,6.1l0.1-0.6c2.9-0.4,5.4-2.6,5.9-5.7
						c0.6-3.7-1.9-7.3-5.7-7.9c-0.8-0.1-1.6-0.1-2.3,0c1.1-0.4,2.2-0.5,3.4-0.3C308,290.5,310.7,294.2,310.1,298.2L310.1,298.2z"/>
					<path fill-rule="evenodd" clip-rule="evenodd" d="M301.5,291c0,1.3-0.6,2.5-1.5,3.4c0.6-0.8,0.9-1.8,0.9-2.9
						c0-1.2-0.4-2.3-1.1-3.2l0.4-0.4C301,288.7,301.5,289.8,301.5,291L301.5,291z"/>
					<path fill-rule="evenodd" clip-rule="evenodd" d="M282.7,310.9c-3.8-2.8-4.7-8.1-1.9-12c0.8-1.2,1.9-2,3.1-2.6
						c-0.7,0.5-1.4,1.1-2,1.9c-2.6,3.6-1.8,8.7,1.8,11.3c3.6,2.6,8.7,1.8,11.3-1.8c0.6-0.8,1-1.6,1.2-2.5c-0.2,1.3-0.7,2.6-1.5,3.8
						C291.9,312.8,286.5,313.7,282.7,310.9L282.7,310.9z"/>
					<path fill-rule="evenodd" clip-rule="evenodd" d="M266.5,295.7c-0.4-5.6,3.8-10.5,9.4-10.9c1-0.1,2,0,2.9,0.2l-0.1,0.3
						c-0.4,0-0.9,0-1.3,0c-5.3,0.4-9.3,5-8.9,10.3c0.4,5.3,5,9.3,10.3,8.9c0.4,0,0.8-0.1,1.3-0.2l0,0.3c-0.8,0.3-1.7,0.5-2.7,0.6
						C271.8,305.5,266.9,301.3,266.5,295.7L266.5,295.7z"/>
					<path fill-rule="evenodd" clip-rule="evenodd" d="M278.7,283.6c1.8-2.9,5.6-3.7,8.4-1.9c1.5,1,2.5,2.5,2.8,4.2
						c-0.3-1.3-1.2-2.6-2.4-3.4c-2.6-1.7-6.1-0.9-7.7,1.7c-1.7,2.6-0.9,6.1,1.7,7.7c1.3,0.8,2.7,1,4.1,0.8c-1.6,0.5-3.4,0.3-5-0.7
						C277.7,290.2,276.9,286.4,278.7,283.6L278.7,283.6z"/>
					<path fill-rule="evenodd" clip-rule="evenodd" d="M291.1,285.7c0.9,0.5,1.5,1.3,1.8,2.2c-0.4-0.7-0.9-1.3-1.7-1.7
						c-1.7-0.9-3.7-0.4-4.9,1l0,0C287.2,285.5,289.3,284.8,291.1,285.7L291.1,285.7z"/>
					<path fill-rule="evenodd" clip-rule="evenodd" d="M301.1,308.7c-2.1,1.8-5,2-7.3,0.7l0.7-0.6c1.9,0.7,4.1,0.3,5.8-1.1
						c2.5-2.1,2.7-5.8,0.6-8.3c-1-1.2-2.4-1.9-3.9-2c1.8,0,3.5,0.8,4.8,2.2C304.1,302.4,303.8,306.4,301.1,308.7L301.1,308.7z"/>
					<path fill-rule="evenodd" clip-rule="evenodd" d="M292.7,277.1c-3.1-1.2-6.6,0.3-7.8,3.4c-0.1,0.2-0.2,0.4-0.2,0.7l0.3,0.1
						c1.2-2.8,4.4-4.2,7.3-3c2,0.8,3.3,2.5,3.6,4.5l0.2-0.2l0.5-0.1C296.4,280.2,295,278,292.7,277.1L292.7,277.1z"/>
					<path fill-rule="evenodd" clip-rule="evenodd" d="M300.7,283.7c1.1,1.7,0.6,3.9-1.1,4.9c-0.9,0.6-1.9,0.7-2.9,0.4
						c0.8,0.2,1.6,0,2.4-0.5c1.5-1,2-3,1-4.5s-3-2-4.5-1c-0.7,0.5-1.2,1.2-1.4,2c0.2-1,0.7-1.9,1.6-2.5
						C297.4,281.5,299.6,282,300.7,283.7L300.7,283.7z"/>
				</g>
			</g>
			<g>
				<path fill-rule="evenodd" clip-rule="evenodd" fill="#FFFFFF" d="M178,363.1c0-2.4,1.8-4.4,4-4.9c-0.1-1.2,0.3-2.3,1.1-3.3
					c1.2-1.4,3.1-1.9,4.7-1.4c1.7-2.6,5-3.5,7.8-2.1c1.6,0.8,2.7,2.3,3.1,3.9c0.4-0.2,0.8-0.3,1.2-0.4c3.8-0.9,7.6,1.5,8.5,5.4
					c0.9,3.8-1.5,7.6-5.4,8.5c-0.5,0.1-1,0.2-1.5,0.2c-0.1,0.3-0.2,0.6-0.3,0.9c-0.7,1.6-2.3,2.6-3.9,2.6c0,0.1,0,0.1,0,0.2
					c-0.5,2.3-2.8,3.7-5,3.2c-1.6-0.4-2.8-1.6-3.2-3.1c-1,0.5-2.3,0.3-3-0.6c-0.8-0.9-0.8-2.1-0.2-3c-0.4-0.3-0.7-0.7-0.9-1.2
					c-0.6,0.2-1.2,0.3-1.8,0.3C180.2,368.2,178,365.9,178,363.1L178,363.1z"/>
				<g>
					<path fill-rule="evenodd" clip-rule="evenodd" d="M178,363.1c0-2.6,2-4.7,4.5-5l0,0.5c-2,0.6-3.4,2.4-3.4,4.6
						c0,2.6,2.1,4.8,4.7,4.8c0.6,0,1.1-0.1,1.6-0.3c-0.7,0.4-1.5,0.6-2.3,0.5C180.2,368.2,178,365.9,178,363.1L178,363.1z"/>
					<path fill-rule="evenodd" clip-rule="evenodd" d="M184.6,367.2c-0.1-0.9,0.1-1.8,0.7-2.5c-0.3,0.6-0.4,1.4-0.3,2.1
						c0.1,0.8,0.5,1.6,1.1,2.1l-0.3,0.3C185.2,368.7,184.8,368,184.6,367.2L184.6,367.2z"/>
					<path fill-rule="evenodd" clip-rule="evenodd" d="M195.6,351.5c2.9,1.5,4.1,5.1,2.6,8.1c-0.5,0.9-1.1,1.6-1.9,2.1
						c0.5-0.4,0.9-0.9,1.2-1.5c1.4-2.8,0.3-6.2-2.4-7.6c-2.8-1.4-6.2-0.3-7.6,2.4c-0.3,0.6-0.5,1.2-0.6,1.8c0-0.9,0.2-1.9,0.7-2.8
						C189,351.1,192.7,349.9,195.6,351.5L195.6,351.5z"/>
					<path fill-rule="evenodd" clip-rule="evenodd" d="M208.4,360.3c0.9,3.8-1.5,7.6-5.4,8.5c-0.7,0.2-1.4,0.2-2,0.2l0-0.2
						c0.3,0,0.6-0.1,0.9-0.1c3.6-0.8,5.9-4.4,5.1-8c-0.8-3.6-4.4-5.9-8-5.1c-0.3,0.1-0.6,0.2-0.8,0.3l0-0.2c0.6-0.3,1.1-0.5,1.8-0.7
						C203.7,354.1,207.5,356.5,208.4,360.3L208.4,360.3z"/>
					<path fill-rule="evenodd" clip-rule="evenodd" d="M201.2,369.9c-1,2.2-3.5,3.1-5.6,2.2c-1.2-0.5-2-1.5-2.4-2.6
						c0.4,0.9,1.1,1.6,2,2.1c2,0.9,4.3,0,5.1-2c0.9-2,0-4.3-2-5.1c-1-0.4-2-0.4-2.9-0.1c1.1-0.5,2.3-0.6,3.5,0
						C201.2,365.2,202.2,367.8,201.2,369.9L201.2,369.9z"/>
					<path fill-rule="evenodd" clip-rule="evenodd" d="M192.4,369.8c-0.7-0.2-1.2-0.7-1.5-1.3c0.3,0.4,0.8,0.8,1.3,1
						c1.3,0.4,2.6-0.1,3.3-1.2l0,0C195.1,369.5,193.7,370.2,192.4,369.8L192.4,369.8z"/>
					<path fill-rule="evenodd" clip-rule="evenodd" d="M183.1,354.9c1.3-1.5,3.3-1.9,5-1.3l-0.4,0.5c-1.4-0.3-2.9,0.2-3.9,1.4
						c-1.5,1.7-1.3,4.3,0.4,5.8c0.8,0.7,1.9,1,2.9,1c-1.2,0.2-2.5-0.2-3.5-1C181.7,359.6,181.5,356.8,183.1,354.9L183.1,354.9z"/>
					<path fill-rule="evenodd" clip-rule="evenodd" d="M192.2,375.8c2.3,0.5,4.5-0.9,5-3.2c0-0.2,0.1-0.3,0.1-0.5l-0.2,0
						c-0.5,2.1-2.6,3.3-4.7,2.9c-1.5-0.3-2.5-1.4-2.9-2.7l-0.1,0.1l-0.3,0.1C189.3,374.1,190.5,375.5,192.2,375.8L192.2,375.8z"/>
					<path fill-rule="evenodd" clip-rule="evenodd" d="M186,372.2c-0.9-1-0.8-2.6,0.2-3.5c0.6-0.5,1.3-0.7,2-0.6
						c-0.6,0-1.1,0.2-1.6,0.6c-0.9,0.8-1,2.3-0.2,3.2c0.8,0.9,2.3,1,3.2,0.2c0.5-0.4,0.7-0.9,0.8-1.5c0,0.7-0.3,1.4-0.8,1.9
						C188.5,373.3,186.9,373.2,186,372.2L186,372.2z"/>
				</g>
			</g>
			<g>
				<path fill-rule="evenodd" clip-rule="evenodd" fill="#FFFFFF" d="M302.9,334.4c1.9,1.3,2.5,3.7,1.7,5.8c1,0.5,1.7,1.4,2,2.6
					c0.5,1.7-0.2,3.4-1.4,4.4c1.1,2.6,0.1,5.8-2.5,7.2c-1.5,0.8-3.2,0.9-4.6,0.3c-0.1,0.4-0.2,0.8-0.3,1.2c-1.3,3.5-5.2,5.2-8.7,3.8
					c-3.5-1.3-5.2-5.2-3.8-8.7c0.2-0.5,0.4-0.9,0.7-1.3c-0.2-0.2-0.4-0.5-0.6-0.7c-0.9-1.4-0.8-3.1,0.1-4.4c0,0-0.1-0.1-0.1-0.1
					c-1.5-1.6-1.4-4.1,0.2-5.6c1.1-1.1,2.7-1.3,4.1-0.9c0.1-1,0.9-1.9,2-2.1c1.1-0.1,2.1,0.5,2.5,1.4c0.5-0.1,1-0.2,1.4-0.1
					c0.1-0.6,0.4-1.1,0.7-1.6C297.7,333.5,300.7,332.9,302.9,334.4L302.9,334.4z"/>
				<g>
					<path fill-rule="evenodd" clip-rule="evenodd" d="M302.9,334.4c2,1.4,2.6,4,1.5,6.1l-0.4-0.2c0.6-1.9-0.1-3.9-1.7-5.1
						c-2.1-1.4-4.9-0.9-6.3,1.1c-0.3,0.4-0.5,0.9-0.6,1.4c0.1-0.7,0.4-1.5,0.8-2.1C297.7,333.5,300.7,332.9,302.9,334.4L302.9,334.4
						z"/>
					<path fill-rule="evenodd" clip-rule="evenodd" d="M296.2,337.5c0.8,0.4,1.3,1.1,1.6,1.8c-0.3-0.6-0.8-1.1-1.5-1.4
						c-0.7-0.3-1.5-0.4-2.2-0.2l-0.1-0.4C294.7,337.1,295.5,337.2,296.2,337.5L296.2,337.5z"/>
					<path fill-rule="evenodd" clip-rule="evenodd" d="M302.7,354.4c-2.7,1.5-6.2,0.5-7.7-2.3c-0.4-0.8-0.7-1.7-0.7-2.6
						c0.1,0.6,0.3,1.2,0.6,1.7c1.4,2.6,4.6,3.5,7.2,2.1c2.6-1.4,3.5-4.6,2.1-7.2c-0.3-0.6-0.7-1-1.1-1.4c0.7,0.5,1.4,1.2,1.8,2
						C306.5,349.5,305.5,352.9,302.7,354.4L302.7,354.4z"/>
					<path fill-rule="evenodd" clip-rule="evenodd" d="M289.1,359.7c-3.5-1.3-5.2-5.2-3.8-8.7c0.2-0.6,0.6-1.2,0.9-1.7l0.1,0.1
						c-0.1,0.2-0.3,0.5-0.4,0.8c-1.3,3.3,0.3,6.9,3.6,8.2c3.3,1.3,6.9-0.3,8.2-3.6c0.1-0.3,0.2-0.5,0.3-0.8l0.2,0.1
						c-0.1,0.6-0.2,1.2-0.4,1.7C296.4,359.4,292.5,361.1,289.1,359.7L289.1,359.7z"/>
					<path fill-rule="evenodd" clip-rule="evenodd" d="M285.3,349c-1.2-1.9-0.6-4.4,1.3-5.6c1-0.6,2.2-0.8,3.3-0.5
						c-0.9-0.2-1.9,0-2.7,0.5c-1.7,1.1-2.2,3.4-1.2,5.1c1.1,1.7,3.4,2.2,5.1,1.2c0.8-0.5,1.4-1.3,1.6-2.2c-0.2,1.1-0.8,2.1-1.8,2.8
						C289,351.5,286.5,350.9,285.3,349L285.3,349z"/>
					<path fill-rule="evenodd" clip-rule="evenodd" d="M290.1,342.2c0.5-0.4,1.2-0.6,1.8-0.4c-0.5,0-1,0.2-1.5,0.5
						c-1,0.8-1.3,2.1-0.8,3.2l0,0C288.8,344.5,289,343,290.1,342.2L290.1,342.2z"/>
					<path fill-rule="evenodd" clip-rule="evenodd" d="M306.6,342.8c0.5,1.8-0.2,3.6-1.6,4.6l-0.2-0.6c0.9-1,1.4-2.4,1-3.7
						c-0.6-2.1-2.7-3.3-4.7-2.7c-1,0.3-1.8,0.9-2.3,1.7c0.5-1.1,1.5-1.9,2.7-2.2C303.7,339.2,306,340.5,306.6,342.8L306.6,342.8z"/>
					<path fill-rule="evenodd" clip-rule="evenodd" d="M285.5,338.8c-1.6,1.5-1.7,4-0.2,5.6c0.1,0.1,0.2,0.2,0.3,0.3l0.1-0.2
						c-1.3-1.5-1.2-3.8,0.2-5.2c1-1,2.4-1.2,3.7-0.9l0-0.2l0.1-0.3C288.3,337.5,286.6,337.7,285.5,338.8L285.5,338.8z"/>
					<path fill-rule="evenodd" clip-rule="evenodd" d="M291.6,335.9c1.3-0.2,2.5,0.7,2.6,2c0.1,0.7-0.1,1.4-0.6,1.9
						c0.3-0.4,0.5-1,0.4-1.6c-0.2-1.2-1.2-2-2.4-1.9c-1.2,0.2-2,1.2-1.9,2.4c0.1,0.6,0.4,1.1,0.8,1.4c-0.5-0.4-0.9-1-1-1.7
						C289.4,337.3,290.3,336.1,291.6,335.9L291.6,335.9z"/>
				</g>
			</g>
			
				<line fill="none" stroke="#231F20" stroke-width="0.5669" stroke-linecap="round" stroke-linejoin="round" stroke-miterlimit="2.4142" x1="244.9" y1="274.4" x2="260.6" y2="284.7"/>
			
				<line fill="none" stroke="#231F20" stroke-width="0.5669" stroke-linecap="round" stroke-linejoin="round" stroke-miterlimit="2.4142" x1="227.9" y1="283.6" x2="277.7" y2="326.4"/>
			
				<line fill="none" stroke="#231F20" stroke-width="0.5669" stroke-linecap="round" stroke-linejoin="round" stroke-miterlimit="2.4142" x1="262.6" y1="316.9" x2="280.8" y2="334.2"/>
			
				<line fill="none" stroke="#231F20" stroke-width="0.5669" stroke-linecap="round" stroke-linejoin="round" stroke-miterlimit="2.4142" x1="246.2" y1="305" x2="281.3" y2="342.8"/>
			
				<line fill="none" stroke="#231F20" stroke-width="0.5669" stroke-linecap="round" stroke-linejoin="round" stroke-miterlimit="2.4142" x1="242.5" y1="267" x2="271" y2="282.5"/>
			
				<line fill="none" stroke="#231F20" stroke-width="0.5669" stroke-linecap="round" stroke-linejoin="round" stroke-miterlimit="2.4142" x1="264.5" y1="274.8" x2="280.4" y2="278.7"/>
			
				<line fill="none" stroke="#231F20" stroke-width="0.5669" stroke-linecap="round" stroke-linejoin="round" stroke-miterlimit="2.4142" x1="275.2" y1="319.8" x2="293.6" y2="334.1"/>
			
				<line fill="none" stroke="#231F20" stroke-width="0.5669" stroke-linecap="round" stroke-linejoin="round" stroke-miterlimit="2.4142" x1="188" y1="320.3" x2="185.2" y2="350.6"/>
			
				<line fill="none" stroke="#231F20" stroke-width="0.5669" stroke-linecap="round" stroke-linejoin="round" stroke-miterlimit="2.4142" x1="191.6" y1="327.8" x2="198.4" y2="350.6"/>
			
				<line fill="none" stroke="#231F20" stroke-width="0.5669" stroke-linecap="round" stroke-linejoin="round" stroke-miterlimit="2.4142" x1="189.7" y1="337.8" x2="189.4" y2="349.8"/>
		</g>
		<g>
			<path fill="#FF0000" d="M80.7,272.1c1.5-0.9,2.8-1.7,3.9-2.5c1.1-0.8,2.2-1.7,3.2-2.5c1-0.9,1.8-1.7,2.6-2.7
				c0.8-0.9,1.4-1.9,1.9-2.9c0.5-1,0.8-2,0.9-2.9c0.1-0.9,0.1-1.9-0.3-2.7c-0.7-1.5-1.7-2.6-2.9-3.4c-1.2-0.8-2.6-1.3-4.2-1.7
				c-1.2-0.3-2.8-0.1-4.7,0.3c-1.9,0.4-3.9,1.2-6.1,2.1c-9.1,3.8-15,7.7-23.9,11.8c-0.1,1.3-0.4,4.3-0.9,5.8
				c-0.4,1.5-0.9,2.9-1.4,4.4c-0.5,1.4-1,2.7-1.5,3.9c-0.8,1.8-2.3,7.9-2,9.2c0.3,1.3,18.6,1.5,23.1,1.2c2-0.2,3.9-0.4,5.9-0.8
				c1.9-0.4,3.7-0.9,5.4-1.6c1.7-0.6,3.2-1.5,4.4-2.3c1.7-1.1,3-2.2,3.7-3.4c0.7-1.2,0.8-2.6,0.3-4.1c-0.4-1.3-1.3-2.4-2.7-3.4
				C84.2,273,82.6,272.4,80.7,272.1L80.7,272.1z M62.1,272.3c0.6-1.3,1-2.5,1.5-3.7c0.4-1.2,0.9-2.4,1.5-3.4c1.9-1,3.6-1.8,5.3-2.6
				c1.6-0.7,3.1-1.3,4.3-1.8c1.3-0.5,2.3-0.8,3.1-0.9c0.8-0.1,1.3,0,1.5,0.2c0.3,0.3,0.1,1.1-0.6,2.1c-0.7,1-1.7,2.1-3.3,3.3
				c-1.5,1.2-3.3,2.4-5.6,3.7C67.6,270.4,65,271.4,62.1,272.3L62.1,272.3z M59.6,278.3c1.9-0.4,3.6-0.7,5.2-0.9
				c1.6-0.2,2.9-0.3,4.1-0.4c1.2,0,2.1,0,2.8,0.1c0.8,0.1,1.3,0.3,1.5,0.7c0.3,0.4,0,1-0.6,1.7c-0.6,0.6-1.7,1.3-3.1,1.9
				c-1.4,0.6-3.1,1.1-5.2,1.5c-2.1,0.4-4.4,0.6-7,0.8c0.3-0.9,0.7-1.7,1.1-2.6C58.8,280.1,59.2,279.2,59.6,278.3L59.6,278.3z
				 M129.6,232.1c-1.6-0.4-3.5-0.4-5.8,0c-2.3,0.4-4.7,1-7.2,1.9c-0.9,0.3-1.9,0.8-2.9,1.4c-1,0.6-2,1.2-3,2c-1,0.7-1.9,1.5-2.9,2.4
				c-0.9,0.8-1.7,1.6-2.4,2.4c-3.5,3.9-6.3,8-8.5,12.2c-2.2,4.1-3.9,7.9-4.9,11.6c-1,3.6-1.3,7-0.9,10.2c0.3,3.2,1.3,6,3,8.5
				c0.7,1.1,1.8,2,3.1,2.8c1.3,0.8,2.6,1.5,3.9,2c1.7,0.6,3.5,1.1,5.6,1.4c2,0.3,4,0.4,5.8,0.4c2.9,0.1,5.4-0.2,7.6-0.9
				c2.2-0.7,4.4-1.9,6.2-3.9c2.8-3,4.8-6.7,6.4-10.8c1.7-4.2,2.9-8.5,3.6-13c0.7-4.5,1-8.8,0.9-13c-0.1-4.2-0.5-7.8-1.4-10.9
				c-0.5-1.7-1.2-3.1-2.2-4.2C132.8,233.3,131.4,232.6,129.6,232.1L129.6,232.1z M119.4,242.9c0.9-0.1,1.7,0.4,2.2,1.8
				c0.5,1.3,0.8,3.1,0.9,5.2c0.1,2.1,0.1,4.4-0.1,6.9c-0.2,2.5-0.5,4.9-1,7.2c-0.6,2.8-1.2,5.5-2.1,7.9c-0.9,2.4-1.8,4.5-2.8,6.2
				c-1,1.7-2.1,3-3.2,3.8c-1.1,0.9-2.2,1.2-3.2,1c-1.1-0.2-2-0.9-2.6-2.1c-0.6-1.2-1-2.7-1.2-4.5c-0.2-1.8-0.2-3.8,0.1-5.9
				c0.2-2.2,0.6-4.3,1.2-6.4c0.6-2.1,1.4-4.2,2.3-6.6c1-2.4,1.9-4.6,3-6.7c1.1-2.1,2.2-3.9,3.3-5.4
				C117.5,243.9,118.5,243,119.4,242.9L119.4,242.9z M176.8,208.8c-1.6-0.7-3.6-0.8-5.8-0.5c-2.3,0.3-4.7,0.8-7.2,1.6
				c-1,0.3-1.9,0.7-2.9,1.3c-1,0.6-2.1,1.3-3.1,2.1c-1,0.8-2,1.8-2.8,2.7c-0.9,1.1-1.8,2-2.5,3c-3.5,4.9-6.2,10.2-8.5,15.8
				c-2.2,5.5-3.8,10.8-4.8,15.9c-1,5.2-1.2,10-0.9,14.6c0.3,4.6,1.4,8.5,3.1,11.8c0.7,1.4,1.8,2.6,3.1,3.6c1.3,1,2.6,1.8,3.9,2.3
				c1.6,0.7,3.5,1,5.6,1.1c2,0.1,4,0.1,5.9-0.1c2.8-0.3,5.4-0.9,7.6-2.1c2.2-1.2,4.3-3,6.1-5.5c2.8-4,4.8-8.7,6.4-13.9
				c1.7-5.2,2.8-10.6,3.5-16c0.8-5.5,1.1-10.8,1-15.9c-0.1-5.1-0.6-9.6-1.4-13.4c-0.5-2.2-1.2-3.9-2.2-5.4
				C179.9,210.6,178.5,209.5,176.8,208.8L176.8,208.8z M166.6,221.5c0.9-0.1,1.6,0.7,2.1,2.4c0.5,1.7,0.8,3.9,1,6.6
				c0.2,2.7,0.2,5.6,0,8.8c-0.2,3.2-0.5,6.2-1,9.1c-0.6,3.6-1.3,7-2.2,10.1c-0.9,3.1-1.8,5.8-2.8,8.1c-1,2.3-2,4-3.1,5.2
				c-1.1,1.2-2.2,1.7-3.2,1.6c-1.1-0.2-2-1-2.6-2.6c-0.6-1.6-1-3.6-1.2-5.9c-0.2-2.4-0.1-5,0.1-8c0.2-2.9,0.6-5.8,1.2-8.6
				c0.6-2.7,1.3-5.6,2.3-8.7c0.9-3.1,1.9-6,3-8.6c1.1-2.6,2.2-4.8,3.3-6.6C164.6,222.6,165.6,221.6,166.6,221.5L166.6,221.5z
				 M224,186.3c-1.6-0.9-3.5-1.3-5.9-1.3c-2.3,0-4.7,0.3-7.2,1c-0.9,0.3-1.9,0.7-2.9,1.3c-1,0.6-2,1.4-3,2.2c-1,0.9-2,1.8-2.9,2.8
				c-0.9,1.1-1.8,2.1-2.5,3.2c-3.5,5.3-6.2,11.3-8.5,17.9c-2.2,6.5-3.8,12.8-4.8,19.1c-0.9,6.2-1.2,12.1-0.9,17.7
				c0.4,5.6,1.4,10.4,3.1,14.3c0.7,1.7,1.8,3.1,3.1,4.2c1.3,1.1,2.6,2,3.9,2.6c1.6,0.7,3.5,1,5.6,1.1c2,0,4-0.1,5.8-0.3
				c2.9-0.4,5.4-1.3,7.6-2.7c2.2-1.4,4.3-3.5,6.1-6.5c2.8-4.5,4.8-9.8,6.4-15.7c1.6-5.9,2.9-11.9,3.6-17.9c0.7-6,1-11.9,0.9-17.6
				c-0.1-5.7-0.5-10.7-1.4-15.1c-0.5-2.4-1.2-4.5-2.2-6.2C227.1,188.7,225.8,187.3,224,186.3L224,186.3z M213.8,199.6
				c0.9-0.1,1.7,0.9,2.2,2.9c0.5,2,0.8,4.5,0.9,7.6c0.1,3,0.2,6.4,0,10c-0.2,3.6-0.5,7-1,10.3c-0.6,4.1-1.3,8-2.2,11.6
				c-0.9,3.6-1.8,6.8-2.8,9.4c-1,2.7-2.1,4.7-3.2,6.1c-1.1,1.4-2.2,2-3.2,1.9c-1.1-0.2-1.9-1.2-2.6-3c-0.6-1.9-1-4.2-1.2-7
				c-0.2-2.8-0.1-5.9,0.1-9.3c0.2-3.4,0.6-6.7,1.2-9.9c0.6-3.2,1.3-6.5,2.3-10.1c1-3.6,2-6.8,3-9.8c1.1-3,2.3-5.5,3.4-7.6
				C211.8,200.8,212.9,199.7,213.8,199.6L213.8,199.6z M271.4,166.6c-1.6-1.1-3.6-1.7-5.9-2c-2.3-0.2-4.7-0.1-7.2,0.3
				c-1,0.2-1.9,0.5-2.9,1c-1,0.5-2.1,1.1-3.1,1.9c-1,0.8-1.9,1.8-2.9,2.8c-1,1.1-1.8,2.2-2.5,3.2c-3.5,5.6-6.3,11.9-8.5,18.8
				c-2.2,6.9-3.9,13.8-4.8,20.7c-0.9,6.9-1.2,13.4-0.9,19.7c0.4,6.3,1.4,11.6,3.1,16c0.7,1.9,1.8,3.5,3.1,4.7c1.3,1.3,2.6,2.2,4,2.9
				c1.7,0.8,3.5,1.2,5.5,1.2c2.1,0,4-0.1,5.9-0.4c2.8-0.4,5.4-1.3,7.6-2.8c2.2-1.5,4.3-3.7,6.1-6.8c2.8-4.9,4.8-10.4,6.5-16.5
				c1.7-6.1,2.9-12.4,3.7-18.7c0.8-6.3,1-12.5,0.9-18.5c-0.1-6-0.5-11.3-1.4-16c-0.5-2.6-1.3-4.9-2.2-6.8
				C274.6,169.5,273.2,167.9,271.4,166.6L271.4,166.6z M261.1,180c1,0,1.7,1.2,2.2,3.3c0.5,2.2,0.8,4.9,0.9,8.2
				c0.2,3.2,0.1,6.8-0.1,10.7c-0.2,3.9-0.5,7.6-1,11c-0.6,4.4-1.3,8.5-2.2,12.3c-0.8,3.8-1.8,7.1-2.8,9.9c-1,2.8-2.1,5-3.2,6.5
				c-1.1,1.5-2.2,2.2-3.2,2c-1.1-0.2-2-1.3-2.6-3.3c-0.6-2-1-4.6-1.2-7.7c-0.2-3.1-0.2-6.5,0-10.2c0.2-3.7,0.7-7.4,1.3-10.8
				c0.6-3.4,1.4-7.1,2.3-10.8c0.9-3.8,2-7.3,3.1-10.4c1.1-3.1,2.2-5.7,3.3-7.7C259.1,180.9,260.2,179.9,261.1,180L261.1,180z
				 M296.7,187.9c0.7,6.9,1.6,13.7,2.5,20.3c0.9,6.7,1.9,12.7,2.9,17.9c0.3,1.3,0.6,2.3,0.8,3.1c0.2,0.9,0.5,1.5,0.8,2
				c0.3,0.5,0.6,0.9,1.1,1.1c0.4,0.2,0.8,0.5,1.4,0.6c1.6,0.4,3.4,0.6,5.3,0.7c0.7,0,1.2,0,1.6-0.1c0.4-0.1,0.7-0.4,0.9-0.7
				c0.2-0.3,0.4-0.7,0.6-1.3c0.2-0.6,0.4-1.3,0.6-2.3c0.7-3,1.6-6.5,2.8-10.8c1.2-4.3,2.4-8.8,3.7-13.5c1.3-4.7,2.7-9.5,4.1-14.4
				c1.4-4.8,2.8-9.2,3.9-13.2c-0.6,4.3-1.1,8.9-1.6,13.6c-0.5,4.7-1,9.3-1.3,13.7c-0.4,4.3-0.7,8.4-0.9,12.1
				c-0.2,3.7-0.4,6.7-0.5,9.1c-0.1,2.1-0.1,3.7,0.3,4.8c0.4,1.1,1.3,1.9,2.5,2.5c1,0.5,2,1,3.2,1.2c1.2,0.3,2.5,0.5,3.7,0.6
				c1.3,0.2,2.2-0.2,2.6-0.9c0.5-0.8,0.9-1.9,1-3.4c0.3-2.9,0.5-6.4,0.9-10.5c0.4-4.1,0.9-8.5,1.4-13.2c0.5-4.7,1-9.7,1.6-14.8
				c0.6-5.1,1.2-10.1,1.7-15c0.6-4.9,1.1-9.4,1.7-13.7c0.6-4.3,1-8.1,1.5-11.3c0.3-2.2,0.3-3.8-0.1-4.9c-0.4-1.1-1.3-1.9-2.7-2.5
				c-2-0.9-4.1-1.5-6.1-2c-2.1-0.5-4.1-0.8-5.9-1.2c-1.6-0.3-2.8-0.3-3.8,0c-0.9,0.3-1.8,1.1-2.6,2.2c-0.7,1.1-1.4,2.7-2.1,4.8
				c-0.7,2-1.4,4.6-2.3,7.7c-0.9,2.8-1.9,5.8-2.9,9.2c-1,3.2-2,6.5-3,9.9c-1,3.3-1.9,6.6-2.7,9.8c-0.9,3.3-1.7,6.2-2.4,8.8
				c-0.9-6.8-1.6-12.1-2.2-16c-0.6-3.9-0.9-6.9-1.2-9.1c-0.3-2.1-0.4-3.5-0.5-4.3c-0.1-0.8-0.1-1.4-0.2-2c-0.1-1.2-0.3-2.2-0.5-3.1
				c-0.2-0.9-0.5-1.7-0.8-2.4c-0.4-0.7-0.8-1.3-1.5-1.7c-0.7-0.4-1.5-0.8-2.5-1c-1.7-0.4-3.3-0.7-5-0.8c-1.7-0.1-3.7-0.1-6,0.1
				c-1.5,0.2-2.6,0.8-3.3,1.5c-0.7,0.8-1.3,2.3-1.7,4.6c-0.5,3.2-1,6.9-1.5,11.2c-0.5,4.3-1,9-1.6,13.9c-0.5,4.9-1,10-1.5,15.1
				c-0.5,5.2-1,10.1-1.4,15c-0.4,4.8-0.8,9.3-1,13.6c-0.3,4.2-0.4,7.8-0.5,10.7c-0.1,2.1,0,3.7,0.5,4.7c0.4,1,1.3,1.8,2.5,2.4
				c1,0.5,2.1,0.9,3.3,1.1c1.2,0.2,2.3,0.4,3.5,0.4c1.2,0,2-0.2,2.5-0.8c0.4-0.6,0.8-1.6,0.9-3.1c0.3-3.5,0.5-7.4,0.8-11.8
				c0.4-4.4,0.8-9.1,1.3-13.9c0.5-4.9,1-9.9,1.6-15.1C295.5,198,296.1,192.9,296.7,187.9L296.7,187.9z"/>
			<g>
				<path fill-rule="evenodd" clip-rule="evenodd" fill="#FFFFFF" d="M185.6,310.2c-5,0.1-8.8-3.2-10-8.2c-4,2.3-8.8,3.1-13,1.6
					c-7.1-2.5-10.3-10.4-8-18.7c-10.9,4.4-23.4-0.7-27.3-10.8c-3.9-10.1,0-19.7,7.8-25.8c-14-0.9-26.4-11.9-27.4-26.5
					c-1.1-15.9,11.8-27.7,27.5-26.5c-3.8-3.9-5.1-9.6-2.5-13.8c2.6-4.5,8.6-5.5,13.5-2.6c0.7-6.7,4.5-12.2,10.6-14.1
					c6.9-2.1,14.7,0.9,19.9,6.9c1,0,2,0.2,3,0.6c1.2-5.6,5.4-9.1,10.6-8.5c3.8,0.4,7.3,3,9.7,6.6c2.3-2.5,5.5-3.6,8.9-3
					c5.1,1,9.6,5.6,11.7,11.5c3.8-5.4,9.9-6.5,15.2-2.2c4.6,3.7,7.5,10.4,7.8,17.1c3.5-0.6,7.1,1.9,9.2,6.7
					c2.1,4.8,2.2,10.8,0.4,15.3c2,1.7,3.4,4.8,3.7,8.5c0.3,3.2-0.3,6.3-1.6,8.7c0.5,2.6,0.5,5.4,0,8.2c0,0,0,0,0,0
					c4.2,2.3,6.4,9.3,5,16.3c-1.4,7.6-8.8,12.6-11.5,12.1c-2.7-0.5-0.5-0.1-0.8-0.2c-0.2,2-0.7,4-1.6,5.8c-2.4,4.7-6.5,6.7-9.8,4.7
					c-1,9-5.8,18.1-12.9,22.8c-8.9,5.9-18.8,3.3-23.3-6.4C198.8,304,192.3,310.1,185.6,310.2L185.6,310.2z M229.5,241.1
					c2.1-2.5,3.3-2.8,5.1-2.8c0-0.6,0-1.3,0-1.9c0-0.6,0.1-1,0.2-1.4c-2.5-0.3-4.9-2.5-6.1-6.1c-1-3.2-0.9-6.7,0.2-9.5
					c-1.8,1-2.7,1.6-5.9,0.2c-3.2-1.4-7.2-8-6.6-14c-2.1,1.7-5,1.8-7.4-0.3c-0.9-0.7-1.6-1.6-2.2-2.6c-1.9,1.8-4.5,2.6-7.2,2.2
					c-0.8,3.1-1.6,5.2-4.8,7.6c-3.1,2.4-9,3-13.4,0.5c-0.3,0.7-0.8,1.3-1.3,1.8c0.6,1.3,0.9,1.9,0.9,4.1c0,2.2-1.3,5.5-3.3,7
					c3.3,2,5.6,5.7,5.8,10c0.2,4.5-2,8.6-5.3,10.8c1.3,1.8,2.1,4,2.2,6.4c0,0.2,0,0.3,0,0.5c2.2-0.9,4.6-0.4,6.2,1.3
					c3.7-4.8,9.9-5.3,13.4-1.9c3.6,3.4,4,8.7,2,13.4c1-0.1,2.2,0.2,2.9,0.5c0.7,0.3,1,0.6,1.4,0.9c0-0.1-0.1,2.7,0-0.2
					c0.1-2.8,5-10.5,8.4-10.7c3.4-0.2,4.5,1.2,5.7,3.3c0.1-2.8,2.1-5.8,3.7-6.6c1.6-0.8,2.1-0.6,3-0.3
					C226.1,249.1,227.4,243.6,229.5,241.1L229.5,241.1z"/>
				<path fill-rule="evenodd" clip-rule="evenodd" d="M185.6,310.2c-5,0.1-8.8-3.2-10-8.2c-4,2.3-8.8,3.1-13,1.6
					c-7.1-2.5-10.3-10.4-8-18.7c-10.9,4.4-23.1,0.1-27.3-10.8c-3.5-9.2,0-19.7,7.8-25.8c-14-0.9-26.4-11.9-27.4-26.5
					c-1.1-15.9,11.8-27.7,27.5-26.5c-3.8-3.9-5.1-9.6-2.5-13.8c2.6-4.5,8.6-5.5,13.5-2.6c0.7-6.7,4.5-12.2,10.6-14.1
					c6.9-2.1,14.7,0.9,19.9,6.9c1,0,2,0.2,3,0.6c1.2-5.6,5.4-9.1,10.6-8.5c3.8,0.4,7.3,3,9.7,6.6c2.3-2.5,5.5-3.6,8.9-3
					c5.1,1,9.6,5.6,11.7,11.5c3.8-5.4,9.9-6.5,15.2-2.2c4.6,3.7,7.5,10.4,7.8,17.1c3.5-0.6,7.1,1.9,9.2,6.7
					c2.1,4.8,2.2,10.8,0.4,15.3c2,1.7,3.4,4.8,3.7,8.5c0.3,3.2-0.3,6.3-1.6,8.7c0.5,2.6,0.5,5.4,0,8.2c0,0,0,0,0,0
					c4.2,2.3,6.4,9.3,5,16.3c-1.4,7.6-6.4,13.1-11.5,12.1c-0.3-0.1-0.5-0.1-0.8-0.2c-0.2,2-0.7,4-1.6,5.8c-2.4,4.7-6.5,6.7-9.8,4.7
					c-1,9-5.8,18.1-12.9,22.8c-8.9,5.9-18.8,3.3-23.3-6.4C198.8,304,192.3,310.1,185.6,310.2L185.6,310.2z M179.6,213.8
					c0.4-0.4,0.8-0.8,1.1-1.3c-2-1.3-3.9-3.2-5.4-5.7c-0.5-0.9-1-1.7-1.3-2.6c0,0.1,0.1,0.1,0.1,0.2c4.9,8,13.7,10.4,19.7,5.8
					c5.1-3.9,6.7-11.9,4.1-19c1.8,3.5,2.5,7.4,2.2,11c2.2,0.4,4.3-0.1,6-1.3c-0.2-0.6-0.4-1.3-0.5-1.9c0.2,0.6,0.5,1.2,0.8,1.8
					c1.8-1.4,3.2-3.5,3.8-6.3c0.3-1.4,0.4-2.8,0.3-4.2c0.3,2.1,0.3,4.2-0.2,6.2c-0.5,2.4-1.6,4.3-3,5.7c0.4,0.6,1,1.1,1.5,1.6
					c2.5,2.1,5.5,2.3,7.7,0.8c0.1-0.4,0.1-0.7,0.2-1.1c0.5-2,1.3-3.6,2.3-4.9c-0.6,1-1,2.2-1.3,3.5c-0.1,0.6-0.2,1.3-0.3,1.9
					c0.4-0.3,0.7-0.7,1-1.1c0,0,0,0,0,0.1c-0.3,0.6-0.6,1.2-1,1.6c-0.3,5.4,2.3,10.7,6.2,12.5c4.4,2,8.8-1.1,10.1-6.9
					c0.3-1.2,0.4-2.5,0.3-3.7c0.2,1.8,0.2,3.7-0.2,5.5c-0.2,0.8-0.4,1.6-0.7,2.3c1.9-0.9,4-0.6,5.7,0.6c-1.5-0.9-3.3-1-5,0
					c-3.5,2-5.2,7.9-3.6,12.9c1,3,2.9,5,5,5.5c1.1-4,4-6.6,7-6.2c1.1,0.1,2.1,0.7,2.9,1.5c-0.6-0.4-1.3-0.7-2-0.8
					c-3.5-0.4-6.7,3.4-7,8.6c-0.1,0.7,0,1.3,0,1.9c1.5,0.4,2.9,1.5,4,3.2c0.7,1.3,1.2,2.7,1.5,4.2c-0.2-1-0.6-1.9-1.1-2.7
					c-2.4-3.9-6.8-4.2-9.9-0.4c-2.3,2.9-3.1,7.4-2.2,11.1c1,0.7,1.7,1.9,2.1,3.4c-0.4-1.1-1-1.9-1.8-2.4c0.3,0.8,0.6,1.6,1.1,2.3
					c0.6,0.8,1.2,1.4,1.9,1.9c-1.1-0.4-2.1-1.3-3-2.5c-0.5-0.7-0.8-1.4-1.1-2.2c-1-0.3-2-0.2-3,0.3c-2,1.1-3.4,3.6-3.7,6.2
					c0.7,1.5,1.1,3.3,1,5.2c-0.1,2.8-1.1,5.5-2.7,7.4c1.2-1.7,2-3.9,2.1-6.2c0.2-4.8-2.7-8.6-6.5-8.3c-3.9,0.2-7.3,4.5-7.6,9.5
					c2,2.3,2.5,6.1,1.2,9.7c-0.5,1.4-1.3,2.7-2.2,3.6c0.6-0.8,1-1.6,1.4-2.6c1.6-4.4,0.2-9.2-3.2-10.7c-1-0.5-2.1-0.6-3.2-0.4
					c0,0-0.1,0.1-0.1,0.1c-1.8,2.7-4.3,4.4-6.9,4.9c2.1-0.6,4.2-2.1,5.6-4.3c3-4.5,2.6-10.8-0.9-14.1c-3.6-3.4-9.3-2.5-12.6,2.2
					c-1.6,2.3-2.4,5.1-2.2,7.7c-0.4-3.2,0.4-6.6,2.3-9.4c0-0.1,0.1-0.1,0.1-0.2c-1.8-1.2-4-1.3-6.1-0.4c-0.5,5.6-4.6,10.5-10,11.4
					c-3.3,0.5-6.4-0.6-8.7-2.7c2,1.6,4.7,2.4,7.4,1.9c5.5-0.9,9.6-6.2,9.3-11.9c-0.1-2.2-0.8-4.2-1.9-5.8c-0.9,0.4-1.8,0.6-2.8,0.7
					c-3.3,0.3-6.3-1-8.5-3.3c2,1.7,4.5,2.7,7.2,2.4c5.4-0.5,9.4-5.6,9.2-11.4c-0.2-5.8-4.7-10.6-10.2-10.5c-2.7,0-5.2,1.2-7,3.2
					c2-2.6,5-4.2,8.3-4.3c1.4,0,2.8,0.3,4.1,0.8c1.9-1.4,3-3.8,3-6.4c0-4.5-3.3-8.5-7.5-8.9c-0.9-0.1-1.8,0-2.6,0.3
					c1.1-0.5,2.4-0.8,3.8-0.7C175.8,209.7,178.2,211.4,179.6,213.8L179.6,213.8z M181.4,212.9c-0.3,0.7-0.8,1.3-1.3,1.8
					c0.6,1.3,0.9,2.7,0.9,4.1c0,2.9-1.3,5.5-3.3,7c3.3,2,5.6,5.7,5.8,10c0.2,4.5-2,8.6-5.3,10.8c1.3,1.8,2.1,4,2.2,6.4
					c0,0.2,0,0.3,0,0.5c2.2-0.9,4.6-0.4,6.2,1.3c3.7-4.8,9.6-5.6,13.4-1.9c3.3,3.2,4,8.7,2,13.4c1-0.1,2,0.1,2.9,0.5
					c0.5,0.2,1,0.6,1.4,0.9c0-0.1,0-0.1,0-0.2c0.2-5.6,4-10.4,8.4-10.7c2.4-0.1,4.5,1.2,5.7,3.3c0.1-2.8,1.6-5.5,3.7-6.6
					c1-0.5,2.1-0.6,3-0.3c-1.1-4-0.2-8.9,2.3-12.1c1.5-1.9,3.3-2.8,5.1-2.8c0-0.6,0-1.2,0-1.9c0-0.5,0.1-1,0.2-1.4
					c-2.5-0.3-4.9-2.5-6.1-6.1c-1-3.2-0.9-6.7,0.2-9.5c-1.8,1-3.8,1.1-5.9,0.2c-4.4-1.9-7.2-8-6.6-14c-2.1,1.7-5,1.8-7.4-0.3
					c-0.9-0.7-1.6-1.6-2.2-2.6c-2,1.8-4.5,2.6-7.3,2.1c-0.8,3.1-2.4,5.8-4.8,7.6C190.9,215.4,185.8,215.4,181.4,212.9L181.4,212.9z
					 M135.6,195.4c0,0,0.1,0,0.2,0c8,0.8,15.1,4.8,19.9,10.5c-4.2-4.3-10-7.3-16.5-7.9c-14.3-1.3-26.2,9.4-25.1,23.9
					c1,14.2,13.9,24.9,27.7,24c6.3-0.4,11.6-3.2,15.4-7.2c-4.1,5.3-10.5,9-18.2,9.6c-7.1,5.7-10.4,15.4-7.1,23.9
					c3.6,9.5,13.7,13.8,23.2,11c0.3-0.8,0.6-1.5,1-2.3c0.7-1.4,1.6-2.7,2.6-3.9c-3.7-2.8-5.1-8.1-3.1-13.2c0.3-0.7,0.6-1.3,0.9-1.9
					c0,0.1,0,0.1-0.1,0.1c-2,5.3-0.4,10.8,3.6,13.5c0.5-0.5,1.1-1.1,1.7-1.5c-0.5,0.5-1,1.1-1.5,1.7c0.7,0.5,1.5,0.9,2.4,1.1
					c5,1.5,10.5-1.3,13.2-6.1c-2.2,5.9-8.4,9.5-14,7.9c-1-0.3-1.9-0.7-2.7-1.3c-0.3,0.5-0.7,1-0.9,1.6c-4.6,8.8-1.8,18.5,5.9,21.4
					c3.5,1.3,7.4,0.9,10.9-0.7c-0.1-1.6,0-3.3,0.4-5c1-4.7,3.7-8.7,7.2-11.3c-2.7,2.3-4.7,5.7-5.6,9.5c-1.7,7.9,2.5,14.4,9.1,14.4
					c6.1,0,12-5.5,13.7-12.3c-0.4-0.9-0.7-1.9-0.9-2.9c-1-4.1-1-8.5-0.3-12.7c-0.2,2.9,0,5.8,0.7,8.5c3,12.6,13.9,17,23.6,10.7
					c8.9-5.7,14.1-18.9,12-30c-0.4-2.4-1.2-4.6-2.2-6.5c1.7,2.4,3,5.5,3.7,9.1c0.5,2.5,0.6,5.1,0.4,7.6c2.9,1.4,6.5-0.4,8.6-4.5
					c2.3-4.6,2-10.6-0.8-13.5c-1.4-1.4-3.1-1.9-4.9-1.4c2.1-0.8,4.3-0.4,5.9,1.4c1.9,2,2.8,5.3,2.5,8.7c4.9,0.4,9.6-4.9,11-12.2
					c1.2-6.4-0.4-12.6-3.8-15.6c-1.5,7.7-6.9,12.9-12.2,11.4c-0.6-0.2-1.1-0.4-1.7-0.7c0,0,0.1,0,0.1,0c5.5,1.5,10.9-3.7,12.4-11.7
					c1.3-7-0.8-14.3-5-17.4c2.9,1.3,5,4.5,6,8.3c0.7-2.1,1-4.5,0.8-6.9c-0.3-3.2-1.4-5.9-2.9-7.7c-0.5,1.1-1.2,2.1-1.9,3
					c-2.1,2.4-4.8,3.2-7.4,2.4c2.1,0.4,4.3-0.4,6.1-2.4c3.6-4,4.3-11.8,1.7-17.6c-1.8-4-4.8-6.2-7.8-6.1c0,1.9-0.3,3.7-0.8,5.5
					c-0.7,2.6-1.8,4.9-3.2,6.6c0.8-1.4,1.5-2.9,1.9-4.7c2.2-8.3-0.7-18.5-6.7-23.2c-6.4-5-14-1.9-16.6,7.4c-0.6,2-0.8,4.1-0.8,6.2
					c-0.3-3.1-0.1-6.3,0.8-9.3c0.5-1.6,1-3,1.8-4.3c-2.3-5.1-6.4-9-11.1-9.8c-2.9-0.5-5.6,0.3-7.8,2c1.1,2.2,1.9,4.7,2.2,7.2
					c0.4,4.2-0.6,7.9-2.7,10.4c1.5-2.3,2.2-5.4,1.9-8.8c-0.7-7.2-5.9-13.5-11.9-14.2c-4.2-0.5-7.7,2.1-9.2,6.2c2.8,1.6,5,4.5,6.1,8
					c-2.2-5-7.1-8.3-11.6-7.5c-5.3,1-8,7.1-6,13.5c0,0.1,0,0.1,0,0.1c-0.3-0.6-0.5-1.2-0.7-1.9c-1.9-5.9,0.2-11.5,4.7-13.2
					c-4.6-3.4-10.2-4.9-15.4-3.2c-9.2,3-12.7,14.5-7.6,25.1c1.1,2.2,2.5,4.2,4,5.9c-2.6-2.2-4.8-5-6.4-8.3c-2-4-2.8-8.3-2.5-12.2
					c-4.6-1.9-9.6-0.7-12,3.3C131.9,186.6,132.7,191.6,135.6,195.4L135.6,195.4z"/>
			</g>
			<path fill="#FF0000" d="M186.8,229.4l14.5,5.1c0.2-1.5,0.4-2.9,0.7-4.3c0.6-3.2,1.3-6.5,2.3-10.1c1-3.6,2-6.8,3-9.8
				c1.1-3,2.3-5.5,3.4-7.6c1.1-2,2.2-3.1,3.1-3.1c0.9-0.1,1.7,0.9,2.2,2.9c0.5,2,0.8,4.5,0.9,7.6c0.1,3,0.2,6.4,0,10
				c-0.2,3.6-0.5,7-1,10.3c-0.4,3-0.9,5.8-1.5,8.5l10.3,3.6l2.2,5.8c0.1-0.4,0.2-0.8,0.3-1.2c1.6-5.9,2.9-11.9,3.6-17.9
				c0.7-6,1-11.9,0.9-17.6c-0.1-5.7-0.5-10.7-1.4-15.1c-0.5-2.4-1.2-4.5-2.2-6.2c-1-1.7-2.3-3.1-4.1-4.1c-1.6-0.9-3.5-1.3-5.9-1.3
				c-2.3,0-4.7,0.3-7.2,1c-0.9,0.3-1.9,0.7-2.9,1.3c-1,0.6-2,1.4-3,2.2c-1,0.9-2,1.8-2.9,2.8c-0.9,1.1-1.8,2.1-2.5,3.2
				c-3.5,5.3-6.2,11.3-8.5,17.9C189.2,218.8,187.8,224.1,186.8,229.4L186.8,229.4z M271.4,166.6c-1.6-1.1-3.6-1.7-5.9-2
				c-2.3-0.2-4.7-0.1-7.2,0.3c-1,0.2-1.9,0.5-2.9,1c-1,0.5-2.1,1.1-3.1,1.9c-1,0.8-1.9,1.8-2.9,2.8c-1,1.1-1.8,2.2-2.5,3.2
				c-3.5,5.6-6.3,11.9-8.5,18.8c-2.2,6.9-3.9,13.8-4.8,20.7c-0.9,6.9-1.2,13.4-0.9,19.7c0.4,6.3,1.4,11.6,3.1,16
				c0.7,1.9,1.8,3.5,3.1,4.7c1.3,1.3,2.6,2.2,4,2.9c1.7,0.8,3.5,1.2,5.5,1.2c2.1,0,4-0.1,5.9-0.4c2.8-0.4,5.4-1.3,7.6-2.8
				c2.2-1.5,4.3-3.7,6.1-6.8c2.8-4.9,4.8-10.4,6.5-16.5c1.7-6.1,2.9-12.4,3.7-18.7c0.8-6.3,1-12.5,0.9-18.5c-0.1-6-0.5-11.3-1.4-16
				c-0.5-2.6-1.3-4.9-2.2-6.8C274.6,169.5,273.2,167.9,271.4,166.6L271.4,166.6z M261.1,180c1,0,1.7,1.2,2.2,3.3
				c0.5,2.2,0.8,4.9,0.9,8.2c0.2,3.2,0.1,6.8-0.1,10.7c-0.2,3.9-0.5,7.6-1,11c-0.6,4.4-1.3,8.5-2.2,12.3c-0.8,3.8-1.8,7.1-2.8,9.9
				c-1,2.8-2.1,5-3.2,6.5c-1.1,1.5-2.2,2.2-3.2,2c-1.1-0.2-2-1.3-2.6-3.3c-0.6-2-1-4.6-1.2-7.7c-0.2-3.1-0.2-6.5,0-10.2
				c0.2-3.7,0.7-7.4,1.3-10.8c0.6-3.4,1.4-7.1,2.3-10.8c0.9-3.8,2-7.3,3.1-10.4c1.1-3.1,2.2-5.7,3.3-7.7
				C259.1,180.9,260.2,179.9,261.1,180L261.1,180z M296.7,187.9c0.7,6.9,1.6,13.7,2.5,20.3c0.9,6.7,1.9,12.7,2.9,17.9
				c0.3,1.3,0.6,2.3,0.8,3.1c0.2,0.9,0.5,1.5,0.8,2c0.3,0.5,0.6,0.9,1.1,1.1c0.4,0.2,0.8,0.5,1.4,0.6c1.6,0.4,3.4,0.6,5.3,0.7
				c0.7,0,1.2,0,1.6-0.1c0.4-0.1,0.7-0.4,0.9-0.7c0.2-0.3,0.4-0.7,0.6-1.3c0.2-0.6,0.4-1.3,0.6-2.3c0.7-3,1.6-6.5,2.8-10.8
				c1.2-4.3,2.4-8.8,3.7-13.5c1.3-4.7,2.7-9.5,4.1-14.4c1.4-4.8,2.8-9.2,3.9-13.2c-0.6,4.3-1.1,8.9-1.6,13.6
				c-0.5,4.7-1,9.3-1.3,13.7c-0.4,4.3-0.7,8.4-0.9,12.1c-0.2,3.7-0.4,6.7-0.5,9.1c-0.1,2.1-0.1,3.7,0.3,4.8c0.4,1.1,1.3,1.9,2.5,2.5
				c1,0.5,2,1,3.2,1.2c1.2,0.3,2.5,0.5,3.7,0.6c1.3,0.2,2.2-0.2,2.6-0.9c0.5-0.8,0.9-1.9,1-3.4c0.3-2.9,0.5-6.4,0.9-10.5
				c0.4-4.1,0.9-8.5,1.4-13.2c0.5-4.7,1-9.7,1.6-14.8c0.6-5.1,1.2-10.1,1.7-15c0.6-4.9,1.1-9.4,1.7-13.7c0.6-4.3,1-8.1,1.5-11.3
				c0.3-2.2,0.3-3.8-0.1-4.9c-0.4-1.1-1.3-1.9-2.7-2.5c-2-0.9-4.1-1.5-6.1-2c-2.1-0.5-4.1-0.8-5.9-1.2c-1.6-0.3-2.8-0.3-3.8,0
				c-0.9,0.3-1.8,1.1-2.6,2.2c-0.7,1.1-1.4,2.7-2.1,4.8c-0.7,2-1.4,4.6-2.3,7.7c-0.9,2.8-1.9,5.8-2.9,9.2c-1,3.2-2,6.5-3,9.9
				c-1,3.3-1.9,6.6-2.7,9.8c-0.9,3.3-1.7,6.2-2.4,8.8c-0.9-6.8-1.6-12.1-2.2-16c-0.6-3.9-0.9-6.9-1.2-9.1c-0.3-2.1-0.4-3.5-0.5-4.3
				c-0.1-0.8-0.1-1.4-0.2-2c-0.1-1.2-0.3-2.2-0.5-3.1c-0.2-0.9-0.5-1.7-0.8-2.4c-0.4-0.7-0.8-1.3-1.5-1.7c-0.7-0.4-1.5-0.8-2.5-1
				c-1.7-0.4-3.3-0.7-5-0.8c-1.7-0.1-3.7-0.1-6,0.1c-1.5,0.2-2.6,0.8-3.3,1.5c-0.7,0.8-1.3,2.3-1.7,4.6c-0.5,3.2-1,6.9-1.5,11.2
				c-0.5,4.3-1,9-1.6,13.9c-0.5,4.9-1,10-1.5,15.1c-0.5,5.2-1,10.1-1.4,15c-0.4,4.8-0.8,9.3-1,13.6c-0.3,4.2-0.4,7.8-0.5,10.7
				c-0.1,2.1,0,3.7,0.5,4.7c0.4,1,1.3,1.8,2.5,2.4c1,0.5,2.1,0.9,3.3,1.1c1.2,0.2,2.3,0.4,3.5,0.4c1.2,0,2-0.2,2.5-0.8
				c0.4-0.6,0.8-1.6,0.9-3.1c0.3-3.5,0.5-7.4,0.8-11.8c0.4-4.4,0.8-9.1,1.3-13.9c0.5-4.9,1-9.9,1.6-15.1
				C295.5,198,296.1,192.9,296.7,187.9L296.7,187.9z"/>
		</g>
		<g>
			<g>
				<path fill-rule="evenodd" clip-rule="evenodd" fill="#FFFFFF" d="M68.2,176.8c-4.8-3-6.8-8.8-5.1-14c-2.4-1.2-4.4-3.3-5.3-6.1
					c-1.4-4.1-0.1-8.4,2.9-11.1c-3.2-6.4-1-14.3,5.1-18.1c3.5-2.2,7.7-2.6,11.4-1.5c0.1-1,0.4-2,0.7-2.9
					c2.8-8.7,12.2-13.5,20.9-10.7c8.7,2.8,13.5,12.2,10.7,20.9c-0.4,1.2-0.9,2.2-1.5,3.3c0.6,0.5,1.1,1.1,1.5,1.7
					c2.4,3.3,2.4,7.7,0.4,11c0.1,0.1,0.2,0.2,0.3,0.2c4,3.7,4.2,10,0.4,14c-2.6,2.8-6.6,3.7-10,2.7c-0.1,2.6-2.1,4.9-4.7,5.4
					c-2.6,0.5-5.2-0.9-6.3-3.1c-1.1,0.4-2.3,0.5-3.6,0.4c-0.2,1.4-0.8,2.8-1.6,4.1C81.1,178.5,73.8,180.3,68.2,176.8L68.2,176.8z"/>
				<g>
					<path fill-rule="evenodd" clip-rule="evenodd" d="M68.2,176.8c-5.1-3.1-7.1-9.6-4.7-14.9l0.9,0.5c-1.2,4.7,0.7,9.7,5,12.4
						c5.3,3.2,12.2,1.5,15.4-3.7c0.7-1.1,1.1-2.3,1.4-3.6c-0.1,1.8-0.7,3.7-1.7,5.4C81.1,178.5,73.8,180.3,68.2,176.8L68.2,176.8z"
						/>
					<path fill-rule="evenodd" clip-rule="evenodd" d="M84.2,168.3c-2-0.8-3.5-2.4-4.2-4.3c0.9,1.4,2.2,2.5,3.8,3.2
						c1.8,0.8,3.8,0.8,5.6,0.3l0.3,0.9C88.1,169,86.1,169.1,84.2,168.3L84.2,168.3z"/>
					<path fill-rule="evenodd" clip-rule="evenodd" d="M65.8,127.6c6.6-4.1,15.2-2.1,19.3,4.5c1.2,2,1.9,4.1,2.1,6.3
						c-0.3-1.4-0.9-2.8-1.7-4.2c-3.8-6.2-12-8.1-18.2-4.2c-6.2,3.9-8.1,12-4.2,18.2c0.8,1.3,1.8,2.4,3,3.4c-1.9-1.1-3.5-2.7-4.7-4.6
						C57.2,140.3,59.2,131.7,65.8,127.6L65.8,127.6z"/>
					<path fill-rule="evenodd" clip-rule="evenodd" d="M98.8,112.4c8.7,2.8,13.5,12.2,10.7,20.9c-0.5,1.6-1.2,3-2.1,4.3l-0.3-0.3
						c0.3-0.6,0.6-1.3,0.8-2c2.7-8.2-1.8-17.1-10.1-19.7c-8.2-2.7-17.1,1.8-19.7,10.1c-0.2,0.7-0.4,1.3-0.5,2l-0.5-0.2
						c0.1-1.5,0.3-2.9,0.8-4.4C80.7,114.4,90.1,109.6,98.8,112.4L98.8,112.4z"/>
					<path fill-rule="evenodd" clip-rule="evenodd" d="M109.6,138.3c3.2,4.5,2.2,10.7-2.3,13.9c-2.4,1.7-5.3,2.2-8,1.6
						c2.2,0.3,4.6-0.2,6.6-1.6c4.1-2.9,5-8.6,2.1-12.7c-2.9-4.1-8.6-5-12.7-2.1c-2,1.4-3.2,3.5-3.7,5.7c0.3-2.7,1.7-5.4,4.1-7.1
						C100.1,132.8,106.4,133.8,109.6,138.3L109.6,138.3z"/>
					<path fill-rule="evenodd" clip-rule="evenodd" d="M98.8,155.8c-1.3,1.1-2.9,1.5-4.4,1.3c1.3-0.1,2.5-0.6,3.5-1.5
						c2.4-2,2.9-5.4,1.5-8l0,0C101.5,150.1,101.2,153.7,98.8,155.8L98.8,155.8z"/>
					<path fill-rule="evenodd" clip-rule="evenodd" d="M57.8,156.8c-1.4-4.3,0.1-8.9,3.4-11.5l0.5,1.5c-2.2,2.5-3,6-1.9,9.4
						c1.7,5,7.1,7.7,12.1,6c2.4-0.8,4.3-2.5,5.4-4.6c-1.1,2.7-3.3,4.9-6.3,5.9C65.5,165.2,59.6,162.3,57.8,156.8L57.8,156.8z"/>
					<path fill-rule="evenodd" clip-rule="evenodd" d="M110.7,163.5c3.7-4,3.6-10.2-0.4-14c-0.3-0.3-0.6-0.5-0.9-0.7l-0.3,0.4
						c3.5,3.5,3.6,9.2,0.1,12.9c-2.4,2.5-5.8,3.4-9,2.7l0.1,0.4l-0.1,0.9C103.8,167.3,107.9,166.4,110.7,163.5L110.7,163.5z"/>
					<path fill-rule="evenodd" clip-rule="evenodd" d="M95.9,171.6c-3.2,0.6-6.2-1.5-6.8-4.7c-0.3-1.7,0.1-3.4,1.1-4.7
						c-0.7,1.1-1,2.5-0.8,3.9c0.5,2.9,3.3,4.8,6.2,4.3c2.9-0.5,4.8-3.3,4.3-6.2c-0.3-1.4-1.1-2.6-2.1-3.3c1.4,0.8,2.4,2.2,2.7,3.9
						C101.1,167.9,99.1,171,95.9,171.6L95.9,171.6z"/>
				</g>
			</g>
			
				<line fill="none" stroke="#231F20" stroke-width="0.5669" stroke-linecap="round" stroke-linejoin="round" stroke-miterlimit="2.4142" x1="116.8" y1="137.9" x2="157.2" y2="192.1"/>
			
				<line fill="none" stroke="#231F20" stroke-width="0.5669" stroke-linecap="round" stroke-linejoin="round" stroke-miterlimit="2.4142" x1="87.3" y1="176" x2="145.4" y2="205.8"/>
			
				<line fill="none" stroke="#231F20" stroke-width="0.5669" stroke-linecap="round" stroke-linejoin="round" stroke-miterlimit="2.4142" x1="105.4" y1="174.7" x2="144.7" y2="201.2"/>
			
				<line fill="none" stroke="#231F20" stroke-width="0.5669" stroke-linecap="round" stroke-linejoin="round" stroke-miterlimit="2.4142" x1="131.3" y1="172.4" x2="162.4" y2="203.6"/>
			
				<line fill="none" stroke="#231F20" stroke-width="0.5669" stroke-linecap="round" stroke-linejoin="round" stroke-miterlimit="2.4142" x1="152.1" y1="198.6" x2="142.5" y2="189.3"/>
			
				<line fill="none" stroke="#231F20" stroke-width="0.5669" stroke-linecap="round" stroke-linejoin="round" stroke-miterlimit="2.4142" x1="127.9" y1="179.8" x2="117.8" y2="170.7"/>
		</g>
		<g>
			
				<line fill="none" stroke="#231F20" stroke-width="0.5669" stroke-linecap="round" stroke-linejoin="round" stroke-miterlimit="2.4142" x1="182.7" y1="132.2" x2="182.9" y2="176.2"/>
			
				<line fill="none" stroke="#231F20" stroke-width="0.5669" stroke-linecap="round" stroke-linejoin="round" stroke-miterlimit="2.4142" x1="152.5" y1="140.8" x2="171.4" y2="178.8"/>
			
				<line fill="none" stroke="#231F20" stroke-width="0.5669" stroke-linecap="round" stroke-linejoin="round" stroke-miterlimit="2.4142" x1="162.5" y1="147" x2="172.8" y2="176.1"/>
			<g>
				<path fill-rule="evenodd" clip-rule="evenodd" fill="#FFFFFF" d="M142.2,133.8c-1.4-3.4-0.2-7.3,2.8-9.3c-0.8-1.6-1-3.4-0.4-5.2
					c0.9-2.7,3.2-4.4,5.8-4.7c0.8-4.6,5-7.9,9.7-7.5c2.7,0.2,5,1.6,6.6,3.6c0.4-0.5,0.9-0.9,1.5-1.3c4.9-3.5,11.6-2.4,15.1,2.5
					c3.5,4.9,2.4,11.6-2.5,15.1c-0.6,0.5-1.3,0.8-2,1.1c0.1,0.5,0.2,1,0.1,1.5c0,2.7-1.7,4.9-4,5.9c0,0.1,0,0.2,0,0.2
					c0.6,3.5-1.7,6.8-5.2,7.5c-2.5,0.4-4.9-0.6-6.3-2.5c-1.1,1.3-3,1.8-4.6,1c-1.6-0.8-2.4-2.4-2.1-4.1c-0.7-0.2-1.4-0.6-2-1.2
					c-0.7,0.6-1.5,1.2-2.4,1.5C148.3,139.6,143.8,137.7,142.2,133.8L142.2,133.8z"/>
				<g>
					<path fill-rule="evenodd" clip-rule="evenodd" d="M142.2,133.8c-1.5-3.6,0-7.7,3.3-9.6l0.3,0.6c-2.4,2-3.4,5.4-2.2,8.4
						c1.5,3.7,5.8,5.5,9.5,4c0.8-0.3,1.5-0.8,2.1-1.3c-0.8,0.9-1.8,1.7-3,2.1C148.3,139.6,143.8,137.7,142.2,133.8L142.2,133.8z"/>
					<path fill-rule="evenodd" clip-rule="evenodd" d="M153.9,135.5c-0.7-1.2-0.9-2.6-0.5-3.9c-0.1,1.1,0.2,2.2,0.8,3.1
						c0.7,1.1,1.7,1.9,2.8,2.3l-0.2,0.6C155.6,137.4,154.6,136.7,153.9,135.5L153.9,135.5z"/>
					<path fill-rule="evenodd" clip-rule="evenodd" d="M160,107.1c5,0.4,8.7,4.8,8.4,9.8c-0.1,1.5-0.6,2.9-1.4,4.1
						c0.4-0.9,0.6-1.8,0.7-2.8c0.4-4.7-3.1-8.9-7.9-9.2c-4.7-0.4-8.9,3.1-9.2,7.9c-0.1,1,0,2,0.3,2.9c-0.6-1.3-0.8-2.8-0.7-4.3
						C150.6,110.4,155,106.7,160,107.1L160,107.1z"/>
					<path fill-rule="evenodd" clip-rule="evenodd" d="M183.1,111.9c3.5,4.9,2.4,11.6-2.5,15.1c-0.9,0.6-1.8,1.1-2.7,1.4l0-0.3
						c0.4-0.2,0.8-0.5,1.2-0.7c4.6-3.3,5.6-9.6,2.4-14.2c-3.3-4.6-9.6-5.6-14.2-2.4c-0.4,0.3-0.7,0.6-1,0.9l-0.2-0.3
						c0.6-0.7,1.3-1.4,2.1-2C172.9,106,179.6,107.1,183.1,111.9L183.1,111.9z"/>
					<path fill-rule="evenodd" clip-rule="evenodd" d="M178.7,129.6c-0.1,3.6-3,6.4-6.6,6.4c-1.9,0-3.7-0.9-4.8-2.3
						c1,1,2.5,1.7,4.1,1.7c3.3,0.1,6-2.6,6-5.8c0-3.3-2.6-6-5.8-6c-1.6,0-3,0.6-4.1,1.6c1.2-1.3,3-2.1,4.9-2.1
						C175.9,123.1,178.8,126.1,178.7,129.6L178.7,129.6z"/>
					<path fill-rule="evenodd" clip-rule="evenodd" d="M166.3,134.6c-1.1,0.1-2.1-0.3-2.8-1c0.7,0.4,1.6,0.6,2.4,0.6
						c2-0.1,3.6-1.7,3.9-3.6v0C170,132.7,168.4,134.5,166.3,134.6L166.3,134.6z"/>
					<path fill-rule="evenodd" clip-rule="evenodd" d="M144.5,119.3c0.9-2.8,3.5-4.6,6.2-4.7l-0.3,1c-2.1,0.5-3.9,2-4.6,4.2
						c-1.1,3.3,0.7,6.8,4,7.8c1.6,0.5,3.2,0.4,4.6-0.3c-1.6,1-3.6,1.2-5.6,0.6C145.3,126.7,143.3,122.9,144.5,119.3L144.5,119.3z"/>
					<path fill-rule="evenodd" clip-rule="evenodd" d="M169.6,143.2c3.5-0.6,5.8-4,5.2-7.5c0-0.2-0.1-0.5-0.2-0.7l-0.3,0.1
						c0.5,3.2-1.7,6.2-4.9,6.8c-2.2,0.4-4.4-0.5-5.7-2.1l-0.1,0.3l-0.4,0.4C164.5,142.6,167,143.7,169.6,143.2L169.6,143.2z"/>
					<path fill-rule="evenodd" clip-rule="evenodd" d="M158.7,141.8c-1.9-0.9-2.7-3.2-1.8-5.1c0.5-1,1.4-1.7,2.4-2
						c-0.8,0.3-1.5,0.9-1.9,1.7c-0.8,1.7-0.1,3.8,1.6,4.6c1.7,0.8,3.8,0.1,4.6-1.6c0.4-0.8,0.4-1.7,0.2-2.6c0.4,1,0.4,2.1-0.1,3.1
						C162.9,141.9,160.6,142.7,158.7,141.8L158.7,141.8z"/>
				</g>
			</g>
			
				<line fill="none" stroke="#231F20" stroke-width="0.5669" stroke-linecap="round" stroke-linejoin="round" stroke-miterlimit="2.4142" x1="176.9" y1="155.8" x2="181.2" y2="184.2"/>
			
				<line fill="none" stroke="#231F20" stroke-width="0.5669" stroke-linecap="round" stroke-linejoin="round" stroke-miterlimit="2.4142" x1="177.7" y1="177.6" x2="176.2" y2="169"/>
			
				<line fill="none" stroke="#231F20" stroke-width="0.5669" stroke-linecap="round" stroke-linejoin="round" stroke-miterlimit="2.4142" x1="172.3" y1="158.4" x2="170.5" y2="149.8"/>
		</g>
	</g>
</g>
<g id="Layer_39">
</g>
<g id="Layer_40">
</g>
</svg>
