<?xml version="1.0" encoding="utf-8"?>
<!-- Generator: Adobe Illustrator 18.1.1, SVG Export Plug-In . SVG Version: 6.00 Build 0)  -->
<!DOCTYPE svg PUBLIC "-//W3C//DTD SVG 1.1//EN" "http://www.w3.org/Graphics/SVG/1.1/DTD/svg11.dtd">
<svg version="1.1" xmlns="http://www.w3.org/2000/svg" xmlns:xlink="http://www.w3.org/1999/xlink" x="0px" y="0px"
	 viewBox="0 0 393 483" enable-background="new 0 0 393 483" xml:space="preserve">
<g id="ziutek_x5F_01">
</g>
<g id="ziutek_x5F_02">
</g>
<g id="ziutek_x5F_03">
</g>
<g id="ziutek_x5F_04">
</g>
<g id="ziutek_x5F_05">
</g>
<g id="ziutek_x5F_06">
</g>
<g id="ziutek_x5F_07">
</g>
<g id="ziutek_x5F_08">
</g>
<g id="ziutek_x5F_09">
	<g>
		<path d="M381.6,251.2c0.1,0,0.1-0.1,0.2-0.1l-0.1-11c-0.1,0-0.2,0.1-0.3,0.1l0,0c0,0-0.1,0-0.1,0c0-0.1,0-0.2,0-0.3l-77.5,0.4
			l-28.6,0c3.7-17.9,8.1-34.1,13.4-48.6c-0.3,0-0.7-0.1-0.9-0.2c-0.1,0-0.1,0-0.2,0c0,0,0,0,0,0.1l-76.9-1.7c0,0,0,0,0-0.1
			c-0.1,0-0.2,0-0.3,0c-0.3,0-0.6,0-0.9-0.1c-5.7,15.6-10.1,31.5-13.4,47.7l-5,3h-9.9c0-0.3-0.1-0.6-0.2-0.9
			c-0.8-4.6-1.6-9.3-2.5-13.9c-0.8-4.6-1.8-9-3.1-13.5c1.2-1.5,2.4-2.9,3.6-4.4c1.6-1.8,3.2-3.5,4.8-5.3c1.7-1.8,3.5-3.6,5.3-5.4
			c1.9-1.9,3.9-3.8,5.8-5.7c2.2-2.2,4.4-4.4,6.6-6.6c1.9-1.9,3.7-3.8,5.4-5.8c1.8-2,3.5-4,5.1-6.1c2-2.4,3.8-4.9,5.6-7.5
			c1.6-2.4,3.1-4.9,4.3-7.5c1.2-2.6,2.4-5.2,3.4-7.9c1.1-2.8,2-5.7,2.7-8.6c0.3-1.1,0.5-2.2,0.7-3.4c0.1-1,0.2-1.9,0.1-2.8
			c-0.1,0-0.1,0-0.2-0.1c0-0.1,0-0.2,0-0.3c-0.1-0.1-0.3-0.2-0.4-0.3c0.1-0.1,0.2-0.2,0.3-0.3c0.5-0.6,1.1-1.1,1.6-1.7
			c0.1-0.1,0.1-0.1,0.2-0.2c2.2-3.2,3-6.8,2.2-10.8c-0.5-2.9,0.3-5.3,2.5-7.4c1.4-1.3,2.4-2.8,3-4.6c0.2-0.5,0.2-0.9,0.3-1.2
			c0-0.3,0-0.8,0-1.6c0-0.7-0.4-1.4-1.1-1.9c-0.7-0.6-1.7-0.7-2.8-0.3c-1.1,0.4-2.2,1.4-3.3,3c-0.9,1.3-1.7,2.7-2.4,4h-1.2
			c0.1-4,0.1-8.1,0.1-12.1c0-1.1-0.4-1.9-1.2-2.6c-0.5-0.4-1-0.7-1.6-0.7c-2-0.3-3.2,0.6-3.7,2.5c-0.2,0.6-0.2,1.2-0.3,1.9
			c0,0.2,0,0.5,0,0.7c0.1,3,0,6.1-0.5,9c0,0.3-0.1,0.5-0.2,0.7c-1.3-2.5-2.2-5-2.6-7.5c-0.4-2.5-1-4.3-1.7-5.4
			c-0.7-1.2-1.6-1.8-2.9-1.8c-1.2-0.1-2.2,0.6-2.9,2c-0.2,0.3-0.2,0.6-0.2,1c0,2.8,0.3,5.6,1,8.3c0.5,2,0.7,4,0.8,6
			c0,0.3,0,0.7-0.2,1c-0.6,1.8-1.8,2.6-3.7,2.2c-2-0.4-3.5-1.4-4.4-3.2c-0.6-1.1-1.4-2-2.3-2.8c-0.6-0.5-1.3-0.6-2.1-0.4
			c-1.2,0.4-1.8,1.3-1.7,2.6c0.1,1.6,0.6,3.7,1.5,6.3c0.8,2.6,2.3,4.6,4.3,5.9c2,1.4,3.7,2.4,5.3,3.1c1.6,0.7,3.1,2.2,4.5,4.5
			c0.2,0.2,0.3,0.5,0.5,0.7c-0.1,0.1-0.3,0.1-0.4,0.2c-0.1,0-0.1,0-0.2,0c0,0-0.1,0-0.2,0c0,0.1,0,0.2,0,0.3c0,0,0,0-0.1,0
			c0,0,0,0.1,0,0.2c-0.7,4.5-2,9-3.9,13.2c-2.8,6.2-6.1,12.2-9.7,18c-4,6.3-8.9,11.8-14.6,16.6c-2.2,1.8-4.4,3.6-6.7,5.4
			c-3.8,2.9-7.9,5.1-12.2,6.8c-1.5-1.7-3.1-3.3-5-4.8c-2.3-1.9-4.8-3.4-7.4-4.8c0,0-0.1,0-0.1,0c0.4-0.3,0.7-0.7,1.1-1
			c0.7-0.7,1.4-1.5,2-2.4c0.8-1.4,1.6-2.7,2.3-4.2c0.5-1.1,1-2.2,1.5-3.2c0.8-1.8,1.4-3.7,2-5.6c0.7-2.7,1.4-5.4,1.8-8.2
			c0.9-5.5,1.5-11.1,1.7-16.7c0.3-8.7-0.1-17.3-1.4-25.9c-0.8-5.8-2.2-11.5-4.2-17.1c-0.7-1.8-1.4-3.6-2.4-5.3
			c1,0.2,1.6,0.2,1.7,0.3c0.1,0,0.6,0.3,1.6,0.9c1.1,0.6,1.8,0.8,2.3,0.8c0.2,0,0.4,0,0.5-0.2c0,0,0.1-0.2,0.1-0.3
			c-0.2-0.7-0.7-2.2-1.4-4.3c-0.7-1.9-1-2.9-1-3c0-0.4,0-0.5,0-0.2c2.3,2.2,4.2,4.4,5.7,6.8c-0.2-0.8-0.4-1.6-0.6-2.2c0,0,0,0,0,0
			c-0.3-1.3-0.6-2.6-1-3.8c-0.7-2.4-1.5-4.7-2.5-6.9c-0.6-1.4-1.3-2.6-2.1-3.9c-0.5-0.7-0.9-1.4-1.5-2.1c-0.4-0.5-0.8-1-1.2-1.5
			c-1-1.2-2-2.2-3.2-3.2c-1.2-1-2.5-2-3.8-2.9c-3.7-2.6-7.7-4.6-12-6.1c-2.9-1-5.9-1.7-9-2c-8.1-0.8-16.1-0.4-24.1,1.4
			c-3.3,0.7-6.5,1.8-9.6,3c-1.6,0.7-3.2,1.5-4.8,2.4c-3.6,2.1-6.8,4.7-9.6,7.7c-1.8,1.9-3.4,4-4.8,6.2c-0.6,1-1.2,1.9-1.7,2.9
			c-0.6,1.2-1.2,2.4-1.7,3.7c-2.5,5.8-4.2,12-5.1,18.2c-0.5,3.2-0.9,6.4-1.4,9.5c-1.3,9.8-1.6,19.6-0.9,29.5
			c0.3,4.3,1.1,8.5,2.4,12.6c0.3,0.9,0.7,1.8,1.1,2.7c0.3,0.6,0.6,1.2,0.9,1.7c0.1,0.3,0.3,0.6,0.5,0.8c0.3,0.5,0.6,0.9,1,1.3
			c0.2,0.2,0.4,0.4,0.7,0.7c0.5,1.2,1.1,2.6,1.7,4.1c2.3,4.9,3.6,7.6,3.8,8c0.6,1.3,1.4,2.6,2.3,4.1c-2,1.2-3.9,2.5-5.7,4
			c-2.3,2-4.5,4.1-6.5,6.4c-1.5,1.7-2.9,3.5-4.1,5.3c-0.9,0.9-1.8,1.8-2.6,2.8c-2.1,2.2-4.2,4.5-6.3,6.8c-1.6,1.7-3.2,3.5-4.7,5.3
			c-1.7,2-3.4,4-5.1,6.1c-1.2,1.5-2.4,3-3.6,4.6c-1.6,2.1-3.1,4.3-4.5,6.5c-0.8,1.3-1.6,2.6-2.3,3.9c-1.7,3.1-2.2,6.3-1.4,9.7
			c0.2,0.9,0.5,1.9,0.8,2.9c0.5,1.4,0.9,2.8,1.3,4.2c0.5,1.4,0.9,2.8,1.4,4.1c1,2.9,2.1,5.8,3.1,8.7c1.1,3.1,2.2,6.2,3.3,9.3
			c0,0.7-0.1,1.4-0.1,2.1c-0.1,2.6-0.2,5.1-0.3,7.8c-0.1,3,0,6.1,0.1,9.1c0.1,3,0.5,6.1,1,9.1c0.2,0.9,0.4,1.8,0.6,2.7
			c-1.1,0.6-2.2,1.3-3.2,2.2c-1.3,1-2.3,2.1-3.3,3.3c-0.4,0.5-0.7,1-1,1.4c-0.1,0-0.1,0-0.2,0.1c-0.1,0.2-0.2,0.4-0.3,0.6l0.2,37
			l0,106.5c0.2,0.1,0.3,0.3,0.4,0.5c0.2,0.1,0.3,0.1,0.5,0.2c0,0,0.1,0,0.1,0v0c1.6,0.4,3.4,0.5,5.2,0.2c0.4,0,0.7-0.1,1-0.2v0.1
			c0.3-0.1,0.6-0.2,0.9-0.3c0,0,0.1-0.1,0.1-0.1c0,0,0,0,0.1,0c0,0,0,0,0,0c0.1,0,0.1-0.1,0.2-0.1l-0.1-53.7l30.1,0l0,28.1
			c0.1,0,0.2,0.1,0.3,0.1c0,0,0.1,0,0.2,0c0,0.1,0,0.3,0,0.4c1.6,0.4,3.4,0.5,5.2,0.2c0.7-0.1,1.5-0.2,2.2-0.4c0,0,0-0.1,0-0.1
			c0.2-0.1,0.4-0.1,0.7-0.2l0-28.2l27.6,0c0.2,0.8,0.4,1.5,0.8,2.1c-0.1,0.1-0.2,0.3-0.3,0.5c-1,1.8-1.5,3.7-1.5,5.9
			c0,0.5,0.1,1.2,0.3,2c0.2,1.2,0.7,2.3,1.2,3.3c1.6,3,4.2,4.5,7.8,4.5c7.5,0,13-1.7,16.4-5c1.2-1.2,2.1-2.5,2.7-4
			c0.4-1.1,0.6-2.1,0.6-3.1c-0.1-2.1-0.5-4.1-1.1-5.9c0-0.1-0.1-0.2-0.1-0.3l16.7-0.1l0,53.8c0.3,0.1,0.7,0.2,1,0.4c0,0,0,0,0,0
			c0,0,0,0.1,0,0.1c1.6,0.4,3.4,0.5,5.2,0.2c0.7-0.1,1.5-0.2,2.2-0.4c0-0.1,0-0.2,0-0.3c0.1,0,0.1,0,0.2-0.1l0-53.9l18.2-12
			c0,4.1,0.5,8.1,1.4,12.1c0.2,0.7,0.4,1.3,0.6,1.9c-0.2,0.3-0.4,0.6-0.5,0.9c-1,1.8-1.5,3.7-1.5,5.9c0,0.5,0.1,1.2,0.3,2
			c0.2,1.2,0.7,2.3,1.2,3.3c1.6,3,4.2,4.5,7.8,4.5c0.9,0,1.8,0,2.6-0.1l0,10.1c0.2,0.1,0.3,0.2,0.5,0.4c0.1,0,0.2,0,0.2,0
			c0,0,0,0,0,0c1.6,0.4,3.4,0.5,5.2,0.2c0.6-0.1,1.1-0.2,1.7-0.3c0,0,0,0,0,0c0,0,0,0,0,0c0.1,0,0.3-0.1,0.4-0.1c0-0.1,0-0.1,0-0.2
			c0.1-0.1,0.3-0.1,0.4-0.2l0-11.5c2.1-0.8,3.8-1.9,5.2-3.3c1.2-1.2,2.1-2.5,2.7-4c0.4-1.1,0.6-2.1,0.6-3.1
			c-0.1-2.1-0.5-4.1-1.1-5.9c-1.2-3.7-3.1-5.6-5.7-5.6c-0.6,0-1.2,0-1.8,0.1l0-47.7l-0.2-21.3c0,0,0.1-0.1,0.1-0.2l-8.8,0l0,0
			c-0.2,0-0.3,0-0.5,0c-0.1,0-0.3,0-0.5,0c-0.4,0-0.8,0-1.2-0.1l-0.5,0.3c0.1-0.9,0.1-1.8,0.2-2.8c0.4-7.1,0.1-14.1-0.9-21.1
			c-0.4-2.4-0.7-4.8-1-7.2l101.9-0.1l0,99.5c0.3,0.1,0.7,0.2,1,0.4c0.1,0,0.2,0,0.3,0v-0.1c1.1,0.3,2.3,0.4,3.6,0.4
			c1.6,0,3.2-0.2,4.7-0.6v0.1c0.1,0,0.1,0,0.2,0c0.3-0.2,0.7-0.3,1.1-0.4l-0.1-99.3l12.6-0.1c0,0,0,0,0,0c0,0,0.1,0,0.1,0
			c0.1-0.1,0.2-0.3,0.4-0.4l36.4-23.9l0,83.3c0.2,0.1,0.3,0.2,0.4,0.3c0,0.1,0,0.2,0,0.3c1.4,0.4,2.9,0.7,4.6,0.7
			c1.9,0,3.7-0.3,5.5-0.8c0,0,0-0.1,0-0.1c0.2-0.1,0.3-0.1,0.5-0.2l-0.1-90.7L381.6,251.2C381.6,251.2,381.6,251.2,381.6,251.2z
			 M190,351.2c-1.2-0.2-2.4-0.3-3.6-0.2c0.9-2.7,1.7-5.4,2.4-8.2c0.6-2.3,1.1-4.7,1.5-7.1l4.1-2.7l0,20.4
			C193.2,352.2,191.7,351.5,190,351.2z"/>
		<path d="M194.3,324.7c0,0,0-0.1,0.1-0.1c0,0-0.1,0-0.1,0v0.3C194.3,324.8,194.3,324.8,194.3,324.7z"/>
	</g>
	<g>
		<path fill="none" d="M190.2,335.6c-0.4,2.4-0.9,4.7-1.5,7.1c-0.7,2.8-1.5,5.5-2.4,8.2c1.2-0.1,2.4,0,3.6,0.2
			c1.7,0.3,3.2,1.1,4.4,2.2l0-20.4L190.2,335.6z"/>
		<path d="M381.6,251.2c0.1,0,0.1-0.1,0.2-0.1l-0.1-11c-0.1,0-0.2,0.1-0.3,0.1l0,0c0,0-0.1,0-0.1,0c0-0.1,0-0.2,0-0.3l-77.5,0.4
			l-28.6,0c3.7-17.9,8.1-34.1,13.4-48.6c-0.3,0-0.7-0.1-0.9-0.2c-0.1,0-0.1,0-0.2,0c0,0,0,0,0,0.1l-76.9-1.7c0,0,0,0,0-0.1
			c-0.1,0-0.2,0-0.3,0c-0.3,0-0.6,0-0.9-0.1c-5.7,15.6-10.1,31.5-13.4,47.7l-5,3h-9.9c0-0.3-0.1-0.6-0.2-0.9
			c-0.8-4.6-1.6-9.3-2.5-13.9c-0.8-4.6-1.8-9-3.1-13.5c1.2-1.5,2.4-2.9,3.6-4.4c1.6-1.8,3.2-3.5,4.8-5.3c1.7-1.8,3.5-3.6,5.3-5.4
			c1.9-1.9,3.9-3.8,5.8-5.7c2.2-2.2,4.4-4.4,6.6-6.6c1.9-1.9,3.7-3.8,5.4-5.8c1.8-2,3.5-4,5.1-6.1c2-2.4,3.8-4.9,5.6-7.5
			c1.6-2.4,3.1-4.9,4.3-7.5c1.2-2.6,2.4-5.2,3.4-7.9c1.1-2.8,2-5.7,2.7-8.6c0.3-1.1,0.5-2.2,0.7-3.4c0.1-1,0.2-1.9,0.1-2.8
			c-0.1,0-0.1,0-0.2-0.1c0-0.1,0-0.2,0-0.3c-0.1-0.1-0.3-0.2-0.4-0.3c0.1-0.1,0.2-0.2,0.3-0.3c0.5-0.6,1.1-1.1,1.6-1.7
			c0.1-0.1,0.1-0.1,0.2-0.2c2.2-3.2,3-6.8,2.2-10.8c-0.5-2.9,0.3-5.3,2.5-7.4c1.4-1.3,2.4-2.8,3-4.6c0.2-0.5,0.2-0.9,0.3-1.2
			c0-0.3,0-0.8,0-1.6c0-0.7-0.4-1.4-1.1-1.9c-0.7-0.6-1.7-0.7-2.8-0.3c-1.1,0.4-2.2,1.4-3.3,3c-0.9,1.3-1.7,2.7-2.4,4h-1.2
			c0.1-4,0.1-8.1,0.1-12.1c0-1.1-0.4-1.9-1.2-2.6c-0.5-0.4-1-0.7-1.6-0.7c-2-0.3-3.2,0.6-3.7,2.5c-0.2,0.6-0.2,1.2-0.3,1.9
			c0,0.2,0,0.5,0,0.7c0.1,3,0,6.1-0.5,9c0,0.3-0.1,0.5-0.2,0.7c-1.3-2.5-2.2-5-2.6-7.5c-0.4-2.5-1-4.3-1.7-5.4
			c-0.7-1.2-1.6-1.8-2.9-1.8c-1.2-0.1-2.2,0.6-2.9,2c-0.2,0.3-0.2,0.6-0.2,1c0,2.8,0.3,5.6,1,8.3c0.5,2,0.7,4,0.8,6
			c0,0.3,0,0.7-0.2,1c-0.6,1.8-1.8,2.6-3.7,2.2c-2-0.4-3.5-1.4-4.4-3.2c-0.6-1.1-1.4-2-2.3-2.8c-0.6-0.5-1.3-0.6-2.1-0.4
			c-1.2,0.4-1.8,1.3-1.7,2.6c0.1,1.6,0.6,3.7,1.5,6.3c0.8,2.6,2.3,4.6,4.3,5.9c2,1.4,3.7,2.4,5.3,3.1c1.6,0.7,3.1,2.2,4.5,4.5
			c0.2,0.2,0.3,0.5,0.5,0.7c-0.1,0.1-0.3,0.1-0.4,0.2c-0.1,0-0.1,0-0.2,0c0,0-0.1,0-0.2,0c0,0.1,0,0.2,0,0.3c0,0,0,0-0.1,0
			c0,0,0,0.1,0,0.2c-0.7,4.5-2,9-3.9,13.2c-2.8,6.2-6.1,12.2-9.7,18c-4,6.3-8.9,11.8-14.6,16.6c-2.2,1.8-4.4,3.6-6.7,5.4
			c-3.8,2.9-7.9,5.1-12.2,6.8c-1.5-1.7-3.1-3.3-5-4.8c-2.3-1.9-4.8-3.4-7.4-4.8c0,0-0.1,0-0.1,0c0.4-0.3,0.7-0.7,1.1-1
			c0.7-0.7,1.4-1.5,2-2.4c0.8-1.4,1.6-2.7,2.3-4.2c0.5-1.1,1-2.2,1.5-3.2c0.8-1.8,1.4-3.7,2-5.6c0.7-2.7,1.4-5.4,1.8-8.2
			c0.9-5.5,1.5-11.1,1.7-16.7c0.3-8.7-0.1-17.3-1.4-25.9c-0.8-5.8-2.2-11.5-4.2-17.1c-0.7-1.8-1.4-3.6-2.4-5.3
			c1,0.2,1.6,0.2,1.7,0.3c0.1,0,0.6,0.3,1.6,0.9c1.1,0.6,1.8,0.8,2.3,0.8c0.2,0,0.4,0,0.5-0.2c0,0,0.1-0.2,0.1-0.3
			c-0.2-0.7-0.7-2.2-1.4-4.3c-0.7-1.9-1-2.9-1-3c0-0.4,0-0.5,0-0.2c2.3,2.2,4.2,4.4,5.7,6.8c-0.2-0.8-0.4-1.6-0.6-2.2c0,0,0,0,0,0
			c-0.3-1.3-0.6-2.6-1-3.8c-0.7-2.4-1.5-4.7-2.5-6.9c-0.6-1.4-1.3-2.6-2.1-3.9c-0.5-0.7-0.9-1.4-1.5-2.1c-0.4-0.5-0.8-1-1.2-1.5
			c-1-1.2-2-2.2-3.2-3.2c-1.2-1-2.5-2-3.8-2.9c-3.7-2.6-7.7-4.6-12-6.1c-2.9-1-5.9-1.7-9-2c-8.1-0.8-16.1-0.4-24.1,1.4
			c-3.3,0.7-6.5,1.8-9.6,3c-1.6,0.7-3.2,1.5-4.8,2.4c-3.6,2.1-6.8,4.7-9.6,7.7c-1.8,1.9-3.4,4-4.8,6.2c-0.6,1-1.2,1.9-1.7,2.9
			c-0.6,1.2-1.2,2.4-1.7,3.7c-2.5,5.8-4.2,12-5.1,18.2c-0.5,3.2-0.9,6.4-1.4,9.5c-1.3,9.8-1.6,19.6-0.9,29.5
			c0.3,4.3,1.1,8.5,2.4,12.6c0.3,0.9,0.7,1.8,1.1,2.7c0.3,0.6,0.6,1.2,0.9,1.7c0.1,0.3,0.3,0.6,0.5,0.8c0.3,0.5,0.6,0.9,1,1.3
			c0.2,0.2,0.4,0.4,0.7,0.7c0.5,1.2,1.1,2.6,1.7,4.1c2.3,4.9,3.6,7.6,3.8,8c0.6,1.3,1.4,2.6,2.3,4.1c-2,1.2-3.9,2.5-5.7,4
			c-2.3,2-4.5,4.1-6.5,6.4c-1.5,1.7-2.9,3.5-4.1,5.3c-0.9,0.9-1.8,1.8-2.6,2.8c-2.1,2.2-4.2,4.5-6.3,6.8c-1.6,1.7-3.2,3.5-4.7,5.3
			c-1.7,2-3.4,4-5.1,6.1c-1.2,1.5-2.4,3-3.6,4.6c-1.6,2.1-3.1,4.3-4.5,6.5c-0.8,1.3-1.6,2.6-2.3,3.9c-1.7,3.1-2.2,6.3-1.4,9.7
			c0.2,0.9,0.5,1.9,0.8,2.9c0.5,1.4,0.9,2.8,1.3,4.2c0.5,1.4,0.9,2.8,1.4,4.1c1,2.9,2.1,5.8,3.1,8.7c1.1,3.1,2.2,6.2,3.3,9.3
			c0,0.7-0.1,1.4-0.1,2.1c-0.1,2.6-0.2,5.1-0.3,7.8c-0.1,3,0,6.1,0.1,9.1c0.1,3,0.5,6.1,1,9.1c0.2,0.9,0.4,1.8,0.6,2.7
			c-1.1,0.6-2.2,1.3-3.2,2.2c-1.3,1-2.3,2.1-3.3,3.3c-0.4,0.5-0.7,1-1,1.4c-0.1,0-0.1,0-0.2,0.1c-0.1,0.2-0.2,0.4-0.3,0.6l0.2,37
			l0,106.5c0.2,0.1,0.3,0.3,0.4,0.5c0.2,0.1,0.3,0.1,0.5,0.2c0,0,0.1,0,0.1,0v0c1.6,0.4,3.4,0.5,5.2,0.2c0.4,0,0.7-0.1,1-0.2v0.1
			c0.3-0.1,0.6-0.2,0.9-0.3c0,0,0.1-0.1,0.1-0.1c0,0,0,0,0.1,0c0,0,0,0,0,0c0.1,0,0.1-0.1,0.2-0.1l-0.1-53.7l30.1,0l0,28.1
			c0.1,0,0.2,0.1,0.3,0.1c0,0,0.1,0,0.2,0c0,0.1,0,0.3,0,0.4c1.6,0.4,3.4,0.5,5.2,0.2c0.7-0.1,1.5-0.2,2.2-0.4c0,0,0-0.1,0-0.1
			c0.2-0.1,0.4-0.1,0.7-0.2l0-28.2l27.6,0c0.2,0.8,0.4,1.5,0.8,2.1c-0.1,0.1-0.2,0.3-0.3,0.5c-1,1.8-1.5,3.7-1.5,5.9
			c0,0.5,0.1,1.2,0.3,2c0.2,1.2,0.7,2.3,1.2,3.3c1.6,3,4.2,4.5,7.8,4.5c7.5,0,13-1.7,16.4-5c1.2-1.2,2.1-2.5,2.7-4
			c0.4-1.1,0.6-2.1,0.6-3.1c-0.1-2.1-0.5-4.1-1.1-5.9c0-0.1-0.1-0.2-0.1-0.3l16.7-0.1l0,53.8c0.3,0.1,0.7,0.2,1,0.4c0,0,0,0,0,0
			c0,0,0,0.1,0,0.1c1.6,0.4,3.4,0.5,5.2,0.2c0.7-0.1,1.5-0.2,2.2-0.4c0-0.1,0-0.2,0-0.3c0.1,0,0.1,0,0.2-0.1l0-53.9l18.2-12
			c0,4.1,0.5,8.1,1.4,12.1c0.2,0.7,0.4,1.3,0.6,1.9c-0.2,0.3-0.4,0.6-0.5,0.9c-1,1.8-1.5,3.7-1.5,5.9c0,0.5,0.1,1.2,0.3,2
			c0.2,1.2,0.7,2.3,1.2,3.3c1.6,3,4.2,4.5,7.8,4.5c0.9,0,1.8,0,2.6-0.1l0,10.1c0.2,0.1,0.3,0.2,0.5,0.4c0.1,0,0.2,0,0.2,0
			c0,0,0,0,0,0c1.6,0.4,3.4,0.5,5.2,0.2c0.6-0.1,1.1-0.2,1.7-0.3c0,0,0,0,0,0c0,0,0,0,0,0c0.1,0,0.3-0.1,0.4-0.1c0-0.1,0-0.1,0-0.2
			c0.1-0.1,0.3-0.1,0.4-0.2l0-11.5c2.1-0.8,3.8-1.9,5.2-3.3c1.2-1.2,2.1-2.5,2.7-4c0.4-1.1,0.6-2.1,0.6-3.1
			c-0.1-2.1-0.5-4.1-1.1-5.9c-1.2-3.7-3.1-5.6-5.7-5.6c-0.6,0-1.2,0-1.8,0.1l0-47.7l-0.2-21.3c0,0,0.1-0.1,0.1-0.2l-8.8,0l0,0
			c-0.2,0-0.3,0-0.5,0c-0.1,0-0.3,0-0.5,0c-0.4,0-0.8,0-1.2-0.1l-0.5,0.3c0.1-0.9,0.1-1.8,0.2-2.8c0.4-7.1,0.1-14.1-0.9-21.1
			c-0.4-2.4-0.7-4.8-1-7.2l101.9-0.1l0,99.5c0.3,0.1,0.7,0.2,1,0.4c0.1,0,0.2,0,0.3,0v-0.1c1.1,0.3,2.3,0.4,3.6,0.4
			c1.6,0,3.2-0.2,4.7-0.6v0.1c0.1,0,0.1,0,0.2,0c0.3-0.2,0.7-0.3,1.1-0.4l-0.1-99.3l12.6-0.1c0,0,0,0,0,0c0,0,0.1,0,0.1,0
			c0.1-0.1,0.2-0.3,0.4-0.4l36.4-23.9l0,83.3c0.2,0.1,0.3,0.2,0.4,0.3c0,0.1,0,0.2,0,0.3c1.4,0.4,2.9,0.7,4.6,0.7
			c1.9,0,3.7-0.3,5.5-0.8c0,0,0-0.1,0-0.1c0.2-0.1,0.3-0.1,0.5-0.2l-0.1-90.7L381.6,251.2C381.6,251.2,381.6,251.2,381.6,251.2z
			 M204.7,396.7c1.8,0,3.3,1.5,4.4,4.6c0.4,1.1,0.7,2.2,0.9,3.4c0.2,1,0.3,1.7,0.3,2.1c0,2.3-0.9,4.4-2.8,6.3
			c-1.2,1.2-2.7,2.2-4.5,2.9l0-19.1C203.5,396.7,204.1,396.7,204.7,396.7z M210.2,190.7l39,1.5c2.4,0,4.8,0,7.3,0
			c8-0.1,16,0.1,24,0.7c2.2,0.1,4.3,0.2,6.4,0.2c-5.2,14.7-9.3,29.8-12.3,45.1l-1.2,0.7l-2.7,0c3.1-14.9,6.8-28.7,11.1-41.3
			c-0.2,0-0.5,0.1-0.8,0.1c0,0,0,0,0,0v0l-68.8-1.5c0,0,0,0,0,0.1c0,0,0,0,0,0.1c-0.1,0-0.2,0-0.3,0c-4.6,13.5-8.3,27.2-11.1,41.1
			l-2.7-0.1c-0.4,0-0.7,0-1.1-0.1C200.7,220.2,205.1,204.7,210.2,190.7z M241,263.4c0-0.1-0.1-0.3-0.1-0.4c-0.8,0.5-1.6,0.9-2.4,1.4
			c-0.1,0-0.3,0-0.4,0.1c-0.2,0-0.2,0.1-0.3,0.1v0.2c-0.4,0.2-0.8,0.5-1.2,0.7c0.1,0.3,0.1,0.5,0.1,0.9c0,0.1,0,0.2,0,0.2l1.6-0.9
			c0.4,0.3,0.9,0.5,1.5,0.7c0.2,0.1,0.4,0.1,0.6,0.2c-3.3,1.8-6.7,3.6-10,5.3c0-1.6-0.1-2.9-0.3-4.1c0.1-0.2,0.2-0.5,0.4-0.7
			l43.7-27.6c-0.6,3.1-1.2,6.3-1.7,9.4l-17.7,9.4c-2.1,1.2-4.2,2.5-6.3,3.7c-2.1,1.2-4.2,2.5-6.4,3.6c-0.6-0.1-1.1-0.3-1.5-0.4
			c0,0-0.3-0.1-0.8-0.4l1.3-0.7C241.1,263.8,241.1,263.6,241,263.4z M190.8,248.1l6.6,0.7l-3.2,1.9c-1.6,1.1-3.2,2.2-4.8,3.3
			l-6.1-0.5c0-0.2-0.1-0.4-0.1-0.6L190.8,248.1z M183,251.5c-0.3-1.4-0.5-2.8-0.7-4.2v0l6.5,0.7l-4.6,2.8
			C183.8,251,183.4,251.2,183,251.5z M241.2,251.2l8.5-5.4c0.6,0.1,1.3,0.1,1.9,0.2c3,0.3,6,0.6,8.9,0.6l-6.6,4
			c-0.7,0.5-1.4,1-2.1,1.4c0,0,0,0,0,0L241.2,251.2z M221.7,227.1L221.7,227.1c-0.4-0.5-0.7-1-1.2-1.5c-0.3-0.5-0.7-1.3-1-2.2
			c-0.4-1-0.7-1.9-0.9-2.8c-0.3-0.9-0.6-2.1-0.8-3.6c-0.2-1-0.3-1.9-0.4-2.5c0.2,0,0.4-0.1,0.6-0.2c0.4-0.1,0.8-0.2,1.2-0.3
			c0.3,2.1,0.9,4.4,1.7,7c0.7,2.3,1.6,3.9,2.4,4.7c0.1,0.2,0.3,0.5,0.4,0.8c2.1-1.7,4.4-2.9,7-3.6c0.3,0.5,0.8,0.9,1.3,1.3
			c0,0.1-0.1,0.3-0.2,0.4c-0.7,1.5-1.1,2.4-1.1,2.8c0,0.3,0.1,0.5,0.2,0.6c0.1,0,0.2,0.1,0.4,0.2c0.7-0.3,1.8-0.9,3.4-1.8
			c0.4-0.2,0.7-0.4,0.9-0.6c1.4,0.3,2.9,0.5,4.7,0.5c0.1,0,0.2,0,0.3,0c0.2,0.3,0.5,0.7,0.8,1c1,1.1,1.7,1.6,2.3,1.6
			c0.4,0,0.9-1.2,1.5-3.6c0.2-0.1,0.5-0.2,0.7-0.4c1.1,0.8,1.9,1.7,2.6,2.9c0.3,0.6,0.6,1.2,0.8,1.9c0.2,0.1,0.5,0.2,0.7,0.4
			c0,0,0,0,0,0c0.3,0,0.5,0,0.7,0.1v0c1.4,0.7,2.8,1.6,4,2.8c1.9,1.7,3.2,3.6,3.9,5.7l-2.4,0c-0.6-1.6-1.5-3.1-2.7-4.5
			c-0.6-0.7-1.3-1.2-2.2-1.5c-0.4-0.1-0.7-0.3-1.1-0.4c0,0,0,0.1,0,0.1c-0.2-0.1-0.4-0.1-0.5-0.2c0,0.6,0.1,1.5,0.1,2.8
			c0,1.2,0,2.3-0.2,3.6l-34.2-0.7c1.9-4.2,4.2-7.5,6.9-10.1C222.2,227.4,221.9,227.3,221.7,227.1z M215.1,207.2
			c-0.1-0.6-0.2-0.9-0.2-1.1c0-0.5,0.1-0.8,0.4-1.2c0.2,0.5,0.5,1.1,0.9,2c0.5,1,0.8,1.5,1,1.5c0.4,0,0.6-0.1,0.6-0.3
			c0-0.6,0.1-1.4,0.3-2.3c0.1-0.5,0.4-1.3,0.7-2.3l0.2,0v2.5c-0.3,0.7-0.5,1.3-0.5,1.8c0,0.1,0,0.2,0,0.3c0,0,0,0,0,0.1
			c0,0.2,0,0.4,0,0.4c0,0,0.1,0,0.2,0.1l0.2,0.1c0,0,0.1,0,0.1,0c0,0,0,0,0,0l0.1,0c0.4,0,1.9-0.6,4.5-1.8l0,0.1
			c-0.5,0.8-1.6,1.9-3.1,3.2c-0.9,0.8-1.5,1.6-1.6,2.4c-0.7,0.1-1.3,0.2-1.8,0.3c0-0.2-0.1-0.5-0.1-0.7c0,0-0.1,0-0.1,0
			c0,0,0,0,0-0.1c0,0,0,0,0,0c-0.7-0.2-1.2-0.3-1.4-0.3c-1.7-0.6-2.5-2-2.5-4.1c0-0.4,0.1-0.6,0.2-0.7c0.1,0.2,0.3,0.6,0.6,1
			c0.4,0.6,0.8,0.9,1,0.9c0.4,0,0.6-0.1,0.6-0.2c0-0.2,0-0.4,0-0.5C215.4,208.1,215.3,207.7,215.1,207.2z M258.9,208.6
			c0.8,1.7,1.2,2.6,1.2,2.9c0,0.2,0,0.4,0,0.4c-1.8-1.8-4.1-3.5-6.9-4.9c-4-2.1-8.2-3.2-12.4-3.2c-2,0-3.8,1-5.5,3
			c-0.6,0.7-1.1,1.4-1.5,2.1l-0.1,0.1c-0.2-0.3-0.5-0.5-0.8-0.6c0.2-0.4,0.4-0.7,0.7-1.1c1.5-2.3,2.6-3.8,3.2-4.3
			c0.2-0.2,0.4-0.4,0.6-0.6c0.8,0,2.9-0.2,6.3-0.6c4.1,0,7.7,0.5,11,1.4c1.3,0.4,2.7,0.9,4.3,1.7c-0.9,0-1.3,0.2-1.3,0.6
			C257.7,205.8,258.1,206.9,258.9,208.6z M233,210.1c0,0.3,0,0.5,0,0.7c0,0.3,0.2,0.6,0.4,0.8c0.2,0,0.3-0.1,0.6-0.2
			c0-0.1,0-0.3,0-0.6c0.4-0.3,0.7-0.7,1.1-1.4c0.2-0.4,0.6-1,1.1-1.9c1-1.6,2.9-2.6,5.7-2.8c2.8-0.2,6.2,0.7,10.5,2.9
			c0.1,0.1,0.3,0.2,0.5,0.2c0.1,0.7,0.1,1.1,0.1,1.3c-0.2,2.9-0.8,5.6-2,8.2c-2.3,5.1-5.8,7.7-10.6,7.7c-4.5,0-7.4-1.1-8.8-3.3
			c-0.5-0.7-0.8-1.5-0.9-2.4c-0.1-0.5-0.1-1.1,0-2c0.2-0.3,0.5-0.7,1-1.3c0.7-0.8,1.1-1.4,1.4-1.8c0.3-0.4,0.3-0.7,0-1
			c-0.4-0.3-0.8-0.5-1-0.7c-1-0.7-1.4-1.3-1.4-2l0.1-0.5c0.2-0.4,0.5-0.6,0.9-0.6C232.4,209.4,232.9,209.7,233,210.1z M243.7,225.8
			c-0.1,0.7-0.2,1.1-0.3,1.2c-0.3-0.3-0.6-0.6-0.8-0.9C242.9,226,243.3,225.9,243.7,225.8z M234.1,225.3c-0.6,0.3-1,0.5-1.4,0.7
			l0-0.1c0-0.1,0.2-0.4,0.5-0.9C233.4,225.1,233.7,225.2,234.1,225.3z M230.6,215.2c0-0.3,0.1-0.6,0.1-0.9c0-0.2,0.1-0.4,0.1-0.6
			c0.2,0.2,0.5,0.3,0.8,0.5C231.2,214.6,230.9,214.9,230.6,215.2z M227.6,244.4c1.2,0,2.4,0.1,3.6,0.1l-8.6,5.2l-10.8-0.9l7.6-4.8
			l0.8,0.1C222.8,244.2,225.2,244.3,227.6,244.4z M221.5,242.8l5.7-3.6l2.8,0.1c2.4,0,4.8,0,7.3,0c0.9,0,1.8,0,2.7,0l-7.1,4.3
			L221.5,242.8z M233.3,244.6c4.8,0.3,9.6,0.6,14.4,1.1l-8.3,5c-0.2,0.1-0.3,0.2-0.5,0.4l-14-1.2L233.3,244.6z M234.9,243.7l7-4.4
			c5.2,0,10.5,0.2,15.7,0.5l-8,4.9L234.9,243.7z M251,238.4c0.1-1.5,0.2-2.7,0.2-3.6c0-0.1,0-0.7,0-1.6c0.8,0.5,1.4,1.1,2,1.9
			c0.1,0.1,0.2,0.3,0.3,0.4c0.7,1,1.3,2,1.7,3L251,238.4z M215.8,238.8l9.6,0.4l-5.8,3.5l-9-0.6L215.8,238.8z M217.6,243.9l-7.8,4.8
			l-8.5-0.7l7.6-4.8L217.6,243.9z M207.8,249.8l-1.5,0.9c-2,1.4-4,2.7-6,4.1c0,0-0.1,0-0.1,0.1l-8.8-0.7l8.2-5.1L207.8,249.8z
			 M210.1,250c2.1,0.1,4.2,0.2,6.3,0.4c1.6,0.1,3.2,0.2,4.7,0.3v0.1c-2,1.4-4,2.7-6,4.1c-0.6,0.4-1.2,0.8-1.8,1.2l-11.2-0.9
			L210.1,250z M223.5,250.8c4.6,0.3,9.2,0.8,13.8,1.3c-1.3,0.9-2.6,1.8-3.9,2.7c-1.3,0.8-2.6,1.7-3.8,2.5l-14.5-1.2L223.5,250.8z
			 M239.4,252.4c0.3,0,0.6,0.1,0.8,0.1c3.3,0.4,6.5,0.7,9.8,0.8c-0.7,0.5-1.4,1-2.2,1.5c-1.8,1.2-3.7,2.4-5.5,3.6l-11.1-0.9
			L239.4,252.4z M251.5,244.7l7.8-4.9c0.6,0,1.3,0.1,1.9,0.1c3.4,0.2,6.7,0.3,10.1,0.2l-8.7,5.3L251.5,244.7z M259.6,238.6
			c-1.2-4.7-4.2-7.9-9.1-9.6c-0.2-0.5-0.4-1-0.6-1.4c-0.7-1.4-1.6-2.5-2.7-3.4c1.8-1.3,3.3-3.2,4.5-5.7c0.8-1.7,1.5-3.7,1.9-5.8
			c0.3-1.5,0.5-2.7,0.5-3.5c0,0,0-0.2,0-0.6c3.3,1.9,5.6,3.8,6.9,5.9c0.4,0,0.6-0.1,0.6-0.3l-1.1-4.8c0,0,0,0,0,0
			c-0.5-1.5-1-2.6-1.4-3c2.3-0.7,3.5-0.9,3.6-0.7c0.1,0.2,0.2,0.1,0.2-0.1c-0.8-0.5-1.5-0.9-2.2-1.3c-1.2-0.7-2.5-1.2-3.8-1.7
			c-3.9-1.4-8.3-2.1-13.2-2.1c-2.4,0-3.6,0-3.6,0.1c-1.2,0.1-2.1,0.2-2.7,0.4c-0.5,0.5-0.9,0.9-1.3,1.2c0,0,0,0,0,0c0,0,0,0,0,0
			c0,0,0,0,0,0c-1.3,1.2-2.6,3.1-3.9,5.7c-0.1,0.1-0.1,0.3-0.2,0.4c-0.1,0-0.3,0-0.5,0c-1,0-1.7,0.3-2.1,0.9
			c-0.1,0.3-0.2,0.8-0.2,1.4c0,0.6,0.2,1.2,0.6,1.9c0.1,0.1,0.2,0.3,0.3,0.5c-0.4,1.5-0.7,3-0.7,4.3c-0.1,0.7-0.1,1.3,0,1.9
			c0,1,0.2,1.8,0.6,2.6c-2.3,0.7-4.4,1.7-6.3,3.1c-0.5-0.7-0.9-1.6-1.3-2.8c-1.4-3.5-2-6-2-7.4c0-1.4,0.1-2.3,0.3-2.6
			c0.2-0.3,0.8-0.9,1.8-1.9c1-1,1.7-1.8,2.2-2.6c0.5-0.8,0.7-1.3,0.6-1.4c-0.2-0.3-0.6-0.5-1-0.5c-0.5,0-1.2,0.2-2.1,0.6
			c-0.9,0.4-1.5,0.6-1.8,0.7l0-0.1c0-0.3,0-0.9,0-2.1c0,0,0-0.5,0-1.5c-0.1-0.9-0.6-1.4-1.4-1.4c-0.6,0-1,0.4-1.3,1
			c-0.3,0.8-0.6,1.4-0.8,1.6c-0.2-0.1-0.3-0.4-0.4-0.8c-0.1-0.4-0.5-0.6-1.1-0.6c-0.3,0-0.7,0.3-1,1c-0.3,0.6-0.5,1-0.6,1.4
			c-0.5-0.2-1.1-0.2-1.6,0c-0.1,1.3-0.2,2.2-0.2,2.6c0,0.2,0.1,0.5,0.2,1c0.2,0.7,0.5,1.4,0.9,2c0.4,0.7,1.1,1.3,2,1.7
			c0.9,0.5,1.4,0.7,1.4,0.7c0.1,2.8,0.8,6,2,9.5c0.7,2,1.4,3.5,2.3,4.6c-2.5,2.6-4.6,6-6.3,10.1l-12.5-0.3
			c3.1-14.6,6.8-28.1,11-40.5l36.4,1.4c2.4,0,4.8,0,7.3,0c7.9-0.1,15.7,0.1,23.6,0.7c-4.3,13.1-7.9,26.4-10.5,40L259.6,238.6z
			 M214,238.7l-5.3,3.2l-7.3-0.5l4.8-3.1L214,238.7z M206.9,243l-7.8,4.7l-6.8-0.6l7.5-4.7L206.9,243z M187.9,255
			c-1.3,0.8-2.6,1.7-3.8,2.5c-0.2-1-0.3-2-0.5-3L187.9,255z M189.8,255.2l11.5,1.1c2.4,0.1,4.8,0.3,7.2,0.4c1.1,0,2.2,0.1,3.3,0.2
			c-4.9,3.2-9.8,6.2-14.8,9.2l-11.6-0.3c-0.4-2.4-0.8-4.8-1.2-7.2L189.8,255.2z M200.9,267.6c2.4,0,4.8,0,7.3,0
			c6.8-0.1,13.7,0.1,20.5,0.5c0.1,0.9,0.2,1.9,0.2,3.1c0,0.4,0,0.7,0.1,1.1l-42.8-0.9c-0.2-1.4-0.4-2.8-0.7-4.2L200.9,267.6z
			 M199.2,266.2l14.4-9.1c6.3,0.4,12.5,1,18.8,1.8c2.7,0.4,5.4,0.6,8,0.7c-3.8,2.4-7.6,4.7-11.5,7v0.2L199.2,266.2z M196.9,238.1
			l7.6,0.3l-4.9,3l-7.1-0.5L196.9,238.1z M191.1,241.7l6.9,0.6l-7.8,4.7l-6.6-0.6L191.1,241.7z M188.9,241.8L182,246
			c-0.2-1.4-0.5-2.8-0.7-4.2H188.9z M213.3,131.6c0-0.2-0.6-0.8-1.6-2c-1-1.2-2.4-2.2-4.2-3c-1.7-0.8-2.8-1.4-3.2-1.7
			c-3-2.3-4.9-5.3-5.6-9.1c-0.2-1.2-0.1-2.3,0.3-3.4c0.1-0.2,0.3-0.4,0.6-0.5c0.1-0.1,0.3-0.1,0.5-0.2c1.6,2.3,3.5,4.2,5.7,5.7
			c1.3,0.8,2.7,1.1,4.1,0.8c1.1-0.3,1.8-0.9,2.3-1.9c0.3-0.5,0.5-1.1,0.7-1.7c0.1-0.2,0.1-0.5,0.1-0.7c0-1.7-0.2-3.3-0.6-4.9
			c-0.6-2.6-1.1-5.2-1.4-7.8c-0.1-1,0.1-1.9,0.8-2.6c0.5-0.6,1.1-0.8,1.9-0.7c0.6,0,1,0.4,1.2,1.1c1,3.2,1.9,6.4,2.7,9.6
			c0.4,1.4,1,2.6,2,3.6c0.6,0.6,1.1,0.6,1.7,0.1c0.4-0.4,0.7-1.6,0.9-3.5c0.2-1.9,0.2-3.8,0.1-5.5c-0.1-1.8-0.1-3.1,0-4.1
			c0.1-1,0.5-1.5,1.3-1.6c0.8-0.1,1.5,0.1,2.3,0.6c0.3,0.2,0.4,0.5,0.5,0.8c0.1,1.7,0,3.5-0.1,5.3c-0.2,2.2-0.2,4.4-0.2,6.6
			c0,1.1,0.4,1.8,1.2,2.1c0.8,0.3,1.6,0.1,2.4-0.7c0.8-0.7,1.6-1.9,2.4-3.6c0.8-1.6,2.2-2.7,4-3c0.3,0,0.5,0.1,0.6,0.3
			c0.8,1.7,0.6,3.4-0.5,4.9c-1,1.3-2,2.6-3.2,3.9c-1.3,1.4-1.8,3-1.5,4.9c0.4,2.7,0.2,5.5-0.7,8.1c-0.8,2.5-2,4.5-3.7,6
			c-1.8-1-3.9-1.5-6.4-1.5c-2.8,0-5.1,0.4-6.9,1c-0.2-0.3-0.4-0.7-0.6-1C213.4,132,213.3,131.7,213.3,131.6z M72,162.5
			c-1.8-2.5-2.9-5.2-3.3-8.3c-0.3-1.9-0.5-3.7-0.7-5.6c-0.4-3.2-0.7-6.4-0.8-9.6c-0.1-2.6-0.2-5.2,0-7.8c0.1-2.6,0.3-5.2,0.7-7.8
			c0.3-2.4,0.6-4.8,0.8-7.1c0.3-3.2,0.7-6.4,1.2-9.5c0.5-2.9,1-5.9,1.7-8.8c0.7-2.9,1.6-5.7,2.7-8.4c1-2.6,2.3-5,3.8-7.4
			c1.7-2.6,3.6-5,5.9-7.2c2-2,4.2-3.7,6.6-5.2c1.6-1,3.3-1.9,5.1-2.7c9.6-4.3,19.7-6,30.2-5.2c5.8,0.5,11.5,1.8,16.9,4
			c2.2,0.9,4.2,1.9,6.1,3.1c0.7,0.4,1.4,0.9,2.1,1.3c1,0.7,2,1.4,2.9,2.2c0.9,0.8,1.8,1.6,2.5,2.5c0.9,1,1.7,2,2.5,3.1
			c0.5,0.7,1,1.4,1.4,2.2c0.3,0.6,0.7,1.2,1,1.8c0.5,1,1,2.1,1.4,3.2c0.4,1.1,0.8,2.3,1.2,3.4c-1.5-1.6-3-2.5-4.4-2.5
			c-0.3,0-0.5,0-0.6,0c-0.1,0.1-0.1,0.2-0.1,0.5c0,0.4,0.4,1.6,1.3,3.6c0.9,2.3,1.5,3.8,1.6,4.3c-0.2,0-0.5,0-0.9-0.2
			c-0.2-0.1-0.7-0.3-1.3-0.7c-1.4-0.7-2.7-1.1-4-1.1l0,0.1c0.2,0.4,0.3,0.7,0.5,1.1c1,2.3,2,4.7,2.8,7.1c0.8,2.4,1.5,4.9,2.1,7.3
			c0.5,2.2,1,4.3,1.5,6.5c0.7,3.1,1.1,6.2,1.4,9.3l-0.8,0c-0.4,0-0.8,0-1.1,0c-0.1-1.2-0.3-2.3-0.5-3.4c-1.2-6.2-3.4-9.3-6.6-9.3
			c-2,0-3.5,1.3-4.6,3.9c-0.7,1.7-1.1,3.3-1.1,4.6c0,1.5,0.3,3,0.9,4.4c1.1,2.8,2.9,4.2,5.4,4.2l0.2,0.1c-0.1,0.2-0.1,0.4-0.2,0.7
			c-0.8,2.4-1.7,4.9-2.6,7.3c-0.8,2.2-1.7,4.3-2.5,6.5c-0.9,2.3-1.9,4.5-3,6.6c-1.5,2.8-3.3,5.5-5.4,7.9c-1.3,1.6-3,2.7-4.9,3.2
			c-2.9,0.9-5.9,1.4-9,1.5c-2.9,0.1-5.7,0.2-8.6,0.2c-2.5,0-5,0-7.4,0c-1.7,0-3.3,0-5,0c-2,0-3.9,0-5.9,0c-2.9,0.2-5.7,0.5-8.4,1
			c-1.4,0.2-2.8,0.5-4.1,0.9c-3,0.8-6,1.3-9,1.4C76.2,166.2,73.8,165,72,162.5z M79.7,176.7c-0.2-0.5-1.6-3.7-4.2-9.8
			c0.7,0.2,1.5,0.3,2.4,0.4c1.8,0.2,5.5-0.4,11.1-1.7c5.6-1.3,12.1-1.8,19.8-1.7c5.7,0.3,11.5,0.3,17.2,0.1c2.2-0.1,4.5-0.3,6.7-0.6
			c0.8-0.1,1.7-0.3,2.5-0.5c0.9-0.2,1.9-0.5,2.8-0.8c0.6-0.2,1.1-0.4,1.6-0.7c0.5-0.3,1-0.6,1.4-0.9c0.5-0.3,0.9-0.7,1.3-1.1
			c0.4-0.4,0.8-0.8,1.1-1.3c1.2-1.6,2.2-3.2,3.2-4.9c1.5-2.7,2.9-5.4,4.1-8.2c1.8-4.2,3.5-8.4,5-12.7c0.4-1.2,0.7-2.3,1-3.6
			c1.1-0.1,1.9-0.3,2.2-0.6c0-0.1,0.1-0.2,0.1-0.2c-0.4,0.1-0.7,0.1-1.2,0.1c-1.1,0-2.1-0.1-2.9-0.5c-1.7-0.2-2.9-1.3-3.8-3.4
			c-0.6-1.4-0.9-2.8-0.9-4.1c0-1.2,0.4-2.6,1.1-4.1c1-2,2.3-3,3.9-3c2.3,0,3.9,2.8,4.8,8.4c0.2,1.4,0.4,2.8,0.6,4.3
			c0.1,0,0.3,0,0.4,0.1c0.1-0.1,0.2-0.1,0.3-0.2c0.3,0,0.7-0.1,1.2-0.1c0.4,0,0.8,0,1.2,0c0,0.6,0.1,1.1,0.1,1.7
			c-1.3,0-2.2,0.1-2.9,0.2c0,0.1,0.1,0.3,0.1,0.4c0,0.2,0.1,0.4,0.1,0.7c0.7,0.1,1.5,0.1,2.7,0.1c0,0.4,0,0.8,0,1.2
			c-0.4,0-1,0-1.7,0.1c-0.4,0-0.7,0.1-1,0.1c0,0.3,0,0.6-0.1,0.8c0.6,0.1,1.5,0.1,2.9,0.2c0,0.4,0,0.8,0,1.2c-0.1,0-0.2,0-0.2,0
			c-0.4,0-1.1,0-2,0.1c-0.2,0-0.5,0-0.7,0c0,0.3,0,0.6-0.1,0.9c0.6,0,1.6,0.1,2.9,0.2c0.1,0,0.1,0,0.2,0c0,2.6,0,5.3-0.1,8
			c-0.1,2.4-0.3,4.8-0.5,7.2c-0.2,3-0.6,6-1,8.9c-0.4,2.8-1,5.6-1.7,8.3c-0.7,2.9-1.7,5.7-2.9,8.5c-1.2,2.8-2.8,5.3-4.7,7.7
			c-0.5,0.7-1.1,1.3-1.7,1.9c-2.2-1.1-4.4-2-6.7-2.8c-2.7-1-5.5-1.9-8.3-2.7c-2.9-0.8-5.9-1.4-8.9-1.9c-2.8-0.4-5.6-0.7-8.5-0.9
			c-3-0.2-6.1-0.3-9.1-0.2c-3.1,0-6.1,0.2-9.1,0.4c-3.1,0.3-6.2,0.8-9.3,1.5c-2.9,0.8-5.7,1.8-8.5,3.2c-0.4,0.2-0.7,0.4-1.1,0.6
			C81.1,179.6,80.3,178.2,79.7,176.7z M44.5,266.6c-0.1,0.7-0.1,1.5-0.2,2.2c-0.1-0.4-0.3-0.9-0.5-1.3c-1-2.7-2.1-5.4-3-8.1
			c-1-2.7-2-5.4-3-8.1c-0.6-1.8-1.2-3.6-1.6-5.4c-0.2-0.9-0.5-1.8-0.8-2.7c-0.5-1.6-0.6-3.3-0.3-4.9c0.2-0.5,0.3-1,0.5-1.4
			c0.7-1.9,1.6-3.7,2.6-5.5c0.5-0.9,1.1-1.7,1.6-2.6c0.9-1.3,1.9-2.6,2.8-3.8c1.8-2.3,3.6-4.6,5.4-6.8c3.4-4.2,7-8.4,10.7-12.3
			c0.6-0.7,1.2-1.3,1.8-2c-0.7,1.2-1.3,2.4-1.9,3.6c-1.3,2.6-2.5,5.3-3.5,8c-1,2.8-1.9,5.6-2.6,8.4c-0.7,2.9-1.5,5.8-2.1,8.6
			c-0.7,2.9-1.3,5.8-1.9,8.7c-0.6,2.9-1.2,5.8-1.7,8.7c-0.5,2.9-1,5.9-1.4,8.8C45.1,261.4,44.7,264,44.5,266.6z M38.7,453.3
			l-0.1-52.5h6l0,52.7C42.6,453.8,40.7,453.8,38.7,453.3z M77.4,428l0-27.3l6,0l0,27.2C81.3,428.4,79.3,428.4,77.4,428z M136.2,413
			c-3.1,3.1-8.3,4.6-15.6,4.6c-3.1,0-5.3-1.2-6.8-3.7c-0.9-1.6-1.4-3.2-1.4-5c0-1.9,0.4-3.6,1.4-4.9c1,1.3,2.4,2.2,4.1,2.8
			c0.8,0.2,1.7,0.4,2.5,0.3c1.9,0,3.7-0.7,5.2-1.8c0.8-0.6,1.4-1.4,2-2.2c0.3-0.6,0.6-1.1,0.8-1.7c0.1-0.2,0.2-0.5,0.3-0.7l8.9,0
			c0.1,0.2,0.2,0.4,0.2,0.7c0.4,1.1,0.7,2.2,0.9,3.4c0.2,1,0.3,1.7,0.3,2.1C139,409,138.1,411.1,136.2,413z M113.7,400.6h13.9
			c-0.2,0.4-0.4,0.9-0.6,1.3c-0.7,1.4-1.7,2.3-3.1,3c-2.2,1.1-4.5,1.2-6.8,0.4c-0.4-0.1-0.7-0.3-1-0.6c-0.9-0.9-1.6-2-2.1-3.1
			c0,0,0-0.1,0-0.1C113.9,401.2,113.8,400.9,113.7,400.6z M145.3,399.3l-106.6,0.1l0-51.6l-0.4-35.9c0.2-0.5,0.5-1,0.7-1.4
			c1.6-2.8,4.3-5,7.9-6.7l107-0.1c3.8,1.7,6.5,3.9,8.2,6.8c0.3,0.5,0.6,1,0.8,1.6l0.2,41.1c0,0.1-0.1,0.3-0.1,0.4l0.1-0.1l0,45.7
			L145.3,399.3z M157.1,453.3l-0.1-52.8l6,0l0,53C161,453.8,159,453.8,157.1,453.3z M164,323.2c2.7-0.1,5.3-0.4,7.8-0.6
			c0,0.7-0.1,1.6-0.1,2.7c0,1,0,1.9,0.1,2.7c-2.4,0.2-5,0.5-7.7,0.7L164,323.2z M193.6,370.7c-1.5,0-3.3,0.7-5.5,2.2
			c-1.3,0.9-3.4,2.5-6.3,4.9c-2.9,2.2-5.4,3.8-7.8,4.9c-3.2,1.5-6.5,2.2-9.8,2.2v-2.1c3.8-3,7.3-6.4,10.4-10.1
			c4.1-5,7.4-10.4,9.8-16.4c0.5-1.3,1-2.7,1.5-4c1.9-0.2,3.8,0.1,5.7,0.9c0.7,0.3,1.2,0.6,1.7,1.1c0.3,0.4,0.7,0.7,1,1.1l0,15.4
			C194.2,370.7,193.9,370.7,193.6,370.7z M194.4,372.1v1.1h-0.1c0,0,0,0.1,0,0.2l-30,19.8v-7.1c0,0,0.1,0,0.1,0
			c3.3,0,6.6-0.7,9.9-2.2c2.4-1.1,5-2.7,7.9-4.9c2.9-2.3,5-4,6.3-4.9c2.1-1.5,3.7-2.2,5-2.2C193.8,372,194.1,372,194.4,372.1z
			 M190,351.2c-1.2-0.2-2.4-0.3-3.6-0.2c0.9-2.7,1.7-5.4,2.4-8.2c0.6-2.3,1.1-4.7,1.5-7.1l4.1-2.7l0,20.4
			C193.2,352.2,191.7,351.5,190,351.2z M186.3,347.5c-0.5,1.5-0.9,2.9-1.5,4.4c-0.1,0.1-0.2,0.3-0.3,0.5c0,0,0,0.1-0.1,0.1
			c0,0,0.1,0,0.1,0c-1.3,3.6-2.9,7-4.8,10.4c-2.6,4.8-5.8,9.1-9.5,13c-1.9,1.9-3.9,3.7-6,5.3l0-28.4l24.6-16.2
			C188.2,340.2,187.3,343.9,186.3,347.5z M194.4,417.6c-0.8,0-1.6,0-2.5,0c-3.1,0-5.3-1.2-6.8-3.7c-0.9-1.6-1.4-3.2-1.4-5
			c0-2,0.5-3.6,1.4-5c0.1-0.1,0.1-0.2,0.2-0.2c1,1.4,2.5,2.5,4.4,3.1c0.8,0.2,1.7,0.4,2.5,0.3c0.8,0,1.5-0.1,2.2-0.3V417.6z
			 M194.4,405.4c-1.8,0.6-3.7,0.6-5.5-0.1c-0.4-0.1-0.7-0.3-1-0.6c-1.2-1.2-2.1-2.6-2.5-4.3c-0.8-3.1-1.3-6.2-1.4-9.4
			c0-1.2-0.1-2.3-0.2-3.5l10.6-7V405.4z M164.3,398.7l0-4l30.7-20.2h6.1L164.3,398.7z M195.7,427.9l0-48.3l5.9-3.9l0,52.2
			C199.7,428.4,197.7,428.4,195.7,427.9z M201.6,347.5v25.7l-6,0l0-25l-0.2-16.1l6-4L201.6,347.5z M192,327.7l7.9,0l-4.5,3v0
			c0,0,0,0.1-0.1,0.1l-31.1,20.5l0-5.2L192,327.7z M177.2,321.9c1.6-0.2,3.1-0.5,4.6-0.8c3.4-0.7,6.3-1.5,8.8-2.4
			c0,1.8-0.1,3.6-0.2,5.3c-3.3,1.4-7.7,2.4-13.2,3.3c0-0.8,0-1.6,0-2.6c0-1.6,0-2.4,0-2.6C177.2,322,177.2,322,177.2,321.9z
			 M190.6,316.9c-3.4,1.4-7.9,2.5-13.7,3.4c-0.1-0.3-0.2-0.6-0.3-0.9c-0.2,0.4-0.4,1.2-0.5,2.5c0,0-0.1,0.1-0.1,0.1c0,0,0.1,0,0.1,0
			c0,0.7-0.1,1.6-0.1,2.6c0,1,0,2,0.1,2.8c0,0-0.1,0-0.1,0c0,0,0.1,0.1,0.1,0.1c0.1,1.1,0.3,1.9,0.5,2.5c0.2,0,0.3-0.1,0.6-0.2
			c0-0.3,0-0.6,0-1c1.6-0.2,3.1-0.5,4.6-0.8c3.2-0.7,6.1-1.4,8.5-2.3c0,0.4,0,0.8-0.1,1.2c0,0.1,0,0.2,0,0.4l-26,17.1l-0.1-14.2
			c2.7-0.2,5.3-0.4,7.8-0.7c0.1,0.6,0.2,1.1,0.4,1.4c0.2,0,0.3-0.1,0.6-0.2c0-1.3,0-3.2,0-5.5c0-1.7,0-2.7,0-2.9
			c0-0.5-0.1-1-0.2-1.4c0,0,0,0,0-0.1c0,0,0,0,0,0c-0.1-0.5-0.2-0.9-0.4-1.2c-0.1,0.3-0.3,0.7-0.3,1.3c-2.5,0.3-5.1,0.5-7.9,0.7
			l-0.1-5.7c6.6-0.4,12.6-1.1,17.9-2.2c3.3-0.7,6.2-1.4,8.6-2.3C190.5,313.3,190.6,315.1,190.6,316.9z M189.8,304.7
			c0.2,1.7,0.4,3.4,0.5,5.1c-5.7,2.3-14.4,3.8-26.4,4.6l0-4c-0.1,0-0.2-0.1-0.3-0.1c-0.3-0.5-0.7-1.2-1.3-1.9
			c-1-1.2-2.1-2.3-3.3-3.3c-1.2-1-2.5-1.8-3.7-2.4c0,0,0,0,0,0c-0.1,0-0.1,0-0.2-0.1c-0.1,0-0.2-0.1-0.2-0.1c-0.1,0-0.1-0.1-0.2-0.1
			l-108.3,0.1c0,0,0,0,0,0h-0.3c-0.4-2.1-0.6-4.2-0.7-6.3c-0.2-2.9-0.3-5.8-0.3-8.7c-0.1-7.9,0.4-15.7,1.3-23.5
			c1.2-9.8,2.8-19.4,4.7-29.1c1.2-5.8,2.8-11.5,4.8-17.1c1.5-4.2,3.3-8.3,5.5-12.3c2.5-4.7,5.5-9.2,9-13.3c0.9-1.1,1.9-2.2,2.9-3.1
			c1-1,2.1-1.9,3.2-2.8c1.1-0.9,2.3-1.7,3.4-2.4c2-1.3,4.1-2.3,6.3-3.2c4.5-1.7,9.2-3,13.9-3.7c4.4-0.6,8.7-0.9,13.2-0.7
			c5.3,0.1,10.7,0.7,15.9,1.6c3.3,0.6,6.6,1.3,9.8,2.3c2.3,0.7,4.5,1.5,6.8,2.4c2.2,0.9,4.4,1.9,6.6,3.1c2.2,1.2,4.3,2.4,6.3,3.9
			c0.8,0.6,1.5,1.1,2.3,1.8c0.7,0.6,1.4,1.2,2.1,1.9c0.7,0.6,1.3,1.3,2,2c0.1,0.1,0.3,0.3,0.4,0.4c0.2-0.1,0.5-0.2,0.8-0.3v0
			c0,0,0.1,0.1,0.1,0.2c1.8-0.7,3.6-1.6,5.4-2.6c5.6-3.3,10.7-7.1,15.4-11.5c4.6-4.3,8.6-9,12.2-14.2c3.6-5.2,6.7-10.7,9.4-16.4
			c2.5-5.2,4.2-10.7,5.3-16.3c1.8-0.8,4.1-1.2,7.2-1.2c2.8,0,5.2,0.8,7.1,2.4c0,0.2-0.1,0.4-0.1,0.7c-0.3,1.9-0.7,3.8-1.1,5.7
			c-0.3,1.3-0.7,2.6-1.1,3.8c-0.3,0.8-0.5,1.6-0.8,2.3c-0.3,0.8-0.6,1.5-0.9,2.3c-0.3,0.7-0.6,1.5-1,2.2c-0.5,1.2-1.1,2.4-1.7,3.6
			c-0.6,1.2-1.3,2.3-1.9,3.5c-0.7,1.2-1.4,2.4-2.2,3.6c-2.5,3.9-5.1,7.6-8,11.1c-3.3,3.9-6.7,7.7-10.2,11.4
			c-2.9,2.9-5.8,5.8-8.9,8.6c-3.7,3.4-7.2,6.9-10.6,10.5c-5.2,5.7-9.5,12-12.9,18.9l0.5,0.3c0.7-1.2,1.5-2.4,2.2-3.5
			c1.5-2.3,3.1-4.6,4.8-6.9c0.1-0.1,0.2-0.3,0.4-0.5c1.4,5.3,2.6,10.7,3.6,16.1c0.7,4.5,1.5,9,2.3,13.6c1.1,6.5,2.2,13.1,3.3,19.6
			c1,6.1,1.9,12.1,2.8,18.1C187.6,288.7,188.7,296.7,189.8,304.7z M296.5,394.2c-1.3,0-2.5-0.2-3.6-0.5l-0.1-98.4h8.4l0,98.2
			C299.8,394,298.2,394.2,296.5,394.2z M314.5,294l-125.1,0.1c-0.4-2.8-0.8-5.6-1.2-8.3l115.2-0.1l11.1-0.1V294z M314.7,284.3
			L314.7,284.3l-126.6,0.2c-0.1-0.9-0.2-1.9-0.4-2.8c-0.4-3.1-0.8-6.2-1.3-9.3l14.5,0.6c2.4,0,4.8,0,7.3,0c7-0.1,13.9,0.1,20.9,0.5
			c0,0,0,0.1,0,0.1c0.1,0,0.1,0,0.2-0.1c0.2,0,0.5,0,0.7,0c0.1-0.1,0.3-0.2,0.4-0.3c0.1,0,0.2,0,0.3,0.1l11.4-6.2
			c1.4,0.2,3,0.4,4.8,0.4c3.5,0,6.8-0.5,9.8-1.5c1.9-0.6,4.3-1.7,7.3-3.4c3.1-1.6,5.5-2.8,7.2-3.4c3-1,6.1-1.5,9.5-1.5
			c2.7,0,4.9,0.5,6.5,1.6c1.4,0.8,2.1,1.7,2.1,2.5c0,0.5-0.4,1-1.3,1.4c-0.3,0.1-1.2,0.5-2.8,1.1c-1.3,0.5-2.2,1-2.8,1.4
			c-0.9,0.7-1.3,1.4-1.3,2.2c0,0.5,0.2,0.9,0.7,1.2c0.4,0.2,1.1,0.4,2.2,0.7c0.7,0.1,1.9,0.3,3.6,0.7c1.8,0.4,3.5,0.8,5.1,1.3
			c0.3,0.1,1,0.3,2.1,0.7c-0.2,2.5,0.7,4.6,2.7,6.2c1.5,1.2,3.1,2.1,4.9,2.8c3,1.2,6.1,1.5,9.3,1c1.4-0.3,2.5-1,3.2-2.3
			c1.4-2.4,1.4-4.8,0-7.2c-0.2-0.4-0.4-0.7-0.7-1c-1.6-1.7-3.6-2.7-6-3.2c-1.2-0.2-2.5-0.4-3.7-0.5c0,0,0,0-0.1,0c0,0,0,0,0,0
			c-0.5,0-1-0.1-1.5-0.1c-2.6-0.2-5,0.5-7.1,2.1c-0.3,0.2-0.5,0.4-0.6,0.7c-3.3-1.1-6.2-1.9-8.8-2.4c-0.6-0.1-1.7-0.3-3.3-0.5
			c-0.6-0.1-0.9-0.2-0.9-0.4c0-0.5,0.4-1,1.3-1.4c0.3-0.1,1.2-0.5,2.8-1.1c1.3-0.5,2.2-0.9,2.8-1.4c0.8-0.7,1.3-1.4,1.3-2.3
			c0-1.1-0.6-2.2-1.7-3.2c-1.8-1.5-4.4-2.2-8-2.2c-3.4,0-6.6,0.5-9.6,1.5c-1.8,0.6-4.3,1.7-7.5,3.4c-3.2,1.6-5.7,2.8-7.4,3.4
			c-3,1-6.2,1.5-9.5,1.5c-1,0-2,0-2.8-0.1l28.4-15.6l0,0.1c0.3-0.1,0.6-0.2,0.9-0.3c0.5-2.8,1-5.6,1.6-8.4l28.5,0l77-0.8l-55.3,36.4
			L314.7,284.3z M313.1,280.2c-0.4,0.3-0.8,0.5-1.3,0.7c-3.1,0.9-6.2,0.7-9.2-0.5c-0.8-0.3-1.7-0.7-2.5-1.1c-0.5-0.2-1-0.5-1.5-0.9
			c0.5-1.4,1-2.7,1.7-3.9c0.7-1.1,1.4-2.1,2.2-2.9C307.3,272.5,310.8,275.3,313.1,280.2z M303.8,270.5c0.6-0.5,1.2-0.9,1.8-1.2
			c2.1,0.3,4.1,0.9,6,1.8c0.5,0.3,1,0.6,1.4,1c1.9,1.8,2.3,3.9,1.4,6.3c-0.1,0.3-0.2,0.6-0.4,0.8
			C311.7,274.4,308.3,271.5,303.8,270.5z M302.1,270.1c-0.9-0.1-1.8-0.2-2.8-0.2s-1.4,0-1.4,0.1l-0.1-0.1c0.7-0.4,1.5-0.7,2.4-0.9
			c0.8-0.1,1.5-0.1,2.3-0.1c0.3,0,0.7,0,1,0C303,269.3,302.6,269.7,302.1,270.1z M299.3,271.3c0.6,0,1.1,0,1.7,0.1
			c-0.4,0.5-0.9,1.1-1.3,1.7c-0.9,1.4-1.7,2.8-2.2,4.4c-1-1.1-1.6-2.5-1.8-4.1c0-0.3,0-0.6,0.1-0.8c0.1-0.3,0.3-0.6,0.4-0.9
			C297.2,271.4,298.2,271.3,299.3,271.3z M356.9,354.1c-1.3,0-2.5-0.2-3.6-0.5l-0.1-83.6l8.4-5.5l0,89
			C360.2,353.9,358.6,354.1,356.9,354.1z M325.2,286.9l-9.4,6.3l0-8c0.3-0.3,0.6-0.6,1.1-0.9l0,0l63.7-42l0,8L325.2,286.9z"/>
		<path d="M79.3,166.1c3-0.1,6.1-0.6,9-1.4c1.4-0.4,2.7-0.7,4.1-0.9c2.8-0.5,5.6-0.8,8.4-1c2,0,3.9,0,5.9,0c1.6,0,3.3,0,5,0
			c2.5,0,5,0,7.4,0c2.9,0,5.7-0.1,8.6-0.2c3.1-0.1,6.1-0.6,9-1.5c1.9-0.6,3.6-1.7,4.9-3.2c2.1-2.5,3.9-5.1,5.4-7.9
			c1.1-2.2,2.2-4.3,3-6.6c0.8-2.2,1.7-4.3,2.5-6.5c0.9-2.4,1.8-4.8,2.6-7.3c0.1-0.2,0.1-0.4,0.2-0.7l-0.2-0.1
			c-2.5,0-4.3-1.4-5.4-4.2c-0.6-1.4-0.8-2.9-0.9-4.4c0-1.3,0.4-2.9,1.1-4.6c1.1-2.6,2.6-3.9,4.6-3.9c3.2,0,5.4,3.1,6.6,9.3
			c0.2,1.1,0.4,2.2,0.5,3.4c0.3,0,0.7,0,1.1,0l0.8,0c-0.3-3.1-0.8-6.2-1.4-9.3c-0.4-2.2-0.9-4.3-1.5-6.5c-0.6-2.4-1.3-4.9-2.1-7.3
			c-0.8-2.4-1.7-4.8-2.8-7.1c-0.1-0.4-0.3-0.7-0.5-1.1l0-0.1c1.3,0,2.6,0.4,4,1.1c0.6,0.4,1,0.6,1.3,0.7c0.4,0.2,0.7,0.3,0.9,0.2
			c-0.1-0.6-0.7-2-1.6-4.3c-0.8-2.1-1.3-3.3-1.3-3.6c0-0.3,0-0.4,0.1-0.5c0.1,0,0.3,0,0.6,0c1.4,0,2.9,0.8,4.4,2.5
			c-0.4-1.1-0.8-2.3-1.2-3.4c-0.4-1.1-0.9-2.2-1.4-3.2c-0.3-0.6-0.7-1.2-1-1.8c-0.4-0.7-0.9-1.5-1.4-2.2c-0.7-1.1-1.6-2.1-2.5-3.1
			c-0.8-0.9-1.6-1.7-2.5-2.5c-0.9-0.8-1.9-1.5-2.9-2.2c-0.7-0.5-1.4-0.9-2.1-1.3c-2-1.2-4-2.3-6.1-3.1c-5.4-2.2-11-3.5-16.9-4
			c-10.5-0.7-20.5,1-30.2,5.2c-1.7,0.7-3.4,1.6-5.1,2.7c-2.4,1.5-4.6,3.3-6.6,5.2c-2.2,2.2-4.2,4.6-5.9,7.2
			c-1.5,2.3-2.8,4.8-3.8,7.4c-1.1,2.8-2,5.6-2.7,8.4c-0.7,2.9-1.3,5.8-1.7,8.8c-0.5,3.1-0.9,6.3-1.2,9.5c-0.2,2.4-0.5,4.7-0.8,7.1
			c-0.4,2.6-0.6,5.2-0.7,7.8c-0.1,2.6-0.1,5.2,0,7.8c0.2,3.2,0.5,6.4,0.8,9.6c0.2,1.9,0.5,3.7,0.7,5.6c0.4,3,1.5,5.8,3.3,8.3
			C73.8,165,76.2,166.2,79.3,166.1z"/>
		<path fill="#FDCF9D" d="M214.1,133.3c1.8-0.7,4.1-1,6.9-1c2.4,0,4.5,0.5,6.4,1.5c1.7-1.5,2.9-3.5,3.7-6c0.8-2.7,1.1-5.4,0.7-8.1
			c-0.3-1.9,0.2-3.5,1.5-4.9c1.2-1.3,2.2-2.6,3.2-3.9c1.1-1.5,1.3-3.2,0.5-4.9c-0.1-0.3-0.3-0.4-0.6-0.3c-1.8,0.4-3.2,1.4-4,3
			c-0.8,1.6-1.6,2.8-2.4,3.6c-0.8,0.7-1.6,0.9-2.4,0.7c-0.8-0.3-1.2-1-1.2-2.1c0-2.2,0-4.4,0.2-6.6c0.1-1.8,0.1-3.6,0.1-5.3
			c0-0.3-0.2-0.6-0.5-0.8c-0.8-0.5-1.5-0.7-2.3-0.6c-0.8,0.1-1.2,0.7-1.3,1.6c-0.1,1-0.1,2.3,0,4.1c0.1,1.8,0.1,3.6-0.1,5.5
			c-0.2,1.9-0.5,3.1-0.9,3.5c-0.6,0.5-1.1,0.5-1.7-0.1c-1-1-1.6-2.2-2-3.6c-0.8-3.2-1.7-6.4-2.7-9.6c-0.2-0.7-0.6-1-1.2-1.1
			c-0.8-0.1-1.4,0.1-1.9,0.7c-0.7,0.7-0.9,1.6-0.8,2.6c0.3,2.6,0.8,5.2,1.4,7.8c0.4,1.6,0.6,3.2,0.6,4.9c0,0.2,0,0.5-0.1,0.7
			c-0.1,0.6-0.4,1.2-0.7,1.7c-0.5,1-1.3,1.6-2.3,1.9c-1.4,0.3-2.8,0.1-4.1-0.8c-2.3-1.5-4.2-3.4-5.7-5.7c-0.1,0-0.3,0.1-0.5,0.2
			c-0.3,0.1-0.5,0.3-0.6,0.5c-0.5,1.1-0.6,2.2-0.3,3.4c0.7,3.8,2.6,6.8,5.6,9.1c0.4,0.3,1.4,0.8,3.2,1.7c1.7,0.8,3.1,1.9,4.2,3
			c1,1.2,1.5,1.9,1.6,2c0,0.2,0.1,0.4,0.3,0.7C213.7,132.6,213.9,133,214.1,133.3z"/>
		<path fill="#1CB1BF" d="M183.6,262.7c-1.1-6.5-2.2-13.1-3.3-19.6c-0.8-4.6-1.5-9.1-2.3-13.6c-0.9-5.4-2.1-10.8-3.6-16.1
			c-0.1,0.2-0.3,0.3-0.4,0.5c-1.7,2.2-3.3,4.5-4.8,6.9c-0.7,1.2-1.5,2.3-2.2,3.5l-0.5-0.3c3.4-7,7.7-13.3,12.9-18.9
			c3.4-3.6,6.9-7.2,10.6-10.5c3-2.8,6-5.7,8.9-8.6c3.6-3.6,7-7.4,10.2-11.4c2.9-3.5,5.6-7.2,8-11.1c0.7-1.2,1.5-2.3,2.2-3.6
			c0.7-1.1,1.3-2.3,1.9-3.5c0.6-1.2,1.2-2.4,1.7-3.6c0.3-0.7,0.7-1.5,1-2.2c0.3-0.8,0.6-1.5,0.9-2.3c0.3-0.7,0.5-1.5,0.8-2.3
			c0.4-1.2,0.7-2.5,1.1-3.8c0.5-1.9,0.8-3.8,1.1-5.7c0-0.2,0-0.4,0.1-0.7c-1.9-1.6-4.3-2.4-7.1-2.4c-3,0-5.4,0.4-7.2,1.2
			c-1,5.6-2.8,11.1-5.3,16.3c-2.7,5.7-5.9,11.2-9.4,16.4c-3.6,5.2-7.6,9.9-12.2,14.2c-4.7,4.4-9.8,8.2-15.4,11.5
			c-1.8,1-3.6,1.9-5.4,2.6c0-0.1,0-0.1-0.1-0.2v0c-0.3,0.1-0.6,0.1-0.8,0.3c-0.1-0.1-0.2-0.3-0.4-0.4c-0.6-0.7-1.3-1.4-2-2
			c-0.7-0.7-1.4-1.3-2.1-1.9c-0.7-0.6-1.5-1.2-2.3-1.8c-2-1.4-4.1-2.7-6.3-3.9c-2.2-1.1-4.4-2.2-6.6-3.1c-2.2-0.9-4.5-1.7-6.8-2.4
			c-3.2-0.9-6.5-1.7-9.8-2.3c-5.3-0.9-10.6-1.4-15.9-1.6c-4.4-0.1-8.8,0.1-13.2,0.7c-4.8,0.7-9.4,2-13.9,3.7
			c-2.2,0.9-4.3,1.9-6.3,3.2c-1.2,0.7-2.3,1.5-3.4,2.4c-1.1,0.8-2.2,1.8-3.2,2.8c-1,1-2,2-2.9,3.1c-3.5,4.1-6.5,8.5-9,13.3
			c-2.1,4-3.9,8.1-5.5,12.3c-2,5.6-3.6,11.3-4.8,17.1c-1.9,9.6-3.5,19.3-4.7,29.1c-0.9,7.8-1.4,15.6-1.3,23.5c0,2.9,0.1,5.8,0.3,8.7
			c0.1,2.1,0.4,4.2,0.7,6.3h0.3c0,0,0,0,0,0l108.3-0.1c0,0,0.1,0.1,0.2,0.1c0.1,0,0.1,0.1,0.2,0.1c0,0,0.1,0,0.2,0.1c0,0,0,0,0,0
			c1.3,0.7,2.5,1.4,3.7,2.4c1.2,1,2.3,2.1,3.3,3.3c0.6,0.7,1,1.4,1.3,1.9c0.1,0,0.2,0.1,0.3,0.1l0,4c12-0.8,20.8-2.3,26.4-4.6
			c-0.1-1.7-0.3-3.4-0.5-5.1c-1.1-8-2.2-16-3.4-23.9C185.5,274.8,184.6,268.8,183.6,262.7z"/>
		<path fill="#FDCF9D" d="M83.2,180.5c2.7-1.4,5.6-2.4,8.5-3.2c3-0.8,6.1-1.3,9.3-1.5c3-0.2,6.1-0.4,9.1-0.4c3,0,6.1,0,9.1,0.2
			c2.9,0.2,5.7,0.5,8.5,0.9c3,0.5,6,1.1,8.9,1.9c2.8,0.8,5.6,1.7,8.3,2.7c2.2,0.8,4.5,1.8,6.7,2.8c0.6-0.6,1.2-1.3,1.7-1.9
			c1.9-2.3,3.4-4.9,4.7-7.7c1.2-2.8,2.2-5.6,2.9-8.5c0.7-2.8,1.3-5.5,1.7-8.3c0.4-3,0.7-5.9,1-8.9c0.2-2.4,0.3-4.8,0.5-7.2
			c0.1-2.7,0.2-5.3,0.1-8c0,0-0.1,0-0.2,0c-1.3-0.1-2.2-0.1-2.9-0.2c0-0.3,0-0.6,0.1-0.9c0.2,0,0.4,0,0.7,0c0.9-0.1,1.6-0.1,2-0.1
			c0.1,0,0.1,0,0.2,0c0-0.4,0-0.8,0-1.2c-1.4-0.1-2.3-0.1-2.9-0.2c0-0.2,0-0.4,0.1-0.8c0.3,0,0.6-0.1,1-0.1c0.7-0.1,1.3-0.1,1.7-0.1
			c0-0.4,0-0.8,0-1.2c-1.2,0-2.1,0-2.7-0.1c0-0.2-0.1-0.5-0.1-0.7c0-0.1,0-0.3-0.1-0.4c0.6-0.1,1.5-0.1,2.9-0.2
			c0-0.6-0.1-1.1-0.1-1.7c-0.4,0-0.8,0-1.2,0c-0.5,0-0.9,0.1-1.2,0.1c-0.1,0-0.2,0.1-0.3,0.2c-0.1,0-0.3-0.1-0.4-0.1
			c-0.1-1.6-0.3-3-0.6-4.3c-1-5.6-2.6-8.4-4.8-8.4c-1.6,0-2.9,1-3.9,3c-0.7,1.5-1.1,2.8-1.1,4.1c0,1.3,0.3,2.6,0.9,4.1
			c0.9,2.1,2.2,3.2,3.8,3.4c0.8,0.4,1.8,0.5,2.9,0.5c0.4,0,0.8,0,1.2-0.1c0,0.1-0.1,0.2-0.1,0.2c-0.4,0.3-1.1,0.6-2.2,0.6
			c-0.2,1.2-0.6,2.4-1,3.6c-1.5,4.3-3.1,8.5-5,12.7c-1.3,2.8-2.6,5.5-4.1,8.2c-1,1.7-2,3.3-3.2,4.9c-0.3,0.5-0.7,0.9-1.1,1.3
			c-0.4,0.4-0.8,0.8-1.3,1.1c-0.5,0.4-0.9,0.7-1.4,0.9c-0.5,0.3-1,0.5-1.6,0.7c-0.9,0.3-1.8,0.6-2.8,0.8c-0.8,0.2-1.6,0.3-2.5,0.5
			c-2.2,0.3-4.5,0.5-6.7,0.6c-5.7,0.2-11.5,0.1-17.2-0.1c-7.7-0.1-14.2,0.4-19.8,1.7c-5.6,1.3-9.3,1.9-11.1,1.7
			c-1-0.1-1.8-0.2-2.4-0.4c2.6,6.1,4,9.3,4.2,9.8c0.6,1.4,1.4,2.9,2.4,4.4C82.4,180.9,82.8,180.7,83.2,180.5z M156.3,124.5
			c-0.9,0-1.5-0.4-1.8-1.2c-0.2-0.4-0.3-0.8-0.3-1.2c0-0.6,0-1,0.1-1.2c0.3-0.4,0.9-0.7,2-0.9c-0.2-0.4-0.7-1.1-1.4-1.8
			c-0.6-0.7-0.9-1.1-0.9-1.2c0-0.1,0-0.2,0.1-0.4c0-0.1,0.1-0.1,0.1-0.2c0-0.1,0.2-0.1,0.4-0.1c1.1,0,2,0.9,2.7,2.6
			c0.5,1.3,0.8,2.2,0.8,2.7C158.1,123.6,157.5,124.5,156.3,124.5z"/>
		<path d="M154.6,116.3c-0.2,0-0.4,0-0.4,0.1c0,0.1,0,0.1-0.1,0.2c0,0.1-0.1,0.2-0.1,0.4c0,0.1,0.3,0.5,0.9,1.2
			c0.7,0.8,1.2,1.4,1.4,1.8c-1.1,0.2-1.7,0.5-2,0.9c-0.1,0.1-0.1,0.6-0.1,1.2c0,0.5,0.1,0.8,0.3,1.2c0.3,0.8,0.9,1.2,1.8,1.2
			c1.2,0,1.8-1,1.8-2.9c0-0.6-0.3-1.5-0.8-2.7C156.6,117.2,155.7,116.3,154.6,116.3z M156,123.3c-0.4-0.4-0.6-0.7-0.6-1.1
			c0-0.4,0-0.6,0.1-0.6l1.3-0.1h0.1v0.1C157.1,122.5,156.8,123.1,156,123.3z"/>
		<path fill="#FDCF9D" d="M156.9,121.4h-0.1l-1.3,0.1c0,0-0.1,0.2-0.1,0.6c0,0.4,0.2,0.8,0.6,1.1
			C156.8,123.1,157.1,122.5,156.9,121.4L156.9,121.4z"/>
		<path fill="#D7AD40" d="M188.9,241.8h-7.7c0.3,1.4,0.5,2.8,0.7,4.2L188.9,241.8z"/>
		<polygon fill="#C52127" points="204.4,238.3 196.9,238.1 192.4,240.9 199.5,241.4 		"/>
		<polygon fill="#C52127" points="190.2,247 198,242.3 191.1,241.7 183.6,246.4 		"/>
		<path fill="#EB1D25" d="M200.8,237.3c2.8-13.9,6.5-27.6,11.1-41.1c0.1,0,0.2,0,0.3,0c0,0,0-0.1,0-0.1c0,0,0,0,0-0.1l68.8,1.5v0
			c0,0,0,0,0,0c0.3,0,0.5,0,0.8-0.1c-4.3,12.6-7.9,26.4-11.1,41.3l2.7,0l1.2-0.7c3-15.3,7.2-30.3,12.3-45.1c-2.1,0-4.3-0.1-6.4-0.2
			c-8-0.5-16-0.7-24-0.7c-2.4,0-4.9,0-7.3,0l-39-1.5c-5.1,13.9-9.5,29.4-13.1,46.4c0.3,0,0.7,0.1,1.1,0.1L200.8,237.3z M242.3,192.9
			c0.3-0.5,0.8-0.7,1.4-0.7c0.7,0,1.3,0.3,1.6,0.9c0.1,0.3,0.2,0.6,0.2,0.9c0,0.2,0,0.4-0.1,0.6c-0.1,0.2-0.2,0.5-0.4,0.7
			c-0.1,0.2-0.3,0.3-0.5,0.4c-0.2,0.1-0.5,0.2-0.9,0.2c-0.7,0-1.3-0.3-1.6-0.9l0-0.2c0,0,0-0.1,0-0.1l0-0.2L242,194
			C242,193.6,242.1,193.3,242.3,192.9z"/>
		<path fill="#50ACB0" d="M243.5,195.5c0.4,0,0.8-0.2,1.1-0.5c0.3-0.3,0.4-0.6,0.4-1c-0.1-1-0.6-1.5-1.5-1.5c-0.4,0-0.8,0.1-1.1,0.5
			c-0.3,0.3-0.4,0.6-0.4,1c0,0.1,0,0.3,0,0.4l0,0.2l0,0.1c0,0,0,0.1,0,0.1C242.4,195.3,242.9,195.5,243.5,195.5z"/>
		<path d="M242,194c0-0.4,0.1-0.7,0.4-1c0.3-0.3,0.7-0.5,1.1-0.5c0.9,0,1.4,0.5,1.5,1.5c0,0.4-0.1,0.7-0.4,1
			c-0.3,0.3-0.7,0.5-1.1,0.5c-0.6,0-1.1-0.2-1.3-0.7c0,0,0-0.1,0-0.1l0,0.2c0.3,0.6,0.8,0.9,1.6,0.9c0.3,0,0.6,0,0.9-0.2
			c0.2-0.1,0.3-0.2,0.5-0.4c0.2-0.2,0.3-0.4,0.4-0.7c0-0.2,0.1-0.4,0.1-0.6c0-0.3-0.1-0.6-0.2-0.9c-0.3-0.6-0.8-0.9-1.6-0.9
			c-0.6,0-1.1,0.2-1.4,0.7C242.1,193.3,242,193.6,242,194l0,0.4C242,194.2,242,194.1,242,194z"/>
		<path d="M242.2,194.7l0-0.1C242.1,194.6,242.1,194.6,242.2,194.7z"/>
		<path fill="#A01F21" d="M189.4,254c1.6-1.1,3.2-2.2,4.8-3.3l3.2-1.9l-6.6-0.7l-7.6,4.8c0,0.2,0,0.4,0.1,0.6L189.4,254z"/>
		<path fill="#C52127" d="M182.3,247.3L182.3,247.3c0.2,1.4,0.5,2.8,0.7,4.2c0.4-0.3,0.7-0.5,1.1-0.8l4.6-2.8L182.3,247.3z"/>
		<path fill="#C52127" d="M197,266.1c5-2.9,10-6,14.8-9.2c-1.1-0.1-2.2-0.1-3.3-0.2c-2.4-0.1-4.8-0.3-7.2-0.4l-11.5-1.1l-5.5,3.5
			c0.4,2.4,0.8,4.8,1.2,7.2L197,266.1z"/>
		<path fill="#EB1D25" d="M187.9,255l-4.3-0.4c0.2,1,0.3,2,0.5,3C185.3,256.7,186.6,255.9,187.9,255z"/>
		<path fill="#B7E2EC" d="M256.5,198.2c-2.4,0-4.9,0-7.3,0l-36.4-1.4c-4.2,12.4-7.9,25.9-11,40.5l12.5,0.3c1.7-4.1,3.8-7.5,6.3-10.1
			c-0.8-1.1-1.6-2.6-2.3-4.6c-1.2-3.6-1.9-6.7-2-9.5c0,0-0.5-0.2-1.4-0.7c-0.9-0.5-1.6-1-2-1.7c-0.4-0.7-0.7-1.3-0.9-2
			c-0.1-0.5-0.2-0.8-0.2-1c0-0.4,0.1-1.3,0.2-2.6c0.6-0.2,1.1-0.2,1.6,0c0.1-0.4,0.3-0.9,0.6-1.4c0.4-0.7,0.7-1,1-1
			c0.6,0,1,0.2,1.1,0.6c0.1,0.5,0.3,0.8,0.4,0.8c0.2-0.2,0.5-0.8,0.8-1.6c0.3-0.7,0.8-1,1.3-1c0.7,0,1.2,0.5,1.4,1.4
			c0,1,0,1.5,0,1.5c0,1.2,0,1.8,0,2.1l0,0.1c0.3-0.1,0.9-0.3,1.8-0.7c0.9-0.4,1.6-0.6,2.1-0.6c0.5,0,0.8,0.2,1,0.5
			c0.1,0.1-0.1,0.6-0.6,1.4c-0.5,0.8-1.2,1.7-2.2,2.6c-1,0.9-1.6,1.5-1.8,1.9c-0.2,0.3-0.3,1.2-0.3,2.6c0,1.4,0.7,3.9,2,7.4
			c0.4,1.2,0.9,2.1,1.3,2.8c1.9-1.4,4-2.5,6.3-3.1c-0.4-0.8-0.6-1.6-0.6-2.6c0-0.6,0-1.2,0-1.9c0-1.4,0.2-2.8,0.7-4.3
			c-0.1-0.1-0.2-0.3-0.3-0.5c-0.4-0.7-0.6-1.4-0.6-1.9c0-0.7,0.1-1.2,0.2-1.4c0.3-0.6,1-0.9,2.1-0.9c0.2,0,0.3,0,0.5,0
			c0.1-0.1,0.1-0.3,0.2-0.4c1.3-2.5,2.6-4.4,3.9-5.7c0,0,0,0,0,0c0,0,0,0,0,0c0,0,0,0,0,0c0.3-0.3,0.7-0.7,1.3-1.2
			c0.6-0.1,1.5-0.3,2.7-0.4c0-0.1,1.2-0.1,3.6-0.1c4.9,0,9.3,0.7,13.2,2.1c1.3,0.5,2.6,1,3.8,1.7c0.7,0.4,1.4,0.8,2.2,1.3
			c0,0.2,0,0.3-0.2,0.1c-0.1-0.2-1.3,0.1-3.6,0.7c0.5,0.5,0.9,1.5,1.4,3c0,0,0,0,0,0l1.1,4.8c0,0.2-0.2,0.3-0.6,0.3
			c-1.3-2.1-3.6-4-6.9-5.9c0,0.4,0,0.6,0,0.6c0,0.8-0.1,2-0.5,3.5c-0.5,2.1-1.1,4.1-1.9,5.8c-1.2,2.5-2.7,4.4-4.5,5.7
			c1.1,0.9,2,2.1,2.7,3.4c0.2,0.5,0.4,0.9,0.6,1.4c4.9,1.7,7.9,4.9,9.1,9.6l10,0.2c2.7-13.6,6.2-26.9,10.5-40
			C272.3,198.3,264.4,198.1,256.5,198.2z"/>
		<path fill="#FDCF9D" d="M231.4,209.4c-0.4,0-0.7,0.2-0.9,0.6l-0.1,0.5c0,0.7,0.5,1.3,1.4,2c0.2,0.1,0.6,0.4,1,0.7
			c0.3,0.2,0.3,0.6,0,1c-0.3,0.4-0.7,1-1.4,1.8c-0.5,0.6-0.8,1-1,1.3c0,0.8,0,1.5,0,2c0.2,0.9,0.5,1.7,0.9,2.4
			c1.4,2.2,4.3,3.3,8.8,3.3c4.8,0,8.3-2.6,10.6-7.7c1.1-2.6,1.8-5.3,2-8.2c0-0.2,0-0.6-0.1-1.3c-0.1-0.1-0.3-0.2-0.5-0.2
			c-4.2-2.2-7.7-3.1-10.5-2.9c-2.7,0.2-4.6,1.2-5.7,2.8c-0.5,0.9-0.8,1.5-1.1,1.9c-0.4,0.6-0.7,1.1-1.1,1.4c0,0.2,0,0.4,0,0.6
			c-0.2,0.1-0.4,0.2-0.6,0.2c-0.2-0.2-0.3-0.5-0.4-0.8c0-0.1,0-0.4,0-0.7C232.9,209.7,232.4,209.4,231.4,209.4z M246.4,210.2
			c0.2-0.3,0.6-0.5,1-0.5c0.8,0,1.2,0.4,1.2,1.2c0,0.3-0.1,0.5-0.2,0.7c-0.2,0.3-0.5,0.5-1,0.5c-0.5,0-0.9-0.2-1.1-0.6
			c-0.1-0.2-0.1-0.4-0.1-0.7C246.2,210.7,246.3,210.4,246.4,210.2z M242.6,215.1c0-0.3,0.1-0.9,0.2-2c0.1-0.9,0.4-1.4,0.7-1.6
			c0.3,0.2,0.4,0.3,0.5,0.4c0.1,0.1,0.1,0.3,0.1,0.6c-0.1,1.7-0.2,3-0.2,4c0,0.2-0.2,0.3-0.6,0.3c-0.5,0-1.4-0.4-2.8-1.2v-0.5
			C241,214.9,241.7,214.9,242.6,215.1z M238.7,208.5c0.2-0.3,0.5-0.5,0.9-0.5c0.8,0,1.2,0.4,1.2,1.2c0,0.3-0.1,0.5-0.2,0.7
			c-0.2,0.3-0.6,0.5-1,0.5c-0.5,0-0.9-0.2-1.1-0.6c-0.1-0.2-0.1-0.4-0.1-0.7C238.5,209,238.6,208.7,238.7,208.5z M235.6,215.6
			c0.1,0.1,0.3,0.4,0.5,0.9c0.2,0.5,0.4,0.9,0.6,1.2c0.7,1,2.1,1.4,4.3,1.4c1.1,0,2.1-0.3,3-1c0.1-0.1,0.4-0.3,0.8-0.7
			c0.2-0.2,0.4-0.3,0.5-0.3l0.6,0.1c0.1-0.1,0.1,0,0.1,0.5c0,0.6-0.5,1.2-1.6,1.8c-1.1,0.7-2.2,1-3.4,1c-2.3,0-4-0.5-5-1.6
			c-0.6-0.7-0.9-1.3-0.9-2C235,216.3,235.2,215.9,235.6,215.6z"/>
		<path d="M240.5,215.6c1.4,0.8,2.3,1.2,2.8,1.2c0.4,0,0.6-0.1,0.6-0.3c0-1,0.1-2.3,0.2-4c0-0.3,0-0.5-0.1-0.6
			c0-0.1-0.2-0.2-0.5-0.4c-0.3,0.2-0.6,0.7-0.7,1.6c-0.1,1-0.1,1.7-0.2,2c-0.9-0.2-1.6-0.2-2.1,0V215.6z"/>
		<path d="M247.4,212.1c0.4,0,0.7-0.1,1-0.5c0.2-0.2,0.2-0.5,0.2-0.7c0-0.8-0.4-1.2-1.2-1.2c-0.4,0-0.7,0.2-1,0.5
			c-0.1,0.2-0.2,0.5-0.2,0.7c0,0.3,0,0.5,0.1,0.7C246.5,211.9,246.9,212.1,247.4,212.1z"/>
		<path d="M239.7,210.4c0.4,0,0.8-0.2,1-0.5c0.1-0.2,0.2-0.5,0.2-0.7c0-0.8-0.4-1.2-1.2-1.2c-0.4,0-0.7,0.2-0.9,0.5
			c-0.2,0.2-0.3,0.5-0.3,0.7c0,0.3,0,0.5,0.1,0.7C238.8,210.2,239.1,210.4,239.7,210.4z"/>
		<path d="M240.9,220.4c1.2,0,2.3-0.3,3.4-1c1.1-0.6,1.6-1.3,1.6-1.8c0-0.4,0-0.6-0.1-0.5l-0.6-0.1c-0.1,0-0.3,0.1-0.5,0.3
			c-0.4,0.4-0.7,0.6-0.8,0.7c-0.9,0.7-1.9,1-3,1c-2.1,0-3.6-0.5-4.3-1.4c-0.2-0.3-0.4-0.7-0.6-1.2c-0.2-0.5-0.3-0.7-0.5-0.9
			c-0.4,0.3-0.6,0.7-0.6,1.2c0,0.7,0.3,1.4,0.9,2C236.9,219.9,238.6,220.4,240.9,220.4z"/>
		<path fill="#D7AD40" d="M259,204.9c-1.6-0.7-3.1-1.3-4.3-1.7c-3.3-1-7-1.4-11-1.4c-3.5,0.4-5.6,0.6-6.3,0.6
			c-0.2,0.1-0.4,0.3-0.6,0.6c-0.6,0.6-1.7,2.1-3.2,4.3c-0.2,0.4-0.5,0.7-0.7,1.1c0.3,0.1,0.6,0.3,0.8,0.6l0.1-0.1
			c0.4-0.8,0.9-1.5,1.5-2.1c1.7-2,3.5-3,5.5-3c4.2,0,8.3,1.1,12.4,3.2c2.9,1.5,5.1,3.1,6.9,4.9c0,0,0-0.2,0-0.4
			c0-0.3-0.4-1.2-1.2-2.9c-0.8-1.7-1.2-2.7-1.2-3.1C257.7,205.1,258.1,204.9,259,204.9z"/>
		<path fill="#FDCF9D" d="M214.8,209.1c-0.3,0-0.6-0.3-1-0.9c-0.3-0.4-0.5-0.8-0.6-1c-0.1,0.1-0.2,0.3-0.2,0.7
			c0,2.2,0.8,3.5,2.5,4.1c0.2,0.1,0.7,0.2,1.4,0.3c0,0,0,0,0,0c0,0,0,0,0,0.1c0,0,0.1,0,0.1,0c0,0.2,0.1,0.5,0.1,0.7
			c0.6-0.1,1.2-0.2,1.8-0.3c0.1-0.8,0.7-1.6,1.6-2.4c1.5-1.3,2.6-2.4,3.1-3.2l0-0.1c-2.6,1.2-4.1,1.8-4.5,1.8l-0.1,0c0,0,0,0,0,0
			c0,0-0.1,0-0.1,0l-0.2-0.1c-0.1,0-0.1-0.1-0.2-0.1c0,0,0-0.2,0-0.4c0,0,0-0.1,0-0.1c0-0.1,0-0.2,0-0.3c0-0.5,0.2-1.1,0.5-1.8v-2.5
			l-0.2,0c-0.3,1-0.5,1.8-0.7,2.3c-0.3,0.9-0.4,1.7-0.3,2.3c0,0.2-0.2,0.3-0.6,0.3c-0.1,0-0.5-0.5-1-1.5c-0.4-0.8-0.7-1.5-0.9-2
			c-0.3,0.3-0.4,0.7-0.4,1.2c0,0.2,0.1,0.6,0.2,1.1c0.2,0.6,0.2,0.9,0.2,1.1c0,0.1,0,0.3,0,0.5C215.4,209,215.2,209.1,214.8,209.1z"
			/>
		<path fill="#C3C43A" d="M215.6,237.6l34.2,0.7c0.1-1.2,0.2-2.4,0.2-3.6c0-1.3,0-2.2-0.1-2.8c0.1,0.1,0.3,0.1,0.5,0.2
			c0,0,0-0.1,0-0.1c0.4,0.1,0.7,0.2,1.1,0.4c0.8,0.4,1.6,0.9,2.2,1.5c1.2,1.4,2.1,2.9,2.7,4.5l2.4,0c-0.7-2-2-3.9-3.9-5.7
			c-1.2-1.2-2.6-2.1-4-2.8v0c-0.2,0-0.5-0.1-0.7-0.1c0,0,0,0,0,0c-0.3-0.2-0.5-0.3-0.7-0.4c-0.2-0.7-0.5-1.3-0.8-1.9
			c-0.7-1.1-1.5-2.1-2.6-2.9c-0.2,0.1-0.5,0.3-0.7,0.4c-0.7,2.4-1.2,3.6-1.5,3.6c-0.6,0-1.3-0.6-2.3-1.6c-0.3-0.4-0.6-0.7-0.8-1
			c-0.1,0-0.2,0-0.3,0c-1.8,0-3.4-0.1-4.7-0.5c-0.3,0.2-0.6,0.3-0.9,0.6c-1.6,0.9-2.7,1.5-3.4,1.8c-0.2-0.1-0.4-0.1-0.4-0.2
			c-0.1-0.1-0.2-0.3-0.2-0.6c0-0.4,0.4-1.3,1.1-2.8c0.1-0.2,0.1-0.3,0.2-0.4c-0.5-0.4-0.9-0.8-1.3-1.3c-2.5,0.7-4.8,1.9-7,3.6
			c-0.1-0.3-0.2-0.6-0.4-0.8c-0.8-0.8-1.7-2.3-2.4-4.7c-0.8-2.6-1.4-4.9-1.7-7c-0.3,0.1-0.7,0.2-1.2,0.3c-0.2,0.1-0.4,0.1-0.6,0.2
			c0,0.6,0.2,1.4,0.4,2.5c0.3,1.4,0.6,2.6,0.8,3.6c0.3,0.9,0.6,1.8,0.9,2.8c0.3,0.9,0.7,1.7,1,2.2c0.4,0.6,0.8,1.1,1.2,1.5l0,0
			c0.2,0.1,0.4,0.3,0.7,0.4C219.7,230.1,217.4,233.4,215.6,237.6z M237.5,228.1c0.6,0,0.9,0.3,0.9,0.9c0,0.2-0.1,0.5-0.3,0.6
			c-0.2,0.2-0.4,0.2-0.6,0.2c-0.6,0-0.9-0.3-0.9-0.8C236.6,228.4,236.9,228.1,237.5,228.1z M236.4,231.9c0.2-0.2,0.4-0.2,0.6-0.2
			c0.6,0,0.9,0.3,0.9,0.9c0,0.2-0.1,0.5-0.3,0.6c-0.2,0.2-0.4,0.2-0.6,0.2c-0.6,0-0.9-0.3-0.9-0.8
			C236.1,232.4,236.2,232.1,236.4,231.9z M236,234.8c0.2-0.2,0.4-0.2,0.6-0.2c0.6,0,0.9,0.3,0.9,0.9c0,0.2-0.1,0.5-0.3,0.6
			c-0.2,0.2-0.4,0.2-0.6,0.2c-0.6,0-0.9-0.3-0.9-0.8C235.6,235.3,235.7,235,236,234.8z"/>
		<path d="M237.5,229.9c0.2,0,0.4-0.1,0.6-0.2c0.2-0.2,0.3-0.4,0.3-0.6c0-0.6-0.3-0.9-0.9-0.9c-0.6,0-0.9,0.3-0.9,0.9
			C236.6,229.6,236.9,229.9,237.5,229.9z"/>
		<path d="M237,233.5c0.2,0,0.4-0.1,0.6-0.2c0.2-0.2,0.3-0.4,0.3-0.6c0-0.6-0.3-0.9-0.9-0.9c-0.2,0-0.4,0.1-0.6,0.2
			c-0.2,0.2-0.3,0.4-0.3,0.7C236.1,233.2,236.4,233.5,237,233.5z"/>
		<path d="M236.5,236.4c0.2,0,0.4-0.1,0.6-0.2c0.2-0.2,0.3-0.4,0.3-0.6c0-0.6-0.3-0.9-0.9-0.9c-0.2,0-0.4,0.1-0.6,0.2
			c-0.2,0.2-0.3,0.4-0.3,0.7C235.6,236.1,235.9,236.4,236.5,236.4z"/>
		<path fill="#D7AD40" d="M230.9,213.7c0,0.2-0.1,0.4-0.1,0.6c0,0.3-0.1,0.7-0.1,0.9c0.3-0.3,0.6-0.6,1-1.1
			C231.4,214,231.1,213.9,230.9,213.7z"/>
		<path fill="#11BBC3" d="M232.6,226c0.4-0.1,0.8-0.3,1.4-0.7c-0.3-0.1-0.6-0.3-0.9-0.4c-0.3,0.5-0.5,0.8-0.5,0.9L232.6,226z"/>
		<path fill="#C52127" d="M239.9,239.2c-0.9,0-1.8,0-2.7,0c-2.4,0-4.9,0-7.3,0l-2.8-0.1l-5.7,3.6l11.4,0.7L239.9,239.2z"/>
		<polygon fill="#A01F21" points="208.7,241.9 214,238.7 206.2,238.4 201.4,241.5 		"/>
		<polygon fill="#C52127" points="219.6,242.7 225.4,239.1 215.8,238.8 210.6,242.1 		"/>
		<path fill="#C52127" d="M215.1,254.8c2-1.4,4-2.7,6-4.1v-0.1c-1.6-0.1-3.1-0.2-4.7-0.3c-2.1-0.1-4.2-0.2-6.3-0.4l-8,5l11.2,0.9
			C213.9,255.6,214.5,255.2,215.1,254.8z"/>
		<polygon fill="#EB1D25" points="201.3,247.9 209.8,248.6 217.6,243.9 208.8,243.2 		"/>
		<path fill="#C52127" d="M191.4,254.1l8.8,0.7c0,0,0.1,0,0.1-0.1c2-1.4,4-2.7,6-4.1l1.5-0.9l-8.2-0.8L191.4,254.1z"/>
		<polygon fill="#C52127" points="192.3,247.2 199.2,247.7 206.9,243 199.9,242.4 		"/>
		<path fill="#EB1D25" d="M229,266.6c3.9-2.2,7.7-4.6,11.5-7c-2.7-0.1-5.4-0.4-8-0.7c-6.3-0.8-12.5-1.4-18.8-1.8l-14.4,9.1l29.8,0.6
			V266.6z"/>
		<path fill="#A01F21" d="M219.5,244l-7.6,4.8l10.8,0.9l8.6-5.2c-1.2,0-2.4-0.1-3.6-0.1c-2.4-0.1-4.9-0.2-7.3-0.3L219.5,244z"/>
		<path fill="#C52127" d="M233.4,254.8c1.3-0.9,2.6-1.8,3.9-2.7c-4.6-0.6-9.2-1-13.8-1.3l-8.4,5.3l14.5,1.2
			C230.9,256.5,232.1,255.6,233.4,254.8z"/>
		<path fill="#C52127" d="M240.8,265.2c0.4,0.2,0.9,0.3,1.5,0.4c2.2-1.2,4.3-2.4,6.4-3.6c2.1-1.2,4.2-2.5,6.3-3.7l17.7-9.4
			c0.5-3.2,1.1-6.3,1.7-9.4l-43.7,27.6c-0.1,0.2-0.3,0.5-0.4,0.7c0.1,1.1,0.2,2.5,0.3,4.1c3.4-1.7,6.7-3.5,10-5.3
			c-0.2,0-0.4-0.1-0.6-0.2c-0.7-0.2-1.2-0.5-1.5-0.7l-1.6,0.9c0-0.1,0-0.2,0-0.2c0-0.3-0.1-0.6-0.1-0.9c0.4-0.2,0.8-0.4,1.2-0.7
			v-0.2c0,0,0.1,0,0.3-0.1c0.1,0,0.2-0.1,0.4-0.1c0.8-0.5,1.6-0.9,2.4-1.4c0,0.1,0,0.2,0.1,0.4c0,0.2,0.1,0.4,0.2,0.6l-1.3,0.7
			C240.5,265,240.8,265.2,240.8,265.2z M248.3,258.5c2.1-1.3,4.1-2.6,6.2-3.9l12.5-7.1c0,0.2,0,0.5,0,0.8c0,0.2,0,0.4,0,0.5
			l-24.5,14.5c-0.1-0.2-0.2-0.5-0.4-0.8c0,0,0-0.1-0.1-0.1C244,261.1,246.2,259.8,248.3,258.5z"/>
		<path d="M242.4,263.3l24.5-14.5c0-0.2,0-0.4,0-0.5c0-0.3,0-0.6,0-0.8l-12.5,7.1c-2.1,1.3-4.1,2.6-6.2,3.9
			c-2.1,1.3-4.2,2.6-6.4,3.9c0,0,0,0.1,0.1,0.1C242.2,262.8,242.3,263.1,242.4,263.3z"/>
		<path fill="#C52127" d="M239.5,250.7l8.3-5c-4.8-0.5-9.6-0.8-14.4-1.1l-8.4,5.3l14,1.2C239.1,251,239.3,250.8,239.5,250.7z"/>
		<path fill="#C52127" d="M271.3,240.2c-3.4,0.1-6.7,0-10.1-0.2c-0.6,0-1.3-0.1-1.9-0.1l-7.8,4.9l11.1,0.7L271.3,240.2z"/>
		<path fill="#11BBC3" d="M243.7,225.8c-0.4,0.1-0.7,0.2-1.1,0.3c0.2,0.3,0.5,0.6,0.8,0.9C243.4,226.9,243.5,226.5,243.7,225.8z"/>
		<path fill="#B7E2EC" d="M253.2,235.1c-0.6-0.8-1.3-1.4-2-1.9c0,0.9,0,1.5,0,1.6c0,0.9,0,2.1-0.2,3.6l4.2,0.1c-0.4-1-1-2.1-1.7-3
			C253.4,235.3,253.3,235.2,253.2,235.1z"/>
		<path fill="#EB1D25" d="M257.5,239.7c-5.2-0.3-10.4-0.4-15.7-0.5l-7,4.4l14.6,1L257.5,239.7z"/>
		<path fill="#C52127" d="M253.9,250.7l6.6-4c-3-0.1-6-0.3-8.9-0.6c-0.6-0.1-1.3-0.1-1.9-0.2l-8.5,5.4l10.6,0.9c0,0,0,0,0,0
			C252.5,251.7,253.2,251.2,253.9,250.7z"/>
		<path fill="#A01F21" d="M247.9,254.8c0.7-0.5,1.4-1,2.2-1.5c-3.3-0.1-6.5-0.4-9.8-0.8c-0.3,0-0.6-0.1-0.8-0.1l-8.1,5.1l11.1,0.9
			C244.2,257.2,246.1,256,247.9,254.8z"/>
		<path fill="#D7AD40" d="M380.4,240.8l-77,0.8l-28.5,0c-0.6,2.8-1.1,5.6-1.6,8.4c-0.3,0-0.6,0.1-0.9,0.3l0-0.1L244,265.8
			c0.8,0.1,1.8,0.1,2.8,0.1c3.3,0,6.5-0.5,9.5-1.5c1.8-0.6,4.3-1.7,7.4-3.4c3.1-1.6,5.6-2.7,7.5-3.4c3-1,6.2-1.5,9.6-1.5
			c3.6,0,6.3,0.7,8,2.2c1.2,1,1.7,2.1,1.7,3.2c0,0.9-0.4,1.6-1.3,2.3c-0.6,0.4-1.5,0.9-2.8,1.4c-1.6,0.6-2.6,1-2.8,1.1
			c-0.8,0.4-1.3,0.9-1.3,1.4c0,0.2,0.3,0.3,0.9,0.4c1.6,0.2,2.7,0.4,3.3,0.5c2.6,0.5,5.5,1.3,8.8,2.4c0.2-0.3,0.4-0.5,0.6-0.7
			c2.1-1.6,4.5-2.3,7.1-2.1c0.5,0,1,0.1,1.5,0.1c0,0,0,0,0,0c0,0,0,0,0.1,0c1.3,0.1,2.5,0.2,3.7,0.5c2.3,0.4,4.3,1.5,6,3.2
			c0.3,0.3,0.5,0.6,0.7,1c1.3,2.4,1.3,4.8,0,7.2c-0.7,1.2-1.8,2-3.2,2.3c-3.2,0.6-6.3,0.2-9.3-1c-1.7-0.7-3.4-1.7-4.9-2.8
			c-2-1.6-2.9-3.7-2.7-6.2c-1.1-0.4-1.8-0.7-2.1-0.7c-1.6-0.5-3.3-0.9-5.1-1.3c-1.8-0.3-3-0.5-3.6-0.7c-1.1-0.2-1.8-0.4-2.2-0.7
			c-0.5-0.3-0.7-0.7-0.7-1.2c0-0.8,0.4-1.6,1.3-2.2c0.6-0.4,1.5-0.9,2.8-1.4c1.6-0.6,2.5-1,2.8-1.1c0.9-0.5,1.3-0.9,1.3-1.4
			c0-0.8-0.7-1.7-2.1-2.5c-1.7-1.1-3.9-1.6-6.5-1.6c-3.4,0-6.5,0.5-9.5,1.5c-1.7,0.6-4.2,1.7-7.2,3.4c-3,1.6-5.5,2.8-7.3,3.4
			c-3,1-6.3,1.5-9.8,1.5c-1.8,0-3.4-0.1-4.8-0.4l-11.4,6.2c-0.1,0-0.2,0-0.3-0.1c-0.1,0.1-0.3,0.2-0.4,0.3c-0.2,0-0.5,0-0.7,0
			c-0.1,0-0.1,0.1-0.2,0.1c0,0,0-0.1,0-0.1c-7-0.4-13.9-0.6-20.9-0.5c-2.4,0-4.9,0-7.3,0l-14.5-0.6c0.5,3.1,0.9,6.2,1.3,9.3
			c0.1,0.9,0.2,1.8,0.4,2.8l126.6-0.1v0l10.5-7.1L380.4,240.8z"/>
		<path fill="#1CB1BF" d="M46.9,250c0.5-2.9,1.1-5.8,1.7-8.7c0.6-2.9,1.2-5.8,1.9-8.7c0.7-2.9,1.4-5.8,2.1-8.6
			c0.7-2.8,1.6-5.6,2.6-8.4c1-2.8,2.2-5.4,3.5-8c0.6-1.2,1.2-2.4,1.9-3.6c-0.6,0.7-1.2,1.3-1.8,2c-3.7,4-7.3,8.1-10.7,12.3
			c-1.8,2.2-3.6,4.5-5.4,6.8c-1,1.3-1.9,2.5-2.8,3.8c-0.6,0.8-1.1,1.7-1.6,2.6c-1,1.7-1.9,3.6-2.6,5.5c-0.2,0.5-0.3,0.9-0.5,1.4
			c-0.3,1.6-0.2,3.2,0.3,4.9c0.3,0.9,0.5,1.8,0.8,2.7c0.5,1.8,1,3.6,1.6,5.4c1,2.7,2,5.4,3,8.1c1,2.7,2,5.4,3,8.1
			c0.2,0.4,0.3,0.8,0.5,1.3c0.1-0.7,0.1-1.5,0.2-2.2c0.3-2.6,0.6-5.1,1-7.7C45.9,255.9,46.3,253,46.9,250z"/>
		<path fill="#C69336" d="M163,353.5l-0.1,0.1c0-0.1,0.1-0.3,0.1-0.4l-0.2-41.1c-0.2-0.6-0.5-1.1-0.8-1.6c-1.7-2.9-4.4-5.1-8.2-6.8
			l-107,0.1c-3.6,1.6-6.2,3.9-7.9,6.7c-0.2,0.5-0.5,0.9-0.7,1.4l0.4,35.9l0,51.6l106.6-0.1l17.7-0.1L163,353.5z"/>
		<path fill="#999999" d="M38.7,400.7l0.1,52.5c1.9,0.5,3.9,0.6,5.9,0.1l0-52.7H38.7z"/>
		<path fill="#ED9921" d="M116.1,404.7c0.3,0.3,0.6,0.5,1,0.6c2.3,0.8,4.5,0.7,6.8-0.4c1.4-0.6,2.4-1.6,3.1-3
			c0.2-0.4,0.4-0.8,0.6-1.3h-13.9c0.1,0.3,0.2,0.6,0.3,0.8c0,0,0,0,0,0.1C114.5,402.7,115.2,403.8,116.1,404.7z"/>
		<path fill="#604D1F" d="M137.8,401.3c-0.1-0.2-0.2-0.4-0.2-0.7l-8.9,0c-0.1,0.2-0.2,0.5-0.3,0.7c-0.2,0.6-0.5,1.2-0.8,1.7
			c-0.5,0.9-1.2,1.6-2,2.2c-1.5,1.2-3.3,1.8-5.2,1.8c-0.8,0-1.7-0.1-2.5-0.3c-1.7-0.6-3.1-1.5-4.1-2.8c-0.9,1.4-1.4,3-1.4,4.9
			c0,1.7,0.5,3.4,1.4,5c1.4,2.5,3.7,3.7,6.8,3.7c7.2,0,12.4-1.5,15.6-4.6c1.9-1.9,2.8-4,2.8-6.3c0-0.4-0.1-1.1-0.3-2.1
			C138.5,403.5,138.2,402.3,137.8,401.3z"/>
		<path fill="#999999" d="M77.3,400.7l0,27.3c2,0.4,3.9,0.4,5.9-0.1l0-27.2L77.3,400.7z"/>
		<path fill="#A01F21" d="M229,272.1c0-0.4-0.1-0.7-0.1-1.1c-0.1-1.2-0.2-2.2-0.2-3.1c-6.8-0.4-13.6-0.5-20.5-0.5
			c-2.4,0-4.9,0-7.3,0l-15.3-0.6c0.2,1.4,0.4,2.8,0.7,4.2L229,272.1z M216.6,269.5C216.6,269.5,216.6,269.5,216.6,269.5
			C216.6,269.4,216.6,269.4,216.6,269.5l6.3,0.1c0,0.1,0,0.2,0,0.4c0,0.2,0,0.5,0.2,0.7c-2.2-0.1-4.3-0.1-6.5-0.2V269.5z
			 M209.4,269.6c0-0.1,0-0.2,0-0.3l6,0.1c0,0,0,0.1,0,0.1c0,0.1,0,0.2,0,0.3c0,0.1,0,0.2,0,0.4c0,0.1,0,0.2,0,0.3c-2,0-4.1,0-6.1,0
			C209.4,270.2,209.4,269.9,209.4,269.6z"/>
		<path d="M222.9,269.9c0-0.1,0-0.3,0-0.4l-6.3-0.1c0,0,0,0,0,0c0,0,0,0,0,0v0.9c2.2,0,4.3,0.1,6.5,0.2
			C223,270.4,222.9,270.2,222.9,269.9z"/>
		<path d="M215.4,270.2c0-0.1,0-0.3,0-0.4c0-0.1,0-0.2,0-0.3c0,0,0-0.1,0-0.1l-6-0.1c0,0.1,0,0.2,0,0.3c0,0.3,0,0.5,0,0.8
			c2,0,4.1,0,6.1,0C215.4,270.4,215.4,270.3,215.4,270.2z"/>
		<polygon fill="#999999" points="195.7,348.2 195.7,373.3 201.6,373.2 201.6,347.5 201.5,328.2 195.5,332.2 		"/>
		<path fill="#ED9921" d="M163.9,316l0.1,5.7c2.8-0.2,5.5-0.4,7.9-0.7c0.1-0.6,0.2-1,0.3-1.3c0.2,0.3,0.3,0.7,0.4,1.2c0,0,0,0,0,0
			c0,0,0,0,0,0.1c0.1,0.4,0.1,0.9,0.2,1.4c0,0.2,0,1.2,0,2.9c0,2.4,0,4.2,0,5.5c-0.2,0.1-0.4,0.1-0.6,0.2c-0.1-0.3-0.3-0.8-0.4-1.4
			c-2.5,0.3-5.1,0.5-7.8,0.7l0.1,14.2l26-17.1c0-0.1,0-0.2,0-0.4c0-0.4,0.1-0.8,0.1-1.2c-2.4,0.9-5.3,1.6-8.5,2.3
			c-1.5,0.3-3,0.6-4.6,0.8c0,0.4,0,0.7,0,1c-0.2,0.1-0.4,0.1-0.6,0.2c-0.2-0.6-0.4-1.4-0.5-2.5c0,0,0-0.1-0.1-0.1c0,0,0,0,0.1,0
			c-0.1-0.8-0.1-1.7-0.1-2.8c0-1,0-1.9,0.1-2.6c0,0-0.1,0-0.1,0c0,0,0.1-0.1,0.1-0.1c0.1-1.3,0.3-2.2,0.5-2.5
			c0.1,0.3,0.2,0.6,0.3,0.9c5.7-0.9,10.3-2,13.7-3.4c0-1.8-0.1-3.6-0.2-5.4c-2.5,0.9-5.4,1.6-8.6,2.3
			C176.5,314.9,170.5,315.6,163.9,316z"/>
		<path fill="#C48438" d="M188.3,285.8c0.4,2.8,0.7,5.6,1.2,8.3l125.1-0.1v-8.5l-11.1,0.1L188.3,285.8z"/>
		<path fill="#7D3519" d="M177.2,327.3c5.5-0.8,9.9-1.9,13.2-3.3c0.1-1.8,0.2-3.6,0.2-5.3c-2.5,0.9-5.5,1.7-8.8,2.4
			c-1.5,0.3-3,0.6-4.6,0.8c0,0.1,0,0.1,0,0.2c0,0.2,0,1.1,0,2.6C177.2,325.7,177.2,326.5,177.2,327.3z"/>
		<path fill="#CCCCCC" d="M164.3,351.2l31.1-20.5c0,0,0-0.1,0.1-0.1v0l4.5-3l-7.9,0L164.2,346L164.3,351.2z"/>
		<path fill="#7D3519" d="M171.7,325.3c0-1,0-1.9,0.1-2.7c-2.5,0.3-5.1,0.5-7.8,0.6l0.1,5.4c2.7-0.2,5.3-0.4,7.7-0.7
			C171.7,327.2,171.7,326.3,171.7,325.3z"/>
		<path fill="#ED9921" d="M194.3,355.4c-0.3-0.4-0.7-0.7-1-1.1c-0.5-0.5-1.1-0.9-1.7-1.1c-1.9-0.8-3.8-1.1-5.7-0.9
			c-0.5,1.3-1,2.7-1.5,4c0.5-1.1,1-2.2,1.4-3.1c-0.5,1.3-0.9,2.3-1.4,3.1c-2.4,6-5.7,11.5-9.8,16.4c-3.1,3.7-6.5,7.1-10.4,10.1v2.1
			c3.3,0,6.6-0.7,9.8-2.2c2.3-1.1,4.9-2.7,7.8-4.9c2.9-2.3,5-4,6.3-4.9c2.2-1.5,4-2.2,5.5-2.2c0.3,0,0.5,0,0.7,0L194.3,355.4z"/>
		<path d="M184.4,356.2c0.4-0.8,0.9-1.8,1.4-3.1C185.4,354.1,184.9,355.1,184.4,356.2z"/>
		<path fill="#ED9921" d="M164.3,381.1c2.1-1.6,4.1-3.4,6-5.3c3.8-3.9,7-8.2,9.5-13c1.8-3.4,3.4-6.8,4.8-10.4c0,0-0.1,0-0.1,0
			c0,0,0-0.1,0.1-0.1c0.1-0.2,0.2-0.3,0.3-0.5c0.5-1.4,1-2.9,1.5-4.4c1.1-3.6,2-7.3,2.7-11l-24.6,16.2L164.3,381.1z"/>
		<path fill="#C69336" d="M188.5,374.2c-1.3,0.9-3.4,2.5-6.3,4.9c-2.9,2.2-5.5,3.8-7.9,4.9c-3.3,1.5-6.5,2.2-9.9,2.2
			c0,0-0.1,0-0.1,0v7.1l30-19.8c0,0,0-0.1,0-0.2h0.1v-1.1c-0.3-0.1-0.6-0.1-0.9-0.1C192.2,372,190.6,372.8,188.5,374.2z"/>
		<polygon fill="#CCCCCC" points="195,374.5 164.3,394.7 164.3,398.7 201.1,374.5 		"/>
		<path fill="#ED9921" d="M184,390.9c0.1,3.2,0.5,6.3,1.4,9.4c0.4,1.7,1.3,3.1,2.5,4.3c0.3,0.3,0.6,0.5,1,0.6
			c1.9,0.6,3.7,0.7,5.5,0.1v-24.9l-10.6,7C183.9,388.6,184,389.8,184,390.9z"/>
		<path fill="#604D1F" d="M189.7,406.8c-1.9-0.6-3.4-1.6-4.4-3.1c-0.1,0.1-0.1,0.2-0.2,0.2c-0.9,1.4-1.4,3.1-1.4,5
			c0,1.7,0.5,3.4,1.4,5c1.4,2.5,3.7,3.7,6.8,3.7c0.9,0,1.7,0,2.5,0v-10.8c-0.7,0.2-1.4,0.3-2.2,0.3
			C191.4,407.2,190.5,407.1,189.7,406.8z"/>
		<path fill="#999999" d="M157,400.5l0.1,52.8c1.9,0.5,3.9,0.6,5.9,0.1l0-53L157,400.5z"/>
		<path fill="#999999" d="M195.7,379.6l0,48.3c2,0.5,3.9,0.5,5.9,0l0-52.2L195.7,379.6z"/>
		<path fill="#604D1F" d="M207.5,413c1.9-1.9,2.8-4,2.8-6.3c0-0.4-0.1-1.1-0.3-2.1c-0.2-1.2-0.6-2.3-0.9-3.4
			c-1.1-3.1-2.6-4.6-4.4-4.6c-0.6,0-1.2,0-1.8,0.1l0,19.1C204.8,415.2,206.3,414.2,207.5,413z"/>
		<path fill="#C48438" d="M316.9,284.3L316.9,284.3c-0.5,0.3-0.8,0.6-1.1,0.9l0,8l9.4-6.3l55.4-36.5l0-8L316.9,284.3z"/>
		<path fill="#999999" d="M353.2,270l0.1,83.6c1.2,0.3,2.4,0.5,3.6,0.5c1.7,0,3.2-0.2,4.7-0.7l0-89L353.2,270z"/>
		<path fill="#4FB85C" d="M314,279.1c0.2-0.3,0.3-0.5,0.4-0.8c0.9-2.4,0.4-4.5-1.4-6.3c-0.4-0.4-0.9-0.7-1.4-1
			c-1.9-0.9-3.9-1.5-6-1.8c-0.7,0.3-1.3,0.7-1.8,1.2C308.3,271.5,311.7,274.4,314,279.1z"/>
		<path fill="#4FB85C" d="M300.2,269.1c-0.9,0.1-1.7,0.4-2.4,0.9l0.1,0.1c0-0.1,0.5-0.1,1.4-0.1s1.9,0,2.8,0.2
			c0.4-0.4,0.9-0.8,1.4-1.1c-0.3,0-0.7,0-1,0C301.7,269,301,269,300.2,269.1z"/>
		<path fill="#4FB85C" d="M295.8,272.5c-0.1,0.2-0.1,0.5-0.1,0.8c0.2,1.6,0.8,3,1.8,4.1c0.6-1.6,1.3-3,2.2-4.4
			c0.4-0.6,0.8-1.2,1.3-1.7c-0.5,0-1.1-0.1-1.7-0.1c-1.1,0-2.1,0.1-3.1,0.3C296.1,271.9,295.9,272.2,295.8,272.5z"/>
		<path fill="#4FB85C" d="M300.4,274.5c-0.7,1.2-1.3,2.5-1.7,3.9c0.4,0.3,0.9,0.6,1.5,0.9c0.8,0.4,1.6,0.7,2.5,1.1
			c3,1.2,6.1,1.4,9.2,0.5c0.5-0.1,0.9-0.4,1.3-0.7c-2.3-4.9-5.8-7.8-10.5-8.6C301.8,272.4,301.1,273.4,300.4,274.5z"/>
		<path fill="#999999" d="M292.8,295.3l0.1,98.4c1.2,0.3,2.4,0.5,3.6,0.5c1.7,0,3.2-0.2,4.7-0.7l0-98.2H292.8z"/>
		<path d="M194.3,324.7c0,0,0-0.1,0.1-0.1c0,0-0.1,0-0.1,0v0.3C194.3,324.8,194.3,324.8,194.3,324.7z"/>
	</g>
</g>
<g id="ziutek_x5F_10">
</g>
<g id="lady_x5F_01">
</g>
<g id="Layer_13">
</g>
<g id="Layer_12">
</g>
<g id="Layer_14">
</g>
<g id="Layer_15">
</g>
<g id="Layer_16">
</g>
<g id="Layer_17">
</g>
<g id="Layer_18">
</g>
<g id="Layer_19">
</g>
<g id="Layer_20">
</g>
<g id="Layer_21">
</g>
<g id="Layer_22">
</g>
<g id="Layer_23">
</g>
<g id="Layer_24">
</g>
<g id="Layer_25">
</g>
<g id="Layer_26">
</g>
<g id="Layer_27">
</g>
<g id="Layer_28">
</g>
<g id="Layer_29">
</g>
<g id="Layer_30">
</g>
<g id="Layer_31">
</g>
<g id="Layer_32">
</g>
<g id="Layer_33">
</g>
<g id="Layer_34">
</g>
<g id="Layer_36">
</g>
<g id="Layer_35">
</g>
<g id="Layer_37">
</g>
<g id="Layer_38">
</g>
<g id="Layer_39">
</g>
<g id="Layer_40">
</g>
</svg>
