<?xml version="1.0" encoding="utf-8"?>
<!-- Generator: Adobe Illustrator 18.1.1, SVG Export Plug-In . SVG Version: 6.00 Build 0)  -->
<!DOCTYPE svg PUBLIC "-//W3C//DTD SVG 1.1//EN" "http://www.w3.org/Graphics/SVG/1.1/DTD/svg11.dtd">
<svg version="1.1" xmlns="http://www.w3.org/2000/svg" xmlns:xlink="http://www.w3.org/1999/xlink" x="0px" y="0px"
	 viewBox="0 0 393 483" enable-background="new 0 0 393 483" xml:space="preserve">
<g id="ziutek_x5F_01">
</g>
<g id="ziutek_x5F_02">
</g>
<g id="ziutek_x5F_03">
</g>
<g id="ziutek_x5F_04">
</g>
<g id="ziutek_x5F_05">
</g>
<g id="ziutek_x5F_06">
</g>
<g id="ziutek_x5F_07">
</g>
<g id="ziutek_x5F_08">
</g>
<g id="ziutek_x5F_09">
</g>
<g id="ziutek_x5F_10">
</g>
<g id="lady_x5F_01">
</g>
<g id="Layer_13">
</g>
<g id="Layer_12">
</g>
<g id="Layer_14">
</g>
<g id="Layer_15">
</g>
<g id="Layer_16">
</g>
<g id="Layer_17">
</g>
<g id="Layer_18">
</g>
<g id="Layer_19">
</g>
<g id="Layer_20">
</g>
<g id="Layer_21">
</g>
<g id="Layer_22">
</g>
<g id="Layer_23">
</g>
<g id="Layer_24">
</g>
<g id="Layer_25">
</g>
<g id="Layer_26">
</g>
<g id="Layer_27">
</g>
<g id="Layer_28">
</g>
<g id="Layer_29">
</g>
<g id="Layer_30">
</g>
<g id="Layer_31">
</g>
<g id="Layer_32">
</g>
<g id="Layer_33">
</g>
<g id="Layer_34">
	<g>
		<g>
			<g>
				<path fill="#545454" d="M135.5,222.4c12-5.7,25.6-6,38.3-3.1c0.2,0,0.9-0.3,0.7-0.3c-13.2-3-27.2-2.5-39.5,3.3
					C134.5,222.6,135.3,222.5,135.5,222.4L135.5,222.4z"/>
			</g>
			<g>
				<path fill="#545454" d="M138.2,213c12.4-2.3,24.2-0.1,36.1,3.6c0.4,0.1,1-0.4,0.5-0.6c-12.2-3.8-24.1-5.9-36.8-3.6
					C137.5,212.6,137.7,213.1,138.2,213L138.2,213z"/>
			</g>
			<g>
				<path fill="#545454" d="M256.5,223.3c-13.2-6.7-26.7-8.3-41.2-6.2c-0.4,0.1-0.7,0.5-0.1,0.4c14.3-2.1,27.7-0.5,40.7,6.2
					C256.1,223.8,256.9,223.5,256.5,223.3L256.5,223.3z"/>
			</g>
			<g>
				<path fill="#545454" d="M257.2,214.2c-14.4-3.5-27.7-2.9-42.1,0c-0.5,0.1-0.4,0.6,0.1,0.4c14.2-2.9,27.3-3.4,41.5,0
					C257,214.7,257.7,214.3,257.2,214.2L257.2,214.2z"/>
			</g>
		</g>
		<g>
			<path fill="#FFFFFF" d="M144,223.5c-4.8,13.5-20.3,48.9-11.8,54.5c7,4.6,11.8-0.9,19.4-22.1L144,223.5z"/>
			<g>
				<path fill="#1D1D1D" d="M150.6,256.1c-1.8,5-3.7,10-6.1,14.8c-1.3,2.6-4.1,8.5-7.8,8.2c-6.2-0.5-6.1-7.4-5.6-12
					c1.7-15.1,8.9-29.6,14-43.8c0.1-0.3-2-0.1-2.1,0.4c-3.1,8.7-6.6,17.3-9.6,26c-2.5,7.5-6.2,17.2-4.3,25.3c1,4.3,6.4,6,10.1,4.3
					c7.9-3.7,10.9-16.2,13.6-23.6C152.9,255.4,150.8,255.6,150.6,256.1L150.6,256.1z"/>
			</g>
		</g>
		<g>
			<path fill="#FFFFFF" d="M249.2,222.1l-7.7,33.2c6.7,21.6,11.3,27.2,18.5,22.9C268.7,272.9,255.9,239,249.2,222.1z"/>
			<g>
				<path fill="#1D1D1D" d="M240.4,255.6c1.8,5.8,3.8,11.7,6.5,17.2c1.4,2.7,3.3,5.7,6.2,6.9c3.3,1.3,8.2-0.8,9.8-3.8
					c3.6-6.5-0.4-17.6-2.2-24.1c-2.8-10.2-6.6-20.1-10.5-29.9c-0.2-0.5-2.3,0.2-2.2,0.6c5.7,14.4,12,29.5,13.6,45.1
					c0.5,4.5-0.8,15.3-8.1,10.6c-2.7-1.7-4.3-5.3-5.6-8c-2.3-4.8-3.9-10-5.5-15.1C242.4,254.5,240.2,255.2,240.4,255.6L240.4,255.6z
					"/>
			</g>
		</g>
		<g>
			<path fill="#FFFFFF" d="M161.5,308.3c-13.8-5.6-19.1-38.2-18.1-63.1c0.7-16.8-0.6-59.6,7.5-69c11.1-13,24.8-17.8,40.9-18.8
				c34.5-2.2,50.8,9.9,55.4,42.4c3.3,23.2,8.7,69.6-1.4,92.7c-5.2,11.8-11,15.2-22.5,18.6c-7.4,2.2-10.9,3.4-22.2,4.5
				C189.2,316.5,181.9,316.6,161.5,308.3z"/>
			<g>
				<path fill="#1D1D1D" d="M162.3,307.7c-9.3-4.2-12.6-16.4-14.7-25.5c-2.9-12.4-3.6-25.4-3.1-38.1c0.8-19.5-0.7-39.6,3.6-58.9
					c2.5-11.3,12.3-18.5,22.5-23c11.7-5,25.8-5.6,38.2-4.2c9.5,1,18.6,4.6,25.3,11.6c6.7,7,9.7,16.8,11.4,26.1
					c2.7,14.6,4,29.7,4.7,44.5c0.8,16.2,1,33.5-4.3,49c-2.6,7.7-7.2,14.4-14.7,18.1c-7,3.4-15.6,5.4-23.3,6.6
					c-6.7,1-13.7,1.6-20.5,1c-8.8-0.8-17.3-4.1-25.4-7.4c-0.7-0.3-2.3,0.7-1.2,1.2c9.9,4,20,7.6,30.7,7.7c9.4,0.1,19-1.3,28.1-3.9
					c8.2-2.4,17-4.9,22.3-12.1c6.1-8.3,8.4-18.5,9.6-28.6c2.7-22.6,0.1-45.9-2.9-68.3c-2.3-17.5-7.4-35.4-24.9-43.1
					c-16-7-38.2-5.5-54.1,0.9c-7.8,3.1-17,9.2-21.2,16.7c-3.5,6.4-4,14.9-4.6,22.1c-1.7,18.7-2.1,38.2-1.5,56.9
					c0.3,10.9,1.8,21.9,5,32.4c2.2,7.3,6,15.9,13.4,19.3C161.4,309.1,163.2,308.1,162.3,307.7z"/>
			</g>
		</g>
		<path fill="#F4F4F4" d="M245.4,229.3c-3.5,23.3-6.1,40.5-26.6,56.8c-10.4,8.2-27.5,10.7-40.5,9.4c-6.5-0.6-11.6-1.7-17.9-3.5
			c-3.7-1.1-15.8-11.3-10-2.8c2,3,5.3,6.2,9.3,9.2c7.7,5.8,19,9.2,25.7,9.9c13.4,1.5,21.4,2.1,32.5-1.1
			c11.2-3.2,18.4-10.5,22.7-18.7c4.7-9,6.6-17.3,8-27.2C250.8,246.1,245.5,228.8,245.4,229.3z"/>
		<g>
			<g>
				<path fill="#FFFFFF" d="M241.3,146c-8.2-1-21.7,3.1-29.8,11.6l28.9,19.8C245.1,162.7,241.3,146,241.3,146z"/>
				<g>
					<path fill="#1D1D1D" d="M241.5,177.3c2.9-10.1,3.1-21.3,0.9-31.6c0-0.2-0.3-0.2-0.4-0.2c-11.4-1.1-23.5,4.1-31.4,12.2
						c-0.5,0.5,1.5,0.3,1.9-0.1c4.7-4.7,10.3-7.9,16.7-9.8c2-0.6,10.8-3.2,11.3-0.4c1.9,9.9,1.8,20.5-1.1,30.2
						C239.3,178.2,241.3,177.9,241.5,177.3L241.5,177.3z"/>
				</g>
			</g>
		</g>
		<g>
			<path fill="#FFFFFF" d="M156.2,305c4.1,26.1,6.1,31.6,15.1,32.2c9.1,0.5,9-6.7,9-21.9L156.2,305z"/>
			<g>
				<path fill="#1D1D1D" d="M155.2,305.2c1.3,8.2,2.3,16.8,5.3,24.6c1.4,3.7,3.7,6.5,7.6,7.4c3.5,0.8,7.5,0.5,10.3-1.9
					c4.6-4,3-15.2,3-20.4c0-0.4-2-0.1-2,0.5c0,5.7,0.5,12-1.3,17.5c-1.7,4.9-8.7,4.3-12.1,1.6c-2.9-2.2-4-6.4-4.9-9.8
					c-1.8-6.6-2.8-13.4-3.8-20.2C157.1,304.2,155.1,304.7,155.2,305.2L155.2,305.2z"/>
			</g>
		</g>
		<g>
			<path fill="#FFFFFF" d="M213.8,314.3c0.8,14.8-0.2,22,11.3,22.8c9.3,0.6,9.3-7.6,14.1-33.6L213.8,314.3z"/>
			<g>
				<path fill="#1D1D1D" d="M238.2,303.5c-1.3,6.9-2.4,13.9-3.8,20.8c-0.8,3.8-1.6,8.7-4.7,11.3c-3.9,3.2-11.1-0.3-12.9-4.2
					c-2.4-5-1.7-12-1.9-17.4c0-0.6-2-0.2-2,0.5c0.3,6.2-0.8,15.1,3.7,20.1c2.7,3.1,8.5,3.5,12.2,2.5c3.5-1,5.1-4.3,6.2-7.5
					c2.8-8.4,3.7-17.7,5.3-26.4C240.3,302.6,238.3,302.9,238.2,303.5L238.2,303.5z"/>
			</g>
		</g>
		<g>
			<g>
				<path fill="#FFFFFF" d="M151.7,148.9c-3,6.2-4.3,19.7-1.8,30.4l26.3-19.5C169.8,152.9,161.9,150.6,151.7,148.9z"/>
				<g>
					<path fill="#1D1D1D" d="M177.1,159.4c-6.8-6.9-15.5-9.3-24.8-11c-0.5-0.1-1.4,0.1-1.6,0.7c-4.2,9.2-3.8,20.9-1.8,30.5
						c0.1,0.7,2.1,0.2,2-0.5c-2-9.6-2.4-21.1,1.8-30.2c-0.5,0.2-1.1,0.4-1.6,0.7c9.1,1.6,17.5,3.9,24.2,10.7
						C175.7,160.6,177.6,159.9,177.1,159.4L177.1,159.4z"/>
				</g>
			</g>
		</g>
		<g>
			<path fill="#D8D8D8" d="M209.7,159c-14.9-3.1-30.1,1-31.8,1.5c-0.8,0.3,0,11.1,14.9,11.3C209.2,172.1,212.8,159.6,209.7,159z"/>
			<g>
				<path fill="#1D1D1D" d="M177.5,160.6c-4.3,14.9,35.5,14.8,33.4-1.2c0-0.3-0.8-0.1-0.8,0.2c2,15.3-35.9,15.1-31.8,0.9
					C178.4,160.2,177.6,160.3,177.5,160.6L177.5,160.6z"/>
			</g>
		</g>
		<g>
			<path fill="#BFBFBF" d="M249.2,288.8c-9.1-3.3-16.4,7.6-26,10c-17.2,4.3-23.8-3.4-26.9-11.1l-5.1,0.5c1,18,17.8,30,26.6,31.7
				C252,326.9,268,295.7,249.2,288.8z"/>
			<g>
				<path fill="#1D1D1D" d="M190.2,288.5c1.2,15.1,13.6,29.6,28.7,32.5c13.4,2.5,29.3-1.2,36.8-13.4c5-8,1.1-20.9-10.1-20.1
					c-9.2,0.7-15.6,9.1-24.4,11.1c-10.5,2.4-19.7-1-23.9-11.1c-0.4-0.9-2.3-0.3-2,0.5c5.2,12.5,17.2,14.7,29.4,11.1
					c8.1-2.4,14.9-12.3,23.9-9.7c5.2,1.5,7.9,6.4,7.4,11.6c-1.4,14.6-20.1,19.8-32.1,19c-16.5-1.1-30.4-15.8-31.8-32.1
					C192.2,287.1,190.2,287.6,190.2,288.5L190.2,288.5z"/>
			</g>
		</g>
	</g>
</g>
<g id="Layer_36">
</g>
<g id="Layer_35">
</g>
<g id="Layer_37">
</g>
<g id="Layer_38">
</g>
<g id="Layer_39">
</g>
<g id="Layer_40">
</g>
</svg>
