<?xml version="1.0" encoding="utf-8"?>
<!-- Generator: Adobe Illustrator 18.1.1, SVG Export Plug-In . SVG Version: 6.00 Build 0)  -->
<!DOCTYPE svg PUBLIC "-//W3C//DTD SVG 1.1//EN" "http://www.w3.org/Graphics/SVG/1.1/DTD/svg11.dtd">
<svg version="1.1" xmlns="http://www.w3.org/2000/svg" xmlns:xlink="http://www.w3.org/1999/xlink" x="0px" y="0px"
	 viewBox="0 0 393 483" enable-background="new 0 0 393 483" xml:space="preserve">
<g id="ziutek_x5F_01">
</g>
<g id="ziutek_x5F_02">
</g>
<g id="ziutek_x5F_03">
</g>
<g id="ziutek_x5F_04">
</g>
<g id="ziutek_x5F_05">
</g>
<g id="ziutek_x5F_06">
</g>
<g id="ziutek_x5F_07">
</g>
<g id="ziutek_x5F_08">
	<path fill="none" d="M188.3,182.1c0.1,0,0.2,0,0.3,0.1l-0.1-0.2C188.4,182,188.4,182.1,188.3,182.1z"/>
	<path fill="none" d="M190.7,197.4C190.6,197.4,190.6,197.4,190.7,197.4L190.7,197.4L190.7,197.4
		C190.7,197.5,190.7,197.4,190.7,197.4z"/>
	<path fill="none" d="M179.8,220.4C179.7,220.4,179.7,220.4,179.8,220.4l0,0.1C179.8,220.5,179.8,220.4,179.8,220.4z"/>
	<path fill="none" d="M194.5,200.4C194.5,200.4,194.5,200.4,194.5,200.4l-0.1,0.1C194.4,200.4,194.4,200.4,194.5,200.4z"/>
	<path fill="none" d="M209.4,218.9C209.4,218.9,209.4,218.9,209.4,218.9L209.4,218.9C209.4,218.9,209.4,218.9,209.4,218.9z"/>
	<path d="M190.6,197.4L190.6,197.4C190.6,197.4,190.6,197.4,190.6,197.4L190.6,197.4z"/>
	<path d="M179.4,111.6c0.9-2.5,1.9-4.9,3.1-7.3c1.8-0.3,3.8-0.7,6.2-1.4c1.9-0.6,3.9-1.2,6.1-2c1.8,0,2.7,0.1,2.7,0.2
		c-0.4,0.6-0.8,1.3-1.2,2c-0.4,0.9-0.6,1.6-0.6,2c0.1,0.5,0.3,1,0.6,1.5c0.7,1,1.6,1.4,3,1.4c1.1,0,2.7-0.5,4.7-1.4
		c1-0.4,2.9-1.4,5.8-3c2.6-1.4,4.6-2.4,6.1-3c2.2-0.9,4.1-1.3,5.6-1.3c1.3,0,1.9,0.2,1.9,0.7c-1.1,2.1-1.7,3.4-1.7,3.9
		c0,0.6,0.1,1.1,0.4,1.4c0.7,0.8,2,1.2,4.2,1.2c0.5,0,1.6-0.3,3.4-0.8c1.7-0.5,3-0.8,4-0.8c2.7,0,4.7,2.2,5.9,6.7
		c0.9,3.5,1.4,8.5,1.4,15c0,0.3,0,0.8,0,1.6c0.1,0,0.2,0,0.3,0c0,0.1,0,0.1,0,0.2h0c1-0.1,2.1-0.1,3.3-0.2c1-0.1,1.9-0.1,2.7-0.2
		c0-0.1,0-0.2,0-0.3l0.3,0c0-0.2,0-0.4,0-0.6c0-0.1,0-0.6,0-1.5c0.1-1.1,0.2-2.1,0.4-2.9c0.7-2.8,2.1-4.2,4.3-4.2
		c1.7,0,2.8,0.9,3.3,2.8c0.2,0.7,0.3,1.8,0.3,3.3c0,0.9-0.2,1.8-0.6,2.7c-0.7,1.6-1.8,2.4-3.4,2.5c0,0-0.1,0-0.1,0.1
		c-0.1,0.1-0.5,0.1-1.1,0.1c-1,0-1.7-0.3-2.1-0.9c0,0-0.1,0-0.1,0c0.1,0.7,0.4,1.2,0.6,1.5c0.5,0.6,1.3,0.9,2.5,0.9
		c0.3,0,0.6,0,0.9-0.1c0.1,0.8,0.3,2.2,0.6,4.1c0.4,2,0.8,3.9,1.3,5.7c0.3,1,0.6,2.1,0.9,3.1c2.6,7.4,6,11.4,10.3,12.2
		c-0.4,3.5-1.1,7-2,10.4c-0.6,2.2-1.4,4.3-2.3,6.4c-0.7,1.6-1.4,3.2-2.3,4.7c-1,1.9-2.2,3.7-3.4,5.5c-1.3,1.9-2.6,3.7-4.2,5.4
		c-1.5,1.7-3.2,3.2-5,4.6c-1.7,1.4-3.5,2.6-5.4,3.6c-0.5,0.3-1.1,0.6-1.6,0.9c-0.8,0.4-1.6,0.8-2.4,1.1c-0.6,0.3-1.2,0.5-1.8,0.7
		c-0.4,0.2-0.9,0.3-1.3,0.5c-0.7,0.2-1.4,0.5-2.2,0.7c-1.7,0.5-3.4,0.9-5.2,1.2c-1.2,0.2-2.4,0.5-3.7,0.7c-1.2-2.3-2.6-3.5-4.2-3.5
		c-0.6,0-1.1,0.2-1.6,0.5c-0.3,0.1-0.5,0.3-0.6,0.5c-0.6-0.5-1.3-0.7-1.9-0.7c-1.5,0-2.5,0.3-2.9,1c-0.7-0.7-1.4-1.2-2-1.4
		c-0.2-0.1-0.5-0.1-0.7-0.1c-0.5,0-0.8,0.1-1.1,0.1c-0.3,0.1-0.6,0.3-0.7,0.5c0,0.1-0.1,0.5-0.1,1c0,0.7,0.2,1.6,0.6,2.8
		c-1.4-0.2-2.7-0.5-4-0.8c0-1.3-0.3-2-1.1-2c-0.1,0-0.3,0-0.4,0.1c0.1-0.5,0.2-1,0.3-1.6c0-0.1,0-0.2,0-0.3c0,0,0-0.5,0-1.4
		c-0.1-0.8-0.6-1.3-1.4-1.3c-1.2,0-2.9,1-5.3,2.9c-1.3-0.8-2.6-1.7-3.8-2.7l-1.3,0.8c0.6,0.5,1.1,1,1.6,1.4
		c-0.3,0.2-0.6,0.4-0.9,0.7c-0.1,0.1-0.2,0.1-0.3,0.2c-1.3,0.9-2.6,2.3-3.8,4.1c-0.8,1.1-1.5,2.3-2.1,3.6c-0.4,0.7-0.7,1.5-0.9,2.2
		c-0.8,2.1-1.2,3.8-1.2,5.2c0,0.1,0,0.2,0,0.3c-0.5,0.4-1.1,0.9-1.6,1.3c-2.5,2.2-4.9,4.4-7.1,6.7c0.1-0.4,0.3-0.7,0.5-1.1
		c0.7-1.5,1.8-3.9,3.3-7c0.4-1.4,1.8-4,4.1-7.7c0.1-0.1,0.1-0.1,0.1-0.2c1.6-2.7,3.7-5.2,6.1-7.7c0.5-0.6,1.2-1.2,2.1-2l0-0.1
		c-1.3,0.7-2.4,1.4-3.4,2.1c-0.7,0.5-1.4,1-2,1.5c-0.7,0.9-1.5,1.8-2.2,2.9c-0.8,1.1-1.6,2.3-2.4,3.5c-2.2,3.4-4.2,7.3-6.1,11.6
		c-1.1,2.4-2,4.9-2.9,7.3c-2.1,2.5-4.1,5-6,7.7c-3.3,4.7-6.1,9.6-8.4,14.8c-2.2,4.8-3.4,9.8-3.5,15.1c-0.1,2.1,0,4.2,0.3,6.3
		c0.4,3.6,1.5,6.9,3.3,9.9c1.9,3.1,4.6,4.9,8.2,5.3c1.9,0.2,3.6-0.2,5.3-1.1c1.8,6.2,3.8,12.3,5.9,18.4c0.7,2.1,1.5,4.2,2.3,6.3
		c1.1,2.9,2.2,5.8,3.5,8.7c1.1,2.6,2.4,5.2,3.7,7.8c0.8,1.6,1.6,3.1,2.4,4.7c0.8,1.5,1.6,2.9,2.5,4.3c1.5,2.6,3.1,5.1,4.8,7.6
		c1.3,1.9,2.6,3.7,4,5.5c1.8,2.3,3.8,4.4,6,6.4c3.2,2.9,6.5,5.4,10.1,7.6c2.8,1.8,5.8,3.2,8.9,4.2c4,1.4,8.1,2.6,12.3,3.6
		c-1.3,3.7-2.2,6.7-2.9,9.1c-0.5,2-0.8,3.6-0.9,4.7c-0.2,3.9,0.5,7.3,2.2,10.3c1.6,2.9,3.6,6,5.8,9.2c2.1,3.3,4.6,6.4,7.4,9.3
		c1.7,1.8,3.2,3.2,4.6,4.2c-4.9,2.5-9.5,5.3-13.8,8.4c-5.8,4.2-8.7,8.3-8.7,12.4c0,1.9,0.6,3.8,1.7,5.5c0.3,0.4,1,1,2.2,1.7
		c3,0.7,6.1,0.7,9.1-0.3c3.2-1,6.2-2.4,9-4.3c2.9-1.9,5.6-4.1,8.1-6.5c2.7-2.6,5-5.5,6.9-8.8c0.6-1,1-2.2,1.3-3.3
		c0.3-1.4,0.2-2.8-0.4-4.2c-0.7-1.5-1.6-2.9-2.9-4c-0.5-0.5-1-0.8-1.6-0.9c-0.4-1-1.1-2.1-2.2-3.3c-0.5-0.7-2.4-2.6-5.7-5.9
		c-2.6-2.6-4.5-4.9-5.7-6.8c-1.7-2.8-2.6-5.6-2.6-8.5c0-2.3,0.6-5.2,1.8-8.7c0.6-1.9,1.4-4,2.4-6.3c0.1,0,0.1,0,0.2,0
		c4,0.5,7.8,0.9,11.3,1c3.4,0.2,6.9,0.1,10.4,0c3.5-0.2,7.8-0.5,12.9-1.1c1.4-0.2,2.8-0.4,4.1-0.7c0.1,0,0.2-0.1,0.3-0.1
		c-3,7.8-5.1,13.8-6.2,17.9c-0.5,2-0.8,3.6-0.9,4.7c-0.2,3.9,0.5,7.3,2.2,10.2c1.6,2.9,3.6,6,5.8,9.2c2.1,3.3,4.6,6.4,7.4,9.3
		c1.7,1.8,3.2,3.2,4.6,4.2c-4.9,2.5-9.5,5.3-13.8,8.4c-5.8,4.2-8.7,8.3-8.7,12.4c0,1.9,0.6,3.8,1.7,5.5c0.3,0.4,1,1,2.2,1.7
		c3,0.7,6.1,0.7,9.1-0.3c3.2-1,6.2-2.4,9-4.3c2.9-1.9,5.6-4.1,8.1-6.5c2.7-2.6,5-5.5,6.9-8.8c0.6-1,1-2.2,1.3-3.3
		c0.3-1.4,0.2-2.8-0.4-4.2c-0.7-1.5-1.6-2.9-2.9-4c-0.5-0.5-1-0.8-1.6-1c-0.4-1-1.1-2.1-2.2-3.3c-0.5-0.7-2.4-2.6-5.7-5.9
		c-2.6-2.6-4.5-4.9-5.7-6.8c-1.7-2.8-2.6-5.6-2.6-8.5c0-2.3,0.6-5.2,1.8-8.7c1.1-3.3,2.8-7.2,5-11.7c2.6-5.2,6.5-10.1,11.8-14.6
		c1.7-1.4,4.1-3.3,7-5.7c0,0-0.1,0-0.1,0c0.7-0.7,1.6-1.3,2.4-2.1c5.4-4.7,10.6-9.7,15.6-15c5-5.3,8.9-10.7,11.8-16.2
		c4.2-8,6.8-16.4,7.7-25.3c0.8-7.8,0.8-15.6-0.1-23.4c-0.9-7.6-2.4-15-4.5-22.2c-2.3-7.4-5.3-14.6-9-21.4c-3.7-6.8-8.2-13-13.4-18.7
		c-6-6.5-12.6-12.4-19.8-17.7c-7.1-5.2-14.7-9.7-22.7-13.3c-7.5-3.4-15.3-5.5-23.5-6.3c-2.6-0.3-5.1-0.3-7.7,0.1
		c0.4-0.8,0.7-1.6,1.1-2.5c0.5-1.3,0.9-2.5,1.3-3.9c0.4-1.3,0.7-2.5,1-3.9c0.5-2.2,0.9-4.4,1.1-6.6c0.6-5.4,0.9-10.8,0.9-16.3
		c0-0.4,0-0.8,0-1.2c-0.2-12.1-1.7-24-4.6-35.8c-0.9-3.7-2.3-7.2-4.1-10.5c-0.8-1.4-1.8-2.8-2.9-4c-0.5-0.5-1-1-1.6-1.5
		c-0.5-0.4-0.9-0.8-1.4-1.2c-1.8-1.4-3.7-2.5-5.8-3.4c-2.4-1-4.9-1.7-7.5-2c-3.8-0.4-7.6-0.6-11.3-0.7c-3.8-0.1-7.6,0.1-11.4,0.5
		c-3.7,0.3-7.4,0.9-11.1,1.7c-2.2,0.5-4.4,1-6.5,1.6c-1.5,0.4-3.1,0.9-4.5,1.4h-0.1c-2.4,0.8-4.3,1.5-5.9,2.1
		c-1.1,0.4-1.9,0.7-2.6,0.9c-2.8,1-4.9,2-6.4,2.8c-1.8,1-3.2,2.1-4.1,3.2c-0.9,1.2-1.4,2.7-1.4,4.4c-0.3,0.7-0.3,1.3,0,1.9
		c0.7,1.1,2.6,1.7,5.9,1.7c0.3,0,0.7,0,1.1,0c-0.7,1.4-1.3,2.8-1.9,4.2c-1.2,3.1-2.2,6.1-3,9.2c-0.9,3.1-1.6,6.3-2,9.6
		c-0.5,3-0.8,6.1-0.9,9.1c-0.1,1.6-0.1,3.2-0.1,4.8c0,2.2,0,4.4,0.1,6.5c0.1,3.2,0.5,6.4,0.9,9.5c0.2,1.7,0.5,3.3,0.8,4.9
		c0,0.1,0,0.2,0.1,0.3c0.4,1.9,0.8,3.8,1.3,5.6c0.2,0.8,0.4,1.7,0.7,2.5c0.2,0.7,0.4,1.4,0.6,2.1l1-0.1c-0.2-0.7-0.4-1.3-0.5-2
		c-0.4-1.7-0.9-3.5-1.2-5.2c-0.2-1-0.4-2-0.6-2.9c0-0.1-0.1-0.2-0.1-0.3c-0.8-4.5-1.4-9-1.6-13.6c-0.1-2.5-0.2-4.9-0.1-7.4
		c0-1.5,0.1-2.9,0.2-4.4c0.3-5.2,0.8-10.3,2.2-15.3 M259.5,151.2c-1.9-3.1-3.2-6.2-3.9-9.3c-0.1-0.2-0.1-0.3-0.1-0.5
		c-0.4-1.6-0.9-3.7-1.2-6.5c-0.2-1.4-0.4-2.6-0.6-3.7c2.2-0.8,3.4-2.9,3.4-6.4l0-1.2c0-1-0.1-1.8-0.3-2.6c-0.7-2.5-2.2-3.8-4.5-3.8
		c-2.9,0-4.8,1.5-5.7,4.4c-0.4,1.2-0.6,3.1-0.6,5.6c-1.6,0.1-3,0.1-4.3,0.2v-10.1c-0.3-0.9-0.5-2.3-0.7-4.2
		c-0.2-2.1-0.4-3.6-0.7-4.5c-0.9-3.3-3.2-5-7-5c-1.1,0-2.3,0.3-3.9,0.8c-1.6,0.5-2.7,0.8-3.4,0.8c-1.4,0-2.2-0.1-2.7-0.5
		c-0.2-0.1-0.4-0.4-0.4-0.6c0.4-0.8,0.8-1.6,1.3-2.3c0.3-0.5,0.4-1.1,0.4-1.7c0,0,0-0.1,0.1-0.4c0-0.3,0-0.5-0.1-0.7
		c-0.4-0.7-1.5-1-3.4-1c-2.5,0-6.5,1.4-12,4.3c-3.2,1.7-5.2,2.7-5.8,3c-1.9,0.9-3.3,1.4-4.2,1.4c-0.5,0-0.9-0.1-1.4-0.4
		c-0.5-0.3-0.7-0.6-0.7-0.8c0-0.3,0.3-1,1-2.1c0.7-1.2,1-1.9,1-2.1l0-0.3c0-0.2,0-0.4-0.2-0.6c-0.4-0.6-1.3-0.8-2.8-0.8
		c-1.3,0-3.9,0.6-7.9,1.8c-3.9,1.2-6.7,1.8-8.4,1.8c-2.4,0-3.9-0.2-4.4-0.7c-0.2-0.1-0.3-0.4-0.3-0.7c0-0.2,0-0.4,0.1-0.8
		c0-2.7,3.4-5.5,10.1-8.4c1.2-0.5,3.5-1.4,6.9-2.7c0.1,0,0.2-0.1,0.2-0.1c0,0,0.1,0,0.1,0c2.7-0.7,5.4-1.4,8.1-2.1
		c3.3-0.9,6.7-1.6,10.1-2.1c3-0.5,6-0.8,9.1-1c3.5-0.3,7-0.5,10.5-0.6c1.7-0.1,3.5,0,5.3,0.2c3,0.3,6,1,9,2c1.6,0.6,3.1,1.2,4.5,2
		c0.9,0.5,1.8,1,2.6,1.7c0.5,0.4,1.1,0.8,1.6,1.3c0.9,0.9,1.8,1.9,2.5,2.9c0.8,1.1,1.5,2.3,2.2,3.5c0.7,1.2,1.3,2.4,1.7,3.7
		c0.7,1.7,1.2,3.4,1.7,5.2c1.8,6.2,3,12.5,3.6,18.9c0.5,5.4,0.8,10.8,0.9,16.3c0,3.9-0.1,7.7-0.3,11.6c-0.1,0.7-0.1,1.5-0.2,2.2
		C262.8,154.7,260.8,153.3,259.5,151.2z M357.5,268.3 M253.8,188.6c0.8-0.9,1.4-1.8,2.1-2.7c1-1.4,1.9-2.8,2.7-4.2
		c0.9-1.6,1.7-3.1,2.5-4.7c0,0,0,0,0,0c5.5-0.3,11.1,0.1,16.6,1.4c7.2,1.7,14.2,4.3,20.7,7.8c6.2,3.3,12,7.1,17.5,11.4
		c6.3,4.9,12.1,10.1,17.6,15.7c1.4,1.4,2.8,2.9,4.2,4.4l-0.3-0.4c0.1,0.1,0.2,0.3,0.3,0.4c4.6,5.7,8.6,11.8,11.8,18.4
		c3.1,6.4,5.7,13.1,7.6,19.9c-1.6,2.5-3.2,5-4.9,7.4c-3.4,4.6-7.1,9-11,13.2c-3.7,3.9-7.5,7.5-11.5,10.9
		c-5.7,4.9-11.7,9.2-18.2,12.9c-13.4,7.8-27.3,14.4-41.7,19.9c-19.7,7.6-40.1,11.6-61.1,12c-1.4-2.8-2.8-5.6-4.2-8.4
		c-1.5-3-2.9-6-4.2-9c-1.4-3.1-2.6-6.3-3.8-9.5c-1.2-3.3-2.3-6.7-3.2-10.1c-1-3.5-1.7-7.1-2.4-10.7c-0.5-2.9-0.9-5.8-1.1-8.7
		c-0.3-3.3-0.4-6.7-0.3-10c0.1-3.4,0.3-6.7,0.7-10c0.5-3.6,1-7.2,1.7-10.7c0.5-2.4,1-4.8,1.6-7.2c0.6-2.6,1.2-5.2,1.9-7.8
		c0.9-3.2,1.8-6.5,2.7-9.7c1.4-1,2.7-2.4,3.8-4.2c0.9-1.4,1.7-2.9,2.3-4.6c0.2-0.6,0.4-1.2,0.5-1.6c0.6,0.8,1.2,1.7,1.7,2.7
		c1.1,2,1.9,4,2.3,6.2c0.2-0.1,0.4-0.3,0.6-0.4c0,0,0,0,0,0s0,0,0,0.1c0.7-0.2,1.5-0.5,2.2-0.7c0.2,0.7,0.3,1.3,0.6,2
		c0.7,2,1.7,3.5,3,4.5c0.7,2.3,1.9,5.9,3.6,10.8c1.8,5.1,3.5,9.1,5,12c1.5,2.9,2.8,5.5,4.1,7.8c0.7,1.4,1.6,2.7,2.4,4.1
		c1.8,2.7,3.8,5.3,5.9,7.7c1.7,1.9,3.6,3.5,5.8,4.8c2.8,1.8,6,2.7,9.3,2.7c3.4,0,6.6-0.7,9.7-2.2c3.9-1.9,7.4-4.4,10.5-7.6
		c3.4-3.6,5.9-7.7,7.6-12.3c1.3-3.6,2.3-7.3,3.2-11.1c0.6-2.6,1.1-5.3,1.4-8c0.3-2.1,0.5-4.2,0.6-6.4c0.1-2.1,0.2-4.2,0.2-6.4
		c0-1.7-0.1-3.5-0.2-5.2c-0.1-1.2-0.3-2.4-0.4-3.6c-0.2-1.2-0.3-2.5-0.5-3.7l-0.5,0.6c0,0.9-0.1,1.8-0.1,2.7
		c-0.1,3.6-0.2,7.1-0.3,10.7c0,3.3-0.2,6.7-0.5,10c-0.3,3.5-0.8,7-1.6,10.4c-0.8,3.8-1.9,7.5-3.3,11.1c-1.2,3.3-3,6.3-5.2,9
		c-2.4,2.9-5.2,5.3-8.4,7.1c-3.3,2-6.9,3.1-10.7,3.6c-2,0.2-3.9,0-5.8-0.5c-3.4-0.9-6.3-2.6-8.8-5.1c-2.5-2.5-4.7-5.3-6.6-8.4
		c-1.7-2.8-3.3-5.7-4.9-8.6c-1.6-3.1-3-6.2-4.3-9.4c-1-2.7-2-5.4-2.9-8.1c-0.3-1-0.6-1.9-0.9-2.9c0.1-0.1,0.1-0.2,0.2-0.3
		c2.1-2.7,4.9-4,8.5-4c0,0,0.1,0,0.1,0c0.1,0.2,0.1,0.5,0.2,0.7c1.6,5.7,3.6,11.3,5.7,16.7c1.7,4.4,4.2,8.4,7.3,12
		c0.9,1,1.9,2,3,2.9c0.4,0.3,0.7,0.6,1.1,0.8c0.9,0.7,1.8,1.2,2.9,1.5c1.8,0.6,3.7,0.7,5.6,0.3c2.1-0.4,3.9-1.4,5.4-2.9
		c1.8-1.9,3.2-4,4.1-6.5c2-5.1,3.2-10.3,3.8-15.8c0.3-2.3,0.5-4.6,0.7-6.9c0.2-1.8,0.4-3.6,0.6-5.4c0.2-1.7,0.4-3.4,0.6-5
		c0.1-0.7,0.1-1.3,0.2-2c0.1-1.5,0.1-2.9,0-4.4l-0.9-0.1c-0.1,0.3-0.3,0.6-0.3,0.9c-0.6,2.7-1,5.3-1.2,8c-0.2,2.9-0.4,5.7-0.7,8.6
		c-0.2,2.4-0.5,4.7-0.7,7.1c-0.4,3.7-1.2,7.4-2.4,11c-0.6,1.9-1.3,3.8-2,5.5c-1.3,3.1-3.4,5.2-6.5,6.3c-1,0.3-2,0.5-3.1,0.4
		c-3.7-0.5-6.7-2.2-9.1-5.1c-2.2-2.8-4.1-5.8-5.6-9c-1.6-3.3-3-6.7-4.2-10.1c-1.1-3-2-6.1-2.9-9.2c-0.7-2.7-1.4-5.4-2-8.1
		c0,0,0,0,0,0c-0.1,0-0.1,0-0.2,0c0,0,0-0.1,0-0.1c0-0.2,0-0.4,0.1-0.6l-0.2,0c0.2-1.3,0.3-2.6,0.3-4c0,0,0-0.5,0-1.4
		c0-0.1,0-0.3,0-0.4C240.4,204.3,249.3,196.6,253.8,188.6z M217,224.6c0.5-0.7,1-1.3,1.6-1.9c2.2-2.2,4.7-3.3,7.4-3.5
		c0.3,1.8,0.7,3.5,1.2,5.2c-2.9,0.1-5.7,1.4-8.3,4c-0.2,0.1-0.3,0.3-0.5,0.5c-0.4-1.3-0.8-2.5-1.2-3.8
		C217.1,225,217,224.8,217,224.6z M231.3,202.9c0.8-0.2,1.6-0.5,2.4-0.7c5-1.6,9.5-4,13.5-7.2c-3.5,3.7-8,7.4-13.5,11.1
		c-0.6,0.4-1.2,0.8-1.9,1.2c-0.4,0.2-0.7,0.5-1.1,0.7c-1.2,0.7-2.4,1.5-3.7,2.2c-0.1-0.3-0.1-0.7-0.1-1c-0.1-0.8-0.3-1.4-0.5-2
		c-0.6-1.6-1.5-2.4-2.7-2.4c0,0-0.1,0-0.1,0c-0.1-0.3-0.2-0.6-0.3-0.9C225.9,204,228.6,203.6,231.3,202.9z M209.2,200.8
		c0.7,0.7,2,2.3,3.9,4.7c0.5,0.7,1,1.3,1.4,1.8c0.7,0.9,1.2,1.3,1.3,1.3c0.3,0,0.5,0,0.6-0.1c0.1-0.1,0.1-0.2,0.2-0.3l0.1-0.3
		c0,0-0.1-0.2-0.3-0.6c-0.1-0.2-0.3-0.5-0.5-0.8c-0.7-1-1.3-2-2-2.9c-0.4-0.6-0.8-1.1-1.2-1.5c0-0.1,0-0.1,0-0.1
		c0.1-0.3,0.7-0.5,1.8-0.5c1.3,0,2.5,1.3,3.7,3.9c0.4,0.8,0.7,1.5,0.9,2c0.1,0.3,0.2,0.5,0.3,0.7c0.4,0.8,0.8,1.2,1.2,1.2
		c0.5,0,0.7-0.1,0.6-0.3c0.1-0.3,0.1-0.5,0.1-0.6c-0.1-0.3-0.3-0.7-0.4-1c-0.5-1.1-1-2.2-1.6-3.3c-0.7-1.1-1.3-1.9-1.9-2.6
		c0,0,0.1-0.1,0.1-0.1c0.2-0.2,0.7-0.3,1.5-0.3c0.8,0,1.8,1.4,3,4.2c0.4,0.8,0.7,1.5,0.9,2c0.1,0.4,0.3,0.7,0.4,0.9
		c0.4,0.9,0.6,1.3,0.8,1.3c0.5,0,0.7-0.1,0.6-0.2c0.1-0.3,0.1-0.6,0.1-1c-0.1-0.3-0.2-0.7-0.3-1c0.6,0.7,1,1.6,1.3,2.5
		c0.1,0.5,0.2,1.8,0.2,3.9c0,1.2-0.1,2.6-0.5,4c-2.6,0.3-5.1,1.6-7.6,3.8c-0.6,0.5-1.1,1-1.5,1.5c-1.4-0.9-2.4-2-3-3.3
		c-0.6-1.3-0.8-3.4-0.6-6.3c0.1-1.5-0.5-3.6-1.8-6.3c0,0,0-0.1-0.1-0.1c-1.5-3-2.3-5.2-2.4-6.4L209.2,200.8z M203.6,204.6
		c0.7,0.2,1.4,0.3,2.1,0.5c0.9,0.2,1.7,0.3,2.6,0.4c0.2,0.6,0.5,1.2,0.9,1.9c0,0.1,0.1,0.1,0.1,0.2c1.4,3,2.1,5.1,2.1,6.5
		c0,1,0.1,2,0.2,2.9c-0.5,0.2-1.1,0.4-1.6,0.5c-0.3-1.2-0.9-2.7-1.5-4.4c-0.2-0.5-0.6-1.2-1.4-2.2c-0.6-0.8-1.3-1.7-2-2.5
		c0-0.2,0-0.5,0-0.8c0-0.1,0-0.1,0-0.1c-0.2-1-0.7-1.5-1.4-1.5C203.5,205.5,203.6,205,203.6,204.6z M186.1,207.3
		c0.3-0.6,0.6-1.1,0.9-1.7c1.4-2.3,3.4-4.4,5.9-6.2c0,0,0.1-0.1,0.1-0.1c0.1,0,0.1,0.1,0.1,0.1c0.4,0.3,0.8,0.6,1.3,0.9c0,0,0,0,0,0
		c-0.1,0-0.1,0.1-0.1,0.1c-1.2,1-2.2,2-3.1,3c-0.9,0.9-1.3,1.6-1.3,1.8c0,0.3,0.1,0.5,0.2,0.7c0.1,0.1,0.2,0.1,0.5,0.2
		c0.6-0.5,1.4-1.2,2.3-2.1c1.5-1.6,2.3-2.4,2.4-2.5c0.9-0.8,1.7-1.5,2.5-2.1c1.1-0.7,2.2-1.2,3.2-1.5c0.1,0.3,0.1,0.7,0.1,1.4
		c0,0,0,0.1,0,0.1c-0.1,1.5-1.3,3.4-3.6,5.6c-1.2,1-2,1.8-2.4,2.2l0,0c-0.7,0.7-1.1,1.3-1.1,1.6c0,0.3,0.1,0.5,0.2,0.7
		c0.1,0.1,0.2,0.1,0.5,0.2c1.1-0.9,2-1.8,2.7-2.5c1.6-1.5,2.6-2.5,3-3c0.6-0.7,1.1-1.4,1.4-2.2c0.2,0.8,0.3,1.5,0.3,2
		c0,1-0.2,2-0.6,3.1c-0.3,0.8-0.7,1.7-1.3,2.5c-0.6,0.9-1.1,1.6-1.3,2c-0.4,0.6-0.6,1.1-0.6,1.5c0,0.5,0.2,0.8,0.7,1
		c1.8-2.6,3-4.4,3.4-5.3c0.2-0.4,0.4-0.8,0.5-1.2c0,0.1,0.1,0.1,0.1,0.1c0.3,0.5,0.4,0.8,0.4,1.1c-0.5,2.1-1.3,4.1-2.6,6.1
		c-2.4,4-5.5,6.1-9.3,6.1c-4.8,0-7.2-2.5-7.2-7.4C184.5,211.7,185.1,209.5,186.1,207.3z M183.4,217c0.1,0.5,0.3,1.1,0.6,1.6
		c1.2,2.6,3.6,4,7,4.2c-1.4,1.2-2.7,2.5-4,3.7c-1.6-0.5-3-1.4-4.1-2.8c-0.7-0.9-1.3-1.9-1.6-3c-0.2-0.5-0.3-1-0.4-1.4
		C181.8,218.5,182.6,217.8,183.4,217z M167.8,283.6c-4,0.4-7-1.2-9-4.7c-1.9-3.2-3-6.7-3.5-10.4c-0.4-3.6-0.3-7.1,0.5-10.6
		c0.7-3.5,1.8-6.8,3.3-10c1.3-2.7,2.7-5.4,4.1-8c1.9-3.3,4-6.3,6.5-9.2c2.4-2.9,4.9-5.5,7.7-8.1c0.8-0.7,1.6-1.5,2.4-2.2
		c0,0,0,0,0,0c0,0,0,0.1,0,0.1c0.3,1.2,0.8,2.4,1.4,3.4c1.2,1.9,2.7,3.3,4.6,4c-2.2,2.3-4.3,4.7-6.3,7.2c-2.3,3-4.5,6.1-6.4,9.3
		c-1.2,1.9-2.1,3.9-3,6c-1.2,3.1-2,6.3-2.4,9.6c-0.4,3.8-0.4,7.6,0.1,11.5c0.4,3.4,1.1,6.7,2.1,10.1c0.1,0.5,0.3,1,0.4,1.5
		C169.6,283.3,168.7,283.5,167.8,283.6z M188.7,326.6c-4.3-8.5-8-17.3-11-26.3c-3.3-9.8-6.1-19.8-8.2-29.8c-0.3-1.2-0.4-2.3-0.5-3.5
		c-0.3-4,0.1-8,1.1-12c0.8-2.9,1.9-5.6,3.3-8.3c1.4-2.7,3.1-5.4,4.9-7.9c1.7-2.2,3.4-4.4,5.2-6.5c2-2.3,4.1-4.5,6.3-6.6
		c1-1,2-2,3.1-3c1.4-0.1,2.6-0.5,3.9-1.1c-1.2,3.5-2.2,6.9-3.2,10.5c-0.7,2.7-1.4,5.4-2,8.2c-0.4,1.8-0.8,3.7-1.1,5.5
		c-0.5,2.8-1,5.5-1.3,8.4c-0.5,3.7-0.8,7.4-0.9,11.1c-0.1,3.7,0,7.3,0.3,10.9c0.3,3.7,0.9,7.4,1.6,11.1c0.5,2.8,1.2,5.5,1.9,8.3
		c0.7,2.7,1.5,5.4,2.4,8.1c0.9,2.6,1.8,5.2,2.8,7.7c1,2.5,2.1,5,3.3,7.5c0.7,1.6,1.5,3.3,2.4,4.9c1.2,2.3,2.4,4.6,3.7,6.9
		c0.4,0.7,0.8,1.3,1.2,2c-0.8,0-1.6,0-2.3,0c-4.8,0-9.5-0.3-14.2-1C190.4,329.9,189.5,328.2,188.7,326.6z M264.6,413.6
		c1.3,0.8,2.2,2.1,2.9,3.7c0.2,0.5,0.3,1,0.4,1.6c0.1,1.8-0.4,3.5-1.3,5c-1.7,2.7-3.7,5.3-6,7.7c-2.4,2.4-4.6,4.3-6.8,5.8
		c-2.2,1.5-4.3,2.7-6.4,3.9c-2.1,1.1-4.5,1.7-7.2,1.8c-3.3,0-5.2-0.4-5.8-1.1c-0.7-0.8-1.3-1.8-1.6-2.9c-0.3-0.8-0.5-1.6-0.5-2.2
		c0-4.4,4.4-9.4,13.3-14.8c0.2-0.1,0.3-0.2,0.5-0.3c0.8-0.5,1.7-1,2.8-1.6c1.1-0.6,2.3-1.3,3.6-2c0.7-0.4,1.5-0.8,2.3-1.2
		c1.1,0.6,2,1,2.8,1c2,0,3.6-0.4,5-1.2C263.9,415.9,264.6,414.9,264.6,413.6z M249,376.7c-0.2,0.6-0.4,1.2-0.6,1.7
		c-1.1,3.5-1.7,6.5-1.7,9c0,2.9,0.9,5.8,2.6,8.7c1.3,2.1,3.2,4.5,5.7,7.1c1.4,1.4,3.3,3.4,5.7,5.9c1.7,2,2.6,3.6,2.6,4.9
		c-1.1,1.5-3,2.3-5.7,2.3c-2.7,0-6.4-3.1-10.9-9.2c-4.6-6.1-7.7-10.8-9.4-14.1c-1.7-3.3-2.6-6.1-2.5-8.6c0.1-1.2,0.5-3.3,1.2-6
		c0.7-2.4,1.5-5.3,2.7-8.7c4.1,0.9,8.2,1.7,12.3,2.2C250.2,373.7,249.5,375.3,249,376.7z M315.8,424.4c1.3,0.8,2.2,2.1,2.9,3.7
		c0.2,0.5,0.3,1,0.4,1.6c0.1,1.8-0.4,3.5-1.3,5c-1.7,2.7-3.7,5.3-6,7.7c-2.4,2.4-4.6,4.3-6.8,5.8c-2.2,1.5-4.3,2.7-6.4,3.9
		c-2.1,1.1-4.5,1.7-7.2,1.8c-3.3,0-5.2-0.4-5.8-1.1c-0.7-0.8-1.3-1.8-1.6-2.9c-0.3-0.8-0.5-1.6-0.5-2.2c0-4.4,4.4-9.4,13.3-14.8
		c0.2-0.1,0.3-0.2,0.5-0.3c0.8-0.5,1.7-1,2.8-1.6c1.1-0.6,2.3-1.3,3.6-2c0.7-0.4,1.5-0.8,2.3-1.2c1.1,0.6,2,1,2.8,1
		c2,0,3.6-0.4,5-1.2C315,426.7,315.7,425.6,315.8,424.4z M360.7,300.9c-0.6,7.4-3.2,14.4-6.5,21c-3.3,6.7-7.6,12.7-12.8,18.1
		c-5.1,5.3-10.5,10.3-16.2,15c-0.9,0.7-3.6,3.1-8.3,7.2h0c-1.5,1.2-3,2.5-4.3,3.9c-3.6,3.5-6.2,7.1-7.9,10.6
		c-2.1,4.4-3.6,8-4.6,10.7c-0.2,0.6-0.4,1.2-0.6,1.7c-1.1,3.5-1.7,6.5-1.7,9c0,2.9,0.9,5.8,2.6,8.7c1.3,2.1,3.2,4.5,5.7,7.1
		c1.4,1.4,3.3,3.4,5.7,5.9c1.7,2,2.6,3.6,2.6,4.9c-1.1,1.5-3,2.3-5.7,2.3c-2.7,0-6.4-3.1-10.9-9.2c-4.6-6.1-7.7-10.8-9.4-14.1
		c-1.7-3.3-2.6-6.1-2.5-8.6c0.1-1.2,0.5-3.3,1.2-6c0.7-2.6,1.7-5.9,3.1-9.9c2.7-7.6,4.1-11.6,4.1-12.1c0-0.3-0.1-0.5-0.1-0.6
		c-0.1-0.1-0.2-0.1-0.6-0.2c-0.4,1-0.8,2.1-1.2,3.1c-4.5,1-9,1.6-13.6,2c-2.7,0.2-5.5,0.4-8.2,0.4c-3.3,0.1-6.6-0.1-10-0.3
		c-3.7-0.4-7.4-0.8-11.1-1.2c-1.2-0.1-2.4-0.2-3.6-0.5c-1.4-0.3-2.9-0.6-4.3-0.9c-1.3-0.3-2.5-0.6-3.8-0.9c-0.6-0.2-1.1-0.3-1.7-0.5
		c-0.9-0.2-1.8-0.5-2.7-0.7c-1-0.3-1.9-0.6-2.9-0.8c-1.7-0.5-3.4-1-5-1.6c-2.5-0.9-5-2-7.3-3.3c-4-2.1-7.6-4.7-10.8-7.8
		c-1.9-1.9-14.5-18.8-15.3-20.2c4.8,0.5,9.6,0.9,14.4,1c4.5,0.1,8.9-0.1,13.4-0.5c9.2-0.7,18.4-2.1,27.4-4.2
		c8.2-2,16.1-4.5,23.9-7.7c8-3.2,15.9-6.7,23.6-10.4c7.6-3.6,15-7.7,22.2-12.3c7.4-4.8,14.3-10.2,20.7-16.2
		c6.4-6.1,12.1-12.8,17-20.1c1.1-1.6,2.1-3.2,3-4.8C358.2,259.7,362.5,279,360.7,300.9z"/>
	<path fill="#1CB1BF" d="M227.1,211.9c0,0.1,0,0.3,0,0.4c0,0.9,0,1.4,0,1.4c0,1.4-0.1,2.7-0.3,4l0.2,0c0,0.2-0.1,0.4-0.1,0.6
		c0,0,0,0,0,0.1c0.1,0,0.1,0,0.2,0c0,0,0,0,0,0c0.6,2.7,1.3,5.4,2,8.1c0.9,3.1,1.8,6.2,2.9,9.2c1.2,3.5,2.6,6.8,4.2,10.1
		c1.5,3.2,3.4,6.2,5.6,9c2.4,3,5.4,4.7,9.1,5.1c1.1,0.1,2.1,0,3.1-0.4c3.1-1.1,5.2-3.2,6.5-6.3c0.7-1.8,1.4-3.6,2-5.5
		c1.2-3.6,2-7.3,2.4-11c0.3-2.4,0.5-4.7,0.7-7.1c0.3-2.9,0.5-5.7,0.7-8.6c0.2-2.7,0.6-5.4,1.2-8c0.1-0.3,0.2-0.6,0.3-0.9l0.9,0.1
		c0.1,1.5,0.1,2.9,0,4.4c-0.1,0.7-0.1,1.3-0.2,2c-0.2,1.6-0.4,3.3-0.6,5c-0.2,1.8-0.4,3.6-0.6,5.4c-0.2,2.3-0.5,4.6-0.7,6.9
		c-0.6,5.4-1.8,10.7-3.8,15.8c-0.9,2.5-2.3,4.6-4.1,6.5c-1.5,1.5-3.3,2.5-5.4,2.9c-1.9,0.4-3.8,0.3-5.6-0.3c-1.1-0.3-2-0.8-2.9-1.5
		c-0.4-0.3-0.8-0.6-1.1-0.8c-1.1-0.9-2.1-1.8-3-2.9c-3.2-3.6-5.6-7.6-7.3-12c-2.2-5.5-4.1-11-5.7-16.7c-0.1-0.2-0.1-0.5-0.2-0.7
		c0,0-0.1,0-0.1,0c-3.6,0-6.4,1.3-8.5,4c-0.1,0.1-0.1,0.2-0.2,0.3c0.3,1,0.6,1.9,0.9,2.9c0.9,2.7,1.9,5.4,2.9,8.1
		c1.3,3.2,2.7,6.3,4.3,9.4c1.5,2.9,3.2,5.8,4.9,8.6c1.9,3.1,4.1,5.8,6.6,8.4c2.5,2.5,5.4,4.2,8.8,5.1c1.9,0.5,3.9,0.7,5.8,0.5
		c3.8-0.5,7.4-1.7,10.7-3.6c3.2-1.8,6-4.2,8.4-7.1c2.2-2.7,3.9-5.7,5.2-9c1.4-3.6,2.4-7.3,3.3-11.1c0.8-3.4,1.3-6.9,1.6-10.4
		c0.3-3.3,0.4-6.7,0.5-10c0.1-3.6,0.1-7.1,0.3-10.7c0-0.9,0.1-1.8,0.1-2.7l0.5-0.6c0.2,1.2,0.4,2.5,0.5,3.7c0.2,1.2,0.3,2.4,0.4,3.6
		c0.1,1.7,0.2,3.5,0.2,5.2c0,2.2-0.1,4.3-0.2,6.4c-0.1,2.2-0.3,4.3-0.6,6.4c-0.3,2.7-0.8,5.4-1.4,8c-0.8,3.8-1.9,7.5-3.2,11.1
		c-1.6,4.6-4.2,8.8-7.6,12.3c-3,3.2-6.5,5.7-10.5,7.6c-3.1,1.5-6.3,2.2-9.7,2.2c-3.4,0-6.5-0.9-9.3-2.7c-2.1-1.4-4.1-3-5.8-4.8
		c-2.2-2.4-4.1-5-5.9-7.7c-0.9-1.3-1.7-2.7-2.4-4.1c-1.2-2.3-2.6-4.9-4.1-7.8c-1.5-2.9-3.2-6.9-5-12c-1.8-4.9-3-8.5-3.6-10.8
		c-1.3-1-2.3-2.5-3-4.5c-0.2-0.7-0.4-1.3-0.6-2c-0.7,0.3-1.5,0.5-2.2,0.7l0-0.1c-0.2,0.1-0.4,0.2-0.6,0.4c-0.4-2.1-1.2-4.2-2.3-6.2
		c-0.5-1-1.1-1.9-1.7-2.7c-0.1,0.4-0.3,1-0.5,1.6c-0.6,1.7-1.3,3.2-2.3,4.6c-1.1,1.8-2.4,3.2-3.8,4.2c-1,3.2-1.9,6.4-2.7,9.7
		c-0.7,2.6-1.3,5.2-1.9,7.8c-0.6,2.4-1.1,4.8-1.6,7.2c-0.7,3.5-1.3,7.1-1.7,10.7c-0.4,3.3-0.6,6.6-0.7,10c-0.1,3.3,0.1,6.7,0.3,10
		c0.2,2.9,0.6,5.8,1.1,8.7c0.6,3.6,1.4,7.2,2.4,10.7c0.9,3.4,2,6.8,3.2,10.1c1.2,3.2,2.4,6.4,3.8,9.5c1.3,3,2.7,6,4.2,9
		c1.4,2.8,2.8,5.6,4.2,8.4c21-0.5,41.4-4.4,61.1-12c14.5-5.5,28.4-12.2,41.7-19.9c6.4-3.8,12.5-8.1,18.2-12.9
		c4-3.4,7.8-7.1,11.5-10.9c3.9-4.2,7.6-8.6,11-13.2c1.7-2.4,3.4-4.8,4.9-7.4c-2-6.9-4.5-13.5-7.6-19.9c-3.2-6.6-7.2-12.7-11.8-18.4
		h0c-1.4-1.5-2.8-3-4.2-4.4c-5.5-5.6-11.3-10.8-17.6-15.7c-5.5-4.3-11.3-8.1-17.5-11.4c-6.6-3.5-13.5-6.1-20.7-7.8
		c-5.5-1.3-11.1-1.8-16.6-1.4c0,0,0,0,0,0c-0.8,1.6-1.6,3.1-2.5,4.7c-0.9,1.4-1.8,2.9-2.7,4.2c-0.7,0.9-1.4,1.8-2.1,2.7
		C249.3,196.6,240.4,204.3,227.1,211.9z M195.6,240.1c0.5-0.6,1.1-0.9,1.9-0.9c1,0,1.7,0.4,2.1,1.2c0.2,0.4,0.3,0.8,0.3,1.3
		c0,0.5-0.2,1-0.5,1.5c-0.5,0.6-1.1,0.9-1.9,0.9c-1.1,0-1.8-0.4-2.2-1.2c-0.1-0.3-0.2-0.5-0.3-0.8c0-0.1,0-0.3,0-0.4
		C195,241.2,195.2,240.6,195.6,240.1z M197.7,274.4c-0.5,0.6-1.1,0.9-1.9,0.9c-1.1,0-1.8-0.4-2.2-1.2c-0.1-0.3-0.2-0.5-0.3-0.8
		c0-0.1,0-0.3,0-0.4c0-0.5,0.2-1.1,0.6-1.6c0.5-0.6,1.1-0.9,1.9-0.9c1,0,1.7,0.4,2.1,1.3c0.2,0.4,0.3,0.8,0.3,1.3
		C198.2,273.4,198.1,273.9,197.7,274.4z M203.1,303.8c-0.5,0.6-1.1,0.9-1.9,0.9c-1.1,0-1.8-0.4-2.2-1.2c-0.1-0.3-0.2-0.5-0.3-0.8
		c0-0.1,0-0.3,0-0.4c0-0.6,0.2-1.1,0.6-1.6c0.5-0.6,1.1-0.9,1.9-0.9c1,0,1.7,0.4,2.1,1.3c0.2,0.4,0.3,0.8,0.3,1.3
		C203.6,302.8,203.5,303.3,203.1,303.8z M213.6,327.9c-0.5,0.6-1.1,0.9-1.9,0.9c-1.1,0-1.8-0.4-2.2-1.2c-0.1-0.3-0.2-0.5-0.3-0.8
		c0-0.1,0-0.3,0-0.4c0-0.6,0.2-1.1,0.6-1.6c0.5-0.6,1.1-0.9,1.9-0.9c1,0,1.7,0.4,2.1,1.2c0.2,0.4,0.3,0.8,0.3,1.3
		C214.2,326.9,214,327.4,213.6,327.9z"/>
	<path d="M195.3,243c0.4,0.8,1.1,1.2,2.2,1.2c0.8,0,1.4-0.3,1.9-0.9c0.4-0.5,0.5-1,0.5-1.5c0-0.5-0.1-0.9-0.3-1.3
		c-0.4-0.8-1.1-1.2-2.1-1.2c-0.8,0-1.4,0.3-1.9,0.9c-0.4,0.5-0.6,1-0.6,1.6c0,0.1,0,0.3,0,0.4C195.1,242.4,195.1,242.7,195.3,243z
		 M195.6,240.5c0.4-0.4,0.8-0.6,1.3-0.6c1.1,0,1.7,0.6,1.8,1.8c0,0.5-0.1,0.8-0.5,1.2c-0.3,0.4-0.8,0.6-1.3,0.6
		c-1.2,0-1.8-0.6-1.8-1.8C195.1,241.2,195.3,240.8,195.6,240.5z"/>
	<path fill="#00A1BD" d="M196.9,243.4c0.5,0,0.9-0.2,1.3-0.6c0.3-0.4,0.5-0.7,0.5-1.2c-0.1-1.2-0.7-1.8-1.8-1.8
		c-0.5,0-0.9,0.2-1.3,0.6c-0.3,0.3-0.5,0.7-0.5,1.2C195.1,242.8,195.7,243.4,196.9,243.4z"/>
	<path d="M195.8,270.3c-0.8,0-1.4,0.3-1.9,0.9c-0.4,0.5-0.6,1-0.6,1.6c0,0.1,0,0.3,0,0.4c0.1,0.3,0.1,0.6,0.3,0.8
		c0.4,0.8,1.1,1.2,2.2,1.2c0.8,0,1.4-0.3,1.9-0.9c0.4-0.5,0.5-1,0.5-1.5c0-0.4-0.1-0.8-0.3-1.3C197.5,270.8,196.8,270.3,195.8,270.3
		z M196.5,274c-0.3,0.4-0.8,0.6-1.3,0.6c-0.8,0-1.3-0.3-1.6-0.8c-0.1-0.3-0.2-0.6-0.2-1c0-0.4,0.2-0.8,0.5-1.2
		c0.4-0.4,0.8-0.6,1.3-0.6c1.1,0,1.7,0.6,1.8,1.8C197,273.3,196.8,273.7,196.5,274z"/>
	<path fill="#00A1BD" d="M195.2,271.1c-0.5,0-0.9,0.2-1.3,0.6c-0.3,0.3-0.5,0.7-0.5,1.2c0,0.3,0.1,0.7,0.2,1
		c0.3,0.6,0.8,0.8,1.6,0.8c0.5,0,0.9-0.2,1.3-0.6c0.3-0.4,0.5-0.7,0.5-1.2C196.9,271.6,196.3,271.1,195.2,271.1z"/>
	<path d="M201.2,299.7c-0.8,0-1.4,0.3-1.9,0.9c-0.4,0.5-0.6,1-0.6,1.6c0,0.2,0,0.3,0,0.4c0.1,0.3,0.1,0.6,0.3,0.8
		c0.4,0.8,1.1,1.2,2.2,1.2c0.8,0,1.4-0.3,1.9-0.9c0.4-0.5,0.5-1,0.5-1.5c0-0.4-0.1-0.8-0.3-1.3C202.9,300.2,202.2,299.7,201.2,299.7
		z M201.9,303.7c-0.4,0.4-0.8,0.6-1.3,0.6c-0.8,0-1.3-0.3-1.6-0.8c-0.1-0.3-0.2-0.6-0.2-1c0-0.4,0.2-0.8,0.5-1.2
		c0.4-0.4,0.8-0.6,1.3-0.6c1.1,0,1.6,0.6,1.8,1.8C202.4,303,202.2,303.4,201.9,303.7z"/>
	<path fill="#00A1BD" d="M200.6,300.7c-0.5,0-0.9,0.2-1.3,0.6c-0.3,0.3-0.5,0.7-0.5,1.2c0,0.3,0.1,0.7,0.2,1
		c0.3,0.5,0.8,0.8,1.6,0.8c0.5,0,0.9-0.2,1.3-0.6c0.3-0.3,0.5-0.7,0.5-1.2C202.3,301.3,201.7,300.7,200.6,300.7z"/>
	<path d="M211.7,323.8c-0.8,0-1.4,0.3-1.9,0.9c-0.4,0.5-0.6,1-0.6,1.6c0,0.2,0,0.3,0,0.4c0.1,0.3,0.1,0.6,0.3,0.8
		c0.4,0.8,1.1,1.2,2.2,1.2c0.8,0,1.4-0.3,1.9-0.9c0.4-0.5,0.5-1,0.5-1.5c0-0.5-0.1-0.9-0.3-1.3C213.4,324.2,212.7,323.8,211.7,323.8
		z M212.4,327.5c-0.3,0.4-0.8,0.6-1.3,0.6c-0.8,0-1.3-0.3-1.6-0.8c-0.1-0.3-0.2-0.6-0.2-1c0-0.4,0.2-0.8,0.5-1.2
		c0.4-0.4,0.8-0.6,1.3-0.6c1.1,0,1.7,0.6,1.8,1.8C212.9,326.8,212.7,327.1,212.4,327.5z"/>
	<path fill="#00A1BD" d="M211.1,324.5c-0.5,0-0.9,0.2-1.3,0.6c-0.3,0.3-0.5,0.7-0.5,1.2c0,0.3,0.1,0.7,0.2,1
		c0.3,0.5,0.8,0.8,1.6,0.8c0.5,0,0.9-0.2,1.3-0.6c0.3-0.3,0.5-0.7,0.5-1.2C212.8,325.1,212.2,324.5,211.1,324.5z"/>
	<path d="M265.6,153.1c0.2-3.9,0.3-7.8,0.3-11.6c0-5.5-0.3-10.9-0.9-16.3c-0.6-6.4-1.8-12.7-3.6-18.9c-0.5-1.8-1.1-3.5-1.7-5.2
		c-0.5-1.3-1.1-2.5-1.7-3.7c-0.7-1.2-1.4-2.3-2.2-3.5c-0.7-1.1-1.6-2-2.5-2.9c-0.5-0.5-1-0.9-1.6-1.3c-0.8-0.6-1.7-1.2-2.6-1.7
		c-1.4-0.8-3-1.5-4.5-2c-2.9-1-5.9-1.7-9-2c-1.8-0.2-3.5-0.3-5.3-0.2c-3.5,0.1-7,0.3-10.5,0.6c-3.1,0.2-6.1,0.6-9.1,1
		c-3.4,0.5-6.8,1.2-10.1,2.1c-2.7,0.7-5.4,1.4-8.1,2.1c-0.1,0-0.1,0-0.1,0c-0.1,0-0.1,0.1-0.2,0.1c-3.4,1.3-5.7,2.2-6.9,2.7
		c-6.7,2.9-10.1,5.7-10.1,8.4c0,0.4-0.1,0.6-0.1,0.8c0,0.3,0.1,0.5,0.3,0.7c0.5,0.4,2,0.7,4.4,0.7c1.6,0,4.5-0.6,8.4-1.8
		c3.9-1.2,6.5-1.8,7.9-1.8c1.5,0,2.4,0.3,2.8,0.8c0.1,0.2,0.2,0.4,0.2,0.6l0,0.3c0,0.3-0.3,1-1,2.1c-0.7,1.2-1,1.9-1,2.1
		c0,0.3,0.2,0.6,0.7,0.8c0.5,0.3,0.9,0.4,1.4,0.4c0.9,0,2.3-0.5,4.2-1.4c0.6-0.3,2.6-1.3,5.8-3c5.5-2.9,9.5-4.3,12-4.3
		c1.8,0,2.9,0.3,3.4,1c0.1,0.2,0.2,0.5,0.1,0.7c-0.1,0.2-0.1,0.3-0.1,0.4c0,0.7-0.1,1.2-0.4,1.7c-0.5,0.7-0.9,1.5-1.3,2.3
		c0.1,0.3,0.2,0.5,0.4,0.6c0.4,0.3,1.3,0.5,2.7,0.5c0.7,0,1.8-0.3,3.4-0.8c1.6-0.5,2.8-0.8,3.9-0.8c3.8,0,6.1,1.7,7,5
		c0.2,0.9,0.5,2.4,0.7,4.5c0.2,2,0.4,3.3,0.7,4.2v10.1c1.3-0.1,2.7-0.1,4.3-0.2c0-2.5,0.2-4.4,0.6-5.6c0.9-3,2.8-4.4,5.7-4.4
		c2.4,0,3.9,1.3,4.5,3.8c0.2,0.8,0.3,1.7,0.3,2.6l0,1.2c0,3.5-1.1,5.6-3.4,6.4c0.2,1.1,0.4,2.3,0.6,3.7c0.4,2.7,0.8,4.9,1.2,6.5
		c0,0.2,0.1,0.3,0.1,0.5c0.7,3.1,2,6.2,3.9,9.3c1.3,2.1,3.3,3.5,5.9,4C265.5,154.5,265.6,153.8,265.6,153.1z"/>
	
		<radialGradient id="SVGID_1_" cx="162.7937" cy="154.4851" r="121.3592" gradientTransform="matrix(1.0045 0 0 1.0009 -13.9627 -1.1479)" gradientUnits="userSpaceOnUse">
		<stop  offset="0" style="stop-color:#F7DFC6"/>
		<stop  offset="1" style="stop-color:#FDCF9D"/>
	</radialGradient>
	<path fill="url(#SVGID_1_)" d="M191.8,221.3c3.7,0,6.8-2,9.3-6.1c1.2-2,2.1-4.1,2.6-6.1c0-0.3-0.1-0.7-0.4-1.1
		c0-0.1-0.1-0.1-0.1-0.1c-0.1,0.4-0.3,0.8-0.5,1.2c-0.4,0.9-1.6,2.7-3.4,5.3c-0.5-0.1-0.7-0.5-0.7-1c0-0.4,0.2-0.9,0.6-1.5
		c0.2-0.4,0.7-1,1.3-2c0.5-0.8,1-1.7,1.3-2.5c0.4-1.1,0.6-2.1,0.6-3.1c0-0.6-0.1-1.2-0.3-2c-0.3,0.7-0.8,1.5-1.4,2.2
		c-0.4,0.5-1.4,1.5-3,3c-0.8,0.7-1.7,1.5-2.7,2.5c-0.3-0.1-0.5-0.2-0.5-0.2c-0.1-0.1-0.2-0.3-0.2-0.7c0-0.3,0.4-0.8,1.1-1.6l0,0
		c0.5-0.5,1.3-1.2,2.4-2.2c2.3-2.2,3.5-4.1,3.6-5.6c0,0,0-0.1,0-0.1c0-0.7,0-1.1-0.1-1.4c-1,0.2-2,0.7-3.2,1.5
		c-0.8,0.6-1.6,1.2-2.5,2.1c0,0.1-0.8,0.8-2.4,2.5c-0.9,0.9-1.7,1.6-2.3,2.1c-0.3-0.1-0.5-0.2-0.5-0.2c-0.1-0.1-0.2-0.3-0.2-0.7
		c0-0.3,0.4-0.9,1.3-1.8c0.9-1,1.9-2,3.1-3l0.1-0.1c-0.4-0.3-0.9-0.6-1.3-0.9c-0.1,0-0.1-0.1-0.1-0.1c0,0-0.1,0.1-0.1,0.1
		c-2.5,1.8-4.5,3.9-5.9,6.2c-0.3,0.6-0.7,1.1-0.9,1.7c-1.1,2.1-1.6,4.3-1.6,6.5C184.5,218.8,186.9,221.3,191.8,221.3z"/>
	
		<radialGradient id="SVGID_2_" cx="162.7967" cy="154.4848" r="121.3562" gradientTransform="matrix(1.0045 0 0 1.0009 -13.9627 -1.1479)" gradientUnits="userSpaceOnUse">
		<stop  offset="0" style="stop-color:#F7DFC6"/>
		<stop  offset="1" style="stop-color:#FDCF9D"/>
	</radialGradient>
	<path fill="url(#SVGID_2_)" d="M210.9,207.3c1.3,2.7,1.8,4.8,1.8,6.3c-0.2,2.9,0,5,0.6,6.3c0.6,1.2,1.6,2.3,3,3.3
		c0.5-0.5,0.9-1,1.5-1.5c2.4-2.3,5-3.5,7.6-3.8c0.3-1.5,0.5-2.8,0.5-4c0-2.1-0.1-3.4-0.2-3.9c-0.2-0.9-0.7-1.8-1.3-2.5
		c0.1,0.3,0.2,0.7,0.3,1c0,0.4,0,0.7-0.1,1c0.1,0.1-0.2,0.2-0.6,0.2c-0.1,0-0.4-0.4-0.8-1.3c-0.1-0.2-0.2-0.5-0.4-0.9
		c-0.2-0.5-0.5-1.2-0.9-2c-1.3-2.8-2.2-4.2-3-4.2c-0.8,0-1.3,0.1-1.5,0.3c0,0-0.1,0.1-0.1,0.1c0.6,0.7,1.2,1.5,1.9,2.6
		c0.6,1.1,1.2,2.2,1.6,3.3c0.1,0.3,0.3,0.7,0.4,1c0,0.1,0,0.3-0.1,0.6c0.1,0.2-0.2,0.3-0.6,0.3c-0.4,0-0.7-0.4-1.2-1.2
		c-0.1-0.2-0.2-0.4-0.3-0.7c-0.3-0.5-0.5-1.2-0.9-2c-1.2-2.6-2.4-3.9-3.7-3.9c-1.1,0-1.6,0.2-1.8,0.5c0,0,0,0.1,0,0.1
		c0.4,0.4,0.8,0.9,1.2,1.5c0.7,0.9,1.3,1.9,2,2.9c0.2,0.3,0.3,0.6,0.5,0.8c0.2,0.4,0.3,0.6,0.3,0.6l-0.1,0.3
		c-0.1,0.1-0.1,0.3-0.2,0.3c-0.1,0.1-0.3,0.1-0.6,0.1c-0.1,0-0.5-0.5-1.3-1.3c-0.4-0.5-0.9-1.1-1.4-1.8c-1.9-2.4-3.2-4-3.9-4.7
		l-0.8,0.1C208.6,202.1,209.4,204.2,210.9,207.3C210.9,207.3,210.9,207.3,210.9,207.3z"/>
	<path fill="#00A1BD" d="M183,223.7c1.1,1.4,2.4,2.3,4.1,2.8c1.3-1.3,2.6-2.5,4-3.7c-3.5-0.2-5.8-1.6-7-4.2
		c-0.3-0.5-0.5-1.1-0.6-1.6c-0.8,0.7-1.6,1.5-2.4,2.2c0.1,0.5,0.2,0.9,0.4,1.4C181.7,221.8,182.3,222.8,183,223.7z"/>
	<path fill="#1CB1BF" d="M167.9,271.4c-0.5-3.9-0.5-7.7-0.1-11.5c0.4-3.3,1.2-6.5,2.4-9.6c0.8-2.1,1.8-4.1,3-6
		c1.9-3.3,4.1-6.3,6.4-9.3c2-2.5,4.1-4.9,6.3-7.2c-1.9-0.7-3.4-2-4.6-4c-0.6-1-1.1-2.2-1.4-3.4l-0.1-0.1c-0.8,0.7-1.6,1.5-2.4,2.2
		c-2.7,2.6-5.3,5.3-7.7,8.1c-2.4,2.9-4.5,5.9-6.5,9.2c-1.5,2.6-2.9,5.2-4.1,8c-1.5,3.2-2.6,6.5-3.3,10c-0.7,3.5-0.9,7.1-0.5,10.6
		c0.5,3.7,1.6,7.1,3.5,10.4c2,3.5,5,5,9,4.7c0.9-0.1,1.8-0.3,2.6-0.7c-0.1-0.5-0.3-1-0.4-1.5C169,278.1,168.3,274.8,167.9,271.4z"/>
	<path fill="#1CB1BF" d="M207.8,332.6c-0.4-0.7-0.8-1.4-1.2-2c-1.3-2.3-2.5-4.6-3.7-6.9c-0.9-1.6-1.6-3.2-2.4-4.9
		c-1.2-2.5-2.2-5-3.3-7.5c-1-2.5-1.9-5.1-2.8-7.7c-0.9-2.7-1.7-5.4-2.4-8.1c-0.7-2.7-1.4-5.5-1.9-8.3c-0.7-3.7-1.2-7.3-1.6-11.1
		c-0.3-3.6-0.5-7.3-0.3-10.9c0.1-3.7,0.4-7.4,0.9-11.1c0.3-2.8,0.8-5.6,1.3-8.4c0.4-1.8,0.7-3.7,1.1-5.5c0.6-2.7,1.3-5.5,2-8.2
		c1-3.6,2-7.1,3.2-10.5c-1.2,0.6-2.5,1-3.9,1.1c-1.1,1-2.1,2-3.1,3c-2.2,2.2-4.3,4.4-6.3,6.6c-1.8,2.1-3.6,4.2-5.2,6.5
		c-1.8,2.5-3.5,5.2-4.9,7.9c-1.4,2.7-2.5,5.4-3.3,8.3c-1.1,3.9-1.4,7.9-1.1,12c0.1,1.2,0.3,2.3,0.5,3.5c2.1,10.1,4.9,20,8.2,29.8
		c3,9,6.7,17.8,11,26.3c0.8,1.7,1.7,3.3,2.6,5c4.7,0.7,9.4,1,14.2,1C206.3,332.6,207,332.6,207.8,332.6z"/>
	<path fill="#1CB1BF" d="M204.9,207.3c0,0,0,0.1,0,0.1c0,0.3,0,0.6,0,0.8c0.7,0.8,1.4,1.6,2,2.5c0.8,1,1.2,1.8,1.4,2.2
		c0.6,1.8,1.1,3.3,1.5,4.4c0.5-0.2,1-0.3,1.6-0.5c-0.1-1-0.2-1.9-0.2-2.9c0-1.4-0.7-3.5-2.1-6.5c0-0.1-0.1-0.1-0.1-0.2
		c-0.3-0.7-0.6-1.3-0.9-1.9c-0.9-0.1-1.7-0.2-2.6-0.4c-0.7-0.1-1.4-0.3-2.1-0.5c0,0.4-0.1,0.9-0.1,1.3
		C204.2,205.9,204.7,206.4,204.9,207.3z"/>
	<path fill="#00A1BD" d="M218.8,228.5c2.6-2.6,5.4-3.9,8.3-4c-0.5-1.8-0.9-3.5-1.2-5.2c-2.7,0.2-5.2,1.3-7.4,3.5
		c-0.6,0.6-1.1,1.2-1.6,1.9c0.1,0.2,0.1,0.4,0.2,0.5c0.4,1.3,0.8,2.5,1.2,3.8C218.5,228.8,218.6,228.7,218.8,228.5z"/>
	<path fill="#1CB1BF" d="M223.6,205c1.2,0,2.1,0.8,2.7,2.4c0.2,0.6,0.4,1.2,0.5,2c0.1,0.3,0.1,0.6,0.1,1c1.3-0.8,2.5-1.5,3.7-2.2
		c0.4-0.3,0.7-0.5,1.1-0.7c0.7-0.4,1.3-0.8,1.9-1.2c5.5-3.7,10-7.4,13.5-11.1c-4,3.2-8.5,5.6-13.5,7.2c-0.8,0.3-1.6,0.5-2.4,0.7
		c-2.7,0.7-5.4,1.1-8.1,1.2C223.3,204.4,223.4,204.7,223.6,205C223.6,205,223.6,205,223.6,205z"/>
	<path fill="#ED9921" d="M357.7,257.9c-0.9,1.6-2,3.2-3,4.8c-4.9,7.3-10.6,14-17,20.1c-6.4,6-13.3,11.4-20.7,16.2
		c-7.1,4.6-14.5,8.7-22.2,12.3c-7.8,3.7-15.6,7.2-23.6,10.4c-7.8,3.2-15.7,5.7-23.9,7.7c-9,2.1-18.2,3.6-27.4,4.2
		c-4.4,0.4-8.9,0.5-13.4,0.5c-4.8-0.1-9.6-0.5-14.4-1c0.8,1.4,13.4,18.3,15.3,20.2c3.2,3.1,6.8,5.7,10.8,7.8
		c2.3,1.3,4.8,2.3,7.3,3.3c1.6,0.6,3.3,1.1,5,1.6c1,0.3,1.9,0.5,2.9,0.8c0.9,0.3,1.8,0.5,2.7,0.7c0.5,0.1,1.1,0.3,1.7,0.5
		c1.3,0.3,2.5,0.6,3.8,0.9c1.4,0.3,2.9,0.7,4.3,0.9c1.2,0.3,2.4,0.4,3.6,0.5c3.7,0.4,7.4,0.8,11.1,1.2c3.4,0.3,6.7,0.4,10,0.3
		c2.7,0,5.5-0.2,8.2-0.4c4.6-0.4,9.1-1,13.6-2c0.4-1,0.8-2,1.2-3.1c0.3,0.1,0.5,0.1,0.6,0.2c0.1,0.1,0.1,0.3,0.1,0.6
		c0,0.5-1.4,4.5-4.1,12.1c-1.3,4-2.4,7.3-3.1,9.9c-0.7,2.8-1.1,4.8-1.2,6c-0.1,2.4,0.7,5.3,2.5,8.6c1.7,3.3,4.9,8,9.4,14.1
		c4.5,6.1,8.2,9.2,10.9,9.2c2.8,0,4.6-0.8,5.7-2.3c0-1.3-0.9-2.9-2.6-4.9c-2.4-2.5-4.3-4.4-5.7-5.9c-2.5-2.6-4.4-5-5.7-7.1
		c-1.7-2.9-2.6-5.8-2.6-8.7c0-2.5,0.5-5.5,1.7-9c0.2-0.6,0.4-1.1,0.6-1.7c1-2.8,2.5-6.3,4.6-10.7c1.7-3.6,4.3-7.1,7.9-10.6
		c1.4-1.4,2.8-2.6,4.3-3.9h0c4.7-4.1,7.5-6.5,8.3-7.2c5.7-4.7,11.1-9.7,16.2-15c5.2-5.4,9.5-11.4,12.8-18.1c3.2-6.6,5.6-13.6,6.5-21
		C362.9,282.5,358.2,259.7,357.7,257.9z M302.3,354.3c-0.8,0.4-1.8,0.8-3,1.2c-3.4,1-7.4,1.6-11.9,1.6c-5.3,0-9-0.5-11-1.6
		c-0.7-0.3-1.1-0.7-1.4-1.2c-0.2-0.4-0.3-0.7-0.4-0.8c0.2-0.4,0.5-0.7,1-0.7c0.1,0,0.4,0.1,0.9,0.4c0.6,0.4,1.1,0.7,1.7,0.9
		c2.1,0.9,5.3,1.3,9.4,1.3c4.3,0,7.9-0.5,11-1.3c0.7-0.2,1.6-0.5,2.6-0.9c0.7-0.3,1.2-0.4,1.4-0.4l0.7,0.1c0,0,0,0.1,0.1,0.1
		c0.1,0,0.1,0.2,0.1,0.5C303.3,353.6,303,353.9,302.3,354.3z"/>
	<path d="M303.2,352.9l-0.7-0.1c-0.2,0-0.7,0.1-1.4,0.4c-1,0.4-1.9,0.7-2.6,0.9c-3.1,0.9-6.7,1.3-11,1.3c-4.1,0-7.2-0.5-9.4-1.3
		c-0.6-0.3-1.1-0.5-1.7-0.9c-0.4-0.3-0.7-0.4-0.9-0.4c-0.5,0-0.8,0.2-1,0.7c0.1,0.1,0.2,0.3,0.4,0.8c0.3,0.5,0.7,0.9,1.4,1.2
		c2,1.1,5.7,1.6,11,1.6c4.5,0,8.5-0.5,11.9-1.6c1.2-0.4,2.2-0.8,3-1.2c0.7-0.4,1-0.7,1-0.8C303.3,353.2,303.3,353.1,303.2,352.9
		C303.2,353,303.2,353,303.2,352.9z"/>
	
		<radialGradient id="SVGID_3_" cx="180.6153" cy="344.5734" r="159.5593" gradientTransform="matrix(1.0045 0 0 1.0009 -13.9627 -1.1479)" gradientUnits="userSpaceOnUse">
		<stop  offset="0" style="stop-color:#F8C57A"/>
		<stop  offset="1" style="stop-color:#F9A51A"/>
	</radialGradient>
	<path fill="url(#SVGID_3_)" d="M235.9,378.4c-0.7,2.8-1.1,4.8-1.2,6c-0.1,2.4,0.7,5.3,2.5,8.6c1.7,3.3,4.9,8,9.4,14.1
		c4.5,6.1,8.2,9.2,10.9,9.2c2.8,0,4.6-0.8,5.7-2.3c0-1.3-0.9-2.9-2.6-4.9c-2.4-2.5-4.3-4.4-5.7-5.9c-2.5-2.6-4.4-5-5.7-7.1
		c-1.7-2.9-2.6-5.8-2.6-8.7c0-2.5,0.5-5.5,1.7-9c0.2-0.6,0.4-1.1,0.6-1.7c0.5-1.4,1.1-3,1.9-4.8c-4.1-0.6-8.2-1.3-12.3-2.2
		C237.4,373.2,236.5,376.1,235.9,378.4z"/>
	<path fill="#8D7E30" d="M257.6,417.9c-0.8,0-1.7-0.3-2.8-1c-0.8,0.4-1.5,0.8-2.3,1.2c-1.3,0.7-2.6,1.4-3.6,2
		c-1.1,0.6-2,1.1-2.8,1.6c-0.2,0.1-0.3,0.2-0.5,0.3c-8.8,5.4-13.3,10.3-13.3,14.8c0,0.6,0.1,1.4,0.5,2.2c0.4,1,0.9,2,1.6,2.9
		c0.6,0.7,2.5,1.1,5.8,1.1c2.7-0.1,5.1-0.7,7.2-1.8c2.1-1.1,4.2-2.4,6.4-3.9c2.2-1.5,4.4-3.4,6.8-5.8c2.3-2.4,4.3-4.9,6-7.7
		c0.9-1.5,1.4-3.2,1.3-5c0-0.6-0.1-1.1-0.4-1.6c-0.7-1.6-1.6-2.8-2.9-3.7c-0.1,1.3-0.7,2.3-2.1,3.1
		C261.2,417.5,259.5,417.9,257.6,417.9z M254.9,426.2c-0.1,0.1-0.3,0.2-0.6,0.2c-1.1,0-2.6-0.4-4.6-1.1c-1.7-0.6-2.9-1.1-3.7-1.5
		c0,0.2-0.1,0-0.1-0.4c0-0.3,0.1-0.5,0.1-0.6c0.1,0,0.3-0.1,0.7-0.1c0.7,0,2,0.3,4.1,0.8c0.1,0,0.1,0.1,0.2,0.1
		c0.5,0.1,1,0.3,1.4,0.5c1.5,0.5,2.4,1,2.8,1.5C255.2,425.7,255,425.9,254.9,426.2z M257.2,423.7c-0.1,0.1-0.3,0.2-0.6,0.2
		c-1,0-2.2-0.2-3.9-0.6c-0.5-0.1-1-0.3-1.4-0.4c-1.3-0.4-2.1-0.9-2.5-1.5c0.1-0.3,0.3-0.5,0.5-0.6c0.1-0.1,0.3-0.2,0.4-0.2
		c0.7,0,1.9,0.2,3.6,0.6c0.6,0.1,1.1,0.3,1.6,0.4c1.4,0.5,2.3,1,2.8,1.6C257.4,423.2,257.3,423.4,257.2,423.7z M259.1,421.3
		c-0.1,0-0.5,0.1-1,0.1c-0.9,0-2-0.2-3.2-0.6c-0.1-0.1-0.3-0.1-0.4-0.1c-1.1-0.4-1.8-0.8-2.1-1c0,0.2-0.1,0-0.1-0.4
		c0-0.3,0.1-0.5,0.3-0.6c0.1,0,0.4,0,0.9,0c0.8,0,1.8,0.1,3.1,0.5c1.4,0.4,2.3,0.8,2.8,1.3l0.1-0.1c0.1,0,0.1,0.1,0.1,0.4
		C259.6,420.9,259.4,421.2,259.1,421.3z"/>
	<path d="M254.7,421.5c-0.5-0.1-1-0.3-1.6-0.4c-1.6-0.4-2.8-0.6-3.6-0.6c-0.1,0-0.3,0.1-0.4,0.2c-0.1,0.1-0.3,0.3-0.5,0.6
		c0.4,0.6,1.2,1.1,2.5,1.5c0.4,0.1,0.9,0.3,1.4,0.4c1.6,0.4,2.9,0.6,3.9,0.6c0.3,0,0.5-0.1,0.6-0.2c0.1-0.3,0.3-0.5,0.4-0.7
		C257.1,422.4,256.1,421.9,254.7,421.5z"/>
	<path d="M259.5,420.2l-0.1,0.1c-0.5-0.5-1.4-0.9-2.8-1.3c-1.2-0.3-2.2-0.5-3.1-0.5c-0.5,0-0.7,0-0.9,0c-0.2,0.1-0.3,0.3-0.3,0.6
		c0,0.5,0,0.6,0.1,0.4c0.3,0.3,1,0.6,2.1,1c0.1,0.1,0.2,0.1,0.4,0.1c1.2,0.4,2.2,0.6,3.2,0.6c0.5,0,0.9,0,1-0.1
		c0.3-0.1,0.4-0.3,0.4-0.7C259.6,420.3,259.5,420.1,259.5,420.2z"/>
	<path d="M252.5,424.1c-0.4-0.2-0.9-0.3-1.4-0.5c-0.1,0-0.1,0-0.2-0.1c-2-0.5-3.4-0.8-4.1-0.8c-0.4,0-0.6,0-0.7,0.1
		c-0.1,0.1-0.1,0.3-0.1,0.6c0,0.5,0,0.6,0.1,0.4c0.8,0.4,2,0.9,3.7,1.5c2,0.7,3.6,1.1,4.6,1.1c0.3,0,0.5-0.1,0.6-0.2
		c0.1-0.3,0.3-0.5,0.4-0.6C254.9,425,253.9,424.5,252.5,424.1z"/>
	<path fill="#8D7E30" d="M308.7,428.6c-0.8,0-1.7-0.3-2.8-1c-0.8,0.4-1.5,0.8-2.3,1.2c-1.3,0.7-2.6,1.4-3.6,2
		c-1.1,0.6-2,1.1-2.8,1.6c-0.2,0.1-0.3,0.2-0.5,0.3c-8.8,5.4-13.3,10.3-13.3,14.8c0,0.6,0.1,1.4,0.5,2.2c0.4,1,0.9,2,1.6,2.9
		c0.6,0.7,2.5,1.1,5.8,1.1c2.7-0.1,5.1-0.7,7.2-1.8c2.1-1.1,4.2-2.4,6.4-3.9c2.2-1.5,4.4-3.4,6.8-5.8c2.3-2.4,4.3-4.9,6-7.7
		c0.9-1.5,1.4-3.2,1.3-5c0-0.6-0.1-1.1-0.4-1.6c-0.7-1.6-1.6-2.8-2.9-3.7c-0.1,1.3-0.7,2.3-2.1,3.1
		C312.3,428.3,310.7,428.6,308.7,428.6z M306,436.9c-0.1,0.1-0.3,0.2-0.6,0.2c-1.1,0-2.6-0.4-4.6-1.1c-1.7-0.6-2.9-1.1-3.7-1.5
		c0,0.2-0.1,0-0.1-0.4c0-0.3,0.1-0.5,0.1-0.6c0.1,0,0.3-0.1,0.7-0.1c0.7,0,2,0.3,4.1,0.8c0.1,0,0.1,0.1,0.2,0.1
		c0.5,0.1,1,0.3,1.4,0.5c1.5,0.5,2.4,1,2.8,1.5C306.3,436.5,306.2,436.7,306,436.9z M308.3,434.4c-0.1,0.1-0.3,0.2-0.6,0.2
		c-1,0-2.2-0.2-3.9-0.6c-0.5-0.1-1-0.3-1.4-0.4c-1.3-0.4-2.1-0.9-2.5-1.5c0.1-0.3,0.3-0.5,0.5-0.6c0.1-0.1,0.3-0.2,0.4-0.2
		c0.7,0,1.9,0.2,3.6,0.6c0.6,0.1,1.1,0.3,1.6,0.4c1.4,0.5,2.3,1,2.8,1.6C308.6,434,308.5,434.2,308.3,434.4z M310.3,432
		c-0.1,0-0.5,0.1-1,0.1c-0.9,0-2-0.2-3.2-0.6c-0.1-0.1-0.3-0.1-0.4-0.1c-1.1-0.4-1.8-0.8-2.1-1c0,0.2-0.1,0-0.1-0.4
		c0-0.3,0.1-0.5,0.3-0.6c0.1,0,0.4-0.1,0.9-0.1c0.8,0,1.8,0.2,3.1,0.5c1.4,0.4,2.3,0.8,2.8,1.3l0.1-0.1c0.1,0,0.1,0.1,0.1,0.4
		C310.7,431.7,310.6,431.9,310.3,432z"/>
	<path d="M305.9,432.2c-0.5-0.1-1-0.3-1.6-0.4c-1.6-0.4-2.8-0.6-3.6-0.6c-0.1,0-0.3,0.1-0.4,0.2c-0.1,0.1-0.3,0.3-0.5,0.6
		c0.4,0.6,1.2,1.1,2.5,1.5c0.4,0.1,0.9,0.3,1.4,0.4c1.6,0.4,2.9,0.6,3.9,0.6c0.3,0,0.5-0.1,0.6-0.2c0.1-0.3,0.3-0.5,0.4-0.7
		C308.2,433.2,307.3,432.7,305.9,432.2z"/>
	<path d="M310.6,430.9l-0.1,0.1c-0.5-0.5-1.4-0.9-2.8-1.3c-1.2-0.3-2.2-0.5-3.1-0.5c-0.5,0-0.7,0-0.9,0.1c-0.2,0.1-0.3,0.3-0.3,0.6
		c0,0.5,0,0.6,0.1,0.4c0.3,0.3,1,0.6,2.1,1c0.1,0.1,0.2,0.1,0.4,0.1c1.2,0.4,2.2,0.6,3.2,0.6c0.5,0,0.9,0,1-0.1
		c0.3-0.1,0.4-0.3,0.4-0.7C310.7,431,310.7,430.9,310.6,430.9z"/>
	<path d="M303.6,434.8c-0.4-0.2-0.9-0.3-1.4-0.5c-0.1,0-0.1,0-0.2-0.1c-2-0.5-3.4-0.8-4.1-0.8c-0.4,0-0.6,0-0.7,0.1
		c-0.1,0.1-0.1,0.3-0.1,0.6c0,0.5,0,0.6,0.1,0.4c0.8,0.4,2,0.9,3.7,1.5c2,0.7,3.6,1.1,4.6,1.1c0.3,0,0.5-0.1,0.6-0.2
		c0.1-0.3,0.3-0.5,0.4-0.6C306,435.8,305.1,435.3,303.6,434.8z"/>
	
		<radialGradient id="SVGID_4_" cx="162.7947" cy="154.4851" r="121.3578" gradientTransform="matrix(1.0045 0 0 1.0009 -13.9627 -1.1479)" gradientUnits="userSpaceOnUse">
		<stop  offset="0" style="stop-color:#F7DFC6"/>
		<stop  offset="1" style="stop-color:#FDCF9D"/>
	</radialGradient>
	<path fill="url(#SVGID_4_)" d="M176.4,121.8c-1.1,5-1.9,10.2-2.2,15.3c-0.1,1.5-0.2,2.9-0.2,4.4c-0.1,2.5,0,4.9,0.1,7.4
		c0.3,4.6,0.8,9.1,1.6,13.6c0,0.1,0,0.2,0.1,0.3c0.2,1,0.4,1.9,0.6,2.9c0.4,1.7,0.8,3.5,1.2,5.2c0.2,0.7,0.4,1.3,0.5,2
		c1.4-0.2,2.8-0.3,4.1-0.4c0-0.5,0-1,0-1.4c0-0.1,0-0.1,0-0.1c0-3.1,0.5-5.8,1.4-8.1c0.1-0.1,0.1-0.2,0.1-0.3c1.3-2.9,3.2-5.2,6-6.9
		c5.1-3.1,11.1-4.6,18.3-4.5c7.1,0.1,13.2,2.3,18.3,6.5c1.8,1.5,3.3,3.1,4.5,4.9c0.1,0.1,0.2,0.2,0.2,0.3c1.9,3,2.9,6.3,2.9,10
		c0,1-0.1,2.1-0.3,3.1c-0.7,4.6-3.2,8.7-7.3,12.1c-0.4,0.4-0.9,0.7-1.3,1c-4.8,3.5-10.5,5.3-17,5.3c-3.1,0-5.9-0.4-8.6-1.2
		c0,0,0,0,0,0s0,0-0.1,0c-2.2,0.7-4.7,1.8-7.5,3.5c1.2,1,2.4,1.9,3.8,2.7c2.4-1.9,4.1-2.9,5.3-2.9c0.8,0,1.3,0.5,1.4,1.3
		c0,0.9,0,1.4,0,1.4c0,0.1,0,0.2,0,0.3c0,0.6-0.1,1.1-0.3,1.6c0.1,0,0.3-0.1,0.4-0.1c0.7,0,1.1,0.7,1.1,2c1.3,0.4,2.6,0.7,4,0.8
		c-0.4-1.2-0.6-2.1-0.6-2.8c0-0.6,0-1,0.1-1c0.1-0.2,0.3-0.4,0.7-0.5c0.3-0.1,0.7-0.1,1.1-0.1c0.2,0,0.5,0.1,0.7,0.1
		c0.6,0.2,1.3,0.7,2,1.4c0.4-0.7,1.4-1,2.9-1c0.6,0,1.3,0.2,1.9,0.7c0.1-0.2,0.3-0.3,0.6-0.5c0.5-0.3,1.1-0.5,1.6-0.5
		c1.6,0,3,1.2,4.2,3.5c1.2-0.2,2.4-0.4,3.7-0.7c1.7-0.3,3.5-0.7,5.2-1.2c0.8-0.2,1.5-0.4,2.2-0.7c0.5-0.2,0.9-0.3,1.3-0.5
		c0.6-0.2,1.2-0.5,1.8-0.7c0.8-0.3,1.6-0.7,2.4-1.1c0.5-0.3,1.1-0.6,1.6-0.9c1.9-1,3.7-2.3,5.4-3.6c1.8-1.4,3.5-3,5-4.6
		c1.5-1.7,2.9-3.5,4.2-5.4c1.2-1.8,2.3-3.7,3.4-5.5c0.9-1.6,1.6-3.1,2.3-4.7c0.9-2.1,1.6-4.2,2.3-6.4c0.9-3.4,1.6-6.9,2-10.4
		c-4.3-0.8-7.7-4.9-10.3-12.2c-0.3-1-0.7-2-0.9-3.1c-0.5-1.8-0.9-3.7-1.3-5.7c-0.3-2-0.5-3.3-0.6-4.1c-0.3,0-0.6,0.1-0.9,0.1
		c-1.2,0-2-0.3-2.5-0.9c-0.2-0.3-0.5-0.8-0.6-1.5c0,0,0,0,0.1,0c0.4,0.6,1.1,0.9,2.1,0.9c0.6,0,1,0,1.1-0.1c0.1,0,0.1-0.1,0.1-0.1
		c1.6-0.1,2.7-1,3.4-2.5c0.4-0.9,0.5-1.8,0.6-2.7c0-1.5-0.1-2.6-0.3-3.3c-0.5-1.9-1.6-2.8-3.3-2.8c-2.2,0-3.6,1.4-4.3,4.2
		c-0.2,0.9-0.3,1.9-0.4,2.9c0,1,0,1.4,0,1.5c0,0.2,0,0.4,0,0.6l-0.3,0c0,0.1,0,0.2,0,0.3c-0.8,0.1-1.7,0.1-2.7,0.2
		c-1.2,0.1-2.3,0.1-3.3,0.2h0c0-0.1,0-0.1,0-0.2c-0.1,0-0.2,0-0.3,0c0-0.8,0-1.3,0-1.6c0-6.5-0.5-11.6-1.4-15
		c-1.2-4.5-3.1-6.7-5.9-6.7c-0.9,0-2.3,0.3-4,0.8c-1.7,0.5-2.8,0.8-3.4,0.8c-2.1,0-3.5-0.4-4.2-1.2c-0.3-0.3-0.4-0.8-0.4-1.4
		c0-0.5,0.6-1.8,1.7-3.9c0-0.5-0.6-0.7-1.9-0.7c-1.6,0-3.4,0.5-5.6,1.3c-1.5,0.6-3.5,1.6-6.1,3c-2.9,1.6-4.8,2.5-5.8,3
		c-2,0.9-3.6,1.4-4.7,1.4c-1.3,0-2.3-0.5-3-1.4c-0.3-0.5-0.5-1-0.6-1.5c0-0.5,0.2-1.2,0.6-2c0.4-0.7,0.8-1.4,1.2-2
		c0-0.1-0.9-0.2-2.7-0.2c-2.1,0.7-4.2,1.4-6.1,2c-2.3,0.7-4.4,1.1-6.2,1.4C181.3,106.7,178.5,111.6,176.4,121.8 M249,125.7
		c0-0.6,0.2-1.3,0.5-2c0.5-1.1,1.2-1.7,2.1-1.8l1,0.1c0.1-0.1,0.1,0.1,0.1,0.5c0,0.3-0.1,0.6-0.5,0.7c-0.6,0.2-0.9,0.3-1.1,0.4
		l-0.2,0.7c1-0.1,1.6,0.1,1.9,0.5c0.1,0.2,0.2,0.5,0.1,0.7c0,0.6-0.2,1.2-0.6,1.6c-0.4,0.5-0.9,0.7-1.6,0.7c-1.1,0-1.7-0.3-1.9-1
		C248.9,126.4,248.9,126.1,249,125.7z M240.9,133.2c1.6-0.1,3.5-0.1,5.7-0.2c0,0,0.1-0.1,0.3-0.1c0,0.4,0,0.8,0,1.2
		c-0.8,0.1-1.7,0.1-2.7,0.2c-1.2,0.1-2.4,0.1-3.4,0.2c0-0.2,0-0.4,0-0.6C241,133.6,241,133.4,240.9,133.2z M247.1,135.7
		c0.1,0.4,0.1,0.8,0.1,1.2c-0.9,0-1.8,0.1-2.9,0.2c-1.2,0.1-2.3,0.1-3.3,0.2c0-0.4,0-0.8,0-1.2c1.6-0.1,3.5-0.1,5.7-0.2
		C246.6,135.8,246.8,135.7,247.1,135.7z M240.9,130.4c1.6-0.1,3.6-0.1,5.8-0.2c0,0,0.1-0.1,0.3-0.1c0,0.4,0,0.8,0,1.2
		c-0.8,0.1-1.7,0.1-2.7,0.2c-1.3,0.1-2.5,0.1-3.6,0.2C240.8,131.2,240.8,130.8,240.9,130.4z M220.8,109.7c0.5,0.6,0.9,1.2,1.2,1.9
		c0.1,0.2,0.1,0.3,0.2,0.5c0.5,1.2,0.7,2.6,0.5,4.1c0,0,0,0.1,0,0.1c-0.3,2.5-1.4,4.5-3.3,6c-1.9,1.6-4.1,2.2-6.6,2
		c-1.5-0.2-2.8-0.6-4-1.4c-0.8-0.5-1.4-1.1-2-1.9c-1.6-1.9-2.2-4.1-2-6.6c0.2-2.5,1.3-4.5,3.3-6.1c1.9-1.6,4.1-2.2,6.6-2
		C217.3,106.7,219.3,107.8,220.8,109.7z M198.4,117.6l0.6,0.3c-1.9,3.8-3.4,7-4.6,9.7c-1.2,2.7-2.2,5.4-3,8.3c-0.6,2.1-1,4-1.2,5.6
		c-0.1,0.5-0.1,1-0.1,1.5c2.2-0.1,4.2-0.7,6.2-1.5c0.6-0.3,1.2-0.6,1.8-0.9c0.3-0.2,0.7-0.4,1-0.6l0.7,0.3l0,0.7
		c-0.2,0.2-0.5,0.4-0.7,0.6c-2.4,1.9-5.1,2.9-8.2,2.9c-0.6,0-1.1-0.1-1.6-0.3c-0.4-0.7-0.5-1.6-0.4-2.6c0-0.1,0-0.2,0-0.4
		c0.2-1.2,0.5-2.5,0.8-3.9c0.4-1.4,0.9-3.2,1.7-5.3C193.2,126.9,195.5,122.1,198.4,117.6z"/>
	<path d="M208.2,108.4c-1.9,1.6-3,3.6-3.3,6.1c-0.3,2.5,0.4,4.6,2,6.6c0.6,0.8,1.3,1.4,2,1.9c1.2,0.8,2.5,1.2,4,1.4
		c2.5,0.3,4.7-0.4,6.6-2c1.9-1.6,3-3.6,3.3-6c0-0.1,0-0.1,0-0.1c0.1-1.5-0.1-2.9-0.5-4.1c-0.1-0.2-0.1-0.3-0.2-0.5
		c-0.3-0.7-0.7-1.3-1.2-1.9c-1.6-1.9-3.6-3-6.1-3.3C212.3,106.2,210.1,106.9,208.2,108.4z M220.2,110.2c0.6,0.7,1.1,1.5,1.4,2.4
		c0.2,0.7,0.4,1.4,0.4,2.1c0,0.3,0,0.7,0,1c0,0.1,0,0.3,0,0.4c-0.1,1.3-0.5,2.4-1.1,3.4c-0.5,0.8-1.1,1.5-1.9,2.1
		c-1.8,1.4-3.8,2-6,1.8c-1.3-0.1-2.4-0.5-3.5-1.1c-0.8-0.5-1.4-1.1-2.1-1.8c-1.4-1.8-2-3.8-1.8-6c0.2-2.3,1.2-4.1,3-5.5
		c1.7-1.4,3.8-2,6-1.8C217,107.5,218.8,108.5,220.2,110.2z"/>
	<path fill="#FFFFFF" d="M208.7,109c-1.8,1.4-2.8,3.3-3,5.5c-0.2,2.2,0.4,4.2,1.8,6c0.6,0.7,1.3,1.4,2.1,1.8c1,0.6,2.2,1,3.5,1.1
		c2.2,0.2,4.3-0.4,6-1.8c0.8-0.6,1.4-1.3,1.9-2.1c0.6-1,1-2.1,1.1-3.4c0-0.1,0-0.3,0-0.4c0-0.3,0-0.7,0-1c0-0.7-0.2-1.4-0.4-2.1
		c-0.3-0.8-0.8-1.6-1.4-2.4c-1.4-1.8-3.3-2.7-5.5-3C212.5,107,210.4,107.6,208.7,109z M213.5,122c-0.4,0.3-0.7,0.4-1.1,0.2
		c-0.2-0.1-0.4-0.2-0.5-0.4c-0.5-0.6-0.4-1.1,0.2-1.6c0.1-0.1,0.3-0.2,0.4-0.2c-0.3,0.2-0.3,0.4-0.1,0.7c0.1,0.1,0.1,0.1,0.2,0.2
		c0.2,0.1,0.3,0,0.5-0.1c0.2-0.2,0.2-0.4,0.1-0.7c-0.1-0.1-0.1-0.1-0.2-0.1c0.2,0,0.5,0.2,0.7,0.5c0.2,0.2,0.3,0.4,0.3,0.7
		C214,121.5,213.8,121.8,213.5,122z"/>
	<path d="M213,120c0.1,0,0.1,0.1,0.2,0.1c0.2,0.3,0.2,0.5-0.1,0.7c-0.2,0.1-0.3,0.1-0.5,0.1c-0.1,0-0.1-0.1-0.2-0.2
		c-0.2-0.2-0.2-0.5,0.1-0.7c-0.1,0-0.3,0.1-0.4,0.2c-0.6,0.5-0.7,1-0.2,1.6c0.1,0.2,0.3,0.3,0.5,0.4c0.4,0.2,0.7,0.1,1.1-0.2
		c0.3-0.2,0.4-0.5,0.4-0.8c0-0.3-0.1-0.5-0.3-0.7C213.5,120.1,213.2,120,213,120z"/>
	<path d="M181.6,119.3c-1.1-1.3-1.5-2.7-1.3-4.2c0.2-1.5,0.8-2.7,2-3.7c1.1-1,2.5-1.4,4-1.2c1.5,0.2,2.8,0.9,3.8,2.2
		c1.1,1.3,1.5,2.7,1.4,4.3c0,0.1,0,0.1,0,0.2c-0.1,1.5-0.8,2.7-1.9,3.6c-1.1,0.9-2.4,1.3-3.9,1.1c-0.1,0-0.1,0-0.2,0
		C183.9,121.3,182.6,120.6,181.6,119.3z"/>
	<path d="M185.7,122.2c1.6,0.2,3.1-0.2,4.3-1.2c1.3-1,2-2.4,2.1-4c0-0.1,0-0.2,0-0.2c0.1-1.8-0.4-3.3-1.6-4.8
		c-1.1-1.5-2.6-2.2-4.3-2.5c-1.7-0.2-3.2,0.3-4.5,1.4c-1.3,1.1-2,2.5-2.2,4.1c-0.2,1.7,0.3,3.2,1.5,4.6c1.1,1.4,2.6,2.2,4.4,2.5
		C185.5,122.2,185.6,122.2,185.7,122.2z"/>
	<path fill="#FFFFFF" d="M185.7,121.6c1.5,0.2,2.8-0.2,3.9-1.1c1.1-0.9,1.8-2.1,1.9-3.6c0-0.1,0-0.1,0-0.2c0.1-1.6-0.4-3-1.4-4.3
		c-1-1.3-2.3-2-3.8-2.2c-1.5-0.2-2.9,0.3-4,1.2c-1.2,1-1.8,2.2-2,3.7c-0.1,1.5,0.3,2.9,1.3,4.2c1,1.3,2.3,2,3.9,2.3
		C185.5,121.6,185.6,121.6,185.7,121.6z M185.6,118.6c0.2-0.1,0.4-0.3,0.6-0.3c-0.1,0-0.1,0-0.1,0.1c-0.2,0.2-0.3,0.4-0.1,0.6
		c0.1,0.1,0.1,0.1,0.2,0.1c0.1,0.1,0.3,0,0.4-0.1c0.2-0.2,0.2-0.4,0.1-0.6c0-0.1-0.1-0.1-0.1-0.1c0.2,0.1,0.3,0.2,0.5,0.4
		c0.2,0.2,0.2,0.4,0.2,0.7c0,0.3-0.1,0.6-0.4,0.8c-0.3,0.3-0.7,0.3-1,0.2c-0.2-0.1-0.3-0.2-0.5-0.3C185,119.5,185.1,119,185.6,118.6
		z"/>
	<path d="M185.9,120.4c0.3,0.1,0.7,0.1,1-0.2c0.3-0.2,0.4-0.5,0.4-0.8c0-0.3-0.1-0.5-0.2-0.7c-0.2-0.2-0.3-0.3-0.5-0.4
		c0.1,0,0.1,0.1,0.1,0.1c0.2,0.2,0.2,0.4-0.1,0.6c-0.1,0.1-0.3,0.1-0.4,0.1c-0.1,0-0.1-0.1-0.2-0.1c-0.2-0.2-0.1-0.4,0.1-0.6
		c0,0,0.1-0.1,0.1-0.1c-0.2,0-0.4,0.1-0.6,0.3c-0.5,0.5-0.6,0.9-0.1,1.5C185.6,120.2,185.7,120.3,185.9,120.4z"/>
	<path d="M189.5,137.2c-0.3,1.4-0.6,2.7-0.8,3.9c0,0.1,0,0.3,0,0.4c-0.1,1,0,1.9,0.4,2.6c0.5,0.2,1,0.3,1.6,0.3c3.1,0,5.8-1,8.2-2.9
		c0.2-0.2,0.5-0.4,0.7-0.6l0-0.7l-0.7-0.3c-0.3,0.2-0.7,0.4-1,0.6c-0.6,0.3-1.2,0.6-1.8,0.9c-1.9,0.8-4,1.4-6.2,1.5
		c0-0.5,0.1-1,0.1-1.5c0.2-1.6,0.6-3.5,1.2-5.6c0.9-2.9,1.8-5.6,3-8.3c1.2-2.7,2.7-5.9,4.6-9.7l-0.6-0.3c-2.8,4.5-5.2,9.3-7.1,14.3
		C190.5,134,189.9,135.7,189.5,137.2z"/>
	<path d="M250.9,127.8c0.6,0,1.1-0.3,1.6-0.7c0.4-0.5,0.6-1,0.6-1.6c0.1-0.3,0-0.5-0.1-0.7c-0.3-0.4-0.9-0.6-1.9-0.5l0.2-0.7
		c0.1-0.1,0.5-0.2,1.1-0.4c0.3-0.1,0.5-0.3,0.5-0.7c0-0.5-0.1-0.7-0.1-0.5l-1-0.1c-0.9,0.1-1.6,0.8-2.1,1.8c-0.3,0.7-0.5,1.4-0.5,2
		c-0.1,0.4-0.1,0.7,0,1C249.2,127.4,249.8,127.8,250.9,127.8z M251.3,125.8l-0.3,0.4l-0.5-0.2c0-0.1-0.1-0.2-0.1-0.3L251.3,125.8z"
		/>
	
		<radialGradient id="SVGID_5_" cx="162.8624" cy="154.4921" r="121.2838" gradientTransform="matrix(1.0045 0 0 1.0009 -13.9627 -1.1479)" gradientUnits="userSpaceOnUse">
		<stop  offset="0" style="stop-color:#F7DFC6"/>
		<stop  offset="1" style="stop-color:#FDCF9D"/>
	</radialGradient>
	<path fill="url(#SVGID_5_)" d="M251,126.2l0.3-0.4l-0.9-0.1c0,0.1,0,0.1,0.1,0.3L251,126.2z"/>
	<path d="M247,131.2c0-0.4,0-0.8,0-1.2c-0.2,0-0.3,0.1-0.3,0.1c-2.2,0.1-4.1,0.2-5.8,0.2c0,0.4-0.1,0.8-0.1,1.2
		c1.1-0.1,2.2-0.2,3.6-0.2C245.3,131.4,246.2,131.3,247,131.2z"/>
	<path d="M244.3,134.2c1-0.1,1.8-0.1,2.7-0.2c0-0.4,0-0.8,0-1.2c-0.2,0-0.3,0.1-0.3,0.1c-2.2,0.1-4.1,0.2-5.7,0.2
		c0.1,0.2,0.1,0.4,0.1,0.7c0,0.2,0,0.4,0,0.6C241.9,134.4,243.1,134.3,244.3,134.2z"/>
	<path d="M246.6,135.8c-2.2,0.1-4.1,0.1-5.7,0.2c0,0.4,0,0.8,0,1.2c1-0.1,2.1-0.1,3.3-0.2c1.1-0.1,2-0.1,2.9-0.2
		c-0.1-0.4-0.1-0.8-0.1-1.2C246.8,135.7,246.6,135.8,246.6,135.8z"/>
	<path fill="#571809" d="M232.5,170.9c-0.3-2.8-1.2-5.4-2.8-7.7c-0.4-0.2-0.7-0.3-1.1-0.5c-0.3-0.1-0.6-0.2-1-0.3
		c-1.1-0.4-2.3-0.8-3.6-1.1c-5.3-1.5-10.6-2.5-15.7-3.1c-5.1-0.6-9.1-0.9-12-0.8c-1.1,0-1.9,0.1-2.3,0.1c-2.4,0.3-4.1,0.5-5,0.7
		c-1.6,1.3-2.9,2.7-3.8,4.3c-0.1,0.1-0.1,0.2-0.2,0.3c-1.3,2.3-1.9,5.1-1.8,8.1c0,0.3,0,0.5,0,0.8c0,0.2,0.1,0.5,0.1,0.7
		c6.5-0.5,13-0.2,19.5,0.9c9.3,1.6,18.2,4.6,26.5,9.2c0.1,0.1,0.2,0.1,0.4,0.2c2.1-2.9,3.1-6.3,3.1-9.9
		C232.6,172.1,232.5,171.5,232.5,170.9z M225.6,169c-0.3,0.7-0.7,1.3-1.1,1.9c-1.3,1.8-3.1,2.7-5.5,3c-0.5,0-1.1,0-1.6-0.1
		c-1.9-0.3-3.2-1.3-4-2.9c-0.3-0.5-0.5-1.1-0.6-1.7c-0.1-0.6-0.2-1.1-0.1-1.7c0.1-2,1.1-3.1,3-3.4c1.7-0.3,2.7,0.3,3.1,1.9
		c-0.5,0.6-0.7,1.2-0.5,2c0.4,0.2,0.8,0.2,1.1-0.1c0.5-0.4,0.8-0.9,0.7-1.7c0-1.2,0.6-1.8,1.8-1.9c2.3,0,3.6,1.1,3.9,3.3
		C225.8,168.1,225.8,168.6,225.6,169z"/>
	<path d="M221.8,164.3c-1.2,0.1-1.8,0.7-1.8,1.9c0,0.8-0.2,1.3-0.7,1.7c-0.4,0.3-0.8,0.3-1.1,0.1c-0.2-0.7,0-1.4,0.5-2
		c-0.3-1.6-1.4-2.2-3.1-1.9c-1.9,0.3-2.9,1.4-3,3.4c0,0.6,0,1.1,0.1,1.7c0.1,0.6,0.3,1.2,0.6,1.7c0.8,1.6,2.1,2.5,4,2.9
		c0.6,0.1,1.1,0.1,1.6,0.1c2.4-0.3,4.3-1.2,5.5-3c0.4-0.5,0.7-1.2,1.1-1.9c0.2-0.5,0.3-0.9,0.2-1.4
		C225.4,165.4,224.1,164.3,221.8,164.3z M224,169.2c-0.4,0.7-0.9,1.2-1.4,1.7c-1.5,1.2-3.3,1.6-5.5,1.2c-0.8-0.1-1.5-0.5-2-1.2
		c0,0,0,0-0.1-0.1c-0.9-1.2-1.2-2.5-0.8-3.8c0.4-1.2,1.2-1.6,2.3-1.4c0.2,0.1,0.4,0.1,0.6,0.3c-0.7,1.2-0.7,2.2-0.1,2.8
		c0.6,0.6,1.3,0.9,2.2,0.8c0.8-0.1,1.3-0.3,1.6-0.7c0.2-0.4,0.4-0.8,0.6-1.2c0.1-0.5,0.2-1,0.2-1.6l1.4-0.3c0.9,0.8,1.4,1.8,1.3,2.9
		C224.2,168.9,224.1,169,224,169.2z"/>
	<path fill="#7D2317" d="M221.5,166c0,0.7,0,1.2-0.2,1.6c-0.1,0.4-0.3,0.8-0.6,1.2c-0.3,0.4-0.8,0.6-1.6,0.7
		c-0.9,0.1-1.6-0.2-2.2-0.8c-0.7-0.6-0.6-1.6,0.1-2.8c-0.2-0.1-0.3-0.2-0.6-0.3c-1.2-0.3-1.9,0.2-2.3,1.4c-0.4,1.3-0.1,2.5,0.8,3.8
		c0,0,0.1,0.1,0.1,0.1c0.5,0.7,1.2,1.1,2,1.2c2.2,0.4,4,0,5.5-1.2c0.5-0.5,1-1,1.4-1.7c0.1-0.2,0.2-0.3,0.2-0.5
		c0.1-1.1-0.4-2.1-1.3-2.9L221.5,166z"/>
	<path d="M225.1,189c0.4-0.3,0.9-0.7,1.3-1c4.1-3.5,6.6-7.5,7.3-12.1c0.2-1,0.3-2,0.3-3.1c0-3.7-1-7-2.9-10
		c-0.1-0.1-0.1-0.2-0.2-0.3c-1.2-1.7-2.6-3.3-4.5-4.9c-5-4.2-11.1-6.4-18.3-6.5c-7.2-0.1-13.2,1.4-18.3,4.5c-2.7,1.7-4.7,4-6,6.9
		c-0.1,0.1-0.1,0.2-0.1,0.3c-1,2.3-1.4,5-1.4,8.1c0,0,0,0.1,0,0.1c0,0.5,0,1,0,1.4l0.8-0.1c0-0.2,0-0.5-0.1-0.7c0-0.3,0-0.5,0-0.8
		c-0.1-3.1,0.5-5.8,1.8-8.1c0.1-0.1,0.1-0.2,0.2-0.3c0.9-1.6,2.2-3.1,3.8-4.3c1-0.2,2.6-0.4,5-0.7c0.4,0,1.2,0,2.3-0.1
		c2.9-0.1,6.9,0.2,12,0.8c5.1,0.6,10.4,1.7,15.7,3.1c1.3,0.4,2.5,0.7,3.6,1.1c0.3,0.1,0.7,0.2,1,0.3c0.4,0.1,0.8,0.3,1.1,0.5
		c1.6,2.3,2.5,4.9,2.8,7.7c0.1,0.6,0.1,1.2,0.1,1.9c0,3.6-1.1,6.9-3.1,9.9l-0.8,1c-0.5,0.6-1,1.2-1.6,1.8c-2.8-4-6.7-6.2-11.8-6.6
		c-3.9-0.4-7.7,0.1-11.3,1.4c-1.1-1.1-2.5-1.7-4-1.9c-1.2-0.1-2.4-0.1-3.6-0.1c-3.7,0.1-6.9,1.2-9.7,3.5c0.5,0.2,1.1,0.3,1.7,0.5
		c0.1-0.1,0.1-0.1,0.2-0.2c1.9-1.4,4.1-2.1,6.7-2.2c1.7-0.1,3.4-0.1,5.1,0.3c0.7,0.1,1.3,0.5,1.8,0.9c-1.5,0.8-2.4,2-2.8,3.3
		c2.1-1.9,4.3-3.1,6.8-3.6c4.8-1,9.5-0.7,14.1,0.9c1.5,0.5,2.8,1.4,3.9,2.5c0.7,0.7,1.3,1.4,1.8,2.3c-0.2,0.1-0.4,0.3-0.6,0.5
		c-1,0.8-2,1.5-3,2.2c-4.1,2.5-8.9,3.7-14.2,3.7c-2.1,0-4-0.2-5.9-0.5l-2.7,0.9c2.7,0.8,5.5,1.2,8.6,1.2
		C214.6,194.3,220.3,192.5,225.1,189z M194.8,156.2c-1.4,0.1-2.8,0.3-4,0.5c1.5-0.9,3-1.7,4.6-2.3C195.2,155,195,155.6,194.8,156.2z
		 M200.2,156.1c-1.4,0-2.7,0-4,0.1c0.3-0.8,0.5-1.6,0.7-2.2c1.4-0.5,2.9-0.8,4.4-1C201,153.7,200.6,154.8,200.2,156.1z M205.8,156.5
		c-1.4-0.2-2.8-0.3-4.1-0.3c0.4-1.4,0.8-2.6,1-3.5c1.4-0.1,2.9-0.2,4.5-0.2C206.8,153.5,206.3,154.9,205.8,156.5z M207.2,156.6
		c0.5-1.8,1-3.1,1.3-4.1c1.4,0.1,2.9,0.2,4.2,0.5c-0.4,1.2-0.9,2.6-1.4,4.2C209.9,156.9,208.5,156.8,207.2,156.6z M216.6,158.1
		c-1.3-0.3-2.7-0.5-4-0.7c0.5-1.7,1-3.1,1.3-4.2c1.4,0.3,2.7,0.7,4,1.2C217.5,155.4,217.1,156.7,216.6,158.1z M221.9,159.3
		c-1.2-0.3-2.5-0.6-3.9-0.9c0.5-1.4,0.8-2.6,1.1-3.6c1.3,0.5,2.5,1.2,3.6,1.9C222.5,157.5,222.2,158.4,221.9,159.3z M227.7,161.3
		c-0.9-0.5-2.4-1-4.4-1.6c0.3-0.8,0.5-1.5,0.7-2.2c0.5,0.3,1,0.7,1.5,1.1c1.2,1,2.3,2,3.2,3.1C228.3,161.6,228,161.5,227.7,161.3z"
		/>
	<path fill="#FFFFFF" d="M194.8,156.2c0.2-0.6,0.4-1.2,0.6-1.8c-1.6,0.6-3.1,1.4-4.6,2.3C192,156.5,193.4,156.3,194.8,156.2z"/>
	<path fill="#FFFFFF" d="M208.4,152.5c-0.3,1-0.7,2.4-1.3,4.1c1.3,0.1,2.7,0.3,4.1,0.6c0.5-1.7,1-3.1,1.4-4.2
		C211.3,152.7,209.9,152.6,208.4,152.5z"/>
	<path fill="#FFFFFF" d="M212.6,157.4c1.3,0.2,2.6,0.5,4,0.7c0.5-1.4,0.9-2.7,1.3-3.8c-1.3-0.5-2.6-0.9-4-1.2
		C213.6,154.3,213.2,155.7,212.6,157.4z"/>
	<path fill="#FFFFFF" d="M218,158.4c1.5,0.3,2.8,0.6,3.9,0.9c0.3-0.9,0.6-1.8,0.8-2.6c-1.2-0.7-2.4-1.4-3.6-1.9
		C218.8,155.8,218.4,157,218,158.4z"/>
	<path fill="#FFFFFF" d="M202.7,152.6c-0.3,0.9-0.6,2.1-1,3.5c1.3,0.1,2.7,0.2,4.1,0.3c0.5-1.6,1-2.9,1.4-4
		C205.6,152.4,204.1,152.5,202.7,152.6z"/>
	<path fill="#FFFFFF" d="M196.3,156.1c1.3-0.1,2.6-0.1,4-0.1c0.4-1.2,0.8-2.3,1.1-3.2c-1.5,0.2-3,0.6-4.4,1
		C196.7,154.5,196.5,155.3,196.3,156.1z"/>
	<path fill="#FFFFFF" d="M225.4,158.6c-0.5-0.4-1-0.8-1.5-1.1c-0.2,0.7-0.4,1.4-0.7,2.2c2.1,0.6,3.6,1.1,4.4,1.6
		c0.3,0.2,0.6,0.3,0.9,0.5C227.7,160.7,226.6,159.6,225.4,158.6z"/>
	<path d="M186.8,191.5c-0.7-0.8-1.3-1.7-1.9-2.5c-1-1.5-1.9-3-2.6-4.7c-1.3-2.7-2.4-5.5-3.3-8.4c-0.2-0.5-0.3-1.1-0.5-1.7l-0.9,0.1
		c0.6,2.1,1.3,4.1,2.1,6.2c0.8,2.1,1.7,4.1,2.7,6.1c0.4,0.8,0.9,1.6,1.3,2.3c1.3,2.1,2.7,4,4.3,5.8c0.5,0.5,1,1,1.5,1.5l1.2-0.8
		C189.3,194.3,188,193,186.8,191.5z"/>
	
		<radialGradient id="SVGID_6_" cx="162.7951" cy="154.4853" r="121.358" gradientTransform="matrix(1.0045 0 0 1.0009 -13.9627 -1.1479)" gradientUnits="userSpaceOnUse">
		<stop  offset="0" style="stop-color:#F7DFC6"/>
		<stop  offset="1" style="stop-color:#FDCF9D"/>
	</radialGradient>
	<path fill="url(#SVGID_6_)" d="M189.8,188c-2-1.6-3.6-3.5-4.8-5.6c-1.2-0.6-1.9-1.1-2-1.6c-0.1-0.6,0-1.1,0.5-1.4
		c0.1,0,0.1-0.1,0.1-0.1c-0.3-0.8-0.5-1.6-0.7-2.4c-1.1-0.2-1.8-0.4-2.1-0.6c-0.3-0.1-0.4-0.3-0.5-0.5c0,0,0-0.3,0-0.8
		c0-0.3,0.1-0.7,0.2-1c-0.6,0.1-1.3,0.1-1.9,0.3c0.2,0.6,0.3,1.1,0.5,1.7c0.9,2.9,2,5.7,3.3,8.4c0.8,1.6,1.6,3.2,2.6,4.7
		c0.6,0.8,1.2,1.7,1.9,2.5c1.2,1.4,2.5,2.8,3.9,4c0.7-0.5,1.7-1.1,3.1-1.7l0.9-0.5c0.5-0.3,1.3-0.6,2.5-1c-2.2-0.8-4.2-2-6.1-3.3
		C190.7,188.7,190.3,188.3,189.8,188z"/>
	
		<radialGradient id="SVGID_7_" cx="162.7881" cy="154.4857" r="121.3743" gradientTransform="matrix(1.0045 0 0 1.0009 -13.9627 -1.1479)" gradientUnits="userSpaceOnUse">
		<stop  offset="0" style="stop-color:#F7DFC6"/>
		<stop  offset="1" style="stop-color:#FDCF9D"/>
	</radialGradient>
	<path fill="url(#SVGID_7_)" d="M182.4,173.8C182.4,173.8,182.4,173.8,182.4,173.8C182.4,173.9,182.3,173.9,182.4,173.8
		c-0.4,0.5-0.6,0.9-0.7,1.3c0.1,0.2,0.4,0.4,0.9,0.5C182.6,175.1,182.5,174.5,182.4,173.8C182.4,173.9,182.4,173.9,182.4,173.8z"/>
	<path d="M182.4,173.9c0.1,0.6,0.1,1.2,0.3,1.7l1,0.2c-0.2-0.7-0.3-1.4-0.4-2.1L182.4,173.9z"/>
	<path fill="#571809" d="M199.9,178.3c1.6,0.2,2.9,0.8,4,1.9c3.7-1.3,7.5-1.8,11.3-1.4c5.1,0.3,9,2.5,11.8,6.6
		c0.6-0.6,1.1-1.2,1.6-1.8c-1.2-0.7-2.5-1.4-3.9-2.1c-6.6-3.5-16.1-6-28.6-7.4c-4.3-0.5-8.6-0.6-12.9-0.3c0.1,0.7,0.3,1.4,0.4,2.1
		c0.4,0.1,0.8,0.1,1.2,0.1c1.8,0.1,2.8,0.5,2.8,1.2c0,0.7-0.3,1.2-0.8,1.6c-0.7,0.5-1.3,0.9-1.7,1.2c0.3,0.5,0.5,1,0.8,1.4
		c0.2,0.1,0.4,0.2,0.6,0.2c2.8-2.3,6-3.5,9.7-3.5C197.5,178.2,198.7,178.2,199.9,178.3z"/>
	<path fill="#EE3E23" d="M222.4,189c1.1-0.7,2-1.4,3-2.2c0.2-0.1,0.4-0.3,0.6-0.5c-0.5-0.8-1.1-1.6-1.8-2.3
		c-1.1-1.1-2.4-1.9-3.9-2.5c-4.6-1.6-9.3-1.9-14.1-0.9c-2.4,0.5-4.7,1.7-6.8,3.6c0.3-1.4,1.2-2.5,2.8-3.3c-0.5-0.5-1.1-0.8-1.8-0.9
		c-1.7-0.4-3.4-0.5-5.1-0.3c-2.6,0.1-4.8,0.8-6.7,2.2l0.1,0.2c1.6,0.4,2.4,0.7,2.4,1.1c0,0.4,0.1,0.6,0.1,0.7c0.1,0.1-0.4,0-1.5-0.1
		c-0.7-0.1-1.5-0.3-2.5-0.6c1,1.3,2.2,2.5,3.6,3.7c1,0.8,2,1.5,3,2.2c1.7,1,3.5,1.8,5.4,2.4c0.9,0.3,1.9,0.5,2.9,0.7
		c0,0,0.1,0,0.1,0c1.9,0.3,3.8,0.5,5.9,0.5C213.5,192.7,218.2,191.5,222.4,189z"/>
	<path d="M190.9,186.9c-1.4-1.1-2.6-2.3-3.6-3.7l-2.2-0.8c1.2,2.1,2.8,4,4.8,5.6c0.5,0.4,0.9,0.7,1.3,1c1.9,1.4,3.9,2.5,6.1,3.3
		l2.1-0.9c-1.9-0.6-3.7-1.4-5.4-2.4C192.8,188.4,191.8,187.7,190.9,186.9z"/>
	<path fill="#1CB1BF" d="M188.5,199.5c-2.4,2.5-4.4,5-6.1,7.7c-0.1,0.1-0.1,0.1-0.1,0.2c-2.3,3.7-3.7,6.3-4.1,7.7
		c-1.5,3.1-2.6,5.5-3.3,7c-0.2,0.3-0.3,0.7-0.5,1.1c2.2-2.3,4.6-4.6,7.1-6.7c0.5-0.5,1.1-0.9,1.6-1.3c0-0.1,0-0.2,0-0.3
		c0-1.4,0.4-3.1,1.2-5.2c0.3-0.8,0.6-1.5,0.9-2.2c0.6-1.2,1.3-2.4,2.1-3.6c1.2-1.8,2.5-3.2,3.8-4.1c0.1-0.1,0.2-0.1,0.3-0.2
		c0.4-0.3,0.7-0.5,0.9-0.7c-0.5-0.4-1-0.8-1.6-1.4h-0.1C189.7,198.2,189,198.9,188.5,199.5z"/>
	<path d="M234.3,443.9C234.3,443.9,234.3,443.9,234.3,443.9C234.2,443.8,234.2,443.8,234.3,443.9z"/>
	<g>
		<path fill="#C1D850" stroke="#000000" stroke-width="2" stroke-miterlimit="10" d="M226.4,181.3c-0.1-0.1-0.3-0.1-0.4-0.2
			c-8.3-4.5-17.1-7.6-26.5-9.2c-6.5-1-13-1.4-19.5-0.9l-0.8,0.1c-1.4,0.1-2.8,0.3-4.1,0.4l-1,0.1c-0.9,0.1-1.7,0.3-2.5,0.4
			c-1.2,0.2-2.4,0.5-3.5,0.8c-0.1,0-0.2,0-0.3,0.1c-0.2,0.1-0.4,0.1-0.7,0.2c-6.5,1.7-12.7,4.1-18.7,7.3
			c-11.1,5.9-21.1,13.1-30.2,21.6c-4.9,4.6-8.6,8.4-11.1,11.2c-2.5,2.9-5.5,6.5-8.9,10.9c-3.4,4.4-7.2,9.7-11.4,15.9
			c-4.2,6.2-8.9,14.4-14.1,24.6c-5.2,10.2-8,19.7-8.4,28.3c0,0.7,0.1,1.3,0.3,1.8c0.1,0,0.1,0,0.1,0c0,0.7,0.2,1.4,0.6,1.9
			c0,0,0,0.1,0,0.1c-3.2,7.5-5.8,15.3-7.8,23.3c-0.8,3-1.5,6.1-2.2,9.1c-1.7,7.9-3.5,15.8-5.3,23.6c-1.7,7.4-2.4,14.9-2.2,22.4
			c0.1,3.5,0.8,7,2.1,10.4c0.4,1.2,1,2,1.7,2.6c0,1.5,0,3.1,0,5.1c0,5.2,0.1,10.5,0.4,16c0.3,5.5,0.4,10.3,0.4,14.2
			c0,2,0,3.4-0.1,4.5c-1.9,2.7-4.5,4-7.9,4c-1.2,0-2.3-0.2-3.4-0.5c-1.1-0.3-2.4-0.5-3.9-0.5c-3.1,0-5.4,1.3-7,4
			c-0.1,0.1-0.2,0.3-0.3,0.5c-0.2-0.2-0.4-0.3-0.7-0.4c-1.4-0.8-3-1.2-4.8-1.2c-3,0-5.2,1.4-6.7,4.1c-0.9,1.7-1.4,3.3-1.4,4.9
			c0,0.7,0.1,1.6,0.4,2.7c0.4,1.6,1,3.1,1.8,4.4c2.5,3.9,6.5,5.9,12.2,5.9c0.7,0,2-0.1,4-0.4c2-0.3,4.2-0.4,6.6-0.4
			c0.7,0,1.4,0.5,2.2,1.4c0.5,0.6,1.3,1.6,2.5,3.2c2.8,3.1,6.5,4.6,11,4.6c2.3,0,4.3-0.4,5.9-1.2c0.8-0.4,2-1.3,3.6-2.7
			c1.4-1.3,2.8-2.2,4.1-2.7c2-0.8,4.4-1.2,7.3-1.2c2.6,0,4.9,0.3,6.7,0.8c1.1,0.3,2.4,0.9,4,1.8c1.6,0.9,2.9,1.5,4,1.8
			c1.8,0.5,4,0.8,6.6,0.8c2.4,0,4.7-0.4,6.8-1.2c1.4-0.5,2.9-1.4,4.6-2.5c1.7-1.2,3-1.9,4-2.3c0.9-0.4,2.6-0.7,5.1-1.2
			c2.6-0.4,5.5-0.5,8.9-0.3c2.8,0.1,5.1-0.1,6.7-0.4c4.8-1,7.2-4.4,7.2-10.2c0-1.2,0-2-0.1-2.4c-0.2-1.6-0.8-3.1-1.7-4.4
			c-1.8-2.6-4.7-4.4-8.7-5.4c0.2-0.4,0.3-0.8,0.3-1.4c0-1,0-1.6-0.1-1.7c-0.6-0.8-1.3-1.2-2-1.2c-0.8,0-2.2,0.2-4.2,0.6
			c-2,0.5-3.6,0.7-4.9,0.9c-1.3,0.2-2.6-0.4-4-1.7c-0.7-0.6-1.2-1.2-1.5-1.9c0,0-0.2-0.6-0.7-1.7c-0.4-0.9-0.6-2.1-0.9-3.5
			c-0.3-2-0.4-3.1-0.5-3.5c-0.3-1.2-0.6-3.1-0.9-5.7l0.1-0.1c-0.8-8.5-1-17-0.6-25.5c0.5-8.8,1-16.2,1.6-22.1
			c0.6-5.9,1.6-13.8,2.8-23.7c1.2-9.9,3.7-22.5,7.4-37.7c3.7-15.3,9-29.8,16-43.4c6.9-13.7,13.2-24.6,18.8-32.7
			c5.6-8.1,10.5-14.5,14.8-19c0.1-0.1,0.1-0.2,0.2-0.3c1.4-1.5,2.6-2.8,3.6-3.9c0.7-0.2,1.7-0.8,3-1.6c0.4-0.3,0.9-0.5,1.4-0.9
			c0.6-0.5,1.3-0.5,2-1c1-0.7,2.1-0.6,3.4-1.6h0l0-0.4c0,0,0-0.2,0-0.2l1.3-0.9c2.8-1.7,32.6-11.5,34.8-12.2c0,0,0.1,0.8,0.1,0.8
			s0,0,0,0l1.1-1.3c0.2,0.1,0.5-0.2,0.7,0l0.7-1.2l0.1-0.1C226.4,181.4,226.4,181.3,226.4,181.3z"/>
		<path fill="#FFFFFF" d="M153.1,216.7c-0.2-0.1-0.3-0.1-0.5-0.1c-0.2,0.1-0.5,0.3-0.8,0.6c-0.4,0.4-0.8,0.7-1,0.8
			c-1.1,0.7-2.6,1-4.6,1c-1.4,0-2.3-0.3-2.8-0.9c-0.3-0.4-0.5-1.1-0.5-2.1c-0.1-1-0.2-1.7-0.4-2.1c-0.4-0.7-1.2-1-2.5-1
			c-1.5,0-3.2,0.5-5,1.6c-1.3,0.7-2,1.2-2.1,1.2c-0.6,0.3-1.1,0.4-1.5,0.4c-0.8-0.1-1.3-0.1-1.3-0.1c-0.1-0.1-0.1-0.4-0.1-0.7
			c0-0.5,0.2-1.3,0.6-2.4c0.4-1.1,0.6-2,0.6-2.7c0,0,0-0.1,0.1-0.4c0-0.3,0-0.6-0.1-0.8c-0.3-0.8-1-1.2-2.3-1.2
			c-0.8,0-2,0.4-3.6,1.2c-1.6,0.8-2.8,1.2-3.5,1.2V210c0-1.2,0.6-2.4,1.8-3.3c0.6-0.5,1.2-0.9,1.8-1.3c0-0.5,0-0.7-0.1-0.5l-0.9-0.1
			c-1.8,1-3,1.8-3.4,2.3c-0.5,0.6-0.7,1.5-0.7,2.7c-0.1,0.4-0.1,0.7,0,1c0.3,0.7,1,1,2.1,1c0.5,0,1.6-0.4,3.3-1.2
			c1.7-0.8,2.9-1.2,3.6-1.2c0.5,0,0.6,0.1,0.3,0.3c0,0.6-0.2,1.6-0.6,2.9c-0.4,1.3-0.6,2.2-0.6,2.6c-0.1,0.4-0.1,0.8,0,1.3
			c0.3,0.8,1.3,1.3,2.8,1.3c0.7,0,1.4-0.2,2.1-0.5c0.2-0.1,0.8-0.5,1.7-1.1c1.6-1.1,3.5-1.7,5.5-1.7c0.3,0,0.5,0.3,0.6,1
			c0.2,1.4,0.3,2.1,0.3,2.1c0.5,2,2,3.1,4.4,3.1c1.9,0,3.6-0.4,5.1-1.2c1.4-0.7,2.1-1.4,2.1-2.1C153.3,217,153.3,216.8,153.1,216.7z
			"/>
		<path fill="#FFFFFF" d="M122.2,275.2c-1.4,0-3.2,0.2-5.4,0.5c-0.3,0-0.5,0-0.6-0.1c0-0.1-0.1-0.4-0.1-1.1c0-0.4,0.2-1,0.6-1.9
			c0.4-0.8,0.5-1.7,0.5-2.5c0.2-0.5,0.1-1-0.1-1.6c-0.4-1-1.6-1.6-3.4-1.6c-1,0-2.3,0.4-3.9,1.2c-1.7,0.8-3.1,1.2-4.3,1.2
			c-1.4,0-2.4-0.5-3.1-1.6c-0.5-0.7-0.7-1.4-0.7-2.2c0-1.2,0.7-2.8,2-4.8c1.3-1.7,2-2.6,2-2.6c0-0.3-0.1-0.5-0.1-0.6
			c-0.1-0.1-0.2-0.1-0.6-0.2c-3.1,1.4-4.7,4.2-4.7,8.2c0,3.6,1.7,5.4,5.1,5.4c2.1,0,2.9,0,5-1.2c0.7-0.4,1.3-0.7,1.8-0.9
			c0.8-0.3,1.7-0.4,2.8-0.4c0.5,0,0.7,0.2,0.9,0.6c0.1,0.1,0.1,0.5,0.1,1c0,0.5-0.2,1.2-0.6,2.2c-0.4,1-0.5,1.7-0.5,2.2
			c0,0,0,0.2-0.1,0.5c0,0.3,0.1,0.7,0.2,0.9c0.4,0.9,1.3,1.3,2.8,1.3c3.2,0,5.5,0.2,6.8,0.5c1.1,0.3,1.6,0.8,1.7,1.4
			c0,0.4-0.1,1-0.3,1.9c-0.1,0.8,0.2,1.6,0.8,2.1c0.4-0.2,0.6-0.3,0.7-0.3v-4c-0.1-0.7-0.5-1.4-0.9-1.9
			C125.6,275.8,124.2,275.2,122.2,275.2z"/>
		<path fill="#FFFFFF" d="M115.7,341l-1.1-0.1c-0.6,0-1.2,0.3-1.7,0.9c-0.5,0.6-1.2,0.9-2.1,0.9c-0.4,0-0.8-0.3-1.1-0.8
			c-0.3-0.8-0.6-1.4-0.8-1.9c-0.9-1.8-2.2-2.8-4.1-2.8c-0.8,0-1.3,0.1-1.7,0.3c-0.2,0.1-0.4,0.3-0.7,0.7c-0.5,0.6-1.3,0.9-2.7,0.9
			c-1.6,0-2.7-0.6-3.4-1.9c-0.4-0.8-0.6-1.6-0.6-2.5c0-0.4,0.1-1.2,0.4-2.4c0.3-1.2,0.4-1.8,0.4-1.9c0-0.3-0.1-0.5-0.2-0.6
			c-0.2-0.1-0.4-0.1-0.5-0.2c-0.8,0.6-1.4,1.5-1.6,2.5c-0.1,0.3,0.1,1,0.1,2.4c0,0,0,0.4-0.1,1.1c0,0.8,0.1,1.5,0.4,2.1
			c0.7,2,2.5,3,5.3,3c1.5,0,2.6-0.3,3.2-0.9c0.4-0.4,0.6-0.6,0.8-0.7c0.4-0.2,0.9-0.3,1.5-0.3c0.6,0,1.2,0.3,1.6,0.9
			c0.2,0.3,0.6,1,1,1.9c0.4,0.9,0.8,1.5,1.1,1.9c0.5,0.6,1.1,0.9,1.8,0.9c0.4,0,1.3-0.3,2.7-1c1.5-0.7,2.2-1.3,2.2-1.8
			C115.8,341.3,115.8,341.2,115.7,341C115.8,341.1,115.7,341.1,115.7,341z"/>
		<path fill="#FFFFFF" d="M102.1,370.3c1.2,0.8,2,1.2,2.4,1.2c0.1,0,0.3-0.1,0.4-0.2c0.1-0.3,0.3-0.5,0.4-0.7
			c-0.6-0.7-1.3-1.3-2.2-1.9c-1.2-0.8-2.3-1.2-3.4-1.2c-1.3,0-2.8,0.5-4.7,1.4c-1.9,0.9-3.4,1.4-4.5,1.4c-0.7,0-1.3-0.4-1.6-1.1
			c-0.1-0.2-0.3-1-0.5-2.5c-0.2-1.1-0.6-2-1-2.5c-0.7-0.7-1.6-1.1-2.9-1.1c-1.1,0-2,0.3-3,1c-0.5,0.4-1.3,1-2.3,2.1
			c-1,1-1.8,1.7-2.4,2.1c-1,0.6-2,0.9-3.2,0.9c-1.4,0-2.4-0.6-2.8-1.8c-0.2-0.5-0.3-1.4-0.3-2.5c0-1.2,0.2-2.5,0.7-3.9
			c0.5-1.4,0.7-2.2,0.7-2.4c0-0.3-0.1-0.6-0.1-0.7c-0.1-0.1-0.3-0.2-0.6-0.4c-1.2,2.2-1.9,3.6-2,4c-0.1,0.3-0.1,1.4-0.1,3.3
			c0,0,0,0.3-0.1,0.9c0,0.8,0.1,1.4,0.3,2.1c0.6,2,2,2.9,4.3,2.9c2,0,4.1-1,6.3-3c1.3-1.2,2.1-2,2.3-2.1c0.8-0.7,1.5-1,2.2-1
			c0.7,0,1.3,0.4,1.7,1.1c0.1,0.3,0.3,1.2,0.7,2.6c0.4,1.1,0.9,1.8,1.4,2.3c0.7,0.8,1.6,1.1,2.8,1.1c1.3,0,2.8-0.5,4.7-1.3
			c1.9-0.9,3.1-1.4,3.7-1.4C100,369.1,100.8,369.5,102.1,370.3z"/>
		<path fill="#FFFFFF" d="M77.9,450.1l-0.7-0.1c-0.4,0-0.7,0.1-0.8,0.3c-0.1,0.1-0.2,0.3-0.3,0.7c-0.3,0.7-1.2,1-2.8,1
			c0,0-0.4-0.3-1.1-0.8c-1-0.5-2.3-0.8-3.8-0.8c-1.1,0-2,0.3-3,0.9c-0.6,0.4-1.3,1.1-2.1,2c-0.9,1-1.5,1.7-1.8,2
			c-0.7,0.6-1.4,0.9-2.1,0.9c-1.4,0-2.5-0.4-3.4-1.2c-0.6-0.5-1.2-1.5-1.8-2.8c-0.7-1.4-1.2-2.3-1.6-2.8c-0.4-0.5-2.4-1.3-2.9-1.3
			c-1,0-2.1,0.4-3.4,1.1c-1.3,0.7-2.5,1-3.6,1c-1.3,0-2.1-0.6-2.4-1.8c-0.2-0.8-0.3-1.2-0.3-1.2c-0.2-0.4-0.5-0.6-0.9-0.6
			c-0.4,0-0.6,0-0.6,0.1c-0.1,0.1-0.1,0.3-0.1,0.6c0,0.7,0.3,1.4,0.8,2.3c0.8,1.4,2,2.1,3.6,2.1c1.2,0,2.5-0.3,3.9-1
			c1.4-0.7,2.4-1.1,3.1-1.1c0.8,0,1.5,0.4,2,1.3c0,0,0.5,0.9,1.5,2.8c0.7,1.2,1.4,2.2,2.2,2.8c1.1,0.8,2.4,1.2,4.1,1.2
			c1.1,0,2.1-0.3,2.8-0.9c0.3-0.3,0.9-0.9,1.7-2c0.7-0.9,1.4-1.6,2.1-2c1.1-0.6,2.4-0.9,4.1-0.9c0.1,0,0.6,0.3,1.4,0.8
			c0.7,0.5,1.6,0.8,2.5,0.8c1,0,1.9-0.3,2.8-0.9c0.8-0.6,1.2-1.2,1.2-1.8C78.1,450.3,78,450.2,77.9,450.1
			C78,450.1,77.9,450.1,77.9,450.1z"/>
		<path fill="#FFFFFF" d="M110.5,424c-1-2.9-1.6-5.7-1.7-8.4c-0.1-2.7,0-4.8,0.3-6.3l-0.1,0c-0.3,1.1-0.5,2.7-0.7,4.6
			c-0.2,2.3,0.5,6.8,2.1,13.5c1.6,6.7,2.1,10.6,1.4,11.7c-0.2,0.3-0.4,0.5-0.7,0.6c-1.5,0.8-3,0.8-4.5,0.2c-0.5-0.2-0.8-0.3-1.1-0.4
			c-2-0.3-3.5,0.3-4.4,2c-0.4,0.7-0.8,1.3-1.4,1.8c-1,0.9-2.2,1.4-3.6,1.4c-0.5,0.1-1,0.1-1.5,0c-0.9-1.2-1.7-2.5-2.3-4
			c-0.5-1.3-1.4-2.2-2.8-2.5c-0.8-0.2-1.6-0.1-2.3,0.4c-1.2,0.8-2.2,1.8-3.2,2.9c-0.5,0.5-1,0.7-1.6,0.7l-1.7-1.3l-0.7,0.3
			c0,0.9,0.5,1.6,1.6,2.1c1.5,0.7,2.8,0.4,3.9-0.8c0.7-0.7,1.3-1.4,2-2.2c0.4-0.5,0.9-0.7,1.5-0.7c0.9,0.1,1.5,0.6,1.8,1.5
			c0.6,1.9,1.6,3.4,3.1,4.5c0.4,0.3,0.9,0.5,1.4,0.6c2.4,0.4,4.2-0.3,5.7-2.1c0.5-0.6,1-1.2,1.4-1.9c0.8-1.1,1.9-1.5,3.3-1.1
			c2.1,0.7,4.1,0.7,6.1,0c0.9-0.3,1.4-0.8,1.6-1.7c0.4-2,0.3-3.9-0.2-5.9C112.5,430.1,111.6,426.9,110.5,424z"/>
		<path d="M109.2,408.7c-0.1,0.2-0.1,0.4-0.1,0.6l0.1,0C109.1,409.1,109.2,408.8,109.2,408.7z"/>
	</g>
	<g>
		<path fill="#FFFFFF" d="M85.3,435.4c-0.7-2.1-1.1-4.1-1.2-6.1c-0.1-1.9,0-3.5,0.2-4.6c0-0.1,0-0.3,0.1-0.4
			c-0.2,0.8-0.5,2.1-0.6,3.8c-0.2,1.6,0.3,4.9,1.5,9.8c1.2,4.9,1.5,7.7,1,8.5c-0.1,0.2-0.3,0.3-0.5,0.5c-1.1,0.6-2.2,0.6-3.2,0.1
			c-0.3-0.1-0.5-0.2-0.8-0.3c-1.5-0.2-2.5,0.2-3.2,1.5c-0.3,0.5-0.6,0.9-1,1.3c-0.7,0.7-1.6,1-2.6,1c-0.4,0-0.7,0.1-1.1,0
			c-0.7-0.8-1.2-1.8-1.7-2.9c-0.2-0.5-1.6-1.7-2-1.8c-0.6-0.1-1.1,0-1.6,0.3c-0.8,0.6-1.6,1.3-2.3,2.1c-0.3,0.3-0.7,0.5-1.2,0.5
			l-1.2-1l-0.5,0.2c0,0.7,0.4,1.2,1.1,1.5c1.1,0.5,2,0.3,2.8-0.6c0.5-0.5,0.9-1,1.4-1.6c0.3-0.3,0.7-0.5,1.1-0.5
			c0.7,0.1,1.1,0.4,1.3,1.1c0.4,1.4,1.2,2.4,2.2,3.3c0.3,0.2,0.7,0.4,1,0.4c1.7,0.3,3.1-0.2,4.1-1.5c0.3-0.4,0.7-0.9,1-1.4
			c0.6-0.8,1.4-1.1,2.4-0.8c1.5,0.5,3,0.5,4.4,0c0.6-0.2,1-0.6,1.1-1.3c0.3-1.4,0.2-2.8-0.1-4.2C86.7,439.8,86,437.5,85.3,435.4z"/>
		<path fill="#FFFFFF" d="M61.7,454.3l-0.5-0.1c-0.3,0-0.5,0.1-0.6,0.2c-0.1,0.1-0.1,0.2-0.2,0.5c-0.2,0.5-0.9,0.7-2,0.7
			c0,0-0.3-0.2-0.8-0.6c-0.7-0.4-1.6-0.6-2.7-0.6c-0.8,0-1.5,0.2-2.1,0.7c-0.4,0.3-0.9,0.8-1.5,1.5c-0.7,0.8-1.1,1.3-1.3,1.4
			c-0.5,0.5-1,0.7-1.5,0.7c-1,0-1.8-0.3-2.5-0.9c-0.4-0.4-0.8-1.1-1.3-2c-0.5-1-0.9-1.7-1.2-2c-0.6-0.6-1.2-0.9-2.1-0.9
			c-0.7,0-1.5,0.3-2.5,0.8c-0.9,0.5-1.8,0.8-2.6,0.8c-0.9,0-1.5-0.4-1.8-1.3c-0.1-0.6-0.2-0.9-0.2-0.9c-0.1-0.3-0.3-0.4-0.6-0.4
			c-0.3,0-0.4,0-0.5,0c0,0-0.1,0.2-0.1,0.4c0,0.5,0.2,1,0.6,1.7c0.6,1,1.5,1.5,2.6,1.5c0.8,0,1.8-0.2,2.8-0.8c1-0.5,1.8-0.8,2.2-0.8
			c0.6,0,1.1,0.3,1.5,0.9c0,0,0.3,0.7,1.1,2c0.5,0.9,1,1.6,1.6,2c0.8,0.6,1.8,0.9,3,0.9c0.8,0,1.5-0.2,2.1-0.7
			c0.2-0.2,0.7-0.7,1.2-1.5c0.5-0.7,1-1.2,1.5-1.5c0.8-0.4,1.7-0.7,3-0.7c0.1,0,0.4,0.2,1,0.6c0.5,0.4,1.1,0.6,1.8,0.6
			c0.7,0,1.4-0.2,2-0.7c0.6-0.4,0.9-0.9,0.9-1.3C61.8,454.5,61.8,454.4,61.7,454.3C61.7,454.3,61.7,454.3,61.7,454.3z"/>
		<path fill="#FFFFFF" d="M79.9,395.3c-0.9-0.6-1.7-0.9-2.4-0.9c-0.9,0-2.1,0.3-3.4,1c-1.4,0.7-2.4,1-3.2,1c-0.5,0-0.9-0.3-1.1-0.8
			c-0.1-0.2-0.2-0.8-0.4-1.8c-0.2-0.8-0.4-1.4-0.7-1.8c-0.5-0.5-1.2-0.8-2.1-0.8c-0.8,0-1.5,0.2-2.2,0.7c-0.4,0.3-0.9,0.8-1.7,1.5
			c-0.7,0.7-1.3,1.2-1.7,1.5c-0.7,0.5-1.5,0.7-2.3,0.7c-1,0-1.7-0.4-2-1.3c-0.1-0.4-0.2-1-0.2-1.8c0-0.9,0.2-1.8,0.5-2.8
			c0.3-1,0.5-1.6,0.5-1.7c0-0.2,0-0.4-0.1-0.5c0-0.1-0.2-0.2-0.4-0.3c-0.9,1.6-1.4,2.6-1.5,2.9c-0.1,0.2-0.1,1-0.1,2.4
			c0,0,0,0.2,0,0.7c0,0.6,0.1,1,0.2,1.5c0.4,1.4,1.5,2.1,3.1,2.1c1.5,0,3-0.7,4.5-2.2c1-0.9,1.5-1.4,1.6-1.5
			c0.6-0.5,1.1-0.7,1.6-0.7c0.5,0,0.9,0.3,1.2,0.8c0.1,0.2,0.2,0.9,0.5,1.9c0.3,0.8,0.7,1.3,1,1.6c0.5,0.6,1.1,0.8,2,0.8
			c0.9,0,2.1-0.3,3.4-1c1.4-0.7,2.3-1,2.7-1c0.3,0,0.9,0.3,1.8,0.9c0.9,0.6,1.5,0.9,1.8,0.9c0.1,0,0.2,0,0.3-0.1
			c0.1-0.2,0.2-0.3,0.3-0.5C81.1,396.2,80.6,395.8,79.9,395.3z"/>
		<path fill="#FFFFFF" d="M116,285.2c-0.1,0-0.2-0.1-0.3-0.1c-0.1,0.1-0.3,0.2-0.6,0.4c-0.3,0.3-0.6,0.5-0.7,0.6
			c-0.8,0.5-1.9,0.7-3.3,0.7c-1,0-1.7-0.2-2-0.7c-0.2-0.3-0.3-0.8-0.4-1.5c0-0.8-0.1-1.3-0.3-1.5c-0.3-0.5-0.9-0.7-1.8-0.7
			c-1.1,0-2.3,0.4-3.6,1.2c-0.9,0.5-1.4,0.8-1.4,0.8c-0.5,0.2-0.9,0.4-1.2,0.4c-0.6-0.1-0.9-0.1-0.9-0.1c0-0.1-0.1-0.3-0.1-0.5
			c0-0.3,0.1-0.9,0.4-1.8c0.3-0.8,0.4-1.5,0.4-1.9c0,0,0-0.1,0.1-0.3c0-0.2,0-0.4,0-0.6c-0.2-0.6-0.7-0.8-1.7-0.8
			c-0.6,0-1.4,0.3-2.6,0.9c-1.1,0.6-2,0.9-2.5,0.9l0-0.1c0-0.9,0.4-1.7,1.3-2.4c0.4-0.4,0.9-0.7,1.3-0.9c0-0.3,0-0.5-0.1-0.4
			l-0.6-0.1c-1.3,0.8-2.2,1.3-2.4,1.7c-0.3,0.4-0.5,1.1-0.5,2c-0.1,0.3-0.1,0.5,0,0.8c0.2,0.5,0.7,0.7,1.5,0.7
			c0.4,0,1.1-0.3,2.4-0.9c1.3-0.6,2.1-0.9,2.6-0.9c0.3,0,0.4,0.1,0.2,0.2c0,0.5-0.1,1.1-0.4,2.1c-0.3,0.9-0.4,1.6-0.4,1.9
			c-0.1,0.3-0.1,0.6,0,0.9c0.2,0.6,0.9,0.9,2,0.9c0.5,0,1-0.1,1.5-0.4c0.1-0.1,0.4-0.2,1.1-0.7c1.2-0.8,2.6-1.3,4.1-1.3
			c0.2,0,0.3,0.2,0.4,0.7c0.1,1,0.2,1.5,0.2,1.5c0.3,1.5,1.4,2.2,3.2,2.2c1.4,0,2.6-0.3,3.7-0.9c1-0.5,1.5-1,1.5-1.5
			C116.2,285.3,116.1,285.2,116,285.2z"/>
		<path fill="#FFFFFF" d="M89,375.3l-0.8-0.1c-0.4,0-0.8,0.2-1.2,0.7c-0.4,0.4-0.9,0.7-1.5,0.7c-0.3,0-0.6-0.2-0.8-0.6
			c-0.2-0.6-0.5-1-0.6-1.4c-0.6-1.3-1.6-2-3-2c-0.6,0-1,0.1-1.2,0.2c-0.2,0.1-0.3,0.2-0.5,0.5c-0.3,0.4-1.1,0.8-2.1,0.8
			c-1.1,0-1.8-0.6-2.3-1.5c-0.3-0.6-0.5-1.2-0.5-1.8c0-0.3,0.1-0.9,0.3-1.7c0.2-0.8,0.3-1.3,0.3-1.4c0-0.2-0.1-0.4-0.2-0.4
			c-0.1-0.1-0.3-0.1-0.3-0.1c-0.6,0.4-0.9,1-1.1,1.7c0,0.2-0.1,0.8-0.1,1.8c0,0,0,0.3-0.1,0.8c0,0.6,0.1,1.1,0.3,1.5
			c0.5,1.4,1.8,2.2,3.8,2.2c1.1,0,1.8-0.2,2.3-0.7c0.3-0.3,0.5-0.4,0.6-0.5c0.3-0.1,0.6-0.2,1.1-0.2c0.5,0,0.8,0.2,1.2,0.6
			c0.2,0.2,0.4,0.7,0.7,1.4c0.3,0.7,0.6,1.1,0.8,1.4c0.4,0.4,0.8,0.6,1.3,0.6c0.3,0,0.9-0.2,1.9-0.7c1.1-0.5,1.6-0.9,1.6-1.3
			C89.1,375.5,89.1,375.4,89,375.3C89,375.3,89,375.3,89,375.3z"/>
		<path fill="#FFFFFF" d="M89.8,327.9c-0.2,0-0.4,0-0.4-0.1c0-0.1,0-0.3,0-0.8c0-0.3,0.1-0.7,0.4-1.4c0.3-0.6,0.4-1.2,0.4-1.8
			c0.1-0.4,0.1-0.8,0-1.1c-0.3-0.7-1.1-1.1-2.5-1.1c-0.7,0-1.6,0.3-2.9,0.9c-1.2,0.6-2.3,0.9-3.1,0.9c-1,0-1.7-0.4-2.2-1.1
			c-0.3-0.5-0.5-1-0.5-1.6c0-0.9,0.5-2.1,1.4-3.5c0.9-1.3,1.4-1.9,1.4-1.9c0-0.2,0-0.4-0.1-0.4c0,0-0.2-0.1-0.4-0.1
			c-2.3,1-3.4,3-3.4,6c0,2.6,1.2,3.9,3.7,3.9c1.4,0,2.4-0.1,3.5-0.7c0.5-0.3,1.1-0.7,1.4-0.8c0.6-0.2,1.3-0.3,2.1-0.3
			c0.3,0,0.5,0.1,0.6,0.4c0,0.1,0,0.3,0,0.7c0,0.3-0.1,0.9-0.4,1.6c-0.3,0.7-0.4,1.3-0.4,1.6c0,0,0,0.1,0,0.3c0,0.2,0,0.5,0.1,0.7
			c0.3,0.6,1,0.9,2,0.9c2.3,0,4,0.1,4.9,0.4c0.8,0.2,1.2,0.6,1.3,1c0,0.3,0,0.7-0.2,1.4c-0.1,0.6,0.1,1.1,0.6,1.5
			c0.3-0.2,0.4-0.2,0.5-0.2v-2.9c-0.1-0.5-0.3-1-0.7-1.4c-0.7-0.8-1.7-1.2-3.1-1.2C92.7,327.5,91.4,327.7,89.8,327.9z"/>
	</g>
</g>
<g id="ziutek_x5F_09">
</g>
<g id="ziutek_x5F_10">
</g>
<g id="lady_x5F_01">
</g>
<g id="Layer_13">
</g>
<g id="Layer_12">
</g>
<g id="Layer_14">
</g>
<g id="Layer_15">
</g>
<g id="Layer_16">
</g>
<g id="Layer_17">
</g>
<g id="Layer_18">
</g>
<g id="Layer_19">
</g>
<g id="Layer_20">
</g>
<g id="Layer_21">
</g>
<g id="Layer_22">
</g>
<g id="Layer_23">
</g>
<g id="Layer_24">
</g>
<g id="Layer_25">
</g>
<g id="Layer_26">
</g>
<g id="Layer_27">
</g>
<g id="Layer_28">
</g>
<g id="Layer_29">
</g>
<g id="Layer_30">
</g>
<g id="Layer_31">
</g>
<g id="Layer_32">
</g>
<g id="Layer_33">
</g>
<g id="Layer_34">
</g>
<g id="Layer_36">
</g>
<g id="Layer_35">
</g>
<g id="Layer_37">
</g>
<g id="Layer_38">
</g>
<g id="Layer_39">
</g>
<g id="Layer_40">
</g>
</svg>
