<?xml version="1.0" encoding="utf-8"?>
<!-- Generator: Adobe Illustrator 18.1.1, SVG Export Plug-In . SVG Version: 6.00 Build 0)  -->
<!DOCTYPE svg PUBLIC "-//W3C//DTD SVG 1.1//EN" "http://www.w3.org/Graphics/SVG/1.1/DTD/svg11.dtd">
<svg version="1.1" xmlns="http://www.w3.org/2000/svg" xmlns:xlink="http://www.w3.org/1999/xlink" x="0px" y="0px"
	 viewBox="0 0 393 483" enable-background="new 0 0 393 483" xml:space="preserve">
<g id="ziutek_x5F_01">
</g>
<g id="ziutek_x5F_02">
</g>
<g id="ziutek_x5F_03">
</g>
<g id="ziutek_x5F_04">
</g>
<g id="ziutek_x5F_05">
	<g>
		<g>
			<path fill="none" d="M167.4,298.8c0,0-0.1,0-0.1,0.1L167.4,298.8C167.4,298.8,167.4,298.8,167.4,298.8z"/>
			<path fill="none" d="M176.7,352.7l0,0.2C176.7,352.8,176.7,352.7,176.7,352.7C176.7,352.7,176.7,352.7,176.7,352.7z"/>
			<path fill="none" d="M217.1,422.9c0.1-0.1,0.2-0.1,0.3-0.1L217.1,422.9C217.1,422.9,217.1,422.9,217.1,422.9z"/>
			<path d="M121.9,220.6c0.8-11.8,1.8-23.5,3-35.2c0.8-6.6,1.5-13.2,2.4-19.8c2.2-16.2,4.9-32.2,8.2-48.2c1.2-5.8,2.6-11.6,4.3-17.3
				c2.4-8.2,5.3-16.2,8.7-24c2.9-6.7,6.9-12.8,11.8-18.2c3.7-4,8-7,13.1-8.9c5-1.8,10.1-3,15.5-3.4c7.3-0.6,14.6-0.6,21.9-0.1
				c2.9,0.2,5.8,0.6,8.7,1.3c0.4,0.1,0.7,0.3,1.1,0.5c1.7,0.4,3.4,0.9,5.1,1.5c4.5,1.6,9,3.6,13.3,5.8c4.5,2.3,8.7,5,12.6,8.1
				c2.4,2,4.6,4.2,6.5,6.6c2.1,2.8,3.5,6,4.3,9.4c0.2,1,0.1,1.9-0.5,2.8c-1,1.8-2.4,2.8-4.2,3c1.3,2.2,3.5,7.1,3.5,7.1
				c0,0.2,0.1,0.3,0.2,0.5c0,0,0,0,0,0c0.4-0.1,0.8,0,1.1,0.1c-0.4,0-0.8,0-1.2,0c0.1,0.1,0.1,0.2,0.1,0.2c0.6,0,1.2,0,1.8,0.1
				c0.7,0.1,1.3,0.2,1.9,0.4c1.8,0.6,3.3,1.7,4.5,3.3c0.2,0.3,0.4,0.6,0.5,0.8c0.5,0.8,0.9,1.7,1.1,2.6c0.3,1.1,0.4,2.4,0.2,3.7
				c0,0,0,0,0,0c0,0,0,0,0,0c-0.2,1-0.4,2-0.9,2.9c-0.3,0.7-0.7,1.3-1.2,1.9c-0.5,0.6-1.1,1.1-1.7,1.6c-0.2,0.1-0.4,0.2-0.6,0.4
				c-0.1,0-0.1,0.1-0.2,0.1l0,0c-0.4,0.3-0.9,0.5-1.4,0.7c0,0.1,0.9,63.5,0.4,65.7c0.4-0.2,0.9-0.4,1.4-0.6
				c-0.1,0.4-0.2,0.9-0.2,1.4c0.1-0.1,0.3-0.1,0.4-0.1c0.3,1.9,0.7,4.7,1.3,8.5c0.7,4.4,1,6.9,0.8,7.3c-0.2,0.7-0.4,0.9-0.5,0.8
				c-0.2-0.1-0.6-0.2-1.5-0.3c0,0,0,0-0.1,0c0.2,5.1,0.3,10.4,0,15.6c-0.3,8.4-0.8,16.7-1.4,25.2c0,0.1,0,0.3-0.1,0.4
				c-0.5,7.2-1.4,14.5-2.6,21.7c-1.9,11.5-4.6,22.8-7.9,34c-2,6.5-4.7,12.8-8.3,18.7c-6,10-13.2,19-21.7,27
				c-8.9,8.4-14.1,18.6-15.6,30.6c-0.8,6.5-1.5,13.1-2,19.6c-0.4,5.3,0.2,10.2,1.7,15.1c0.4,0.5,0.9,0.9,1.5,1.3
				c-1.4,1.2-2.8,2.2-4.2,3.1c0.8,0.5,1.8,1,3,1.4c3.4,1.2,7.6,1.8,12.8,1.8c5.1-0.1,9,0.4,11.5,1.3c4.5,1.6,7,4.1,7.5,7.7
				c0.2,1.8,0,3.5-0.7,5.2c-0.7,2-1.8,3.3-3.4,4c-0.5,0.2-1.1,0.4-2,0.6c0,0.1-0.1,0.3-0.1,0.4c-0.4,1.1-2.3,2.3-5.6,3.6
				c-3.9,1.5-8.5,2.5-13.8,3.2c-12.4,1.5-25.2,0.4-38.4-3.2l-0.2-0.1c-0.2-0.1-0.4-0.1-0.7-0.1c-0.1-0.1-0.2-0.1-0.2-0.1
				c-0.1,0-0.2-0.1-0.3-0.1c0,0,0,0,0,0c-0.3-0.1-0.5-0.2-0.7-0.3c-0.2-0.1-0.3-0.1-0.5-0.1c-0.3-0.9-0.4-1.8-0.6-2.8
				c-0.5-3.9-0.1-7.7,1.1-11.2c0.2-0.5,0.3-1,0.5-1.4c-0.7-0.2-1.5-0.4-2.2-0.7c-0.3-0.1-0.5-0.2-0.8-0.3c0.2-0.4,0.4-0.8,0.6-1.2
				c0.1-0.3,0.2-0.6,0.2-1c0,0,0-0.1,0.1-0.1c0,0,0,0,0,0c1.4-7.2,1.8-24.6,1.4-52.2c0,0.2,0,0.2,0,0.1c-0.1-2.6-0.4-5.1-0.8-7.7
				c-0.1-0.8-0.2-1.3-0.4-1.6c-0.3-0.7-0.8-1.4-1.7-2.1c-2.1-1.7-6.7-4.2-13.6-7.4c-11-4.9-17.9-8.8-21-11.8c-0.9-0.8-1.8-2-2.7-3.5
				c-0.9-1.5-1.9-2.6-2.8-3.5c-1.2-1.2-3.6-6-6.8-14.7c-5.2-13.9-5.8-34.8-5.7-44.5"/>
			<path d="M263.8,192.1c-0.9-0.7-2-1.4-3.2-2.3c-1.9-1.4-3.2-2.5-4.1-3.4c0.7,15,0.5,30-0.4,45c-0.1,1.4-0.2,2.8-0.2,4.2
				c-1,14.6-2.7,29.1-5.1,43.6c1.8-0.7,3.6-1.5,5.3-2.4c0.3-0.2,0.7-0.3,1-0.5c1.2-4.7,2.2-9.5,2.9-14.3c1.5-9.3,2.7-18.7,3.6-28
				c0.1-0.7,0.1-1.3,0.2-2C264.8,218.7,264.9,205.4,263.8,192.1z"/>
			<path d="M261,182c-1.3,0.5-2.7,0.9-4.1,1.4c1.2,0.6,2.8,1.7,4.8,3.4c3,2.5,4.6,3.7,4.8,3.9c-0.7-4.2-1.3-7.5-1.6-10
				C263.6,181,262.3,181.5,261,182z"/>
			<path d="M259.1,93.3c-1,0.3-2,0.8-2.9,1.4c-2,1.5-3.1,3.4-3.5,5.9c-0.2,1-0.1,2,0,3c0.3,1.3,0.8,2.5,1.6,3.6
				c1.5,2,3.4,3.1,5.9,3.5c1,0.1,2,0.1,2.9-0.1c0,0,0.1,0,0.1,0c0.7-0.1,1.2-0.3,1.8-0.6c0.6-0.3,1.1-0.6,1.7-1c0,0,0,0,0.1-0.1
				c1.1-0.8,2-1.9,2.5-3c0.4-0.9,0.8-1.8,0.9-2.9c0.4-2.5-0.2-4.6-1.7-6.6c-1.5-2-3.4-3.1-5.9-3.4c-0.5-0.1-1-0.1-1.4-0.1
				C260.6,93,259.8,93.1,259.1,93.3z"/>
			<path d="M151.7,145.5c2.9-2.6,5.6-5.8,7.8-9.5c0.7-1.1,1.2-2.1,1.8-3c-1.7-1.8-2.8-4.9-3.1-9.2c-0.1-1.9-0.1-4,0-6.2
				c0.1-1.6,0.2-2.6,0.3-2.9c0.2-0.8,0.5-1.4,0.7-1.9c0.3-1,0.8-1.7,1.4-2.3c1.6-1.7,4.2-1.9,7.6-0.7c5,1.7,8.2,6,9.6,13l4.9-2.2
				c-0.6-1.2-1-2.4-1.5-3.7c-0.5-1.7-1-3.6-1.3-5.8c-0.4-2.3-0.5-5-0.2-8.3c0.3-3.3,1.7-5.7,4.4-7.1c2.7-1.4,5.5-1.8,8.6-1.3
				c3,0.5,5.6,0.5,7.8,0.1c2.1-0.4,3.6-1.1,4.5-1.9c0.9-0.8,1.1-2.1,0.6-3.7c-0.5-1.7-0.7-2.7-0.7-3.2c0.1-2.8,1.4-4.5,4-5.3
				c1.8-0.5,3.6-0.6,5.5-0.3c5.2,1,9.9,3.1,13.9,6.5c1.4,1.2,2.7,1.6,4,1.3c1.2-0.3,2.3-1.3,3.1-2.9c0.8-1.6,1.5-3.2,2.2-4.8
				c1.5-0.9,3.1-1.2,4.8-1.1c4,0.5,8,1.2,12,2.1c1.7,0.3,3.2,0.1,4.8-0.6c1-2.5,0.5-4.9-1.4-7.2c-0.9-1.1-1.8-2.1-2.7-3.2
				c-2.6-3.4-5.7-6.2-9.3-8.7c-3.4-2.4-7.1-4.6-10.8-6.5c-6-3-12.2-5-18.7-6.1c0.1-0.1,0.1-0.1,0.2-0.2c0,0-0.1,0-0.1,0
				c-1.8-0.3-3.6-0.5-5.5-0.7c-5.3-0.5-10.6-0.8-16-0.8c-5.8-0.1-11.6,0.6-17.3,2.1c-5.3,1.3-10,3.8-14.2,7.3c-2,1.9-4.7,5-7.9,9.2
				c-3.2,4.2-5.7,8.9-7.5,14.3c-1.8,5.3-3.5,10.1-5.1,14.3c-1.6,4.3-3.2,9.6-4.7,16.2c-1.6,6.6-3,13.7-4.3,21.5
				c-1.2,7-2.4,14.1-3.5,21.2C138.3,153.8,145.3,151.2,151.7,145.5z"/>
			<path d="M141.1,179.6c14,4.8,31.2,8,51.8,9.3c8.9,0.6,17.2,0.7,24.9,0.4c7.7-0.3,13.8-1.1,18.4-2.2c7.5-1.9,15.6-4.6,24.1-7.9
				c0.9-0.4,1.8-0.7,2.6-1.1c0.2-1.5,0.5-3.3,1.1-5.4c0.3-1.1,0.2-42.9,0.3-43.8c0.5-5-0.8-17.2-0.9-17.3c-1,0.2-2.1,0.2-3.2,0.1
				c-0.4-0.1-0.7-0.1-1-0.2c-0.4-0.1-0.6-0.2-0.9-0.3c-1.3-0.5-2.5-1.2-3.6-2.2c-0.3-0.4-0.7-0.7-1-1.1c-0.5-0.7-0.9-1.3-1.2-2
				c-0.2-0.4-0.3-0.9-0.4-1.3c-0.1-0.3-0.1-0.6-0.2-0.9c-0.1-0.9-0.2-1.9,0-3c0,0,0,0,0-0.1c0.2-1.3,0.6-2.5,1.2-3.6
				c0.7-1.1,1.5-2,2.6-2.8c1-0.8,2.1-1.3,3.1-1.6c0-0.1,0-0.2-0.1-0.2c-0.9,0.3-1.8,0.6-2.6,1.1l-2.5,2c0.7-0.9,1.4-1.7,2.3-2.2
				c0.3-0.2,0.6-0.4,0.9-0.5c0.6-0.3,1.2-0.5,1.9-0.7c-0.1-0.2-0.1-0.3-0.2-0.5c-0.6,0.2-1.3,0.4-1.8,0.7c0,0,0,0-0.1,0
				c-0.3,0.2-0.6,0.3-0.9,0.5c0,0,0,0-0.1,0c-0.9,0.6-1.8,1.4-2.4,2.3c0,0,0,0,0,0.1c-0.4,0.6-0.9,1.3-1.2,2c0,0.1-0.1,0.3-0.2,0.4
				c0,0,0,0,0,0c-0.2,0.4-0.4,1-0.5,1.5c-0.1,0.2-0.1,0.4-0.2,0.6c0.2-2.1,1.1-4,2.8-5.9c0.9-1,2-1.8,3.2-2.4
				c0.4-0.1,0.8-0.1,1.2-0.2c0,0,0.1,0,0.1,0c-1-2.5-2-5-3.3-7.4c-2.2-0.5-4.4-1.2-6.4-2.2c-2.8-1.3-5.6-1.4-8.3-0.2
				c-0.2,0-0.3,0.2-0.4,0.4c-1.1,2.8-2.7,5.2-4.8,7.3c-0.5,0.5-1.1,0.8-1.8,1c-2.9,0.4-5.3-0.4-7.5-2.5c-0.9-0.9-2.7-2.1-5.6-3.9
				c-2.8-1.7-5.5-2.4-7.9-2c-2.5,0.4-3.9,0.8-4.1,1.2c-0.2,0.4-0.6,0.9-1.1,1.3c0.9,2.5,1.1,5.1,0.4,7.6c-0.2,0.9-0.9,1.9-2.1,3.1
				c-1.2,1.2-3.3,1.5-6.6,1c-3.3-0.5-6.2-0.5-8.8-0.1c-2.5,0.4-4.1,0.8-4.7,1.1c-2.4,1.5-3.6,3.7-3.7,6.8c-0.1,3,0.3,6.3,1.1,9.8
				c0.6,2.5,1.5,4.8,2.7,6.9c0,0-0.1,0.1-0.1,0.1c0.2,0.3,0.4,0.5,0.7,0.8c-3.6,1.7-6.8,3.1-9.4,4.2c-0.2,0.2-0.5,0.3-0.6,0.5
				c0-0.1-0.1-0.2-0.1-0.2c-0.1,0-0.1,0.1-0.2,0.1c0-0.1,0-0.3,0-0.4c0-0.1,0-0.2,0.1-0.3c-1.1-7.4-3.9-11.9-8.5-13.4
				c-2.6-0.9-4.4-0.6-5.6,0.8c-0.6,0.7-0.9,1.5-1.1,2.4c-0.7,10.2,0.6,15.8,3.7,16.9c2.5,0.9,4.1,1.1,4.7,0.7
				c0.2-0.3,0.5-0.5,0.6-0.6c0.3-0.3,0.8-0.3,1.4-0.3c0.3,0.2,0.5,0.4,0.6,0.5c0.2,0.3,0.2,0.6,0,1c-0.8,2.3-3.5,2.7-8.1,1.1
				c-0.2-0.1-0.3-0.1-0.5-0.2c-0.6,1.1-1.2,2.2-1.9,3.4c-2.5,3.9-5.3,7.3-8.5,10.2c-6.7,5.9-14.2,8.6-22.5,8
				c-1,6.2-1.8,12.1-2.4,17.9C131.9,175.9,136.3,177.9,141.1,179.6z"/>
			<path d="M245.1,187c-4.9,1.4-8,2.3-9.4,2.5c-7.3,1.1-14.7,1.8-22.1,2.2c2.7,0.8,5.5,1.7,8.4,2.6c12.2,3.8,19.1,5.7,20.5,5.7
				c1.5,0,2.6-1,3.3-3c0.7-2,1.4-3.4,2.1-4.1c1-2.4,1.9-4.5,2.8-6.2c0.4-0.7,0.8-1.4,1.2-1.9C249.8,185.6,247.4,186.3,245.1,187z"/>
			<path d="M122.1,269.8c3.2,1.4,6.8,2.8,10.8,4.2c-0.1-1.3-0.1-2.7,0.1-4.4c0.1-1.9,0.3-4,0.7-6.3c0.3-1.7,0.4-2.7,0.5-2.9
				c0.3-1,0.7-1.6,1.2-1.7c-0.1,0.6-0.3,2.3-0.7,5.1c-0.4,2.6-0.7,4.8-0.7,6.3c-0.1,1.6-0.1,3-0.1,4.2c0.5,0.2,1,0.3,1.5,0.5
				c3.4,1.2,6.8,2.2,10.3,3.2c0.2-2.4,0.5-5.5,1-9.1c0.1-0.4,0.2-0.7,0.3-0.8c0.1-0.2,0.3-0.3,0.7-0.2c0.1,0-0.1,2.8-0.6,8.4
				c0,0.6,0,1.3,0.1,2.2c3,0.8,6,1.6,9.2,2.2c0.1-1.2,0.2-2.4,0.3-3.6c0.5-5.1,1-10.1,1.6-15.2c0.2-1.3,0.3-2.5,0.4-3.8
				c0.4-3.3,0.8-6.7,1.1-10c1.1-11.3,2-22.6,2.6-33.9c0.1-1.1,0.1-2.1,0-3.2c-0.1-2.1,0.4-3.7,1.7-4.9l0.8,0.4
				c0.1,0.2,0.1,0.3,0.2,0.4c0.5,2.8,0.7,5.6,0.4,8.5c-0.4,4.1-0.9,8.3-1.1,12.5c-0.6,7.4-1.3,14.8-2.1,22.1
				c-0.5,4.9-1.1,9.7-1.8,14.6c-0.4,2.7-0.7,5.4-1,8c-0.4,3.4-0.8,6.8-1,10.2c0.5,0.4,1.1,0.8,1.8,1c3.4,1.2,6.5,1.2,9.2,0
				c0.1-0.7,0.2-1.5,0.3-2.2c0.8-5.1,1.7-10.1,2.6-15.1c0.2-1.2,0.4-2.5,0.7-3.7c0.6-3.3,1.1-6.6,1.7-9.9
				c1.8-11.2,3.4-22.4,4.7-33.7c0.1-1,0.2-2.1,0.2-3.2c0-2.1,0.7-3.7,2-4.8l0.7,0.4c0.1,0.2,0.1,0.3,0.2,0.5
				c0.4,2.8,0.4,5.6-0.1,8.4c-0.7,4.1-1.4,8.3-1.9,12.5c-1,7.3-2.2,14.6-3.5,21.9c-0.9,4.8-1.7,9.6-2.7,14.4c-0.5,2.7-1,5.3-1.5,8
				c-0.4,2-0.7,4-1,6.1c6.4,0.9,13,1.5,19.8,1.9c0.4,0,0.7,0.1,1.1,0.1c0.2-1,0.5-2,0.8-3.1c1-6.1,1.6-9.3,1.7-9.5
				c0.2-0.8,0.6-1.2,1.1-1.4c-0.3,2.4-0.8,5.7-1.6,9.9c-0.3,1.6-0.5,3-0.8,4.2c8.1,0.4,15.8,0.3,23.1-0.1c0.1-0.8,0.2-1.7,0.2-2.6
				c0.6-5.9,1-9.1,1.2-9.5c0.1-0.4,0.4-0.6,0.8-0.6c0,3.1-0.4,7.3-1,12.5c6.2-0.4,12.1-1.2,17.7-2.2c0.5-2.6,1.2-5.9,2-9.8
				c0.4-1.3,0.9-1.9,1.3-2c-0.1,0.4-0.6,3.6-1.8,9.5l-0.4,2.1c1.7-0.3,3.3-0.7,4.9-1.1c2.1-0.5,4.2-1.1,6.2-1.7
				c3-18,4.9-34.5,5.7-49.5c0.2-3.1,0.3-6.2,0.4-9.2c0.4-19.2,0.7-30.8,0.6-34.8c0-0.2,0-0.4,0-0.6c-0.1,0.1-0.2,0.2-0.3,0.4
				c0,0,0,0,0,0c-0.7,1.1-1.5,2.4-2.4,4.1c-1.7,3.5-2.7,5.4-2.9,5.6c-0.7,1.1-2.2,3.4-4.5,6.8c-1.4,0.1-3.9-0.3-7.4-1.2
				c-5.6-1.4-16.1-4.7-31.2-9.8c-8.7,0.1-17.5-0.4-26.5-1.5c-14.6-1.7-27.8-4.6-39.5-8.6c-4.7-1.6-8.9-3.3-12.6-5.1
				c0,0.3-0.1,0.7-0.1,1.1c-0.2,2.9-0.5,5.8-0.8,8.7c-0.4,4.1-0.9,8.3-1.5,12.5c-2,15.3-3,30.6-3,45.9
				C122.1,253.7,122.1,262,122.1,269.8z"/>
			<path d="M145.3,314c0.1-0.4,0.9-0.8,2.2-1.1c1.4-0.3,2.2-0.9,2.5-1.7c0.2-0.5,0.3-1.2,0.2-2c-1,0.2-2.3,0.3-3.7,0.5
				c-3.2,0.3-5.5,0.7-6.7,1.1c-2.1,0.7-3.5,1.9-4.1,3.6c-0.5,1.5-0.7,2.5-0.6,3.1c0.3,1.4,1.7,2.5,4.2,3.4c7.7,2.7,14.3,1.2,20-4.6
				c3.1-3.2,5.4-6.9,6.9-10.9c0.7-1.9,1.1-4,1.3-6.5c0,0,0,0,0-0.1c0,0-0.1,0-0.1,0.1c0.1-0.5,0.1-0.9,0.2-1.4c0-1,0-2.2,0-3.3
				c-2.6,0.2-5.3-0.2-8.3-1.2c-0.1,0-0.3-0.1-0.4-0.1c-0.3,0.3-0.7,0.6-1.1,0.9c-3.4,2.9-5.2,5-5.6,6c-0.5,1.4-0.5,3.5,0,6.2
				c0.5,2.7,0.5,4.7,0,6c-0.4,1.1-1,2.1-1.7,2.8c-1.2,1.2-2.6,1.5-4.3,0.9c-0.4-0.1-0.7-0.3-0.8-0.5c0-0.2-0.1-0.3-0.2-0.5
				C145,314.9,145.1,314.7,145.3,314z"/>
			<path d="M157.9,289.7c0.1,0,0.3,0.1,0.4,0.2c0,0,0.1,0,0.1,0c0.3,0.2,0.6,0.3,1,0.5l0.7,0.2c0.3,0.1,0.6,0.2,1,0.2l0,0
				c2.5,0.7,4.9,0.9,7.3,0.6c0.2-1.6,0.4-3.1,0.7-4.6c-2.8,0.9-6,0.8-9.4-0.4c-0.5-0.2-1-0.4-1.4-0.6c0,0,0,0,0,0.1
				C158.1,287.1,158,288.4,157.9,289.7z"/>
			<path d="M190.9,414.2c1.7-0.4,3.7-1.1,5.7-1.9c0,0,0,0,0.1,0c-0.2-0.6-0.5-1.3-0.7-2c-0.2,0-0.4,0-0.5,0c0.1-0.2,0.2-0.4,0.4-0.6
				c-1.8-6.2-2.7-12.8-2.7-19.7c0-10.3,0.7-17.9,2-22.8c1.3-4.9,2.5-8.8,3.5-11.9c1.5-4.4,2.5-7,2.8-7.8c1.3-3.1,2.9-5.2,4.7-6.4
				c0.2,0.1,0.4,0.3,0.6,0.5c0.2,0.3,0.2,0.6,0,1c-0.1,0.2-1,2.2-2.8,6.2c-1.8,4-2.9,6.4-3.3,7.4c-2.3,6.6-3.8,12-4.5,16.1
				c-0.7,4.9-1,11-0.7,18.3c0.3,6.6,1,12.3,2,17.2c3.2-0.4,6.4-1.7,9.5-4c-0.9-2.1-1.4-4.4-1.5-7c-0.4-10.1,0.2-20.1,1.7-30.1
				c2-13.3,8.8-23.9,18.3-33.6c22.8-23.4,29.9-50.6,30.7-53.4c-5.3,2.9-10.8,4.7-16.4,5.3c-2.7,0.3-7.8,0.9-15.3,1.9
				c-7.5,1-15.8,1.4-24.9,1.4c-8.2-0.1-17.7-0.9-28.3-2.3c-0.2,1.5-0.4,3.1-0.6,4.7c-0.1,0.7,0.1,19.5-9.7,27.8
				c-6.7,5.7-13.4,8-22.2,5c-3.8-1.3-5.8-3.2-6-5.6c-0.1-0.8,0-1.6,0.3-2.5c0.4-0.9,0.6-1.4,0.6-1.5c0.8-2.4,2.4-4,4.6-5
				c1.6-0.7,3.8-1.2,6.8-1.4c2.1-0.2,3.8-0.3,4.9-0.5c0-0.3-0.1-0.6-0.2-0.9c0-0.2-0.1-0.4-0.1-0.5c-1.4-0.4,3.4-16,5.8-15.5
				c0.2-2.2,0.3-4.4,0.5-6.6c-7.6-1.6-14.8-3.6-21.5-5.9c-4.6-1.6-8.7-3.2-12.4-4.7c0,2.1,0,15.1,3.5,30.1c2,8.4,5.2,15.6,10,21.6
				c4.6,5.7,10.7,10.3,18.2,13.7c4.1,1.7,7.2,3,9.3,3.8c3.6,1.5,6.7,3.1,9.3,4.8c2.6,1.6,4,3.4,4.3,5.4c0,0.3,0.1,0.6,0.1,0.9
				c0,0,0,0,0,0l0,0.2c1.1,34,0.5,54.3-1.6,61C180.2,415.4,185.5,415.5,190.9,414.2z"/>
			<path d="M176.4,424.4c11.3,3.3,21,4.9,29,4.8c10.2-0.1,18.1-1.1,23.8-2.9c1.4-0.4,2.6-0.9,3.9-1.5c0-0.1-0.1-0.1-0.1-0.2
				c-0.7-1.9-2.5-3.4-5.3-4.4c-1.8-0.6-6.3-1.1-13.3-1.4c-0.7-0.1-1.3-0.1-1.9-0.1c0,0.1,0,0.1-0.1,0.2c-0.2,0.5-0.8,1.5-1.7,3
				c-0.9,1.3-1.4,2.1-1.6,2.3l-0.7,0c-0.6-0.5-0.8-1.2-0.4-2.1c0.3-0.8,0.8-1.8,1.5-3c0.1-0.2,0.2-0.3,0.3-0.5
				c-1.4-0.1-2.6-0.3-3.8-0.4l-1.7,4.9c-0.2-0.1-0.6,0-1.2,0.1c-0.5-0.9-0.4-2.1,0.1-3.7c0.2-0.6,0.5-1.2,0.7-1.6
				c-0.9-0.1-1.6-0.3-2.3-0.4c-0.3,0.9-1.3,2.6-2.7,5.2c-0.2-0.1-0.6,0-1.2,0.1c-0.5-1-0.6-1.7-0.4-2.3c0.3-1,0.9-2,1.7-3.2
				c0.1-0.2,0.3-0.3,0.4-0.5c-1-0.3-2-0.9-2.8-1.4c-1.6,0.6-3.3,1.1-5.3,1.4c-4.7,0.9-9.2,1-13.3,0.3c-0.2,0.5-0.5,1.1-0.7,1.6
				c-0.2,0.7-0.5,1.9-0.6,3.6C176.5,423,176.4,423.7,176.4,424.4z"/>
			<path d="M233,428.6c0.2-0.5,0.3-0.9,0.3-1.4c-6.8,2.7-15.4,4-25.8,3.7c-7.9-0.2-16.6-1.2-25.8-3.2c-1.9-0.4-3.7-0.8-5.4-1.2
				c0,0.8,0.1,1.5,0.1,2.2c0,0.5,0.1,0.9,0.2,1.3c12.6,3.7,25.3,4.8,38,3.4c4.9-0.5,9.3-1.4,13.3-2.6
				C231.1,429.9,232.8,429.1,233,428.6z"/>
			<path d="M237.8,421.3c0.4-0.2,0.8-0.4,1.2-0.7c0-0.6-0.1-1.2-0.3-1.9c-0.7-2.4-2.5-4.1-5.4-5.1c-1.8-0.6-3.7-1-5.8-1.2
				c-1.1-0.1-2.9-0.1-5.7-0.1c-0.8,0-1.6,0-2.4,0c0,0.1-0.1,0.3-0.1,0.4c-0.3,1-1,2-1.9,2.9l-0.7,0c-0.5-0.4-0.7-0.8-0.7-1.1
				c0-0.1,0.1-0.5,0.3-1c0.1-0.4,0.4-0.8,0.7-1.3c-1-0.1-2-0.2-2.9-0.4c-0.1,0.3-0.2,0.5-0.3,0.8c-0.3,0.8-0.6,1.5-0.9,2.1
				c0,0-0.4,0-1.1,0.1c-0.6-0.6-0.6-1.6-0.2-2.9c0.1-0.2,0.1-0.4,0.2-0.5c-0.7-0.2-1.5-0.4-2.2-0.6l-1.1,3.3c-0.2-0.1-0.6,0-1.2,0.1
				c-0.4-0.5-0.6-1.1-0.6-1.7c0-0.1,0.2-0.6,0.5-1.4c0.1-0.4,0.3-0.7,0.4-1c-1.4-0.6-2.5-1.2-3.4-2c-2,1-3.9,1.6-5.9,1.9
				c0.1,0.5,0.2,1,0.4,1.5c0,0,0.1,0,0.2,0c0.1,0.2,0.2,0.4,0.5,0.6c0,0,0,0,0,0c0.4,0.6,0.7,1,0.9,1.3c-0.3,0.2-0.6,0.5-1,0.7
				c4,1.1,9.1,1.8,15.4,2.1c4.1,0.2,6.6,0.3,7.6,0.4c2.6,0.2,4.8,0.6,6.4,1.2c3,1,5.1,2.7,6.2,4.8
				C235.7,422.3,236.7,421.9,237.8,421.3z"/>
			<path d="M238.4,423.6c-1,0.5-2,1-3,1.3c0,0.2,0.1,0.5,0.1,0.7c0,0,0,0,0,0.1c0.1-0.1,0.2-0.1,0.3-0.1
				C237.1,425.2,238,424.5,238.4,423.6z"/>
			<path fill="#1D1D1B" d="M151.7,145.5c2.9-2.6,5.6-5.8,7.8-9.5c0.7-1.1,1.2-2.1,1.8-3c-1.7-1.8-2.8-4.9-3.1-9.2
				c-0.1-1.9-0.1-4,0-6.2c0.1-1.6,0.2-2.6,0.3-2.9c0.2-0.8,0.5-1.4,0.7-1.9c0.3-1,0.8-1.7,1.4-2.3c1.6-1.7,4.2-1.9,7.6-0.7
				c5,1.7,8.2,6,9.6,13l4.9-2.2c-0.6-1.2-1-2.4-1.5-3.7c-0.5-1.7-1-3.6-1.3-5.8c-0.4-2.3-0.5-5-0.2-8.3c0.3-3.3,1.7-5.7,4.4-7.1
				c2.7-1.4,5.5-1.8,8.6-1.3c3,0.5,5.6,0.5,7.8,0.1c2.1-0.4,3.6-1.1,4.5-1.9c0.9-0.8,1.1-2.1,0.6-3.7c-0.5-1.7-0.7-2.7-0.7-3.2
				c0.1-2.8,1.4-4.5,4-5.3c1.8-0.5,3.6-0.6,5.5-0.3c5.2,1,9.9,3.1,13.9,6.5c1.4,1.2,2.7,1.6,4,1.3c1.2-0.3,2.3-1.3,3.1-2.9
				c0.8-1.6,1.5-3.2,2.2-4.8c1.5-0.9,3.1-1.2,4.8-1.1c4,0.5,8,1.2,12,2.1c1.7,0.3,3.2,0.1,4.8-0.6c1-2.5,0.5-4.9-1.4-7.2
				c-0.9-1.1-1.8-2.1-2.7-3.2c-2.6-3.4-5.7-6.2-9.3-8.7c-3.4-2.4-7.1-4.6-10.8-6.5c-6-3-12.2-5-18.7-6.1l0.1-0.2
				c-1.8-0.3-3.6-0.5-5.5-0.7c-5.3-0.5-10.6-0.8-16-0.8c-5.8-0.1-11.6,0.6-17.3,2.1c-5.3,1.3-10,3.8-14.2,7.3c-2,1.9-4.7,5-7.9,9.2
				c-3.2,4.2-5.7,8.9-7.5,14.3c-1.8,5.3-3.5,10.1-5.1,14.3c-1.6,4.3-3.2,9.6-4.7,16.2c-1.6,6.6-3,13.7-4.3,21.5
				c-1.2,7-2.4,14.1-3.5,21.2C138.3,153.8,145.3,151.2,151.7,145.5z"/>
			<path fill="#FCD4A4" d="M216.6,48.8c0,0-0.1,0-0.1,0l-0.1,0.2C216.5,48.9,216.5,48.9,216.6,48.8z"/>
			<path fill="#FCD4A4" d="M255.1,84.1c-2.2-0.5-4.4-1.2-6.4-2.2c-2.8-1.3-5.6-1.4-8.3-0.2c-0.2,0-0.3,0.2-0.4,0.4
				c-1.1,2.8-2.7,5.2-4.8,7.3c-0.5,0.5-1.1,0.8-1.8,1c-2.9,0.4-5.3-0.4-7.5-2.5c-0.9-0.9-2.7-2.1-5.6-3.9c-2.8-1.7-5.5-2.4-7.9-2
				c-2.5,0.4-3.9,0.8-4.1,1.2c-0.2,0.4-0.6,0.9-1.1,1.3c0.9,2.5,1.1,5.1,0.4,7.6c-0.2,0.9-0.9,1.9-2.1,3.1c-1.2,1.2-3.3,1.5-6.6,1
				c-3.3-0.5-6.2-0.5-8.8-0.1c-2.5,0.4-4.1,0.8-4.7,1.1c-2.4,1.5-3.6,3.7-3.7,6.8c-0.1,3,0.3,6.3,1.1,9.8c0.6,2.5,1.5,4.8,2.7,6.9
				c0,0-0.1,0.1-0.1,0.1c0.2,0.3,0.4,0.5,0.7,0.8c-3.6,1.7-6.8,3.1-9.4,4.2c-0.2,0.2-0.5,0.3-0.6,0.5c0-0.1-0.1-0.2-0.1-0.2
				c-0.1,0-0.1,0.1-0.2,0.1c0-0.1,0-0.3,0-0.4c0-0.1,0-0.2,0.1-0.3c-1.1-7.4-3.9-11.9-8.5-13.4c-2.6-0.9-4.4-0.6-5.6,0.8
				c-0.6,0.7-0.9,1.5-1.1,2.4c-0.7,10.2,0.6,15.8,3.7,16.9c2.5,0.9,4.1,1.1,4.7,0.7c0.2-0.3,0.5-0.5,0.6-0.6
				c0.3-0.3,0.8-0.3,1.4-0.3c0.3,0.2,0.5,0.4,0.6,0.5c0.2,0.3,0.2,0.6,0,1c-0.8,2.3-3.5,2.7-8.1,1.1c-0.2-0.1-0.3-0.1-0.5-0.2
				c-0.6,1.1-1.2,2.2-1.9,3.4c-2.5,3.9-5.3,7.3-8.5,10.2c-6.7,5.9-14.2,8.6-22.5,8c-1,6.2-1.8,13.1-2.4,18.9
				c4.1,2.2,8.5,4.1,13.3,5.8c14,4.8,31.2,8,51.8,9.3c8.9,0.6,17.2,0.7,24.9,0.4c7.7-0.3,13.8-1.1,18.4-2.2c7.7-2,15.8-4.6,24.5-8.1
				c0.8-1,1.7-2.2,2.6-3.2c0.2-1.3,0.4-2.9,0.8-4.1c0.3-1.1,0.2-42.9,0.3-43.8c0.5-5-0.8-17.2-0.9-17.3c-1,0.2-2.1,0.2-3.2,0.1
				c-0.4-0.1-0.7-0.1-1-0.2c-0.4-0.1-0.6-0.2-0.9-0.3c-1.4-0.5-2.6-1.3-3.6-2.3c-0.3-0.3-0.6-0.7-0.9-1c-0.5-0.7-0.9-1.3-1.2-2
				c-0.2-0.4-0.3-0.9-0.4-1.3c-0.1-0.3-0.1-0.6-0.2-0.9c-0.1-0.9-0.2-1.9,0-3c0,0,0,0,0-0.1c0.2-1.3,0.6-2.5,1.2-3.6
				c0.7-1.1,1.5-2,2.6-2.8c1-0.8,2.1-1.3,3.1-1.6 M247.3,105.4c0-0.2,0.3-0.1,1,0.1c0.5,0.2,2.2,3.3,4.8,9.3c2.7,6,4,9.3,3.8,9.7
				c-0.8,2.2-3,2.6-6.6,1.4c-0.7-0.2-1.2-0.6-1.4-1.1c-0.1,0.3-0.1,0.1,0.1-0.7c0.1-0.3,0.5-0.4,1.1-0.3c1.4,0.1,2.9,0.2,4.4,0.1
				c-0.3-1.9-1.7-5.4-4.1-10.3c-2.5-4.9-3.7-7.5-3.7-7.6C247,106,247.2,105.8,247.3,105.4z M189.1,130.6c-1.7,0.9-3.9,1.9-6.4,3.1
				c-2,1-3.9,1.8-5.7,2.6c0-0.6-0.1-1.2-0.2-1.7c0-0.3,0-0.6-0.1-0.9l11.7-5.3C188.6,129.3,188.9,130,189.1,130.6z M187.6,126.2
				c0.1,0.5,0.3,1,0.5,1.5c-1.2,0.5-2.5,1.1-4,1.9c-2.8,1.3-5.3,2.5-7.5,3.4c-0.1-0.9-0.2-1.7-0.3-2.5l11.1-5
				C187.5,125.7,187.6,126,187.6,126.2z M186.7,122.3c0.2,0.8,0.3,1.6,0.6,2.3c-0.5,0.3-1.1,0.5-1.6,0.8c-3.6,1.7-6.8,3.1-9.5,4.2
				c-0.2-0.9-0.3-1.7-0.5-2.3L186.7,122.3z M167,128.1c-1.6-0.6-2.5-1.6-2.5-2.9c0-0.5,0.1-0.9,0.3-1.4c0.1-0.4,0.2-0.6,0.2-0.7
				c0.3-0.9,0.5-1.4,0.7-1.6c0.5-0.4,1.4-0.5,2.8-0.2c-0.2-0.5-0.7-1.1-1.4-1.9c-0.4-0.4-1-1.1-1.8-1.9c-0.2,0.3-0.2,0,0.1-0.7
				c0.2-0.5,0.4-0.7,0.6-0.7c0.2,0,0.5,0.1,1.2,0.3c2.7,0.9,4.2,2.7,4.5,5.3c0.1,1.4,0,2.8-0.5,4.2c-0.4,1.2-0.7,1.9-0.8,2
				C169.6,128.6,168.5,128.6,167,128.1z"/>
			<path d="M251.8,105.3c0-0.1,0-0.1-0.1-0.2C251.8,105.2,251.8,105.2,251.8,105.3z"/>
			<path d="M250.7,113.8c2.4,4.9,3.8,8.4,4.1,10.3c-1.5,0.1-3.1,0.1-4.4-0.1c-0.7-0.1-1,0-1.1,0.3c-0.2,0.7-0.3,0.9-0.1,0.7
				c0.2,0.5,0.7,0.9,1.4,1.1c3.6,1.3,5.8,0.8,6.6-1.4c0.2-0.5-1.1-3.7-3.8-9.7c-2.7-6.1-4.3-9.2-4.8-9.3c-0.7-0.2-1-0.3-1-0.1
				c-0.2,0.4-0.3,0.6-0.4,0.8C246.9,106.3,248.1,108.8,250.7,113.8z"/>
			<path d="M171.6,121.7c-0.3-2.6-1.8-4.4-4.5-5.3c-0.6-0.2-1-0.3-1.2-0.3c-0.2,0-0.5,0.3-0.6,0.7c-0.2,0.7-0.3,0.9-0.1,0.7
				c0.8,0.9,1.4,1.5,1.8,1.9c0.7,0.8,1.2,1.4,1.4,1.9c-1.4-0.3-2.3-0.2-2.8,0.2c-0.1,0.1-0.4,0.7-0.7,1.6c0,0-0.1,0.3-0.2,0.7
				c-0.2,0.5-0.2,1-0.3,1.4c0,1.4,0.9,2.4,2.5,2.9c1.6,0.5,2.7,0.5,3.3-0.2c0.1-0.2,0.4-0.8,0.8-2
				C171.5,124.5,171.7,123.1,171.6,121.7z M168.6,126.1l-1.6-0.5c-0.1-0.4-0.2-0.6-0.2-0.6c0.1-0.4,0.1-0.8,0.2-1
				c0.1-0.4,0.6-0.5,1.2-0.2c0.6,0.4,1,0.5,1,0.5L168.6,126.1z"/>
			<path fill="#FCD4A4" d="M167,124c-0.1,0.2-0.1,0.6-0.2,1c0.1,0,0.2,0.3,0.2,0.6l1.6,0.5l0.6-1.8c0,0-0.4-0.2-1-0.5
				C167.6,123.5,167.2,123.5,167,124z"/>
			<path d="M185.6,125.4c0.6-0.3,1.1-0.5,1.6-0.8c-0.2-0.7-0.4-1.5-0.6-2.3l-11.1,5c0.2,0.7,0.3,1.5,0.5,2.3
				C178.8,128.5,182,127.1,185.6,125.4z"/>
			<path d="M176.6,133c2.3-1,4.8-2.1,7.5-3.4c1.5-0.7,2.8-1.3,4-1.9c-0.1-0.5-0.3-1-0.5-1.5c-0.1-0.2-0.1-0.5-0.2-0.7l-11.1,5
				C176.4,131.3,176.5,132.1,176.6,133z"/>
			<path d="M176.8,134.7c0.1,0.5,0.1,1.1,0.2,1.7c1.8-0.8,3.7-1.6,5.7-2.6c2.6-1.2,4.7-2.3,6.4-3.1c-0.2-0.6-0.5-1.3-0.7-2.1
				l-11.7,5.3C176.8,134.1,176.8,134.4,176.8,134.7z"/>
			<path fill="#FFFFFF" d="M256.2,94.7c-2,1.5-3.1,3.4-3.5,5.9c-0.2,1-0.1,2,0,3c0.3,1.3,0.8,2.5,1.6,3.6c1.5,2,3.4,3.1,5.9,3.5
				c1,0.1,2,0.1,2.9-0.1c0,0,0.1,0,0.1,0c0.7-0.1,1.2-0.3,1.8-0.6c0.6-0.3,1.1-0.6,1.7-1c0,0,0,0,0.1-0.1c1.1-0.8,2-1.9,2.5-3
				c0.4-0.9,0.8-1.8,0.9-2.9c0.4-2.5-0.2-4.6-1.7-6.6c-1.5-2-3.4-3.1-5.9-3.4c-0.5-0.1-1-0.1-1.4-0.1c-0.8,0-1.5,0.1-2.3,0.3
				C258.1,93.6,257.1,94.1,256.2,94.7z"/>
			<path d="M259.2,106.8c0.4,0.4,1,0.5,1.6,0.4c0.9-0.2,1.4-0.6,1.6-1.3c0.1-0.3,0.2-0.7,0.1-1.1c-0.3-1.4-1.1-1.9-2.4-1.7
				c-0.5,0.1-0.9,0.3-1.2,0.5c0.1,0,0.2,0,0.2-0.1c0.6-0.1,1,0.1,1,0.6c0,0.2,0,0.3,0,0.5c-0.1,0.3-0.3,0.5-0.7,0.6
				c-0.5,0.1-0.9-0.1-1-0.7c0-0.1,0-0.2,0-0.3c-0.1,0.4-0.2,0.8-0.1,1.3C258.5,106,258.7,106.5,259.2,106.8z"/>
			<path fill="#FCD4A4" d="M147.6,312.9c1.4-0.3,2.2-0.9,2.5-1.7c0.2-0.5,0.3-1.2,0.2-2c-1,0.2-2.3,0.3-3.7,0.5
				c-3.2,0.3-5.5,0.7-6.7,1.1c-2.1,0.7-3.5,1.9-4.1,3.6c-0.5,1.5-0.7,2.5-0.6,3.1c0.3,1.4,1.7,2.5,4.2,3.4c7.7,2.7,14.3,1.2,20-4.6
				c3.1-3.2,5.4-6.9,6.9-10.9c0.7-1.9,1.1-4,1.3-6.5l-0.1,0c0.1-0.5,0.1-0.9,0.2-1.4c0-1,0-2.2,0-3.3c-2.6,0.2-5.3-0.2-8.3-1.2
				c-0.1,0-0.3-0.1-0.4-0.1c-0.3,0.3-0.7,0.6-1.1,0.9c-3.4,2.9-5.2,5-5.6,6c-0.5,1.4-0.5,3.5,0,6.2c0.5,2.7,0.5,4.7,0,6
				c-0.4,1.1-1,2.1-1.7,2.8c-1.2,1.2-2.6,1.5-4.3,0.9c-0.4-0.1-0.7-0.3-0.8-0.5c0-0.2-0.1-0.3-0.2-0.5c-0.2,0.3-0.2,0,0.1-0.7
				C145.5,313.6,146.2,313.2,147.6,312.9z"/>
			<path fill="#71631F" d="M237.8,421.3c0.4-0.2,0.8-0.4,1.2-0.7c0-0.6-0.1-1.2-0.3-1.9c-0.7-2.4-2.5-4.1-5.4-5.1
				c-1.8-0.6-3.7-1-5.8-1.2c-1.1-0.1-2.9-0.1-5.7-0.1c-0.8,0-1.6,0-2.4,0c0,0.1-0.1,0.3-0.1,0.4c-0.3,1-1,2-1.9,2.9l-0.7,0
				c-0.5-0.4-0.7-0.8-0.7-1.1c0-0.1,0.1-0.5,0.3-1c0.1-0.4,0.4-0.8,0.7-1.3c-1-0.1-2-0.2-2.9-0.4c-0.1,0.3-0.2,0.5-0.3,0.8
				c-0.3,0.8-0.6,1.5-0.9,2.1c0,0-0.4,0-1.1,0.1c-0.6-0.6-0.6-1.6-0.2-2.9c0.1-0.2,0.1-0.4,0.2-0.5c-0.7-0.2-1.5-0.4-2.2-0.6
				l-1.1,3.3c-0.2-0.1-0.6,0-1.2,0.1c-0.4-0.5-0.6-1.1-0.6-1.7c0-0.1,0.2-0.6,0.5-1.4c0.1-0.4,0.3-0.7,0.4-1c-1.4-0.6-2.5-1.2-3.4-2
				c-2,1-3.9,1.6-5.9,1.9c0.1,0.5,0.2,1,0.4,1.5c0,0,0.1,0,0.2,0c0.1,0.2,0.2,0.4,0.5,0.6c0,0,0,0,0,0c0.4,0.6,0.7,1,0.9,1.3
				c-0.3,0.2-0.6,0.5-1,0.7c4,1.1,9.1,1.8,15.4,2.1c4.1,0.2,6.6,0.3,7.6,0.4c2.6,0.2,4.8,0.6,6.4,1.2c3,1,5.1,2.7,6.2,4.8
				C235.7,422.3,236.7,421.9,237.8,421.3z"/>
			<path fill="#71631F" d="M229.2,426.3c1.4-0.4,2.6-0.9,3.9-1.5c0-0.1-0.1-0.1-0.1-0.2c-0.7-1.9-2.5-3.4-5.3-4.4
				c-1.8-0.6-6.3-1.1-13.3-1.4c-0.7-0.1-1.3-0.1-1.9-0.1c0,0.1,0,0.1-0.1,0.2c-0.2,0.5-0.8,1.5-1.7,3c-0.9,1.3-1.4,2.1-1.6,2.3
				l-0.7,0c-0.6-0.5-0.8-1.2-0.4-2.1c0.3-0.8,0.8-1.8,1.5-3c0.1-0.2,0.2-0.3,0.3-0.5c-1.4-0.1-2.6-0.3-3.8-0.4l-1.7,4.9
				c-0.2-0.1-0.6,0-1.2,0.1c-0.5-0.9-0.4-2.1,0.1-3.7c0.2-0.6,0.5-1.2,0.7-1.6c-0.9-0.1-1.6-0.3-2.3-0.4c-0.3,0.9-1.3,2.6-2.7,5.2
				c-0.2-0.1-0.6,0-1.2,0.1c-0.5-1-0.6-1.7-0.4-2.3c0.3-1,0.9-2,1.7-3.2c0.1-0.2,0.3-0.3,0.4-0.5c-1-0.3-2-0.9-2.8-1.4
				c-1.6,0.6-3.3,1.1-5.3,1.4c-4.7,0.9-9.2,1-13.3,0.3c-0.2,0.5-0.5,1.1-0.7,1.6c-0.2,0.7-0.5,1.9-0.6,3.6c-0.1,0.7-0.2,1.4-0.2,2.1
				c11.3,3.3,21,4.9,29,4.8C215.6,429,223.5,428.1,229.2,426.3z"/>
			<path fill="#B78917" d="M207.4,430.9c-7.9-0.2-16.6-1.2-25.8-3.2c-1.9-0.4-3.7-0.8-5.4-1.2c0,0.8,0.1,1.5,0.1,2.2
				c0,0.5,0.1,0.9,0.2,1.3c12.6,3.7,25.3,4.8,38,3.4c4.9-0.5,9.3-1.4,13.3-2.6c3.2-1,4.9-1.7,5.1-2.2c0.2-0.5,0.3-0.9,0.3-1.4
				C226.5,429.9,217.9,431.1,207.4,430.9z"/>
			<path fill="#B78917" d="M217,422.1c0,0.2,0.1,0.5,0.1,0.7l0.3,0c1.3-0.4,2.2-1.1,2.6-2C219.1,421.3,218.1,421.8,217,422.1z"/>
			<path fill="#086A73" d="M158.4,289.8c0.3,0.2,0.6,0.3,1,0.5l0.7,0.2c0.3,0.1,0.6,0.2,1,0.2l0,0c2.5,0.7,4.9,0.9,7.3,0.6
				c0.2-1.6,0.4-3.1,0.7-4.6c-2.8,0.9-6,0.8-9.4-0.4c-0.5-0.2-1-0.4-1.4-0.6c0,0,0,0,0,0.1c-0.1,1.3-0.1,2.5-0.2,3.8
				C158.1,289.7,158.2,289.8,158.4,289.8C158.4,289.9,158.4,289.8,158.4,289.8z"/>
			<path fill="#1CB1BF" d="M260.6,189.7c-1.9-1.4-3.2-2.5-4.1-3.4c0.7,15,0.5,30-0.4,45c-0.1,1.4-0.2,2.8-0.2,4.2
				c-1,14.6-2.7,29.1-5.1,43.6c1.8-0.7,3.6-1.5,5.3-2.4c0.3-0.2,0.7-0.3,1-0.5c1.2-4.7,2.2-9.5,2.9-14.3c1.5-9.3,2.7-18.7,3.6-28
				c0.1-0.7,0.1-1.3,0.2-2c1.1-13.3,1.1-26.6,0.1-39.9C262.9,191.4,261.8,190.7,260.6,189.7z M254.4,261.7c0.1-0.4,0.4-0.8,0.9-1.1
				c0.6-0.4,1.2-0.5,2-0.3c0.8,0.3,1.3,0.8,1.4,1.6c0.1,0.4,0.1,0.8,0,1.2c-0.1,0.4-0.5,0.8-0.9,1.1c-0.6,0.4-1.3,0.5-2,0.3
				C254.3,264,253.8,263,254.4,261.7z M259.8,236.7c0.9,0.3,1.4,0.8,1.5,1.6c0.1,0.4,0,0.8-0.1,1.2c-0.5,1.4-1.4,1.9-2.8,1.4
				c-1.5-0.5-1.9-1.4-1.4-2.8c0.2-0.5,0.5-0.8,0.9-1.1C258.5,236.5,259.1,236.5,259.8,236.7z M258.8,213.8c0.6-0.4,1.3-0.5,2-0.3
				c0.8,0.3,1.4,0.8,1.5,1.6c0.1,0.5,0,0.9-0.1,1.2c-0.1,0.4-0.4,0.8-0.9,1.1c-0.6,0.5-1.2,0.5-2,0.3c-1.5-0.5-1.9-1.4-1.4-2.8
				C258.1,214.5,258.4,214.1,258.8,213.8z M262.7,195.9c-0.1,0.4-0.4,0.8-0.9,1.1c-0.6,0.4-1.2,0.5-2,0.3c-1.5-0.5-1.9-1.5-1.4-2.8
				c0.1-0.4,0.5-0.8,0.9-1.1c0.6-0.4,1.3-0.5,2-0.3c0.8,0.3,1.3,0.8,1.5,1.6C262.9,195.1,262.8,195.5,262.7,195.9z"/>
			<path fill="#086A73" d="M243.1,191.2c-0.4-0.1-0.7-0.1-1.1,0.1c-0.3,0.2-0.6,0.4-0.7,0.7c-0.3,0.9,0,1.5,0.8,1.8
				c0.3,0.1,0.7,0.1,1.1-0.1c0.3-0.2,0.6-0.4,0.7-0.7c0.1-0.3,0.1-0.5,0-0.8C243.9,191.7,243.6,191.3,243.1,191.2z"/>
			<path fill="#1CB1BF" d="M256.9,183.3c1.2,0.6,2.8,1.7,4.8,3.4c3,2.5,4.6,3.7,4.8,3.9c-0.7-4.2-1.3-7.5-1.6-10
				c-1.3,0.4-2.6,0.9-4,1.4C259.6,182.4,258.2,182.9,256.9,183.3z"/>
			<path fill="#1CB1BF" d="M213.6,191.7c2.7,0.8,5.5,1.7,8.4,2.6c12.2,3.8,19.1,5.7,20.5,5.7c1.5,0,2.6-1,3.3-3
				c0.7-2,1.4-3.4,2.1-4.1c1-2.4,1.9-4.5,2.8-6.2c0.4-0.7,0.8-1.4,1.2-1.9c-2.3,0.7-4.6,1.4-6.9,2.1c-4.9,1.4-8,2.3-9.4,2.5
				C228.4,190.7,221,191.4,213.6,191.7z"/>
			<path fill="#F18B00" d="M254.5,186.4C254.4,186.4,254.4,186.4,254.5,186.4l0.3,0.2L254.5,186.4z"/>
			<path fill="#1CB1BF" d="M132.9,269.7c0.1-1.9,0.3-4,0.7-6.3c0.3-1.7,0.4-2.7,0.5-2.9c0.3-1,0.7-1.6,1.2-1.7
				c-0.1,0.6-0.3,2.3-0.7,5.1c-0.4,2.6-0.7,4.8-0.7,6.3c-0.1,1.6-0.1,3-0.1,4.2c0.5,0.2,1,0.3,1.5,0.5c3.4,1.2,6.8,2.2,10.3,3.2
				c0.2-2.4,0.5-5.5,1-9.1c0.1-0.4,0.2-0.7,0.3-0.8c0.1-0.2,0.3-0.3,0.7-0.2c0.1,0-0.1,2.8-0.6,8.4c0,0.6,0,1.3,0.1,2.2
				c3,0.8,6,1.6,9.2,2.2c0.1-1.2,0.2-2.4,0.3-3.6c0.5-5.1,1-10.1,1.6-15.2c0.2-1.3,0.3-2.5,0.4-3.8c0.4-3.3,0.8-6.7,1.1-10
				c1.1-11.3,2-22.6,2.6-33.9c0.1-1.1,0.1-2.1,0-3.2c-0.1-2.1,0.4-3.7,1.7-4.9l0.8,0.4c0.1,0.2,0.1,0.3,0.2,0.4
				c0.5,2.8,0.7,5.6,0.4,8.5c-0.4,4.1-0.9,8.3-1.1,12.5c-0.6,7.4-1.3,14.8-2.1,22.1c-0.5,4.9-1.1,9.7-1.8,14.6c-0.4,2.7-0.7,5.4-1,8
				c-0.4,3.4-0.8,6.8-1,10.2c0.5,0.4,1.1,0.8,1.8,1c3.4,1.2,6.5,1.2,9.2,0c0.1-0.7,0.2-1.5,0.3-2.2c0.8-5.1,1.7-10.1,2.6-15.1
				c0.2-1.2,0.4-2.5,0.7-3.7c0.6-3.3,1.1-6.6,1.7-9.9c1.8-11.2,3.4-22.4,4.7-33.7c0.1-1,0.2-2.1,0.2-3.2c0-2.1,0.7-3.7,2-4.8
				l0.7,0.4c0.1,0.2,0.1,0.3,0.2,0.5c0.4,2.8,0.4,5.6-0.1,8.4c-0.7,4.1-1.4,8.3-1.9,12.5c-1,7.3-2.2,14.6-3.5,21.9
				c-0.9,4.8-1.7,9.6-2.7,14.4c-0.5,2.7-1,5.3-1.5,8c-0.4,2-0.7,4-1,6.1c6.4,0.9,13,1.5,19.8,1.9c0.4,0,0.7,0.1,1.1,0.1
				c0.2-1,0.5-2,0.8-3.1c1-6.1,1.6-9.3,1.7-9.5c0.2-0.8,0.6-1.2,1.1-1.4c-0.3,2.4-0.8,5.7-1.6,9.9c-0.3,1.6-0.5,3-0.8,4.2
				c8.1,0.4,15.8,0.3,23.1-0.1c0.1-0.8,0.2-1.7,0.2-2.6c0.6-5.9,1-9.1,1.2-9.5c0.1-0.4,0.4-0.6,0.8-0.6c0,3.1-0.4,7.3-1,12.5
				c6.2-0.4,12.1-1.2,17.7-2.2c0.5-2.6,1.2-5.9,2-9.8c0.4-1.3,0.9-1.9,1.3-2c-0.1,0.4-0.6,3.6-1.8,9.5l-0.4,2.1
				c1.7-0.3,3.3-0.7,4.9-1.1c2.1-0.5,4.2-1.1,6.2-1.7c3-18,4.9-34.5,5.7-49.5c0.2-3.1,0.3-6.2,0.4-9.2c0.4-19.2,0.7-30.8,0.6-34.8
				l-0.3-0.3c-0.7,1.1-1.5,2.4-2.4,4.1c-1.7,3.5-2.7,5.4-2.9,5.6c-0.7,1.1-2.2,3.4-4.5,6.8c-1.4,0.1-3.9-0.3-7.4-1.2
				c-5.6-1.4-16.1-4.7-31.2-9.8c-8.7,0.1-17.5-0.4-26.5-1.5c-14.6-1.7-27.8-4.6-39.5-8.6c-4.7-1.6-8.9-3.3-12.6-5.1
				c0,0.3-0.1,0.7-0.1,1.1c-0.2,2.9-0.5,5.8-0.8,8.7c-0.4,4.1-0.9,8.3-1.5,12.5c-2,15.3-3,30.6-3,45.9c0,8.8,0,17.1,0,24.9
				c3.2,1.4,6.8,2.8,10.8,4.2C132.8,272.8,132.8,271.4,132.9,269.7z"/>
			<path fill="#FCD4A4" d="M254.8,186c-0.1,0.1-0.2,0.2-0.3,0.4l0.3,0.2C254.8,186.4,254.8,186.2,254.8,186z"/>
			<path fill="#F18B00" d="M196.6,412.3C196.6,412.3,196.6,412.3,196.6,412.3c-0.1-0.7-0.4-1.4-0.6-2c-0.2,0-0.4,0-0.5,0
				c0.1-0.2,0.2-0.4,0.4-0.6c-1.8-6.2-2.7-12.8-2.7-19.7c0-10.3,0.7-17.9,2-22.8c1.3-4.9,2.5-8.8,3.5-11.9c1.5-4.4,2.5-7,2.8-7.8
				c1.3-3.1,2.9-5.2,4.7-6.4c0.2,0.1,0.4,0.3,0.6,0.5c0.2,0.3,0.2,0.6,0,1c-0.1,0.2-1,2.2-2.8,6.2c-1.8,4-2.9,6.4-3.3,7.4
				c-2.3,6.6-3.8,12-4.5,16.1c-0.7,4.9-1,11-0.7,18.3c0.3,6.6,1,12.3,2,17.2c3.2-0.4,6.4-1.7,9.5-4c-0.9-2.1-1.4-4.4-1.5-7
				c-0.4-10.1,0.2-20.1,1.7-30.1c2-13.3,8-24.7,18.3-33.6c21.9-19.3,29.9-50.6,30.7-53.4c-5.3,2.9-10.8,4.7-16.4,5.3
				c-2.7,0.3-7.8,0.9-15.3,1.9c-7.5,1-15.8,1.4-24.9,1.4c-8.2-0.1-17.7-0.9-28.3-2.3c-0.2,1.5-0.4,3.1-0.6,4.7
				c-0.1,0.7,0.2,19.2-9.7,27.8c-6.6,5.7-13.4,8-22.2,5c-3.8-1.3-5.8-3.2-6-5.6c-0.1-0.8,0-1.6,0.3-2.5c0.4-0.9,0.6-1.4,0.6-1.5
				c0.8-2.4,2.4-4,4.6-5c1.6-0.7,3.8-1.2,6.8-1.4c2.1-0.2,3.8-0.3,4.9-0.5c0-0.3-0.1-0.6-0.2-0.9c0-0.2-0.1-0.4-0.1-0.5
				c-1.4-0.4,3.4-16,5.8-15.5c0.2-2.2,0.3-4.4,0.5-6.6c-7.6-1.6-14.8-3.6-21.5-5.9c-4.6-1.6-8.7-3.2-12.4-4.7c0,2.1-1,11.7,3.5,30.1
				c2,8.4,5.2,15.6,10,21.6c4.6,5.7,10.7,10.3,18.2,13.7c4.1,1.7,7.2,3,9.3,3.8c3.6,1.5,6.7,3.1,9.3,4.8c2.6,1.6,4,3.4,4.3,5.4
				c0,0.3,0.1,0.6,0.1,0.9c0,0.1,0,0.1,0,0.2c1.1,34,0.5,54.3-1.6,61c5.1,1.6,10.4,1.7,15.8,0.4
				C192.6,413.8,194.6,413.1,196.6,412.3z M183.5,405.6c-0.1-0.2-0.2-0.3-0.2-0.5c0.1-0.1,0.2-0.1,0.3-0.1
				C183.6,405.2,183.5,405.4,183.5,405.6L183.5,405.6z"/>
			<path d="M183.3,405.1c0,0.2,0.1,0.3,0.2,0.5l0,0c0-0.2,0-0.4,0-0.5C183.5,405.1,183.4,405.1,183.3,405.1z"/>
			<path d="M270.3,96.6C270.4,96.6,270.4,96.6,270.3,96.6C270.4,96.6,270.4,96.6,270.3,96.6z"/>
			<g>
				<path d="M237.4,114.8c1.6-0.7,2.9-1.8,4-3.1c0.6-0.8,1.1-1.8,1.5-2.9c1-2.8,0.9-5.5-0.4-8.1c-1.3-2.7-3.3-4.5-6-5.5
					c-2.8-1-5.5-0.9-8.1,0.4c-2.6,1.2-4.5,3.2-5.5,6c-0.4,1-0.6,2.1-0.7,3.2c-0.1,1.6,0.3,3.3,1,4.9c1.3,2.7,3.2,4.5,6,5.5
					C232,116.2,234.7,116,237.4,114.8z M223.7,101.9c0.9-2.5,2.6-4.3,5-5.5c2.4-1.1,4.9-1.3,7.4-0.3c0.1,0.1,0.2,0.1,0.4,0.1
					c-3.2,1.9-5.9,3.6-8.3,5.1c-1.9,1.2-3.6,2.3-5.1,3.2C223.2,103.6,223.4,102.8,223.7,101.9z M224.1,109.3
					c-0.6-1.3-0.9-2.5-0.9-3.8c1.9-1.2,4.1-2.6,6.7-4.2c2.7-1.7,5.2-3.3,7.4-4.7c2,1,3.4,2.4,4.4,4.5c1.1,2.4,1.2,4.8,0.3,7.4
					c-0.4,1.1-0.9,2-1.6,2.9c-0.9,1.1-2,2-3.4,2.6c-1.4,0.6-2.7,1-4.1,1c-1.1,0-2.2-0.2-3.3-0.6
					C227.1,113.4,225.2,111.7,224.1,109.3z"/>
				<path fill="#FFFFFF" d="M232.9,114.9c1.4,0,2.8-0.3,4.1-1c1.4-0.6,2.5-1.5,3.4-2.6c0.7-0.8,1.2-1.8,1.6-2.9
					c0.9-2.5,0.8-5-0.3-7.4c-1-2.1-2.4-3.5-4.4-4.5c-2.2,1.4-4.7,3-7.4,4.7c-2.6,1.6-4.8,3-6.7,4.2c0,1.3,0.4,2.5,0.9,3.8
					c1.1,2.4,3,4.1,5.5,5C230.7,114.7,231.8,114.9,232.9,114.9z"/>
				<path d="M237.5,107.4c-0.2,0.5-0.5,0.6-1,0.5c-0.3-0.1-0.5-0.3-0.5-0.6c-0.1-0.2,0-0.3,0-0.5c0.2-0.5,0.5-0.6,1.1-0.4
					c0,0,0,0,0,0c-0.2-0.1-0.5-0.3-0.7-0.4c-1.3-0.5-2.1-0.1-2.5,1.1c-0.1,0.3-0.1,0.7-0.1,1c0.1,0.7,0.5,1.2,1.3,1.4
					c0.6,0.2,1.1,0.2,1.6-0.1c0.4-0.2,0.7-0.6,0.9-1c0.2-0.6,0.2-1.1,0-1.5C237.5,107.1,237.5,107.3,237.5,107.4z"/>
			</g>
		</g>
		<path d="M227.4,151.3c9.4,13.7,22.2,16.7,38.3,9.1c0.3-0.2,0.6-0.4,0.8-0.7l-1-2.2c-13.7,5.3-26,2.9-37-7.2L227.4,151.3z"/>
	</g>
</g>
<g id="ziutek_x5F_06">
</g>
<g id="ziutek_x5F_07">
</g>
<g id="ziutek_x5F_08">
</g>
<g id="ziutek_x5F_09">
</g>
<g id="ziutek_x5F_10">
</g>
<g id="lady_x5F_01">
</g>
<g id="Layer_13">
</g>
<g id="Layer_12">
</g>
<g id="Layer_14">
</g>
<g id="Layer_15">
</g>
<g id="Layer_16">
</g>
<g id="Layer_17">
</g>
<g id="Layer_18">
</g>
<g id="Layer_19">
</g>
<g id="Layer_20">
</g>
<g id="Layer_21">
</g>
<g id="Layer_22">
</g>
<g id="Layer_23">
</g>
<g id="Layer_24">
</g>
<g id="Layer_25">
</g>
<g id="Layer_26">
</g>
<g id="Layer_27">
</g>
<g id="Layer_28">
</g>
<g id="Layer_29">
</g>
<g id="Layer_30">
</g>
<g id="Layer_31">
</g>
<g id="Layer_32">
</g>
<g id="Layer_33">
</g>
<g id="Layer_34">
</g>
<g id="Layer_36">
</g>
<g id="Layer_35">
</g>
<g id="Layer_37">
</g>
<g id="Layer_38">
</g>
<g id="Layer_39">
</g>
<g id="Layer_40">
</g>
</svg>
