<?xml version="1.0" encoding="utf-8"?>
<!-- Generator: Adobe Illustrator 18.1.1, SVG Export Plug-In . SVG Version: 6.00 Build 0)  -->
<!DOCTYPE svg PUBLIC "-//W3C//DTD SVG 1.1//EN" "http://www.w3.org/Graphics/SVG/1.1/DTD/svg11.dtd">
<svg version="1.1" xmlns="http://www.w3.org/2000/svg" xmlns:xlink="http://www.w3.org/1999/xlink" x="0px" y="0px"
	 viewBox="0 0 393 483" enable-background="new 0 0 393 483" xml:space="preserve">
<g id="ziutek_x5F_01">
</g>
<g id="ziutek_x5F_02">
</g>
<g id="ziutek_x5F_03">
</g>
<g id="ziutek_x5F_04">
</g>
<g id="ziutek_x5F_05">
</g>
<g id="ziutek_x5F_06">
</g>
<g id="ziutek_x5F_07">
</g>
<g id="ziutek_x5F_08">
</g>
<g id="ziutek_x5F_09">
</g>
<g id="ziutek_x5F_10">
	<path d="M365.8,393.7c-29-35.3-50.2-61.3-63.8-77.8c-0.1-0.2-0.2-0.4-0.2-0.6c-6.5,0-13.1,0-20,0c0-0.7,0.1-1.4,0.1-2
		c0-7.1-0.4-13.8-1.3-20.3c-0.7-4.8-1.7-10.5-3.2-17.1c-2.6-11.3-3.9-17.3-4.1-18c-1.2-5.7-2.2-11.4-3-17.1c2.7-0.8,5.6-1.8,8.8-2.9
		c-0.1-0.2-0.2-0.3-0.3-0.5c0,0,0,0,0-0.1c-0.1,0-0.1,0-0.2-0.1c-2-1.5-4.2-3.5-6.6-6c-0.1-0.1-0.2-0.2-0.3-0.3
		c-0.3-13.3-0.6-26.6-0.9-39.9l-0.6-34.6c2.5-0.1,4.3-1.7,5.2-4.7c0.4-1.4,0.6-3.2,0.6-5.4c0-1.9-0.3-3.8-0.9-5.6
		c-1.2-3.7-3.3-5.5-6.4-5.5c-0.1,0-0.2,0-0.3,0c-0.9-4-1.8-8-2.9-12c-1-3.8-2.2-7.6-3.4-11.4c-0.6-1.9-1.3-3.9-2-5.8
		c-3.1-11.2-8.9-20.7-17.4-28.5c-8.5-7.8-18.5-12.5-29.9-14.3c-4.7-0.7-9.3-0.9-14-0.7c-3.5,0.3-6.9,0.7-10.4,1.3
		c-11.2,2-21.7,6.1-31.4,12c-9.6,5.8-17.4,13.5-23.5,22.9c-4.2,7.5-7.5,15.5-9.9,23.9c-1.8,6.3-2.9,12.7-3.3,19.1
		c-2.7,0-4.6,1.3-5.6,3.8c-0.5,1.4-0.8,3.3-0.8,5.7c0,2.8,0.2,4.9,0.7,6.3c0.9,3.1,2.8,4.6,5.6,4.6c0.1,0,0.2,0,0.3,0
		c0.4,11.2,1.2,22.3,2.3,33.5c1,9.5,0.5,18.8-1.4,28c-0.1,0.2-0.3,0.4-0.4,0.6c-1.1,1.2-2.5,2.7-4.2,4.5c-0.1,0.1-0.1,0.1-0.2,0.2
		l0,0c-0.1,0.1-0.1,0.1-0.1,0.2c-0.1,0.1-0.1,0.1-0.2,0.2c-0.2,0.1-0.3,0.3-0.5,0.4c0.3,0.2,0.7,0.3,1.1,0.5c0,0,0.1,0.1,0.1,0.1
		l0,0c1.8,0.8,4,1.7,6.5,2.6c-2.1,5.5-3.8,10.8-5.3,15.9c-0.3,1.2-0.7,3-1.1,5.3c-0.4,2.7-0.7,4.4-0.9,5.3c-0.2,0.9-0.7,2.7-1.7,5.5
		c-0.8,2.3-1.2,4.1-1.3,5.3c-0.2,2.4-0.7,5.5-1.4,9.4c-0.4,2.3-1.1,5.9-2,10.8c-1.7,9.5-2.6,17-2.6,22.6c0,0.8,0,1.6,0.1,2.2
		c-5.5,0-11.2,0-17.1,0c-0.1,0.2-0.2,0.4-0.4,0.5c-0.1,0.1-0.3,0.3-0.3,0.4c0,0,0,0,0,0.1c0,0,0.1,0,0.1,0
		c-13.5,16.5-34.4,42-62.9,76.8c-0.1,0-0.1,0-0.1,0c0,0,0,0.1,0,0.1c-0.1,0.1-0.2,0.2-0.3,0.3c0.1,0.1,0.2,0.3,0.3,0.5
		c0,3.7,0,7.5,0,11.4c0.1,0,0.1-0.1,0.2-0.1c0,0.2-0.1,0.5-0.1,0.7c114.6,0.3,227.6,0.4,339,0.5c0-0.1,0-0.2,0-0.3
		c0.1,0,0.1,0,0.1,0c0-3.8,0-7.7,0-11.6c0,0-0.1,0-0.1,0c0.1-0.3,0.1-0.6,0.3-0.9C365.9,393.7,365.9,393.7,365.8,393.7z"/>
	<path fill="none" d="M133,159.6c-0.1,0-0.3,0-0.4,0v0.2C132.7,159.8,132.8,159.7,133,159.6z"/>
	<path fill="none" d="M203.7,331.4c0.2,0,0.3,0,0.5,0l0-0.3C204,331.2,203.8,331.3,203.7,331.4z"/>
	<polygon fill="none" points="146.8,363.1 146.9,363.1 146.8,363 	"/>
	<path fill="none" d="M214.2,248C214.2,248,214.2,248,214.2,248L214.2,248C214.2,248.1,214.2,248,214.2,248z"/>
	<path fill="none" d="M209.7,254.5C209.7,254.5,209.7,254.5,209.7,254.5l-0.3-0.1C209.6,254.4,209.7,254.5,209.7,254.5z"/>
	<path fill="none" d="M258.7,162.8c0.1,0,0.3,0.1,0.4,0.1l0-0.2L258.7,162.8z"/>
	<path fill="none" d="M261.6,164.1c-0.2,0-0.4-0.1-0.7-0.1l-0.1,0.2L261.6,164.1z"/>
	<path fill="none" d="M201.5,237.9c-0.1,0-0.1,0-0.2,0v0.2C201.3,238.1,201.4,238,201.5,237.9z"/>
	<path fill="none" d="M133.3,163.7c-0.1,0-0.3,0-0.4,0l0,0.2L133.3,163.7z"/>
	<path fill="none" d="M131,162.5c0.1,0,0.3,0,0.4,0l0-0.2L131,162.5z"/>
	<path fill="none" d="M133.7,166.8c-0.1,0-0.1,0-0.1,0v0.1L133.7,166.8z"/>
	<path d="M365.8,393.7c-29-35.3-50.2-61.3-63.8-77.8c-0.1-0.2-0.2-0.4-0.2-0.6c-6.5,0-13.1,0-20,0c0-0.7,0.1-1.4,0.1-2
		c0-7.1-0.4-13.8-1.3-20.3c-0.7-4.8-1.7-10.5-3.2-17.1c-2.6-11.3-3.9-17.3-4.1-18c-1.2-5.7-2.2-11.4-3-17.1c2.7-0.8,5.6-1.8,8.8-2.9
		c-0.1-0.2-0.2-0.3-0.3-0.5c0,0,0,0,0-0.1c-0.1,0-0.1,0-0.2-0.1c-2-1.5-4.2-3.5-6.6-6c-0.1-0.1-0.2-0.2-0.3-0.3
		c-0.3-13.3-0.6-26.6-0.9-39.9l-0.6-34.6c2.5-0.1,4.3-1.7,5.2-4.7c0.4-1.4,0.6-3.2,0.6-5.4c0-1.9-0.3-3.8-0.9-5.6
		c-1.2-3.7-3.3-5.5-6.4-5.5c-0.1,0-0.2,0-0.3,0c-0.9-4-1.8-8-2.9-12c-1-3.8-2.2-7.6-3.4-11.4c-0.6-1.9-1.3-3.9-2-5.8
		c-3.1-11.2-8.9-20.7-17.4-28.5c-8.5-7.8-18.5-12.5-29.9-14.3c-4.7-0.7-9.3-0.9-14-0.7c-3.5,0.3-6.9,0.7-10.4,1.3
		c-11.2,2-21.7,6.1-31.4,12c-9.6,5.8-17.4,13.5-23.5,22.9c-4.2,7.5-7.5,15.5-9.9,23.9c-1.8,6.3-2.9,12.7-3.3,19.1
		c-2.7,0-4.6,1.3-5.6,3.8c-0.5,1.4-0.8,3.3-0.8,5.7c0,2.8,0.2,4.9,0.7,6.3c0.9,3.1,2.8,4.6,5.6,4.6c0.1,0,0.2,0,0.3,0
		c0.4,11.2,1.2,22.3,2.3,33.5c1,9.5,0.5,18.8-1.4,28c-0.1,0.2-0.3,0.4-0.4,0.6c-1.1,1.2-2.5,2.7-4.2,4.5c-0.1,0.1-0.1,0.1-0.2,0.2
		l0,0c-0.1,0.1-0.1,0.1-0.1,0.2c-0.1,0.1-0.1,0.1-0.2,0.2c-0.2,0.1-0.3,0.3-0.5,0.4c0.3,0.2,0.7,0.3,1.1,0.5c0,0,0.1,0.1,0.1,0.1
		l0,0c1.8,0.8,4,1.7,6.5,2.6c-2.1,5.5-3.8,10.8-5.3,15.9c-0.3,1.2-0.7,3-1.1,5.3c-0.4,2.7-0.7,4.4-0.9,5.3c-0.2,0.9-0.7,2.7-1.7,5.5
		c-0.8,2.3-1.2,4.1-1.3,5.3c-0.2,2.4-0.7,5.5-1.4,9.4c-0.4,2.3-1.1,5.9-2,10.8c-1.7,9.5-2.6,17-2.6,22.6c0,0.8,0,1.6,0.1,2.2
		c-5.5,0-11.2,0-17.1,0c-0.1,0.2-0.2,0.4-0.4,0.5c-0.1,0.1-0.3,0.3-0.3,0.4c0,0,0,0,0,0.1c0,0,0.1,0,0.1,0
		c-13.5,16.5-34.4,42-62.9,76.8c-0.1,0-0.1,0-0.1,0c0,0,0,0.1,0,0.1c-0.1,0.1-0.2,0.2-0.3,0.3c0.1,0.1,0.2,0.3,0.3,0.5
		c0,3.7,0,7.5,0,11.4c0.1,0,0.1-0.1,0.2-0.1c0,0.2-0.1,0.5-0.1,0.7c114.6,0.3,227.6,0.4,339,0.5c0-0.1,0-0.2,0-0.3
		c0.1,0,0.1,0,0.1,0c0-3.8,0-7.7,0-11.6c0,0-0.1,0-0.1,0c0.1-0.3,0.1-0.6,0.3-0.9C365.9,393.7,365.9,393.7,365.8,393.7z
		 M270.8,252.3c0.3,1.7,1.7,7.7,4.1,18.1c1.8,8,3.2,14.9,4,20.4c1.2,8,1.8,15.4,1.8,22.3c0,2.4-0.1,3.9-0.1,4.5
		c-0.3,1.7-1,3.2-2.2,4.6c-0.8,0.9-4.1,1.9-9.8,3.2c-3.5,0.8-15.1,1.1-34.8,1c-5.5,0-10.3,0-14.4,0c0.8-2,1.2-3.9,1.2-5.6
		c0-2.9-0.3-5.6-0.7-7.8c2.9,0.2,6.3,0.3,9.9,0.3c4.6,0,12.4-0.8,23.5-2.4c10.5-1.6,15.7-2.4,15.7-2.7c0-0.3-0.1-0.5-0.1-0.6
		c0,0-0.1-0.1-0.4-0.2c-0.7,0.1-1.4,0.3-2.2,0.4c0-0.2,0.1-0.5,0.1-0.7c0.6-5,0.9-7.5,0.9-7.5c0-1.3,0.1-3,0.4-5.2
		c0.3-2.4,0.6-4.1,0.7-4.9c0.4-2.4,0.6-4.1,0.7-5.2c0.3-2,0.4-3.7,0.4-5.2c0-0.3,0-0.5-0.1-0.5c-0.1-0.1-0.1-0.1-0.2-0.2
		c-0.7,2.9-1.7,9.7-3,20.2c-0.4,3.8-0.8,7.1-1.1,9.7c-5.1,0.9-10.4,1.7-15.8,2.4c-8.4,1.1-14.9,1.7-19.4,1.7c-7.9,0-13-0.1-15.2-0.2
		c-0.3,0-0.7,0-1-0.1c-1.7-3.4-2.7-6.7-3.2-10.1c-0.2-1.8-0.5-5-1-9.6c-0.5-5.4-0.7-9.1-0.7-10.9c0-8.7,0.2-15.2,0.6-19.5
		c0.5-5.5,2.2-10,4.9-13.5c0,0,0,0,0,0c0,0,0.1,0.1,0.1,0.1c0.3,0.3,2,2.2,5.1,5.6c0.1,0.1,0.2,0.3,0.3,0.5c0.1,0.1,0.1,0.1,0.1,0.2
		c0.1,0,0.2,0.1,0.3,0.1c0.1,0.1,0.1,0.2,0.2,0.3c0.1-0.1,0.2-0.1,0.3-0.2c0.3,0,0.5,0.1,0.7,0.1c1.7,0,16.4-4.1,43.9-12.2
		c1.3-0.4,2.6-0.8,4-1.2C269.4,244.3,270,248.1,270.8,252.3z M170.4,325.5c0.5,0.7,1.1,1.4,1.8,2c-2,0-4.4,0.1-7.1,0.1
		c-1.6-3.2-2.4-6.7-2.4-10.5c0.2-1.6,0.3-2.9,0.5-3.8c2-0.2,3.9-0.5,5.5-0.8c-0.5,2-0.8,3.7-0.8,4.9
		C167.8,320.4,168.7,323.1,170.4,325.5z M192.9,255.8c0-0.5,0-1.1,0-1.6c0.9-0.6,1.8-1.2,2.8-1.6c0,0.3,0,0.7,0,1
		c0.1,2.7,0.2,4.8,0.3,6.2l0.3-0.1c0.1-1.3,0.1-3.3,0.1-6c0-0.5,0-1,0-1.4c0.2-0.1,0.4-0.2,0.6-0.3c0.2-0.1,0.4-0.1,0.6-0.2
		c0.6-0.1,1.2-0.2,1.8-0.2c-0.1,0.8-0.2,1.7-0.3,2.6c-0.4,2.7-0.6,4.9-0.6,6.6c0,1.2,0.1,2,0.3,2.5l0.3-0.1c0.1-1.6,0.3-3.9,0.7-6.9
		c0.2-1.8,0.4-3.3,0.5-4.6c1.2,0,2.4,0.3,3.6,0.7c-0.5,2-1.1,4.6-1.6,7.8c0,0.4,0,0.7,0.1,0.9c0.3-0.1,0.5-0.1,0.6-0.3
		c0-1.6,0.5-4.1,1.5-7.5c0.1-0.2,0.1-0.4,0.2-0.6c0.5,0.2,1,0.4,1.4,0.7c0.2,0.1,0.4,0.2,0.6,0.3c-0.2,1.4-0.3,2.6-0.3,3.4
		c0,1.2,0,2,0.1,2.6l0.5-0.1c0.2-2.3,0.3-4,0.4-5c0-0.2,0-0.3,0.1-0.5c0.6,0.4,1.3,0.9,1.8,1.4c0.1,0.1,0.1,0.1,0.2,0.1
		c-0.2,0.8-0.4,1.7-0.6,2.6c-0.6,3.2-1,7-1.2,11.5c-0.1,1.7-0.1,5.5-0.1,11.2c0,9.1,0.6,16.1,1.7,20.9c0.4,1.6,0.8,3.2,1.4,4.7
		c-0.5-0.9-1.1-1.8-1.8-2.7c-2.7-3.7-6-5.8-9.7-6.1c-3.8-0.3-5.6-0.5-5.3-0.6c-2.1,0.3-3.6,0.7-4.4,1.4c-2.1,0-4.5,0.3-7.4,0.9
		c2.3-5.8,3.9-10.8,4.8-14.8c0.6-2.7,1.4-5.5,2.2-8.5c0.9-3,1.6-5.2,1.9-6.6C192.2,265,192.9,260.4,192.9,255.8z M191.8,248.4
		c-0.2-0.6-0.6-1.2-1.1-1.8c5.4-3.7,9.1-6.2,11.2-7.5c0.1-0.1,0.6-0.4,1.6-1c0.2,0,0.4,0,0.6,0c0.2,0.1,0.4,0.3,0.6,0.4
		c1.5,1,3.2,2.6,5.2,4.7c0.9,1,2,2.3,3.5,3.9c-1.5,2-2.7,4.5-3.6,7.4c0,0,0,0.1,0,0.1c-0.1,0-0.2-0.1-0.3-0.1
		c-0.1,0-0.2-0.1-0.2-0.1c0-0.1-0.1-0.1-0.1-0.2c0-0.1,0-0.1-0.1-0.2c-0.1-0.1-0.2-0.1-0.4-0.2c0,0-0.1-0.1-0.1-0.1
		c-1-0.7-2.1-1.3-3.2-1.9c-2.4-1.2-4.9-1.5-7.6-0.9c-0.1,0-0.3,0.1-0.4,0.1c-1.6,0.5-3.2,1.2-4.6,2.1
		C192.7,250.9,192.3,249.4,191.8,248.4z M213.2,312.3c0.3,0,0.5,0.1,0.7,0.1c1.5,0.2,3.1,0.3,4.8,0.5c0,0.1,0.1,0.2,0.1,0.3
		c0.4,1.9,0.6,4.4,0.6,7.5c0,1.8-0.4,3.7-1.3,5.6c-3,0-5.5,0.1-7.7,0.1C213.7,322.9,214.6,318.1,213.2,312.3z M204.8,329.5
		c-0.2,0.1-0.4,0.3-0.7,0.4c-2.5,1.5-5.1,2.2-7.8,2.2c-1.4,0-2.5-0.4-3.3-1.1c-0.7-0.6-1-1.3-1-2c0-0.7,0.3-1.3,0.9-1.7
		c0.2-0.1,0.8-0.5,2-1.1c0.9-0.5,1.6-1,2-1.6c0.6-0.8,0.9-1.8,0.9-2.9c0-1.3-0.5-2.2-1.4-2.9c-0.5-0.4-1.5-0.8-3-1.2
		c-1.4-0.4-2.4-0.8-3-1.2c-0.9-0.7-1.4-1.6-1.4-2.9c0-0.8,0.5-1.4,1.5-1.9c0.6-0.3,1.7-0.6,3.3-0.9c1.6-0.3,2.7-0.6,3.3-0.9
		c1-0.4,1.5-1,1.5-1.8c0-0.9-0.5-1.6-1.4-2c-0.5-0.2-1.5-0.5-3.2-0.9c-1.5-0.3-2.5-0.7-3.2-1.1c-1-0.6-1.4-1.5-1.4-2.7
		c0-0.5,0.3-1.1,0.8-1.6c0.8-0.9,2-1.3,3.6-1.3c8,0,13.5,3.3,16.6,10c0.5,1,0.8,2,1.2,3.1C214.2,319.3,211.9,325.4,204.8,329.5z
		 M185.6,299.8c1.1-0.2,2.1-0.3,3-0.4c-0.2,0.4-0.3,1-0.3,1.7c0,1,0,1.6,0.1,1.8c0.2,0.5,0.7,1.2,1.6,2c0.3,0.3,1.6,0.7,3.9,1.4
		c2.1,0.6,3.3,1.2,3.6,1.8c-0.4,0.3-1.2,0.5-2.3,0.8c-1.8,0.4-2.9,0.7-3.2,0.7c-2.7,0.8-4,2.1-4,3.9c0,1.5,0.4,2.7,1.4,3.5
		c0.6,0.6,1.6,1.1,3,1.5c1.7,0.5,2.7,0.8,3,1c0.9,0.5,1.4,1.2,1.4,2.1c0,1-0.3,1.8-0.9,2.4c-0.4,0.4-1,0.8-2,1.2
		c-1,0.5-1.6,0.9-2,1.2c-0.6,0.6-0.9,1.4-0.9,2.4c0,0.4,0,0.8,0.1,1.2c-1.6,0.4-2.9,0.6-3.6,0.6c-7.3,0-12.5-1.9-15.6-5.6
		c-1.9-2.3-2.8-4.8-2.8-7.7c0-3.2,1.1-6.6,3.4-10.3c0.4-0.7,1.2-1.6,2.3-2.6c1.1-1,2-1.7,2.8-2.2
		C179.5,301.2,182.2,300.4,185.6,299.8z M173.8,328.7c3.3,2.2,7.8,3.3,13.7,3.3c1.9,0,3.1-0.1,3.7-0.3c0.2-0.1,0.3-0.1,0.4-0.3
		c0.8,1.3,2.4,2,4.8,2c1.7,0,3.3-0.3,5-0.9c1.6,0.3,3.4,0.4,5.6,0.4c2.1,0,4.4-0.1,6.7-0.3c0.4,0,0.7,0,0.8,0.1
		c0.1,0,0.3,0.2,0.6,0.5c0.2,0.2,0.5,0.6,0.7,1.1c0.1,0.3,0.3,0.6,0.4,1.1c0.4,0.8,1.2,2.3,2.2,4.3c0.6,1.1,2.6,3.8,6.1,8.1
		c1.1,1.3,2.2,2.9,3.2,4.6c0.6,1,1.4,2.4,2.5,4.4c2,3.4,4.4,6.2,7,8.3H235c-1.5-0.3-6.2-0.9-14.3-1.8c-8.1-1-12.4-1.5-12.9-1.5
		c-1.2,0-3.9,0.2-8,0.6c-4.1,0.4-6.5,0.7-7,0.7c-8,0-13.2-0.3-15.6-1c-1.4-0.3-2.3-0.6-2.8-0.6c-1.4-0.2-3.6-0.3-6.6-0.3
		c-6.5,0-11,0.2-13.5,0.7c-1.3,0.2-2,0.5-2.2,0.8c-0.5,0.1-1.5,0.2-2.9,0.3c-1.3,0.1-2.1,0.2-2.5,0.3h0V363
		c1.8-2.6,4.1-6.1,6.8-10.4c3.4-5.4,5.6-8.8,6.6-10.3c3.9-5.7,7-10.3,9.2-13.6C171,328.7,172.5,328.7,173.8,328.7z M230.5,353.9
		c-1.2-2-2.2-3.5-3.1-4.7c-3.7-4.8-6.1-7.7-7-8.9c-0.3-0.4-0.7-1.2-1.2-2.3c-0.8-1.8-1.3-2.9-1.4-3.1c-1.2-2.6-2.4-3.9-3.6-3.9
		c-0.7,0-1.4,0.1-2,0.3c-0.2,0.1-2.9,0.1-8.1,0c-0.1,0-0.3,0-0.5,0c0.2-0.1,0.3-0.1,0.5-0.2c1.8-0.9,3.3-1.8,4.7-2.9
		c8-0.3,12.2-0.5,12.6-0.5c1.8,0,3.5,0,5.2,0c1,1.2,2.7,3,4.9,5.2c2.2,2.2,5.1,5.1,8.5,8.6c7.8,8.6,12.5,13.9,14.2,15.9
		c-0.5,0.1-2.5,0.3-5.9,0.4c-3,0.1-4.8,0.2-5.5,0.2c-3.8,0-7.1,0-9.9-0.1C231.9,356.3,231.1,354.9,230.5,353.9z M271.4,232.5
		c1.9,2,3.7,3.7,5.3,5c-5.6,2-9.8,3.3-12.6,4.1c-11.2,3.3-19.4,5.4-24.4,6.7c-1.1,0.3-4.3,1.2-9.4,2.6c-3,0.9-6.3,1.6-9.9,2.3
		c-2.1-2.3-3.8-4.2-5-5.6c-3.3-3.8-6.5-7-9.4-9.6c9.2,0.1,18.4-0.1,27.5-0.9c11.3-1,22.4-2.7,33.5-5.2c1-0.3,2.1-0.5,3.1-0.7
		C270.6,231.6,271,232.1,271.4,232.5z M126,120.3c2.2-7.6,5.4-14.8,9.5-21.5c1.3-2,2.7-3.9,4.1-5.7c7.1-8.8,15.7-15.7,26-20.6
		c10.5-5,21.6-7.8,33.3-8.4c9.1-0.5,17.9,1.1,26.5,4.6c10.5,4.3,18.9,11.1,25.3,20.6c3.5,5.2,6.2,10.8,8.1,16.7
		c0.7,1.9,1.4,3.8,2.1,5.8c0.1,0.4,0.3,0.9,0.4,1.3c2.4,7.3,4.2,14.8,5.5,22.4c-2,0.7-3.4,2.5-4.1,5.4c-0.4,1.6-0.6,4-0.6,7.3
		c0,3,0.2,5.1,0.7,6.4c-0.4-0.1-1-0.1-1.7-0.2c-1-0.1-1.7-0.1-2.2-0.1c-0.1-0.7-0.1-1.5-0.2-2.3c-0.2-1.9-0.5-4.8-0.9-8.7
		c-0.7-7-0.9-12.9-0.6-17.5c0-0.4,0.1-1.1,0.3-2c0.1-0.9,0-1.6-0.3-2.2c-0.7-1.7-3.3-2.9-7.8-3.7c-4.3-0.8-7.5-1.6-9.6-2.6
		c-2-0.9-3.4-2.1-4.1-3.6c-0.1-0.2-0.2-0.3-0.2-0.5c-3.8-9.2-5.7-15.1-5.7-17.7c0-0.5,0.2-3.1,0.6-7.9c0-1.4,0-2.4-0.1-3.1l-0.8-0.1
		c-2.6,1-4.8,2.9-6.6,5.7c-1,1.6-1.7,2.7-2.2,3.5c-0.9,1.4-1.7,2.5-2.5,3.4c-6.7,7.5-13.1,11.2-19.2,11.2c-2,0-3.6-0.5-4.8-1.3
		c-0.8-0.6-1.6-1.6-2.3-2.9c-0.8-1.6-1.5-2.5-1.8-2.9c-0.8-0.9-1.9-1.3-3.3-1.3c-1.6,0-3.1,0.8-4.6,2.4c-0.6,0.6-1.9,2.4-4,5.4
		c-1.7,2.4-3.2,4.2-4.6,5.3c-0.5,0.4-0.9,0.7-1.4,1c-1.6,1-3.3,1.4-5.2,1.4c-0.7,0-1.4-0.1-2-0.3c-0.2-0.1-0.7-0.4-1.4-0.8
		c-0.2-0.1-0.4-0.2-0.6-0.3c-1.1-0.5-2.4-0.8-3.9-0.8c-0.7,0-1.4,0.3-2.2,0.8c-0.8,0.6-1.5,1.4-2.3,2.7c-0.8,1.2-2,3.8-3.7,7.6
		c-1.6,3.6-2.8,6.1-3.8,7.6c-1.4,2-2.9,3.2-4.5,3.4c-0.2,0-0.4,0-0.6,0c-0.5,0-1.8-0.2-4-0.7c-3,0-4.8,1.7-5.6,5.1
		c-0.3,1.1-0.4,2.4-0.4,3.8c0.1,1.3,0.1,2.1,0.1,2.4c0,2.5,0.2,5.2,0.7,8c0.5,3,1.1,5.1,1.8,6.3c-1.1,0.1-2.4,0.4-3.7,0.9
		c-0.3,0.1-0.5,0.2-0.7,0.3c-0.5-4.1-1.1-7.3-1.8-9.5c-1.5-4.5-3.7-7.1-6.5-7.8C122.6,134.7,124,127.5,126,120.3z M124.6,211.9
		c0.7-6,0.1-17.6-1.7-34.8c-0.6-5.2-1-10.2-1.2-15c0.4-0.1,0.8-0.3,1.2-0.5c0.5-0.3,0.7-0.6,0.7-0.9c0-0.3,0-0.5-0.1-0.5
		c0,0-0.1-0.1-0.2-0.1c-0.1,0-0.4,0.2-0.9,0.7c-0.4,0.4-1.2,0.6-2.1,0.6c-2.3,0-3.9-1.4-4.8-4.3c-0.4-1.5-0.6-3-0.6-4.6
		c-0.2-1.7-0.1-3.3,0.2-4.9c0.7-3.1,2.3-4.7,4.8-4.7c3.6,0,6.2,2.3,7.6,6.9c0.4,1.5,0.8,3.3,1.2,5.6c0.3,2.2,0.5,3.6,0.7,4.2
		c-0.4,0.2-0.7,0.4-0.7,0.5c0,0.5,0.1,0.6,0.2,0.4c0.3,0,0.8-0.1,1.4-0.4c0.6-0.3,1.3-0.4,2.2-0.5c0.1,0,0.3,0,0.4,0
		c-0.2,0.1-0.4,0.2-0.4,0.2c-0.1,0.1-0.7,0.5-1.9,1.5c-1.2,1-1.7,1.6-1.7,1.8c0,0.5,0.1,0.6,0.1,0.5c1.4,0,2.7,0,3.8,0.1
		c0.1,0,0.3,0,0.4,0l-0.4,0.2c-2.6,0.7-3.9,1.4-3.9,2.1c0,0.5,0.1,0.6,0.1,0.5c1.9,0.2,3.4,0.3,4.4,0.4c0.1,0,0.1,0,0.1,0l-0.1,0.1
		c-3.2,0.8-4.8,1.4-4.8,2c0,0.3,0.1,0.5,0.1,0.6c0.1,0,0.3,0.1,0.4,0.1c4.8-2,7.5-3.1,8-3.3l-0.1-0.4c-3.4-0.2-5.2-0.3-5.4-0.4
		c0.9-0.3,1.8-0.7,2.6-1.1c1.6-0.7,2.4-1.1,2.4-1.2c0-0.3,0-0.5-0.1-0.5c0,0-0.1,0-0.1,0.1c-1.5-0.1-3.2-0.1-5.2-0.2
		c-0.1,0-0.3,0-0.4,0l0.3-0.2c0.9-0.6,1.7-1.2,2.5-1.8c1.5-1.1,2.3-1.8,2.3-1.9c0-0.3,0-0.5-0.1-0.5c0,0-0.1,0-0.1,0.1l-0.2-0.1
		c0,0-0.1,0-0.4,0c-0.5-2.9-1-5.2-1.3-6.9c-0.6-3.3-0.9-5.8-0.9-7.4c-0.1-1.8,0-3.5,0.3-5.2c0.7-3.3,2.2-5,4.7-5
		c2.3,0.5,3.7,0.7,4.2,0.7c0.1,0,0.3,0,0.4,0c2.2-0.2,4.4-1.8,6.3-4.8c0.7-1.1,1.7-3.1,3-6c0.2-0.4,0.4-1.3,0.8-2.8
		c0.4-1.6,0.7-2.9,1-3.8c1.2-3.1,2.9-4.7,5.2-4.7c1,0,1.9,0.1,2.5,0.3c0.4,0.1,0.9,0.4,1.4,0.8c1.2,0.7,2.7,1.1,4.5,1.1
		c2.2,0,4.3-0.8,6.3-2.4c0.1-0.1,0.1-0.1,0.2-0.2c1.4-1.2,2.9-2.9,4.6-5.1c2.3-3.1,3.7-4.9,4.1-5.3c1.4-1.6,2.8-2.4,4-2.4
		c1,0,1.9,0.4,2.6,1.3c0,0,0.6,1,1.8,2.9c0.8,1.3,1.7,2.3,2.7,2.9c1.3,0.9,3.1,1.3,5.2,1.3c3.5,0,7.5-1.6,12.2-4.7
		c3.1-2.1,5.4-4,6.9-5.7c0.7-0.8,1.5-1.9,2.5-3.3c0.5-0.8,1.3-2,2.4-3.6c2-2.9,4.1-5.1,6.1-6.3v3.9c-0.4,2.6-0.6,4.5-0.6,5.7
		c0,2.4,0.7,5.5,2.2,9.5c1.7,4.1,2.9,7,3.6,8.9c0,0.1,0.1,0.2,0.1,0.3c0.6,1.6,2.2,3,4.8,4.2c2.2,1,5.4,2,9.5,2.8
		c4.7,1,7.3,2.4,7.8,4.1c0.2,0.6,0.1,1.4-0.1,2.3c-0.3,1.3-0.4,2-0.5,2.3c-0.1,2.7,0,5.8,0.4,9.4c0.5,4.2,0.8,7.3,1,9.4
		c0.1,1.2,0.3,4.2,0.4,9.1c0.2-0.2,0.3-0.4,0.5-0.6c0.2,0.3,0.7,0.8,1.3,1.4c0.5,0.4,1,0.9,1.5,1.3l-0.6,0.1
		c-0.7-0.2-1.5-0.1-2.4,0.3c-0.8,0.3-1.2,0.7-1.2,1.1c0,0.5,0.3,0.8,0.9,1c0.4,0.2,1.3,0.4,2.8,0.7c0.1,0,0.2,0,0.3,0.1
		c0,0-0.1,0.1-0.3,0.1c-1.2,0.3-2,0.5-2.5,0.7c-0.8,0.2-1.2,0.6-1.2,1.2c0,0.5,0,0.7,0.1,0.8c1.6,0,2.9,0.1,3.9,0.2
		c0.3,0,0.5,0.1,0.7,0.1l-0.7,0.1c-1.6,0.5-2.7,0.9-3.2,1.1c-0.7,0.3-1,0.7-1,1.4c0,0.5,0.1,0.6,0.2,0.4c4.1,0.1,6.3,0.2,6.5,0.4
		c0.5,0,0.6-0.1,0.4-0.1l0.1-0.5c0-0.3,0-0.5-0.1-0.5l-0.1-0.1l-5.6-0.1c3.8-1.2,5.7-1.9,5.7-2.1c0-0.3,0-0.5-0.1-0.5l-0.1-0.1
		c-1.1,0-2.7-0.2-4.7-0.6c-0.1,0-0.3,0-0.4-0.1l0.4-0.1c0.1-0.1,0.3-0.2,0.6-0.2c1.4,0,2.6-0.2,3.5-0.5c0.4-0.2,0.8-0.3,1.1-0.6
		c-0.3-0.6-1.1-1-2.2-1.2c-2.3-0.5-3.6-0.7-3.8-0.8l0.3-0.2c0.1,0,1.1-0.1,3.1-0.3c1.2-0.1,2-0.2,2.3-0.4l-0.1-0.2
		c-0.9-0.5-2.3-1.5-4.4-3l1.7-0.1c0.1,0,0.6,0.1,1.6,0.2c0.2,0,0.3,0,0.5,0c0.1,0.2,0.2,0.3,0.3,0.4c0.2,0,0.4-0.1,0.5-0.3v-1.7
		c-0.6-0.9-0.9-2.7-0.9-5.4c0,0,0-0.7,0-1.9c0.1-1.5,0.3-2.9,0.5-4.1c0.9-4,2.5-6,5-6c2.7,0,4.5,1.5,5.6,4.6
		c0.6,1.6,0.9,3.5,0.9,5.4c0.1,1.6-0.1,3.1-0.6,4.5c-1,2.9-2.9,4.4-5.7,4.4c-0.1,0-0.2-0.1-0.4-0.4c-0.3-0.3-0.4-0.4-0.6-0.4
		c-0.3,0-0.5,0.1-0.5,0.1l0.1,0.1c0,0.1-0.1,0.3-0.1,0.4c0,0.2,0.1,0.5,0.3,0.6c0.2,0.2,0.5,0.4,1,0.5c0.1,1.2,0.1,2.3,0.1,3.5
		c0,0.7,0,1.4,0.1,2.2c0.2,7.5,0.5,17.2,0.7,29.1c0.2,13,0.5,25.9,0.9,38.9c-0.1,0.1-0.3,0.3-0.5,0.4c-2.7,0.7-5.4,1.3-8.2,1.9
		c-9.1,2-18.3,3.2-27.7,3.8c-14.1,1-28.2,1-42.4,0.1c-16.6-1-39.6-5.1-69.2-12.4C123.3,220.2,124.1,216.2,124.6,211.9z M123.5,231.7
		c-2.3-0.9-4.1-1.6-5.6-2.2c1.5-1.6,2.8-3,4-4.4c5,1.6,10.2,3,15.4,4.1c10.8,2.4,21.7,4.4,32.7,6c10.3,1.4,20.8,2.3,31.2,2.7
		c0.1,0,0.1,0,0.2,0c-0.1,0.1-0.2,0.1-0.2,0.2c-6.3,4.1-11.5,7.8-15.5,11c-3.5-1-9.3-2.5-17.3-4.6c-8.9-2.3-16.1-4-21.6-5.4
		c-4.6-1.1-8.9-2.3-13-3.7C131.5,234.7,128,233.5,123.5,231.7z M109.7,301.3c0.7-4.8,1.2-8,1.5-9.7c0.4-2,1-5.6,1.8-10.7
		c1-6,1.5-9.5,1.5-10.6c0-0.2,0.2-0.8,0.6-1.8c0.4-1,0.6-1.6,0.6-1.6c0-0.3,0.1-0.6,0.3-1c0.2-0.5,0.3-0.8,0.3-1
		c0-0.7,0.2-1.5,0.6-2.2c0.4-0.7,0.6-1.3,0.6-1.8c0-3.5,1.4-9.8,4.3-18.9c1.2-3.5,2.1-6.4,2.8-8.5c0.2,0.1,0.5,0.2,0.7,0.3
		c6.5,2.4,12.9,4.5,19.4,6.3c8.6,2.4,15.1,4.1,19.5,5.1c3.2,0.7,10.6,2.5,22.1,5.4c0.1-0.2,0.3-0.4,0.5-0.5c1.6-1.3,2.7-2.2,3.3-2.7
		c0.3,0.5,0.5,1,0.8,1.6c0.6,1.6,1,4.1,1,7.3c0,5.8-2.7,17.1-8,33.6c-1.1,3.5-2.2,6.9-3.4,10.2c-3,0.8-5.6,2.6-7.6,5.2
		c-1.5,2-2.6,3.7-3.4,5.4c-4.9,1-8.6,1.6-11.1,1.9c-4.3,0.5-10.7,0.7-19.3,0.7c-7.7,0-13.1-0.7-16.3-2c0.1-0.6,0.3-1.2,0.4-1.6
		c1.1-4.8,1.7-8.9,1.7-12.4c0-3.4,0.1-8.6,0.3-15.6c0.2-6.3,0.3-9.6,0.3-9.8c0-1.2-0.1-2.2-0.3-3.1c-0.6,3.4-1,7.8-1.1,13
		c-0.1,2.2-0.1,6.7-0.1,13.4c0,1.9-0.2,4.2-0.5,6.8c-0.2,1.5-0.5,3.7-1,6.6c0,0.1-0.2,0.9-0.7,2.3c-0.5-0.3-1-0.6-1.5-1
		c-0.5-0.4-1-0.7-1.4-0.7c-0.5,0-0.7,0.1-0.5,0.1c2.9,2.5,6,4,9.5,4.7c2,0.4,5.6,0.6,11.1,0.6c9.1,0,16.7-0.3,22.8-1
		c-0.1,1.1-0.2,2.3-0.2,3.6c0,1.6,0.3,3.6,0.9,5.8c0.4,1.7,1,3.2,1.6,4.7c-6.7,0.1-15.2,0.1-25.7,0.2c-13.3,0-22.2-2.1-26.7-6.3
		c-1.5-1.4-2.5-3.1-2.9-5c-0.2-0.7-0.3-2-0.3-3.6C108.5,311,108.9,307.2,109.7,301.3z M27.6,393.5c21.3-25.8,42.5-51.6,63.6-77.3
		c5.4,0,10.9,0,16.3,0.1c0,0.2,0.1,0.4,0.1,0.6c0.5,2,1.5,3.8,3.1,5.3c4.7,4.5,13.9,6.8,27.7,6.8c12.5-0.1,22.4-0.2,29.4-0.3
		c-2.4,3.6-5.4,8.1-9,13.6c-0.1,0.2-3,4.6-8.7,13.1c-3.6,5.4-5.4,8.2-5.4,8.5c0,0.5,0.1,0.7,0.2,0.6h1.5c6.4-1.4,13.5-2.2,21.4-2.2
		c2.9,0,5.1,0.1,6.5,0.3c0.4,0.1,1.4,0.3,2.8,0.6c2.4,0.6,7.6,1,15.6,1c0.3,0,2.6-0.2,6.7-0.7c4.1-0.4,6.9-0.6,8.4-0.6
		c1.8,0,7.6,0.7,17.6,2.1c9.9,1.4,15.1,2.1,15.5,2.1c0.4,0,0.7-0.2,0.9-0.7c-0.6-0.7-2.1-2-4.5-3.7c-1.6-1.2-2.9-2.3-3.7-3.4
		c0.2,0,0.3,0,0.5,0c9.4,0,15.6-0.1,18.6-0.3c2.5-0.1,3.7-0.5,3.7-1c0,0-4.9-5.6-14.7-16.6c-2-1.8-5.1-5-9.3-9.3
		c-1.9-1.9-3.3-3.4-4.4-4.5c14.1,0,24.3,0.1,30.6,0.2c2.1,0,5.2-0.3,9.3-1.1c0.7-0.1,2.7-0.5,6.1-1.4c1.3-0.4,2.5-0.9,3.6-1.5
		c1.1-0.6,1.8-1.2,2.2-1.8c0.7-1,1.2-2.4,1.5-4.5c0.1-0.3,0.1-0.7,0.1-1c6.4,0,12.9,0,19.3,0c21.1,25.6,42.2,51.3,63.5,77.2
		c-35-0.1-82.3-0.1-141.9-0.1c-1.9,0-66.9,0-195,0.1C27.6,393.6,27.6,393.6,27.6,393.5z M364.8,405.2c-35-0.1-82.4-0.1-142.2-0.1
		c-1.9,0-66.9,0-195,0.1c0-3.6,0-7.1,0-10.7c114,0.3,226.4,0.4,337.2,0.5C364.8,398.3,364.8,401.8,364.8,405.2z"/>
	<path d="M128.5,149.7c0.7,2.1,1.3,5.3,1.8,9.5c0.2-0.1,0.4-0.2,0.7-0.3c1.4-0.5,2.6-0.8,3.7-0.9c-0.7-1.2-1.4-3.4-1.8-6.3
		c-0.4-2.8-0.7-5.5-0.7-8c0-0.2,0-1-0.1-2.4c0-1.4,0.2-2.7,0.4-3.8c0.8-3.4,2.7-5.1,5.6-5.1c2.2,0.5,3.5,0.7,4,0.7
		c0.2,0,0.4,0,0.6,0c1.6-0.2,3-1.4,4.5-3.4c1-1.5,2.3-4,3.8-7.6c1.7-3.8,2.9-6.3,3.7-7.6c0.7-1.2,1.5-2.1,2.3-2.7
		c0.7-0.5,1.4-0.8,2.2-0.8c1.5,0,2.8,0.3,3.9,0.8c0.2,0.1,0.4,0.2,0.6,0.3c0.7,0.4,1.2,0.7,1.4,0.8c0.6,0.2,1.2,0.3,2,0.3
		c1.9,0,3.6-0.5,5.2-1.4c0.5-0.3,1-0.6,1.4-1c1.4-1.1,2.9-2.9,4.6-5.3c2.1-2.9,3.4-4.7,4-5.4c1.5-1.6,3-2.4,4.6-2.4
		c1.4,0,2.4,0.4,3.3,1.3c0.3,0.4,1,1.4,1.8,2.9c0.7,1.4,1.5,2.3,2.3,2.9c1.2,0.9,2.8,1.3,4.8,1.3c6.1,0,12.4-3.7,19.2-11.2
		c0.8-0.8,1.6-2,2.5-3.4c0.5-0.8,1.2-2,2.2-3.5c1.8-2.8,4-4.7,6.6-5.7l0.8,0.1c0,0.7,0.1,1.8,0.1,3.1c-0.4,4.8-0.6,7.4-0.6,7.9
		c0,2.7,1.9,8.6,5.7,17.7c0.1,0.2,0.1,0.3,0.2,0.5c0.7,1.5,2.1,2.7,4.1,3.6c2.1,1,5.3,1.8,9.6,2.6c4.4,0.7,7,2,7.8,3.7
		c0.3,0.6,0.3,1.3,0.3,2.2c-0.2,0.9-0.3,1.6-0.3,2c-0.3,4.7-0.1,10.5,0.6,17.5c0.4,3.9,0.7,6.8,0.9,8.7c0.1,0.8,0.2,1.6,0.2,2.3
		c0.5,0,1.2,0.1,2.2,0.1c0.7,0.1,1.3,0.1,1.7,0.2c-0.4-1.3-0.7-3.5-0.7-6.4c0-3.3,0.2-5.7,0.6-7.3c0.7-2.9,2.1-4.8,4.1-5.4
		c-1.3-7.6-3.1-15.1-5.5-22.4c-0.1-0.4-0.3-0.9-0.4-1.3c-0.7-2-1.4-3.9-2.1-5.8c-1.9-6-4.6-11.5-8.1-16.7
		c-6.4-9.5-14.8-16.3-25.3-20.6c-8.6-3.5-17.4-5-26.5-4.6c-11.7,0.6-22.8,3.4-33.3,8.4c-10.3,4.8-18.9,11.7-26,20.6
		c-1.4,1.8-2.8,3.7-4.1,5.7c-4.1,6.7-7.3,13.9-9.5,21.5c-2,7.1-3.4,14.3-4.1,21.6C124.8,142.7,127,145.2,128.5,149.7z"/>
	<radialGradient id="SVGID_1_" cx="92.3396" cy="189.649" r="141.333" gradientUnits="userSpaceOnUse">
		<stop  offset="0" style="stop-color:#FCE2CA"/>
		<stop  offset="1" style="stop-color:#FDCF9D"/>
	</radialGradient>
	<path fill="url(#SVGID_1_)" d="M233.9,236c9.3-0.6,18.6-1.9,27.7-3.8c2.7-0.5,5.5-1.2,8.2-1.9c0.2-0.1,0.3-0.3,0.5-0.4
		c-0.4-13-0.7-25.9-0.9-38.9c-0.2-11.9-0.4-21.6-0.7-29.1c0-0.7-0.1-1.5-0.1-2.2c-0.1-1.2-0.1-2.4-0.1-3.5c-0.4-0.1-0.7-0.3-1-0.5
		c-0.2-0.2-0.3-0.4-0.3-0.6c0-0.1,0-0.3,0.1-0.4l-0.1-0.1c0-0.1,0.2-0.1,0.5-0.1c0.1,0,0.3,0.1,0.6,0.4c0.2,0.3,0.4,0.4,0.4,0.4
		c2.9,0,4.8-1.5,5.7-4.4c0.5-1.5,0.7-3,0.6-4.5c0-2-0.3-3.8-0.9-5.4c-1.1-3.1-2.9-4.6-5.6-4.6c-2.4,0-4.1,2-5,6
		c-0.3,1.2-0.5,2.6-0.5,4.1c0,1.3,0,1.9,0,1.9c0,2.7,0.3,4.5,0.9,5.4v1.7c-0.1,0.1-0.3,0.3-0.5,0.3c-0.1-0.1-0.2-0.2-0.3-0.4
		c-0.2,0-0.3,0-0.5,0c-0.9-0.1-1.4-0.2-1.6-0.2l-1.7,0.1c2.1,1.5,3.5,2.5,4.4,3l0.1,0.2c-0.3,0.2-1,0.3-2.3,0.4
		c-2,0.2-3,0.2-3.1,0.3l-0.3,0.2c0.2,0.1,1.5,0.3,3.8,0.8c1.2,0.2,1.9,0.6,2.2,1.2c-0.3,0.2-0.6,0.4-1.1,0.6c-0.9,0.3-2,0.5-3.5,0.5
		c-0.3,0.1-0.5,0.1-0.6,0.2l0,0.2c2,0.4,3.6,0.6,4.7,0.6l0.1,0.1c0.1,0.1,0.1,0.3,0.1,0.5c0,0.2-1.9,1-5.7,2.1l5.6,0.1l0.1,0.1
		c0.1,0.1,0.1,0.3,0.1,0.5l-0.1,0.5c0.2,0.1,0.1,0.1-0.4,0.1c-0.3-0.2-2.5-0.3-6.5-0.4c-0.1,0.2-0.2,0.1-0.2-0.4
		c0-0.6,0.3-1.1,1-1.4c0.5-0.2,1.5-0.5,3.2-1.1l0.1-0.2c-1-0.1-2.2-0.2-3.9-0.2c-0.1,0-0.1-0.3-0.1-0.8c0-0.5,0.4-0.9,1.2-1.2
		c0.5-0.2,1.3-0.4,2.5-0.7c0.2-0.1,0.3-0.1,0.3-0.1c-0.1,0-0.2,0-0.3-0.1c-1.4-0.3-2.4-0.5-2.8-0.7c-0.6-0.2-0.9-0.6-0.9-1
		c0-0.4,0.4-0.7,1.2-1.1c0.8-0.4,1.6-0.4,2.4-0.3l0.6-0.1c-0.5-0.4-1-0.8-1.5-1.3c-0.6-0.6-1.1-1-1.3-1.4c-0.2,0.2-0.3,0.4-0.5,0.6
		c-0.1-4.9-0.3-8-0.4-9.1c-0.2-2.1-0.6-5.2-1-9.4c-0.4-3.6-0.5-6.8-0.4-9.4c0-0.3,0.2-1,0.5-2.3c0.3-1,0.3-1.7,0.1-2.3
		c-0.5-1.8-3.1-3.2-7.8-4.1c-4.1-0.9-7.2-1.8-9.5-2.8c-2.6-1.2-4.2-2.6-4.8-4.2c0-0.1-0.1-0.2-0.1-0.3c-0.7-1.8-1.9-4.8-3.6-8.9
		c-1.5-3.9-2.2-7.1-2.2-9.5c0-1.2,0.2-3.1,0.6-5.7v-3.9c-2,1.3-4.1,3.4-6.1,6.3c-1.1,1.6-1.9,2.8-2.4,3.6c-1,1.4-1.8,2.5-2.5,3.3
		c-1.5,1.7-3.8,3.5-6.9,5.7c-4.6,3.1-8.7,4.7-12.2,4.7c-2.1,0-3.9-0.5-5.2-1.3c-1-0.6-1.9-1.6-2.7-2.9c-1.2-1.9-1.8-2.9-1.8-2.9
		c-0.7-0.9-1.6-1.3-2.6-1.3c-1.2,0-2.6,0.8-4,2.4c-0.4,0.4-1.8,2.2-4.1,5.3c-1.7,2.3-3.2,4-4.6,5.1c-0.1,0.1-0.2,0.1-0.2,0.2
		c-2,1.6-4.1,2.4-6.3,2.4c-1.8,0-3.3-0.4-4.5-1.1c-0.6-0.4-1.1-0.6-1.4-0.8c-0.7-0.2-1.5-0.3-2.5-0.3c-2.3,0-4.1,1.6-5.2,4.7
		c-0.3,0.9-0.6,2.1-1,3.8c-0.3,1.5-0.6,2.4-0.8,2.8c-1.3,2.9-2.3,4.9-3,6c-2,3-4.1,4.6-6.3,4.8c-0.1,0-0.3,0-0.4,0
		c-0.5,0-1.9-0.2-4.2-0.7c-2.4,0-4,1.7-4.7,5c-0.3,1.7-0.4,3.4-0.3,5.2c0,1.6,0.3,4.1,0.9,7.4c0.3,1.8,0.7,4.1,1.3,6.9
		c0.2,0,0.3,0,0.4,0l0.2,0.1c0,0,0.1-0.1,0.1-0.1c0,0,0.1,0.2,0.1,0.5c0,0.1-0.7,0.8-2.3,1.9c-0.8,0.6-1.6,1.2-2.5,1.8l0,0.2
		c2,0.1,3.7,0.1,5.2,0.2c0,0,0.1-0.1,0.1-0.1c0,0,0.1,0.2,0.1,0.5c0,0.2-0.8,0.6-2.4,1.2c-0.8,0.3-1.7,0.7-2.6,1.1
		c0.2,0.1,2,0.3,5.4,0.4l0.1,0.4c-0.5,0.2-3.2,1.3-8,3.3c-0.1-0.1-0.3-0.1-0.4-0.1c-0.1-0.1-0.1-0.3-0.1-0.6c0-0.6,1.6-1.2,4.8-2
		v-0.1c-1-0.1-2.5-0.2-4.4-0.4c-0.1,0.2-0.1,0-0.1-0.5c0-0.7,1.3-1.4,3.9-2.1l0-0.2c-1.1,0-2.4-0.1-3.8-0.1c-0.1,0.2-0.1,0-0.1-0.5
		c0-0.3,0.6-0.9,1.7-1.8c1.2-0.9,1.8-1.4,1.9-1.5v-0.2c-0.9,0-1.6,0.2-2.2,0.5c-0.6,0.3-1.1,0.4-1.4,0.4c-0.1,0.2-0.2,0.1-0.2-0.4
		c0-0.1,0.2-0.3,0.7-0.5c-0.1-0.6-0.3-2-0.7-4.2c-0.3-2.3-0.7-4.2-1.2-5.6c-1.4-4.6-4-6.9-7.6-6.9c-2.6,0-4.2,1.6-4.8,4.7
		c-0.3,1.6-0.4,3.2-0.2,4.9c-0.1,1.6,0.1,3.2,0.6,4.6c0.8,2.9,2.4,4.3,4.8,4.3c1,0,1.7-0.2,2.1-0.6c0.5-0.4,0.8-0.6,0.9-0.7
		c0.1,0.1,0.2,0.1,0.2,0.1c0,0,0.1,0.2,0.1,0.5c0,0.3-0.3,0.5-0.7,0.9c-0.3,0.2-0.7,0.4-1.2,0.5c0.2,4.8,0.6,9.7,1.2,15
		c1.8,17.2,2.4,28.7,1.7,34.8c-0.5,4.4-1.3,8.3-2.2,11.8c29.6,7.3,52.6,11.4,69.2,12.4C205.7,237,219.8,237,233.9,236z M266.1,148.8
		c0-1.4,0.2-2.6,0.7-3.8c0.6-1.5,1.5-2.6,2.7-3.4c0.1,0.1,0.3,0.1,0.4,0.1c0.1,0,0.1,0.2,0.1,0.5c0,0.2-0.5,0.9-1.4,2.1
		c-1,1.3-1.4,2.4-1.4,3.3c0,0.3,0,0.4,0,0.4l0.1-0.1c0.6-0.4,1-0.6,1.3-0.6c1,0,1.5,0.3,1.7,0.9c0.1,0.1,0.1,0.5,0.1,1.1
		c0,1.5-0.7,2.2-2.2,2.2c-1.1,0-1.7-0.4-1.9-1.3C266,149.7,266,149.2,266.1,148.8z M121.8,154.3c-0.3,0.8-1.2,1.2-2.5,1.2
		c-0.7,0-1.3-0.4-1.6-1.2c-0.1-0.4-0.2-0.8-0.2-1.3c0-0.7,0.1-1.2,0.2-1.4c0.5-0.5,1.6-0.8,3.3-0.7c-0.3-0.3-0.7-0.8-1.1-1.6
		c-0.4-0.7-1.2-1-2.2-1.2c-0.1-0.2-0.2-0.4-0.2-0.7v-0.3c0-0.1,0.1-0.1,0.4-0.1c1.6,0,2.7,0.9,3.4,2.6c0.2,0.5,0.3,1.2,0.4,1.8
		c0,0.6,0.1,0.9,0.1,0.9c0,0.4,0,0.7,0.1,0.9C121.9,153.7,121.9,154,121.8,154.3z M227.8,129.2c3.2,0.5,5.7,2.1,7.6,4.7
		c1.9,2.7,2.6,5.6,2.1,8.8c-0.2,1.2-0.6,2.4-1.1,3.4c-0.8,1.6-2,3.1-3.6,4.2c-0.3,0.2-0.6,0.4-0.9,0.6c-2.4,1.4-5,2-7.9,1.5
		c-3.2-0.5-5.8-2.1-7.6-4.8c-0.9-1.3-1.6-2.6-1.9-4c-0.1-0.4-0.2-0.7-0.2-1.1c-0.1-1.2-0.1-2.4,0.1-3.6c0.5-3.2,2.1-5.8,4.8-7.7
		c1.6-1.2,3.4-1.9,5.3-2.1C225.4,128.9,226.6,129,227.8,129.2z M195.6,188c0.1,0,0.2,0.3,0.5,0.8c0.3,0.6,0.6,1.2,0.9,1.6
		c1,1.4,2.4,2.2,4,2.2c1.7,0,2.7-0.7,3-2.2c0.1-0.4,0.1-1,0.1-1.5c-0.1-0.5-0.1-0.7-0.1-0.7c0-1-0.3-4-0.7-9
		c-0.5-5.6-1-9.3-1.4-11.2c-0.3-1.3-0.5-3.3-0.7-6.1c-0.3-3.5-0.4-8.2-0.5-14c0-2,0.2-3,0.7-3.1c0.4,2.3,0.6,5.9,0.7,10.8
		c0,2.4,0.1,4.5,0.2,6.3c0.1,1.9,0.3,3.5,0.5,4.8c0.2,1.5,0.7,5.2,1.3,11.1c0.6,6,1,9.5,1,10.5c0,0.2,0,0.7,0.1,1.4
		c0.1,0.7,0,1.4-0.1,1.8c-0.5,1.5-1.8,2.3-3.9,2.3c-1.9,0-3.4-0.7-4.5-2.1c-0.8-1-1.2-1.8-1.2-2.5
		C195.3,188.7,195.4,188.3,195.6,188z M157.1,141.4c0.5-3.2,2.1-5.7,4.8-7.6c1.6-1.2,3.4-1.9,5.3-2.1c1.1-0.1,2.2-0.1,3.5,0.1
		c3.2,0.5,5.7,2.1,7.6,4.8c1.9,2.6,2.6,5.5,2.1,8.7c-0.2,1.3-0.6,2.4-1.1,3.5c-0.8,1.6-2,3-3.6,4.2c-0.3,0.2-0.6,0.4-0.9,0.5
		c-2.4,1.5-5,2-7.9,1.5c-3.2-0.5-5.7-2.1-7.6-4.7c-0.9-1.3-1.5-2.6-1.9-4c-0.1-0.4-0.2-0.7-0.2-1.1
		C156.9,143.9,156.9,142.7,157.1,141.4z M182.1,207.8c0.6-0.6,2.3-1.1,5.1-1.3c0.5,0,4.9-0.3,13.5-0.6c0-0.1,2.2-0.1,6.6-0.1
		c0.5,0,3.5,0.1,9,0.4l0.1,0.4c-0.1,0.3-0.1,0.4-0.1,0.5c-0.1,0.1-0.3,0.1-0.7,0.1c-2.7-0.2-5.5-0.2-8.4-0.2
		c-1.7,0-5.3,0.2-10.9,0.6c-5.6,0.4-9.9,0.6-12.9,0.6C182.7,208.1,182.3,208,182.1,207.8z"/>
	<path d="M157.3,146.1c0.3,1.4,1,2.7,1.9,4c1.9,2.6,4.5,4.2,7.6,4.7c2.9,0.5,5.5,0,7.9-1.5c0.3-0.2,0.6-0.3,0.9-0.5
		c1.6-1.2,2.8-2.6,3.6-4.2c0.5-1.1,0.9-2.2,1.1-3.5c0.5-3.2-0.2-6.1-2.1-8.7c-1.9-2.7-4.4-4.2-7.6-4.8c-1.2-0.2-2.4-0.2-3.5-0.1
		c-1.9,0.2-3.7,1-5.3,2.1c-2.7,1.9-4.2,4.4-4.8,7.6c-0.2,1.2-0.2,2.4-0.1,3.6C157.1,145.4,157.2,145.8,157.3,146.1z M158.1,141.6
		c0.5-2.9,1.9-5.3,4.3-7c2.4-1.7,5.1-2.3,8-1.9c2.9,0.5,5.2,1.9,7,4.3c1.7,2.4,2.3,5,1.9,8c-0.2,1.2-0.6,2.4-1.2,3.4
		c-0.7,1.4-1.8,2.5-3.2,3.5c-1.4,1-2.8,1.6-4.3,1.9c-1.2,0.2-2.4,0.2-3.7,0c-2.9-0.5-5.3-1.9-7-4.3c-1-1.4-1.6-2.8-1.9-4.4
		C157.9,144,157.9,142.8,158.1,141.6z"/>
	<path fill="#FFFFFF" d="M160,149.6c1.7,2.4,4.1,3.8,7,4.3c1.3,0.2,2.5,0.2,3.7,0c1.5-0.3,2.9-0.9,4.3-1.9c1.4-1,2.4-2.2,3.2-3.5
		c0.5-1,1-2.2,1.2-3.4c0.5-2.9-0.1-5.6-1.9-8c-1.7-2.4-4.1-3.8-7-4.3c-2.9-0.5-5.6,0.1-8,1.9c-2.4,1.7-3.9,4-4.3,7
		c-0.2,1.2-0.2,2.4,0,3.6C158.4,146.7,159,148.2,160,149.6z M166.9,143.2c0.2-1,0.7-1.4,1.7-1.2c0.2,0.1,0.4,0.1,0.6,0.2
		c0,0,0,0,0,0c-0.4-0.1-0.7,0.1-0.7,0.5c0,0.1,0,0.2,0,0.3c0.1,0.2,0.2,0.3,0.5,0.4c0.4,0.1,0.6-0.1,0.7-0.5c0-0.1,0-0.2,0-0.3
		c0.2,0.3,0.2,0.6,0.2,1.1c0,0.3-0.2,0.6-0.5,0.9c-0.3,0.3-0.7,0.4-1.2,0.3c-0.6-0.1-1-0.4-1.2-0.9
		C166.9,143.7,166.9,143.5,166.9,143.2z"/>
	<path d="M168.1,144.9c0.5,0.1,0.9,0,1.2-0.3c0.3-0.3,0.5-0.5,0.5-0.9c0.1-0.5,0-0.8-0.2-1.1c0,0.1,0,0.2,0,0.3
		c-0.1,0.4-0.3,0.5-0.7,0.5c-0.3,0-0.4-0.2-0.5-0.4c0-0.1,0-0.2,0-0.3c0.1-0.4,0.3-0.5,0.7-0.5c0,0,0,0,0,0
		c-0.1-0.1-0.3-0.1-0.6-0.2c-1-0.1-1.6,0.3-1.7,1.2c0,0.3,0,0.5,0.1,0.8C167.1,144.5,167.5,144.8,168.1,144.9z"/>
	<path d="M200.9,193.8c2.2,0,3.5-0.8,3.9-2.3c0.1-0.5,0.2-1.1,0.1-1.8c-0.1-0.7-0.1-1.2-0.1-1.4c0-1-0.3-4.5-1-10.5
		c-0.6-5.9-1.1-9.6-1.3-11.1c-0.2-1.3-0.4-2.9-0.5-4.8c-0.1-1.8-0.2-3.9-0.2-6.3c-0.1-4.9-0.3-8.5-0.7-10.8
		c-0.4,0.1-0.7,1.1-0.7,3.1c0.1,5.8,0.3,10.5,0.5,14c0.2,2.8,0.4,4.8,0.7,6.1c0.4,1.8,0.9,5.5,1.4,11.2c0.5,5,0.7,8,0.7,9
		c0,0,0,0.3,0.1,0.7c0.1,0.5,0,1.1-0.1,1.5c-0.3,1.5-1.3,2.2-3,2.2c-1.6,0-3-0.7-4-2.2c-0.3-0.4-0.6-1-0.9-1.6
		c-0.2-0.5-0.4-0.8-0.5-0.8c-0.2,0.3-0.3,0.7-0.3,1.2c0,0.7,0.4,1.5,1.2,2.5C197.5,193.1,199,193.8,200.9,193.8z"/>
	<path d="M224.3,129.1c-1.9,0.3-3.6,1-5.3,2.1c-2.7,1.9-4.2,4.5-4.8,7.7c-0.2,1.2-0.2,2.4-0.1,3.6c0.1,0.4,0.1,0.7,0.2,1.1
		c0.3,1.4,1,2.7,1.9,4c1.9,2.7,4.4,4.2,7.6,4.8c2.9,0.5,5.5-0.1,7.9-1.5c0.3-0.2,0.6-0.4,0.9-0.6c1.6-1.2,2.8-2.6,3.6-4.2
		c0.5-1,0.9-2.2,1.1-3.4c0.5-3.2-0.2-6.1-2.1-8.8c-1.9-2.6-4.4-4.2-7.6-4.7C226.6,129,225.4,128.9,224.3,129.1z M234.6,134.5
		c1.7,2.4,2.3,5.1,1.9,8c-0.2,1.3-0.6,2.4-1.2,3.4c-0.7,1.4-1.8,2.6-3.2,3.5c-1.4,1-2.8,1.6-4.3,1.9c-1.2,0.2-2.4,0.2-3.7,0
		c-2.9-0.5-5.3-1.9-7-4.3c-1-1.4-1.6-2.8-1.9-4.4c-0.2-1.2-0.2-2.4,0-3.6c0.5-2.9,1.9-5.2,4.3-7c2.4-1.7,5.1-2.3,8-1.8
		C230.6,130.7,232.9,132.1,234.6,134.5z"/>
	<path fill="#FFFFFF" d="M219.7,132c-2.4,1.7-3.8,4.1-4.3,7c-0.2,1.3-0.2,2.4,0,3.6c0.3,1.5,0.9,3,1.9,4.4c1.7,2.4,4.1,3.8,7,4.3
		c1.3,0.2,2.5,0.2,3.7,0c1.5-0.3,2.9-0.9,4.3-1.9c1.4-1,2.4-2.2,3.2-3.5c0.5-1,1-2.2,1.2-3.4c0.5-2.9-0.1-5.6-1.9-8
		c-1.7-2.4-4.1-3.8-7-4.3C224.7,129.7,222.1,130.3,219.7,132z M226.4,139.7C226.4,139.7,226.4,139.7,226.4,139.7
		c-0.4-0.1-0.7,0.1-0.7,0.5c0,0.1,0,0.2,0,0.3c0.1,0.2,0.2,0.3,0.5,0.4c0.4,0.1,0.6-0.1,0.7-0.5c0-0.1,0-0.2,0-0.3
		c0.2,0.3,0.2,0.6,0.2,1.1c-0.1,0.3-0.2,0.6-0.5,0.9c-0.3,0.3-0.7,0.4-1.2,0.3c-0.6-0.1-1-0.4-1.2-0.9c-0.1-0.3-0.1-0.5-0.1-0.8
		c0.2-1,0.7-1.4,1.7-1.2C226.1,139.5,226.3,139.5,226.4,139.7z"/>
	<path d="M224.1,140.7c0,0.3,0,0.5,0.1,0.8c0.2,0.5,0.5,0.8,1.2,0.9c0.5,0.1,0.9,0,1.2-0.3c0.3-0.2,0.5-0.5,0.5-0.9
		c0-0.5,0-0.8-0.2-1.1c0,0.1,0,0.2,0,0.3c-0.1,0.4-0.3,0.5-0.7,0.5c-0.3-0.1-0.4-0.2-0.5-0.4c0-0.1,0-0.2,0-0.3
		c0.1-0.4,0.3-0.5,0.7-0.5c0,0,0,0,0,0c-0.1-0.1-0.3-0.2-0.6-0.2C224.9,139.3,224.3,139.7,224.1,140.7z"/>
	<path d="M268.1,151.5c1.5,0,2.2-0.7,2.2-2.2c0-0.6,0-1-0.1-1.1c-0.2-0.6-0.8-0.9-1.7-0.9c-0.3,0-0.7,0.2-1.3,0.6l-0.1,0.1
		c0,0,0-0.1,0-0.4c0-0.9,0.5-2,1.4-3.3c1-1.2,1.4-1.9,1.4-2.1c0-0.3-0.1-0.5-0.1-0.5c-0.1,0-0.3,0-0.4-0.1c-1.2,0.8-2.1,2-2.7,3.4
		c-0.5,1.2-0.7,2.5-0.7,3.8c-0.1,0.5-0.1,0.9,0,1.4C266.3,151,267,151.5,268.1,151.5z M267.1,150.2v-0.6c0.3-0.1,0.6-0.4,0.7-0.7
		c0.1-0.3,0.2-0.4,0.3-0.4c0.4,0,0.7,0.1,0.9,0.1c0.2,0.1,0.3,0.4,0.3,0.8c0.1,0.2,0.1,0.3-0.1,0.5c-0.3,0.3-0.9,0.5-1.9,0.5
		c-0.3,0-0.4,0-0.4-0.1C267,150.3,267.1,150.2,267.1,150.2z"/>
	<radialGradient id="SVGID_2_" cx="92.3189" cy="189.6589" r="141.3504" gradientUnits="userSpaceOnUse">
		<stop  offset="0" style="stop-color:#FCE2CA"/>
		<stop  offset="1" style="stop-color:#FDCF9D"/>
	</radialGradient>
	<path fill="url(#SVGID_2_)" d="M267.3,150.4c1,0,1.6-0.2,1.9-0.5c0.1-0.2,0.1-0.3,0.1-0.5c0-0.4-0.1-0.7-0.3-0.8
		c-0.1-0.1-0.4-0.1-0.9-0.1c-0.1,0-0.1,0.1-0.3,0.4c-0.1,0.3-0.4,0.5-0.7,0.7v0.6c-0.1,0.1-0.1,0.1-0.2,0.1
		C266.9,150.4,267.1,150.4,267.3,150.4z"/>
	<path d="M207.3,206.9c2.9,0,5.6,0.1,8.4,0.2c0.4,0,0.6,0,0.7-0.1c0,0,0.1-0.2,0.1-0.5l-0.1-0.4c-5.5-0.3-8.5-0.4-9-0.4
		c-4.4,0-6.6,0-6.6,0.1c-8.5,0.4-13,0.6-13.5,0.6c-2.9,0.2-4.6,0.7-5.1,1.3c0.2,0.2,0.6,0.3,1.3,0.3c3,0,7.3-0.2,12.9-0.6
		C201.9,207.1,205.6,206.9,207.3,206.9z"/>
	<path d="M121.8,151.5c-0.1-0.6-0.2-1.2-0.4-1.8c-0.7-1.7-1.8-2.6-3.4-2.6c-0.3,0-0.4,0-0.4,0.1v0.3c0,0.2,0.1,0.4,0.2,0.7
		c1,0.1,1.8,0.5,2.2,1.2c0.4,0.8,0.7,1.4,1.1,1.6c-1.8,0-2.9,0.2-3.3,0.7c-0.1,0.2-0.2,0.6-0.2,1.4c0,0.4,0.1,0.9,0.2,1.3
		c0.3,0.8,0.8,1.2,1.6,1.2c1.4,0,2.2-0.4,2.5-1.2c0.1-0.3,0.1-0.6,0.1-1c0-0.2,0-0.5-0.1-0.9C121.9,152.3,121.9,152,121.8,151.5z
		 M120.9,154.1l-1.4,0.3c-0.1,0-0.3-0.2-0.5-0.6c-0.3-0.4-0.4-0.7-0.4-0.8c0-0.3,0-0.5-0.1-0.7c0-0.1,0.1-0.1,0.5-0.1
		c1.1,0,1.8,0.1,2,0.3c0.1,0.1,0.1,0.4,0.1,0.9C121,153.7,121,154,120.9,154.1z"/>
	<radialGradient id="SVGID_3_" cx="92.3413" cy="189.6406" r="141.3099" gradientUnits="userSpaceOnUse">
		<stop  offset="0" style="stop-color:#FCE2CA"/>
		<stop  offset="1" style="stop-color:#FDCF9D"/>
	</radialGradient>
	<path fill="url(#SVGID_3_)" d="M118.9,152.1c-0.3,0-0.5,0.1-0.5,0.1c0.1,0.2,0.1,0.5,0.1,0.7c0,0.1,0.1,0.4,0.4,0.8
		c0.3,0.4,0.4,0.6,0.5,0.6l1.4-0.3c0.1-0.1,0.1-0.4,0.1-0.9c0-0.5-0.1-0.8-0.1-0.9C120.6,152.2,119.9,152.1,118.9,152.1z"/>
	<path fill="#1CB1BF" d="M267.1,231.9c-11.1,2.5-22.2,4.2-33.5,5.2c-9.1,0.8-18.3,1.1-27.5,0.9c2.9,2.6,6,5.8,9.4,9.6
		c1.2,1.4,2.9,3.3,5,5.6c3.6-0.6,6.9-1.4,9.9-2.3c5.1-1.5,8.2-2.4,9.4-2.6c5-1.2,13.2-3.4,24.4-6.7c2.8-0.8,6.9-2.2,12.6-4.1
		c-1.7-1.4-3.5-3.1-5.3-5c-0.4-0.4-0.8-0.8-1.2-1.3C269.1,231.5,268.1,231.7,267.1,231.9z"/>
	<path fill="#1CB1BF" d="M265.2,242.4c-27.5,8.2-42.2,12.2-43.9,12.2c-0.2,0-0.5,0-0.7-0.1c-0.1,0.1-0.2,0.1-0.3,0.2
		c-0.1-0.1-0.1-0.2-0.2-0.3c-0.1,0-0.2,0-0.3-0.1c0-0.1-0.1-0.2-0.1-0.2c-0.1-0.2-0.2-0.3-0.3-0.5c-3.1-3.5-4.8-5.4-5.1-5.6
		l-0.1-0.1c-2.7,3.5-4.4,8-4.9,13.5c-0.4,4.3-0.6,10.8-0.6,19.5c0,1.8,0.3,5.5,0.7,10.9c0.4,4.6,0.7,7.8,1,9.6
		c0.5,3.4,1.5,6.8,3.2,10.1c0.3,0.1,0.7,0.1,1,0.1c2.2,0.1,7.3,0.2,15.2,0.2c4.5,0,11-0.6,19.4-1.7c5.4-0.7,10.7-1.5,15.8-2.4
		c0.3-2.6,0.6-5.8,1.1-9.7c1.2-10.5,2.2-17.2,3-20.2c0.1,0.1,0.2,0.1,0.2,0.2c0.1,0.1,0.1,0.3,0.1,0.5c0,1.5-0.1,3.3-0.4,5.2
		c-0.1,1.1-0.4,2.9-0.7,5.2c-0.1,0.9-0.3,2.5-0.7,4.9c-0.3,2.2-0.4,4-0.4,5.2c0,0-0.3,2.5-0.9,7.5c0,0.3-0.1,0.5-0.1,0.7
		c0.7-0.1,1.4-0.3,2.2-0.4c0.3,0.1,0.4,0.2,0.4,0.2c0.1,0.1,0.1,0.3,0.1,0.6c0,0.3-5.2,1.2-15.7,2.7c-11.1,1.6-18.9,2.4-23.5,2.4
		c-3.7,0-7-0.1-9.9-0.3c0.5,2.3,0.7,4.9,0.7,7.8c0,1.7-0.4,3.6-1.2,5.6c4.1,0,8.9,0,14.4,0c19.7,0.1,31.3-0.2,34.8-1
		c5.7-1.3,9-2.4,9.8-3.2c1.2-1.3,1.9-2.8,2.2-4.6c0.1-0.6,0.1-2.2,0.1-4.5c0-6.9-0.6-14.3-1.8-22.3c-0.9-5.6-2.2-12.4-4-20.4
		c-2.4-10.4-3.7-16.4-4.1-18.1c-0.8-4.2-1.4-8-1.6-11.1C267.8,241.6,266.4,242,265.2,242.4z"/>
	<radialGradient id="SVGID_4_" cx="174.4594" cy="270.0392" r="32.4616" gradientUnits="userSpaceOnUse">
		<stop  offset="0" style="stop-color:#F05535"/>
		<stop  offset="1" style="stop-color:#EE3C24"/>
	</radialGradient>
	<path fill="url(#SVGID_4_)" d="M197.8,250.8c2.7-0.5,5.2-0.2,7.6,0.9c1.1,0.6,2.2,1.2,3.2,1.9c0.1,0,0.1,0,0.1,0.1
		c0.1,0.1,0.3,0.1,0.4,0.2c0,0.1,0.1,0.1,0.1,0.2c0,0.1,0.1,0.1,0.1,0.2c0.1,0.1,0.1,0.1,0.2,0.1l0.3,0.1c0.9-2.9,2.1-5.4,3.6-7.4
		c-1.4-1.6-2.6-2.9-3.5-3.9c-2-2.1-3.7-3.7-5.2-4.7c-0.2-0.1-0.4-0.3-0.6-0.4c-0.2,0-0.4,0-0.6,0c-1,0.6-1.5,1-1.6,1
		c-2.1,1.3-5.8,3.8-11.2,7.5c0.5,0.7,0.8,1.3,1.1,1.8c0.5,1,0.8,2.5,0.9,4.6c1.4-1,2.9-1.7,4.6-2.1
		C197.5,250.8,197.6,250.8,197.8,250.8z"/>
	<path fill="#1CB1BF" d="M146.8,239.2c5.5,1.3,12.7,3.1,21.6,5.4c8,2,13.8,3.5,17.3,4.6c4-3.2,9.2-6.9,15.5-11v-0.2
		c-10.5-0.3-20.9-1.2-31.2-2.7c-11-1.6-21.9-3.6-32.7-6c-5.2-1.2-10.3-2.5-15.4-4.1c-1.2,1.3-2.5,2.8-4,4.4c1.4,0.6,3.3,1.4,5.6,2.2
		c4.6,1.8,8,3,10.3,3.8C137.9,236.9,142.2,238.1,146.8,239.2z"/>
	<radialGradient id="SVGID_5_" cx="174.4594" cy="270.0392" r="32.4616" gradientUnits="userSpaceOnUse">
		<stop  offset="0" style="stop-color:#F05535"/>
		<stop  offset="1" style="stop-color:#EE3C24"/>
	</radialGradient>
	<path fill="url(#SVGID_5_)" d="M189,276.2c-0.9,3-1.6,5.8-2.2,8.5c-0.9,4-2.5,8.9-4.8,14.8c2.9-0.6,5.3-0.9,7.4-0.9
		c0.9-0.6,2.3-1,4.4-1.4c-0.2,0.1,1.6,0.3,5.3,0.6c3.8,0.3,7,2.4,9.7,6.1c0.7,0.9,1.2,1.8,1.8,2.7c-0.5-1.5-1-3.1-1.4-4.7
		c-1.2-4.8-1.7-11.8-1.7-20.9c0-5.8,0-9.5,0.1-11.2c0.2-4.5,0.5-8.3,1.2-11.5c0.2-0.9,0.4-1.8,0.6-2.6c-0.1,0-0.1-0.1-0.2-0.1
		c-0.6-0.5-1.2-1-1.8-1.4c0,0.2-0.1,0.4-0.1,0.5c-0.1,1-0.2,2.7-0.4,5l-0.5,0.1c-0.1-0.6-0.1-1.4-0.1-2.6c0-0.8,0.1-2,0.3-3.4
		c-0.2-0.1-0.4-0.2-0.6-0.3c-0.5-0.3-1-0.5-1.4-0.7c-0.1,0.2-0.1,0.4-0.2,0.6c-1,3.4-1.4,5.9-1.5,7.5c-0.1,0.1-0.3,0.2-0.6,0.3
		c-0.1-0.1-0.1-0.4-0.1-0.9c0.5-3.2,1.1-5.8,1.6-7.8c-1.2-0.4-2.4-0.6-3.6-0.7c-0.1,1.3-0.2,2.8-0.5,4.6c-0.4,3-0.6,5.3-0.7,6.9
		l-0.3,0.1c-0.2-0.5-0.3-1.4-0.3-2.5c0-1.7,0.2-3.9,0.6-6.6c0.1-0.9,0.2-1.7,0.3-2.6c-0.6,0-1.2,0.1-1.8,0.2
		c-0.2,0.1-0.4,0.1-0.6,0.2c-0.2,0.1-0.4,0.2-0.6,0.3c0,0.5,0,1,0,1.4c0,2.7,0,4.7-0.1,6l-0.3,0.1c-0.1-1.5-0.2-3.5-0.3-6.2
		c0-0.3,0-0.7,0-1c-1,0.4-1.9,1-2.8,1.6c0,0.5,0,1,0,1.6c0,4.6-0.6,9.2-1.9,13.8C190.6,271,189.9,273.2,189,276.2z"/>
	<path fill="#1CB1BF" d="M111.7,321.4c4.4,4.2,13.3,6.3,26.7,6.3c10.5-0.1,19-0.1,25.7-0.2c-0.6-1.5-1.2-3-1.6-4.7
		c-0.6-2.2-0.9-4.2-0.9-5.8c0-1.3,0.1-2.5,0.2-3.6c-6.2,0.6-13.7,1-22.8,1c-5.4,0-9.1-0.2-11.1-0.6c-3.4-0.7-6.6-2.2-9.5-4.7
		c-0.1-0.1,0-0.1,0.5-0.1c0.3,0,0.8,0.2,1.4,0.7c0.5,0.4,1,0.7,1.5,1c0.4-1.4,0.7-2.2,0.7-2.3c0.4-2.9,0.7-5,1-6.6
		c0.3-2.7,0.5-4.9,0.5-6.8c0-6.7,0-11.2,0.1-13.4c0.1-5.2,0.5-9.6,1.1-13c0.2,0.9,0.3,1.9,0.3,3.1c0,0.2-0.1,3.5-0.3,9.8
		c-0.2,6.9-0.3,12.2-0.3,15.6c0,3.5-0.6,7.7-1.7,12.4c-0.1,0.5-0.3,1-0.4,1.6c3.2,1.4,8.7,2,16.3,2c8.6,0,15-0.3,19.3-0.7
		c2.5-0.3,6.2-0.9,11.1-1.9c0.7-1.6,1.8-3.4,3.4-5.4c2-2.7,4.6-4.4,7.6-5.2c1.1-3.3,2.2-6.7,3.4-10.2c5.3-16.6,8-27.8,8-33.6
		c0-3.2-0.3-5.7-1-7.3c-0.2-0.5-0.5-1-0.8-1.6c-0.6,0.5-1.7,1.4-3.3,2.7c-0.2,0.2-0.3,0.4-0.5,0.5c-11.6-2.9-19-4.7-22.1-5.4
		c-4.3-1-10.8-2.7-19.5-5.1c-6.5-1.8-12.9-3.9-19.4-6.3c-0.2-0.1-0.5-0.2-0.7-0.3c-0.7,2.1-1.6,5-2.8,8.5
		c-2.9,9.2-4.3,15.5-4.3,18.9c0,0.5-0.2,1.1-0.6,1.8c-0.4,0.7-0.6,1.4-0.6,2.2c0,0.2-0.1,0.6-0.3,1c-0.2,0.5-0.3,0.8-0.3,1
		c0,0-0.2,0.6-0.6,1.6c-0.4,1-0.6,1.6-0.6,1.8c0,1.1-0.5,4.7-1.5,10.6c-0.8,5.2-1.4,8.7-1.8,10.7c-0.3,1.7-0.8,5-1.5,9.7
		c-0.8,5.8-1.2,9.7-1.2,11.5c0,1.7,0.1,2.9,0.3,3.6C109.1,318.4,110.1,320,111.7,321.4z"/>
	<path fill="#00AAC4" d="M218.1,326.4c0.9-1.9,1.3-3.8,1.3-5.6c0-3.1-0.2-5.6-0.6-7.5c0-0.1-0.1-0.2-0.1-0.3
		c-1.7-0.1-3.4-0.3-4.8-0.5c-0.3,0-0.5-0.1-0.7-0.1c1.5,5.8,0.6,10.6-2.7,14.2C212.6,326.5,215.2,326.4,218.1,326.4z"/>
	<radialGradient id="SVGID_6_" cx="92.3392" cy="189.6469" r="141.3344" gradientUnits="userSpaceOnUse">
		<stop  offset="0" style="stop-color:#FCE2CA"/>
		<stop  offset="1" style="stop-color:#FDCF9D"/>
	</radialGradient>
	<path fill="url(#SVGID_6_)" d="M210.4,308.4c-3.1-6.7-8.6-10-16.6-10c-1.6,0-2.8,0.4-3.6,1.3c-0.5,0.5-0.8,1.1-0.8,1.6
		c0,1.2,0.5,2,1.4,2.7c0.6,0.4,1.7,0.8,3.2,1.1c1.6,0.4,2.7,0.7,3.2,0.9c1,0.4,1.4,1.1,1.4,2c0,0.7-0.5,1.3-1.5,1.8
		c-0.6,0.3-1.7,0.5-3.3,0.9c-1.6,0.3-2.7,0.6-3.3,0.9c-1,0.5-1.5,1.1-1.5,1.9c0,1.3,0.4,2.2,1.4,2.9c0.5,0.4,1.5,0.8,3,1.2
		c1.4,0.4,2.4,0.8,3,1.2c0.9,0.6,1.4,1.6,1.4,2.9c0,1.2-0.3,2.2-0.9,2.9c-0.4,0.5-1.1,1.1-2,1.6c-1.2,0.6-1.8,1-2,1.1
		c-0.6,0.5-0.9,1-0.9,1.7c0,0.7,0.3,1.4,1,2c0.8,0.7,1.9,1.1,3.3,1.1c2.6,0,5.2-0.7,7.8-2.2c0.2-0.1,0.5-0.2,0.7-0.4
		c7.1-4.1,9.4-10.1,6.8-18C211.3,310.4,210.9,309.4,210.4,308.4z"/>
	<radialGradient id="SVGID_7_" cx="92.3385" cy="189.6484" r="141.3341" gradientUnits="userSpaceOnUse">
		<stop  offset="0" style="stop-color:#FCE2CA"/>
		<stop  offset="1" style="stop-color:#FDCF9D"/>
	</radialGradient>
	<path fill="url(#SVGID_7_)" d="M174.7,304.5c-1.2,1-1.9,1.9-2.3,2.6c-2.3,3.7-3.4,7.1-3.4,10.3c0,2.9,0.9,5.4,2.8,7.7
		c3.1,3.7,8.3,5.6,15.6,5.6c0.7,0,1.9-0.2,3.6-0.6c-0.1-0.4-0.1-0.8-0.1-1.2c0-1,0.3-1.8,0.9-2.4c0.4-0.4,1-0.8,2-1.2
		c1-0.5,1.6-0.9,2-1.2c0.6-0.6,0.9-1.4,0.9-2.4c0-0.9-0.5-1.6-1.4-2.1c-0.3-0.1-1.3-0.5-3-1c-1.4-0.4-2.4-0.9-3-1.5
		c-0.9-0.8-1.4-2-1.4-3.5c0-1.9,1.3-3.2,4-3.9c0.3-0.1,1.4-0.3,3.2-0.7c1.2-0.2,1.9-0.5,2.3-0.8c-0.3-0.6-1.6-1.2-3.6-1.8
		c-2.2-0.6-3.5-1-3.9-1.4c-0.9-0.8-1.4-1.5-1.6-2c-0.1-0.2-0.1-0.8-0.1-1.8c0-0.7,0.1-1.3,0.3-1.7c-0.9,0.1-1.9,0.3-3,0.4
		c-3.5,0.6-6.2,1.5-8.2,2.6C176.7,302.8,175.8,303.5,174.7,304.5z"/>
	<path fill="#00AAC4" d="M163.1,313.2c-0.1,0.9-0.3,2.2-0.5,3.8c0,3.8,0.8,7.3,2.4,10.5c2.7,0,5,0,7.1-0.1c-0.7-0.6-1.3-1.3-1.8-2
		c-1.7-2.3-2.5-5-2.5-8.1c0-1.2,0.3-2.9,0.8-4.9C167,312.7,165.1,313,163.1,313.2z"/>
	<path fill="#FFFFFF" d="M248.3,357.9c3.4-0.2,5.4-0.3,5.9-0.4c-1.6-2-6.4-7.3-14.2-15.9c-3.4-3.5-6.3-6.3-8.5-8.6
		c-2.2-2.2-3.9-4-4.9-5.2c-1.7,0-3.4,0-5.2,0c-0.4,0-4.6,0.2-12.6,0.5c-1.3,1.1-2.9,2.1-4.7,2.9l0,0.3c5.2,0,7.9,0,8.1,0
		c0.6-0.2,1.3-0.3,2-0.3c1.2,0,2.4,1.3,3.6,3.9c0.1,0.2,0.5,1.2,1.4,3.1c0.5,1.1,0.9,1.9,1.2,2.3c0.9,1.2,3.2,4.2,7,8.9
		c0.9,1.1,1.9,2.7,3.1,4.7c0.6,1,1.4,2.4,2.4,4.1c2.8,0.1,6.1,0.1,9.9,0.1C243.5,358.1,245.3,358,248.3,357.9z"/>
	<path fill="#FFFFFF" d="M153.6,352.6c-2.7,4.3-5,7.8-6.8,10.4l0,0.1c0.4-0.1,1.2-0.2,2.5-0.3c1.4-0.1,2.4-0.2,2.9-0.3
		c0.2-0.3,0.9-0.5,2.2-0.8c2.5-0.4,6.9-0.7,13.5-0.7c3,0,5.2,0.1,6.6,0.3c0.5,0.1,1.4,0.3,2.8,0.6c2.4,0.6,7.6,1,15.6,1
		c0.5,0,2.9-0.2,7-0.7c4.1-0.4,6.8-0.6,8-0.6c0.5,0,4.8,0.5,12.9,1.5c8.1,1,12.8,1.6,14.3,1.8h2.2c-2.7-2.1-5-4.9-7-8.3
		c-1.1-1.9-1.9-3.4-2.5-4.4c-1-1.7-2.1-3.3-3.2-4.6c-3.4-4.3-5.4-7-6.1-8.1c-1-2-1.8-3.5-2.2-4.3c-0.2-0.4-0.3-0.8-0.4-1.1
		c-0.2-0.5-0.4-0.9-0.7-1.1c-0.3-0.3-0.5-0.5-0.6-0.5c-0.1-0.1-0.4-0.1-0.8-0.1c-2.4,0.2-4.6,0.3-6.7,0.3c-2.2,0-4.1-0.1-5.6-0.4
		c-1.7,0.6-3.4,0.9-5,0.9c-2.4,0-4-0.6-4.8-2c-0.1,0.1-0.3,0.2-0.4,0.3c-0.5,0.2-1.8,0.3-3.7,0.3c-5.8,0-10.4-1.1-13.7-3.3
		c-1.3,0-2.7,0-4.4,0c-2.2,3.3-5.3,7.9-9.2,13.6C159.3,343.8,157.1,347.2,153.6,352.6z"/>
	<path fill="#C9982C" d="M222.6,393.6c59.6,0.1,106.9,0.1,141.9,0.1c-21.3-25.8-42.4-51.5-63.5-77.2c-6.4,0-12.9,0-19.3,0
		c0,0.3-0.1,0.7-0.1,1c-0.3,2-0.8,3.5-1.5,4.5c-0.4,0.6-1.2,1.2-2.2,1.8c-1.1,0.6-2.3,1.2-3.6,1.5c-3.3,0.9-5.4,1.4-6.1,1.4
		c-4.1,0.8-7.2,1.2-9.3,1.1c-6.3-0.1-16.5-0.2-30.6-0.2c1,1.1,2.5,2.6,4.4,4.5c4.2,4.3,7.3,7.4,9.3,9.3c9.8,11,14.7,16.5,14.7,16.6
		c0,0.5-1.3,0.8-3.7,1c-3,0.2-9.2,0.3-18.6,0.3c-0.2,0-0.4,0-0.5,0c0.8,1.1,2,2.2,3.7,3.4c2.4,1.8,3.9,3,4.5,3.7
		c-0.1,0.4-0.4,0.7-0.9,0.7c-0.4,0-5.5-0.7-15.5-2.1c-10-1.4-15.8-2.1-17.6-2.1c-1.5,0-4.3,0.2-8.4,0.6c-4.1,0.4-6.4,0.7-6.7,0.7
		c-8.1,0-13.3-0.3-15.6-1c-1.4-0.3-2.3-0.6-2.8-0.6c-1.4-0.2-3.6-0.3-6.5-0.3c-7.9,0-15.1,0.7-21.4,2.2H145
		c-0.1,0.1-0.2-0.1-0.2-0.6c0-0.3,1.8-3.1,5.4-8.5c5.7-8.6,8.6-12.9,8.7-13.1c3.5-5.5,6.5-10,9-13.6c-7.1,0.1-16.9,0.1-29.4,0.3
		c-13.8,0-23.1-2.2-27.7-6.8c-1.6-1.5-2.6-3.3-3.1-5.3c-0.1-0.2-0.1-0.4-0.1-0.6c-5.4,0-10.9,0-16.3-0.1
		c-21.1,25.7-42.3,51.4-63.6,77.3c0,0.1,0,0.1,0,0.1C155.7,393.6,220.7,393.6,222.6,393.6z"/>
	<path fill="#996B29" d="M27.6,405.2c128.1-0.1,193.1-0.1,195-0.1c59.8,0.1,107.2,0.1,142.2,0.1c0-3.5,0-6.9,0-10.3
		c-110.9,0-223.3-0.2-337.2-0.5C27.6,398.1,27.6,401.6,27.6,405.2z"/>
</g>
<g id="lady_x5F_01">
</g>
<g id="Layer_13">
</g>
<g id="Layer_12">
</g>
<g id="Layer_14">
</g>
<g id="Layer_15">
</g>
<g id="Layer_16">
</g>
<g id="Layer_17">
</g>
<g id="Layer_18">
</g>
<g id="Layer_19">
</g>
<g id="Layer_20">
</g>
<g id="Layer_21">
</g>
<g id="Layer_22">
</g>
<g id="Layer_23">
</g>
<g id="Layer_24">
</g>
<g id="Layer_25">
</g>
<g id="Layer_26">
</g>
<g id="Layer_27">
</g>
<g id="Layer_28">
</g>
<g id="Layer_29">
</g>
<g id="Layer_30">
</g>
<g id="Layer_31">
</g>
<g id="Layer_32">
</g>
<g id="Layer_33">
</g>
<g id="Layer_34">
</g>
<g id="Layer_36">
</g>
<g id="Layer_35">
</g>
<g id="Layer_37">
</g>
<g id="Layer_38">
</g>
<g id="Layer_39">
</g>
<g id="Layer_40">
</g>
</svg>
