<?xml version="1.0" encoding="utf-8"?>
<!-- Generator: Adobe Illustrator 18.1.1, SVG Export Plug-In . SVG Version: 6.00 Build 0)  -->
<!DOCTYPE svg PUBLIC "-//W3C//DTD SVG 1.1//EN" "http://www.w3.org/Graphics/SVG/1.1/DTD/svg11.dtd">
<svg version="1.1" xmlns="http://www.w3.org/2000/svg" xmlns:xlink="http://www.w3.org/1999/xlink" x="0px" y="0px"
	 viewBox="0 0 393 483" enable-background="new 0 0 393 483" xml:space="preserve">
<g id="ziutek_x5F_01">
</g>
<g id="ziutek_x5F_02">
</g>
<g id="ziutek_x5F_03">
</g>
<g id="ziutek_x5F_04">
</g>
<g id="ziutek_x5F_05">
</g>
<g id="ziutek_x5F_06">
</g>
<g id="ziutek_x5F_07">
</g>
<g id="ziutek_x5F_08">
</g>
<g id="ziutek_x5F_09">
</g>
<g id="ziutek_x5F_10">
</g>
<g id="lady_x5F_01">
</g>
<g id="Layer_13">
</g>
<g id="Layer_12">
</g>
<g id="Layer_14">
</g>
<g id="Layer_15">
</g>
<g id="Layer_16">
</g>
<g id="Layer_17">
</g>
<g id="Layer_18">
</g>
<g id="Layer_19">
</g>
<g id="Layer_20">
</g>
<g id="Layer_21">
</g>
<g id="Layer_22">
</g>
<g id="Layer_23">
</g>
<g id="Layer_24">
	<g>
		<g>
			<path fill="#FFB24D" d="M243.3,315.6l-24.7,9.3c4.4,24.1,9.7,26.3,16.9,25.5C245.3,349.4,244.3,342.4,243.3,315.6z"/>
			<g>
				<path fill="#1D1D1D" d="M242.2,315.7c0.3,7.8,0.9,15.6,0.6,23.3c-0.2,4.3-0.8,9.1-5.6,10.4c-13.3,3.5-15.8-15.9-17.5-24.7
					c-0.2-1-2.4-0.5-2.2,0.6c2,10.6,4.7,29,19.5,25.8c4.1-0.9,6.4-3.3,7.4-7.4c2.1-8.8,0.4-19.2,0-28.1
					C244.3,314.4,242.1,314.7,242.2,315.7L242.2,315.7z"/>
			</g>
		</g>
		<g>
			<path fill="#E57F23" d="M146.3,286.9c-0.6,5.3-7.3,18.3-24.7,9.7c-17.8-8.8-5.6-27.7-16.1-28.8c-21.1-2.4-14.8,38.7,13.1,41.9
				c11.3,1.3,23.3-2.3,27.8-9.3L146.3,286.9z"/>
			<g>
				<path fill="#1D1D1D" d="M145.5,299.9c-6.3,9.1-20.5,10.6-30.5,8.1c-6.9-1.8-12.5-6.6-16.3-12.5c-5.1-7.9-8.6-28.3,6.5-27
					c5.7,0.5,4.3,10.4,4.9,14.3c1.1,7.4,5.9,12.1,12.4,15.2c10.2,4.7,23.1,0.9,24.9-11.3c0.2-1.1-2.1-0.9-2.2,0.2
					c-1.3,9.3-10,13.2-18.5,10.7c-10.9-3.1-14.3-11.2-15-21.5c-0.3-4.8-1.2-8.8-6.6-9.3c-4.4-0.4-8.9,1.5-11.1,5.4
					c-5.7,10.2,0.6,23.7,8.3,30.9c11.3,10.6,35.7,10.8,45.1-2.6C148.1,299.5,146.1,299.1,145.5,299.9L145.5,299.9z"/>
			</g>
		</g>
		<g>
			<path fill="#FFB24D" d="M249.3,308.7c19.5-22.5,11-48.4,8-75.4c-2-18.2-1.1-44.6-10.1-56.7c-5.8-7.8-10.1-11.6-14.3-13.4
				c-4.6-2.1-17.3-3.1-20-3.5c-13.8-1.8-34-1-42.6,3.9c-17.4,10-21.2,21.7-25,47.3c-4.3,28.7-8.8,98.3,13.9,112.4
				c12.4,7.7,29.9,7.7,38.4,5.8C212.8,326.1,237,322.9,249.3,308.7z"/>
			<g>
				<path fill="#1D1D1D" d="M250.3,308.7c17.5-20.8,12-46.3,8.7-71c-1.6-12.2-1.8-24.6-3.2-36.9c-1.3-11.6-4.2-21.2-11.9-30.1
					c-6.6-7.7-13.7-9.7-23.4-10.9c-9.7-1.2-19.4-2-29.2-1.4c-9.8,0.5-18.6,2.4-26.7,8.1c-6.6,4.6-11.4,10.9-14.4,18.4
					c-3.8,9.5-5.1,20.1-6.5,30.2c-1.2,8.8-1.9,17.6-2.4,26.5c-1.1,19.5-1.1,39.8,3.5,58.9c1.7,7.1,4.4,14.3,9.4,19.8
					c6.3,6.9,17.1,9.2,26,10.1c9.9,1,19.4-1.1,29-3c10.1-2,20.1-4.6,29.3-9.4c4.4-2.3,8.3-5.4,11.6-9c0.9-1-1.3-0.9-1.7-0.4
					c-8.5,9.4-20.7,13.5-32.7,16.3c-10.3,2.4-21.2,4.9-31.8,4.5c-10.6-0.4-23-3.4-29.7-12.3c-5-6.7-7.1-15.4-8.6-23.4
					c-3.8-20.1-3.1-41.2-1.5-61.5c0.7-8.7,1.7-17.4,3.1-26.1c1.6-10.2,3.6-20.7,9.4-29.4c11.5-17.2,33.2-18.1,51.9-16.6
					c7.6,0.6,16.5,0.9,23.6,3.8c8.3,3.4,15.3,13.4,18.2,21.5c3.2,9,3.8,18.9,4.4,28.3c0.8,10.4,1.5,20.8,3,31.2
					c3.2,22.6,6.4,45.3-9.4,64.1C247.7,309.4,249.9,309.3,250.3,308.7z"/>
			</g>
		</g>
		<path fill="#F9A138" d="M144.2,268c0.8,10.9,1.2,23.6,4.5,34.2c4,13,12.6,14.7,24,20.2c10.2,5,37.8-0.6,44.8-1.8
			c7.2-1.2,22-6.4,27.8-11c2.7-2.2,5.8-6.4,7.5-9.5c5.4-9.8-6.4-2.4-10.4-0.9c-6.7,2.4-13.3,4.7-20.4,5.8
			c-14.1,2.4-35.6,4.5-47.5-3.7c-23.6-16.2-25.5-31.8-25.5-57.5c0-4.5-1.6-14.3-1.8-13.8C144.2,238.7,142.9,251,144.2,268z"/>
		<path fill="#E57F23" d="M145.8,217.2c1.7,3.9,4.4,9.5,7.4,12.6c8.9,9.3,15.6,9.9,12.7,11.3c-0.4,0.2-22.7-3.3-22-12.5L145.8,217.2
			z"/>
		<path fill="#E57F23" d="M143.9,243.4c2.1,3.7,7.2,8,10.5,10.7c10,8.2,16.6,8,14,9.7c-0.4,0.3-24.6-0.9-25-10.2L143.9,243.4z"/>
		<path fill="#E57F23" d="M143.7,269.7c2.7,3.3,10.1,8.4,14,10.2c9.8,4.7,17.7,2.3,15.3,4.4c-0.4,0.3-15.2,9.1-28.6-1.9L143.7,269.7
			z"/>
		<path fill="#E57F23" d="M148.1,301.1c5.9,1.1,14.7,1.9,19,2.3c12.8,1.3,18.2-2.6,17,0.3c-0.2,0.5-8.4,9.3-32.2,7.5
			c0,0-1.6-3.5-2-4.6C149.3,305.2,148.1,301.1,148.1,301.1z"/>
		<g>
			<path fill="#FFB24D" d="M147.7,150.2c-3.1,12.6-0.3,24,3.9,35.2l20.5-23.3C162.5,149.3,147.7,150.2,147.7,150.2z"/>
			<g>
				<path fill="#1D1D1D" d="M173.1,161.6c-6-7.5-15.4-12.7-25.3-12.3c-0.6,0-1.1,0.4-1.2,0.9c-2.8,12.2-0.4,23.8,3.9,35.4
					c0.4,1,2.5,0.4,2.2-0.6c-4.2-11.4-6.6-22.9-3.9-35c-0.4,0.3-0.8,0.6-1.2,0.9c9.1-0.5,18,4.6,23.5,11.6
					C171.8,163.4,173.8,162.5,173.1,161.6L173.1,161.6z"/>
			</g>
		</g>
		<path fill="#FFF3E3" d="M157.9,175.9c-7.6-12.5-8.1-23.4-8.1-23.4c8.4,1.6,16.2,6,19,12.5L157.9,175.9z"/>
		<g>
			<path fill="#1D1D1D" d="M157.9,177.6c-4.3-7.8-7.2-17-8.2-25.8c0-0.1-0.7,0-0.7,0.2c1,8.8,3.8,18,8.2,25.8
				C157.2,178,157.9,177.7,157.9,177.6L157.9,177.6z"/>
		</g>
		<g>
			<path fill="#1D1D1D" d="M146.1,218.5c2.2,6.4,8.2,12.5,13,17.1c0.9,0.9,1.9,1.8,3.1,2.5c1,0.5,6.4,3.1,1.8,2.7
				c-6-0.6-15.5-4.4-19.4-9.2c-0.1-0.2-0.8,0.1-0.7,0.3c3.4,4.2,10,6.8,15.1,8.2c1.7,0.5,6.4,2.4,8,0.7c0,0,0-0.1,0-0.1
				c-0.5-1.3-2.7-2.1-3.8-2.7c-2.4-1.3-4.4-3.5-6.3-5.6c-3.7-4-8.3-9-10.1-14.1C146.7,218.1,146,218.3,146.1,218.5L146.1,218.5z"/>
		</g>
		<g>
			<path fill="#1D1D1D" d="M143.5,270.3c6.9,7.7,16.6,11.4,26.5,13.6c1.1,0.2,2.2,0.4,3.4,0.7c-0.3-0.1-1.9,1-2.4,1.2
				c-1.8,0.7-3.8,1.1-5.7,1.5c-6.5,1.3-14.1,1.2-19.6-2.9c-0.2-0.1-0.8,0.2-0.7,0.3c7.4,5.5,21.6,4.9,29.3,0c0.1,0,0.1-0.1,0-0.2
				c-11.1-2.8-22.1-5.3-30.1-14.3C144,269.8,143.4,270.1,143.5,270.3L143.5,270.3z"/>
		</g>
		<g>
			<path fill="#1D1D1D" d="M148.2,300.6c9.6,4.2,21.1,3.6,31.4,2.8c1.1-0.1,2.3-0.1,3.4-0.3c1.4-0.4,0.7-0.5,0.4-0.2
				c-2,2.9-4.7,4.5-8,5.8c-6.3,2.4-16.3,3.8-22.8,2.2c-0.2,0-0.8,0.2-0.6,0.3c5.9,1.4,12.7-0.1,18.6-1.1c5.4-1,10.4-2.9,13.7-7.6
				c0.1-0.1-0.5,0-0.6,0c-4,1.7-10.3,1-14.4,1c-6.8,0-14.1-0.4-20.4-3.2C148.7,300.3,148.2,300.6,148.2,300.6L148.2,300.6z"/>
		</g>
		<g>
			<path fill="#545454" d="M194.1,219.6c-21-3-43.3-2.2-63,6c-0.9,0.4-0.1,0.7,0.5,0.5c19.3-8,41.1-8.7,61.6-5.8
				C193.6,220.4,194.9,219.7,194.1,219.6L194.1,219.6z"/>
		</g>
		<g>
			<path fill="#545454" d="M196.3,226.3c-7-2.5-16.3-1.4-23.5-0.7c-16.6,1.5-32.8,6.6-47.5,14.2c-0.9,0.5-0.1,1.1,0.6,0.7
				c14.6-7.5,30.4-12.4,46.8-14c6.9-0.7,16.1-1.8,22.8,0.7C196,227.4,197.1,226.6,196.3,226.3L196.3,226.3z"/>
		</g>
		<g>
			<path fill="#545454" d="M291.9,226.7c-8.9-3.6-17.9-6.3-27.4-7.4c-9.4-1-18.9-0.1-28.3,1c-0.8,0.1-1.1,1.1-0.1,1
				c9.3-1,18.6-1.8,27.9-1c9.4,0.8,18.4,3.8,27,7.3C291.7,227.8,292.8,227,291.9,226.7L291.9,226.7z"/>
		</g>
		<g>
			<path fill="#545454" d="M300.9,212.1c-22-4.9-43-3.4-64.9,1.3c-0.9,0.2-0.7,0.9,0.2,0.7c21.5-4.6,42.1-6,63.8-1.2
				C300.5,212.9,301.8,212.3,300.9,212.1L300.9,212.1z"/>
		</g>
		<g>
			<g>
				<path fill="#FFB24D" d="M228.6,140.1c-8.9,8.1-12.2,10.3-17.1,19.3l29.7,8.7C239.7,159.3,233.2,144,228.6,140.1z"/>
				<g>
					<path fill="#1D1D1D" d="M212.6,159.5c4.3-7.7,10.3-13,16.8-18.9c-0.5,0-1,0.1-1.6,0.1c6.9,6.4,10.6,18.6,12.3,27.6
						c0.2,1,2.4,0.5,2.2-0.6c-1.8-9.3-5.7-21.7-12.8-28.3c-0.4-0.4-1.2-0.2-1.6,0.1c-6.7,6.1-13,11.7-17.4,19.6
						C209.9,160.3,212.1,160.4,212.6,159.5L212.6,159.5z"/>
				</g>
			</g>
			<path fill="#FFF3E3" d="M224.4,159.3c-3.8-14.1,4.1-16,4.1-16c6.2,7.2,9.9,19.5,8.7,23.2L224.4,159.3z"/>
			<g>
				<path fill="#1D1D1D" d="M227.6,142.4c-2.8,5.5-4.5,11.3-5.7,17.3c0,0.1,0,0.1,0.1,0.1c4.1,1.3,8.3,2.9,11.8,5.6
					c0.2,0.1,0.8-0.1,0.7-0.3c-3.4-2.6-7.5-4.1-11.5-5.5c-1.8-0.6,4.5-15.7,5.3-17.3C228.4,142.2,227.7,142.2,227.6,142.4
					L227.6,142.4z"/>
			</g>
		</g>
		<g>
			<path fill="#EDE1CF" d="M238.6,309.5c13.5-8.5,13.1-32.1,9.1-38.6c-6.2-11.7-22.9-11.9-34.2-9.2c-16.5,4.4-19.3,13.4-16.6,28.6
				c0.9,5.9,1.4,17,6,20.4C209.8,315.8,230.1,314.9,238.6,309.5z"/>
			<path fill="#FFF3E3" d="M206.4,267c5.8-9.3,30.4-8.8,35.8,9.2c2.9,6.9,1.9,20.3-3.5,25.8c-5.9,6.1-18.8,4.2-25.8,0.7
				C204.1,298.2,199.9,277.4,206.4,267z"/>
			<g>
				<path fill="#1D1D1D" d="M246.6,301.7c4.3-8.9,5.1-19.3,2-28.7c-2.4-7.4-10-11.9-17.3-13.2c-14.5-2.6-31,1-33.5,17.5
					c-1.3,8.3-0.8,17.4,0.9,25.6c1.4,6.7,5.4,9.6,11.9,11.1c7.4,1.7,15.6,0.7,22.7-1.6C239.7,310.5,243.3,307.5,246.6,301.7
					c0.2-0.3-0.5-0.3-0.7-0.1c-3.4,5.9-7.3,8.7-13.9,10.7c-7,2.2-14.9,2.6-22.1,1c-6.1-1.4-9.2-4.7-10.6-10.6
					c-1.7-7.1-1.8-14.7-1.3-22c0.5-6.9,2.3-13.2,8.4-17.3c6.5-4.4,15.8-4.5,23.2-3.4c8.5,1.2,15.8,6.1,18.6,14.4
					c2.9,8.8,1.6,19-2.4,27.2C245.7,302,246.4,302,246.6,301.7z"/>
			</g>
			<path fill="#1D1D1D" d="M233.6,287c0.1-1.1-0.4-2.3-1.6-2.3c-2.6,0-1.6,4.6,0.6,3.8C233.2,288.3,233.5,287.7,233.6,287z"/>
		</g>
		<g>
			<path fill="#DB6E6E" d="M228,219.1c0,0,6,19.9-9.9,16.5c-9.5-2-9.2-13.3-9.2-13.3s4.7-2.5,5.5-4.3c0.8-1.7,0.8-4,1.5-5.3
				c0.6-1.2,1.2,1.7,2.2,3.3C219.2,218.1,228,219.1,228,219.1z"/>
			<path fill="#FFF3E3" d="M203.9,213.8c1.8-2.9,5.9-4.7,9.1-3.5c1.5,0.6,3.9,2.5,3.3,4.5c0-0.1,0-0.1,0-0.2
				c1.3-3.9,4.8-6.8,9.1-5.1c2.8,1.2,4.1,4,3.8,6.9c-0.4,5.3-6.7,6.3-10.1,3.4c-1.1-1-1.9-2.4-2.3-3.8c0.3,0.9-1.1,4.5-1.8,5.4
				c-1.3,1.6-3.7,1.8-5.6,1.9c-1.5,0.1-4.3-1.8-5.2-3.1C202.8,218,202.7,215.6,203.9,213.8z"/>
			<g>
				<path fill="#1D1D1D" d="M228,211.9c1.1,3.4,1.1,9.6-4.3,8.9c-4-0.5-4.7-3.6-5.1-7c0-0.3-1.5,0-1.4,0.4c0.3,2.2,0.4,4.6,2.3,6
					c1.4,1.1,3.6,1.5,5.4,1.2c5-1,6-5.4,4.5-9.9C229.3,211.2,227.9,211.6,228,211.9L228,211.9z"/>
			</g>
			<g>
				<path fill="#1D1D1D" d="M216.6,214.7c0.3,2.3,0.5,4.8-1.1,6.7c-1.9,2.2-5.9,2.2-8.1,0.5c-0.4-0.3-1.8,0.2-1.3,0.6
					c2.6,2,6.1,1.9,8.9,0.4c3.4-1.7,3.4-5.2,3-8.5C218,213.8,216.5,214.1,216.6,214.7L216.6,214.7z"/>
			</g>
			<g>
				<path fill="#FF99C3" d="M217.9,214.3c-1,0-6.6-3.4-5.6-4.2c1-0.7,8.2-1.6,8.8-0.7C221.9,210.5,218.4,214.3,217.9,214.3z"/>
				<g>
					<path fill="#1D1D1D" d="M218.1,213.8c-1.3-0.1-2.9-1.4-3.9-2.2c-0.1-0.1-1.3-1.2-1.3-1.2c0.8-0.3,1.7-0.4,2.5-0.5
						c0.9-0.1,1.8-0.2,2.7-0.3c0.5,0,1.9-0.3,2.4,0.1c0.6,0.6-2.1,3.9-2.7,4.1c-0.9,0.2-0.6,1.2,0.3,0.9c1.7-0.5,3.9-3.4,4-5.1
						c0.1-2-5.1-1-6-0.9c-1,0.1-5.3,0.4-4.3,2.2c0.5,1,2,1.8,2.9,2.3c0.9,0.6,2,1.3,3.1,1.4C218.3,214.9,219.1,213.9,218.1,213.8z"
						/>
				</g>
			</g>
		</g>
		<g>
			<path fill="#FF7676" d="M194.9,213.3c0,0-18.6-3.6-22.1-15.2c-3.2-10.7,9.2-14.1,13.5-11.9c2.9,1.5,4.9,5.6,4.9,5.6
				s0.6-7.8,8.5-7.7C209.2,184.3,213.1,198.1,194.9,213.3z"/>
			<path fill="#FFAAAA" d="M196.2,207.2c0,0-13-2.5-15.4-10.6c-2.2-7.4,4.8-8,6.6-6.6c1.8,1.3,3.4,3.9,3.4,3.9s3.3-7.1,8.8-7
				C206.1,186.9,208.9,196.5,196.2,207.2z"/>
			<g>
				<path fill="#1D1D1D" d="M195.1,213.3c-8.2-2.5-18.3-5.1-21.5-14.1c-1.6-4.4-0.1-9.1,3.6-11.8c5.2-3.9,10.8-0.1,12.8,5.1
					c0.2,0.4,1,0.1,0.9-0.2c-3.3-8.7-14.1-9.1-18-0.6c-2.4,5.2,0.6,11.2,4.5,14.7c4.6,4.2,11.4,5.9,17.2,7.5
					C194.9,213.8,195.5,213.4,195.1,213.3L195.1,213.3z"/>
			</g>
			<g>
				<path fill="#1D1D1D" d="M190.9,191.8c0.3-1.1,0.5-2.2,0.9-3.2c2.6-7.1,10.9-5.4,13.8-0.9c1.9,3,1.4,6.8,0.5,10
					c-1.9,6.1-6.6,11.3-10.9,15.7c-0.2,0.2,0.7,0.1,0.9-0.1c6.5-6.4,15.9-17.6,9.9-26.9c-4.6-7-14.6-1.1-15.2,5.4
					C190.6,191.9,190.8,191.9,190.9,191.8L190.9,191.8z"/>
			</g>
		</g>
		<g>
			<path fill="#FF7676" d="M236.6,205.9c0,0-16.1-2.6-18.1-14c-2-11.4,7.5-13.2,10.8-11c2.3,1.5,3.8,4.5,3.8,4.5s0.1-8.3,6.2-7.9
				C246.5,178,252.3,191.7,236.6,205.9z"/>
			<path fill="#FFAAAA" d="M238.1,200.2c0,0-13-2.5-15.4-10.6c-2.2-7.4,4.8-8,6.6-6.6c1.8,1.3,3.4,3.9,3.4,3.9s1.4-6.7,6.9-6.6
				C246.2,180.4,250,190.2,238.1,200.2z"/>
			<g>
				<path fill="#1D1D1D" d="M236.3,205.3c-7.9-1.9-16.3-6.8-18-15.3c-0.9-4.5,1.4-9.1,6.1-9.9c4.2-0.8,7.5,2.3,8.6,6
					c0.1,0.2,0.8,0,0.7-0.2c-1.6-7.4-11.2-8.4-15.1-2.5c-2.9,4.3-0.4,10.3,2.5,13.9c3.6,4.5,9.4,7.1,14.9,8.3
					C236.2,205.6,236.6,205.4,236.3,205.3L236.3,205.3z"/>
			</g>
			<g>
				<path fill="#1D1D1D" d="M233.2,184.8c0.4-4.8,5.2-8.9,9.8-5.2c2.6,2.1,3.1,6,2.9,9.1c-0.2,6.2-4.3,12.6-9.1,16.2
					c-0.2,0.1,0.7,0,0.8-0.1c7.1-5.4,13.1-17.8,6.2-25.5c-4.2-4.7-11.7,0.2-11,5.6C232.9,185,233.2,184.9,233.2,184.8L233.2,184.8z"
					/>
			</g>
		</g>
		<g>
			<path fill="#E57F23" d="M210.4,160.9c7.8,5.3,5,11.1-3.3,13.3c-15,4.1-21-7.8-22.8-13.2C198,158.4,210.4,160.9,210.4,160.9z"/>
			<g>
				<path fill="#1D1D1D" d="M210.2,160.9c2.1,1.1,3.6,2.8,4.3,5c1.6,5.2-4.7,7.6-8.5,8.3c-4.9,1-10.3,1-14.2-2.4
					c-3.2-2.8-5.2-6.9-7.3-10.5c-0.1-0.2-0.8,0.1-0.7,0.2c2.4,4.1,5.1,10.2,9.7,12.3c4.4,2,10.5,1.6,15.1,0.1c3.2-1,6.4-2.7,6.8-6.4
					c0.3-3-2.1-5.7-4.6-6.9C210.6,160.5,209.9,160.8,210.2,160.9L210.2,160.9z"/>
			</g>
		</g>
		<g>
			<path fill="#FFB24D" d="M153.8,318.4c-11.2,23.5-11,30.5-3,34.3c8.2,4.2,11.1-0.5,15.6-7.8c3.5-5.6,6.5-10.6,8.5-15.5
				L153.8,318.4z"/>
			<g>
				<path fill="#1D1D1D" d="M174,329.3c-2.9,6.7-6.8,13-10.8,19.1c-3.1,4.7-6.9,6-12.1,3.4c-1.4-0.7-2.6-1.7-3.5-2.9
					c-2.1-2.8-1.4-7-0.7-10.1c1.5-7.1,4.9-13.8,8-20.3c0.5-1-1.7-0.8-2-0.1c-3.5,7.4-7.4,15.2-8.7,23.4c-0.6,4,0.3,7.6,3.6,10.1
					c3.9,3,9.2,4,13.4,1.2c2.8-1.9,4.6-5.5,6.4-8.2c3.1-5,6.2-10,8.5-15.5C176.4,328.4,174.3,328.6,174,329.3L174,329.3z"/>
			</g>
		</g>
		<path fill="#FF8F8F" d="M213.3,232.5v0.5c3.8,2.8,10.4,2.7,13.6-0.3l0.7-2C225.3,226.7,214.8,228.2,213.3,232.5z"/>
		<g>
			<path fill="#1D1D1D" d="M228.4,219.6c1,7.1,1.5,17.5-8.9,15.5c-2.5-0.5-5.2-1.1-7.2-2.8c-2.4-2.1-2.6-6-2.8-8.9
				c0-0.3-0.7-0.1-0.7,0.2c0.2,3.7,0.7,7.5,3.9,9.8c2.8,1.9,7.3,2.6,10.5,2.4c7.9-0.4,6.7-11.2,5.9-16.5
				C229.1,219.1,228.4,219.3,228.4,219.6L228.4,219.6z"/>
		</g>
		<g>
			<path fill="#1D1D1D" d="M143.9,243.4c2.4,3.1,4.4,6.3,7.3,9c4.3,4,9.8,6.4,14.9,9.2c3,1.7,1.7,1.9-1.1,1.8
				c-2.6-0.1-5.1-0.7-7.6-1.3c-4.9-1.2-10.3-3.3-13.5-7.4c-0.2-0.2-0.9,0-0.7,0.3c5,6.5,18,10.4,26,8.6c0.1,0,0.4-0.2,0.3-0.4
				c-3.7-3.5-9.3-5.4-13.6-8.1c-5.1-3.2-7.8-7.5-11.4-12.1C144.4,242.9,143.7,243.1,143.9,243.4L143.9,243.4z"/>
		</g>
		<g>
			<path fill="#1D1D1D" d="M173.7,183.4c0.3-1.7,0.9-3.2,2.1-4.4c1.8-1.7,4.4-1.4,6.6-0.9c0.5,0.1,2.4-0.7,1.8-0.8
				c-5.4-1.2-11.7,0.5-12.6,6.7C171.5,184.2,173.6,184,173.7,183.4L173.7,183.4z"/>
		</g>
		<g>
			<path fill="#1D1D1D" d="M222.9,169.6c3.1,0,6,0.8,8.9,1.9c0.6,0.2,2.6-0.7,1.7-1c-3.2-1.2-6.3-2-9.8-2.1
				C222.9,168.4,221.4,169.6,222.9,169.6L222.9,169.6z"/>
		</g>
		<g>
			<path fill="#F16888" d="M130.9,189.8c-5-0.3-4.8,5.2-4.7,6.7c-1.4-0.3-6.9-1.2-7.3,3.8c-0.5,7.3,13.6,6,15.7,5.8
				C135.1,204.1,138.1,190.3,130.9,189.8z"/>
			<path fill="#F16888" d="M99.9,190.6c-2.8,0.7-1.7,3.8-1.4,4.6c-0.9,0.1-4.1,0.5-3.4,3.4c1,4.1,8.6,0.9,9.7,0.5
				C104.8,197.7,104.1,189.5,99.9,190.6z"/>
			<path fill="#F16888" d="M110,172.4c-3.4-1.4-4.5,2.5-4.8,3.5c-0.9-0.6-4.5-2.5-5.9,0.9c-2,4.9,7.9,7.3,9.4,7.7
				C109.5,183.2,114.9,174.5,110,172.4z"/>
			<path fill="#F16888" d="M281.6,184c0.1-3.9-4.2-3.7-5.4-3.5c0.2-1.1,0.8-5.5-3.1-5.6c-5.7-0.2-4.4,10.8-4.2,12.4
				C270.5,187.6,281.3,189.7,281.6,184z"/>
			<path fill="#F16888" d="M172.8,128.9c-3.7-1.4-4.9,2.8-5.1,3.9c-1-0.6-4.9-2.6-6.4,1.1c-2.1,5.4,8.8,7.8,10.4,8.2
				C172.5,140.7,178.1,131,172.8,128.9z"/>
			<path fill="#F16888" d="M265.2,169.4c-0.5-2.7-3.4-1.9-4.2-1.6c0-0.8-0.2-3.9-3-3.4c-4,0.7-1.5,8.1-1.1,9.2
				C258.1,173.5,265.9,173.4,265.2,169.4z"/>
			<path fill="#F16888" d="M116.3,233c-0.7-2.3,1.9-2.8,2.6-2.9c-0.3-0.6-1.3-3.1,1-3.8c3.3-1,4.3,5.7,4.4,6.7
				C123.4,233.4,117.3,236.4,116.3,233z"/>
			<g>
				<path fill="#1D1D1D" d="M124.2,232.9c-1.9,1-3.9,2-6.1,1.7c-3.4-0.3-2.5-5.3,0.7-4.6c0.2,0,1-0.2,0.7-0.5
					c-0.9-0.9-1.3-2.4,0.1-3.1c1.5-0.9,2.8,1,3.2,2.1c0.6,1.5,0.4,3.1,0.9,4.5c0.1,0.4,0.9,0.2,0.9-0.2c-0.2-2.2-0.8-6.7-3.7-7
					c-2.5-0.3-4.3,2.2-2.3,4.1c0.2-0.2,0.5-0.3,0.7-0.5c-2.3-0.5-5.5,1.5-4.1,4.1c0.7,1.3,2.7,1.5,4,1.4c1.8-0.1,3.6-1,5-2
					C124.4,232.9,124.2,232.8,124.2,232.9L124.2,232.9z"/>
			</g>
			<g>
				<path fill="#1D1D1D" d="M104.4,199.3c-2.3,1.6-6.5,2.1-8.1-0.7c-1-1.7,0.4-4.4,2.6-3c0.1,0.1,0.6,0,0.6-0.2
					c-0.4-0.7-0.6-1.5-0.7-2.3c-0.2-1.8,1.3-3.7,3.1-2c1.5,1.5,1,4.8,1.5,6.7c0,0.1,0.2,0,0.2-0.1c-0.2-2.1,0.4-7.8-3.1-7.6
					c-2.8,0.2-2.7,3.4-1.7,5.4c0.2-0.1,0.4-0.1,0.6-0.2c-2.1-1.5-4.5,0.3-4.1,2.8C95.8,202.2,102.3,201.3,104.4,199.3
					C104.5,199.3,104.4,199.3,104.4,199.3L104.4,199.3z"/>
			</g>
			<g>
				<path fill="#1D1D1D" d="M108.6,184.8c-2.8,0.5-6.1-1.4-7.9-3.4c-2.9-3.1,1.5-8.2,4.2-4.4c0.1,0.1,0.7,0,0.7-0.2
					c0-2,1.3-4.7,3.9-3.3c1.3,0.6,1.7,2.2,1.8,3.5c0.2,3.2-1.9,6.1-2.8,9c0,0.1,0.3,0,0.4-0.1c1.7-3.2,5.7-10.3,0.9-12.8
					c-2.7-1.4-4.9,1.6-4.8,3.9c0.2-0.1,0.4-0.1,0.7-0.2c-1-1.1-2.2-1.9-3.8-1.4c-1.5,0.5-2.8,1.8-2.8,3.5c0,4.1,6.1,6.9,9.6,6.1
					C108.7,184.9,108.8,184.7,108.6,184.8L108.6,184.8z"/>
			</g>
			<g>
				<path fill="#1D1D1D" d="M134.2,205.9c-4.1,0.4-8.4,0.3-12.1-1.7c-2.1-1.2-5.5-3.4-2.6-6.1c1.7-1.5,4.8-1.3,6.7-0.4
					c0.2,0.1,0.7-0.1,0.6-0.4c-0.2-1.2-0.2-2.3-0.1-3.5c0.3-3.5,4.2-3.7,6.3-1.3c2.4,2.7,1.4,7.6,1.2,10.8c0,0.3,0.5,0.2,0.5,0
					c0.7-4.2,1.4-12.2-4.4-13.2c-4.6-0.8-4.8,4.1-4.4,7.4c0.2-0.1,0.4-0.3,0.6-0.4c-3-1.4-10.8-0.4-8.9,4.5c0.9,2.3,4.6,3.7,6.8,4.4
					C127.6,206.8,131.2,207,134.2,205.9C134.3,205.9,134.3,205.9,134.2,205.9L134.2,205.9z"/>
			</g>
			<g>
				<path fill="#1D1D1D" d="M171.2,141.4c-3.4-0.7-7.5-2.1-9.6-5c-2.4-3.4,4-6.6,5.5-2.8c0.1,0.3,0.7,0.1,0.7-0.1
					c0.1-1.5,0.3-2.7,1.3-3.9c1.9-2.4,4.5-0.1,5.2,1.5c0.3,0.7,0.2,1.4,0.2,2.1c-0.2,2.3-1.6,4.3-2.3,6.5c-0.1,0.2,0.3,0.1,0.4,0
					c1.5-3.2,4.4-7.9,0.7-10.7c-3.4-2.6-6.4,1.3-6.3,4.6c0.2-0.1,0.5-0.1,0.7-0.2c-1.2-3.1-5.5-2.2-7.1,0c-1.1,1.6,0.1,3.6,1.4,4.7
					c2.5,2,5.8,3.5,9,3.5C171.1,141.6,171.3,141.5,171.2,141.4L171.2,141.4z"/>
			</g>
			<g>
				<path fill="#1D1D1D" d="M256.1,171.7c-0.6-1.9-0.4-4.6,0.5-6.3c1.5-2.7,5.8,0.4,3.9,3c0,0.1,0.4,0,0.4-0.1
					c2.6-1.9,5.6,1.4,3.2,3.5c-1.8,1.5-4.6,1.4-6.8,0.8c-0.1,0-0.7,0.2-0.6,0.2c1.8,1.3,6,0.3,7.6-0.9c1.2-0.9,1.9-2.2,0.8-3.5
					c-0.8-1-2.4-0.9-3.5-0.7c-0.2,0-0.3,0.1-0.5,0.2c-0.7,0.3-0.2,0.3,0.1,0c0.5-0.5,0.6-1.2,0.5-1.8c-0.3-1.4-2.1-2.2-3.4-2
					C254.7,164.5,255,169.2,256.1,171.7C256,171.7,256.1,171.7,256.1,171.7L256.1,171.7z"/>
			</g>
			<g>
				<path fill="#1D1D1D" d="M268.9,185.8c0.5-3.1-0.1-6.1,1.5-9c2.7-4.8,8.4,1.6,5,3.7c-0.2,0.1,0.1,0.1,0.2,0.1
					c2.6-0.6,6,1.8,5.3,4.6c-0.8,3.5-9.1,1.9-11.6,1.4c-0.2,0-0.9,0.3-0.7,0.3c3.6,0.6,9.2,1.8,12.3-0.9c3-2.6-2.1-6.4-4.8-5.8
					c1.5-0.3,0.9-2.8,0.4-3.6c-0.8-1.4-2.5-2.1-4-1.8c-4.3,0.8-4.4,7.6-3.8,10.9C268.6,185.9,268.8,185.9,268.9,185.8L268.9,185.8z"
					/>
			</g>
		</g>
		<g>
			<path fill="#FFB24D" d="M227.4,242c-0.9-2.1-2.4-2.2-3.5-1.9c1.3-0.8,2.6-2.1,1.5-4.1c-2-3.5-5.3-0.5-5.3-0.5s2.4-2.4,0.7-3.8
				c-3.1-2.6-5.9,0.7-6,0.7c-6.7,1.8-26.2,6.6-40.2,14.4l4.5,21.6c25.6-6.9,44.7-21.6,44.7-21.6S228.9,245.7,227.4,242z"/>
			<g>
				<path fill="#1D1D1D" d="M179.1,269c15.6-4.3,30.5-11.4,43.7-20.7c0.5-0.4,1-0.7,1.5-1.1c0.5-0.4-1,0.4,0.3-0.1
					c1.8-0.7,3.3-1.6,4-3.3c0.8-1.8-1.2-4.3-3.1-4.2c-1.5,0.1-2.9,0.5-4.1,1.3c-0.9,0.6,0.9,0.5,1.2,0.4c2-0.7,5.7-3,3.7-5.6
					c-2-2.5-4.9-2.1-7.2-0.2c0.6,0,1.2,0,1.8,0c2.2-2.4,1.2-5.4-2.3-5.2c-2.8,0.1-5.4,2.1-8.1,2.9c-12.6,3.4-25.2,7.3-36.7,13.5
					c-1.3,0.7,0.7,0.7,1.3,0.4c9.1-4.9,19-8.3,29-11.2c3.3-1,6.7-1.9,10.1-2.8c0.6-0.2,1.1-0.3,1.6-0.7c3-2.5,5.6,0.7,3.2,3.2
					c-0.6,0.6,1.5,0.3,1.8,0c3.2-2.6,5.3,3.4,1,5c0.4,0.1,0.8,0.3,1.2,0.4c2.6-1.8,5.3,4.2,0.5,5.5c-0.4,0.1-0.7,0.3-1,0.5
					c-2.1,1.6-4.2,3-6.4,4.4c-11.5,7.4-24.1,13.1-37.3,16.7C177.6,268.5,177.8,269.3,179.1,269L179.1,269z"/>
			</g>
		</g>
		<g>
			<path fill="#FFB24D" d="M257.9,238c-7.9-3.9-12.1-4.6-17.7-6.5c-0.2-0.1-2.9-3.3-6-0.7c-1.7,1.4,0.7,3.8,0.7,3.8s-3.3-3-5.3,0.5
				c-1.1,2,0.2,3.3,1.5,4.1c-1.2-0.3-2.7-0.2-3.5,1.9c-1.5,3.6,3.7,4.9,3.7,4.9s13.2,11.7,27,13.1h2.3
				C266.9,257.3,269.5,243.8,257.9,238z"/>
			<g>
				<path fill="#1D1D1D" d="M258.9,258.6c-8.8-1.1-16.7-5.4-23.8-10.6c-0.8-0.6-2.1-2.1-3.1-2.4c-1.1-0.3-2-0.8-2.9-1.6
					c-2.1-1.7,0-5.3,2.4-3.6c0.6-0.3,1.3-0.5,1.9-0.8c-0.9-0.3-1.7-0.8-2.4-1.4c-2.2-1.8,0.4-5.1,2.8-3.1c0.4,0.3,2.4-0.3,2-0.8
					c-2-2.2,0-4.6,2.5-2.9c1.1,0.7,1.9,1,3.2,1.4c5.2,1.6,10.3,3.3,15.2,5.7c4,1.9,6.7,5.2,7.8,9.5c0.9,3.7-0.3,9.5-4.4,10.9
					c-1.5,0.5-0.1,0.8,0.8,0.5c4-1.4,5.8-5,6.1-9.1c0.6-7.9-6.5-12-12.7-14.7c-3.2-1.4-6.5-2.4-9.8-3.3c-2.4-0.7-4.7-2.7-7.1-2.8
					c-3.5-0.2-6.3,2.6-3.5,5.6c0.7-0.3,1.4-0.5,2-0.8c-5-4.1-11.6,3.5-4.2,6.1c0.4,0.1,2.3-0.5,1.9-0.8c-5.6-3.7-10.9,4.4-3.5,6.8
					c0.7,0.2,1.7,1.4,2.3,1.8c2.3,1.8,4.7,3.3,7.1,4.8c5.5,3.3,11.5,5.7,17.9,6.5C258,259.5,260.1,258.7,258.9,258.6L258.9,258.6z"
					/>
			</g>
		</g>
	</g>
</g>
<g id="Layer_25">
</g>
<g id="Layer_26">
</g>
<g id="Layer_27">
</g>
<g id="Layer_28">
</g>
<g id="Layer_29">
</g>
<g id="Layer_30">
</g>
<g id="Layer_31">
</g>
<g id="Layer_32">
</g>
<g id="Layer_33">
</g>
<g id="Layer_34">
</g>
<g id="Layer_36">
</g>
<g id="Layer_35">
</g>
<g id="Layer_37">
</g>
<g id="Layer_38">
</g>
<g id="Layer_39">
</g>
<g id="Layer_40">
</g>
</svg>
